<?xml version="1.0" encoding="utf-8"?>
<!-- Generator: Adobe Illustrator 19.0.0, SVG Export Plug-In . SVG Version: 6.00 Build 0)  -->
<svg version="1.1" id="图层_1" xmlns="http://www.w3.org/2000/svg" xmlns:xlink="http://www.w3.org/1999/xlink" x="0px" y="0px"
	 viewBox="0 0 1000 1000" style="enable-background:new 0 0 1000 1000;" xml:space="preserve">
<style type="text/css">
	.st0{fill:#57B894;}
	.st1{fill:#F2F2F2;}
	.st2{fill:#6C63FF;}
	.st3{opacity:0.3;fill:#6C63FF;enable-background:new    ;}
	.st4{fill:#E6E6E6;}
	.st5{fill:#3F3D56;}
	.st6{fill:#FBBEBE;}
	.st7{opacity:0.1;enable-background:new    ;}
	.st8{fill:#2F2E41;}
</style>
<g id="_x23_chart_x28_have_x5B_folder_x2C_paper_x5D__x29_">
	<path class="st0" d="M879.2,544.1c-0.2,11.8-0.7,25.1-1.9,39.1l34.1-42.5l0.2,0.7c-2.8-9.6-6.9-18.7-12.3-27.2l0.3,0.6L879.2,544.1
		z"/>
	<path class="st0" d="M879.3,542l19.8-28.4c-5.7-8.6-12.5-15.2-20.3-19.3c-0.4-0.2-0.8-0.4-1.2-0.6
		C877.9,496.9,879.5,515.7,879.3,542z"/>
	<path class="st0" d="M915.7,624.5c0.8-5,1.5-9.9,2-14.8L866.2,650l-0.1-0.4c-0.8,2.9-1.6,5.8-2.4,8.6l51.8-34.6L915.7,624.5z"/>
	<path class="st0" d="M872.1,622.9l46-42.6l0.2,0.7c-0.6-13.2-2.7-26.3-6.4-38.9l-34.7,43.3C875.9,598.4,874.3,610.9,872.1,622.9z"
		/>
	<path class="st0" d="M876.3,584.6l-61.5-61.2l0.3-0.7c-5,8-9.2,16.4-12.5,25.2l70,66.4C874.2,604,875.4,593.9,876.3,584.6z"/>
	<path class="st0" d="M871,623.6c0.5-2.5,0.9-5.1,1.3-7.6L802,549.4l0.3-0.8c-1.2,3.1-2.3,6.3-3.3,9.6l0.3-0.8L871,623.6z"/>
	<path class="st0" d="M866.6,648l51-40l0.1,0.8c0.8-8.9,1-17.9,0.6-26.9L871.7,625C870.2,633,868.5,640.6,866.6,648z"/>
	<path class="st0" d="M794.1,620.9l57.6,66.8c3.9-8.8,7.3-17.8,10.1-26.9l-69.4-64.9c-0.2,8.6,0.3,17.2,1.3,25.8L794.1,620.9z"/>
	<path class="st0" d="M876.6,493.7l0.5-0.2c-12.1-5.6-24.8-4.2-36.6,2.9l37.9,45.6C878.6,513.6,876.6,494,876.6,493.7z"/>
	<path class="st0" d="M862.3,663c-2.6,8.3-5.7,16.4-9.2,24.3l52.3-31l0.1,0.8c3.7-7.1,6.4-14.6,8.2-22.4c0.7-3.1,1.3-6.1,1.8-9.2
		l-52.4,35C862.8,661.3,862.6,662.2,862.3,663z"/>
	<path class="st0" d="M878.3,544.1l-38.7-46.7l0.3-0.7c-8.9,5.5-17.2,14.1-24.5,25.4l61,60.7C877.6,568.9,878.2,555.8,878.3,544.1z"
		/>
	<path class="st0" d="M862.4,659.2c3.4-11.1,6.1-22.4,8.3-33.9L798.7,559c-1.4,4.5-2.6,9.1-3.7,13.9c-1.5,6.9-2.3,13.9-2.5,21
		L862.4,659.2L862.4,659.2z"/>
	<path class="st0" d="M936.4,730.9c-7.7,9-16.5,18.9-26.4,28.9l53.4-11l-0.2,0.7c4-9.2,6.6-18.8,7.9-28.8l-0.2,0.7L936.4,730.9z"/>
	<path class="st0" d="M967.8,692.3c-0.2-0.4-0.4-0.8-0.6-1.2c-1.8,2.7-12.5,18.2-29.5,38.3l33.4-9.3
		C972.2,709.8,971.2,700.4,967.8,692.3z"/>
	<path class="st0" d="M859,803.9c-2.5,1.7-4.9,3.4-7.3,5.1l62,6.4l-0.4,0.7c3.8-3.3,7.5-6.7,11-10.2l-65.3-1.7L859,803.9z"/>
	<path class="st0" d="M880.7,787l62.6-3.5l-0.3,0.7c8-10.5,14.6-22,19.9-34.1l-54.4,11.2C899.2,770.7,889.9,779.2,880.7,787z"/>
	<path class="st0" d="M860.4,802.9l64.8,1.7l-0.4,0.7c6.3-6.4,12.2-13.2,17.6-20.3l-63.5,3.5C872.8,793.6,866.6,798.4,860.4,802.9z"
		/>
	<path class="st0" d="M783.3,839.4c0.4-0.5,0.9-1,1.3-1.5c13-2.9,25.7-7.3,37.6-13.2l-0.9-46.5c0.5-1.2,0.9-2.4,1.3-3.7l1,49.5
		c8.6-4.3,16.9-9,25-14.3l-11-86c0.4-0.3,0.9-0.5,1.4-0.8l11,85.9l0.1,0c9.7-6.4,19-13.4,28-20.8l-11.4-84.6
		c0.4-0.4,0.9-0.7,1.3-1.1l11.4,84.6c2-1.7,3.9-3.3,5.8-5l-10.4-85.7c0.4-0.4,0.9-0.8,1.3-1.2l10.4,85.8
		c7.9-6.9,15.2-13.9,21.8-20.5l-8.4-86.4l0.7-0.4c-2.4,0.8-4.8,1.6-7.2,2.6c4.3-5.6,8.2-11.5,11.5-17.7l-52.8,31.3
		c-3.3,7.3-7.2,14.5-11.4,21.3c-0.9,1-1.9,2-2.8,3l0.1,1.1c-0.4,0.6-0.8,1.2-1.2,1.8l-0.2-1.4c-0.5,0.6-1,1.2-1.6,1.8
		c6.2-8.9,11.6-18.3,16.1-28.2l-57.2-66.3c0.7,6.2,1.7,12.4,2.8,18.5c-5.4-7.7-11.8-14.7-19.1-20.7l0.5,0.5l-10.4,34.2
		c3.5,11.3,7.1,24.1,10.3,37.7l19-50.3c0.1,0.8,0.3,1.5,0.4,2.3l-19,50.1c2.9,12.8,5.2,25.2,6.8,37.2l23.8-42.6
		c0.2,0.6,0.4,1.2,0.6,1.7l-24,43.1c1,8,1.8,15.8,2.2,23.4l29.5-44c0.2,0.5,0.4,1.1,0.6,1.6l-29.9,44.5l-0.2-0.3
		c0.2,3,0.3,6,0.4,8.9L822,726c0.2,0.6,0.4,1.1,0.6,1.5L788.3,771c0,0.9,0,1.8,0,2.7c0.1,8.7-0.3,17.3-1.2,25.9l3.3-3.7
		c-0.6,1.4-1.1,2.8-1.7,4.2l-1.9,2.1c-0.1,1.3-0.3,2.6-0.5,3.8c-0.6,1.6-1.2,3.2-1.8,4.8c0.5-2.9,0.9-5.9,1.2-8.8l-74.9-45.4
		c21.6,47,59.6,90.7,62.1,93.5c1.6-3.5,3.1-7.1,4.4-10.8c0.4-0.1,0.9-0.1,1.3-0.2c-0.2,0.4-0.3,0.9-0.5,1.3c-0.2,0-0.5,0.1-0.7,0.1
		c0.2,0,0.4,0.1,0.6,0.1c-0.9,2.6-1.9,5.1-3,7.6c1.5-1.5,3.7-3.9,6.5-6.9c17.2,3.3,63.4,9.9,101.7-6l-60.6-9.6
		C810.1,831.9,796.9,836.5,783.3,839.4z M821,761.2l1.4-1.5l0,2.2l-1.4,1.5L821,761.2z"/>
	<path class="st0" d="M966.5,690.4l0.5,0.1c-5.8-12-16.4-19-30-21.1l0,59.3C955.3,707,966.3,690.7,966.5,690.4z"/>
	<path class="st0" d="M847.5,811.7c-7.3,4.7-14.8,9-22.5,12.9L885,834l-0.4,0.7c7.3-3.1,14.3-7.2,20.6-12c2.5-1.9,4.9-3.9,7.3-5.9
		l-62.7-6.5C849,810.7,848.2,811.2,847.5,811.7z"/>
	<path class="st0" d="M909.6,758.9c9.7-9.9,18.5-19.6,26.1-28.5l0-60.7l0.7-0.4c-10.3-1.5-22.3-0.1-35,3.9L909.6,758.9z"/>
	<path class="st0" d="M777.1,620.2c-8.1-6.4-16.6-10.6-25.2-12c-0.5-0.1-0.9-0.1-1.3-0.2c1.3,3,8.7,20.3,16.5,45.4L777.1,620.2z"/>
	<path class="st0" d="M777.4,694.8L700,655.6l0-0.8c-2.3,9.1-3.6,18.4-4.1,27.8l87.1,41.5C781.5,713.8,779.5,703.9,777.4,694.8z"/>
	<path class="st0" d="M783.3,725.9l-87.5-41.7l0-0.8c-0.1,3.3-0.2,6.7-0.1,10.1l0-0.8l88.7,40.7C784.1,731,783.7,728.4,783.3,725.9z
		"/>
	<path class="st0" d="M787.3,771.7l-86-40.3c2.5,8.2,5.6,16.3,9.2,24.2l0.1-0.9l75.5,45.7C787,790.9,787.4,781.3,787.3,771.7z"/>
	<path class="st0" d="M749.6,608.2l0.4-0.4c-13.2-1.6-24.8,3.7-33.9,14l50.1,31.7C757.7,626.5,749.7,608.5,749.6,608.2z"/>
	<path class="st0" d="M766.8,655.6l-51.3-32.4l0.1-0.8c-6.7,7.9-12,18.7-15.4,31.7l76.8,38.8C773.9,679.4,770.3,666.8,766.8,655.6z"
		/>
	<path class="st0" d="M787.2,770c-0.2-11.6-1.1-23.2-2.6-34.8l-88.9-40.8c0.1,4.7,0.4,9.5,0.8,14.4c0.7,7,2.1,14,4.1,20.7L787.2,770
		L787.2,770z"/>
	<path class="st1" d="M714.8,564l-258.1-32.5c-11.7-97.3,6-192.3,36.2-286.8L751,277.2C712,369.9,700.6,465.5,714.8,564z"/>
	
		<rect x="527.2" y="288.9" transform="matrix(-0.9921 -0.1251 0.1251 -0.9921 1171.4922 668.3367)" class="st2" width="159" height="17.1"/>
	
		<rect x="491.1" y="329.5" transform="matrix(-0.9921 -0.1251 0.1251 -0.9921 1151.1982 739.8929)" class="st3" width="215.5" height="8.5"/>
	
		<rect x="487.6" y="356.9" transform="matrix(-0.9921 -0.1251 0.1251 -0.9921 1140.9003 793.9965)" class="st3" width="215.5" height="8.5"/>
	
		<rect x="484.2" y="384.3" transform="matrix(-0.9921 -0.1251 0.1251 -0.9921 1130.6023 848.1002)" class="st3" width="215.5" height="8.5"/>
	
		<rect x="480.7" y="411.7" transform="matrix(-0.9921 -0.1251 0.1251 -0.9921 1120.3043 902.2037)" class="st3" width="215.5" height="8.5"/>
	
		<rect x="477.3" y="439" transform="matrix(-0.9921 -0.1251 0.1251 -0.9921 1110.0065 956.3074)" class="st3" width="215.5" height="8.5"/>
	
		<rect x="473.8" y="466.4" transform="matrix(-0.9921 -0.1251 0.1251 -0.9921 1099.7084 1010.411)" class="st3" width="215.5" height="8.5"/>
	
		<rect x="470.4" y="493.8" transform="matrix(-0.9921 -0.1251 0.1251 -0.9921 1089.4105 1064.5146)" class="st3" width="215.5" height="8.5"/>
	<path class="st4" d="M592.6,468.1l-241.5-96.8c13.3-97.1,54.4-184.5,107.5-268.3l241.5,96.8C639,279.6,603.7,369.3,592.6,468.1z"/>
	
		<rect x="476" y="174.3" transform="matrix(-0.9282 -0.372 0.372 -0.9282 1003.0291 559.2327)" class="st2" width="159" height="17.1"/>
	
		<rect x="430.9" y="211.8" transform="matrix(-0.9282 -0.372 0.372 -0.9282 958.1595 617.037)" class="st3" width="215.5" height="8.5"/>
	
		<rect x="420.6" y="237.4" transform="matrix(-0.9282 -0.372 0.372 -0.9282 928.8373 662.6014)" class="st3" width="215.5" height="8.5"/>
	
		<rect x="410.3" y="263" transform="matrix(-0.9282 -0.372 0.372 -0.9282 899.5152 708.1658)" class="st3" width="215.5" height="8.5"/>
	
		<rect x="400.1" y="288.6" transform="matrix(-0.9282 -0.372 0.372 -0.9282 870.193 753.7302)" class="st3" width="215.5" height="8.5"/>
	
		<rect x="389.8" y="314.3" transform="matrix(-0.9282 -0.372 0.372 -0.9282 840.871 799.2946)" class="st3" width="215.5" height="8.5"/>
	
		<rect x="379.5" y="339.9" transform="matrix(-0.9282 -0.372 0.372 -0.9282 811.5488 844.8591)" class="st3" width="215.5" height="8.5"/>
	
		<rect x="369.3" y="365.5" transform="matrix(-0.9282 -0.372 0.372 -0.9282 782.2266 890.4234)" class="st3" width="215.5" height="8.5"/>
	<path class="st1" d="M532.9,491.4H272.7c-23.8-95.1-18.1-191.5,0-289.1h260.2C505.8,299.2,506.4,395.5,532.9,491.4z"/>
	<rect x="312.8" y="231.9" class="st2" width="159" height="17.1"/>
	<rect x="281.3" y="273.3" class="st3" width="215.5" height="8.5"/>
	<rect x="281.3" y="300.9" class="st3" width="215.5" height="8.5"/>
	<rect x="281.3" y="328.5" class="st3" width="215.5" height="8.5"/>
	<rect x="281.3" y="356.1" class="st3" width="215.5" height="8.5"/>
	<rect x="281.3" y="383.7" class="st3" width="215.5" height="8.5"/>
	<rect x="281.3" y="411.3" class="st3" width="215.5" height="8.5"/>
	<rect x="281.3" y="438.8" class="st3" width="215.5" height="8.5"/>
	<path class="st5" d="M357.5,433.7L267.9,364c-1.8-3.2-5.2-5.1-8.9-5.1h-48.4c-5.7,0-10.2,4.6-10.2,10.2l0,0v426.9
		c0,18.3,14.9,33.2,33.2,33.2h496.6c18.3,0,33.2-14.9,33.2-33.2V463.9c0-16.7-13.5-30.2-30.2-30.2H357.5z"/>
	<rect x="656.4" y="532.7" class="st2" width="90.1" height="31.5"/>
	<path class="st1" d="M42,894.1c0,0,411.9-235.6,909.4,0"/>
</g>
<g id="_x23_man_x28_stand_x29_">
	<path class="st6" d="M130.2,353.5c0,0,4.4,23.4,1.3,25.2c-2.5,1.6-4.9,3.3-7.1,5.3l8,11.1l19,4l18.1-16.8v-16.8
		c0,0-5.3-8.4-4.4-13.7S130.2,353.5,130.2,353.5z"/>
	<path class="st7" d="M130.2,353.5c0,0,4.4,23.4,1.3,25.2c-2.5,1.6-4.9,3.3-7.1,5.3l8,11.1l19,4l18.1-16.8v-16.8
		c0,0-5.3-8.4-4.4-13.7S130.2,353.5,130.2,353.5z"/>
	<path class="st8" d="M99.7,393.7l-2.7,1.3c0,0-5.7,2.2-8.4,21.2s-8.8,64.5-7.1,65.9s0.9,10.2,0.9,10.2l13.3-69.4L99.7,393.7z"/>
	<path class="st8" d="M131.2,285.8c-0.4,0.8-0.5,1.8-0.9,2.7c-1.7,3.9-6.6,3-10.2,4.5c-3,1.3-5.2,4.7-5.5,8.4
		c-0.1,1.6,0.1,3.2,0,4.7c-0.3,2.9-1.8,5.5-2.3,8.3c-1.3,6.9,1.7,17.9,5.1,14.1c1.1-1.2,2.4-2,3.6-3c3-2.8,4.6-7.1,7-10.6
		c0.3-0.5,0.7-0.9,1.2-1.2c1.8-0.9,3.4,1.5,4.8,3.1c2.8,3.1,7.6,3.3,10.6,0.5c0.2-0.2,0.5-0.4,0.7-0.7c0.4-0.6,1-1.2,1.6-1.6
		c0.7-0.3,1.5-0.4,2.2-0.2c3.5,0.6,6.6,2.5,8.8,5.3c1.2,1.4,2.2,3.1,3.6,4.3c1.4,1.1,3.5,1.5,4.8,0.2c2.6,1.8,3.5,5.7,3.5,9.2
		s-0.7,7-0.5,10.5s1.6,7.3,4.3,8.6c0.4-3.2,2.1-6.1,4.6-8.1c1.9-1.4,4.2-2.1,5.8-4c3.2-3.7,2.2-9.8,2.3-15.1
		c0.2-6.5,2.4-12.7,2.8-19.2c0.2-3.2-0.1-6.7-1.8-9.3c-1.3-1.7-2.9-3.1-4.8-4.2l-15.2-9.7c-0.7-0.5-1.4-0.9-2.2-1.1
		c-2.2-0.4-4.2,1.7-6.3,2.6c-1.8,0.6-3.6,0.9-5.5,0.7c-5.9-0.2-7.5,1-11.5-2.9c-0.6-0.6-1.5-0.9-2.4-0.8
		C137.1,282,132.5,283.1,131.2,285.8z"/>
	<polygon class="st6" points="139.5,819.9 148.8,840.3 130.7,846.4 121.4,841.6 123.6,819.9 	"/>
	<path class="st8" d="M131.1,837.2c0,0-14.6-8.8-17.2-5.7S90,857.1,90,857.1s-32.7,17.7-7.5,20.3s66.3-15.5,66.3-15.5
		s2.2-23.9,0.4-24.3s-9.3,4-12.8,2.7C134.5,839.6,132.7,838.5,131.1,837.2z"/>
	<polygon class="st6" points="163.4,841.6 163.4,859.7 139.5,854.4 144.8,835.8 	"/>
	<path class="st8" d="M139.1,847.8c0,0,24.3-4,26.5,8s8,29.6,2.2,34s-35.4,10.2-35.8,2.7s3.1-22.1,3.1-22.1s2.2-11.5,0.9-14.6
		S139.1,847.8,139.1,847.8z"/>
	<path class="st8" d="M90.5,549.2c0,0-20,126.6-3.6,188.5s27.9,98.6,27.9,98.6s28.3-8,28.3-13.3s-11.1-84-13.7-91.5
		s-7.1-10.2-3.1-16.4s10.6-46,10.6-46s14.6,65.9,15.5,67.6s-9.3,103-9.3,103s29.2,21.2,30.9,5.3c0.4-4,19.9-145,19.9-146.8
		s8-137.1-4.9-143.7C176.2,548,90.5,549.2,90.5,549.2z"/>
	<circle class="st6" cx="147.5" cy="332.3" r="30.1"/>
	<path class="st2" d="M140.8,391.9v-3.1l-8.8-14.6c0,0-8.8,0.9-10.2,4.9c-1.3,4-16.4,35.8-16.4,35.8L89.6,557.7
		c0,0,43.8,10.6,50.4,3.1c6.6-7.5,31.8-171.1,31.8-171.1l3.5-19.9c0,0-6.1-8.8-7.5-7.5s-24.4,27-24.4,27l-0.4,4L140.8,391.9z"/>
	<path class="st8" d="M131.8,371.4c0,0-8.2-2-10.8,2.9c-2.7,4.9-2.7,6.6-5.3,8.4s-18.1,9.7-19,12.8S76.7,496.3,76.7,496.3
		s-9.3,29.2-4.9,49.1s1.3,23.9,10.6,25.6s10.6,1.8,10.6-0.9s11.9-92.4,20.3-98.6c8.4-6.2,6.2-73.8,6.2-73.8s11.9-14.6,11.9-16.8
		S133.5,371.2,131.8,371.4z"/>
	<path class="st8" d="M156.8,387.5c1.2,0.2,18.1-21.7,19.5-20.8s8,12.4,8.8,12.4s38.5,9.3,41.6,26.5s-21.7,72.1-21.7,72.1
		s-10.6,31.4-8.4,45.1c1.5,10.4,1.2,21.1-0.9,31.4c-0.9,3.5-4,7.5-3.1,9.3s-19.5-2.2-27.9,2.7c-8.4,4.9-46,8.4-43.8,3.1
		s3.5-26.1,9.7-48.2s22.1-74.3,19.5-77.8S154.1,387.1,156.8,387.5z"/>
	<path class="st8" d="M221.3,400.3l5.7,5.3c0,0,6.6,11.5,5.7,16.8s18.6,85.3,10.6,88s-27,15.9-29.2,19.5s-7.5,9.7-11.1,11.5
		c-3.5,1.8-7.1,4.9-9.3,3.1s-7.1-38-3.5-39.3c3.5-1.3,7.1-5.3,10.6-5.3s5.7-3.5,5.7-6.6c0-3.1-2.7-21.7-2.7-21.7l-5.7-43.8
		L221.3,400.3z"/>
	<path class="st8" d="M136.5,290.2c-0.4,0.6-0.5,1.4-0.8,2c-1.5,3-5.9,2.3-9,3.4c-2.7,1-4.6,3.5-4.8,6.3c-0.1,1.2,0.1,2.4,0,3.6
		c-0.2,2.2-1.6,4.1-2,6.3c-1.1,5.2,1.5,13.5,4.5,10.7c1-0.9,2.1-1.5,3.2-2.3c2.7-2.1,4-5.4,6.2-8c0.3-0.4,0.7-0.7,1.1-0.9
		c1.6-0.7,3,1.1,4.2,2.3c2.9,2.5,7.2,2.4,10-0.2c0.4-0.5,0.9-0.9,1.4-1.2c0.6-0.2,1.3-0.3,2-0.2c3,0.4,5.7,1.8,7.8,4
		c0.9,1.2,2,2.3,3.2,3.2c1.3,0.8,3.1,1.1,4.2,0.1c2.3,1.4,3.1,4.3,3.1,6.9c0,2.7-0.6,5.3-0.5,7.9c0.2,2.6,1.4,5.5,3.8,6.5
		c0.5-2.5,1.9-4.7,4.1-6.1c1.7-1.1,3.7-1.6,5.1-3c2.8-2.8,1.9-7.4,2.1-11.4c0.1-4.9,2.1-9.6,2.5-14.5c0.2-2.5-0.1-5.1-1.6-7
		c-1.2-1.3-2.6-2.4-4.3-3.1l-13.4-7.4c-0.6-0.4-1.3-0.7-2-0.8c-2-0.3-3.7,1.3-5.6,2c-1.6,0.5-3.2,0.6-4.9,0.5
		c-5.2-0.1-6.7,0.7-10.2-2.2c-0.6-0.5-1.4-0.7-2.1-0.6C141.7,287.4,137.6,288.2,136.5,290.2z"/>
</g>
</svg>
