<?xml version="1.0" encoding="utf-8"?>
<!-- Generator: Adobe Illustrator 19.0.0, SVG Export Plug-In . SVG Version: 6.00 Build 0)  -->
<svg version="1.1" id="图层_1" xmlns="http://www.w3.org/2000/svg" xmlns:xlink="http://www.w3.org/1999/xlink" x="0px" y="0px"
	 viewBox="-917 917.7 1000 1000" style="enable-background:new -917 917.7 1000 1000;" xml:space="preserve">
<style type="text/css">
	.st0{fill:#F2F2F2;}
	.st1{fill:#9F616A;}
	.st2{fill:#2F2E41;}
	.st3{opacity:0.1;enable-background:new    ;}
	.st4{fill:#575A88;}
	.st5{fill:#6C63FF;}
	.st6{fill:#3F3D56;}
	.st7{fill:#FF6584;}
</style>
<g id="_x23_background">
	<path class="st0" d="M-369.4,1235.9c-38.1,40.4-101,41.7-140.5,2.7c-1.9-1.9-3.8-3.9-5.6-6l-221.7,214.7l311.7,337l297.1-287.8
		L-369.4,1235.9z"/>
	<path class="st0" d="M-441.2,1245.8c23.6,0,46.3-9.8,62.6-27.3l-61.7-66.8l-66,64C-489.9,1234.8-466.1,1245.8-441.2,1245.8z"/>
</g>
<g id="_x23_man_x28_hold_x5B_cube_x5D__x2C_walk_x29_">
	<polygon class="st1" points="-786.7,1746.6 -788.4,1761.4 -798.2,1766.1 -809.1,1762.6 -816.6,1766.1 -818.9,1752.5 -805.7,1737.2 
			"/>
	<path class="st2" d="M-793.6,1757.8c0,0,8.9-10.6,9.1-5.3c0.1,5.3,19.7,23.6,19.7,23.6s30.5,9.4,6.9,15.3
		c-23.6,5.9-75.4-11.2-77.1-14.7s14.4-30.6,16.1-28.3C-817.2,1750.8-808.6,1759-793.6,1757.8z"/>
	<path class="st2" d="M-771.7,1582.9c0,0,3.5,27.7,0,31.8s-1.7,12.4,0,13.6s-2.3,5.9-5.2,8.2c-2.9,2.4-6.9,13-6.9,13
		s-15.5,41.8-15.5,46c0,4.1-6.9,13-6.3,15.9c0.6,2.9-4,12.4-3.5,14.1c0.6,1.8-7.5,17.7-5.2,20c2.3,2.3,34,10.6,32.2,5.3
		c-1.7-5.3-2.9-11.8-1.7-11.8s6.3-6.5,5.2-8.8c-1.2-2.4,34.5-64.2,34.5-64.2L-771.7,1582.9z"/>
	<path class="st3" d="M-793.6,1757.8c0,0,8.9-10.6,9.1-5.3c0.1,5.3,19.7,23.6,19.7,23.6s30.5,9.4,6.9,15.3
		c-23.6,5.9-75.4-11.2-77.1-14.7s14.4-30.6,16.1-28.3C-817.2,1750.8-808.6,1759-793.6,1757.8z"/>
	<path class="st3" d="M-771.7,1582.9c0,0,3.5,27.7,0,31.8s-1.7,12.4,0,13.6s-2.3,5.9-5.2,8.2c-2.9,2.4-6.9,13-6.9,13
		s-15.5,41.8-15.5,46c0,4.1-6.9,13-6.3,15.9c0.6,2.9-4,12.4-3.5,14.1c0.6,1.8-7.5,17.7-5.2,20c2.3,2.3,34,10.6,32.2,5.3
		c-1.7-5.3-2.9-11.8-1.7-11.8s6.3-6.5,5.2-8.8c-1.2-2.4,34.5-64.2,34.5-64.2L-771.7,1582.9z"/>
	<polygon class="st1" points="-713,1739.3 -706.7,1755.8 -709.5,1778.8 -728,1777.6 -738.3,1768.2 -738.3,1748.2 	"/>
	<path class="st2" d="M-716.4,1759.4c0,0,6.3-21.2,9.8-15.3c2.2,3.8,4.1,7.7,5.8,11.8c0,0,28.2,18.9,35.7,18.9s14.4,9.4,4.6,13
		c-9.8,3.5-84.6,8.2-85.8,0c-1.2-8.2,1.2-34.8,4.6-31.8C-738.3,1758.8-720.5,1765.3-716.4,1759.4z"/>
	<path class="st1" d="M-702,1498.4c0,0,25.4,17.6,26.5,20c1.2,2.4,15.9,9.6,3.8,15.5c-12.1,5.9-44.1-31.4-44.1-31.4L-702,1498.4z"/>
	<path class="st4" d="M-714.7,1464.2c0,0,18.4,36.5,15,37.7c-3.5,1.2-17.3,8.2-17.3,8.2l-6.3-37.1L-714.7,1464.2z"/>
	<path class="st3" d="M-714.7,1464.2c0,0,18.4,36.5,15,37.7c-3.5,1.2-17.3,8.2-17.3,8.2l-6.3-37.1L-714.7,1464.2z"/>
	<path class="st2" d="M-715.9,1494.8c0,0,4,30.6,2.3,37.1c-1.7,6.5,1.2,103.7-1.2,109c-2.3,5.3-4,39.5-4,43.6s4.6,37.7,5.8,40.7
		c1.2,2.9,4.6,13,2.9,17.7c-1.7,4.7-25.3,16.5-28.8,12.4s-0.6-17.1-3.5-17.7c-2.9-0.6-6.3-28.3-6.3-28.3l-19-108.4
		c0,0-35.7-90.7-27.6-99.6C-787.3,1492.5-715.9,1494.8-715.9,1494.8z"/>
	<ellipse class="st1" cx="-737.2" cy="1256.8" rx="28.2" ry="28.9"/>
	<path class="st1" d="M-726.8,1280.4c0,0-9.2,24.7-8.1,30c1.2,5.3-27.1-9.4-27.1-9.4s1.7-28.9,0-36.5
		C-763.7,1256.9-726.8,1280.4-726.8,1280.4z"/>
	<path class="st4" d="M-804.2,1441.6c0.1,4.9,0.2,7.9,0.2,7.9s-1.7,27.1,1.2,35.9c2.9,8.8,2.9,15.3,4.6,21.2c0.5,1.7,7.4,2.6,17.1,3
		c8.9,0.4,20.1,0.3,30.9,0.1c17.8-0.4,34.5-1.4,37.3-1.9c6.3-1.2-1.2-11.2,1.2-16.5c2.3-5.3-4-73.1-4-73.1s0.6-38.3-2.3-53
		c-2.9-14.7-13.8-38.3-16.1-41.2s-0.6-4.7,4.6-8.2c5.2-3.5,0-17.1,0-17.1c-9.8-8.2-34.5-9.4-34.5-9.4s-38,40.1-40.3,48.3
		c-1.4,5-0.9,44.8-0.3,75.5C-804.6,1424.6-804.3,1434.9-804.2,1441.6z"/>
	<path class="st1" d="M-755.6,1514.9c0,0,21.9,46,4.6,48.9s-25.9-41.8-25.9-41.8L-755.6,1514.9z"/>
	<path class="st2" d="M-710.8,1242.2c1-5-2.7-9.6-6.6-12.7c-8.5-6.7-18.9-10.4-29.7-10.3c-7.6,0-15.3,2.1-21.1,7.1
		c-6.7,5.9-9.7,15.4-9.1,24.4c0.6,9,4.4,17.5,9.5,24.8c2.5,3.5,6.4,7.1,10.4,5.6c1.5-0.7,2.9-1.9,3.8-3.3c2.5-3.2,4.7-6.7,6.6-10.4
		c1.4-2.8,2.6-5.8,4.6-8.2s5-4.2,8.1-3.8c2.5,0.4,5,2.2,7.4,1.3c2.7-1,3.3-4.5,3.5-7.4c0.2-3.2,0.1-6.9,0.9-9.9
		C-721.3,1240-711.3,1244.5-710.8,1242.2z"/>
	<path class="st3" d="M-804.2,1441.6c6.4,23.8,21.2,63.9,22.1,65.6c0.2,0.4,0.5,1.3,1,2.5c8.9,0.4,20.1,0.3,30.9,0.1
		c-1.7-4.5-3.6-8.8-3.6-10.2c0-2.9-13.8-79-13.8-79s10.9-33.6,20.7-61.9c9.8-28.3-29.1-22.7-29.1-22.7c-20.7-5.3-24.5,3.8-24.5,3.8
		s-1.8,49.7-4.3,73.2c-0.6,6-1.3,10.3-2,11.7C-807.8,1426.4-806.5,1432.9-804.2,1441.6z"/>
	<path class="st4" d="M-767.7,1316.9c0,0,26.5,11.2,16.7,39.5c-9.8,28.3-20.7,61.9-20.7,61.9s13.8,76,13.8,79s8.6,18.9,5.2,21.8
		c-3.5,2.9-26.5,8.8-27.1,5.9c-0.6-2.9-5.2-17.7-6.3-20c-1.2-2.4-28.2-76-24.8-82.5c2.5-4.8,4.8-48.5,5.8-71.2
		c0.5-13.2,7.7-25.2,19.1-31.5C-780.7,1316.7-774.4,1315.2-767.7,1316.9z"/>
	<rect x="-695.4" y="1489.3" class="st5" width="34.1" height="34.9"/>
	<ellipse class="st6" cx="-678.4" cy="1478.7" rx="10.4" ry="10.7"/>
</g>
<g id="_x23_other_x28_have_x5B_triangle_x2C_circle_x2C_square_x2C_tree_x5D__x29__1_">
	<path class="st5" d="M-166.4,1349.9c0.1,88.2-69.7,159.7-155.8,159.8c-0.1,0-0.2,0-0.3,0c-0.9,0-1.8,0-2.7,0
		c-3.7-0.1-7.4-0.3-11.1-0.6c-85.9-7.8-149.4-85.4-141.8-173.3c7.6-87.9,83.4-152.9,169.3-145.1
		C-228.2,1198-166.4,1267.1-166.4,1349.9L-166.4,1349.9z"/>
	<path class="st3" d="M-232,1292c9.8-17.7,16.2-37.1,18.8-57.2c-62.1-61.2-160.9-59.4-220.8,4.1c-23,24.4-37.8,55.8-42.3,89.4
		c25.6,25.4,59,40.9,94.6,44.1c3.7,0.3,7.4,0.5,11.1,0.6c0.9,0,1.8,0,2.7,0C-311.7,1373.2-259.7,1342.2-232,1292z"/>
	<rect x="-504.2" y="1505.8" class="st2" width="250.8" height="286.7"/>
	<path class="st3" d="M-173.1,1409.5c-19.7,47.3-60.4,82-109.4,93.4h34.8v286.7h-231.4l129.8-230.1l29.7-52.7l2.2-3.8l98.4-174.5
		L-173.1,1409.5z"/>
	<polygon class="st6" points="-186.7,1330.3 -56.4,1561.4 74,1792.4 -186.7,1792.4 -447.4,1792.4 -317.1,1561.4 	"/>
	<rect x="-914" y="1790.5" class="st2" width="988" height="1.9"/>
	<ellipse class="st7" cx="-276" cy="1087.3" rx="51.4" ry="52.6"/>
	<path class="st0" d="M-276.2,1123.3c0,39.7-23.1,53.5-51.5,53.5s-51.5-13.9-51.5-53.5s51.5-90.2,51.5-90.2
		S-276.2,1083.6-276.2,1123.3z"/>
	<polygon class="st6" points="-329.5,1170.7 -329,1137.5 -307,1096.4 -328.9,1132.3 -328.7,1117.4 -313.6,1087.6 -328.6,1113.4 
		-328.6,1113.4 -328.2,1086.6 -312,1062.9 -328.1,1082.3 -327.9,1033.1 -329.5,1098.3 -329.4,1095.6 -345.9,1069.8 -329.7,1100.8 
		-331.2,1130.8 -331.2,1130 -350.2,1102.8 -331.3,1132.8 -331.5,1136.5 -331.5,1136.6 -331.5,1136.9 -335.4,1213 -330.2,1213 
		-329.6,1173.7 -310.7,1143.8 	"/>
	<path class="st0" d="M-152.1,1182.6c-12.3,37.6-38.5,43.3-65.4,34.1c-27-9.2-44.5-29.9-32.2-67.5s76.8-68.8,76.8-68.8
		S-139.8,1144.9-152.1,1182.6z"/>
	<polygon class="st6" points="-217.4,1210.3 -206.6,1178.9 -173,1147.1 -204.9,1174 -200.1,1159.9 -176.5,1136.7 -198.8,1156.2 
		-198.8,1156.2 -190,1130.9 -167.3,1113.7 -188.7,1126.9 -173.1,1080.3 -194.9,1141.6 -194,1139.1 -201.6,1109.2 -195.8,1143.9 
		-206.6,1171.8 -206.4,1171.1 -216,1139.1 -207.3,1173.7 -208.7,1177.2 -208.7,1177.2 -208.8,1177.5 -236.1,1248.4 -231.1,1250.1 
		-218.4,1213.1 -191.2,1190.8 	"/>
	<path class="st0" d="M-407.7,1152.3c13.9,37-2.7,58.4-29.2,68.9s-52.9,6-66.9-31c-14-37,16.4-103.1,16.4-103.1
		S-421.6,1115.3-407.7,1152.3z"/>
	<polygon class="st6" points="-440.8,1216.2 -452,1185 -445.9,1138.6 -453.7,1180.2 -458.8,1166.1 -455.1,1132.8 -460.1,1162.4 
		-460.1,1162.4 -469.1,1137.2 -462.3,1109.2 -470.6,1133.2 -487.6,1087.2 -466.3,1148.6 -467.1,1146.1 -491.5,1128.1 -465.5,1151 
		-456.4,1179.5 -456.7,1178.8 -484,1160.5 -455.8,1181.5 -454.6,1185 -454.7,1185.1 -454.5,1185.4 -431.4,1257.8 -426.6,1255.9 
		-439.8,1219 -432.7,1184.2 	"/>
	<path class="st5" d="M-517,1466.9c-3.2,5.2-7.3,5.1-11.1,2.7c-3.7-2.4-5.6-6.2-2.5-11.4c3.2-5.2,14-7.5,14-7.5
		S-513.9,1461.7-517,1466.9z"/>
	<path class="st5" d="M-136.5,1310.8c0.6,6.1-2.8,8.6-7.1,9.1c-4.4,0.4-8.1-1.3-8.7-7.5c-0.6-6.1,6.6-14.7,6.6-14.7
		S-137.1,1304.7-136.5,1310.8z"/>
	<path class="st5" d="M-534,1356c-3.2,5.2-7.3,5.1-11.1,2.7c-3.7-2.4-5.6-6.2-2.5-11.4c3.1-5.2,14-7.5,14-7.5
		S-530.8,1350.8-534,1356z"/>
</g>
</svg>
