<?xml version="1.0" encoding="utf-8"?>
<!-- Generator: Adobe Illustrator 19.0.0, SVG Export Plug-In . SVG Version: 6.00 Build 0)  -->
<svg version="1.1" id="图层_1" xmlns="http://www.w3.org/2000/svg" xmlns:xlink="http://www.w3.org/1999/xlink" x="0px" y="0px"
	 viewBox="-917 917.7 1000 1000" style="enable-background:new -917 917.7 1000 1000;" xml:space="preserve">
<style type="text/css">
	.st0{opacity:0.1;fill:#6C63FF;enable-background:new    ;}
	.st1{fill:none;stroke:#535461;stroke-width:2;stroke-miterlimit:10;}
	.st2{fill:#6C63FF;}
	.st3{fill:url(#SVGID_1_);}
	.st4{fill:#535461;}
	.st5{opacity:0.1;enable-background:new    ;}
	.st6{fill:#E2E2EC;}
	.st7{opacity:0.1;fill:none;stroke:#000000;stroke-width:2;stroke-miterlimit:10;enable-background:new    ;}
	.st8{fill:none;stroke:#E2E2EC;stroke-width:2;stroke-miterlimit:10;}
	.st9{fill:url(#SVGID_2_);}
	.st10{fill:#555388;}
	.st11{fill:#603556;}
	.st12{fill:#C87486;}
	.st13{fill:none;}
	.st14{fill:#DFE5EE;}
	.st15{fill:#603456;}
</style>
<path id="_x23_background" class="st0" d="M-14.7,1444.7c-37.9,64.7-32.8,151.7-18,220.1c4.9,22.9,10.7,47,5.6,72.9
	c-6.3,31.6-27.3,56.8-48.4,71.3c-38.4,26.5-81.7,26.7-112.7,0.5c-26.8-22.7-43.9-62.8-71.3-84.3c-45.8-35.8-110.1-12.2-166.2,23.4
	c-39.7,25.2-83.5,57-119.4,40.2c-25.3-11.8-40.5-46.1-47.2-83.7c-3.2-18.1-5-38-13-51.7c-4.7-8.2-11.3-13.5-18.2-17.9
	c-62.8-40-149.5-3.6-209.9-49.1c-40.8-30.7-63.1-95.4-69.4-165c-6.3-69.6,1.4-144.3,10.9-218c6.7-52.3,15.5-108.4,41.7-151.4
	c27.8-45.5,70.6-66.5,107.4-63c36.8,3.5,68.3,28,95.4,58.2c33.8,37.7,63.9,86.2,108.3,97.7c30.2,7.8,63.7-2.7,96.1-8.9
	c54.2-10.4,107.4-8.9,160.2-6.5c50.6,2.3,101.4,5.3,148.2,23.6c33.1,12.9,58.2,40.6,89,58.4c20.1,11.6,43,12.6,61.6,28.2
	c22.9,19.2,42.4,55.1,32.1,101.3C38.4,1384.8,5.5,1410.3-14.7,1444.7z"/>
<g id="_x23_wild_x28_have_x5B_plant_x5D__x29_">
	<path class="st1" d="M-742.2,1648.7c0,0-66.7-110.5-48-209.7c7.9-41.6,2.8-84.7-15.9-122.7c-8.9-18-19.4-35.2-31.4-51.3"/>
	<path class="st2" d="M-826.1,1202.5c3.9,14.7-11.6,64.2-11.6,64.2s-37.8-35.6-41.6-50.3c-3.9-14.7,4.9-29.7,19.6-33.6
		S-829.9,1187.7-826.1,1202.5L-826.1,1202.5L-826.1,1202.5z"/>
	<path class="st2" d="M-760.8,1272.2c-4.7,14.4-44.6,47.6-44.6,47.6s-12.4-50.4-7.6-64.8c4.5-14.5,20-22.5,34.4-18
		c14.5,4.5,22.5,20,18,34.4C-760.6,1271.7-760.7,1272-760.8,1272.2L-760.8,1272.2z"/>
	<path class="st2" d="M-726.2,1411.7c-11.4,10-62.6,18.6-62.6,18.6s14.8-49.7,26.1-59.8c11.5-9.9,28.9-8.6,38.8,2.9
		C-714.2,1384.7-715.2,1401.7-726.2,1411.7L-726.2,1411.7z"/>
	<path class="st2" d="M-723.8,1523.1c-9.5,11.8-58.5,28.9-58.5,28.9s6.2-51.5,15.7-63.3c9.6-11.8,26.9-13.6,38.7-4
		C-716.3,1494.2-714.5,1511.3-723.8,1523.1z"/>
	<path class="st2" d="M-860.4,1337.4c13.2,7.5,65,5.2,65,5.2s-24.8-45.6-38-53c-13-7.8-29.9-3.6-37.7,9.5c-7.8,13-3.6,29.9,9.5,37.7
		C-861.3,1336.9-860.9,1337.2-860.4,1337.4L-860.4,1337.4z"/>
	<path class="st2" d="M-856,1467.6c14.8,3.2,63.6-14.5,63.6-14.5s-37.3-36.1-52.1-39.2c-14.8-3.2-29.4,6.3-32.6,21.1
		C-880.3,1449.8-870.8,1464.4-856,1467.6L-856,1467.6z"/>
	<path class="st2" d="M-834.3,1593.6c14.1,5.6,65.2-3.6,65.2-3.6s-30.7-41.8-44.8-47.5c-14.3-5.1-30,2.3-35.1,16.6
		C-853.9,1572.7-847.5,1587.7-834.3,1593.6L-834.3,1593.6z"/>
	<path class="st2" d="M-826.1,1202.5c3.9,14.7-11.6,64.2-11.6,64.2s-37.8-35.6-41.6-50.3c-3.9-14.7,4.9-29.7,19.6-33.6
		S-829.9,1187.7-826.1,1202.5L-826.1,1202.5L-826.1,1202.5z"/>
	<path class="st2" d="M-760.8,1272.2c-4.7,14.4-44.6,47.6-44.6,47.6s-12.4-50.4-7.6-64.8c4.5-14.5,20-22.5,34.4-18
		c14.5,4.5,22.5,20,18,34.4C-760.6,1271.7-760.7,1272-760.8,1272.2L-760.8,1272.2z"/>
	<path class="st2" d="M-726.2,1411.7c-11.4,10-62.6,18.6-62.6,18.6s14.8-49.7,26.1-59.8c11.5-9.9,28.9-8.6,38.8,2.9
		C-714.2,1384.7-715.2,1401.7-726.2,1411.7L-726.2,1411.7z"/>
	<path class="st2" d="M-723.8,1523.1c-9.5,11.8-58.5,28.9-58.5,28.9s6.2-51.5,15.7-63.3c9.6-11.8,26.9-13.6,38.7-4
		C-716.3,1494.2-714.5,1511.3-723.8,1523.1z"/>
	<path class="st2" d="M-860.4,1337.4c13.2,7.5,65,5.2,65,5.2s-24.8-45.6-38-53c-13-7.8-29.9-3.6-37.7,9.5c-7.8,13-3.6,29.9,9.5,37.7
		C-861.3,1336.9-860.9,1337.2-860.4,1337.4L-860.4,1337.4z"/>
	<path class="st2" d="M-856,1467.6c14.8,3.2,63.6-14.5,63.6-14.5s-37.3-36.1-52.1-39.2c-14.8-3.2-29.4,6.3-32.6,21.1
		C-880.3,1449.8-870.8,1464.4-856,1467.6L-856,1467.6z"/>
	<path class="st2" d="M-834.3,1593.6c14.1,5.6,65.2-3.6,65.2-3.6s-30.7-41.8-44.8-47.5c-14.3-5.1-30,2.3-35.1,16.6
		C-853.9,1572.7-847.5,1587.7-834.3,1593.6L-834.3,1593.6z"/>
	<ellipse class="st0" cx="-408.8" cy="1661.3" rx="480.5" ry="33"/>
	<path class="st2" d="M-561,1653.3c3-2.3,5.9-5,6.7-8.3c0.9-3.6-1.1-7.3-4.7-8.4c-4.3-1.3-8.9,1.1-12.4,3.5s-7.5,5.3-12.1,4.8
		c4.7-3.4,7-9,5.7-14c-0.2-1.1-0.8-2.1-1.6-2.8c-2.4-2.1-6.7-1.2-9.6,0.5c-9.1,5.2-11.6,15.3-11.7,24.4c-0.9-3.3-0.1-6.7-0.2-10.1
		c-0.1-3.4-1.1-7.1-4.6-8.9c-2.2-1-4.6-1.4-7.1-1.3c-4.1-0.1-8.7,0.2-11.5,2.7c-3.5,3-2.6,8.1,0.5,11.5s7.6,5.4,11.9,7.8
		c3.2,1.8,6.5,3.8,8.5,6.6c0.3,0.4,0.5,0.8,0.6,1.2h25.7C-571.2,1660-565.9,1657-561,1653.3z"/>
</g>
<g id="_x23_other_x28_have_x5B_gamepad_x5D__x29_">
	
		<linearGradient id="SVGID_1_" gradientUnits="userSpaceOnUse" x1="-314.9215" y1="3522.6533" x2="-314.9215" y2="3037.1277" gradientTransform="matrix(1 0 0 1 -111.66 -1862.4999)">
		<stop  offset="0" style="stop-color:#808080;stop-opacity:0.25"/>
		<stop  offset="0.54" style="stop-color:#808080;stop-opacity:0.12"/>
		<stop  offset="1" style="stop-color:#808080;stop-opacity:0.1"/>
	</linearGradient>
	<path class="st3" d="M-56.4,1519.4c0,0-9.7-190.2-49.5-257.5c0,0-29.2-53.3-53.5-68.8v-6.1c-39.8-27.5-88.7,0-88.7,0v2.7l-10.2,8.5
		l-45.9-0.2c-4.2-5.1-10.5-8-17-8H-531c-6.2,0-12.1,2.6-16.3,7.1H-595c0,0-2.8-3.3-10.2-6.6v-3.6c-39.8-27.5-88.7,0-88.7,0v7.4
		c-1.2,0.8-2.2,1.7-3.1,2.8c0,0-40.3,27-49.5,60.7c0,0-49.5,148.4-50.5,264.7s43.9,132.6,67.3,135.7c23.4,3.1,65.3-1,106.1-104
		l17.3-60.2c0,0,3.1-35.7,39.8-13.3c36.7,22.4,69.3-12.2,69.3-12.2h137.7c0,0,45.8,28.5,87.7,6c0,0,16.3-21.4,31.6,51
		c0,0,46.9,148.9,119.3,133.6S-56.4,1519.4-56.4,1519.4z"/>
	<path class="st4" d="M-688.7,1202.4v-11c0,0,48-27,87,0v10L-688.7,1202.4z"/>
	<path class="st4" d="M-251.7,1202.4v-11c0,0,48-27,87,0v10L-251.7,1202.4z"/>
	<path class="st5" d="M-688.7,1202.4v-11c0,0,48-27,87,0v10L-688.7,1202.4z"/>
	<path class="st5" d="M-251.7,1202.4v-11c0,0,48-27,87,0v10L-251.7,1202.4z"/>
	<path class="st4" d="M-544.7,1201.4h-47c0,0-12-14-52-13s-48,13-48,13s-39.5,26.5-48.5,59.5c0,0-48.5,145.5-49.5,259.5
		s43,130,66,133s64-1,104-102l17-59c0,0,3-35,39-13s68-12,68-12h135c0,0,45,28,86,6c0,0,16-21,31,50c0,0,46,146,117,131
		s63-137,63-137s-9.5-186.5-48.5-252.5c0,0-37.5-68.5-62.5-71.5c0,0-54-10-75-1l-12,10L-544.7,1201.4z"/>
	<circle class="st6" cx="-653.7" cy="1299.4" r="87"/>
	<circle class="st6" cx="-199.7" cy="1299.4" r="87"/>
	<path class="st4" d="M-638.5,1280l-11.6,10.3c-2,1.8-5.1,1.8-7.1,0l-11.6-10.3c-1.1-1-1.8-2.5-1.8-4v-28.2c0-3,2.4-5.4,5.4-5.4
		h23.2c3,0,5.4,2.4,5.4,5.4l0,0v28.2C-636.7,1277.6-637.3,1279-638.5,1280z"/>
	<path class="st4" d="M-638.5,1318.8l-11.6-10.2c-2-1.8-5.1-1.8-7.1,0l-11.6,10.3c-1.1,1-1.8,2.5-1.8,4v28.2c0,3,2.4,5.4,5.4,5.4
		l0,0h23.2c3,0,5.4-2.4,5.4-5.4l0,0v-28.2C-636.7,1321.3-637.3,1319.8-638.5,1318.8z"/>
	<path class="st4" d="M-673.1,1314.6l10.3-11.6c1.8-2,1.8-5.1,0-7.1l-10.3-11.6c-1-1.1-2.5-1.8-4-1.8h-28.2c-3,0-5.4,2.4-5.4,5.4
		v23.2c0,3,2.4,5.4,5.4,5.4l0,0h28.3C-675.5,1316.4-674.1,1315.8-673.1,1314.6z"/>
	<path class="st4" d="M-634.3,1314.6l-10.2-11.6c-1.8-2-1.8-5.1,0-7.1l10.3-11.6c1-1.1,2.5-1.8,4-1.8h28.2c3,0,5.4,2.4,5.4,5.4l0,0
		v23.2c0,3-2.4,5.4-5.4,5.4l0,0h-28.2C-631.8,1316.4-633.3,1315.8-634.3,1314.6z"/>
	<polygon class="st1" points="-668.7,1235.4 -638.7,1235.4 -653.7,1222.4 	"/>
	<polygon class="st1" points="-668.7,1363.4 -638.7,1363.4 -653.7,1376.4 	"/>
	<polygon class="st1" points="-717.7,1284.4 -717.7,1314.4 -730.7,1299.4 	"/>
	<polygon class="st1" points="-589.7,1284.4 -589.7,1314.4 -576.7,1299.4 	"/>
	<circle class="st6" cx="-535.7" cy="1394.4" r="63"/>
	<circle class="st4" cx="-537.7" cy="1384.4" r="42"/>
	<circle class="st6" cx="-317.7" cy="1394.4" r="63"/>
	<circle class="st4" cx="-319.7" cy="1384.4" r="42"/>
	<circle class="st7" cx="-537.7" cy="1384.4" r="28"/>
	<circle class="st7" cx="-319.7" cy="1384.4" r="28"/>
	<circle class="st6" cx="-424.7" cy="1401.4" r="18"/>
	<circle class="st6" cx="-452.2" cy="1341.4" r="3.9"/>
	<circle class="st6" cx="-437.5" cy="1341.4" r="3.9"/>
	<circle class="st6" cx="-439.4" cy="1360" r="3.9"/>
	<circle class="st6" cx="-425.7" cy="1360.4" r="4"/>
	<circle class="st6" cx="-411.9" cy="1360" r="3.9"/>
	<circle class="st6" cx="-445.3" cy="1351.2" r="3.9"/>
	<circle class="st6" cx="-432.7" cy="1351.4" r="4"/>
	<circle class="st6" cx="-419.7" cy="1351.4" r="4"/>
	<circle class="st6" cx="-406" cy="1351.2" r="3.9"/>
	<circle class="st6" cx="-425.7" cy="1341.4" r="4"/>
	<circle class="st6" cx="-411.7" cy="1341.4" r="4"/>
	<circle class="st6" cx="-400.2" cy="1341.4" r="3.9"/>
	<path class="st6" d="M-574.2,1208.4h5c4.7,0,8.5,3.8,8.5,8.5v21c0,4.7-3.8,8.5-8.5,8.5h-5c-4.7,0-8.5-3.8-8.5-8.5v-21
		C-582.7,1212.2-578.9,1208.4-574.2,1208.4z"/>
	<path class="st6" d="M-282.2,1208.4h5c4.7,0,8.5,3.8,8.5,8.5v21c0,4.7-3.8,8.5-8.5,8.5h-5c-4.7,0-8.5-3.8-8.5-8.5v-21
		C-290.7,1212.2-286.9,1208.4-282.2,1208.4z"/>
	<circle class="st4" cx="-198.7" cy="1246.4" r="24"/>
	<circle class="st4" cx="-249.7" cy="1297.4" r="24"/>
	<circle class="st4" cx="-145.7" cy="1294.4" r="24"/>
	<circle class="st4" cx="-194.7" cy="1347.4" r="24"/>
	<path class="st6" d="M-528.9,1194.4h205.5c12,0,21.8,9.7,21.8,21.8v89.5c0,12-9.7,21.8-21.8,21.8h-205.5c-12,0-21.8-9.7-21.8-21.8
		v-89.5C-550.7,1204.2-540.9,1194.4-528.9,1194.4z"/>
	<polygon class="st8" points="-213.2,1256.4 -199.2,1232.4 -184.2,1256.4 	"/>
	<rect x="-262.2" y="1286.4" class="st8" width="25" height="22"/>
	<circle class="st8" cx="-145.7" cy="1294.4" r="14"/>
	<line class="st8" x1="-206.2" y1="1336.2" x2="-183.7" y2="1358.7"/>
	<line class="st8" x1="-183.2" y1="1336.2" x2="-206.2" y2="1358.2"/>
</g>
<g id="_x23_man_x28_touch_x2C_stand_x29_">
	<g>
		
			<linearGradient id="SVGID_2_" gradientUnits="userSpaceOnUse" x1="17.916" y1="3523.377" x2="17.916" y2="3068.3499" gradientTransform="matrix(1 0 0 1 -111.66 -1862.4999)">
			<stop  offset="0" style="stop-color:#808080;stop-opacity:0.25"/>
			<stop  offset="0.54" style="stop-color:#808080;stop-opacity:0.12"/>
			<stop  offset="1" style="stop-color:#808080;stop-opacity:0.1"/>
		</linearGradient>
		<path class="st9" d="M11.8,1627.7c0,0-0.8-1.1-1.9-2.3l0.3-0.1c0,0-14.3-35.7-11.1-50.8s-12.7-51.5-12.7-51.5
			s-23.4-47.9-12.3-86.2c1.3-4.5,2.2-9.1,2.9-13.7c3.3-22.7,2.1-27.3-3.4-35.6l-0.6-0.9c0.7-0.7,1.2-1.5,1.6-2.4
			c4.8-12.7-22.2-35.7-15-57.1c6.6-19.9-10.6-60.8-13.2-66.7l0,0l-0.4-0.7l-0.9,0.3c0.1-5.1,2.2-10,5.7-13.7l0.2-0.2
			c2.4-2.2,5.3-3.8,7.5-6.1l0.1-0.1c0.2-0.2,0.5-0.4,0.7-0.6c2.2-2.3,3.7-5.8,2.5-8.7c-1.1-2.7-4.2-4.4-4.9-7.2
			c-0.2-1.3-0.3-2.6-0.3-3.9c-0.6-4-4.5-6.5-8-8.5c-4.4-2.5-9-5-14.1-5.1c-6.9,0-13,4.6-19.8,5.2c-2.3,0.2-4.7-0.1-6.9,0.7
			c-1.7,0.7-3.2,1.7-4.5,2.9c-0.8,0.6-1.5,1.3-2.2,2c-1.5,1.4-2.8,3.1-2.8,5.2c0.1,1.5,0.8,2.9,1.9,3.9c-8.3,11.3-5.9,27.2,5.4,35.5
			c1.2,0.9,2.5,1.6,3.8,2.3c0.1,0.5,0.2,1.1,0.2,1.7c1,7.5,1.6,18.1-1.1,26.5c-11.4,5.9-29.1,15.4-32.3,19.7
			c-0.5,0.7-0.7,1.6-0.4,2.5c-0.1,0.4-0.1,0.8-0.1,1.2c-2.5,0.6-5.8,0-9.8-3.7c-9.5-8.7-39.7-34.9-39.7-34.9s-13.5-33.3-23-27
			c-9.5,6.3,11.1,37.3,11.1,37.3l45.1,48.4c0,0,1.6,10.3,18.2,4.8c5.5-1.8,10.5-3.6,14.7-5.1l1,0.9c-3.8,21.9-5.7,51.2,8.1,59.8
			c1.1,1.4,1.9,3.1,2.3,4.8c-0.1,0.3-0.1,0.5-0.2,0.8c-1.1,4.4-1.7,8.8-2,13.3c-2.6,6-3.8,12.4-3.5,18.9l-5.3,75.5
			c0,0-0.8,16.7,4.8,29.3s23,76.1,11.1,80.9l1.1,0.2c-3.4,3.5-9.2,8.8-13.5,9.9c-6.6,1.6-4.8,11.8,9.9,13.5
			c14.7,1.7,16.5,1.6,26.8-7.1c9.1-7.6,10.6-11,10.8-11.7l0.5,0.1c0,0-5.5-20.6,0-29.3c5.5-8.7-12.7-61.9-12.7-61.9
			c-0.2-6.8,0.1-13.6,0.8-20.3c2.8,7.3,4.8,12.4,4.8,12.4s4.8,23,10.3,27s34.9,58.7,30.1,82.5l-0.5,2.8l1.3-0.4h0.1
			c-1.8,4.5-5.2,11.7-8.8,14.3c-5.5,4,0,12.7,14.3,8.7s15.9-4.8,22.2-16.7S11.8,1627.7,11.8,1627.7z"/>
		<path class="st10" d="M-93.3,1415.9l-3.5-4.3c-3.6,6.6-5.3,14.1-4.9,21.6l-5.2,73.8c0,0-0.8,16.3,4.7,28.7s22.5,74.4,10.9,79.1
			l34.8,4.7c0,0-5.4-20.2,0-28.7s-12.4-60.5-12.4-60.5s-1.5-43.4,13.2-53.5S-93.3,1415.9-93.3,1415.9z"/>
		<path class="st11" d="M-87.4,1611.9c0,0-9.6,11.2-16,12.7s-4.7,11.5,9.7,13.2c14.4,1.7,16.1,1.5,26.2-6.9s10.6-11.6,10.6-11.6
			s-2-7.5-4.4-7.7C-63.7,1611.4-87.4,1611.9-87.4,1611.9z"/>
		<path class="st5" d="M-91,1418.2l-5.8-6.6c-3.6,6.6-5.3,14.1-4.9,21.6l-5.2,73.8c0,0-0.8,16.3,4.7,28.7s22.5,74.4,10.9,79.1
			l34.8,4.7c0,0-5.4-20.2,0-28.7s-12.4-60.5-12.4-60.5s-1.5-43.4,13.2-53.5S-91,1418.2-91,1418.2z"/>
	</g>
	<g>
		<path class="st11" d="M-21.6,1628c0,0-4.7,14-10.1,17.8c-5.4,3.8,0,12.4,14,8.5s15.5-4.7,21.7-16.3s5.4-14.7,5.4-14.7
			s-4.7-6.2-7-5.4C0.1,1618.7-21.6,1628-21.6,1628z"/>
		<path class="st12" d="M-50.3,1279.8c0,0-62.8,34.9-48.1,24.8c9.9-6.8,9.3-24.7,7.8-35.8c-0.5-3.5-1-6.2-1.3-7.8
			c-0.2-0.9-0.3-1.4-0.3-1.4s30.5-18.3,28.8-7.3l0,0c0,0.1,0,0.2,0,0.3c-0.1,0.7-0.2,1.5-0.2,2.2
			C-63.9,1266.2-50.3,1279.8-50.3,1279.8z"/>
		<path class="st12" d="M-118.5,1313.9c0,0-5.4,8.5-14.7,0s-38.8-34.1-38.8-34.1s-13.2-32.6-22.5-26.4c-9.3,6.2,10.9,36.5,10.9,36.5
			l44.2,47.3c0,0,1.5,10.1,17.8,4.6s27.9-10.1,27.9-10.1L-118.5,1313.9z"/>
		<path class="st13" d="M-93.7,1393"/>
		<path class="st10" d="M7.9,1621l-31,10.9l-1.3,0.4l0.5-2.7c4.7-23.3-24-76.8-29.5-80.7s-10.1-26.4-10.1-26.4s-10.2-51.2-11.7-62
			c-0.4-2.7-1.8-4.9-3.5-7.9c-2.6-4.5-4.6-9.3-6-14.4c-3.4-12-11.4-33.3-8.4-45.3c0.6-2.5-1.8,3.8-1,1.4l0.5-1.3l62.8-8.5
			c1,1.3,2,2.6,2.9,4c4.8,7,4.4,7,5.4,20.4c-0.4,8.1-1.6,16.1-3.4,24c-8.5,37.6,10.6,88,10.6,88s15.5,35.7,12.4,50.4
			C-6,1586,7.9,1621,7.9,1621z"/>
		<path class="st5" d="M-27.9,1388.5c-9.3,11.6-68.8,20.7-68.1,17c0.2-1.3,0.1-2.6-0.3-3.8c0.6-2.5,1.3-4.9,2.1-7.3l0.5-1.3
			l62.8-8.5C-29.8,1385.8-28.9,1387.1-27.9,1388.5z"/>
		<path class="st14" d="M-54.9,1263.5c0,0-25.6,7.8-32.6,25.6c-7,17.8,5.3,18.8,5.3,18.8s-22,58-16.2,88.2c0,0,3.1,3.9,2.3,7.8
			s64.4-6.2,69-18.6c4.6-12.4-21.7-34.9-14.7-55.8S-54.9,1263.5-54.9,1263.5z"/>
		<path class="st5" d="M-63.4,1254.2c0,0.2-0.1,0.5-0.2,0.7c-1.1,2-4.4-0.2-3.3,2.8c-4.5,4.5-5.9,13.6-12.8,13.6
			c-3.7,0-7.4-0.8-10.8-2.5c-0.5-3.5-1-6.2-1.3-7.8c3-1.8,27-15.7,28.4-8.7l0,0C-63.3,1253-63.3,1253.6-63.4,1254.2z"/>
		<circle class="st12" cx="-79.7" cy="1244.9" r="24.8"/>
		<path class="st5" d="M-54.9,1324l-43.4,20.2c0,0-29.5-22.5-24.8-28.7c4.7-6.2,41.1-24,41.1-24S-44.8,1299.2-54.9,1324z"/>
		<path class="st14" d="M-54.9,1322.5l-43.4,20.2c0,0-29.5-22.5-24.8-28.7c4.7-6.2,41.1-24,41.1-24S-44.8,1297.7-54.9,1322.5z"/>
		<path class="st5" d="M-86.9,1234.3c-3.8-0.4-7.7-0.8-11-2.7c-1.9-1.1-3.7-2.9-3.7-5.1c-0.1-2.6,2.1-4.6,4.1-6.3
			c1.3-1.2,2.8-2.2,4.5-2.9c2.2-0.8,4.5-0.5,6.8-0.7c6.7-0.6,12.7-5.1,19.4-5.1c4.9,0,9.5,2.5,13.8,5c3.4,1.9,7.2,4.4,7.8,8.3
			c0,1.3,0.1,2.5,0.3,3.8c0.7,2.8,3.7,4.4,4.8,7.1c1.2,2.9-0.3,6.3-2.5,8.5c-2.2,2.2-5,3.8-7.3,6c-4.3,4-6.6,9.5-6.5,15.3
			c0.1,0.4,0,0.8-0.2,1.1c-0.3,0.4-0.9,0.7-1.4,0.7c-2.5,0.5-5.5,0.7-7-1.3s-0.3-5.4-2-7.5c-2.2-2.6-6.7-0.5-9.6-2.2
			c-1-0.6-1.7-1.6-2.2-2.6c-2.4-5.2,0.4-9.2,1.4-14.2C-76.3,1233.7-82.8,1234.7-86.9,1234.3z"/>
		<path class="st15" d="M-86.1,1233.5c-3.8-0.4-7.7-0.8-11-2.7c-1.9-1.1-3.7-2.9-3.7-5.1c-0.1-2.6,2.1-4.6,4.1-6.3
			c1.3-1.2,2.8-2.2,4.5-2.9c2.2-0.8,4.5-0.5,6.8-0.7c6.7-0.6,12.7-5.1,19.4-5.1c4.9,0,9.5,2.5,13.8,5c3.4,1.9,7.2,4.4,7.8,8.3
			c0,1.3,0.1,2.5,0.3,3.8c0.7,2.8,3.7,4.4,4.8,7.1c1.2,2.9-0.3,6.3-2.5,8.5c-2.2,2.2-5,3.8-7.3,6c-4.3,4-6.7,9.6-6.5,15.4
			c0.1,0.4,0,0.8-0.2,1.1c-0.3,0.4-0.9,0.7-1.4,0.7c-2.5,0.5-5.5,0.7-7-1.3s-0.3-5.4-2-7.5c-2.2-2.6-6.7-0.5-9.6-2.2
			c-1-0.6-1.7-1.6-2.2-2.6c-2.4-5.2,0.3-9.3,1.3-14.3C-75.6,1233-82,1233.9-86.1,1233.5z"/>
	</g>
</g>
</svg>
