<?xml version="1.0" encoding="utf-8"?>
<!-- Generator: Adobe Illustrator 19.0.0, SVG Export Plug-In . SVG Version: 6.00 Build 0)  -->
<svg version="1.1" xmlns="http://www.w3.org/2000/svg" xmlns:xlink="http://www.w3.org/1999/xlink" x="0px" y="0px"
	 viewBox="0 0 1000 1000" style="enable-background:new 0 0 1000 1000;" xml:space="preserve">
<style type="text/css">
	.st0{fill:#3F3D56;}
	.st1{fill:#6C63FF;}
	.st2{fill:#2F2E41;}
	.st3{fill:#F2F2F2;}
	.st4{fill:#FF6584;}
	.st5{fill:#FFFFFF;}
	.st6{fill:#FFB8B8;}
	.st7{opacity:0.1;enable-background:new    ;}
	.st8{fill:#D0CDE1;}
</style>
<g id="_x23_chart_x28_have_x5B_message_x2C_leaf_x5D__x29_">
	<g>
		
			<image style="overflow:visible;opacity:0.8;" width="4049" height="3444" xlink:href="298B01B13E10D139.png"  transform="matrix(0.24 0 0 0.24 12 58.08)">
		</image>
		<g>
			<g>
				<g>
					<g>
						<path class="st0" d="M186,791.4c7.2,26.5,31.7,42.8,31.7,42.8s12.9-26.5,5.8-53c-7.2-26.5-31.7-42.8-31.7-42.8
							S178.8,765,186,791.4z"/>
						<path class="st1" d="M196.5,785.7c19.6,19.1,22,48.6,22,48.6s-29.5-1.6-49.1-20.7c-19.6-19.1-22-48.6-22-48.6
							S176.9,766.6,196.5,785.7z"/>
						<rect x="166.6" y="859.5" class="st2" width="692" height="2.1"/>
						<path class="st0" d="M227.4,860.5h-27.8v-27.8h27.8V860.5z M201.8,858.4h23.5v-23.5h-23.5V858.4z"/>
						<rect x="235.9" y="199.3" class="st3" width="99.6" height="68.6"/>
						<path d="M343.8,261.7H242V191h101.8V261.7z M244.2,259.5h97.5v-66.4h-97.5V259.5z"/>
						<polygon points="292.5,227.6 242.4,193 243.7,191.2 292.5,225 342.1,191.2 343.4,193 						"/>
						<circle class="st1" cx="292.5" cy="226.3" r="8.8"/>
						<path class="st4" d="M278.4,175.5l-3-1c-10.7-3.6-17.6-5.9-20.2-11.5c-2-4.4-0.1-9.6,4.3-11.6c0.1,0,0.1-0.1,0.2-0.1
							c2.6-1.1,5.4-1.1,8,0.2c0.7-2.7,2.7-4.9,5.2-6.1c4.4-2,9.6-0.1,11.6,4.3c0,0.1,0.1,0.1,0.1,0.2c2.5,5.7-0.5,12.4-5,22.6
							L278.4,175.5z"/>
						<rect x="751.7" y="549.6" class="st3" width="99.6" height="68.6"/>
						<rect x="826.5" y="557.2" class="st1" width="21.4" height="6.4"/>
						<rect x="798.7" y="575.4" class="st5" width="49.1" height="4.3"/>
						<rect x="776.3" y="583.9" class="st5" width="71.6" height="4.3"/>
						<rect x="776.3" y="592.5" class="st5" width="71.6" height="4.3"/>
						<path class="st4" d="M821.6,537.1l-1-2c-3.4-7.4-5.8-12.1-4.1-16.2c1.3-3.2,4.9-4.8,8.1-3.6c0.1,0,0.1,0,0.2,0.1
							c1.8,0.7,3.3,2.3,4,4.3c1.8-1,3.8-1.1,5.8-0.3c3.2,1.3,4.8,4.9,3.5,8.1c0,0.1,0,0.1-0.1,0.2c-1.7,4.1-6.6,5.9-14.2,8.8
							L821.6,537.1z"/>
					</g>
				</g>
				<polyline class="st3" points="270.6,587.2 35.2,587.2 35.2,441.9 303.2,441.9 303.2,543.7 				"/>
				<polygon points="283.5,576.5 46.9,576.5 46.9,429.1 317.1,429.1 317.1,531.9 315,531.9 315,431.2 49,431.2 49,574.3 
					283.5,574.3 				"/>
				<polygon points="380,577 316,577 316,574.9 371.7,574.9 316,543.9 317.1,542 				"/>
				<rect x="77.9" y="480.4" width="208.2" height="2.1"/>
				<rect x="77.9" y="501.7" width="208.2" height="2.1"/>
				<rect x="77.9" y="523.1" width="208.2" height="2.1"/>
				<circle class="st1" cx="375.8" cy="575.5" r="8.8"/>
				<path class="st4" d="M204,417.1l-4.4-1.4c-15.7-5.2-26-8.7-29.6-16.9c-3-6.4-0.2-14.1,6.2-17.1c0.1,0,0.2-0.1,0.3-0.1
					c3.7-1.6,8-1.6,11.7,0.2c1.2-4,4-7.2,7.7-8.9c6.4-3,14.1-0.1,17,6.3c0,0.1,0.1,0.2,0.1,0.3c3.6,8.2-0.7,18.2-7.4,33.3L204,417.1
					z"/>
				<polyline class="st3" points="728.8,294.5 964.2,294.5 964.2,149.3 696.2,149.3 696.2,251.1 				"/>
				<polygon points="952.5,283.9 716,283.9 716,281.7 950.4,281.7 950.4,138.6 684.5,138.6 684.5,239.3 682.3,239.3 682.3,136.5 
					952.5,136.5 				"/>
				<polygon points="683.4,284.4 619.4,284.4 682.3,249.4 683.4,251.3 627.7,282.3 683.4,282.3 				"/>
				<rect x="713.3" y="187.8" width="208.2" height="2.1"/>
				<rect x="713.3" y="209.1" width="208.2" height="2.1"/>
				<rect x="713.3" y="230.5" width="208.2" height="2.1"/>
				<circle class="st1" cx="623.6" cy="282.9" r="8.8"/>
				<path class="st4" d="M936.6,107.9l-0.6-3.8c-2.2-13.7-3.8-22.5,0.7-28.5c3.5-4.7,10.3-5.7,15.1-2.1c0.1,0.1,0.2,0.1,0.2,0.2
					c2.7,2.1,4.3,5.3,4.5,8.8c3.3-0.7,6.8,0.1,9.6,2.1c4.7,3.6,5.7,10.4,2,15.1c-0.1,0.1-0.1,0.2-0.2,0.2c-4.6,6-13.7,6.6-27.4,7.7
					L936.6,107.9z"/>
			</g>
		</g>
	</g>
</g>
<g id="_x23_woman_x28_stand_x29_">
	<g>
		
			<image style="overflow:visible;opacity:0.8;" width="1353" height="3238" xlink:href="298B01B13E10D13F.png"  transform="matrix(0.24 0 0 0.24 345.36 107.28)">
		</image>
		<g>
			<g>
				<rect x="488.8" y="189.8" class="st2" width="80.1" height="101.5"/>
				<path class="st2" d="M570,193c-7.2,21.3-18.2,40.6-40.6,40.6c-22.4,0-39.3-18.2-40.6-40.6c-1.6-28.6,17.6-40.7,40.6-40.6
					C556.5,152.6,578.5,167.8,570,193z"/>
				<path class="st6" d="M549.4,224.6c0,0-6.4,38.4-3.2,39.5c3.2,1.1-36.3,5.3-36.3,5.3s11.7-28.8,8.5-34.2S549.4,224.6,549.4,224.6
					z"/>
				<path class="st7" d="M549.4,224.6c0,0-6.4,38.4-3.2,39.5c3.2,1.1-36.3,5.3-36.3,5.3s11.7-28.8,8.5-34.2S549.4,224.6,549.4,224.6
					z"/>
				<path class="st6" d="M628.8,362.9l17.6,14c0,0-14.6-73.9-15-79.3c-0.3-5.4-14.1-42.6-28.8-36.9c-14.7,5.7,10.5,46.5,10.5,46.5
					l16.4,59.1L628.8,362.9z"/>
				<circle class="st6" cx="526.9" cy="213.9" r="31"/>
				<path class="st8" d="M526.9,258.8l-13.9-6.4c0,0-7.5,13.9-11.7,13.9s-40.6,7.5-40.6,15s10.7,60.9,10.7,60.9s21.4,51.3,22.4,51.3
					s76.9-9.6,76.9-9.6L575,372l6.4-69.4c0,0-25.6-17.1-25.6-22.4c0-5.3-2.1-23.5-6.4-23.5s-11.7,6.4-11.7,6.4L526.9,258.8z"/>
				<path class="st8" d="M571.8,306.8l9.6-4.3c0,0,7.5,13.9,9.6,15c2.1,1.1,5.3,6.4,5.3,8.5c0,2.1,6.4,19.2,11.7,20.3
					c5.3,1.1,13.9,5.3,12.8,8.5c-0.6,1.7-0.6,3.6,0,5.3l4.3-5.3l22.4,17.1c0,0,11.7,36.3-5.3,35.2c-17.1-1.1-32-9.6-39.5-13.9
					c-7.5-4.3-7.5-2.1-11.7-8.5c-4.3-6.4-22.4-18.2-22.4-18.2L571.8,306.8z"/>
				<path class="st2" d="M493.8,383.7l-8.5,4.3l2.1,16c0,0-118.5,419.7-101.5,422.9c17.1,3.2,65.1,11.7,90.8,18.2s61.9,7.5,61.9,0
					c0-7.5,10.7-273.4,10.7-273.4s3.2,281.9,12.8,281.9s88.6,17.1,94,0c5.3-17.1-25.6-401.5-64.1-446.4c0,0-19.2-24.6-18.2-27.8
					s-1.1-7.5-1.1-7.5s1.1-2.1-10.7,1.1s-17.1,3.2-20.3,2.1c-3.2-1.1-8.5-5.3-11.7-2.1c-3.2,3.2-12.8,8.5-17.1,7.5
					c-4.3-1.1-6.4-7.5-10.7-3.2C499.8,379.9,496.9,382,493.8,383.7z"/>
				<path class="st2" d="M392.4,823.7c0,0-6.4,34.2,0,35.2c6.4,1.1,38.4,3.2,39.5,1.1c1.1-2.1-7.5-32-10.7-34.2
					C418,823.7,392.4,823.7,392.4,823.7z"/>
				<path class="st2" d="M613.4,828c0,0,6.4,29.9,0,31c-6.4,1.1-38.4,3.2-39.5,1.1c-1.1-2.1,7.5-27.8,10.7-29.9
					C587.8,828,613.4,828,613.4,828z"/>
				<path class="st6" d="M399.3,367.2c0,0,43.8,11.7,54.5,13.9c10.7,2.1,22.4,12.8,23.5,17.1c1.1,4.3,10.7,23.5,18.2,19.2
					c7.5-4.3,0-40.6-5.3-41.6c-5.3-1.1-70.5-19.2-70.5-19.2L399.3,367.2z"/>
				<path class="st8" d="M472.5,279.1h-11.7l-68.3,51.3c0,0-16,4.3-15,7.5c1.1,3.2-16,22.4-5.3,26.7s19.2,5.3,23.5,8.5s31-15,31-15
					l-4.3-3.2c0,0,49.1-17.1,53.4-15S472.5,279.1,472.5,279.1z"/>
				<polygon class="st1" points="504,262.5 529.6,278.5 527.5,336.2 534.9,322.3 539.2,336.2 539.2,278.5 557.4,278.5 556.3,268.9 
					534.9,272.1 507.2,257.2 				"/>
				<path class="st2" d="M510.4,171.6c0,0-0.3-1.9-14.1,3.2s-22,43.3-15.2,65.7c2.8,9,0.5,15.5-3.2,20.1
					c-13.8,17.1-8.3,42.7,11.7,51.5c0.5,0.2,1.2,0.5,1.7,0.7l8.7,5.1c0,0-11-14.4-5.4-32.9c4.8-15.7,5.3-32.5,1.7-48.5
					c-0.6-2.7-1.4-5.4-2.1-8.3c-6.8-24.1-3.5-21.4,20.6-45.4c0,0,13.8,10.4,25.8,15.5c12.1,5.1,22.4,10.4,13.8,27.6
					s-29.3,32.7-15.5,55.1c13.8,22.4,15.5,13.8,13.8,22.4l0,0l-1.7,8.7l10.4-10.4l-6.8,13.8c0,0,22.4,0,29.3-17.2l3.4,3.4
					c0,0,13.8-24.1-12.1-46.5c0,0-8.7-5.1,3.4-22.4c12.1-17.3,2.8-54.2-12.7-61.1C550.3,164.9,510.4,171.6,510.4,171.6z"/>
				<circle class="st2" cx="529.4" cy="144.9" r="16"/>
				<path class="st2" d="M510.2,136.4c0-8.2,6.2-15.2,14.4-15.9c-0.5,0-1.1-0.1-1.6-0.1c-8.9,0-16,7.2-16,16s7.2,16,16,16
					c0.5,0,1.1,0,1.6-0.1C516.5,151.6,510.2,144.6,510.2,136.4z"/>
				<ellipse class="st6" cx="558.2" cy="210.1" rx="2.1" ry="4.3"/>
			</g>
		</g>
	</g>
</g>
</svg>
