<?xml version="1.0" encoding="utf-8"?>
<!-- Generator: Adobe Illustrator 19.0.0, SVG Export Plug-In . SVG Version: 6.00 Build 0)  -->
<svg version="1.1" id="图层_1" xmlns="http://www.w3.org/2000/svg" xmlns:xlink="http://www.w3.org/1999/xlink" x="0px" y="0px"
	 viewBox="-917 917.7 1000 1000" style="enable-background:new -917 917.7 1000 1000;" xml:space="preserve">
<style type="text/css">
	.st0{fill:none;stroke:#3F3D56;stroke-width:2;stroke-miterlimit:10;}
	.st1{fill:#F2F2F2;}
	.st2{fill:#3F3D56;}
	.st3{opacity:0.3;fill:#6C63FF;enable-background:new    ;}
	.st4{fill:#6C63FF;}
	.st5{fill:none;stroke:#F2F2F2;stroke-width:2;stroke-miterlimit:10;}
	.st6{fill:#9F616A;}
	.st7{opacity:0.1;enable-background:new    ;}
	.st8{fill:#2F2E41;}
</style>
<g id="_x23_accessory_x28_have_x5B_circle_x2C_square_x5D__x29_">
	<g>
		<g>
			<g>
				<circle class="st0" cx="-62.3" cy="1318.5" r="14.8"/>
				<circle class="st0" cx="-803.3" cy="1257.5" r="14.8"/>
				<polygon class="st1" points="-759.3,1112.2 -803.2,1212 -532.7,1212 				"/>
				<circle class="st0" cx="-698.1" cy="1139.5" r="14.8"/>
			</g>
		</g>
	</g>
</g>
<g id="_x23_website_x28_have_x5B_webpage_x5D__x29_">
	<g>
		<rect x="-751.7" y="1242.3" class="st2" width="667" height="432.6"/>
		<rect x="-542.8" y="1328.7" class="st3" width="85.6" height="85.6"/>
		<rect x="-402.7" y="1328.7" class="st4" width="85.6" height="85.6"/>
		<rect x="-262.6" y="1328.7" class="st4" width="85.6" height="85.6"/>
		<rect x="-682.9" y="1449.6" class="st3" width="85.6" height="85.6"/>
		<rect x="-542.8" y="1449.6" class="st4" width="85.6" height="85.6"/>
		<rect x="-402.7" y="1449.6" class="st3" width="85.6" height="85.6"/>
		<rect x="-262.6" y="1449.6" class="st3" width="85.6" height="85.6"/>
		<rect x="-671.2" y="1318.7" class="st5" width="85.6" height="85.6"/>
		<rect x="-531" y="1318.7" class="st0" width="85.6" height="85.6"/>
		<rect x="-390.9" y="1318.7" class="st0" width="85.6" height="85.6"/>
		<rect x="-250.8" y="1318.7" class="st0" width="85.6" height="85.6"/>
		<rect x="-671.2" y="1439.5" class="st0" width="85.6" height="85.6"/>
		<rect x="-531" y="1439.5" class="st0" width="85.6" height="85.6"/>
		<rect x="-390.9" y="1439.5" class="st0" width="85.6" height="85.6"/>
		<rect x="-250.8" y="1439.5" class="st0" width="85.6" height="85.6"/>
		<circle class="st4" cx="-735.8" cy="1253.7" r="4.2"/>
		<circle class="st4" cx="-723.2" cy="1253.7" r="4.2"/>
		<circle class="st4" cx="-710.6" cy="1253.7" r="4.2"/>
		<circle class="st0" cx="-735.8" cy="1253.7" r="4.2"/>
		<circle class="st0" cx="-723.2" cy="1253.7" r="4.2"/>
		<circle class="st0" cx="-710.6" cy="1253.7" r="4.2"/>
		<circle class="st4" cx="-82.7" cy="1578" r="42"/>
		<rect x="-711.1" y="1409.7" class="st4" width="85.6" height="85.6"/>
		<line class="st5" x1="-751.7" y1="1265.1" x2="-84.7" y2="1265.1"/>
	</g>
</g>
<g id="_x23_woman_x28_stand_x29_">
	<g>
		<path class="st6" d="M-740.5,1474.3l1.8,10.1l25.1-11.9c0,0,22.7-14.3,18.5-4.2c-4.2,10.1-16.7,12.5-16.7,12.5s-26.9,24-32.9,20.4
			s-9.5-23.3-9.5-23.3L-740.5,1474.3z"/>
		<g>
			<path class="st7" d="M-740.5,1474.3l1.8,10.1l25.1-11.9c0,0,22.7-14.3,18.5-4.2c-4.2,10.1-16.7,12.5-16.7,12.5
				s-26.9,24-32.9,20.4s-9.5-23.3-9.5-23.3L-740.5,1474.3z"/>
			<g>
				<path class="st6" d="M-710.7,1562.6l-0.6,30.4l-16.1,59.1l-13.1-1.8c0,0,3.6-15.5,1.8-23.3c-1.8-7.8,8.9-27.4,8.9-27.4
					l-9.5-44.1L-710.7,1562.6z"/>
				<path class="st8" d="M-728,1650.3c0,0,2.4,0.6,2.4,2.4s1.8,9.5,7.8,11.3c6,1.8,17.9,11.9,8.9,12.5s-22.7-6-25.1-6
					s-7.2-0.6-8.4-2.4c-1.2-1.8-1.8-17.9,0-18.5C-740.6,1649-728,1650.3-728,1650.3z"/>
				<path class="st6" d="M-726.2,1565l-19.1,34l-47.7,47.1l-6.6-11.9c0,0,14.9-22.1,15.5-24.5c0.6-2.4,16.7-13.1,16.7-13.1
					s13.1-22.1,10.7-31.6s29.2-11.3,29.2-11.3L-726.2,1565z"/>
				<path class="st8" d="M-792.4,1643.2v4.8c0,0.6-13.1,14.9-11.9,17.3c1.2,2.4,6,8.9,0.6,9.5c-5.4,0.6-9.5-4.2-9.5-10.1
					c0-5.9-1.2-26.2,0.6-26.8c1.8-0.6,11.9-1.8,13.1-5.4C-798.3,1628.9-792.4,1643.2-792.4,1643.2z"/>
				<circle class="st6" cx="-759.9" cy="1426.3" r="14.3"/>
				<path class="st6" d="M-750.1,1433.2c0,0-0.6,14.9,1.2,16.7c1.8,1.8-17.3,0.6-17.3,0.6s1.8-11.3-1.8-16.1
					C-771.6,1429.6-750.1,1433.2-750.1,1433.2z"/>
				<path class="st8" d="M-766.8,1442.7c0,0,14.3,3,20.9,8.4c6.6,5.4,10.7,8.4,12.5,8.9c1.8,0.5,6,3.6,7.2,15.5s0.6,20.9,11.9,28.6
					c11.3,7.7,47.1,52.5,38.8,61.4c-8.3,8.9-13.1,11.9-16.7,7.8c-3.6-4.1-4.2-10.1-11.9-3.6c-7.7,6.5-13.7,14.3-17.3,8.4
					c-3.6-5.9-23.9-7.2-59.1-2.4c-35.2,4.8-26.8-12.5-21.5-20.9s41.2-41.8,46.5-45.9c5.3-4.1-4.8-24.5-10.1-28
					C-770.9,1477.4-775.7,1450.5-766.8,1442.7z"/>
				<path class="st6" d="M-748.9,1481.5l1.8,10.1l25.1-11.9c0,0,22.7-14.3,18.5-4.2s-16.7,12.5-16.7,12.5s-26.8,23.9-32.8,20.3
					s-9.5-23.3-9.5-23.3L-748.9,1481.5z"/>
				<path class="st8" d="M-759.6,1452.9c0,0,14.9,7.2,14.3,16.1c-0.6,8.9,1.8,10.7-0.6,12.5c-2.4,1.8-15.5,10.7-17.3,6
					C-765,1482.8-775.1,1458.2-759.6,1452.9z"/>
				<circle class="st8" cx="-782.4" cy="1399.5" r="12.5"/>
				<path class="st8" d="M-793.1,1409.8c5.6,4,13.4,2.8,17.4-2.8c0.8-1.1,1.4-2.4,1.8-3.7c-0.9,6.8-7.1,11.7-13.9,10.8
					s-11.7-7.1-10.8-13.9c0.1-0.7,0.2-1.3,0.4-2C-798.7,1402.7-796.8,1407.1-793.1,1409.8z"/>
				<circle class="st8" cx="-768.3" cy="1418" r="18.5"/>
				<ellipse class="st6" cx="-753.7" cy="1427.2" rx="2.1" ry="3.9"/>
			</g>
		</g>
	</g>
</g>
</svg>
