<?xml version="1.0" encoding="utf-8"?>
<!-- Generator: Adobe Illustrator 19.0.0, SVG Export Plug-In . SVG Version: 6.00 Build 0)  -->
<svg version="1.1" id="图层_1" xmlns="http://www.w3.org/2000/svg" xmlns:xlink="http://www.w3.org/1999/xlink" x="0px" y="0px"
	 viewBox="-917 917.7 1000 1000" style="enable-background:new -917 917.7 1000 1000;" xml:space="preserve">
<style type="text/css">
	.st0{opacity:0.1;enable-background:new    ;}
	.st1{fill:#6C63FF;}
	.st2{fill:#444053;}
	.st3{fill:none;stroke:#444053;stroke-miterlimit:10;}
	.st4{fill:none;stroke:#444053;stroke-width:0.75;stroke-miterlimit:10;}
	.st5{opacity:0.1;fill:#6C63FF;enable-background:new    ;}
	.st6{fill:#33323D;}
	.st7{fill:#FFFFFF;}
	.st8{fill:#504F60;}
	.st9{opacity:0.1;fill:#33323D;enable-background:new    ;}
	.st10{opacity:0.8;fill:#8CCF4D;enable-background:new    ;}
	.st11{opacity:0.8;fill:#FA5959;enable-background:new    ;}
	.st12{fill:url(#SVGID_1_);}
	.st13{fill:#FBBEBE;}
	.st14{opacity:5.000000e-02;enable-background:new    ;}
	.st15{fill:#3F3D56;}
	.st16{fill:#464353;}
	.st17{fill:#A1616A;}
	.st18{fill:#514E7F;}
	.st19{fill:url(#SVGID_2_);}
	.st20{fill:#65617D;}
	.st21{fill:#EE8E9E;}
	.st22{fill:#E3E8F4;}
	.st23{fill:#E6E8EC;}
	.st24{fill:#565387;}
	.st25{opacity:0.1;}
</style>
<g id="_x23_background">
	<g class="st0">
		<g>
			<path class="st1" d="M79.2,1481.8c0,16.4-2,32.8-5.9,48.7c-1.3,5.4-2.8,10.6-4.6,15.8c-2.2,6.4-4.7,12.6-7.4,18.7
				c-1.4,3.1-2.9,6.1-4.5,9c0,16.8-3.4,33.5-10.2,49c-12.2,27.7-33.9,50-61.3,63.1c-17.1,8.1-35.8,12.5-54.7,12.6h-649.9
				c-29,0.1-57.3-7.5-82.3-22c-3.7-2.2-7.3-4.4-10.8-6.9c-7.6-5.3-14.8-11.1-21.4-17.7c-9-8.7-16.9-18.5-23.5-29.1
				c-15.6-24.9-23.9-53.6-23.9-83c-15.9-27.9-25.1-61.2-25.1-97c0-45.2,14.7-86.4,38.8-117.6c5-6.5,10.5-12.6,16.5-18.3
				c5.9-5.6,12.1-10.8,18.8-15.5c5.4-3.7,11-7.1,16.7-10c2.4-1.3,4.9-2.4,7.3-3.4c2.2-0.9,4.4-1.8,6.6-2.7c2.7-1,5.4-1.9,8.1-2.8
				c2.7-0.9,5.4-1.6,8-2.3c3.9-0.9,7.9-1.8,11.9-2.3c3.3-0.5,6.7-0.8,10-1.1c2.7-0.2,5.4-0.3,8-0.3h1.5c3,0,5.9,0.1,8.9,0.3
				c0.3-0.6,0.7-1.3,0.9-1.8c1.2-2.3,2.4-4.4,3.6-6.6v-0.1c0.2-0.4,0.4-0.8,0.7-1.1c1-1.8,2-3.5,3.1-5.3c0.5-0.8,0.9-1.6,1.4-2.4
				c0.1-0.2,0.3-0.4,0.3-0.6c0.5-0.8,1-1.7,1.5-2.5c2.6-4.1,5.3-8.2,8-12.1c0.3-0.3,0.5-0.7,0.8-1c0.4-0.6,0.8-1.3,1.3-1.8
				c1.2-1.6,2.3-3.3,3.5-4.9c0.8-1.2,1.7-2.3,2.6-3.3c2.2-2.8,4.4-5.6,6.7-8.4c2.3-2.8,4.7-5.5,7.1-8.3c0.3-0.3,0.7-0.8,1-1.1
				l3.6-3.8l0,0c0.2-0.2,0.3-0.3,0.5-0.5l0,0c0.4-0.5,0.8-0.9,1.3-1.3c1.9-2,3.8-4,5.9-6c10.1-10,20.8-19.3,32.1-28
				c0.4-0.3,0.9-0.7,1.3-1c2.1-1.6,4.3-3.2,6.4-4.8c11.9-8.5,24.3-16.2,37.2-23.2c0.9-0.5,1.8-1,2.7-1.4
				c11.5-6.1,23.4-11.5,35.6-16.4c6.6-2.6,13.4-5,20.2-7.4c4.5-1.5,9.1-2.9,13.7-4.2c7.1-2,14.3-3.9,21.7-5.5
				c21.5-4.9,43.4-7.8,65.4-9c6.7-0.3,13.5-0.5,20.3-0.5c33.1-0.1,65.9,4.1,97.9,12.4c0.7,1,1.8,1.6,3,1.6h2.8
				c1.3,0.3,2.4,0.7,3.7,1c6.9,2,13.6,4.1,20.2,6.4l1.7,0.6c16.3,5.9,32.3,12.8,47.6,20.9c13.8,7.3,27.2,15.6,39.9,24.6
				c1.9,1.4,3.8,2.8,5.8,4.3c2.3-1.5,4.7-2.9,7-4.3c9.2-5.3,19-9.5,29.2-12.5c21.3-6.3,43.8-7.2,65.4-2.6
				c27.8,5.9,53.1,20.6,73.4,41.3c8.3,8.5,15.6,17.8,22,27.9c0.5,0.8,0.9,1.4,1.3,2.2c5.4,8.9,10.1,18.2,14,28
				c0.2,0.3,0.3,0.7,0.4,1c3.6,9,6.4,18.4,8.6,28c0.1,0.5,0.3,0.9,0.3,1.4c2,9.2,3.4,18.5,4.1,28c0,0.3,0,0.7,0.1,1
				c0.3,4.9,0.5,9.8,0.5,14.7c0,4.4-0.2,8.9-0.4,13.2c0,0.5-0.1,1-0.1,1.5c-0.1,1.3-0.2,2.5-0.3,3.8c6.4,5.2,12.4,10.8,17.9,16.9
				c2.4,2.7,4.8,5.4,7.1,8.3c6.9,8.7,13.1,18.1,18.2,28C71.1,1416.7,79.2,1448.1,79.2,1481.8z"/>
		</g>
	</g>
	<g>
		<g>
			<path class="st1" d="M285.5,1285.2c7.7,0,7.7-11.9,0-11.9S277.8,1285.2,285.5,1285.2L285.5,1285.2z"/>
		</g>
	</g>
</g>
<g id="_x23_accessory_x28_have_x5B_leaf_x5D__x29_">
	<g>
		<path class="st2" d="M-218.1,1174.1l0.2-0.1c1.3,4.6-12.4,23.3-24.1,38.1l-0.2-0.1C-225.7,1191.1-217.2,1177.7-218.1,1174.1z"/>
		<path class="st2" d="M-242,1211.7l0.1,0.2c-9.3,11.8-21,25.9-30.4,36.4c-0.9,1-1.8,2-2.7,3.1l-0.3-0.3c0.8-1.1,1.8-2.1,2.7-3.1
			C-263.1,1237.7-251.3,1223.5-242,1211.7z"/>
		<path class="st2" d="M-274.9,1251l0.2,0.3c-17.1,21.3-18.2,54.4-18.2,54.6l-3.6-4.2C-296.5,1301.4-292.1,1272.4-274.9,1251z"/>
		<path class="st3" d="M-196.9,1284.4c0,0-20.1-10.5-35.8-6.7c-15.7,3.8-51-13.3-51-13.3s-15-6.1-18-13.1c0,0-10.3-10.9-10.9-16.5
			c-0.6-5.6-10.5-19.7-17.1-20.3"/>
		<path class="st3" d="M-199.8,1294.5c0,0-10.1-6.9-9-14.8"/>
		<path class="st3" d="M-215.4,1303.3c0,0-14.5-5.3-15.9-25.9"/>
		<path class="st3" d="M-238.7,1308.6c0,0-13.8-11.5-9.2-31.5"/>
		<path class="st3" d="M-266.8,1303c0,0-9.2-19.3-1-31.9"/>
		<path class="st3" d="M-196.7,1271.7c0,0-10.5,3.3-8.2,8.9"/>
		<path class="st3" d="M-209.3,1252.7c0,0-14.1,4.4-14.3,24.3"/>
		<path class="st3" d="M-228.8,1248.1c0,0-12.7,15.7-11.8,30"/>
		<path class="st3" d="M-251.2,1254.2c0,0-12.6,12.1-11,18.8"/>
		<path class="st3" d="M-258.9,1250c0,0-11.9,2.1-13.6-1.8"/>
		<path class="st3" d="M-274.3,1235.6c0,0,6,7.9,7.5,6.2"/>
		<path class="st3" d="M-214.8,1230.6c0,0-30,2.2-36.7-6.9"/>
		<path class="st3" d="M-280.6,1195.6c0,0,14.1,30.2,24.3,34"/>
		<path class="st3" d="M-265.8,1181.2c0,0,8.6,27.8,19.3,36.4"/>
		<path class="st4" d="M-202.1,1207.7c0,0-22.8,9.8-36.5-0.1"/>
		<path class="st4" d="M-245.6,1175.3c0,0,5.2,20.4,12.2,25.4"/>
		<path class="st4" d="M-205.6,1184.8c0,0-12.8,4.9-17.6,1.2"/>
		<path class="st3" d="M-285.2,1242.3c0,0,0,17.7-4.9,19.1"/>
		<path class="st3" d="M-324.8,1265.4c0,0,19.2,1.7,28.1-8.3"/>
		<path class="st3" d="M-290.2,1221.3c0,0-4.7,18-17.5,22.9"/>
		<path class="st3" d="M-336.4,1246.4c0,0,13.6,4.7,25.3-7.3"/>
		<path class="st3" d="M-305.3,1205.8c0,0-1.3,15.3-9.6,22.5"/>
		<path class="st3" d="M-335.9,1223c0,0,11.3,0.1,14-3.6"/>
	</g>
	<path class="st1" d="M-177.1,1296c0,0-8.9-3.6-37,9.3s-31.7,11.3-39,9.4c-7.3-1.9-11.4-2.4-19.2-13.2c0,0-5.5-29.9-10.9-34.5
		s-28,2.7-28,2.7s-27.2,6.3-32.4-30.1c0,0,3.7-27.4-1.3-35.8c0,0,10.1,4.4,26.8-2.7c16.7-7,30,7.5,30,7.5s4.2,10.9,3.8,17.4
		s2.3,9,10.2,5.8c0,0,3.9-5.5-1.6-14.7c-5.5-9.2-9.5-16-7.9-23.2c1.6-7.2,6-17.1,20.3-22c14.2-4.9,33.6-5.9,42.9-9.8
		c9.3-3.9,11.6-6.4,11.6-6.4s-5.7,5.8,7.8,30c13.5,24.3,4.9,34.8,4.9,34.8s-7.2,17.1-38.8,15.7c0,0-30.5,1.1-13.9,14.1
		c0,0,10.6-2.2,26.6-7.2s27.4,15.8,30.3,30.4C-189.2,1287.9-177.1,1296-177.1,1296z"/>
</g>
<g id="_x23_other_x28_have_x5B_printer_x5D__x29_">
	<path class="st5" d="M-15.4,1646.4c0,19-19.7,36.8-54.1,52.1h-649.8c-30,0-58.2-10.9-82.3-29.9c-6-7.2-9.3-14.6-9.3-22.3
		c0-20.3,22.3-39.1,60.8-55.1l0,0l1.1-0.4c10.9-4.4,23-8.7,36.3-12.6c0.3-0.1,0.7-0.2,1-0.3l0,0c10.5-3.1,21.8-6,33.6-8.8
		c0.4-0.1,0.8-0.2,1.1-0.3c4.6-1.1,9.3-2.1,14.1-3.1l0,0l1.8-0.4c34.7-7.2,74.3-13,117.2-16.8h0.1c6-0.6,12.1-1.1,18.2-1.5
		c6.8-0.6,13.7-1,20.7-1.4c5.4-0.3,10.7-0.7,16.2-0.9h0.1c24.4-1.3,49.6-1.8,75.5-1.8c63.9,0,124.1,3.9,177.6,10.9
		c0.1,0,0.1,0,0.2,0c8.2,1.1,16.3,2.2,24.2,3.4c2.3,0.3,4.5,0.7,6.7,1.1c8.9,1.4,17.5,2.9,25.9,4.5l0,0
		C-79.6,1581.7-15.4,1612.1-15.4,1646.4z"/>
	<rect x="-575.7" y="1281.2" class="st6" width="321.5" height="162.3"/>
	<rect x="-675.9" y="1492.7" class="st6" width="522.9" height="106.9"/>
	<polygon class="st7" points="-551,1519.5 -283,1519.5 -229.5,1699.2 -607.5,1699.2 	"/>
	<polygon class="st8" points="-690.8,1429 -690.8,1484.5 -690.8,1496.2 -690.8,1599.6 -590.6,1599.6 -590.6,1501 -238.3,1501 
		-238.3,1599.6 -138.1,1599.6 -138.1,1496.2 -138.1,1484.5 -138.1,1429 	"/>
	<rect x="-690.8" y="1429" class="st9" width="552.6" height="55.5"/>
	<circle class="st10" cx="-167.9" cy="1456.8" r="8.2"/>
	<circle class="st11" cx="-204.9" cy="1456.8" r="8.2"/>
	<rect x="-563.9" y="1242.1" class="st7" width="297.9" height="176.7"/>
	
		<linearGradient id="SVGID_1_" gradientUnits="userSpaceOnUse" x1="-442.1021" y1="1268" x2="-383.9021" y2="1268" gradientTransform="matrix(1 0 0 -1 -11.09 2881.2502)">
		<stop  offset="0" style="stop-color:#808080;stop-opacity:0.25"/>
		<stop  offset="0.54" style="stop-color:#808080;stop-opacity:0.12"/>
		<stop  offset="1" style="stop-color:#808080;stop-opacity:0.1"/>
	</linearGradient>
	<path class="st12" d="M-419.4,1606.4c-12.7-5.3-16.5-9.1-16.5-16.7c0-5.9,2.6-12.6,13.9-12.6c6.3-0.1,12.4,1.7,17.7,5l3.7-9.7
		c-4.3-2.5-10.3-4.9-19.1-5.1v-14.2h-7.4v14.8c-13.5,2.2-21.3,11.5-21.3,23.6c0,12.7,7.5,19.5,22.5,25.4
		c10.9,4.4,16.6,9.4,16.6,17.5c0,8.4-7,14.4-17.5,14.4c-8.2,0-17.5-2.8-22.8-6.3l-3.5,9.8c5.1,3.7,14,6.3,22.4,6.4v14.8h12.6v-15.2
		c15.1-2.5,23.2-13.4,23.2-24.9C-394.9,1620.3-404.2,1612.6-419.4,1606.4z"/>
	<path class="st1" d="M-430.7,1670.1v-14.8c-8.5-0.2-17.3-2.8-22.4-6.4l3.5-9.8c5.3,3.5,14.6,6.3,22.8,6.3c10.5,0,17.4-6,17.4-14.4
		c0-8-5.7-13.1-16.6-17.5c-15-5.9-22.5-12.6-22.5-25.4c0-12.1,7.8-21.4,21.3-23.6v-14.8h7.4v14.2c8.8,0.3,14.8,2.7,19.1,5.1
		l-3.7,9.7c-5.3-3.3-11.4-5.1-17.7-5c-11.3,0-13.9,6.8-13.9,12.6c0,7.6,3.8,11.5,16.5,16.7c15.1,6.2,24.4,13.8,24.4,26.9
		c0,11.5-8,22.4-23.2,24.9v15.2L-430.7,1670.1L-430.7,1670.1z"/>
</g>
<g id="_x23_man_x28_lift_x29_">
	<g>
		<path class="st13" d="M-220.7,1500c0.7,6.9-4.5,13.5-3,20.2c0.3,1.4,0.9,2.8,1.2,4.2c0.6,4-1.8,7.7-4,11L-246,1564
			c-0.8,1.3-1.7,2.4-2.8,3.4c-3.8,3.3-9.3,2.9-14.1,3.9c-3.4,0.7-6.7,2.1-9.5,4.2c-0.3,0.2-0.3,0.6-0.2,0.8c1.7,2.3,4.3,3.5,7,3.3
			c0.5,0.7,0,1.7-0.7,2.2c-1,0.8-2.5,0.9-2.7,2.7c-0.1,0.6,0.1,1.3,0.3,1.8c0.8,1.2,2,2,3.4,2.3c6.7,2.1,14-1.6,19.1-6.4
			s8.6-11.1,13.6-16.2c2.8-2.8,5.9-5.2,8.7-7.9c5.6-5.4,10-11.9,14.2-18.4c1.4-1.9,2.4-4,3.1-6.3c0.5-2.3,0.3-4.6,0.9-6.8
			c0.8-2.9,2.9-5.2,4.7-7.6c3.4-4.8,5.8-10.5,5.3-16.4s-4.1-11.6-9.6-13.6c-1.7-0.7-3.6-0.8-5.4-0.3c-2.3,0.7-3.9,2.6-5.4,4.4
			l-3.7,4.3c-0.9,0.9-1.7,2.1-2.2,3.3c-0.5,1.3-0.2,2.7,0.8,3.6"/>
		<path class="st14" d="M-220.7,1500c0.7,6.9-4.5,13.5-3,20.2c0.3,1.4,0.9,2.8,1.2,4.2c0.6,4-1.8,7.7-4,11L-246,1564
			c-0.8,1.3-1.7,2.4-2.8,3.4c-3.8,3.3-9.3,2.9-14.1,3.9c-3.4,0.7-6.7,2.1-9.5,4.2c-0.3,0.2-0.3,0.6-0.2,0.8c1.7,2.3,4.3,3.5,7,3.3
			c0.5,0.7,0,1.7-0.7,2.2c-1,0.8-2.5,0.9-2.7,2.7c-0.1,0.6,0.1,1.3,0.3,1.8c0.8,1.2,2,2,3.4,2.3c6.7,2.1,14-1.6,19.1-6.4
			s8.6-11.1,13.6-16.2c2.8-2.8,5.9-5.2,8.7-7.9c5.6-5.4,10-11.9,14.2-18.4c1.4-1.9,2.4-4,3.1-6.3c0.5-2.3,0.3-4.6,0.9-6.8
			c0.8-2.9,2.9-5.2,4.7-7.6c3.4-4.8,5.8-10.5,5.3-16.4s-4.1-11.6-9.6-13.6c-1.7-0.7-3.6-0.8-5.4-0.3c-2.3,0.7-3.9,2.6-5.4,4.4
			l-3.7,4.3c-0.9,0.9-1.7,2.1-2.2,3.3c-0.5,1.3-0.2,2.7,0.8,3.6"/>
		<path class="st15" d="M-206,1676c-4.3,2.6-9.5,2.8-14.5,2.2c-0.8-0.1-1.8-0.2-2.3,0.4c-0.8,0.9,0.2,2.2,1,2.9
			c2.9,2.2,6.4,3.6,10,4.1c3.2,0.4,6.4,0.7,9.7,0.7c8.9,0.2,17.8,0.3,26.6-1c0.5,0,1-0.2,1.4-0.4c0.6-0.4,0.9-1,1.1-1.7
			c0.6-2.3-0.6-4.8-2.3-6.3s-4-2.5-6.2-3.3l-7.7-3c-1.8-0.7-4.7-2.6-6.7-2.4C-199.4,1668.3-202.9,1674.1-206,1676z"/>
		<path class="st14" d="M-206,1676c-4.3,2.6-9.5,2.8-14.5,2.2c-0.8-0.1-1.8-0.2-2.3,0.4c-0.8,0.9,0.2,2.2,1,2.9
			c2.9,2.2,6.4,3.6,10,4.1c3.2,0.4,6.4,0.7,9.7,0.7c8.9,0.2,17.8,0.3,26.6-1c0.5,0,1-0.2,1.4-0.4c0.6-0.4,0.9-1,1.1-1.7
			c0.6-2.3-0.6-4.8-2.3-6.3s-4-2.5-6.2-3.3l-7.7-3c-1.8-0.7-4.7-2.6-6.7-2.4C-199.4,1668.3-202.9,1674.1-206,1676z"/>
		<path class="st16" d="M-200.6,1573.5c-3.2,4.3-6.5,9.2-5.8,14.5c0.4,2.8,2,5.4,3.2,8c1.5,3.6,2.5,7.4,3.3,11.2
			c1.2,5.6,2.4,11.2,3.2,16.9c0.8,6.4-3.1,25-3.4,31.5c-0.1,1.6-0.3,3.3-1.3,4.4c-0.4,0.4-1,0.8-1.2,1.4c-0.1,0.6,0,1.2,0.3,1.6
			c1.8,4.1,5.5,7.1,9.6,8.9c4.1,1.8,14.1,4.8,18.6,4.9c0.6,0.1,1.2,0,1.8-0.3c0.6-0.3,1.1-0.9,1.3-1.5c3.3-6.2,0.2-28.1,0.2-35.1
			c0-5.9,1.4-11.5,1.2-17.4c-0.2-4.7-1.4-9.2-1.9-13.9c-0.8-7.6,0.7-15.2,2.1-22.8c1.1-5.8,2.2-11.5,3.5-17.2
			c0.8-3.5,1.8-6.9,3.8-10c1.5-2.4,3.6-4.4,5.3-6.7c4.8-6.3,6.9-14.2,5.9-22.1c-0.1-0.8-11.1,2.8-12.1,3.2c-3.9,1.7-7.6,4-10.8,6.9
			c-2.5,2.4-4.6,5.7-6.8,8.4c-3.2,3.8-6.3,7.7-9.4,11.6C-193.7,1564.4-197.2,1569-200.6,1573.5z"/>
		<path class="st14" d="M-200.6,1573.2c-3.2,4.3-6.5,9.2-5.8,14.5c0.4,2.8,2,5.4,3.2,8c1.5,3.6,2.5,7.4,3.3,11.2
			c1.2,5.6,2.4,11.2,3.2,16.9c0.8,6.4-3.1,25-3.4,31.5c-0.1,1.5-0.3,3.3-1.3,4.4c-0.4,0.4-1,0.8-1.2,1.4s0,1.2,0.3,1.7
			c1.8,4.1,5.5,7.1,9.6,8.9c4.1,1.8,14.1,3.3,18.6,3.5c0.6,0.1,1.2,0,1.8-0.3c0.6-0.3,1.1-0.9,1.3-1.5c3.3-6.2,0.2-26.7,0.2-33.7
			c0-5.9,1.4-11.5,1.2-17.4c-0.2-4.7-1.4-9.2-1.9-13.9c-0.8-7.6,0.7-15.2,2.1-22.8c1.1-5.8,2.2-11.5,3.5-17.2
			c0.8-3.5,1.8-6.9,3.8-10c1.5-2.4,3.6-4.4,5.3-6.6c4.8-6.3,6.9-14.2,5.9-22.1c-0.1-0.8-11.1,2.8-12.1,3.2c-3.9,1.7-7.6,4-10.8,6.9
			c-2.5,2.4-4.6,5.7-6.8,8.4c-3.2,3.8-6.3,7.7-9.4,11.6C-193.8,1564.2-197.2,1568.7-200.6,1573.2z"/>
		<circle class="st13" cx="-236.3" cy="1461.3" r="18"/>
		<path class="st13" d="M-220.1,1460.6c3.3,5.4,8.8,9.1,15,10.5l-1.3,4.9c-2.3,8.5-5,17.4-11.5,23.3c0.7-2.8-0.2-5.9-1.8-8.5
			c-1.8-2.4-3.8-4.5-6.1-6.4l-10.4-9c-0.3-0.3-0.6-0.5-0.8-0.8c-0.3-0.7-0.3-1.3,0-2c1.3-4.1,5.1-6.7,8.1-9.5c1.5-1.4,2.9-3,4.1-4.8
			C-222.7,1455.4-221.5,1458.3-220.1,1460.6z"/>
		<path class="st16" d="M-260.1,1443.2l-0.4-3.3c2.8,0.8,5.5-1.7,7.4-4.2c1.8-2.5,3.5-5.4,6.3-6.5c3.3-1.3,6.9,0.8,10.1,2.4
			c3.6,2,7.5,3.3,11.6,3.8c0.7,0,1.3,0.2,1.9,0.3c2.1,0.8,3.1,3.3,3.3,5.8c0.3,2.4,0.3,4.9,1.3,7c0.8,1.6,2.1,2.8,2.9,4.4
			c2.2,4.3,0.1,10.1,2.4,14.3l-5.8-5.3c-0.5-0.5-1.3-1-1.8-0.6c-0.6,0.4-0.5,1-0.7,1.6c-0.6,1.7-2.6,2.2-4.1,1.5
			c-1.5-0.7-2.6-2.1-3.7-3.3c-2.5-3-5.6-5.7-9.2-6.9c-3.2-1.3-6.7-1-9.7,0.6c-2.7,1.5-4.7,5.1-7.9,5.2c-4.5,0.2-6.4-8.3-8.5-11.5
			c1.6-1.2,2.1-3.3,1.2-5.1C-263.1,1443-260.1,1442.7-260.1,1443.2z"/>
		<path class="st15" d="M-185,1675.8c-3.6,3.2-8.2,4.9-13,4.9c-1.3,0-2.9,0.3-2.9,1.4c0,0.3,0.2,0.7,0.3,1c1.5,2.5,3.9,4.4,6.7,5.3
			c2.6,0.8,5.4,0.7,8.1,0.5l7.9-0.4c1.5-0.1,3-0.2,4.4-0.3c1.4-0.2,3.1-0.5,4.7-0.8c3.8-0.6,7.7-0.8,11.5-0.6c1,0,2.2,0,2.8-0.8
			c0.7-0.8,0.3-2.2,0.1-3.3c-0.5-2.3,0-4.7-0.4-7c-0.8-4-4.3-7.1-8-8.6c-3.5-1.3-9.9-2.9-13.2-0.7
			C-179.5,1669-181.7,1672.9-185,1675.8z"/>
		<path class="st16" d="M-177.1,1540.6c0.7,3.3,3.9,5.9,4,9.2c0.1,2.7-1.8,5-3.3,7.4c-1.3,2.4-2.4,4.9-3.3,7.5
			c-2.7,6.8-5.9,13.2-9.8,19.4c-1.8,2.9-3.9,6.1-3.5,9.6c0.3,1.6,0.8,3.2,1.7,4.6l5.6,11c1.3,2.2,2.2,4.5,2.8,6.9
			c0.5,2.1,0.5,4.3,0.8,6.4c0.8,6.8,4,13.6,2.2,20.2c-0.2,0.6-0.8,1.3-1.2,0.8c1.8,3.4,3.3,6.9,3.2,10.8c-0.1,2-0.7,4.2,0.1,6.1
			c0.4,0.8,0.8,1.6,0.8,2.4c0,0.6-0.3,1.1-0.3,1.7c-0.2,1.6,1.3,2.8,2.8,3.3s3.1,0.4,4.6,0.9c2.9,0.8,4.9,3.3,7.4,5.1
			c2.5,1.8,5.5,2.7,8.5,2.8c0.4,0.1,0.8,0,1.3-0.3c0.4-0.4,0.7-0.9,0.7-1.5c0.3-2.8-0.8-5.6-3.1-7.4c-0.5-0.3-0.8-0.7-1.1-1.2
			c-0.2-0.4-0.2-0.9-0.1-1.3c0.4-6.1,0.3-12.2-0.3-18.2c-0.3-1.9-0.4-3.8-0.3-5.8c0.2-1.6,0.7-3.2,0.5-4.9c-0.2-1.7-1-3.1-1.5-4.6
			c-0.8-2.8-0.6-5.7-0.7-8.6c-0.2-5-1.3-10-2.4-14.8c-0.4-1.9-0.9-3.9-2.3-5.4c-1.2-1.2-3-2.3-2.6-4c0.3-0.6,0.6-1.2,1.1-1.6
			c1.1-1.3,1.6-3.1,1.3-4.9c1,0.3,2.1-0.3,2.5-1.2c9-4.3,16.3-12.8,19.6-22.3c0.2-0.7,0.5-1.3,0.8-2c0.8-1.2,2.3-1.7,3.6-2.3
			c4-2,6.9-5.9,9.5-9.6c1.5-2.2,3-4.4,3.6-6.9c0.3-1.7,0.5-3.3,0.5-5l0.3-8.7c0.1-0.6,0-1.2-0.2-1.7c-0.3-0.5-0.5-1-0.9-1.4
			c-2.4-2.6-5.7-4.4-9.2-5c-2.3-0.4-4.8-0.3-7.2-0.6c-4.7-0.4-9.3-1.8-13.9-1.5c-7.4,0.5-13.8,5.6-17.3,12.1
			C-173.3,1538.6-174.5,1540.6-177.1,1540.6z"/>
		<path class="st1" d="M-217.8,1483.8c0.1,1.3-0.1,2.7-0.5,3.9c-0.6,1.3-2,2.2-3.3,1.7c0.4-0.8-0.7-1.8-1.6-1.8
			c-0.9,0.2-1.7,0.8-2.1,1.8c-0.6,1.3-0.8,2.7-0.6,4c0.3,1.7,1.3,3.3,1,5c-0.2,1.4-1.3,2.8-0.7,4.2c0.3,0.6,0.8,1.2,1.3,1.6
			c1.5,1.8,1.3,4.6-0.5,6.3l14.1,0.3c-0.5,2.3,0.5,4.8,1.8,6.9c6.9,11.6,18.7,19.3,32.1,20.9c-1.3,0.8-1.8,2.5-1,3.8
			c0.1,0.2,0.2,0.3,0.3,0.4c1.2,1.1,3.1,1,4.5,0.3c1.4-0.7,2.6-1.9,3.8-2.9c2.3-1.7,5.1-2.4,7.9-2.2c1.8,0.2,3.4,0.8,5.2,0.8
			c5.2,0.3,9.7-3.4,14.6-5c3.7-1.1,7.8-1.1,10.9-3.4c1.3-1,2.4-2.6,2-4.2c-0.3-0.9-0.8-1.8-1.5-2.4c-1.8-2.3-2.8-5-4-7.6
			c-2.5-5.1-5.9-9.7-10.1-13.6c-3.2-2.8-6.5-5.4-10-7.6c-0.8-0.7-1.8-1.2-2.8-1.7c-1.3-0.4-2.5-0.9-3.8-1.5c-1.7-1-2.6-2.8-3.8-4.4
			c-2.8-3.3-7-4.8-10.5-7.3c-2.3-1.7-4.4-3.9-7.1-4.8c-1.3-0.4-2.8-0.4-4.1-0.8c-3-0.9-5.3-3.6-8.2-4.7c-2.3-0.8-4.9-0.7-7.4-0.9
			c-2.8-0.3-5.4-1.3-7.6-2.9c-0.8-0.6-1.6-1.1-2.5-1.4c-3.8-1.2-4.1,5.9-4.4,8.3C-216.9,1476.7-217.8,1480.3-217.8,1483.8z"/>
		<path class="st13" d="M-214.1,1507.4c0.7,6.9-4.5,13.5-3,20.2c0.3,1.4,0.9,2.8,1.2,4.2c0.7,4-1.8,7.7-4,11l-19.5,28.5
			c-0.8,1.3-1.7,2.4-2.8,3.4c-3.8,3.3-9.3,2.9-14.1,3.9c-3.4,0.7-6.7,2.1-9.5,4.2c-0.3,0.2-0.3,0.6-0.2,0.8c1.6,2.3,4.3,3.5,7,3.3
			c0.5,0.7,0,1.7-0.7,2.2c-1,0.8-2.5,0.9-2.7,2.7c-0.1,0.6,0.1,1.3,0.3,1.8c0.8,1.2,2,2,3.4,2.3c6.7,2.1,14-1.6,19.1-6.4
			c5.1-4.9,8.6-11.1,13.6-16.2c2.8-2.8,5.9-5.2,8.6-7.9c5.6-5.4,10-11.9,14.2-18.4c1.3-1.9,2.4-4,3.1-6.3c0.5-2.3,0.3-4.6,0.9-6.8
			c0.8-2.9,2.9-5.2,4.7-7.6c3.4-4.8,5.8-10.5,5.3-16.4s-4.1-11.6-9.6-13.6c-1.7-0.7-3.6-0.8-5.4-0.3c-2.3,0.7-3.9,2.6-5.4,4.4
			l-3.7,4.3c-0.9,0.9-1.7,2.1-2.2,3.3c-0.5,1.3-0.2,2.7,0.8,3.6"/>
		<path class="st1" d="M-204.3,1479.3c-2.6,0.2-5.4,0.4-7.2,2.3c-0.8,0.8-1.3,1.8-1.8,2.8c-1.8,3.6-3.4,7.3-3.6,11.3
			c-0.1,3.2,0.8,6.3,1.3,9.5c0.4,2.6-0.6,5.3-0.8,7.9c3.2-1,7.4-2.3,10.2-3.9c1.9-1.3,3.8-2.3,6-3.1c3.1-1,8.2,0.8,11,2.2
			c0.2-2-1.3-5.6-1.2-7.6c0-0.8,0.2-1.7,0.4-2.5c0.4-0.8,0.9-1.7,1.5-2.4c2.3-3.7,1.9-8.5-0.9-11.7c-2.6-2.9-6.6-4-10.5-4.4
			c-2.4-0.3-4.9-0.3-7.3-0.3"/>
	</g>
</g>
<g id="_x23_woman_x28_lift_x29_">
	<g>
		<path class="st17" d="M-619.4,1545.1c1,3.3,2,6.5,3.3,9.6c2.3,5.5,5.1,10.7,8.5,15.6c2.2,3.2,4.5,6.3,7,9.3
			c3.2,3.7,6.7,7.4,7.8,12.1c0.7,2.8,0.4,5.6,0.7,8.4c0.3,2.8,1.2,5.8,3.4,7.4c1.6,1.2,3.7,1.6,5.7,1.8c1.4,0.3,3.2,0.3,3.9-0.9
			c0.3-0.5,0.4-1.1,0.4-1.6l0.3-4.1c0.1-0.9,0.4-2,1.3-2.1s1.3,1.2,2.1,1.7c1,0.7,2.5,0,3.1-1.1c0.4-1.2,0.5-2.4,0.1-3.6
			c-1.3-4.7-4.4-8.7-8.8-10.9c-1.5-0.6-2.9-1.3-4.3-2.3c-1.3-1.2-2.5-2.6-3.3-4.3c-7.8-12.8-15.6-25.6-21.1-39.6
			c-1.1-2.5-1.8-5.1-2.2-7.8c-0.3-2.8,0.2-5.5,0.3-8.2c0.3-4.9-0.2-9.9-1.3-14.6c-0.3-1.3-0.8-2.4-1.4-3.6
			c-2.3-3.4-7.5-3.9-10.9-1.6c-2.5,1.9-4.1,4.8-4.4,7.9c-0.3,2.8,1.3,5.7,2.2,8.2C-624.3,1529.1-621.8,1537.1-619.4,1545.1z"/>
		<path class="st14" d="M-619.4,1545.1c1,3.3,2,6.5,3.3,9.6c2.3,5.5,5.1,10.7,8.5,15.6c2.2,3.2,4.5,6.3,7,9.3
			c3.2,3.7,6.7,7.4,7.8,12.1c0.7,2.8,0.4,5.6,0.7,8.4c0.3,2.8,1.2,5.8,3.4,7.4c1.6,1.2,3.7,1.6,5.7,1.8c1.4,0.3,3.2,0.3,3.9-0.9
			c0.3-0.5,0.4-1.1,0.4-1.6l0.3-4.1c0.1-0.9,0.4-2,1.3-2.1s1.3,1.2,2.1,1.7c1,0.7,2.5,0,3.1-1.1c0.4-1.2,0.5-2.4,0.1-3.6
			c-1.3-4.7-4.4-8.7-8.8-10.9c-1.5-0.6-2.9-1.3-4.3-2.3c-1.3-1.2-2.5-2.6-3.3-4.3c-7.8-12.8-15.6-25.6-21.1-39.6
			c-1.1-2.5-1.8-5.1-2.2-7.8c-0.3-2.8,0.2-5.5,0.3-8.2c0.3-4.9-0.2-9.9-1.3-14.6c-0.3-1.3-0.8-2.4-1.4-3.6
			c-2.3-3.4-7.5-3.9-10.9-1.6c-2.5,1.9-4.1,4.8-4.4,7.9c-0.3,2.8,1.3,5.7,2.2,8.2C-624.3,1529.1-621.8,1537.1-619.4,1545.1z"/>
		<path class="st18" d="M-668.2,1681.8c1.5,0.5,3.1,0.8,4.7,0.6c0.1-1.3,1.8-1.6,3.2-1.5c0.7,0,1.3,0.1,1.8,0.4
			c0.3,0.2,0.6,0.5,0.9,0.8c0.6,0.3,1.2,0.5,1.8,0.5l6.8,0.6c3,0.3,6.2,0.5,9-0.6c0.6-0.2,1.1-0.5,1.4-1c0.8-1.1,0-2.7-1.1-3.5
			c-1.1-0.8-2.4-1.2-3.5-2c-2.3-1.8-2.7-5.2-3.9-7.9c-0.9-1.7-2-3.3-3.3-4.7c-0.9-1.3-2-2.3-3.2-3.3c-2.8-1.9-5.9-1.9-9-2.2
			c-2.3-0.2-4.4-0.3-6,1.7c-2,2.5-1.2,7.5-1.1,10.5C-669.3,1674-668.9,1677.9-668.2,1681.8z"/>
		<path class="st14" d="M-668.2,1681.8c1.5,0.5,3.1,0.8,4.7,0.6c0.1-1.3,1.8-1.6,3.2-1.5c0.7,0,1.3,0.1,1.8,0.4
			c0.3,0.2,0.6,0.5,0.9,0.8c0.6,0.3,1.2,0.5,1.8,0.5l6.8,0.6c3,0.3,6.2,0.5,9-0.6c0.6-0.2,1.1-0.5,1.4-1c0.8-1.1,0-2.7-1.1-3.5
			c-1.1-0.8-2.4-1.2-3.5-2c-2.3-1.8-2.7-5.2-3.9-7.9c-0.9-1.7-2-3.3-3.3-4.7c-0.9-1.3-2-2.3-3.2-3.3c-2.8-1.9-5.9-1.9-9-2.2
			c-2.3-0.2-4.4-0.3-6,1.7c-2,2.5-1.2,7.5-1.1,10.5C-669.3,1674-668.9,1677.9-668.2,1681.8z"/>
		<path class="st16" d="M-665.4,1549.6c-2.1,0.7-3,3.3-2.6,5.4c0.4,2.2,1.7,4,2.8,5.9c3,5.4,4.4,11.6,6.9,17.2
			c1.9,4.2,4.4,8.1,6.4,12.4c1.9,4.3,3,9,1.9,13.5c-0.6,2.2-1.6,4.2-2.3,6.4c-0.7,2.3-1.2,4.8-1.3,7.1c-0.9,8.2-1.1,16.6-0.5,24.9
			c0,1,0.3,2,0.6,2.9c0.4,0.8,1.2,1.7,0.8,2.5c-0.2,0.3-0.4,0.6-0.6,0.9c-0.4,0.9,0.4,1.9,1.3,2.6c-0.3,0.5-0.8,0.9-1.3,1
			c1.2,0.8,1.7,2.2,1.3,3.5c-0.7,0.1-0.8,1.2-0.3,1.8c0.4,0.6,1.2,0.9,1.5,1.6c0.4,1.1-0.2,2.3-1.2,2.8c-1,0.4-2.2,0.5-3.3,0.3
			c-1.8-0.3-3.7-0.7-5.4-1.2c-1.9-0.4-3.3-2.1-3.2-4.1c-0.4-3.4-0.5-6.9-0.4-10.3c0.3-16.6,0-33.2-0.8-49.8
			c-0.3-6.7-2.3-13.2-4.9-19.3c-1.4-3.2-3-6.2-4.8-9.2c-3.8-6.9-7-14.4-6.2-22.2c0.1-0.8,0.4-1.8,1.3-1.9c0.3,0,0.7,0,0.9,0.2
			c1.8,0.8,3.3,1.8,5,2.8C-671.4,1548.6-668.4,1549.5-665.4,1549.6z"/>
		<path class="st14" d="M-665.4,1549.6c-2.1,0.7-3,3.3-2.6,5.4c0.4,2.2,1.7,4,2.8,5.9c3,5.4,4.4,11.6,6.9,17.2
			c1.9,4.2,4.4,8.1,6.4,12.4c1.9,4.3,3,9,1.9,13.5c-0.6,2.2-1.6,4.2-2.3,6.4c-0.7,2.3-1.2,4.8-1.3,7.1c-0.9,8.2-1.1,16.6-0.5,24.9
			c0,1,0.3,2,0.6,2.9c0.4,0.8,1.2,1.7,0.8,2.5c-0.2,0.3-0.4,0.6-0.6,0.9c-0.4,0.9,0.4,1.9,1.3,2.6c-0.3,0.5-0.8,0.9-1.3,1
			c1.2,0.8,1.7,2.2,1.3,3.5c-0.7,0.1-0.8,1.2-0.3,1.8c0.4,0.6,1.2,0.9,1.5,1.6c0.4,1.1-0.2,2.3-1.2,2.8c-1,0.4-2.2,0.5-3.3,0.3
			c-1.8-0.3-3.7-0.7-5.4-1.2c-1.9-0.4-3.3-2.1-3.2-4.1c-0.4-3.4-0.5-6.9-0.4-10.3c0.3-16.6,0-33.2-0.8-49.8
			c-0.3-6.7-2.3-13.2-4.9-19.3c-1.4-3.2-3-6.2-4.8-9.2c-3.8-6.9-7-14.4-6.2-22.2c0.1-0.8,0.4-1.8,1.3-1.9c0.3,0,0.7,0,0.9,0.2
			c1.8,0.8,3.3,1.8,5,2.8C-671.4,1548.6-668.4,1549.5-665.4,1549.6z"/>
		<path class="st16" d="M-693.4,1529.5c-1.1-0.7-2.3-1.1-3.6-1.2c-1.5,0.1-2.8,1.1-3.9,2c-1.3,1.1-2.7,2.2-3.9,3.4
			c-5.2,5.5-6.9,13.5-4.7,20.7c1.3,3.7,3.5,6.9,5.7,10.1l4.5,6.5c6.9,9.9,13.8,19.8,21,29.5c0,0.5,0.3,0.9,0.8,1.1
			c0.3,0.1,0.6,0.1,0.8,0.3c0.1,0.2,0.1,0.3,0.1,0.4c0,0.8-0.2,1.4-0.4,2.1c-0.1,0.3-0.2,0.5-0.1,0.8c0.3,0.6,1.3,0.3,1.5,0.8
			c0.2,0.3-0.1,0.8-0.3,1.1c-0.3,0.3-0.6,0.6-0.6,1s0.8,0.8,0.8,1.3c0,0.3-0.3,0.5-0.4,0.8c-0.5,0.8-0.4,1.8,0.3,2.3
			c0.5,4.7-2.1,9.2-2.6,13.9c-0.8,7.4,2.5,14.6,2.9,22.2c0,0.8,0.2,1.7,0.5,2.4c0.7,1.3,2.5,2.1,2.4,3.5c-0.2,0.6-0.3,1.2-0.5,1.8
			c-0.2,0.8,0.3,1.7,0.3,2.5c0,0.8-0.8,1.8-1.5,1.5c0.6,2,1.1,3.9,1.6,5.9l15.8,1.3c0.2-1.4,0.1-2.8-0.2-4.3c-0.3-1.5-1-2.9-1.3-4.4
			c-0.5-1.5-0.3-3.2,0.6-4.4c-0.8,0-1.6-0.6-1.8-1.4s-0.1-1.7,0-2.4c0.4-4.1-1.3-8.2-1.3-12.3c0.1-3.3,1.2-6.4,1.8-9.6
			c1.3-6.9-0.1-14.3,3-20.6c1.8-3.8,4.4-7.9,2.3-11.6c-1-1.8-2.8-3-4-4.8c-0.9-1.6-1.7-3.3-2.2-5.2c-2.4-7.5-6.4-14.6-9.9-21.7
			c-0.9-1.8-1.7-3.7-2.1-5.7c-0.3-1.8-0.3-3.5-0.3-5.3c0-3.2-0.2-6.3-0.6-9.5c-0.1-1.3-0.5-2.7-1.2-3.9c-0.7-0.9-1.5-1.7-2.5-2.3
			C-681.6,1534.4-687.8,1532.4-693.4,1529.5z"/>
		<path class="st18" d="M-674.5,1687.6c1.5,0.5,3.1,0.7,4.7,0.6c0.1-1.3,1.8-1.6,3.2-1.5c0.7,0,1.3,0.1,1.8,0.4
			c0.3,0.2,0.6,0.5,0.9,0.8c0.6,0.3,1.2,0.5,1.8,0.5l6.8,0.6c3,0.3,6.2,0.5,9-0.6c0.6-0.2,1.1-0.5,1.4-1c0.8-1.1,0-2.7-1.1-3.5
			c-1.1-0.8-2.4-1.2-3.5-2c-2.3-1.8-2.7-5.2-3.9-7.9c-0.8-1.7-2-3.3-3.3-4.7c-0.9-1.3-2-2.3-3.2-3.3c-2.7-2-5.9-1.9-9-2.3
			c-2.3-0.2-4.4-0.3-6,1.7c-2,2.5-1.2,7.5-1.1,10.5C-675.7,1679.8-675.3,1683.7-674.5,1687.6z"/>
		<circle class="st17" cx="-604.4" cy="1486.4" r="15.6"/>
		<path class="st17" d="M-619.2,1491c-2.3,1.9-5.4,2.1-8.4,2.3c-6.3,0.7-12.5,2.4-18.1,5.3c-0.8,0.3-1.5,0.8-2.1,1.4
			c-0.5,0.7-0.8,1.4-1.1,2.3c-0.5,1.8-0.8,3.6-0.6,5.4c0.2,1.8,0.8,3.5,1.5,5.1c2.2,4.5,5.5,8.4,9.7,11c0.8,0.6,1.6,0.9,2.4,1.2
			c2.1,0.4,4-0.8,6.1-1.3c1.8-0.5,3.8-0.4,5.6,0.2c1.7,0.6,3.5,1.6,5.2,0.9c1.1-0.6,1.9-1.5,2.3-2.7c1.6-3,3-6.1,4.3-9.3
			c0.4-1.3,1-2.4,1.6-3.7c1.8-3.4,4.9-6.1,6.5-9.7c0.3-0.6,0.4-1.3,0.2-1.8c-0.3-0.4-0.7-0.7-1.2-0.8c-2.3-1.3-4.4-3-6.3-4.9
			c-1-1-2.9-3.7-4.4-3.9C-617.5,1487.8-618,1490-619.2,1491z"/>
		<path class="st1" d="M-618.8,1522.8c-1.8,0.8-3.9,0.5-5.9,0.1c-5.1-1.1-10.2-2.1-14.9-4.4c-1.5-0.6-2.8-1.5-3.7-2.8
			c-0.6-1.1-0.9-2.3-1-3.5l-0.8-5.9c-0.3-2,0.3-3.9,0.3-5.9c0.1-0.5-0.1-0.9-0.3-1.3c-0.3-0.3-0.7-0.3-1-0.3c-2.3,0-3.8,2.5-5.4,4.2
			c-0.9,1-2.1,1.8-3.3,2.3c-1.5,0.6-3.3,1.1-4,2.6c-0.3,0.7-0.3,1.3-0.5,1.9c-1.1,2.5-5.5,1.7-6.7,4.2c-0.3,0.7-0.3,1.6-0.8,2.1
			s-1.5,0.6-2.3,0.7c-3.3,0.5-4.9,4.4-7.6,6.1c-2.3,1.5-5.4,1.5-7.9,2.7c-1.4,0.7-2.7,1.7-4.2,2.1c-1.5,0.4-3.2,0.2-4.8,0.3
			c-0.3,0-0.7,0.1-0.9,0.3c-0.2,0.3-0.3,0.7-0.2,1c1.6,10,8.4,18.6,17.8,22.3c0.5,0.2,1.1,0.4,1.5,0.8c1.4,1.1,1.7,3.3,3.3,4.1
			c1.2,0.4,2.5,0.2,3.4-0.8c0.9-0.8,1.8-1.8,2.5-2.8c1.5-1.5,3.4-2.6,5.5-2.9c1.9-0.3,4.1-0.1,5.7-1.3c0.7-0.6,1.3-1.3,1.8-1.9
			c1.2-1.1,2.5-1.9,4.1-2.4c4.1-1.6,8.5-2.6,12.9-2.8c4.1-0.3,8.4,0.2,12.3-1.2c1-0.3,1.9-0.8,2.8-1.5c0.8-0.9,1.4-2,1.8-3.2
			C-618.2,1531.5-618,1527.1-618.8,1522.8z"/>
		<path class="st1" d="M-639,1499.7c1.2-0.1,2.3,0,3.5,0c1.3,0,2.7-0.3,4.1-0.3c4.4,0.1,8.3,3,9.5,7.3c0.1,0.3,0.2,0.7,0.1,1
			c-0.1,0.3-0.4,0.6-0.8,0.5c-0.4-1.3-1-2.4-1.8-3.5c-1.3-1.8-3.2-3.1-5.3-3.7c-2.1-0.6-4.4-0.7-6.4-0.3c-0.9,0.2-1.8,0.4-2.6,0.7
			l-4.2,1.2c-0.8,0.2-1.6,0.4-2.3,0.7c-0.6,0.3-1.6,1-2.1,1c-0.8,0-0.2-0.7,0.2-1.1c0.7-0.9,1.7-1.6,2.8-2
			C-642.6,1500.6-640.9,1500.1-639,1499.7z"/>
		<path class="st17" d="M-628.4,1546.9c1,3.3,2,6.5,3.3,9.6c2.3,5.5,5.1,10.7,8.5,15.6c2.2,3.2,4.5,6.3,7,9.3
			c3.2,3.7,6.6,7.4,7.8,12.1c0.7,2.8,0.4,5.6,0.7,8.4c0.3,2.8,1.2,5.8,3.4,7.4c1.6,1.2,3.7,1.5,5.7,1.8c1.4,0.3,3.2,0.3,3.9-0.9
			c0.3-0.5,0.4-1.1,0.4-1.6l0.3-4.1c0.1-0.9,0.4-2,1.3-2.1c0.8-0.1,1.3,1.2,2.1,1.7c1,0.7,2.5,0,3.1-1.1c0.4-1.2,0.5-2.4,0.1-3.6
			c-1.3-4.7-4.4-8.7-8.8-10.9c-1.5-0.6-2.9-1.3-4.3-2.3c-1.3-1.2-2.5-2.6-3.3-4.3c-7.8-12.8-15.6-25.6-21.1-39.6
			c-1.1-2.5-1.8-5.1-2.2-7.8c-0.3-2.8,0.2-5.5,0.3-8.2c0.3-4.9-0.2-9.9-1.3-14.6c-0.3-1.3-0.8-2.4-1.4-3.6
			c-2.3-3.4-7.5-3.9-10.9-1.6c-2.5,1.9-4.1,4.8-4.4,7.9c-0.3,2.8,1.3,5.7,2.2,8.2C-633.4,1530.9-630.9,1538.8-628.4,1546.9z"/>
		<path class="st16" d="M-581.6,1475.3c0.1-1.3-1-2.5-2.3-3.3c-1.4-0.8-2.8-1.5-4-2.4c-1.2-1-1.8-2.3-3-3.4c-1.3-1-2.8-1.8-4.5-2.3
			c-3.5-1.3-7.1-1.8-10.8-1.9c-3.8,0-7.5,0.8-10.4,2.8c-0.7,0.4-1.3,1-1.8,1.7c-0.4,0.8-0.8,1.7-0.8,2.6c-0.7,2.8-1.6,5.5-2.7,8.2
			c-1.2,2.9-2.4,6-5.1,8.3c-2.9,2.4-7.4,3.8-9.4,6.8c-0.4,0.5-0.6,1.3-0.4,1.9c0.3,0.8,1.2,1.3,2,1.8c4.8,2.8,8.9,6.3,11,10.5
			c2.1,4.2,2.1,9.2-0.9,13.1c-1.1,1.4-2.6,3.2-1.6,4.6c1.7,2.2,7.3,0.9,8.5,3.3c0.4,0.8,0.2,1.6,0.2,2.4c0,2.4,2.3,4.6,5.2,5.8
			c2.8,1.2,6.2,1.4,9.4,1.5c0.8-1.9,0.9-4.1,0.3-6c-0.3-0.4-0.3-0.9-0.3-1.4c0.3-0.5,0.6-1,1.1-1.3c3.4-3.3,2.7-8,0.7-11.9
			c-2-3.8-5.3-7.4-6.4-11.5c-0.6-2-0.6-4.3,1-5.9c0.9-0.8,1.9-1.5,2.9-2.2c1.8-1.3,3.3-3.1,4.1-5.2c0.9-2.7,0.8-5.9,3.6-7.7
			c2.7-1.7,6.4-1.2,9.5-2.3C-584.5,1480.7-581.8,1477.2-581.6,1475.3z"/>
	</g>
</g>
<g id="_x23_man_x28_sit_x2C_hold_x5B_phone_x5D__x29_">
	<g>
		
			<linearGradient id="SVGID_2_" gradientUnits="userSpaceOnUse" x1="-639.4901" y1="1433.2671" x2="-639.4901" y2="1592.9672" gradientTransform="matrix(1 0 0 -1 -11.09 2881.2502)">
			<stop  offset="0" style="stop-color:#808080;stop-opacity:0.25"/>
			<stop  offset="0.54" style="stop-color:#808080;stop-opacity:0.12"/>
			<stop  offset="1" style="stop-color:#808080;stop-opacity:0.1"/>
		</linearGradient>
		<path class="st19" d="M-583.4,1420.8l-16.5-23.9c0,0-0.3-5.9-1.4-7.3c-1.1-1.3-0.3-4.4-0.3-4.4s1.2-1.7,0.2-1.8
			c-1-0.2-0.2-3.9-0.2-3.9l-0.1-6c0,0,0.9-5.8,0.2-7.1c-0.5-0.8-0.4-1.8,0.1-2.5c0,0,0.9-3.3,0-4.2c-0.9-0.8-0.7-6-0.5-10
			c0.3-4.1-1.6-6.4-1.6-7c0-0.7-6.1-6.6-6.1-7.2c0-0.5-3.8-2.8-6.2-3.3c-2.3-0.6-3.4-1.1-3.3-1.4c0.1-0.3-3.6-1.5-3.6-1.5
			s-3.3-0.3-4.5-1.8c-1.2-1.5-5-2.1-5.1-2.1l-0.1-0.3c0-0.1,0-0.3-0.1-0.3c0.3-0.5,0.6-1,0.8-1.5l0.3-0.5c1.3,0,2.7-0.4,3.8-1.2
			c1.1-0.9,1.8-2.3,1.8-3.7c0.1-1.4-0.3-2.8-0.9-4.1c-0.7-1.4-1.7-2.8-1.3-4.4c0.2-0.7,0.5-1.3,0.8-1.8c0.3-1.3,0.1-2.5-0.6-3.7
			c-0.6-1.1-1.4-2.1-2.1-3.2c-0.8-1.4-1.4-2.9-1.7-4.5c-0.1-0.8-0.3-1.7-0.6-2.4c-0.3-0.6-0.8-1-1.3-1.3c-2.4-1.8-5.4-2.6-8.3-2.5
			c-2.1,0.1-4.2,0.7-6.3,0.4c-1.3-0.3-2.5-0.5-3.7-0.9c-2.6-0.8-5.6-1.1-7.9,0.4c-2.3,1.5-3.2,4.4-4.7,6.7c-1.3,2-3.3,3.7-4.4,5.9
			v-0.1c-0.3,0.5-0.4,1-0.6,1.6c-0.3,1.7-0.2,3.4,0.3,5.1c0.1,0.9,0.6,1.7,1.3,2.3c0.8,0.5,1.8,0.4,2.7,0.5l-0.1,0.4
			c-1.8,9,3.4,17.9,12.2,20.5c0,0.2,0,0.3,0,0.5c0,0.4,0,0.9-0.1,1.3l0,0c0,0-7.8-1.6-9.9-0.5c-2.1,1.1-6.2,1.9-6.8,2.5
			c-0.6,0.6-2.2,0.2-3.5,3.8c-1.3,3.6-1.5,7.3-3.3,9c-1.8,1.7-2.7,2.8-2.8,4.1c-0.1,1.3,0.3,1.5-0.4,1.9c-0.7,0.4-1.7,2-1.4,2.6
			c0.3,0.8-0.1,1.8-0.8,2.3c-0.8,0.5-1.2,1.4-1.1,2.3c0,0-0.5,1.7-1.6,2.1c-1.1,0.4-1.8,2.9-1.8,2.9l-3.3,3.8l-6.9-7.7
			c-1.1-1.2-2.9-1.3-4.1-0.2l-3.4,3.1c-1.3,0.3-2.5,1-3.4,2c-0.8,0.8-1.3,1.7-1.8,2.6l-1.8,1.7c-1.2,1.5-1.4,3.5-0.5,5.2l4.4,4.9
			l0,0c-1.6,0.2-3.1,0.8-4.3,1.8c-6.6,5.9-6.7,11.2-5.7,13.7s9.4,11.9,9.4,11.9s4.9,6.4,12,9.7l0,0l-0.1,0.1
			c-0.2,0.2-0.3,0.3-0.4,0.5l-0.1,0.2l-0.1,0.2l-0.1,0.2c0,0.1-0.1,0.1-0.1,0.2l-0.2,0.3c0,0.1-0.1,0.1-0.1,0.2
			c-0.1,0.1-0.1,0.2-0.2,0.3c0,0,0,0.1-0.1,0.1c-0.1,0.2-0.2,0.3-0.2,0.4l-0.1,0.2c0,0.1-0.1,0.2-0.1,0.3c0,0.1-0.1,0.2-0.1,0.2
			l-0.1,0.3c0,0.1-0.1,0.2-0.1,0.3s-0.1,0.3-0.1,0.3s0,0.2-0.1,0.2c0,0.1-0.1,0.3-0.1,0.6c0,0.1,0,0.2,0,0.3s0,0.3-0.1,0.4
			c0,0.2,0,0.2,0,0.3l-0.1,0.4v0.3c0,0.2,0,0.3,0,0.4c0,0.2,0,0.2,0,0.3c0,0.3,0,0.5,0,0.8c-0.2,9,0.4,10.3,0.4,10.3
			c0.7,1.7,2.3,2.8,4.1,3.1c0.4,0,0.9,0,1.3-0.1c4-0.7,13.4-2.3,16.7-1.7c2,0.3,5.7-0.2,8.3-0.7l0.7-0.2l0.5,1.5l1.5-0.4l1.3,0.8
			l0.8,0.5c1.5,5.2,7.7,3.4,7.7,3.4l1.5,0.8l14.9,0.4c1.7,1,3.4,1.8,5.3,2.5c0.3,0.1,0.5,0.2,0.8,0.2c1.4,0.1,2.8,0.2,4.2,0.1
			c1.2,0,2-0.1,2-0.1s-0.2-4-0.3-8.5c4.6-0.1,9.2-0.5,13.8-1.2c7.9-1.4,11.3-8.6,12.5-12.5c0.3,1.6,0.6,3.2,0.8,4.8
			c0.3,1.4,0.8,2.8,1.3,4.2c0.4,1.1,1,2.1,1.7,3.1c5.9-2,2.3-5,1.1-6.3c-1.3-1.3,0.8-2.4,0.8-2.4s1.6-1.1,1.5-2.1
			c-0.1-1-0.3-2.1,5-2C-583.1,1425.1-583.4,1420.8-583.4,1420.8z M-664.8,1371.6c0.1,0.4,0.8,5.2,1.4,6.4c0.2,0.8,0.3,1.7,0.2,2.5
			c-3.1-0.3-6.4-0.4-6.4-0.4c0.1,0.1,0.2,0.3,0.2,0.4l-0.5-0.1l-0.7-0.2L-664.8,1371.6L-664.8,1371.6z M-676.2,1389.6l5.4,0.8
			l0.4,0.1c-0.2,0.8-0.3,1.7-0.3,2.5c0,0.1,0.1,0.2,0.3,0.3c-0.1,0.4-0.1,0.8-0.1,1.3c0.1,0.4,2.6,1.3,5.4,2.1
			c0,0.2-0.1,0.3-0.1,0.4l0,0c-2.5-1.3-6.5-1.9-7-2.9s-14.1-5.8-14.1-5.8l-1.3-0.7l3.6,0.7l1-0.1
			C-680.7,1389-678.5,1389.4-676.2,1389.6z"/>
		<path class="st20" d="M-601,1424.1c0,0-2.1,12.9-13,14.8s-47.1,1.5-47.1,1.5s-20.8-3-28.2-20.5c-7.4-17.5-12.3-24.4-5.9-24.8
			c6.4-0.3,41.1,11.7,43,11.9C-650.1,1407.2-599.1,1380.4-601,1424.1z"/>
		<path class="st14" d="M-601,1424.1c0,0-2.1,12.9-13,14.8s-47.1,1.5-47.1,1.5s-20.8-3-28.2-20.5c-7.4-17.5-12.3-24.4-5.9-24.8
			c6.4-0.3,41.1,11.7,43,11.9C-650.1,1407.2-599.1,1380.4-601,1424.1z"/>
		<path class="st15" d="M-698.1,1438.5c0.7,1.7,2.3,2.8,4,3c0.4,0,0.9,0,1.3-0.1c4-0.7,13.3-2.3,16.6-1.7c2,0.3,5.6-0.2,8.2-0.7
			c1.8-0.3,3-0.7,3-0.7s-3.1-10.2-3.4-10.5c-0.3-0.3-13.8-8.4-13.8-8.4l-10.6-0.8l0,0c-1.4,0.3-2.7,1-3.6,2.1
			c-1.1,1.3-2.1,3.6-2.2,7.2C-698.6,1437.2-698.1,1438.5-698.1,1438.5z"/>
		<path class="st14" d="M-698.1,1438.5c0.7,1.7,2.3,2.8,4,3c-1-1.3-2-2.8-2.8-4.2l0.1-7.4c-0.4-4.1,1.1-8.2,4.2-11l0,0
			c0,0-5.6,0.4-5.8,9.3C-698.6,1437.1-698.1,1438.5-698.1,1438.5z"/>
		<path class="st0" d="M-652.2,1422.3l9.9-7.7l15.5-15.3l-4.2-0.2c-0.7,0.4-2.4,1.7-2.4,3.2c-0.1,1.8-4.2,0.2-6.4,1.2
			c-2.2,1.1-12.6,14.5-14.5,14.4c-1.8-0.1-3.3-0.9-4.1,0.4l-0.1,0.1L-652.2,1422.3z"/>
		<path class="st0" d="M-696.4,1421c0.3,0.2,0.8,0.3,1.1,0.5c7.5,3.2,16.7,10,17.4,11.1c0.4,0.8,5.8,4,10,6.4c1.8-0.3,3-0.7,3-0.7
			s-3.1-10.2-3.4-10.5c-0.3-0.3-13.8-8.4-13.8-8.4l-10.6-0.8l0,0C-694.2,1419.1-695.5,1419.8-696.4,1421z"/>
		<path class="st20" d="M-717.1,1399.1c1,2.4,9.3,11.9,9.3,11.9s5.3,6.9,12.8,10c7.5,3.2,16.7,10,17.4,11.1
			c0.4,0.8,6.4,4.4,10.6,6.9l0.9,0.6l2.1,1.3l1.1,0.7c0,0,2.6-2.1,5.1-4.1c2.5-2.1,5-4.1,5-4.2c0-0.1,1.1-2.8,0.8-3
			c-0.3-0.2-0.7-1.2-1.6-2.3c-1-1.3-2.3-2.4-3.8-3.2c-2.3-1.2-4-3-5-5.3c0,0-0.3-0.3-0.8-0.6c-1-0.8-2.2-1.3-3.4-1.5
			c-1.7-0.2-4.9-3.7-4.9-3.7c-1.3-0.8-2.3-1.8-3-3.1c-0.8-1.7-12.6-9.8-13.7-10.5l28.7,18.5l6.9,4.4l9.9-7.7l15.5-15.3l-5.1-0.3
			c-7.5-0.3-20.9-0.8-22.6-0.4c-1.3,0.3-2.8,0.4-4.2,0.3c0,0-3.8,0.2-6.4-1.2c-2.5-1.3-6.5-1.9-6.9-2.9c-0.4-1-14-5.7-14-5.7
			s-18.4-9.8-25-4C-718.1,1391.5-718.1,1396.7-717.1,1399.1z"/>
		<path class="st21" d="M-657.8,1343l2.3,7.9l3.1,17.7l11.2,0.8l3.2-5.4l3.3-5.4c0,0,2-7.2,3.5-14.1c1.3-6.1,2.1-12.1,0.8-12.7
			c-1.3-0.6-2.1-2.7-2.6-4.9c-0.1-0.3-0.1-0.6-0.2-0.8c-0.3-1.8-0.6-3.8-0.8-5.7c0,0-23.5-1.3-20.3,8.5c0.6,1.7,0.9,3.4,0.9,5.2
			c0,0.4,0,0.9-0.1,1.3C-653.7,1338.4-655.3,1341.2-657.8,1343z"/>
		<path class="st22" d="M-662.7,1341.7l0.8,13.4l1.9,11.4l2.2,5.3l1.9,28.9c0,0,18.4,2.1,22.9,0c0.3-0.2,0.6-0.3,0.8-0.7
			c5.4-8.2,3.7-31.9,3.7-31.9l2.1-15.3l-1.3-7.9l-3.3-0.3l-2.6-0.3c0,0-0.6,0.7-1.4,1.8c-2.3,3-6.4,8.9-6.2,11.3
			c0.4,3.3-0.4,6.8-1.8,7.4c-1.3,0.5-2.3,1.4-2.6,0.5c-0.3-0.8-0.4-1.6-0.3-2.4c0.3-1.3-1-5.3-1-5.3s-2.1-4.7-1.9-6.6
			c0.2-1.9-0.3-4.3-0.8-4.9c-0.6-0.6-1.4-1.1-0.8-3.5c0.7-2.4-3-7.2-3-7.2L-662.7,1341.7z"/>
		<path class="st0" d="M-638.3,1375.1l0.8,22.8l4.4,2.4c0.3-0.2,0.6-0.3,0.8-0.7c5.4-8.2,3.7-31.9,3.7-31.9l2.1-15.3l-1.3-7.9
			l-3.3-0.3c1.3-6.1,2.1-12.1,0.8-12.7c-1.3-0.6-2.1-2.7-2.6-4.9l0,0l-2.4,16.2c0,0,0.2,1.4,0.3,2.9c0.1,0.9,0,1.9-0.2,2.8
			c-0.3,1.3-0.3,2.6-0.2,3.8c-1.3,2.4-2.1,6.9-2.4,11.3C-638.5,1369.6-638.3,1375.1-638.3,1375.1z"/>
		<path class="st15" d="M-633.1,1326.4c0,0,3.8,0.5,5.1,2.1c1.3,1.6,4.4,1.8,4.4,1.8s3.7,1.3,3.6,1.5c-0.1,0.3,1.1,0.8,3.3,1.3
			c2.3,0.6,6.1,2.8,6.1,3.3s6,6.5,6,7.1c0,0.6,1.8,2.9,1.6,6.9c-0.3,4-0.4,9.2,0.4,10c0.8,0.8,0,4.1,0,4.1c-0.5,0.8-0.5,1.7-0.1,2.4
			c0.8,1.3-0.2,7.1-0.2,7.1l0.1,5.9c0,0-0.8,3.8,0.2,3.9c1,0.2-0.2,1.8-0.2,1.8s-0.8,3,0.3,4.4c1.1,1.3,1.3,7.3,1.3,7.3l16.3,23.8
			c0,0,0.3,4.4-4.9,4.3c-5.2-0.1-5.1,1-4.9,2c0.2,1-1.4,2.1-1.4,2.1s-2.1,1.1-0.8,2.3c1.3,1.3,4.8,4.3-1.1,6.3
			c-0.7-0.9-1.3-2-1.7-3.1c-0.5-1.3-0.9-2.8-1.3-4.1c0,0-0.5-5.9-1.6-6.6c-1.1-0.8-0.9-4.4-0.9-4.4s1.5-3-0.6-4.2
			c-2.1-1.2-33.1-18.4-33.1-18.4l-0.8-22.8c0,0-0.5-16.9,2.7-22.6c-0.3-1.3-0.2-2.6,0.2-3.8c0.5-1.3-0.1-5.8-0.1-5.8L-633.1,1326.4z
			"/>
		<path class="st0" d="M-653.1,1335.6c0,0-7.7-1.6-9.7-0.5c-2,1.1-6.1,1.9-6.7,2.5c-0.6,0.6-2.1,0.2-3.5,3.8s-1.5,7.3-3.3,9
			c-1.8,1.7-2.7,2.8-2.8,4c-0.1,1.3,0.3,1.5-0.4,1.9s-1.7,2-1.3,2.6c0.4,0.6,15.9,14.1,15.9,14.1s0.8,5.1,1.4,6.4
			c0.7,1.3-0.8,19.2-2.3,20.4c-1.5,1.3,10.3,1.1,10.3,1.1s0.5-11.7,1-12.4c0.5-0.7-0.3-13.1-0.3-13.1s-0.1-10.7,0.9-13.6
			c1-2.8,0.8-12.2,0.8-12.2s0.8-5.6,1.9-6.9C-650.1,1341.4-653.1,1335.6-653.1,1335.6z"/>
		<path class="st15" d="M-653.4,1335.3c0,0-7.7-1.6-9.7-0.5s-6.1,1.9-6.7,2.5c-0.6,0.6-2.2,0.2-3.5,3.8s-1.5,7.3-3.3,9
			c-1.8,1.7-2.7,2.8-2.8,4c-0.1,1.3,0.3,1.5-0.4,1.9c-0.7,0.4-1.7,2-1.3,2.6c0.3,0.6,15.9,14.1,15.9,14.1s0.8,5.1,1.4,6.4
			c0.7,1.3-0.8,19.2-2.3,20.4c-1.6,1.3,10.3,1.1,10.3,1.1s0.5-11.7,1-12.4c0.5-0.7-0.3-13.1-0.3-13.1s-0.1-10.7,0.9-13.6
			c1-2.8,0.8-12.2,0.8-12.2s0.8-5.6,1.9-6.9C-650.3,1341-653.4,1335.3-653.4,1335.3z"/>
		<path class="st0" d="M-654.1,1328.9c0.6,1.7,0.9,3.4,0.9,5.2c7.7,2.3,16-1,20.1-7.9c-0.3-1.8-0.6-3.8-0.8-5.7
			C-633.9,1320.3-657.5,1319.2-654.1,1328.9z"/>
		<path class="st21" d="M-665.7,1316.7c0,9.7,7.9,17.5,17.5,17.5s17.5-7.9,17.5-17.5s-7.9-17.5-17.5-17.5c-8.3,0-15.4,5.8-17.2,13.9
			C-665.7,1314.3-665.7,1315.6-665.7,1316.7z"/>
		<path class="st15" d="M-677,1357.3l-4.2,1.3c0.3,0.8-0.1,1.8-0.8,2.3c-0.8,0.5-1.2,1.4-1.1,2.3c0,0-0.4,1.7-1.5,2.1
			c-1.1,0.4-1.8,2.9-1.8,2.9l-3.5,4c0,0-1.3,1.1-1.1,1.6c0.2,0.5-1.3,0.7-1.3,0.7l0.8,13.6l7.3,1.3l4.5-0.4l3.7-1.3l3.2-1.9l1.4-3.8
			l6.4-9.8L-677,1357.3z"/>
		<path class="st21" d="M-691.3,1375.6c0,0-9.3-13.5-16.3-6.2c-6.9,7.3,2.8,19.1,5.1,18.7c2.3-0.4,13.2-1,13.2-1L-691.3,1375.6z"/>
		<path class="st15" d="M-710.5,1348.7l41.2,21c0.7,0.3,0.9,1.1,0.6,1.8l-16.1,31.5c-0.3,0.7-1.1,0.9-1.8,0.6l-41.2-21
			c-0.7-0.3-0.9-1.1-0.6-1.8l16.1-31.5C-711.9,1348.6-711.2,1348.4-710.5,1348.7z"/>
		
			<rect x="-714" y="1355.6" transform="matrix(0.4546 -0.8907 0.8907 0.4546 -1606.5802 128.393)" class="st1" width="31" height="41"/>
		<circle class="st23" cx="-718.1" cy="1366" r="0.7"/>
		<circle class="st23" cx="-678.6" cy="1386.3" r="1.1"/>
		<path class="st21" d="M-697.4,1378.4c-0.1,10.1,20.8,12.2,20.8,12.2l5.4,0.8l2.4,0.4l1-9.9c0,0-1.1-0.2-2.4-0.5
			c-2-0.5-4.6-1.3-5.2-2.4C-676.4,1377.2-697.3,1368.3-697.4,1378.4z"/>
		<path class="st0" d="M-665.4,1313.1c0.5,0,0.9,0.3,1.3,0.6c0.6,0.7,0.6,1.8,1.4,2.1c0.3,0.1,0.6,0.2,0.9,0.1
			c2-0.3,3.2-2.6,5.2-3.2c1.2-0.3,2.3-0.2,3.4,0.3c0.4,0.2,0.8,0.4,1.2,0.8c0.7,0.8,0.2,2.1,0.5,3.1c0.4,1.4,2.1,2,3.6,2.2
			c1.5,0.2,3.1,0.3,4.1,1.4c0.7,0.8,0.9,1.9,0.8,2.9c-0.1,0.3-0.1,0.8,0,1.1c0.4,1.2,2.4,1,2.9,0.1c0.4-0.7,0.3-1.2,1.2-1.4
			c0.7-0.1,1.3,0.1,1.8,0.3c1.6,0.5,3.2,0.8,4.9,0.8c4.1-8.8,0.3-19.2-8.5-23.3s-19.2-0.3-23.3,8.5
			C-664.7,1310.5-665.1,1311.8-665.4,1313.1L-665.4,1313.1z"/>
		<path class="st15" d="M-643.2,1324c-0.1-0.3-0.1-0.8,0-1.1c0.2-1-0.1-2.1-0.8-2.9c-1-1.1-2.6-1.3-4.1-1.4
			c-1.5-0.2-3.2-0.8-3.6-2.2c-0.3-1,0.2-2.3-0.5-3.1c-0.3-0.3-0.7-0.6-1.2-0.8c-1.1-0.5-2.3-0.6-3.4-0.3c-1.9,0.7-3.1,2.9-5.2,3.2
			c-0.3,0.1-0.6,0-0.9-0.1c-0.8-0.4-0.8-1.5-1.4-2.1c-0.9-1-2.7-0.3-3.8-1.1c-0.7-0.6-1.1-1.4-1.3-2.3c-0.5-1.7-0.6-3.3-0.3-5.1
			c0.7-2.8,3.2-4.8,4.9-7.2c1.5-2.3,2.3-5.1,4.6-6.6s5.2-1.2,7.8-0.4c1.2,0.4,2.4,0.8,3.6,0.9c2.1,0.3,4.2-0.3,6.2-0.4
			c2.9-0.1,5.9,0.8,8.2,2.5c0.5,0.3,1,0.8,1.3,1.3c0.3,0.8,0.6,1.6,0.6,2.4c0.3,1.6,0.8,3.1,1.6,4.4c0.7,1.1,1.4,2.1,2,3.2
			c0.7,1.1,0.8,2.4,0.6,3.6c-0.2,0.7-0.6,1.2-0.8,1.8c-0.3,1.5,0.7,2.9,1.3,4.3c0.7,1.3,0.9,2.7,0.9,4.1c-0.1,1.4-0.8,2.8-1.8,3.7
			c-1.2,0.8-2.5,1.2-3.8,1.2c-1.7,0.1-3.3-0.2-4.9-0.8c-0.6-0.3-1.3-0.3-1.8-0.3c-0.9,0.2-0.8,0.8-1.2,1.4
			C-640.8,1325-642.8,1325.2-643.2,1324z"/>
		<path class="st0" d="M-652.6,1422.7l9.9-7.7l15.5-15.3l-5.1-0.3c-0.6,0.5-1,1.3-1.1,2.1c-0.1,1.8-4.2,0.1-6.4,1.2
			c-2.2,1.1-12.6,14.5-14.5,14.4c-1.8-0.1-3.3-0.9-4.1,0.3l-0.1,0.1c-0.3,0.3-0.8,0.6-1.2,0.7L-652.6,1422.7z"/>
		<path class="st20" d="M-672.5,1422.2l4.9,15.8l0.8,2.5l2.3-0.7l5.2-1.4l23.2-6.4c2.9-0.2,5.8-0.9,8.4-2.3
			c4.4-2.4,9.4-3.5,14.4-3.2c3.1,0.3,6.4-1,9.3-6.3c0,0,6.4-18.9-9.8-24.4s-17,2.9-17,2.9l-0.3,0.2c-0.7,0.4-2.4,1.7-2.4,3.2
			c-0.1,1.8-4.2,0.2-6.4,1.2c-2.2,1.1-12.6,14.5-14.5,14.4c-1.8-0.1-3.3-0.9-4.1,0.4l-0.1,0.1c-0.6,0.8-2.3,0.9-3.4,1
			c-0.3,0-0.7,0-1.1,0h-0.2l-1.2,0.3L-672.5,1422.2z"/>
		<path class="st0" d="M-671.2,1391.5l2.4,0.4l1-9.9c0,0-1.1-0.2-2.4-0.5C-669.9,1382.8-670.8,1388.2-671.2,1391.5z"/>
		<path class="st0" d="M-608.7,1345.4c0,0,7.1-2.1,5.4,18.1c-1.3,12.3-6.4,23.9-14.9,33c0,0-15.1,6.6-21.9,5.6
			c-6.8-1.1-11.8-1.3-11.8-1.3c-2.2-1.1-4.5-1.7-6.9-1.8c-3.8-0.2-11.8-2.5-12-3.3c-0.2-0.8,2-12,1.1-12.8c0,0,10.7,0.4,11.8,1.2
			c1.1,0.8,2.6,0.3,3.8,0c1.2-0.3,4.7-3.3,11.6-0.6c0,0,2.3,0.3,3.3-0.4c0.8-0.3,1.6-0.4,2.4-0.2c0.6-0.2,1.2-0.5,1.7-0.8
			c0.3-0.3,2.1,0,2.1,0c0.4,0.2,0.9,0,1.1-0.4v-0.1c0.3-0.6,0.6-1.2,1.1-1.7c0,0,2.1-11.6,5.9-16c0.7-0.6,0.9-1.4,0.8-2.3
			C-624.6,1360.3-617.9,1342.9-608.7,1345.4z"/>
		<path class="st15" d="M-608.9,1343.8c0,0,7.1-2.1,5.4,18.1c-1.3,12.3-6.4,23.9-14.9,33c0,0-15.1,6.7-21.9,5.6
			c-6.8-1.1-11.8-1.3-11.8-1.3c-2.2-1.1-4.5-1.7-6.9-1.8c-3.8-0.2-11.9-2.5-12-3.3c-0.1-0.8,2-12,1.1-12.9c0,0,10.7,0.4,11.8,1.3
			c1.1,0.8,2.6,0.3,3.8,0c1.2-0.3,4.7-3.3,11.6-0.6c0,0,2.3,0.3,3.3-0.4c0.8-0.3,1.6-0.4,2.4-0.2c0.6-0.2,1.2-0.5,1.7-0.8
			c0.3-0.3,2.1,0,2.1,0c0.4,0.2,0.9,0,1.1-0.4v-0.1c0.3-0.6,0.6-1.2,1.1-1.7c0,0,2.1-11.6,5.9-16c0.7-0.6,0.9-1.4,0.8-2.2
			C-624.7,1358.8-618,1341.4-608.9,1343.8z"/>
		<path class="st0" d="M-664.1,1419.7l10.1,12.2l0.1-0.1c0.1-0.3,1.1-2.8,0.8-3c-0.3-0.2-2-4-5.5-5.6c-1.8-0.8-3.3-2.3-4.4-3.9
			L-664.1,1419.7z"/>
		<path class="st0" d="M-664,1440.8l1.1,0.7c0,0,2.6-2.1,5.1-4.1c2.5-2.1,5-4.1,5-4.2c0-0.1,1.1-2.8,0.8-3c-0.3-0.2-0.7-1.2-1.6-2.3
			c-6.9-1.9-2.5,2.8-1.9,3.1c0,0-8.4-1.9-8.8,7.2C-664.2,1438.9-664.2,1439.9-664,1440.8z"/>
		<path class="st15" d="M-655.5,1444.7l1.4,0.8l14.7,0.4c1.7,1,3.4,1.8,5.2,2.5c0.3,0.1,0.5,0.1,0.8,0.2c1.3,0.1,2.8,0.2,4.1,0.1
			c1.2,0,2-0.1,2-0.1s-0.7-18.6-1.3-20.6c-0.3-0.9-1.5-0.8-2.7-0.3c-0.9,0.3-1.8,0.8-2.7,1.3c0,0-6.3,0.6-7.3,1.2
			c-1,0.5-3.8-0.3-5.6,0c-1.8,0.3-4.9-2.1-4.9-2.1c-8.5-2.8-3.8,2.4-3.1,2.7c0,0-8.4-1.9-8.8,7.2
			C-663.9,1447-655.5,1444.7-655.5,1444.7z"/>
		<path class="st24" d="M-634.2,1437.5c0.2,3.8,3.2,8.6,4.9,11.1c1.2,0,2-0.1,2-0.1s-0.7-18.6-1.3-20.6c-0.3-0.9-1.5-0.8-2.7-0.3
			C-632.7,1430.5-634.4,1434.4-634.2,1437.5z"/>
		<path class="st0" d="M-634.2,1437.5c0.2,3.8,3.2,8.6,4.9,11.1c1.2,0,2-0.1,2-0.1s-0.7-18.6-1.3-20.6c-0.3-0.9-1.5-0.8-2.7-0.3
			C-632.7,1430.5-634.4,1434.4-634.2,1437.5z"/>
		<path class="st14" d="M-636.7,1438c1,3.7,1,7.9,2.6,10.4c0.3,0.1,0.5,0.1,0.8,0.2c1.3,0.1,2.8,0.2,4.1,0.1c1.2,0,2-0.1,2-0.1
			s-0.7-18.6-1.3-20.6c-0.3-0.9-1.5-0.8-2.7-0.3c-0.9,0.3-1.8,0.8-2.7,1.3C-633.9,1429-638,1433.2-636.7,1438z"/>
		<path class="st0" d="M-687.6,1400.2c0,0,7.4,2.3,13.6,10.8L-687.6,1400.2z"/>
		<g class="st25">
			<path d="M-628.1,1308.5c0,0.1,0,0.1,0,0.2c-0.1,0.3-0.2,0.4-0.3,0.7C-628.3,1309-628.2,1308.8-628.1,1308.5z"/>
			<path d="M-669.5,1304.9c0.1-0.5,0.3-1.1,0.6-1.5c0,0.1-0.1,0.3-0.1,0.4c-0.3,1.7-0.2,3.4,0.3,5.1c0.1,0.9,0.6,1.7,1.3,2.3
				c1.2,0.8,2.9,0.1,3.8,1.1c0.6,0.7,0.6,1.8,1.4,2.1c0.3,0.1,0.6,0.2,0.9,0.1c2-0.3,3.2-2.6,5.2-3.2c1.2-0.3,2.3-0.2,3.4,0.3
				c0.4,0.2,0.8,0.4,1.2,0.8c0.7,0.8,0.2,2.1,0.5,3.1c0.4,1.4,2.1,2,3.6,2.2c1.5,0.2,3.1,0.3,4.1,1.4c0.7,0.8,0.9,1.9,0.8,2.9
				c-0.1,0.3-0.1,0.8,0,1.1c0.4,1.2,2.4,1,2.9,0.1c0.4-0.7,0.3-1.2,1.2-1.4c0.7-0.1,1.3,0.1,1.8,0.3c1.6,0.5,3.3,0.8,4.9,0.8
				c1.4,0,2.8-0.4,3.8-1.2c0.5-0.4,0.9-0.9,1.2-1.4c-0.3,1-0.8,1.9-1.7,2.6c-1.2,0.8-2.5,1.2-3.8,1.2c-1.7,0.1-3.3-0.2-4.9-0.8
				c-0.6-0.3-1.3-0.3-1.8-0.3c-0.9,0.2-0.8,0.8-1.2,1.4c-0.5,0.9-2.5,1.1-2.9-0.1c-0.1-0.3-0.1-0.8,0-1.1c0.2-1-0.1-2.1-0.8-2.9
				c-1-1.1-2.6-1.3-4.1-1.4c-1.5-0.2-3.2-0.8-3.6-2.2c-0.3-1,0.2-2.3-0.5-3.1c-0.3-0.3-0.7-0.6-1.2-0.8c-1.1-0.5-2.3-0.6-3.4-0.3
				c-1.9,0.7-3.1,2.9-5.2,3.2c-0.3,0.1-0.6,0-0.9-0.1c-0.8-0.4-0.8-1.5-1.4-2.1c-0.9-1-2.7-0.3-3.8-1.1c-0.7-0.6-1.1-1.4-1.3-2.3
				C-669.8,1308.3-669.8,1306.5-669.5,1304.9z"/>
		</g>
		<path class="st0" d="M-626.9,1366c-1.4,1.9-3,3.7-4.3,5.6c-1.3,1.9-2,4.4-1.8,6.7c1.3-1.3,1.8-3.2,2.7-4.8
			c1.3-2.8,3.4-5.2,5.1-7.7c0.3-0.5,2.4-3.3,1.3-3.4C-624.7,1362.3-626.4,1365.4-626.9,1366z"/>
	</g>
</g>
</svg>
