<?xml version="1.0" encoding="utf-8"?>
<!-- Generator: Adobe Illustrator 19.0.0, SVG Export Plug-In . SVG Version: 6.00 Build 0)  -->
<svg version="1.1" id="图层_1" xmlns="http://www.w3.org/2000/svg" xmlns:xlink="http://www.w3.org/1999/xlink" x="0px" y="0px"
	 viewBox="-917 917.7 1000 1000" style="enable-background:new -917 917.7 1000 1000;" xml:space="preserve">
<style type="text/css">
	.st0{opacity:0.5;}
	.st1{fill:url(#SVGID_1_);}
	.st2{fill:#3AD29F;}
	.st3{fill:#381E1D;}
	.st4{fill:#333333;}
	.st5{fill:#6C63FF;}
	.st6{fill:#FFFFFF;}
	.st7{fill:#A3643B;}
	.st8{opacity:0.1;enable-background:new    ;}
	.st9{fill:#FA9221;}
	.st10{opacity:0.1;fill:#DAA4A2;enable-background:new    ;}
	.st11{fill:#FDD835;}
	.st12{fill:url(#SVGID_2_);}
	.st13{fill:#FEC9B1;}
	.st14{fill:#4D8AF0;}
	.st15{opacity:0.1;}
	.st16{fill:#F5F5F5;}
	.st17{fill:#E0E0E0;}
	.st18{fill:url(#SVGID_3_);}
	.st19{fill:#FDA57D;}
	.st20{fill:url(#SVGID_4_);}
	.st21{opacity:5.000000e-02;enable-background:new    ;}
	.st22{fill:url(#SVGID_5_);}
	.st23{fill:#F55F44;}
	.st24{fill:url(#SVGID_6_);}
	.st25{fill:url(#SVGID_7_);}
</style>
<g id="_x23_woman_x28_stand_x29__1_">
	<g>
		<g class="st0">
			
				<linearGradient id="SVGID_1_" gradientUnits="userSpaceOnUse" x1="41.455" y1="3707.3835" x2="41.455" y2="3173.3801" gradientTransform="matrix(1 0 0 1 -147.13 -2016.9299)">
				<stop  offset="0" style="stop-color:#808080;stop-opacity:0.25"/>
				<stop  offset="0.54" style="stop-color:#808080;stop-opacity:0.12"/>
				<stop  offset="1" style="stop-color:#808080;stop-opacity:0.1"/>
			</linearGradient>
			<path class="st1" d="M-22.7,1671.9c-8-4.7-12.2-20.5-13.5-26.1l-9.5-123.1c0,0-7.2-40.7-34.3-98.8c-0.3-34.5-1.6-143.8-4.7-155.6
				l-18-21.9c0.9-1.7,1.8-3.3,2.9-4.9c0.3-0.1,0.6-0.1,1-0.2c0.4-0.5,0.9-1.1,1.3-1.5c15.5-5.5,23.7-22.5,18.3-38
				c-0.7-2-1.6-4-2.8-5.9c4.5-3.3-1.2-4.6-1.2-4.6l0,0c-3.4-15.3-18.2-25.3-33.8-22.9c-2-7-8.3-11.8-15.6-11.8h-1
				c6.7,0.3,12.5,4.8,14.5,11.2c-2.2-3.8-5.9-6.5-10.3-7.6c-2.9-2.5-6.6-3.7-10.4-3.7h-1c3.2,0.2,6.4,1.4,9,3.3
				c-0.4,0-1-0.1-1.4-0.1c-9,0-16.1,7.2-16.3,16.1c0,5.8,3.1,11.1,8,14c-1.8,6.6-1.2,13.7,1.6,20c-0.6,8.6,1.3,19.5,12.7,25
				l-1.9,4.4c-2.4,0.1-21.4,2.5-33.7,45.7c-5.2,10.8-9.3,28.3-9,56.7c-0.5,7.3-0.9,15-1.1,23.3l-8.9,36.5l0.1,0.2c0,0.2,0,0.3,0,0.5
				l-0.1,0.4l0.1,0.1c-2.1,29.1-1.1,58.7,4.8,87.3c3.3,16.1,5.9,32.4,4.3,38.2c-3.5,12.8-16,59.6-14.2,74l-4.2,25.1l0.3,0.1
				l-15.5,29.5c0,0,9.6,8.8,13.4,9c3.8,0.2,8.1,6.6,8.1,6.6s22.5,17.3,30,12c7.5-5.3-2.9-11.8-10.1-20.5c-5.9-7.2-4.4-23.5-3.6-29.1
				l33.5-118.8c0,0,3.3-18.5,3.8-50c2.6,2,5.5,3.6,8.7,4.6c1.1,0.3,2.1,0.3,3.2,0l2.1,7.7c0,0,38.6,55.2,39.8,68.4
				c1.2,13.3,5.6,61.5,12.2,74.3l4.8,25h0.3l-4.4,33.2c0,0,12.1,4.9,15.7,3.8c3.6-1.1,9.9,3.4,9.9,3.4s26.9,8.6,32.3,0.9
				S-13,1677.7-22.7,1671.9z"/>
		</g>
		<path class="st2" d="M-90.4,1411.6l9.6,22.3c0,0-1.1-146.7-4.6-160.2l-23.1-28l-7.8,20.6l17.8,22c0,0,11,32.6,9.2,64.6
			S-90.4,1411.6-90.4,1411.6z"/>
		<path class="st3" d="M-90.4,1411.6l9.6,22.3c0,0-1.1-146.7-4.6-160.2l-23.1-28l-7.8,20.6l17.8,22c0,0,11,32.6,9.2,64.6
			S-90.4,1411.6-90.4,1411.6z"/>
		<path class="st4" d="M-91.5,1411.6l9.6,22.3c0,0-1.1-146.7-4.6-160.2l-23.1-28l-7.8,20.6l17.8,22c0,0,11,32.6,9.2,64.6
			C-92.3,1385-91.5,1411.6-91.5,1411.6z"/>
		<path class="st5" d="M-178.7,1401.8c-2.2,28.7-1.3,57.7,4.5,86c3.2,15.6,5.7,31.2,4.2,36.8c-3.4,12.4-15.5,57.5-13.7,71.4l-4,24.3
			l21.7,7.9l32.5-115.2c0,0,8.3-46.5,0.1-117.6L-178.7,1401.8L-178.7,1401.8z"/>
		<path class="st3" d="M-186.5,1618.5l-16,30.4c0,0,9.3,8.6,12.9,8.7c3.6,0.1,7.9,6.4,7.9,6.4s21.6,16.7,29,11.5
			c7.4-5.1-2.8-11.3-9.6-19.8c-6.8-8.4-3.2-30-3.2-30L-186.5,1618.5z"/>
		<path class="st5" d="M-116.3,1476.6c0,0,37.3,53.3,38.4,66.1c1.1,12.8,5.3,59.4,11.8,71.8l4.6,24.2h23.1l-9.2-119.3
			c0,0-8.2-46.5-40.5-110.5l-40.9,22.2L-116.3,1476.6z"/>
		<path class="st6" d="M-87.8,1417.4c0,2.9-32.6,0-32.6,0v-138.5l15-22c0,0,5.8,6.2,11.3,23c2.1,6.5,6.7,18.5,8.6,28.4
			c1.1,6.1-2.9,14.4-2.1,22C-85.2,1357.1-82.7,1386.3-87.8,1417.4z"/>
		<path class="st7" d="M-107.3,1264.7c0,0,3.4-14.4,11.2-21.5l-27.7-7.1l-6.7,15.3L-107.3,1264.7z"/>
		<path class="st8" d="M-127.9,1247c0,0-39.2-0.9-42.5,121.3l-8.6,35.2c0,0,68.9,112.9,82.8,21.3c0,0,7.5-99.8-7.1-133.6l7.2-17
			L-127.9,1247z"/>
		<path class="st4" d="M-127.9,1245.9c0,0-39.2-0.9-42.5,121.3l-8.6,35.2c0,0,68.9,112.9,82.8,21.3c0,0,7.5-99.8-7.1-133.6l7.2-17
			L-127.9,1245.9z"/>
		<path class="st8" d="M-143.7,1423.7c0,0-2.6,37.5,22.1,45.4c2.8,0.9,5.8-0.6,6.6-3.4c0.1-0.4,0.2-0.9,0.2-1.3
			c0.4-6.4-1.6-19.5-13.4-46.1L-143.7,1423.7z"/>
		<path class="st7" d="M-142.3,1423c0,0-2.5,37.5,22.1,45.4c2.8,0.9,5.8-0.6,6.6-3.4c0.1-0.4,0.2-0.9,0.2-1.3
			c0.4-6.4-1.6-19.5-13.4-46.1L-142.3,1423z"/>
		<circle class="st9" cx="-100.1" cy="1312.2" r="1.4"/>
		<circle class="st9" cx="-100.1" cy="1365.4" r="1.4"/>
		<path class="st3" d="M-61.1,1636.5l-4.5,34c0,0,11.7,4.8,15.2,3.7s9.6,3.3,9.6,3.3s26.1,8.2,31.1,0.9c5-7.4-6.5-9.6-15.9-15.2
			c-9.4-5.5-13.4-27-13.4-27L-61.1,1636.5z"/>
		<path class="st10" d="M-137.7,1273.5c0,0-35.5-7.1-31.2,83.1c0,0,8.6,66.1,23.4,70.4l22.3-5.7l-8.9-61.8l8.9-32
			C-123.1,1327.4-116,1279.1-137.7,1273.5z"/>
		<path class="st8" d="M-134.5,1273.5c0,0-35.5-7.1-31.2,83.1c0,0,8.6,66.1,23.4,70.4l22.3-5.7l-8.9-61.8l8.9-32
			C-119.8,1327.4-112.8,1279.1-134.5,1273.5z"/>
		<path class="st4" d="M-136.2,1273.5c0,0-35.5-7.1-31.2,83.1c0,0,8.6,66.1,23.4,70.4l22.3-5.7l-8.9-61.8l8.9-32
			C-121.7,1327.4-114.6,1279.1-136.2,1273.5z"/>
		<polygon class="st8" points="-142.3,1428.8 -142.3,1426.4 -124.8,1422 -124,1423.8 		"/>
		<polygon class="st8" points="-141,1259 -104.1,1291 -103.1,1290.3 -140.4,1258.7 		"/>
		<polygon class="st8" points="-95.7,1418.5 -95.8,1420.3 -88.6,1419.4 -88.9,1418.5 		"/>
		<path class="st8" d="M-126.8,1240.5c5,4.3,12.3,8.3,19.4,8.3c2.8,0,5.6-0.4,8.3-1.2c1-1.2,1.9-2.4,3.1-3.4l-27.7-7.1
			L-126.8,1240.5z"/>
		<circle class="st11" cx="-112.3" cy="1205.8" r="28.8"/>
		<circle class="st7" cx="-107.4" cy="1219.2" r="28.8"/>
		<path class="st11" d="M-136.1,1205.8c0,0-10.8,28.2,12,36.8l0,0c6.6-3.4,9.3-11.5,5.9-18.2c-0.6-1.3-1.5-2.5-2.5-3.4
			L-136.1,1205.8z"/>
		<circle class="st11" cx="-132.1" cy="1184.8" r="15.6"/>
		<path class="st11" d="M-84.2,1199.5c0,0,9.9,2.4-7.5,8.4c-5.8,1.9-10.5,6.2-13,11.8c-3.1,6.7-11.2,9.7-18,6.5
			c-0.2-0.1-0.5-0.2-0.7-0.4l-5.5-3.1l-9.6-22.3l11.3-13.2l19.6-2.5L-84.2,1199.5z"/>
		<path class="st11" d="M-117.9,1181.6c0-8.2-6.4-15.1-14.8-15.6h0.9c8.7,0,15.6,7,15.6,15.6c0,8.7-7,15.6-15.6,15.6h-0.9
			C-124.4,1196.8-117.9,1190-117.9,1181.6z"/>
		<path class="st11" d="M-124.7,1181.6c0-8.2-6.4-15.1-14.8-15.6h0.9c8.7,0,15.6,7,15.6,15.6c0,8.7-7,15.6-15.6,15.6h-0.9
			C-131.2,1196.8-124.7,1190-124.7,1181.6z"/>
		<ellipse class="st7" cx="-115.1" cy="1228.6" rx="2.9" ry="5"/>
	</g>
</g>
<g id="_x23_man_x28_stand_x2C_hold_x5B_phone_x5D__x29__1_">
	<g>
		<g class="st0">
			
				<linearGradient id="SVGID_2_" gradientUnits="userSpaceOnUse" x1="-145.5562" y1="3758.3689" x2="-145.5562" y2="3144.6582" gradientTransform="matrix(1 0 0 1 -147.13 -2016.9299)">
				<stop  offset="0" style="stop-color:#808080;stop-opacity:0.25"/>
				<stop  offset="0.54" style="stop-color:#808080;stop-opacity:0.12"/>
				<stop  offset="1" style="stop-color:#808080;stop-opacity:0.1"/>
			</linearGradient>
			<path class="st12" d="M-203.9,1302.1l3-5.9L-233,1280l-0.7,1.6l-1-0.5l-4.6,9.1c-0.7-4.3-1.7-8.2-2.7-12
				c-1.5-8.6-3.2-16.6-4.8-23.4c-0.1-0.5-0.1-1.2-0.2-1.7c-2.7-24-17.1-35.2-27.9-40.2c21.4-3.8,35.6-24.3,31.9-45.7
				c-0.5-3.3-1.6-6.4-3-9.4c3.7-3.1,4.8-8.2,0.5-16.7c0,0-73.1-38.5-85.7,15.4c-2.5,10.6-1.8,21.7,1.8,32c2,6,4.9,11.7,8.6,16.9
				c-18.8,3.1-52.4,12.4-61,38.6c-9.5,29-4.1,83.8-1.3,106.3c0.2,1.6,0.7,3.2,1.7,4.6c0.4,1.2,1.2,2.2,2,3.1v53l1-0.2v1.3
				c0,0,0.4-0.1,1.3-0.3c1.1,50.2,7.9,128.4,8.4,134.4v-0.1v0.2c-5.3,42.2-10.7,139-10.7,139l0,0v0.2v-0.2h10.7v39.8
				c0,1.8,1.1,3.5,2.7,4.4c5.2,2.7,16.8,8.6,23.1,10.7c8.2,2.9,27.7,0,27.7,0c1-4.8-14.5-9.2-14.5-9.2l-18.5-20.5v-25.2h3.8l0,0v0.3
				c13-12.5,46.5-247.7,47.2-252.3l-7.8,233l0,0v0.2v-0.2h5.8v37.6c0,1.9,1.1,3.7,2.9,4.7c5.3,2.7,16.7,8.4,22.9,10.7
				c8.2,2.9,27.7,0,27.7,0c1-4.8-14.5-9.2-14.5-9.2l-18.4-20.4v-23.4h7.3c6.1-24.6,16.4-206.4,19.5-263.4c4.9,3.3,8.7,2.8,8.7,2.8
				v-0.4c0.3,0,0.5,0,0.9,0s0.7,0,1.1,0c0,0-0.2-18.3-0.9-42.8l11.4-10.6l0.1,0.1l0.2-0.4l1.1-1l0.5,0.2l0.7-1.4l14.5-13.4l0,0l1-1
				l-1.3-2.6c7.9-4.9,12.5-13.9,15.2-21.5c1.3-3.5-0.6-7.5-4.2-8.8C-203.2,1302.2-203.6,1302.2-203.9,1302.1z"/>
		</g>
		<polygon class="st13" points="-279.2,1649.8 -279.2,1688.4 -298.8,1688.4 -298.8,1645.6 		"/>
		<path class="st3" d="M-279.4,1677.9l17.9,19.7c0,0,14.9,4.2,13.9,8.8c0,0-18.6,2.8-26.5,0c-5.9-2.1-16.9-7.6-21.9-10.2
			c-1.7-0.9-2.7-2.6-2.7-4.5v-14.1L-279.4,1677.9z"/>
		<polygon class="st13" points="-345.6,1669.8 -345.6,1708.3 -365.2,1708.3 -365.2,1665.6 		"/>
		<path class="st3" d="M-345.8,1697.9l17.9,19.8c0,0,14.9,4.2,13.9,8.8c0,0-18.6,2.8-26.5,0c-6-2.1-17-7.7-22-10.3
			c-1.6-0.9-2.6-2.5-2.6-4.3v-14.3L-345.8,1697.9z"/>
		<path class="st14" d="M-252.8,1387.9c0,0-12.5,240.1-19.5,268h-32.1l7.5-222.9c0,0-32.5,229-45,241h-33.4c0,0,5.1-92.4,10.2-132.8
			c0,0-13.9-156-5.6-167.7H-256L-252.8,1387.9z"/>
		<g class="st15">
			<path d="M-361.4,1503.3c-1.3,10.1-2.6,23.4-3.7,37.7c-0.7-8-13.7-156-5.6-167.2h1.2C-368.5,1423.4-361.4,1503.3-361.4,1503.3z"/>
			<path d="M-375.3,1674.2c0,0,5-90.3,10.1-131.3"/>
			<path d="M-293.1,1395.1l-7.5,222.9l-3.7,38.1l7.5-222.9c0,0-32.5,229-45,241"/>
		</g>
		<path class="st13" d="M-230,1325.7c4.6-6.7,10.6-12.5,17.5-16.8c3.1-1.8,7.2-0.9,9,2.2c1,1.7,1.2,3.6,0.5,5.5
			c-4,11.5-12.6,26.2-31.3,23.8L-230,1325.7z"/>
		<path class="st8" d="M-251.8,1262.5c0,0,0.4,1,1.1,2.6c3.5,8.7,14,37.9,10.5,66.6l13-13.5l11.1,21.4l-35.7,32.9L-251.8,1262.5
			L-251.8,1262.5z"/>
		<path class="st5" d="M-257.2,1242.4c0,0,2.6,1.1,3.2,2.8c3.5,8.7,16.3,58.7,12.7,87.6l13-13.5l11.1,21.4l-35.7,32.9L-257.2,1242.4
			z"/>
		<polygon class="st4" points="-277.4,1226.3 -261.5,1381 -339.6,1381 -319.6,1229.1 		"/>
		<path class="st8" d="M-287.1,1218.8c0,0,33.9,5.1,38.1,42.2c4.2,37.1,5.6,145.3,5.6,145.3s-29.6,4.2-30.2-87.8
			S-287.1,1218.8-287.1,1218.8z"/>
		<path class="st8" d="M-288.9,1219.4c0,0,33.9,5.1,38.1,42.2s5.6,145.3,5.6,145.3s-29.7,4.2-30.2-87.8
			C-275.9,1227.2-288.9,1219.4-288.9,1219.4z"/>
		<path class="st5" d="M-288.1,1218.8c0,0,33.9,5.1,38.1,42.2c4.2,37.1,5.6,145.3,5.6,145.3s-29.7,4.2-30.2-87.8
			S-288.1,1218.8-288.1,1218.8z"/>
		
			<rect x="-264.4" y="1304.6" transform="matrix(0.4526 -0.8917 0.8917 0.4526 -1307.3484 513.8314)" class="st16" width="58.5" height="34.3"/>
		
			<rect x="-262.8" y="1303.5" transform="matrix(0.4526 -0.8917 0.8917 0.4526 -1305.509 514.6217)" class="st17" width="58.5" height="34.3"/>
		<path class="st13" d="M-274.6,1329.4c5.2-7.8,12.4-14.2,20.7-18.6c2.6-1.3,5.8-0.2,7.1,2.4c0.5,1.2,0.7,2.5,0.3,3.7
			c-3.3,11.8-11.8,29.9-32.4,27.4L-274.6,1329.4z"/>
		<path class="st13" d="M-306.1,1192.4c0,0-2.8,15.8-13.5,21.4l3.2,19l21.9,19.5l11.3-24.4l-3.5-12.7L-306.1,1192.4z"/>
		<path class="st8" d="M-374.4,1351.2v61.8c0,0,70.6-17.6,66.8-96.6s-6.4-100.6-6.4-100.6l-52,58.7L-374.4,1351.2z"/>
		<path class="st5" d="M-375.3,1350.3v61.8c0,0,70.6-17.6,66.8-96.6s-6.4-100.6-6.4-100.6l-52.1,58.9L-375.3,1350.3z"/>
		<path class="st8" d="M-286.1,1217l2.1,8c-11.2-0.6-21.7-6.3-28.2-15.5c3.2-4.6,5.5-9.8,6.5-15.3L-286.1,1217z"/>
		<circle class="st13" cx="-282.2" cy="1185.7" r="37.6"/>
		<path class="st8" d="M-376.7,1253.3c-9.3,28.2-3.7,82.4-1.1,102.9c0.5,4.6,4.6,7.8,9.2,7.5l100.1-7.7v-32.6l-71-1.4l9.7-62.7
			C-329.8,1259.3-365.1,1218-376.7,1253.3z"/>
		<path class="st5" d="M-307,1214c0,0-59,3-70.7,38.3c-9.1,27.7-4,80.1-1.3,101.5c0.6,5.3,5.3,9.1,10.7,8.8l98.8-7.6v-32.5l-71-1.4
			l9.7-62.7L-307,1214z"/>
		<path class="st3" d="M-247.4,1154.1c0,0-69.8-36.8-81.8,14.7c-2.4,10.2-1.7,20.7,1.7,30.6c3.6,10.6,11,24.1,25.7,31l2.8-32.7h1.2
			c4.9,0,9-4,9-9v-17.9C-288.8,1170.8-232.2,1184.6-247.4,1154.1z"/>
		<ellipse class="st13" cx="-297" cy="1199.4" rx="3.7" ry="7.2"/>
		<ellipse class="st16" cx="-227.9" cy="1309.6" rx="3.7" ry="3.7"/>
	</g>
</g>
<g id="_x23_man_x28_stand_x29__1_">
	<g>
		<g class="st0">
			
				<linearGradient id="SVGID_3_" gradientUnits="userSpaceOnUse" x1="-330.0485" y1="3719.9949" x2="-330.0485" y2="3201.7729" gradientTransform="matrix(1 0 0 1 -147.13 -2016.9299)">
				<stop  offset="0" style="stop-color:#808080;stop-opacity:0.25"/>
				<stop  offset="0.54" style="stop-color:#808080;stop-opacity:0.12"/>
				<stop  offset="1" style="stop-color:#808080;stop-opacity:0.1"/>
			</linearGradient>
			<path class="st18" d="M-429.3,1439c-0.1-12-7.3-23.4-12.5-30l2.5-3.4l-7.3-43.6c0,0-0.3-4.2-0.4-11.5c1.4-10.5,2-21.1,1.7-31.7
				c0.5-4.7,1.2-9.7,2-15c2.8-17.2-3.1-28-9.6-34.4c-3.8-4-8.4-7-13.7-8.8h-0.1c0.4-1.4,0.9-2.5,1.2-3.4c0.2-0.4,0.3-0.7,0.4-1
				c15.7-4.3,25-20.4,20.7-36.1c-0.7-2.8-1.9-5.3-3.4-7.8c4.4-3.2-1.2-4.6-1.2-4.6l0,0c-3.6-15.8-19.5-25.8-35.3-22
				c-15.8,3.6-25.8,19.5-22,35.3c0.4,1.8,1,3.6,1.8,5.3c-0.6,8.9,1.4,20.2,14.1,25.3l0,0l0.5,0.3c-3.7,3.1-8,5.5-12.6,7
				c-7.9,0.9-18.6,7.4-26.9,31.8c-8.4,24.5-10.4,60.5-10.3,87.8c0,19.1,0.9,34.2,1.2,38.3h-1.1c-12,35.7,15.2,130.9,15.2,130.9
				l-4,117.7h2l-3.5,26.6c0,0,12,4.9,15.5,3.7c3.5-1.2,9.8,3.4,9.8,3.4s26.6,8.4,31.9,0.9c2-2.9,1.5-5-0.4-6.8
				c8.2,2,22.2,4.5,25.9-0.9c5.2-7.6-6.6-9.8-16.3-15.6c-6.3-3.7-10.3-14.4-12.2-21.4h2l24.7-122.9v-79.7c1.3,0.6,2.5,1.2,3.6,1.7
				V1702h10.8v-244.2c2.9,0.4,5.7-1.6,6.1-4.5c0.1-0.4,0.1-1,0-1.4c-0.1-0.9-0.2-1.6-0.3-2.4c3.4,1.7,6.2,7.5,7.7,11.8
				c2.1,6.5,9.4-7,9.4-7C-417.3,1442.9-423.8,1439.1-429.3,1439z"/>
		</g>
		<rect x="-446.4" y="1447.5" class="st3" width="10.5" height="245.2"/>
		<path class="st3" d="M-446.4,1447.5c0,0,17.9-22.5,32.6,6.6c0,0-7,12.9-9.1,6.6c-2.1-6.3-7.2-15.7-13-10.2"/>
		<path class="st19" d="M-448,1404.6c0,0,26.4,26,13.5,48c-1.5,2.5-4.6,3.3-7.2,1.8c-0.3-0.2-0.7-0.4-1-0.7
			c-4.5-4.4-11.5-15.5-20.3-42.8L-448,1404.6z"/>
		<path class="st8" d="M-466.6,1267.6c0,0,27.3,8.4,22,41.3c-5.2,32.8-3.2,56-3.2,56l7,42l-12.6,17.2c0,0-21.7-21.7-29.1-43.8
			C-490,1358.2-489,1271-466.6,1267.6z"/>
		<path class="st5" d="M-467,1267.2c0,0,27.3,8.4,22,41.3c-5.2,32.8-3.2,56-3.2,56l7.1,42l-12.6,17.3c0,0-21.7-21.8-29.1-43.8
			S-489.4,1270.7-467,1267.2z"/>
		<path d="M-499,1642.2l-4.5,33.6c0,0,11.5,4.7,15,3.6c3.4-1.1,9.5,3.2,9.5,3.2s25.7,8.1,30.7,0.9s-6.4-9.5-15.7-15
			c-9.3-5.5-13.2-26.7-13.2-26.7L-499,1642.2z"/>
		<path class="st4" d="M-450,1405.4v124l-23.8,118.4H-499l3.8-113.5c0,0-26.3-91.8-14.8-126.1L-450,1405.4z"/>
		<path class="st19" d="M-469.4,1421.1c0,0,36.7,5.2,39.4,30.6c0.3,2.9-1.8,5.5-4.6,5.7c-0.4,0-0.9,0-1.3,0
			c-6.2-0.9-18.5-5.6-41.7-22.2L-469.4,1421.1z"/>
		<path class="st19" d="M-464.8,1261.6c0,0-6,10.2-3.5,27.7c0,0-35.2-3-34.1-23.3c0,0,17.1-4.2,21.2-19.8L-464.8,1261.6z"/>
		<path d="M-523.5,1649.5l-4.5,33.6c0,0,11.5,4.7,15,3.6c3.4-1.1,9.5,3.2,9.5,3.2s25.7,8.1,30.7,0.9c5-7.3-6.4-9.5-15.7-15
			c-9.3-5.5-13.2-26.7-13.2-26.7L-523.5,1649.5z"/>
		<path class="st8" d="M-476.4,1415.1v124l-23.8,118.4h-25.2l3.8-113.5c0,0-26.3-91.8-14.8-126.1L-476.4,1415.1z"/>
		<path class="st4" d="M-477.4,1415.1v124l-23.8,118.4h-25.2l3.8-113.5c0,0-26.3-91.8-14.8-126.1L-477.4,1415.1z"/>
		<path class="st8" d="M-490.1,1267.9c0,0-22-14.3-36.8,28.3c-14.8,42.6-8.8,121.6-8.8,121.6s62.7,20.3,85.1-8v-42.3
			c0,0,11.9-48.3-4.9-90.4C-455.4,1277-470.1,1283-490.1,1267.9z"/>
		<path class="st8" d="M-490.8,1269c0,0-22-14.3-36.8,28.3c-14.8,42.7-8.8,121.6-8.8,121.6s62.7,20.3,85.1-8v-42.3
			c0,0,11.9-48.3-4.9-90.4C-456.1,1278.1-470.8,1284-490.8,1269z"/>
		<path class="st5" d="M-490.8,1267.9c0,0-22-14.3-36.8,28.3c-14.8,42.7-8.8,121.6-8.8,121.6s62.7,20.3,85.1-8v-42.3
			c0,0,11.9-48.3-4.9-90.4C-456.1,1277-470.8,1283-490.8,1267.9z"/>
		<path class="st8" d="M-513.2,1289.3c0,0,27.3,8.3,22,41.3c-5.2,32.9-3.2,56-3.2,56l35.1,35.4l-12.6,17.1c0,0-49.7-15.1-57.1-37.1
			C-536.4,1380-535.6,1292.7-513.2,1289.3z"/>
		<path class="st8" d="M-515,1290.3c0,0,27.4,8.4,22,41.3c-5.3,32.8-3.2,56-3.2,56l35.1,35.4l-12.6,17.1c0,0-49.7-15.1-57.1-37.1
			C-538.2,1381-537.3,1293.8-515,1290.3z"/>
		<path class="st5" d="M-514.2,1289.3c0,0,27.3,8.4,22,41.3c-5.2,32.8-3.2,56-3.2,56l35.1,35.4l-12.7,17.1c0,0-49.7-15.1-57.1-37.1
			C-537.4,1380-536.7,1292.7-514.2,1289.3z"/>
		<path class="st8" d="M-481.8,1247.4l16.5,15.4c-0.3,0.5-0.5,1-0.7,1.5c-2.4,0.6-4.8,1-7.3,1c-6.3,0-11.8-3.2-16.5-6.6
			C-486.6,1255.6-483.8,1252.7-481.8,1247.4z"/>
		<circle class="st17" cx="-477.7" cy="1222.6" r="28.3"/>
		<circle class="st19" cx="-473" cy="1235.7" r="28.3"/>
		<path class="st17" d="M-501.1,1222.6c0,0-10.6,27.8,11.9,36.4l0,0c6.5-3.3,9.1-11.3,5.8-17.9c-0.6-1.3-1.5-2.4-2.5-3.4
			L-501.1,1222.6z"/>
		<path class="st17" d="M-450,1216.3c0,0,9.8,2.4-7.4,8.3c-5.7,1.9-10.4,6.1-12.8,11.5c-3.1,6.7-11,9.6-17.8,6.5
			c-0.2-0.1-0.5-0.2-0.7-0.4l-5.5-3l-9.4-22l11.2-12.9l19.2-2.5L-450,1216.3z"/>
		<ellipse class="st19" cx="-480.4" cy="1244.9" rx="2.8" ry="4.9"/>
		<path class="st4" d="M-490.1,1267.9c0,0,19,29.9,29.9,29.9s-7.6-28.1-7.6-28.1l-0.4,7.8L-490.1,1267.9z"/>
	</g>
</g>
<g id="_x23_woman_x28_walk_x29__1_">
	<g>
		<g class="st0">
			
				<linearGradient id="SVGID_4_" gradientUnits="userSpaceOnUse" x1="-533.9895" y1="3725.2722" x2="-533.9895" y2="3182.8738" gradientTransform="matrix(1 0 0 1 -147.13 -2016.9299)">
				<stop  offset="0" style="stop-color:#808080;stop-opacity:0.25"/>
				<stop  offset="0.54" style="stop-color:#808080;stop-opacity:0.12"/>
				<stop  offset="1" style="stop-color:#808080;stop-opacity:0.1"/>
			</linearGradient>
			<path class="st20" d="M-560.3,1689c-8.2-4.9-12.6-21.3-13.9-26.9l-9.9-127.4c0,0-7.4-42.1-35.5-102.1
				c-0.3-35.7-1.6-148.7-4.8-160.9l-19-23.1c1-1.6,1.9-3.2,3.1-4.7l0,0l4.8,13.7l17.5-1.9l-9.4-18.1c12.9-10.5,15.5-29.2,5.9-42.8
				c2.2-3,2.1-7.1-0.3-9.8c-3-3.4-6.4-6.3-10.4-8.7c-14.7-14.1-38.1-13.7-52.2,1c-13.2,13.6-13.8,35-1.6,49.4
				c-1,1.1-2.2,1.9-3.6,2.4c-6.6,1.8-11.9,6.5-15.4,10.5c-2.4,2.7-2,6.7,0.5,9.1c0.2,0.2,0.5,0.4,0.7,0.5l2.9,1.8
				c2.4,1.5,5.3,1.3,7.5-0.4l5.9-4.9c0.2-0.2,0.5-0.1,0.6,0.1c0.1,0.2,0.1,0.4,0,0.6c-2.1,2.4-2,6,0.3,8.1c0.7,0.6,1.6,1.2,2.6,1.4
				h0.1l-0.1,0.1l0.1,0.1c-5.3,5.3-10.8,13-15.7,24.4c-7.9,9.6-15.2,29.2-14.7,68.4c-0.5,7.2-1,14.8-1.2,22.9l-9.1,37.6
				c0,0-70.5,129.8-52.9,146.9c0,0,10.6,1.9,25.5,5.8l-42.1,55.8l0.5,0.5l-26.8,19.6c0,0,4.9,12.6,8.3,14.4c3.4,1.8,4.6,9.9,4.6,9.9
				s12.9,26.3,22.5,24.7c9.5-1.5,2.7-12.2,0-23.6c-2-8.9,5.8-22.3,9.3-27.9l1,0.9c0,0,50-37.6,69.2-58.6
				c10.5,4.6,20.4,10.1,28.7,16.4c0,0,14.4-35.1,27.9-93l0,0l0.1,0.2c11.8,17.6,31.7,48.5,32.5,58.2c1.2,13.7,5.7,63.6,12.6,76.9
				l4.9,25.9h0.3l-4.6,34.3c0,0,12.5,5.1,16.3,4s10.3,3.5,10.3,3.5s27.9,8.8,33.4,0.9C-537.8,1697.1-550.3,1695-560.3,1689z"/>
		</g>
		<circle cx="-658.8" cy="1213.1" r="35.3"/>
		<path class="st5" d="M-743.5,1549.5l-45.9,60.8l18.6,17.9c0,0,64.4-48.3,72.4-64.3c0.4-0.9,0.7-1.8,0.9-2.8
			C-697.6,1549.1-743.5,1549.5-743.5,1549.5z"/>
		<path class="st5" d="M-658.6,1486.8c0,0,38.3,54.6,39.4,67.7c1.1,13.1,5.5,60.8,12,73.6l4.7,24.8h23.7l-9.5-122.3
			c0,0-8.3-47.7-41.5-113.2l-41.9,23L-658.6,1486.8z"/>
		<rect x="-662.9" y="1284.1" class="st6" width="33.5" height="142"/>
		<path class="st8" d="M-633.1,1420.1l9.8,23c0,0-1.1-150.5-4.7-164.3l-23.6-28.8l-8,21.2l18.2,22.6c0,0,11.3,33.5,9.5,66.3
			C-633.8,1392.9-633.1,1420.1-633.1,1420.1z"/>
		<polygon points="-633.1,1239.8 -620.7,1263.5 -637.5,1265.4 -645.9,1241.7 		"/>
		<circle class="st19" cx="-648.8" cy="1222.7" r="30.3"/>
		<path class="st19" d="M-648.8,1265c2.1-6.6,5.9-12.6,10.9-17.5l-28.4-7.3l-7,15.6L-648.8,1265z"/>
		<path class="st2" d="M-661.6,1252.9c0,0-49.2-3.6-52.4,121.7l-8.8,36c0,0-67.4,124.3-50.6,140.6c0,0,63.4,11.3,96.1,36.5
			c0,0,25.1-61.2,39.4-155.2c0,0,7.6-102.3-7.3-137l7.3-17.5L-661.6,1252.9z"/>
		<path class="st2" d="M-632.1,1420.1l9.8,23c0,0-1.1-150.5-4.7-164.3l-23.6-28.8l-8,21.2l18.2,22.6c0,0,11.3,33.5,9.5,66.3
			S-632.1,1420.1-632.1,1420.1z"/>
		<path class="st21" d="M-632.1,1420.1l9.8,23c0,0-1.1-150.5-4.7-164.3l-23.6-28.8l-8,21.2l18.2,22.6c0,0,11.3,33.5,9.5,66.3
			S-632.1,1420.1-632.1,1420.1z"/>
		<path class="st8" d="M-686.7,1432.5c0,0-2.6,38.5,22.7,46.6c2.9,1,5.9-0.6,6.7-3.5c0.1-0.4,0.2-0.9,0.2-1.3
			c0.4-6.5-1.7-20-13.7-47.3L-686.7,1432.5z"/>
		<path class="st19" d="M-685.2,1431.9c0,0-2.6,38.5,22.7,46.6c2.9,1,5.9-0.6,6.7-3.5c0.1-0.4,0.2-0.9,0.2-1.3
			c0.4-6.5-1.7-20-13.7-47.3L-685.2,1431.9z"/>
		<circle class="st14" cx="-641.9" cy="1318.2" r="1.5"/>
		<circle class="st14" cx="-641.9" cy="1372.8" r="1.5"/>
		<path d="M-786.2,1608.8l-28.4,20.7c0,0,4.7,12,8,13.8c3.3,1.8,4.4,9.5,4.4,9.5s12.4,25.1,21.5,23.6c9.1-1.5,2.6-11.7,0-22.6
			c-2.6-10.9,10.6-29.1,10.6-29.1L-786.2,1608.8z"/>
		<path d="M-602,1650.9l-4.7,34.9c0,0,12,4.9,15.5,3.7c3.5-1.2,9.8,3.4,9.8,3.4s26.7,8.4,32,0.9c5.2-7.6-6.6-9.9-16.3-15.6
			c-9.6-5.7-13.8-27.8-13.8-27.8L-602,1650.9z"/>
		<path class="st8" d="M-680.5,1278.4c0,0-36.5-7.3-32.1,85.2c0,0,8.8,67.8,24.1,72.1l23-5.9l-9.1-63.4l9.1-32.8
			C-665.5,1333.8-658.3,1284.3-680.5,1278.4z"/>
		<path class="st8" d="M-677.2,1278.4c0,0-36.5-7.3-32.1,85.2c0,0,8.8,67.8,24.1,72.1l23-5.9l-9.1-63.4l9.1-32.7
			C-662.3,1333.8-655,1284.3-677.2,1278.4z"/>
		<path class="st2" d="M-679,1278.4c0,0-36.5-7.3-32.1,85.2c0,0,8.8,67.8,24.1,72.1l23-5.9l-9.1-63.4l9.1-32.7
			C-664.2,1333.8-656.8,1284.3-679,1278.4z"/>
		<polygon class="st8" points="-685.3,1437.7 -685.3,1435.4 -667.3,1430.8 -666.4,1432.7 		"/>
		<polygon class="st8" points="-683.9,1263.7 -646.1,1296.5 -645,1295.7 -683.2,1263.3 		"/>
		<polygon class="st2" points="-673.2,1263.3 -651.9,1259.4 -633.4,1284.1 -644.1,1290.6 		"/>
		<path d="M-624.6,1205.9l-13.8,14.7v9c0,5.9-1.2,11.7-3.3,17.1l-9.3,22.7c-1.3,3.1-4.8,4.6-7.9,3.3l-7.8-3.1
			c-3.1-1.3-4.7-4.8-3.4-7.9c0-0.1,0.1-0.1,0.1-0.2l2.1-5c0.1-0.2,0-0.5-0.2-0.6c-0.2-0.1-0.4,0-0.5,0.1l-4.5,6.3
			c-1.4,2-4,3-6.4,2.4l-4.3-1.1c-3-0.7-4.7-3.7-4.1-6.6c0.2-1,0.6-1.7,1.4-2.5l0,0c0.2-0.2,0.2-0.4,0-0.6c-0.2-0.2-0.4-0.2-0.6,0
			l0,0l-5.7,4.7c-2,1.7-4.9,1.8-7.2,0.4l-2.8-1.7c-2.9-1.8-3.6-5.6-1.8-8.4c0.2-0.3,0.3-0.5,0.5-0.7c3.3-3.7,8.3-8.2,14.7-9.9
			c6.6-1.9,9.1-13.6,9.8-23.3c1-12.8,9.3-24,21.4-28.6c9.9-3.6,22.1-3.4,33.7,9.7C-621.8,1198.7-621.9,1203.1-624.6,1205.9z"/>
		<polygon class="st8" points="-637.4,1426.2 -637.5,1428 -630.2,1427 -630.6,1426.2 		"/>
		<path class="st8" d="M-637.7,1428h2.7c0,0-7.6,70.3-15,71.5l-0.4-0.9C-650.5,1498.7-638.4,1441.5-637.7,1428z"/>
	</g>
</g>
<g id="_x23_accessory_x28_have_x5B_guardrail_x5D__x29_">
	<g>
		<g>
			<g>
				<g class="st0">
					
						<linearGradient id="SVGID_5_" gradientUnits="userSpaceOnUse" x1="-271.97" y1="3551.28" x2="-271.97" y2="3399.78" gradientTransform="matrix(1 0 0 1 -147.13 -2016.9299)">
						<stop  offset="0" style="stop-color:#808080;stop-opacity:0.25"/>
						<stop  offset="0.54" style="stop-color:#808080;stop-opacity:0.12"/>
						<stop  offset="1" style="stop-color:#808080;stop-opacity:0.1"/>
					</linearGradient>
					<path class="st22" d="M-380.1,1534.4c-63.4,0-129.2-6.4-196.4-19.4c-180.9-34.6-278.7-101.7-284-104.6l-16.1-26.8l0,0
						c1.5,0.9,130,69.2,306.6,102.8c162,30.9,399,38,608.4-103.5l-4.6,32.3c-96.2,65.1-185,97.6-305.2,112.6
						C-307.6,1532.2-343.9,1534.4-380.1,1534.4z"/>
				</g>
				<path class="st23" d="M-380.1,1529.7c-63.4,0-129.2-6.4-196.4-19.4c-181-34.6-278.8-101.7-284.1-104.5l-16.1-26.8l0,0
					c1.5,0.9,130,69.2,306.6,102.8c162,30.9,399,38,608.4-103.5l-4.6,32.3c-96.2,65.1-185,97.6-305.2,112.6
					C-307.6,1527.6-343.9,1529.7-380.1,1529.7z"/>
				<g class="st0">
					
						<linearGradient id="SVGID_6_" gradientUnits="userSpaceOnUse" x1="-712.97" y1="3708.1802" x2="-712.97" y2="3357.5129" gradientTransform="matrix(1 0 0 1 -147.13 -2016.9299)">
						<stop  offset="0" style="stop-color:#808080;stop-opacity:0.25"/>
						<stop  offset="0.54" style="stop-color:#808080;stop-opacity:0.12"/>
						<stop  offset="1" style="stop-color:#808080;stop-opacity:0.1"/>
					</linearGradient>
					<path class="st24" d="M-844,1652.1h-5.1v-270.2c10.6-6.1,14.2-19.6,8.1-30.2s-19.6-14.2-30.2-8.1c-10.6,6.1-14.2,19.6-8.1,30.2
						c1.9,3.3,4.7,6.1,8.1,8.1V1652h-5.1c-12.8,0-23.2,10.4-23.2,23.2v16.1h78.8v-16.1C-820.8,1662.5-831.2,1652.1-844,1652.1
						L-844,1652.1z"/>
				</g>
				<rect x="-870.8" y="1357.1" class="st17" width="21.2" height="299.3"/>
				<path class="st17" d="M-877.7,1646.6h35c11.2,0,20.3,9.1,20.3,20.3v17.4l0,0H-898l0,0v-17.4
					C-898,1655.7-888.9,1646.6-877.7,1646.6z"/>
				<circle class="st8" cx="-860.3" cy="1370.7" r="21.2"/>
				<circle class="st17" cx="-860.3" cy="1369.2" r="21.2"/>
				<path class="st8" d="M-870.9,1648.1c0,0,13.6,4.5,21.2,0"/>
				<rect x="19.6" y="1357.1" class="st17" width="21.2" height="299.3"/>
				<path class="st17" d="M12.8,1646.6h35c11.2,0,20.3,9.1,20.3,20.3v17.4l0,0H-7.5l0,0v-17.4C-7.6,1655.7,1.5,1646.5,12.8,1646.6
					L12.8,1646.6z"/>
				<circle class="st8" cx="30.2" cy="1370.7" r="21.2"/>
				<circle class="st17" cx="30.2" cy="1369.2" r="21.2"/>
				<path class="st8" d="M19.6,1648.1c0,0,13.6,4.5,21.2,0"/>
				<g class="st0">
					
						<linearGradient id="SVGID_7_" gradientUnits="userSpaceOnUse" x1="176.73" y1="3708.1802" x2="176.73" y2="3357.5129" gradientTransform="matrix(1 0 0 1 -147.13 -2016.9299)">
						<stop  offset="0" style="stop-color:#808080;stop-opacity:0.25"/>
						<stop  offset="0.54" style="stop-color:#808080;stop-opacity:0.12"/>
						<stop  offset="1" style="stop-color:#808080;stop-opacity:0.1"/>
					</linearGradient>
					<path class="st25" d="M45.7,1652.1h-5.1v-270.2c10.6-6.1,14.2-19.6,8.1-30.2c-6.1-10.6-19.6-14.2-30.2-8.1
						c-10.6,6.1-14.2,19.6-8.1,30.2c1.9,3.3,4.7,6.1,8.1,8.1V1652h-5.1c-12.8,0-23.2,10.4-23.2,23.2v16.1H69v-16.1
						C69,1662.5,58.5,1652.1,45.7,1652.1L45.7,1652.1z"/>
				</g>
			</g>
		</g>
	</g>
</g>
</svg>
