<?xml version="1.0" encoding="utf-8"?>
<!-- Generator: Adobe Illustrator 19.0.0, SVG Export Plug-In . SVG Version: 6.00 Build 0)  -->
<svg version="1.1" id="图层_1" xmlns="http://www.w3.org/2000/svg" xmlns:xlink="http://www.w3.org/1999/xlink" x="0px" y="0px"
	 viewBox="-917 917.7 1000 1000" style="enable-background:new -917 917.7 1000 1000;" xml:space="preserve">
<style type="text/css">
	.st0{fill:#6C63FF;}
	.st1{opacity:0.1;fill:#6C63FF;enable-background:new    ;}
	.st2{opacity:0.2;enable-background:new    ;}
	.st3{fill:#636780;}
	.st4{opacity:0.4;enable-background:new    ;}
	.st5{opacity:0.2;fill:#FFFFFF;enable-background:new    ;}
	.st6{opacity:0.1;fill:#FFFFFF;enable-background:new    ;}
	.st7{opacity:0.1;enable-background:new    ;}
	.st8{fill:#DCE0ED;}
	.st9{fill:#F0F0F4;}
	.st10{fill:none;}
	.st11{fill:#FFFFFF;}
	.st12{fill:#A8A8A8;}
	.st13{fill:url(#SVGID_1_);}
	.st14{opacity:0.1;}
	.st15{fill:url(#SVGID_2_);}
	.st16{fill:#985C7E;}
	.st17{fill:#ECB4B6;}
	.st18{opacity:7.000000e-02;enable-background:new    ;}
	.st19{opacity:5.000000e-02;enable-background:new    ;}
	.st20{fill:#CC8294;}
	.st21{fill:#4B4B5B;}
	.st22{opacity:3.000000e-02;enable-background:new    ;}
	.st23{fill:#FF718D;}
	.st24{fill:#E7C7CA;}
	.st25{opacity:0.3;fill:#FFFFFF;enable-background:new    ;}
</style>
<g>
	<g id="_x23_accessory_x28_have_x5B_leaf_x5D__x29_">
		<path class="st0" d="M-471.3,1355.6c0,0,5.6,20.5,18.9,13.4c1.6-0.2,2.8-1.5,3-3c0,0-1.1,0.3-1.4-1.8c-0.1-0.8-0.3-1.5-0.6-2.2
			c-0.4-1-1.1-1.8-2-2.3l0,0c0,0-4.3-4.9-14.3-3.9c0,0-2.6-0.9-3.1-0.7l2.6,2.9c0,0,2.1-2,4.4-1.8c0,0-4.4,1.6-4,2.2
			c0.1,0.1,1.4,1.5,1.4,1.5s3.6-3.4,7.2-3c0,0-5.4,1.2-6.7,3.5l2.2,1.9c0,0,3.6-3.8,7.7-3.5c0,0-5.7,1.5-7.2,3.9l2.4,1.6
			c0,0,3.6-3.7,7-3.3c0,0-6.4,2.4-6.5,3.7c1,0.6,2,1,3.1,1.4c0,0,2.7-2.6,4.6-2.2c0,0-4.1,2-3.9,2.5c0,0,3.5,0.9,5.5,0.5
			c-1.8,0.5-3.8,0.5-5.6,0.1c0.6,1,1.4,1.9,2.5,2.4c0,0-2.1,0.4-3.3-2.6c0,0-2.7-0.8-3-1.2c0,0,0.8,3.1,2.2,4.7c0,0-2.4-1-2.9-5.1
			l-2.5-1.6c0,0,0.8,4.2,2,5.7c0,0-2.3-1.4-2.6-6.1l-2.2-1.9c0.2,1.9,0.7,3.8,1.4,5.6c0,0-1.9-1.8-2-6.2l-1.3-1.4
			c0,0,0.4,2.7,0.5,3.4c0.2,0.8,0,0.9,0,0.9c-0.8-1.5-1.2-3.2-1.1-4.9C-468.5,1358.5-471.1,1355.4-471.3,1355.6z"/>
		<g>
			<path class="st0" d="M18.4,1730.1c0,0-37.7-2.3-33.3,24.1c0,0-0.9,4.7,3.4,6.8c0,0,0.1-2,3.9-1.3c1.4,0.2,2.7,0.3,4.1,0.2
				c1.8-0.1,3.6-0.9,5-2.1l0,0c0,0,10.6-4.4,14.7-21.7c0,0,3-3.8,2.9-4.8l-6.4,2.7c0,0,2.2,4.6,0.5,8.4c0,0-0.2-8.2-1.4-8
				c-0.2,0-3.3,1.6-3.3,1.6s3.7,8,0.9,13.8c0,0,1.1-9.8-2.1-13.2l-4.5,2.6c0,0,4.4,8.3,1.4,15c0,0,0.8-10.3-2.4-14.4l-4.1,3.2
				c0,0,4.1,8.1,1.6,13.7c0,0-0.3-12-2.5-12.9c0,0-3.6,3.1-4.1,4.4c0,0,2.8,5.9,1.1,9c0,0-1.1-8-1.9-8c0,0-3.6,5.3-3.9,8.9
				c0,0,0.2-5.4,3-9.5c-2,0.4-3.9,1.4-5.4,2.8c0,0,0.5-3.8,6.2-4.1c0,0,2.9-4,3.7-4.3c0,0-5.7-0.5-9.2,1.1c0,0,3-3.6,10.2-1.9l4-3.3
				c0,0-7.5-1-10.7,0.1c0,0,3.7-3.1,11.8-0.9l4.4-2.6c0,0-6.4-1.4-10.2-0.9c0,0,4-2.2,11.5,0.2l3.1-1.4c0,0-4.7-0.9-6.1-1.1
				s-1.5-0.5-1.5-0.5c3-0.5,6-0.2,8.8,1C11.8,1732.9,18.5,1730.5,18.4,1730.1z"/>
			<path class="st0" d="M-34.7,1673.4c0,0-25.7-1.5-22.6,16.4c-0.3,1.9,0.6,3.7,2.3,4.6c0,0,0-1.3,2.7-0.9c0.9,0.2,1.9,0.2,2.8,0.1
				c1.3-0.1,2.5-0.6,3.4-1.4l0,0c0,0,7.2-3,10-14.8c0,0,2.1-2.6,2-3.2l-4.3,1.8c0,0,1.5,3.1,0.3,5.7c0,0-0.1-5.6-1-5.5
				c-0.2,0-2.2,1.1-2.2,1.1s2.5,5.4,0.6,9.4c0,0,0.7-6.7-1.4-9l-3,1.8c0,0,3,5.6,1,10.2c0,0,0.5-7-1.6-9.8l-2.8,2.1
				c0,0,2.8,5.5,1.1,9.3c0,0-0.2-8.2-1.7-8.8c0,0-2.4,2.1-2.8,3c0,0,1.9,4,0.7,6.1c0,0-0.7-5.5-1.3-5.5c0,0-2.4,3.6-2.7,6.1
				c0.1-2.3,0.8-4.5,2.1-6.4c-1.4,0.3-2.7,0.9-3.7,1.9c0,0,0.4-2.5,4.3-2.8c0,0,2-2.7,2.5-2.9c0,0-3.9-0.3-6.2,0.7
				c0,0,2.1-2.4,7-1.3l2.7-2.2c0,0-5.1-0.7-7.3,0.1c0,0,2.5-2.1,8-0.6l3-1.8c0,0-4.4-0.9-7-0.6c0,0,2.7-1.5,7.8,0.1l2.1-1
				c0,0-3.2-0.6-4.1-0.7c-0.9-0.1-1-0.4-1-0.4c2-0.3,4.1-0.1,6,0.7C-39.1,1675.4-34.6,1673.7-34.7,1673.4z"/>
		</g>
		<g>
			<ellipse class="st1" cx="-7.6" cy="1763.3" rx="26.7" ry="4.5"/>
			<ellipse class="st1" cx="-52.4" cy="1696.1" rx="18.2" ry="3.1"/>
		</g>
	</g>
	<g id="_x23_city_x28_have_x5B_building_x5D__x29_">
		<path class="st1" d="M42.2,1551.7c-23.7,48.9-71.8,81.5-121.6,103.1c-67.1,29-141,40.5-213.9,35.7c-12.8-0.8-25.5-2.2-38.2-4.1
			c-44.1-6.4-87.1-19-127.7-37.2c-11.7-5.3-23.2-11-34.5-17.3c-18.8-10.4-36.8-22.2-53.9-35.2c-4.3-3.3-8.5-6.6-12.7-10.1
			c-2.9-2.4-5.8-4.8-8.7-7.2c-6.2-5-12.5-9.8-19.5-13.3c-2.1-1.1-4.3-2-6.5-2.9c-22.4-8.5-48.1-5.3-71.4,1.3
			c-17.7,5-34.9,11.9-52.6,16.8c-7.9,2.3-15.9,4-24,5.1c-18.1,2.3-36.5,0.7-53.9-4.7l-1.5-0.5c-2.5-0.8-5-1.6-7.4-2.6l-1.5-0.6
			c-2.4-0.9-4.7-1.9-7-3l-1.5-0.7c-2.4-1.1-4.7-2.3-7-3.5c-0.8-0.4-1.6-0.9-2.4-1.3c-13-7.2-24.7-16.4-34.9-27.2
			c-0.3-0.3-0.6-0.6-0.9-0.9c-1.4-1.5-2.8-3.1-4.2-4.7c-0.5-0.6-1-1.2-1.5-1.8c-1.6-2-3.1-3.9-4.6-6c-0.2-0.3-0.4-0.6-0.7-0.9
			c-6.1-8.4-11.1-17.6-15-27.2c-0.1-0.3-0.2-0.6-0.3-0.9c-1.2-3.1-2.3-6.2-3.3-9.3c-0.4-1.3-0.8-2.7-1.1-4c-0.1-0.4-0.2-0.8-0.3-1.2
			c-4.9-19.4-5.4-39.5-5.4-59.5c0-2.3,0-4.7,0-7c0.1-32.4,0.6-65.3,5.4-97.3c0-0.2,0.1-0.4,0.1-0.7c1.6-10.8,3.8-21.4,6.5-31.9
			c2.9-11,6.5-21.9,11-32.4c11-25.9,27-49.4,44.7-71.2c44.7-54.8,103.3-100.9,171.9-118.1c74-18.6,156.1-0.8,215.8,46.7
			c18.2,14.5,34.5,31.6,55,42.7c17.8,9.7,38.7,13.7,57.8,6.1c15.8-6.2,26-9.4,43.8-8.5c36.7,2.1,72.9,9.6,107.3,22.5
			c1.4,0.5,2.8,1,4.2,1.6c89.8,34.4,167,102.6,207.1,190.3c1.1,2.3,2.1,4.7,3.1,7C59.9,1431.8,68.6,1497.3,42.2,1551.7z"/>
		<path class="st1" d="M-719.2,1243.3v338c-7.9,2.3-15.9,4-24,5.1c-18.1,2.3-36.5,0.7-53.9-4.7l-1.5-0.5c-2.5-0.8-5-1.6-7.4-2.6
			l-1.5-0.6c-2.4-0.9-4.7-1.9-7-3l-1.5-0.7c-2.4-1.1-4.7-2.3-7-3.5c-0.8-0.4-1.6-0.9-2.4-1.3c-13-7.2-24.7-16.4-34.9-27.2
			c-0.3-0.3-0.6-0.6-0.9-0.9c-1.4-1.5-2.8-3.1-4.2-4.7c-0.5-0.6-1-1.2-1.5-1.8c-1.6-2-3.1-3.9-4.6-6c-0.2-0.3-0.4-0.6-0.7-0.9
			c-6.1-8.4-11.1-17.6-15-27.2c-0.1-0.3-0.2-0.6-0.3-0.9c-1.2-3.1-2.3-6.2-3.3-9.3c-0.4-1.3-0.8-2.7-1.1-4c-0.1-0.4-0.2-0.8-0.3-1.2
			c-4.9-19.4-5.4-39.5-5.4-59.5c0-2.3,0-4.7,0-7c0.1-32.4,0.6-65.3,5.4-97.3c0-0.2,0.1-0.4,0.1-0.7c1.6-10.8,3.8-21.4,6.5-31.9h91
			v-45.9h18.2v-36.9h39.1v36.9h18.1L-719.2,1243.3L-719.2,1243.3z"/>
		<path class="st1" d="M42.2,1551.7c-23.7,48.9-71.8,81.5-121.6,103.1c-67.1,29-141,40.5-213.9,35.7c-12.8-0.8-25.5-2.2-38.2-4.1
			c-44.1-6.4-87.1-19-127.7-37.2c-11.7-5.3-23.2-11-34.5-17.3c-18.8-10.4-36.8-22.2-53.9-35.2c-4.3-3.3-8.5-6.6-12.7-10.1
			c-2.9-2.4-5.8-4.8-8.7-7.2c-6.2-5-12.5-9.8-19.5-13.3c-2.1-1.1-4.3-2-6.5-2.9v-138.3h165.5v30.8h72.6v-225.2h85.5v90h42.3v-53.3
			h34.9v-57h16V1177c1.4,0.5,2.8,1,4.2,1.6v31.6h15.6v57h34.9v53.3H-72v203.1H9.8v-147.7h26.4C59.9,1431.8,68.6,1497.3,42.2,1551.7z
			"/>
		<rect x="-331.5" y="1264.3" class="st1" width="38.2" height="38.2"/>
		<rect x="-331.5" y="1343.5" class="st1" width="38.2" height="38.2"/>
		<rect x="-331.5" y="1422.7" class="st1" width="38.2" height="38.2"/>
		<rect x="-331.5" y="1501.9" class="st1" width="38.2" height="38.2"/>
		<rect x="-331.5" y="1581.1" class="st1" width="38.2" height="38.2"/>
		<path class="st1" d="M-293.3,1660.3v30.2c-12.8-0.8-25.5-2.2-38.2-4.1v-26.1H-293.3L-293.3,1660.3z"/>
		<rect x="-582.5" y="1474.2" class="st1" width="133.7" height="17.3"/>
		<rect x="-582.5" y="1526.8" class="st1" width="133.7" height="17.3"/>
		<path class="st1" d="M-448.8,1579.3v17.3h-98.8c-4.3-3.3-8.5-6.6-12.7-10.1c-2.9-2.4-5.8-4.8-8.7-7.2L-448.8,1579.3L-448.8,1579.3
			z"/>
		<path class="st1" d="M-448.8,1631.9v17.3h-10.4c-11.7-5.3-23.2-11.1-34.5-17.3H-448.8z"/>
		<rect x="-229.5" y="1367.8" class="st1" width="24.9" height="24.9"/>
		<rect x="-768" y="1251.9" class="st1" width="24.9" height="24.9"/>
		<rect x="-768" y="1309.7" class="st1" width="24.9" height="24.9"/>
		<rect x="-768" y="1367.4" class="st1" width="24.9" height="24.9"/>
		<rect x="-768" y="1425.2" class="st1" width="24.9" height="24.9"/>
		<rect x="-768" y="1483" class="st1" width="24.9" height="24.9"/>
		<rect x="-768" y="1540.7" class="st1" width="24.9" height="24.9"/>
		<rect x="-134.6" y="1367.8" class="st1" width="24.9" height="24.9"/>
		<rect x="-229.5" y="1429.1" class="st1" width="24.9" height="24.9"/>
		<rect x="-134.6" y="1429.1" class="st1" width="24.9" height="24.9"/>
		<rect x="-229.5" y="1490.5" class="st1" width="24.9" height="24.9"/>
		<rect x="-134.6" y="1490.5" class="st1" width="24.9" height="24.9"/>
		<rect x="-229.5" y="1551.8" class="st1" width="24.9" height="24.9"/>
		<rect x="-134.6" y="1551.8" class="st1" width="24.9" height="24.9"/>
		<rect x="-229.5" y="1613.2" class="st1" width="24.9" height="24.9"/>
		<rect x="-134.6" y="1613.2" class="st1" width="24.9" height="24.9"/>
		<polygon class="st1" points="-229.5,1690.5 -229.5,1674.5 -204.6,1674.5 -204.6,1688.2 		"/>
		<path class="st1" d="M-892.2,1321.2v14.3h95.1v-14.3H-892.2z M-883.7,1334.6h-7v-12.5h7V1334.6z M-875.3,1334.6h-7v-12.5h7V1334.6
			z M-866.8,1334.6h-7v-12.5h7V1334.6z M-858.3,1334.6h-7v-12.5h7V1334.6z M-849.8,1334.6h-7v-12.5h7V1334.6z M-841.4,1334.6h-7
			v-12.5h7V1334.6z M-832.9,1334.6h-7v-12.5h7V1334.6z M-824.4,1334.6h-7v-12.5h7V1334.6z M-816,1334.6h-7v-12.5h7V1334.6z
			 M-807.5,1334.6h-7v-12.5h7V1334.6z M-798.6,1334.6h-7.4v-12.5h7.4V1334.6z"/>
		<path class="st1" d="M-892.2,1362.6v14.2h95.1v-14.2H-892.2z M-883.7,1376h-7v-12.4h7V1376z M-875.3,1376h-7v-12.4h7V1376z
			 M-866.8,1376h-7v-12.4h7V1376z M-858.3,1376h-7v-12.4h7V1376z M-849.8,1376h-7v-12.4h7V1376z M-841.4,1376h-7v-12.4h7V1376z
			 M-832.9,1376h-7v-12.4h7V1376z M-824.4,1376h-7v-12.4h7V1376z M-816,1376h-7v-12.4h7V1376z M-807.5,1376h-7v-12.4h7V1376z
			 M-798.6,1376h-7.4v-12.4h7.4V1376z"/>
		<path class="st1" d="M-892.2,1404.1v14.2h95.1v-14.2H-892.2z M-883.7,1417.4h-7V1405h7V1417.4z M-875.3,1417.4h-7V1405h7V1417.4z
			 M-866.8,1417.4h-7V1405h7V1417.4z M-858.3,1417.4h-7V1405h7V1417.4z M-849.8,1417.4h-7V1405h7V1417.4z M-841.4,1417.4h-7V1405h7
			V1417.4z M-832.9,1417.4h-7V1405h7V1417.4z M-824.4,1417.4h-7V1405h7V1417.4z M-816,1417.4h-7V1405h7V1417.4z M-807.5,1417.4h-7
			V1405h7V1417.4z M-798.6,1417.4h-7.4V1405h7.4V1417.4z"/>
		<path class="st1" d="M-892.2,1445.5v14.3h95.1v-14.3H-892.2z M-883.7,1458.8h-7v-12.5h7V1458.8z M-875.3,1458.8h-7v-12.5h7V1458.8
			z M-866.8,1458.8h-7v-12.5h7V1458.8z M-858.3,1458.8h-7v-12.5h7V1458.8z M-849.8,1458.8h-7v-12.5h7V1458.8z M-841.4,1458.8h-7
			v-12.5h7V1458.8z M-832.9,1458.8h-7v-12.5h7V1458.8z M-824.4,1458.8h-7v-12.5h7V1458.8z M-816,1458.8h-7v-12.5h7V1458.8z
			 M-807.5,1458.8h-7v-12.5h7V1458.8z M-798.6,1458.8h-7.4v-12.5h7.4V1458.8z"/>
		<path class="st1" d="M-891.8,1486.9c0.3,1.3,0.7,2.7,1.1,4v-3.1h7v12.4h-3.7c0.1,0.3,0.2,0.6,0.3,0.9h90v-14.3L-891.8,1486.9
			L-891.8,1486.9z M-875.3,1500.2h-7v-12.5h7V1500.2z M-866.8,1500.2h-7v-12.5h7V1500.2z M-858.3,1500.2h-7v-12.5h7V1500.2z
			 M-849.8,1500.2h-7v-12.5h7V1500.2z M-841.4,1500.2h-7v-12.5h7V1500.2z M-832.9,1500.2h-7v-12.5h7V1500.2z M-824.4,1500.2h-7
			v-12.5h7V1500.2z M-816,1500.2h-7v-12.5h7V1500.2z M-807.5,1500.2h-7v-12.5h7V1500.2z M-798.6,1500.2h-7.4v-12.5h7.4V1500.2z"/>
		<path class="st1" d="M-872.1,1528.3c0.2,0.3,0.4,0.6,0.7,0.9h4.6v6c0.5,0.6,1,1.2,1.5,1.8v-7.8h7v12.5h-2.8
			c0.3,0.3,0.6,0.6,0.9,0.9h63.2v-14.3H-872.1z M-849.8,1541.7h-7v-12.5h7V1541.7z M-841.4,1541.7h-7v-12.5h7V1541.7z
			 M-832.9,1541.7h-7v-12.5h7V1541.7z M-824.4,1541.7h-7v-12.5h7V1541.7z M-816,1541.7h-7v-12.5h7V1541.7z M-807.5,1541.7h-7v-12.5
			h7V1541.7z M-798.6,1541.7h-7.4v-12.5h7.4V1541.7z"/>
		<path class="st1" d="M-825.4,1569.7c0.8,0.5,1.6,0.9,2.4,1.3v-0.4h7v3.9l1.5,0.7v-4.6h7v7.6l1.5,0.6v-8.1h7.4v10.7l1.5,0.5v-12.1
			L-825.4,1569.7L-825.4,1569.7z"/>
		<path class="st1" d="M-532.1,1197.8c0,0-21.2-1.3-18.7,13.6c-0.3,1.5,0.5,3.1,1.9,3.8c0,0,0-1.1,2.2-0.7c0.8,0.1,1.5,0.2,2.3,0.1
			c1-0.1,2-0.5,2.8-1.2l0,0c0,0,6-2.5,8.3-12.2c0,0,1.7-2.1,1.6-2.7l-3.6,1.5c0,0,1.2,2.6,0.3,4.7c0,0-0.1-4.6-0.8-4.5
			c-0.1,0-1.9,0.9-1.9,0.9s2.1,4.5,0.5,7.8c0,0,0.6-5.6-1.2-7.5l-2.5,1.5c0,0,2.5,4.7,0.8,8.5c0,0,0.4-5.8-1.3-8.1l-2.3,1.8
			c0,0,2.3,4.6,0.9,7.7c0,0-0.2-6.8-1.4-7.3c-0.9,0.7-1.6,1.6-2.3,2.5c0,0,1.6,3.3,0.6,5.1c0,0-0.6-4.5-1.1-4.5c0,0-2,3-2.2,5
			c0.1-1.9,0.7-3.7,1.7-5.3c-1.2,0.2-2.2,0.8-3.1,1.6c0,0,0.3-2.1,3.6-2.3c0,0,1.6-2.3,2.1-2.4c0,0-3.2-0.3-5.2,0.6
			c0,0,1.7-2,5.8-1.1l2.3-1.8c0,0-4.3-0.6-6.1,0c0,0,2.1-1.8,6.6-0.5l2.5-1.5c-1.9-0.4-3.8-0.6-5.8-0.5c0,0,2.3-1.2,6.5,0.1l1.8-0.8
			c0,0-2.7-0.5-3.4-0.6s-0.8-0.3-0.8-0.3c1.7-0.3,3.4-0.1,5,0.6C-535.8,1199.4-532.1,1198-532.1,1197.8z"/>
		<path class="st1" d="M-587.9,1270.2c0,0-7.3,20,7.7,21.8c1.4,0.7,3.1,0.4,4.2-0.7c0,0-1.1-0.4-0.1-2.3c0.3-0.7,0.6-1.4,0.8-2.2
			c0.2-1,0.1-2.1-0.3-3l0,0c0,0-0.7-6.4-9.4-11.4c0,0-1.6-2.3-2.1-2.3l0.5,3.9c0,0,2.8-0.4,4.6,1.1c0,0-4.5-1.2-4.6-0.5
			c0,0.1,0.3,2,0.3,2s4.9-0.7,7.6,1.7c0,0-5.2-2.2-7.5-1l0.7,2.8c0,0,5.2-1,8.3,1.6c0,0-5.5-2.1-8.1-1l1.1,2.7c0,0,5.1-0.9,7.7,1.3
			c0,0-6.6-1.8-7.4-0.7c0.5,1,1,2,1.7,2.9c0,0,3.6-0.6,5.1,0.9c0,0-4.5-0.7-4.7-0.2c0,0,2.3,2.8,4.2,3.6c-1.8-0.6-3.4-1.7-4.6-3.2
			c-0.1,1.2,0.1,2.3,0.7,3.4c0,0-1.9-0.9-1.2-4c0,0-1.7-2.2-1.7-2.7c0,0-1.2,3-0.9,5.1c0,0-1.4-2.2,0.6-5.8l-1.2-2.8
			c0,0-1.8,3.9-1.6,5.8c0,0-1.1-2.5,1.4-6.5l-0.7-2.8c-0.9,1.7-1.6,3.5-2.1,5.3c0,0-0.5-2.5,1.9-6.2l-0.3-1.9c0,0-1.3,2.4-1.6,3.1
			s-0.5,0.7-0.5,0.7c0.2-1.7,0.9-3.3,1.9-4.6C-587.4,1274.2-587.7,1270.2-587.9,1270.2z"/>
		<path class="st1" d="M-447,1253.3c0,0-7.3,20,7.7,21.8c1.4,0.7,3.1,0.4,4.2-0.7c0,0-1-0.3-0.1-2.3c0.3-0.7,0.6-1.4,0.8-2.2
			c0.2-1,0.1-2.1-0.3-3l0,0c0,0-0.7-6.4-9.4-11.4c0,0-1.6-2.2-2.1-2.3l0.4,3.9c0,0,2.8-0.4,4.6,1.1c0,0-4.5-1.2-4.6-0.5
			c0,0.1,0.3,2,0.3,2s4.9-0.7,7.6,1.7c0,0-5.2-2.2-7.5-1l0.7,2.8c0,0,5.2-1,8.3,1.6c0,0-5.5-2.1-8.1-1l1.1,2.7c0,0,5.1-0.9,7.7,1.3
			c0,0-6.6-1.8-7.4-0.7c0.5,1,1,2,1.7,2.9c0,0,3.6-0.6,5,0.9c0,0-4.5-0.7-4.7-0.2c0,0,2.3,2.8,4.2,3.6c-1.8-0.6-3.4-1.7-4.6-3.2
			c-0.1,1.2,0.1,2.3,0.7,3.4c0,0-1.9-0.9-1.2-4.1c0,0-1.7-2.2-1.7-2.7c0,0-1.2,3-0.9,5.1c0,0-1.4-2.2,0.6-5.8l-1.1-2.7
			c0,0-1.8,3.9-1.7,5.8c0,0-1.1-2.5,1.4-6.5l-0.7-2.8c-0.9,1.7-1.6,3.5-2.1,5.3c0,0-0.5-2.5,1.9-6.2l-0.3-1.9c0,0-1.2,2.4-1.6,3.1
			c-0.3,0.7-0.5,0.7-0.5,0.7c0.2-1.7,0.9-3.3,1.9-4.6C-446.5,1257.3-446.8,1253.3-447,1253.3z"/>
		<path class="st1" d="M-648.4,1416.9c0,0-7.3,20,7.7,21.8c1.4,0.7,3.1,0.4,4.2-0.7c0,0-1.1-0.3-0.1-2.3c0.3-0.7,0.6-1.4,0.8-2.2
			c0.2-1,0.1-2.1-0.3-3l0,0c0,0-0.7-6.4-9.4-11.4c0,0-1.6-2.2-2.1-2.3l0.5,3.9c0,0,2.8-0.4,4.6,1.1c0,0-4.5-1.2-4.6-0.5
			c0,0.1,0.3,2,0.3,2s4.9-0.7,7.6,1.7c0,0-5.2-2.2-7.5-1l0.7,2.8c0,0,5.2-1,8.3,1.6c0,0-5.5-2.1-8.1-1l1.1,2.7c0,0,5.1-0.9,7.7,1.3
			c0,0-6.6-1.8-7.4-0.7c0.5,1,1,2,1.7,2.9c0,0,3.6-0.6,5,0.9c0,0-4.5-0.7-4.7-0.2c0,0,2.3,2.8,4.2,3.6c-1.8-0.6-3.4-1.7-4.6-3.2
			c-0.1,1.2,0.1,2.3,0.6,3.4c0,0-1.9-0.9-1.2-4.1c0,0-1.7-2.2-1.7-2.7c0,0-1.2,3-0.9,5.1c0,0-1.4-2.2,0.6-5.8l-1.1-2.7
			c0,0-1.8,3.9-1.7,5.8c0,0-1.1-2.5,1.4-6.5l-0.7-2.8c-0.9,1.7-1.6,3.5-2.1,5.3c0,0-0.5-2.5,1.9-6.2l-0.3-1.9c0,0-1.3,2.4-1.6,3.1
			s-0.5,0.7-0.5,0.7c0.2-1.7,0.9-3.3,1.9-4.6C-647.9,1420.9-648.2,1416.9-648.4,1416.9z"/>
		<path class="st1" d="M-677.3,1228.3c0,0-7.3,20,7.7,21.8c1.4,0.7,3.1,0.4,4.2-0.7c0,0-1-0.4-0.1-2.3c0.3-0.7,0.6-1.4,0.8-2.2
			c0.2-1,0.1-2.1-0.3-3l0,0c0,0-0.7-6.4-9.4-11.4c0,0-1.6-2.3-2.1-2.3l0.5,3.9c0,0,2.8-0.4,4.6,1.1c0,0-4.5-1.2-4.6-0.5
			c0,0.1,0.3,2,0.3,2s4.9-0.7,7.6,1.7c0,0-5.2-2.1-7.5-1l0.7,2.8c0,0,5.2-1,8.3,1.6c0,0-5.5-2.1-8.1-1l1.1,2.7c0,0,5.1-0.9,7.7,1.3
			c0,0-6.6-1.8-7.4-0.7c0.5,1,1,2,1.7,2.9c0,0,3.6-0.6,5,0.9c0,0-4.5-0.7-4.7-0.2c0,0,2.3,2.8,4.2,3.6c-1.8-0.6-3.4-1.7-4.6-3.2
			c-0.1,1.2,0.1,2.3,0.7,3.4c0,0-1.9-0.9-1.2-4c0,0-1.7-2.2-1.7-2.7c0,0-1.2,3-0.9,5.1c0,0-1.4-2.2,0.6-5.8l-1.1-2.7
			c0,0-1.8,3.9-1.7,5.8c0,0-1.1-2.5,1.4-6.5l-0.7-2.8c-0.9,1.7-1.6,3.5-2.1,5.3c0,0-0.5-2.5,1.9-6.2l-0.3-1.9c0,0-1.2,2.4-1.6,3.1
			c-0.3,0.7-0.5,0.7-0.5,0.7c0.2-1.7,0.9-3.3,1.9-4.6C-676.7,1232.3-677,1228.3-677.3,1228.3z"/>
		<path class="st1" d="M-623.4,1337.2c0,0,5.6,20.5,18.9,13.4c1.6-0.2,2.8-1.5,3-3c0,0-1.1,0.3-1.4-1.8c-0.1-0.8-0.3-1.5-0.6-2.2
			c-0.4-1-1.1-1.8-2-2.3l0,0c0,0-4.3-4.9-14.3-3.9c0,0-2.6-0.9-3.1-0.7l2.6,2.9c0,0,2.1-2,4.4-1.8c0,0-4.4,1.6-4,2.2
			c0.1,0.1,1.4,1.5,1.4,1.5s3.6-3.4,7.2-3c0,0-5.5,1.2-6.7,3.5l2.2,1.9c0,0,3.6-3.8,7.7-3.5c0,0-5.7,1.5-7.2,3.9l2.4,1.6
			c0,0,3.6-3.7,7-3.3c0,0-6.4,2.4-6.5,3.7c1,0.6,2,1.1,3.1,1.4c0,0,2.7-2.6,4.6-2.2c0,0-4.1,2-3.9,2.5c0,0,3.5,0.9,5.5,0.5
			c-1.8,0.5-3.8,0.5-5.6,0.1c0.6,1,1.4,1.8,2.5,2.4c0,0-2.1,0.4-3.3-2.6c0,0-2.7-0.8-3-1.2c0,0,0.8,3.1,2.2,4.7c0,0-2.4-1-2.9-5.1
			l-2.5-1.6c0,0,0.8,4.2,2,5.7c0,0-2.3-1.4-2.6-6.1l-2.2-1.9c0.2,1.9,0.7,3.8,1.4,5.6c0,0-1.9-1.8-2-6.2l-1.3-1.4
			c0,0,0.4,2.7,0.5,3.4c0.2,0.8,0,0.9,0,0.9c-0.8-1.5-1.2-3.2-1.1-4.9C-620.7,1340.2-623.2,1337.1-623.4,1337.2z"/>
	</g>
	<g id="_x23_city_x28_have_x5B_car_x5D__x29_">
		<ellipse class="st1" cx="-385" cy="1767.7" rx="152.2" ry="16.8"/>
		<polygon class="st0" points="-97.1,1659.5 -88.1,1668.9 -73.9,1643.8 -75.1,1641 		"/>
		<polygon class="st2" points="-97.1,1659.5 -88.1,1668.9 -73.9,1643.8 -75.1,1641 		"/>
		<path class="st3" d="M-728.2,1638c0,47.6-32.6,57.7-65.3,57.7s-51.1-40.1-51.1-87.7s26.5-86.2,59.2-86.2S-728.2,1590.4-728.2,1638
			z"/>
		<path class="st2" d="M-728.2,1638c0,47.6-32.6,57.7-65.3,57.7s-51.1-40.1-51.1-87.7s26.5-86.2,59.2-86.2S-728.2,1590.4-728.2,1638
			z"/>
		<path class="st3" d="M-750.8,1609.5c0,47.6-21,86.2-46.9,86.2s-47.9-38.6-47.9-86.2c0-6.6-1-13-0.3-19.1
			c4.7-38.4,25.9-67.1,48.1-67.1C-771.7,1523.3-750.8,1561.9-750.8,1609.5z"/>
		<path class="st0" d="M-755.4,1399.6c0,0-41.1,46.1-54.1,84.5l354.8,39.2l190.1-39.2c0,0-75.3-90.2-95.6-93.7
			S-755.4,1399.6-755.4,1399.6z"/>
		<path class="st4" d="M-755.4,1399.6c0,0-41.1,46.1-54.1,84.5l354.8,39.2l190.1-39.2c0,0-75.3-90.2-95.6-93.7
			S-755.4,1399.6-755.4,1399.6z"/>
		<polygon class="st0" points="-495.1,1516.8 -438.1,1676.6 -438.1,1636.2 -422.3,1590.9 -378.4,1571.5 -322.7,1596.7 
			-302.8,1602.9 -301,1566.1 -367.2,1533.5 -398,1518.7 -468.6,1512.5 -488,1509 		"/>
		<path class="st0" d="M-469.7,1533.5l51.8,5.9c-2.4-20.7,13-20.7,13-20.7l-51.8-9h-24.2"/>
		<path class="st3" d="M-438.1,1701.2h36.7l106.4-3.6c0,0,2.3,20.3,30.3,15.5c0,0,15.4,1,17.1-7.4c1.7-8.4-35.1-85.8-35.1-85.8
			l-50.2-37.4l-45.5-11l-32.6,9.6l-20.7,33l-13.1,45.1L-438.1,1701.2z"/>
		<path class="st2" d="M-438.1,1701.2h36.7l106.4-3.6c0,0,2.3,20.3,30.3,15.5c0,0,15.4,1,17.1-7.4c1.7-8.4-35.1-85.8-35.1-85.8
			l-50.2-37.4l-45.5-11l-32.6,9.6l-20.7,33l-13.1,45.1L-438.1,1701.2z"/>
		<path class="st0" d="M-748.3,1410.7c-5.3,4.3-21.9,19.7-35.7,52.3c-1.7,4,0.1,8.6,4.1,10.3c0.7,0.3,1.4,0.5,2.1,0.6l83.4,10.8
			c6.4,0.8,12.3-3.3,13.9-9.5l14.7-59.8c0.8-3.2-1.2-6.4-4.4-7.2c-0.5-0.1-1-0.2-1.5-0.2l-72.9,1.4
			C-746,1409.3-747.2,1409.8-748.3,1410.7z"/>
		<path class="st5" d="M-748.3,1410.7c-5.3,4.3-21.9,19.7-35.7,52.3c-1.7,4,0.1,8.6,4.1,10.3c0.7,0.3,1.4,0.5,2.1,0.6l83.4,10.8
			c6.4,0.8,12.3-3.3,13.9-9.5l14.7-59.8c0.8-3.2-1.2-6.4-4.4-7.2c-0.5-0.1-1-0.2-1.5-0.2l-72.9,1.4
			C-746,1409.3-747.2,1409.8-748.3,1410.7z"/>
		<path class="st0" d="M-627,1407.8l93.9-0.9c6.8-0.1,12.8,4.5,15.1,11.4l29.3,66.5c2.6,7.8-3,15.9-10.7,15.5l-137.1-9
			c-11.4-0.7-19.4-12.3-16.8-24.2l9.9-45.2C-641.6,1413.7-634.8,1407.9-627,1407.8z"/>
		<path class="st5" d="M-627,1407.8l93.9-0.9c6.8-0.1,12.8,4.5,15.1,11.4l29.3,66.5c2.6,7.8-3,15.9-10.7,15.5l-137.1-9
			c-11.4-0.7-19.4-12.3-16.8-24.2l9.9-45.2C-641.6,1413.7-634.8,1407.9-627,1407.8z"/>
		<path class="st0" d="M-481,1406.8c25.7-0.5,93.8-2.4,127.6-10.2c0,0,58.1,43.8,75.5,76.8c0,0-90.6,22-153.1,25
			c-9.5,0.4-18.3-4.8-22.4-13.4l-33.3-68.9c-1.6-3.2-0.2-7.1,3-8.7C-482.9,1407-482,1406.8-481,1406.8z"/>
		<path class="st5" d="M-481,1406.8c25.7-0.5,93.8-2.4,127.6-10.2c0,0,58.1,43.8,75.5,76.8c0,0-90.6,22-153.1,25
			c-9.5,0.4-18.3-4.8-22.4-13.4l-33.3-68.9c-1.6-3.2-0.2-7.1,3-8.7C-482.9,1407-482,1406.8-481,1406.8z"/>
		<path class="st6" d="M-448.4,1416.7c10.7-0.2,31.6-0.7,51.9-2.3c30.4-2.3,60.2,9.7,80.4,32.5l0.7,0.7c4.6,5.3,4,13.3-1.3,17.9
			c-1.6,1.4-3.6,2.4-5.7,2.8c-22.5,4.8-60.8,12.2-90.3,13.6c-6.8,0.3-13.1-3.4-16.1-9.6l-23.7-49.2c-1.1-2.3-0.1-5.1,2.2-6.2
			C-449.8,1416.9-449.1,1416.8-448.4,1416.7z"/>
		<path class="st0" d="M-438.1,1676.6v24.6l-271.6-41.5c-13.3-4.6-21.3-1.8-21.3-1.8c-9.8-4.8-16.9-23.5-17.1-24.1l0,0l5.1-14.8
			l-41.6-68.8l-55.4,2.3c8.7-69.6,33.8-73,33.8-73l325.4,30.2L-438.1,1676.6z"/>
		<path class="st7" d="M-496.7,1530c-2.1,2.3-6,4.5-13.2,4.3c-11-0.3-13.1-9.7-13.4-15.3c-0.1-1.4,0-2.8,0.1-4.1l14.4-4.4l3,2.8
			l8.7,8.2C-494.6,1523.6-494.4,1527.5-496.7,1530z"/>
		<path class="st8" d="M-496.7,1529.2c-2.1,2.3-6,4.5-13.2,4.3c-11-0.3-13.1-9.7-13.4-15.3c-0.1-1.4,0-2.8,0.1-4.1l14.4-4.4l3,2.8
			l8.7,8.2C-494.6,1522.8-494.4,1526.7-496.7,1529.2z"/>
		<path class="st7" d="M-505.7,1512.4c-1.8,4.7-7.3,6-7.3,6l-10.2-0.2c-0.1-1.4,0-2.8,0.1-4.1l14.4-4.4L-505.7,1512.4z"/>
		<path class="st9" d="M-542.5,1476.4c0,0-23,3.1-16.9,23.9c4.7,15.8,15,16.8,19.8,16.4c2.8-0.2,5.6-0.3,8.3-0.3l18.2,0.4
			c0,0,10.3-2.4,7.4-12.8C-508.5,1493.7-521.8,1474.7-542.5,1476.4z"/>
		<ellipse class="st2" cx="-667.2" cy="1525.6" rx="10.6" ry="13.8"/>
		<path class="st7" d="M-679.2,1519.8l30.2,3.2c2.6,0.3,4.4,2.6,4.2,5.2l0,0c-0.3,2.6-2.6,4.4-5.2,4.2l-30.2-3.2
			c-2.6-0.3-4.4-2.6-4.2-5.2l0,0C-684.1,1521.4-681.8,1519.6-679.2,1519.8z"/>
		<path class="st9" d="M-679.2,1519.1l30.2,3.2c2.6,0.3,4.4,2.6,4.2,5.2l0,0c-0.3,2.6-2.6,4.4-5.2,4.2l-30.2-3.2
			c-2.6-0.3-4.4-2.6-4.2-5.2l0,0C-684.1,1520.7-681.8,1518.8-679.2,1519.1z"/>
		<path class="st7" d="M-843.4,1615.8c0,0-19.1-18.8,4.1-64.1c0,0,29.7-44.9,75.8,4.2c0,0,26.5,29.6,34.2,76.8l-18,0.4
			c0,0-17.3-83.7-68-79.5C-815.3,1553.6-852.2,1560.1-843.4,1615.8z"/>
		<path class="st7" d="M-844.1,1618.1c0,0-19.1-18.8,4.1-64.1c0,0,29.7-44.9,75.8,4.2c0,0,26.5,29.6,34.2,76.8l-18.1,0.4
			c0,0-17.3-83.7-68-79.5C-816.1,1555.9-853,1562.4-844.1,1618.1z"/>
		<path class="st0" d="M-844.1,1616.6c0,0-19.1-18.8,4.1-64.1c0,0,29.7-44.9,75.8,4.2c0,0,26.5,29.6,34.2,76.8l-18.1,0.4
			c0,0-17.3-83.7-68-79.5C-816.1,1554.4-853,1560.9-844.1,1616.6z"/>
		<path class="st2" d="M-844.1,1616.6c0,0-19.1-18.8,4.1-64.1c0,0,29.7-44.9,75.8,4.2c0,0,26.5,29.6,34.2,76.8l-18.1,0.4
			c0,0-17.3-83.7-68-79.5C-816.1,1554.4-853,1560.9-844.1,1616.6z"/>
		<path class="st10" d="M-438.1,1676.6v24.6l-271.6-41.5c-13.3-4.6-21.3-1.8-21.3-1.8c-9.8-4.8-16.9-23.5-17.1-24.1l0,0l18.1-0.4
			l52.2,7.3L-488,1668c0,0,33.7,3.8,35.6,5.3C-450.5,1674.9-438.1,1676.6-438.1,1676.6z"/>
		<path class="st7" d="M-438.1,1675.8v24.6l-271.6-41.5c-13.3-4.6-21.3-1.8-21.3-1.8c-9.8-4.8-16.9-23.5-17.1-24.1l0,0l18.1-0.4
			l52.2,7.3l189.8,27.3c0,0,33.7,3.8,35.6,5.3C-450.5,1674.1-438.1,1675.8-438.1,1675.8z"/>
		<path class="st0" d="M-438.1,1676.6v24.6l-271.6-41.5c-13.3-4.6-21.3-1.8-21.3-1.8c-9.8-4.8-16.9-23.5-17.1-24.1l0,0l18.1-0.4
			l52.2,7.3L-488,1668c0,0,33.7,3.8,35.6,5.3C-450.5,1674.9-438.1,1676.6-438.1,1676.6z"/>
		<path class="st2" d="M-438.1,1676.6v24.6l-271.6-41.5c-13.3-4.6-21.3-1.8-21.3-1.8c-9.8-4.8-16.9-23.5-17.1-24.1l0,0l18.1-0.4
			l52.2,7.3L-488,1668c0,0,33.7,3.8,35.6,5.3C-450.5,1674.9-438.1,1676.6-438.1,1676.6z"/>
		<path class="st10" d="M-71.6,1586.2c0,0-90.6,46.1-202.4,41.5c0,0-25.1,1.2-26.9-1.1c-1.7-2.3,6.5,9.7,6.5,9.7s3.1-3.2,6.2-3.2
			s17.1,1,17.1,1s160.6-6.8,201.7-43.3L-71.6,1586.2z"/>
		<path class="st2" d="M-678.2,1640.8c-16.9-54.2-16-92-12.2-114.1c4-24.1,12.2-35.4,12.3-35.5l0.6,0.5c-0.1,0.1-8.2,11.4-12.2,35.3
			c-3.7,22.1-4.6,59.7,12.2,113.7L-678.2,1640.8z"/>
		<path class="st0" d="M-69,1617.1c0.7,2.5,2.3,9.5-0.2,11.4c-1,0.7-1.8,2.5-2.4,4.6c-1,3.5-1.7,7.2-2.2,10.8l-26.1,29.2l-44.2,17.3
			l-105.6,7.3l-63.7-103.7l-143.2-84.2l39.1-2.2c39.1-2.2,150.1-26.7,150.1-26.7l125.5,27.6c20.3,4.5,38.3,16.3,50.4,33.2
			c15.3,21.4,22.3,44.6,22.3,44.6c1.9,2.3,2.6,6,2.7,10c0.1,6.6-1.4,14.2-2.2,17.8c-0.3,1.3-0.5,2.1-0.5,2.1S-69.1,1616.5-69,1617.1
			z"/>
		<path class="st7" d="M-452.5,1671.9c0,0-7.7-82.1,49.9-104.4c0,0,81-34.2,128.6,58.7l24.2,53c0,0,6.9,13.1,25.7,12.7
			c0,0,88.7-2.7,135.5-32.6l14.6-16.9c0,0-7.3,23.8-14.6,29.2c0,0-28.8,33.8-133.6,39.9c0,0-42.9,4.6-55.8-36.1
			c0,0-17.5-92.2-106.6-91.4c0,0-52.3,1-53.6,91.1L-452.5,1671.9z"/>
		<path class="st0" d="M-452.5,1673.4c0,0-7.7-82.1,49.9-104.4c0,0,81-34.2,128.6,58.7l24.2,53c0,0,6.9,13.1,25.7,12.7
			c0,0,88.7-2.7,135.5-32.6l14.6-16.9c0,0-7.3,23.8-14.6,29.2c0,0-28.8,33.8-133.6,39.9c0,0-42.9,4.6-55.8-36.1
			c0,0-17.5-92.2-106.6-91.4c0,0-52.3,1-53.6,91.1L-452.5,1673.4z"/>
		<path class="st2" d="M-452.5,1673.4c0,0-7.7-82.1,49.9-104.4c0,0,81-34.2,128.6,58.7l24.2,53c0,0,6.9,13.1,25.7,12.7
			c0,0,88.7-2.7,135.5-32.6l14.6-16.9c0,0-7.3,23.8-14.6,29.2c0,0-28.8,33.8-133.6,39.9c0,0-42.9,4.6-55.8-36.1
			c0,0-17.5-92.2-106.6-91.4c0,0-52.3,1-53.6,91.1L-452.5,1673.4z"/>
		<path class="st2" d="M-465.8,1670.9l-3.5-114.3c0.5-7.7,0.2-15.5-0.9-23.2c-0.1-0.5-2.9-12.3-6.5-19c-2.4-3.5-4.4-4.5-4.5-4.5
			l-2-0.6l2.3-0.2c1.6,0.3,3.1,1.9,4.5,4.2c2.5,3.5,5.5,9.5,7,19.8c1.1,7.7,1.4,15.5,0.9,23.3l3.5,114.2L-465.8,1670.9z"/>
		<path class="st2" d="M-395.3,1586.2l-0.7,0.1c0-0.1-1.6-9.6-6.9-17.1c-11-15.8-14.6-26.5-15-33.6c-0.2-2.5,0.1-5,0.9-7.3
			c1.7-4.8,6.3-8.4,12.6-10.2l0,0l1.3,0.2c-6,1.7-11.6,5.6-13.2,10.2c-0.8,2.3-1.1,4.8-0.9,7.2c0.4,7,4.1,17.5,14.9,33.1
			C-396.9,1576.4-395.3,1586.1-395.3,1586.2z"/>
		<path class="st2" d="M-149.3,1548.9c-48.9-29.2-152.5-56.4-153.5-56.6l0.2-0.7c1,0.3,104.7,27.5,153.7,56.7L-149.3,1548.9z"/>
		<path class="st2" d="M-78.2,1589.4c-18.5-32.5-68.2-59.3-106.7-76c-26-11.3-52.7-20.9-79.9-28.9l0.2-0.7c27.2,8,54,17.6,80,28.9
			c38.6,16.8,88.5,43.7,107.1,76.4L-78.2,1589.4z"/>
		
			<ellipse transform="matrix(0.7986 -0.6018 0.6018 0.7986 -952.9257 252.2538)" class="st7" cx="-99.5" cy="1550.1" rx="8.8" ry="37.6"/>
		
			<ellipse transform="matrix(0.7986 -0.6018 0.6018 0.7986 -952.0699 251.9273)" class="st8" cx="-99.6" cy="1548.7" rx="8.8" ry="37.6"/>
		
			<ellipse transform="matrix(0.7986 -0.6018 0.6018 0.7986 -951.8672 252.6107)" class="st7" cx="-98.5" cy="1548.7" rx="5.7" ry="31"/>
		
			<ellipse transform="matrix(0.7986 -0.6018 0.6018 0.7986 -951.3925 252.4155)" class="st9" cx="-98.5" cy="1547.9" rx="5.7" ry="31"/>
		<path class="st7" d="M-191.9,1607.6c0,0,2.5-18.8,17.3-23c0,0,50.3-14.5,61.2-14.8c0,0,11.3-3.5,18.8,5l7.7,10.4
			c0,0,5.3,8.5-6.5,10c0,0-60.8,22.3-87.2,24.6c-1.5,0.1-3,0.4-4.5,0.7C-188.9,1621.2-197,1621.4-191.9,1607.6z"/>
		<path class="st9" d="M-191.2,1606.8c0,0,2.5-18.8,17.3-23c0,0,50.3-14.5,61.2-14.8c0,0,11.3-3.5,18.8,5l7.7,10.4
			c0,0,5.3,8.4-6.5,10c0,0-60.8,22.3-87.1,24.6c-1.5,0.1-3,0.4-4.5,0.7C-188.1,1620.4-196.2,1620.6-191.2,1606.8z"/>
		<path class="st7" d="M-185.9,1605.2c0,0,2.3-16.1,16-19.7c0,0,46.8-12.5,56.9-12.6c0,0,10.5-3,17.5,4.3l7.1,8.9c0,0,5,7.2-6.1,8.5
			c0,0-56.5,19.1-81,21c-1.4,0.1-2.8,0.3-4.1,0.6C-183,1616.8-190.6,1617-185.9,1605.2z"/>
		<path class="st3" d="M-185.1,1604.4c0,0,2.3-16,16-19.7c0,0,46.8-12.5,56.9-12.6c0,0,10.5-3,17.5,4.3l7.1,8.9c0,0,5,7.2-6.1,8.5
			c0,0-56.5,19.1-81,21c-1.4,0.1-2.7,0.3-4.1,0.6C-182.3,1616-189.8,1616.2-185.1,1604.4z"/>
		<path class="st9" d="M-181.1,1594.5l-0.1-0.8c0.7-0.1,69-8.6,83.7-19.9l0.5,0.6C-111.9,1585.9-178.3,1594.1-181.1,1594.5z"/>
		<path class="st9" d="M-184.7,1603.3l-0.1-0.8c0.7-0.1,75.9-14.1,92.1-24.1l0.4,0.7C-108.7,1589.3-184,1603.2-184.7,1603.3z"/>
		<path class="st9" d="M-186.5,1610.6l-0.1-0.7c0.9-0.2,87.4-16.5,98.1-26.1l0.5,0.6C-98.9,1594.1-182.9,1609.9-186.5,1610.6z"/>
		<path class="st7" d="M-96.5,1611c0,0-32.6,13.6-66.9,19.7c-3,0.5-6,1.2-9,2c-3.5,0.9-8.4,2-11.1,1.3c-4.4-1.2-6.9,4.2-2.1,8.4
			l0.3,0.3c3.5,3.1,8.1,4.6,12.7,4.2l7.3-0.6c0,0,59.5-13.1,76.1-23.2c0,0,7.6-5.2,8.2-11s1.3-10.5-4.7-7S-96.5,1611-96.5,1611z"/>
		<path class="st9" d="M-95.8,1610.3c-1.2,0.5-33.2,13.7-66.9,19.7c-3,0.5-6,1.2-9,2c-3.5,0.9-8.4,2-11.1,1.3
			c-4.5-1.2-6.9,4.2-2.1,8.4l0.1,0.1c3.6,3.2,8.3,4.7,13.1,4.3l7.1-0.6h0.1c2-0.4,59.7-13.2,76-23.2h0.1c0.5-0.4,7.6-5.4,8.1-11
			c0.6-5.8,1.3-10.5-4.7-7C-90.7,1607.7-95.3,1610.1-95.8,1610.3L-95.8,1610.3z"/>
		<path class="st7" d="M-100.1,1614.6c0,0-26.7,11.1-55.5,17.4c-2.9,0.6-5.7,1.4-8.5,2.2c-2.8,0.8-6.8,1.8-9,1.5
			c-3.8-0.5-5.6,3.3-1.4,5.9l0.1,0.1c3.2,1.9,7,2.7,10.8,2.2l6.6-0.9c0,0,50.1-12.6,63.7-20.6c0,0,6.2-4,6.4-8s0.6-7.1-4.4-4.5
			C-96.2,1612.5-100.1,1614.6-100.1,1614.6z"/>
		<path class="st3" d="M-99.4,1613.8c-0.6,0.2-27,11.2-55.4,17.4c-2.9,0.6-5.7,1.4-8.5,2.2c-2.8,0.8-6.8,1.8-9,1.5
			c-3.8-0.5-5.6,3.3-1.3,5.9l0,0c3.3,2,7.2,2.8,11.1,2.2l6.4-0.9l0,0c1-0.3,50.2-12.7,63.7-20.5l0,0c0.2-0.1,6.2-4.1,6.4-8
			s0.6-7.2-4.4-4.5C-95.4,1611.8-99.2,1613.7-99.4,1613.8L-99.4,1613.8z"/>
		
			<ellipse transform="matrix(4.993051e-02 -0.9988 0.9988 4.993051e-02 -1849.5637 1348.4451)" class="st7" cx="-216" cy="1646.4" rx="10.1" ry="7.5"/>
		
			<ellipse transform="matrix(4.971587e-02 -0.9988 0.9988 4.971587e-02 -1849.7957 1348.5828)" class="st9" cx="-216.2" cy="1646.4" rx="10.1" ry="7.5"/>
		<path class="st7" d="M-172,1654c0,0-39.1,6-49.5,6.5c-10.4,0.6-11.9,6.3-11.9,6.3s-2.5,14.6,11.9,10.4l51.1-5.8
			c0,0,6.9,0.2,6.9-9.2v-2c0-1.2,0.1-2.4,0.4-3.5C-162.9,1655.2-163.7,1652.8-172,1654z"/>
		<path class="st9" d="M-171.3,1653.2c0,0-39.1,6-49.5,6.5c-10.4,0.6-11.9,6.3-11.9,6.3s-2.5,14.6,11.9,10.4l51.1-5.8
			c0,0,6.9,0.2,6.9-9.2v-2.1c0-1.2,0.1-2.4,0.4-3.5C-162.1,1654.4-162.9,1652-171.3,1653.2z"/>
		<path class="st9" d="M-69.2,1628.5c-1,0.7-1.8,2.5-2.4,4.6l0,0l-12.7,9c-0.5,0.3-1.1,0.2-1.4-0.2c-0.1-0.2-0.2-0.4-0.2-0.6v-9.4
			c0-2.7,1.4-5.3,3.8-6.7l13.2-7.9C-68.3,1619.6-66.7,1626.6-69.2,1628.5z"/>
		<path class="st3" d="M-158.8,1654.5l-0.6,9.5c-0.3,3.5,2.3,6.6,5.8,6.8c0.5,0,0.9,0,1.4,0c21.6-3.4,42.3-10.9,61.1-21.9l1.7-19.5
			c0.2-1.5-0.9-2.8-2.4-3c-0.5,0-0.9,0-1.4,0.2c-10.7,4.8-39.4,17-57.6,19.3C-155.2,1646.5-158.5,1650.1-158.8,1654.5z"/>
		<path class="st0" d="M-153,1649.6v15.5c0,0,47.6-11.3,58.2-18.8v-14.7C-113.3,1640-132.9,1646.1-153,1649.6z"/>
		<path class="st0" d="M-69.5,1614.8c-2.4-0.2-4.4-4.3-4.4-9.4s2-9.4,4.5-9.4c0.8,0,1.5,0.4,2,1
			C-67.1,1603.7-68.7,1611.2-69.5,1614.8z"/>
		<path class="st9" d="M-68.7,1614c-2.4-0.2-4.3-4.3-4.3-9.4s2-9.4,4.5-9.4c0.8,0,1.5,0.4,2.1,1C-66.4,1602.9-67.9,1610.4-68.7,1614
			z"/>
		<path class="st3" d="M-287.7,1679.6c0,84.4-35.7,86.2-82.2,86.2c-37.2,0-52.4-38.6-52.4-86.2s11.9-86.1,49.1-86.1
			S-287.7,1632-287.7,1679.6z"/>
		<path class="st2" d="M-287.7,1679.6c0,84.4-35.7,86.2-82.2,86.2c-37.2,0-52.4-38.6-52.4-86.2s11.9-86.1,49.1-86.1
			S-287.7,1632-287.7,1679.6z"/>
		<ellipse class="st3" cx="-375.4" cy="1679.6" rx="46.9" ry="86.2"/>
		<path class="st9" d="M-777.1,1628.5c0,25.9-7.5,46.6-23,46.6s-34-21-34-46.8c0-25.9,6.5-48.6,22-48.6S-777.1,1602.6-777.1,1628.5z
			"/>
		<path class="st3" d="M-777.1,1627.5c0,2-0.1,3.9-0.2,5.8c-0.2,5-1,9.9-2.2,14.7c-2.5,9.5-7.1,16.1-13.9,17.4
			c-0.8,0.1-1.6,0.2-2.4,0.2c-3.6-0.1-7-1.2-9.9-3.2c-6.4-4.1-12.3-11.7-15.3-21.2c-1.1-3.5-1.8-7.1-2.1-10.8c-0.1-1-0.1-2-0.1-3
			c-0.1-7,0.6-14.1,2.1-21c0.8-4.2,2.4-8.2,4.5-11.9c2.7-4.3,6.4-6.9,11.1-6.9c3.5,0.1,6.9,1.3,9.7,3.3c4.3,2.9,7.9,6.7,10.7,11.1
			C-779.9,1609.5-777.2,1618.4-777.1,1627.5z"/>
		<path class="st9" d="M-777.2,1633.3c-0.2,5-0.9,9.9-2.2,14.7c-0.3-0.4-9.1-10.5-15.7-4c-4.9,4.8-0.8,15.7,1.9,21.4
			c-0.8,0.1-1.6,0.2-2.4,0.2c-3.6-0.1-7-1.2-9.9-3.2v-0.7c0,0,3.9-12.2-6.5-19.7c0,0-5.1-2-8.8-0.8c-1.1-3.5-1.8-7.1-2.1-10.8
			c0.9-0.7,7-5.9,4.5-15.8c-0.7-2.8-1.5-5.5-2.5-8.2c0.9-4.2,2.4-8.2,4.6-11.9c0,0,2,10.9,9.7,11.5s11-14.7,11.1-15.2
			c4.3,2.9,7.9,6.7,10.7,11.1c0,0-12.3,5.1-8.7,18.7C-791,1630.1-782.1,1632.7-777.2,1633.3z"/>
		<ellipse transform="matrix(0.9902 -0.14 0.14 0.9902 -235.43 -96.4637)" class="st3" cx="-803.4" cy="1625.2" rx="5.8" ry="10"/>
		<path class="st9" d="M-367.2,1683.2c0,31-6.6,55.8-20.3,55.8s-30-25.1-30-56.2s5.7-58.3,19.4-58.3
			C-384.4,1624.6-367.2,1652.2-367.2,1683.2z"/>
		<path class="st3" d="M-367.2,1682.1c0,2.4,0,4.7-0.1,6.9c-0.2,5.9-0.8,11.8-1.9,17.6c-2.2,11.4-6.2,19.3-12.2,20.8
			c-0.7,0.2-1.4,0.2-2.1,0.2c-2.9,0-5.9-1.4-8.8-3.9c-5.7-4.9-10.9-14.1-13.6-25.5c-1-4.2-1.6-8.6-1.8-12.9
			c-0.1-1.2-0.1-2.4-0.1-3.6c-0.1-8.4,0.5-16.8,1.9-25.1c0.7-4.9,2.1-9.7,4.1-14.3c2.4-5.2,5.6-8.3,9.8-8.3c2.8,0,5.7,1.4,8.6,3.9
			c3.4,3,6.7,7.6,9.5,13.3C-369.6,1661-367.2,1671.5-367.2,1682.1z"/>
		<path class="st9" d="M-367.4,1689c-0.2,5.9-0.8,11.8-1.9,17.6c-0.3-0.4-8-12.6-13.9-4.8c-4.3,5.7-0.7,18.8,1.7,25.7
			c-0.7,0.2-1.4,0.2-2.1,0.2c-2.9,0-5.9-1.4-8.8-3.9v-0.9c0,0,3.5-14.6-5.8-23.6c0,0-4.5-2.4-7.8-1c-1-4.2-1.6-8.6-1.8-12.9
			c0.8-0.8,6.2-7.1,4-18.9c-0.8-4.5-1.6-7.6-2.2-9.8c0.7-4.9,2.1-9.7,4.1-14.3c0,0,1.8,13.1,8.5,13.8c6.8,0.8,9.7-17.6,9.8-18.1
			c3.4,3,6.7,7.6,9.5,13.3c0,0-10.8,6.1-7.7,22.4C-379.5,1685.3-371.7,1688.2-367.4,1689z"/>
		
			<ellipse transform="matrix(0.9967 -8.158235e-02 8.158235e-02 0.9967 -138.4227 -26.4364)" class="st3" cx="-392.7" cy="1680.7" rx="5.1" ry="11.9"/>
		<path d="M-456.7,1509.7"/>
		<path class="st2" d="M-263.2,1548.3l-0.3,0.7c-0.3-0.1-26.9-11.6-125.3-28.3c-4.6-0.8-9.4-1.6-14.3-2.4c-0.5-0.1-0.9-0.1-1.4-0.2
			c-15.8-2.6-33.1-5.2-52.3-8l0.1-0.8c26,3.7,48.7,7.3,68.5,10.7C-290,1536.7-263.5,1548.1-263.2,1548.3z"/>
		<path class="st7" d="M-762.2,1402.4c0,0,8.9-15.2,39.4-16.5c0,0,223-29.1,363.7,1.1c0,0,12,5.3-1,8.5
			C-373.1,1398.6-672.9,1409.5-762.2,1402.4z"/>
		<path class="st11" d="M-762.2,1400.8c0,0,8.9-15.2,39.4-16.5c0,0,223-29.1,363.7,1.2c0,0,12,5.3-1,8.5
			C-373.1,1397.1-672.9,1408-762.2,1400.8z"/>
		<path class="st7" d="M-783.1,1464.5c13.8-32.6,30.5-48,35.7-52.3c1-0.8,2.3-1.3,3.7-1.3l72.9-1.4c2,0,3.9,0.9,5,2.6
			c-0.8-2.5-3.2-4.2-5.8-4.1l-72.9,1.4c-1.3,0-2.6,0.5-3.7,1.3c-5.3,4.3-21.9,19.7-35.7,52.3c-1,2.4-0.8,5.2,0.6,7.4
			C-783.9,1468.5-783.9,1466.4-783.1,1464.5z"/>
		<path class="st7" d="M-651.8,1468.1l9.9-45.2c1.8-8.2,8.5-14,16.3-14l93.9-0.9c3.6,0,7.1,1.2,9.8,3.5c-2.9-3.2-7-5-11.3-4.9
			l-93.9,0.9c-7.8,0.1-14.5,5.9-16.3,14.1l-10,45.2c-1.7,7.4,0.8,15.2,6.6,20.1C-651.4,1481.8-653.3,1474.8-651.8,1468.1z"/>
		<path class="st7" d="M-448.7,1487.2l-33.2-69c-1.6-3.2-0.2-7.1,3-8.6c0.8-0.4,1.8-0.6,2.7-0.6c25.3-0.5,91.9-2.4,126.2-9.9
			c-2.2-1.7-3.4-2.6-3.4-2.6c-33.9,7.8-101.9,9.7-127.6,10.2c-3.6,0.1-6.4,3-6.3,6.6c0,0.9,0.2,1.8,0.6,2.7l33.3,68.9
			c2.7,5.7,7.6,10.1,13.6,12.1C-443.6,1494.6-446.7,1491.2-448.7,1487.2z"/>
		<rect x="-452.5" y="1673.4" class="st0" width="14.3" height="4.4"/>
		<rect x="-452.5" y="1673.4" class="st2" width="14.3" height="4.4"/>
		<path class="st0" d="M-730.7,1629.7l-17.6,3c0.1,0.6,0.3,1.2,0.5,1.8c0.3,0.9,19.6-0.7,19.6-0.7l-1.9-0.4L-730.7,1629.7z"/>
		<path class="st2" d="M-730.7,1629.7l-17.6,3c0.1,0.6,0.3,1.2,0.5,1.8c0.3,0.9,19.6-0.7,19.6-0.7l-1.9-0.4L-730.7,1629.7z"/>
		<path class="st7" d="M-797.2,1672.9c-15.5,0-34-21-34-46.8c0-17.7,3-34,10-42.5c-8.9,7.2-12.8,25.3-12.8,45.4
			c0,25.9,18.5,46.8,34,46.8c5.3,0,9.6-2.4,13-6.5C-789.9,1671.7-793.5,1673-797.2,1672.9z"/>
		<path class="st7" d="M-384.5,1735.6c-13.9,0-30.5-25.2-30.5-56.3c0-21.3,2.7-40.8,8.9-51c-8,8.6-11.5,30.4-11.5,54.5
			c0,31.1,16.6,56.3,30.5,56.3c4.7,0,8.6-2.9,11.7-7.8C-378,1734.1-381,1735.6-384.5,1735.6z"/>
		
			<ellipse transform="matrix(0.7071 -0.7071 0.7071 0.7071 -1192.9429 286.5409)" class="st7" cx="-250.6" cy="1583.3" rx="22.9" ry="44.8"/>
		
			<ellipse transform="matrix(0.7071 -0.7071 0.7071 0.7071 -1192.1682 286.904)" class="st8" cx="-249.8" cy="1582.5" rx="22.9" ry="44.8"/>
		
			<ellipse transform="matrix(0.7071 -0.7071 0.7071 0.7071 -1191.0315 288.2402)" class="st7" cx="-247.6" cy="1581.8" rx="16.8" ry="38"/>
		
			<ellipse transform="matrix(0.7071 -0.7071 0.7071 0.7071 -1190.4624 287.9994)" class="st9" cx="-247.6" cy="1581" rx="16.8" ry="38"/>
		<ellipse class="st1" cx="76.1" cy="1679.3" rx="15" ry="2.5"/>
		<ellipse class="st1" cx="-893.2" cy="1723.9" rx="26.7" ry="4.5"/>
		<path class="st12" d="M-911.1,1703c0,0,15.2-0.5,19.8-3.7c4.6-3.3,23.4-7.1,24.5-1.9s22.9,26,5.7,26.2
			c-17.2,0.1-39.9-2.7-44.5-5.5S-911.1,1703-911.1,1703z"/>
		<path class="st2" d="M-860.8,1721.7c-17.2,0.1-39.9-2.7-44.5-5.5c-3.5-2.1-4.9-9.7-5.3-13.3h-0.5c0,0,1,12.3,5.5,15.1
			c4.5,2.8,27.3,5.6,44.5,5.5c5,0,6.7-1.8,6.6-4.5C-855.2,1720.6-857.1,1721.6-860.8,1721.7z"/>
	</g>
	<g id="_x23_woman_x28_lean_x29_">
		<g>
			<g>
				
					<linearGradient id="SVGID_1_" gradientUnits="userSpaceOnUse" x1="-388.5582" y1="3647.7947" x2="-388.5582" y2="3225.5986" gradientTransform="matrix(1 0 0 1 -32.98 -1877.0798)">
					<stop  offset="0" style="stop-color:#808080;stop-opacity:0.25"/>
					<stop  offset="0.54" style="stop-color:#808080;stop-opacity:0.12"/>
					<stop  offset="1" style="stop-color:#808080;stop-opacity:0.1"/>
				</linearGradient>
				<path class="st13" d="M-333.7,1474.3c2.5-6.8-2-14.1-2-14.1l-0.4-15.7c2-4.1-4.9-14.4-4.9-14.4s-1.6-7.8-3.1-8.5s-3.1-4-3.1-4
					c0-0.9-0.6-1.7-1.4-2.1c-2.6-4.7-4.8-9.5-6.6-14.6c-1-2.8-1.9-5.8-1.3-8.7c0.2-0.7,0.4-1.5,0.7-2.2c0.1-0.2,0.1-0.3,0.2-0.4
					c0.1-0.2,0-0.1,0.1-0.2l0.1-0.2c0.7-1.4,1-3,1.1-4.6c-0.2-3.3-3.3-5.8-6.3-7.2c-3.1-1.4-6.5-2.3-8.9-4.7c-3-3-3.7-7.4-4.5-11.6
					c-0.7-4.2-1.8-8.6-5.2-11.1c-3-2.2-7.1-2.3-10.8-1.6c-5,0.9-9.7,2.7-13.9,5.6c-4.1,2.7-7.7,6.3-12.4,7.8
					c-1.7,0.5-3.6,0.7-5.2,1.3c-3.6,1.3-6.5,4.2-7.8,7.8l0,0c-0.1,0.2-0.1,0.3-0.2,0.5s-0.1,0.4-0.2,0.6s-0.1,0.4-0.1,0.5
					c0,0.2-0.1,0.4-0.1,0.6s-0.1,0.4-0.1,0.5s-0.1,0.4-0.1,0.7c0,0.2,0,0.4,0,0.5s0,0.5,0,0.7c-1.9,1.8-3.6,3.9-5,6.2
					c-6,9.5-13.5,23.2-16.8,29.4l-0.2,0.3v-0.2c0,0-14.6,14.7-6.1,12.7c0.6-0.1,1.2-0.2,1.8-0.3l-0.2,1.7l0,0
					c-1.4,1.7-7.3,7.6,3.7,12c9.1,3.6,27.8,4.6,33.9,4.8l-0.5,2.6c-9.4,7.7-5.8,16.6-6,22.3c-0.2,5.8-1.1,12.6-1.1,12.6
					s-4,6.5-3.5,9.9c0.6,3.4-2.9,9-2.9,9s-5.1,5.6-4.5,9.2c0.5,3.6-0.9,8.3-0.9,8.3s-3.5,6.3-2,9.9s0.7,5.6,0.7,5.6s-7.5,1.1-8,5
					c-0.6,4-7.3,5.4-7.3,5.4s-12,4.3-14.9,6.3s-18.3,16.4-18.3,16.4s-15.5,15.9-16.3,17.6s-9.9,8.5-5.7,15c0.2,0.3,0.4,0.7,0.7,1
					c4.4,6.4,10.1,11.8,16.8,15.9c2.9,1.8,5.8,3.8,6.7,5.2c1.9,3,33.8,23.4,33.8,23.4s14,12.3,23,20.9l0.7,4.1
					c-0.1,0.2-0.2,0.4-0.3,0.6c-0.2,0.9,0.2,1.9,0.9,2.4l0.1,0.7c0,0,3.6,30.6,6.9,45c2.2,9.5,0.6,16.6-0.7,20.4
					c-3.4-3.8-3.8-5.1-3.8-5.1c-1,2.4-1.8,5-2.3,7.6c-0.1,0.4-0.1,0.7-0.1,1.1c-0.1,0-0.2,0-0.2,0.1l-1.3,1.8c-1.4,1.9-2.6,4-3.9,6
					c-2.9,4.6-11.8,6.8-11.8,6.8c-0.8,0.4-1.6,0.7-2.4,0.9c-2.5,0.4-5.1,0.5-7.6,0.2c-0.8,0.1-1.5,0.3-2.3,0.6
					c-0.6,0.2-1.2,0.5-1.7,0.8l0,0c-3.9,2.5-2.5,7.2-2.5,7.2l0,0l0,0l0.1,0.1l0.1,0.1l0.2,0.1l0.2,0.2l0.2,0.1l0.2,0.1l0.2,0.1
					l0.3,0.2l0.2,0.1l0.6,0.3l0.3,0.2l0.4,0.2l0.3,0.2l0.4,0.2l0.4,0.2c0.2,0.1,0.5,0.2,0.7,0.3l0.4,0.2l0.5,0.2l0.5,0.2l0.5,0.2
					l0.9,0.3l0.4,0.2l0.6,0.2l0.5,0.2l0.7,0.2l0.4,0.1c0.4,0.1,0.7,0.2,1.1,0.3l0.4,0.1c0.3,0.1,0.6,0.1,0.9,0.2l0.2,0.1h0.2
					c0.3,0.1,0.6,0.1,1,0.2h0.3l1.3,0.2h0.3c0.3,0,0.7,0.1,1,0.1h0.4h1h0.4c0.4,0,0.9,0,1.3-0.1h0.3l1.1-0.1l0.5-0.1l1-0.2l0.5-0.1
					c0.5-0.1,0.9-0.2,1.4-0.3c10.2-2.8,20.7-3.7,31.2-2.7c8,0.7,10-2.1,10-2.1c0.2-0.2,0.3-0.4,0.4-0.7c0-0.1,0.1-0.2,0.1-0.3
					c0.1-0.2,0.1-0.3,0.2-0.5c0-0.1,0.1-0.2,0.1-0.3s0.1-0.3,0.1-0.5s0-0.2,0.1-0.4c0.1-0.1,0-0.1,0-0.2c0-0.2,0-0.4,0-0.5
					c0.1-1.5,0-3.1-0.3-4.6c-0.7-3.4-1.6-6.6-2.9-9.8l-0.6,0.4c-0.1-0.3-0.1-0.6-0.2-0.9c-2-10.6-2.7-35.9-2.7-38.6l0,0
					c1.1,0,2.2-0.4,3-1.1c0.2-0.1,0.2-0.2,0.2-0.2c6.8-5.5,3.5-30.8,1.2-34.3c-2.2-3.5-2.7-21.6-3.5-27.3c-0.4-2.7-1.8-3.5-3.7-3.6
					c-0.3,0-0.5,0-0.8,0c-0.3-5.3,0.5-17.9,1.1-26.5l0,0c0-0.6,0.1-1.1,0.1-1.6l1.7,0.1l2.5-15.2c0,0,1.5-5.5,10.4-21.4
					s9.8-33.2,9.8-33.2s2.7-5.2,2-7.6c-0.2-0.6-0.5-2.3-0.8-4.5c3-1.8,6.2-3.4,9.5-4.7c9.5-3.9,16.7-11.1,20-14.6l0.5-0.6
					c0.8,1.2,1.6,2.5,2.2,3.9c0,0,7.8-5.4,11.8-10.1c0.4-0.5,0.8-1.1,1-1.8c2.4-6-0.1-18.8-0.1-18.8
					C-329.8,1479.3-333.7,1474.3-333.7,1474.3z"/>
				<g class="st14">
					
						<linearGradient id="SVGID_2_" gradientUnits="userSpaceOnUse" x1="-346.8091" y1="3368.6953" x2="-322.4616" y2="3368.6953" gradientTransform="matrix(1 0 0 1 -32.98 -1877.0798)">
						<stop  offset="0" style="stop-color:#808080;stop-opacity:0.25"/>
						<stop  offset="0.54" style="stop-color:#808080;stop-opacity:0.12"/>
						<stop  offset="1" style="stop-color:#808080;stop-opacity:0.1"/>
					</linearGradient>
					<path class="st15" d="M-373.1,1510.7c-0.4,0.7-3,2.2-6.2,4c-0.3-2.3-0.5-4.1-0.6-4.6c-0.2-2,4.1-10.9,4.1-10.9
						s8.1-10.9,7.9-12.5s3.1-6.3,3.1-6.3l7.4-11.9c-0.8,1.9-0.5,4,0.8,5.6c2.2,2.9,0.4,8.7,0.4,8.7l0.5,7.3v0.7
						c-0.3,0.3-1.4,1.4-4.1,3.8c-2.4,2.2-2,2.8-1.7,3c-0.6,1,0.1,1.2,0.1,1.2c0.2,0,0.4,0,0.6-0.1l-0.6,0.5
						C-365.8,1503.4-372.4,1509.6-373.1,1510.7z"/>
				</g>
				<path class="st16" d="M-421.7,1375.6c-2.2,2.3,0.3,5.5-1.4,8c-1,1.4-3.1,2.3-4.3,3.6c-2.4,2.6-0.6,5.8,0.6,8.8
					c4.2,10.6-2.1,22.8-15.2,29.4c5.7,2.5,12,3,18,1.5c5.8-1.6,10.4-5.2,11.5-9.3c0.9-2.9,0.1-6.1,1.6-8.9c2.3-4.4,9.5-7,11.6-11.4
					c1.7-3.5-0.2-7.2-2.3-10.6c-2.7-4.2-5.7-8.1-9-11.8c-2.1-2.2-2.1-3.1-5.3-2.5C-418.1,1373.1-420,1374.2-421.7,1375.6z"/>
				<path class="st16" d="M-402.2,1406.9c-0.3,3.2-1,6.3-2.1,9.2c-1.2,3.8-2.5,7.6-4.7,11c-2.1,3.4-5.3,6.2-9.2,7.3
					c2.6,2.3,6.1,3.3,9.5,2.8c2.5-0.4,4.9-1.7,7.3-0.9c1.1,0.5,2.1,1,3.1,1.7c3.5,1.8,8,0.5,10.6-2.5c2.4-3.2,3.1-7.3,1.8-11.1
					c-0.7-2.3-2-4.3-2.7-6.6c-1-3.4-0.6-7.1-2.2-10.2c-2.4-4.5-8.9-7.1-13.4-8.9C-404.3,1400.9-402.1,1404-402.2,1406.9z"/>
				<path class="st7" d="M-408.4,1398.5c-0.3,3.2-1,6.3-2.1,9.2c-1.2,3.8-2.5,7.6-4.7,11s-5.3,6.2-9.1,7.3c2.6,2.3,6.1,3.3,9.5,2.8
					c2.5-0.4,4.9-1.7,7.3-0.9c1.1,0.5,2.1,1,3.1,1.7c3.5,1.8,8,0.5,10.6-2.5c2.4-3.2,3.1-7.3,1.8-11.1c-0.7-2.3-2-4.3-2.7-6.6
					c-1-3.4-0.6-7.1-2.2-10.2c-2.4-4.5-9-7.1-13.4-8.9C-410.5,1392.6-408.3,1395.6-408.4,1398.5z"/>
				<path class="st17" d="M-404,1606.5c0,0-2.7,32.7-1.5,37.1s3.1,63.5,3.1,63.5s0.8,34.5,3.5,41.7s-18.1,5.2-18.9,5.1
					c-0.7-0.1-5.9-14.7-5.9-14.7s5.1-8.9,1.9-23.2c-3.2-14.3-6.8-44.6-6.8-44.6l-5.9-35.7c0,0,0.8-8.4-2.3-13.1
					c-3.1-4.7-7.1-35.7-6.2-38.4c0.9-2.7,22.1-8.6,22.1-8.6l9.1,12L-404,1606.5z"/>
				<path class="st18" d="M-442.7,1591L-442.7,1591c0,0.3,0,0.4,0,0.6c0.1,0.6,0.1,1.2,0.2,1.9c1.1,10.4,3.7,25.9,5.8,29.1
					s2.4,8.2,2.4,11c0,0.3,0,0.6,0,0.9c0,0.8-0.1,1.3-0.1,1.3l4.5,27.5l0.2,1.2l1.2,7.1c0,0,3.6,30.4,6.8,44.6
					c1.6,6.4,1.4,13.1-0.4,19.5c-0.1,0.3-0.2,0.6-0.3,0.8c-0.3,1-0.7,1.9-1.2,2.8c0,0,0.7,2.1,1.7,4.7l0.7,1.8
					c0.1,0.3,0.2,0.6,0.4,1c1.4,3.6,2.8,7.3,3.2,7.3c0.7,0.1,21.5,2.1,18.8-5.1c-0.4-1.1-0.6-2.1-0.8-3.2c-2-11.1-2.7-38.5-2.7-38.5
					s-2-59.1-3.1-63.5c-0.8-2.9,0.2-18.4,0.9-28.4l0,0c0.3-5,0.7-8.7,0.7-8.7l-7.8-18.9l-9.1-12c0,0-15.2,4.2-20.4,7.1l-0.2,0.1
					c-0.6,0.3-1.2,0.8-1.5,1.3C-443.2,1584.8-443,1587.4-442.7,1591z"/>
				<path class="st19" d="M-428.9,1632.3c0,0,10.1,2.7,9.2,5.6L-428.9,1632.3z"/>
				<path class="st7" d="M-423.5,1739.2c0,0,1.1,3.1,2.3,6.5c1.4,0.7,2.5,1.1,2.5,1.1s3.9-3.6-1.2-8.9c-0.8-0.9-1.5-1.6-2.1-2.3
					C-422.4,1736.8-422.9,1738-423.5,1739.2z"/>
				<path class="st20" d="M-428.5,1740.9c0.4,2.1,5.1,4.5,7.6,5.7c1,0.4,1.6,0.7,1.6,0.7c0.5-0.5,0.8-1.1,1.1-1.7
					c0.6-1.6,0.7-4.1-2.3-7.2c-0.7-0.7-1.3-1.4-1.9-2c-3.4-3.8-3.8-5.1-3.8-5.1c-1,2.4-1.8,4.9-2.3,7.5
					C-428.5,1739.4-428.6,1740.2-428.5,1740.9z"/>
				<path class="st7" d="M-428.5,1740.9c0.4,2.1,5.1,4.5,7.6,5.7c1.4,3.6,2.8,7.3,3.2,7.3c0.7,0.1,21.5,2.1,18.8-5.1
					c-0.4-1.1-0.6-2.1-0.8-3.2l-5.8,4.1c-2.9,2.1-7.4,0.5-7.4,0.5l-5.4-4.7l-1.3-1.2c-0.8-0.1-1.6-0.3-2.4-0.6
					c-1.8-0.8-3.5-2.1-4.6-3.7c-1-1.1-1.6-1.4-1.9-1.4C-428.5,1739.4-428.6,1740.2-428.5,1740.9z"/>
				<path class="st20" d="M-461.6,1763.8c3.9,2.5,8.2,4.2,12.8,5.1c3.9,0.8,7.8,0.7,11.7-0.3c10-2.8,20.3-3.7,30.6-2.7
					c7.9,0.7,9.9-2.1,9.9-2.1c1.3-1.8,1.3-4.9,0.7-8c-0.6-3.3-1.6-6.6-2.8-9.7c0,0-3.6,2.5-6.5,4.6s-7.4,0.5-7.4,0.5l-6.7-5.8
					c-4.3-0.3-7-4.3-7-4.3c-1.9-2-2.3-1.3-2.3-1.3l-1.3,1.7c-1.4,1.9-2.6,3.9-3.8,5.9c-2.8,4.6-11.6,6.8-11.6,6.8
					c-0.7,0.4-1.5,0.7-2.4,0.8c-2.5,0.4-5,0.5-7.5,0.2c-1.3,0.2-2.6,0.6-3.8,1.3C-463.1,1759.1-461.6,1763.8-461.6,1763.8z"/>
				<circle class="st21" cx="-420.9" cy="1749.3" r="0.7"/>
				<circle class="st21" cx="-429.4" cy="1752.9" r="0.7"/>
				<circle class="st21" cx="-426.1" cy="1758.1" r="0.7"/>
				<circle class="st21" cx="-437.8" cy="1756.3" r="0.7"/>
				<circle class="st21" cx="-424.7" cy="1751.5" r="0.7"/>
				<circle class="st21" cx="-421.3" cy="1757.7" r="0.7"/>
				<circle class="st21" cx="-433.6" cy="1754.9" r="0.7"/>
				<circle class="st21" cx="-442.4" cy="1757.4" r="0.7"/>
				<path class="st7" d="M-461.6,1763.8c0,0,12,8.2,24.4,4.8c10-2.8,20.3-3.7,30.6-2.7c7.9,0.7,9.9-2.1,9.9-2.1
					c0.6-0.9,0.9-1.9,1-2.9c0-0.2,0-0.4,0.1-0.6c0.1-1.5-0.1-3-0.3-4.5c-1.6,1.2-5,2.7-11.9,2.9c-11.9,0.4-27.6,3.4-27.6,3.4
					l-15.2-0.6c0,0-8.5-1.8-8.5-5C-463.1,1759.1-461.6,1763.8-461.6,1763.8z"/>
				<path class="st20" d="M-440.4,1766.8c0.2,0,0.5,0.1,0.8,0.1c2.7,0,9.1-1.4,13-2.3c1.1-0.3,2.2-0.4,3.3-0.5
					c3.6-0.2,12.3-0.6,17.2-0.6h0.1c3.6-0.1,7.1-1,10.3-2.5c0-0.2,0-0.4,0.1-0.6c-3.3,1.6-6.8,2.5-10.5,2.6
					c-4.9,0-13.7,0.4-17.2,0.6c-1.2,0.1-2.3,0.2-3.4,0.5c-3.4,0.8-11.6,2.6-13.5,2.2L-440.4,1766.8z"/>
				<path class="st22" d="M-434.3,1634.4c0,0.8-0.1,1.3-0.1,1.3l4.5,27.5c0.8,0.8,1.6,1.5,2.3,2.2c2.3,2.1,4.4,4.3,6.3,6.7
					c2.7,4.2,12.2,2,12,1.6s-4.1-20-4.1-20l-3.1-7.9c0,0-3.2,2-6.4-1.3c-2-2.1-6.4-6.2-9.5-9l-2.1-1.9
					C-434.3,1633.9-434.3,1634.2-434.3,1634.4z"/>
				<path class="st19" d="M-442.7,1591.1c0,0.2,0,0.4,0,0.6c0.1,0.6,0.1,1.2,0.2,1.9c0.7-0.2,1.3-0.5,2-0.8l0.9-0.4
					c2.9-1.4,5.7-3.1,8.3-5.1l-7.8-3.3l-2.3-1c-0.6,0.3-1.2,0.8-1.5,1.3C-443.2,1584.8-443,1587.5-442.7,1591.1z"/>
				<path class="st17" d="M-509.4,1597.9c0.2,0.3,0.4,0.6,0.6,1c4.3,6.4,9.9,11.7,16.5,15.8c2.9,1.8,5.7,3.8,6.6,5.1
					c1.9,2.9,33.2,23.2,33.2,23.2s14.6,12.9,23.4,21.5l1.1,1.1l0.5,0.5c0.7,0.6,1.2,1.2,1.8,1.8c0.8,0.8,1.4,1.5,1.9,2.1
					c0.2,0.2,0.4,0.4,0.5,0.6c0.2,0.2,0.3,0.4,0.5,0.6c2.7,4.2,12.2,2,12,1.6s-4.1-20-4.1-20l-3.1-7.9c-1.2,0.7-2.7,0.8-4,0.3
					c-0.9-0.4-1.7-0.9-2.3-1.6c-2-2.1-6.4-6.2-9.5-9c-1.8-1.6-3.1-2.8-3.1-2.8l-10-11.6c0,0-12.9-16.8-22.5-20.9
					c0,0,10.9-4.5,18.6-5.6c3-0.3,5.9-1,8.6-2.1l0.9-0.4c2.9-1.4,5.7-3.1,8.3-5.1l-7.7-3.3l-40.9-17.6c-0.2,0-2.6,0.2-4.4,0.3
					l-1.8,0.1c0,0-15.2,15.8-16,17.4S-513.6,1591.4-509.4,1597.9z"/>
				<path class="st22" d="M-464.4,1590.5c0,0-17.6,2.1-21,5.8c0,0,15.4,1.1,16,3.1c0,0-8.8-6-11.3-4.5L-464.4,1590.5z"/>
				<path class="st19" d="M-428,1665.4l0.5,0.5c0.7,0.6,1.2,1.2,1.8,1.8c0.8,0.8,1.4,1.5,1.9,2.1l2.3-2.9c-0.8-0.7-1.6-1.2-2.6-1.6
					C-425.3,1664.7-426.7,1664.8-428,1665.4L-428,1665.4z"/>
				<path class="st20" d="M-426.8,1672c0.6,0.3,1.2,0.6,1.8,0.8l1.8-2.4l2.3-3c-0.8-0.7-1.6-1.2-2.6-1.6c-1.3-0.6-2.7-0.5-3.9,0.1
					c-0.9,0.6-1.6,1.4-2.1,2.3C-429.5,1668.3-430.2,1670.3-426.8,1672z"/>
				<path class="st19" d="M-427.2,1671.6l0.4,0.4c0.6,0.3,1.2,0.6,1.8,0.8l1.8-2.4c0.2,0.2,0.3,0.4,0.5,0.6c2.7,4.2,12.2,2,12,1.6
					s-4.1-20-4.1-20l-3.1-7.9c-1.2,0.7-2.7,0.8-4,0.3c-0.7,0.7-0.8,1.6,0,2.8c1.8,2.7,2.8,5.7,3,8.9c1.2,3.3-2.5,7.4-4.6,9.1
					c-0.4,0.3-0.7,0.5-1.1,0.8s-0.8,0.7-1,1.1C-426.3,1669-426.8,1670.3-427.2,1671.6z"/>
				<path class="st20" d="M-426.1,1671.6l4.1,4.1c5.7,3.6,10,9,12.3,15.4c0.4,1.2,0.9,2.4,1.5,3.6c0.6,1.6,1,3.3,1.1,5
					c0.1,1,0.1,2.1,0.2,3c0,1.1,0.5,2.2,1.2,3.1l0.1,0.1c1.7,1.9,4.6,2.1,6.6,0.6c0.1-0.1,0.2-0.2,0.2-0.2c6.7-5.5,3.4-30.6,1.2-34
					c-2.2-3.5-2.6-21.4-3.4-27.1c-0.4-2.7-1.8-3.5-3.6-3.6c-1.8-0.1-4.3,0.7-6.3,1h-0.3c-4.2,0.3-12.1,1.6-9.4,5.4
					c1.8,2.7,2.8,5.7,3,8.9c1.5,4.1-4.5,9.3-5.7,9.8S-426.1,1671.6-426.1,1671.6z"/>
				<circle class="st21" cx="-420.3" cy="1669.1" r="1.2"/>
				<circle class="st21" cx="-418.4" cy="1673.5" r="1.2"/>
				<circle class="st21" cx="-412.9" cy="1680.7" r="1.2"/>
				<circle class="st21" cx="-415.6" cy="1677" r="1.2"/>
				<circle class="st21" cx="-410.6" cy="1684.9" r="1.2"/>
				<path class="st7" d="M-405.9,1688.6c0,0,1,11.6,0,17.1c1.7,1.9,4.6,2.2,6.6,0.6c0.1-0.1,0.2-0.2,0.2-0.2
					c6.7-5.5,3.4-30.6,1.2-34c-2.2-3.5-2.6-21.4-3.4-27.1c-0.4-2.7-1.8-3.5-3.6-3.6c-1.8-0.1-4.3,0.7-6.3,1c0,5.7,0.3,18.7,1.8,23.1
					C-407.5,1671-405.9,1688.6-405.9,1688.6z"/>
				<path class="st7" d="M-402.9,1664.9c1.2,4.4,3.1,16.4,3,22.9c-0.1,4.7,0.4,13.9,0.7,18.5c0.1-0.1,0.2-0.2,0.2-0.2
					c6.7-5.5,3.4-30.6,1.2-34c-2.2-3.5-2.6-21.4-3.4-27.1c-0.4-2.7-1.8-3.5-3.6-3.6C-404.6,1647.2-403.9,1661.4-402.9,1664.9z"/>
				<path class="st20" d="M-407.5,1641.7c0.2,4.6,1,16.8,2.2,20.3c1.5,4.4,3.2,25.3,3.2,26.2h-0.5c0-0.2-1.7-21.7-3.2-26
					c-1.3-3.6-2-15.7-2.2-20.3L-407.5,1641.7z"/>
				<path class="st23" d="M-411.4,1416.5c0,0-8.7,1.5-13.6,3.4c-4.9,1.8-5.6,2.8-5.6,2.8l-5.1,0.8v-5.4c0,0-18.2,1.3-20.1,0.6
					c0,0-0.1,0-0.1-0.1c-0.9-0.9,0.5,7.1-0.8,8.8c-1.3,1.7-7.1,7.6,3.7,11.9s35.3,4.8,35.3,4.8l7-13.8L-411.4,1416.5z"/>
				<path class="st17" d="M-384,1442.8l-19.3-4.1c2.7-4.6,4.6-9.6,5.6-14.8c0.7-4.1,0.6-8.5-1.3-12.4c-5.5-11.3,15-17.2,15-17.2
					s7.5,11.6,14.3,17.5c2.3,2,4.5,3.3,6.2,3.3C-356.3,1415.1-384,1442.8-384,1442.8z"/>
				<path class="st7" d="M-487.8,1567.2c0,0,8.4,19.8,16,20.2c4.6,0.2,18.9,2.2,29.5,3.7l1,0.1c2.9-1.4,5.7-3.1,8.3-5.1l-7.7-3.3
					l-40.9-17.6c-0.2,0-2.6,0.2-4.4,0.3L-487.8,1567.2z"/>
				<path class="st7" d="M-427.7,1584.5c7.3,1.1-2,8.4-2,8.4s3.6,2.7,7.7,12.5s6.1,9.1,6.1,9.1l11.4,0.6c0.3-5,0.7-8.7,0.7-8.7
					l-7.8-18.9l-9.1-12c0,0-15.2,4.2-20.4,7.1l-0.2,0.1c-0.6,0.3-1.2,0.7-1.5,1.3C-443.2,1584.8-428.1,1581-427.7,1584.5z"/>
				<path class="st7" d="M-384,1442.8l-19.3-4.1c2.7-4.6,4.6-9.6,5.6-14.8l6,5.8c2.9,0,5.8-0.8,8.3-2.4c1.1-0.7,2-1.6,2.8-2.6
					c4.3-5.3,9.5-12.3,9.5-12.3s0.6-0.3,1.4-0.6c2.3,2,4.5,3.3,6.2,3.3C-356.3,1415.1-384,1442.8-384,1442.8z"/>
				<path class="st23" d="M-487.8,1565.5c0,0,8.4,19.8,16,20.2c7.7,0.4,42,5.5,42,5.5s3.6,2.7,7.7,12.5s6.1,9.1,6.1,9.1l13.2,0.7
					l2.5-15c0,0,1.4-5.5,10.2-21.3c8.8-15.7,9.6-32.9,9.6-32.9s2.7-5.2,2-7.5s-3-20.7-3.2-22.7s3.9-10.7,3.9-10.7s7.9-10.7,7.7-12.3
					s3-6.2,3-6.2l7.2-11.7c-0.8,1.8-0.5,3.9,0.7,5.5c2.1,2.9,0.3,8.6,0.3,8.6l0.4,7.2l0.1,1.7c0,0-1.1,1.1-4,3.8
					c-2.9,2.7-1.5,3-1.5,3c9.1-1.2,16.3,13.6,16.3,13.6s7.7-5.3,11.6-10c0.4-0.5,0.8-1.1,1-1.7c2.4-5.9-0.1-18.7-0.1-18.7
					c3.1-5.5-0.8-10.5-0.8-10.5c2.5-6.8-2-13.9-2-13.9l-0.4-15.5c2-4.1-4.8-14.3-4.8-14.3s-1.6-7.7-3-8.4c-1.4-0.7-3-3.9-3-3.9
					c0.2-3.6-9.3-3.9-10.2-4.1c-1.1-0.5-2.2-1.1-3.2-1.9c-0.9-0.6-1.9-1.2-2.8-1.7c-1.6-0.7-5.9,1.3-5.9,1.3s-5.2,7-9.5,12.3
					c-0.8,1-1.7,1.9-2.8,2.6c-2.5,1.6-5.3,2.4-8.2,2.4l-6.2-5.9l-18.2,1.1l-4.2,20.9c-9.3,7.7-5.7,16.4-5.9,22.2
					c-0.2,5.8-1.1,12.5-1.1,12.5s-3.9,6.4-3.4,9.8s-2.9,8.9-2.9,8.9s-5,5.5-4.5,9.1s-0.9,8.2-0.9,8.2s-3.4,6.2-2,9.8
					s0.7,5.5,0.7,5.5s-7.3,1.1-7.9,5s-7.1,5.3-7.1,5.3s-11.8,4.3-14.7,6.2S-487.8,1565.5-487.8,1565.5z"/>
				<path class="st7" d="M-337.7,1478.2c0,0-13.4,1.6-15,3.6s13.4,2.1,13.4,2.1L-337.7,1478.2z"/>
				<path class="st7" d="M-357.5,1488.8c0,0,9.8-3.5,10.1-2.4s-10.1,7-10.1,7V1488.8z"/>
				<path class="st7" d="M-361.6,1469.8c-1.7,2.7-15.8,20-15.8,20l15.2-22.1L-361.6,1469.8z"/>
				<path class="st7" d="M-363.7,1465c-1.1,1.4-12.4,20-12.4,20l11.4-20.9L-363.7,1465z"/>
				<path class="st7" d="M-340,1442.8c0,0-4.4-6.2-8.7-2.2C-352.9,1444.5-340,1442.8-340,1442.8z"/>
				<path class="st7" d="M-370.6,1437.5c0,0-11.2,0-16.6,2.5S-382.4,1432.5-370.6,1437.5z"/>
				<path class="st7" d="M-383.4,1429.1h1.6c0,0,3.8-1.4,4.8-4.4s8.7-0.3,8.7-0.3s1.1,0.8,0.1-0.5s3.4-5.7,5.3-8.6
					c0.2-0.2,0.3-0.5,0.3-0.7c-0.9-0.6-1.9-1.2-2.8-1.7c-1.6-0.7-5.9,1.3-5.9,1.3s-5.2,7-9.5,12.3
					C-381.4,1427.6-382.3,1428.4-383.4,1429.1z"/>
				<path class="st23" d="M-383.4,1428.1h1.6c0,0,3.8-1.4,4.8-4.4s8.7-0.3,8.7-0.3s1.1,0.8,0.1-0.5s3.4-5.7,5.3-8.6
					c0.2-0.2,0.3-0.5,0.3-0.7c-0.9-0.6-1.9-1.2-2.8-1.7c-1.6-0.7-5.9,1.3-5.9,1.3s-5.2,7-9.5,12.3
					C-381.4,1426.5-382.3,1427.3-383.4,1428.1z"/>
				<circle class="st24" cx="-396.6" cy="1439.3" r="1.2"/>
				<circle class="st24" cx="-416.9" cy="1467" r="1.2"/>
				<circle class="st24" cx="-409.6" cy="1449.5" r="1.2"/>
				<circle class="st24" cx="-420.2" cy="1485" r="1.2"/>
				<circle class="st24" cx="-435.3" cy="1516.1" r="1.2"/>
				<circle class="st24" cx="-436.5" cy="1532" r="1.2"/>
				<path class="st17" d="M-453.8,1416.5l2.4,7.8l7.6-0.5l6.8-7.2c0,0,0.4-1.3,1.1-3.2c1.7-4.8,4.9-13.5,6.7-16.2
					c2.5-3.7,4.1-19.3,4.1-19.3s-2.7-6.2-10.6,6.2c-5.9,9.4-13.2,23-16.5,29.2C-453.2,1415.3-453.8,1416.5-453.8,1416.5z"/>
				<path class="st17" d="M-420.2,1525.4c0,1.9,8,2.8,11.8,3.1l1.9,0.1c-0.9,2,3.8,17.4,3.8,17.4c0.4,0,0.8-0.1,1.2-0.2
					c6.2-1.3,18.6-9.9,18.6-9.9s0.3-3,13-8.1c9.4-3.8,16.4-11,19.7-14.5c0.6-0.7,1.3-1.4,2-2.1l-11.3-11.7c0,0-1.8,1.7-4.2,4
					c-4.4,4.2-10.8,10.3-11.4,11.4c-1,1.8-18.7,10.4-18.7,10.4c-3.9-3.4-12.4-4.1-12.4-4.1S-420.2,1522.9-420.2,1525.4z"/>
				<path class="st7" d="M-399.2,1485.1c-0.5,1.1-24.7,17.2-28.9,17.4c-4.1,0.3,3.8-7.7,4.1-7.8
					C-423.7,1494.6-399.2,1485.1-399.2,1485.1z"/>
				<path class="st7" d="M-529.8,1740.4l-0.9-0.2L-529.8,1740.4z"/>
				<path class="st25" d="M-459.2,1756.6c1.2-0.7,2.4-1.1,3.8-1.3c2.5,0.3,5,0.2,7.5-0.2c-0.6,2.1-0.8,4.4-0.6,6.6l-2.3-0.1
					C-450.7,1761.6-459.2,1759.8-459.2,1756.6z"/>
				<path class="st7" d="M-529.3,1740.5l-0.5-0.1L-529.3,1740.5z"/>
				<path class="st7" d="M-542,1735.4"/>
				<path class="st7" d="M-542,1735.4"/>
				<path class="st7" d="M-529.8,1740.4L-529.8,1740.4L-529.8,1740.4z"/>
				<path class="st25" d="M-407.3,1699.6c0.1,1,0.1,2.1,0.2,3c0,1.1,0.5,2.2,1.2,3.1l0.1,0.1c0.3-2.1,0.4-4.2,0.4-6.4
					C-405.6,1699.6-406.4,1699.7-407.3,1699.6z"/>
				<path class="st7" d="M-363.7,1503.5c5.8-0.4,10.8,5.7,13.5,9.8c0.6-0.7,1.3-1.4,2-2.1l-11.3-11.6
					C-359.5,1499.6-361.3,1501.2-363.7,1503.5z"/>
				<path class="st7" d="M-363.8,1501.9c9.1-1.2,16.3,13.6,16.3,13.6s7.7-5.3,11.6-10c0.4-0.5,0.8-1.1,1-1.7
					c-2.1-5.1-8-13.6-23.4-10.4l0.1,1.7c0,0-1.1,1.1-4,3.7C-365.2,1501.6-363.8,1501.9-363.8,1501.9z"/>
				<path class="st23" d="M-363.8,1503c9.1-1.2,16.3,13.6,16.3,13.6s7.7-5.3,11.6-10c0.4-0.5,0.8-1.1,1-1.7
					c-2.1-5.1-8-13.6-23.4-10.4l0.1,1.7c0,0-1.1,1.1-4,3.8C-365.2,1502.7-363.8,1503-363.8,1503z"/>
				<path class="st6" d="M-363.8,1503c9.1-1.2,16.3,13.6,16.3,13.6s7.7-5.3,11.6-10c0.4-0.5,0.8-1.1,1-1.7
					c-2.1-5.1-8-13.6-23.4-10.4l0.1,1.7c0,0-1.1,1.1-4,3.8C-365.2,1502.7-363.8,1503-363.8,1503z"/>
				<path class="st7" d="M-453.8,1416.5l2.4,7.8l7.6-0.5l6.8-7.2c0,0,0.4-1.3,1.1-3.2c-1,0.5-7.5,4.2-11.5,4.4
					c-3.2,0.2-4.3-2.8-4.7-4.4C-453.2,1415.3-453.8,1416.5-453.8,1416.5z"/>
				<path class="st7" d="M-456.2,1419.3l0.5-0.6c1.8-2.1,3.4-3.7,3.4-3.7c0.2,1.4,0.7,2.7,1.5,3.8c0.8,1,2.1,1.6,3.4,1.5
					c2.3-0.3,4.6-1,6.7-2c2.7-1.2,4.9-2.5,4.9-2.5v2.1v2.1v4.9c0,0,1.9,13-15.5,6.1c0,0,1.1-4.8-5.5-3.9L-456.2,1419.3z"/>
				<path class="st23" d="M-435.8,1414.3l0.1,4.3v4.9c0,0,1.9,13-15.5,6.1c0,0,1.3-5.5-7.1-3.6c-8.4,2,6-12.6,6-12.6
					s0.6,5.6,4.9,5.3C-443.1,1418.6-435.8,1414.3-435.8,1414.3z"/>
				<path class="st6" d="M-435.8,1414.3l0.1,4.3v4.9c0,0,1.9,13-15.5,6.1c0,0,1.3-5.5-7.1-3.6c-8.4,2,6-12.6,6-12.6s0.6,5.6,4.9,5.3
					C-443.1,1418.6-435.8,1414.3-435.8,1414.3z"/>
				<path class="st7" d="M-402.7,1550.8c-0.2-0.3-0.9-21.6-3.7-22.2c-2.8-0.5-9.6,2.3-9.6,2.3l1.2,17.1L-402.7,1550.8z"/>
				<path class="st7" d="M-406.5,1528.6c-0.9,2,3.8,17.4,3.8,17.4c0.4,0,0.8-0.1,1.2-0.2c-0.4-6.4-1.4-17.3-3.3-17.7
					c-1.2-0.1-2.5,0-3.6,0.3L-406.5,1528.6z"/>
				<path class="st23" d="M-401.7,1550.3c-0.2-0.3-0.9-21.6-3.7-22.2c-2.8-0.6-9.6,2.3-9.6,2.3l1.2,17.1L-401.7,1550.3z"/>
				<path class="st6" d="M-401.7,1550.3c-0.2-0.3-0.9-21.6-3.7-22.2c-2.8-0.6-9.6,2.3-9.6,2.3l1.2,17.1L-401.7,1550.3z"/>
				<path class="st16" d="M-426.4,1423.4c2.2-3.4,3.4-7.2,4.7-11c0.6-1.8,1.2-3.7,1.6-5.6c3.5,5.1,9,8.5,15.2,9.4
					c0.7,1.4,1.3,2.8,1.8,4.3c1.3,3.8,0.6,7.9-1.8,11.1c-2.5,3-7.1,4.3-10.6,2.5c-1-0.6-2.1-1.2-3.1-1.7c-2.4-0.7-4.8,0.5-7.3,0.9
					c-3.4,0.6-6.9-0.4-9.5-2.8C-431.7,1429.7-428.5,1426.8-426.4,1423.4z"/>
				<circle class="st7" cx="-401.7" cy="1395.8" r="22.2"/>
				<circle class="st17" cx="-401.7" cy="1394.4" r="22.2"/>
				<path class="st16" d="M-418,1387.5c-2.6-1.8-6.4-0.4-9.2-1.9c-1.3-0.9-2.3-2.1-2.8-3.6c-2.4-6.3,1.4-14.3,7.8-16.4
					c1.7-0.6,3.5-0.8,5.2-1.3c4.6-1.4,8.2-5,12.2-7.7c4.1-2.8,8.8-4.7,13.7-5.5c3.6-0.6,7.7-0.6,10.6,1.6c3.3,2.5,4.4,6.9,5.1,11
					s1.4,8.5,4.3,11.5c2.4,2.3,5.7,3.3,8.7,4.7s6,3.8,6.2,7.1c0.2,2.6-1.5,4.9-2,7.5c-0.6,2.9,0.3,5.8,1.3,8.6
					c2.8,7.7,6.5,15.1,11,21.9c-5.5,3.1-11.4,5.2-17.5,6.5c-2.5,0.5-5.2,0.8-7.6,0c-3.1-1-5.4-3.7-6.9-6.6c-1.3-2.6-2.1-5.4-2.3-8.3
					c-0.4-5.8,1.4-11.9-1.2-17.1c-0.5-1.1-1.3-2-2.2-2.6c-1.1-0.7-2.5-0.7-3.7-1.1c-2.1-0.7-3.9-2.2-5.5-3.8l-5.9-5.5
					c-1.3-1.4-2.9-2.5-4.6-3.4c-3.1-1.3-6.8-0.6-9.8,1.1c-2.6,1.5-5.6,3.7-8.3,2.2"/>
				<g class="st14">
					<path d="M-419.8,1387l-1.6-0.4C-420.9,1386.8-420.4,1386.9-419.8,1387z"/>
					<path d="M-419.8,1387l1.8,0.5c-0.3-0.2-0.7-0.4-1-0.5C-419.3,1387-419.6,1387-419.8,1387z"/>
					<path d="M-362.6,1428.5c-2.5,0.5-5.2,0.8-7.6,0c-3.1-1-5.4-3.7-6.9-6.6c-1.3-2.6-2.1-5.4-2.3-8.3c-0.4-5.8,1.4-11.9-1.2-17.1
						c-0.5-1.1-1.2-1.9-2.2-2.6c-1.1-0.7-2.5-0.7-3.7-1.1c-2.1-0.7-3.9-2.3-5.5-3.8l-5.9-5.5c-1.3-1.4-2.9-2.5-4.6-3.4
						c-3.1-1.3-6.8-0.6-9.8,1.1c-1.9,1-3.9,2.5-5.9,2.7c0.4,0.1,0.7,0.3,1,0.5l-1.8-0.5c-0.5,0-1.1-0.2-1.6-0.4l1.6,0.4
						c0.3,0,0.5,0,0.8,0c-2.5-1-5.8,0-8.2-1.4c-1.3-0.9-2.3-2.1-2.8-3.6c-0.7-1.8-0.9-3.8-0.6-5.8c-1.1,2.8-1.1,5.8-0.1,8.6
						c0.5,1.5,1.5,2.8,2.8,3.6c2.4,1.4,5.7,0.4,8.2,1.4c2-0.2,4.1-1.6,5.9-2.7c3-1.7,6.7-2.4,9.8-1.1c1.7,0.9,3.3,2,4.6,3.4l5.9,5.5
						c1.6,1.5,3.4,3.1,5.5,3.8c1.2,0.4,2.6,0.5,3.7,1.1c1,0.6,1.7,1.5,2.2,2.6c2.5,5.2,0.7,11.3,1.2,17.1c0.2,2.9,1,5.7,2.3,8.3
						c1.5,2.9,3.8,5.6,6.9,6.6c2.5,0.8,5.1,0.5,7.6,0c6.2-1.2,12.1-3.4,17.6-6.5c-0.4-0.6-0.8-1.2-1.2-1.9
						C-351.9,1425.6-357.2,1427.4-362.6,1428.5z"/>
					<path d="M-356.2,1387.8c-0.5,1.2-0.9,2.5-1.2,3.8c-0.1,0.3-0.1,0.6-0.1,0.8C-356.9,1390.9-356.4,1389.4-356.2,1387.8z"/>
				</g>
				<path class="st7" d="M-404.9,1430c-2.5,3-7.1,4.3-10.6,2.5c-1-0.6-2.1-1.2-3.1-1.7c-2.4-0.7-4.8,0.5-7.3,0.9
					c-2.9,0.5-5.8-0.2-8.2-1.8c-0.4,0.2-0.9,0.3-1.3,0.4c2.6,2.3,6.1,3.3,9.5,2.8c2.5-0.4,4.9-1.7,7.3-0.9c1.1,0.5,2.1,1,3.1,1.7
					c3.5,1.8,8,0.5,10.6-2.5c1.8-2.2,2.6-5.1,2.4-7.9C-402.6,1425.8-403.4,1428.1-404.9,1430z"/>
			</g>
		</g>
	</g>
</g>
</svg>
