<?xml version="1.0" encoding="utf-8"?>
<!-- Generator: Adobe Illustrator 19.0.0, SVG Export Plug-In . SVG Version: 6.00 Build 0)  -->
<svg version="1.1" id="图层_1" xmlns="http://www.w3.org/2000/svg" xmlns:xlink="http://www.w3.org/1999/xlink" x="0px" y="0px"
	 viewBox="-892 1079.1 1049.6 678.6" style="enable-background:new -892 1079.1 1049.6 678.6;" xml:space="preserve">
<style type="text/css">
	.st0{fill:#6C63FF;}
	.st1{fill:#514E7F;}
	.st2{fill:#464353;}
	.st3{fill:#A1616A;}
	.st4{opacity:0.1;enable-background:new    ;}
	.st5{fill:#8DD070;}
	.st6{opacity:0.2;enable-background:new    ;}
	.st7{fill:#504F60;}
	.st8{fill:#33323D;}
	.st9{fill:#FBBEBE;}
	.st10{opacity:5.000000e-02;enable-background:new    ;}
	.st11{fill:#3F3D56;}
	.st12{fill:url(#SVGID_1_);}
	.st13{fill:#2D293D;}
	.st14{opacity:5.000000e-02;}
	.st15{fill:#FFCDD3;}
	.st16{fill:#575988;}
	.st17{opacity:0.1;}
</style>
<g id="_x23_man_x28_hold_x5B_money_x5D__x29_">
	<path class="st0" d="M-488,1505.3c6.6,0.8,13.5,1.4,19.9-0.7c1-0.3,2.1-1,2-2c-0.1-0.4-0.2-0.7-0.5-1c-2.4-3.6-4.4-7.4-6-11.4
		c-0.1-0.2-0.2-0.4-0.4-0.5c-0.2-0.1-0.4-0.1-0.6,0c-2.9,0.8-5.5,2.7-8.4,3.5c-1.5,0.4-3,0.5-4.6,0.3c-1.3-0.2-3.1-1.2-4.3-1.1
		C-490.1,1496.8-488.5,1500.9-488,1505.3z"/>
	<path class="st0" d="M-362.6,1494.3c4.4-3,8.9-6.2,11.5-10.8c0.2-0.3,0.3-0.6,0.3-0.9s-0.2-0.6-0.4-0.9c-2.5-3.9-5.6-7.3-9.3-10.1
		c-1.9,1.4-3.7,3-5.2,4.8c-1.1,1.2-4.1,3-4.2,4.8c0,1,1.2,2.2,1.7,3c0.7,1.1,1.4,2.2,2.1,3.3C-365.7,1488-362.2,1494-362.6,1494.3z"
		/>
	<path class="st1" d="M-462,1518.7c0.1,1-0.2,2.1-0.8,2.9c-0.5,0.5-1,0.8-1.7,1c-9.3,3.3-20-0.8-29.2,2.5c-1.9,0.7-3.7,1.6-5.6,2.3
		c-2.3,0.7-4.6,1.1-7,1.2c-3.3,0.3-6.6,0.5-9.8,0.6c-2.5,0.2-5,0-7.4-0.7c-2.5-0.6-4.5-2.3-5.7-4.5c-0.5-1-0.6-2.1-0.3-3.2
		c0.1-0.4,0.4-0.7,0.6-1c0.6-0.7,1.4-1.3,2.2-1.8l3.4-2.2c1.6-1.1,3.3-2.1,5.2-2.7c1.4-0.4,2.8-0.6,4.1-1c4.8-1.4,8.5-5.2,11.9-8.8
		l4.6-5c0.4-0.5,1-1,1.6-1.3c0.6-0.2,1.3-0.3,2-0.2c4.5,0.3,8.9,1.8,12.6,4.2c1,0.7,2,1.3,3.1,1.8c2.7,1.1,6.2,0.3,8.7-1.1
		c1.2-0.6,0.9-1,1.4-2.1s1.7-1.9,2.8-0.8c0.3,0.4,0.5,0.8,0.7,1.3c1,3.3,0.6,6.8,0.6,10.3c0,0.5,0,1.1,0.2,1.6
		c0.3,0.5,0.6,1,0.9,1.5c0.1,0.1,0.1,0.2,0.2,0.4C-462,1515.4-461.8,1517.1-462,1518.7z"/>
	<path class="st2" d="M-462,1518.7c0.1,1-0.2,2.1-0.8,2.9c-0.5,0.5-1,0.8-1.7,1c-9.3,3.3-20-0.8-29.2,2.5c-1.9,0.7-3.7,1.6-5.6,2.3
		c-2.3,0.7-4.6,1.1-7,1.2c-3.3,0.3-6.6,0.5-9.8,0.6c-2.5,0.2-5,0-7.4-0.7c-2.5-0.6-4.5-2.3-5.7-4.5c-0.5-1-0.6-2.1-0.3-3.2
		c0.1-0.4,0.4-0.7,0.6-1c0.5,1.1,0.9,2.6,1.3,3.2c0.9,1.6,2.5,2.8,4.3,3.1c1.4,0.1,2.7-0.1,4-0.5c8.4-2.1,17.3-2.1,25.4-5.3
		c2.8-1.1,5.4-2.5,8.3-3.2s6-0.5,9-0.7c4.7-0.4,9.3-1.8,14-2.6C-462,1515.4-461.8,1517.1-462,1518.7z"/>
	<path class="st1" d="M-341.3,1493.7c-0.4,3.5-2.7,6.5-5.1,9.1s-5.2,4.9-7.2,7.8c-2.4,3.7-3.5,8.2-6.6,11.3c-1.2,1.1-2.5,2.1-4,2.8
		c-1.6,1-3.4,1.8-5.2,2.4c-4.7,1.5-9.7,1.2-14.5,0.8c-1.6,0-3.1-0.3-4.6-0.9c-0.7-0.3-1.3-0.7-1.9-1.2c-1.2-0.8-2.2-1.8-3-3
		c-0.4-0.7-0.5-1.4-0.3-2.2c0.3-0.8,0.8-1.5,1.4-2.1c1.1-1.1,2.3-2.2,3.5-3.2c1.7-1.1,3.3-2.5,4.6-4c0.8-1.2,1.4-2.6,1.8-4
		c0.7-2.5,1.1-5.1,1.3-7.7c0-1.7,0.2-3.4,0.5-5.1c0.7-2.6,2.7-5,2.5-7.7c-0.1-0.4-0.1-0.8,0.1-1.2c0.2-0.3,0.6-0.5,0.9-0.6
		c1.5-0.6,3.1-1,4.8-1.1c1.7-0.1,3.3,0.5,4.4,1.7c0.7,0.8,1.1,2,2.1,2.3c0.5,0.1,1,0.2,1.5,0.1c2.5-0.2,5.1-0.6,7-2.2
		c1.8-1.6,2.9-3.9,2.9-6.4c0-0.9-0.4-1.9,1-2c1.1-0.1,1.9,1,2.4,1.7c2,2.6,4,5.3,4.7,8.5c0.3-0.1,0.6-0.2,0.9-0.2
		c1.3,0,2.5,0.6,3.2,1.6C-341.4,1490.6-341.1,1492.2-341.3,1493.7z"/>
	<path class="st2" d="M-341.3,1493.7c-0.4,3.5-2.7,6.5-5.1,9.1s-5.2,4.9-7.2,7.8c-2.4,3.7-3.5,8.2-6.6,11.3c-1.2,1.1-2.5,2.1-4,2.8
		c-1.6,1-3.4,1.8-5.2,2.4c-4.7,1.5-9.7,1.2-14.5,0.8c-1.6,0-3.1-0.3-4.6-0.9c-0.7-0.3-1.3-0.7-1.9-1.2c-1.2-0.8-2.2-1.8-3-3
		c0.9-0.5,2-0.7,3-0.7c2.2,0.1,3.7,2.2,5.8,2.8c3,0.9,5.9-1.2,8.9-1.9c2-0.5,4-0.3,5.9-1c1.6-0.6,3.1-1.5,4.4-2.7
		c1.8-1.3,3.4-2.8,4.7-4.5c1.1-1.7,2-3.6,2.8-5.5c1.6-3.7,3.4-7.2,5.6-10.6c0.3-0.5,0.7-1,1.1-1.5c0.5-0.4,1-0.7,1.5-1.1
		c2-1.5,2.8-4,3.5-6.4c0.2-0.7,0.5-1.5,0.8-2.2c1.3,0,2.5,0.6,3.2,1.6C-341.4,1490.5-341.1,1492.1-341.3,1493.7z"/>
	<path class="st3" d="M-551,1181.9c2.5,1.9,4.5,4.3,6,7c1.4,2.7,9.5,24,9,27.1c2.6-2.6,13-3.1,15.7-5.7c1.1-1.1,7.1-6.7,8-7.9
		c0.9-1.2,7.6-4,8.3-5.4c2.7-4.9-19.4-23.4-16.5-28.2c0.2-0.2,0.2-0.5,0.2-0.8c-0.1-0.2-0.2-0.4-0.4-0.6c-1.8-1.9-4.2-3-6.4-4.4
		s-4.3-3.3-4.9-5.8c-2.1,1-4,2.2-5.6,3.8c-4.1,3.5-8,7-12,10.6c-1.5,1.4-4.5,3.3-5.2,5.3C-555.6,1179.1-552.5,1180.7-551,1181.9z"/>
	<path class="st1" d="M-515.3,1174c-3.4,2.3-6.6,4.9-9.5,7.7c-2.7,2.7-5.3,5.9-6,9.6c-0.3,1.5-0.2,3-0.5,4.5
		c-1,6.6-6.7,11.4-9.2,17.5c-0.7,1.9-1.3,3.9-1.6,5.9c-0.7,3.8-1.1,7.6-1.1,11.5c-0.1,3.7,3.6,6.3,4.9,9.8s1.7,7.1,2.4,10.6
		c1.3,6.7,3.6,13.2,6,19.7c4.9,13.6,20.9,51.3,25.8,64.9c15.1-3.8,55.3-12.5,68.7-20.5c4.5-2.7-31-32.7-26.2-34.7
		c1-0.2,1.6-1.1,1.5-2c0-0.2-0.1-0.3-0.1-0.5c-4.8-20.9-19.7-38-26.5-58.3c-2.4-7-6.6-13.1-9.8-19.8c-2.9-6.1-4.5-12.8-7.9-18.6
		c-0.7-1.2-1.5-2.3-2.5-3.1c-0.9-0.7-1.8-1.2-2.8-1.7C-511.5,1175.5-513.3,1175-515.3,1174z"/>
	<circle class="st3" cx="-550.2" cy="1155.9" r="23.6"/>
	<path class="st2" d="M-526.2,1167c2.4-2.2,5.9-2.7,8.9-1.3c1.6,0.8,3,2.5,2.6,4.3l11.7,0.2c1.9-0.1,3.7,0.1,5.6,0.5
		c1.8,0.4,3.5,1.4,4.6,2.9c0.1,0.2,0.3,0.4,0.5,0.4s0.4-0.1,0.5-0.2c1.8-0.9,3.8-1.3,5.8-1c6.3,0.4,12.2,3.6,17.2,7.5
		c0.9,0.6,1.6,1.5,2,2.5c0.4,1.3-0.1,3,1,3.9c0,11,3.8,21.3,6.3,32c0.5,1.9,2.3,3.6,3.5,5.1c1.6,1.7,2.8,3.6,3.8,5.7
		c2.1,5.6-0.8,12.1,1.3,17.7c0.9,2.4,2.6,4.3,4,6.4c1.9,2.4,3.1,5.2,3.4,8.2c0.1,1.3-0.1,2.7,0,4c0.1,1.8,0.5,3.6,1,5.3
		c0.9,3.2,1.7,6.5,2.7,9.7c1.5,5.2,3.5,10.8,8.2,13.6c-11.2,1.9-23.1,3.8-33.8-0.1c-1.5-0.5-2.9-1.2-4.2-2.1
		c-3.9-2.8-5.7-7.5-7.4-11.9c-1.9-5-3.8-10.1-4.1-15.4c0-1.7-0.2-3.4-0.7-5c-1.1-2.9-4-4.6-6.6-6.3c-3-1.6-5.7-3.7-8-6.2
		s-3.5-5.9-3.2-9.3c0.2-1.6,0.9-3.2,0.9-4.9c0-1.7-0.7-3.6-2.3-4c-8.2-2.5-12.1-12.2-13.9-20.5c-0.8-4.3-1.1-8.7-1-13.1l-0.1-8.5
		c-2.3-2.1-3.6-5-3.7-8.1c0.1-0.9,0.1-1.8,0-2.7c-0.4-1.1-1-2.1-1.9-2.9C-523.5,1171.4-525,1169.3-526.2,1167z"/>
	<path class="st2" d="M-551.3,1194c-0.3,2.6,0.3,5.4-0.3,7.9c-0.2,1-0.6,2-0.9,2.9c-0.9,3.7-0.5,7.6,1.1,11.1s3.5,6.7,5.7,9.9
		c0.7,1.1,1.4,2.2,1.8,3.4c0.4,1.3,0.6,2.6,0.7,3.9c0.6,5.3,1.5,10.5,2.8,15.7c1.1,4.5,13.8,42.8,16.8,46.3c0.5,0.8,1.4,1.3,2.3,1.5
		c0.7,0,1.3-0.1,1.9-0.4l6-2.3c0.5-0.2,1-0.4,1.4-0.8c0.6-0.7,0.9-1.5,0.9-2.4c0.4-4.9-12.3-43.5-13.9-48.1
		c-4.9-13.9-11.4-27.3-14.6-41.7c-0.9-4-1.4-10.2-4.3-13.4c-1.2-1.3-0.8-0.8-2.2-0.1c-0.7,0.3-1.4,0.7-2.1,1.1
		C-550.1,1190-551.2,1191.9-551.3,1194z"/>
	<path class="st2" d="M-435.9,1280.7"/>
	<path class="st0" d="M-533.1,1220.4c1.6,8.5,3.3,17,4.9,25.5l23.5-6.1c0.2-2.5-1.1-4.7-2-7c-2.1-5.4-2.2-11.4-3.9-16.9
		c-1.3-4.2-3.6-8.1-4.8-12.3c-0.7-2.5-1.1-5-1.8-7.5c-0.8-2.4-1.7-4.8-2.8-7.1c-1.3-3.4-3-6.5-5.1-9.5c-3,1.1-6.2,2.4-7.9,5.1
		c-0.9,1.5-1.4,3.2-1.5,5c-0.4,5.3,1.5,10.6,0.9,15.8C-534.3,1210.4-534.1,1215.5-533.1,1220.4z"/>
	<path class="st2" d="M-504.3,1333.6c1.3,5-0.6,10.3-2.1,15.2c-2.3,7.5-3.9,15.1-4.8,22.9c-0.1,2-0.5,3.9-1.2,5.8
		c-0.7,1.7-2,3.1-2.9,4.7c-2.4,4.2-2.3,9.3-1.8,14.1c0.3,3.1,0.9,6.3,1.5,9.4c0.8,3.8,1.7,7.8,0.6,11.5c1.9-0.4,3.1,2,3,3.9
		c-0.1,1.9-0.7,4,0.2,5.6c2.3,0.8,2.3,4,2.2,6.5c0,4.2,0.6,8.5,1.6,12.6c3.5,16.7,7.2,33.4,11.1,50.1c8.5,2.6,18.3,5.3,26.4,1.7
		c1.5-0.7,3-1.7,3.3-3.4c0.1-0.9,0-1.8-0.3-2.6l-3.8-13.9c-0.9-3.4-1.9-6.8-1.4-10.3c0.4-2.6,1.5-5.3,0.2-7.6
		c-0.4-0.8-1.1-1.4-1.6-2.1c-2-2.9-1-6.9-0.8-10.4c0.1-0.8,0-1.6-0.2-2.4c-0.3-0.9-0.7-1.8-1.1-2.6c-3.2-6.1-4.7-13-4.4-19.9
		c0.1-0.9,0-1.8-0.4-2.6c-0.2-0.3-0.5-0.7-0.6-1.1c-0.1-0.6-0.1-1.3,0.2-1.9c-1.1-0.9-2.2-1.9-3.1-3c2-1.3,2.6-3.9,1.4-5.9
		c-0.2-0.3-0.4-0.6-0.6-0.8c1.2-0.2,2-1.4,1.8-2.6c-0.1-0.5-0.3-0.9-0.7-1.2c-0.5-0.3-1.1-0.5-1.5-1c-0.5-0.7-0.1-1.8,0.3-2.6
		l2.3-4.2c1.7-3.1,2.1-7,4-10c2.7-4.4,4.4-9.2,6.2-14.1l6.7-18.6l4.5,3.9c1.5,1.2,2.8,2.6,3.7,4.2c0.6,1.6,1.1,3.3,1.2,5.1
		c1.7,10.1,8,18.8,10.3,28.8c0.5,2.2,0.9,4.5,2.1,6.4c0.5,0.6,0.9,1.2,1.2,1.8c0.3,1,0.5,2,0.5,3c0.4,4.1,2.6,7.8,6,10.2
		c2.2,1.5,5,2.6,6.2,5c0.2,0.7,0.6,1.5,1,2.1c1.1,1.3,3.4,1.5,3.9,3.1c0.3,0.9-0.2,2,0.3,2.8c0.3,0.4,0.7,0.7,1.1,0.8l6.5,3.2
		c7.3,3.6,11,12,16.4,18.1c1.9,2,3.5,4.2,4.9,6.5c2.3,4.1,3.4,9.4,7.3,12c1.1,0.5,2,1.3,2.8,2.1c1.2,1.6,0.8,3.9,0.9,5.9
		s1.7,4.5,3.6,3.8c-0.7,2.5-0.7,5.1,0,7.5c8.5-0.4,16.6-3.7,23.1-9.3c1.9-1.7,3.7-3.8,3.8-6.3c0-0.4-0.1-0.9-0.3-1.2
		c-0.4-0.5-0.9-0.9-1.5-1.1c-6.1-3.3-7.9-11-11-17.2c-2.7-5.5-6.7-10.2-10-15.3c-7.2-11-12.2-24.2-23.1-31.4c-2.4-1.6-5.2-3-6.4-5.6
		c-0.7-1.5-0.8-3.1-1.3-4.7s-1.8-3-3.4-3c0.9-2.2,0.7-4.9,0.8-7.3c0.1-1.1-0.1-2.1-0.4-3.1c-0.4-1.1-1-2.1-1.6-3.1
		c-2.9-4.8-4.3-10.4-4.1-16c0.1-2.9,0.6-5.9-0.3-8.6c-0.4-1.4-1.2-2.7-1.7-4c-0.8-2.4-1.2-5-1.2-7.5l-0.6-9.6
		c-0.1-3.2-0.5-6.4-1.2-9.5c-2-7.5-4-38.7-10.8-42.2s-18.6,20.5-26.3,21c-3.4,0.1-6.8,0.8-10,1.9c-5.1,1.9-9.4,5.5-13.6,9
		l-14.2,11.9C-498.6,1329.5-501,1331.9-504.3,1333.6z"/>
	<path class="st2" d="M-572.4,1129.6c3.1-4.3,8.5-6.5,13.8-6.7s10.5,1.5,15.2,3.8c1.4,0.8,2.9,1.4,4.4,1.8c2.5,0.5,5.3-0.2,7.5,1
		c3,1.6,3.6,5.6,3.3,9s-0.9,7.1,0.9,10c0.6,0.8,1.2,1.7,1.7,2.6c0.8,1.7,0.3,3.7-0.1,5.6c-1.2-1-1.8-2.5-2.9-3.7
		c-1.1-1.2-2.9-1.9-4.1-1.1s-1.3,2.4-1.3,3.9s-0.4,3.1-1.8,3.6c-1.1,0.3-2.3-0.2-3-1.2c-2.3-2.8-1.4-7.3-3.6-10.1
		c-1.3-1.6-3.4-2.4-4.6-4.1c-0.9-1.3-1.2-3-2-4.4s-2.7-2.5-4-1.5c-0.4,0.4-0.8,0.9-1.1,1.4c-1.6,2.3-4.7,3.2-7.3,2.2
		c-1-0.6-2-1.1-3.2-1.4c-1.5-0.1-2.9,0.7-3.6,2c-0.7,1.3-1.1,2.7-1,4.2c0,2,0.4,4.1-0.8,5.7c-0.4,0.6-1,1.1-1.6,1.5
		c-1.7,1.1-4,1.8-5.5,0.6c-1.1-1-1.5-2.5-1.2-3.9s0.7-2.8,1.2-4.1c0.9-3.1-0.3-6.6,0.7-9.5C-575.5,1134.3-574.1,1131.8-572.4,1129.6
		z"/>
	<path class="st0" d="M-559.7,1200.1c-0.2,0.7-0.1,1.5,0.2,2.2c0.3,0.5,0.7,0.9,1.2,1.1c3.4,2.1,7.2,3.3,11.1,3.6
		c0.5,0,1.1,0.1,1.5,0.4c0.9,0.6,1,2,0.6,3.1c-0.5,1-0.7,2.2-0.7,3.3c0.3,2.1,2.8,3,4.9,3.3c2.9,0.4,6.1,0.2,8.5-1.6
		c1.6-1.4,2.8-3.2,3.5-5.2c5.7-13.2,7.8-27.8,13.6-40.9c0.4-0.9,0.7-1.8,0.9-2.7c0.1-1-0.3-1.9-1.1-2.5c-1.1-0.7-2.8-0.3-3.5-1.3
		c-0.4-0.5-0.3-1.2-0.6-1.8c-0.7-1.2-2.4-1-3.6-1.7c-0.9-0.5-1.6-1.5-2.6-1.7c-1-0.1-2.1,0.4-2.7,1.2c-3.4,3.2-5.2,7.7-7.1,11.9
		c-2.9,6.5-6.3,12.8-10.2,18.8c0.5-0.7-2.2-6-3.2-6.2c-1.8-0.4-4.1,2.8-5,3.9C-557.2,1190.9-559.2,1195.4-559.7,1200.1z"/>
	<path class="st4" d="M-523.4,1160.2c-1.5,0-2.8,0.7-3.7,1.9c-1.1,1.4-1.3,3.2-1.5,5c-0.9,5.6-2.9,11-5.9,15.8"/>
	<path class="st4" d="M-518.3,1164.2c-2,0-3.9,1.2-4.9,2.9c-0.7,1.6-1.1,3.2-1.2,4.9c-0.9,3.8-2.5,7.3-4.9,10.4"/>
	<path class="st5" d="M-669.2,1298.2c0,0-1.4,86.9,14,115.4s22,152.9,22,152.9s161.4,16.7,273.9-20s351.9-51.7,351.9-51.7
		l-40.3-271.9c0,0-199.3-12.8-312.7,41.3S-669.2,1298.2-669.2,1298.2z"/>
	<path class="st4" d="M-669.2,1298.2c0,0-1.4,86.9,14,115.4s22,152.9,22,152.9s161.4,16.7,273.9-20s351.9-51.7,351.9-51.7
		l-40.3-271.9c0,0-199.3-12.8-312.7,41.3S-669.2,1298.2-669.2,1298.2z"/>
	<path class="st5" d="M-633.4,1330c0,0-5,71.7,7.6,94.6s13.3,125.1,13.3,125.1s145.3,6.7,248.6-28.4s320.5-58,320.5-58l-24.7-222.4
		c0,0-179.7-1.9-284.6,47.7S-633.4,1330-633.4,1330z"/>
	
		<ellipse transform="matrix(0.9923 -0.1236 0.1236 0.9923 -175.8635 -34.2606)" class="st4" cx="-364" cy="1400.2" rx="37.7" ry="80.9"/>
	<path class="st6" d="M-157,1090.5c0,0-193.6,49-284.9,135.2s-283.5,127.2-283.5,127.2s25.3,83.1,48.7,105.6s67.8,138.8,67.8,138.8
		s158.9-33.7,254.7-103.2s319.1-157.2,319.1-157.2L-157,1090.5z"/>
	<path class="st5" d="M-728.3,1340.4c0,0,25.3,83.1,48.7,105.6s67.8,138.8,67.8,138.8s158.9-33.6,254.7-103.1s319-157.2,319-157.2
		l-121.8-246.4c0,0-193.6,49-284.9,135.2S-728.3,1340.4-728.3,1340.4z"/>
	<path class="st4" d="M-728.3,1340.4c0,0,25.3,83.1,48.7,105.6s67.8,138.8,67.8,138.8s158.9-33.6,254.7-103.1s319-157.2,319-157.2
		l-121.8-246.4c0,0-193.6,49-284.9,135.2S-728.3,1340.4-728.3,1340.4z"/>
	<path class="st5" d="M-684.6,1359.7c0,0,17.2,69.8,36.3,87.7c19.1,17.9,51,115,51,115s140.3-38.2,227.9-103.4
		c87.6-65.2,287.3-153.5,287.3-153.5l-91.7-204.1c0,0-171.6,53.4-256.2,132.7C-514.6,1313.4-684.6,1359.7-684.6,1359.7z"/>
	
		<ellipse transform="matrix(0.9065 -0.4221 0.4221 0.9065 -605.3104 -46.0817)" class="st4" cx="-406.7" cy="1343.9" rx="37.7" ry="80.9"/>
	<path class="st3" d="M-434.9,1281.5c-2,1.7-3.8,3.6-5.4,5.7s-2.5,4.6-2.5,7.3c0,0.8,0.3,1.5,0.7,2.1c0.5,0.6,1.3,0.9,2,0.6
		c0.4-0.2,0.7-0.5,1-0.9c1.1-1.3,2.2-2.5,3.4-3.6c0.4-0.4,1-0.9,1.6-0.7c0.3,0.1,0.5,0.2,0.7,0.5c0.7,0.6,1.2,1.3,1.4,2.2
		c0.3,1.5-0.5,3.1-1.5,4.3s-2.2,2.4-2.6,3.9c-0.2,0.4-0.2,0.8,0,1.2c0.2,0.3,0.5,0.5,0.8,0.7c2.9,1.6,6.4,1.8,9.4,0.6
		c2-0.8,3.8-2.2,5.8-2.9c0.9-0.2,1.8-0.6,2.6-1c1.2-0.8,2-2,2.3-3.4s0.3-2.8,0.2-4.2c-0.2-5.4-1.4-10.8-3.4-15.8
		c-0.1-0.3-0.3-0.6-0.6-0.8c-0.3-0.2-0.6-0.3-1-0.3c-2.6-0.3-6.8-1.6-9.2-0.6c-0.9,0.5-1.6,1.1-2.2,1.9
		C-432,1278.6-434.9,1280.9-434.9,1281.5z"/>
	<path class="st2" d="M-435.7,1279.3c0-2.4-3-8.3,1.8-8.7c0-2.6-3.7-4.2-3-7c0.2-0.9,1-1.7,1.1-2.6c0.3-2.7-4.5-4.1-3.7-6.7
		c0.3-1,1.4-1.6,1.6-2.6c0.5-2.3-3.6-3.3-3.7-5.7c0-0.8,0.5-1.5,0.4-2.4c0-1-0.9-1.8-1.3-2.6c-1.2-2.2-0.6-5.7-2.9-6.8
		c1.5,0.1,2-2.1,1.4-3.5s-1.9-2.6-1.9-4.1c0.1-0.6,0.1-1.1,0-1.7c-0.4-1.5-2.8-1.6-3.2-3c-0.1-0.5-0.1-1.1,0-1.6
		c-0.2-1.1-1.3-1.9-2.4-2.2c-1.1-0.2-2.2-0.6-3.2-1.1c-0.7-0.5-1.5-1.4-2.3-1c-0.3,0.2-0.4,0.5-0.6,0.7c-0.9,1-2.6,0.6-3.8-0.2
		c-3.3-2.3-5-6.3-5.7-10.3s-0.7-8.1-1.6-12c-0.3-1.2-0.6-2.4-1.1-3.6c-0.4-1-1.6-2.6-1.7-3.6c-0.2-2.3,4.6-0.7,6.4-0.5
		s3.5,0.5,5.2,1c1.8,0.7,3.6,1.5,5.3,2.3c7.2,3.2,15.9,3.6,21.7,8.9c1.9,1.8,3.5,4.1,6,4.9c1.1,0.2,2.3,0.5,3.4,0.9
		c2.8,1.3,3.2,4.9,4.7,7.6c0.5,0.7,0.9,1.4,1.2,2.2c0.3,0.9,0.4,1.9,0.4,2.8l0.2,6.9c0.3,11.6,0.7,23.2-0.6,34.8
		c-0.4,3.8-1,7.7,0.1,11.4c0.3,1,0.7,1.9,1,3c0.2,1.2,0.4,2.4,0.4,3.6l0.2,4.5c0.1,0.3,0,0.7-0.2,1c-0.3,0.3-0.8,0.4-1.2,0.3
		c-6.2-0.6-12.6-4.1-18.5-2"/>
</g>
<g id="_x23_other_x28_have_x5B_wallet_x5D__x29_">
	<path class="st4" d="M-303.8,1368.6v345c0,16.5-13.4,29.8-29.8,29.8l0,0h-513c-16.5,0-29.8-13.4-29.8-29.8v-379.8
		c14.7,5.5,14.7,5.5,29.8,5h513C-317.2,1338.8-303.8,1352.1-303.8,1368.6z"/>
	<path class="st7" d="M-303.8,1368.6v345c0,16.5-13.4,29.8-29.8,29.8h-513c-16.5,0-29.9-13.4-29.9-29.8v-379.8
		c14.7,5.5,14.7,5.5,29.8,5h513C-317.2,1338.8-303.8,1352.1-303.8,1368.6z"/>
	<path class="st4" d="M-305.3,1500.5v110.3h-107c-30.5-0.4-54.8-25.4-54.4-55.9c0.4-29.9,24.5-54,54.4-54.4H-305.3z"/>
	<path class="st8" d="M-303.8,1493.2v110.4h-107c-30.5-0.4-54.8-25.4-54.4-55.9c0.4-29.9,24.5-54,54.4-54.4L-303.8,1493.2z"/>
	<circle class="st4" cx="-405.7" cy="1555.7" r="21.5"/>
	<circle class="st0" cx="-404.2" cy="1548.4" r="21.5"/>
	<path class="st8" d="M-317.1,1352v-12.4c0-19-15.4-34.5-34.5-34.5H-842c-19,0-34.5,15.4-34.5,34.5v22.9L-317.1,1352z"/>
</g>
<g id="_x23_man_x28_hold_x5B_plate_x5D__x29_">
	<path class="st7" d="M-66.6,1592.3c0,5.9-34.4,23.1-75.2,23.1s-72.7-17.2-72.7-23.1s33.1-4,74-4S-66.6,1586.4-66.6,1592.3z"/>
	<path class="st6" d="M-66.6,1591c0,5.9-34.4,23.1-75.2,23.1s-72.7-17.2-72.7-23.1"/>
	<path class="st9" d="M-71.7,1477.3c0.8,9.2-6.1,18.2-4.1,27.2c0.4,1.9,1.3,3.8,1.6,5.7c0.8,5.4-2.3,10.4-5.4,14.9l-26.2,38.4
		c-1,1.7-2.3,3.2-3.7,4.6c-5,4.5-12.5,4-19.1,5.3c-4.6,0.9-9,2.9-12.8,5.7c-0.3,0.3-0.4,0.8-0.1,1.1c2.2,3,5.8,4.7,9.5,4.5
		c0.7,0.9,0,2.2-1,2.9c-1.4,1-3.3,1.2-3.6,3.6c-0.1,0.8,0.1,1.7,0.5,2.4c1.1,1.6,2.7,2.8,4.6,3.2c9.1,2.8,18.9-2.1,25.7-8.7
		c6.8-6.6,11.7-15,18.3-21.8c3.7-3.7,7.9-6.9,11.7-10.5c7.6-7.2,13.5-16,19.2-24.8c1.7-2.7,3.4-5.4,4.2-8.4s0.4-6.2,1.2-9.1
		c1.1-3.9,3.9-7,6.3-10.3c4.7-6.4,7.8-14.2,7.1-22.1c-0.7-7.9-5.5-15.7-12.9-18.3c-2.3-0.9-4.8-1.1-7.2-0.4c-3,0.9-5.3,3.5-7.4,5.9
		l-5,5.8c-1.2,1.3-2.2,2.8-2.9,4.4c-0.7,1.7-0.3,3.6,1,4.9"/>
	<path class="st10" d="M-71.7,1477.3c0.8,9.2-6.1,18.2-4.1,27.2c0.4,1.9,1.3,3.8,1.6,5.7c0.8,5.4-2.3,10.4-5.4,14.9l-26.2,38.4
		c-1,1.7-2.3,3.2-3.7,4.6c-5,4.5-12.5,4-19.1,5.3c-4.6,0.9-9,2.9-12.8,5.7c-0.3,0.3-0.4,0.8-0.1,1.1c2.2,3,5.8,4.7,9.5,4.5
		c0.7,0.9,0,2.2-1,2.9c-1.4,1-3.3,1.2-3.6,3.6c-0.1,0.8,0.1,1.7,0.5,2.4c1.1,1.6,2.7,2.8,4.6,3.2c9.1,2.8,18.9-2.1,25.7-8.7
		c6.8-6.6,11.7-15,18.3-21.8c3.7-3.7,7.9-6.9,11.7-10.5c7.6-7.2,13.5-16,19.2-24.8c1.7-2.7,3.4-5.4,4.2-8.4s0.4-6.2,1.2-9.1
		c1.1-3.9,3.9-7,6.3-10.3c4.7-6.4,7.8-14.2,7.1-22.1c-0.7-7.9-5.5-15.7-12.9-18.3c-2.3-0.9-4.8-1.1-7.2-0.4c-3,0.9-5.3,3.5-7.4,5.9
		l-5,5.8c-1.2,1.3-2.2,2.8-2.9,4.4c-0.7,1.7-0.3,3.6,1,4.9"/>
	<path class="st11" d="M-51.9,1714.4c-5.7,3.5-12.8,3.7-19.5,2.9c-1.1-0.1-2.3-0.2-3,0.6c-1,1.2,0.2,3,1.4,3.9
		c3.9,2.9,8.5,4.8,13.4,5.5c4.3,0.6,8.7,0.9,13.1,0.9c12,0.2,24,0.4,35.8-1.3c0.7-0.1,1.4-0.3,2-0.6c0.8-0.5,1.3-1.3,1.5-2.2
		c0.8-3.1-0.8-6.4-3.1-8.5s-5.4-3.3-8.3-4.5l-10.4-4c-2.4-1-6.3-3.5-9-3.3C-43,1704.1-47.7,1712-51.9,1714.4z"/>
	<path class="st10" d="M-51.9,1714.4c-5.7,3.5-12.8,3.7-19.5,2.9c-1.1-0.1-2.3-0.2-3,0.6c-1,1.2,0.2,3,1.4,3.9
		c3.9,2.9,8.5,4.8,13.4,5.5c4.3,0.6,8.7,0.9,13.1,0.9c12,0.2,24,0.4,35.8-1.3c0.7-0.1,1.4-0.3,2-0.6c0.8-0.5,1.3-1.3,1.5-2.2
		c0.8-3.1-0.8-6.4-3.1-8.5s-5.4-3.3-8.3-4.5l-10.4-4c-2.4-1-6.3-3.5-9-3.3C-43,1704.1-47.7,1712-51.9,1714.4z"/>
	<path class="st2" d="M-44.6,1576.4c-4.3,5.8-8.8,12.4-7.7,19.5c0.6,3.8,2.7,7.2,4.3,10.8c2.1,4.8,3.3,10,4.4,15.2
		c1.6,7.5,3.2,15.1,4.2,22.8c1.1,8.7-4.2,33.7-4.7,42.4c-0.1,2.1-0.4,4.4-1.8,5.9c-0.6,0.6-1.3,1.1-1.6,1.9c-0.2,0.8,0,1.5,0.3,2.2
		c2.4,5.5,7.4,9.6,13,11.9s19,6.4,25.1,6.6c0.8,0.1,1.6,0,2.4-0.3c0.8-0.5,1.4-1.2,1.8-2.1c4.3-8.3,0.2-37.9,0.2-47.3
		c0.1-7.8,1.9-15.6,1.6-23.4c-0.3-6.3-2-12.4-2.6-18.7c-1-10.3,0.9-20.6,2.8-30.7c1.4-7.8,2.9-15.6,4.7-23.2c1.1-4.7,2.4-9.4,5-13.5
		c2-3.2,4.8-5.9,7.1-9c6.5-8.5,9.3-19.2,8-29.7c-0.1-1-15,3.8-16.3,4.3c-5.3,2.3-10.3,5.4-14.5,9.3c-3.4,3.3-6.2,7.7-9.2,11.3
		c-4.3,5.2-8.5,10.4-12.6,15.7C-35.4,1564.2-40,1570.3-44.6,1576.4z"/>
	<path class="st10" d="M-44.6,1576c-4.3,5.8-8.8,12.4-7.7,19.5c0.6,3.8,2.7,7.2,4.3,10.8c2.1,4.8,3.3,10,4.4,15.2
		c1.6,7.5,3.2,15.1,4.2,22.8c1.1,8.7-4.2,33.7-4.7,42.4c-0.1,2.1-0.4,4.4-1.8,5.9c-0.6,0.6-1.3,1.1-1.6,1.8c-0.2,0.8,0,1.5,0.3,2.2
		c2.4,5.5,7.4,9.6,13,12s19,4.5,25.1,4.7c0.8,0.1,1.6,0,2.4-0.3c0.8-0.5,1.4-1.2,1.8-2.1c4.3-8.3,0.2-36,0.2-45.4
		c0.1-7.8,1.9-15.6,1.6-23.4c-0.3-6.3-2-12.4-2.6-18.7c-1-10.3,0.9-20.6,2.8-30.7c1.4-7.8,2.9-15.5,4.7-23.2c1.1-4.7,2.4-9.4,5-13.5
		c2-3.2,4.8-5.9,7.1-9c6.5-8.5,9.3-19.2,8-29.7c-0.1-1-15,3.8-16.3,4.3c-5.3,2.3-10.3,5.4-14.5,9.4c-3.4,3.3-6.2,7.7-9.2,11.3
		c-4.3,5.2-8.5,10.4-12.6,15.7C-35.4,1563.9-40,1569.9-44.6,1576z"/>
	<circle class="st9" cx="-92.7" cy="1425.2" r="24.3"/>
	<path class="st9" d="M-70.9,1424.2c4.5,7.2,11.8,12.3,20.2,14.1l-1.8,6.6c-3.2,11.4-6.7,23.5-15.5,31.4c1-3.9-0.3-8-2.5-11.4
		c-2.2-3.4-5.2-6-8.2-8.6l-14-12.1c-0.4-0.3-0.7-0.7-1-1.2c-0.3-0.9-0.3-1.8,0-2.7c1.8-5.5,6.9-9,11-12.7c2.1-1.9,3.9-4.1,5.5-6.4
		C-74.4,1417.3-72.7,1421.3-70.9,1424.2z"/>
	<path class="st2" d="M-124.7,1400.8l-0.5-4.6c3.8,1,7.5-2.3,9.9-5.6s4.7-7.3,8.5-8.8c4.5-1.7,9.3,1,13.7,3.3
		c4.8,2.7,10.2,4.4,15.7,5.1c0.9,0,1.7,0.2,2.6,0.4c2.8,1,4.2,4.5,4.6,7.8c0.4,3.3,0.3,6.6,1.7,9.5c1,2.2,2.9,3.8,4,5.9
		c3,5.7,0.1,13.6,3.2,19.2l-7.8-7.1c-0.7-0.6-1.7-1.3-2.5-0.8c-0.6,0.4-0.7,1.4-0.9,2.1c-0.8,2.2-3.5,2.9-5.5,2s-3.5-2.8-5-4.5
		c-3.4-4.1-7.5-7.6-12.3-9.4c-4.3-1.6-9-1.3-13,0.9c-3.6,2-6.3,6.8-10.7,7c-6.1,0.2-8.6-11.1-11.5-15.6c2.1-1.6,2.8-4.5,1.6-6.9
		C-128.8,1400.6-124.8,1400.1-124.7,1400.8z"/>
	<ellipse class="st7" cx="-140.5" cy="1591" rx="74" ry="10.7"/>
	<path class="st11" d="M-23.6,1714.3c-4.8,4.3-11,6.6-17.5,6.5c-1.6,0-3.9,0.3-3.9,2c0,0.5,0.2,0.9,0.5,1.3c2,3.4,5.2,5.9,9,7.1
		c3.5,1.1,7.2,0.9,10.9,0.7l10.7-0.5c2-0.1,4-0.2,6-0.5s4.2-0.7,6.3-1c5.1-0.7,10.3-1,15.5-0.7c1.4,0,3,0,3.8-1s0.4-2.9,0.1-4.4
		c-0.6-3.1,0-6.3-0.6-9.4c-1-5.4-5.7-9.6-10.9-11.6c-4.8-1.8-13.3-3.9-17.8-0.9C-16.3,1705-19.2,1710.3-23.6,1714.3z"/>
	<path class="st2" d="M-13,1532c0.9,4.5,5.3,7.9,5.4,12.5c0.1,3.7-2.5,6.7-4.4,9.9c-1.8,3.2-3.3,6.6-4.5,10.1
		c-3.5,9.1-7.9,17.8-13.1,26.1c-2.5,4-5.3,8.3-4.7,12.9c0.4,2.2,1.2,4.3,2.3,6.2l7.5,14.9c1.6,3,2.9,6.1,3.8,9.4
		c0.7,2.8,0.7,5.8,1.1,8.6c1.2,9.1,5.5,18.3,2.9,27.2c-0.2,0.8-1,1.7-1.6,1.2c2.5,4.6,4.5,9.3,4.3,14.5c-0.1,2.8-0.9,5.6,0.1,8.2
		c0.4,1.1,1.2,2.1,1.2,3.2c0,0.8-0.3,1.5-0.4,2.2c-0.2,2.1,1.7,3.9,3.7,4.5s4.2,0.6,6.2,1.2c3.9,1.2,6.7,4.5,10,6.9
		c3.4,2.3,7.4,3.6,11.5,3.8c0.6,0.1,1.2-0.1,1.7-0.3c0.6-0.5,0.9-1.3,0.9-2.1c0.4-3.8-1.2-7.5-4.1-9.9c-0.6-0.4-1.2-0.9-1.5-1.6
		c-0.2-0.6-0.2-1.2-0.1-1.8c0.6-8.2,0.5-16.4-0.4-24.6c-0.4-2.6-0.5-5.2-0.4-7.8c0.2-2.2,0.9-4.3,0.6-6.5c-0.3-2.2-1.3-4.2-2-6.2
		c-1.2-3.7-0.8-7.7-1-11.6c-0.2-6.8-1.8-13.4-3.3-20c-0.6-2.6-1.3-5.3-3.1-7.2c-1.6-1.6-4.1-3.2-3.5-5.4c0.3-0.8,0.8-1.5,1.4-2.1
		c1.5-1.8,2.1-4.2,1.8-6.5c1.4,0.3,2.8-0.3,3.4-1.6c12.2-5.8,22-17.2,26.4-30c0.3-0.9,0.7-1.9,1.2-2.7c1.1-1.6,3.1-2.3,4.8-3.1
		c5.5-2.8,9.2-7.9,12.7-12.9c2-2.9,4-5.9,4.9-9.4c0.5-2.2,0.7-4.5,0.7-6.8l0.3-11.8c0.1-0.8,0-1.6-0.2-2.3c-0.3-0.7-0.7-1.3-1.3-1.9
		c-3.3-3.5-7.7-5.9-12.5-6.7c-3.2-0.6-6.5-0.5-9.7-0.7c-6.3-0.5-12.5-2.5-18.8-2c-9.9,0.7-18.7,7.6-23.3,16.3
		C-7.8,1529.3-9.5,1531.9-13,1532z"/>
	<path class="st0" d="M-67.8,1455.6c0.1,1.8-0.1,3.6-0.7,5.3c-0.8,1.6-2.7,2.9-4.4,2.2c0.5-1.2-0.8-2.5-2.1-2.3
		c-1.3,0.3-2.3,1.2-2.8,2.4c-0.8,1.7-1.1,3.6-0.8,5.4c0.4,2.3,1.7,4.5,1.4,6.8c-0.3,1.9-1.7,3.8-0.9,5.6c0.5,0.8,1.1,1.5,1.8,2.2
		c2.1,2.5,1.8,6.2-0.7,8.4l18.9,0.4c-0.7,3.2,0.7,6.4,2.3,9.2c9.2,15.7,25.2,26.1,43.2,28.2c-1.8,1-2.4,3.3-1.4,5.1
		c0.1,0.2,0.3,0.4,0.4,0.6c1.5,1.5,4.2,1.3,6.1,0.3s3.4-2.6,5.2-3.9c3.1-2.2,6.9-3.2,10.7-2.9c2.4,0.2,4.7,1,7,1.1
		c7,0.4,13-4.7,19.7-6.7c4.9-1.5,10.5-1.5,14.6-4.6c1.8-1.3,3.2-3.5,2.7-5.6c-0.4-1.2-1.1-2.4-2-3.3c-2.4-3.1-3.8-6.8-5.5-10.2
		c-3.4-6.9-8-13.1-13.7-18.3c-4.3-3.7-8.8-7.2-13.6-10.3c-1.1-0.8-2.4-1.6-3.7-2.2c-1.7-0.7-3.5-1.1-5-2c-2.2-1.4-3.5-3.9-5.2-5.9
		c-3.8-4.4-9.5-6.4-14.1-9.8c-3.1-2.3-5.8-5.4-9.5-6.5c-1.8-0.5-3.7-0.6-5.5-1.1c-4.1-1.2-7.1-4.9-11.1-6.3c-3.2-1.2-6.7-0.9-10-1.3
		c-3.8-0.5-7.3-1.8-10.4-4c-1-0.8-2.1-1.5-3.3-1.9c-5.1-1.5-5.5,7.9-6,11.2C-66.6,1445.9-67.8,1450.7-67.8,1455.6z"/>
	<path class="st9" d="M-62.8,1487.3c0.8,9.2-6.1,18.2-4.1,27.2c0.4,1.9,1.3,3.8,1.6,5.7c0.8,5.3-2.3,10.4-5.4,14.9l-26.3,38.4
		c-1.1,1.7-2.3,3.2-3.7,4.6c-5,4.5-12.5,4-19.1,5.3c-4.6,0.9-9,2.9-12.8,5.7c-0.4,0.3-0.4,0.8-0.2,1.2c2.2,3,5.8,4.7,9.5,4.5
		c0.7,0.9,0,2.2-1,2.9c-1.4,1-3.3,1.2-3.6,3.6c-0.1,0.8,0.1,1.7,0.5,2.4c1.1,1.6,2.7,2.8,4.6,3.2c9.1,2.8,18.9-2.1,25.7-8.7
		s11.7-15,18.3-21.7c3.7-3.7,7.9-6.9,11.7-10.6c7.6-7.2,13.5-16,19.2-24.8c1.7-2.7,3.4-5.4,4.2-8.4s0.4-6.2,1.2-9.2
		c1.1-3.9,3.9-7,6.3-10.3c4.7-6.4,7.8-14.2,7.1-22.1c-0.7-7.9-5.5-15.7-12.9-18.3c-2.3-0.9-4.8-1.1-7.2-0.4c-3,0.9-5.3,3.5-7.4,5.9
		l-5,5.7c-1.2,1.3-2.2,2.8-2.8,4.4c-0.7,1.7-0.3,3.6,1,4.9"/>
	<path class="st0" d="M-49.6,1449.4c-3.4,0.2-7.2,0.5-9.7,3c-1,1.1-1.8,2.4-2.4,3.8c-2.4,4.8-4.7,9.8-4.8,15.2
		c-0.1,4.3,1.1,8.5,1.8,12.7c0.5,3.5-0.8,7.1-1.1,10.7c4.3-1.3,9.9-3.1,13.8-5.3c2.6-1.5,5.2-3.2,8.1-4.2c4.1-1.4,11,1,14.9,2.9
		c0.2-2.7-1.8-7.5-1.6-10.3c0-1.2,0.2-2.3,0.6-3.4c0.6-1.2,1.3-2.3,2.1-3.3c3.1-5,2.6-11.3-1.2-15.8c-3.5-3.9-8.9-5.4-14.1-6
		c-3.3-0.4-6.5-0.5-9.8-0.3"/>
</g>
<g id="_x23_man_x28_stand_x2C_put_x5F_up_x29_">
	
		<linearGradient id="SVGID_1_" gradientUnits="userSpaceOnUse" x1="-124.3908" y1="1203.2144" x2="-124.3908" y2="1691.8689" gradientTransform="matrix(1 0 0 -1 -84.46 2809.3406)">
		<stop  offset="0" style="stop-color:#808080;stop-opacity:0.25"/>
		<stop  offset="0.54" style="stop-color:#808080;stop-opacity:0.12"/>
		<stop  offset="1" style="stop-color:#808080;stop-opacity:0.1"/>
	</linearGradient>
	<path class="st12" d="M-93.8,1596c-1.3-5.6-2.1-10.5-2.1-10.5s0.3-6.1-2.4-10.6v-1.5l0,0v-11.2c0.8-2,1.7-4,2.8-5.9
		c2-3.5,0-16.4,0-16.4s-7.5-18.2-5.7-29.7s-15.3-51.2-15.3-51.2c0.1-3.8,0.6-7.6,1.6-11.3c0.2-0.8,0.3-1.6,0.2-2.4
		c0-0.1,0-0.2,0-0.3s0,0.1,0,0.1c-0.3-7.6-6.3-21.9-6.3-21.9l0.8-27.2c0,0,3.8-16-2.4-37.5c-2.2-7.5-3.6-13.5-4.5-18.2
		c-0.1-0.5-0.2-1-0.3-1.5c12.9-2,22.7-3.6,22.7-3.6s-7.5-31.3-12.5-36.8s-9.1-22.7-9.1-22.7s-2.6-22.1,1.6-28.5s4.8-17.6,4.8-17.6
		s9.7-7,10.9-10.2c1.2-3.2,3.2-10.2,3.2-13.9c0-3.7-1.2-7-0.8-9s-2.8-9.4-1.2-12.9c0.4-1.1,0.6-2.2,0.6-3.4v-0.1l0,0
		c0-3.1-0.3-6.2-0.8-9.2c-2.8-2.4-6.1-4.1-9.6-5.1l-0.2-0.8l-0.5-2.2c-0.3-0.2-0.6-0.4-1-0.6v-0.8l-0.1-3.2l1.5-7.1
		c3-12.4-13.6-14.3-13.6-14.3c-1-1.9-2.7-3.4-4.7-4.1c-3.3-1.2-0.5,18.7,1,20c1.2,1,4.8,7.2,6.5,10.2l0,0l0.3,0.5
		c-0.3,0.2-0.5,0.5-0.8,0.8l0.6,4.3l0.1,0.7c-1.1,1.4-2,2.9-2.7,4.5c0,0,3,3.3,2.4,7s0.9,8.4,1,8.6c-0.2-0.2-2.3-2.5-4.4-2
		c-2.1,0.5-8.1,2.3-8.1,2.3s-4.4,0.8-4,1.8s-3,5.3-3,5.3l-11.9-11.3c-0.1-0.3-0.2-0.7-0.3-1c-0.5-1.6-0.8-3.3-1-5
		c1.3-0.3,2.6-0.7,3.8-1.2c1.3-0.4,2.4-1.2,3.3-2.1c1.2-1.4,1.4-3.4,1.9-5.1c0.9-3.5,3-6.6,4.4-9.9c2.4-5.6,3.2-11.8,2.3-17.8
		c-0.2-1.9-0.8-3.6-1.8-5.2c-2-2.7-5.5-3.8-8.1-5.9s-4.2-5.4-7.2-7c-2.7-1.4-6-1.3-9.1-0.8c-6,1-11.7,3.1-16.9,6.2
		c-1.7,1-3.7,2.2-5.7,1.9c-1.7-0.3-3-1.7-4.1-3c0-0.1,0-0.1,0-0.2c0,0-0.1-0.1-0.1-0.2c-1.3,2.8-1.9,5.9-1.9,8.9c0,0.5,0,1,0.1,1.4
		v0.6c0,0.1,0,0.3,0,0.4l0,0c0,0.2,0,0.4-0.1,0.6c-0.3,0.6-0.6,1.2-1.1,1.6c-0.4,0.4-0.7,0.9-1,1.3c0-0.2,0.1-0.3,0.2-0.5
		c-0.8,1.1-1.2,2.4-1.2,3.8c-0.1,1,0.3,1.9,0.9,2.7c0.6,0.6,1.3,1.1,2,1.6c-0.2,1.3-0.4,2.7-0.4,4c0,8.1,4.3,15.6,11.3,19.7
		c0.1,0.3,0.3,0.7,0.4,1c1.5,4,2.7,8.7,2.2,13c0,0.3-0.1,0.6-0.1,0.9s-0.3,0.3-0.4,0.5l0,0c0,0-19.7,0.2-24.4-4
		c-4.6-4.2-11.7,10.3-11.7,10.3s-7.1,1.4-8.5,0s-9.7-0.2-9.7-0.2c-3.4-3-7.8-4.6-12.3-4.5c-2.7-2.1-5.8-3.8-9-5l0,0l-0.2-0.1l0,0
		c-1.4-0.5-2.9-0.7-4.5-0.6c0,0-9.7-8-12.5-12.3c-2.8-4.3-16.1-20.2-16.2-20.3v-0.8l-0.2-2.3c-0.4,0.1-0.8,0.1-1.2,0.1
		c-0.1-0.2-0.2-0.5-0.3-0.8c-0.8-2.3-1.7-4.5-2.9-6.6c0,0,0-2.9,0.8-3.7c0.8-0.8-0.3-11.5-0.3-11.5s-8.7-20.4-16.6-5.2
		c0,0-14.8,9.9-2.4,21.4c0,0,5,2.4,5.7,4.3c0.5,1.2,2.1,4.7,3.3,7l0.5,1l-0.1,0.1l0.2,1.9l0.1,0.7c-2.3,1.3-3.9,2.6-3.5,3.6
		c0.7,1.7,1.2,3.5,1.4,5.3c0,0,17.2,21.5,19.4,30.7c0,0,46.1,27.4,61.2,29.3l-2.7,13.7c-0.4,3.7-0.6,7.4-0.6,11.1
		c0.2,2.9-1.8,16.2-1.8,16.2s-2.6,19.6-4.8,22.3c-2.2,2.7-1.8,14.5-1.8,14.5c-0.5,5.6-1.5,11.2-3,16.6c-2.2,7.4-0.6,16.6-0.6,16.6
		s-7.7,17.6,10.7,5.7c0,0,9-0.6,19.4-0.9c0,0.3,0,0.7,0,1c0,1.3,0,2.8-0.1,4.3c-0.1,10.1-0.2,24,0.3,34.5
		c0.8,18.6,6.5,55.4,6.5,55.4v18.5c-0.4,1.7-0.5,3.5-0.5,5.3c-0.1,6.5,1.6,12.9,5,18.5l1.4,12.3c0,0,3.3,8.1,3.4,13
		c0,0.4-0.1,0.8-0.1,1.2c-0.1,0.6-0.2,1.3-0.2,1.9c-0.2,5.6,3.2,19,3.2,19s0.2,13.5,2.2,14.3c1.7,0.7-2.3,7.8-3.5,9.8
		c0-0.1-0.1-0.3-0.1-0.4l-0.2,0.4c-0.4,1.1-0.6,2.3-0.6,3.4c-0.2,1.9,0.6,3.7,2.2,4.7c3.8,2.3,5.9,4.3,2.6,5.1
		c-1.2,0.2-2.4,0.4-3.6,0.8c0-0.2-0.1-0.3-0.2-0.5c-0.9,0.4-1.5,1.4-1.3,2.4c0,1.6,0.4,3.1,1.2,4.5c3.2,7.2,5.5,10,5.5,10l1.5-0.2
		c-0.2,0.6-0.5,1.2-0.9,1.7c-0.6,0.8-1.4,1.5-2.3,2c-0.8,0.5-1.8,0.8-2.8,1c-2.2,0.1-4.3,1.1-5.7,2.8c-2,2.6-3.3,6.2,0.7,9.3l14.5,5
		c0,0,24.9,3.2,23.5-2.3s-2.1-10.5-2.1-10.5c0.1-3.4-0.6-6.8-2-9.9c-0.3-0.5-0.6-1-0.9-1.5l0.9-0.1c0,0,1.8-12.3,4.2-14.7
		c0.6-0.5,0.7-1,0.6-1.3c0.2-0.7-0.4-1.1-1.2-1.3l-0.2,0.5c-0.8-0.2-1.6-0.3-2.4-0.3c0,0-0.8-6.5,1.8-8.8c0.4-0.5,0.6-1.2,0.5-1.9
		c0-0.9-0.1-1.8-0.3-2.6c0,0.1-0.1,0.1-0.1,0.2c-1.3-5.9-5.8-15.2-5.8-15.2s-0.2-5.9,1.4-8.2c1.6-2.3-0.2-31.9-0.2-31.9
		s0.6-14.3-1.2-20.9s2.2-14.5,2.2-14.5s0-0.2,0-0.4v-0.1l-0.2-2.2v0.1c-0.4-3.8-1.2-10.6-1.8-13.8c-0.8-4.5,0.2-26,0.2-26l3.6-9.2
		l6.5,15.9l6.9,21.1c0,0,3.4,4.5,3.5,9c0,0.2,0,0.4,0,0.7c-0.1,0.5-0.1,0.9-0.1,1.4c-0.1,2.7,0.6,5.3,2.1,7.5c0,0,1.8,10,4.7,12.5
		s2.8,7.4,2.8,7.4s3.4,14.5,5,17c1.4,2.1,1.4,8,1.4,9.8l0,0c0,0.3,0,0.5,0,0.5s0.5,5.2,0.5,9.5c0,0.5,0,1.1,0,1.5v-0.1
		c0,1.2-0.1,2.4-0.4,3.5l-0.1,0.2c0-0.2,0-0.5,0.1-0.7c-0.7,2.9-1,6-1,9c-0.1,5.2,0.7,11.4,3.8,15c5.5,6.3,8.9,5.5,8.9,5.5
		s-2.6,7.8-5.9,9.4c-0.1,0.1-0.2,0.1-0.3,0.2c0-0.2-0.1-0.3-0.1-0.5c-0.7,0.8-1.1,1.8-1,2.9c-0.2,3.4,1.9,9,4,11.6
		c0.8,0.7,1.7,1.3,2.7,1.6c-0.2,0.1-0.3,0.2-0.5,0.3c-0.4,0.2-0.7,0.4-1.1,0.5c-0.5,0.2-1.1,0.4-1.7,0.4c-2.2,0.1-4.3,1.1-5.7,2.8
		c-2,2.6-3.3,6.2,0.7,9.3l14.5,5C-117.2,1598.4-92.5,1601.6-93.8,1596z"/>
	<path class="st13" d="M-188.7,1605.2l-14-5c-3.9-3.1-2.6-6.7-0.7-9.3c1.4-1.7,3.4-2.7,5.5-2.8c0.9-0.1,1.9-0.4,2.7-1
		c0.9-0.5,1.6-1.2,2.2-2c1-1.6,1.6-3.5,1.6-5.4c0,0,15.4-4.5,19.6,0c0.7,0.8,1.4,1.7,1.9,2.7c1.4,3.1,2.1,6.5,2,9.9
		c0,0,0.8,4.9,2,10.5S-188.7,1605.2-188.7,1605.2z"/>
	<path class="st13" d="M-120.2,1598.4l-14-5c-3.9-3.1-2.6-6.7-0.7-9.3c1.3-1.7,3.4-2.7,5.5-2.8c0.6-0.1,1.1-0.2,1.6-0.4
		c0.4-0.2,0.7-0.3,1.1-0.5c3.9-2.2,3.8-7.4,3.8-7.4s15.3-4.5,19.6,0c0.6,0.6,1.1,1.3,1.5,2c2.6,4.5,2.3,10.6,2.3,10.6
		s0.8,4.9,2,10.5C-96.3,1601.7-120.2,1598.4-120.2,1598.4z"/>
	<path class="st4" d="M-171.8,1579.8c0.7,0.8,1.4,1.7,1.9,2.7l0,0l-23,2.7c1-1.6,1.6-3.5,1.6-5.4
		C-191.3,1579.8-176,1575.3-171.8,1579.8z"/>
	<path class="st4" d="M-101.8,1574.9v4.3c-3.6,5.9-20.9,4.6-25.9,1.7c0.4-0.2,0.7-0.3,1.1-0.5c3.9-2.2,3.8-7.4,3.8-7.4
		s15.3-4.5,19.6,0C-102.7,1573.5-102.3,1574.2-101.8,1574.9z"/>
	<path class="st2" d="M-99.1,1556.4c-1.1,1.9-2,3.8-2.7,5.9v15.5c-3.9,6.5-24.2,4.3-27,0.8c-2.8-3.5-5.6-12.7-2.5-14.3
		c3.1-1.6,5.7-9.4,5.7-9.4s-3.3,0.8-8.6-5.5c-5.3-6.3-3.7-20.1-2.7-23.5s0-14.5,0-14.5s0.2-7.8-1.4-10.4c-1.6-2.6-4.9-17-4.9-17
		s0-4.9-2.7-7.4s-4.5-12.5-4.5-12.5c-1.6-2.5-2.3-5.5-2-8.4c0.6-4.9-3.3-10.2-3.3-10.2l-6.7-21.1l-6.3-15.8l-3.5,9.2
		c0,0-1,21.5-0.2,26s2,16.4,2,16.4s-3.9,7.8-2.2,14.5s1.1,20.9,1.1,20.9s1.8,29.5,0.2,31.9s-1.4,8.2-1.4,8.2s8,17.2,5.5,19.5
		s-1.8,8.8-1.8,8.8s5.5,0,3.1,2.3s-4.1,14.7-4.1,14.7l-23.7,2.8c0,0-2.2-2.7-5.3-10s0.6-6.5,3.7-7.2c3.1-0.7,1.2-2.7-2.6-5.1
		s-1.6-7.6-1.6-7.6s5.7-9.6,3.7-10.4s-2.2-14.3-2.2-14.3s-3.9-16-2.9-20.3s-3.1-14.7-3.1-14.7l-1.4-12.3c-4.2-7-5.7-15.3-4.3-23.3
		v-19c0,0-5.5-36.8-6.3-55.3c-0.5-11.9-0.4-28.1-0.2-38.3c0.1-5.7,0.2-9.5,0.2-9.5l84.5-8.8c0,0-0.1,3.9,1.5,12.5
		c0.9,4.6,2.2,10.6,4.3,18.2c6.1,21.5,2.3,37.5,2.3,37.5l-0.8,27.2c0,0,7.4,18.2,5.9,24.4c-0.9,3.7-1.5,7.5-1.6,11.4
		c0,0,16.6,39.7,14.9,51.2s5.5,29.7,5.5,29.7S-97.2,1552.8-99.1,1556.4z"/>
	<path class="st10" d="M-147.4,1454.5l25.7-3.4C-121.7,1451-136.3,1465.9-147.4,1454.5z"/>
	<path class="st4" d="M-125.4,1425.9c0,0,0.9,9.1-4.7,12.5C-130.1,1438.4-120.1,1436.9-125.4,1425.9z"/>
	<path class="st4" d="M-127,1397c0,0-21.5,17.7-29.3,16.2S-127,1397-127,1397z"/>
	<path class="st4" d="M-179.3,1462.8c0,0-16.3,3.7-16.8,10.3S-179.3,1462.8-179.3,1462.8z"/>
	<path class="st10" d="M-175.7,1544.3c0,0-23.1,4.3-16.5,7.2s17.3,5.3,17.3,5.3S-167.5,1557.2-175.7,1544.3z"/>
	<g class="st14">
		<path d="M-196.9,1556.2c-1.2-0.7-2-2-2.1-3.3l-0.2,0.4c0,0-2.2,5.3,1.6,7.6c0.4,0.3,0.8,0.5,1.2,0.8c0.7-0.1,1.4-0.2,2.1-0.4
			C-191.2,1560.5-193.2,1558.6-196.9,1556.2z"/>
		<path d="M-167.2,1554.6c0.6-0.6,0.6-2.1,0.2-4c-1,1.5-1.3,3.9-1.3,5.7C-168,1555.7-167.6,1555.1-167.2,1554.6z"/>
		<path d="M-170.7,1457.4c-0.8,2.3-1.4,4.7-1.6,7.2c0.4-1.7,1-3.4,1.8-4.9L-170.7,1457.4z"/>
		<path d="M-117.9,1447.1c0.2-0.7,0.2-1.4,0.2-2.1c-0.3,1.5-0.5,2.8-0.6,4C-118.2,1448.3-118,1447.8-117.9,1447.1z"/>
		<path d="M-171.3,1526.9c0.3-0.5,0.5-2.1,0.6-4.3c-0.7,1.7-1.1,3.6-1.1,5.5C-171.7,1527.6-171.5,1527.2-171.3,1526.9z"/>
		<path d="M-166.5,1563.8c-1.2,3.9-2.1,7.9-2.7,12l-23.7,2.7c0,0-2.2-2.7-5.3-10c-0.3-0.6-0.5-1.1-0.7-1.7c-1.4,0.7-2,2.1-0.1,6.4
			c3.1,7.2,5.3,10,5.3,10l23.7-2.7c0,0,1.8-12.3,4.1-14.7C-164.6,1564.6-165.4,1564.1-166.5,1563.8z"/>
		<path d="M-197.7,1528.6c0,0,0.2,13.5,2.2,14.3l0,0c1-2.2,1.7-4.3,0.8-4.7c-2-0.8-2.2-14.3-2.2-14.3s-3.9-16-2.9-20.3
			s-3.1-14.7-3.1-14.7l-1.4-12.3c-4.2-7-5.7-15.3-4.3-23.3v-19c0,0-5.5-36.8-6.3-55.3c-0.5-11.9-0.4-28.1-0.2-38.3
			c0-1.8,0.1-3.5,0.1-4.8l-0.7,0.1c0,0-0.1,3.8-0.2,9.5c-0.2,10.1-0.3,26.4,0.2,38.3c0.8,18.6,6.2,55.4,6.2,55.4v19
			c-1.4,8,0.1,16.3,4.3,23.3l1.4,12.3c0,0,4.1,10.4,3.1,14.7S-197.7,1528.6-197.7,1528.6z"/>
		<path d="M-128,1573.2c-1.9-2.8-3.2-6-3.8-9.3c-2.4,2.2,0.4,10.6,3,14c2.7,3.5,23.1,5.7,27-0.8v-3.7
			C-107.1,1578.7-125.5,1576.6-128,1573.2z"/>
		<path d="M-98.3,1551.1c-1.1,1.9-2,3.8-2.7,5.9v2.8c0.5-1,1.1-2.3,2-3.9c0.6-1.5,0.9-3.2,0.9-4.8
			C-98.2,1551-98.3,1551.1-98.3,1551.1z"/>
		<path d="M-126.8,1554.2c0.7-1.5,1.4-3.1,1.9-4.7c0,0-3.3,0.8-8.6-5.5c-3.8-4.5-4.1-13.2-3.5-18.8c-1,3.3-2.5,17.2,2.7,23.5
			C-130.9,1552.9-128.2,1554-126.8,1554.2z"/>
		<path d="M-137,1510.9c0.3,3.9,0.5,7.7,0.4,11.6c0.1-0.6,0.2-1.2,0.4-1.8c1-3.3,0-14.5,0-14.5s0.2-7.8-1.4-10.4
			c-1.6-2.6-4.8-17-4.8-17s0-4.9-2.7-7.4c-2.7-2.5-4.5-12.5-4.5-12.5c-1.6-2.5-2.3-5.5-2-8.4c0.6-4.9-3.3-10.2-3.3-10.2l-6.7-21.1
			l-6.3-15.8l-3.5,9.2c0,0,0,1.2-0.1,3l2.9-7.5l6.3,15.8l6.7,21.1c0,0,3.9,5.3,3.3,10.2c-0.3,3,0.4,5.9,2,8.4c0,0,1.8,10,4.5,12.5
			s2.7,7.4,2.7,7.4s3.3,14.5,4.9,17C-136.6,1503-137,1510.9-137,1510.9z"/>
	</g>
	<path class="st15" d="M-120.6,1151l-1.5,7.1l0.1,3.2l0.1,2.3l-8.2,0.8l-0.9-1.7l0,0c-1.7-3.1-5.2-9.3-6.3-10.2
		c-1.5-1.3-4.2-21.1-1-19.9c2,0.8,3.6,2.2,4.5,4.1C-133.8,1136.8-117.7,1138.6-120.6,1151z"/>
	<path class="st4" d="M-121.9,1163.7l-8.2,0.8l-0.9-1.7l0,0c2.3-2.6,6-3.2,9-1.5L-121.9,1163.7z"/>
	<path class="st0" d="M-119.9,1167.6l-10.8,2.5l-0.2-1.6l-0.6-4.3c0,0,4.3-5.7,10.4-1.4l0.5,2.2L-119.9,1167.6z"/>
	<path class="st15" d="M-294.2,1151.8l-11.5,6.2l-1-2.2c-1.1-2.3-2.7-5.7-3.2-7c-0.7-1.9-5.5-4.3-5.5-4.3
		c-12-11.5,2.3-21.4,2.3-21.4c7.6-15.2,16,5.2,16,5.2s1.2,10.8,0.3,11.5c-0.9,0.7-0.8,3.7-0.8,3.7c1.1,2.1,2,4.3,2.8,6.6
		C-294.4,1151.2-294.2,1151.8-294.2,1151.8z"/>
	<path class="st4" d="M-294.2,1151.8l-11.5,6.2l-1-2.2c1.6-1.4,7.4-6,9.3-5.8c0.9,0.1,1.8,0.1,2.7,0.1
		C-294.4,1151.2-294.2,1151.8-294.2,1151.8z"/>
	<path class="st0" d="M-293,1155.3l-12.9,6.4l-0.3-2.8l-0.2-1.9c0,0,7.5-6.4,9.7-6.2c1.1,0.2,2.3,0.2,3.4,0l0.2,2.3L-293,1155.3z"/>
	<path class="st15" d="M-151.9,1198.5c0,0-56.3,6.4-45.8,2.9c7.3-2.4,10.2-7,10.8-12.2c0.5-4.3-0.6-9-2.1-13c-1.3-3.5-3-7-5-10.2
		c0,0,43-23.7,34.4-2.1c-1.3,3.3-2.1,6.7-2.4,10.2c-0.3,3.5,0.1,7,1.1,10.3C-159.2,1189.8-156.1,1194.7-151.9,1198.5z"/>
	<path class="st4" d="M-159.5,1163.9c-1.3,3.3-2.1,6.7-2.4,10.2c-4,3.4-8.5,3.2-14.2,3.2c-4.4,0-9.2,1.1-12.7-1.1
		c-1.3-3.5-3-7-5-10.2C-193.9,1166-150.9,1142.3-159.5,1163.9z"/>
	<circle class="st15" cx="-176.9" cy="1155.5" r="23.3"/>
	<path class="st4" d="M-151.9,1198.5c0,0-56.3,6.4-45.8,2.9c7.3-2.4,10.2-7,10.8-12.2c2.8-3,8.4-5.2,12-6.4
		c3.3-1.1,6.9-1.2,10.2-0.2c1.3,0.4,2.6,1,3.7,1.7C-159.3,1189.8-156.2,1194.7-151.9,1198.5z"/>
	<path class="st4" d="M-119.9,1167.6l-10.8,2.5l-0.2-1.6c2.4-3.2,6.5-4.7,10.3-3.5L-119.9,1167.6z"/>
	<path class="st4" d="M-293,1155.3l-12.9,6.4l-0.3-2.8c4.2-2.2,8.5-4.2,13-5.8L-293,1155.3z"/>
	<path class="st4" d="M-129.7,1340.3c-21.8,3.5-52.8,7.9-57.7,6.4c-4.1-1.2-17.1-1.1-28.5-0.7c0.1-5.7,0.2-9.5,0.2-9.5l84.5-8.8
		C-131.2,1327.7-131.3,1331.6-129.7,1340.3z"/>
	<path class="st11" d="M-107.9,1335.2c0,0-71.8,12.3-79.5,10s-47.2,0.2-47.2,0.2c-17.8,11.9-10.4-5.7-10.4-5.7s-1.6-9.2,0.6-16.6
		c1.4-5.5,2.4-11,3-16.6c0,0-0.4-11.7,1.8-14.5s4.7-22.3,4.7-22.3s2-13.3,1.8-16.2s0.6-11.1,0.6-11.1l2.5-13.7
		c-14.7-2-59.3-29.3-59.3-29.3c-2.2-9.2-18.8-30.7-18.8-30.7c-0.2-1.8-0.7-3.6-1.4-5.3c-1.2-3.1,16.4-9.4,16.4-9.4
		s13.1,16,15.8,20.3c2.7,4.3,12.1,12.3,12.1,12.3c1.5-0.1,2.9,0,4.3,0.6l0.2,0.1l0,0c3.1,1.2,6.1,2.9,8.8,5
		c4.4-0.1,8.7,1.5,11.9,4.5c0,0,8-1.2,9.4,0.2c1.4,1.4,8.2,0,8.2,0s6.8-14.5,11.3-10.3s23.6,4,23.6,4c2.5-3.4,8.7-5.8,12.6-7
		c3.3-1.1,6.9-1.2,10.2-0.2c1.4,0.4,2.8,1.1,4,2l11.6,11.3c0,0,3.3-4.3,2.9-5.3s3.9-1.8,3.9-1.8s5.7-1.8,7.8-2.4s4.1,1.7,4.3,1.9
		c-0.1-0.2-1.5-5-1-8.6s-2.3-7-2.3-7c6.8-16.8,22.3-2.7,22.3-2.7s1.8,9.2,0.2,12.7s1.6,11,1.2,12.9s0.8,5.3,0.8,9s-2,10.8-3.1,13.9
		s-10.6,10.2-10.6,10.2s-0.6,11.1-4.7,17.6c-4.1,6.5-1.5,28.5-1.5,28.5s3.9,17.2,8.8,22.7S-107.9,1335.2-107.9,1335.2z"/>
	<path class="st4" d="M-212.5,1206.5c0,0-2.2-6.5-4.1-7c-1.9-0.7-3.8-1.6-5.7-2.5l1.3-2.4c0,0,7.3,2,8.5,4.2
		C-211.3,1201-212.5,1206.5-212.5,1206.5z"/>
	<path class="st4" d="M-251.8,1192.2c-0.4,2-17.8,3.7-17.8,3.7l8.8-8.8l0,0l0.2,0.1l0,0C-257.5,1188.4-254.5,1190.1-251.8,1192.2z"
		/>
	<circle class="st16" cx="-302.2" cy="1165.4" r="1.6"/>
	<circle class="st16" cx="-300.2" cy="1168.5" r="1.6"/>
	<circle class="st16" cx="-298.2" cy="1171.4" r="1.6"/>
	<circle class="st16" cx="-296.2" cy="1174.5" r="1.6"/>
	<circle class="st16" cx="-111.8" cy="1174.3" r="1.3"/>
	<circle class="st16" cx="-111.7" cy="1177.2" r="1.3"/>
	<circle class="st16" cx="-111.5" cy="1180.1" r="1.3"/>
	<path class="st4" d="M-212.5,1259.5c-0.2-0.2,43.9,55.4,78.1,23.3C-134.3,1282.8-188.4,1290.1-212.5,1259.5z"/>
	<path class="st4" d="M-237.8,1288.4c0,0,26.4,0.7,29.1,8.3v7.9c-1.5,0.8-3.4,0.8-4.9,0c-2.7-1.4-18.6-9.5-24.2-5.6L-237.8,1288.4z"
		/>
	<path class="st11" d="M-237.3,1288.4c0,0,25.2,0.7,27.9,7.9v7.5c-1.5,0.8-3.2,0.8-4.7,0c-2.5-1.4-17.8-9.1-23.2-5.4V1288.4z"/>
	<path class="st4" d="M-223.4,1231.1c2.7,6.2,6.1,12.1,10.2,17.5c4.5,6,9.9,11.2,16,15.5C-197.1,1264.2-222.9,1234.8-223.4,1231.1z"
		/>
	<path class="st4" d="M-232,1200.5c0,0,4.4,19,15.7,25.5L-232,1200.5z"/>
	<path class="st4" d="M-238.7,1202.4c-0.1-0.4-3.9,15,14.6,23.5C-224.1,1225.9-232,1223.3-238.7,1202.4z"/>
	<path class="st4" d="M-123.6,1189.7c-0.3,0,9.1,6,11.7,8.8C-111.8,1198.5-118,1189.3-123.6,1189.7z"/>
	<path class="st13" d="M-183.2,1176.5c0,2,1.7,3.7,3.7,3.6c0.1,0,0.2,0,0.3,0c7.1,0.4,14.5,0.8,21-2c1.2-0.4,2.3-1.2,3.2-2.1
		c1.2-1.4,1.4-3.4,1.9-5.1c0.9-3.5,2.9-6.6,4.3-9.9c2.4-5.6,3.2-11.7,2.3-17.8c-0.2-1.8-0.8-3.6-1.8-5.2c-1.9-2.7-5.3-3.8-7.8-5.9
		s-4.1-5.4-7-7c-2.6-1.5-5.8-1.3-8.8-0.8c-5.8,1-11.4,3.1-16.4,6.1c-1.7,1-3.5,2.2-5.5,1.9c-1.7-0.3-2.9-1.8-4-3.1
		c-1.4,3.2-1.9,6.7-1.7,10.1c0.1,0.5,0.1,1,0,1.5c-0.2,0.6-0.6,1.2-1.1,1.6c-1.8,2-2.8,5.2-1.1,7.3c0.8,0.9,1.9,1.4,2.6,2.3
		c1.3,1.6,0.9,4,0.8,6.1c-0.1,0.7,0.1,1.5,0.5,2.1c0.8,0.7,1.9,1,2.9,0.7s2-0.4,3.1-0.3c1.1,0.4,2,1.1,2.7,2
		C-185.9,1166.9-184.6,1171.5-183.2,1176.5z"/>
	<g class="st17">
		<path d="M-154.2,1174.3c-0.9,1-2,1.7-3.2,2.1c-6.6,2.7-13.9,2.4-21,2c-0.8,0-1.5-0.2-2.2-0.5c-1.1-0.6-1.5-1.9-1.8-3.1
			c-1.4-5-2.7-9.6-5.9-13.8c-0.6-1-1.6-1.7-2.7-2.1c-1-0.1-2.1,0-3.1,0.3s-2.1,0-2.9-0.7c-0.4-0.6-0.6-1.3-0.5-2.1
			c0-2.1,0.5-4.4-0.8-6.1c-0.7-0.9-1.9-1.4-2.6-2.3c-1-1.4-1.2-3.1-0.5-4.7c-1.2,2-1.8,4.5-0.3,6.2c0.8,0.9,1.9,1.4,2.6,2.3
			c1.3,1.6,0.9,4,0.8,6.1c-0.1,0.7,0.1,1.5,0.5,2.1c0.8,0.7,1.9,1,2.9,0.7s2-0.4,3.1-0.3c1.1,0.4,2,1.1,2.7,2
			c3.3,4.2,4.5,8.8,5.9,13.8c0.2,1.2,0.8,2.4,1.7,3.2c0.7,0.3,1.4,0.5,2.2,0.5c7.1,0.4,14.5,0.8,21-2c1.2-0.4,2.3-1.2,3.2-2.1
			c0.4-0.6,0.8-1.2,1-1.9C-154.1,1174.1-154.1,1174.2-154.2,1174.3z"/>
		<path d="M-199.5,1140.4c0.3-0.3,0.6-0.7,0.7-1.2c0.1-0.5,0.1-1,0-1.5c-0.2-2.9,0.2-5.7,1.1-8.4l-0.1-0.1
			c-1.4,3.2-1.9,6.7-1.7,10.1C-199.4,1139.6-199.4,1140-199.5,1140.4z"/>
	</g>
	<path class="st4" d="M-187.4,1190.6c0,0,29.1,3.9,31.7-0.5"/>
	<path class="st4" d="M-130.9,1178.6c0,0,16.2,0,19.7,6.1"/>
</g>
</svg>
