<?xml version="1.0" encoding="utf-8"?>
<!-- Generator: Adobe Illustrator 19.0.0, SVG Export Plug-In . SVG Version: 6.00 Build 0)  -->
<svg version="1.1" id="图层_1" xmlns="http://www.w3.org/2000/svg" xmlns:xlink="http://www.w3.org/1999/xlink" x="0px" y="0px"
	 viewBox="-929 1005.5 975.3 825.2" style="enable-background:new -929 1005.5 975.3 825.2;" xml:space="preserve">
<style type="text/css">
	.st0{opacity:0.1;fill:#6C63FF;enable-background:new    ;}
	.st1{fill:#6C63FF;}
	.st2{opacity:0.1;enable-background:new    ;}
	.st3{fill:#FFD037;}
	.st4{fill:#65617D;}
	.st5{fill:#9D9CB5;}
	.st6{fill:#EAECF0;}
	.st7{fill:#D3DAE1;}
	.st8{fill:#D48A9B;}
	.st9{fill:#EFC6CD;}
	.st10{fill:#FFFFFF;}
	.st11{fill:#3A3768;}
	.st12{fill:#D5E1F4;}
	.st13{fill:#535461;}
	.st14{fill:#434175;}
	.st15{fill:#565387;}
	.st16{fill:#EE8E9E;}
	.st17{fill:#DFE5EE;}
	.st18{fill:#603556;}
</style>
<g id="_x23_office_x28_have_x5B_wall_x5D__x29_">
	<title>work time</title>
	<g>
		<g>
			<g>
				<path class="st0" d="M-13.8,1580.2c-6.4,15.5-14.8,30.3-26.6,41.6c-14.3,13.8-32.2,21.4-51.2,25c-5.6,1-11.3,1.8-17,2.2
					c-15.1,1.2-30.5,0.4-45.3-1.2c-36.3-4-72-11.6-106.7-22.8c-5.7-1.8-11.4-3.8-17-5.8c-8.5-3-16.9-6.3-25.3-9.8
					c-34-14.2-69.2-32.3-105.3-26.7c-17.5,2.7-34,11-51.6,13.5c-12.3,1.6-24.9,0.7-36.8-2.6c-5.8-1.6-11.5-3.5-17-5.9
					c-12.4-5.4-24.3-12.1-35.3-20c-26.5-18.5-50.3-41.5-78.2-57.5c-30.8-17.7-64.8-26.1-99.5-32.4c-5.6-1-11.3-2-17-2.9
					c-16-2.6-32.1-5.1-48-8c-15.3-2.8-30.8-6.3-44.1-14.8c-9.5-6-17.5-14.4-24.8-23.3c-13.5-16.4-25.1-34.2-34.5-53.2
					c-0.5-1-1-2-1.5-3c-14.7-30.1-24.6-63-30.6-97c-0.2-1-0.4-2-0.5-3c-5.7-33.3-7.8-67.8-7.1-102l0.1-3c0.4-16.9,1.4-33.7,3-50.3
					c1.1-11.7,2.6-23.8,8.7-33.6c6-9.8,15.9-16.1,25.7-21.3c43.2-23.1,84.7-29.5,131.3-18.3c7.5,1.8,14.9,3.7,22.4,5.7
					c5.7,1.5,11.3,3.1,17,4.7c39.1,10.9,78.2,22.5,118.6,26c3.9,0.3,7.8,0.6,11.7,0.8c7.7,0.4,15.5,0.4,23.2,0.2
					c19.9-0.6,39.8-2.6,59.4-6.1c5.7-1,11.3-2.1,17-3.3c24.4-5.1,48.6-11.9,72.4-19.4c4.9-1.5,9.7-3.1,14.6-4.7
					c10.9-3.6,21.8-7.2,32.8-10.8c32.7-10.6,65.5-20.3,99.3-24.2c2.9-0.3,5.8-0.6,8.7-0.9c2.8-0.2,5.5-0.4,8.3-0.6
					c52.5-2.8,105.5,9.8,152,35.7c5.8,3.2,11.4,6.6,17,10.2c7.7,5,15.2,10.4,22.4,16.2c14.8,11.9,28.7,25.3,39.3,41.5
					c10.3,15.8,17,33.5,20.8,52.2c0.2,1,0.4,2,0.6,3c5.7,30.1,3.9,62.4-2.4,92.5c-0.7,3.2-1.4,6.3-2.1,9.5c-0.2,1-0.5,2-0.7,3
					c-6.8,28.5-15.6,56.9-13.3,86.1c0.3,3.7,0.8,7.3,1.3,10.9c0.2,1,0.3,2,0.5,3c4.5,23.8,14.6,46.3,20.7,69.9
					C7,1490.2,3.7,1537.4-13.8,1580.2z"/>
				<path class="st0" d="M-91.6,1170.6h83.2c-0.2-1-0.4-2-0.6-3h-82.6v-109.9c-5.6-3.6-11.2-7-17-10.2v120.1h-152v-155.9
					c-2.8,0.1-5.5,0.3-8.3,0.6c-2.8,0.3-5.8,0.5-8.7,0.9v154.4h-217l-0.5-0.6l118.3-129.7c-10.9,3.5-21.9,7.2-32.8,10.8l-86.9,95.4
					v-71.4c-5.7,1.2-11.3,2.3-17,3.3v71.3l-59.5-65.2c-7.7,0.2-15.5,0.1-23.2-0.2l78.2,85.8l-0.5,0.6h-208v-113.2
					c-5.7-1.6-11.3-3.2-17-4.7v117.8h-191.2l-0.1,3h191.2v102h-184c0.2,1,0.3,2,0.5,3h183.6v97h-153c0.5,1,1,2,1.5,3h151.5v99.3
					c5.7,0.9,11.3,1.9,17,2.9v-102.2h213v212c5.5,2.4,11.2,4.3,17,5.9v-217.9h219v243.6c5.6,2,11.3,4,17,5.8v-249.4h152V1649
					c5.7-0.4,11.4-1.2,17-2.2v-271.2H-25c-0.2-1-0.4-2-0.5-3h-66v-97h77.9c0.2-1,0.5-2,0.7-3h-78.6L-91.6,1170.6L-91.6,1170.6
					L-91.6,1170.6z M-108.6,1170.6v102h-152v-102H-108.6L-108.6,1170.6z M-277.6,1272.6h-219v-102h219V1272.6z M-726.6,1170.6h210
					l3,2.7v99.3h-213V1170.6z M-726.6,1372.6v-97h213v97H-726.6z M-496.6,1372.6v-97h219v97H-496.6z M-108.6,1372.6h-152v-97h152
					C-108.6,1275.6-108.6,1372.6-108.6,1372.6z"/>
				<path class="st0" d="M-181.6,1100.3h-1.4c0.9-0.5,1.6-1.5,1.6-2.6l0,0c0-2.1-2.5-3.8-5.6-3.8h-39.4c-3.1,0-5.6,1.7-5.6,3.8l0,0
					c0,2.1,2.5,3.8,5.6,3.8h1.3c-0.9,0.5-1.5,1.5-1.6,2.6c0,1.8,1.8,3.2,4.3,3.6h-11.4c-3.1,0-5.6,1.7-5.6,3.8
					c0,2.1,2.5,3.8,5.6,3.8h39.4c3.1,0,5.6-1.7,5.6-3.8c0-1.8-1.8-3.2-4.3-3.6h11.3c3.1,0,5.6-1.7,5.6-3.8
					S-178.5,1100.3-181.6,1100.3z"/>
				<path class="st0" d="M-608.8,1136.1h-1.3c0.9-0.6,1.5-1.5,1.6-2.6l0,0c0-2.1-2.5-3.8-5.6-3.8h-39.4c-3.1,0-5.6,1.7-5.6,3.8l0,0
					c0,2.1,2.5,3.8,5.6,3.8h1.3c-0.9,0.6-1.5,1.5-1.6,2.6c0,1.8,1.8,3.2,4.3,3.6h-11.3c-3.1,0-5.6,1.7-5.6,3.8
					c0,2.1,2.5,3.8,5.6,3.8h39.4c3.1,0,5.6-1.7,5.6-3.8c0-1.8-1.9-3.2-4.3-3.6h11.4c3.1,0,5.6-1.7,5.6-3.8
					S-605.7,1136.1-608.8,1136.1z"/>
				<path class="st0" d="M-121.2,1289.2h-1.3c0.9-0.6,1.5-1.5,1.6-2.6l0,0c0-2.1-2.5-3.8-5.6-3.8h-39.4c-3.1,0-5.6,1.7-5.6,3.8l0,0
					c0,2.1,2.5,3.8,5.6,3.8h1.3c-0.9,0.6-1.5,1.5-1.6,2.6c0,1.8,1.8,3.2,4.3,3.6h-11.4c-3.1,0-5.6,1.7-5.6,3.8s2.5,3.8,5.6,3.8h39.4
					c3.1,0,5.6-1.7,5.6-3.8c0-1.8-1.8-3.2-4.3-3.6h11.3c3.1,0,5.6-1.7,5.6-3.8S-118.1,1289.2-121.2,1289.2z"/>
			</g>
		</g>
	</g>
</g>
<g id="_x23_accessory_x28_have_x5B_plant_x5D__x29_">
	<g>
		<g>
			<g>
				<path class="st1" d="M-36.5,1573.2c0,0,7.1,9.3-3.3,23.4s-19,26-15.5,34.8c0,0,15.7-26.2,28.5-26.5S-22.4,1588.9-36.5,1573.2z"
					/>
				<path class="st2" d="M-36.5,1573.2c0.6,0.9,1.1,1.9,1.4,2.9c12.5,14.7,19.2,28.4,7.2,28.7c-11.2,0.3-24.6,20.3-27.8,25.4
					c0.1,0.4,0.2,0.8,0.4,1.2c0,0,15.7-26.2,28.5-26.5C-14,1604.6-22.4,1588.9-36.5,1573.2z"/>
				<path class="st3" d="M-23.2,1585.1c0,3.3-0.4,6-0.8,6s-0.8-2.7-0.8-6s0.5-1.7,0.9-1.7S-23.2,1581.8-23.2,1585.1z"/>
				<path class="st3" d="M-18.7,1589c-2.9,1.6-5.4,2.5-5.6,2.1s1.9-2,4.8-3.6s1.8-0.4,2,0C-17.3,1587.9-15.8,1587.4-18.7,1589z"/>
				<path class="st1" d="M-74.2,1573.2c0,0-7.1,9.3,3.3,23.4s19,26,15.5,34.8c0,0-15.7-26.2-28.5-26.5S-88.3,1588.9-74.2,1573.2z"/>
				<path class="st2" d="M-74.2,1573.2c-0.6,0.9-1.1,1.9-1.5,2.9c-12.5,14.7-19.2,28.4-7.1,28.7c11.2,0.3,24.6,20.3,27.8,25.4
					c-0.1,0.4-0.2,0.8-0.4,1.2c0,0-15.7-26.2-28.5-26.5C-96.7,1604.6-88.3,1588.9-74.2,1573.2z"/>
				<path class="st3" d="M-87.4,1585.1c0,3.3,0.4,6,0.8,6c0.4,0,0.8-2.7,0.8-6s-0.5-1.7-0.9-1.7S-87.4,1581.8-87.4,1585.1z"/>
				<path class="st3" d="M-92,1589c2.9,1.6,5.4,2.5,5.6,2.1s-2-2-4.8-3.6s-1.7-0.4-2,0S-94.9,1587.4-92,1589z"/>
				<ellipse class="st0" cx="-55.3" cy="1691.3" rx="74.6" ry="11.5"/>
				<path class="st4" d="M-16.9,1618.8l-0.4,2.9l-0.5,4.1l-0.2,1.7l-0.5,4.1l-0.2,1.7l-0.5,4.1l-5.7,46.8c-0.5,4.2-7.3,7.4-15.6,7.4
					h-29.7c-8.2,0-15-3.2-15.6-7.4l-5.7-46.8l-0.5-4.1l-0.2-1.7l-0.5-4.1l-0.2-1.7l-0.5-4.1l-0.3-2.9c-0.3-2.4,3.4-4.4,8.1-4.4H-25
					C-20.4,1614.4-16.7,1616.4-16.9,1618.8z"/>
				<polygon class="st5" points="-17.3,1621.7 -17.8,1625.8 -92.9,1625.8 -93.4,1621.7 				"/>
				<polygon class="st5" points="-18,1627.5 -18.5,1631.6 -92.2,1631.6 -92.7,1627.5 				"/>
				<polygon class="st5" points="-18.7,1633.4 -19.2,1637.5 -91.5,1637.5 -92,1633.4 				"/>
			</g>
		</g>
	</g>
</g>
<g>
	<g id="_x23_office_x28_have_x5B_desk_x2C_computer_x5D__x29_">
		<ellipse class="st0" cx="-865" cy="1715.1" rx="41.4" ry="6.3"/>
		<ellipse class="st0" cx="-267.9" cy="1723.7" rx="41.4" ry="6.3"/>
		<ellipse class="st0" cx="-369.9" cy="1782.5" rx="41.4" ry="6.3"/>
		<ellipse class="st0" cx="-730.9" cy="1667.7" rx="41.4" ry="6.3"/>
		<polygon class="st6" points="-728.6,1612.8 -267.9,1664.5 -267.9,1679.2 -729.8,1625.7 		"/>
		<polygon class="st6" points="-729.4,1667.3 -738.1,1667.3 -738.1,1450.3 -731.8,1452.2 -731.7,1458.7 		"/>
		<polygon class="st7" points="-725.5,1663.8 -729.4,1667.3 -731.7,1458.7 -731.8,1452.2 -727.2,1452.2 -727.2,1459.1 		"/>
		<polygon class="st7" points="-863.2,1658.3 -735.6,1613.8 -735.6,1618 -863.2,1662.1 		"/>
		<polygon class="st6" points="-860.9,1672.2 -863.2,1662.1 -735.6,1618 -735.6,1626.8 		"/>
		<polygon class="st6" points="-267.9,1436.4 -267.9,1723.3 -274.5,1723.3 -274.9,1457.2 -274.9,1448.7 		"/>
		<polygon class="st7" points="-263,1435 -263,1720.9 -267.9,1723.3 -267.9,1436.4 		"/>
		<polygon class="st7" points="-369.9,1717 -274.6,1663.8 -267.9,1667.7 -369.9,1723.3 		"/>
		<polygon class="st6" points="-366.9,1735.2 -369.9,1723.3 -267.9,1667.7 -267.9,1679.2 		"/>
		<polygon class="st6" points="-381.2,1482.3 -380.9,1785.3 -371.4,1785.3 -372.8,1478.8 		"/>
		<polygon class="st7" points="-366.9,1476 -366.9,1782.8 -371.4,1785.3 -372.8,1478.8 -372.3,1478.5 		"/>
		<polygon class="st6" points="-864.4,1717.4 -872.4,1717.4 -875.2,1446.4 -875.2,1441.7 -867.5,1441.7 -867.5,1447 		"/>
		<polygon class="st7" points="-858.8,1715.3 -864.4,1717.4 -867.5,1447 -867.5,1441.7 -861.6,1441.7 -861.5,1447.5 		"/>
		<polygon class="st2" points="-372.3,1478.5 -366.9,1476 -366.9,1487.9 -372.1,1489.6 		"/>
		<polygon class="st2" points="-263,1435 -263,1453.2 -267.9,1454.9 -274.9,1457.2 -274.9,1448.7 -267.9,1436.4 		"/>
		<polygon class="st8" points="-263,1400.1 -263,1450.4 -372.1,1486.8 -372.8,1432.9 		"/>
		<polygon class="st9" points="-876.6,1396.5 -733.2,1369.3 -263,1400.1 -372.8,1432.9 		"/>
		<polygon class="st8" points="-876.6,1396.5 -876.6,1443.4 -372.1,1486.8 -372.8,1432.9 		"/>
		<polygon class="st8" points="-476.6,1452.3 -542.5,1452.3 -542.5,1428.4 -476.6,1433 		"/>
		<polygon class="st2" points="-476.6,1452.3 -542.5,1452.3 -542.5,1428.4 -476.6,1433 		"/>
		<polygon class="st2" points="-631,1423.2 -631,1460.9 -378.1,1480.2 -378.1,1439.9 -476.8,1434.3 -486.5,1443.1 -526.8,1440.3 
			-541.1,1429.8 		"/>
		<polygon class="st10" points="-632.4,1421.7 -632.4,1459.5 -379.5,1478.8 -379.5,1438.5 -478.1,1432.9 -487.9,1441.7 
			-528.2,1438.9 -542.5,1428.4 		"/>
		<polygon class="st10" points="-869.6,1404.9 -869.6,1438.9 -640.1,1457.1 -640.1,1421.1 -728.6,1415.8 -738.1,1422.8 
			-773.8,1420.7 -788.5,1411.6 		"/>
		<polygon class="st2" points="-378.1,1405.1 -345.9,1407.2 -399.2,1423.2 -426.3,1421.2 		"/>
		<polygon class="st10" points="-378.1,1403.7 -345.9,1405.8 -399.2,1421.7 -426.3,1419.8 		"/>
		<path class="st7" d="M-381.9,1407.3c1.3-0.5,2.6,0.5,4,0.7c0.8,0.1,1.6,0,2.3,0.1c1.6,0.2,3.2,1.3,4.7,0.7"/>
		<path class="st7" d="M-383.6,1408.3c1.3-0.5,2.6,0.5,4,0.7c0.8,0.1,1.6,0,2.3,0.1c1.6,0.2,3.1,1.3,4.6,0.7"/>
		<path class="st7" d="M-387.4,1410.2c1.3-0.5,2.6,0.5,4,0.7c0.8,0.1,1.6,0,2.3,0.1c1.6,0.2,3.1,1.3,4.6,0.7"/>
		<polygon class="st11" points="-524.2,1350.9 -524.2,1390.1 -561.6,1387.1 -561.6,1350.9 		"/>
		<polygon class="st2" points="-524.2,1386.9 -524.2,1390.1 -561.6,1387.1 -561.6,1383.9 		"/>
		<path class="st11" d="M-512.8,1392.9l-58.2-3l0,0c0-3.1,2.6-5.7,5.7-5.7l0,0l46.8,3C-515.3,1387.2-512.8,1389.7-512.8,1392.9
			L-512.8,1392.9L-512.8,1392.9z"/>
		<path class="st11" d="M-441.6,1361.7l-201.5-6c-3.4,0-6.1-2.7-6.1-6.1l0,0v-119c0-3.4,2.7-6.1,6.1-6.1l0,0l201.5,6
			c3.4,0,6.1,2.7,6.1,6.1v119C-435.5,1359-438.2,1361.7-441.6,1361.7L-441.6,1361.7z"/>
		<polygon class="st1" points="-440.5,1353 -644.7,1347 -644.7,1239.8 -440.5,1245.8 		"/>
		<ellipse class="st10" cx="-542.6" cy="1234.2" rx="1.8" ry="1.8"/>
		<polygon class="st2" points="-524.2,1358.4 -561.6,1357.8 -561.6,1359 -524.2,1359 		"/>
		<polygon class="st2" points="-592.2,1395.2 -541.1,1398.5 -552,1414.2 -608.2,1408.2 		"/>
		<polygon class="st11" points="-593.2,1394.2 -542.1,1397.5 -553,1413.2 -609.2,1407.2 		"/>
		<polygon class="st12" points="-590.9,1395.3 -546.4,1398.1 -555.9,1410.8 -604.9,1405.9 		"/>
		<polygon class="st2" points="-868.2,1406.3 -868.2,1440.3 -638.7,1458.5 -638.7,1422.4 -727.2,1417.2 -736.7,1424.2 
			-772.4,1422.1 -787.1,1413 		"/>
	</g>
	<g id="_x23_man_x28_sit_x5F_on_x5B_chair_x5D__x29_">
		<polygon class="st2" points="-861.6,1441.7 -861.5,1447.5 -867.5,1447 -875.2,1446.4 -875.2,1441.7 		"/>
		<polygon class="st2" points="-727.2,1459.1 -731.7,1458.7 -738.1,1458.2 -738.1,1450.3 -731.8,1452.2 -727.2,1452.2 		"/>
		<polygon class="st8" points="-788.5,1411.6 -728.6,1415.8 -729.4,1434.8 -768.4,1434.8 -794.5,1424.5 		"/>
		<polygon class="st2" points="-788.5,1411.6 -728.6,1415.8 -729.4,1434.8 -768.4,1434.8 -794.5,1424.5 		"/>
		<polygon class="st2" points="-859.3,1660.8 -857.8,1660.2 -858.6,1671.4 -859.3,1671.7 		"/>
		<circle class="st13" cx="-906" cy="1748.6" r="9.4"/>
		<circle class="st13" cx="-889.2" cy="1785.3" r="9.4"/>
		<circle class="st13" cx="-721.7" cy="1791.9" r="9.4"/>
		<circle class="st13" cx="-684.2" cy="1744" r="9.4"/>
		<rect x="-801.9" y="1582.7" class="st13" width="11.8" height="73.5"/>
		<rect x="-801.9" y="1644.3" class="st2" width="11.8" height="11.9"/>
		<rect x="-804.2" y="1647.1" class="st11" width="16.3" height="81.5"/>
		<path class="st11" d="M-686.3,1728.1l-106.7-4.4v17.2h123.9C-671.7,1733.5-678.5,1728.4-686.3,1728.1z"/>
		<path class="st11" d="M-899.7,1728.1l106.7-4.4v17.2h-123.8C-914.3,1733.5-907.5,1728.4-899.7,1728.1z"/>
		<path class="st11" d="M-804.2,1725.5l-85.2,42c-7.4,3.6-12,11.1-12,19.3v1.3l99.5-43.4l14-1l82.7,52.8l0,0
			c1.1-8-2.4-15.9-8.9-20.5l-73.8-52.3L-804.2,1725.5z"/>
		<path class="st2" d="M-790.2,1582.7v7.9c-2.1,0.1-4.2,0.1-6.3,0.1c-1.9,0-3.7,0-5.5-0.1v-8L-790.2,1582.7L-790.2,1582.7z"/>
		<ellipse class="st11" cx="-796.5" cy="1575.3" rx="43.4" ry="12.7"/>
		<path class="st2" d="M-753.5,1575.3c-0.1,1.4-0.8,2.8-1.9,3.7c-5.4,5.2-21.9,9-41.5,9c-19.2,0-35.4-3.6-41.2-8.7
			c-1.3-0.9-2.1-2.4-2.2-4c0-7,19.4-12.7,43.4-12.7S-753.5,1568.3-753.5,1575.3z"/>
		<path class="st2" d="M-753.1,1575.3c-0.1,1.4-0.8,2.8-1.9,3.7c-5.5-1.4-9.3-2.5-9.3-2.5s-38.2,2.1-73.4,2.9
			c-1.3-0.9-2.1-2.4-2.2-4c0-7,19.4-12.7,43.4-12.7S-753.1,1568.3-753.1,1575.3z"/>
		<path class="st11" d="M-906,1408.1c0,0,14.4,39.2,13.6,62.6c-0.8,23.4-11.9,67.6-11.9,67.6s-11.2,35.7,17.5,38.8
			s122.5-2.1,122.5-2.1s35,10.5,46.2,5.9c4.4-1.8,8.1-5.6,11.1-9.7c6.6-9.1,4.7-21.8-4.4-28.4c-0.3-0.2-0.6-0.4-0.9-0.6
			c-5.2-3.3-10.9-5.7-16.9-7.2c-1.3-0.3-2.6-0.5-3.9-0.5l-122.3,2.4c0,0-13.6-2.1-11.2-15.7c2.4-13.6,6.6-55.6,6.6-55.6
			s0.7-51.1-23.8-65.4C-908.3,1385.9-906,1408.1-906,1408.1z"/>
		<path class="st2" d="M-906,1408c0,0,14.4,39.2,13.6,62.6c-0.8,23.4-11.9,67.5-11.9,67.5s-11.2,35.7,17.5,38.8s122.5-2.1,122.5-2.1
			s35,10.5,46.2,6c4.4-1.8,8.1-5.7,11.1-9.7c6.6-9.1,4.7-21.8-4.4-28.5c-0.3-0.2-0.6-0.4-0.9-0.6c-5.2-3.2-10.9-5.7-16.9-7.2
			c-1.3-0.3-2.6-0.5-3.9-0.5l-122.3,2.4c0,0-13.6-2.1-11.2-15.8c2.4-13.7,6.6-55.6,6.6-55.6s0.7-51.1-23.8-65.4
			C-908.3,1385.6-906,1408-906,1408z"/>
		<path class="st11" d="M-903.2,1406.7c0,0,14.4,39.2,13.6,62.6c-0.7,23.4-11.9,67.5-11.9,67.5s-11.1,35.8,17.5,38.9
			s122.4-2.1,122.4-2.1s35,10.5,46.2,6c4.4-1.8,8.1-5.7,11.1-9.7c6.6-9.1,4.7-21.8-4.4-28.4c-0.3-0.2-0.6-0.4-0.9-0.6
			c-5.2-3.3-10.9-5.7-16.9-7.3c-1.3-0.3-2.6-0.5-3.9-0.5l-122.3,2.4c0,0-13.6-2.1-11.2-15.7c2.4-13.6,6.6-55.6,6.6-55.6
			s0.7-51.1-23.8-65.4C-905.6,1384.5-903.2,1406.7-903.2,1406.7z"/>
		<path class="st14" d="M-655,1743.6v12.7c0,0,60.4,1.1,73.7,1.1s31.6-6.5,32.7-11.8c1.1-5.3-15.3-9.6-21.4-9.8
			c-6.1-0.2-6.3-2.6-14.2-6.8c-4.4-2.3-11.2-9.1-16.2-14.6c-3.9-4.2-6.7-7.7-6.7-7.7s-32.5-0.7-41.9,4.6c-2.2,1.2-3.6,3.6-4.7,6.5
			C-656.9,1727.6-655,1743.6-655,1743.6z"/>
		<path class="st2" d="M-653.5,1717.8c6.8-2.4,46.7-3.3,53.3-3.4c-3.9-4.2-6.7-7.7-6.7-7.7s-32.5-0.7-41.9,4.6
			C-651,1712.5-652.5,1714.9-653.5,1717.8z"/>
		<path class="st15" d="M-828.8,1516.1l3.5,2.1l1.3,0.8l5.1,3.1c27.4,16.5,102.2,61.3,106.3,61c1.1-0.1,4.3-0.6,8.7-1.3
			c1.2-0.2,2.5-0.4,3.8-0.6c17.1-2.8,45.6-8,48.8-9.4c4.4-2,3.5,6.8,1.7,14.2s-3,43-1.1,47.6s1.1,12,1.1,12l-2.6,39.9l1.8,8.5
			c0,0-5.9,4.8-3.5,7.6c2.4,2.8,0.2,15.1,0.2,15.1c7-2.6,54.3-3.5,54.3-3.5s-2-17.5-0.2-21.6s0.4-28.8,0.4-28.8s1.1-18.8-0.9-23.1
			c-2-4.3,0.6-32.3,0.6-32.3s1.8-16.6,2.2-50.4s-19.2-34.9-19.2-34.9s-2.6-0.2-6.6-0.6c-7.8-0.8-20.7-2.2-29.4-4
			c-1.8-0.4-3.5-0.8-5.2-1.4c-10.7-3.6-46.7-3.8-52.6-1.2c-5.7,2.5-11.3,0.2-11.8,0l0,0l-4.6-7.4l-43.8,3.7l-4.6,0.4l-43.1,3.7
			l-3,0.3L-828.8,1516.1z"/>
		<path class="st2" d="M-653.4,1549.5c12.7,6.2,24.8-15.8,30.5-28.2c-7.8-0.8-20.7-2.2-29.4-4
			C-658,1526.9-665.6,1543.6-653.4,1549.5z"/>
		<path class="st16" d="M-691.6,1401.1c0.3,1.5,0.8,2.9,1.5,4.3c4.7,9.5,18.3,29.1,18.3,29.1c4,2.5,7.5,6,10,10
			c3.7,6.3,4.8,21.2,4.8,21.2s8.3,32.9,12.2,37.5c2,2.3,1.1,3.7-0.3,4.4c-2.8,1.6-5.2,3.8-6.9,6.5c-5.7,9.2-14.9,27.4-2,33.7
			c17.5,8.5,33.8-36.1,33.8-36.1s-3.3-31.6-4.1-37.1s-6.1-27.9-6.1-27.9s-3.7-9.6-5.9-16.4s-8.7-14.6-8.7-14.6s-11.8-23.6-15.1-27
			c-1.5-1.6-3.6-3.7-5.5-5.4c-2.1-2-3.9-3.6-3.9-3.6S-691.8,1395.9-691.6,1401.1z"/>
		<path class="st14" d="M-839.5,1741l39.7,17.7c0,0,51.4,1.1,60.4-1.3s7-12.4-4.8-14.4s-14.6-7.2-18.5-9.6
			c-2.6-1.6-12.1-12.1-17.9-18.7c-2.8-3.2-4.8-5.5-4.8-5.5s-7.6-20.3-28.8-15.7c-3.9,0.8-7.4,2.7-10.3,5.5
			c-11.4,10.6-12.4,31.5-12.4,31.5L-839.5,1741z"/>
		<path class="st2" d="M-824,1519l5.1,3.1c27.4,16.5,102.2,61.3,106.3,61c1.1-0.1,4.3-0.6,8.7-1.3c1.2-0.2,2.5-0.4,3.8-0.6l0.1-0.2
			c2.2-3.8,3.9-8,5-12.2c4.6-17.5-18.1-30.8-18.1-30.8l-4.8-3.7c-5.5-9.2-44.7-17.9-44.7-17.9l-5.1-3.5l-2.7-1.8l-0.7-0.5l-6.1-4.1
			l-30.8,2.2l-9.1,5.9l-1,0.6l-3.3,2.2L-824,1519z"/>
		<path class="st2" d="M-824.5,1698.9c8.4,28.9,43.2,19.5,43.2,19.5l0.7-3.7c-2.8-3.2-4.8-5.5-4.8-5.5s-7.6-20.3-28.8-15.7
			C-818.1,1694.3-821.6,1696.2-824.5,1698.9z"/>
		<path class="st15" d="M-833.6,1567.8c12.9,0,46,15.5,46,15.5c6.8,5.2,15.9,3.5,15.9,3.5s-16.1,16.4-15.7,23.1s-9.2,17.9-9.2,17.9
			l-29.7,58.7c2.2,41.7,44.9,30.1,44.9,30.1l1.8-9.8c2.6-1.3,6.5-14.4,6.5-14.4s0-5.2,2.6-6.8c2.6-1.6,8.1-17.2,8.1-17.2
			s11.8-19.8,11.1-22.5s8.5-15.9,8.5-15.9s15.5-15.3,14.8-18s12.5-16.7,12.5-16.7c4.7-3.7,8.7-8.3,11.6-13.5c2.2-3.8,3.9-7.9,5-12.2
			c3.7-14.1-10.3-25.4-15.9-29.3c-1.4-0.9-2.2-1.4-2.2-1.4l-4.8-3.7c-2.5-4.2-12-8.3-21.5-11.5c-6.9-2.3-13.9-4.2-18.4-5.3
			c-3-0.7-4.8-1.1-4.8-1.1l-5.1-3.4l-1.8-1.2l-1.6-1.1l-6-4.3l-13.7,1l-17.1,1.2l-9.1,5.9l-4.4,2.8l-17,11c0,0-0.4,4.2-0.6,9.8
			c0,0.4,0,0.9,0,1.3C-843.2,1551.7-841.9,1567.8-833.6,1567.8z"/>
		<path class="st16" d="M-768,1323.4l4.6,16.4c0,0,8.1,28.1,9,30.1s22,21.8,22.9,22.2s12.4,7,12.4,7s0.9-36,0-46.5
			c-0.1-2.3,0.1-4.6,0.6-6.9c1.4-8.2,4.9-20.2,7.8-29.5c2.4-7.8,4.5-13.6,4.5-13.6s-51-2.2-49.3,2.8c0.7,1.9,0.4,5.1-0.2,8.2
			c-1.1,5.2-3.2,10.5-4.6,10.1c-1.3-0.3-2.7-0.5-4-0.5C-766.3,1323.4-768,1323.4-768,1323.4z"/>
		<path class="st2" d="M-755.7,1313.8c12.8,10.7,31.1,11.7,45,2.5c2.4-7.8,4.5-13.6,4.5-13.6s-51-2.2-49.3,2.8
			C-754.9,1307.4-755.1,1310.6-755.7,1313.8z"/>
		<path class="st16" d="M-769.3,1283.5c0,20.8,16.9,37.8,37.7,37.8s37.8-16.9,37.8-37.7s-16.9-37.8-37.7-37.8l0,0
			c-20.7-0.1-37.7,16.6-37.7,37.4C-769.3,1283.3-769.3,1283.4-769.3,1283.5z"/>
		<path class="st2" d="M-768,1323.4l4.6,16.4c0,0,8.1,28.1,9,30.1s22,21.8,22.9,22.2s12.4,7,12.4,7s0.9-36,0-46.5
			c-0.1-2.3,0.1-4.6,0.6-6.9l-3,12.1l0.2,24.2l1.7,1.3l-3.9,5.9v-4.4c0,0-14-13.5-16.1-19.2s-10-15.9-10-15.9s-9-15-9.2-17.6
			c-0.2-2-3.9-6.8-5.6-8.7C-766.3,1323.4-768,1323.4-768,1323.4z"/>
		<path class="st2" d="M-691.6,1401.1c0.3,1.5,0.8,2.9,1.5,4.3c4.8-0.5,21-3.5,24.6-22.1c-2.1-2-3.9-3.6-3.9-3.6
			S-691.8,1395.9-691.6,1401.1z"/>
		<path class="st2" d="M-843,1540.3c4.4-3.1,8.6-7.4,11.1-8.5c3.7-1.8,9.4-7.4,9.4-7.4s1.4-1,3.6-2.3c4.1-2.4,10.7-5.8,15.8-6.2
			c4.5-0.4,19.7-1.3,31.6-2.1l15.5-1c0,0,14.2-5,20.3-1.8c4.4,2.2,9,3.9,13.7,5c0,0,0-0.5,0-1.3l0,0l-4.6-7.4l-48.4,4.1l-6.1-4.1
			l-30.8,2.2l-9.1,5.9l-7.9,0.7l3.5,2.1l-17,11C-842.4,1529.2-842.9,1534-843,1540.3z"/>
		<path class="st17" d="M-849.4,1542.3c2.3-0.7,4.5-1.8,6.4-3.3l0,0c4.4-3.1,8.6-7.3,11.1-8.5c3.7-1.8,9.4-7.4,9.4-7.4
			s11.6-7.9,19.4-8.5c2.1-0.2,6.6-0.5,12-0.8l17.8-1.1l9.2-0.6l8.1-0.5c0,0,14.2-5,20.3-1.8c4.4,2.2,9,3.9,13.7,5
			c0,0,0.2-15.3,2-21.6c1.8-6.3,4.1-17.9,4.1-17.9s2-15.9,3.9-23.1s9.6-47.3,13.5-50s6.1,2,6.1,2s26.2-0.4,26.6-29.2
			c0,0-12.2-12.2-13.1-15.3c-0.9-3.1-12.4-14.4-12.4-14.4s-6.5-12.2-14-12.4c-3.5-0.2-7-0.1-10.5,0.3l-6.3,25.6l0.2,24.2l1.8,1.3
			l-3.9,5.9v-4.3c0,0-14-13.5-16.1-19.2s-10-16-10-16s-8.9-15-9.2-17.6s-6.3-9.6-6.3-9.6c-1.2-0.1-2.5-0.1-3.7,0
			c-0.6,0-1.1,0-1.6-0.2c-3.5-1.1-7.3-1.3-10.9-0.6c-7.5,1.6-19,4.4-22.2,7.9c-4.8,5.2-11.8,10.3-19.6,32.1l42.3,15.3l-3.6,6.9
			l-33.7,64c0,0-1.1,1.8-2.6,4.2l0,0c-2,3.1-4.6,7.1-6.3,9.3c-3.1,3.9-2.2,16.4-2.2,16.4s-0.6,5.9-2.8,8.1s-1.8,10.2-1.8,10.2
			l-5.7,21.2c0,0-5.2,4.8-5.2,7s-4.1,8.3-4.1,8.3S-855.7,1543.8-849.4,1542.3z"/>
		<path class="st2" d="M-821.2,1452.9L-821.2,1452.9c0.3,1.2,0.5,2.4,0.7,3.6c0,0,17.2,40.4,19.4,42.8c0.7,0.7,3.2,4.4,6.4,9
			l3.6,5.4c6.6,9.8,14,20.9,14,20.9l16.1,14.2c0,0,35.1,2.8,46.3-8.6c-1.4-0.9-2.2-1.4-2.2-1.4l-4.8-3.7c-2.5-4.2-12-8.3-21.5-11.5
			c-8.8,0.1-16.1,0.8-16.1,0.8l-2.3-6.1l-2.4-6.3l-12.2-32.1c0,0-7.9-40.6-10.5-42.5s-2-8.1-2-8.1s4.8-17.2,3-19.6
			s2.8-20.1,2.8-20.1c-0.5-1.7-1.2-3.4-2.1-4.9l-33.7,64C-818.6,1448.7-819.7,1450.5-821.2,1452.9z"/>
		<path class="st16" d="M-782.4,1388.2c0,0-4.6,17.7-2.8,20.1s-3.1,19.6-3.1,19.6s-0.6,6.1,2,8.1s10.5,42.5,10.5,42.5l16.9,44.5
			c0,0,52.9-5.2,47.4,11.3c-5.5,16.6-49.1,13.1-49.1,13.1l-16.1-14.1c0,0-21.8-32.9-24-35.3s-19.4-42.8-19.4-42.8s-0.9-8.1-4.6-12.2
			s-0.9-11.1-0.9-11.1s-4.6-52.8,0.2-59.1C-820.5,1366.4-787.4,1369.3-782.4,1388.2z"/>
		<path class="st2" d="M-625.9,1558c0,0-13.8,4.6-17.4,11.1S-625.9,1558-625.9,1558z"/>
		<path class="st2" d="M-632.9,1543.6c-0.4,0.7-18.8,19.1-17.7,23.6S-632.9,1543.6-632.9,1543.6z"/>
		<path class="st2" d="M-733.9,1556.7c0,0-20.5,9.7-22.3,13.9C-758,1574.8-733.9,1556.7-733.9,1556.7z"/>
		<path class="st2" d="M-735.2,1569.1c0,0-18.5,7.8-21,9.8S-735.2,1569.1-735.2,1569.1z"/>
		<path class="st2" d="M-743.8,1585.9c0,0-8.2,6.1-12.7,1.3C-761,1582.4-743.8,1585.9-743.8,1585.9z"/>
		<path class="st2" d="M-713,1426.6c-0.4,0.7-27.7,49.7-34.9,53.5C-755.1,1483.9-713,1426.6-713,1426.6z"/>
		<path class="st2" d="M-714.3,1445.2c0,1.1-26.6,58-31,58.7C-749.7,1504.6-714.3,1445.2-714.3,1445.2z"/>
		<path class="st2" d="M-815.5,1481.8c0,0-12.8,27.5-17.8,29.1S-815.5,1481.8-815.5,1481.8z"/>
		<path class="st2" d="M-817.7,1469.6c0,0-4.4,9.6-7.1,9.6S-817.7,1469.6-817.7,1469.6z"/>
		<path class="st2" d="M-769.3,1283.5c0,4.5,0.8,9,2.4,13.2c-0.6-19.7,14.9-36.1,34.6-36.6c0.9,0,1.7,0,2.6,0c1.8,0.1,4,0.5,4.7,2.2
			c0.3,0.9,0.4,1.8,0.5,2.8c0.5,4.2,4.9,6.9,8.9,8.3s8.5,2.3,11.5,5.4c2.7,2.9,3.4,6.9,4.8,10.6c0.7,2.3,2,4.3,3.7,6
			c6.5-19.8-4.3-41.1-24.1-47.7s-41.1,4.3-47.7,24.1C-768.6,1275.5-769.3,1279.5-769.3,1283.5L-769.3,1283.5z"/>
		<path class="st18" d="M-698.8,1249.3c-3.1-4.2-8.6-5.7-13.4-7.8c-12-5.4-20.8-16.1-23.8-28.9c-3.9,5.8-3.3,13.5,1.5,18.6
			c-8.7-0.6-18.3-1.6-24.2-8c-1.3,4.6,2.7,9.9,0.5,14.1c-1.9,3.7-7,4-10.3,6.5c-3.5,2.6-4.7,7.4-4.9,11.8s0.2,8.9-1.1,13.1
			c-1,3.2-3,6.1-3.2,9.5c0,2.5,0.5,4.9,1.6,7.2c2.5,6,5.8,11.5,9.9,16.5c-4.1-19.3,8.3-38.2,27.6-42.3c2.9-0.6,5.9-0.9,8.9-0.7
			c1.8,0.1,4,0.5,4.7,2.2c0.3,0.9,0.4,1.8,0.5,2.8c0.5,4.2,4.9,6.9,8.9,8.3s8.5,2.3,11.5,5.4c2.7,2.9,3.4,6.9,4.8,10.6
			c1.4,3.7,3.9,7.5,7.8,8c0.9-5.5,1.8-11,1.2-16.6c-0.6-6-4.6-9.3-6-14.5C-697.9,1259.5-695,1254.5-698.8,1249.3z"/>
		<path class="st2" d="M-809.4,1355.1l-13.7,8.3c0,0-3.9,13.3-7,15c0,0,27.5-15.3,48.2,19.9c0,0-0.6-4.6,2.2-6.8
			c2.8-2.2,2.2-11.6,2.2-11.6c0.8-1.5,1.4-3,2-4.6C-773.6,1370.6-783.9,1343.1-809.4,1355.1z"/>
		<path class="st17" d="M-809.9,1354.2l-13.8,8.3c0,0-3.9,13.3-7,15.1c0,0,27.5-15.3,48.2,19.9c0,0-0.6-4.6,2.2-6.8
			s2.2-11.6,2.2-11.6c0.8-1.5,1.4-3,2-4.6C-774.1,1369.7-784.4,1342.2-809.9,1354.2z"/>
	</g>
</g>
</svg>
