<?xml version="1.0" encoding="utf-8"?>
<!-- Generator: Adobe Illustrator 19.0.0, SVG Export Plug-In . SVG Version: 6.00 Build 0)  -->
<svg version="1.1" xmlns="http://www.w3.org/2000/svg" xmlns:xlink="http://www.w3.org/1999/xlink" x="0px" y="0px"
	 viewBox="0 0 1000 1000" style="enable-background:new 0 0 1000 1000;" xml:space="preserve">
<style type="text/css">
	.st0{fill:#F2F2F2;}
	.st1{fill:#9F616A;}
	.st2{fill:#2F2E41;}
	.st3{opacity:0.1;enable-background:new    ;}
	.st4{fill:#575A88;}
	.st5{fill:#6C63FF;}
	.st6{fill:#3F3D56;}
	.st7{fill:#FF6584;}
</style>
<g id="_x23_background">
	<path class="st0" d="M547.6,318.2c-38.1,40.4-101,41.7-140.5,2.7c-1.9-1.9-3.8-3.9-5.6-6L179.8,529.6l311.7,337l297.1-287.8
		L547.6,318.2z"/>
	<path class="st0" d="M475.8,328.1c23.6,0,46.3-9.8,62.6-27.3L476.7,234l-66,64C427.1,317.1,450.9,328.1,475.8,328.1z"/>
</g>
<g id="_x23_man_x28_hold_x5B_cube_x5D__x2C_walk_x29_">
	<polygon class="st1" points="130.3,828.9 128.6,843.7 118.8,848.4 107.9,844.9 100.4,848.4 98.1,834.8 111.3,819.5 	"/>
	<path class="st2" d="M123.4,840.1c0,0,8.9-10.6,9.1-5.3c0.1,5.3,19.7,23.6,19.7,23.6s30.5,9.4,6.9,15.3S83.7,862.5,82,859
		s14.4-30.6,16.1-28.3C99.8,833.1,108.4,841.3,123.4,840.1z"/>
	<path class="st2" d="M145.3,665.2c0,0,3.5,27.7,0,31.8c-3.5,4.1-1.7,12.4,0,13.6c1.7,1.2-2.3,5.9-5.2,8.2c-2.9,2.4-6.9,13-6.9,13
		s-15.5,41.8-15.5,46c0,4.1-6.9,13-6.3,15.9c0.6,2.9-4,12.4-3.5,14.1c0.6,1.8-7.5,17.7-5.2,20s34,10.6,32.2,5.3
		c-1.7-5.3-2.9-11.8-1.7-11.8c1.2,0,6.3-6.5,5.2-8.8c-1.2-2.4,34.5-64.2,34.5-64.2L145.3,665.2z"/>
	<path class="st3" d="M123.4,840.1c0,0,8.9-10.6,9.1-5.3c0.1,5.3,19.7,23.6,19.7,23.6s30.5,9.4,6.9,15.3S83.7,862.5,82,859
		s14.4-30.6,16.1-28.3C99.8,833.1,108.4,841.3,123.4,840.1z"/>
	<path class="st3" d="M145.3,665.2c0,0,3.5,27.7,0,31.8c-3.5,4.1-1.7,12.4,0,13.6c1.7,1.2-2.3,5.9-5.2,8.2c-2.9,2.4-6.9,13-6.9,13
		s-15.5,41.8-15.5,46c0,4.1-6.9,13-6.3,15.9c0.6,2.9-4,12.4-3.5,14.1c0.6,1.8-7.5,17.7-5.2,20s34,10.6,32.2,5.3
		c-1.7-5.3-2.9-11.8-1.7-11.8c1.2,0,6.3-6.5,5.2-8.8c-1.2-2.4,34.5-64.2,34.5-64.2L145.3,665.2z"/>
	<polygon class="st1" points="204,821.6 210.3,838.1 207.5,861.1 189,859.9 178.7,850.5 178.7,830.5 	"/>
	<path class="st2" d="M200.6,841.7c0,0,6.3-21.2,9.8-15.3c2.2,3.8,4.1,7.7,5.8,11.8c0,0,28.2,18.9,35.7,18.9c7.5,0,14.4,9.4,4.6,13
		c-9.8,3.5-84.6,8.2-85.8,0c-1.2-8.2,1.2-34.8,4.6-31.8C178.7,841.1,196.5,847.6,200.6,841.7z"/>
	<path class="st1" d="M215,580.7c0,0,25.4,17.6,26.5,20c1.2,2.4,15.9,9.6,3.8,15.5c-12.1,5.9-44.1-31.4-44.1-31.4L215,580.7z"/>
	<path class="st4" d="M202.3,546.5c0,0,18.4,36.5,15,37.7c-3.5,1.2-17.3,8.2-17.3,8.2l-6.3-37.1L202.3,546.5z"/>
	<path class="st3" d="M202.3,546.5c0,0,18.4,36.5,15,37.7c-3.5,1.2-17.3,8.2-17.3,8.2l-6.3-37.1L202.3,546.5z"/>
	<path class="st2" d="M201.1,577.1c0,0,4,30.6,2.3,37.1c-1.7,6.5,1.2,103.7-1.2,109c-2.3,5.3-4,39.5-4,43.6c0,4.1,4.6,37.7,5.8,40.7
		c1.2,2.9,4.6,13,2.9,17.7c-1.7,4.7-25.3,16.5-28.8,12.4s-0.6-17.1-3.5-17.7c-2.9-0.6-6.3-28.3-6.3-28.3l-19-108.4
		c0,0-35.7-90.7-27.6-99.6C129.7,574.8,201.1,577.1,201.1,577.1z"/>
	<ellipse class="st1" cx="179.8" cy="339.1" rx="28.2" ry="28.9"/>
	<path class="st1" d="M190.2,362.7c0,0-9.2,24.7-8.1,30c1.2,5.3-27.1-9.4-27.1-9.4s1.7-28.9,0-36.5S190.2,362.7,190.2,362.7z"/>
	<path class="st4" d="M112.8,523.9c0.1,4.9,0.2,7.9,0.2,7.9s-1.7,27.1,1.2,35.9c2.9,8.8,2.9,15.3,4.6,21.2c0.5,1.7,7.4,2.6,17.1,3
		c8.9,0.4,20.1,0.3,30.9,0.1c17.8-0.4,34.5-1.4,37.3-1.9c6.3-1.2-1.2-11.2,1.2-16.5c2.3-5.3-4-73.1-4-73.1s0.6-38.3-2.3-53
		c-2.9-14.7-13.8-38.3-16.1-41.2c-2.3-2.9-0.6-4.7,4.6-8.2c5.2-3.5,0-17.1,0-17.1c-9.8-8.2-34.5-9.4-34.5-9.4s-38,40.1-40.3,48.3
		c-1.4,5-0.9,44.8-0.3,75.5C112.4,506.9,112.7,517.2,112.8,523.9z"/>
	<path class="st1" d="M161.4,597.2c0,0,21.9,46,4.6,48.9s-25.9-41.8-25.9-41.8L161.4,597.2z"/>
	<path class="st2" d="M206.2,324.5c1-5-2.7-9.6-6.6-12.7c-8.5-6.7-18.9-10.4-29.7-10.3c-7.6,0-15.3,2.1-21.1,7.1
		c-6.7,5.9-9.7,15.4-9.1,24.4c0.6,9,4.4,17.5,9.5,24.8c2.5,3.5,6.4,7.1,10.4,5.6c1.5-0.7,2.9-1.9,3.8-3.3c2.5-3.2,4.7-6.7,6.6-10.4
		c1.4-2.8,2.6-5.8,4.6-8.2c2-2.4,5-4.2,8.1-3.8c2.5,0.4,5,2.2,7.4,1.3c2.7-1,3.3-4.5,3.5-7.4c0.2-3.2,0.1-6.9,0.9-9.9
		C195.7,322.3,205.7,326.8,206.2,324.5z"/>
	<path class="st3" d="M112.8,523.9c6.4,23.8,21.2,63.9,22.1,65.6c0.2,0.4,0.5,1.3,1,2.5c8.9,0.4,20.1,0.3,30.9,0.1
		c-1.7-4.5-3.6-8.8-3.6-10.2c0-2.9-13.8-79-13.8-79s10.9-33.6,20.7-61.9c9.8-28.3-29.1-22.7-29.1-22.7c-20.7-5.3-24.5,3.8-24.5,3.8
		s-1.8,49.7-4.3,73.2c-0.6,6-1.3,10.3-2,11.7C109.2,508.7,110.5,515.2,112.8,523.9z"/>
	<path class="st4" d="M149.3,399.2c0,0,26.5,11.2,16.7,39.5c-9.8,28.3-20.7,61.9-20.7,61.9s13.8,76,13.8,79s8.6,18.9,5.2,21.8
		c-3.5,2.9-26.5,8.8-27.1,5.9c-0.6-2.9-5.2-17.7-6.3-20c-1.2-2.4-28.2-76-24.8-82.5c2.5-4.8,4.8-48.5,5.8-71.2
		c0.5-13.2,7.7-25.2,19.1-31.5C136.3,399,142.6,397.5,149.3,399.2z"/>
	<rect x="221.6" y="571.6" class="st5" width="34.1" height="34.9"/>
	<ellipse class="st6" cx="238.6" cy="561" rx="10.4" ry="10.7"/>
</g>
<g id="_x23_other_x28_have_x5B_triangle_x2C_circle_x2C_square_x2C_tree_x5D__x29__1_">
	<path class="st5" d="M750.6,432.2c0.1,88.2-69.7,159.7-155.8,159.8c-0.1,0-0.2,0-0.3,0c-0.9,0-1.8,0-2.7,0
		c-3.7-0.1-7.4-0.3-11.1-0.6c-85.9-7.8-149.4-85.4-141.8-173.3c7.6-87.9,83.4-152.9,169.3-145.1
		C688.8,280.3,750.6,349.4,750.6,432.2L750.6,432.2z"/>
	<path class="st3" d="M685,374.3c9.8-17.7,16.2-37.1,18.8-57.2c-62.1-61.2-160.9-59.4-220.8,4.1c-23,24.4-37.8,55.8-42.3,89.4
		c25.6,25.4,59,40.9,94.6,44.1c3.7,0.3,7.4,0.5,11.1,0.6c0.9,0,1.8,0,2.7,0C605.3,455.5,657.3,424.5,685,374.3z"/>
	<rect x="412.8" y="588.1" class="st2" width="250.8" height="286.7"/>
	<path class="st3" d="M743.9,491.8c-19.7,47.3-60.4,82-109.4,93.4h34.8v286.7H437.9l129.8-230.1l29.7-52.7l2.2-3.8l98.4-174.5
		L743.9,491.8z"/>
	<polygon class="st6" points="730.3,412.6 860.6,643.7 991,874.7 730.3,874.7 469.6,874.7 599.9,643.7 	"/>
	<rect x="3" y="872.8" class="st2" width="988" height="1.9"/>
	<ellipse class="st7" cx="641" cy="169.6" rx="51.4" ry="52.6"/>
	<path class="st0" d="M640.8,205.6c0,39.7-23.1,53.5-51.5,53.5c-28.4,0-51.5-13.9-51.5-53.5s51.5-90.2,51.5-90.2
		S640.8,165.9,640.8,205.6z"/>
	<polygon class="st6" points="587.5,253 588,219.8 610,178.7 588.1,214.6 588.3,199.7 603.4,169.9 588.4,195.7 588.4,195.7 
		588.8,168.9 605,145.2 588.9,164.6 589.1,115.4 587.5,180.6 587.6,177.9 571.1,152.1 587.3,183.1 585.8,213.1 585.8,212.3 
		566.8,185.1 585.7,215.1 585.5,218.8 585.5,218.9 585.5,219.2 581.6,295.3 586.8,295.3 587.4,256 606.3,226.1 	"/>
	<path class="st0" d="M764.9,264.9c-12.3,37.6-38.5,43.3-65.4,34.1c-27-9.2-44.5-29.9-32.2-67.5s76.8-68.8,76.8-68.8
		S777.2,227.2,764.9,264.9z"/>
	<polygon class="st6" points="699.6,292.6 710.4,261.2 744,229.4 712.1,256.3 716.9,242.2 740.5,219 718.2,238.5 718.2,238.5 
		727,213.2 749.7,196 728.3,209.2 743.9,162.6 722.1,223.9 723,221.4 715.4,191.5 721.2,226.2 710.4,254.1 710.6,253.4 701,221.4 
		709.7,256 708.3,259.5 708.3,259.5 708.2,259.8 680.9,330.7 685.9,332.4 698.6,295.4 725.8,273.1 	"/>
	<path class="st0" d="M509.3,234.6c13.9,37-2.7,58.4-29.2,68.9c-26.5,10.5-52.9,6-66.9-31s16.4-103.1,16.4-103.1
		S495.4,197.6,509.3,234.6z"/>
	<polygon class="st6" points="476.2,298.5 465,267.3 471.1,220.9 463.3,262.5 458.2,248.4 461.9,215.1 456.9,244.7 456.9,244.7 
		447.9,219.5 454.7,191.5 446.4,215.5 429.4,169.5 450.7,230.9 449.9,228.4 425.5,210.4 451.5,233.3 460.6,261.8 460.3,261.1 
		433,242.8 461.2,263.8 462.4,267.3 462.3,267.4 462.5,267.7 485.6,340.1 490.4,338.2 477.2,301.3 484.3,266.5 	"/>
	<path class="st5" d="M400,549.2c-3.2,5.2-7.3,5.1-11.1,2.7c-3.7-2.4-5.6-6.2-2.5-11.4c3.2-5.2,14-7.5,14-7.5S403.1,544,400,549.2z"
		/>
	<path class="st5" d="M780.5,393.1c0.6,6.1-2.8,8.6-7.1,9.1c-4.4,0.4-8.1-1.3-8.7-7.5c-0.6-6.1,6.6-14.7,6.6-14.7
		S779.9,387,780.5,393.1z"/>
	<path class="st5" d="M383,438.3c-3.2,5.2-7.3,5.1-11.1,2.7c-3.7-2.4-5.6-6.2-2.5-11.4s14-7.5,14-7.5S386.2,433.1,383,438.3z"/>
</g>
</svg>
