<?xml version="1.0" encoding="utf-8"?>
<!-- Generator: Adobe Illustrator 19.0.0, SVG Export Plug-In . SVG Version: 6.00 Build 0)  -->
<svg version="1.1" xmlns="http://www.w3.org/2000/svg" xmlns:xlink="http://www.w3.org/1999/xlink" x="0px" y="0px"
	 viewBox="0 0 1000 1000" style="enable-background:new 0 0 1000 1000;" xml:space="preserve">
<style type="text/css">
	.st0{opacity:0.1;enable-background:new    ;}
	.st1{fill:#6C63FF;}
	.st2{opacity:0.1;}
	.st3{fill:#3F3D56;}
	.st4{opacity:0.1;fill:#6C63FF;enable-background:new    ;}
	.st5{fill:none;stroke:#3F3D56;stroke-width:7;stroke-linecap:round;stroke-miterlimit:10;}
	.st6{fill:url(#SVGID_1_);}
	.st7{fill:#696791;}
	.st8{fill:#A0616A;}
	.st9{fill:#F86D70;}
	.st10{fill:#2D293D;}
</style>
<g id="_x23_background">
	<g class="st0">
		<g>
			<path class="st1" d="M965.2,745.2c-21.8,18.1-52.8,25.6-82.8,30.3l-5,0.8c-31.3,4.7-63,7.2-94.8,8.7c-17,0.8-34,1.4-51,2
				l-13.3,0.4c-17.3,0.5-34.7,1-52,1.5c-17,0.4-34,0.9-51,1.3c-21.8,0.5-43.6,1-65.4,1.3c-17,0.3-34,0.4-51,0.5
				c-21.8,0.1-43.6,0.1-65.4-0.1c-17-0.2-34-0.4-51-0.9c-21.8-0.5-43.6-1.3-65.4-2.5c-14.8-0.7-29.5-1.6-44.3-2.6l-6.7-0.4
				c-63.4-4.6-127.9-12.7-183.3-38.7l-1.5-0.7c-0.7-0.4-1.5-0.7-2.2-1.1c-10.2-4.8-20-10.6-29.2-17.1c-16.4-11.7-29.9-26-37.1-42.9
				c-11.2-26.6-5.3-56.4,7.5-82.4s32.1-49.4,48.6-73.9c4.8-7.2,9.5-14.6,13.8-22.2c26.9-47.8,40.2-103.1,12-149.2
				c-3.8-5.9-7.7-11.6-12-17c-6.9-9-13.9-17.9-18.5-27.8c-11-23.1-8.7-49-4.7-73.6c5.4-32.8,15.2-68.1,46-88.6
				c32-21.2,77.3-20.1,116.9-12.5c61.6,11.8,118.6,36.5,176,58.8c57.4,22.3,117.6,42.7,180.7,44.9c13.5,0.4,27.1,0,40.7-1.4l0,0
				c18-1.9,35.7-5.6,52.9-11.1c24.9-8.1,47.5-20.5,64.2-37.6c36-36.5,103.5-39.3,152.2-17.3c46.5,21,76.6,65.7,74.3,110.2
				c-2.5,49.6-39.7,90.3-73.7,132.2c-4.1,5.1-8.2,10.1-12.2,15.3c-2.2,2.9-4.4,5.7-6.5,8.6l0,0c-3.8,5.1-7.3,10.2-10.7,15.3
				c-17.4,26.4-29.7,58.2-17.7,86.8c6.7,15.9,19.5,28.2,35,38.9c34.7,23.8,82.4,39.9,103.9,73.2
				C999.7,683.3,992.9,722.1,965.2,745.2z"/>
		</g>
	</g>
</g>
<g id="_x23_wild_x28_have_x5B_tree_x5D__x29_">
	<g>
		<g class="st2">
			<path class="st3" d="M504,614.9c0,0.8,0.1,1.7,0.2,2.5c7-2.8,13.8-5.7,20.5-9c3.6-0.4,6.9-2.1,9.5-4.7c2-1,3.9-2,5.8-3
				c-0.4-0.9-0.9-1.8-1.5-2.7c-3.8-6-9.5-9.7-15.8-9.5c-6.4,0.2-11.8,4.3-15.1,10.5C505,603.9,503.7,609.3,504,614.9z"/>
			<path class="st3" d="M502.9,583.5c0.2,5.5,1.7,10.8,4.7,15.5c3.8,5.9,9.5,9.7,15.8,9.5c0.4,0,0.9-0.1,1.3-0.1
				c3.6-0.4,6.9-2.1,9.5-4.7c1.8-1.7,3.2-3.6,4.4-5.7c5.1-9.9,4.7-21.8-1-31.3c-3.8-6-9.5-9.7-15.8-9.5c-6.4,0.2-11.7,4.3-15.1,10.5
				C504,572.5,502.8,578,502.9,583.5z"/>
			
				<ellipse transform="matrix(-3.280504e-02 -0.9995 0.9995 -3.280504e-02 -12.5885 1090.9708)" class="st3" cx="521.6" cy="551.6" rx="25.6" ry="19.6"/>
			
				<ellipse transform="matrix(-3.280504e-02 -0.9995 0.9995 -3.280504e-02 17.6236 1057.528)" class="st3" cx="520.5" cy="520.2" rx="25.6" ry="19.6"/>
			
				<ellipse transform="matrix(-3.280504e-02 -0.9995 0.9995 -3.280504e-02 47.9314 1024.1715)" class="st3" cx="519.5" cy="488.9" rx="25.6" ry="19.6"/>
			<path class="st1" d="M585.8,272.3c2.6-3.5,4.8-7.2,6.9-10.9l-51.7-6.7l55.6-1.4c10-23.8,9.8-50.7-0.6-74.3L522.6,220l67.2-52.8
				c-27.6-43.9-85.5-57-129.3-29.5c-43.9,27.6-57,85.5-29.5,129.3c2.2,3.6,4.7,7,7.4,10.2c-4,5.5-7.3,11.3-10.1,17.5l67.9,32.5
				l-72-21.6c-9.1,30.4-2.4,63.3,18,87.6c-30.6,41.7-21.7,100.5,20.1,131.1c41.7,30.6,100.5,21.7,131.1-20.1
				c25.6-34.9,24-82.8-3.9-115.9C615.1,353.3,613.6,305.4,585.8,272.3z"/>
			<path class="st0" d="M420.2,335.7c0.6,21,8.4,41.2,21.9,57.3c-30.6,41.7-21.7,100.5,20.1,131.1c41.7,30.6,100.5,21.7,131.1-20.1
				c25.6-34.9,24.1-82.7-3.9-115.9C601.5,371.8,419.8,325.2,420.2,335.7z"/>
		</g>
		<g class="st2">
			<path class="st3" d="M298.7,779.8c0,0.6-0.1,1.2-0.1,1.8c-4.9-2-9.8-4.1-14.6-6.4c-2.5-0.4-4.9-1.5-6.7-3.3
				c-1.4-0.7-2.8-1.4-4.1-2.1c0.3-0.6,0.6-1.3,1.1-1.9c2.7-4.2,6.7-6.9,11.3-6.7c4.6,0.2,8.4,3,10.7,7.4
				C297.9,772,298.8,775.9,298.7,779.8z"/>
			<path class="st3" d="M299.4,757.5c-0.1,3.9-1.3,7.7-3.2,11c-2.7,4.2-6.7,6.9-11.3,6.7l-0.9-0.1c-2.5-0.4-4.9-1.5-6.7-3.3
				c-1.3-1.2-2.3-2.6-3.1-4c-3.7-7.1-3.4-15.5,0.7-22.3c2.7-4.2,6.7-6.9,11.3-6.7c4.6,0.2,8.4,3,10.7,7.4
				C298.7,749.7,299.6,753.6,299.4,757.5z"/>
			
				<ellipse transform="matrix(-0.9995 -3.158519e-02 3.158519e-02 -0.9995 548.9124 1478.2932)" class="st3" cx="286.1" cy="734.8" rx="14" ry="18.3"/>
			
				<ellipse transform="matrix(-0.9995 -3.158519e-02 3.158519e-02 -0.9995 550.984 1433.7168)" class="st3" cx="286.8" cy="712.5" rx="14" ry="18.3"/>
			
				<ellipse transform="matrix(-0.9995 -3.158519e-02 3.158519e-02 -0.9995 553.2702 1389.1506)" class="st3" cx="287.6" cy="690.2" rx="14" ry="18.3"/>
			<path class="st1" d="M240.2,536.1c-1.8-2.5-3.5-5.1-4.9-7.8l36.8-4.9l-39.6-0.9c-7.2-16.9-7-36.1,0.4-52.9l52.2,29.2l-47.8-37.5
				c19.5-31.3,60.6-40.8,92-21.4c31.3,19.5,40.8,60.6,21.4,92c-1.6,2.7-3.5,5.2-5.5,7.6c2.9,3.9,5.3,8.1,7.3,12.4L304.1,575
				l51.2-15.4c6.5,21.6,1.8,45-12.7,62.3c21.8,29.6,15.5,71.5-14.1,93.3c-29.6,21.8-71.5,15.5-93.3-14.1
				c-18.3-24.8-17.2-58.9,2.6-82.5C219.4,593.7,220.4,559.6,240.2,536.1L240.2,536.1z"/>
			<path class="st0" d="M358.1,581c-0.4,15-5.9,29.4-15.6,40.8c21.8,29.6,15.5,71.5-14.1,93.3C298.7,737,256.9,730.6,235,701
				c-18.3-24.8-17.2-58.9,2.6-82.5C229,606.9,358.3,573.6,358.1,581z"/>
		</g>
		<g class="st2">
			<path class="st3" d="M764.9,663.3c0,0.6-0.1,1.2-0.1,1.8c-4.9-2-9.8-4.1-14.6-6.4c-2.5-0.4-4.9-1.5-6.7-3.3
				c-1.3-0.7-2.8-1.4-4.2-2.1c0.4-0.6,0.6-1.3,1.1-1.9c2.7-4.2,6.7-6.9,11.3-6.7c4.6,0.2,8.4,3,10.7,7.4
				C764.2,655.5,765.1,659.5,764.9,663.3z"/>
			<path class="st3" d="M765.7,641c-0.1,3.9-1.3,7.7-3.3,11c-2.7,4.2-6.7,6.9-11.3,6.7l-0.9-0.1c-2.5-0.4-4.9-1.5-6.7-3.3
				c-1.3-1.2-2.3-2.6-3.1-4c-3.7-7.1-3.4-15.5,0.7-22.3c2.7-4.2,6.7-6.9,11.3-6.7c4.6,0.2,8.4,3,10.7,7.4
				C765,633.2,765.9,637.2,765.7,641z"/>
			
				<ellipse transform="matrix(-0.9995 -3.158519e-02 3.158519e-02 -0.9995 1485.1539 1260.1761)" class="st3" cx="752.5" cy="618.4" rx="14" ry="18.3"/>
			
				<ellipse transform="matrix(-0.9995 -3.158519e-02 3.158519e-02 -0.9995 1487.2432 1215.6187)" class="st3" cx="753.2" cy="596.1" rx="14" ry="18.3"/>
			
				<ellipse transform="matrix(-0.9995 -3.158519e-02 3.158519e-02 -0.9995 1489.3313 1171.0608)" class="st3" cx="753.9" cy="573.8" rx="14" ry="18.3"/>
			<path class="st1" d="M706.6,419.6c-1.8-2.5-3.5-5.1-4.9-7.8l36.8-4.8l-39.6-1c-7.2-16.9-7-36.1,0.4-52.9l52.2,29.2l-47.8-37.5
				c19.4-31.3,60.5-41,91.9-21.6c31.3,19.4,41,60.5,21.6,91.9c-1.7,2.7-3.6,5.4-5.6,7.8c2.9,3.9,5.3,8.1,7.3,12.4l-48.3,23.2
				l51.2-15.4c6.5,21.6,1.8,45-12.7,62.3c21.8,29.6,15.5,71.5-14.1,93.3c-29.6,21.8-71.5,15.5-93.3-14.1
				c-18.3-24.8-17.2-58.9,2.6-82.5C685.7,477.3,686.8,443.2,706.6,419.6L706.6,419.6z"/>
			<path class="st0" d="M824.4,464.6c-0.4,15-5.9,29.4-15.6,40.8c21.8,29.6,15.5,71.5-14.1,93.3c-29.6,21.8-71.5,15.5-93.3-14.1
				c-18.3-24.8-17.2-58.9,2.6-82.5C695.4,490.5,824.6,457.1,824.4,464.6z"/>
		</g>
		<ellipse class="st1" cx="179.9" cy="795.3" rx="51" ry="9.8"/>
		<ellipse class="st3" cx="179.1" cy="791.1" rx="5.9" ry="7.8"/>
		<ellipse class="st3" cx="179.1" cy="781.6" rx="5.9" ry="7.8"/>
		<ellipse class="st3" cx="179.1" cy="772.1" rx="5.9" ry="7.8"/>
		<ellipse class="st3" cx="179.1" cy="762.6" rx="5.9" ry="7.8"/>
		<ellipse class="st3" cx="179.1" cy="753.1" rx="5.9" ry="7.8"/>
		<ellipse class="st3" cx="179.1" cy="743.5" rx="5.9" ry="7.8"/>
		<ellipse class="st3" cx="179.1" cy="734.1" rx="5.9" ry="7.8"/>
		<path class="st1" d="M201.3,669c0.8-1.1,1.5-2.1,2.2-3.2l-15.6-2.6l16.9,0.2c3.3-7.2,3.5-15.3,0.5-22.6l-22.7,11.7l20.9-15.4
			c-7.9-13.6-25.3-18.3-39-10.4c-13.6,7.9-18.3,25.3-10.4,39c0.6,1.2,1.4,2.2,2.2,3.3c-1.3,1.6-2.3,3.3-3.2,5.2l20.2,10.6l-21.6-7.3
			c-3,9.1-1.3,19.2,4.6,26.8c-9.8,12.4-7.6,30.3,4.7,40c12.4,9.8,30.3,7.6,40-4.7c8.1-10.3,8.1-24.9,0-35.2
			C209.4,693.8,209.4,679.2,201.3,669L201.3,669z"/>
		<path class="st0" d="M150.4,686.6c0,6.4,2.1,12.6,6.1,17.6c-9.8,12.4-7.6,30.3,4.7,40c12.4,9.8,30.3,7.6,40-4.7
			c8.1-10.3,8.1-24.9,0-35.2C205.1,699.3,150.4,683.4,150.4,686.6z"/>
	</g>
</g>
<g id="_x23_man_x28_collect_x5B_data_x5D__x29_">
	<g>
		<g>
			<ellipse class="st4" cx="870.7" cy="810.1" rx="57.3" ry="15.2"/>
			<path class="st3" d="M316.9,586v202.4c-14.8-0.7-29.5-1.6-44.3-2.6l-6.7-0.4V586c0-4.4,3.5-7.9,7.9-7.9l0,0H309
				C313.4,578.2,316.9,581.6,316.9,586z"/>
			<path class="st3" d="M382.2,790.9V450.8c0-4.4,3.5-7.9,7.9-7.9l0,0h35.3c4.4,0,7.9,3.5,7.9,7.9l0,0v341L382.2,790.9z"/>
			<path class="st3" d="M498.6,792V521.6c0-4.4,3.5-7.9,7.9-7.9l0,0h35.3c4.4,0,7.9,3.5,7.9,7.9l0,0v269.9L498.6,792z"/>
			<path class="st3" d="M666.1,321v467.7c-17,0.4-34,0.9-51,1.3V321c0-4.4,3.5-7.9,7.9-7.9l0,0h35.3
				C662.6,313.1,666.1,316.6,666.1,321L666.1,321z"/>
			<path class="st3" d="M782.5,415v369.8c-17,0.8-34,1.4-51,2V415c0-4.4,3.5-7.9,7.9-7.9l0,0h35.3C779,407.1,782.5,410.6,782.5,415
				L782.5,415z"/>
			<polyline class="st5" points="291.8,468 408.2,338.2 524.6,403.5 641,203 757.4,298.8 			"/>
			<circle class="st1" cx="291.3" cy="468" r="25.1"/>
			<circle class="st1" cx="407.8" cy="338.2" r="25.1"/>
			<circle class="st1" cx="524.2" cy="403.5" r="25.1"/>
			<circle class="st1" cx="640.6" cy="203" r="25.1"/>
			<circle class="st1" cx="864.4" cy="416.1" r="25.1"/>
			
				<linearGradient id="SVGID_1_" gradientUnits="userSpaceOnUse" x1="1165.3444" y1="484.1624" x2="1305.5695" y2="484.1624" gradientTransform="matrix(-1 0 0 1 2072.79 132.93)">
				<stop  offset="0" style="stop-color:#808080;stop-opacity:0.25"/>
				<stop  offset="0.54" style="stop-color:#808080;stop-opacity:0.12"/>
				<stop  offset="1" style="stop-color:#808080;stop-opacity:0.1"/>
			</linearGradient>
			<path class="st6" d="M767.4,431.5c0.2,1.6,0.8,3,1.8,4.3c1.3,1.4,3.2,2.1,5,3c4.5,2.3,8,6.3,9.7,11.1c3,8.7,3.4,17.9,7.2,26.3
				c3.8,8.4,8.2,16.5,11.6,25.1c1.9,4.9,3.3,9.9,6.1,14.4c1.3,2.1,3,4.1,5,5.7c-0.2,3.1-0.3,6.3-0.3,9.4c1.3,0,2.4,0.6,3,1.6
				c0.6,1,1.1,2.1,1.3,3.4c1.3,5.1-0.3,10.5,0.8,15.6c3,14.2,2.1,28.9-2.7,42.6c-1.3,3.5-2.8,15-1.4,18.4c4.8-0.4,9.2,2.5,13.7,4.5
				c0.4,2.7,0.2,5.5-0.6,8.1c-1.6,4.7-1.6,9.8-1.6,14.9l0.2,37c0,4.7,0.1,9.4,1.3,14c1.3,5.1,4.1,10.3,4,15.6
				c-0.3,11.4,5.1,22.2,4.7,33.5c-0.1,2.1-0.4,4.3-0.6,6.4c-0.5,5.7-0.4,11.5,0.4,17.2c1.6,11.4,5.9,22.5,4.8,33.8
				c-0.1,0.8-0.4,1.8-1.1,2.1c0.9,1,1.9,2,2.8,3c-0.2,0.4-0.4,0.6-0.8,0.8c-1.1,0.5-2.2,0.9-3.4,0.9c-1.4,0-2.8,0.4-3.9,1.3
				c-0.8,0.8-1.4,1.9-1.6,3c-0.6,2.2-0.3,4.7,1.1,6.7c0.8,1,1.9,1.8,3,2.2c4.1,1.8,8.9,0.4,13.2-0.8l16.9-5.1c1.1-0.2,2-0.7,2.8-1.4
				c0.4-0.4,0.6-0.9,0.7-1.4c3.8,0.9,7.9-0.2,11.6-1.3l16.9-5.1c1.1-0.2,2-0.7,2.8-1.4c0.6-0.7,0.9-1.7,0.7-2.7
				c0.1-0.1,0.3-0.1,0.4-0.2c1.3-0.6,2.7-1.7,2.4-3.1c-0.2-0.9-1.1-1.4-1.5-2.2c-0.4-1.1-0.1-2.3,0.6-3.1c0.6-0.9,1.5-1.6,2.1-2.6
				c2-3,0.6-6.9-0.1-10.4c-1.6-7.4-0.1-15.3-1.1-22.8c-0.4-2.5-1-5.1-1.4-7.6c-1.1-6-1.7-12-2.1-18.1c-0.6-8.7-3-17.2-1.7-25.8
				c0.6-5,1-10.1,0.8-15.2c0.1-3.2,0-6.4-0.4-9.7c-0.4-2.4-1-4.7-1.3-7.2c-0.2-2.7-0.3-5.5-0.2-8.1c0.1-6.1-0.4-12.1-1.7-18
				c-1.8-8.1-5.2-15.9-6.6-24.1c0.4,0.1,1,0.2,1.4,0.4c0.1-6.3-5.5-19.9-7.4-25.9c-0.3-0.7-0.4-1.5-0.5-2.2c0.1-1.1,0.3-2.1,0.5-3
				c0.3-2.1-0.9-4.2-1.2-6.4c-0.1-1.5,0-3,0.4-4.6c1.4-8.1,3.2-15.9,5-23.9c0.8-2.9,1.1-5.9,0.8-8.9c-0.4-3.2,0.5-6.4,2.7-8.8
				c0.8-0.7,1.4-1.6,2-2.5c0.3-0.8,0.4-1.6,0.4-2.5c0-3.7-0.5-7.3-1.6-10.8c1.6-2.9,2.1-6.4,2.6-9.7c1-7.3,2-14.7,2-22
				c0.1-3.9-0.4-7.9-1.6-11.6c-0.8-2.3-1.9-4.6-3-6.7c-4.7-9-9.2-18.6-15.1-27c-1.8-2.5-0.6-6-0.5-9.1c0.2-3.8-1.3-7.3-2.8-10.8
				c-0.7-2.1-1.9-4.1-3.4-5.8c-1-1.1-2.4-1.8-3.9-1.8c-1.7,0.2-3.2,1.2-4.2,2.6c-2.1,3-3.1,6.7-2.5,10.4c0.6,3.6,2.1,7,4.6,9.8
				c1.2,1.4,2.5,2.7,3.9,3.8c1.5,4.7,3,9.4,4.5,14.1c2.3,7.5,4.7,15,8.1,22c1,2.1,2.1,4.1,2.1,6.4c0.1,2.4-0.9,4.7-1.7,7.1
				c-1.7,4.8-2.7,9.8-2.9,15c-0.3,0.1-0.5,0.3-0.7,0.4c-2.9,1.9-3.7,5.8-6.6,7.5c-1.7,1-3.8,0.9-5.7,1.3c-0.2,0-0.4,0.1-0.5,0.2
				c-0.1-0.4-0.2-0.7-0.2-1.1c0-0.3,0-0.4,0-0.7c4.6-2.5,8.4-6.2,11.1-10.6c0.5-0.8,1-1.7,1.3-2.7c0.3-1.2,0.3-2.3,0.2-3.5
				c-0.2-3.9-0.7-7.7-1.6-11.6c-1-3.8-3-7.2-6-9.8c-1.4-1.2-3.1-2.1-4.7-3.2c-2.9-2.3-4.8-5.7-8.1-7.4c-4.3-2.1-9.5-0.7-12.2,3.1
				c-0.4,0.9-1.1,1.6-1.8,2.2c-0.5,0.3-1.2,0.5-1.7,0.9c-1,0.8-1.1,2.3-0.7,3.5c0.6,2.5,1,5.1,1,7.7c-6,7-6,17.3-0.1,24.4
				c0,1.7,0,3.3-0.1,5c0,0.4,0,0.6-0.1,1c-1.1-0.4-2-1-2.7-1.8c-1-1.3-1.2-3.1-2.4-4.1c-0.9-0.5-1.9-1-3-1.1c-2.6-0.6-5-1.8-7.2-3.4
				c-1.6-1.3-3.4-3-5.3-3.3c-3.3-6.3-7.3-12.2-11.6-17.7c-1.1-1.3-2.1-2.7-3-4.2c-2-3.4-2.5-7.3-3.8-11c-3.4-10.3-11.9-18.6-14-29.3
				c-0.7-3.9-3.2-7.3-4.9-10.8c-1.2-2.4-2.4-4.9-4.7-6.4c-3-1.8-7-1-9.4,1.4C767.9,424.5,766.8,428,767.4,431.5z M873.6,793.9
				c-1.1,0.5-2.2,0.9-3.4,0.9c-0.6,0.1-1.2,0.2-1.8,0.3c-0.2-1.9-0.4-3.8-0.4-5.6c-0.4-6.1-1.4-12.1-2.3-18.2
				c-1-6.3-1.4-13.2-3.6-19.2c-3.4-9.8-6.9-19.9-6.4-30.3c0.1-2.3,0.4-4.7,0.5-7.1c0.3-5.8-0.5-11.7,0.9-17.4c0.6-2.6,1.7-5,2.1-7.6
				c0.3-2.3,0.3-4.7,0.1-7.1c-0.4-8.2,0.3-16.5,2.1-24.4c1.7,2.1,2.2,5,2.7,7.7l3.4,18.2c2,10.8,3.8,22.3,9,31.9
				c-0.7,3.5-1.5,7.2-0.3,10.5c0.5,1.4,1.4,2.7,2,4.1c0.9,2.4,0.8,5.1,1.1,7.6c0.6,5.4,2.8,10.7,1.2,15.8
				c-1.7,5.4-2.8,10.8-3.2,16.5c-0.1,1.5-0.3,3.1-0.5,4.7c-0.3,1.3-0.7,2.7-1,4.1c-0.4,2-0.3,4,0.3,6c0.4,1.1,0.6,2.2,0.7,3.4
				c0,1.2-1.4,2-2.5,2.1c0.4,0.4,0.7,0.8,1.1,1.3C874.7,792.6,874.3,793.3,873.6,793.9z"/>
			<path class="st3" d="M838.3,804.2c-1.4,0-2.8,0.4-3.9,1.3c-0.8,0.8-1.4,1.8-1.6,3c-0.6,2.2-0.3,4.7,1.1,6.6c0.8,1,1.9,1.8,3,2.2
				c4.1,1.8,8.9,0.4,13.2-0.8l16.9-5.1c1.1-0.2,2-0.7,2.8-1.4c1-1.3,1-3,0.1-4.4c-0.9-1.3-2.1-2.2-3.6-2.9
				c-5.3-2.6-11.2-3.1-16.9-3.2c-2.1,0-4.3-0.5-5.7,1.2c-0.8,0.9-0.6,1.9-1.8,2.6C840.7,803.8,839.5,804.2,838.3,804.2z"/>
			<path class="st3" d="M870.2,794.9c-1.4,0-2.8,0.4-3.9,1.3c-0.8,0.8-1.4,1.9-1.6,3c-0.6,2.2-0.3,4.7,1.1,6.6c0.8,1,1.9,1.8,3,2.2
				c4.1,1.8,8.9,0.4,13.2-0.8l16.9-5.1c1.1-0.2,2-0.7,2.8-1.4c1-1.3,1-3,0.1-4.3c-0.9-1.3-2.1-2.2-3.6-2.9c-5.3-2.6-11.2-3.1-17-3.2
				c-2.1,0-4.3-0.5-5.7,1.2c-0.8,0.9-0.6,1.9-1.8,2.6C872.6,794.6,871.4,794.9,870.2,794.9z"/>
			<path class="st7" d="M855.6,611.4c9.9-1,20-1.3,30-0.8c0.6,0,1.3,0.1,2,0.3c2.2,0.9,2.5,3.8,2.8,6.1c0.9,9.6,5.1,18.4,7.2,27.8
				c1.3,5.9,1.8,11.9,1.7,17.9c-0.1,2.7-0.1,5.4,0.2,8.1c0.3,2.4,0.9,4.7,1.3,7.2c0.4,3.2,0.5,6.4,0.4,9.7c0.1,5-0.2,10.1-0.8,15.1
				c-1.3,8.5,1.1,17,1.7,25.6c0.4,6,1,12.1,2.1,18c0.5,2.5,1.1,5,1.4,7.5c1,7.5-0.4,15.3,1.1,22.7c0.7,3.5,2.1,7.3,0.1,10.4
				c-0.6,0.9-1.5,1.6-2.1,2.6c-0.7,0.9-1,2.1-0.6,3.1c0.4,0.8,1.3,1.3,1.5,2.2c0.4,1.3-1.1,2.5-2.4,3c-9.7,4.4-22.2,1.3-28.8-7.1
				c1.2-0.2,2.5-1,2.5-2.1c-0.1-1.2-0.4-2.2-0.7-3.3c-0.5-2-0.6-3.9-0.3-5.9c0.3-1.3,0.7-2.7,1-4c0.3-1.5,0.4-3,0.5-4.6
				c0.4-5.6,1.6-11,3.2-16.3c1.6-5.2-0.6-10.4-1.2-15.8c-0.3-2.5-0.2-5.2-1.1-7.6c-0.5-1.4-1.4-2.7-2-4.1c-1.3-3.3-0.4-7,0.3-10.4
				c-5.3-9.6-7.1-21-9-31.7L864,667c-0.5-2.7-1.1-5.5-2.7-7.6c-1.7,8-2.4,16.2-2.1,24.4c0.2,2.3,0.2,4.7-0.1,7.1
				c-0.4,2.6-1.5,5-2.1,7.6c-1.3,5.6-0.5,11.5-0.9,17.3c-0.1,2.3-0.4,4.7-0.5,7c-0.4,10.3,3,20.3,6.4,30.1c2.1,6,2.6,12.7,3.6,19
				c0.9,6,1.9,12,2.3,18c0.4,5.6,0.6,11.6,4.1,15.9c-3.1,2.1-6.4,4.1-10.1,4.8c-4.3,0.7-8.7-0.2-12.4-2.4c-3.8-2.2-7.1-5-9.8-8.3
				c0.7-0.3,1-1.3,1.1-2.1c1.1-11.4-3.2-22.4-4.8-33.7c-0.8-5.6-1-11.4-0.4-17.1c0.2-2.1,0.5-4.3,0.6-6.4c0.4-11.2-4.9-22-4.7-33.2
				c0.1-5.3-2.7-10.5-4-15.5c-1.2-4.5-1.2-9.2-1.3-13.9l-0.2-36.7c0-4.9,0-10,1.6-14.8c2-5.6-0.3-12.1-0.6-18.1
				C836,611.1,845.8,612.3,855.6,611.4z"/>
			<path class="st8" d="M823.6,505.9c-3.8-7.7-8.3-15-13.7-21.7c-1.1-1.3-2.1-2.7-3-4.1c-2-3.3-2.5-7.3-3.8-10.9
				c-3.4-10.2-11.9-18.4-14-29.1c-0.7-3.9-3.2-7.2-4.9-10.7c-1.2-2.4-2.4-4.9-4.7-6.3c-3-1.8-7-1-9.4,1.4c-2.4,2.5-3.4,6-2.9,9.4
				c0.2,1.5,0.8,3,1.8,4.2c1.3,1.4,3.2,2.1,5,3c4.5,2.3,8,6.3,9.7,11c3,8.6,3.4,17.8,7.2,26.1s8.2,16.4,11.6,24.9
				c1.9,4.8,3.3,9.8,6.1,14.3c2.8,4.5,7,8.2,12.2,8.9c0-3.2,0.4-6.4,1.4-9.6C823.2,513.4,825.3,509.3,823.6,505.9z"/>
			<path class="st8" d="M879.1,512.6c-0.3-6.4,0.7-12.6,2.9-18.6c0.8-2.2,1.8-4.6,1.7-7.1c-0.1-2.2-1.2-4.3-2.1-6.4
				c-3.4-7.1-5.7-14.5-8.1-21.9l-4.5-14c-1.4-1.1-2.8-2.3-3.9-3.7c-2.4-2.8-3.9-6.1-4.6-9.8c-0.5-3.6,0.4-7.3,2.5-10.3
				c1-1.4,2.5-2.3,4.2-2.6c1.5,0,3,0.7,3.9,1.8c1.4,1.7,2.6,3.7,3.4,5.7c1.4,3.4,3,7,2.8,10.7c-0.1,3.1-1.3,6.5,0.5,9
				c5.9,8.2,10.5,17.7,15.1,26.8c1.2,2.1,2.2,4.4,3,6.7c1.2,3.8,1.7,7.7,1.6,11.6c0,7.3-1,14.7-2,21.9c-0.6,4.6-1.4,9.5-4.9,12.5
				C887.3,520.7,883.7,516.2,879.1,512.6z"/>
			<circle class="st8" cx="856.3" cy="497.6" r="18.6"/>
			<path class="st8" d="M865.3,517.1c0.4,3.4,2.2,6.4,4,9.3c1.1,1.8,2.4,3.7,4.5,3.9c-5.4,2.9-11,5.1-16.8,6.8c-2,0.6-4,1-6.2,1
				c-1.8-0.1-3.5-0.5-5.1-1.3c-7.2-3.1-12.5-9.4-14.5-16.9c2.3,0.1,4.7-0.1,6.9-0.5c1.3-0.1,2.5-0.7,3.4-1.7c0.5-0.9,0.8-2,0.7-3
				c0.1-3.1,0.1-6.2,0-9.3c4.6-0.3,9.1,0.3,13.5,1.7c1.8,0.5,3.6,1.3,5.4,1.7c1.2,0.3,4.2,0,5.1,0.6
				C867.4,510.3,865,514.8,865.3,517.1z"/>
			<path class="st9" d="M857.1,528.4c0.4-5,4-9.2,8.9-10.4c1.9-0.4,4-0.4,5.7-1.3c3-1.6,3.9-5.6,6.6-7.4s6.8-0.8,9.3,1.5
				s3.7,5.6,4.7,8.9c1.5,4.4,2.3,9,2.4,13.6c0,0.8-0.1,1.7-0.4,2.5c-0.5,0.9-1.2,1.8-2,2.5c-2.1,2.4-3.1,5.6-2.7,8.8
				c0.3,3,0,5.9-0.8,8.8c-1.8,7.9-3.6,15.8-5,23.7c-0.4,1.4-0.4,3-0.4,4.5c0.3,2.1,1.4,4.2,1.2,6.4c-0.3,1-0.4,2.1-0.5,3
				c0.1,0.8,0.3,1.5,0.5,2.2c2.1,5.9,7.5,19.4,7.4,25.7c-9.6-2.4-23.5-3-33.4-3c-2.7,0-5.4,0.1-8.1,0.4c-6.4,0.7-13.1,2.6-19.3,0.8
				c-5.8-1.6-11-6.3-17-5.6c-1.3-3.4,0.3-14.9,1.4-18.3c4.7-13.6,5.7-28.3,2.7-42.4c-1.1-5.1,0.4-10.5-0.8-15.5
				c-0.3-1.2-0.7-2.3-1.3-3.3c-0.7-1-1.8-1.6-3-1.6c-0.1-8.1,0.6-16.2,2.2-24.1c0.6-2.8,1.8-6.2,4.7-6.6c2.6-0.4,4.7,1.7,6.8,3.3
				c2.1,1.6,4.6,2.8,7.2,3.4c1.1,0.1,2.1,0.5,3,1.1c1.3,1,1.4,2.9,2.4,4.1c1.8,2.2,5.8,2.1,7.1,4.6c0.3,0.8,0.5,1.5,0.7,2.3
				c0.6,1.5,1.6,2.9,3,3.9C852.1,526.3,854.5,527.7,857.1,528.4z"/>
			<path class="st10" d="M841.2,477.8c-0.4-1.3-0.3-2.7,0.7-3.5c0.4-0.4,1.2-0.5,1.7-0.9c0.7-0.6,1.3-1.4,1.8-2.2
				c2.8-3.9,7.9-5.2,12.2-3.1c3.2,1.7,5.2,5.1,8.1,7.3c1.4,1.2,3.1,2.1,4.7,3.2c3,2.5,5,5.9,6,9.7c1,3.8,1.5,7.6,1.6,11.5
				c0.2,1.2,0.1,2.3-0.2,3.5c-0.3,1-0.7,1.9-1.3,2.7c-3,4.5-6.9,8.5-11.7,10.8c-4.8,2.3-10.8,2.7-15.7,0.3c-0.4-0.2-0.9-0.5-1.2-1
				c-0.3-0.6-0.4-1.3-0.2-2.1c0.3-2.8-0.3-5.5-1.5-8c-0.9-1.8-2.2-3.3-3-5.2c-0.6-2.1-1-4.2-0.8-6.4
				C842.2,488.8,842.6,483.2,841.2,477.8z"/>
		</g>
	</g>
</g>
</svg>
