<?xml version="1.0" encoding="utf-8"?>
<!-- Generator: Adobe Illustrator 19.0.0, SVG Export Plug-In . SVG Version: 6.00 Build 0)  -->
<svg version="1.1" xmlns="http://www.w3.org/2000/svg" xmlns:xlink="http://www.w3.org/1999/xlink" x="0px" y="0px"
	 viewBox="0 0 1000 1000" style="enable-background:new 0 0 1000 1000;" xml:space="preserve">
<style type="text/css">
	.st0{fill:#F2F2F2;}
	.st1{fill:#3F3D56;}
	.st2{fill:#6C63FF;}
	.st3{fill:none;stroke:#3F3D56;stroke-width:2;stroke-miterlimit:10;}
	.st4{opacity:0.1;enable-background:new    ;}
	.st5{fill:#2F2E41;}
	.st6{fill:#3F3D56;stroke:#6C63FF;stroke-miterlimit:10;}
	.st7{opacity:0.8;}
	.st8{fill:#FFB9B9;}
	.st9{opacity:5.000000e-02;enable-background:new    ;}
</style>
<g id="_x23_background">
	<g>
		<g>
			<circle class="st0" cx="515.9" cy="460.2" r="407.8"/>
		</g>
	</g>
</g>
<g id="_x23_park_x28_have_x5B_plant_x5D__x29_">
	<g>
		<g>
			<g>
				<path class="st1" d="M251.9,748.3c-26.3,40.3-19.1,91.5-19.1,91.5s49.8-14.1,76-54.4c26.2-40.3,19.1-91.5,19.1-91.5
					S278.2,708,251.9,748.3z"/>
				<path class="st2" d="M232.7,839.3c0,0-0.6-0.1-1.9-0.3c-0.9-0.2-2.2-0.5-3.8-0.8c-14.1-3.4-51.6-14.6-76.1-44.1
					c-30.7-37-29.5-88.7-29.5-88.7s46.9,7.7,77.9,40.9c1.4,1.4,2.7,2.9,4,4.4c26.7,32.2,29.2,75.6,29.5,86.3
					C232.7,838.5,232.7,839.3,232.7,839.3z"/>
				<path class="st3" d="M213.8,748.3c26.3,40.3,19.1,91.5,19.1,91.5s-49.8-14.1-76-54.4c-26.2-40.3-19.1-91.5-19.1-91.5
					S187.5,708,213.8,748.3z"/>
				<path class="st4" d="M232.7,836.9c-0.7,0.8-1.3,1.5-1.9,2.1c-1.2,1.3-1.7,2-1.7,2s-0.8-0.9-2.1-2.8
					c-7.1-9.9-29.9-45.1-28.2-85.7c0.1-2.1,0.2-4.2,0.5-6.3c1.4,1.4,2.7,2.9,4,4.4C230,782.9,232.4,826.2,232.7,836.9z"/>
				<path class="st2" d="M271.7,755.4c-2.1,48.1-37.7,85.6-37.7,85.6s-32.2-40.4-30.3-88.5c2-48.1,37.7-85.6,37.7-85.6
					S273.7,707.3,271.7,755.4z"/>
				<line class="st3" x1="233.8" y1="839.5" x2="241.8" y2="668.9"/>
				<ellipse class="st1" cx="497.1" cy="857.6" rx="477.3" ry="39"/>
				<path class="st5" d="M945.3,713.8v144.1c0,2.4-1.3,2.8-3.5,4.1c-7.3,4.1-25.3,11.3-46.9-0.1c-2.2-1.2-3.6-1.5-3.6-4.1V714.8
					C891.2,714.8,918.7,725.8,945.3,713.8z"/>
				<ellipse class="st6" cx="918.2" cy="713.7" rx="27" ry="5.7"/>
				<g class="st7">
					<circle cx="942.8" cy="773.7" r="0.6"/>
					<circle cx="939.7" cy="774.6" r="0.6"/>
					<circle cx="935.9" cy="775.8" r="0.6"/>
					<circle cx="929.1" cy="777.3" r="0.6"/>
					<circle cx="921.9" cy="778.1" r="0.6"/>
					<circle cx="914.5" cy="778.4" r="0.6"/>
					<circle cx="903.8" cy="776.9" r="0.6"/>
					<circle cx="907.3" cy="777.8" r="0.6"/>
					<circle cx="897.2" cy="775.8" r="0.6"/>
					<circle cx="900.3" cy="776.3" r="0.6"/>
					<circle cx="893.7" cy="774.6" r="0.6"/>
					<circle cx="932.4" cy="776.6" r="0.6"/>
					<circle cx="925.3" cy="777.8" r="0.6"/>
					<circle cx="917.8" cy="778.4" r="0.6"/>
					<circle cx="910.8" cy="778.4" r="0.6"/>
				</g>
				<g class="st7">
					<circle cx="942.8" cy="776.7" r="0.6"/>
					<circle cx="939.7" cy="777.5" r="0.6"/>
					<circle cx="935.9" cy="778.8" r="0.6"/>
					<circle cx="929.1" cy="780.2" r="0.6"/>
					<circle cx="921.9" cy="781.1" r="0.6"/>
					<circle cx="914.5" cy="781.5" r="0.6"/>
					<circle cx="903.8" cy="779.9" r="0.6"/>
					<circle cx="907.3" cy="780.8" r="0.6"/>
					<circle cx="897.2" cy="778.8" r="0.6"/>
					<circle cx="900.3" cy="779.4" r="0.6"/>
					<circle cx="893.7" cy="777.5" r="0.6"/>
					<circle cx="932.4" cy="779.6" r="0.6"/>
					<circle cx="925.3" cy="780.8" r="0.6"/>
					<circle cx="917.8" cy="781.5" r="0.6"/>
					<circle cx="910.8" cy="781.5" r="0.6"/>
				</g>
				<g class="st7">
					<circle cx="942.8" cy="779.6" r="0.6"/>
					<circle cx="939.7" cy="780.5" r="0.6"/>
					<circle cx="935.9" cy="781.7" r="0.6"/>
					<circle cx="929.1" cy="783.2" r="0.6"/>
					<circle cx="921.9" cy="784" r="0.6"/>
					<circle cx="914.5" cy="784.4" r="0.6"/>
					<circle cx="903.8" cy="783" r="0.6"/>
					<circle cx="907.3" cy="783.8" r="0.6"/>
					<circle cx="897.2" cy="781.7" r="0.6"/>
					<circle cx="900.3" cy="782.3" r="0.6"/>
					<circle cx="893.7" cy="780.5" r="0.6"/>
					<circle cx="932.4" cy="782.6" r="0.6"/>
					<circle cx="925.3" cy="783.8" r="0.6"/>
					<circle cx="917.8" cy="784.4" r="0.6"/>
					<circle cx="910.8" cy="784.4" r="0.6"/>
				</g>
				<g class="st7">
					<circle cx="942.8" cy="782.6" r="0.6"/>
					<circle cx="939.7" cy="783.4" r="0.6"/>
					<circle cx="935.9" cy="784.7" r="0.6"/>
					<circle cx="929.1" cy="786.1" r="0.6"/>
					<circle cx="921.9" cy="787" r="0.6"/>
					<circle cx="914.5" cy="787.4" r="0.6"/>
					<circle cx="903.8" cy="785.9" r="0.6"/>
					<circle cx="907.3" cy="786.8" r="0.6"/>
					<circle cx="897.2" cy="784.7" r="0.6"/>
					<circle cx="900.3" cy="785.3" r="0.6"/>
					<circle cx="893.7" cy="783.4" r="0.6"/>
					<circle cx="932.4" cy="785.5" r="0.6"/>
					<circle cx="925.3" cy="786.8" r="0.6"/>
					<circle cx="917.8" cy="787.4" r="0.6"/>
					<circle cx="910.8" cy="787.4" r="0.6"/>
				</g>
				<g class="st7">
					<circle cx="942.8" cy="785.6" r="0.6"/>
					<circle cx="939.7" cy="786.5" r="0.6"/>
					<circle cx="935.9" cy="787.6" r="0.6"/>
					<circle cx="929.1" cy="789.1" r="0.6"/>
					<circle cx="921.9" cy="790" r="0.6"/>
					<circle cx="914.5" cy="790.3" r="0.6"/>
					<circle cx="903.8" cy="788.9" r="0.6"/>
					<circle cx="907.3" cy="789.7" r="0.6"/>
					<circle cx="897.2" cy="787.6" r="0.6"/>
					<circle cx="900.3" cy="788.3" r="0.6"/>
					<circle cx="893.7" cy="786.5" r="0.6"/>
					<circle cx="932.4" cy="788.6" r="0.6"/>
					<circle cx="925.3" cy="789.7" r="0.6"/>
					<circle cx="917.8" cy="790.3" r="0.6"/>
					<circle cx="910.8" cy="790.3" r="0.6"/>
				</g>
				<g class="st7">
					<circle cx="942.8" cy="788.6" r="0.6"/>
					<circle cx="939.7" cy="789.5" r="0.6"/>
					<circle cx="935.9" cy="790.7" r="0.6"/>
					<circle cx="929.1" cy="792.2" r="0.6"/>
					<circle cx="921.9" cy="793" r="0.6"/>
					<circle cx="914.5" cy="793.3" r="0.6"/>
					<circle cx="903.8" cy="791.8" r="0.6"/>
					<circle cx="907.3" cy="792.8" r="0.6"/>
					<circle cx="897.2" cy="790.7" r="0.6"/>
					<circle cx="900.3" cy="791.2" r="0.6"/>
					<circle cx="893.7" cy="789.5" r="0.6"/>
					<circle cx="932.4" cy="791.5" r="0.6"/>
					<circle cx="925.3" cy="792.8" r="0.6"/>
					<circle cx="917.8" cy="793.3" r="0.6"/>
					<circle cx="910.8" cy="793.3" r="0.6"/>
				</g>
				<g class="st7">
					<circle cx="942.8" cy="791.6" r="0.6"/>
					<circle cx="939.7" cy="792.4" r="0.6"/>
					<circle cx="935.9" cy="793.7" r="0.6"/>
					<circle cx="929.1" cy="795.1" r="0.6"/>
					<circle cx="921.9" cy="796" r="0.6"/>
					<circle cx="914.5" cy="796.4" r="0.6"/>
					<circle cx="903.8" cy="794.8" r="0.6"/>
					<circle cx="907.3" cy="795.7" r="0.6"/>
					<circle cx="897.2" cy="793.7" r="0.6"/>
					<circle cx="900.3" cy="794.3" r="0.6"/>
					<circle cx="893.7" cy="792.4" r="0.6"/>
					<circle cx="932.4" cy="794.5" r="0.6"/>
					<circle cx="925.3" cy="795.7" r="0.6"/>
					<circle cx="917.8" cy="796.4" r="0.6"/>
					<circle cx="910.8" cy="796.4" r="0.6"/>
				</g>
				<g class="st7">
					<circle cx="942.8" cy="794.5" r="0.6"/>
					<circle cx="939.7" cy="795.4" r="0.6"/>
					<circle cx="935.9" cy="796.6" r="0.6"/>
					<circle cx="929.1" cy="798.1" r="0.6"/>
					<circle cx="921.9" cy="798.9" r="0.6"/>
					<circle cx="914.5" cy="799.3" r="0.6"/>
					<circle cx="903.8" cy="797.9" r="0.6"/>
					<circle cx="907.3" cy="798.7" r="0.6"/>
					<circle cx="897.2" cy="796.6" r="0.6"/>
					<circle cx="900.3" cy="797.2" r="0.6"/>
					<circle cx="893.7" cy="795.4" r="0.6"/>
					<circle cx="932.4" cy="797.5" r="0.6"/>
					<circle cx="925.3" cy="798.7" r="0.6"/>
					<circle cx="917.8" cy="799.3" r="0.6"/>
					<circle cx="910.8" cy="799.3" r="0.6"/>
				</g>
				<g class="st7">
					<circle cx="942.8" cy="797.5" r="0.6"/>
					<circle cx="939.7" cy="798.3" r="0.6"/>
					<circle cx="935.9" cy="799.6" r="0.6"/>
					<circle cx="929.1" cy="801" r="0.6"/>
					<circle cx="921.9" cy="801.9" r="0.6"/>
					<circle cx="914.5" cy="802.3" r="0.6"/>
					<circle cx="903.8" cy="800.8" r="0.6"/>
					<circle cx="907.3" cy="801.7" r="0.6"/>
					<circle cx="897.2" cy="799.6" r="0.6"/>
					<circle cx="900.3" cy="800.2" r="0.6"/>
					<circle cx="893.7" cy="798.3" r="0.6"/>
					<circle cx="932.4" cy="800.4" r="0.6"/>
					<circle cx="925.3" cy="801.7" r="0.6"/>
					<circle cx="917.8" cy="802.3" r="0.6"/>
					<circle cx="910.8" cy="802.3" r="0.6"/>
				</g>
				<g class="st7">
					<circle cx="942.8" cy="800.6" r="0.6"/>
					<circle cx="939.7" cy="801.4" r="0.6"/>
					<circle cx="935.9" cy="802.5" r="0.6"/>
					<circle cx="929.1" cy="804" r="0.6"/>
					<circle cx="921.9" cy="805" r="0.6"/>
					<circle cx="914.5" cy="805.2" r="0.6"/>
					<circle cx="903.8" cy="803.8" r="0.6"/>
					<circle cx="907.3" cy="804.6" r="0.6"/>
					<circle cx="897.2" cy="802.5" r="0.6"/>
					<circle cx="900.3" cy="803.2" r="0.6"/>
					<circle cx="893.7" cy="801.4" r="0.6"/>
					<circle cx="932.4" cy="803.5" r="0.6"/>
					<circle cx="925.3" cy="804.6" r="0.6"/>
					<circle cx="917.8" cy="805.2" r="0.6"/>
					<circle cx="910.8" cy="805.2" r="0.6"/>
				</g>
				<g class="st7">
					<circle cx="942.8" cy="803.5" r="0.6"/>
					<circle cx="939.7" cy="804.4" r="0.6"/>
					<circle cx="935.9" cy="805.6" r="0.6"/>
					<circle cx="929.1" cy="807.1" r="0.6"/>
					<circle cx="921.9" cy="807.9" r="0.6"/>
					<circle cx="914.5" cy="808.2" r="0.6"/>
					<circle cx="903.8" cy="806.7" r="0.6"/>
					<circle cx="907.3" cy="807.7" r="0.6"/>
					<circle cx="897.2" cy="805.6" r="0.6"/>
					<circle cx="900.3" cy="806.1" r="0.6"/>
					<circle cx="893.7" cy="804.4" r="0.6"/>
					<circle cx="932.4" cy="806.4" r="0.6"/>
					<circle cx="925.3" cy="807.7" r="0.6"/>
					<circle cx="917.8" cy="808.2" r="0.6"/>
					<circle cx="910.8" cy="808.2" r="0.6"/>
				</g>
				<g class="st7">
					<circle cx="942.8" cy="806.5" r="0.6"/>
					<circle cx="939.7" cy="807.3" r="0.6"/>
					<circle cx="935.9" cy="808.6" r="0.6"/>
					<circle cx="929.1" cy="810" r="0.6"/>
					<circle cx="921.9" cy="810.9" r="0.6"/>
					<circle cx="914.5" cy="811.3" r="0.6"/>
					<circle cx="903.8" cy="809.7" r="0.6"/>
					<circle cx="907.3" cy="810.6" r="0.6"/>
					<circle cx="897.2" cy="808.6" r="0.6"/>
					<circle cx="900.3" cy="809.2" r="0.6"/>
					<circle cx="893.7" cy="807.3" r="0.6"/>
					<circle cx="932.4" cy="809.4" r="0.6"/>
					<circle cx="925.3" cy="810.6" r="0.6"/>
					<circle cx="917.8" cy="811.3" r="0.6"/>
					<circle cx="910.8" cy="811.3" r="0.6"/>
				</g>
				<g class="st7">
					<circle cx="942.8" cy="809.4" r="0.6"/>
					<circle cx="939.7" cy="810.3" r="0.6"/>
					<circle cx="935.9" cy="811.5" r="0.6"/>
					<circle cx="929.1" cy="813" r="0.6"/>
					<circle cx="921.9" cy="813.8" r="0.6"/>
					<circle cx="914.5" cy="814.2" r="0.6"/>
					<circle cx="903.8" cy="812.8" r="0.6"/>
					<circle cx="907.3" cy="813.6" r="0.6"/>
					<circle cx="897.2" cy="811.5" r="0.6"/>
					<circle cx="900.3" cy="812.1" r="0.6"/>
					<circle cx="893.7" cy="810.3" r="0.6"/>
					<circle cx="932.4" cy="812.4" r="0.6"/>
					<circle cx="925.3" cy="813.6" r="0.6"/>
					<circle cx="917.8" cy="814.2" r="0.6"/>
					<circle cx="910.8" cy="814.2" r="0.6"/>
				</g>
				<g class="st7">
					<circle cx="942.8" cy="812.4" r="0.6"/>
					<circle cx="939.7" cy="813.2" r="0.6"/>
					<circle cx="935.9" cy="814.5" r="0.6"/>
					<circle cx="929.1" cy="815.9" r="0.6"/>
					<circle cx="921.9" cy="816.8" r="0.6"/>
					<circle cx="914.5" cy="817.2" r="0.6"/>
					<circle cx="903.8" cy="815.7" r="0.6"/>
					<circle cx="907.3" cy="816.6" r="0.6"/>
					<circle cx="897.2" cy="814.5" r="0.6"/>
					<circle cx="900.3" cy="815.1" r="0.6"/>
					<circle cx="893.7" cy="813.2" r="0.6"/>
					<circle cx="932.4" cy="815.3" r="0.6"/>
					<circle cx="925.3" cy="816.6" r="0.6"/>
					<circle cx="917.8" cy="817.2" r="0.6"/>
					<circle cx="910.8" cy="817.2" r="0.6"/>
				</g>
				<g class="st7">
					<circle cx="942.8" cy="815.5" r="0.6"/>
					<circle cx="939.7" cy="816.3" r="0.6"/>
					<circle cx="935.9" cy="817.4" r="0.6"/>
					<circle cx="929.1" cy="818.9" r="0.6"/>
					<circle cx="921.9" cy="819.9" r="0.6"/>
					<circle cx="914.5" cy="820.2" r="0.6"/>
					<circle cx="903.8" cy="818.7" r="0.6"/>
					<circle cx="907.3" cy="819.5" r="0.6"/>
					<circle cx="897.2" cy="817.4" r="0.6"/>
					<circle cx="900.3" cy="818.1" r="0.6"/>
					<circle cx="893.7" cy="816.3" r="0.6"/>
					<circle cx="932.4" cy="818.4" r="0.6"/>
					<circle cx="925.3" cy="819.5" r="0.6"/>
					<circle cx="917.8" cy="820.2" r="0.6"/>
					<circle cx="910.8" cy="820.2" r="0.6"/>
				</g>
				<g class="st7">
					<circle cx="942.8" cy="818.4" r="0.6"/>
					<circle cx="939.7" cy="819.3" r="0.6"/>
					<circle cx="935.9" cy="820.5" r="0.6"/>
					<circle cx="929.1" cy="822" r="0.6"/>
					<circle cx="921.9" cy="822.8" r="0.6"/>
					<circle cx="914.5" cy="823.1" r="0.6"/>
					<circle cx="903.8" cy="821.7" r="0.6"/>
					<circle cx="907.3" cy="822.6" r="0.6"/>
					<circle cx="897.2" cy="820.5" r="0.6"/>
					<circle cx="900.3" cy="821" r="0.6"/>
					<circle cx="893.7" cy="819.3" r="0.6"/>
					<circle cx="932.4" cy="821.4" r="0.6"/>
					<circle cx="925.3" cy="822.6" r="0.6"/>
					<circle cx="917.8" cy="823.1" r="0.6"/>
					<circle cx="910.8" cy="823.1" r="0.6"/>
				</g>
				<g class="st7">
					<circle cx="942.8" cy="821.4" r="0.6"/>
					<circle cx="939.7" cy="822.2" r="0.6"/>
					<circle cx="935.9" cy="823.5" r="0.6"/>
					<circle cx="929.1" cy="824.9" r="0.6"/>
					<circle cx="921.9" cy="825.8" r="0.6"/>
					<circle cx="914.5" cy="826.2" r="0.6"/>
					<circle cx="903.8" cy="824.6" r="0.6"/>
					<circle cx="907.3" cy="825.6" r="0.6"/>
					<circle cx="897.2" cy="823.5" r="0.6"/>
					<circle cx="900.3" cy="824.1" r="0.6"/>
					<circle cx="893.7" cy="822.2" r="0.6"/>
					<circle cx="932.4" cy="824.3" r="0.6"/>
					<circle cx="925.3" cy="825.6" r="0.6"/>
					<circle cx="917.8" cy="826.2" r="0.6"/>
					<circle cx="910.8" cy="826.2" r="0.6"/>
				</g>
				<g class="st7">
					<circle cx="942.8" cy="824.4" r="0.6"/>
					<circle cx="939.7" cy="825.2" r="0.6"/>
					<circle cx="935.9" cy="826.4" r="0.6"/>
					<circle cx="929.1" cy="827.9" r="0.6"/>
					<circle cx="921.9" cy="828.7" r="0.6"/>
					<circle cx="914.5" cy="829.1" r="0.6"/>
					<circle cx="903.8" cy="827.7" r="0.6"/>
					<circle cx="907.3" cy="828.5" r="0.6"/>
					<circle cx="897.2" cy="826.4" r="0.6"/>
					<circle cx="900.3" cy="827.1" r="0.6"/>
					<circle cx="893.7" cy="825.2" r="0.6"/>
					<circle cx="932.4" cy="827.3" r="0.6"/>
					<circle cx="925.3" cy="828.5" r="0.6"/>
					<circle cx="917.8" cy="829.1" r="0.6"/>
					<circle cx="910.8" cy="829.1" r="0.6"/>
				</g>
				<g class="st7">
					<circle cx="942.8" cy="827.3" r="0.6"/>
					<circle cx="939.7" cy="828.3" r="0.6"/>
					<circle cx="935.9" cy="829.4" r="0.6"/>
					<circle cx="929.1" cy="830.9" r="0.6"/>
					<circle cx="921.9" cy="831.7" r="0.6"/>
					<circle cx="914.5" cy="832.1" r="0.6"/>
					<circle cx="903.8" cy="830.6" r="0.6"/>
					<circle cx="907.3" cy="831.5" r="0.6"/>
					<circle cx="897.2" cy="829.4" r="0.6"/>
					<circle cx="900.3" cy="830" r="0.6"/>
					<circle cx="893.7" cy="828.3" r="0.6"/>
					<circle cx="932.4" cy="830.2" r="0.6"/>
					<circle cx="925.3" cy="831.5" r="0.6"/>
					<circle cx="917.8" cy="832.1" r="0.6"/>
					<circle cx="910.8" cy="832.1" r="0.6"/>
				</g>
				<g class="st7">
					<circle cx="942.8" cy="830.4" r="0.6"/>
					<circle cx="939.7" cy="831.2" r="0.6"/>
					<circle cx="935.9" cy="832.4" r="0.6"/>
					<circle cx="929.1" cy="833.8" r="0.6"/>
					<circle cx="921.9" cy="834.8" r="0.6"/>
					<circle cx="914.5" cy="835.1" r="0.6"/>
					<circle cx="903.8" cy="833.6" r="0.6"/>
					<circle cx="907.3" cy="834.4" r="0.6"/>
					<circle cx="897.2" cy="832.4" r="0.6"/>
					<circle cx="900.3" cy="833" r="0.6"/>
					<circle cx="893.7" cy="831.2" r="0.6"/>
					<circle cx="932.4" cy="833.3" r="0.6"/>
					<circle cx="925.3" cy="834.4" r="0.6"/>
					<circle cx="917.8" cy="835.1" r="0.6"/>
					<circle cx="910.8" cy="835.1" r="0.6"/>
				</g>
				<g class="st7">
					<circle cx="942.8" cy="833.3" r="0.6"/>
					<circle cx="939.7" cy="834.2" r="0.6"/>
					<circle cx="935.9" cy="835.4" r="0.6"/>
					<circle cx="929.1" cy="836.9" r="0.6"/>
					<circle cx="921.9" cy="837.7" r="0.6"/>
					<circle cx="914.5" cy="838" r="0.6"/>
					<circle cx="903.8" cy="836.6" r="0.6"/>
					<circle cx="907.3" cy="837.5" r="0.6"/>
					<circle cx="897.2" cy="835.4" r="0.6"/>
					<circle cx="900.3" cy="835.9" r="0.6"/>
					<circle cx="893.7" cy="834.2" r="0.6"/>
					<circle cx="932.4" cy="836.3" r="0.6"/>
					<circle cx="925.3" cy="837.5" r="0.6"/>
					<circle cx="917.8" cy="838" r="0.6"/>
					<circle cx="910.8" cy="838" r="0.6"/>
				</g>
				<g class="st7">
					<circle cx="942.8" cy="836.3" r="0.6"/>
					<circle cx="939.7" cy="837.1" r="0.6"/>
					<circle cx="935.9" cy="838.4" r="0.6"/>
					<circle cx="929.1" cy="839.8" r="0.6"/>
					<circle cx="921.9" cy="840.7" r="0.6"/>
					<circle cx="914.5" cy="841.1" r="0.6"/>
					<circle cx="903.8" cy="839.5" r="0.6"/>
					<circle cx="907.3" cy="840.5" r="0.6"/>
					<circle cx="897.2" cy="838.4" r="0.6"/>
					<circle cx="900.3" cy="839" r="0.6"/>
					<circle cx="893.7" cy="837.1" r="0.6"/>
					<circle cx="932.4" cy="839.2" r="0.6"/>
					<circle cx="925.3" cy="840.5" r="0.6"/>
					<circle cx="917.8" cy="841.1" r="0.6"/>
					<circle cx="910.8" cy="841.1" r="0.6"/>
				</g>
				<g class="st7">
					<circle cx="942.8" cy="839.3" r="0.6"/>
					<circle cx="939.7" cy="840.1" r="0.6"/>
					<circle cx="935.9" cy="841.3" r="0.6"/>
					<circle cx="929.1" cy="842.8" r="0.6"/>
					<circle cx="921.9" cy="843.6" r="0.6"/>
					<circle cx="914.5" cy="844" r="0.6"/>
					<circle cx="903.8" cy="842.6" r="0.6"/>
					<circle cx="907.3" cy="843.4" r="0.6"/>
					<circle cx="897.2" cy="841.3" r="0.6"/>
					<circle cx="900.3" cy="842" r="0.6"/>
					<circle cx="893.7" cy="840.1" r="0.6"/>
					<circle cx="932.4" cy="842.2" r="0.6"/>
					<circle cx="925.3" cy="843.4" r="0.6"/>
					<circle cx="917.8" cy="844" r="0.6"/>
					<circle cx="910.8" cy="844" r="0.6"/>
				</g>
				<g class="st7">
					<circle cx="942.8" cy="842.2" r="0.6"/>
					<circle cx="939.7" cy="843.2" r="0.6"/>
					<circle cx="935.9" cy="844.3" r="0.6"/>
					<circle cx="929.1" cy="845.8" r="0.6"/>
					<circle cx="921.9" cy="846.6" r="0.6"/>
					<circle cx="914.5" cy="847" r="0.6"/>
					<circle cx="903.8" cy="845.5" r="0.6"/>
					<circle cx="907.3" cy="846.4" r="0.6"/>
					<circle cx="897.2" cy="844.3" r="0.6"/>
					<circle cx="900.3" cy="844.9" r="0.6"/>
					<circle cx="893.7" cy="843.2" r="0.6"/>
					<circle cx="932.4" cy="845.1" r="0.6"/>
					<circle cx="925.3" cy="846.4" r="0.6"/>
					<circle cx="917.8" cy="847" r="0.6"/>
					<circle cx="910.8" cy="847" r="0.6"/>
				</g>
			</g>
		</g>
	</g>
</g>
<g id="_x23_woman_x28_sit_x2C_play_x5B_computer_x5D__x29_">
	<g>
		<g>
			<g>
				<path class="st5" d="M573,390.1c-11.9,4.1-22.7,13.4-25.1,25.7c-1.2,5.7-0.5,11.6-1.4,17.3c-2.2,13.3-12.7,23.5-22.4,32.9
					c-9.7,9.4-19.6,20.4-20.3,33.9c-0.8,14.8,9.9,28.6,8,43.3c-2.1,17-20.1,28.1-24.6,44.7c-3,11.1,0.7,23,6.6,32.8
					c11.4,18.6,31,31.3,51.7,38.1c20.7,6.8,43,8.3,64.7,8.5c26.7,0.2,55.5-2,75.6-19.6c11.4-10.1,18.6-24.2,20-39.3
					c1.9-20.4-6.6-41.3-0.7-61c3.7-12.3,12.9-23.5,11.5-36.3c-1.4-12.5-12.2-21.4-19.8-31.4c-7-9.4-11.3-20.6-15.4-31.5l-14.2-37.6
					c-2.8-7.3-5.8-15.1-12.1-20c-11.6-9.1-30.4-7.3-44.1-5.5C598.6,386.8,585.1,386,573,390.1z"/>
				<path class="st8" d="M577.4,499.5c0,0,6.3,20.5-41,44.1s4.8,48.9,4.8,48.9l55.2,12.6c0,0,56.8-7.9,63.1-17.3
					c6.3-9.4,17.3-41,14.2-45.8c-2.3-3.4-5-6.5-7.9-9.4c0,0-37.8-6.3-36.3-23.6S577.4,499.5,577.4,499.5z"/>
				<path class="st4" d="M577.4,499.5c0,0,6.3,20.5-41,44.1s4.8,48.9,4.8,48.9l55.2,12.6c0,0,56.8-7.9,63.1-17.3
					c6.3-9.4,17.3-41,14.2-45.8c-2.3-3.4-5-6.5-7.9-9.4c0,0-37.8-6.3-36.3-23.6S577.4,499.5,577.4,499.5z"/>
				<circle class="st8" cx="608.1" cy="481.5" r="50.5"/>
				<path class="st2" d="M602.6,587.9c0,0-60.8-4.4-61.9-46.3c0,0-21.7-2.6-27.9,3.8c-6.3,6.4-26.8,11.1-26.8,26.8
					s34.7,63.1,34.7,63.1s19,63.1,11.1,74.2s-9.4,39.5-9.4,39.5s78.8-6.3,91.5,0s63.1,6.3,66.2,0c3.1-6.3-3.1-85.2-3.1-85.2
					s14.2-19,11.1-41l37.8-44.1c0,0-14.2-42.6-36.3-42.6c0,0-29.9-7.9-30.7-4C657.9,535.9,673.5,579.9,602.6,587.9z"/>
				<path class="st8" d="M460.6,726.6c0,0,14.2,22.1,50.5,26.8s42.6-7.9,39.5-11.1s-41-17.3-41-17.3l-22.1-17.3L460.6,726.6z"/>
				<path class="st8" d="M719.3,707.8l-41,23.6c0,0-53.7-3.1-33.2,12.6s58.3,9.4,58.3,9.4l36.3-17.3L719.3,707.8z"/>
				<path class="st5" d="M514.3,748.7c0,0-37.8,93,7.9,107.2S694.1,867,722.6,848c28.4-19,36.3-44.1,31.5-52
					c-4.8-7.9-36.3-29.9-58.3-31.5S514.3,748.7,514.3,748.7z"/>
				<path class="st9" d="M514.3,748.7c0,0-37.8,93,7.9,107.2S694.1,867,722.6,848c28.4-19,36.3-44.1,31.5-52
					c-4.8-7.9-36.3-29.9-58.3-31.5S514.3,748.7,514.3,748.7z"/>
				<path class="st5" d="M693,754.6c0,0,133.6-48.3,132,10c-1.6,58.3-85.2,74.2-85.2,74.2l-25.3,3.1l-138.8,4.8
					c0,0,4.8-25.3-6.3-28.4c0,0,36.3-9.4,37.8-11.1c1.6-1.6,91.5-33.2,97.8-34.7c6.3-1.6,25.3-14.2,39.5-12.6
					c0,0,15.7-12.6,33.2-9.4l-48.9,3.1L693,754.6z"/>
				<path class="st4" d="M693,754.6c0,0,133.6-48.3,132,10c-1.6,58.3-85.2,74.2-85.2,74.2l-25.3,3.1l-138.8,4.8
					c0,0,4.8-25.3-6.3-28.4c0,0,36.3-9.4,37.8-11.1c1.6-1.6,91.5-33.2,97.8-34.7c6.3-1.6,25.3-14.2,39.5-12.6
					c0,0,15.7-12.6,33.2-9.4l-48.9,3.1L693,754.6z"/>
				<polygon class="st5" points="669.4,762.4 686.2,800.8 788.7,764.5 796.6,744 769.8,739.3 715.9,748.7 692.5,755 				"/>
				<polygon class="st4" points="669.4,762.4 686.2,800.8 788.7,764.5 796.6,744 769.8,739.3 715.9,748.7 692.5,755 				"/>
				<path class="st5" d="M451.2,808.7c0,0,29.9,37.8,64.6,47.3s53.7-3.1,53.7-3.1l-11.1-44.1l-4.8-28.4l-20.5-14.2l-41-19
					l-48.9-15.7c0,0-20.5-3.1-20.5,0s19,50.5,19,50.5L451.2,808.7z"/>
				<path class="st0" d="M487.5,829.2c0,0,6.3,45.8,14.2,48.9s31.5-3.1,37.8-6.3c6.3-3.1,27.7-17.7,27.7-17.7S492.2,826,487.5,829.2
					z"/>
				<polygon class="st8" points="631.1,833.8 661,838.6 657.8,874.9 616,864.8 				"/>
				<path class="st0" d="M649.8,844c0,0-14.1,16.8,0.1,26.2l9.4,7.9c0,0,31.5,6.3,34.7,9.4c3.1,3.1,15.7-4.8,15.7-4.8
					s1.6-47.3,0-50.5c-1.6-3.1-20.5-6.3-22.1-3.1s-20.5,7.9-31.5,4.8L649.8,844z"/>
				<path class="st5" d="M523.7,759.8c0,0-110.4-64.6-127.7-41s-36.3,56.8,14.2,82c50.5,25.3,208.1,77.3,208.1,77.3
					s23.6-36.3,23.6-45.8c0,0-83.6-37.8-97.8-41s-71-39.5-78.8-42.6c-7.9-3.1-19-12.6-19-12.6L523.7,759.8z"/>
				<path class="st2" d="M492.2,564.2l-6.3,4.8c0,0-14.2,36.3-15.7,56.8s-20.5,83.6-19,91.5c1.6,7.9,3.1,14.2,12.6,22.1
					c0,0,12.6-28.4,34.7-23.6l26.8-97.8L492.2,564.2z"/>
				<path class="st2" d="M713,564.2l12.6,14.2c0,0,7.9,19,7.9,23.6s15.7,74.2,17.3,77.3c1.6,3.1,7.9,42.6,0,52
					c-7.9,9.4-22.1,15.7-22.1,15.7s9.4-33.2-20.5-34.7l3.1-12.6L683,605.2L713,564.2z"/>
				<path class="st1" d="M495.3,672.8V756c0,10.9,8.7,19.8,19.7,20l173.7,2.6c10.8,0.1,19.8-8.4,20.3-19.2l3.1-83.1
					c0.5-11.1-8.1-20.3-19.2-20.7c-0.1,0-0.3,0-0.5,0l-176.9-2.6c-11.1-0.1-20.1,8.6-20.3,19.7C495.3,672.6,495.3,672.7,495.3,672.8
					z"/>
				<ellipse class="st5" cx="611.1" cy="450.5" rx="54.4" ry="29.2"/>
				<circle class="st0" cx="601.8" cy="716.4" r="12.6"/>
			</g>
		</g>
	</g>
</g>
</svg>
