<?xml version="1.0" encoding="utf-8"?>
<!-- Generator: Adobe Illustrator 19.0.0, SVG Export Plug-In . SVG Version: 6.00 Build 0)  -->
<svg version="1.1" xmlns="http://www.w3.org/2000/svg" xmlns:xlink="http://www.w3.org/1999/xlink" x="0px" y="0px"
	 viewBox="0 0 1000 1000" style="enable-background:new 0 0 1000 1000;" xml:space="preserve">
<style type="text/css">
	.st0{fill:#F2F2F2;}
	.st1{fill:#3F3D56;}
	.st2{fill:#6C63FF;}
	.st3{fill:#2F2E41;}
	.st4{opacity:0.1;enable-background:new    ;}
	.st5{fill:#A0616A;}
	.st6{fill:#D0CDE1;}
</style>
<g id="_x23_other_x28_have_x5B_webpage_x5D__x29_">
	<g>
		<circle class="st0" cx="466" cy="317.4" r="58.9"/>
		<path class="st1" d="M952.1,240.9H622.3v-69h329.8V240.9z M623.7,239.5h326.9v-66.1H623.7L623.7,239.5L623.7,239.5z"/>
		<rect x="599.8" y="185.8" class="st2" width="328.3" height="67.5"/>
		<circle class="st2" cx="392.2" cy="116.1" r="5.1"/>
		<circle class="st2" cx="409.6" cy="116.1" r="5.1"/>
		<circle class="st2" cx="427.1" cy="116.1" r="5.1"/>
		<path class="st1" d="M989.4,500.5H377.6V102.4h611.6L989.4,500.5L989.4,500.5z M379.1,499.1h608.7V103.8H379.1V499.1z"/>
		<rect x="378.4" y="124.4" class="st1" width="610.2" height="1.4"/>
		<path class="st1" d="M393.7,119.9c-3.2,0-5.8-2.6-5.8-5.8s2.6-5.8,5.8-5.8c3.2,0,5.8,2.6,5.8,5.8S396.8,119.9,393.7,119.9z
			 M393.7,109.6c-2.4,0-4.3,2-4.3,4.3s2,4.3,4.3,4.3c2.4,0,4.3-2,4.3-4.3S396,109.6,393.7,109.6z"/>
		<path class="st1" d="M411.1,119.9c-3.2,0-5.8-2.6-5.8-5.8s2.6-5.8,5.8-5.8s5.8,2.6,5.8,5.8S414.3,119.9,411.1,119.9z M411.1,109.6
			c-2.4,0-4.3,2-4.3,4.3s2,4.3,4.3,4.3c2.4,0,4.3-2,4.3-4.3C415.4,111.6,413.5,109.6,411.1,109.6z"/>
		<path class="st1" d="M428.5,119.9c-3.2,0-5.8-2.6-5.8-5.8s2.6-5.8,5.8-5.8c3.2,0,5.8,2.6,5.8,5.8l0,0
			C434.3,117.2,431.7,119.9,428.5,119.9z M428.5,109.6c-2.4,0-4.3,2-4.3,4.3c0,2.4,2,4.3,4.3,4.3c2.4,0,4.3-2,4.3-4.3l0,0
			C432.9,111.6,430.9,109.6,428.5,109.6z"/>
		<rect x="569.2" y="125.1" class="st1" width="1.4" height="375.1"/>
		<rect x="638.6" y="309.6" class="st0" width="106.8" height="14.5"/>
		<rect x="806.5" y="309.6" class="st0" width="106.8" height="14.5"/>
		<path class="st1" d="M752,317.6H643.7v-16h108.2L752,317.6L752,317.6z M645.2,316.2h105.3v-13H645.2V316.2z"/>
		<rect x="638.6" y="422.2" class="st0" width="106.8" height="14.5"/>
		<path class="st1" d="M752,430.2H643.7v-16h108.2L752,430.2L752,430.2z M645.2,428.7h105.3v-13H645.2V428.7z"/>
		<rect x="639" y="364.4" class="st0" width="274.6" height="14.5"/>
		<path class="st1" d="M920.1,373.9h-276v-16h276.1L920.1,373.9L920.1,373.9z M645.6,372.5h273.1v-13H645.6V372.5z"/>
		<path class="st1" d="M919.7,317.6H811.5v-16h108.2V317.6z M813,316.2h105.3v-13H813V316.2z"/>
		<path class="st1" d="M476,360.9c-33,0-59.8-26.7-59.8-59.8s26.7-59.8,59.8-59.8s59.8,26.7,59.8,59.8
			C535.6,334.1,508.9,360.8,476,360.9z M476,243.2c-32,0-57.9,26-57.9,57.9s26,57.9,57.9,57.9s57.9-26,57.9-57.9
			C533.8,269.1,507.9,243.2,476,243.2z"/>
	</g>
</g>
<g id="_x23_man_x28_sit_x2C_play_x5B_computer_x5D__x29_">
	<g>
		<g>
			<path class="st3" d="M146,647.3h33.3l82.2-32.1c0,0,58.4-23.8,53.6,21.5c-4.8,45.3-13.1,106-13.1,106s-26.2-12-40.5-8.3
				c-14.3,3.6-4.8-72.7-4.8-72.7s-116.7,56-127.5,48.8c-10.8-7.2-13.1-57.2-13.1-57.2L146,647.3z"/>
			<path class="st4" d="M146,647.3h33.3l82.2-32.1c0,0,58.4-23.8,53.6,21.5c-4.8,45.3-13.1,106-13.1,106s-26.2-12-40.5-8.3
				c-14.3,3.6-4.8-72.7-4.8-72.7s-116.7,56-127.5,48.8c-10.8-7.2-13.1-57.2-13.1-57.2L146,647.3z"/>
			<path class="st5" d="M198.6,542.8l40.4,58l94.1,78.6c0,0,87,20.3,75.1,34.6c-12,14.3-84.6-14.3-84.6-14.3s-108.5-78.6-112-84.6
				c-3.5-6-42.9-61.9-42.9-61.9L198.6,542.8z"/>
			<path class="st4" d="M198.6,542.8l40.4,58l94.1,78.6c0,0,87,20.3,75.1,34.6c-12,14.3-84.6-14.3-84.6-14.3s-108.5-78.6-112-84.6
				c-3.5-6-42.9-61.9-42.9-61.9L198.6,542.8z"/>
			<path class="st6" d="M174.6,496l26.2,51.2c0,0-6,25-15.5,27.4c-9.5,2.4-50.1-31-50.1-31L174.6,496z"/>
			<path class="st4" d="M174.6,496l26.2,51.2c0,0-6,25-15.5,27.4c-9.5,2.4-50.1-31-50.1-31L174.6,496z"/>
			<path class="st3" d="M494.4,620.8l7.8,32c0.1,0.4,0.1,0.7,0,1.1l-35.1,109.7c-0.4,1.1-1.4,1.6-2.5,1.3c-0.7-0.3-1.3-0.9-1.4-1.6
				l-4.9-42.7c0-0.3,0-0.5,0.1-0.8l32.2-99c0.4-1.1,1.4-1.6,2.5-1.3C493.7,619.6,494.3,620.1,494.4,620.8z"/>
			<polygon class="st0" points="491.6,623.5 498.7,650.9 467.7,751 460.6,720 			"/>
			<path class="st3" d="M335.4,772.4c1.2,3.5,123.9-1.2,125.1-2.4c1-1.4,1.9-3.1,2.6-4.8c1.1-2.4,2.2-4.8,2.2-4.8l-4.8-38.6
				l-121.5-4.3c0,0-3.1,32.7-3.6,47.6C335.3,769,335.3,771.7,335.4,772.4z"/>
			<polygon class="st4" points="445.1,727.2 447.5,760.5 393.9,760.5 393.9,727.2 			"/>
			<polygon class="st4" points="376,737.8 376.3,737.7 374.8,752.1 345,752.1 345,737.8 			"/>
			<path class="st4" d="M335.4,772.4c1.2,3.5,123.9-1.2,125.1-2.4c1-1.4,1.9-3.1,2.6-4.8H335.4C335.3,769,335.3,771.7,335.4,772.4z"
				/>
			<circle class="st5" cx="192.5" cy="425.7" r="53.6"/>
			<path class="st5" d="M188.9,473.3c0,0-17.8,31-21.5,47.6c-3.6,16.7-53.6-33.3-53.6-33.3l-6.5-17.3c0,0,47.1-22,43.5-39.9
				S188.9,473.3,188.9,473.3z"/>
			<path class="st5" d="M198.5,566.2l48.8,64.4l116.7,87c0,0,84.6,17.8,65.6,31c-19,13.1-73.9-12-73.9-12s-117.9-63.1-142.9-89.4
				c-25-26.3-71.4-70.3-71.4-70.3L198.5,566.2z"/>
			<path class="st3" d="M133,666.4l14.3,22.6l85.3-26.8c18.7-5.9,39.2-3.7,55.9,6.7c14.8,9.4,24.4,24.3,3,46.4
				c-42.9,44.1-71.4,20.3-71.4,20.3S75.9,803.5,52,770.2c-23.8-33.3-25-50.1-25-50.1S118.7,662.8,133,666.4z"/>
			<path class="st6" d="M311.6,745c0,0,38.1,25-7.2,36.9s-78.6-4.8-78.6-4.8s-39.3,0-39.3-20.3c0-20.3,13.1-22.6,13.1-22.6l40.5,6
				C240.2,740.2,289,727.2,311.6,745z"/>
			<path class="st3" d="M236.5,412.2c3.6,1.6,7.2,3.5,11.2,4c4,0.5,8.5-0.9,10.3-4.4c1-1.9,1.1-4.2,1.2-6.3
				c0.2-6.5-0.4-13.6-4.4-18.7c-2.6-3.3-6.5-5.3-9.2-8.4c-2-2.3-3.3-5-4.6-7.6c-5.3-10-13.2-19.6-24.1-22.5c-4.5-1.2-9.3-1.2-14-1.1
				l-27.5,0.4c-4.4,0.1-9,0.2-13.2,1.4c-8.9,2.7-15.3,10.1-21.2,17.3c-4.4,5.3-8.9,10.7-12.1,16.8c-4.8,8.9-7.2,18.8-7,28.9
				c0,2.6,0.3,5.2,1,7.6c0.8,2.3,1.8,4.5,3,6.6c5.2,10.1,8.2,22.8,2.4,32.6c10.1-4.2,20.1-9.5,26.7-18.2c3-3.9,5.3-8.4,9.3-11.2
				c4-2.8,10.4-3.1,12.9,1.1c0.9,1.7,1.4,3.5,1.4,5.4c0.2,3.1,0.2,6.3,1.5,9.2c1.4,2.9,4.4,5.2,7.5,4.3c5.2-1.4,4.7-9.4,8.7-13
				c3.1-2.7,7.7-2.3,11.6-3.4c4.5-1.4,8-5.3,9.9-9.8c1.4-3.4,1.4-12,4.3-13.8C225.3,407.2,233.2,410.8,236.5,412.2z"/>
			<path class="st6" d="M103.1,464.7c2.4-0.6,5-0.6,7.3,0c7.6,2.1,24.8,7.5,28.4,15.8c4.8,10.7,21.5,27.4,21.5,27.4
				s22.6,22.6,17.8,38.1s-22.6,33.3-22.6,33.3s4.8,73.9-19.1,92.9c-23.9,19-33.3,6-33.3,23.8c0,17.8-73.8,73.9-88.1,39.4
				c0,0,7.2-64.4,4.8-87C17.4,626.2,20.9,487,103.1,464.7z"/>
			<path class="st6" d="M141.3,494.8c0,0,72.7,53.6,59.6,76.2c0,0-44.1,21.5-53.6,20.3c-9.5-1.2-46.5-42.9-56-46.5
				C81.8,541.3,76.9,477,141.3,494.8z"/>
		</g>
	</g>
</g>
</svg>
