<?xml version="1.0" encoding="utf-8"?>
<!-- Generator: Adobe Illustrator 19.0.0, SVG Export Plug-In . SVG Version: 6.00 Build 0)  -->
<svg version="1.1" xmlns="http://www.w3.org/2000/svg" xmlns:xlink="http://www.w3.org/1999/xlink" x="0px" y="0px"
	 viewBox="0 0 1034.8 706.7" style="enable-background:new 0 0 1034.8 706.7;" xml:space="preserve">
<style type="text/css">
	.st0{fill:#F2F2F2;}
	.st1{opacity:3.000000e-02;enable-background:new    ;}
	.st2{fill:#36334A;}
	.st3{opacity:0.1;enable-background:new    ;}
	.st4{fill:#3F3D56;}
	.st5{fill:#6C63FF;}
	.st6{opacity:0.2;enable-background:new    ;}
	.st7{opacity:0.2;fill:#6C63FF;enable-background:new    ;}
	.st8{fill:none;stroke:#3F3D56;stroke-width:4;stroke-miterlimit:10;}
	.st9{fill:#656380;}
	.st10{fill:#FF6584;}
	.st11{fill:#FBBEBE;}
	.st12{fill:#696880;}
</style>
<g id="A2211">
	<title>fast car</title>
	<path class="st0" d="M654.5,197.7H526.1V170c0-3.7-3-6.6-6.6-6.6l0,0h-37.7v-29.6c0-2.3-1.9-4.2-4.2-4.2h-48.5
		c-2.3,0-4.2,1.9-4.2,4.2v29.6h-44.3c-3.7,0-6.6,3-6.6,6.6v0v27.8H251.5c-0.7,0-1.3,0.6-1.3,1.4v368.5c0,0.7,0.6,1.3,1.3,1.3h81.3
		c0.7,0,1.4-0.6,1.4-1.3V518c0-0.7,0.6-1.3,1.4-1.3H370c0.7,0,1.3,0.6,1.4,1.3v49.6c0,0.7,0.6,1.3,1.3,1.3h160.7
		c0.7,0,1.3-0.6,1.3-1.3V518c0-0.7,0.6-1.3,1.3-1.3h34.4c0.7,0,1.3,0.6,1.3,1.3v49.6c0,0.7,0.6,1.3,1.3,1.3h81.3
		c0.7,0,1.3-0.6,1.3-1.3V199.1C655.8,198.4,655.2,197.8,654.5,197.7z M319.7,499.5c0,0.7-0.6,1.3-1.3,1.3h0h-50.2
		c-0.7,0-1.3-0.6-1.3-1.3c0,0,0,0,0,0v-17.1c0-0.7,0.6-1.3,1.4-1.3h50.3c0.7,0,1.3,0.6,1.3,1.3L319.7,499.5z M319.7,455.1
		c0,0.7-0.6,1.3-1.3,1.3c0,0,0,0,0,0h-50.2c-0.7,0-1.3-0.6-1.4-1.3c0,0,0,0,0,0V438c0-0.7,0.6-1.3,1.3-1.3c0,0,0,0,0,0h50.3
		c0.7,0,1.3,0.6,1.3,1.3c0,0,0,0,0,0L319.7,455.1z M319.7,410.8c0,0.7-0.6,1.3-1.3,1.4h-50.2c-0.7,0-1.4-0.6-1.4-1.4l0,0v-17.2
		c0-0.7,0.6-1.4,1.4-1.4l0,0h50.3c0.7,0,1.3,0.6,1.3,1.4L319.7,410.8z M319.7,366.4c0,0.7-0.6,1.3-1.3,1.3c0,0,0,0,0,0h-50.2
		c-0.7,0-1.3-0.6-1.4-1.3c0,0,0,0,0,0v-17.1c0-0.7,0.6-1.3,1.3-1.4c0,0,0,0,0,0h50.3c0.7,0,1.3,0.6,1.3,1.3c0,0,0,0,0,0L319.7,366.4
		z M319.7,322.1c0,0.7-0.6,1.3-1.3,1.4h-50.2c-0.7,0-1.4-0.6-1.4-1.4l0,0V305c0-0.7,0.6-1.3,1.3-1.3c0,0,0,0,0,0h50.3
		c0.7,0,1.3,0.6,1.3,1.3L319.7,322.1z M319.7,277.8c0,0.7-0.6,1.3-1.3,1.3h-50.2c-0.7,0-1.3-0.6-1.3-1.3c0,0,0,0,0,0v-17.2
		c0-0.7,0.6-1.4,1.4-1.4l0,0h50.3c0.7,0,1.3,0.6,1.3,1.4L319.7,277.8z M319.7,233.4c0,0.7-0.6,1.3-1.3,1.3c0,0,0,0,0,0h-50.2
		c-0.7,0-1.3-0.6-1.4-1.3c0,0,0,0,0,0v-17.1c0-0.7,0.6-1.3,1.3-1.4c0,0,0,0,0,0h50.3c0.7,0,1.3,0.6,1.3,1.3c0,0,0,0,0,0L319.7,233.4
		z M438.8,499.4c0,0.7-0.6,1.3-1.3,1.3c0,0,0,0,0,0h-50.2c-0.7,0-1.3-0.6-1.4-1.3v-17.1c0-0.7,0.6-1.3,1.4-1.3h50.2
		c0.7,0,1.3,0.6,1.3,1.3V499.4z M438.8,455.1c0,0.7-0.6,1.3-1.3,1.3c0,0,0,0,0,0h-50.2c-0.7,0-1.4-0.6-1.4-1.3V438
		c0-0.7,0.6-1.3,1.4-1.3h50.2c0.7,0,1.3,0.6,1.3,1.3c0,0,0,0,0,0V455.1z M438.8,410.8c0,0.7-0.6,1.4-1.3,1.4h-50.2
		c-0.7,0-1.3-0.6-1.4-1.4v-17.1c0-0.7,0.6-1.3,1.4-1.4h50.2c0.7,0,1.3,0.6,1.3,1.4V410.8z M438.8,366.4c0,0.7-0.6,1.3-1.3,1.4
		c0,0,0,0,0,0h-50.2c-0.7,0-1.4-0.6-1.4-1.4l0,0v-17.1c0-0.7,0.6-1.4,1.4-1.4l0,0h50.2c0.7,0,1.3,0.6,1.3,1.3c0,0,0,0,0,0V366.4z
		 M438.8,322.1c0,0.7-0.6,1.4-1.3,1.4h-50.2c-0.7,0-1.3-0.6-1.4-1.4V305c0-0.7,0.6-1.3,1.4-1.3h50.2c0.7,0,1.3,0.6,1.3,1.3
		c0,0,0,0,0,0V322.1z M438.8,277.8c0,0.7-0.6,1.3-1.3,1.3c0,0,0,0,0,0h-50.2c-0.7,0-1.3-0.6-1.4-1.3v-17.1c0-0.7,0.6-1.3,1.4-1.4
		h50.2c0.7,0,1.3,0.6,1.3,1.4V277.8z M438.8,233.4c0,0.7-0.6,1.3-1.3,1.4c0,0,0,0,0,0h-50.2c-0.7,0-1.4-0.6-1.4-1.4l0,0v-17.1
		c0-0.7,0.6-1.4,1.4-1.4l0,0h50.2c0.7,0,1.3,0.6,1.3,1.3c0,0,0,0,0,0V233.4z M520.2,499.4c0,0.7-0.6,1.3-1.3,1.3c0,0,0,0,0,0h-50.2
		c-0.7,0-1.3-0.6-1.3-1.3v-17.1c0-0.7,0.6-1.3,1.3-1.3h50.2c0.7,0,1.3,0.6,1.3,1.3L520.2,499.4z M520.2,455.1c0,0.7-0.6,1.3-1.3,1.3
		c0,0,0,0,0,0h-50.2c-0.7,0-1.3-0.6-1.3-1.3V438c0-0.7,0.6-1.3,1.3-1.3h50.2c0.7,0,1.3,0.6,1.3,1.3c0,0,0,0,0,0L520.2,455.1z
		 M520.2,410.8c0,0.7-0.6,1.4-1.3,1.4h-50.2c-0.7,0-1.3-0.6-1.3-1.4v-17.1c0-0.7,0.6-1.3,1.3-1.4h50.2c0.7,0,1.3,0.6,1.3,1.4
		L520.2,410.8z M520.2,366.4c0,0.7-0.6,1.3-1.3,1.4c0,0,0,0,0,0h-50.2c-0.7,0-1.3-0.6-1.3-1.4v-17.1c0-0.7,0.6-1.4,1.3-1.4h50.2
		c0.7,0,1.3,0.6,1.3,1.3c0,0,0,0,0,0L520.2,366.4z M520.2,322.1c0,0.7-0.6,1.4-1.3,1.4h-50.2c-0.7,0-1.3-0.6-1.3-1.4V305
		c0-0.7,0.6-1.3,1.3-1.3h50.2c0.7,0,1.3,0.6,1.3,1.3c0,0,0,0,0,0L520.2,322.1z M520.2,277.8c0,0.7-0.6,1.3-1.3,1.3c0,0,0,0,0,0
		h-50.2c-0.7,0-1.3-0.6-1.3-1.3v-17.1c0-0.7,0.6-1.3,1.3-1.4h50.2c0.7,0,1.3,0.6,1.3,1.4L520.2,277.8z M520.2,233.4
		c0,0.7-0.6,1.3-1.3,1.4c0,0,0,0,0,0h-50.2c-0.7,0-1.3-0.6-1.3-1.4v-17.1c0-0.7,0.6-1.4,1.3-1.4h50.2c0.7,0,1.3,0.6,1.3,1.3
		c0,0,0,0,0,0L520.2,233.4z M639.3,499.4c0,0.7-0.6,1.3-1.3,1.3h-50.2c-0.7,0-1.3-0.6-1.3-1.3c0,0,0,0,0,0v-17.1
		c0-0.7,0.6-1.3,1.3-1.3h50.2c0.7,0,1.3,0.6,1.3,1.3V499.4z M639.3,455.1c0,0.7-0.6,1.3-1.3,1.3h-50.2c-0.7,0-1.3-0.6-1.3-1.3
		c0,0,0,0,0,0V438c0-0.7,0.6-1.3,1.3-1.3c0,0,0,0,0,0h50.2c0.7,0,1.3,0.6,1.3,1.3V455.1z M639.3,410.8c0,0.7-0.6,1.3-1.3,1.4h-50.2
		c-0.7,0-1.3-0.6-1.3-1.4v-17.1c0-0.7,0.6-1.4,1.3-1.4h50.2c0.7,0,1.3,0.6,1.3,1.4V410.8z M639.3,366.4c0,0.7-0.6,1.4-1.3,1.4h-50.2
		c-0.7,0-1.3-0.6-1.3-1.3v-17.1c0-0.7,0.6-1.3,1.3-1.4c0,0,0,0,0,0H638c0.7,0,1.3,0.6,1.3,1.4L639.3,366.4z M639.3,322.1
		c0,0.7-0.6,1.3-1.3,1.4h-50.2c-0.7,0-1.3-0.6-1.3-1.4V305c0-0.7,0.6-1.3,1.3-1.3c0,0,0,0,0,0h50.2c0.7,0,1.3,0.6,1.3,1.3V322.1z
		 M639.3,277.8c0,0.7-0.6,1.3-1.3,1.3h-50.2c-0.7,0-1.3-0.6-1.3-1.3c0,0,0,0,0,0v-17.1c0-0.7,0.6-1.4,1.3-1.4h50.2
		c0.7,0,1.3,0.6,1.3,1.4V277.8z M639.3,233.4c0,0.7-0.6,1.4-1.3,1.4h-50.2c-0.7,0-1.3-0.6-1.3-1.3v-17.1c0-0.7,0.6-1.3,1.3-1.4
		c0,0,0,0,0,0H638c0.7,0,1.3,0.6,1.3,1.4L639.3,233.4z"/>
	<path class="st0" d="M267.1,44.2l-15.5,9.8l9.4-17.1c-2.7-2.1-6-3.3-9.4-3.4h-0.2c-1.1,0-2.2-0.1-3.2-0.2l-5.3,3.3l2.2-4.1
		c-3.7-1.3-7-3.8-9.2-7l-9.4,6l5.9-10.8c-5.5-6.6-12.9-10.7-21.1-10.7c-9.8,0-18.5,5.8-24.1,14.9c-3.4,5.5-9.5,8.8-16,8.6h-0.5
		c-10.8,0-19.6,12.3-19.6,27.4s8.8,27.4,19.6,27.4c2.4,0,4.7-0.6,6.8-1.7c7.4-3.6,16.1-3.8,23.7-0.5c6.4,2.9,13.7,2.9,20.1,0
		c7.5-3.3,16.1-3.1,23.5,0.5c2.1,1.1,4.4,1.7,6.7,1.7c10.8,0,19.6-12.3,19.6-27.4C271.3,55.1,269.9,49.4,267.1,44.2z"/>
	<path class="st1" d="M237.9,84.3c-5.6-1.1-11.5-0.4-16.8,1.8c-6.4,2.9-13.7,2.9-20.1,0c-7.6-3.3-16.2-3.2-23.7,0.5
		c-2.1,1.1-4.4,1.7-6.8,1.7c-9.6,0-17.6-9.7-19.2-22.4c1.9-1.4,3.5-3.2,4.8-5.2c5.6-9.1,14.4-14.9,24.1-14.9s18.4,5.8,24,14.7
		c3.4,5.5,9.5,8.8,16,8.8h0.2C228.1,69.2,234.7,75.3,237.9,84.3z"/>
	<path class="st0" d="M814.1,17l-7.8,4.9l4.7-8.6c-1.3-1.1-3-1.6-4.7-1.7h-0.1c-0.5,0-1.1,0-1.6-0.1l-2.6,1.7l1.1-2
		c-1.9-0.7-3.5-1.9-4.6-3.5l-4.7,3l3-5.4c-2.5-3.3-6.4-5.3-10.5-5.4c-4.9,0-9.2,2.9-12,7.4c-1.7,2.8-4.8,4.4-8,4.3h-0.3
		c-5.4,0-9.8,6.1-9.8,13.7s4.4,13.6,9.8,13.6c1.2,0,2.4-0.3,3.4-0.9c3.7-1.8,8-1.9,11.8-0.2c3.2,1.4,6.9,1.4,10,0
		c3.8-1.6,8-1.5,11.7,0.2c1,0.5,2.2,0.8,3.4,0.8c5.4,0,9.8-6.1,9.8-13.7C816.2,22.4,815.5,19.6,814.1,17z"/>
	<path class="st1" d="M799.5,37c-2.8-0.5-5.7-0.2-8.4,0.9c-1.6,0.7-3.3,1.1-5,1.1c-1.7,0-3.4-0.4-5-1.1c-3.8-1.7-8.1-1.6-11.8,0.2
		c-1,0.6-2.2,0.8-3.4,0.9c-4.8,0-8.8-4.8-9.6-11.2c1-0.7,1.8-1.6,2.4-2.6c2.8-4.5,7.2-7.4,12-7.4s9.2,2.9,12,7.3
		c1.7,2.8,4.7,4.4,8,4.4h0.1C794.6,29.5,797.9,32.5,799.5,37z"/>
	<path class="st0" d="M619.8,107l-9.1,5.8l5.5-10c-1.6-1.3-3.5-2-5.5-2h-0.2c-0.6,0-1.3,0-1.9-0.1l-3.1,2l1.3-2.4
		c-2.2-0.8-4.1-2.2-5.4-4.1l-5.5,3.5l3.5-6.3c-3-3.8-7.5-6.1-12.4-6.3c-5.7,0-10.9,3.4-14.2,8.7c-2,3.2-5.6,5.1-9.4,5h-0.3
		c-6.3,0-11.5,7.2-11.5,16s5.1,16,11.5,16c1.4,0,2.8-0.3,4-1c4.4-2.1,9.4-2.2,13.9-0.3c3.8,1.7,8.1,1.7,11.8,0
		c4.4-1.9,9.4-1.8,13.8,0.3c1.2,0.6,2.6,1,4,1c6.3,0,11.5-7.2,11.5-16C622.3,113.3,621.4,110,619.8,107z"/>
	<path class="st1" d="M602.7,130.4c-3.3-0.6-6.7-0.3-9.8,1.1c-3.8,1.7-8.1,1.7-11.8,0c-4.4-2-9.5-1.9-13.9,0.3c-1.2,0.7-2.6,1-4,1
		c-5.6,0-10.3-5.7-11.3-13.1c1.1-0.8,2.1-1.8,2.8-3c3.3-5.3,8.4-8.7,14.2-8.7s10.8,3.4,14.1,8.6c2,3.2,5.5,5.2,9.3,5.1h0.1
		C596.9,121.6,600.8,125.2,602.7,130.4z"/>
	<path class="st2" d="M947.2,569.2c0,1.7,0,3.4-0.1,5.1c-0.3,6.6-1.1,13.2-2.4,19.7c-6.6,32.1-25.5,57.1-49.4,64.4
		c-4.7,1.5-9.7,2.2-14.6,2.2c-36.7,0-66.5-41-66.5-91.5s29.8-91.5,66.5-91.5c34.5,0,62.8,36.1,66.2,82.2
		C947.1,563,947.2,566.1,947.2,569.2z"/>
	<path class="st3" d="M947.1,574.3c-0.3,6.6-1.1,13.2-2.4,19.7c-6.6,32.1-25.5,57.1-49.4,64.4c-18.5-8.5-32.1-40.3-32.1-78.3
		c0-44.5,18.8-80.5,42-80.5c19.5,0,35.8,25.4,40.6,59.9C946.5,564.3,946.9,569.3,947.1,574.3z"/>
	<path class="st4" d="M613.2,366.7c0,0,180-37,275-3c0,0,14,7,0,19c0,0,13.2,14-9.9,19l-91.8,5.6l-173.3-17.6V366.7z"/>
	<path class="st3" d="M644.8,371.3c0,0,154.1-31.7,235.5-2.6c0,0,12,6,0,16.3c0,0,11.3,12-8.5,16.3l-78.6,4.8l-148.3-15.1V371.3z"/>
	<path class="st5" d="M820.2,426.7l-12-24c0,0,5.3-24.3-37.5-31.4c-2.4-10.6-13.1-18.6-26-18.6c-12.6,0-23.1,7.6-25.8,17.8
		c-6.1,0.5-12.7,1.2-19.7,2.2l-9.8,52.4l-1.2-2.4c0,0,6.2-28.7-49.8-32.9c3.1-3.7,4.7-8.3,4.8-13.1c0-12.7-11.9-23-26.5-23
		s-26.5,10.3-26.5,23c0,5.2,2,10.2,5.6,14.1c-5.2,0.5-10.8,1.1-16.6,1.9l-11,59l51,7l81-12l-7.2-14.3l46.2,6.3L820.2,426.7z"/>
	<path class="st6" d="M820.2,426.7l-12-24c0,0,5.3-24.3-37.5-31.4c-2.4-10.6-13.1-18.6-26-18.6c-12.6,0-23.1,7.6-25.8,17.8
		c-6.1,0.5-12.7,1.2-19.7,2.2l-9.8,52.4l-1.2-2.4c0,0,6.2-28.7-49.8-32.9c3.1-3.7,4.7-8.3,4.8-13.1c0-12.7-11.9-23-26.5-23
		s-26.5,10.3-26.5,23c0,5.2,2,10.2,5.6,14.1c-5.2,0.5-10.8,1.1-16.6,1.9l-11,59l51,7l81-12l-7.2-14.3l46.2,6.3L820.2,426.7z"/>
	<path class="st5" d="M648.2,373.6c0,0-8-44.9,29-45.9s25,65,25,65s28,6,30,17c2,11-97,14-97,14L648.2,373.6z"/>
	<path class="st2" d="M583.2,610.7c0,53-39.4,96-88,96s-88-43-88-96s39.9-104.5,88.5-104.5S583.2,557.7,583.2,610.7z"/>
	<ellipse class="st3" cx="495.2" cy="614.7" rx="70" ry="81"/>
	<ellipse class="st2" cx="108.2" cy="601.7" rx="88" ry="96"/>
	<path class="st2" d="M258.2,372.7c0,0-41,2-39,24c2,22,35,6,35,6L258.2,372.7z"/>
	<path class="st4" d="M599.4,409.3l16.9-112.6c0,0,4-14-50-14c0,0-173-11-217,7c0,0-51,19-122,117
		C227.2,406.7,592.4,415.3,599.4,409.3z"/>
	<path class="st2" d="M593.2,291.7l-31,123l-19.4-0.5l-92-2.2l-205.2-5c-0.6-9.7,96.6-110.3,96.6-110.3L593.2,291.7z"/>
	<path class="st7" d="M450.8,412l8.4-32.4c0,0-8-44.9,29-45.9s25,65,25,65s25.5,5.5,29.6,15.5L450.8,412z"/>
	<path class="st4" d="M947.8,562.2c-6-58-43.5-70.5-43.5-70.5c-36-2-60,135-60,135l-277,25c0,0,9.5-116.5-57.5-135.5
		s-84.5,117.5-87.5,136.5s-404-2-415-10s-7-85-4-91s11-33,11-33c0-6.4,3.1-14.6,5.6-20.2c1.8-4,3.4-6.8,3.4-6.8
		c8.7-49.3,53.8-61.2,56.8-62h0.2c12-12,123-20,123-20l42-8l341.5,6.7l14.5,0.3l173.6-8.3l117.4-5.6c27,0,41,68,41,68
		C958.2,522.7,947.8,562.2,947.8,562.2z"/>
	
		<ellipse transform="matrix(-0.3733 -0.9277 0.9277 -0.3733 72.7397 995.9501)" class="st3" cx="372.8" cy="473.4" rx="32.2" ry="51.5"/>
	
		<ellipse transform="matrix(-0.3733 -0.9277 0.9277 -0.3733 73.7097 988.5969)" class="st0" cx="370.8" cy="469.4" rx="32.2" ry="51.5"/>
	<path class="st3" d="M82.1,431.7c-0.5,11-5.4,24.9-14.3,38.2c-14.3,21.5-33.8,34.2-45.9,30.5c1.8-4,3.4-6.8,3.4-6.8
		C33.9,444.4,79.1,432.5,82.1,431.7z"/>
	<path class="st0" d="M79.1,429.7c-0.5,11-5.4,24.9-14.3,38.2c-14.3,21.5-33.8,34.2-45.9,30.5c1.8-4,3.4-6.8,3.4-6.8
		C30.9,442.4,76.1,430.5,79.1,429.7z"/>
	<polygon class="st2" points="219.2,459.7 140.2,459.7 136.2,448.7 232.2,448.7 	"/>
	<rect x="71.2" y="540.7" class="st2" width="130" height="38"/>
	<circle class="st3" cx="341.2" cy="597.7" r="18"/>
	<circle class="st0" cx="339.2" cy="594.7" r="18"/>
	<ellipse class="st3" cx="14.2" cy="583.7" rx="9" ry="19"/>
	<ellipse class="st0" cx="11.2" cy="582.7" rx="9" ry="19"/>
	<path class="st2" d="M804.2,502.7c-11,34-12,87-12,87l-4,14l-195,22c0,0,1-98,4-144c2.1-32.5-5.7-59.9-10.5-73.3l14.5,0.3
		l173.6-8.3C803.8,420.7,814.1,472.2,804.2,502.7z"/>
	<path class="st0" d="M759.8,441.4c-2.7,0.2-4.8,2.5-4.6,5.2c0,0.2,0,0.3,0.1,0.5c0.2,1.1,0.9,2.1,2,2.6c3.2,1.6,24.7-2,32.9-3.4
		c2.5-0.4,4.4-2.4,4.6-4.9c0.1-1.4-0.4-2.6-2.5-2.6L759.8,441.4z"/>
	<path class="st2" d="M586.2,404.7c0,0,5,22,29,15l8-31l-16-9L586.2,404.7z"/>
	<path class="st2" d="M615.6,360c11-6.5,28.5-12.2,45.7,1.5c7.4,5.8,9.8,16,5.9,24.5c-5.7,12.2-19.1,25.5-50.4,9.6
		c-3.1-1.6-5.7-3.9-7.6-6.7l-0.2-0.2c-6.2-9.4-3.6-21.9,5.7-28.1C615.1,360.4,615.4,360.2,615.6,360z"/>
	<circle class="st0" cx="495.8" cy="610.2" r="20"/>
	<ellipse class="st0" cx="908.8" cy="574.2" rx="11" ry="20"/>
	<path class="st2" d="M494.2,548.7h2c6.6,0,12,5.4,12,12v11c0,6.6-5.4,12-12,12h-2c-6.6,0-12-5.4-12-12v-11
		C482.2,554.1,487.6,548.7,494.2,548.7z"/>
	<path class="st2" d="M908.8,510.2L908.8,510.2c3.9,0,7,3.1,7,7v16c0,6.6-5.4,12-12,12l0,0c-3.9,0-7-3.1-7-7v-16
		C896.8,515.6,902.1,510.2,908.8,510.2z"/>
	<path class="st2" d="M908.8,638.2L908.8,638.2c-6.6,0-12-5.4-12-12v-11c0-6.6,5.4-12,12-12l0,0c6.6,0,6,5.4,6,12v11
		C914.7,632.8,915.4,638.2,908.8,638.2z"/>
	<path class="st2" d="M878.8,556.2L878.8,556.2c6.6,0,12,5.4,12,12v15c0,4.4-3.6,8-8,8l0,0c-6.6,0-12-5.4-12-12v-15
		C870.8,559.8,874.3,556.2,878.8,556.2z"/>
	<path class="st2" d="M947.2,569.2c0,1.7,0,3.4-0.1,5.1c-0.3,6.6-1.1,13.2-2.4,19.7c-0.7,0.1-1.3,0.2-2,0.2c-6.6,0-12-5.4-12-12v-11
		c0-6.6,5.4-12,12-12c1,0,2.1,0.1,3.1,0.4c0.4,0.1,0.7,0.2,1.1,0.3C947.1,563,947.2,566.1,947.2,569.2z"/>
	<path class="st2" d="M544.8,591.2h2c6.6,0,12,5.4,12,12v11c0,6.6-5.4,12-12,12h-2c-6.6,0-12-5.4-12-12v-11
		C532.8,596.6,538.1,591.2,544.8,591.2z"/>
	<path class="st2" d="M446.8,591.2h2c6.6,0,12,5.4,12,12v11c0,6.6-5.4,12-12,12h-2c-6.6,0-12-5.4-12-12v-11
		C434.8,596.6,440.1,591.2,446.8,591.2z"/>
	<path class="st2" d="M494.8,643.2h2c6.6,0,12,5.4,12,12v11c0,6.6-5.4,12-12,12h-2c-6.6,0-12-5.4-12-12v-11
		C482.8,648.6,488.1,643.2,494.8,643.2z"/>
	<path class="st3" d="M797.3,270.9c-1-6.8-1.6-13.7-1.8-20.6c0,8.1,0.5,16.1,1.8,24.1c0,0,10.1,6.5,17.8,2.4c0,0-0.1-1.3-0.3-3.4
		C807.1,277.3,797.3,270.9,797.3,270.9z"/>
	<path class="st3" d="M863.1,269.1c-3.3,6.1-13.8,3.4-15.2,3c-0.1,2.2-0.2,3.5-0.2,3.5s11.9,3.6,15.4-3c0.7-1.4,1.1-5.1,1-10.2
		C864,265.8,863.6,268.1,863.1,269.1z"/>
	<path class="st8" d="M984.7,652.9c2.7-5.1-0.4-11.3-3.9-15.8s-7.9-9.2-7.8-15c0.1-8.3,8.9-13.2,16-17.6c5.2-3.3,10-7.1,14.3-11.5
		c1.8-1.7,3.3-3.7,4.4-5.9c1.4-3.2,1.4-6.9,1.3-10.5c-0.3-11.8-0.9-23.6-1.8-35.4"/>
	<path class="st5" d="M1020.5,540.6c-0.2-4.4-2.6-8.4-6.4-10.6l-2.9,5.7l0.1-6.9c-1.4-0.4-2.8-0.6-4.3-0.5
		c-7.1,0.3-12.6,6.4-12.3,13.5s6.4,12.6,13.5,12.3C1015.3,553.7,1020.8,547.7,1020.5,540.6L1020.5,540.6z"/>
	<path class="st5" d="M997.4,628c-3.3,6.3-11.1,8.8-17.4,5.6c-4.1-2.1-6.8-6.3-7-10.9c-0.1-1.8,0.2-3.6,0.8-5.2
		c2.6-6.7,10.1-10,16.7-7.4c3.5,1.3,6.2,4.1,7.5,7.5l-8.1,6.6l8.9-2.1C998.9,624.2,998.4,626.2,997.4,628z"/>
	<path class="st5" d="M991.1,602.9c-7.1,0.3-13.2-5.2-13.5-12.3c0,0,0,0,0,0c-0.1-2,0.3-4,1.1-5.9c1.6-3.5,4.6-6.1,8.3-7.2l-0.1,5.3
		l2.9-5.8l0,0c7.1-0.3,13.2,5.2,13.5,12.3c0.1,1.5-0.1,3-0.6,4.4C1001.2,599,996.5,602.7,991.1,602.9z"/>
	<path class="st5" d="M1022.4,582c-7.1,0.3-13.2-5.2-13.5-12.3c0,0,0,0,0,0c-0.1-2.1,0.3-4.2,1.2-6.1c3-6.4,10.7-9.2,17.2-6.2
		c0.3,0.1,0.5,0.3,0.8,0.4l-2.3,6.2l4.7-4.5c2.5,2.3,4,5.5,4.2,8.9c0.1,1.2-0.1,2.4-0.3,3.6C1033.1,577.7,1028.2,581.8,1022.4,582z"
		/>
	<path class="st3" d="M1018.8,544c-3,0.3-5.9,1.2-8.9,1.4s-6.3-0.5-8.2-2.9c-0.9-1.4-1.7-2.8-2.4-4.2c-0.8-1.3-1.9-2.3-3.2-3.1
		c-1,2-1.5,4.2-1.4,6.5c0.3,7.1,6.4,12.6,13.5,12.3c5.9-0.3,10.8-4.5,12.1-10.2C1019.7,543.9,1019.2,543.9,1018.8,544z"/>
	<path class="st3" d="M1022.4,582c-7.1,0.3-13.2-5.2-13.5-12.3c0,0,0,0,0,0c-0.1-2.1,0.3-4.2,1.2-6.1c1,0.7,1.9,1.6,2.6,2.6
		c0.9,1.4,1.5,3,2.6,4.3c2,2.4,5.4,3.1,8.6,3s6.1-1,9.2-1.3c0.4,0,0.9-0.1,1.3-0.1C1033.1,577.7,1028.2,581.8,1022.4,582z"/>
	<path class="st3" d="M991.1,602.9c-7.1,0.3-13.2-5.2-13.5-12.3c0,0,0,0,0,0c-0.1-2,0.3-4,1.1-5.9c1,0.7,2,1.6,2.7,2.6
		c1,1.4,1.6,3,2.8,4.4c2.2,2.4,5.8,3.3,9.2,3.2s6.3-0.9,9.5-1.1C1001.2,599,996.5,602.7,991.1,602.9z"/>
	<path class="st3" d="M997.4,628c-3.3,6.3-11.1,8.8-17.4,5.6c-4.1-2.1-6.8-6.3-7-10.9c-0.1-1.8,0.2-3.6,0.8-5.2
		c1.1,0.7,2,1.6,2.8,2.5c1.2,1.5,2,3.2,3.5,4.6c2.6,2.6,6.9,3.7,10.7,3.8C993.1,628.4,995.3,628.2,997.4,628z"/>
	<path class="st9" d="M965.2,647c0,0,10.2-0.3,13.3-2.5s15.7-4.8,16.4-1.3s15.3,17.5,3.8,17.5s-26.8-1.8-29.8-3.7
		S965.2,647,965.2,647z"/>
	<path class="st6" d="M998.9,659.6c-11.5,0.1-26.8-1.8-29.8-3.7c-2.3-1.4-3.3-6.5-3.6-8.9h-0.3c0,0,0.6,8.2,3.7,10.1
		s18.3,3.8,29.8,3.7c3.3,0,4.5-1.2,4.4-3C1002.7,658.9,1001.4,659.6,998.9,659.6z"/>
</g>
<g id="A323">
	<path class="st10" d="M845,206c0,1.9-0.3,3.8-1,5.6c-3.1,8.6-12.6,13.1-21.2,10c-4.5-1.6-8.1-5.1-9.9-9.6c-0.8-1.9-1.1-3.9-1.1-6
		c0-9.2,7.4-16.6,16.6-16.6C837.5,189.4,845,196.9,845,206L845,206z"/>
	<path class="st10" d="M815.2,210.1c-4.4-8-1.6-18.1,6.5-22.6l0,0c1.9-1,3.9-1.7,6-2c-9.2-0.3-16.9,6.8-17.2,16
		c-0.3,9.2,6.8,16.9,16,17.2c0.9,0,1.7,0,2.6-0.1C823.2,218.4,818,215.2,815.2,210.1z"/>
	<rect x="807.7" y="229.1" class="st10" width="44.5" height="69.4"/>
	<rect x="808.7" y="227.1" class="st3" width="44.5" height="69.4"/>
	<path class="st11" d="M737.4,480.8c0,0-4.7,13-16,14.8s-17.8,4.7-17.8,4.7l26.7,17.2l14.2-1.8c0,0,1.8-18.4,7.7-22.5
		S737.4,480.8,737.4,480.8z"/>
	<path class="st11" d="M930.1,480.8c0,0,4.7,13,16,14.8s17.8,4.8,17.8,4.8l-26.7,17.2l-14.2-1.8c0,0-1.8-18.4-7.7-22.5
		S930.1,480.8,930.1,480.8z"/>
	<path class="st12" d="M800.2,365.8c0,0-7.1,3.6-9.5,10.7c0,0-13,4.1-20.2,15.4c0,0-8.9,9.5-10.1,14.2s-14.8,33.2-14.8,33.2
		s-13.6,44.5-20.8,49.2c0,0,22.5-4.8,26.7,17.8c0,0,5.3,0,11.3-20.8s20.1-46.2,20.1-46.2s4.8-17.8,8.9-20.8s10.7-16.6,16.6-13
		s45.1-0.6,45.1-0.6s23.1,10.7,23.7,17.8s4.8,7.7,5.3,13.6s22.5,52.8,22.5,52.8s4.2,13,5.3,16c0,0,13-31.4,30.2-13.6
		c0,0-0.6-11.9-5.9-19s-28.5-62.9-28.5-62.9s-2.4-8.3-4.7-10.7s-20.8-21.3-27.3-21.3c0,0-3.6-8.9-7.7-10.1L800.2,365.8z"/>
	<path class="st12" d="M746.9,511.6c-9.4,3.8-20.1,2.3-28.2-3.8c-3.9-3-8.1-5.4-12.6-7.3c-6.3-2.5-13.8-4.4-16.1-0.2
		c-4.2,7.7,50.4,26.7,50.4,26.7S747.5,522.9,746.9,511.6z"/>
	<path class="st12" d="M920.6,511.6c9.4,3.8,20.1,2.3,28.2-3.8c3.9-3,8.1-5.4,12.6-7.3c6.3-2.5,13.8-4.4,16.1-0.2
		c4.2,7.7-50.4,26.7-50.4,26.7S920,522.9,920.6,511.6z"/>
	<path class="st11" d="M819.6,268.3c-0.2,2.1-0.9,4.3-2.7,5.4c-1.4,0.9-3.3,0.8-4.9,1.2c-3.5,0.9-6.4,3.4-7.8,6.8
		c-1.3,3.4-1.6,7-0.7,10.5c0.4,1.7,0.9,3.4,1.5,5.1c1.8,4.9,3.8,9.8,7.1,13.9c2.8,3.2,5.9,6.2,9.3,8.8c2.1,1.7,4.3,3.5,6.9,4.3
		c1.8,0.5,3.6,0.7,5.4,0.7c2.2,0.1,4.6,0.2,6.6-0.9c3-1.7,3.9-5.6,5.5-8.6c1.4-2.6,3.5-4.8,4.7-7.5c0.9-2.1,1.6-4.3,2-6.5l2.8-12.3
		c1-4.5,1.9-9.5-0.6-13.3c-0.2-0.3-0.4-0.6-0.7-0.8c-0.5-0.2-1-0.2-1.5-0.2c-3.2,0.2-6.4-0.5-9.2-2.1c-0.4-0.2-0.8-0.5-1.2-0.9
		c-0.4-0.6-0.7-1.4-0.7-2.1c-0.3-1.5-0.7-3-1.3-4.5c-0.2-0.5-0.5-1-0.9-1.3c-0.4-0.3-0.9-0.4-1.4-0.5c-4.3-0.7-8.6-1.2-12.9-1.4
		c-1.4-0.1-3.6-0.6-4.5,0.6S819.8,266.8,819.6,268.3z"/>
	<path class="st3" d="M819.6,268.3c-0.2,2.1-0.9,4.3-2.7,5.4c-1.4,0.9-3.3,0.8-4.9,1.2c-3.5,0.9-6.4,3.4-7.8,6.8
		c-1.3,3.4-1.6,7-0.7,10.5c0.4,1.7,0.9,3.4,1.5,5.1c1.8,4.9,3.8,9.8,7.1,13.9c2.8,3.2,5.9,6.2,9.3,8.8c2.1,1.7,4.3,3.5,6.9,4.3
		c1.8,0.5,3.6,0.7,5.4,0.7c2.2,0.1,4.6,0.2,6.6-0.9c3-1.7,3.9-5.6,5.5-8.6c1.4-2.6,3.5-4.8,4.7-7.5c0.9-2.1,1.6-4.3,2-6.5l2.8-12.3
		c1-4.5,1.9-9.5-0.6-13.3c-0.2-0.3-0.4-0.6-0.7-0.8c-0.5-0.2-1-0.2-1.5-0.2c-3.2,0.2-6.4-0.5-9.2-2.1c-0.4-0.2-0.8-0.5-1.2-0.9
		c-0.4-0.6-0.7-1.4-0.7-2.1c-0.3-1.5-0.7-3-1.3-4.5c-0.2-0.5-0.5-1-0.9-1.3c-0.4-0.3-0.9-0.4-1.4-0.5c-4.3-0.7-8.6-1.2-12.9-1.4
		c-1.4-0.1-3.6-0.6-4.5,0.6S819.8,266.8,819.6,268.3z"/>
	<path class="st0" d="M811.6,275.3c-2.3-0.7-4.7-1.1-7.1-1.1c-5.7-0.1-11.8,1.8-15.1,6.5c-2.2,3.4-3.1,7.5-2.3,11.5
		c0.8,3.9,2.6,7.6,5.2,10.7c1.5,1.6,2.9,3.4,4,5.2c1.6,3,1.6,6.6,2,10c1,8.1,4.5,15.8,5.8,23.8s0.2,17.4-6.2,22.6
		c-1.1,0.9-2.4,1.8-2.5,3.1c-0.2,2.2,2.7,3.1,4.9,3.3c6.5,0.6,13.3,1.2,19.6-0.5c2.6-0.7,5.2-1.8,7.8-2.3c6.8-1.3,13.7,1.3,20.5,2.6
		c4.9,0.8,9.9,1.2,14.9,1.2c1.2,0.1,2.3-0.1,3.4-0.5c1.1-0.4,1.8-1.5,1.7-2.7c-0.2-0.8-0.6-1.4-1.2-2c-3.4-4.3-4.5-9.9-5.4-15.3
		l-3.1-18.1c-1.7-9.7-3.3-20.2,1.3-28.9c3.3-6.2,9.4-10.6,12.8-16.8c1.2-1.9,1.8-4.1,1.6-6.3c-0.5-3.1-3.3-5.3-6.2-6.6
		c-5.5-2.5-11.7-2.7-17.4-0.6c0.1,4.3-1,8.7-1.7,13l-1.2,7c-0.6,4.1-1.5,8.2-2.7,12.2c-0.4,1.6-1.2,3.1-2.2,4.4
		c-1.1,1.2-2.4,2.1-3.8,2.8c-3.2,1.5-6.6,2.3-10.2,2.3c-1.5,0-3-0.2-4.5-0.7c-2.4-0.9-4.3-2.6-6.2-4.4c-0.6-0.5-1.2-1.1-1.6-1.8
		c-0.5-0.8-0.9-1.7-1.1-2.7c-0.8-2.4-1.4-4.9-1.9-7.5c-0.3-1.9-0.4-3.9-0.5-5.9C812.8,287.3,812.8,280.9,811.6,275.3z"/>
	<path class="st11" d="M805.6,390.1c0,0-2.4,31.4,12.5,36.8s1.8-26.1,1.8-26.1l-4.7-9.5L805.6,390.1z"/>
	<path class="st11" d="M856,390.1c0,0,2.4,31.4-12.5,36.8s-1.8-26.1-1.8-26.1l4.7-9.5L856,390.1z"/>
	<path class="st3" d="M792.5,285.2l-4.7,7.7c0,0,4.2,26.7,4.7,31.4c0.5,3.4,1.3,6.8,2.4,10.1c0,0,0.6,14.2,0.6,19.6s3,14.2,3,14.2
		c0.4,5,1.4,10,3,14.8c2.4,6.5,4.8,14.2,4.8,14.2s3-8.3,14.8,4.1c2.7-2.8,2.7-7.3,0-10.1c0,0-3.6-16-3.6-24.3s-6.5-48-6.5-48
		S806.8,273.9,792.5,285.2z"/>
	<path class="st0" d="M791.4,284.6l-4.7,7.7c0,0,4.2,26.7,4.7,31.4c0.5,3.4,1.3,6.8,2.4,10.1c0,0,0.6,14.2,0.6,19.6s3,14.2,3,14.2
		c0.4,5,1.4,10,3,14.8c2.4,6.5,4.7,14.2,4.7,14.2s3-8.3,14.8,4.1c2.8-2.8,2.8-7.3,0-10.1c0,0-3.6-16-3.6-24.3s-6.5-48-6.5-48
		S805.6,273.3,791.4,284.6z"/>
	<path class="st3" d="M869.6,280.4l3,3.5c0,0,3.5,20.2-4.2,45.7l-2.4,23.1c0,0-4.2,19.6-4.8,24.3s-0.6,5.3-1.8,7.1
		c-0.8,0.9-0.8,2.1,0,3l-3.6,13c0,0-5.3-6.5-16,1.8c0,0-3-4.8-0.6-8.9s2.4-5.9,1.8-7.1s2.4-7.1,2.4-8.3s4.2-28.5,4.2-28.5
		s1.8-26.7,3.6-35.6c1.1-5.5,1.1-17.7,0.9-26.2c-0.2-8.9,10.6-13.8,17-7.5C869.3,280,869.4,280.2,869.6,280.4z"/>
	<path class="st0" d="M871.4,279.2l3,3.5c0,0,3.5,20.2-4.2,45.7l-2.4,23.1c0,0-4.2,19.6-4.8,24.3s-0.6,5.3-1.8,7.1
		c-0.7,0.9-0.7,2.1,0,3l-3.5,13c0,0-5.3-6.5-16,1.8c0,0-3-4.7-0.6-8.9s2.4-5.9,1.8-7.1s2.4-7.1,2.4-8.3s4.2-28.5,4.2-28.5
		s1.8-26.7,3.5-35.6s0.6-35.6,0.6-35.6S863.1,270.3,871.4,279.2z"/>
	<circle class="st11" cx="831.7" cy="247.2" r="23.7"/>
	<path class="st3" d="M844,211.6c-3.1,8.6-12.6,13.1-21.2,10c-4.5-1.6-8.1-5.1-9.9-9.6c9.2-3.7,18.7-0.4,18.7-0.4
		C836.4,210,840.5,210.1,844,211.6z"/>
	<path class="st10" d="M831.7,212.8c0,0-45.7-16-34.4,61.7c0,0,10.1,6.5,17.8,2.4c0,0-5.3-54,15.4-51.6s17.2,50.4,17.2,50.4
		s11.9,3.6,15.4-3S861.9,202.1,831.7,212.8z"/>
	<path class="st3" d="M830.5,221.7c-14.2-1.6-16.2,23.3-16,39c0.2-15.7,2.8-37,16-35.5c14.8,1.7,17.2,26.6,17.4,40.8
		C848.1,253.1,846.6,223.6,830.5,221.7z"/>
</g>
</svg>
