<?xml version="1.0" encoding="utf-8"?>
<!-- Generator: Adobe Illustrator 19.0.0, SVG Export Plug-In . SVG Version: 6.00 Build 0)  -->
<svg version="1.1" id="图层_1" xmlns="http://www.w3.org/2000/svg" xmlns:xlink="http://www.w3.org/1999/xlink" x="0px" y="0px"
	 viewBox="0 0 1000 1000" style="enable-background:new 0 0 1000 1000;" xml:space="preserve">
<style type="text/css">
	.st0{opacity:0.1;fill:#6C63FF;enable-background:new    ;}
	.st1{fill:#6C63FF;}
	.st2{fill:none;stroke:#535461;stroke-miterlimit:10;}
	.st3{fill:none;stroke:#535461;stroke-width:2;stroke-miterlimit:10;}
	.st4{opacity:0.25;enable-background:new    ;}
	.st5{opacity:5.000000e-02;}
	.st6{fill:url(#SVGID_1_);}
	.st7{fill:url(#SVGID_2_);}
	.st8{fill:url(#SVGID_3_);}
	.st9{fill:url(#SVGID_4_);}
	.st10{fill:url(#SVGID_5_);}
	.st11{fill:#EF91A3;}
	.st12{opacity:0.1;enable-background:new    ;}
	.st13{fill:#5D526E;}
	.st14{fill:#DFECFB;}
	.st15{fill:#572142;}
	.st16{fill:#FFC1CD;}
	.st17{fill:#5F5470;}
	.st18{opacity:5.000000e-02;enable-background:new    ;}
	.st19{fill:#FF808C;}
	.st20{fill:#B46D86;}
</style>
<path id="_x23_background" class="st0" d="M169.5,353.6c-0.9-32.3,4.3-70.2,29.1-85.5c12.3-7.6,27-7.7,40.3-12.6
	c29.8-11.1,48.4-44,66.4-73.4s41.7-59.9,73-61.7c43.1-2.4,72.5,49.4,112.2,68.7c75.4,36.6,163.8-50.9,240.3-17.3
	c11.1,4.9,21.7,12.6,27.9,24.2c6.1,11.4,7.5,25.5,13.5,37c18.9,36.4,69.6,28.2,96.5,57.3c9.3,10,14.8,23.5,20.2,36.8l18.7,46
	c3.5,8.6,7.1,17.5,7.5,27.1c0.7,16.7-8.4,32.7-6.7,49.3c2.5,26,28.8,40.2,37.1,64.5c3.9,11.5,3.5,24.2,2.6,36.5
	c-2,25.6-5.9,50.9-11.9,75.9c-6.1,25.2-15.2,51.3-33.8,66.4c-13.1,10.6-29.5,14.5-45.3,17.7c-90.6,18.4-182.6,24.5-274.5,29.3
	c-80.2,4.2-162.2,7.1-239-19.7c-34.4-12-69-31.5-88.9-65.8c-13.6-23.6-16.2-49.2-22.3-75.7c-4.7-20.5-18.8-36.4-26.7-55.6
	C183.4,469.1,171.2,411.8,169.5,353.6z"/>
<g id="_x23_wild_x28_have_x5B_plant_x2C_beach_x2C_sun_x5D__x29_">
	<path class="st1" d="M155.5,599c33.1-2.6,66.4,0.6,98.4,9.5c12.3,3.4,24.7,7.8,37.5,7.4c15.7-0.5,30.2-7.9,44.7-14
		c22.8-9.6,47.5-16.4,72.2-14.2c45.4,4.1,85.3,37.9,130.9,36.4c39-1.3,74.1-28.7,113.1-27.9c26.5,0.5,51.1,14.1,77.3,17.6
		c33.7,4.5,67.4-7.9,101.3-9.4c29.5-1.3,58.7,5.6,84.5,19.8c18.7,10.3,37.1,30.5,29.8,50.6c-2.2,6.1-6.8,11.6-7.1,18.1
		c-0.6,14.5,18.1,20.6,27.4,31.7c11.5,13.6,6.8,36.1-6.7,47.8c-13.5,11.7-33,14.1-50.6,11.2s-34-10.5-50.7-16.8
		c-31.7-12.1-64.8-20-98.6-23.4c-23.3-2.4-47.1-2.7-70.1,1.7c-17.2,3.3-33.9,9.1-51.2,12.3c-86.2,15.9-171.3-34.4-258.9-34
		c-24.6,0.1-49,4.2-73.4,7.1c-75.8,9-152.4,6.5-228.7,4c-7.7-0.3-16.1-0.7-22-5.7c-11.1-9.3-6.8-27.2,0-39.9
		c11.2-20.7,26.4-38.6,37.8-59.1C105,607.5,131.8,600.9,155.5,599z"/>
	<path class="st1" d="M132.5,689.4c33.1-2.6,66.4,0.6,98.4,9.5c12.3,3.4,24.7,7.8,37.5,7.4c15.7-0.5,30.2-7.9,44.7-14
		c22.8-9.6,47.5-16.4,72.2-14.2c45.4,4.1,85.3,37.9,130.9,36.4c39-1.3,74.1-28.7,113.1-27.9c26.5,0.5,51.1,14.1,77.3,17.6
		c33.7,4.5,67.4-7.9,101.3-9.4c29.5-1.3,58.7,5.6,84.5,19.8c18.7,10.3,37.1,30.5,29.8,50.6c-2.2,6.1-6.8,11.6-7.1,18.1
		c-0.6,14.5,18.1,20.6,27.4,31.7c11.5,13.6,6.8,36.1-6.7,47.8c-13.5,11.7-33,14.1-50.6,11.2s-34-10.5-50.7-16.8
		c-31.7-12.1-64.8-20-98.6-23.4c-23.3-2.4-47.1-2.7-70.1,1.7c-17.2,3.3-33.9,9.1-51.2,12.3c-86.2,15.9-171.3-34.4-258.9-34
		c-24.6,0.1-49,4.2-73.4,7.1c-75.8,9-152.4,6.5-228.7,4c-7.7-0.3-16.1-0.7-22-5.7c-11.1-9.3-6.8-27.2,0-39.9
		c11.2-20.7,26.4-38.6,37.8-59.1C81.9,697.9,108.8,691.3,132.5,689.4z"/>
	<circle class="st0" cx="698.1" cy="261.1" r="58.8"/>
	<path class="st1" d="M721,526.8c0,0-57.7,34.8,48.6,88.4c0,0,23.4-43.5-2.5-78.9c-10.4-14.3-29.8-18.6-45.3-9.9L721,526.8z"/>
	<path class="st2" d="M721.6,526.1c0,0,49.4,37.8,48,89.1"/>
	<path class="st3" d="M766.4,614.9c0,0-18.1-61.4,3.4-106.5c9.1-18.9,11.9-40.2,7.8-60.8c-2-9.8-4.9-19.3-8.6-28.5"/>
	<path class="st1" d="M782.4,390.6c0,7.5-13.6,29.3-13.6,29.3s-13.6-21.8-13.6-29.3c-0.5-7.5,5.2-14,12.7-14.5s14,5.2,14.5,12.7
		C782.3,389.4,782.3,390,782.4,390.6L782.4,390.6z"/>
	<path class="st1" d="M804.9,432.2c-4.1,6.3-27.4,17.2-27.4,17.2s0.4-25.7,4.5-32c4.5-6,13-7.3,19.1-2.8
		C806.6,418.7,808.2,426.2,804.9,432.2L804.9,432.2z"/>
	<path class="st1" d="M803.9,503.4c-6.7,3.4-32.3,1-32.3,1s13.3-22,20-25.4c6.9-2.9,14.9,0.3,17.9,7.2
		C812.2,492.6,809.8,499.9,803.9,503.4z"/>
	<path class="st1" d="M791,557.1c-6,4.5-31.7,6.5-31.7,6.5s9.4-23.9,15.5-28.4c6.3-4.1,14.8-2.3,18.9,4
		C797.4,545,796.3,552.6,791,557.1L791,557.1z"/>
	<path class="st1" d="M748.9,450.9c5.4,5.2,30.5,10.7,30.5,10.7s-6.2-25-11.5-30.2c-5-5.6-13.7-6-19.3-1c-5.6,5-6,13.7-1,19.3
		C748,450.1,748.5,450.5,748.9,450.9z"/>
	<path class="st1" d="M734.7,513.9c6.7,3.4,32.3,1,32.3,1s-13.3-22-20.1-25.4c-6.5-3.8-14.9-1.7-18.7,4.8
		c-3.8,6.5-1.7,14.9,4.8,18.7C733.6,513.4,734.1,513.6,734.7,513.9L734.7,513.9z"/>
	<path class="st1" d="M729.2,577c6,4.5,31.7,6.5,31.7,6.5s-9.4-23.9-15.5-28.4c-5.8-4.9-14.4-4.1-19.2,1.6
		c-4.9,5.8-4.1,14.4,1.6,19.2C728.3,576.3,728.7,576.6,729.2,577L729.2,577z"/>
	<path class="st4" d="M782.4,390.6c0,7.5-13.6,29.3-13.6,29.3s-13.6-21.8-13.6-29.3c-0.5-7.5,5.2-14,12.7-14.5s14,5.2,14.5,12.7
		C782.3,389.4,782.3,390,782.4,390.6L782.4,390.6z"/>
	<path class="st4" d="M804.9,432.2c-4.1,6.3-27.4,17.2-27.4,17.2s0.4-25.7,4.5-32c4.5-6,13-7.3,19.1-2.8
		C806.6,418.7,808.2,426.2,804.9,432.2L804.9,432.2z"/>
	<path class="st4" d="M803.9,503.4c-6.7,3.4-32.3,1-32.3,1s13.3-22,20-25.4c6.9-2.9,14.9,0.3,17.9,7.2
		C812.2,492.6,809.8,499.9,803.9,503.4z"/>
	<path class="st4" d="M791,557.1c-6,4.5-31.7,6.5-31.7,6.5s9.4-23.9,15.5-28.4c6.3-4.1,14.8-2.3,18.9,4
		C797.4,545,796.3,552.6,791,557.1L791,557.1z"/>
	<path class="st4" d="M748.9,450.9c5.4,5.2,30.5,10.7,30.5,10.7s-6.2-25-11.5-30.2c-5-5.6-13.7-6-19.3-1c-5.6,5-6,13.7-1,19.3
		C748,450.1,748.5,450.5,748.9,450.9z"/>
	<path class="st4" d="M734.7,513.9c6.7,3.4,32.3,1,32.3,1s-13.3-22-20.1-25.4c-6.5-3.8-14.9-1.7-18.7,4.8
		c-3.8,6.5-1.7,14.9,4.8,18.7C733.6,513.4,734.1,513.6,734.7,513.9L734.7,513.9z"/>
	<path class="st4" d="M729.2,577c6,4.5,31.7,6.5,31.7,6.5s-9.4-23.9-15.5-28.4c-5.8-4.9-14.4-4.1-19.2,1.6
		c-4.9,5.8-4.1,14.4,1.6,19.2C728.3,576.3,728.7,576.6,729.2,577L729.2,577z"/>
	<path class="st3" d="M818.4,635.7c0,0-18.1-61.4,3.4-106.5c9.1-18.9,11.9-40.2,7.8-60.8c-2-9.8-4.9-19.3-8.6-28.5"/>
	<path class="st1" d="M834.4,411.3c0,7.5-13.6,29.3-13.6,29.3s-13.6-21.8-13.6-29.3c0.5-7.5,7-13.2,14.5-12.7
		C828.5,399.1,833.9,404.5,834.4,411.3L834.4,411.3z"/>
	<path class="st1" d="M856.9,453c-4.1,6.3-27.4,17.2-27.4,17.2s0.4-25.7,4.5-32c3.7-6.6,12-8.9,18.6-5.3c6.6,3.7,8.9,12,5.3,18.6
		C857.6,452,857.3,452.5,856.9,453L856.9,453z"/>
	<path class="st1" d="M855.9,524.2c-6.7,3.4-32.3,1-32.3,1s13.3-22,20.1-25.4c6.5-3.8,14.9-1.7,18.7,4.8c3.8,6.5,1.7,14.9-4.8,18.7
		C857.1,523.6,856.5,523.9,855.9,524.2z"/>
	<path class="st1" d="M843.1,577.9c-6,4.5-31.7,6.5-31.7,6.5s9.4-23.9,15.5-28.4c6.3-4.1,14.8-2.3,18.9,4
		C849.5,565.8,848.3,573.4,843.1,577.9L843.1,577.9z"/>
	<path class="st1" d="M801,471.7c5.4,5.2,30.5,10.7,30.5,10.7s-6.2-25-11.5-30.2c-5-5.6-13.7-6-19.3-1c-5.6,5-6,13.7-1,19.3
		C800.1,470.8,800.5,471.3,801,471.7z"/>
	<path class="st1" d="M786.7,534.6c6.7,3.4,32.3,1,32.3,1s-13.3-22-20.1-25.4c-6.9-2.9-14.9,0.3-17.9,7.2
		C778.4,523.8,780.8,531.2,786.7,534.6L786.7,534.6z"/>
	<path class="st1" d="M781.3,597.7c6,4.5,31.7,6.5,31.7,6.5s-9.4-23.9-15.5-28.4c-5.8-4.9-14.4-4.1-19.2,1.6
		c-4.9,5.8-4.1,14.4,1.6,19.2C780.3,597.1,780.8,597.4,781.3,597.7L781.3,597.7z"/>
	<path class="st0" d="M458.4,230.9h-5c1.9,0,3.5-1.6,3.5-3.5c0-1.9-1.6-3.5-3.5-3.5c0,0,0,0,0,0h-40.8c-1.9,0-3.5,1.6-3.5,3.5
		c0,1.9,1.6,3.5,3.5,3.5c0,0,0,0,0,0h5c-1.9,0-3.5,1.6-3.5,3.5c0,1.9,1.6,3.5,3.5,3.5c0,0,0,0,0,0h-7.1c-1.9,0-3.5,1.6-3.5,3.5
		c0,1.9,1.6,3.5,3.5,3.5c0,0,0,0,0,0h40.8c1.9,0,3.5-1.6,3.5-3.5c0-1.9-1.6-3.5-3.5-3.5c0,0,0,0,0,0h7.1c1.9,0,3.5-1.6,3.5-3.5
		C461.9,232.5,460.4,230.9,458.4,230.9z"/>
	<path class="st0" d="M771.3,302.5h-5c1.9,0,3.5-1.6,3.5-3.5c0-1.9-1.6-3.5-3.5-3.5c0,0,0,0,0,0h-40.8c-1.9,0-3.5,1.6-3.5,3.5
		s1.6,3.5,3.5,3.5c0,0,0,0,0,0h5c-1.9,0-3.5,1.6-3.5,3.5s1.6,3.5,3.5,3.5c0,0,0,0,0,0h-7.1c-1.9,0-3.5,1.6-3.5,3.5s1.6,3.5,3.5,3.5
		c0,0,0,0,0,0h40.8c1.9,0,3.5-1.6,3.5-3.5c0-1.9-1.6-3.5-3.5-3.5c0,0,0,0,0,0h7.1c1.9,0,3.5-1.6,3.5-3.5
		C774.9,304.1,773.3,302.5,771.3,302.5z"/>
	<path class="st0" d="M505.3,323.8h-5c1.9,0,3.5-1.6,3.5-3.5s-1.6-3.5-3.5-3.5c0,0,0,0,0,0h-40.8c-1.9,0-3.5,1.6-3.5,3.5
		c0,1.9,1.6,3.5,3.5,3.5c0,0,0,0,0,0h5c-1.9,0-3.5,1.6-3.5,3.5s1.6,3.5,3.5,3.5c0,0,0,0,0,0h-7.1c-1.9,0-3.5,1.6-3.5,3.5
		s1.6,3.5,3.5,3.5c0,0,0,0,0,0h40.8c1.9,0,3.5-1.6,3.5-3.5s-1.6-3.5-3.5-3.5c0,0,0,0,0,0h7.1c1.9,0,3.5-1.6,3.5-3.5
		C508.8,325.4,507.2,323.8,505.3,323.8z"/>
</g>
<g id="_x23_group_x28_have_x5B_man_x28_sit_x2C_hold_x29__x2C_woman_x28_lie_x2C_talk_x29__x5D__x29_">
	<g class="st5">
		
			<linearGradient id="SVGID_1_" gradientUnits="userSpaceOnUse" x1="342.5782" y1="715.3207" x2="342.5782" y2="717.0516" gradientTransform="matrix(1 0 0 -1 -40.58 994.52)">
			<stop  offset="0" style="stop-color:#808080;stop-opacity:0.25"/>
			<stop  offset="0.54" style="stop-color:#808080;stop-opacity:0.12"/>
			<stop  offset="1" style="stop-color:#808080;stop-opacity:0.1"/>
		</linearGradient>
		<path class="st6" d="M301.8,279.2c0.3-0.5,0.5-1.1,0.4-1.7C302,278.1,301.9,278.6,301.8,279.2z"/>
	</g>
	<g class="st5">
		
			<linearGradient id="SVGID_2_" gradientUnits="userSpaceOnUse" x1="342.5782" y1="716.1904" x2="342.5782" y2="717.9299" gradientTransform="matrix(1 0 0 -1 -40.58 994.52)">
			<stop  offset="0" style="stop-color:#808080;stop-opacity:0.25"/>
			<stop  offset="0.54" style="stop-color:#808080;stop-opacity:0.12"/>
			<stop  offset="1" style="stop-color:#808080;stop-opacity:0.1"/>
		</linearGradient>
		<path class="st7" d="M301.8,278.3c0.3-0.5,0.5-1.1,0.4-1.7C302,277.2,301.9,277.8,301.8,278.3z"/>
	</g>
	
		<linearGradient id="SVGID_3_" gradientUnits="userSpaceOnUse" x1="398.601" y1="265.4366" x2="398.601" y2="733.3547" gradientTransform="matrix(1 0 0 -1 -40.58 994.52)">
		<stop  offset="0" style="stop-color:#808080;stop-opacity:0.25"/>
		<stop  offset="0.54" style="stop-color:#808080;stop-opacity:0.12"/>
		<stop  offset="1" style="stop-color:#808080;stop-opacity:0.1"/>
	</linearGradient>
	<path class="st8" d="M684,680.6c-2,1-18.2-1.4-31.9-3.6c7.4-1.7,12.8-3.9,15.3-6.8c14.7-16.9-50.1-7.1-70.6-3.7l-16.5-3.3
		l-18.5-4.3c-12.7-17.9-32.1-54.2-41.4-72.2c3.1-0.7,5-1,5-1c-0.1-0.6-0.3-1.1-0.5-1.7l0.5-0.1c-17.4-66.2-47-56.6-47-56.6
		c-3.5,0-8.7,1.5-14.9,4c-2-7-4.6-13.9-7.7-20.5l-0.7-1.6c2.1,0.4,3.3,0.6,3.3,0.6s-0.2-0.5-0.5-1.3l0.3,0.1l0.7,0.1h0.2l0.3,0.1
		l0.8,0.1c0,0-23.9-64.9-74.7-103.9c-13.5-10.5-29.6-17-46.5-18.8c-0.9-0.1-1.8-0.2-2.6-0.2l-0.8-0.1c-0.7,0-1.3-0.1-1.9-0.1h-1.4
		l0,0c-11.5-0.2-20,2.7-29.7,7.7c-1.8,0.9-3.6,1.8-5.5,2.8c-1.5-0.2-2.9-0.4-4.3-0.8c-0.8-0.2-1.5-0.4-2.3-0.6
		c23.9-10.9,34.9-38.7,24.9-63c3.4-6.1,8.7-10.9,15.1-13.8c0.8-0.3,1.5-0.7,2.1-1.4c0.5-0.8,0.7-1.7,0.6-2.6v-0.1c0-0.2,0-0.3,0-0.5
		c0-0.2,0-0.2,0-0.3v-0.1c0.1-8.4-6-15.7-14.4-16.9c-2.4-0.4-4.8-1-7-2c-5.4-2.4-9.8-7.9-10.1-13.6c0-0.5,0.1-1,0.1-1.5l-0.1,0.2
		c0-0.4,0.1-0.7,0.1-1.1c-1.2,2.1-4.8,2.8-6.9,1.2c-1.9-1.4-2.7-3.8-2.7-6.2c0-0.7,0.1-1.3,0.2-1.9c0.4-1.8,0.6-3.6,0.7-5.5
		c0.1-1.9-0.3-3.7-1.9-4.7c-3.3,4.1-8.7,6-14,6.5c-5.3,0.4-10.5-0.5-15.7-1.2c-12.9-1.7-27.4-1.5-37.2,7.2
		c-6.3,5.6-9.5,13.9-12.5,21.8c-4.2,11.2-8.4,23.4-8.2,35.1c-0.1,5.5,0.9,10.9,3,15.9c4.1,9.4,12.3,16.8,14.9,26.7
		c0.6,2.3,0.9,4.7,2,6.8c2.3,4.2,7.7,5.9,12.4,5.2c1.8,1.8,3.8,3.5,5.8,4.9c0,0.6-0.1,1.1-0.1,1.6c-0.3,3.4-0.8,6.8-1.4,10.1
		c-0.4-0.6-0.9-0.2-2.5-0.2h-0.5H237l-0.6,0.1l0,0l-0.7,0.1h-0.1l-0.8,0.2l0,0l-0.9,0.2h-0.1l-1,0.3l0,0l-1.1,0.3h-0.1
		c-3,0.9-6.7,2.2-10.6,3.7c-1.5-9.7-6-18.6-12.8-25.6c1.4-1.9,2.5-3.9,3.3-6.1c1.3-3.5,0-6-2.3-8.1c-1.8-2-4.5-3.6-6.9-5.3
		c-10.7-7.9-22.8-13.6-35.7-16.8c-4.2-1-8.5-1.8-12.7-1.3c-4.1,0.4-7.9,2-11.6,3.7c-5.9,2.7-11.5,6-16.7,9.7
		c-3.6,2.5-7,5.2-11.2,6.7c-6.2,2.1-13.3,1.1-19,4.3c-7.9,4.5-9.7,15.3-8.5,24.3c1.2,9.1,4.4,18.1,3,27.1
		c-2.1,13.5-13.8,23.1-24.6,31.5c-3.4,2.7-7,5.8-7.5,10c-0.3,2.7,0.7,5.3,1.5,7.9c4.5,14.1,4.2,29.3-0.8,43.2
		C53.4,525.5,43.3,537,30.3,544c-4.9,2.6-10.9,5.2-12.1,10.7c-0.8,3.7,1,6.9,3.7,9.5c2.8,2.7,6.1,4.8,9.8,6.1c5.4,2,11,3.5,16.7,4.4
		c5,0.8,10.4,1.1,15-1.1c5.3-2.6,8.6-8,11.4-13.2c7.2-13.3,15.5-22.1,22.3-32.8c0.9,3.9,1.6,6.6,1.7,6.8c-5.7,5.1-8.3,13.5-5.2,27
		c12.2,53.1,27.9,66.2,27.9,66.2c0.4-2.9,1.5-5.6,3.2-8l0.7,0.9l0,0c7.4,9,16,18.4,23.1,23.7c8.1,6,15.5,13,21.9,20.8
		c1.5,1.9,1.2,4.6-0.7,6.1c-0.3,0.2-0.5,0.4-0.8,0.5c-11.2,5.4-35.6,19.4-6.5,25.6c29.1,6.2,52.9-10.2,61.2-17.2
		c1.9-1.5,2.1-4.2,0.6-6.1l-26.5-33.1l-3.3-4c1.8,1.2,3.5,2.6,5.4,3.9L195,633l15,1.6c0.4,0.9,0.9,1.8,1.3,2.7
		c3,6.1,6.1,10.9,9.4,13.6c-0.3,6.2,1.2,12.3,4.3,17.6c11.9,21.7,77.8,21.5,96.2,21.1c1.7,0.3,3.4,0.4,5.2,0.5
		c2.9,0.1,5.8-0.1,8.6-0.6l0.6-0.1c3.6-0.5,7-1.9,9.9-4.1l26.2-5.2l0.6,0.1c14.8,3,42.9,7.9,59.1,4.8c15.5-3,24.4,2.2,28.6,5.8
		c-0.4,1.6-1,3.2-1.6,4.7h0.2c-1,2.3-4.8,13.3,10.7,25.7c10.1,8.1,79.1,10.2,102.8,5.2c17.1-3.6-7.2-13.9-10.5-13.9
		c-7.4,0-30.5-15.6-32.9-17.3c-0.4-0.5-1.3-1.7-2.6-3.4c16,2.1,44.3,5.5,49.8,3.7c7.8-2.6,42.6,1.7,42.6,1.7s47,10.5,69.7,3.5
		S687.5,678.9,684,680.6z"/>
	<g class="st5">
		
			<linearGradient id="SVGID_4_" gradientUnits="userSpaceOnUse" x1="408.2491" y1="481.4935" x2="408.2491" y2="524.62" gradientTransform="matrix(1 0 0 -1 -40.58 994.52)">
			<stop  offset="0" style="stop-color:#808080;stop-opacity:0.25"/>
			<stop  offset="0.54" style="stop-color:#808080;stop-opacity:0.12"/>
			<stop  offset="1" style="stop-color:#808080;stop-opacity:0.1"/>
		</linearGradient>
		<path class="st9" d="M376.6,496.9c-2.7,1.2-9.3,7.3-17.7,16.2c-2.7-17.7-4.4-33.7-3.3-40.3c0.1-1,0.4-1.9,1-2.8
			c5.1-0.3,15.4,12.4,23.7,23.9C377.9,495.6,376.6,496.9,376.6,496.9z"/>
	</g>
	<g class="st5">
		
			<linearGradient id="SVGID_5_" gradientUnits="userSpaceOnUse" x1="332.2014" y1="616.0808" x2="332.2014" y2="616.0808" gradientTransform="matrix(1 0 0 -1 0 1002)">
			<stop  offset="0" style="stop-color:#808080;stop-opacity:0.25"/>
			<stop  offset="0.54" style="stop-color:#808080;stop-opacity:0.12"/>
			<stop  offset="1" style="stop-color:#808080;stop-opacity:0.1"/>
		</linearGradient>
		<polygon class="st10" points="332.2,385.9 332.2,385.9 332.2,385.9 		"/>
	</g>
	<path class="st11" d="M511.7,574.5c0,0,44.3,87.8,55.4,91.2c11.1,3.4,18.8-1.7,18.8-1.7s92.1-17.1,75,2.6
		c-17.1,19.6-166.3,7.7-166.3,7.7l-37.5-84.4L511.7,574.5z"/>
	<path class="st12" d="M384.7,576.2c0,0,71.6-47.7,91.2-47.7c0,0,29-9.4,46,55.4c0,0-58.8,10.2-58,38.4l-11.1-23.9l-47.7,52.9
		l-58-39.2L384.7,576.2z"/>
	<path class="st13" d="M384.7,574.5c0,0,71.6-47.7,91.2-47.7c0,0,29-9.4,46,55.4c0,0-58.8,10.2-58,38.4l-11.1-23.9l-47.7,52.9
		l-58-39.2L384.7,574.5z"/>
	<path class="st11" d="M463.1,550.6c-4.3,20.5-26.4,23.9-26.4,23.9l-31.5-19.6c0,0-4.5-29.4-8.2-47.3c-1.4-6.9-2.8-12.1-3.7-13.3
		c-3.4-4.3,50.3-3.4,50.3-3.4c3.8,6.4,7.2,12.9,10.3,19.7C459.7,523.4,465.4,539.6,463.1,550.6z"/>
	<path class="st11" d="M326.7,396.3l-17.9,85.3l-43.5-11.1c0,0-40.1-31.5-28.1-51.2c3.9-6.4,5.9-15.7,6.8-25.4
		c1.9-19.9-0.9-41.1-0.9-41.1s47.7-12.8,38.4,22.2c-3.9,14.4,3.1,20.5,12.6,22.8C307.8,401,326.7,396.3,326.7,396.3z"/>
	<path class="st12" d="M294.1,397.7c-6.8,3.5-14.3,5.4-22,5.4c-10.5,0-20.7-6.6-28.6-12.4c1.1-12.6,1-25.3-0.4-37.9
		c0,0,47.7-12.8,38.4,22.2C277.7,389.3,284.6,395.4,294.1,397.7z"/>
	<circle class="st11" cx="272.1" cy="353.6" r="47.7"/>
	<path class="st12" d="M268.6,453.2l13,18.1l7.4-26.7c2.8-10.7,4.3-21.7,4.5-32.7c0.1-4.7,1.6-9.2,4.4-13
		c13.3-7.2,23.1-11.1,39.9-9.4c16.6,1.8,32.4,8.2,45.5,18.4c49.8,38.2,73.2,101.8,73.2,101.8s-68.2-13.6-64.8,1.7
		c0,0-29.8-47.7-36.7-40.1c-6.8,7.7,14.5,109.1,14.5,109.1l-139.8,10.2l-36.7-97.2l1.7-72.5c0,0,36.2-16.6,43.9-16.6
		c2.7,0,2.3-0.9,3.4,3.4C246.3,424.5,258.5,439.1,268.6,453.2z"/>
	<path class="st12" d="M453.8,510.6c-11.9-2.1-45.5-7.6-56.9-3c-1.4-6.9-2.8-12.1-3.7-13.3c-3.4-4.3,50.3-3.4,50.3-3.4
		C447.3,497.3,450.7,503.8,453.8,510.6z"/>
	<path class="st14" d="M270.3,452.4l13,18.1l7.4-26.7c2.8-10.7,4.3-21.7,4.5-32.7c0.1-4.7,1.6-9.2,4.4-13
		c13.3-7.2,23.1-11.1,39.9-9.4c16.6,1.8,32.4,8.2,45.5,18.4c49.8,38.2,73.2,101.8,73.2,101.8s-68.2-13.6-64.8,1.7
		c0,0-29.8-47.7-36.7-40.1s14.5,109.1,14.5,109.1l-139.8,10.2l-36.7-97.2l1.7-72.5c0,0,36.2-16.6,43.9-16.6c2.7,0,2.3-0.9,3.4,3.4
		C248,423.6,260.2,438.3,270.3,452.4z"/>
	<path class="st12" d="M239,387.3c-4.8,0.9-10.4-0.8-12.7-5c-1.1-2-1.4-4.4-2-6.6c-2.5-9.7-10.6-17-14.6-26.2
		c-6.7-15.5-0.9-33.3,5.1-49.1c2.9-7.8,6-15.9,12.2-21.4c9.5-8.5,23.7-8.7,36.4-7c5.1,0.7,10.2,1.6,15.4,1.2s10.4-2.3,13.6-6.3
		c2.7,1.8,1.7,5.9,1.2,9.1c-0.5,3.2-0.1,6.9,2.5,8.9c2.6,2,7.4,0.3,7.1-2.9c-2.3,6.8,2.8,14.4,9.4,17.4c2.2,1,4.5,1.6,6.8,2
		c8.2,1.2,14.2,8.2,14.1,16.5v0.1c0.1,0.9-0.1,1.8-0.6,2.6c-0.5,0.6-1.2,1.1-2,1.3c-6.6,3-12,8.2-15.3,14.7
		c-1.8,3.5-3.1,7.5-6.4,9.6c-4,2.6-9.2,1.3-14,1.7c-8,0.8-14.8,6.3-17.1,14.1c-1.1,3.9-1,8.3-3.4,11.8c-1.1,1.6-2.8,2.7-4.7,2.9
		c-3.7,0.4-5.4-2.9-8-4.6c-6.2-4-10.2,1.3-12.2,6.3C247.7,383.7,246.2,386,239,387.3z"/>
	<path class="st15" d="M239,386.5c-4.8,0.9-10.4-0.8-12.7-5c-1.1-2-1.4-4.4-2-6.6c-2.5-9.7-10.6-17-14.6-26.2
		c-6.7-15.5-0.9-33.3,5.1-49.1c2.9-7.8,6-15.9,12.2-21.4c9.5-8.5,23.7-8.7,36.4-7c5.1,0.7,10.2,1.6,15.4,1.2s10.4-2.3,13.6-6.3
		c2.7,1.8,1.7,5.9,1.2,9.1c-0.5,3.2-0.1,6.9,2.5,8.9c2.6,2,7.4,0.3,7.1-2.9c-2.3,6.8,2.8,14.4,9.4,17.4c2.2,1,4.5,1.6,6.8,2
		c8.2,1.2,14.2,8.2,14.1,16.5v0.1c0.1,0.9-0.1,1.8-0.6,2.6c-0.5,0.6-1.2,1.1-2,1.3c-6.6,3-12,8.2-15.3,14.7
		c-1.8,3.5-3.1,7.5-6.4,9.6c-4,2.6-9.2,1.3-14,1.7c-8,0.8-14.8,6.3-17.1,14.1c-1.1,3.9-1,8.3-3.4,11.8c-1.1,1.6-2.8,2.7-4.7,2.9
		c-3.7,0.4-5.4-2.9-8-4.6c-6.2-4-10.2,1.3-12.2,6.3C247.7,382.8,246.2,385.2,239,386.5z"/>
	<g class="st5">
		<path d="M374.6,406.2c46,35.4,69.5,92.4,72.8,100.7c6.4,1,10.6,1.9,10.6,1.9s-23.4-63.5-73.2-101.8
			c-13.2-10.3-28.9-16.6-45.5-18.5c-2.3-0.2-4.5-0.4-6.6-0.4C348,390.5,362.4,396.7,374.6,406.2z"/>
		<path d="M233.4,406c4.4,16.7,16.6,31.4,26.7,45.5l13,18.1l2.7-9.7l-5.4-7.5c-10.1-14.1-22.3-28.7-26.7-45.5
			c-1.1-4.3-0.7-3.4-3.4-3.4c-2.4,0.2-4.8,0.8-7.1,1.6L233.4,406z"/>
		<path d="M388.7,503.5c2.8,4.2,4.5,7,4.5,7c-1.5-6.7,10.7-7.9,24.8-7.1C406.9,502.2,395.4,501.7,388.7,503.5z"/>
		<path d="M355.6,473.2c-4-3.8-7.4-5.6-9.2-3.6c-6.8,7.7,14.5,109.1,14.5,109.1l-130.2,9.5l0.6,1.6l139.8-10.2
			C371.1,579.6,352.5,491.2,355.6,473.2z"/>
	</g>
	<path class="st11" d="M226.4,676.2c-8.2,6.8-31.3,22.9-59.9,16.8s-4.6-19.8,6.3-25.1c2.1-1,3-3.6,2-5.7c-0.1-0.3-0.3-0.6-0.5-0.8
		c-6.3-7.7-13.5-14.5-21.4-20.4c-6.9-5.1-15.3-14.3-22.6-23.2l0,0c-3.8-4.6-7.3-9.1-10.2-12.9c-1.4-1.9-1.1-4.5,0.8-6
		c1.1-0.8,2.5-1.1,3.8-0.7l55.9,15.2c0.9,0.2,1.7,0.7,2.2,1.5l18.4,23l26,32.5C228.4,672,228.1,674.7,226.4,676.2z"/>
	<path class="st12" d="M201,637.7c-46.6-34-64.3-27.9-70.8-19.9c-3.8-4.6-7.3-9.1-10.2-12.9c-1.4-1.9-1.1-4.5,0.8-6
		c1.1-0.8,2.5-1.1,3.8-0.7l55.9,15.2c0.9,0.2,1.7,0.7,2.2,1.5L201,637.7z"/>
	<path class="st13" d="M162.2,532.7c0,0-75-24.7-63.1,27.3s27.3,64.8,27.3,64.8s4.3-40.9,76.7,12.8l-25.6-40.9l29.8-37.5
		L162.2,532.7z"/>
	<path class="st12" d="M144.2,485.8c0,0-6.8,35.8,17.9,79.3c19.6,34.5-3.7,50.2-14.1,55.2c-2.8,1.4-6.2,0.8-8.4-1.4
		c-6.9-6.8-20.1-24.2-12.4-51.3l5.1-13.6l-28.1-20.5c0,0-7.6-28.2-4.3-34.6c3.4-6.4,30.7-23.4,30.7-23.4L144.2,485.8z"/>
	<path class="st11" d="M144.2,484.1c0,0-6.8,35.8,17.9,79.3c19.6,34.5-3.7,50.2-14.1,55.2c-2.8,1.4-6.2,0.8-8.4-1.4
		c-6.9-6.8-20.1-24.2-12.4-51.3l5.1-13.6l-28.1-20.5c0,0-7.6-28.2-4.3-34.6c3.4-6.4,30.7-23.4,30.7-23.4L144.2,484.1z"/>
	<path class="st14" d="M206.5,415.9c0,0-61.4,35-87,58s-20.5,30.7-20.5,30.7s24.7-46,46-6c0,0,59.7-43.5,75.9-24.7
		S206.5,415.9,206.5,415.9z"/>
	<polygon class="st13" points="183.5,617.1 234.6,606.8 228.7,633.3 191.6,629.4 	"/>
	<path class="st16" d="M272.1,504.5l-1.7,18.8l-61.4-10.2l-18.8-11.9l-28.1-10.2c3.3-9.1,3.8-19.1,1.5-28.5c-1.1-4.1-2.7-8-4.9-11.6
		c-11.9-19.6,50.3-11.1,50.3-11.1c-0.7,4.4-1,8.9-0.9,13.4c0.1,14.2,4.2,34.3,26.5,31l18.8,11.1L272.1,504.5z"/>
	<path class="st16" d="M211.6,478.1c0,0,31.5-13.6,46.9,14.5c15.3,28.1,22.2,26.4,22.2,26.4L250,499.4L211.6,478.1z"/>
	<path class="st17" d="M238,620.5c0,0-23.9,19.6-10.2,44.3s98.9,20.5,98.9,20.5S272.6,665,286,596.7
		C286,596.7,247.4,607.7,238,620.5z"/>
	<path class="st17" d="M351.4,649.5l-8.5,32.4l29.8-6c0,0-12.8-27.3-11.1-35C363.4,633.3,351.4,649.5,351.4,649.5z"/>
	<path class="st16" d="M375.3,610.3c0,0,77.6,7.7,98.9,19.6l16.2,5.1c0,0,6-1.7,18.8,9.4l66.5,15.3l51.2,10.2c0,0,46.9,8.5,50.3,6.8
		c3.4-1.7,26.4,12.8,4.3,19.6s-68.2-3.4-68.2-3.4s-34.1-4.3-41.8-1.7c-7.7,2.6-59.7-5.1-59.7-5.1l-51.2,3.4c0,0-8.5-12.8-30.7-8.5
		c-15.8,3-43.4-1.7-57.8-4.7c-5.7-1.2-10.2-5.7-11.3-11.5l-5.1-27.3L375.3,610.3z"/>
	<path class="st18" d="M375.3,610.3c0,0,77.6,7.7,98.9,19.6l16.2,5.1c0,0,6-1.7,18.8,9.4l66.5,15.3l51.2,10.2c0,0,46.9,8.5,50.3,6.8
		c3.4-1.7,26.4,12.8,4.3,19.6s-68.2-3.4-68.2-3.4s-34.1-4.3-41.8-1.7c-7.7,2.6-59.7-5.1-59.7-5.1l-51.2,3.4c0,0-8.5-12.8-30.7-8.5
		c-15.8,3-43.4-1.7-57.8-4.7c-5.7-1.2-10.2-5.7-11.3-11.5l-5.1-27.3L375.3,610.3z"/>
	<path class="st12" d="M208.1,453.1c-12.2,10.5-29,14-44.5,9.3c-1.1-4.1-2.7-8-4.9-11.5c-11.9-19.6,50.3-11.1,50.3-11.1
		C208.4,444.2,208.1,448.6,208.1,453.1z"/>
	<circle class="st16" cx="177.5" cy="415.8" r="46.9"/>
	<path class="st12" d="M157.9,484.9c0,0,35.8,19.6,37.5,32.4c1.7,12.8-5.1,28.1-5.1,28.1s16.2,97.2,36.7,104l54.6-52.9l46-20.5
		c0,0-27.3-1.7-29.8-27.3c-2.6-25.6,3.4-34.1-27.3-46s-47.3-26-47.3-26l-7.9,2l40.8,21.4c0,0,23,13.6-36.7,3.4L163,483.2
		L157.9,484.9z"/>
	<path class="st19" d="M157,483.2c0,0,35.8,19.6,37.5,32.4c1.7,12.8-5.1,28.1-5.1,28.1s16.2,97.2,36.7,104l54.6-52.9l46-20.5
		c0,0-27.3-1.7-29.8-27.3c-2.6-25.6,3.4-34.1-27.3-46c-30.7-11.9-47.3-26-47.3-26l-7.9,2l40.8,21.4c0,0,23,13.6-36.7,3.4l-56.3-20.5
		L157,483.2z"/>
	<path class="st12" d="M169.8,490c0,0-35-12.8-26.4,28.1c8.5,40.9,52.9,111.7,52.9,111.7l104-35.8c0,0,32.4-24.7,23.9-27.3
		c-8.5-2.6-53.7,13.6-53.7,13.6l-61.4,9.4l-14.5-40.9c0,0,13.6-9.4,9.4-21.3l-0.1-0.4c-5.8-15.9-17.5-28.9-32.6-36.5L169.8,490z"/>
	<path class="st16" d="M168.1,488.3c0,0-35-12.8-26.4,28.1c8.5,40.9,52.9,111.7,52.9,111.7l104-35.8c0,0,32.4-24.7,23.9-27.3
		c-8.5-2.6-53.7,13.6-53.7,13.6l-61.4,9.4l-14.5-40.9c0,0,13.6-9.4,9.4-21.3l-0.1-0.4c-5.8-15.9-17.5-28.9-32.6-36.5L168.1,488.3z"
		/>
	<path class="st12" d="M171.4,348.6c-4.1-1-8.3-1.8-12.5-1.3c-4,0.6-7.8,1.8-11.3,3.6c-5.7,2.7-11.2,5.8-16.4,9.5
		c-3.5,2.4-6.9,5.1-10.9,6.5c-6,2.1-13,1.1-18.6,4.3c-7.8,4.4-9.5,14.9-8.4,23.8s4.3,17.7,2.9,26.5c-2.1,13.2-13.6,22.6-24.1,30.9
		c-3.3,2.6-6.9,5.7-7.4,9.8c-0.3,2.6,0.6,5.2,1.4,7.7c4.4,13.7,4.2,28.6-0.7,42.2c-5,13.6-14.8,24.9-27.6,31.7
		c-4.8,2.6-10.7,5.1-11.8,10.5c-1.4,6.8,5.9,12,12.4,14.4c5.3,2,10.8,3.4,16.4,4.3c4.9,0.8,10.2,1.1,14.6-1.1
		c5.2-2.5,8.4-7.8,11.2-12.9c10.7-19.8,23.9-29.5,30.9-51c1.5-4.6,3.9-10.1,8.7-10.6c3-0.3,5.8,1.6,8.3,3.2c12.4,7.8,25.4-0.9,37-10
		c2.7-2.1,5-4.7,7.9-6.3c6.3-3.5,15.5-2.5,19.3-8.6c0.9-1.6,1.5-3.4,1.8-5.2c1.6-6.7,3.1-13.6,1.3-20.3c-1.7-6.1-6-11.1-8.5-16.9
		c-2.6-5.8-2.7-13.7,2.5-17.3c1.6-1.1,3.4-1.6,5-2.8c4.5-3.2,4.6-9.7,4.6-15.3c-0.1-1.4,0.1-2.7,0.7-4c0.8-1.2,1.9-2.2,3.2-2.9
		c4.7-3.3,9.1-8.3,11.1-13.8c2.3-6.1-3.5-8.9-8.2-12.3C195.8,357.3,184,351.7,171.4,348.6z"/>
	<path class="st20" d="M170.5,347.7c-4.1-1-8.3-1.8-12.5-1.3c-4,0.6-7.8,1.8-11.3,3.6c-5.7,2.7-11.2,5.8-16.4,9.5
		c-3.5,2.4-6.9,5.1-10.9,6.5c-6,2.1-13,1.1-18.6,4.3c-7.8,4.4-9.5,14.9-8.4,23.8c1.2,8.9,4.3,17.7,2.9,26.5
		c-2.1,13.2-13.6,22.6-24.1,30.9c-3.3,2.6-6.9,5.7-7.4,9.8c-0.3,2.6,0.6,5.2,1.4,7.7c4.4,13.7,4.2,28.6-0.7,42.2
		c-5,13.6-14.8,24.9-27.6,31.7c-4.8,2.6-10.7,5.1-11.8,10.5c-1.4,6.8,5.9,12,12.4,14.4c5.3,2,10.8,3.4,16.4,4.3
		c4.9,0.8,10.2,1.1,14.6-1.1c5.2-2.5,8.4-7.8,11.2-12.9c10.7-19.8,23.9-29.5,30.9-51c1.5-4.6,3.9-10.1,8.7-10.6
		c3-0.3,5.8,1.6,8.3,3.2c12.4,7.8,25.4-0.9,37-10c2.7-2.1,5-4.7,7.9-6.3c6.3-3.5,15.5-2.5,19.3-8.6c0.9-1.6,1.5-3.4,1.8-5.2
		c1.6-6.7,3.1-13.6,1.3-20.3c-1.7-6.1-6-11.1-8.5-16.9c-2.6-5.8-2.7-13.7,2.5-17.3c1.6-1.1,3.4-1.6,5-2.8c4.5-3.2,4.6-9.7,4.6-15.3
		c-0.1-1.4,0.1-2.7,0.7-4c0.8-1.2,1.9-2.2,3.2-2.9c4.7-3.3,9.1-8.3,11.1-13.8c2.3-6.1-3.5-8.9-8.2-12.3
		C195,356.5,183.1,350.9,170.5,347.7z"/>
	<path class="st16" d="M567.6,721.5c-23.1,4.9-90.7,2.8-100.6-5.1c-15.2-12.1-11.4-22.9-10.4-25.2h-0.2c0,0,8.5-20.5,0-35.8
		c0,0-0.9-18.8-18.8-33.3c-17.9-14.5-37.5-55.4-37.5-55.4l-10.2,21.3c0,0-15.3,46.8-31.3,67.6c-3.2,4.1-5.4,8.9-6.3,14.1
		c-1.1,5.6-4.7,12.7-16,14.7l-0.6,0.1c-16.2,2.7-32.5-4.2-41.8-17.7c-7.7-11-16.3-26.2-18.2-41.1c-1.3-10.1,1.8-20.3,8.4-28l0.1-0.1
		c18.3-21.7,82-96.3,92.2-100.7c0,0,46-44.3,64,15.3s23.9,77.6,23.9,77.6s21.4,38.2,27.3,51.2c6.1,13.4,31.3,46.7,33.9,50
		c2.3,1.6,24.9,16.9,32.2,16.9C560.6,707.9,584.3,718,567.6,721.5z"/>
	<g class="st5">
		<path d="M459.8,667.5c0.7-6.6,0.3-14.5-3.5-21.4c0,0-0.9-18.8-18.8-33.3c-17.9-14.5-37.5-55.4-37.5-55.4l-10.2,21.3
			c0,0-15.3,46.8-31.3,67.6c-3.2,4.1-5.4,8.9-6.3,14.1c-1.1,5.6-4.7,12.7-16,14.7l-0.6,0.1c-16.2,2.7-32.5-4.2-41.8-17.7
			c-7.5-10.9-16.1-25.9-18.2-40.6c-0.5,3.2-0.5,6.5-0.1,9.7c2,14.9,10.6,30.1,18.2,41.1c9.3,13.5,25.6,20.4,41.8,17.7l0.6-0.1
			c11.3-2,15-9.1,16-14.7c1-5.1,3.2-9.9,6.3-14.1c16-20.8,31.3-67.6,31.3-67.6l10.2-21.3c0,0,19.6,40.9,37.5,55.4
			c17.9,14.5,18.8,33.3,18.8,33.3C458.2,659.8,459.4,663.6,459.8,667.5z"/>
	</g>
	<path class="st18" d="M237.6,557c0,0,36.7-0.9,34.1-12.8"/>
</g>
</svg>
