<?xml version="1.0" encoding="utf-8"?>
<!-- Generator: Adobe Illustrator 19.0.0, SVG Export Plug-In . SVG Version: 6.00 Build 0)  -->
<svg version="1.1" xmlns="http://www.w3.org/2000/svg" xmlns:xlink="http://www.w3.org/1999/xlink" x="0px" y="0px"
	 viewBox="0 0 1000 1000" style="enable-background:new 0 0 1000 1000;" xml:space="preserve">
<style type="text/css">
	.st0{opacity:0.1;enable-background:new    ;}
	.st1{fill:#6C63FF;}
	.st2{fill:#FFFFFF;}
	.st3{opacity:0.1;fill:#6C63FF;enable-background:new    ;}
	.st4{fill:url(#SVGID_1_);}
	.st5{fill:#65617D;}
	.st6{fill:#444053;}
	.st7{fill:#FBBEBE;}
	.st8{fill:none;stroke:#6C63FF;stroke-miterlimit:10;}
</style>
<g id="_x23_background">
	<g class="st0">
		<g>
			<path class="st1" d="M987.3,560.9c0,16.5-1.9,32.9-5.8,49c-3.6,15.2-9.2,29.8-16.4,43.6c0.1,69-55.8,125.1-124.8,125.2
				c-0.1,0-0.3,0-0.3,0H201.9c-60.2,0-115.2-33.9-142.3-87.5l0,0c-11.3-22.3-17.1-46.9-17-71.8c-15.7-28-24.7-61.4-24.7-97.4
				c0-97.8,67.1-177.1,150-177.1c3,0,5.8,0.1,8.7,0.3c51.9-103.3,169.2-175.3,305.4-175.3c83.7,0,160.3,27.2,218.9,72.1
				c21.5-14.2,46.4-22.2,72.8-22.2c82.9,0,150,79.3,150,177.1c0,6.3-0.3,12.5-0.8,18.6C961.8,447.5,987.3,500.6,987.3,560.9z"/>
		</g>
	</g>
</g>
<g id="_x23_other_x28_have_x5B_windmill_x5D__x29_">
	<g>
		<g>
			<g>
				<path class="st2" d="M505.6,344.1c-1,5.5-4.4,17.1-15.3,16.8c-8.3-0.2-14.7-7.5-14.6-15.8l3.1-113.6l1-37
					c0,0,5.4-10.3,10.8,35.7v0.2l14.9,108.9C505.8,340.9,505.8,342.5,505.6,344.1z"/>
				<rect x="482.3" y="355.1" class="st2" width="16" height="34.3"/>
				<rect x="484.2" y="381.3" class="st2" width="12.4" height="15.1"/>
				<path class="st1" d="M490.7,230.3c-5.6-1.6-9.4-0.4-11.9,1.2l1-37c0,0,5.4-10.3,10.8,35.7L490.7,230.3z"/>
				<path class="st1" d="M498.3,365.4v24.1h-16v-23.6C487.4,363.7,493.1,363.5,498.3,365.4z"/>
				<path class="st2" d="M536.1,441.9c-4.5-3.3-13.4-11.4-8.4-21.1c3.8-7.4,13.2-10,20.6-6.1L649,467.3l32.9,17.1
					c0,0,6.9,9.3-36.8-5.9l-0.2-0.1l-104.4-34.3C538.9,443.6,537.4,442.8,536.1,441.9z"/>
				
					<rect x="509.4" y="398.7" transform="matrix(-0.4384 0.8988 -0.8988 -0.4384 1118.0015 133.063)" class="st2" width="16" height="34.3"/>
				
					<rect x="496.4" y="401.1" transform="matrix(-0.4384 0.8988 -0.8988 -0.4384 1090.2106 136.1011)" class="st2" width="12.4" height="15.1"/>
				<path class="st1" d="M644.8,478.4c3.9-4.3,4.5-8.3,4.2-11.2l32.9,17.1c0,0,6.9,9.3-36.8-5.9H644.8z"/>
				<path class="st1" d="M520.2,426l-21.6-10.6l7-14.4l21.2,10.3C526.5,417,524.2,422.1,520.2,426z"/>
				<path class="st2" d="M444.5,441.9c4.5-3.3,13.4-11.4,8.4-21.1c-3.8-7.4-13.2-10-20.6-6.1l-100.7,52.6l-32.9,17.1
					c0,0-6.9,9.3,36.8-5.9l0.2-0.1l104.4-34.3C441.7,443.6,443.1,442.8,444.5,441.9z"/>
				
					<rect x="445.9" y="407.7" transform="matrix(-0.8988 0.4384 -0.4384 -0.8988 1061.5551 586.377)" class="st2" width="34.3" height="16"/>
				
					<rect x="470.5" y="402.5" transform="matrix(-0.8988 0.4384 -0.4384 -0.8988 1086.8949 566.3309)" class="st2" width="15.1" height="12.4"/>
				<path class="st1" d="M335.7,478.4c-3.9-4.3-4.5-8.3-4.2-11.2l-32.9,17.1c0,0-6.9,9.3,36.8-5.9H335.7z"/>
				<path class="st1" d="M460.4,426l21.6-10.6l-7-14.4l-21.2,10.3C454.1,417,456.4,422.1,460.4,426z"/>
				<polygon class="st2" points="504.7,777.9 473.2,777.9 483.2,407.1 494.7,407.1 				"/>
				<circle class="st1" cx="490.3" cy="402.6" r="10.5"/>
				<path class="st2" d="M738.7,324.5c-0.7,3.7-3,11.5-10.3,11.4c-5.7-0.3-10.1-5-9.8-10.7l2.1-76.9l0.7-25.1c0,0,3.6-6.9,7.3,24.2
					v0.1l10.1,73.7C738.9,322.4,738.9,323.5,738.7,324.5z"/>
				<rect x="722.9" y="332" class="st2" width="10.8" height="23.2"/>
				<rect x="724.2" y="349.7" class="st2" width="8.4" height="10.2"/>
				<path class="st1" d="M728.6,247.6c-3.8-1.1-6.4-0.3-8.1,0.8l0.7-25.1c0,0,3.6-6.9,7.3,24.2L728.6,247.6z"/>
				<path class="st1" d="M733.8,338.9v16.3h-10.9v-15.9C726.4,337.7,730.3,337.7,733.8,338.9z"/>
				<path class="st2" d="M759.3,390.7c-3.1-2.2-9.1-7.7-5.7-14.2c2.7-5,9-6.9,14-4.2l68.1,35.6l22.2,11.6c0,0,4.7,6.4-24.9-4H833
					l-70.7-23.2C761.2,391.9,760.2,391.4,759.3,390.7z"/>
				
					<rect x="741.4" y="361.4" transform="matrix(-0.4384 0.8988 -0.8988 -0.4384 1409.4813 -134.6536)" class="st2" width="10.8" height="23.2"/>
				
					<rect x="732.5" y="363.1" transform="matrix(-0.4384 0.8988 -0.8988 -0.4384 1390.6268 -132.4688)" class="st2" width="8.4" height="10.2"/>
				<path class="st1" d="M833,415.4c2.6-3,3.1-5.6,2.8-7.5l22.2,11.6C858,419.5,862.6,425.9,833,415.4L833,415.4z"/>
				<path class="st1" d="M748.6,379.9l-14.7-7.1l4.7-9.7L753,370C752.9,373.8,751.3,377.4,748.6,379.9z"/>
				<path class="st2" d="M697.4,390.7c3.1-2.2,9.1-7.7,5.7-14.2c-2.7-5-9-6.9-14-4.2l-68.1,35.6l-22.2,11.6c0,0-4.7,6.4,24.9-4h0.1
					l70.7-23.2C695.5,391.9,696.4,391.4,697.4,390.7z"/>
				
					<rect x="698.3" y="367.7" transform="matrix(-0.8988 0.4384 -0.4384 -0.8988 1511.5775 397.156)" class="st2" width="23.2" height="10.8"/>
				
					<rect x="714.9" y="364" transform="matrix(-0.8988 0.4384 -0.4384 -0.8988 1528.5647 383.4997)" class="st2" width="10.2" height="8.4"/>
				<path class="st1" d="M623.7,415.4c-2.6-3-3.1-5.6-2.8-7.5l-22.2,11.6C598.7,419.5,594.1,425.9,623.7,415.4L623.7,415.4z"/>
				<path class="st1" d="M708.1,379.9l14.7-7.1l-4.7-9.7l-14.3,6.9C703.8,373.8,705.4,377.4,708.1,379.9z"/>
				<polygon class="st2" points="738.1,618 716.7,621.8 723.6,367.1 731.4,367.1 				"/>
				<circle class="st1" cx="728.4" cy="364.1" r="7.1"/>
				<path class="st2" d="M253,324.5c-0.7,3.7-3,11.5-10.3,11.4c-5.7-0.3-10.1-5-9.8-10.7l2.1-76.9l0.7-25c0,0,3.6-6.9,7.3,24.2v0.1
					l10.1,73.7C253.1,322.4,253.1,323.5,253,324.5z"/>
				<rect x="237.2" y="332" class="st2" width="10.8" height="23.2"/>
				<rect x="238.6" y="349.7" class="st2" width="8.4" height="10.2"/>
				<path class="st1" d="M242.9,247.6c-3.8-1.1-6.4-0.3-8.1,0.8l0.8-25C235.6,223.3,239.2,216.4,242.9,247.6L242.9,247.6z"/>
				<path class="st1" d="M248.1,338.9v16.3h-10.8v-15.9C240.7,337.7,244.5,337.7,248.1,338.9z"/>
				<path class="st2" d="M273.6,390.7c-3.1-2.2-9.1-7.7-5.7-14.2c2.7-5,8.9-6.9,13.9-4.2l68.1,35.6l22.2,11.6c0,0,4.7,6.4-24.9-4
					h-0.1l-70.7-23.2C275.5,391.9,274.5,391.4,273.6,390.7z"/>
				
					<rect x="255.6" y="361.5" transform="matrix(-0.4384 0.8988 -0.8988 -0.4384 710.8038 301.9914)" class="st2" width="10.8" height="23.2"/>
				
					<rect x="246.8" y="363.1" transform="matrix(-0.4384 0.8988 -0.8988 -0.4384 691.9292 304.0215)" class="st2" width="8.4" height="10.2"/>
				<path class="st1" d="M347.2,415.4c2.6-3,3.1-5.6,2.8-7.5l22.2,11.6C372.2,419.5,376.9,425.9,347.2,415.4L347.2,415.4z"/>
				<path class="st1" d="M262.8,379.9l-14.7-7.1l4.7-9.7l14.3,6.9C267.1,373.8,265.5,377.4,262.8,379.9z"/>
				<path class="st2" d="M211.6,390.7c3.1-2.2,9.1-7.7,5.7-14.2c-2.7-5-9-6.9-13.9-4.2l-68.1,35.6l-22.2,11.6c0,0-4.7,6.4,24.9-4
					h0.1l70.7-23.2C209.7,391.9,210.8,391.4,211.6,390.7z"/>
				
					<rect x="212.6" y="367.6" transform="matrix(-0.8988 0.4384 -0.4384 -0.8988 589.3623 610.0582)" class="st2" width="23.2" height="10.8"/>
				
					<rect x="229.2" y="364" transform="matrix(-0.8988 0.4384 -0.4384 -0.8988 606.3468 596.412)" class="st2" width="10.2" height="8.4"/>
				<path class="st1" d="M138.1,415.4c-2.6-3-3.1-5.6-2.8-7.5l-22.2,11.6C113.1,419.5,108.4,425.9,138.1,415.4L138.1,415.4z"/>
				<path class="st1" d="M222.4,379.9l14.7-7.1l-4.7-9.7L218,370C218.1,373.8,219.7,377.4,222.4,379.9z"/>
				<polygon class="st2" points="252.4,618 231.1,618 237.9,367.1 245.6,367.1 				"/>
				<circle class="st1" cx="242.6" cy="364.1" r="7.1"/>
				<path class="st2" d="M960.8,686.6c-14.9,54.4-64.3,92.1-120.7,92.1H201.9c-60.2,0-115.2-33.9-142.3-87.5l0,0
					c0,0,92.5-128,332.7-44.3c199.4,69.4,291.4,3.8,316.9-20.5c5.6-5.3,13.1-8.1,20.8-7.7C778.8,620.8,948.1,632.7,960.8,686.6
					L960.8,686.6z"/>
			</g>
		</g>
	</g>
</g>
<g id="_x23_woman_x28_walk_x2C_watch_x29_">
	<g>
		<g>
			<g>
				<ellipse class="st3" cx="195" cy="774.1" rx="103.3" ry="12.1"/>
				
					<linearGradient id="SVGID_1_" gradientUnits="userSpaceOnUse" x1="226.754" y1="735.8479" x2="226.754" y2="465.2782" gradientTransform="matrix(1 0 0 1 -28 48.33)">
					<stop  offset="0" style="stop-color:#808080;stop-opacity:0.25"/>
					<stop  offset="0.54" style="stop-color:#808080;stop-opacity:0.12"/>
					<stop  offset="1" style="stop-color:#808080;stop-opacity:0.1"/>
				</linearGradient>
				<path class="st4" d="M246.8,763.2c0,0-6.7-0.8-11.1-4.1l-0.3-0.3c0.3-0.4,0.4-0.8,0.6-1.3c-0.5-0.9-0.7-1.9-0.8-3
					c0-0.9-0.2-1.9-0.6-2.8v-4.7c0,0-1.4-1.5-1.6-5.5c-0.2-4-0.3-23.3-0.3-23.3c-0.3-1-0.3-2-0.2-3.1c0.2-2.2,0.2-3.1,0.2-3.1
					c-0.5-1.3-0.6-2.7-0.4-4.1c0.4-1.7-1-3.6-1-3.6l2.2-10.7c0,0,1.2-36.8-2.3-47.9v-0.1c0,0,0-0.1,0-0.2c0.3-7.1-4.1-19.1-1.6-27.3
					c2.5-8.2,2.7-10.1,2.7-10.1s-10.8-27.2-13.6-33.6c-1.9-4.4-3.8-9.3-5.8-12.1c-0.2-0.3-0.3-0.5-0.5-0.7c-0.1-0.1-0.2-0.3-0.3-0.3
					c0.6-1,0.9-2.1,1-3.2c0.2-2-0.2-4.3,1.4-5.8c0.6-0.4,1.2-0.8,1.8-1.2c2.3-1.5,3.5-4.2,3.2-6.9c-0.3-2.1-1.5-3.9-2.9-5.6
					c0.9-5.3-0.8-10.6-4.7-14.2l0,0c0-0.3,0-0.5,0-0.8c0-1.9-0.6-3.8-1.7-5.4l0.4,0.3c-0.3-0.2-0.4-0.4-0.7-0.6
					c-0.3-0.3-0.7-0.6-1.1-0.8c-6.5-4.5-15.1-4.9-22-1.2c-1.7,0.9-3.2,2.2-4.3,3.8c-2.3,3.5-1.7,8.1-2.9,11.9
					c-1.1,3.8-3.8,6.9-6,10.3c-2.2,3.3-4.1,7.2-3.2,11.1c0.6,2.8,2.6,5.3,2.5,8.2c-0.2,3.1-2.6,5.6-5.7,6h-0.1
					c-0.3,0.1-0.6,0.1-0.8,0.1c2.7,1.9,6,2.5,9.3,3c-0.1,0.3-0.2,0.5-0.2,0.8c-2.6,10-5,22.7-5,22.7s1.6,12.9-1.8,23
					c-3.4,10.1-2.9,30.8-2.9,30.8s9.2-4.7,9.8-1.7c0.6,3.1,0,3.9,0,3.9s1.9,0.9,4.2,1.8l-0.1,1.3l-0.4,5.5c-0.2,1.2,0,2.4,0.5,3.4
					c0.8,1.5,0,5.8,0,5.8s-0.7,0.4,0,2.4c0.7,1.9-0.5,4.7-0.5,4.7s-0.8,10.5-0.9,12.7c-0.1,2.2-2.9,8.6-2.9,8.6s2.5,3.1,0,3.5
					c-2.5,0.4-2.7,4.2-2.7,4.2s-2.9,2.4-2.9,3.2c0,0-13,13.1-16,34.9c0,0-3.1,2.8-2.6,5.5c0.3,1.5-0.3,2-0.8,2.2
					c0.5,0.1,1.1,0.4,0.8,1.7c-0.4,2.2-1.6,7-1.6,7h0.2l0,0c-2.4,2.7-5.8,7.3-6.4,11.4c0,0.2,0,0.3-0.1,0.5l-1.3,3l11.4,5.1l1-1.5
					c0,0,5.1,5.8,10.8,7c1,0.3,2,0.3,3.1,0.3c3.2-0.1,6.4-0.7,9.4-1.9c0,0,4.2-5.2-6.7-6.2c0,0-6.4-7.3-5.8-10.3
					c0.3-1.3,0.3-2.6,0.4-3.9c0-0.3,0-0.6,0-0.8l0.8,0.1l0.2-2.4c0.3-0.4,0.5-0.9,0.4-1.4c0-1-0.8-1.1,0-1.7c0.8-0.6,0.8,0,0.8-1.4
					s-0.6-1,0.8-2.4s-0.2-3.9-0.2-3.9s3.1-2.3,2.9-5.2c-0.2-2.9,9.7-21.6,11.7-22.3s2.2-4.3,2.2-4.3s2.7,0.6,3.6,0
					c0.9-0.6,3.6-4.9,3.6-4.9s11-27.7,11.1-38.2l0.8-2.4c0,0,4.2,5.5,3.6,9.4c-0.5,3.9,3.2,6.7,3.2,6.7v11.9c0.4,2,0.7,4.2,0.7,6.3
					c-0.2,1.9,1.7,3.9,1,5.6c-0.7,1.7,0,4.7,0,4.7s-0.2,3.9,0,5.1c0.2,1.2-0.6,14,3.2,19.7c0,0,1.6,4.1,0,6.7s1.4,5.3,1.4,5.3
					s-1.9,3.1,0,5.3c1.1,1.4,1.5,3.2,1.4,5c-0.8,2.9-1.3,6.6-0.1,9.2v0.1l0.3,4l11.1-0.8v-2.2c0,0,7.5,2,14.6,0.9
					c3.8-0.6,7.5-2.1,9.7-5.3C254.4,768.1,258.9,760.4,246.8,763.2z"/>
				<path class="st5" d="M252.4,768.1c-2.1,3.2-5.7,4.7-9.3,5.3c-6.8,1.1-14.1-0.9-14.1-0.9v2.3l-10.7,0.8l-0.3-4v-0.1
					c-1.3-2.6-0.7-6.4,0.1-9.3c0.3-1.4,0.8-2.7,1.4-4c0,0,9.2-7.8,12.3-1.9c0.7,1.2,1.6,2.3,2.7,3.1c4.2,3.2,10.7,4.1,10.7,4.1
					C256.7,760.4,252.4,768.1,252.4,768.1z"/>
				<path class="st0" d="M223.9,760.4c0,0,0,7.3,5.3,7.1c5.3-0.2,6-2.9,4.3-4.7c-1.1-1.4-2.1-2.8-3-4.3L223.9,760.4z"/>
				<path class="st5" d="M178.3,782.3c-2.9,1.2-5.9,1.8-9.1,1.9c-1,0-1.9-0.1-2.9-0.3c-5.6-1.3-10.4-6.9-10.4-6.9l-0.9,1.5l-11-5
					l1.3-3l0.1-0.5c0.5-4,3.8-8.6,6.1-11.3c1.3-1.5,2.2-2.4,2.2-2.4l13.2,1.9c0,0,0.1,1.7,0,3.7c-0.1,1.3-0.2,2.6-0.4,3.9
					c-0.5,3.1,5.6,10.3,5.6,10.3C182.3,777.1,178.3,782.3,178.3,782.3z"/>
				<path class="st6" d="M151.8,749.9c-0.3,0.1-0.4,0.1-0.7,0.1C151.3,749.9,151.5,749.9,151.8,749.9z"/>
				<path class="st0" d="M166.7,758.2c0,0,0.1,1.7,0,3.7l-15.6-2.5c0,0,0.1-0.3,0.2-0.8c1.3-1.5,2.2-2.4,2.2-2.4L166.7,758.2z"/>
				<path class="st0" d="M234.2,759.3c-2.4,5.4-16.4,4.2-16.4,4.2c0.1-0.4,0.1-0.8,0.1-1.4c0.3-1.4,0.8-2.7,1.4-4
					c0,0,9.2-7.8,12.3-1.9C232.2,757.5,233.1,758.5,234.2,759.3z"/>
				<path class="st6" d="M234.5,757.8c-1.4,6.3-16.6,4.9-16.6,4.9c0.3-1.9-0.2-3.7-1.3-5.3c-1.8-2.2,0-5.3,0-5.3s-3-2.6-1.4-5.3
					c1.6-2.7,0-6.7,0-6.7c-3.6-5.6-3-18.4-3.1-19.5s0-5,0-5s-0.7-3,0-4.6c0.7-1.6-1.1-3.6-0.9-5.6c0-2.1-0.3-4.2-0.7-6.3v-11.9
					c0,0-3.6-2.8-3.1-6.7c0.6-3.9-3.5-9.3-3.5-9.3l-0.7,2.4c-0.2,10.4-10.8,38.1-10.8,38.1s-2.6,4.3-3.5,4.9c-0.8,0.6-3.5,0-3.5,0
					s-0.2,3.6-2.1,4.3s-11.4,19.2-11.3,22.2c0.2,3-2.8,5.2-2.8,5.2s1.4,2.5,0.2,3.9c-1.2,1.4-0.7,1-0.7,2.4s0,0.8-0.8,1.4
					c-0.8,0.5,0,0.7,0,1.7c0,0.5-0.1,1-0.4,1.4l-0.1,2.4l-16.4-2.6c0,0,1.1-4.7,1.5-6.9c0.3-1.3-0.3-1.7-0.8-1.7
					c0.5-0.2,0.9-0.7,0.7-2.2c-0.4-2.6,2.5-5.4,2.5-5.4c3-21.6,15.5-34.7,15.5-34.7c0-0.8,2.8-3.2,2.8-3.2s0.3-3.8,2.6-4.2
					c2.4-0.3,0-3.5,0-3.5s2.6-6.3,2.8-8.5c0.2-2.2,0.9-12.7,0.9-12.7s1.2-2.8,0.5-4.7c-0.7-1.9,0-2.4,0-2.4s0.8-4.2,0-5.8
					c-0.5-1-0.7-2.2-0.5-3.4l0.4-5.5l0.6-8.2c0,0,43.4-7.5,48.2-1.5c0.5,0.8,0.9,1.5,1.1,2.5c3.4,11,2.2,47.6,2.2,47.6l-2.1,10.6
					c0,0,1.4,1.9,1,3.6c-0.2,1.4-0.1,2.7,0.4,4.1c0,0,0,0.8-0.2,3.1c-0.1,1-0.1,2,0.2,3.1c0,0,0.2,19.2,0.3,23.1
					c0.1,3.9,1.5,5.4,1.5,5.4v4.7c0.3,0.8,0.6,1.9,0.5,2.8C233.8,755.9,234.1,756.9,234.5,757.8z"/>
				<path class="st0" d="M169.2,784.2c-1,0-1.9-0.1-2.9-0.3c-5.6-1.3-10.4-6.9-10.4-6.9l-0.9,1.5l-11-5l1.3-3l0.1-0.5l11.4,5.8
					C156.5,775.8,165.6,780.1,169.2,784.2z"/>
				<path class="st0" d="M243.1,773.3c-6.8,1.1-14.1-0.9-14.1-0.9v2.3l-10.7,0.8l-0.3-4c3.4,0.1,8.8,0.1,11.2-0.1
					C233.8,771.5,238.5,772.1,243.1,773.3z"/>
				<path class="st0" d="M157.2,746.3c0.6-0.1,1.1,0,1.6,0.2c0.5,0.3,1.1,0.7,1.5,1.1c0.3,0.2,0.7,0.4,1,0.7c0.4,0.4,0.6,1,1,1.4
					c0.8,0.8,1.9,0.6,3,0.9c0.1,0,0.3,0.1,0.3,0.2s-0.1,0.2-0.2,0.3c-0.5,0.3-1.1,0.3-1.6,0c-0.5-0.3-0.9-0.6-1.4-1
					c-0.8-0.7-1.7-1.3-2.6-1.6c-1.4-0.5-3.6-0.7-4.4-1.9C155.8,746.2,156.7,746.4,157.2,746.3z"/>
				<path class="st0" d="M156.1,749.3c0.3,0.1,0.6,0.2,0.8,0.3l1.4,0.7c-1,0.1-2-0.2-2.9-0.7c-0.3-0.2-0.6-0.3-0.9-0.4
					C155.1,749.2,155.6,749.2,156.1,749.3z"/>
				<path class="st0" d="M158,751.7c0.3,0,0.6,0,0.9,0.1c0.5,0.2,1,0.5,1.4,0.8c1,0.8,2.4,1.3,3.7,1.3c-0.3,0.1-0.6,0.2-0.8,0.2h-3
					c-0.8,0.1-1.5-0.2-2.2-0.5c-0.5-0.3-2.6-0.8-2.6-1.5S157.5,751.7,158,751.7z"/>
				<path class="st0" d="M226.3,755.3c0.9,0.1,1.9,0.2,2.8,0.1c0.9,0,1.9-0.3,2.7-0.8c0.8-0.6,0.7-1.3-0.4-1.3
					c-0.9,0.1-1.9,0.3-2.7,0.7c-0.4,0.2-0.8,0.4-1.3,0.7C227.1,754.6,226.4,755.3,226.3,755.3z"/>
				<path class="st0" d="M229.6,756.8c-0.1,0.3-0.4,0.5-0.8,0.7c-0.8,0.3-1.6,0.5-2.5,0.5c-0.2,0-0.8,0-0.8-0.3s0.9-0.3,1.2-0.3
					C227.8,757.2,228.7,757.1,229.6,756.8z"/>
				<path class="st0" d="M221.3,756.2c1.2-0.2,2.4,0.1,3.4,0.7l0.1,0.1v0.1c-0.3,0.4-0.7,0.7-1.1,0.6c-0.4-0.1-0.9-0.2-1.4-0.3
					c-0.7-0.3-1.4-0.3-2.2-0.3c-0.3,0-0.7,0-1,0c-1-0.2-0.7-0.6,0.1-0.7C219.8,756.3,220.5,756.2,221.3,756.2z"/>
				<path class="st0" d="M182.9,701.5c-1.4-1-3.1-1.5-4.7-1.5C179.9,699.8,181.6,700.4,182.9,701.5z"/>
				<path class="st0" d="M181.6,695.8c1.3,0,2.5,0.3,3.6,1l-1.3-0.3c-0.8-0.3-1.6-0.4-2.4-0.5c-0.5,0-0.9,0-1.4-0.1
					c-0.4-0.1-1-0.2-1.6-0.2C179.6,695.8,180.6,695.8,181.6,695.8z"/>
				<path class="st0" d="M185.8,698.5c0.4,0.1,0.8,0.3,0.9,0.7c0-0.3-2.8-1-3.1-1.1c-0.6-0.2-2.4-1-2.8-0.4
					C182.5,698,184.2,698.2,185.8,698.5z"/>
				<path class="st0" d="M189.7,686.1c1.9-0.6,3.5-1.7,4.8-3.1c0,1.3-0.7,2.5-1.8,3.1c-1.1,0.7-2.3,1.1-3.5,1.3
					c-1.3,0.2-2.5,0.6-3.6,1.1c-0.5,0.3-2.3,1.9-2.8,1.9c-0.7-0.1,0.4-1.2,0.7-1.4C185.3,687.6,187.6,686.9,189.7,686.1z"/>
				<path class="st0" d="M223.9,704.2c-0.6-0.2-7.8,1.2-7.4-0.2c0.3-0.8,2.6-0.5,3.2-0.5C221.1,703.5,222.5,703.8,223.9,704.2z"/>
				<path class="st7" d="M216.1,537.4c0,8.8-7.1,15.9-15.9,15.9c-8.8,0-15.9-7.1-15.9-15.9c0-8.8,7.1-15.9,15.9-15.9
					c4.2,0,8.1,1.6,11.1,4.5C214.4,529,216.1,533.2,216.1,537.4z"/>
				<path class="st8" d="M208.4,543.9c0,0-5.2,15.1-2.2,18.1c3,3.1-21.1,4.9-21.1,4.9s10.1-18,9.1-22.5
					C193.1,540,208.4,543.9,208.4,543.9z"/>
				<path class="st0" d="M229.9,646.7c0,0.3,0,0.7,0,1c-0.3,7.1-13,21.4-15.9,19.1c-3-2.4-22.9-7.1-22.9-7.1s-3-4.6-6-4.6
					c-1.8-0.2-3.5-0.6-5-1.3l0.6-8.2c0,0,43.4-7.5,48.1-1.4C229.3,645,229.7,645.9,229.9,646.7z"/>
				<path class="st5" d="M229.9,646.5c-0.2,3.6-3.4,9-6.9,13.1c-3.6,4.2-7.5,7.1-8.9,5.9c-1.1-0.7-2.2-1.3-3.5-1.6
					c-6.6-2.5-19.4-5.5-19.4-5.5s-3-4.6-6-4.6c-3.1,0-8.9-3.1-8.9-3.1s0.6-0.8,0-3.9c-0.6-3.1-9.5,1.7-9.5,1.7s-0.4-20.7,2.8-30.7
					s1.7-22.9,1.7-22.9s2.3-12.6,4.7-22.6c1.5-6,3.1-11,4.3-11.8c3.2-2.1,19.9,0,19.9,0s6.9,0.2,9.7,0.8c0.8,0.3,1.5,0.9,2,1.6
					c0.2,0.3,0.3,0.4,0.5,0.7c1.9,2.8,3.7,7.6,5.6,12c2.6,6.4,13.1,33.5,13.1,33.5s-0.3,1.8-2.6,10
					C226.2,627.5,230.2,639.3,229.9,646.5z"/>
				<path class="st7" d="M217.9,654.7l5,4.9c0,0,4.6,15.8-1.4,14.5s-11-10.2-11-10.2L217.9,654.7z"/>
				<path class="st0" d="M230.6,610.4c-11.9-0.2-14.9-16.8-14.9-16.8s-0.8-16.4-2.4-19.5c-0.8-1.7-1.3-5.8-1.4-9.2
					c1.9,2.8,3.7,7.6,5.6,12C220.2,583.4,230.6,610.4,230.6,610.4z"/>
				<path class="st5" d="M231,609.3c-11.9-0.2-14.9-16.8-14.9-16.8s-0.8-16.4-2.4-19.5c-0.8-1.7-1.3-5.8-1.4-9.2
					c1.9,2.8,3.7,7.6,5.6,12C220.5,582.1,231,609.3,231,609.3z"/>
				<path class="st0" d="M209.7,568.2c0,0-3.5-9.5-9.2,0c-5.8,9.5-5.8,21.4-5.8,21.4l-0.9,26.2c0,0,1.8,3.5,1.8,5.4s3.4,7.5,3.4,7.5
					s0.8,11,4.1,12.8l3.1,9.1c0,0,0.2,6,2.2,8.4s1,6,1,6l12.4-4.3c0,0-1.4,0.5,0-3.2c1.4-3.7-0.8-8.6-0.8-8.6s-8-17.3-8.9-19.8
					c-0.9-2.5-2.4-5.4-1.8-8.4c0.6-3,0.1-34.1,0.8-38.8C211.6,577.4,209.7,568.2,209.7,568.2z"/>
				<path class="st6" d="M211.1,567c0,0-3.5-9.5-9.2,0c-5.8,9.5-5.8,21.4-5.8,21.4l-0.9,26.2c0,0,1.8,3.5,1.8,5.4
					c0,1.9,3.4,7.5,3.4,7.5s0.8,11,4.1,12.8l3.1,9.1c0,0,0.2,6,2.2,8.4s1,6,1,6l12.4-4.3c0,0-1.4,0.5,0-3.2c1.4-3.7-0.8-8.6-0.8-8.6
					s-8-17.3-8.9-19.8c-0.9-2.5-2.4-5.4-1.8-8.4c0.6-3,0.1-34.1,0.8-38.8S211.1,567,211.1,567z"/>
				<path class="st0" d="M211.3,649c0.5,0.1,1,0.3,1.5,0.4c0.4,0.2,0.7,0.5,1.1,0.7c0.4,0.3,0.9,0.3,1.4,0.4c-0.6,0-1.1,0.1-1.7,0.1
					c-0.3,0-0.7,0-1-0.2c-0.3-0.2-0.6-0.3-0.8-0.6c-0.3-0.3-0.7-0.4-1.1-0.6c-0.3-0.2-0.6-0.2-0.8-0.5
					C210.4,648.8,210.8,648.9,211.3,649z"/>
				<path class="st0" d="M216,652.7c0.5,0,1-0.1,1.6-0.2c0.8,0,1.5,0,2.3,0.1c-1.1,0.6-2.4,0.8-3.6,0.7c-0.3-0.1-0.8-0.1-1.1,0
					c-0.4,0.2-1.5,1.4-1.6,0.3C213.5,652.6,215.3,652.7,216,652.7z"/>
				<path class="st0" d="M209.6,520.7l-1.9-1.4c0.3,0.1,0.4,0.2,0.6,0.3c0.4,0.3,0.8,0.5,1.1,0.8c0.3,0.2,0.4,0.4,0.7,0.6
					L209.6,520.7z"/>
				<path class="st0" d="M211.9,563c-0.3,0.8-0.9,1.5-1.7,2c-0.4,0.3-0.9,0.5-1.5,0.6c-0.8,0.1-1.5,0-2.3-0.3
					c-0.9-0.3-1.9-0.5-2.7-0.8c-1.8-0.8-3.6-1.4-5.4-1.9c-2.8-0.7-6-0.4-8.1,1.6c-1.8,1.8-2.2,4.6-3.9,6.4c-2.4,2.4-6.2,2.3-9.5,1.8
					l-0.8-0.1c1.5-6,3.1-11,4.3-11.8c3.2-2.1,19.9,0,19.9,0s6.9,0.2,9.7,0.8C210.7,561.7,211.4,562.3,211.9,563z"/>
				<path class="st0" d="M184.3,537.4c0-8.8,7.1-15.9,15.9-15.9c4.2,0,8.1,1.6,11.1,4.5l0,0c0.1,2.8-0.5,5.6,0.3,8.3
					c0.8,2.5,2.5,4.5,4.2,6.5c-1.9,8.6-10.4,14-19,12C189.5,551.3,184.3,544.9,184.3,537.4z"/>
				<path class="st6" d="M210,520.1c-6.4-5.8-15.6-6.8-23.1-2.6c-1.7,0.9-3.1,2.2-4.2,3.8c-2.2,3.5-1.6,8-2.8,11.9
					c-1.1,3.8-3.6,6.9-5.8,10.2c-2.2,3.3-3.9,7.2-3.1,11c0.6,2.8,2.5,5.3,2.5,8.1c-0.2,3.3-2.8,5.9-6.1,6c2.7,1.9,6,2.5,9.3,3
					c3.3,0.4,7.2,0.6,9.5-1.8c1.8-1.8,2.2-4.6,3.9-6.4c2-2,5.3-2.3,8.1-1.6s5.3,1.9,8.1,2.7c0.8,0.3,1.5,0.3,2.3,0.3
					c2.4-0.3,3.7-3,4-5.3c0.2-1.9-0.2-4.3,1.3-5.7c0.5-0.4,1.1-0.8,1.7-1.2c2.2-1.5,3.4-4.2,3.1-6.9c-0.7-4.7-5.8-7.7-7.1-12.3
					c-0.8-2.6-0.2-5.5-0.3-8.3c-0.1-2.8-1.1-5.9-3.7-6.9"/>
				<path class="st0" d="M218.4,545.8c-0.7-4.7-5.8-7.7-7.1-12.3c-0.8-2.6-0.2-5.5-0.3-8.3c0-1.9-0.6-3.8-1.7-5.4l0.4,0.3
					c-0.2-0.2-0.4-0.4-0.7-0.6c-0.3-0.3-0.7-0.6-1.1-0.8c-0.3-0.2-0.5-0.3-0.8-0.5l0.3,0.3l-0.4-0.3c1.1,1.6,1.7,3.5,1.7,5.4
					c0,2.8-0.6,5.6,0.3,8.3c1.4,4.6,6.4,7.5,7.1,12.3c0.3,2.7-0.8,5.3-3.1,6.9c-0.6,0.3-1.2,0.8-1.7,1.2c-1.4,1.4-1.1,3.7-1.3,5.7
					c-0.2,2.4-1.6,5-3.9,5.3c-0.8,0.1-1.5,0-2.3-0.3c-2.8-0.7-5.3-2.1-8.1-2.7c-2.8-0.6-6-0.4-8.1,1.6c-1.8,1.8-2.2,4.6-3.9,6.4
					c-2.4,2.4-6.2,2.3-9.5,1.8c-2.2-0.3-4.3-0.8-6.4-1.4c-0.3,0.1-0.6,0.1-0.8,0.1c2.7,1.9,6,2.5,9.3,3c3.3,0.4,7.2,0.6,9.5-1.8
					c1.8-1.8,2.2-4.6,3.9-6.4c2-2,5.3-2.3,8.1-1.6s5.3,1.9,8.1,2.7c0.8,0.3,1.5,0.3,2.3,0.3c2.4-0.3,3.7-3,4-5.3
					c0.2-1.9-0.1-4.3,1.3-5.7c0.5-0.4,1.1-0.8,1.7-1.2C217.5,551,218.7,548.4,218.4,545.8z"/>
			</g>
		</g>
	</g>
</g>
</svg>
