<?xml version="1.0" encoding="utf-8"?>
<!-- Generator: Adobe Illustrator 19.0.0, SVG Export Plug-In . SVG Version: 6.00 Build 0)  -->
<svg version="1.1" id="图层_1" xmlns="http://www.w3.org/2000/svg" xmlns:xlink="http://www.w3.org/1999/xlink" x="0px" y="0px"
	 viewBox="0 0 1000 1000" style="enable-background:new 0 0 1000 1000;" xml:space="preserve">
<style type="text/css">
	.st0{opacity:0.1;enable-background:new    ;}
	.st1{fill:#6C63FF;}
	.st2{opacity:0.1;fill:#6C63FF;enable-background:new    ;}
	.st3{opacity:0.2;}
	.st4{fill:#3F3D56;}
	.st5{opacity:0.1;fill:#FFFFFF;enable-background:new    ;}
	.st6{fill:url(#SVGID_1_);}
	.st7{fill:#BE6F72;}
	.st8{fill:#65617D;}
	.st9{fill:#E3E8F4;}
	.st10{opacity:0.1;}
	.st11{fill:#2F2E41;}
	.st12{opacity:0.4;fill:#FFFFFF;enable-background:new    ;}
	.st13{fill:#FFB8B8;}
	.st14{fill:#FF6584;}
	.st15{fill:#9F616A;}
	.st16{fill:#575A88;}
	.st17{fill:url(#SVGID_2_);}
	.st18{fill:#F86D70;}
	.st19{fill:#FBBEBE;}
	.st20{fill:#444053;}
	.st21{fill:#E8E8F0;}
</style>
<g id="_x23_background" class="st0">
	<g>
		<path class="st1" d="M966.1,612c0.1,28.2-7.7,56-22.3,80.1c0,29.5-13.7,56.3-36.1,75.8c-5.6,4.9-11.6,9.2-18,13
			c-0.3,0.2-0.5,0.3-0.8,0.4c-0.5,0.3-0.9,0.6-1.4,0.9l-0.4,0.3l0,0c-2,1.1-4.1,2.3-6.2,3.3c-19.5,9.6-41.1,14.6-62.9,14.5H175.6
			c-5.1,0-10.1-0.2-15.2-0.6c-17.8-1.4-35.4-5.5-52.1-12c-3.2-1.3-6.5-2.6-9.6-4.2c-1.4-0.7-3-1.5-4.4-2.1c-0.9-0.4-1.8-0.9-2.7-1.5
			c-5.5-2.9-10.8-6.1-15.9-9.6c-4.7-3.2-9.2-6.7-13.5-10.3c-29-24.9-47-59.4-47-97.4c-16.3-25.2-24.9-54.4-24.8-84.3
			c0-84.5,67.6-153.1,151-153.1c2.6,0,5.1,0.1,7.7,0.2c0.3,0,0.8,0,1.1,0.1c14.1-24,32.8-46,55.4-65.3
			c61.6-52.8,151.7-86.1,252-86.1c84.3,0,161.4,23.5,220.3,62.3c22.3-12.6,47.6-19.3,73.4-19.2c83.3,0,151,68.6,151,153.1
			c0,5.4-0.3,10.7-0.9,16C942,515.1,966.3,562,966.1,612z"/>
	</g>
</g>
<g id="_x23_other_x28_have_x5B_tree_x2C_people_x5D__x29_">
	<g>
		<path class="st2" d="M767.1,490.6v-9.1c17.1-6.9,25.2-26.4,18.3-43.4c-6.9-17.1-26.4-25.2-43.4-18.3
			c-17.1,6.9-25.2,26.4-18.3,43.4c3.4,8.4,10,14.9,18.3,18.3v9.1c-8.4,2.3-15.9,6.9-21.7,13.2c-6.2-9.4-15.7-16.2-26.5-19.2v-9.1
			c17.1-6.9,25.2-26.4,18.3-43.4c-6.9-17.1-26.4-25.2-43.4-18.3c-17.1,6.9-25.2,26.4-18.3,43.4c3.4,8.4,10,14.9,18.3,18.3v9.1
			c-7.4,2-14.2,5.9-19.8,11.3c-6.2-8.4-15-14.4-25.1-17.2v-9.1c17.1-6.9,25.2-26.4,18.3-43.4s-26.4-25.2-43.4-18.3
			c-17.1,6.9-25.2,26.4-18.3,43.4c3.4,8.4,10,14.9,18.3,18.3v9.1c-8.5,2.4-16.2,7.2-22.2,13.7c-5.4-13.8-17-24.2-31.2-28.2v-9.1
			c17.1-6.9,25.2-26.4,18.3-43.4s-26.4-25.2-43.4-18.3c-17.1,6.9-25.2,26.4-18.3,43.4c3.4,8.4,10,14.9,18.3,18.3v9.1
			c-18.7,5.2-32.2,21.4-34.1,40.8c-4.3-3-9-5.2-14.2-6.7v-9.1c17.1-6.9,25.2-26.4,18.3-43.4s-26.4-25.2-43.4-18.3
			c-17.1,6.9-25.2,26.4-18.3,43.4c3.4,8.4,10,14.9,18.3,18.3v9.1c-12.9,3.6-23.6,12.5-29.6,24.5c-3.9-2.6-8.3-4.4-12.8-5.7v-9.1
			c17.1-6.9,25.2-26.4,18.3-43.4c-6.9-17.1-26.4-25.2-43.4-18.3c-17.1,6.9-25.2,26.4-18.3,43.4c3.4,8.4,10,14.9,18.3,18.3v9.1
			c-4.3,1.2-8.4,3-12.1,5.3c-6-11.8-16.6-20.6-29.3-24.1v-9.1c17.1-6.9,25.2-26.4,18.3-43.4s-26.4-25.2-43.4-18.3
			c-17.1,6.9-25.2,26.4-18.3,43.4c3.4,8.4,10,14.9,18.3,18.3v9.1c-13.7,3.8-25,13.6-30.6,26.8c-4.8-3.7-10.2-6.4-16-8v-9.1
			c17.1-6.9,25.2-26.4,18.3-43.4c-6.9-17.1-26.4-25.2-43.4-18.3s-25.2,26.4-18.3,43.4c3.4,8.4,10,14.9,18.3,18.3v9.1
			c-20.3,5.6-34.4,24.1-34.4,45.2v211.5h94V755h44.4v18.8H439V755h67.4v-34.1h58v14.5h69.9v6h73.4v6h93.8V535.8
			C801.5,514.8,787.4,496.3,767.1,490.6z"/>
		<g class="st3">
			<path class="st4" d="M132.7,714.8c0,0.4-0.1,0.8-0.1,1.1c-3.2-1.3-6.5-2.6-9.6-4.2c-1.7-0.3-3.2-0.9-4.4-2.1
				c-0.9-0.4-1.8-0.9-2.7-1.5c0.2-0.4,0.4-0.9,0.7-1.3c1.8-2.8,4.4-4.5,7.3-4.4s5.5,2,7.1,4.9C132.2,709.7,132.8,712.2,132.7,714.8z
				"/>
			<path class="st4" d="M133.1,700.2c-0.1,2.6-0.8,5-2.1,7.2c-1.8,2.7-4.4,4.5-7.3,4.4h-0.6c-1.7-0.3-3.2-0.9-4.4-2.1
				c-0.9-0.8-1.5-1.7-2-2.6c-2.4-4.6-2.2-10.1,0.4-14.6c1.8-2.8,4.4-4.5,7.3-4.4c2.9,0.1,5.5,2,7.1,4.9
				C132.7,695.1,133.2,697.6,133.1,700.2z"/>
			
				<ellipse transform="matrix(-0.9995 -3.158519e-02 3.158519e-02 -0.9995 227.1916 1374.1123)" class="st4" cx="124.4" cy="685.3" rx="9.1" ry="11.9"/>
			
				<ellipse transform="matrix(-0.9995 -3.158519e-02 3.158519e-02 -0.9995 228.6139 1345.0094)" class="st4" cx="124.9" cy="670.7" rx="9.1" ry="11.9"/>
			
				<ellipse transform="matrix(-0.9995 -3.158519e-02 3.158519e-02 -0.9995 230.0205 1315.8882)" class="st4" cx="125.4" cy="656.1" rx="9.1" ry="11.9"/>
			<path class="st1" d="M94.4,555c-1.2-1.6-2.3-3.3-3.2-5.1l24.1-3.2l-26-0.6c-4.7-11.1-4.6-23.6,0.3-34.6l34.2,19.1l-31.4-24.6
				c12.7-20.6,39.7-26.9,60.2-14.2s26.9,39.7,14.2,60.2c-1.1,1.8-2.4,3.6-3.8,5.2c1.9,2.6,3.4,5.3,4.8,8.1l-31.6,15.1l33.5-10.1
				c4.3,14.2,1.1,29.5-8.4,40.9c14.3,19.4,10.1,46.8-9.2,61.2c-19.4,14.3-46.8,10.1-61.2-9.2c-12-16.3-11.3-38.6,1.7-54.1
				C80.8,592.9,81.4,570.6,94.4,555z"/>
			<path class="st0" d="M171.6,584.5c-0.3,9.8-3.9,19.3-10.2,26.7c14.3,19.4,10.2,46.8-9.2,61.2c-19.4,14.3-46.8,10.2-61.2-9.2
				c-12-16.3-11.3-38.6,1.7-54.2C87.1,601.5,171.8,579.7,171.6,584.5z"/>
		</g>
	</g>
</g>
<g id="_x23_home_x28_have_x5B_sofa_x5D__x29_">
	<path class="st4" d="M678.3,683.3c-18.9,73.3-26.6,213.1-26.6,213.1H194.1c1.5-66.5-31.3-204.3-32.3-214.9
		c-0.8-8.9,29.5-54.6,39.5-69.5c2-3,5-4.7,8.2-4.7h413.7c2.2,0,4.3,0.8,6,2.3c20.1,16.6,36.6,38.6,48.3,64.2
		C678.9,676.7,679.2,680.1,678.3,683.3z"/>
	<path class="st4" d="M216.4,654.4c0,0-22.8-83.6,14.9-95.4s120.2,3.5,120.2,3.5s64.5-38.9,139-8.2c0,0,106.2-37.7,127.1-1.2
		c20.9,36.5-5,101.3-5,101.3H216.4z"/>
	<polygon class="st0" points="233.4,722.1 592.2,719.8 596.2,766.9 234.8,765.7 	"/>
	<polygon class="st0" points="632.9,683.1 614,638.4 598.2,725.5 601.1,757.3 	"/>
	<polygon class="st0" points="195.8,693.1 214.7,648.4 230.6,735.5 227.6,767.3 	"/>
	<rect x="231.1" y="750.3" class="st4" width="367.4" height="50.6"/>
	<path class="st5" d="M249.2,757.3h331.1c10,0,18.1,9.6,18.1,21.5v7.7c0,11.9-8.1,21.5-18.1,21.5H249.2c-10,0-18.1-9.6-18.1-21.5
		v-7.7C231.1,766.9,239.2,757.3,249.2,757.3z"/>
</g>
<g id="_x23_man_x28_jump_x29_">
	
		<linearGradient id="SVGID_1_" gradientUnits="userSpaceOnUse" x1="768.0385" y1="55.859" x2="768.0385" y2="540.98" gradientTransform="matrix(1 0 0 -1 -19 906.98)">
		<stop  offset="0" style="stop-color:#808080;stop-opacity:0.25"/>
		<stop  offset="0.54" style="stop-color:#808080;stop-opacity:0.12"/>
		<stop  offset="1" style="stop-color:#808080;stop-opacity:0.1"/>
	</linearGradient>
	<path class="st6" d="M900.7,628.2c-1.7-1.3-3.7-2.2-5.9-2.6c-2.3-0.5-4.6-0.8-6.8-1.2l-29.7-4.3c-3-0.6-6.1-0.7-9.1-0.5
		c-3.1,0.2-5.9,1.7-7.9,4.1c-0.9,1.1-1.4,2.5-1.4,3.9c0.2,1.4,0.6,2.8,1.4,4c0.3,0.6,0.5,1.2,0.7,1.8c0.4,1.3,0.5,2.7,1.1,4
		c0.1,0.3,0.3,0.5,0.5,0.8c0,0.1,0,0.1,0,0.2c-0.3,1.7,0.7,3.4,0.3,5c-0.4,1.4-1.7,2.2-2.6,3.3c-1.2,1.7-1.2,3.9-0.1,5.6
		c0.9,1.4,2.5,2.3,3,3.9c0.6,2.1-1,4.1-2.5,5.8c-2.7,3-5.2,6.2-7.5,9.5c-0.6,0.8-1.1,1.8-1.2,2.8c-0.1,2.1,1.9,4,1.5,6
		c-0.3,1.6-1.9,2.7-3.3,3.6c-5.1,3.4-9.2,8.8-9.6,14.9c-1.3-9.8-5.4-19-11.7-26.5c-1.7-2.1-3.6-4.2-4.3-6.8c-0.3-1-0.3-2.2-0.7-3.2
		c-1.2-3.2-5-4.6-6.7-7.5c-1.2-2.1-1.2-4.7-2.7-6.5c-1.5-1.8-3.8-2.2-5.1-4c-0.6-1.2-1.2-2.4-1.6-3.7c-0.5-1-1.3-1.9-2.2-2.7
		c-0.2-0.1-0.4-0.3-0.6-0.4c0.4-0.4,0.6-0.9,0.6-1.4c0-1.4-1.4-2.3-2.6-3c-1.6-0.9-3.1-1.9-4.6-2.9c1.6-0.8,3-1.9,4.1-3.4
		c1.4-2.2,1.9-4.8,1.6-7.3c-0.1-2-0.8-4-2.2-5.5c-0.8-0.8-1.7-1.4-2.5-2.1c-2.1-2-2.8-5-3.6-7.7c-1.1-3.6-2.9-7.4-6.2-9.3
		c-1.6-0.9-3.4-1.4-5-2.3c-1.6-1-2.9-2.8-2.3-4.6c0.4-1.2,1.5-2,2.2-3.1c1.9-2.8,1.2-6.5-1.5-8.4c-0.9-0.6-2-1.1-2.2-2.1
		c-1.4-0.4-2.5-1.5-2.8-3c-0.3-1.4-0.3-2.9,0-4.3c0.3-2.2,0.6-4.5,0.9-6.7c1.1,0.5,2.3,0.5,3.4,0c1,1.7,2.3,3.3,3.6,4.7
		c3.7,4.3,6.5,9.3,8.4,14.6c0.7,1.9,1.4,4.1,3.2,5.1c0.6,0.3,1.3,0.5,1.9,0.9c0.7,0.5,1.4,1.2,1.9,1.9l4.3,5.7l0.1,0.3
		c0,0.2,0.1,0.3,0.2,0.5c0.3,0.3,0.6,0.5,1,0.5c4.4,1,9.4,2,13.3-0.4c3.5-2.2,5-6.5,7.9-9.3c2.1-2,5-3.6,5.6-6.5
		c-0.7-0.2-1.4-0.5-2.1-0.8c0.6-0.6,1.2-1.3,2-2.1c1.2-1.2,2.3-2.4,3.2-3.8c1-1.7,1.8-3.5,2.4-5.4c2.3-6.6,4.7-13.3,7-19.9
		c1.1-3.1,2.2-6.3,3.6-9.3c1.4-3.3,3.2-6.5,4.7-9.7c4.1-8.4,7.2-17.2,9.4-26.3c0.4-1.2,0.5-2.6,0.4-3.9c-0.3-2.1-1.9-3.7-3.4-5.2
		c-1.5-1.6-3.2-3.1-5.1-4.3c-1.9-1.2-4.2-1.6-6.4-1c-3.1,0.9-5,4.1-5.7,7.2s-0.4,6.4-0.7,9.6c-0.4,4.6-2,9.1-2.4,13.8
		c-0.2,2.7,0,5.4-0.3,8.1c-0.6,3.5-1.8,6.9-3.6,10c-3.9,7.3-9.2,13.9-15.6,19.2c-0.7,0.6-1.5,1.2-2.2,1.9c0-0.5,0.1-1,0.2-1.6
		c-0.5,0.1-1,0.3-1.5,0.5c0.1-0.6,0-1.2-0.2-1.8c-1-2.9-5.3-3.6-6-6.6c-0.1-0.7-0.2-1.5-0.2-2.2c-0.3-2.6-2-4.7-2.6-7.2
		c-0.6-2.5-0.1-4.8-1.2-7c-0.9-1.3-2-2.5-3.2-3.6c-1.4-1.7-2.5-3.6-3.1-5.8c-0.2-0.6-0.3-1.2-0.5-1.8c0.2-1.3,0-2.7-0.4-4
		c-1.1-2.7-3.9-4.5-5-7.2c-0.8-2.1-0.4-4.8-2-6.5c-0.8-0.8-1.8-1.4-2.9-1.7c-5.5-2.1-11.3-3.5-17.2-4c-3.3-0.3-6.9-0.5-9.3-2.8
		c-2.8-2.7-2.9-7.6-6.1-9.6c-2.8-1.8-6.9-0.5-9.1,2.1c-0.3,0.4-0.6,0.8-0.9,1.2c-0.4-1.6-0.5-3.3-0.3-4.9c0-0.4,0.1-0.8,0.1-1.2
		c5.4-1.8,10.1-5.4,13.1-10.3v0.1l0.1,0.4c0.3,0.9,0.9,1.7,1.7,1.8l0,0c0.5,0,1.1-0.2,1.5-0.5c0.7-0.5,1.4-1.1,2-1.7
		c0.3-0.3,0.6-0.7,0.9-1c1.4-1.9,2.3-4.1,2.7-6.4c0.2-1.4,0.2-2.8,0.5-4.2c0.2-1.1,0.5-2.2,0.9-3.2c0.1-0.3,0.2-0.7,0.3-1
		c0.1-0.3,0.3-0.8,0.4-1.2c0.8-2.5,1.2-5.1,1.2-7.6c0-0.4,0-0.9,0-1.3c-0.1-3.4-1.6-6.7-4.1-9c-2.1-1.7-4.8-2.4-6.3-4.7
		c-1-1.6-1.2-3.5-1.8-5.3c-1.3-4.4-4.9-7.7-9.5-8.5c-2.7-0.3-5.4,0.4-7.5,2.1l0,0l-0.2,0.1l0,0c-1.2,0.9-2.2,2-3,3.3
		c-1.6-0.4-3.1-1.3-4.2-2.4c-1.2-1.1-2.1-2.5-3.4-3.6c-2.3-2.1-5.6-2.8-8.6-1.8c-3.1,1.2-5.3,3.8-6.1,7c-0.7,2.5-0.5,5.3-1.9,7.4
		c-1.1,1.6-2.8,2.4-4.1,3.9c-0.8,0.9-1.3,2-1.5,3.2l0,0c-0.1,0.7-0.2,1.3-0.2,2l0,0c0,0.3,0,0.6,0.1,0.9c0,0,0,0.1,0,0.1
		c0,0.3,0.1,0.7,0.2,1l0,0c0.3,1.2,1,2.4,1.8,3.3c0.8,0.9,1.8,1.6,2.9,2.1c0.5,0.2,0.9,0.3,1.4,0.4l1.4,0.3l0.5,0.1
		c-3.5,6.6-3.8,14.4-0.7,21.2c0,0.3-0.1,0.7-0.1,1c-0.2,4.8,0,9.5,0.6,14.2c0.2,1.9,0.3,3.9-0.9,5.4c-0.5,0.6-1.1,1.1-1.7,1.6
		c0.7-0.8,1.3-1.7,2-2.5c-1.7-1.7-4.4-1.9-6.8-1.7c-4.7,0.3-9.2,1.7-13.3,4.1c-2.7,1.5-5.5,3.6-8.6,3.2c-1.8-0.2-3.6-1.2-5.4-0.7
		c-1,0.4-1.9,1-2.8,1.6c-0.7,0.5-1.5,0.7-2.3,0.7c-1.9-2.3-4.8-3.9-7.1-5.8c-2.6-2.3-4.9-4.8-7.1-7.6c-3.9-4.7-7.8-9.4-11.6-14.2
		c-3.2-4-6.5-8.3-7.1-13.5c-0.1-0.5-0.1-1-0.1-1.5c0.1-2.4,0.4-4.9,0.9-7.2c0.1-0.6,0.1-1.2,0-1.7c-0.4-1.2-1.7-1.7-2.9-1.9l0,0
		c0.2-0.9,0.3-1.9,0.3-2.8c0.7-10.4-0.1-20.9,2.1-31.1c0.8-3.9,2.2-7.9,5-10.7c4.4-4.4,11.8-5.5,15.1-10.9
		c2.8-4.4,1.7-10.6-1.8-14.5c-3.5-3.9-9-5.5-14.2-5.3c-1.5,0-2.9,0.4-4.1,1.1c-1.2,1-2,2.3-2.5,3.8l-5.2,12.5
		c-1.5,3.3-2.8,6.7-3.8,10.1c-1.4,5.3-1.8,10.9-2.9,16.2c0,4.1-2.6,9.2-4.1,13c-1.6,4.3-3.4,8.4-4.8,12.8c-0.4,1.1-1.6,4.3-2.4,7.2
		c-0.3,0.2-0.6,0.4-0.8,0.6c-0.6,0.8-1.2,1.7-1.7,2.5c-1.1,1.5-2.9,2.2-4.1,3.6s-1.5,4,0.2,4.7c0.3,0.1,0.7,0.2,1,0.2
		c0.2,0,0.4,0.1,0.7,0.1c1.8,0.5,2.5,2.8,2.3,4.7c-0.3,1.9-1.2,3.6-1.4,5.5c-0.3,3.3,1.6,6.4,3.5,9.2c1.9,3,4.1,5.9,6.4,8.7
		c1.7,1.9,3.6,3.6,5.3,5.5c6.5,6.7,11.7,14.5,17.6,21.8c2.1,2.8,4.5,5.3,7.2,7.5c1.7,1.3,3.5,2.6,5.4,3.7c3.4,2.1,6.7,4.3,10.1,6.4
		c1.1,0.8,2.4,1.4,3.8,1.8c0.4,0.1,0.9,0.1,1.4,0c0.1,0.3,0.1,0.6,0.2,0.9c0.8,3.2,2.5,6,2.7,9.2s-0.1,6.5,0.1,9.8c0.2,3,0.9,6,1,9
		c0.3,5.7-1.1,11.3-2.4,16.9c-2,8.1-3.3,16.5-7.2,23.9c-1.1,2-2.4,4.1-2.4,6.4c0,0.3,0,0.6,0.1,0.8l0,0l-1.8,1
		c-0.5,0.3-1.1,0.6-1.5,0.9c-2.3,1.5-4.7,3.1-5.7,5.7c-0.8,2.1-0.4,4.5-1.3,6.5c0,0.1-0.1,0.2-0.1,0.3c-1,1.9-2.9,3.3-3.3,5.3l0,0
		c-0.3,1.6,0.3,3.3,0,4.8c0,0,0,0,0,0.1c-0.3,0.8-0.5,1.6-0.7,2.4c0,0.3,0,0.5,0.1,0.8c0.2,0.9,0.7,1.7,1.4,2.4
		c0.4,0.4,0.9,0.8,1.4,1.1c0.5,0.3,1,0.7,1.6,1l0.3,0.2c0.5,0.2,0.9,0.5,1.4,0.7l0.3,0.1c0.5,0.2,1.1,0.4,1.7,0.6l0.4,0.1
		c0.4,0.1,0.9,0.3,1.3,0.4l0.3,0.1l0.3,0.1l1.2,0.3l0.4,0.1c0.5,0.1,1.1,0.2,1.6,0.2c0.2,0,0.3,0,0.5,0c0.4,0,0.8,0.1,1.2,0.1h0.6
		c0.4,0,0.8,0,1.2,0h0.4c0.6,0,1.1-0.1,1.7-0.2h0.2c0.5-0.1,1-0.2,1.5-0.3l0.4-0.1c0.5-0.1,0.9-0.2,1.4-0.3l0.3-0.1
		c0.6-0.2,1.1-0.4,1.7-0.6c1.9-0.8,3.8-1.7,5.6-2.8c1.2-0.7,2.4-1.4,3.6-2c0.9-0.5,1.8-0.9,2.7-1.2c2.3-1,4.8-1.4,7.2-1.2
		c1.2,0.2,2.4,0.4,3.6,0.7c0,0.1,0,0.3,0,0.4c1,5.8,1.9,11.6,2.9,17.4c1.6-1.1,3.2-2.1,5-3c-0.3,0.9-0.5,1.8-0.6,2.7
		c-0.1,0.7-0.1,1.4,0,2.2c0.1,1.1,0.3,2.4-0.3,3.3c-0.4,0.6-1.2,0.9-1.4,1.5c-0.2,0.6-0.2,1.3-0.1,2c-0.1,1.6-1.3,2.8-2.9,2.9
		c0.7,2,0,4.2-1.8,5.4c-0.5,0.2-1,0.5-1.4,0.9c-0.4,0.5-0.7,1.2-0.8,1.8c-1.6,6-4.9,11.4-9.4,15.5c-1.7,1.4-3.3,2.9-4.7,4.6
		c-0.9,1.3-1.6,2.7-2.1,4.2c-3.2,7.9-6.5,15.7-9.8,23.6c-1.8,4.4-3.6,8.9-4.2,13.6c-1.4,13-13,24-10.9,36.9c0.4,3.2,1.7,6.3,3.8,8.8
		c2.4,2.9,6,4.6,9.6,5.9c9.3,3.6,19.1,5.6,28.9,7.6l15.3,3.1c3,0.7,6.1,1.2,9.1,1.4c3.7,0.3,7.5-0.1,11.1,0.8
		c2.2,0.6,4.4,1.7,6.7,1.8c2,0.1,4.4-0.3,5.6,1.3s0.3,3.8,1.4,5.2c1.8,2.3,6.1,0,8.1,2.2c0.5,0.8,0.9,1.7,1.2,2.7
		c0.3,0.6,0.7,1.1,1.2,1.5c0.1,0.7,0.2,1.4,0.1,2.1c-0.3,2.8-0.8,5.6-1.7,8.2c-1.4,4.9-2.9,9.8-4.3,14.7c-0.5,1.7-1,3.5-1.2,5.3
		c-0.1,0.9-0.1,1.8,0,2.6c0.3,2.7,1.8,5.4,4.3,6.3c2,0.5,4.1,0.3,5.9-0.7c1.7-0.9,3.3-2,4.8-3.3c2.7-2,5-4.4,7-7.2
		c6-9,4.1-21.2,8.3-31.2c2.8-6.7,8.3-12.1,10.1-19.1c0.4-1.3,0.5-2.8,0.1-4.1c-0.8-2.4-3.3-3.8-5.7-4.7h-0.1c-2-0.7-4-1.3-6-1.7
		c-0.5-0.1-1-0.2-1.5-0.3c-1.1-0.9-2.1-2.1-2.7-3.5c-0.1-0.7-0.3-1.4-0.6-2.1c-0.4-0.6-1-0.9-1.7-1c-1.2-0.1-2.8,0.3-4.1,0.2
		c-2.7-0.2-4.5-2.8-6.9-4.1c-2.4-1.2-5-0.9-7.6-0.7c-0.9,0.1-1.9,0.1-2.7-0.2c-1.1-0.5-2-1.2-2.9-2c-3-2.3-6.9-3.1-10.6-2.1
		c-1.2,0.5-2.4,0.7-3.6,0.8c-2.4-0.1-4-2.2-5.8-3.8c-4.8-4.4-11.5-5.5-17.3-8.4c-0.9-0.3-1.6-1-2.1-1.8c-0.7-1.6,0.8-3.3,2.2-4.4
		l9.9-8.2c10.9-9,24.4-15.8,29.5-29c0.5-1.8,1.3-3.5,2.4-5c0.4-0.5,0.8-0.9,1.3-1.2c2.2-1.4,4.8-2,7.4-1.5c3.1,0.7,6.1,2,8.7,3.8
		c4.3,2.6,8.5,5.4,12.6,8.4c4.1,2.9,7.9,6,11.5,9.4c6.3,6,11.6,13.2,17.5,19.7c5.9,6.5,12.6,12.6,20.8,15.7c8.2,3.1,18.1,3,25.1-2.3
		c8.1-6,10.7-16.8,12.8-26.7c4.5-4.4,5.9-11,8.1-16.9c1.4-3.7,3.2-7.2,4.7-11c1.8-4.4,3.2-8.9,4.6-13.4c1.6-4.5,2.7-9.2,3.2-14
		c0.6-7.5-1.4-15.5,0.7-22.6c2.8-0.6,5.3-2.2,8.1-3.1c4.1-1.4,8.4-1.1,12.8-1.1h0.3c1.5,0.2,3-0.2,4.2-1c1.4-1.2,1.7-3.3,1.7-5.1
		C904.5,636.3,904.2,631.1,900.7,628.2z M726,422.4c-1,0.2-2,0.3-3.1,0.2L726,422.4z"/>
	<path class="st7" d="M730.7,498.7c-1.5,1.2-3.2,2.1-5,2.7l-8.6,3.1c-4.6,1.7-9.5,3.3-14.4,2.7c-2.7-0.3-14.5-2.1-16.2-4.2
		c-2.7-3.3,6.8-8.2,10-11c0.7-0.5,1.4-1.1,2-1.8c1.2-1.5,1-3.5,0.9-5.4c-0.6-4.7-0.8-9.5-0.6-14.2c0.1-1.1,0.3-2.3,0.5-3.4
		c1.2-5.5,6.4-3.5,10.4-2.1c4.9,1.6,9.7,3.6,14.2,6.1c1.4,0.7,2.6,1.7,3.5,3c1.8,2.7,1.1,6.2,0.8,9.6c-0.3,2.6-0.2,5.2,1.4,7.1
		c0.8,0.7,1.6,1.5,2.3,2.4C732.7,495.3,732.2,497.4,730.7,498.7z"/>
	<path class="st7" d="M612.6,411.8c1.2-5.4,1.5-10.9,2.9-16.1c1-3.4,2.3-6.8,3.8-10.1l5.3-12.4c0.5-1.5,1.4-2.8,2.5-3.8
		c1.2-0.8,2.7-1.2,4.1-1.1c5.2-0.2,10.7,1.4,14.2,5.2c3.5,3.8,4.7,10,1.8,14.4c-3.4,5.3-10.7,6.3-15.1,10.8c-2.8,2.8-4.2,6.8-5,10.7
		c-2.2,10.1-1.5,20.6-2.1,31c-0.2,3.2-0.8,6.9-3.6,8.6c-1.7,0.8-3.5,1.2-5.4,1l-7.9,0.1c-1.3,0-6.1,0.8-7-0.2
		c-1.5-1.8,2-10.5,2.6-12.4c1.4-4.3,3.2-8.5,4.8-12.7C610,421,612.6,415.9,612.6,411.8z"/>
	<path class="st4" d="M776,790.7c-1.8,7-7.3,12.4-10.1,19c-4.2,9.9-2.3,22.1-8.3,31.1c-1.9,2.7-4.3,5.1-7,7.2
		c-1.5,1.3-3.1,2.3-4.8,3.2c-1.8,1-3.9,1.2-5.9,0.7c-2.5-0.9-4.1-3.6-4.3-6.3c-0.1-0.9-0.1-1.7,0-2.6c0.3-1.8,0.7-3.6,1.2-5.3
		c1.4-4.9,2.9-9.8,4.3-14.7c0.9-2.7,1.5-5.4,1.7-8.2c0.2-3-1.8-7-1-9.8c0.4-1.3,1.8-2.4,2.4-3.5c0.9-1.5,1.6-3.2,2.1-4.9
		c1-3.4,1.7-7,3.7-9.8c1.4-1.7,2.9-3.2,4.7-4.4c1.3-1.1,2.8-2,4.5-2.5c1.6-0.3,3.3-0.2,4.8,0.2c2,0.4,4.1,1,6,1.7h0.1
		c2.4,0.9,5,2.2,5.7,4.6C776.4,787.9,776.4,789.3,776,790.7z"/>
	<path class="st4" d="M904.3,642.4c-0.1,1.9-0.3,4-1.7,5.1c-1.3,0.8-2.8,1.2-4.2,1H898c-4.3,0-8.7-0.2-12.8,1.1
		c-3.1,1-5.9,2.9-9.2,3.3c-4.4,0.5-8.6-1.9-12.6-4.1c-3.7-2-7.5-3.8-11.4-5.4c-2.6-1-7.8-1.7-9-4.5c-0.4-1.3-0.8-2.7-1.1-4
		c-0.2-0.6-0.4-1.2-0.7-1.8c-0.7-1.2-1.2-2.6-1.4-4c0-1.4,0.5-2.8,1.4-3.9c2-2.4,4.8-3.8,7.9-4.1c3-0.2,6.1-0.1,9.1,0.5l29.7,4.3
		c2.3,0.3,4.6,0.7,6.8,1.2c2.1,0.4,4.2,1.3,5.9,2.6C904.2,632.7,904.5,637.9,904.3,642.4z"/>
	<path class="st8" d="M878.2,650.1c-3.6,7.6-1,16.7-1.7,25.1c-0.5,4.7-1.6,9.4-3.2,13.9c-1.4,4.5-2.8,9-4.6,13.3
		c-1.5,3.6-3.3,7.2-4.7,10.9c-2.2,5.9-3.6,12.5-8.1,16.9c-2.1,9.9-4.7,20.6-12.8,26.6c-7.1,5.2-16.9,5.4-25.1,2.2
		c-8.2-3.1-14.9-9.2-20.8-15.7c-5.9-6.5-11.2-13.6-17.5-19.6c-3.6-3.4-7.5-6.6-11.5-9.4c-4.1-3-8.3-5.8-12.6-8.4
		c-2.6-1.8-5.6-3.1-8.7-3.8c-2.6-0.5-5.2,0-7.4,1.4c-0.5,0.3-0.9,0.7-1.3,1.2c-1.1,1.5-1.9,3.2-2.4,4.9c-5,13.2-18.6,20-29.5,28.9
		l-10,8.3c-1.4,1.1-2.8,2.8-2.2,4.4c0.5,0.8,1.2,1.5,2.1,1.8c5.8,2.8,12.5,4,17.3,8.3c1.7,1.6,3.4,3.7,5.8,3.8
		c1.2-0.1,2.5-0.3,3.6-0.8c3.7-1,7.6-0.2,10.6,2.1c0.8,0.9,1.8,1.6,2.9,2.1c0.9,0.2,1.8,0.3,2.7,0.2c2.6-0.2,5.3-0.4,7.6,0.7
		c2.3,1.1,4.2,3.8,6.9,4c1.3,0.1,2.9-0.3,4.1-0.2c0.7,0,1.3,0.4,1.7,1c0.3,0.7,0.5,1.4,0.6,2.1c0.5,1.7,2.2,2.7,3.2,4.1
		c1.7,2.1,1.9,5.1,1.7,7.8c-0.6,8.5-4.3,16.4-10.6,22.2c-1.8,1.8-4,3.1-6.5,3.6c-2.5,0.5-5.1-0.6-6.4-2.9c-0.3-0.9-0.7-1.8-1.2-2.7
		c-1.9-2.1-6.3,0.1-8.1-2.1c-1.1-1.4-0.3-3.7-1.4-5.2c-1.1-1.5-3.6-1.2-5.6-1.3c-2.3-0.1-4.4-1.2-6.7-1.8c-3.6-0.9-7.4-0.6-11.1-0.8
		c-3.1-0.3-6.1-0.8-9.1-1.4l-15.4-3.1c-9.8-2-19.6-4-28.9-7.6c-3.6-1.4-7.1-3-9.6-5.9c-2-2.5-3.3-5.6-3.8-8.8
		c-2.2-12.9,9.4-23.9,10.9-36.8c0.5-4.7,2.4-9.2,4.2-13.6c3.3-7.8,6.5-15.7,9.8-23.6c0.5-1.5,1.3-2.8,2.1-4.1c1.4-1.7,3-3.2,4.7-4.5
		c4.6-4.1,7.8-9.5,9.4-15.5c0.1-0.7,0.4-1.3,0.8-1.8c0.4-0.4,0.9-0.7,1.4-0.9c1.8-1.2,2.5-3.4,1.8-5.4c1.5-0.1,2.8-1.4,2.9-2.9
		c-0.1-0.7,0-1.3,0.1-2c0.3-0.6,1-0.9,1.4-1.5c0.7-0.9,0.4-2.2,0.3-3.3c-0.1-0.7-0.1-1.4,0-2.2c0.3-2.6,1.4-4.9,3.2-6.7
		c2.9-2.8,7-2.1,11-2.8c4-0.9,7.8-2.1,11.6-3.7c10.5-4.1,21.5-6.7,32.7-7.6c11.2-0.9,22.5,0.9,33,5.3c1.5,0.6,2.9,1.4,4.3,2.4
		c0.9,0.7,1.7,1.6,2.2,2.7c0.4,1.3,1,2.5,1.6,3.7c1.3,1.8,3.7,2.3,5.1,4c1.4,1.7,1.5,4.5,2.7,6.5c1.7,2.9,5.6,4.3,6.7,7.5
		c0.4,1,0.4,2.1,0.7,3.2c0.7,2.6,2.6,4.7,4.3,6.8c6.3,7.6,10.4,16.8,11.7,26.5c0.4-6.1,4.5-11.5,9.6-14.9c1.4-0.9,3-1.9,3.3-3.5
		c0.3-2.1-1.7-3.9-1.5-6c0.1-1,0.6-2,1.2-2.8c2.3-3.3,4.8-6.5,7.5-9.5c1.5-1.6,3.1-3.6,2.5-5.8c-0.5-1.6-2.1-2.5-3-3.9
		c-1.1-1.7-1-3.9,0.1-5.5c0.8-1.1,2.2-2,2.6-3.3c0.5-1.6-0.6-3.3-0.3-5c0.4-1.3,1.3-2.5,2.5-3.2c1.6-1.5,3.4-2.7,5.4-3.5
		c3.2-1.2,6.7-0.8,10.1-0.3c5.6,0.8,12,2,15.2,6.7C878.7,642.5,879.7,647,878.2,650.1z"/>
	<path class="st0" d="M904.3,642.4c-0.1,1.9-0.3,4-1.7,5.1c-1.3,0.8-2.8,1.2-4.2,1H898c0.5-2.5,3.5-3.9,4.1-6.5
		c0.2-1.6-0.3-3.2-1.3-4.4c-2.6-3.5-6.7-5.4-10.9-6.8c-11.7-4-24.1-4.9-36.3-2.7c-3.3,0.5-6.5,1.5-9.5,2.9c-1,0.6-2,1.3-2.9,2.1
		c-0.7-1.2-1.2-2.6-1.4-4c0-1.4,0.5-2.8,1.4-3.9c2-2.4,4.8-3.8,7.9-4.1c3-0.2,6.1-0.1,9.1,0.5l29.7,4.3c2.3,0.3,4.6,0.7,6.8,1.2
		c2.1,0.4,4.2,1.3,5.9,2.6C904.2,632.7,904.5,637.9,904.3,642.4z"/>
	<path class="st0" d="M776,790.7c-1.8,7-7.3,12.4-10.1,19c-4.2,9.9-2.3,22.1-8.3,31.1c-1.9,2.7-4.3,5.1-7,7.2
		c-1.5,1.3-3.1,2.3-4.8,3.2c-1.8,1-3.9,1.2-5.9,0.7c-2.5-0.9-4.1-3.6-4.3-6.3c-0.1-0.9-0.1-1.7,0-2.6l0.1,0.2c1,2.5,2.8,5.2,5.5,5.6
		c2,0.1,4.1-0.6,5.6-2c4-3.2,6.3-8,8.5-12.6c1.7-3.3,3.1-6.8,4.1-10.4c0.5-2.1,0.7-4.1,1.2-6.2c2.3-10,10.1-18.1,11.8-28.2
		c0.1-0.7,0.2-1.4,0.1-2.1c-0.2-0.9-0.6-1.8-1-2.6c-0.4-0.9-0.7-1.9-0.9-2.9c2.4,0.9,5,2.2,5.7,4.6
		C776.5,787.9,776.4,789.4,776,790.7z"/>
	<path class="st0" d="M757.7,773.4c-1.1,2.9-3,5.5-5.4,7.4c-3.4,2.6-7.5,4.4-11.7,5.1c-2,0.5-4.1,0.5-6-0.1
		c-2.7-0.9-4.6-3.4-7.3-4.2c-2-0.5-4.1-0.1-6-0.3c-3.6-0.5-6.3-3.2-9.2-5.4c-8.8-6.6-20.3-8.7-29.1-15.4c-0.4-0.2-0.7-0.6-0.9-1
		c-0.2-0.4-0.2-0.9-0.2-1.4c0-4,0.9-8,2.6-11.6c1.4-2.5,3.1-4.9,5-7.1c7.9-9.6,15.8-19.4,25.2-27.5c4-3.4,8.3-6.6,13.3-8.1
		c2.8-0.9,8.2-1.7,11.6-0.2c-0.5,0.3-0.9,0.7-1.3,1.2c-1.1,1.5-1.9,3.2-2.4,4.9c-5,13.2-18.6,20-29.5,28.9l-9.9,8.2
		c-1.4,1.1-2.8,2.8-2.2,4.4c0.5,0.8,1.2,1.5,2.1,1.8c5.8,2.8,12.5,4,17.3,8.3c1.7,1.6,3.4,3.7,5.8,3.8c1.2-0.1,2.5-0.3,3.6-0.8
		c3.7-1,7.6-0.2,10.6,2.1c0.8,0.9,1.8,1.6,2.9,2.1c0.9,0.2,1.8,0.3,2.7,0.2c2.6-0.2,5.3-0.4,7.6,0.7c2.3,1.1,4.2,3.8,6.9,4
		C754.9,773.7,756.5,773.3,757.7,773.4z"/>
	<path class="st4" d="M646.8,609.7c-2.3,1.5-4.7,3.1-5.7,5.7c-0.8,2.1-0.4,4.5-1.3,6.5s-3,3.4-3.5,5.6c-0.3,1.6,0.3,3.2,0,4.8
		c-0.3,0.8-0.5,1.7-0.7,2.5c-0.1,1.8,1.4,3.3,2.9,4.3c6.5,4.2,14.6,5.1,21.9,2.4c3.2-1.2,6.1-3.2,9.2-4.7c3-1.7,6.5-2.6,9.9-2.4
		c2,0.2,3.9,1,5.9,1.2c2,0.4,4.1-0.2,5.5-1.6c0.6-0.9,1-1.8,1.2-2.9c1.7-6.6,0.9-13.6-0.7-20.3c-1.6-6.6-4-13.1-5.7-19.7
		c-1.2-4.9-2.1-9.9-4.1-14.6c-2-4.6-5.4-9-10.1-10.7c-0.4-0.2-0.8-0.2-1.2-0.1c-0.3,0.1-0.6,0.3-0.8,0.6c-3.8,4-6.6,8.7-8.3,13.9
		c-1.9,5.8-2.4,11.9-4.1,17.7c-0.7,2.4-1.7,5.6-3.6,7.5C651.7,607.1,649,608.3,646.8,609.7z"/>
	<path class="st0" d="M692.3,631.1c-0.2,1-0.6,2-1.3,2.9c-1.5,1.4-3.5,2-5.5,1.6c-2-0.2-3.9-1-5.9-1.2c-3.5-0.2-6.9,0.7-9.9,2.4
		c-3.1,1.5-6,3.5-9.2,4.7c-4.7,1.8-9.8,2.1-14.6,0.8c-2.6-0.6-5-1.7-7.2-3.2c-1.5-1-3.1-2.4-2.9-4.3c0.2-0.8,0.4-1.7,0.7-2.5
		c0.3-1.6-0.3-3.2,0-4.8c0.5-2.2,2.6-3.6,3.5-5.6c0.9-2,0.6-4.4,1.3-6.5c0.9-2.6,3.4-4.2,5.7-5.7c2.3-1.5,5-2.6,6.8-4.4
		c0.3-0.3,0.5-0.5,0.7-0.8c1.3-2,2.3-4.3,2.9-6.6c1.8-5.8,2.3-11.9,4.1-17.7c1.7-5.2,4.5-9.9,8.3-13.9c0.2-0.3,0.5-0.5,0.8-0.6
		c0.4-0.1,0.8,0,1.2,0.1c4.7,1.8,8.1,6.1,10.1,10.7s2.9,9.6,4.1,14.6c1.7,6.6,4.1,13,5.7,19.7C693.3,617.4,694,624.4,692.3,631.1z"
		/>
	<path class="st0" d="M728.2,484c-11.7,3.7-24.4-2-29.4-13.3c0.1-1.1,0.3-2.3,0.5-3.4c1.2-5.5,6.4-3.5,10.4-2.1
		c4.9,1.6,9.7,3.6,14.2,6.1c1.4,0.7,2.6,1.7,3.5,3C729.2,477.1,728.5,480.6,728.2,484z"/>
	<circle class="st7" cx="720.9" cy="459.8" r="24.1"/>
	<path class="st0" d="M786.3,640c0,2-2.7,2.6-4.7,2.5c-7.2-0.4-14.3-2.4-21.5-1.8c-9.1,0.8-17.4,5.8-26.5,6.3
		c-3.5,0.2-7.1-0.3-10.5,0.3c-4.5,0.8-8.4,3.5-13,3.9c-3.9,0.3-7.8-1.1-11.8-1c-2.7,0.2-5.4,0.9-7.8,2.2c0.3-2.6,1.4-4.9,3.2-6.7
		c2.9-2.8,7-2.1,11-2.8c4-0.9,7.8-2.1,11.6-3.7c10.5-4.1,21.5-6.7,32.7-7.6c11.2-0.9,22.5,0.9,33,5.3c1.5,0.6,2.9,1.4,4.3,2.4
		C786.3,639.6,786.3,639.8,786.3,640z"/>
	<path class="st9" d="M709.7,503.8l-9.8-3.6l-4.1-1.5c-1.7-0.7-3.4-1.2-5.3-1.4c-4.7-0.4-9.2,2.8-11.7,6.8c-2.5,4-3.5,8.8-4.3,13.5
		c-1.1,6.4-2.1,12.8-2.8,19.2c-0.8,5.8-1.3,11.7-1.3,17.5c0.3,14.9,3.4,29.7,6.9,44.2c1.7,6.4,3,13,3.8,19.6
		c0.3,2.7,0.4,5.5,0.7,8.2c0.3,3.1,0.8,6.1,1.3,9.2l2.9,17.3c3.6-2.6,7.7-4.8,12.2-5c3.9-0.1,7.9,1.3,11.8,1c4.5-0.4,8.5-3.1,13-3.9
		c3.4-0.6,7-0.1,10.5-0.3c9.1-0.5,17.4-5.5,26.4-6.3c7.2-0.6,14.3,1.4,21.5,1.8c2,0.1,4.7-0.5,4.7-2.5c0-1.4-1.4-2.3-2.6-3
		c-5.7-3.5-11.2-7.4-16.3-11.7c-4.8-3.8-9.6-7.6-12.8-12.7c-7.9-12.2-5.2-28.8-11.9-41.7c-5.5-10.5,0-24.3,0-36.1
		c0-5.9,0-11.9-1.4-17.6c-0.9-3.2-1.9-6.3-3.2-9.4l-4.7-11.9c-0.1-0.3-0.3-0.7-0.6-0.9c-0.3-0.2-0.7-0.3-1.1-0.3
		c-2.8-0.2-5.6,0.7-7.8,2.5c-2.2,1.8-3.6,4.4-5.8,6.3C715.8,503.1,712.7,504.9,709.7,503.8z"/>
	<path class="st4" d="M725.5,497c0.8-3.3,1.6-6.8,3.8-9.3s6.2-3.9,9.1-2.1c3.2,2.1,3.4,6.9,6.1,9.6c2.4,2.3,6,2.5,9.3,2.8
		c5.9,0.5,11.7,1.9,17.2,4.1c1.1,0.3,2.1,0.9,2.9,1.7c1.5,1.7,1.2,4.3,2,6.5c1,2.7,3.9,4.5,5,7.2c1.2,3,0,6.4-1,9.6
		c-1.8,5.6-3,11.4-4.7,17.1c-1.8,5.6-4.3,11.2-8.4,15.4c-1.8,1.9-4.6,3.6-7,2.5l-0.9,6.7c-0.3,1.4-0.3,2.9,0,4.3
		c0.3,1.4,1.4,2.6,2.8,3c0.2,1,1.3,1.5,2.2,2.1c2.7,1.9,3.5,5.6,1.6,8.4c0,0,0,0,0,0.1c-0.8,1-1.9,1.8-2.2,3.1
		c-0.5,1.8,0.7,3.6,2.3,4.6c1.6,1,3.4,1.4,5,2.3c3.3,1.9,5.1,5.7,6.2,9.3c0.8,2.7,1.5,5.7,3.6,7.7c0.8,0.8,1.7,1.4,2.5,2.1
		c1.3,1.5,2.1,3.5,2.2,5.5c0.3,2.5-0.2,5.1-1.6,7.2c-2.4,3.5-6.9,4.5-10.9,6c-6.4,2.6-11.7,7.3-17.3,11.3c-2.3,1.9-5,3.1-7.9,3.7
		c-3.9,0.5-7.8-1.2-11.7-1.4c-2.4,0-4.7,0.3-7,0.9l-7.2,1.6c0.4-5.6-2.7-11.2-4.4-16.6c-3.3-10.1-3.9-20.8-3.1-31.4
		c0.8-10.5,2.9-20.9,5-31.3c1.5-7.2,1.3-14.8,3.6-21.8c2.1-6.8,5.2-13.3,6.3-20.3C730.5,517.9,722.9,508.2,725.5,497z"/>
	<path class="st4" d="M780.4,519.3c0.7,1.2,1.1,2.5,1.4,3.9c0.6,2.1,1.6,4.1,3.1,5.7c1.2,1.1,2.3,2.3,3.2,3.6c1.1,2.1,0.7,4.7,1.2,7
		c0.6,2.5,2.4,4.7,2.6,7.2c0,0.7,0.1,1.5,0.2,2.2c0.8,2.9,5.1,3.6,6,6.5c0.6,1.9-0.5,4-0.3,5.9c0.1,0.6,0.2,1.3,0.1,1.9
		c-0.3,0.7-0.7,1.3-1.4,1.8c-4,3.8-6.7,8.7-7.9,14.1c-1.2,5.4-1.8,10.8-1.8,16.3l-4.7-6.2c-0.5-0.8-1.1-1.4-1.9-1.9
		c-0.6-0.4-1.3-0.5-1.9-0.9c-1.8-1-2.5-3.2-3.2-5.1c-1.9-5.3-4.8-10.3-8.4-14.6c-1.9-2.2-4.1-4.5-4.6-7.5c-0.1-1.3-0.1-2.7,0.2-4
		c1.2-7.9,2.5-16,6.3-23c1.8-3.3,4.1-6.2,5.8-9.6C775.6,520.5,777.3,514.7,780.4,519.3z"/>
	<path class="st4" d="M661.4,526.9c0,1-0.2,2-0.7,2.9c-0.9,1.1-2.4,1.6-3.8,1.3c-1.4-0.3-2.7-1-3.8-1.8c-3.4-2.1-6.7-4.2-10.1-6.4
		c-1.9-1.1-3.7-2.4-5.4-3.7c-2.6-2.2-5-4.7-7.2-7.5c-5.9-7.2-11-15.1-17.6-21.8c-1.8-1.8-3.6-3.5-5.3-5.4c-2.3-2.7-4.5-5.6-6.4-8.7
		c-1.9-2.8-3.8-5.9-3.5-9.2c0.2-1.9,1.1-3.6,1.4-5.5c0.3-1.9-0.4-4.1-2.3-4.7c-0.2-0.1-0.4-0.1-0.7-0.1c-0.4,0-0.7-0.1-1-0.2
		c-1.7-0.7-1.4-3.3-0.2-4.7c1.2-1.4,3-2.1,4.1-3.6c0.5-0.9,1.1-1.7,1.7-2.5c0.8-0.7,1.8-1.2,2.8-1.4c7-2,14.3-2.3,21.4-0.8
		c1.2,0.3,2.6,0.7,2.9,1.9c0.1,0.6,0.1,1.2,0,1.7c-0.5,2.4-0.8,4.8-0.9,7.2c0,0.5,0,1,0.1,1.5c0.6,5.1,3.9,9.4,7.1,13.4
		c3.8,4.8,7.7,9.5,11.6,14.2c2.1,2.7,4.5,5.2,7.1,7.5c2.4,2,5.5,3.6,7.4,6.2c1.5,2.1,1,4.9,1.2,7.4
		C661.8,511.8,661.9,519.3,661.4,526.9z"/>
	<path class="st7" d="M814.5,577.2c1.2-1.2,2.3-2.4,3.2-3.8c1-1.7,1.8-3.5,2.4-5.4l7-19.8c1.1-3.1,2.2-6.3,3.6-9.3
		c1.4-3.3,3.2-6.5,4.7-9.7c4.1-8.4,7.2-17.1,9.4-26.2c0.4-1.2,0.5-2.6,0.4-3.8c-0.3-2.1-1.9-3.7-3.4-5.2c-1.5-1.6-3.2-3.1-5.1-4.3
		c-1.9-1.2-4.2-1.6-6.4-1c-3.1,0.9-5,4.1-5.7,7.2c-0.7,3.2-0.4,6.4-0.7,9.6c-0.4,4.6-2,9.1-2.4,13.7c-0.2,2.7,0,5.4-0.3,8.1
		c-0.6,3.5-1.8,6.9-3.6,10c-3.9,7.3-9.2,13.9-15.5,19.2c-1.7,1.3-3.3,2.8-4.7,4.5c-1.1,1.7-1.9,3.6-2.3,5.6c-0.8,3.1-0.5,6.3,1,9.1
		c2,3.3,5.7,4.8,9.3,5.6C810.1,582.3,811.2,580.6,814.5,577.2z"/>
	<path class="st4" d="M721,424.8c2.1-4,6.4-6.3,10.9-5.9c4.5,0.8,8.2,4.1,9.5,8.5c0.6,1.8,0.8,3.8,1.8,5.3c1.5,2.3,4.3,3,6.3,4.7
		c2.5,2.3,4,5.6,4.1,9c0.1,3.5-0.4,6.9-1.6,10.2c-0.5,1.4-0.9,2.8-1.2,4.2c-0.2,1.4-0.3,2.8-0.5,4.2c-0.5,3.7-2.5,7-5.5,9.2
		c-0.4,0.4-0.9,0.5-1.5,0.5c-0.9-0.1-1.5-1.2-1.9-2.2c-1.9-5.5-1.5-12.3-5-16.7c-1.6-1.8-3.6-3.3-5.7-4.3c-0.9-0.6-1.9-0.9-2.9-1.1
		c-1.5,0.1-3,0.6-4.2,1.5c-2.6,1.7-5.4,2.9-8.3,3.7c-3,0.7-6.2,0-8.6-1.9c-1.7-1.4-2.9-3.4-4.7-4.5c-1.8-1.1-3.8-1-5.6-1.7
		c-4.2-1.8-6.1-6.7-4.3-10.9c0.3-0.6,0.6-1.2,1.1-1.8c1.2-1.5,3-2.3,4.1-3.9c1.4-2.1,1.3-4.9,1.9-7.4c0.8-3.2,3.1-5.8,6.1-7
		c3-1,6.3-0.3,8.6,1.8c1.2,1.1,2.2,2.5,3.4,3.6c2.4,2.3,5.7,3.2,8.9,2.4"/>
	<path class="st0" d="M740.9,602.3c-1.4,1.3-1.9,3.3-1.3,5.1c0.3,0.6,12.7-1.8,14-2c3.3-0.5,9-0.2,11.2-3.2c3.9-5.3-8.2-4.1-10.5-4
		C750.1,598.7,744.1,599.2,740.9,602.3z"/>
	<path class="st4" d="M627.7,446.7c-0.5,2.4-0.8,4.8-0.9,7.2c-3.6,0.7-7.4-0.5-10.9-1.7l-10-3.4c-1.3-0.8-2.9-0.5-3.8,0.7
		c-1.6,1.7-3.8,4.8-6,6.7c-0.4,0-0.7-0.1-1-0.2c-1.7-0.7-1.4-3.3-0.2-4.7c1.2-1.4,3-2.1,4.1-3.6c0.5-0.9,1.1-1.7,1.7-2.5
		c0.8-0.7,1.8-1.2,2.8-1.4c7-2,14.3-2.3,21.4-0.8c1.2,0.3,2.6,0.7,2.9,1.9C627.9,445.5,627.8,446.2,627.7,446.7z"/>
	<path class="st0" d="M627.7,446.7c-0.5,2.4-0.8,4.8-0.9,7.2c-3.6,0.7-7.4-0.5-10.9-1.7l-10-3.4c-1.3-0.8-2.9-0.5-3.8,0.7
		c-1.6,1.7-3.8,4.8-6,6.7c-0.4,0-0.7-0.1-1-0.2c-1.7-0.7-1.4-3.3-0.2-4.7c1.2-1.4,3-2.1,4.1-3.6c0.5-0.9,1.1-1.7,1.7-2.5
		c0.8-0.7,1.8-1.2,2.8-1.4c7-2,14.3-2.3,21.4-0.8c1.2,0.3,2.6,0.7,2.9,1.9C627.9,445.5,627.8,446.2,627.7,446.7z"/>
	<path class="st0" d="M718.9,675.7c1.7,0.6,3.6,1.4,4.2,3.2l-14-3.6l-7.2-1.8c-1.3-0.3-5.9-0.7-6.7-1.7c-1.2-1.5,3.1-0.4,3.8-0.3
		c2.3,0.3,4.7,0.7,7,1.1C710.4,673.4,714.6,674.7,718.9,675.7z"/>
	<path class="st0" d="M724.3,688.1c-1.2-0.8-4.7-0.7-6.2-1.1c-2.2-0.5-4.3-1.2-6.4-1.9c-4.3-1.4-8.6-3-13.1-4
		c-0.8-0.2-3.6-0.2-3.5-1.3c0.1-1,2.8-1.4,3.5-1.4c3.9-0.3,8.9,1.6,12.5,2.9C715.8,682.9,720.2,685.2,724.3,688.1z"/>
	<path class="st0" d="M715.4,664.7c-4.4-1.2-8.4-3.9-13-4.5c-1.2,0-2.4-0.3-3.3-1c-0.5-0.5-0.9-1.2-1.1-1.9c3.1-0.2,6.6,1.1,9.4,2.4
		c1.5,0.7,3,1.4,4.4,2.3C712.8,662.6,714.3,664.4,715.4,664.7z"/>
	<path class="st4" d="M799.8,556.7c-1.5,10.4,4.8,20.3,14.8,23.3c-0.6,2.9-3.5,4.4-5.6,6.5c-2.9,2.9-4.5,7.1-7.9,9.3
		c-3.9,2.4-8.9,1.5-13.3,0.5c-0.4,0-0.8-0.2-1-0.5c-0.1-0.1-0.2-0.3-0.2-0.5c-1.5-5.4-2.4-11.1-0.9-16.4c1.2-4.6,4.1-8.4,6.4-12.5
		C794.3,562.3,794.6,558,799.8,556.7z"/>
	<path class="st4" d="M692,487.6c-4.7,0.3-9.2,1.7-13.3,4c-2.7,1.6-5.5,3.6-8.6,3.2c-1.8-0.2-3.6-1.2-5.4-0.7c-1,0.4-1.9,1-2.8,1.6
		c-0.9,0.7-2,0.9-3,0.5l-1.2,16.7c-0.5,6.4-0.9,12.8,0.6,19c0.8,3.1,2.5,6,2.7,9.2c0.2,3.2-0.1,6.5,0.1,9.7c0.2,3,0.9,6,1,9
		c0.3,5.7-1.1,11.3-2.4,16.8c-2,8.1-3.3,16.4-7.2,23.8c-1.1,2-2.4,4.1-2.4,6.4c0,0.3,0,0.6,0.1,0.8c-1.2,0.7-2.3,1.3-3.4,1.9
		c-2.3,1.5-4.7,3.1-5.7,5.7c-0.8,2.1-0.4,4.5-1.3,6.5c-0.9,2-3,3.4-3.5,5.6c-0.3,1.6,0.3,3.2,0,4.8c-0.3,0.8-0.5,1.7-0.7,2.5
		c-0.1,1.8,1.4,3.3,2.9,4.3c2.2,1.5,4.7,2.5,7.2,3.2l7.3-28.6l0,0c6.5-12.1,12-24.8,16.3-37.9c1.2-4.3,2.8-8.5,4.7-12.5
		c1.4-2.3,2.6-4.7,3.6-7.1c1.1-3,1.2-6.3,1.7-9.5c0.6-3.7,1.6-7.4,2.8-11c1.3-3.9,2.8-7.7,3.1-11.8c0.4-5.8-1.7-11.9,0.5-17.3
		c1-2,2.2-3.9,3.7-5.5c3.1-3.8,5.9-7.8,9.1-11.6C697.1,487.6,694.4,487.4,692,487.6z"/>
	<g class="st10">
		<path d="M726,420.9l-1.5,0.1l-0.2,0.1C724.9,421.1,725.4,421,726,420.9z"/>
		<path d="M753.6,445.9c-0.3,2.4-0.8,4.8-1.5,7c-0.5,1.4-0.9,2.8-1.2,4.2c-0.2,1.4-0.3,2.8-0.5,4.2c-0.5,3.7-2.5,7-5.5,9.2
			c-0.4,0.4-0.9,0.5-1.5,0.5c-0.9-0.1-1.5-1.2-1.9-2.2c-1.9-5.5-1.5-12.3-5-16.7c-1.6-1.8-3.6-3.3-5.7-4.3c-0.9-0.6-1.9-0.9-2.9-1.1
			c-1.5,0.1-3,0.6-4.2,1.5c-2.6,1.7-5.4,2.9-8.3,3.7c-3,0.7-6.2,0-8.6-1.9c-1.7-1.4-2.9-3.4-4.7-4.5c-1.8-1.1-3.8-1-5.6-1.7
			c-2.3-1-4-3-4.7-5.4c0-0.1-0.1-0.3-0.1-0.5c-0.3,1.3-0.3,2.7,0.1,4.1c0.7,2.4,2.4,4.4,4.7,5.4c1.8,0.7,3.9,0.7,5.6,1.7
			c1.7,1,3.1,3.1,4.7,4.5c2.5,1.9,5.6,2.6,8.6,1.9c3-0.7,5.8-2,8.3-3.7c1.2-0.9,2.7-1.5,4.2-1.5c1,0.1,2,0.5,2.9,1.1
			c2.2,1,4.1,2.5,5.7,4.3c3.5,4.4,3.1,11.2,5,16.7c0.3,1,0.9,2.1,1.9,2.2c0.5,0,1.1-0.2,1.5-0.5c3-2.2,5-5.5,5.5-9.2
			c0.2-1.4,0.2-2.8,0.5-4.2c0.3-1.4,0.7-2.9,1.2-4.2c1.2-3.3,1.7-6.7,1.6-10.2C753.6,446.2,753.6,446.1,753.6,445.9z"/>
	</g>
</g>
<g id="_x23_group_x28_have_x5B_woman_x28_stand_x2C_hold_x5B_balloon_x5D__x29__x2C_man_x28_sit_x29__x5D__x29_">
	<g>
		<g>
			<path class="st1" d="M711.8,568.7c-14.3,14.5-49,26-63.5,11.6c-14.5-14.4-3.3-49.1,11-63.6c14.3-14.5,37.8-14.6,52.2-0.2
				C726.1,530.8,726.2,554.1,711.8,568.7L711.8,568.7z"/>
			<path class="st1" d="M648.4,585.3c-0.5-2.6-2.5-4.6-5-5l5-5l5,5L648.4,585.3z"/>
			<path class="st11" d="M650.8,583.2c-2.6-0.8-4.6-2.8-5.5-5.4l1-0.4c0.7,2.2,2.5,3.9,4.7,4.7L650.8,583.2z"/>
			<polygon class="st11" points="540.9,689.1 540.1,688.4 647,581.2 647.7,581.9 			"/>
			
				<ellipse transform="matrix(-0.7102 -0.704 0.704 -0.7102 828.1187 1425.6293)" class="st12" cx="707.5" cy="542.4" rx="7.8" ry="9.3"/>
			<path class="st1" d="M665,529.1c-9.6,18-39.5,39-57.5,29.4c-18-9.6-17.2-46.1-7.7-64.2c9.6-18,31.9-24.8,50-15.2
				C667.7,488.7,674.6,511.1,665,529.1L665,529.1z"/>
			<path class="st1" d="M608.9,563.4c-1.2-2.4-3.7-3.7-6.3-3.4l3.4-6.3l6.3,3.4L608.9,563.4z"/>
			<path class="st11" d="M610.7,560.5c-2.6,0-5.2-1.4-6.8-3.6l0.9-0.6c1.4,1.9,3.6,3.1,5.8,3.1V560.5z"/>
			<polygon class="st11" points="535.7,693.7 534.8,693.1 606.4,559.7 607.3,560.2 			"/>
			
				<ellipse transform="matrix(-0.8824 -0.4705 0.4705 -0.8824 991.9374 1258.5026)" class="st12" cx="653.2" cy="505.3" rx="7.8" ry="9.3"/>
			<path class="st1" d="M641.4,629.5c-14.3,14.5-49,26-63.5,11.6s-3.3-49.1,11-63.6c14.3-14.5,37.8-14.6,52.2-0.3
				C655.7,591.6,655.8,615,641.4,629.5L641.4,629.5z"/>
			<path class="st1" d="M577.9,646.1c-0.5-2.6-2.5-4.6-5-5l5-5l5,5L577.9,646.1z"/>
			<path class="st11" d="M580.4,644c-2.6-0.8-4.6-2.8-5.5-5.4l1-0.4c0.7,2.2,2.5,3.9,4.7,4.7L580.4,644z"/>
			
				<rect x="519.3" y="665.9" transform="matrix(-0.7042 0.71 -0.71 -0.7042 1415.755 743.057)" class="st11" width="67.6" height="1.1"/>
			
				<ellipse transform="matrix(-0.7102 -0.704 0.704 -0.7102 664.8056 1480.1354)" class="st12" cx="637" cy="603.2" rx="7.8" ry="9.3"/>
			<path class="st11" d="M491.2,473.3c-10.9-18.3-32.3-19.2-32.3-19.2s-20.9-2.6-34.4,25.3c-12.5,26-29.8,51.2-2.7,57.3l4.8-15.1
				l3,16.3c3.8,0.3,7.7,0.4,11.6,0.2c28.9-0.9,56.5,0.3,55.6-10.1C495.6,514.1,501.6,490.9,491.2,473.3z"/>
			<path class="st11" d="M466.3,875.8c-0.9,4.2-2.6,8.2-2.7,12.5s2,9,6.1,10.3c1.9,0.5,4,0.5,5.9,0.1c2.2-0.3,4.5-0.6,6.1-2.1
				c2.3-2,2.6-5.5,2.6-8.6c0.1-15.3-1.7-30.6-3.7-45.7c0-0.3-9.9-0.5-11,0c-2.9,1.4-2.6,4.6-2.6,7.4
				C467,858.3,468.2,867.2,466.3,875.8z"/>
			<path class="st11" d="M398.8,875.8c0.9,4.2,2.6,8.2,2.7,12.5s-2,9-6.1,10.3c-1.9,0.5-4,0.5-5.9,0.1c-2.2-0.3-4.5-0.6-6.1-2.1
				c-2.3-2-2.6-5.5-2.6-8.6c-0.1-15.3,1.7-30.6,3.7-45.7c0-0.3,9.9-0.5,11,0c2.9,1.4,2.6,4.6,2.6,7.4
				C398.2,858.3,396.9,867.2,398.8,875.8z"/>
			<path class="st13" d="M432.2,640.7c4.8,2.3,10.3,2.6,15.7,2.6c11.9-0.1,23.6-1.8,35-5c2.2-0.5,4.3-1.4,6.2-2.6
				c0.5-0.3,0.9-0.6,1.1-1.2c0.1-0.4,0.1-0.8,0-1.3l-1.8-12.3c0.1-0.8-0.5-1.6-1.4-1.6c-0.2,0-0.4,0-0.5,0c-10,0-20.1,0.6-30.1,1.7
				c-5.1,0.5-10.1,1.3-15.1,2.1c-2.6,0.5-10.4,0.5-11.8,3.4c-0.8,1.7,0.8,4.7,1.2,6.3C431,633.9,431.6,640.4,432.2,640.7z"/>
			<path class="st4" d="M454.7,637.6c-8.5-0.3-16.9-2-24.8-5c-0.4-0.1-0.8-0.3-1,0c-0.1,0.2-0.2,0.3-0.2,0.5l-2,15.4
				c-2.1,16-7.7,31.8-11.3,47.5c-2.3,9.7-4.5,19.3-6.8,28.8c-2.4,9.8-4.8,19.5-8,29.1c-8.6,26.2-22,50.6-39.6,71.8
				c-2,2.5-4.2,5.3-3.8,8.4c0.5,4.1,5,6.2,8.9,7.7c-3.6,1.6-3.4,7.2-0.5,9.9s7.1,3.2,11,3.6l13.3,1.3c3.4,0.4,7,0.6,10.1-0.7
				c2-0.9,3.7-2.5,5.7-3.5c6.9-3.7,15.2-0.1,22.7,2.5c10.3,3.6,21.3,5.3,32.2,5c4.6-0.1,9.9-1.1,12-5.1c0.8-1.6,1-3.4,1.6-5
				c2.1-4.6,7.5-6.5,12-4.4h0.1c3.7,2,5.6,6.6,9.2,8.9c2.9,1.9,6.5,2.2,9.9,2.4l19.6,1.1c1.6-2.8,1.4-6.2-0.5-8.9
				c10.8,0.2,19.7-8.4,19.9-19.2c0.1-4.9-1.6-9.7-4.9-13.3c-2.7-3.1-4.8-6.8-5.9-10.9c-6.4-23.9-6.9-49-12.8-73
				c-1.2-4.8-2.6-9.6-3.3-14.5c-0.9-6.2-0.8-12.5-1.1-18.8c-0.5-14.8-3-29.4-7.4-43.4c-2.9-9.5-6.8-19-13.1-26.6
				c-1.6-2.1-3.6-3.7-5.9-4.9c-2.4-1-5.3-1-7.4,0.5c-1.2,0.9-1.9,2.3-3,3.4c-2.2,2.4-5.5,3.3-8.6,4.2
				C464.7,634.3,461.2,637.8,454.7,637.6z"/>
			<path class="st13" d="M400,634.7c-0.4,2-0.8,4-1.4,6c-2.7,12-5.7,24.1-8.6,36.1c-0.5,2.5-1.3,4.8-2.3,7.1
				c-1.8,3.8-5,6.8-7.1,10.5s-3,8.7-0.3,11.9c1.7,2.1,4.5,2.9,7.1,3.6c2.5,0.6,5.3,1.1,7.5-0.3c2.3-1.5,2.9-4.6,3.2-7.2
				c1.5-11.5,1.8-23.2,4.9-34.3c1.1-3.7,2.5-7.3,3.7-11l8-21.4c2-5.3,4-10.9,4-16.5c0.1-1.1-0.2-2.2-0.9-3c-0.5-0.4-0.9-0.5-1.5-0.7
				c-3.4-1.1-12.1-2-14.4,1.7c-1.1,1.8-0.5,6.1-0.8,8.2C401.1,628.6,400.6,631.7,400,634.7z"/>
			<path class="st13" d="M500.7,621.7c5.3,15.1,11.2,29.9,17.7,44.6c0.8,1.7,1.5,3.6,2,5.4c0.5,1.6,0.6,3.3,0.9,5
				c1.5,8.7,5.7,17.4,13.4,21.8c1.4,0.9,2.9,1.4,4.5,1.4c3.2-0.2,5.4-3.3,6.3-6.3c0.6-2.1,0.7-4.4,0.5-6.6c0-0.5-0.2-1.1-0.5-1.6
				c-0.4-0.4-0.8-0.6-1.4-0.8c-4.7-1.8-9.4-4.5-11.8-8.9c-1-2.2-1.7-4.6-2.1-6.9l-4.6-23.2c-0.5-2.7-1.1-5.5-1.8-8.2
				c-0.6-2.2-1.4-4.4-2.1-6.6l-5-14.4l-3.7-10.6c-0.1-0.8-0.8-1.5-1.7-1.4h-0.1H501C494,604.4,499.4,618.1,500.7,621.7z"/>
			<circle class="st13" cx="452.9" cy="496.3" r="23.5"/>
			<path class="st13" d="M440.6,524.8c-1.4,2.1-3.6,3.4-5.7,4.7c-4,2.6-8.1,4.7-12.5,6.5c-3.9,1.5-8.1,2.4-11.6,4.8
				c-3.6,2.6-5.9,6.6-7.1,10.8c-1.2,4.2-1.6,8.7-1.9,13.1c-0.1,0.9-0.1,1.8,0.2,2.7c0.5,1.3,1.8,2.1,3.2,2.6
				c6.6,2.9,13.9,3.3,21,3.7c14.3,0.5,28.7,0.6,43,0.7c5.6,0.4,11.1-0.5,16.3-2.7l9.9-3.6c1.4-0.5,2.7-1,3.9-1.8
				c4.2-3,4.3-9.1,3-14.1c-1-3.7-2.7-7.6-6-9.7c-1.9-1.1-3.9-1.8-6-2.4c-7-2.2-13.6-5.7-19.3-10.2c-1.4-1-2.6-2.3-3.6-3.7
				c-1.7-2.9-1.6-6.6-1.6-9.9c0.1-1.1-0.2-2.2-0.9-3c-0.7-0.5-1.6-0.7-2.4-0.7c-5.6-0.5-11.3-1-16.8,0.5c-3.4,0.8-3.7,1.1-3.7,4.4
				C442.2,519.8,442,522.6,440.6,524.8z"/>
			<polygon class="st11" points="486.4,471.5 465.1,460.3 435.8,464.9 429.8,491.7 444.8,491.2 449,481.3 449,491 456.1,490.7 
				460.1,475 462.6,491.7 487.4,491.2 			"/>
			<path class="st0" d="M461,572.1c-0.9-14.2-18.3-15.5-18.5-15.5v-0.5c0.2,0,15.7,1.1,18.6,13.1c0.4-4.5,2.2-12.8,9.7-13.1v0.5
				c-9.8,0.5-9.2,15.3-9.2,15.5H461z"/>
			<path class="st14" d="M455.9,567.9L403,557.5c-1-0.4-2.2,0.1-2.6,1.1c0,0.1-0.1,0.3-0.1,0.4l-1.9,4c-1.6,3.1-2.7,6.5-3,9.9
				l-1.2,8.9c-0.1,1.5-0.5,2.9-1.4,4.2c-0.5,0.6-1.3,1.1-2,1.5c-1.8,0.9-3.4,2.1-4.7,3.5c-1.3,1.6-1.9,3.7-0.9,5.6
				c1.5,2.8,5.7,2.7,8,5c2,2.1,1.6,5.7,0.5,8.3c-0.7,1.7-1.8,3.5-1.7,5.4c0.3,2.2,1.6,4,3.6,5c1.9,0.9,4,1.5,6.2,1.6
				c4.6,0.5,9.1,0.5,13.7,0.4c2.3,0,4.6-0.4,6.7-1.3c2.1-1,3.7-3,3.8-5.3c0.1-3.7-4.2-6.8-3.7-10.5c0-0.4,0.2-0.7,0.4-1
				c0.7-0.9,2.2-0.5,3.3-0.8c1.8-0.5,2.6-2.7,2.1-4.6c-0.5-1.8-1.6-3.3-2.5-4.9c-1.6-2.9-2.3-6.2-2-9.5c4.1,1-1.2,4.7-0.6,8.9
				c1.5,10.2,6,21.8,4.2,31.9c-0.3,0.9-0.2,1.9,0.3,2.7c0.4,0.4,0.8,0.6,1.4,0.7c6.8,2.1,13.9-0.7,20.8-2c4.8-0.8,9.8-1.2,14.7-1.1
				c7.2-0.1,14.5,0.2,21.7,0.6c1.8,0.1,3.7,0.3,5.4-0.5c1.6-0.8,2.8-2.8,2.1-4.5c5.7-0.1,11,3.5,16.7,3c6.1-0.5,10.8-5.5,14.8-10.1
				c1.1-1.1,1.9-2.5,2.3-3.9c0.3-1.7-0.5-3.4-1-5c-0.6-1.8-1.1-3.7-1.4-5.7c-0.3-1.2-0.1-2.5,0.4-3.6c0.7-1.3,2.3-1.8,3.1-3
				c1.7-2.4,0.1-5.8-2.2-7.6s-5.3-2.7-7.3-4.9c-2.8-3-3.2-7.4-3.9-11.4c-0.6-3.6-1.6-7.2-4-9.9c-2.4-2.7-6.4-4.3-9.8-2.9
				c-1,0.5-2,1-3,1.6c-2,0.9-4.1,1.6-6.3,2C479.8,562.4,468,570.4,455.9,567.9z"/>
			<path class="st15" d="M377.6,688.6c0,0,27.7,11.5,18.9,18.3s-27-8.1-26.4-10.1c0.6-2-2.7-6.8-2.7-6.8L377.6,688.6z"/>
			<path class="st16" d="M353.2,597.9l8.8,8.1l2,23.6l6.8,25c0,0,11.5,23.6,9.5,28.4c-2,4.7,2,6.1,2,6.1l-15.5,6.1
				c0,0-16.9-18.9-16.9-23S353.2,597.9,353.2,597.9z"/>
			<path class="st0" d="M353.2,597.9l8.8,8.1l2,23.6l6.8,25c0,0,11.5,23.6,9.5,28.4c-2,4.7,2,6.1,2,6.1l-15.5,6.1
				c0,0-16.9-18.9-16.9-23S353.2,597.9,353.2,597.9z"/>
			<path class="st16" d="M436.4,861.1c0,0-3.4,15.5-4,16.9s12.9,6.1,12.9,6.1l16.2-11.5c0,0-6.8-14.9-6.8-17.6L436.4,861.1z"/>
			<path class="st11" d="M347.8,689.9l4.7,5.4c0,0,98,12.1,100,31.1c2,19,16.2,127.9,8.1,130.6c-8.1,2.7-29,12.9-29,7.4
				c0-5.5-13.5-99.5-10.8-113c0,0-116.9-14.9-119.6-31.8c-2.7-16.9,2.7-24.4,2.7-24.4L347.8,689.9z"/>
			<path class="st0" d="M347.8,689.9l4.7,5.4c0,0,98,12.1,100,31.1c2,19,16.2,127.9,8.1,130.6c-8.1,2.7-29,12.9-29,7.4
				c0-5.5-13.5-99.5-10.8-113c0,0-116.9-14.9-119.6-31.8c-2.7-16.9,2.7-24.4,2.7-24.4L347.8,689.9z"/>
			<path class="st11" d="M435,876.6c0,0-2.7-6.1-4-4c-1.3,2.1-6.1,25.6-1.4,25.6c4.7,0,48,10.8,54,9.5c6.1-1.4,17.6,0.6,16.2-6.1
				c-1.4-6.8-8.1-7.4-8.1-7.4s-25-14.9-26.4-22.3s-8.8-3.4-8.8-3.4v4.7C456.6,873.2,442.5,884,435,876.6z"/>
			<path class="st15" d="M306.6,546.6c0,0,4.7,23-5.4,25c-10.1,2,12.9,15.5,12.9,15.5l14.9,8.1l10.8-10.8c0,0-9.8-19.9-2.4-34.8
				C344.7,534.8,306.6,546.6,306.6,546.6z"/>
			<path class="st15" d="M339.7,584.4l-10.8,10.9l-14.9-8.1c0,0-23-13.5-12.9-15.5c6.5-1.3,6.8-11.3,6.3-18.3
				c-0.2-2.3-0.5-4.6-0.9-6.8c0,0,38.1-11.9,30.8,3c-1.1,2.3-1.9,4.7-2.3,7.3C332.8,570.3,339.7,584.4,339.7,584.4z"/>
			<polygon class="st16" points="377.6,860.9 377.6,876.4 403.2,876.4 405.3,870.4 402.6,854.1 			"/>
			<path class="st11" d="M271.4,703.4c0,0,0,39.9,16.2,41.3c16.2,1.4,74.4,8.8,74.4,8.8s3.4,66.3,9.5,87.9c6.1,21.6,0.6,23,6.1,24.4
				s28.4-3.4,27.7-8.1c-0.6-4.7-3.5-124.5-3.5-124.5s6.1-25.6-75-37.9L271.4,703.4z"/>
			<path class="st11" d="M379.6,871.7c0,0-4-8.8-4.7-6.1s-8.8,26.4-0.6,28.4c8.1,2,33.8,12.9,50.7,12.1c16.9-0.7,18.9-1.4,18.9-1.4
				s4.7-6.8-1.4-10.8c-6.1-4-31.1-27.7-32.4-30.4c-1.3-2.6-11.5-4.7-11.5,0C398.5,868.4,384.3,877.8,379.6,871.7z"/>
			<path class="st0" d="M337.3,555.1c-1.1,2.3-1.9,4.7-2.3,7.3c-3.4,2-5.7,1.6-9.9,1.6c-6.3,0-8.8-8-12.9-12.1
				c-0.3-3.8-5.7,0.4-5.7,0.4S344.8,540.3,337.3,555.1z"/>
			<circle class="st15" cx="324.3" cy="536.7" r="25.9"/>
			<path class="st16" d="M362.1,606.1c0,0-3.4,24.4-5.4,33.1c-2,8.8-4.7,49.4-6.1,54.8s-9.5,6.8-25.6,4.7c-1-0.1-2-0.2-3.1-0.3
				c-9.9-0.3-21.4,3.4-32,6.4c-6.1,1.7-11.9,3.1-17,3.4c-7.7,0.4-9.9-8.2-9.7-17.4c0.3-8.6,2.6-17.8,4.9-21.1
				c4.1-5.8,0.1-58.5,1.6-75.9l0,0c0.3-2.6,0.5-4.5,1.1-5.2c4-5.4,30.4-18.9,33.4-18.3c2.9,0.5,28.1,16.3,28.1,16.3
				c6.1,0,5.9-6.6,5.9-6.6s4.3,7.9,12.3,9.9C358.5,591.9,362.1,606.1,362.1,606.1z"/>
			<path class="st15" d="M316.9,693.7c0,0,43.5,1.4,35.9,6.6c-7.7,5.2-41.4,9.9-42.1,3.1C310,696.5,316.9,693.7,316.9,693.7z"/>
			<path class="st0" d="M321.8,698.4c0.2,2.6-6.8,8.4-9.1,12.4c-1.3,2.2-11-0.7-22.9-6c-9.2-4.1-18.1-8.9-26.6-14.1
				c0.3-8.6,2.6-17.8,4.9-21.1c4.1-5.8,0.1-58.5,1.6-75.9l0,0c0.4-0.2,0.7-0.4,1.1-0.5h8.1c27.7,12.9-4,68.3-4,68.3
				s41.9,34.5,46,35.8C321.4,697.4,321.7,697.9,321.8,698.4z"/>
			<path class="st16" d="M278.9,589.2h-8.1c0,0-7.4,2-13.5,15.5c-6.1,13.5-28.4,55.4-8.8,71.6s61.5,35.1,64.2,30.4
				c2.7-4.7,12.1-12.1,8.1-13.5s-46-35.8-46-35.8S306.6,602.1,278.9,589.2z"/>
			<path class="st11" d="M320.4,524.7c0,0,1.1-15.7,15.1-9.3c14.1,6.4,13.1-11.2,8.9-14.4c-4.3-3.2-4.1-3.9-19.6-1.8
				c-15.5,2.1-45.5,5.7-35.9,36.8c9.7,31.1,18.5,23.1,18.5,23.1s-7.8-28,0.1-22.7l7.8,5.3l4.1-0.9L320.4,524.7z"/>
		</g>
	</g>
</g>
<g id="_x23_woman_x28_dance_x2C_cheers_x2C_hold_x5F_up_x5B_hands_x5D__x29_">
	
		<linearGradient id="SVGID_2_" gradientUnits="userSpaceOnUse" x1="38.5825" y1="283.7419" x2="293.4588" y2="283.7419" gradientTransform="matrix(1 0 0 -1 -19 906.98)">
		<stop  offset="0" style="stop-color:#808080;stop-opacity:0.25"/>
		<stop  offset="0.54" style="stop-color:#808080;stop-opacity:0.12"/>
		<stop  offset="1" style="stop-color:#808080;stop-opacity:0.1"/>
	</linearGradient>
	<path class="st17" d="M273.3,544.1c-2.6-0.9-18.2-13.2-19.4-18.8c-1.2-5.6,8.2-57.6,8.2-57.6s-0.9,0-2.3-0.2v-0.8l2-68.3
		c0,0,7.9-45.9-7.1-43.2s-5.6,43.2-5.6,43.2s-1.7,20.6-2.9,26.8c-1.1,5.9-6.4,30.2-2.8,37.7c0.1,0.3,0.3,0.5,0.4,0.8l0,0
		c0,0,0.6,25.9-5.9,29.4c-6.2,3.4-8.8,20.3-9,21.8l-0.3-0.1l0,0c-1.8-1.2-3.5-2.6-4.8-4.4c-0.1-0.2-0.2-0.4-0.4-0.6
		c8.7-9.8,8.4-24.8-0.7-34.2c-2-2.1-4.4-3.9-7.1-5.2c-0.1-2.2-0.6-4.3-1.5-6.3c-3-6.4-19.5-14.7-31.2-14.9
		c-5.4-0.2-9.9,1.4-11.5,5.6c-0.8,2.1-0.6,4.5-0.9,6.8c-0.7,4.6-3.6,8.2-7.4,11c-1.5-1.7-3.2-3.3-4.9-4.7
		c-3.8-2.9-11.5-12.6-11.5-12.6s-23.9-24.8-25.6-31.5c-1.8-6.8-25.6-47.3-30.9-40.3c-5.3,7.1,18.2,38,18.2,38s4.4,11.2,7.9,15
		s29.8,42,29.8,42l1.3,2.6c-5.6,2.9-10.7,6.7-12.5,12.5c-2.6,8.6,3.1,17.2,7.1,25.2c7.8,15.7,8.9,35.6-1.1,50
		c-8.9,12.7-24.5,18.7-39.1,24c7.1,5.5,15.8,8.4,24.8,8.2c-3.4,9.8-15.3,13-25.5,14.8c5.3,5.1,13,7,20.3,8.1
		c3.6,0.6,7.2,0.9,10.9,0.9h0.9l0.9-0.1c1.2-0.1,2.5-0.2,3.7-0.5c5.3-1.1,10.4-4,13.2-8.6c2.3-4,3.1-9.4,7.3-11.5
		c1.1-0.5,2.3-0.8,3.4-0.8h-0.1c0.8,0,1.6,0,2.4,0l17.4,0.2c0.7,0,1.5,0,2.2,0c4.9-0.1,10.1-1,12.6-5c1-2,1.6-4.1,1.6-6.4
		c0.4-5.5,0-11.1,0.1-16.7c1.5,10.1,3,25.8-0.7,31.6c-3,4.4-6.7,8.3-10.8,11.6c-1,0.9-2,1.9-2.8,2.9c-0.6,0.4-0.9,0.6-0.9,0.6
		l-0.4,1.1c-1.3,2-2.3,4.2-2.8,6.5c-0.2,0.6-0.3,1.2-0.2,1.8c0.4,0.8-2.9,4.2-1.9,5.6c-8.2,9.6-9.7,24.1-9.7,24.1l-14.9,22.6
		c-7.7,20.1-19.1,22.2-19.1,22.2s-26.9-18.1-27.7-19c-0.7-0.9-11-5.3-11-5.3c-1.2-2.1-3.1-3.8-5.3-4.9c-3.5-1.5-3.8-6.9-3.8-6.9
		c-0.4-12.8-7.9-13.8-7.9-13.8c-6.1-0.5-10.7,0.6-14.2,2.5l-1.1,0.1c-5.2,0.4-11.5,0.9-18.3,1.3c-19.1,1.3-23.7,13.7-23.7,13.7
		s-2.4,2.6,0.7,5.5s22.8,0,23.7-0.1c-1.5,0.2-3,0.1-4.5-0.3c3.1-0.1,7.4-0.2,11-0.2h0.9c-0.2,1.9-0.3,3.9-0.3,5.8
		c0,3.7,10.1,6,10.1,6L93,718.1c0,0,19.4,8.7,31.8,21.2c12.4,12.5,23.2,1.8,23.2,1.8c13.1-3.2,50.7-48.7,50.8-48.8l0,0
		c0,1.3,0.8,45.6,2.3,54.5l0,0c0.1,0.5,0.2,0.9,0.3,1.3c1.8,3.8-0.6,14.3-1.6,18.7c-0.7,3.7-0.9,7.4-0.7,11.2
		c0,0-14.1,53.9-12.9,58.6c1.2,4.7-7.6,26.8-7.6,26.8v18.3l1.5-0.1c-0.2,0.3-0.4,0.6-0.6,0.9l-0.1,0.2c0,0,9.4,2.1,15.7,1.5
		c6.3-0.6,17.2,4.9,17.2,4.9s3.7,1.7,15,2.5c11.3,0.7,11.3-5,11.3-5c-1.3-7.8-19.2-10.4-19.7-10.5c-1.4-0.9-2.8-1.9-3.9-2.8
		l-0.2-0.2c0.1-0.2,0.1-0.3,0.2-0.5c1.9-7.8-8.7-11.2-8.7-11.2v-1.9c6.9-3.5,8.2-27.8,8.2-27.8s10.3-30,11.8-35c1.4-5,0-12.5,0-12.5
		l1-6.5c0,0,2.2-4.4,2.2-5.3c0.3-2.2,1.1-4.4,2.5-6.2c1.6-1.9-1.8-6.5-1.8-6.5l2.9-7.6v-8.4l6.9-30.4c0,0,7.2-35.4,4.7-47
		c-2.5-11.6,2.9-17.5,2.9-17.5c-0.5,0.3-1,0.5-1.5,0.7c0.7-1.6,1.3-3.2,1.8-4.9l15.5,1.9v0.2h5.6c0,0-1.8-21.8-1.8-30.6
		c0-8.8,5.9-40.3,5.9-40.3S276,545,273.3,544.1z M204.6,518.7c0,0.9-0.1,1.8-0.1,2.7l-0.3,0.5l-0.6-0.5l-0.7,1.1l-0.2,0.1
		c-1.5-0.8-2.3-5.2-3.4-4.3l-0.1,0.1c-0.2-0.3-0.5-0.4-0.7-0.1l-0.2,0.2c0-0.3,0-0.7,0-1c2.1,0.5,4.3,0.8,6.4,0.8
		C204.6,518.4,204.6,518.5,204.6,518.7z M256.1,620.1h0.3l-0.6,1.4C255.9,621.1,256,620.6,256.1,620.1z M199.5,880.2l-2.1-0.5
		l1.1-0.2l1.1,0.7l0.1,0.1L199.5,880.2z M221.1,877.1c-0.7-0.4-1.4-0.8-2.1-1.2C219.7,876.3,220.4,876.7,221.1,877.1z"/>
	<polygon class="st18" points="263.7,598.4 249.8,634.6 253.2,634.6 240.1,645.1 263.7,648 	"/>
	<polygon class="st0" points="263.7,598.4 249.8,634.6 246.3,633.7 240.1,645.1 263.7,648 	"/>
	<polygon class="st18" points="241.9,621.6 263.7,621.6 271.7,555.8 241.9,555.8 	"/>
	<polygon class="st0" points="241.9,621.6 263.7,621.6 271.7,555.8 241.9,555.8 	"/>
	<path class="st19" d="M199.4,571.4l4.7-0.8l10.8-1.8c0,0,32.4-7.3,39.2-7.9c4.1-0.5,8-1.7,11.7-3.3c1.8-0.8,2.9-1.3,2.9-1.3
		L257,534.9l-18.1-13.4c0,0-11.5-2.4-16.3-9.2c-2.2-2.9-2.8-6.7-1.5-10.2c3-9.2-17.7,8.8-17.7,8.8s0.2,4.3,0,9.8
		c0,1.1-0.1,2.2-0.2,3.4c0,0.8-0.1,1.5-0.2,2.3c-0.5,5.4-1.5,11-3.6,14.4C194.4,548.9,199.4,571.4,199.4,571.4z"/>
	<path class="st0" d="M203.3,521.1h0.5c0.8,0,1.5-1.7,2.3-1.8c6.5-0.6,12.4-2,16.4-6.5c-2.2-2.9-2.8-6.8-1.5-10.2
		c3-9.2-17.7,8.8-17.7,8.8S203.6,515.6,203.3,521.1z"/>
	<path class="st19" d="M178.2,495.1c0,13.9,11.2,25.1,25.1,25.1c0,0,0,0,0,0c0.8,0,1.6,0,2.5-0.1c13.8-1.4,23.9-13.7,22.6-27.5
		c-1.4-13.8-13.7-23.9-27.5-22.6C188,471.4,178.2,482.2,178.2,495.1L178.2,495.1z"/>
	<path class="st4" d="M170.5,457c-0.8,2.1-0.6,4.5-0.9,6.8c-1.2,8.2-9.5,13-17,16.5c-7.5,3.4-16,7.5-18.3,15.3
		c-2.6,8.5,3.1,17.1,7.1,25.1c7.7,15.6,8.8,35.4-1.1,49.7c-8.9,12.6-24.3,18.6-38.9,23.9c7,5.5,15.7,8.4,24.6,8.2
		c-3.3,9.7-15.2,12.9-25.3,14.7c5.3,5.1,12.9,7,20.2,8.1c5.3,0.8,10.8,1.4,16.1,0.3c5.3-1.1,10.3-3.9,13.1-8.6
		c2.3-4,3.1-9.4,7.2-11.4c1.9-0.7,3.9-1,5.9-0.8l17.2,0.2c5.4,0,11.7-0.4,14.5-5c1-2,1.6-4.1,1.6-6.3c0.7-11.3-1.4-23.2,3.2-33.5
		c1.4-3.1-7.6-8-6.6-11.3c3.2-11.3,4-20.2,4-32c0-9.1,5.9-17,10.8-24.7c4.9-7.7,9-17.4,5.1-25.7C208.4,457,175.6,443.7,170.5,457z"
		/>
	<path class="st19" d="M193.4,876.9l4.4,2.9l0.7,0.4l0.1,0.1l5.2,3.4l12.1,2.1l10.7-0.7c0,0,3.1-6.4-1.8-6.3
		c-1.5-0.1-3.1-0.5-4.4-1.3c-0.2-0.1-0.4-0.2-0.7-0.3l0,0c-0.7-0.4-1.4-0.8-2.1-1.2l0,0l0,0c-1.4-0.9-2.8-1.9-3.9-2.7
		c-1.6-1.2-2.7-2.2-2.7-2.2L193.4,876.9z"/>
	<path class="st0" d="M197.8,879.8l0.7,0.4l0.1,0.1l5.2,3.4l12.1,2.1l10.7-0.7c0,0,3.1-6.4-1.8-6.3c-1.5-0.1-3.1-0.5-4.4-1.3
		c0.8,0.7,1.6,1.4,1.6,2c0.2,1.6-7.9,4.6-7.9,4.6l-11.5-3c0,0-1.9-0.6-4.6-1.2L197.8,879.8L197.8,879.8z"/>
	<path class="st4" d="M178.3,882.6c0,0,9.3,2.1,15.6,1.5c6.3-0.6,17.1,4.9,17.1,4.9s3.7,1.7,14.9,2.5c11.3,0.7,11.3-5,11.3-5
		c-1.3-7.8-19.1-10.3-19.6-10.4l0,0l0,0l0,0c0.2,0.1,1.1,0.6,2.1,1.2l0,0c1.3,0.8,2.6,1.9,2.7,2.8c0.2,1.6-7.9,4.6-7.9,4.6l-11.4-3
		c0,0-1.9-0.6-4.6-1.2l-0.3-0.1c-3.9-1.1-7.9-1.9-11.9-2.4c-4.9-0.5-7.4,3.7-7.9,4.6C178.4,882.4,178.3,882.5,178.3,882.6z"/>
	<path class="st19" d="M31,676.4l5,3.8l3.6-0.1h0.7c3.1-0.1,7.3-0.2,11-0.2c2.3-0.1,4.7,0,7,0.4c2.5,0.9,6.9-14.2,6.9-14.2l-5-1.1
		l-1.7-0.4l-1.1-0.3l-4-1L41,664.6l-8.7,5.5L31,676.4z"/>
	<path class="st0" d="M31,676.4l5,3.8l3.6-0.1c-1-0.4-1.8-1.1-2.3-2.1C34.1,669,50,665.2,50,665.2l7.4-0.3l1.4-0.1H60l-1.7-0.4
		l-1.1-0.3l-4-1l-12.3,1.4l-8.6,5.5L31,676.4z"/>
	<path class="st4" d="M21.2,680.4c3,2.8,22.7,0,23.5-0.1c-1.5,0.2-3,0.1-4.5-0.3c-1.5-0.3-2.7-1.2-3.4-2.5
		c-3.2-8.9,12.7-12.7,12.7-12.7l7.4-0.3l1.4-0.1l18-0.8l0.9-5c0,0-5.9,0.6-15.1,1.3c-5.2,0.4-11.5,0.9-18.3,1.3
		c-19,1.3-23.5,13.6-23.5,13.6S18.1,677.5,21.2,680.4z"/>
	<path class="st19" d="M241.9,465.1c0.1,0.3,0.3,0.5,0.4,0.8l4.4,6.4l11.4,1.1l0.1-4.5l1.9-68c0,0,7.9-45.6-7-43s-5.6,43-5.6,43
		s-1.7,20.5-2.9,26.6C243.6,433.5,238.4,457.6,241.9,465.1z"/>
	<path class="st19" d="M216.3,634l3.2,5.6l7.3,12.4c0,0,13.2,4.8,16.5,1.1c1.8-2,3.8-9,5.2-14.9c1.1-4.8,1.9-8.8,1.9-8.8L216.3,634z
		"/>
	<path class="st0" d="M216.3,634l3.2,5.6c0.2-0.2,0.4-0.4,0.6-0.6c3.7-4.7,19.8-1,28.5-0.7c1.1-4.8,1.9-8.8,1.9-8.8L216.3,634z"/>
	<path class="st0" d="M51.2,679.8c2.3-0.1,4.7,0,7,0.4c2.5,0.9,6.9-14.2,6.9-14.2l-6.7-1.6l18-0.8l0.9-5c0,0-5.9,0.6-15.1,1.3
		c-1.9,1.1-3.6,2.5-5,4.2l-0.3,0.3C53.2,669.2,51.7,675.3,51.2,679.8z"/>
	<path class="st0" d="M193.4,876.9l5.1,3.3c7.5-1.4,14.4-3.5,15.3-6.9c0-0.1,0-0.1,0-0.2c-1.6-1.2-2.7-2.2-2.7-2.2L193.4,876.9z"/>
	<path class="st0" d="M178.4,882.4c6.7-0.3,13.3-1,19.9-2.1c-3.9-1.1-7.9-1.9-12-2.5C181.5,877.2,178.9,881.4,178.4,882.4z"/>
	<path class="st4" d="M51.8,685.6c0,3.7,10.1,6,10.1,6l30.7,27.3c0,0,19.3,8.6,31.6,21.1c12.3,12.5,23.1,1.8,23.1,1.8
		c13-3.2,50.5-48.5,50.5-48.5s0.9,51.7,2.6,55.5c1.8,3.8-0.6,14.2-1.6,18.6c-0.6,3.7-0.9,7.4-0.7,11.1c0,0-14,53.6-12.9,58.3
		s-7.6,26.6-7.6,26.6v18.3c0,0,34.3-1.3,36.2-9.1c1.9-7.7-8.6-11.1-8.6-11.1v-1.9c6.9-3.5,8.2-27.6,8.2-27.6s10.2-29.8,11.7-34.8
		c1.5-5,0-12.4,0-12.4l1-6.4c0,0,2.2-4.4,2.2-5.3c0.3-2.2,1.1-4.3,2.5-6.1c1.6-1.9-1.8-6.4-1.8-6.4l2.9-7.6v-8.3l6.9-30.3
		c0,0,7.2-35.2,4.7-46.8c-2.5-11.5,2.9-17.4,2.9-17.4c-11.7,6.2-17.6-7.5-19.6-13.4c-0.5-1.5-0.7-2.5-0.7-2.5s-16.1-5.9-31.1-4.6
		c-3,0.3-6,0.9-8.9,1.9c-16.7,6-19.3,30.8-19.3,30.8l-14.8,22.5c-7.6,20-19,22.1-19,22.1s-26.7-18-27.5-18.9c-0.8-0.9-11-5.3-11-5.3
		c-1.2-2.1-3-3.8-5.3-4.8c-3.5-1.5-3.8-6.9-3.8-6.9c-0.4-12.7-7.9-13.8-7.9-13.8C51.6,655.2,51.8,681.9,51.8,685.6z"/>
	<rect x="200.6" y="565.1" class="st18" width="15.8" height="49"/>
	<rect x="200.6" y="565.1" class="st0" width="15.8" height="49"/>
	<path class="st0" d="M241.9,465c0,0,0,0.1,0,0.1c0.1,0.3,0.3,0.5,0.4,0.8l4.4,6.4l11.4,1.1l0.1-4.5
		C254.7,468.7,246.6,467.7,241.9,465z"/>
	<path class="st18" d="M242.4,465.9c0,0,0.6,25.7-5.8,29.2c-6.4,3.5-8.9,21.8-8.9,21.8s19.5,12.8,23.8,18.5
		c4.3,5.6,14.3,19.1,12.3,22.3c-2.1,3.2,5,17.8,5,17.8s-12.9,26.3-9.9,36.3s3.2,36.3,3.2,36.3h5.6c0,0-1.8-21.6-1.8-30.4
		s5.8-40,5.8-40s2.6-30.7,0-31.6c-2.6-0.9-18.1-13.2-19.3-18.7s8.2-57.3,8.2-57.3S248.5,469.4,242.4,465.9z"/>
	<path class="st0" d="M200.3,560.6c0.5,3.6,1.8,7,3.8,10l10.8-1.8c0,0,32.4-7.3,39.2-7.9c4.1-0.5,8-1.7,11.7-3.3
		c-2.6-9.1-7.6-17.3-14.5-23.8l-4.1-3.8c-3-2.8-6.3-5.3-9.8-7.6c-3.5-2.2-7.2-4.2-11-5.7c0.5,0.4,34.5,29.5,27.1,35.2
		c-7.5,5.7-27.5-8.2-27.5-8.2L203.1,524l-0.8-0.7l-1.3,2.1c0.7,0.3,1.3,0.6,2,1c7.8,4.3,13.6,11.4,16.1,20
		C223.7,562,200.3,560.6,200.3,560.6z"/>
	<path class="st20" d="M193.2,633.7c0,0,21.6,12,26.9,5.3c1.1-1.5,3.6-2.1,6.6-2.3c-0.5-1.5-0.7-2.5-0.7-2.5s-16.1-5.9-31.1-4.6
		C193.9,632.1,193.2,633.7,193.2,633.7z"/>
	<path class="st21" d="M203.2,523.3l23.6,20.3c0,0,20,13.9,27.5,8.2c7.5-5.7-27.1-35.2-27.1-35.2l0,0c7.7,3.2,14.7,7.7,20.8,13.3
		l4.1,3.8c10.8,10,13.3,10,13.6,24.8c0.1,3.6-1.1,8.9-2.1,9.8c-3.5,3.4-6,28.4-5.4,31.3c0.5,2.9-6.6,28.2-4.3,35.2
		c2.3,7-28.7-3.5-33.9,3.2c-5.2,6.7-26.9-5.3-26.9-5.3s12-30.7,14.9-32.7c2.9-2.1,6.4-17.8,0-25.1c-6.4-7.3-7-14.3-7-14.3
		s23.4,1.5,18.7-14.3c-2.7-9.2-9.2-16.9-18-20.9L203.2,523.3z"/>
	<path class="st0" d="M234.8,575.1c0,0-9.1,17.1-20.8,21.5c-0.4,0.1-0.7,0.3-1.1,0.4C200.6,600.7,235.7,580.3,234.8,575.1z"/>
	<path class="st19" d="M107.9,423.8c0,0,4.4,11.1,7.9,14.9c3.5,3.8,29.5,41.8,29.5,41.8l2.2,4.6l1.9,3.9l16.7-1.8l1.1-6.7
		c0,0-0.2-0.3-0.6-0.8c-1.7-2-6.2-7.4-9.3-9.7c-3.8-2.9-11.4-12.6-11.4-12.6s-23.7-24.6-25.4-31.3c-1.8-6.7-25.4-47-30.7-40.1
		S107.9,423.8,107.9,423.8z"/>
	<g class="st10">
		<path d="M156.2,604.6c-2-0.2-4,0.1-5.9,0.8c-4.1,2-4.9,7.4-7.2,11.5c-2.7,4.6-7.8,7.5-13.1,8.6c-1,0.2-2.1,0.4-3.2,0.4
			c3.4,0.3,6.7,0.2,10-0.4c5.3-1.1,10.4-3.9,13.1-8.6c2.3-4,3.1-9.4,7.2-11.5c1.1-0.5,2.3-0.8,3.4-0.8L156.2,604.6z"/>
		<path d="M197,516.6c0-9.1,5.9-17,10.8-24.7c4.9-7.7,9-17.4,5.1-25.7c-3.3-7.1-23.2-16.5-34.7-14.6c11.3,1.4,25.1,8.9,27.8,14.6
			c3.9,8.3-0.2,18-5.1,25.7c-4.9,7.7-10.8,15.6-10.8,24.7c0,11.8-0.8,20.6-4,32c-0.9,3.3,8,8.2,6.7,11.3
			c-4.7,10.3-2.5,22.2-3.2,33.5c0,2.2-0.6,4.4-1.6,6.3c-2.3,3.8-7,4.8-11.6,5h4c5.3,0,11.7-0.4,14.5-5c1-2,1.6-4.1,1.6-6.3
			c0.7-11.3-1.4-23.2,3.2-33.5c1.4-3.1-7.6-8-6.7-11.3C196.2,537.3,197,528.4,197,516.6z"/>
	</g>
	<path class="st0" d="M147.5,485.1l1.9,3.9l16.7-1.8l1.1-6.7c0,0-0.2-0.3-0.6-0.8C164.8,480.6,151.5,487,147.5,485.1z"/>
	<path class="st0" d="M209,529.1c0,0-4.1-6.4-6.4-4.7c-2.3,1.8-3.2-5.3-4.6-4.1c-1.3,1.2-5.3,4.4-6.9-0.1
		c-1.3-3.6-15.1-26.5-20.7-35.8l-2.4-3.9c0,0-15.8,7.9-19.6,5.3v5.6l3.2,0.3l17.2,32.1c0,0,5.4,8.6,5,11.6c-0.4,3,6.9,16.2,8.1,17
		c1.2,0.9,13.8,15.5,13.8,15.5s6.4,31.6,0.9,40.3s-15.2,15.2-15.2,15.2s-2.9,8.5-2.5,9.4c0.4,0.9-3.4,4.7-1.6,5.8s4.1,9.4,4.1,9.4
		s8.2-13.2,12.6-15.2s10.1-28.9,10.1-28.9s1.6-15.9,1.7-26.1C206,567.5,205.5,529.1,209,529.1z"/>
	<path class="st18" d="M208.1,529.1c0,0-4.1-6.4-6.4-4.7c-2.3,1.8-3.3-5.3-4.6-4.1c-1.3,1.2-5.2,4.4-6.9-0.1
		c-1.3-3.6-15.1-26.5-20.7-35.8c-1.5-2.4-2.4-3.9-2.4-3.9s-15.8,7.9-19.6,5.3v5.6l3.2,0.3l17.2,32.1c0,0,5.4,8.6,5,11.6
		c-0.4,3,6.9,16.2,8.1,17s13.8,15.5,13.8,15.5s6.4,31.6,0.9,40.3c-2.9,4.4-6.5,8.4-10.6,11.7c-3.4,2.8-5.8,6.7-6.9,11
		c-0.2,0.6-0.3,1.2-0.2,1.8c0.4,0.9-3.4,4.7-1.6,5.8s4.1,9.4,4.1,9.4s8.2-13.2,12.6-15.2s10.1-28.9,10.1-28.9s1.6-15.9,1.7-26.1
		C205.2,567.5,204.7,529.1,208.1,529.1z"/>
	<path class="st0" d="M168.1,662.1c0,0,12.3,2.3,17.2,5.8c4.9,3.6-18.7-5.6-18.7-5.6L168.1,662.1z"/>
	<path class="st0" d="M197.6,693.2c0,0,12.8,10.7,10.5,20.3c-2.3,9.6-8.2,33.9-8.2,33.9L197.6,693.2z"/>
	<path class="st0" d="M85.6,672.6c0,0-18.1,2-16.9,4.3c1.2,2.3,16.9-2.2,16.9-2.2V672.6z"/>
	<path class="st0" d="M224.2,761.4c0,0,1.1,1.5-5.6,0s-1.8-6-1.8-6L224.2,761.4z"/>
	<path class="st0" d="M221.9,781.6c0,0-9.2,1.5-14.1,0C202.9,780.1,221.9,781.6,221.9,781.6z"/>
	<path class="st0" d="M203,860.5c0,0-1.6-1.8-9.6,1.5c-8,3.2-11.3,3.4-13.6,2.3C177.5,863.2,203,860.5,203,860.5z"/>
	<path class="st0" d="M212,670.1L200.6,686C200.6,686,206.7,672.1,212,670.1z"/>
	<path class="st0" d="M189.8,524.4c0,0-0.5,5.3-7.8,7.3c-7.4,2-8.8,3.7-8.8,3.7"/>
	<path class="st0" d="M170.7,486.2c0,0-9.7,6.9-19.8,5.4"/>
	<path class="st0" d="M178.1,633.5c0,0,2.8,1.8,9.6-6"/>
	<path class="st0" d="M248.7,551.1c0.3-1.4-0.7-2.7-1.6-3.9l-1.9-2.3c-0.4-0.5-0.8-0.9-1.3-1.3c-1.1-0.9-2.6-1.1-3.8-1.9"/>
</g>
</svg>
