<?xml version="1.0" encoding="utf-8"?>
<!-- Generator: Adobe Illustrator 19.0.0, SVG Export Plug-In . SVG Version: 6.00 Build 0)  -->
<svg version="1.1" id="图层_1" xmlns="http://www.w3.org/2000/svg" xmlns:xlink="http://www.w3.org/1999/xlink" x="0px" y="0px"
	 viewBox="0 0 1000 1000" style="enable-background:new 0 0 1000 1000;" xml:space="preserve">
<style type="text/css">
	.st0{opacity:0.1;fill:#6C63FF;enable-background:new    ;}
	.st1{fill:#6C63FF;}
	.st2{opacity:0.1;enable-background:new    ;}
	.st3{fill:url(#SVGID_1_);}
	.st4{fill:#7FB72B;}
	.st5{opacity:5.000000e-02;enable-background:new    ;}
	.st6{fill:#936868;}
	.st7{fill:#FEEA59;}
	.st8{opacity:5.000000e-02;}
	.st9{fill:url(#SVGID_2_);}
	.st10{fill:url(#SVGID_3_);}
	.st11{fill:url(#SVGID_4_);}
	.st12{fill:url(#SVGID_5_);}
	.st13{fill:url(#SVGID_6_);}
	.st14{fill:#EF91A3;}
	.st15{fill:#5D526E;}
	.st16{fill:#DFECFB;}
	.st17{fill:#572142;}
	.st18{fill:#FFC1CD;}
	.st19{fill:#5F5470;}
	.st20{fill:#FF808C;}
	.st21{fill:#B46D86;}
</style>
<g id="_x23_background">
	<path class="st0" d="M18.6,498c15.6,66.6,48.6,124.2,100.7,152.1c108.4,58,352.8,28.1,535.2-6.3c92.2-17.3,175.8-65.1,237.5-135.8
		L18.6,498z"/>
	<path class="st0" d="M975.1,184.4H875.1c-4.8,0-8.7-3.9-8.7-8.7c0-4.8,3.9-8.7,8.7-8.7h17.3c-4.8,0-8.7-3.9-8.7-8.7
		c0-4.8,3.9-8.7,8.7-8.7H880c-4.8,0-8.7-3.9-8.7-8.7c0-4.8,3.9-8.7,8.7-8.7h52.2c-11.6-5.4-25.1-9.2-40.7-11.2
		c-142.4-18.3-193.3-6.2-211.2,6.3c-22.1,15.4-46.8,26.6-73.2,32.1c-87.9,18.1-252.2,39.9-401.2-7c-74-23.3-129.1,16.1-162,82h948.7
		c-1.2-19.1-4.9-36.8-11.8-52.3C979.2,183.7,977.2,184.4,975.1,184.4z"/>
	<path class="st0" d="M10.1,358.9c-3.8,38.7-2.5,77.8,3.9,116.2l878.7,32.1c24.5-28.1,45-59.5,61.1-93.1L10.1,358.9z M357.7,441.9
		h-17.3c4.8,0,8.7,3.9,8.7,8.7c0,4.8-3.9,8.7-8.7,8.7H240.3c-4.8,0-8.7-3.9-8.7-8.7c0-4.8,3.9-8.7,8.7-8.7h17.3
		c-4.8,0-8.7-3.9-8.7-8.7c0-4.8,3.9-8.7,8.7-8.7l0,0h-12.4c-4.8,0-8.7-3.9-8.7-8.7c0-4.8,3.9-8.7,8.7-8.7l0,0h100.1
		c4.8,0,8.7,3.9,8.7,8.7c0,4.8-3.9,8.7-8.7,8.7h12.4c4.8,0,8.7,3.9,8.7,8.7C366.3,438,362.5,441.9,357.7,441.9L357.7,441.9z"/>
	<path class="st0" d="M992.6,235.2L33.2,258.5c-11.7,30-19.4,63.9-22.9,99.1h965.5c6.3-20.6,11-41.8,13.9-63.1
		C992.6,273.8,993.7,253.8,992.6,235.2z M205,311.7h-17.3c4.8,0,8.7,3.9,8.7,8.7c0,4.8-3.9,8.7-8.7,8.7H87.7c-4.8,0-8.7-3.9-8.7-8.7
		c0-4.8,3.9-8.7,8.7-8.7H105c-4.8,0-8.7-3.9-8.7-8.7s3.9-8.7,8.7-8.7H92.6c-4.8,0-8.7-3.9-8.7-8.7s3.9-8.7,8.7-8.7h100.1
		c4.8,0,8.7,3.9,8.7,8.7s-3.9,8.7-8.7,8.7H205c4.8,0,8.7,3.9,8.7,8.7S209.8,311.7,205,311.7z"/>
</g>
<g>
	<path class="st1" d="M290.6,322.1l-0.4,0.2c-18.3,8.6-34,21.5-46.2,37.7c-6.8,9-15.3,17.7-23.3,19.1
		c-17.8,3.1-148.4,139.1-117.1,265.6s214.5,131.7,214.5,131.7s39,6.6,61.3,19.8c10.5,6.2,23.3,7.4,34.9,3.3
		c26.6-9.4,70.3-23.2,90-19c29.3,6.2,280.2-98.3,280.2-98.3s-104.5-100.4-258.3-98.3c0,0-242.5-169.4-234.2-239.4L290.6,322.1z"/>
	<path class="st2" d="M290.6,322.1l-0.4,0.2c-18.3,8.6-34,21.5-46.2,37.7c-6.8,9-15.3,17.7-23.3,19.1
		c-17.8,3.1-148.4,139.1-117.1,265.6s214.5,131.7,214.5,131.7s39,6.6,61.3,19.8c10.5,6.2,23.3,7.4,34.9,3.3
		c26.6-9.4,70.3-23.2,90-19c29.3,6.2,280.2-98.3,280.2-98.3s-104.5-100.4-258.3-98.3c0,0-242.5-169.4-234.2-239.4L290.6,322.1z"/>
	<path class="st1" d="M290.8,321.9L265.7,346c0,0-19.1,37.2-36.2,40.2S87,519.7,117.1,641.2s205.9,126.5,205.9,126.5
		s36.6,6.2,58,18.6c10.5,6.2,23.3,7.4,34.8,3.4c25.6-9,67.1-22,85.8-18c28.1,6,269.1-94.4,269.1-94.4S670.3,581,522.7,583
		c0,0-233-162.7-224.9-230L290.8,321.9z"/>
	
		<ellipse transform="matrix(-0.7071 -0.7071 0.7071 -0.7071 181.1796 1285.7841)" class="st2" cx="356.9" cy="605.4" rx="144.2" ry="79.2"/>
	<path class="st2" d="M259.7,710.5c0,0,85.4-39.2,115.5-33.1"/>
	<path class="st2" d="M172.3,618.1c0,0,103.4-4,159.7,32.1"/>
	<path class="st2" d="M223.5,659.3c0,0,81.3-20.1,124.5-13.1"/>
	<path class="st1" d="M335.5,700c0,0,97.4-40.2,176.7-2l-19.1,40.2l-91.4,2L335.5,700z"/>
</g>
<g id="_x23_wild_x28_have_x5B_sunflower_x5D__x29_">
	<path class="st0" d="M540.1,681.6c-5.5,1.4-11.2-0.2-16.9-0.3c-5.7-0.1-12.3,2.3-13.6,7.8c-1.9,7.4,6.8,12.9,14.1,14.8
		c28.6,7.1,58.9-2.1,88.2,1.6c12.3,1.6,24.3,5.5,36.7,6.4c28.4,2.1,56.1-11.4,84.5-9.8c14.2,0.8,28.1,5.3,42.3,6
		c34,1.7,67.7-18.3,101-11.1c9.4,2,18.2,6.1,27.6,8.5c23.6,6,48.4,0.7,72.1-4.7c4.7-1.1,10.4-3.1,11-7.9c0.6-5.3-5.4-8.6-10.5-10.3
		c-55.3-18.5-114.5-28.3-172.2-19.7c-13.1,1.9-26.2,4.8-39.5,4.6c-29.4-0.4-56.4-15.7-85.2-21.3c-54.6-10.6-109.3,14.2-159.4,38.3"
		/>
	
		<linearGradient id="SVGID_1_" gradientUnits="userSpaceOnUse" x1="709.7303" y1="285.098" x2="709.7303" y2="793.6562" gradientTransform="matrix(1 0 0 -1 -33.33 964.06)">
		<stop  offset="0" style="stop-color:#808080;stop-opacity:0.25"/>
		<stop  offset="0.54" style="stop-color:#808080;stop-opacity:0.12"/>
		<stop  offset="1" style="stop-color:#808080;stop-opacity:0.1"/>
	</linearGradient>
	<path class="st3" d="M887.3,604.9c-2.7-3.2-5.8-6-9.1-8.5c0.7-0.5,1.4-1,2.1-1.5c8.7-6.5,16.2-13.1,17.8-17.9
		c4.3-12.7,48.2-35.8,48.2-35.8s-45,8.4-68.5-5.3c-14-8.2-35.7-9.6-50.9-9.4l0.1-0.3l0.2-0.5c0.1-0.3,0.2-0.5,0.4-0.8
		s0.2-0.4,0.3-0.6l0.1-0.2c0.2-0.3,0.3-0.6,0.5-0.9c0.4-0.7,0.9-1.5,1.3-2.2v0c1.2-1.9,2.6-3.7,4-5.4l0.1-0.1c1.1-1.4,2.3-2.8,3.5-4
		l0.1-0.1l0.8-0.9l0.1-0.1c1.1-1.2,2.3-2.3,3.4-3.4l0.3-0.2l0.7-0.6l0.3-0.3l0.6-0.6l0.3-0.3l0.9-0.8l0.5-0.4l0.4-0.3l0.5-0.5
		l0.3-0.2l0.7-0.6l0.1-0.1c2.2-1.9,3.7-3,3.7-3h0l0,0c-0.7,0.5-1.4,1-2.2,1.4l-0.1,0l-0.7,0.3l-0.2,0.1L847,501l-0.3,0.1l-0.5,0.2
		l-0.5,0.2l-0.4,0.1l-0.6,0.2l-0.3,0.1l-0.8,0.2l-0.1,0l-0.9,0.2l0,0c-15.6,4-37.8-1.9-39.8-2.5l-0.1,0l0,0c0,0-8.9-1.8-20.5-3.5
		l0,0c5.4-11,10.7-21.3,15.7-30.5c4.3,9.4,11.6,17.1,20.7,21.9c0.3-0.4,0.7-0.8,1-1.2c1,0.6,1.6,0.9,1.6,0.9
		c2.9-3.3,4.9-7.3,5.8-11.6c3,2.8,6.3,5.2,10,7.1c0.3-0.3,0.6-0.7,0.9-1c0.4,0.2,0.6,0.3,0.6,0.3c5.8-6.5,7.3-14.9,6.7-23.5
		c10.7,4.1,22.6,4.1,33.4,0.1c0,0,0-0.1,0-0.1c1-0.3,1.5-0.6,1.5-0.6c-0.9-6.4-4.1-11.7-8.6-16.2c20.6,0.4,31.8-12.4,31.8-12.4
		l-0.1-0.2c0.8-0.8,1.3-1.3,1.3-1.3c-2.7-3.8-6.2-7.1-10.1-9.7c9.4-5.6,13.5-12.8,13.5-12.8c-0.2-0.2-0.5-0.4-0.7-0.6
		c0.5-0.7,0.8-1.2,0.8-1.2c-0.5-0.5-1.1-1-1.6-1.4c0.4-0.5,0.5-0.8,0.5-0.8c-8.3-7.8-19.3-10.6-30.2-10.9
		c6.6-7.3,10.6-16.6,11.6-26.4c-8.3-2.7-16.7-0.8-24.5,3c0.6-7.2-0.4-14.4-3-21.1c2.1,1.6,4.4,3,6.8,4.2c0.3-0.3,0.6-0.7,0.8-1
		c0.4,0.2,0.7,0.3,0.7,0.3c5.7-6.6,7.1-15,6.3-23.5c10.8,3.9,22.7,3.8,33.4-0.4v-0.1c1-0.4,1.5-0.6,1.5-0.6c-1-6.4-4.3-11.7-8.8-16
		c20.6,0.1,31.6-12.8,31.6-12.8l-0.1-0.2c0.8-0.8,1.3-1.3,1.3-1.3c-2.8-3.8-6.3-7-10.3-9.5c9.3-5.7,13.3-13,13.3-13
		c-0.2-0.2-0.5-0.4-0.7-0.6c0.5-0.8,0.8-1.2,0.8-1.2c-0.5-0.5-1.1-0.9-1.6-1.4c0.3-0.5,0.5-0.8,0.5-0.8
		c-8.4-7.7-19.4-10.3-30.4-10.5c6.4-7.4,10.3-16.7,11-26.5c-8.4-2.6-16.8-0.6-24.4,3.5c0.6-7.8-0.8-15.6-4.1-22.7
		c-0.6,0.1-1.1,0.3-1.7,0.4c-0.1-0.3-0.2-0.4-0.2-0.4l0,0c-0.2-0.5-0.4-0.7-0.4-0.7c-9.5,1.9-16.3,8.7-21.1,16.9
		c-0.4,0.6-0.7,1.2-1,1.8c-3.6-8.9-9.8-16.4-17.9-21.6c-7.1,6.7-9.1,16.1-8.7,25.7c0,0.6,0.1,1.3,0.1,1.9c-8.1-6.3-18-9.8-28.2-10
		c-1.5,5.7-0.8,11.3,1.2,16.6c-6.9-1.1-14-0.6-20.7,1.4c0,0.1,0,0.2,0,0.3c-1,0.3-1.5,0.5-1.5,0.5c0.5,8,4.8,14.7,10.7,20
		c-9.1,1.3-17.6,5.3-24.4,11.4c0.2,0.4,0.5,0.8,0.7,1.2c-0.5,0.4-0.7,0.7-0.7,0.7c4.2,7.4,11.6,11.7,19.8,14
		c-8.4,5-14.9,12.5-18.8,21.5c0.2,0.1,0.4,0.3,0.6,0.4c-0.4,0.9-0.6,1.4-0.6,1.4c7,5,15.6,5.8,24,4.4c-1.4,4.9-1.9,9.9-1.7,15
		c-5.2,7.3-10.5,14.9-15.7,22.7c-0.9-0.1-1.5,0-1.5,0c-0.3,1-0.5,2.1-0.6,3.2c-2.9,4.3-5.7,8.6-8.5,12.8c-3.6,0.1-7.1,0.7-10.6,1.7
		c0,0.1,0,0.2,0,0.3c-1,0.2-1.5,0.4-1.5,0.4c0,0.1,0,0.2,0,0.3c-4.6-6.2-11.1-10.9-18.1-14.4c9.1-3.9,16.8-10.5,21.8-19
		c-6.4-5.9-14.8-7.8-23.5-7.5c4-6.7,6.2-14.4,6.4-22.2c-0.6-0.1-1.1-0.3-1.7-0.4c0-0.3,0-0.5,0-0.5l0,0c0-0.5,0-0.8,0-0.8
		c-9.4-2.4-18.5,0.8-26.5,6.1c-0.6,0.4-1.2,0.8-1.8,1.2c0.7-9.5-1.5-19-6.4-27.1c-9.3,2.9-15.4,10.6-19.3,19.3
		c-0.3,0.6-0.5,1.2-0.8,1.8c-4.5-9.2-11.8-16.6-20.9-21.2c-3.8,4.5-5.7,9.8-6.3,15.4c-5.8-4-12.3-6.6-19.2-7.6l-0.1,0.3
		c-1-0.2-1.6-0.3-1.6-0.3c-3.1,7.4-2.2,15.3,0.7,22.7c-8.8-2.7-18.2-2.8-27.1-0.3c0,0.5,0.1,0.9,0.1,1.4c-0.6,0.2-1,0.3-1,0.3
		c0.5,8.5,5.2,15.5,11.6,21.1c-9.7,0.9-18.9,4.8-26.3,11.2c0.1,0.2,0.2,0.4,0.4,0.6c-0.8,0.6-1.2,1-1.2,1
		c4.1,7.5,11.4,11.9,19.6,14.4c-4.8,5.2-8.2,11.5-10.2,18.3c0.6,0.3,1.2,0.6,1.9,0.9c-0.1,0.5-0.2,0.7-0.2,0.7
		c8.8,4.8,18.9,3.6,28.2,0.2c-2.8,19.7,8.9,33.5,8.9,33.5c0.5-0.2,0.9-0.4,1.4-0.7c0.7,1,1.1,1.5,1.1,1.5c4.1-1.8,7.6-4.6,10.4-8.1
		c1.5,3.8,3.5,7.4,6,10.6c0.4-0.2,0.8-0.4,1.2-0.6c0.3,0.4,0.4,0.6,0.4,0.6c4.1-1.8,7.6-4.5,10.4-8c0.9,20.1,1.7,53.3-0.6,87.6
		c-1.4,20.9-3.9,42.2-8.3,61.2c-7.9-32.8-18.1-72.4-28.5-105.4c-11.3-36-33-70.4-53.1-102.4c-14.4-22.8-32.6-50.8-49.6-74.4
		c15.8,5.3,28.3-0.3,28.3-0.3s0-0.1,0-0.2c1.1-0.4,1.7-0.6,1.7-0.6c-0.8-4.6-2.5-9-5-13c10.9-1.1,17.7-5.9,17.7-5.9
		c-0.1-0.3-0.2-0.6-0.4-0.9c0.8-0.5,1.2-0.8,1.2-0.8c-0.3-0.7-0.5-1.3-0.8-1.9c0.6-0.3,0.8-0.5,0.8-0.5
		c-4.1-10.5-12.9-17.7-22.6-22.5c9.1-3.9,16.8-10.5,21.8-19c-6.4-5.9-14.8-7.8-23.5-7.5c4-6.7,6.2-14.4,6.4-22.2
		c-0.6-0.1-1.1-0.3-1.7-0.4c0-0.3,0-0.5,0-0.5l0,0c0-0.5,0-0.8,0-0.8c-9.4-2.4-18.5,0.8-26.5,6.1c-0.6,0.4-1.2,0.8-1.8,1.2
		c0.7-9.5-1.5-19-6.4-27.1c-9.3,2.9-15.4,10.6-19.3,19.3c-0.3,0.6-0.5,1.2-0.8,1.8c-4.5-9.2-11.8-16.6-20.9-21.2
		c-3.8,4.5-5.7,9.8-6.3,15.4c-5.8-4-12.3-6.6-19.2-7.6l-0.1,0.3c-1-0.2-1.6-0.3-1.6-0.3c-3.1,7.4-2.2,15.3,0.7,22.7
		c-8.8-2.7-18.2-2.8-27.1-0.3c0,0.5,0.1,0.9,0.1,1.4c-0.6,0.2-1,0.3-1,0.3c0.5,8.5,5.2,15.5,11.6,21.1c-9.7,0.9-19,4.8-26.4,11.2
		c0.1,0.2,0.2,0.4,0.4,0.6c-0.8,0.6-1.2,1-1.2,1c4.1,7.5,11.4,11.9,19.6,14.4c-4.8,5.2-8.2,11.5-10.2,18.3c0.6,0.3,1.2,0.6,1.9,0.9
		c-0.1,0.5-0.2,0.7-0.2,0.7c8.8,4.8,18.9,3.6,28.2,0.2c-2.8,19.7,8.9,33.5,8.9,33.5c0.5-0.2,0.9-0.4,1.4-0.7c0.7,1,1.1,1.5,1.1,1.5
		c4.1-1.8,7.6-4.6,10.4-8.1c1.5,3.8,3.5,7.4,6,10.6c0.4-0.2,0.8-0.4,1.2-0.6c0.3,0.4,0.4,0.6,0.4,0.6c8-3.5,13-10.4,16.1-18.4
		c11.3,11.8,25.6,13.8,29.3,14.1c21,29.6,46.5,68.2,62.7,101.4c0,0,33.3,64.4,54.5,131.8c-10.8-11.4-25.5-27.9-28.8-36.4
		c-5.4-13.7-71.7,0-71.7,0l0,0l-0.1,0c-2.1,0.6-24.2,6.5-39.8,2.5l0,0l-0.9-0.2l-0.1,0l-0.8-0.2l-0.3-0.1l-0.6-0.2l-0.4-0.1
		l-0.5-0.2l-0.5-0.2l-0.3-0.1l-0.6-0.3l-0.2-0.1l-0.7-0.3l-0.1,0c-0.8-0.4-1.5-0.9-2.2-1.4l0,0h0c6,4.7,11.6,10,16.6,15.8l0.2,0.2
		l0.9,1.1l0.2,0.3c0.3,0.4,0.6,0.7,0.8,1.1l0.2,0.2c0.3,0.4,0.6,0.8,0.9,1.3l0.2,0.3c0.2,0.3,0.4,0.6,0.6,0.9l0.4,0.5l0.5,0.7
		l0.4,0.6l0.4,0.7c0.1,0.2,0.3,0.4,0.4,0.6l0,0.1c0.2,0.4,0.4,0.7,0.6,1.1l0.2,0.4c0.2,0.3,0.3,0.6,0.5,1l0.2,0.4l0.1,0.3
		c-15.2-0.2-36.9,1.2-50.9,9.4c-23.5,13.7-68.5,5.3-68.5,5.3s43.9,23.2,48.2,35.8c1.7,5.1,10.1,12.3,19.5,19.2l2,1.5
		c-2.8,2.2-5.3,4.6-7.6,7.3c-21.4,25.3-72.8,50.6-72.8,50.6h0.2l0.4,0l0.8,0.1l1.4,0.1h0.2c11,1,49.7,5,71.8,11.7
		c0.8,0.2,1.6,0.5,2.3,0.7c6.4,2.1,42.8-1.1,67.4-8.4c0.7-0.2,1.4-0.4,2.1-0.6l0.6-0.2c0.5-0.1,1-0.2,1.6-0.4l0.6-0.1
		c0.7-0.1,1.4-0.3,2.1-0.4h0c0.7-0.1,1.4-0.2,2.1-0.3l0.6-0.1l1.5-0.2l0.7-0.1c0.6-0.1,1.2-0.1,1.9-0.1h0.2c0.7,0,1.3-0.1,2-0.1h0.7
		h2.1h1.4l1,0l1.4,0.1l1,0.1l0.9,0.1l1.1,0.1l0.5,0.1l1.2,0.1l0.8,0.1l0.6,0.1l0.9,0.1l0.5,0.1l0,0c0,0.1-0.1,0.3-0.1,0.5
		c0,0,0.9,5,6.7,9.8c-9.9,2.8-18.1,6.1-24.2,9.7c-0.4,0.2-0.7,0.4-1,0.6c0.2,0,0.5-0.1,0.8-0.1s0.5,0,0.7,0h251.7c0.2,0,0.5,0,0.7,0
		c0.2,0,0.5,0,0.7,0.1c0.2,0,0.4,0.1,0.6,0.1c0.2,0,0.4,0.1,0.6,0.1c-0.5-0.3-0.9-0.6-1.4-0.9c-7.7-4.5-18.6-8.4-31.9-11.7
		c4-2.1,6.2-4.4,7.2-6.9c0.8-0.2,1.6-0.4,2.4-0.5c3.3-0.7,6.6-1.2,9.9-1.5l1.4-0.1l0.7-0.1c7.7-0.6,15.4,0.2,22.8,2.3
		c24.6,7.4,61,10.5,67.4,8.4c0.7-0.2,1.5-0.5,2.3-0.7c22-6.6,60.8-10.6,71.8-11.7h0.2l1.4-0.1l0.8-0.1l0.4,0h0.2
		C960,655.4,908.7,630.2,887.3,604.9z M857.7,344.1l-0.3,0c0-0.1,0-0.2,0.1-0.3L857.7,344.1z M753.6,401.6c-1.5,0.8-2.8,1.6-4,2.4
		c-1-3.3-2.4-6.5-4.2-9.4c5.4-0.5,10.7-2.1,15.6-4.6C758.4,394,756,397.8,753.6,401.6z M758.2,421c2.1,1,4.3,1.8,6.6,2.5
		c-5.3,3.1-9.9,7.1-13.6,12C753.3,430.7,755.7,425.9,758.2,421L758.2,421z M690,508.4c1.9-32.2,3.1-67,1.5-91.5
		c6.7,4.4,14.3,7,22.3,7.6l0-0.1c1,0.1,1.6,0.1,1.6,0.1c2-6.2,1.3-12.3-0.8-18.2c9.5,4.7,20.4,5.9,30.7,3.2c0.5,0.9,1,1.7,1.6,2.5
		c-13.4,21.4-22.5,36.8-22.5,36.8c-9.3,13.9-24.5,62.6-38.4,111.5C687.4,545.8,688.9,527.6,690,508.4z M731,500
		c-2.6,6.5-11.9,17.9-21,28c12-30.1,23.9-55.6,30.6-69.3c1.9-3.9,3.7-7.8,5.5-11.7c6.9,4.8,15.2,5.7,23.5,4.5
		c-2.1,6.7-2.5,13.9-1.3,20.8c0.7,0,1.4,0,2.1,0c0.1,0.5,0.1,0.8,0.1,0.8c3.2,0.2,6.3-0.2,9.3-1.1c-3.7,7.5-7.4,15.2-11,23l0,0
		C751.5,493.1,733.7,493.1,731,500L731,500z M858.3,345.2c-0.1-0.3-0.2-0.4-0.2-0.4l0,0c-0.1-0.3-0.2-0.5-0.3-0.6
		c0.4,0.3,0.7,0.6,1.1,0.9L858.3,345.2z M810.6,340.2c5.9-2,11.1-5.9,15.6-10.6c3.1,9.1,8.9,17,16.8,22.6c-2.5,2.6-4.7,5.4-6.6,8.5
		c-0.4,0.6-0.7,1.2-1.1,1.8c-3.5-8.9-9.6-16.6-17.5-21.9c-7.2,6.6-9.4,16-9.1,25.5c0,0.6,0,1.3,0.1,2c-3.9-3.2-8.3-5.7-13.1-7.5
		C800.8,353.5,805.8,346.6,810.6,340.2L810.6,340.2z"/>
	<path class="st4" d="M659.8,550.5c0,0-34.3-34.3-39.5-47.8s-69.7,0-69.7,0s-32.2,9.4-46.8-1c0,0,22.9,17.7,24.9,32.2
		c2.1,14.6,83.2,52,83.2,52l47.8,44.7l16.6-9.4L659.8,550.5z"/>
	<path class="st5" d="M677.8,621.3l-16.6,9.4l-13.4-12.5l-34.5-32.2c0,0-81.1-37.5-83.1-52c-0.5-2.9-1.5-5.7-3-8.3
		c-6.6-11.9-21.1-23.3-21.9-23.9c14.6,10.4,46.8,1,46.8,1s64.5-13.5,69.7,0s39.5,47.8,39.5,47.8L677.8,621.3z"/>
	<path class="st2" d="M654.6,618.1h-8.1l-34.5-32.2c0,0-81.1-37.4-83.2-52c-0.5-2.9-1.5-5.7-3-8.3c6.6,0,13.1,0.3,19.6,1
		c22.9,22.9,55.1,34.3,55.1,34.3C632.7,540.2,654.6,618.1,654.6,618.1z"/>
	<path class="st4" d="M653.5,621.3H614l-107.1-4.1c0,0-16.1-9.4-29.9-19.6c-9.2-6.8-17.3-13.9-18.9-18.9
		c-4.1-12.5-46.8-35.3-46.8-35.3s43.7,8.3,66.5-5.2c22.9-13.5,66.5-8.3,66.5-8.3c22.9,22.9,55.1,34.3,55.1,34.3
		c17.9-11.5,32.5,7.3,42.1,26.4C646.4,600.4,650.4,610.7,653.5,621.3z"/>
	<path class="st4" d="M689.9,550.5c0,0,34.3-34.3,39.5-47.8s69.7,0,69.7,0s32.2,9.4,46.8-1c0,0-22.9,17.7-24.9,32.2
		c-2.1,14.6-83.2,52-83.2,52l-47.8,44.7l-16.6-9.4L689.9,550.5z"/>
	<path class="st5" d="M847.9,501.7c-0.8,0.6-15.3,12-21.9,24c-1.5,2.6-2.5,5.4-3,8.3c-2.1,14.6-83.2,52-83.2,52l-34.5,32.2
		L692,630.6l-16.6-9.4l16.6-70.7c0,0,34.3-34.3,39.5-47.8s69.7,0,69.7,0S833.3,512.1,847.9,501.7z"/>
	<path class="st2" d="M656,608.5c-1.4,1.3-3.9,2.5-3.5,4.4c0.2,0.6,0.6,1.2,1.1,1.6c2.7,2.4,7.1,4.3,6.7,7.9c-0.2,2.1-2,3.5-2.9,5.4
		c-1.8,3.9,1.1,8.9,5.2,10.2c4.1,1.3,8.7-0.2,12.1-2.9c0.7-0.6,1.5-1.2,2.4-1.2c0.7,0.1,1.4,0.3,2,0.6c2.8,1,5.9-1.2,7.1-3.9
		c1.2-2.7,1-5.8,0.7-8.7c1.6,1.3,4.1,0.6,5.5-1c1.3-1.6,1.7-3.7,2.1-5.7l2.5-14.2c2-0.6,2.8-3.2,1.9-5.1s-3-2.9-5.1-3
		c-2-0.2-4.1,0.3-6.1,0.7c-5.3,1-10.6,1.5-16,1.4c-4.5-0.1-10.2-5.6-12.6-0.7C656.8,598.6,660.1,604.7,656,608.5z"/>
	<path class="st2" d="M823.9,525.7c-1.5,2.6-2.5,5.4-3,8.3c-2.1,14.6-83.2,52-83.2,52l-34.5,32.2h-9.2c0,0,21.8-78,54.1-57.2
		c0,0,32.2-11.4,55.1-34.3C810.1,525.9,817,525.6,823.9,525.7z"/>
	<path class="st4" d="M938.4,543.3c0,0-42.6,22.9-46.8,35.3c-1.6,4.7-8.8,11.2-17.3,17.6c-14.1,10.7-31.6,20.8-31.6,20.8l-107.1,4.1
		h-39.5c2.8-9.4,6.2-18.6,10.4-27.4c9.4-20.1,24.8-41.9,43.7-29.7c0,0,32.2-11.4,55.1-34.3c0,0,43.7-5.2,66.5,8.3
		S938.4,543.3,938.4,543.3z"/>
	<path class="st6" d="M839.6,303.6c0,0-64.5,75-92,138.8c-2.8,6.6-5.8,13.1-8.8,19.5c-16.5,34.3-66.1,143.6-64.4,211.9l-18.7,4
		c0,0,47.8-195.4,67.6-225.6c0,0,87.3-149.7,116.4-164.3L839.6,303.6z"/>
	<path class="st6" d="M689.6,511.1c-1.1,18.9-2.5,36.9-3.7,51.2c-0.2,3-0.5,5.8-0.7,8.4c-1.3,14.4-2.2,23.5-2.2,23.5v0.1
		c-0.2,4.5-1.6,11.3-3.9,19.9c-0.7,2.8-1.6,5.8-2.5,9c-0.2,0.6-0.3,1.2-0.5,1.7c-0.8,2.7-1.6,5.4-2.5,8.3c-0.4,1.2-0.7,2.3-1.1,3.5
		c-2.1,6.5-4.4,13.4-6.9,20.6c-2.2,6.5-4.6,13.2-7.1,20.1l-0.4,1.1c-0.1,0.2-0.1,0.3-0.2,0.5h-13c0.1-0.2,0.1-0.4,0.1-0.5
		c2-7,3.8-13.9,5.5-20.6c1.7-6.7,3.3-13.3,4.8-19.6c0.6-2.5,1.2-5,1.7-7.5c0.2-0.8,0.4-1.6,0.5-2.3c0.1-0.3,0.2-0.7,0.2-1
		c0.4-1.6,0.7-3.3,1.1-4.8c0.1-0.6,0.3-1.2,0.4-1.7l0.3-1.5c0.8-3.6,1.5-7.1,2.2-10.3c0.5-2.6,1-5.1,1.5-7.5
		c0.6-3.3,1.2-6.3,1.7-8.9c1.4-7.4,2.1-11.6,2.1-11.6c0-0.1,0.1-0.2,0.1-0.3c0.8-3.1,1.6-6.2,2.3-9.4c4.2-18.7,6.7-39.7,8-60.3
		c3.5-54.1-0.6-105.6-0.6-105.6l9.2-12.6C693.7,408,692.5,462.6,689.6,511.1z"/>
	<path class="st6" d="M817,429.4c0,0-19,30.7-37.9,69.9c-1.8,3.8-3.7,7.8-5.5,11.7c-7.2,15.5-13.5,31.3-19.1,47.4
		c-0.5,1.5-1,3.1-1.5,4.6c-0.9,2.9-1.8,5.8-2.7,8.6c-0.3,1.1-0.7,2.2-1,3.3c-0.6,2.1-1.2,4.2-1.7,6.2c-0.8,3-1.5,6-2.1,9
		c0,0-3.9,12-9.2,31.1c-0.3,1.2-0.7,2.5-1,3.8c-0.2,0.9-0.5,1.8-0.7,2.7c-1.9,7-3.9,14.8-6,23.2c-0.7,2.9-1.4,5.8-2.1,8.8
		c-1.4,6-2.9,12.3-4.2,18.7c0,0.2-0.1,0.3-0.1,0.5h-13c0-0.2,0.1-0.4,0.1-0.5c0.9-6.9,1.8-13.6,2.8-20c0.7-4.6,1.3-9.1,2-13.5
		c1.2-7.6,2.4-14.8,3.6-21.2c0.2-0.8,0.3-1.7,0.5-2.5c0,0,0-0.1,0-0.1c1.3-7.4,3.1-14.6,5.2-21.8c0.5-1.7,1.2-3.3,1.9-5
		c0,0,1.8-4.5,4.8-12.1l1.6-3.9c2.1-5,4.5-11.1,7.3-17.8c0.4-0.9,0.8-1.9,1.2-2.9c5.7-13.7,12.6-30,20-46.6c2-4.5,4-9,6-13.4
		c17.5-38.3,36.6-75.2,48.4-83.7L817,429.4z"/>
	<path class="st6" d="M499.7,261c0,0,65,83.7,95.6,147.6c0,0,71.7,140.7,69.7,222.7l18.7,4c0,0-20.8-98.8-42.1-167.9
		c-10.9-35.5-32-69.4-51.6-100.9c-28.2-45.4-71.5-111.6-90.3-121.1V261z"/>
	<path class="st6" d="M800.8,679.3c-0.2-0.1-0.4-0.1-0.6-0.1c-0.2,0-0.4-0.1-0.6-0.1c-0.2,0-0.5-0.1-0.7-0.1c-0.2,0-0.4,0-0.7,0
		H553.7c-0.2,0-0.5,0-0.7,0c-0.2,0-0.5,0-0.7,0.1c0.3-0.2,0.7-0.4,1-0.6c6-3.5,13.9-6.7,23.5-9.6c19.1-5.6,44.7-9.6,73.5-11.1
		c3.4-0.2,6.8-0.3,10.3-0.4l4.7-0.1c3.1-0.1,6.2-0.1,9.4-0.1c0.5,0,1,0,1.6,0c12.3,0,24.2,0.4,35.6,1.3c5,0.4,9.8,0.8,14.5,1.3
		c14.1,1.4,28.1,3.8,41.9,7.2c13,3.2,23.6,7.2,31,11.6C799.9,678.7,800.3,679,800.8,679.3z"/>
	<path class="st2" d="M653.5,621.3H614l-107.1-4.1c0,0-16.1-9.4-29.9-19.6c21.9-19.4,57.7-19,66.3-14.2c9.4,5.2,27,3.2,27,3.2
		c13-29.4,48.4-11.6,71.2,4C646.4,600.4,650.4,610.7,653.5,621.3z"/>
	<path class="st4" d="M661.8,609.3c0,0-71.7-64.5-91.5-19.8c0,0-17.7,2.1-27-3.1c-9.4-5.2-50.9-5.2-71.7,19.8
		c-20.8,24.9-70.7,49.9-70.7,49.9s50.4,4.3,74.8,12.5c6.2,2.1,41.6-1,65.5-8.3c23.9-7.2,49.9,4.1,49.9,4.1l73.8-30.1L661.8,609.3z"
		/>
	<path class="st5" d="M668.4,632.9L594.6,663c-7.5-3.1-15.5-5.1-23.5-6c-8.1-1-17.4-0.9-26.4,1.9c-23.9,7.3-59.3,10.4-65.5,8.3
		c-24.4-8.1-74.9-12.5-74.9-12.5s49.9-24.9,70.7-49.9c20.8-24.9,62.4-24.9,71.7-19.7s27,3.1,27,3.1c19.8-44.7,91.5,19.8,91.5,19.8
		l1.5,12L668.4,632.9z"/>
	<path class="st2" d="M874.3,596.3c-14.1,10.7-31.6,20.8-31.6,20.8l-107.1,4.1h-39.5c2.8-9.4,6.2-18.6,10.4-27.4
		c22.2-16.2,62-38.9,75.9-7.4c0,0,17.7,2.1,27-3.1C817.9,578.6,852.4,578.2,874.3,596.3z"/>
	<path class="st4" d="M691,609.3c0,0,71.7-64.5,91.5-19.8c0,0,17.7,2.1,27-3.1c9.4-5.2,50.9-5.2,71.7,19.8
		c20.8,24.9,70.7,49.9,70.7,49.9s-50.4,4.3-74.8,12.5c-6.2,2.1-41.6-1-65.5-8.3c-23.9-7.2-49.9,4.1-49.9,4.1l-73.8-30.2L691,609.3z"
		/>
	<path class="st5" d="M951.2,656.1c0,0-50.4,4.3-74.9,12.5c-6.2,2.1-41.6-1-65.5-8.3c-11.9-3.6-24.3-2.6-33.8-0.7
		c-5.5,1.1-10.9,2.7-16.1,4.8l-73.8-30.2l1.9-15l1.2-9.9c0,0,71.7-64.5,91.5-19.8c0,0,17.7,2.1,27-3.1c9.4-5.2,50.9-5.2,71.7,19.8
		C901.3,631.1,951.2,656.1,951.2,656.1z"/>
	<path class="st2" d="M777.7,659.6c-5.5,1.1-10.9,2.7-16.1,4.8l-73.8-30.2l1.9-15c23-2.9,66.7,11.9,66.7,11.9
		S785.4,647.3,777.7,659.6z"/>
	<path class="st2" d="M665,634.2l-73.8,30.1c-7.5-3.1-15.5-5.1-23.5-6c-0.2-0.4-0.3-0.8-0.4-1.2c7.5-42.5,71.2-38.9,96.1-35.8
		L665,634.2z"/>
	<path class="st4" d="M775.4,660.1L775.4,660.1c-0.9,2.4-3.1,4.7-7,6.8c-2.2,1.1-4.4,2-6.8,2.8c-8.9,2.8-14.9,5.8-19,8.8
		c-0.2,0.2-0.5,0.3-0.7,0.5H607.4c-0.1-0.2-0.2-0.4-0.3-0.5c-0.2-0.3-0.3-0.5-0.3-0.5c-15.8-0.5-24.8-4.7-29.9-9
		c-5.7-4.8-6.5-9.7-6.5-9.7c0-0.1,0.1-0.3,0.1-0.4l0,0c6.5-34.7,50.9-38.3,80.1-36.8c2.9,0.2,5.6,0.4,8.2,0.6l1.6,0.1l3.3,0.3
		l1.4,0.2c1.6,0.2,3.1,0.4,4.4,0.6c0.7,0.1,1.4,0.2,2.1,0.3c2.3,0.4,3.9,0.6,4.6,0.8l0.4,0.1c0.5-0.4,1-0.7,1.5-1
		c0.7-0.4,1.4-0.7,2.1-1c0.3-0.1,0.6-0.2,0.9-0.3c2.8-0.9,5.7-1.4,8.6-1.5c0.9-0.1,1.9-0.1,2.9-0.1c1.2,0,2.5,0,3.8,0.1
		c1.3,0.1,2.5,0.1,3.8,0.2c0.2,0,0.5,0,0.7,0.1c5.7,0.5,11.3,1.4,16.9,2.5c6,1.2,11.8,2.6,17,3.9c10.8,2.9,18.7,5.5,18.7,5.5
		S779.9,648,775.4,660.1z"/>
	
		<ellipse transform="matrix(-0.2462 -0.9692 0.9692 -0.2462 489.4486 1111.1637)" class="st1" cx="676.8" cy="365.2" rx="18.7" ry="29.1"/>
	<path class="st1" d="M698.9,352.7c0,0,41.7-23.7,61.8-4.7c0,0-18.2,35.1-63.1,17.2L698.9,352.7z"/>
	<path class="st5" d="M692.3,352.8c0,0,25-41,51.8-34c0,0,1.1,39.5-46.9,45.6L692.3,352.8z"/>
	<path class="st1" d="M690.7,352c0,0,25-41,51.8-34c0,0,1.1,39.5-46.9,45.6L690.7,352z"/>
	<path class="st5" d="M695.6,362.7l-0.7-1.6l-4.2-9.9c0,0,10.9-17.9,26.1-28c7.8-5.2,16.7-8.4,25.8-6
		C742.6,317.1,743.6,356.7,695.6,362.7z"/>
	<path class="st5" d="M716.8,323.1c-0.6,11.2-5.7,24.8-21.8,38l-0.1,0l-4.2-9.9C690.7,351.1,701.6,333.2,716.8,323.1z"/>
	<path class="st1" d="M693.4,361.1l-2.3-1.6l-8-5.6c0,0-0.3-20.7,7-37.3c3.8-8.7,9.7-16.2,18.7-19.1
		C708.8,297.6,730.8,330.5,693.4,361.1z"/>
	<path class="st5" d="M691.4,359.5h-0.3l-8-5.6c0,0-0.3-20.7,7-37.3C695.2,326.4,697.8,340.4,691.4,359.5z"/>
	<path class="st1" d="M677.2,358.9c0,0-26-40.3-8.1-61.4c0,0,36.1,16.2,20.7,62.1L677.2,358.9z"/>
	<path class="st5" d="M671,361.1c0,0-37.2-30.3-26.7-56c0,0,39.3,4.3,38.8,52.7L671,361.1z"/>
	<path class="st1" d="M669.3,361.1c0,0-37.2-30.3-26.6-56c0,0,39.3,4.3,38.8,52.7L669.3,361.1z"/>
	<path class="st5" d="M665.2,366.3c0,0-46.6-11.4-48.1-39.1c0,0,37.4-13,57.6,31L665.2,366.3z"/>
	<path class="st1" d="M664.3,367.9c0,0-46.6-11.4-48.1-39.1c0,0,37.4-13,57.6,31L664.3,367.9z"/>
	<path class="st5" d="M661.9,375.8c0,0-47.1,9.3-60.1-15.2c0,0,28.4-27.5,65.3,3.8L661.9,375.8z"/>
	<path class="st1" d="M661.1,377.5c0,0-47.1,9.3-60.1-15.2c0,0,28.4-27.5,65.3,3.8L661.1,377.5z"/>
	<path class="st5" d="M668.8,374.2c0,0-34.3,33.5-58.6,20.2c0,0,8.7-38.6,56.7-32.6L668.8,374.2z"/>
	<path class="st1" d="M670.4,375.9c0,0-34.3,33.5-58.6,20.2c0,0,8.7-38.6,56.7-32.6L670.4,375.9z"/>
	<path class="st5" d="M667.6,370.5c0,0,5.7,47.6-19.7,58.8c0,0-25.3-30.4,8.7-64.8L667.6,370.5z"/>
	<path class="st1" d="M670,371.3c0,0,5.7,47.6-19.7,58.8c0,0-25.3-30.4,8.7-64.8L670,371.3z"/>
	<path class="st5" d="M685.9,373.8c0,0,5.7,47.6-19.7,58.8c0,0-25.3-30.4,8.7-64.8L685.9,373.8z"/>
	<path class="st1" d="M687.5,373.8c0,0,5.7,47.6-19.7,58.8c0,0-25.3-30.4,8.7-64.8L687.5,373.8z"/>
	<path class="st5" d="M681.5,374.8c0,0,39.6,27.1,31.2,53.6c0,0-39.5-1-43.1-49.3L681.5,374.8z"/>
	<path class="st1" d="M683.1,374.8c0,0,39.6,27.1,31.2,53.6c0,0-39.5-1-43.1-49.3L683.1,374.8z"/>
	<path class="st5" d="M692.3,368.5c0,0,48.9,11.8,54.4,44c0,0-36.1,16.3-62.9-34.2L692.3,368.5z"/>
	<path class="st1" d="M693.9,367.7c0,0,48.9,11.8,54.4,44c0,0-36.1,16.3-62.9-34.2L693.9,367.7z"/>
	<path class="st1" d="M677.2,358.9c0,0-26-40.3-8.1-61.4c0,0,36.1,16.2,20.7,62.1L677.2,358.9z"/>
	<path class="st5" d="M677.2,358.9c0,0-26-40.3-8.1-61.4c0,0,36.1,16.2,20.7,62.1L677.2,358.9z"/>
	<path class="st1" d="M664.3,367.9c0,0-46.6-11.4-48.1-39.1c0,0,37.4-13,57.6,31L664.3,367.9z"/>
	<path class="st5" d="M664.3,367.9c0,0-46.6-11.4-48.1-39.1c0,0,37.4-13,57.6,31L664.3,367.9z"/>
	<path class="st1" d="M670.4,375.9c0,0-34.3,33.5-58.6,20.2c0,0,8.7-38.6,56.7-32.6L670.4,375.9z"/>
	<path class="st5" d="M670.4,375.9c0,0-34.3,33.5-58.6,20.2c0,0,8.7-38.6,56.7-32.6L670.4,375.9z"/>
	<path class="st1" d="M687.5,373.8c0,0,5.7,47.6-19.7,58.8c0,0-25.3-30.4,8.7-64.8L687.5,373.8z"/>
	<path class="st5" d="M687.5,373.8c0,0,5.7,47.6-19.7,58.8c0,0-25.3-30.4,8.7-64.8L687.5,373.8z"/>
	<path class="st1" d="M693.9,367.7c0,0,48.9,11.8,54.4,44c0,0-36.1,16.3-62.9-34.2L693.9,367.7z"/>
	<path class="st5" d="M693.9,367.7c0,0,48.9,11.8,54.4,44c0,0-36.1,16.3-62.9-34.2L693.9,367.7z"/>
	<path class="st5" d="M698.6,360.8c0,0,50.3,1.8,62,32.3c0,0-32.1,23.1-68.4-21L698.6,360.8z"/>
	<path class="st5" d="M699.4,356.7c0,0,50.3,1.8,62,32.3c0,0-32.1,23.1-68.4-21L699.4,356.7z"/>
	<path class="st1" d="M699.4,359.1c0,0,50.3,1.8,62,32.3c0,0-32.1,23.1-68.4-21L699.4,359.1z"/>
	<path class="st7" d="M711.9,372.1c-4,15.9-20,25.5-35.9,21.5c-15.9-4-25.5-20-21.5-35.9c4-15.8,20-25.5,35.9-21.5
		C706.2,340.2,715.8,356.3,711.9,372.1C711.9,372.1,711.9,372.1,711.9,372.1z"/>
	
		<ellipse transform="matrix(-0.2462 -0.9692 0.9692 -0.2462 384.322 790.1049)" class="st1" cx="499.4" cy="245.6" rx="18.7" ry="29.1"/>
	<path class="st1" d="M521.5,233c0,0,41.7-23.8,61.8-4.7c0,0-18.2,35.1-63.1,17.2L521.5,233z"/>
	<path class="st5" d="M514.9,233.1c0,0,25-41,51.8-34c0,0,1.1,39.5-46.9,45.6L514.9,233.1z"/>
	<path class="st1" d="M513.3,232.3c0,0,25-41,51.8-34c0,0,1.1,39.5-46.9,45.6L513.3,232.3z"/>
	<path class="st5" d="M518.2,243.1l-0.7-1.6l-4.2-9.9c0,0,10.9-17.9,26.1-28c7.8-5.2,16.7-8.4,25.8-6
		C565.1,197.5,566.2,237,518.2,243.1z"/>
	<path class="st5" d="M539.4,203.5c-0.6,11.2-5.7,24.8-21.8,38l-0.1,0l-4.2-9.9C513.3,231.5,524.2,213.6,539.4,203.5z"/>
	<path class="st1" d="M515.9,241.5l-2.3-1.6l-8-5.6c0,0-0.3-20.7,7-37.3c3.8-8.7,9.7-16.2,18.7-19.1
		C531.4,177.9,553.4,210.8,515.9,241.5z"/>
	<path class="st5" d="M513.9,239.9h-0.3l-8-5.6c0,0-0.3-20.7,7-37.3C517.8,206.7,520.4,220.7,513.9,239.9z"/>
	<path class="st1" d="M499.8,239.3c0,0-26-40.3-8.1-61.4c0,0,36.1,16.2,20.7,62.1L499.8,239.3z"/>
	<path class="st5" d="M493.5,241.4c0,0-37.2-30.3-26.7-56c0,0,39.3,4.3,38.8,52.7L493.5,241.4z"/>
	<path class="st1" d="M491.9,241.4c0,0-37.2-30.3-26.7-56c0,0,39.3,4.3,38.8,52.7L491.9,241.4z"/>
	<path class="st5" d="M487.7,246.7c0,0-46.6-11.4-48.1-39.1c0,0,37.4-13,57.6,31L487.7,246.7z"/>
	<path class="st1" d="M486.9,248.3c0,0-46.6-11.4-48.1-39.1c0,0,37.4-13,57.6,31L486.9,248.3z"/>
	<path class="st5" d="M484.5,256.2c0,0-47.1,9.3-60.1-15.2c0,0,28.4-27.5,65.3,3.8L484.5,256.2z"/>
	<path class="st1" d="M483.7,257.8c0,0-47.1,9.3-60.1-15.2c0,0,28.4-27.5,65.3,3.8L483.7,257.8z"/>
	<path class="st5" d="M491.4,254.6c0,0-34.3,33.5-58.6,20.2c0,0,8.7-38.6,56.7-32.6L491.4,254.6z"/>
	<path class="st1" d="M493,256.2c0,0-34.3,33.5-58.6,20.2c0,0,8.7-38.6,56.7-32.6L493,256.2z"/>
	<path class="st5" d="M490.1,250.9c0,0,5.7,47.6-19.7,58.8c0,0-25.3-30.4,8.7-64.8L490.1,250.9z"/>
	<path class="st1" d="M492.6,251.7c0,0,5.7,47.6-19.7,58.8c0,0-25.3-30.4,8.7-64.8L492.6,251.7z"/>
	<path class="st5" d="M508.5,254.2c0,0,5.7,47.6-19.7,58.8c0,0-25.3-30.4,8.7-64.8L508.5,254.2z"/>
	<path class="st1" d="M510.1,254.2c0,0,5.7,47.6-19.7,58.8c0,0-25.3-30.4,8.7-64.8L510.1,254.2z"/>
	<path class="st5" d="M504.1,255.2c0,0,39.6,27.1,31.2,53.6c0,0-39.6-1-43.1-49.3L504.1,255.2z"/>
	<path class="st1" d="M505.7,255.2c0,0,39.6,27.1,31.2,53.6c0,0-39.6-1-43.1-49.3L505.7,255.2z"/>
	<path class="st5" d="M514.9,248.9c0,0,48.9,11.8,54.4,44c0,0-36.1,16.3-62.9-34.2L514.9,248.9z"/>
	<path class="st1" d="M516.5,248c0,0,48.9,11.8,54.4,44c0,0-36.1,16.3-62.9-34.2L516.5,248z"/>
	<path class="st1" d="M499.8,239.3c0,0-26-40.3-8.1-61.4c0,0,36.1,16.2,20.7,62.1L499.8,239.3z"/>
	<path class="st5" d="M499.8,239.3c0,0-26-40.3-8.1-61.4c0,0,36.1,16.2,20.7,62.1L499.8,239.3z"/>
	<path class="st1" d="M486.9,248.3c0,0-46.6-11.4-48.1-39.1c0,0,37.4-13,57.6,31L486.9,248.3z"/>
	<path class="st5" d="M486.9,248.3c0,0-46.6-11.4-48.1-39.1c0,0,37.4-13,57.6,31L486.9,248.3z"/>
	<path class="st1" d="M493,256.2c0,0-34.3,33.5-58.6,20.2c0,0,8.7-38.6,56.7-32.6L493,256.2z"/>
	<path class="st5" d="M493,256.2c0,0-34.3,33.5-58.6,20.2c0,0,8.7-38.6,56.7-32.6L493,256.2z"/>
	<path class="st1" d="M510.1,254.2c0,0,5.7,47.6-19.7,58.8c0,0-25.3-30.4,8.7-64.8L510.1,254.2z"/>
	<path class="st5" d="M510.1,254.2c0,0,5.7,47.6-19.7,58.8c0,0-25.3-30.4,8.7-64.8L510.1,254.2z"/>
	<path class="st1" d="M516.5,248c0,0,48.9,11.8,54.4,44c0,0-36.1,16.3-62.9-34.2L516.5,248z"/>
	<path class="st5" d="M516.5,248c0,0,48.9,11.8,54.4,44c0,0-36.1,16.3-62.9-34.2L516.5,248z"/>
	<path class="st5" d="M521.2,241.1c0,0,50.3,1.8,62,32.3c0,0-32.1,23.1-68.4-21L521.2,241.1z"/>
	<path class="st5" d="M522,237c0,0,50.3,1.8,62,32.3c0,0-32.1,23.1-68.4-21L522,237z"/>
	<path class="st1" d="M522,239.5c0,0,50.3,1.8,62,32.3c0,0-32.1,23.1-68.4-21L522,239.5z"/>
	<path class="st7" d="M534.5,252.5c-4,15.9-20,25.5-35.9,21.5c-15.9-4-25.5-20-21.5-35.9c4-15.8,20-25.5,35.9-21.5
		C528.8,220.5,538.4,236.6,534.5,252.5C534.5,252.5,534.5,252.5,534.5,252.5z"/>
	
		<ellipse transform="matrix(-0.6469 -0.7626 0.7626 -0.6469 1165.4431 1120.2573)" class="st1" cx="842.1" cy="290.3" rx="18.7" ry="29.1"/>
	<path class="st1" d="M856.4,269.4c0,0,27-39.6,53.5-31.4c0,0-0.9,39.6-49.2,43.2L856.4,269.4z"/>
	<path class="st5" d="M850.5,272.3c0,0,4.5-47.8,31.6-53.3c0,0,18.3,35.1-22.1,61.6L850.5,272.3z"/>
	<path class="st1" d="M848.7,272.3c0,0,4.5-47.8,31.6-53.3c0,0,18.3,35.1-22.1,61.6L848.7,272.3z"/>
	<path class="st5" d="M857.9,279.9l-1.3-1.2l-8.1-7.1c0,0,2-20.9,11.1-36.6c4.7-8.1,11.3-14.8,20.5-16.7
		C880,218.3,898.3,253.3,857.9,279.9z"/>
	<path class="st5" d="M859.5,235c4.4,10.4,5.8,24.8-2.9,43.7h-0.1l-8.1-7.1C848.4,271.6,850.3,250.7,859.5,235z"/>
	<path class="st1" d="M855.1,279.4l-2.8-0.4l-9.6-1.5c0,0-9.4-18.5-10.1-36.6c-0.4-9.4,1.6-18.8,8.5-25.3
		C841.1,215.5,875.3,235.4,855.1,279.4z"/>
	<path class="st5" d="M852.6,278.9l-0.3,0.1l-9.6-1.5c0,0-9.4-18.5-10.1-36.6C841.6,247.4,850,258.8,852.6,278.9z"/>
	<path class="st1" d="M839.6,284.5c0,0-41.1-24.8-34.3-51.7c0,0,39.5-1.3,45.8,46.7L839.6,284.5z"/>
	<path class="st5" d="M835,289.2c0,0-46.7-10.9-48.6-38.6c0,0,37.2-13.4,58,30.3L835,289.2z"/>
	<path class="st1" d="M833.5,289.9c0,0-46.7-10.9-48.6-38.6c0,0,37.2-13.4,58,30.3L833.5,289.9z"/>
	<path class="st5" d="M832.1,296.5c0,0-46.9,10.2-60.4-14c0,0,27.9-28,65.4,2.5L832.1,296.5z"/>
	<path class="st1" d="M832,298.3c0,0-46.9,10.2-60.4-14c0,0,27.9-28,65.4,2.5L832,298.3z"/>
	<path class="st5" d="M833.3,306.5c0,0-38.2,29-60.7,12.8c0,0,13.4-37.2,60.3-25.3L833.3,306.5z"/>
	<path class="st1" d="M833.3,308.3c0,0-38.2,29-60.7,12.8c0,0,13.4-37.2,60.3-25.3L833.3,308.3z"/>
	<path class="st5" d="M838.8,302c0,0-16.1,45.2-43.8,43.9c0,0-9.1-38.5,36.6-54.2L838.8,302z"/>
	<path class="st1" d="M841,302.8c0,0-16.1,45.2-43.8,43.9c0,0-9.1-38.5,36.6-54.2L841,302.8z"/>
	<path class="st5" d="M836.1,299.2c0,0,26,40.3,8.1,61.4c0,0-36.1-16.3-20.6-62.1L836.1,299.2z"/>
	<path class="st1" d="M838.6,298.9c0,0,26,40.3,8.1,61.4c0,0-36.1-16.3-20.6-62.1L838.6,298.9z"/>
	<path class="st5" d="M854,294.1c0,0,26,40.3,8.1,61.4c0,0-36.1-16.3-20.6-62.1L854,294.1z"/>
	<path class="st1" d="M855.4,293.4c0,0,26,40.3,8.1,61.4c0,0-36.1-16.3-20.6-62.1L855.4,293.4z"/>
	<path class="st5" d="M850.5,296.9c0,0,47.5,7,51.6,34.4c0,0-36,16.4-60.3-25.4L850.5,296.9z"/>
	<path class="st1" d="M851.9,296.2c0,0,47.5,7,51.6,34.4c0,0-36,16.4-60.3-25.4L851.9,296.2z"/>
	<path class="st5" d="M857.4,286.5c0,0,49.1-10.9,68.2,15.6c0,0-25.3,30.5-71.5-3.1L857.4,286.5z"/>
	<path class="st1" d="M858.5,285.1c0,0,49.1-10.9,68.2,15.6c0,0-25.3,30.5-71.5-3.1L858.5,285.1z"/>
	<path class="st1" d="M839.6,284.5c0,0-41.1-24.8-34.3-51.7c0,0,39.5-1.3,45.8,46.7L839.6,284.5z"/>
	<path class="st5" d="M839.6,284.5c0,0-41.1-24.8-34.3-51.7c0,0,39.5-1.3,45.8,46.7L839.6,284.5z"/>
	<path class="st1" d="M832,298.3c0,0-46.9,10.2-60.4-14c0,0,27.9-28,65.4,2.5L832,298.3z"/>
	<path class="st5" d="M832,298.3c0,0-46.9,10.2-60.4-14c0,0,27.9-28,65.4,2.5L832,298.3z"/>
	<path class="st1" d="M841,302.8c0,0-16.1,45.2-43.8,43.9c0,0-9.1-38.5,36.6-54.2L841,302.8z"/>
	<path class="st5" d="M841,302.8c0,0-16.1,45.2-43.8,43.9c0,0-9.1-38.5,36.6-54.2L841,302.8z"/>
	<path class="st1" d="M855.4,293.4c0,0,26,40.3,8.1,61.4c0,0-36.1-16.3-20.6-62.1L855.4,293.4z"/>
	<path class="st5" d="M855.4,293.4c0,0,26,40.3,8.1,61.4c0,0-36.1-16.3-20.6-62.1L855.4,293.4z"/>
	<path class="st1" d="M858.5,285.1c0,0,49.1-10.9,68.2,15.6c0,0-25.3,30.5-71.5-3.1L858.5,285.1z"/>
	<path class="st5" d="M858.5,285.1c0,0,49.1-10.9,68.2,15.6c0,0-25.3,30.5-71.5-3.1L858.5,285.1z"/>
	<path class="st5" d="M859.7,276.8c0,0,46-20.4,69.9,1.7c0,0-18.7,34.9-70.7,11.2L859.7,276.8z"/>
	<path class="st5" d="M858.6,272.8c0,0,46-20.4,69.9,1.7c0,0-18.7,34.9-70.7,11.2L858.6,272.8z"/>
	<path class="st1" d="M859.7,275c0,0,46-20.4,69.9,1.7c0,0-18.7,34.9-70.7,11.2L859.7,275z"/>
	<path class="st7" d="M876.6,281.2c3.4,16-6.8,31.7-22.8,35.1c-16,3.4-31.7-6.8-35.1-22.8c-3.4-16,6.8-31.7,22.8-35.1
		C857.4,255,873.2,265.2,876.6,281.2C876.6,281.2,876.6,281.2,876.6,281.2z"/>
	
		<ellipse transform="matrix(-0.6347 -0.7727 0.7727 -0.6347 1004.9891 1316.1129)" class="st1" cx="813.6" cy="420.5" rx="18.7" ry="29.1"/>
	<path class="st1" d="M828.2,399.8c0,0,27.6-39.2,54-30.5c0,0-1.6,39.5-49.8,42.4L828.2,399.8z"/>
	<path class="st5" d="M822.3,402.6c0,0,5.2-47.7,32.4-52.8c0,0,17.8,35.3-23.1,61.2L822.3,402.6z"/>
	<path class="st1" d="M820.5,402.6c0,0,5.2-47.7,32.4-52.8c0,0,17.8,35.3-23.1,61.2L820.5,402.6z"/>
	<path class="st5" d="M829.5,410.2l-1.3-1.2l-8-7.2c0,0,2.3-20.8,11.7-36.5c4.8-8,11.5-14.6,20.8-16.4
		C852.6,349,870.4,384.4,829.5,410.2z"/>
	<path class="st5" d="M831.8,365.4c4.2,10.4,5.4,24.9-3.6,43.7h-0.1l-8-7.2C820.1,401.8,822.4,381,831.8,365.4z"/>
	<path class="st1" d="M826.8,409.8l-2.8-0.5l-9.6-1.6c0,0-9.1-18.6-9.5-36.8c-0.2-9.5,1.9-18.8,8.9-25.2
		C813.7,345.6,847.6,366.1,826.8,409.8z"/>
	<path class="st5" d="M824.3,409.2l-0.3,0.1l-9.6-1.6c0,0-9.1-18.6-9.5-36.8C813.7,377.5,822,389.1,824.3,409.2z"/>
	<path class="st1" d="M811.1,414.6c0,0-40.7-25.4-33.5-52.2c0,0,39.6-0.6,45.1,47.4L811.1,414.6z"/>
	<path class="st5" d="M806.5,419.2c0,0-46.5-11.6-47.9-39.3c0,0,37.4-12.8,57.5,31.2L806.5,419.2z"/>
	<path class="st1" d="M805,419.9c0,0-46.5-11.6-47.9-39.3c0,0,37.4-12.8,57.5,31.2L805,419.9z"/>
	<path class="st5" d="M803.4,426.4c0,0-47,9.4-60.2-15c0,0,28.3-27.6,65.3,3.6L803.4,426.4z"/>
	<path class="st1" d="M803.4,428.3c0,0-47,9.4-60.2-15c0,0,28.3-27.6,65.3,3.6L803.4,428.3z"/>
	<path class="st5" d="M804.5,436.4c0,0-38.7,28.4-60.9,11.8c0,0,14-37,60.8-24.4L804.5,436.4z"/>
	<path class="st1" d="M804.5,438.3c0,0-38.7,28.4-60.9,11.8c0,0,14-37,60.8-24.4L804.5,438.3z"/>
	<path class="st5" d="M810.1,432.1c0,0-16.8,44.9-44.5,43.2c0,0-8.5-38.7,37.5-53.6L810.1,432.1z"/>
	<path class="st1" d="M812.3,432.9c0,0-16.8,44.9-44.5,43.2c0,0-8.5-38.7,37.5-53.6L812.3,432.9z"/>
	<path class="st5" d="M807.4,429.2c0,0,25.4,40.7,7.1,61.6c0,0-35.8-16.8-19.6-62.4L807.4,429.2z"/>
	<path class="st1" d="M810,428.9c0,0,25.4,40.7,7.1,61.6c0,0-35.8-16.8-19.6-62.4L810,428.9z"/>
	<path class="st5" d="M825.4,424.4c0,0,25.4,40.7,7.1,61.6c0,0-35.8-16.8-19.6-62.4L825.4,424.4z"/>
	<path class="st1" d="M826.9,423.8c0,0,25.4,40.7,7.1,61.6c0,0-35.8-16.8-19.6-62.4L826.9,423.8z"/>
	<path class="st5" d="M821.8,427.2c0,0,47.3,7.7,51,35.2c0,0-36.2,15.9-59.9-26.3L821.8,427.2z"/>
	<path class="st1" d="M823.3,426.5c0,0,47.3,7.7,51,35.2c0,0-36.2,15.9-59.9-26.3L823.3,426.5z"/>
	<path class="st5" d="M828.9,416.9c0,0,49.3-10.1,67.9,16.7c0,0-25.8,30.1-71.5-4.2L828.9,416.9z"/>
	<path class="st1" d="M830.1,415.5c0,0,49.3-10.1,67.9,16.7c0,0-25.8,30.1-71.5-4.2L830.1,415.5z"/>
	<path class="st1" d="M811.1,414.6c0,0-40.7-25.4-33.5-52.2c0,0,39.6-0.6,45.1,47.4L811.1,414.6z"/>
	<path class="st5" d="M811.1,414.6c0,0-40.7-25.4-33.5-52.2c0,0,39.6-0.6,45.1,47.4L811.1,414.6z"/>
	<path class="st1" d="M803.4,428.3c0,0-47,9.4-60.2-15c0,0,28.3-27.6,65.3,3.6L803.4,428.3z"/>
	<path class="st5" d="M803.4,428.3c0,0-47,9.4-60.2-15c0,0,28.3-27.6,65.3,3.6L803.4,428.3z"/>
	<path class="st1" d="M812.3,432.9c0,0-16.8,44.9-44.5,43.2c0,0-8.5-38.7,37.5-53.6L812.3,432.9z"/>
	<path class="st5" d="M812.3,432.9c0,0-16.8,44.9-44.5,43.2c0,0-8.5-38.7,37.5-53.6L812.3,432.9z"/>
	<path class="st1" d="M826.9,423.8c0,0,25.4,40.7,7.1,61.6c0,0-35.8-16.8-19.6-62.4L826.9,423.8z"/>
	<path class="st5" d="M826.9,423.8c0,0,25.4,40.7,7.1,61.6c0,0-35.8-16.8-19.6-62.4L826.9,423.8z"/>
	<path class="st1" d="M830.1,415.5c0,0,49.3-10.1,67.9,16.7c0,0-25.8,30.1-71.5-4.2L830.1,415.5z"/>
	<path class="st5" d="M830.1,415.5c0,0,49.3-10.1,67.9,16.7c0,0-25.8,30.1-71.5-4.2L830.1,415.5z"/>
	<path class="st5" d="M831.4,407.2c0,0,46.3-19.7,69.9,2.8c0,0-19.3,34.6-70.9,10.1L831.4,407.2z"/>
	<path class="st5" d="M830.4,403.2c0,0,46.3-19.7,69.9,2.8c0,0-19.3,34.6-70.9,10.1L830.4,403.2z"/>
	<path class="st1" d="M831.4,405.4c0,0,46.3-19.7,69.9,2.8c0,0-19.3,34.6-70.9,10.1L831.4,405.4z"/>
	<path class="st7" d="M848.2,411.9c3.2,16-7.3,31.6-23.3,34.8c-16,3.2-31.6-7.3-34.8-23.3c-3.2-16,7.3-31.6,23.3-34.8
		C829.5,385.4,845,395.8,848.2,411.9z"/>
	<path class="st1" d="M505.2,396.6c2.4,8.6,10.6,13.8,10.6,13.8s4.4-8.7,2-17.3c-2.4-8.6-10.6-13.8-10.6-13.8S502.8,388,505.2,396.6
		z"/>
	<path class="st1" d="M549.6,444.5c-2.6,8.6,1.7,17.4,1.7,17.4s8.3-5.1,10.9-13.6c2.6-8.6-1.7-17.4-1.7-17.4S552.1,436,549.6,444.5z
		"/>
	<path class="st1" d="M869.8,499.6c-6.3,6.4-6.7,16.1-6.7,16.1s9.7-0.6,16-6.9s6.7-16.1,6.7-16.1S876,493.2,869.8,499.6z"/>
	<path class="st1" d="M470.7,479.4c2.4,8.6,10.6,13.8,10.6,13.8s4.4-8.7,2-17.3c-2.4-8.6-10.6-13.8-10.6-13.8
		S468.3,470.8,470.7,479.4z"/>
</g>
<g id="_x23_group_x28_have_x5B_man_x28_sit_x2C_hold_x29__x2C_woman_x28_lie_x2C_talk_x29__x5D__x29_">
	<g class="st8">
		
			<linearGradient id="SVGID_2_" gradientUnits="userSpaceOnUse" x1="428.5782" y1="710.3207" x2="428.5782" y2="712.0516" gradientTransform="matrix(1 0 0 -1 -40.58 994.52)">
			<stop  offset="0" style="stop-color:#808080;stop-opacity:0.25"/>
			<stop  offset="0.54" style="stop-color:#808080;stop-opacity:0.12"/>
			<stop  offset="1" style="stop-color:#808080;stop-opacity:0.1"/>
		</linearGradient>
		<path class="st9" d="M387.8,284.2c0.3-0.5,0.5-1.1,0.4-1.7C388,283.1,387.9,283.6,387.8,284.2z"/>
	</g>
	<g class="st8">
		
			<linearGradient id="SVGID_3_" gradientUnits="userSpaceOnUse" x1="428.5782" y1="711.1904" x2="428.5782" y2="712.9299" gradientTransform="matrix(1 0 0 -1 -40.58 994.52)">
			<stop  offset="0" style="stop-color:#808080;stop-opacity:0.25"/>
			<stop  offset="0.54" style="stop-color:#808080;stop-opacity:0.12"/>
			<stop  offset="1" style="stop-color:#808080;stop-opacity:0.1"/>
		</linearGradient>
		<path class="st10" d="M387.8,283.3c0.3-0.5,0.5-1.1,0.4-1.7C388,282.2,387.9,282.8,387.8,283.3z"/>
	</g>
	
		<linearGradient id="SVGID_4_" gradientUnits="userSpaceOnUse" x1="484.601" y1="260.4366" x2="484.601" y2="728.3547" gradientTransform="matrix(1 0 0 -1 -40.58 994.52)">
		<stop  offset="0" style="stop-color:#808080;stop-opacity:0.25"/>
		<stop  offset="0.54" style="stop-color:#808080;stop-opacity:0.12"/>
		<stop  offset="1" style="stop-color:#808080;stop-opacity:0.1"/>
	</linearGradient>
	<path class="st11" d="M770,685.6c-2,1-18.2-1.4-31.9-3.6c7.4-1.7,12.8-3.9,15.3-6.8c14.7-16.9-50.1-7.1-70.6-3.7l-16.5-3.3
		l-18.5-4.3c-12.7-17.9-32.1-54.2-41.4-72.2c3.1-0.7,5-1,5-1c-0.1-0.6-0.3-1.1-0.5-1.7l0.5-0.1c-17.4-66.2-47-56.6-47-56.6
		c-3.5,0-8.7,1.5-14.9,4c-2-7-4.6-13.9-7.7-20.5l-0.7-1.6c2.1,0.4,3.3,0.6,3.3,0.6s-0.2-0.5-0.5-1.3l0.3,0.1l0.7,0.1h0.2l0.3,0.1
		l0.8,0.1c0,0-23.9-64.9-74.7-103.9c-13.5-10.5-29.6-17-46.5-18.8c-0.9-0.1-1.8-0.2-2.6-0.2l-0.8-0.1c-0.7,0-1.3-0.1-1.9-0.1h-1.4
		l0,0c-11.5-0.2-20,2.7-29.7,7.7c-1.8,0.9-3.6,1.8-5.5,2.8c-1.5-0.2-2.9-0.4-4.3-0.8c-0.8-0.2-1.5-0.4-2.3-0.6
		c23.9-10.9,34.9-38.7,24.9-63c3.4-6.1,8.7-10.9,15.1-13.8c0.8-0.3,1.5-0.7,2.1-1.4c0.5-0.8,0.7-1.7,0.6-2.6v-0.1c0-0.2,0-0.3,0-0.5
		c0-0.2,0-0.2,0-0.3v-0.1c0.1-8.4-6-15.7-14.4-16.9c-2.4-0.4-4.8-1-7-2c-5.4-2.4-9.8-7.9-10.1-13.6c0-0.5,0.1-1,0.1-1.5l-0.1,0.2
		c0-0.4,0.1-0.7,0.1-1.1c-1.2,2.1-4.8,2.8-6.9,1.2c-1.9-1.4-2.7-3.8-2.7-6.2c0-0.7,0.1-1.3,0.2-1.9c0.4-1.8,0.6-3.6,0.7-5.5
		c0.1-1.9-0.3-3.7-1.9-4.7c-3.3,4.1-8.7,6-14,6.5c-5.3,0.4-10.5-0.5-15.7-1.2c-12.9-1.7-27.4-1.5-37.2,7.2
		c-6.3,5.6-9.5,13.9-12.5,21.8c-4.2,11.2-8.4,23.4-8.2,35.1c-0.1,5.5,0.9,10.9,3,15.9c4.1,9.4,12.3,16.8,14.9,26.7
		c0.6,2.3,0.9,4.7,2,6.8c2.3,4.2,7.7,5.9,12.4,5.2c1.8,1.8,3.8,3.5,5.8,4.9c0,0.6-0.1,1.1-0.1,1.6c-0.3,3.4-0.8,6.8-1.4,10.1
		c-0.4-0.6-0.9-0.2-2.5-0.2h-0.5H323l-0.6,0.1l0,0l-0.7,0.1h-0.1l-0.8,0.2l0,0l-0.9,0.2h-0.1l-1,0.3l0,0l-1.1,0.3h-0.1
		c-3,0.9-6.7,2.2-10.6,3.7c-1.5-9.7-6-18.6-12.8-25.6c1.4-1.9,2.5-3.9,3.3-6.1c1.3-3.5,0-6-2.3-8.1c-1.8-2-4.5-3.6-6.9-5.3
		c-10.7-7.9-22.8-13.6-35.7-16.8c-4.2-1-8.5-1.8-12.7-1.3c-4.1,0.4-7.9,2-11.6,3.7c-5.9,2.7-11.5,6-16.7,9.7
		c-3.6,2.5-7,5.2-11.2,6.7c-6.2,2.1-13.3,1.1-19,4.3c-7.9,4.5-9.7,15.3-8.5,24.3c1.2,9.1,4.4,18.1,3,27.1
		c-2.1,13.5-13.8,23.1-24.6,31.5c-3.4,2.7-7,5.8-7.5,10c-0.3,2.7,0.7,5.3,1.5,7.9c4.5,14.1,4.2,29.3-0.8,43.2
		c-5.1,13.9-15.1,25.4-28.1,32.4c-4.9,2.6-10.9,5.2-12.1,10.7c-0.8,3.7,1,6.9,3.7,9.5c2.8,2.7,6.1,4.8,9.8,6.1
		c5.4,2,11,3.5,16.7,4.4c5,0.8,10.4,1.1,15-1.1c5.3-2.6,8.6-8,11.4-13.2c7.2-13.3,15.5-22.1,22.3-32.8c0.9,3.9,1.6,6.6,1.7,6.8
		c-5.7,5.1-8.3,13.5-5.2,27c12.2,53.1,27.9,66.2,27.9,66.2c0.4-2.9,1.5-5.6,3.2-8l0.7,0.9l0,0c7.4,9,16,18.4,23.1,23.7
		c8.1,6,15.5,13,21.9,20.8c1.5,1.9,1.2,4.6-0.7,6.1c-0.3,0.2-0.5,0.4-0.8,0.5c-11.2,5.4-35.6,19.4-6.5,25.6
		c29.1,6.2,52.9-10.2,61.2-17.2c1.9-1.5,2.1-4.2,0.6-6.1l-26.5-33.1l-3.3-4c1.8,1.2,3.5,2.6,5.4,3.9L281,638l15,1.6
		c0.4,0.9,0.9,1.8,1.3,2.7c3,6.1,6.1,10.9,9.4,13.6c-0.3,6.2,1.2,12.3,4.3,17.6c11.9,21.7,77.8,21.5,96.2,21.1
		c1.7,0.3,3.4,0.4,5.2,0.5c2.9,0.1,5.8-0.1,8.6-0.6l0.6-0.1c3.6-0.5,7-1.9,9.9-4.1l26.2-5.2l0.6,0.1c14.8,3,42.9,7.9,59.1,4.8
		c15.5-3,24.4,2.2,28.6,5.8c-0.4,1.6-1,3.2-1.6,4.7h0.2c-1,2.3-4.8,13.3,10.7,25.7c10.1,8.1,79.1,10.2,102.8,5.2
		c17.1-3.6-7.2-13.9-10.5-13.9c-7.4,0-30.5-15.6-32.9-17.3c-0.4-0.5-1.3-1.7-2.6-3.4c16,2.1,44.3,5.5,49.8,3.7
		c7.8-2.6,42.6,1.7,42.6,1.7s47,10.5,69.7,3.5S773.5,683.9,770,685.6z"/>
	<g class="st8">
		
			<linearGradient id="SVGID_5_" gradientUnits="userSpaceOnUse" x1="494.2491" y1="476.4935" x2="494.2491" y2="519.62" gradientTransform="matrix(1 0 0 -1 -40.58 994.52)">
			<stop  offset="0" style="stop-color:#808080;stop-opacity:0.25"/>
			<stop  offset="0.54" style="stop-color:#808080;stop-opacity:0.12"/>
			<stop  offset="1" style="stop-color:#808080;stop-opacity:0.1"/>
		</linearGradient>
		<path class="st12" d="M462.6,501.9c-2.7,1.2-9.3,7.3-17.7,16.2c-2.7-17.7-4.4-33.7-3.3-40.3c0.1-1,0.4-1.9,1-2.8
			c5.1-0.3,15.4,12.4,23.7,23.9C463.9,500.6,462.6,501.9,462.6,501.9z"/>
	</g>
	<g class="st8">
		
			<linearGradient id="SVGID_6_" gradientUnits="userSpaceOnUse" x1="418.2014" y1="611.0808" x2="418.2014" y2="611.0808" gradientTransform="matrix(1 0 0 -1 0 1002)">
			<stop  offset="0" style="stop-color:#808080;stop-opacity:0.25"/>
			<stop  offset="0.54" style="stop-color:#808080;stop-opacity:0.12"/>
			<stop  offset="1" style="stop-color:#808080;stop-opacity:0.1"/>
		</linearGradient>
		<polygon class="st13" points="418.2,390.9 418.2,390.9 418.2,390.9 		"/>
	</g>
	<path class="st14" d="M597.7,579.5c0,0,44.3,87.8,55.4,91.2c11.1,3.4,18.8-1.7,18.8-1.7s92.1-17.1,75,2.6
		c-17.1,19.6-166.3,7.7-166.3,7.7l-37.5-84.4L597.7,579.5z"/>
	<path class="st2" d="M470.7,581.2c0,0,71.6-47.7,91.2-47.7c0,0,29-9.4,46,55.4c0,0-58.8,10.2-58,38.4l-11.1-23.9l-47.7,52.9
		l-58-39.2L470.7,581.2z"/>
	<path class="st15" d="M470.7,579.5c0,0,71.6-47.7,91.2-47.7c0,0,29-9.4,46,55.4c0,0-58.8,10.2-58,38.4l-11.1-23.9l-47.7,52.9
		l-58-39.2L470.7,579.5z"/>
	<path class="st14" d="M549.1,555.6c-4.3,20.5-26.4,23.9-26.4,23.9l-31.5-19.6c0,0-4.5-29.4-8.2-47.3c-1.4-6.9-2.8-12.1-3.7-13.3
		c-3.4-4.3,50.3-3.4,50.3-3.4c3.8,6.4,7.2,12.9,10.3,19.7C545.7,528.4,551.4,544.6,549.1,555.6z"/>
	<path class="st14" d="M412.7,401.3l-17.9,85.3l-43.5-11.1c0,0-40.1-31.5-28.1-51.2c3.9-6.4,5.9-15.7,6.8-25.4
		c1.9-19.9-0.9-41.1-0.9-41.1s47.7-12.8,38.4,22.2c-3.9,14.4,3.1,20.5,12.6,22.8C393.8,406,412.7,401.3,412.7,401.3z"/>
	<path class="st2" d="M380.1,402.7c-6.8,3.5-14.3,5.4-22,5.4c-10.5,0-20.7-6.6-28.6-12.4c1.1-12.6,1-25.3-0.4-37.9
		c0,0,47.7-12.8,38.4,22.2C363.7,394.3,370.6,400.4,380.1,402.7z"/>
	<circle class="st14" cx="358.1" cy="358.6" r="47.7"/>
	<path class="st2" d="M354.6,458.2l13,18.1l7.4-26.7c2.8-10.7,4.3-21.7,4.5-32.7c0.1-4.7,1.6-9.2,4.4-13
		c13.3-7.2,23.1-11.1,39.9-9.4c16.6,1.8,32.4,8.2,45.5,18.4c49.8,38.2,73.2,101.8,73.2,101.8s-68.2-13.6-64.8,1.7
		c0,0-29.8-47.7-36.7-40.1c-6.8,7.7,14.5,109.1,14.5,109.1l-139.8,10.2l-36.7-97.2l1.7-72.5c0,0,36.2-16.6,43.9-16.6
		c2.7,0,2.3-0.9,3.4,3.4C332.3,429.5,344.5,444.1,354.6,458.2z"/>
	<path class="st2" d="M539.8,515.6c-11.9-2.1-45.5-7.6-56.9-3c-1.4-6.9-2.8-12.1-3.7-13.3c-3.4-4.3,50.3-3.4,50.3-3.4
		C533.3,502.3,536.7,508.8,539.8,515.6z"/>
	<path class="st16" d="M356.3,457.4l13,18.1l7.4-26.7c2.8-10.7,4.3-21.7,4.5-32.7c0.1-4.7,1.6-9.2,4.4-13
		c13.3-7.2,23.1-11.1,39.9-9.4c16.6,1.8,32.4,8.2,45.5,18.4c49.8,38.2,73.2,101.8,73.2,101.8s-68.2-13.6-64.8,1.7
		c0,0-29.8-47.7-36.7-40.1s14.5,109.1,14.5,109.1l-139.8,10.2l-36.7-97.2l1.7-72.5c0,0,36.2-16.6,43.9-16.6c2.7,0,2.3-0.9,3.4,3.4
		C334,428.6,346.2,443.3,356.3,457.4z"/>
	<path class="st2" d="M325,392.3c-4.8,0.9-10.4-0.8-12.7-5c-1.1-2-1.4-4.4-2-6.6c-2.5-9.7-10.6-17-14.6-26.2
		c-6.7-15.5-0.9-33.3,5.1-49.1c2.9-7.8,6-15.9,12.2-21.4c9.5-8.5,23.7-8.7,36.4-7c5.1,0.7,10.2,1.6,15.4,1.2s10.4-2.3,13.6-6.3
		c2.7,1.8,1.7,5.9,1.2,9.1c-0.5,3.2-0.1,6.9,2.5,8.9c2.6,2,7.4,0.3,7.1-2.9c-2.3,6.8,2.8,14.4,9.4,17.4c2.2,1,4.5,1.6,6.8,2
		c8.2,1.2,14.2,8.2,14.1,16.5v0.1c0.1,0.9-0.1,1.8-0.6,2.6c-0.5,0.6-1.2,1.1-2,1.3c-6.6,3-12,8.2-15.3,14.7
		c-1.8,3.5-3.1,7.5-6.4,9.6c-4,2.6-9.2,1.3-14,1.7c-8,0.8-14.8,6.3-17.1,14.1c-1.1,3.9-1,8.3-3.4,11.8c-1.1,1.6-2.8,2.7-4.7,2.9
		c-3.7,0.4-5.4-2.9-8-4.6c-6.2-4-10.2,1.3-12.2,6.3C333.7,388.7,332.2,391,325,392.3z"/>
	<path class="st17" d="M325,391.5c-4.8,0.9-10.4-0.8-12.7-5c-1.1-2-1.4-4.4-2-6.6c-2.5-9.7-10.6-17-14.6-26.2
		c-6.7-15.5-0.9-33.3,5.1-49.1c2.9-7.8,6-15.9,12.2-21.4c9.5-8.5,23.7-8.7,36.4-7c5.1,0.7,10.2,1.6,15.4,1.2s10.4-2.3,13.6-6.3
		c2.7,1.8,1.7,5.9,1.2,9.1c-0.5,3.2-0.1,6.9,2.5,8.9c2.6,2,7.4,0.3,7.1-2.9c-2.3,6.8,2.8,14.4,9.4,17.4c2.2,1,4.5,1.6,6.8,2
		c8.2,1.2,14.2,8.2,14.1,16.5v0.1c0.1,0.9-0.1,1.8-0.6,2.6c-0.5,0.6-1.2,1.1-2,1.3c-6.6,3-12,8.2-15.3,14.7
		c-1.8,3.5-3.1,7.5-6.4,9.6c-4,2.6-9.2,1.3-14,1.7c-8,0.8-14.8,6.3-17.1,14.1c-1.1,3.9-1,8.3-3.4,11.8c-1.1,1.6-2.8,2.7-4.7,2.9
		c-3.7,0.4-5.4-2.9-8-4.6c-6.2-4-10.2,1.3-12.2,6.3C333.7,387.8,332.2,390.2,325,391.5z"/>
	<g class="st8">
		<path d="M460.6,411.2c46,35.4,69.5,92.4,72.8,100.7c6.4,1,10.6,1.9,10.6,1.9s-23.4-63.5-73.2-101.8
			c-13.2-10.3-28.9-16.6-45.5-18.5c-2.3-0.2-4.5-0.4-6.6-0.4C434,395.5,448.4,401.7,460.6,411.2z"/>
		<path d="M319.4,411c4.4,16.7,16.6,31.4,26.7,45.5l13,18.1l2.7-9.7l-5.4-7.5c-10.1-14.1-22.3-28.7-26.7-45.5
			c-1.1-4.3-0.7-3.4-3.4-3.4c-2.4,0.2-4.8,0.8-7.1,1.6L319.4,411z"/>
		<path d="M474.7,508.5c2.8,4.2,4.5,7,4.5,7c-1.5-6.7,10.7-7.9,24.8-7.1C492.9,507.2,481.4,506.7,474.7,508.5z"/>
		<path d="M441.6,478.2c-4-3.8-7.4-5.6-9.2-3.6c-6.8,7.7,14.5,109.1,14.5,109.1l-130.2,9.5l0.6,1.6l139.8-10.2
			C457.1,584.6,438.5,496.2,441.6,478.2z"/>
	</g>
	<path class="st14" d="M312.4,681.2c-8.2,6.8-31.3,22.9-59.9,16.8s-4.6-19.8,6.3-25.1c2.1-1,3-3.6,2-5.7c-0.1-0.3-0.3-0.6-0.5-0.8
		c-6.3-7.7-13.5-14.5-21.4-20.4c-6.9-5.1-15.3-14.3-22.6-23.2l0,0c-3.8-4.6-7.3-9.1-10.2-12.9c-1.4-1.9-1.1-4.5,0.8-6
		c1.1-0.8,2.5-1.1,3.8-0.7l55.9,15.2c0.9,0.2,1.7,0.7,2.2,1.5l18.4,23l26,32.5C314.4,677,314.1,679.7,312.4,681.2z"/>
	<path class="st2" d="M287,642.7c-46.6-34-64.3-27.9-70.8-19.9c-3.8-4.6-7.3-9.1-10.2-12.9c-1.4-1.9-1.1-4.5,0.8-6
		c1.1-0.8,2.5-1.1,3.8-0.7l55.9,15.2c0.9,0.2,1.7,0.7,2.2,1.5L287,642.7z"/>
	<path class="st15" d="M248.2,537.7c0,0-75-24.7-63.1,27.3c11.9,52,27.3,64.8,27.3,64.8s4.3-40.9,76.7,12.8l-25.6-40.9l29.8-37.5
		L248.2,537.7z"/>
	<path class="st2" d="M230.2,490.8c0,0-6.8,35.8,17.9,79.3c19.6,34.5-3.7,50.2-14.1,55.2c-2.8,1.4-6.2,0.8-8.4-1.4
		c-6.9-6.8-20.1-24.2-12.4-51.3l5.1-13.6l-28.1-20.5c0,0-7.6-28.2-4.3-34.6c3.4-6.4,30.7-23.4,30.7-23.4L230.2,490.8z"/>
	<path class="st14" d="M230.2,489.1c0,0-6.8,35.8,17.9,79.3c19.6,34.5-3.7,50.2-14.1,55.2c-2.8,1.4-6.2,0.8-8.4-1.4
		c-6.9-6.8-20.1-24.2-12.4-51.3l5.1-13.6l-28.1-20.5c0,0-7.6-28.2-4.3-34.6c3.4-6.4,30.7-23.4,30.7-23.4L230.2,489.1z"/>
	<path class="st16" d="M292.5,420.9c0,0-61.4,35-87,58s-20.5,30.7-20.5,30.7s24.7-46,46-6c0,0,59.7-43.5,75.9-24.7
		C323.2,497.6,292.5,420.9,292.5,420.9z"/>
	<polygon class="st15" points="269.5,622.1 320.6,611.8 314.7,638.3 277.6,634.4 	"/>
	<path class="st18" d="M358.1,509.5l-1.7,18.8l-61.4-10.2l-18.8-11.9l-28.1-10.2c3.3-9.1,3.8-19.1,1.5-28.5c-1.1-4.1-2.7-8-4.9-11.6
		c-11.9-19.6,50.3-11.1,50.3-11.1c-0.7,4.4-1,8.9-0.9,13.4c0.1,14.2,4.2,34.3,26.5,31l18.8,11.1L358.1,509.5z"/>
	<path class="st18" d="M297.6,483.1c0,0,31.5-13.6,46.9,14.5c15.3,28.1,22.2,26.4,22.2,26.4L336,504.4L297.6,483.1z"/>
	<path class="st19" d="M324,625.5c0,0-23.9,19.6-10.2,44.3c13.6,24.7,98.9,20.5,98.9,20.5S358.6,670,372,601.7
		C372,601.7,333.4,612.7,324,625.5z"/>
	<path class="st19" d="M437.4,654.5l-8.5,32.4l29.8-6c0,0-12.8-27.3-11.1-35C449.4,638.3,437.4,654.5,437.4,654.5z"/>
	<path class="st18" d="M461.3,615.3c0,0,77.6,7.7,98.9,19.6l16.2,5.1c0,0,6-1.7,18.8,9.4l66.5,15.3l51.2,10.2c0,0,46.9,8.5,50.3,6.8
		c3.4-1.7,26.4,12.8,4.3,19.6s-68.2-3.4-68.2-3.4s-34.1-4.3-41.8-1.7c-7.7,2.6-59.7-5.1-59.7-5.1l-51.2,3.4c0,0-8.5-12.8-30.7-8.5
		c-15.8,3-43.4-1.7-57.8-4.7c-5.7-1.2-10.2-5.7-11.3-11.5l-5.1-27.3L461.3,615.3z"/>
	<path class="st5" d="M461.3,615.3c0,0,77.6,7.7,98.9,19.6l16.2,5.1c0,0,6-1.7,18.8,9.4l66.5,15.3l51.2,10.2c0,0,46.9,8.5,50.3,6.8
		c3.4-1.7,26.4,12.8,4.3,19.6s-68.2-3.4-68.2-3.4s-34.1-4.3-41.8-1.7c-7.7,2.6-59.7-5.1-59.7-5.1l-51.2,3.4c0,0-8.5-12.8-30.7-8.5
		c-15.8,3-43.4-1.7-57.8-4.7c-5.7-1.2-10.2-5.7-11.3-11.5l-5.1-27.3L461.3,615.3z"/>
	<path class="st2" d="M294.1,458.1c-12.2,10.5-29,14-44.5,9.3c-1.1-4.1-2.7-8-4.9-11.5c-11.9-19.6,50.3-11.1,50.3-11.1
		C294.4,449.2,294.1,453.6,294.1,458.1z"/>
	<circle class="st18" cx="263.5" cy="420.8" r="46.9"/>
	<path class="st2" d="M243.9,489.9c0,0,35.8,19.6,37.5,32.4c1.7,12.8-5.1,28.1-5.1,28.1s16.2,97.2,36.7,104l54.6-52.9l46-20.5
		c0,0-27.3-1.7-29.8-27.3c-2.6-25.6,3.4-34.1-27.3-46s-47.3-26-47.3-26l-7.9,2l40.8,21.4c0,0,23,13.6-36.7,3.4L249,488.2
		L243.9,489.9z"/>
	<path class="st20" d="M243,488.2c0,0,35.8,19.6,37.5,32.4c1.7,12.8-5.1,28.1-5.1,28.1s16.2,97.2,36.7,104l54.6-52.9l46-20.5
		c0,0-27.3-1.7-29.8-27.3c-2.6-25.6,3.4-34.1-27.3-46c-30.7-11.9-47.3-26-47.3-26l-7.9,2l40.8,21.4c0,0,23,13.6-36.7,3.4l-56.3-20.5
		L243,488.2z"/>
	<path class="st2" d="M255.8,495c0,0-35-12.8-26.4,28.1c8.5,40.9,52.9,111.7,52.9,111.7l104-35.8c0,0,32.4-24.7,23.9-27.3
		c-8.5-2.6-53.7,13.6-53.7,13.6l-61.4,9.4l-14.5-40.9c0,0,13.6-9.4,9.4-21.3l-0.1-0.4c-5.8-15.9-17.5-28.9-32.6-36.5L255.8,495z"/>
	<path class="st18" d="M254.1,493.3c0,0-35-12.8-26.4,28.1c8.5,40.9,52.9,111.7,52.9,111.7l104-35.8c0,0,32.4-24.7,23.9-27.3
		c-8.5-2.6-53.7,13.6-53.7,13.6l-61.4,9.4l-14.5-40.9c0,0,13.6-9.4,9.4-21.3l-0.1-0.4c-5.8-15.9-17.5-28.9-32.6-36.5L254.1,493.3z"
		/>
	<path class="st2" d="M257.4,353.6c-4.1-1-8.3-1.8-12.5-1.3c-4,0.6-7.8,1.8-11.3,3.6c-5.7,2.7-11.2,5.8-16.4,9.5
		c-3.5,2.4-6.9,5.1-10.9,6.5c-6,2.1-13,1.1-18.6,4.3c-7.8,4.4-9.5,14.9-8.4,23.8s4.3,17.7,2.9,26.5c-2.1,13.2-13.6,22.6-24.1,30.9
		c-3.3,2.6-6.9,5.7-7.4,9.8c-0.3,2.6,0.6,5.2,1.4,7.7c4.4,13.7,4.2,28.6-0.7,42.2c-5,13.6-14.8,24.9-27.6,31.7
		c-4.8,2.6-10.7,5.1-11.8,10.5c-1.4,6.8,5.9,12,12.4,14.4c5.3,2,10.8,3.4,16.4,4.3c4.9,0.8,10.2,1.1,14.6-1.1
		c5.2-2.5,8.4-7.8,11.2-12.9c10.7-19.8,23.9-29.5,30.9-51c1.5-4.6,3.9-10.1,8.7-10.6c3-0.3,5.8,1.6,8.3,3.2c12.4,7.8,25.4-0.9,37-10
		c2.7-2.1,5-4.7,7.9-6.3c6.3-3.5,15.5-2.5,19.3-8.6c0.9-1.6,1.5-3.4,1.8-5.2c1.6-6.7,3.1-13.6,1.3-20.3c-1.7-6.1-6-11.1-8.5-16.9
		c-2.6-5.8-2.7-13.7,2.5-17.3c1.6-1.1,3.4-1.6,5-2.8c4.5-3.2,4.6-9.7,4.6-15.3c-0.1-1.4,0.1-2.7,0.7-4c0.8-1.2,1.9-2.2,3.2-2.9
		c4.7-3.3,9.1-8.3,11.1-13.8c2.3-6.1-3.5-8.9-8.2-12.3C281.8,362.3,270,356.7,257.4,353.6z"/>
	<path class="st21" d="M256.5,352.7c-4.1-1-8.3-1.8-12.5-1.3c-4,0.6-7.8,1.8-11.3,3.6c-5.7,2.7-11.2,5.8-16.4,9.5
		c-3.5,2.4-6.9,5.1-10.9,6.5c-6,2.1-13,1.1-18.6,4.3c-7.8,4.4-9.5,14.9-8.4,23.8c1.2,8.9,4.3,17.7,2.9,26.5
		c-2.1,13.2-13.6,22.6-24.1,30.9c-3.3,2.6-6.9,5.7-7.4,9.8c-0.3,2.6,0.6,5.2,1.4,7.7c4.4,13.7,4.2,28.6-0.7,42.2
		c-5,13.6-14.8,24.9-27.6,31.7c-4.8,2.6-10.7,5.1-11.8,10.5c-1.4,6.8,5.9,12,12.4,14.4c5.3,2,10.8,3.4,16.4,4.3
		c4.9,0.8,10.2,1.1,14.6-1.1c5.2-2.5,8.4-7.8,11.2-12.9c10.7-19.8,23.9-29.5,30.9-51c1.5-4.6,3.9-10.1,8.7-10.6
		c3-0.3,5.8,1.6,8.3,3.2c12.4,7.8,25.4-0.9,37-10c2.7-2.1,5-4.7,7.9-6.3c6.3-3.5,15.5-2.5,19.3-8.6c0.9-1.6,1.5-3.4,1.8-5.2
		c1.6-6.7,3.1-13.6,1.3-20.3c-1.7-6.1-6-11.1-8.5-16.9c-2.6-5.8-2.7-13.7,2.5-17.3c1.6-1.1,3.4-1.6,5-2.8c4.5-3.2,4.6-9.7,4.6-15.3
		c-0.1-1.4,0.1-2.7,0.7-4c0.8-1.2,1.9-2.2,3.2-2.9c4.7-3.3,9.1-8.3,11.1-13.8c2.3-6.1-3.5-8.9-8.2-12.3
		C281,361.5,269.1,355.9,256.5,352.7z"/>
	<path class="st18" d="M653.6,726.5c-23.1,4.9-90.7,2.8-100.6-5.1c-15.2-12.1-11.4-22.9-10.4-25.2h-0.2c0,0,8.5-20.5,0-35.8
		c0,0-0.9-18.8-18.8-33.3c-17.9-14.5-37.5-55.4-37.5-55.4l-10.2,21.3c0,0-15.3,46.8-31.3,67.6c-3.2,4.1-5.4,8.9-6.3,14.1
		c-1.1,5.6-4.7,12.7-16,14.7l-0.6,0.1c-16.2,2.7-32.5-4.2-41.8-17.7c-7.7-11-16.3-26.2-18.2-41.1c-1.3-10.1,1.8-20.3,8.4-28l0.1-0.1
		c18.3-21.7,82-96.3,92.2-100.7c0,0,46-44.3,64,15.3c17.9,59.7,23.9,77.6,23.9,77.6s21.4,38.2,27.3,51.2c6.1,13.4,31.3,46.7,33.9,50
		c2.3,1.6,24.9,16.9,32.2,16.9C646.6,712.9,670.3,723,653.6,726.5z"/>
	<g class="st8">
		<path d="M545.8,672.5c0.7-6.6,0.3-14.5-3.5-21.4c0,0-0.9-18.8-18.8-33.3c-17.9-14.5-37.5-55.4-37.5-55.4l-10.2,21.3
			c0,0-15.3,46.8-31.3,67.6c-3.2,4.1-5.4,8.9-6.3,14.1c-1.1,5.6-4.7,12.7-16,14.7l-0.6,0.1c-16.2,2.7-32.5-4.2-41.8-17.7
			c-7.5-10.9-16.1-25.9-18.2-40.6c-0.5,3.2-0.5,6.5-0.1,9.7c2,14.9,10.6,30.1,18.2,41.1c9.3,13.5,25.6,20.4,41.8,17.7l0.6-0.1
			c11.3-2,15-9.1,16-14.7c1-5.1,3.2-9.9,6.3-14.1c16-20.8,31.3-67.6,31.3-67.6l10.2-21.3c0,0,19.6,40.9,37.5,55.4
			c17.9,14.5,18.8,33.3,18.8,33.3C544.2,664.8,545.4,668.6,545.8,672.5z"/>
	</g>
	<path class="st5" d="M323.6,562c0,0,36.7-0.9,34.1-12.8"/>
</g>
</svg>
