<?xml version="1.0" encoding="utf-8"?>
<!-- Generator: Adobe Illustrator 19.0.0, SVG Export Plug-In . SVG Version: 6.00 Build 0)  -->
<svg version="1.1" id="图层_1" xmlns="http://www.w3.org/2000/svg" xmlns:xlink="http://www.w3.org/1999/xlink" x="0px" y="0px"
	 viewBox="0 0 1000 1000" style="enable-background:new 0 0 1000 1000;" xml:space="preserve">
<style type="text/css">
	.st0{opacity:0.1;fill:#6C63FF;enable-background:new    ;}
	.st1{fill:#535461;}
	.st2{fill:url(#SVGID_1_);}
	.st3{opacity:0.1;enable-background:new    ;}
	.st4{fill:#E2E2EC;}
	.st5{fill:none;stroke:#535461;stroke-width:2;stroke-miterlimit:10;}
	.st6{opacity:0.1;fill:none;stroke:#000000;stroke-width:2;stroke-miterlimit:10;enable-background:new    ;}
	.st7{fill:none;stroke:#E2E2EC;stroke-width:2;stroke-miterlimit:10;}
	.st8{fill:#BE6F72;}
	.st9{opacity:5.000000e-02;enable-background:new    ;}
	.st10{fill:#3F3D56;}
	.st11{fill:#F86D70;}
	.st12{fill:#6C63FF;}
	.st13{opacity:0.25;enable-background:new    ;}
	.st14{fill:#FBBEBE;}
	.st15{fill:#E3E8F4;}
	.st16{fill:#FED253;}
	.st17{opacity:0.2;enable-background:new    ;}
	.st18{fill:none;stroke:#FFFFFF;stroke-miterlimit:10;}
</style>
<path class="st0" d="M86.9,188c-19.7,36.3-6.4,81.5-3.2,123.3c2,25.5-0.1,51.2-6.1,76c-8.5,35.2-24.7,68.2-28.9,104.2
	s8.7,78.4,40.6,90.9c7.9,3.1,16.5,4.2,24.2,7.8c20.9,10,30.2,36.8,30.9,61.2c0.7,24.4-4.9,48.7-3.9,73.1
	c0.6,13.7,3.6,28.1,12.3,38.2c8,9.3,19.7,13.7,31,17.7c35.6,12.5,72.7,23.6,110,19.7s75.1-25.7,89.4-62.6c5.2-13.4,7.1-28,12.3-41.3
	c5.2-13.3,15.1-26.1,28.5-28.2c7.8-1.2,15.7,1.4,23.3,3.9l108.4,36.5c16.6,5.6,35.3,11.1,50.9,2.8c8-4.3,14.1-11.7,20-19
	c46.3-57.2,94.6-119.3,103-194.4c3-26.5,0.8-53.4,4.1-79.8s13.5-53.8,34.6-68c16.3-11,36.4-12.6,55.5-14.9
	c31-3.6,62.2-9.7,90.3-24.1c28.1-14.4,53.1-37.8,65.1-68.5c3.5-9.1,5.9-19.1,3.9-28.7c-3.6-17.1-19.5-27.6-34.4-35
	c-44.6-22-92.9-33.8-141.1-44.1c-22.1-4.8-44.4-9.3-66.9-9c-19.5,0.2-38.8,4-58,7.6c-164.6,30.6-342.4,49.9-507.6,12.6
	C140.6,138.1,105.8,153.2,86.9,188z"/>
<g id="_x23_other_x28_have_x5B_controller_x5D__x29_">
	<path class="st1" d="M387.3,444.7h-47c0,0-12-14-52-13s-48,13-48,13s-39.5,26.5-48.5,59.5c0,0-48.5,145.5-49.5,259.5s43,130,66,133
		s64-1,104-102l17-59c0,0,3-35,39-13s68-12,68-12h135c0,0,45,28,86,6c0,0,16-21,31,50c0,0,46,146,117,131s63-137,63-137
		s-9.5-186.5-48.5-252.5c0,0-37.5-68.5-62.5-71.5c0,0-54-10-75-1l-12,10L387.3,444.7z"/>
	
		<linearGradient id="SVGID_1_" gradientUnits="userSpaceOnUse" x1="617.1106" y1="68.6269" x2="617.1106" y2="554.15" gradientTransform="matrix(1 0 0 -1 -111.66 972.15)">
		<stop  offset="0" style="stop-color:#808080;stop-opacity:0.25"/>
		<stop  offset="0.54" style="stop-color:#808080;stop-opacity:0.12"/>
		<stop  offset="1" style="stop-color:#808080;stop-opacity:0.1"/>
	</linearGradient>
	<path class="st2" d="M875.6,762.7c0,0-9.7-190.2-49.5-257.5c0,0-29.2-53.3-53.5-68.8v-6.1c-39.8-27.5-88.7,0-88.7,0v2.7l-10.2,8.5
		l-45.9-0.2c-4.2-5.1-10.5-8-17-8H401c-6.2,0-12.1,2.6-16.3,7.1H337c0,0-2.8-3.3-10.2-6.6v-3.6c-39.8-27.5-88.7,0-88.7,0v7.4
		c-1.2,0.8-2.2,1.7-3.1,2.8c0,0-40.3,27-49.5,60.7c0,0-49.5,148.4-50.5,264.7s43.9,132.6,67.3,135.7s65.3-1,106.1-104l17.3-60.2
		c0,0,3.1-35.7,39.8-13.3s69.3-12.2,69.3-12.2h137.7c0,0,45.8,28.5,87.7,6c0,0,16.3-21.4,31.6,51c0,0,46.9,148.9,119.3,133.6
		S875.6,762.7,875.6,762.7z"/>
	<path class="st1" d="M243.3,445.7v-11c0,0,48-27,87,0v10L243.3,445.7z"/>
	<path class="st1" d="M680.3,445.7v-11c0,0,48-27,87,0v10L680.3,445.7z"/>
	<path class="st3" d="M243.3,445.7v-11c0,0,48-27,87,0v10L243.3,445.7z"/>
	<path class="st3" d="M680.3,445.7v-11c0,0,48-27,87,0v10L680.3,445.7z"/>
	<circle class="st4" cx="278.3" cy="542.7" r="87"/>
	<circle class="st4" cx="732.3" cy="542.7" r="87"/>
	<path class="st1" d="M293.5,523.3l-11.6,10.3c-2,1.8-5.1,1.8-7.1,0l-11.6-10.3c-1.1-1-1.8-2.5-1.8-4v-28.2c0-3,2.4-5.4,5.4-5.4H290
		c3,0,5.4,2.4,5.4,5.4c0,0,0,0,0,0v28.2C295.3,520.9,294.7,522.3,293.5,523.3z"/>
	<path class="st1" d="M293.5,562.1l-11.6-10.2c-2-1.8-5.1-1.8-7.1,0l-11.6,10.3c-1.1,1-1.8,2.5-1.8,4v28.2c0,3,2.4,5.4,5.4,5.4
		c0,0,0,0,0,0H290c3,0,5.4-2.4,5.4-5.4c0,0,0,0,0,0v-28.2C295.3,564.6,294.7,563.1,293.5,562.1z"/>
	<path class="st1" d="M258.9,557.9l10.3-11.6c1.8-2,1.8-5.1,0-7.1l-10.3-11.6c-1-1.1-2.5-1.8-4-1.8h-28.2c-3,0-5.4,2.4-5.4,5.4v23.2
		c0,3,2.4,5.4,5.4,5.4c0,0,0,0,0,0H255C256.5,559.7,257.9,559.1,258.9,557.9z"/>
	<path class="st1" d="M297.7,557.9l-10.2-11.6c-1.8-2-1.8-5.1,0-7.1l10.3-11.6c1-1.1,2.5-1.8,4-1.8H330c3,0,5.4,2.4,5.4,5.4
		c0,0,0,0,0,0v23.2c0,3-2.4,5.4-5.4,5.4c0,0,0,0,0,0h-28.2C300.2,559.7,298.7,559.1,297.7,557.9z"/>
	<polygon class="st5" points="263.3,478.7 293.3,478.7 278.3,465.7 	"/>
	<polygon class="st5" points="263.3,606.7 293.3,606.7 278.3,619.7 	"/>
	<polygon class="st5" points="214.3,527.7 214.3,557.7 201.3,542.7 	"/>
	<polygon class="st5" points="342.3,527.7 342.3,557.7 355.3,542.7 	"/>
	<circle class="st4" cx="396.3" cy="637.7" r="63"/>
	<circle class="st1" cx="394.3" cy="627.7" r="42"/>
	<circle class="st4" cx="614.3" cy="637.7" r="63"/>
	<circle class="st1" cx="612.3" cy="627.7" r="42"/>
	<circle class="st6" cx="394.3" cy="627.7" r="28"/>
	<circle class="st6" cx="612.3" cy="627.7" r="28"/>
	<circle class="st4" cx="507.3" cy="644.7" r="18"/>
	<circle class="st4" cx="479.8" cy="584.7" r="3.9"/>
	<circle class="st4" cx="494.5" cy="584.7" r="3.9"/>
	<circle class="st4" cx="492.6" cy="603.3" r="3.9"/>
	<circle class="st4" cx="506.3" cy="603.7" r="4"/>
	<circle class="st4" cx="520.1" cy="603.3" r="3.9"/>
	<circle class="st4" cx="486.7" cy="594.5" r="3.9"/>
	<circle class="st4" cx="499.3" cy="594.7" r="4"/>
	<circle class="st4" cx="512.3" cy="594.7" r="4"/>
	<circle class="st4" cx="526" cy="594.5" r="3.9"/>
	<circle class="st4" cx="506.3" cy="584.7" r="4"/>
	<circle class="st4" cx="520.3" cy="584.7" r="4"/>
	<circle class="st4" cx="531.8" cy="584.7" r="3.9"/>
	<path class="st4" d="M357.8,451.7h5c4.7,0,8.5,3.8,8.5,8.5v21c0,4.7-3.8,8.5-8.5,8.5h-5c-4.7,0-8.5-3.8-8.5-8.5v-21
		C349.3,455.5,353.1,451.7,357.8,451.7z"/>
	<path class="st4" d="M649.8,451.7h5c4.7,0,8.5,3.8,8.5,8.5v21c0,4.7-3.8,8.5-8.5,8.5h-5c-4.7,0-8.5-3.8-8.5-8.5v-21
		C641.3,455.5,645.1,451.7,649.8,451.7z"/>
	<circle class="st1" cx="733.3" cy="489.7" r="24"/>
	<circle class="st1" cx="682.3" cy="540.7" r="24"/>
	<circle class="st1" cx="786.3" cy="537.7" r="24"/>
	<circle class="st1" cx="737.3" cy="590.7" r="24"/>
	<path class="st4" d="M403.1,437.7h205.5c12,0,21.8,9.7,21.8,21.8V549c0,12-9.7,21.8-21.8,21.8H403.1c-12,0-21.8-9.7-21.8-21.8
		v-89.5C381.3,447.5,391.1,437.7,403.1,437.7z"/>
	<polygon class="st7" points="718.8,499.7 732.8,475.7 747.8,499.7 	"/>
	<rect x="669.8" y="529.7" class="st7" width="25" height="22"/>
	<circle class="st7" cx="786.3" cy="537.7" r="14"/>
	<line class="st7" x1="725.8" y1="579.5" x2="748.3" y2="602"/>
	<line class="st7" x1="748.8" y1="579.5" x2="725.8" y2="601.5"/>
</g>
<g id="_x23_group_x28_have_x5B_man_x28_drink_x5B_beer_x5D__x2C_sit_x2C_raise_x5B_arm_x5D__x29__x2C_man_x28_sit_x2C_raise_x5B_arm_x5D__x2C_eat_x5B_chips_x5D__x29__x5D__x29_">
	<path class="st8" d="M731.3,309c6.2-0.6,11.7-4.1,16.8-7.7c6.5-4.5,12.9-9.2,19.1-14.2c1.7-1.3,3.4-2.8,4-4.9
		c0.5-1.9-0.1-3.8-0.8-5.6c-3-8.9-6.2-17.8-9.5-26.6c-2-6.3-5.4-12.1-9.9-17c-6-7-12-14-18.2-20.8c-5.7-6.3-7.2-15.6-10.7-23.4
		c-0.3-0.8-0.8-1.6-1.5-2.2c-0.9-0.6-2-0.8-3-0.8c-4.6-0.2-9.2,0.5-13.5,2.1c-3,1.1-6.1,3-6.8,6.2c-0.8,3.4,1.6,6.6,3.9,9.3
		c1.5,2,3.3,3.8,5.2,5.4c2.6,2.1,5.8,3.4,8.6,5.3c2.2,1.7,4.3,3.6,6.2,5.7c2.8,2.9,5.6,5.8,7.4,9.4c1.7,3.2,2.6,6.8,3.4,10.3
		l4.8,19.8l2.7,10.8c0.4,1-0.1,2.1-1,2.5l0,0c-3.4,2.6-6.3,5.7-8.7,9.1c-0.9,1.2-1.6,2.6-2,4.2c-0.2,1.5-0.2,3,0.1,4.5
		C728.8,296.8,730,302.7,731.3,309z"/>
	<path class="st8" d="M658.5,275.1c-0.2,1.3,0.3,2.5,1.3,3.3c1.9,2,4.1,3.7,6.5,5c0.5,0.2,0.9,0.6,1.2,1c0.2,0.4,0.3,0.7,0.3,1.1
		c0.9,6.8-1.9,13.5-5.4,19.3c-2.2,3.7-4.9,7-8,10c-2.7,2.6-5.7,4.7-9,6.4c-5.5,2.9-11.8,4.5-18,3.9c-6.2-0.6-12.3-3.7-15.9-8.8
		c-4.3-5.9-4.9-13.7-5-21c-0.1-4.4,0-8.9,2-12.8c0.6-1.4,1.7-2.6,2.9-3.4c1.8-1.1,4.2-1.2,6-2.3c1.6-1,2.6-2.6,2.8-4.4
		c0.1-0.8,0.1-1.5,0.6-2.1c0.4-0.3,0.9-0.5,1.4-0.5l15.1-2.6c5.5-0.9,11-1.8,16.6-1.4c1.8,0.1,4.5,0,5.1,2.1
		S658.6,272.9,658.5,275.1z"/>
	<path class="st9" d="M658.5,275.1c-0.2,1.3,0.3,2.5,1.3,3.3c1.9,2,4.1,3.7,6.5,5c0.5,0.2,0.9,0.6,1.2,1c0.2,0.4,0.3,0.7,0.3,1.1
		c0.9,6.8-1.9,13.5-5.4,19.3c-2.2,3.7-4.9,7-8,10c-2.7,2.6-5.7,4.7-9,6.4c-5.5,2.9-11.8,4.5-18,3.9c-6.2-0.6-12.3-3.7-15.9-8.8
		c-4.3-5.9-4.9-13.7-5-21c-0.1-4.4,0-8.9,2-12.8c0.6-1.4,1.7-2.6,2.9-3.4c1.8-1.1,4.2-1.2,6-2.3c1.6-1,2.6-2.6,2.8-4.4
		c0.1-0.8,0.1-1.5,0.6-2.1c0.4-0.3,0.9-0.5,1.4-0.5l15.1-2.6c5.5-0.9,11-1.8,16.6-1.4c1.8,0.1,4.5,0,5.1,2.1
		S658.6,272.9,658.5,275.1z"/>
	<path class="st10" d="M649.3,554.5c2.3,3.9,5.8,7,8.2,10.9c1.5,2.3,2.6,5.3,1.5,7.8c-0.9,2.1-3.1,3.4-5.2,4.4
		c-5.7,2.5-12,3.5-18.2,2.8c-1.1-0.1-2.3-0.3-3.3-0.7c-3.4-1.3-5.5-4.8-6.9-8.2c-0.4-1.3-1-2.6-1.8-3.8c-1.5-2.2-4-3.3-6.2-4.8
		s-4.4-3.5-4.4-6.2c0.1-1.1,0.3-2.3,0.6-3.4c0.4-2.1,0.1-4.2,0.2-6.3c0.1-2.4,0.5-4.8,1.3-7.1c0.2-0.7,0.6-1.4,1.1-1.9
		c0.5-0.3,1.1-0.5,1.7-0.6c7.3-1.3,14.8-0.9,21.9,1.3c1.4,0.4,4.1,0.9,5.1,2c0.9,0.9,0.8,2,0.9,3.2
		C646.3,547.6,647.5,551.2,649.3,554.5z"/>
	<path class="st10" d="M599.2,541.3c1.1,8,2.2,16.1,4.7,23.8c0.4,1.3,0.9,2.8,0.3,4.1c-0.4,0.7-0.9,1.3-1.5,1.7
		c-5.5,4.3-13.2,4.5-20,2.9c-3.9-0.9-7.7-2.3-11.2-4.2c-0.4-0.2-0.8-0.4-1.1-0.8c-0.3-0.4-0.6-1-0.7-1.5c-2.5-9.9-1.2-20.4,3.5-29.4
		c0.7-1.4,1.6-2.7,2.8-3.8c1.7-1.4,3.9-2,6.1-2.5c4.9-1.2,10-2.9,15-3.5C598.7,532,598.6,537.1,599.2,541.3z"/>
	<path class="st11" d="M629.5,445.8c-11.3,0.4-22.5,3.3-33.8,3.5c-5.4,0.1-11-0.5-15.4-3.5c-3.6-2.5-5.9-6.4-8.1-10.1
		c-1.8-3-3.6-6.1-4.6-9.4c-1.8-5.9-1-12.2,0-18.3c0.8-4.7,1.8-9.9,5.5-13c2.2-1.9,5-2.8,7.8-3.6c13.1-3.9,26.7-6.2,40.2-8.6
		c4-0.7,8-1.4,12.1-1.7c10-0.8,20,0.8,29.2,4.6c4.1,1.7,8.2,4,10.9,7.6c3.2,4.3,4,9.9,3.4,15.1c-0.6,5.3-2.6,10.3-4.5,15.2l-6.2,16
		c-1.3,3.4-2.1,9.4-6.3,10.1c-3.9,0.7-10-2.2-14-2.8C640.3,446.1,634.9,445.7,629.5,445.8z"/>
	<circle class="st8" cx="637.8" cy="250" r="30.9"/>
	<path class="st12" d="M635.6,315.2l13.4-15.3c1.2-1.4,2.5-2.8,3.8-4c1.9-1.7,4.1-3.1,5.3-5.4c1.8-3.5,0.6-7.8,0.4-11.7
		c-0.1-0.8,0.3-1.5,1-1.9c0.9-0.5,1.5,0.1,2.3,0.4c1.7,0.8,3.9,0.2,5.6,0.9c1.3,0.5,2.1,1.7,3.1,2.7c1,0.9,2.5,1.7,3.7,1.2
		c0.7-0.3,1.2-0.9,1.8-1.2c1.6-0.8,3.4,0.4,5.2,0.4c1.5,0,3-0.9,4.4-1.4c1.6-0.5,3.3-0.7,5-0.8l15.1-1.1c0.3,11.2-2,22.4-4.7,33.3
		c-2.7,11.1-5.5,22.3-11.1,32.3c-2.4,4.4-5.4,8.5-6.2,13.6c-0.2,1.5-0.2,3,0.1,4.5c0.1,0.6,0.4,1.2,0.8,1.7
		c0.7,5.2-0.4,10.9-3.5,15.2c-1.7,2.3-3.9,4.2-5.4,6.7c-1.5,2.4-2.3,5.6-0.9,8.1c-4.8,1.5-9.8-1-14.6-2.3c-10.8-2.8-22.1,1.1-32,6.2
		c-3.3,1.7-6.7,3.6-10.4,3.9c-6.7,0.4-12.4-4.5-18.7-6.6c-10.7-3.6-22.1,0.9-33.2,3c-1.5,0.3-3.3,0.5-4.7-0.3
		c-1.4-0.8-2-2.7-2.2-4.3c-0.6-6.2,2.7-12,4.5-17.9c2.5-8.8,1.6-18.2-2.6-26.4c-2.4-4.6-3.3-9.8-2.5-14.9c0.1-0.3,0.1-0.6,0.1-0.9
		l3.9-25c0.3-2.9,1-5.8,1.9-8.6c2.3-6.3,7.6-11.1,13.4-14.3s12.3-5,18.8-6.7c5.3-1.5,10.8-2.7,16.3-3.4c0.8-0.1,1.7-0.1,2.2,0.5
		c0.3,0.4,0.4,0.9,0.4,1.3c0.2,3.1-1,6-1.1,9.1c-0.2,4.4,1.8,8.5,4.2,12.2C623.1,305.1,628.4,310.9,635.6,315.2z"/>
	<path class="st12" d="M702.1,281.4c1.7-1.9,4.4-2.5,6.9-3.1l6.6-1.4c1.2-0.3,2.5-0.5,3.8-0.5c0.9,0,1.9,0.2,2.8,0.2
		c1.4-0.1,2.8-0.4,4.1-0.9l11.6-3.7c-3.9,5.4-4.3,12.3-4.4,18.9c-0.1,2.8,0,5.7,0.3,8.5c0.3,3,0.9,6.1,0.5,9.1
		c-0.5,3.5-2.3,7.3-0.5,10.3c0.9,1.6,2.7,2.5,4.4,3.3c-11.6,2.4-22.6,6.9-32.7,13.2c-2.4,1.5-4.7,3.1-7.4,3.9
		c-1.8,0.5-3.5,0.7-5.4,0.8l-5.7,0.5c-1-13.7,3.2-27.1,7.4-40.2c1.1-3.4,2.2-6.8,3.5-10.1C699,287.2,700,283.8,702.1,281.4z"/>
	<path class="st10" d="M614.1,325c-1.3,0.1-2.6,0.2-4,0.1c-0.5,0-0.9,0.3-0.9,0.8l-2.5,18.9c-0.2,1.4-0.7,2.7-1.6,3.7
		c-1.5,1.7-2.1,4-1.8,6.2V387c0,0-0.2,4.3,3.1,4.3c3.9,0.5,7.9,0.5,11.9,0c0,0,2.6-0.5,2.6-4.5v-31.6c0.4-2.2-0.2-4.5-1.6-6.3
		c-0.8-1.1-1.4-2.4-1.5-3.7l-2.7-19.4C615,325.3,614.6,325,614.1,325z"/>
	<path class="st12" d="M610.9,355.4h2.4c3.7,0,6.8,3,6.8,6.8v13.5c0,3.7-3,6.8-6.8,6.8h-2.4c-3.7,0-6.8-3-6.8-6.8v-13.5
		C604.1,358.4,607.2,355.4,610.9,355.4z"/>
	<path class="st13" d="M610.9,355.4h2.4c3.7,0,6.8,3,6.8,6.8v13.5c0,3.7-3,6.8-6.8,6.8h-2.4c-3.7,0-6.8-3-6.8-6.8v-13.5
		C604.1,358.4,607.2,355.4,610.9,355.4z"/>
	<path class="st8" d="M555.5,372.2c-0.7,3.7-1.1,7.6,0,11.2c1.1,3.6,3.9,6.9,7.6,7.6c2.5,0.5,5.1-0.3,7.5-1.4
		c2.3-1.1,4.5-2.5,6.9-3.3c5.2-1.9,11-1.2,16.2,0.5c1.7,0.6,3.4,1.2,5.1,1.6c1.5,0.3,3,0.4,4.6,0.4c5.7,0.2,11.5,0.4,17.1-0.9
		c1.6-0.3,3.1-1,4.4-1.9c1.3-1.2,2.2-2.8,2.6-4.5c1.4-4.2,1.5-9.1-0.9-12.8c-1.8-2.7-4.7-4.4-7.8-5.4c-3.1-0.8-6.3-1.3-9.5-1.3
		c-3-0.6-6.1,0.5-8,2.8l-3.9,3.5c-0.8,0.8-1.6,1.4-2.6,1.9c-0.8,0.3-1.7,0.5-2.6,0.5c-2.9,0.3-5.8,0.4-8.7,0.3
		c-0.3-1.8,0.8-3.5,0.7-5.3c-0.2-1.8-1.2-3.4-2.8-4.4c-1.5-0.9-3.3-1.5-5-1.7c-3.9-0.7-8.1-0.9-11.9,0.3
		C558.5,362,556.5,366.5,555.5,372.2z"/>
	<path class="st11" d="M629.1,399.3c15.8-5.9,33.9-8.1,49.4-1.5c2.7,1.1,5.6,3,5.8,5.9c0.1,1.3-0.3,2.6-0.6,4
		c-0.8,4.1,0.3,8.4,0.6,12.6s-0.8,9.1-4.5,11.1c-2,16.7-5.8,32.5-13,47.6c-1.2,2.3-2.2,4.7-2.8,7.2c-0.5,2.5-0.4,5.2-0.5,7.8
		c-0.3,7.9-2.8,15.6-5.2,23.1c-0.5,1.6-1.1,3.2-1.8,4.8c-1.7,3.2-4.6,5.7-6.7,8.7s-3.2,7.3-1.2,10.3c1.2,1.8-3.1,2.9-5.3,2.9
		c-9.4,0.2-18.9-0.2-28.3-1.2c-1.6,0.1-2.9-1-3.1-2.6c0,0,0,0,0,0c-0.9-3.3-1.8-6.8-0.8-10c0.6-1.7,1.7-3.3,1.7-5.1
		c0-1.5-0.9-3-1.3-4.5c-1.1-4.7,2.9-8.9,5.9-12.8c6.2-8.1,8.6-18.3,10.9-28.3c2.9-13,5.8-25.9,8.5-38.9c-2.4,1.9-2.1,5-4.4,7
		c-2.7,2.3-7.3,0.9-9.3-2.1s-2.2-6.8-2.1-10.4C621.3,423,625,410.5,629.1,399.3z"/>
	<path class="st11" d="M608.2,403.7c-3.8-9.4-12.8-16.7-22.8-17.6s-20.6,5.5-23.6,15.2c-0.6,2.3-1.1,4.7-1.3,7.1
		c-2.7,23.9-2.7,48.5,3.3,71.8c1.2,4.8,2.7,9.6,3.1,14.5c0.4,4.9-0.3,10.2-3.1,14.2c-0.8,1.1-1.8,2.2-2.2,3.6
		c-0.4,1.5,0,3.1,0.4,4.7l5,19.4c0.2,1.2,0.8,2.4,1.5,3.4c1.5,1.5,3.9,1.6,6,1.4c5.7-0.6,11.2-2.2,16.2-4.8
		c4.6-2.4,9.4-6.4,9.1-11.7c-0.1-1.3-0.5-2.7,0-3.9c0.5-0.9,1.1-1.7,1.8-2.3c2.7-3,3.3-7.4,2.6-11.4c-0.7-4-2.7-7.6-4.6-11.2
		c-1.9-3.6,0.4-8.2,1-12.1c2.1-13.4-2.2-27.5,1.5-40.6c2.8,2.4,7.1,4.1,10,1.7c2.5-2.1,2.2-6,1.7-9.3
		C612.2,425.2,612.3,413.9,608.2,403.7z"/>
	<path class="st10" d="M610.8,253.1c1,1,1.3,2.9,2.5,3.5c1.2,0.6,2.8-0.7,3.5-2.2c1.2-2.5,1.4-5.4,1.5-8.3c0.1-2.9,0.2-5.8,1.2-8.4
		s3.1-4.9,5.5-4.8c1.6,0.1,3,1.1,4.4,2c4.1,2.7,8.7,4.5,13.5,5.5c1.4,0.3,2.8,0.5,4.1-0.2c1.4-0.8,2-2.5,1.5-4
		c3.3-0.8,6.9,2.1,7.6,6c0.2,1.2,0.1,2.5,0.3,3.7c0.5,3.9,3.5,7.1,6.8,7.4c0.6,0.1,1.3,0,1.8-0.3c0.9-0.5,1.4-1.7,1.8-2.7
		c1.8-4.4,3.6-9,4-13.9c0.2-2.8,0.1-5.6-0.2-8.4c-0.3-3.4-0.6-7-2.1-9.9c-2.3-4.5-6.9-6.5-11.2-8s-8.7-3-13.2-4.3
		c-4.1-1.4-8.4-2.3-12.8-2.7c-7.6-0.4-15.1,1.7-21.3,6c-2.7,1.7-5,4-6.7,6.7c-1.9,2.9-2.7,6.4-2.3,9.9c0.4,2.7,1.5,5.1,2.2,7.7
		c1,4.3,0.4,8.8-0.1,13.1c-0.3,1.7-0.2,3.5,0.2,5.2c0.6,1.7,1.9,3,3.4,2.2C608.1,253.3,609.2,251.6,610.8,253.1z"/>
	<path class="st12" d="M557.9,339.4c-0.6,2.5-1.1,5-1.4,7.6c-0.1,1.7-0.1,3.5-0.2,5.2c-0.5,6.5-3.8,12.6-3.5,19.1
		c2-0.9,4.2-1.2,6.4-0.9c-0.6-2,0.9-4.1,2.7-5c1.9-0.9,4-0.8,6.1-0.7c5.8,0.4,11.6,1.4,16.9,3.8c0.2,0.2,0.5,0.2,0.8,0.1
		c0.3-0.2,0.3-0.6,0.3-1c0-3.1,3.3-5.3,4-8.4c0.6-2.2-0.3-4.5-0.9-6.7c-2.3-8.2-1.4-17-2.1-25.5c-0.4-4.8-1.5-10-5.3-13.1
		c-3.5-2.7-8.2-3.1-12.2-1.1C560.7,317.2,559.9,331,557.9,339.4z"/>
	<path class="st14" d="M272.5,309c-6.2-0.6-11.7-4.1-16.8-7.7c-6.5-4.5-12.9-9.2-19.1-14.2c-1.7-1.3-3.4-2.8-4-4.9
		c-0.5-1.9,0.1-3.8,0.8-5.6c3-8.9,6.2-17.8,9.5-26.6c1.2-3.4,2.6-6.6,4.4-9.7c1.6-2.6,3.5-5,5.5-7.3c6-7,12-14,18.2-20.8
		c5.7-6.3,7.2-15.6,10.7-23.4c0.3-0.9,0.8-1.6,1.5-2.2c0.9-0.6,2-0.8,3-0.8c4.6-0.2,9.2,0.5,13.5,2.2c3,1.1,6.1,3,6.8,6.2
		c0.8,3.4-1.6,6.6-3.9,9.3c-1.5,2-3.3,3.8-5.2,5.4c-2.7,2.1-5.8,3.4-8.6,5.3c-2.2,1.7-4.3,3.6-6.2,5.7c-2.8,2.9-5.6,5.8-7.4,9.4
		c-1.7,3.2-2.6,6.8-3.4,10.3l-4.8,19.8l-2.7,10.8c-0.4,1,0.1,2.1,1,2.5c3.4,2.6,6.3,5.6,8.7,9.1c0.9,1.2,1.6,2.6,2,4.2
		c0.2,1.5,0.2,3-0.1,4.5C275,296.8,273.8,302.7,272.5,309z"/>
	<path class="st14" d="M345.2,275.1c0,0.6,0,1.2-0.2,1.8c-0.3,0.6-0.6,1.1-1.1,1.5c-1.9,2-4.1,3.7-6.5,5c-0.5,0.2-0.9,0.6-1.2,1
		c-0.2,0.4-0.3,0.7-0.3,1.1c-0.9,6.8,1.9,13.5,5.4,19.3c2.2,3.6,4.9,7,8,10c2.7,2.6,5.7,4.7,9,6.4c5.5,2.9,11.8,4.5,18,3.9
		c6.2-0.6,12.3-3.7,15.9-8.8c4.3-5.9,4.9-13.7,5-21c0.1-4.4,0-8.9-2-12.8c-0.6-1.4-1.7-2.6-2.9-3.4c-1.8-1.1-4.2-1.2-6-2.3
		c-1.6-1-2.6-2.6-2.8-4.4c-0.1-0.8-0.1-1.5-0.6-2.1c-0.4-0.3-0.9-0.5-1.4-0.5l-15.1-2.6c-5.5-0.9-11-1.8-16.6-1.4
		c-1.8,0.1-4.5,0-5.1,2.1S345.2,272.9,345.2,275.1z"/>
	<path class="st9" d="M345.2,275.1c0,0.6,0,1.2-0.2,1.8c-0.3,0.6-0.6,1.1-1.1,1.5c-1.9,2-4.1,3.7-6.5,5c-0.5,0.2-0.9,0.6-1.2,1
		c-0.2,0.4-0.3,0.7-0.3,1.1c-0.9,6.8,1.9,13.5,5.4,19.3c2.2,3.6,4.9,7,8,10c2.7,2.6,5.7,4.7,9,6.4c5.5,2.9,11.8,4.5,18,3.9
		c6.2-0.6,12.3-3.7,15.9-8.8c4.3-5.9,4.9-13.7,5-21c0.1-4.4,0-8.9-2-12.8c-0.6-1.4-1.7-2.6-2.9-3.4c-1.8-1.1-4.2-1.2-6-2.3
		c-1.6-1-2.6-2.6-2.8-4.4c-0.1-0.8-0.1-1.5-0.6-2.1c-0.4-0.3-0.9-0.5-1.4-0.5l-15.1-2.6c-5.5-0.9-11-1.8-16.6-1.4
		c-1.8,0.1-4.5,0-5.1,2.1S345.2,272.9,345.2,275.1z"/>
	<path class="st10" d="M354.5,554.5c-2.3,3.9-5.8,7-8.2,10.9c-1.5,2.3-2.6,5.3-1.5,7.8c0.9,2.1,3.1,3.4,5.2,4.4
		c5.7,2.5,12,3.5,18.2,2.8c1.1-0.1,2.3-0.3,3.3-0.7c3.4-1.3,5.5-4.8,6.9-8.2c0.4-1.3,1-2.6,1.8-3.8c1.5-2.2,4-3.3,6.2-4.8
		c2.2-1.4,4.4-3.5,4.4-6.2c-0.1-1.1-0.3-2.3-0.6-3.4c-0.4-2.1-0.1-4.2-0.2-6.3c0-2.4-0.5-4.8-1.3-7.1c-0.2-0.7-0.6-1.4-1.1-1.9
		c-0.5-0.3-1.1-0.5-1.7-0.6c-7.3-1.3-14.8-0.8-21.9,1.4c-1.4,0.4-4.1,0.9-5.1,2c-0.9,0.9-0.8,2-0.9,3.2
		C357.5,547.6,356.3,551.2,354.5,554.5z"/>
	<path class="st10" d="M404.6,541.3c-1.1,8-2.2,16.1-4.7,23.8c-0.4,1.3-0.9,2.8-0.3,4.1c0.4,0.7,0.9,1.3,1.5,1.7
		c5.5,4.3,13.2,4.5,20,2.9c3.9-0.9,7.7-2.3,11.2-4.2c0.4-0.2,0.8-0.4,1.1-0.8c0.3-0.4,0.6-1,0.7-1.5c2.5-9.9,1.2-20.4-3.5-29.4
		c-0.7-1.4-1.7-2.7-2.8-3.8c-1.7-1.4-3.9-2-6.1-2.5c-4.9-1.2-10-2.9-15-3.5C405.1,532,405.2,537.1,404.6,541.3z"/>
	<path class="st15" d="M374.3,445.8c11.3,0.4,22.5,3.3,33.8,3.5c5.4,0.1,11-0.5,15.4-3.5c3.6-2.5,5.9-6.4,8.1-10.1
		c1.8-3,3.6-6.1,4.6-9.4c1.8-5.9,1-12.2,0-18.3c-0.8-4.7-1.8-9.9-5.5-13c-2.2-1.9-5-2.8-7.8-3.6c-13.1-3.9-26.7-6.2-40.2-8.6
		c-4-0.7-8-1.4-12.1-1.7c-10-0.8-20,0.8-29.2,4.6c-4.1,1.7-8.2,4-10.9,7.6c-3.2,4.3-4,9.9-3.4,15.1c0.6,5.3,2.6,10.3,4.5,15.2
		l6.2,16c1.3,3.4,2.1,9.4,6.3,10.1c3.9,0.7,10-2.2,14-2.8C363.5,446.1,368.9,445.7,374.3,445.8z"/>
	<circle class="st14" cx="366" cy="250" r="30.9"/>
	<path class="st12" d="M368.2,315.2l-13.4-15.3c-1.2-1.4-2.5-2.8-3.8-4c-1.9-1.7-4.1-3.1-5.3-5.4c-1.8-3.5-0.6-7.8-0.4-11.7
		c0.1-0.8-0.3-1.5-1-1.9c-0.9-0.5-1.5,0.1-2.3,0.4c-1.7,0.8-3.9,0.2-5.6,0.9c-1.3,0.5-2.1,1.7-3.1,2.7c-1,0.9-2.5,1.7-3.7,1.2
		c-0.7-0.3-1.2-0.9-1.8-1.2c-1.6-0.8-3.4,0.4-5.2,0.4c-1.5,0-3-0.9-4.4-1.4c-1.6-0.5-3.3-0.7-5-0.8l-15.2-1
		c-0.3,11.2,2,22.4,4.7,33.3c2.7,11.1,5.5,22.3,11.1,32.3c2.4,4.4,5.4,8.5,6.2,13.6c0.2,1.5,0.2,3-0.1,4.5c-0.1,0.6-0.4,1.2-0.8,1.7
		c-0.7,5.2,0.4,10.9,3.5,15.2c1.7,2.3,3.9,4.2,5.4,6.7c1.5,2.4,2.3,5.6,0.9,8.1c4.8,1.5,9.8-1,14.6-2.3c10.8-2.8,22.1,1.1,32,6.2
		c3.3,1.7,6.7,3.6,10.4,3.9c6.7,0.4,12.4-4.5,18.7-6.6c10.7-3.6,22.1,0.9,33.2,3c1.6,0.3,3.3,0.5,4.7-0.3c1.4-0.8,2-2.7,2.2-4.3
		c0.6-6.2-2.7-12-4.5-17.9c-2.5-8.8-1.6-18.2,2.6-26.4c2.4-4.6,3.3-9.8,2.5-14.9c-0.1-0.3-0.1-0.6-0.1-0.9l-3.8-25
		c-0.3-2.9-1-5.8-1.9-8.6c-2.4-6.3-7.6-11.1-13.4-14.3c-5.9-3.2-12.3-5-18.8-6.7c-5.3-1.5-10.8-2.7-16.3-3.4
		c-0.8-0.1-1.7-0.1-2.2,0.5c-0.3,0.4-0.4,0.9-0.4,1.3c-0.2,3.1,1,6,1.1,9.1c0.2,4.4-1.8,8.5-4.2,12.2
		C380.7,305.1,375.4,310.9,368.2,315.2z"/>
	<path class="st12" d="M301.7,281.4c-1.7-1.9-4.4-2.5-6.9-3.1l-6.6-1.4c-1.2-0.3-2.5-0.5-3.8-0.5c-0.9,0-1.8,0.2-2.8,0.2
		c-1.4-0.1-2.8-0.4-4.1-0.9L266,272c3.9,5.4,4.3,12.3,4.4,18.9c0.1,2.8,0,5.7-0.3,8.5c-0.3,3-0.9,6.1-0.5,9.1
		c0.5,3.5,2.3,7.3,0.5,10.3c-1,1.6-2.7,2.5-4.4,3.3c11.6,2.4,22.7,6.9,32.7,13.2c2.4,1.5,4.7,3.1,7.4,3.9c1.8,0.5,3.5,0.7,5.4,0.8
		l5.7,0.5c1-13.7-3.2-27.1-7.4-40.2c-1.1-3.4-2.2-6.8-3.5-10.1C304.8,287.2,303.8,283.8,301.7,281.4z"/>
	<path class="st16" d="M370.9,363c-0.2,0.3-0.3,0.6-0.4,0.9c-0.3,1-0.7,1.9-1.1,2.9l-0.5,1.3c-0.6,1.6-1.2,3.1-2,4.5
		c-0.2,0.4-0.5,0.7-0.8,1c-0.3,0.3-0.8,0.6-0.6,1c0.5,0.1,1.1,0.1,1.6,0c0.7-0.2,1.3-0.5,1.9-0.9l6.8-4.3c0.8-0.4,1.5-1,2.1-1.6
		c0.5-0.6,1-1.2,1.4-1.9c1.4-1.9,3.3-3.3,4.5-5.3c0,0,0-0.1,0-0.1c0-0.1-0.2-0.2-0.3-0.2c-3.4,0.3-6.7,1.6-10.1,2.1
		C372.5,362.6,371.4,362.4,370.9,363z"/>
	<path class="st17" d="M371.6,364.1c-0.1,0.3-0.2,0.6,0,0.8l0.2-0.1l-0.3-0.5"/>
	<path class="st17" d="M372.3,366.9c-0.1,0.3-0.2,0.6,0,0.8l0.2-0.1l-0.3-0.5"/>
	<path class="st17" d="M367.9,371.9c-0.1,0.3-0.2,0.6,0,0.8l0.2-0.1l-0.3-0.5"/>
	<path class="st17" d="M369.4,370.9c-0.1,0.3-0.2,0.6,0,0.8l0.2-0.1l-0.3-0.5"/>
	<path class="st17" d="M377.8,365.5c-0.1,0.3-0.2,0.6,0,0.8l0.2-0.1l-0.3-0.5"/>
	<path class="st17" d="M375.1,366.2c-0.1,0.3-0.2,0.6,0,0.8l0.2-0.1l-0.2-0.5"/>
	<path class="st17" d="M374.1,364.7c-0.1,0.3-0.2,0.6,0,0.8l0.2-0.1l-0.2-0.5"/>
	<path class="st17" d="M370,368.8c-0.1,0.2-0.1,0.3,0,0.5l0.1-0.1L370,368.8"/>
	<path class="st17" d="M368.5,371.5c-0.1,0.2-0.1,0.3,0,0.5l0.1-0.1L368.5,371.5"/>
	<path class="st17" d="M373.8,368c-0.1,0.2-0.1,0.4,0,0.5l0.1-0.1l-0.1-0.3"/>
	<path class="st17" d="M371.4,371.1c-0.1-0.1-0.2-0.3-0.4-0.2v0.2L371.4,371.1"/>
	<path class="st17" d="M370.7,368.3c-0.1-0.1-0.2-0.3-0.4-0.2v0.2L370.7,368.3"/>
	<path class="st17" d="M376.6,365.3c-0.1,0.3-0.2,0.6,0,0.8l0.2-0.1l-0.3-0.5"/>
	<path class="st17" d="M378.1,364.3c-0.1,0.3-0.2,0.6,0,0.8l0.2-0.1l-0.2-0.5"/>
	<path class="st17" d="M378.7,362.1c-0.1,0.2-0.1,0.3,0,0.5l0.1-0.1l-0.1-0.3"/>
	<path class="st17" d="M377.2,364.8c-0.1,0.2-0.1,0.3,0,0.5l0.1-0.1L377.2,364.8"/>
	<path class="st17" d="M380.2,364.5c-0.1-0.1-0.2-0.3-0.4-0.2v0.2L380.2,364.5"/>
	<path class="st17" d="M379.4,361.7c-0.1-0.1-0.2-0.3-0.4-0.2v0.2L379.4,361.7"/>
	<path class="st17" d="M373.8,366.4c-0.1-0.1-0.2-0.3-0.4-0.2v0.2L373.8,366.4"/>
	<path class="st17" d="M377.6,363.9c-0.1-0.1-0.2-0.3-0.4-0.2v0.2L377.6,363.9"/>
	<path class="st16" d="M373.6,364.8c-0.2,0.3-0.3,0.6-0.4,0.9c-0.3,1-0.7,1.9-1.1,2.9l-0.5,1.3c-0.6,1.6-1.2,3.1-2,4.5
		c-0.2,0.4-0.5,0.7-0.8,1c-0.3,0.3-0.8,0.6-0.6,1c0.5,0.1,1.1,0.1,1.6,0c0.7-0.2,1.3-0.5,1.9-0.9l6.7-4.4c0.8-0.4,1.5-1,2.1-1.6
		c0.5-0.6,1-1.2,1.4-1.9c1.4-1.9,3.3-3.3,4.5-5.3c0,0,0-0.1,0-0.1c0-0.1-0.2-0.2-0.3-0.2c-3.4,0.3-6.7,1.6-10.1,2.1
		C375.2,364.4,374.1,364.2,373.6,364.8z"/>
	<path class="st17" d="M374.3,366c-0.1,0.3-0.2,0.6,0,0.8l0.2-0.1l-0.3-0.5"/>
	<path class="st17" d="M375,368.8c-0.1,0.3-0.2,0.6,0,0.8l0.2-0.1l-0.3-0.5"/>
	<path class="st17" d="M370.6,373.7c-0.1,0.3-0.2,0.6,0,0.8l0.2-0.1l-0.3-0.5"/>
	<path class="st17" d="M372.2,372.7c-0.1,0.3-0.2,0.6,0,0.8l0.2-0.1l-0.3-0.5"/>
	<path class="st17" d="M380.6,367.3c-0.1,0.3-0.2,0.6,0,0.8l0.2-0.1l-0.3-0.5"/>
	<path class="st17" d="M377.8,368.1c-0.1,0.3-0.2,0.6,0,0.8l0.2-0.1l-0.3-0.5"/>
	<path class="st17" d="M376.8,366.5c-0.1,0.3-0.2,0.6,0,0.8l0.2-0.1l-0.3-0.5"/>
	<path class="st17" d="M372.7,370.6c-0.1,0.2-0.1,0.3,0,0.5l0.1-0.1l-0.1-0.3"/>
	<path class="st17" d="M371.2,373.3c-0.1,0.2-0.1,0.3,0,0.5l0.1-0.1L371.2,373.3"/>
	<path class="st17" d="M376.5,369.8c-0.1,0.2-0.1,0.3,0,0.5l0.1-0.1L376.5,369.8"/>
	<path class="st17" d="M374.1,372.9c-0.1-0.1-0.2-0.3-0.4-0.2v0.2L374.1,372.9"/>
	<path class="st17" d="M373.4,370.1c-0.1-0.1-0.2-0.3-0.4-0.2v0.2L373.4,370.1"/>
	<path class="st17" d="M379.3,367.1c-0.1,0.3-0.2,0.6,0,0.8l0.2-0.1l-0.2-0.5"/>
	<path class="st17" d="M380.9,366.1c-0.1,0.3-0.2,0.6,0,0.8l0.2-0.1l-0.3-0.5"/>
	<path class="st17" d="M381.4,363.9c-0.1,0.2-0.1,0.3,0,0.5l0.1-0.1L381.4,363.9"/>
	<path class="st17" d="M379.9,366.6c-0.1,0.2-0.1,0.3,0,0.5l0.1-0.1l-0.1-0.3"/>
	<path class="st17" d="M382.9,366.3c-0.1-0.1-0.2-0.3-0.4-0.2v0.2L382.9,366.3"/>
	<path class="st17" d="M382.1,363.5c-0.1-0.1-0.2-0.3-0.4-0.2v0.2L382.1,363.5"/>
	<path class="st17" d="M376.5,368.2c-0.1-0.1-0.2-0.3-0.4-0.2v0.2L376.5,368.2"/>
	<path class="st17" d="M380.3,365.7c-0.1-0.1-0.2-0.3-0.4-0.2v0.2L380.3,365.7"/>
	<path class="st16" d="M355.5,362.1c-0.2,0.3-0.3,0.6-0.4,0.9c-0.3,1-0.7,1.9-1.1,2.9l-0.5,1.3c-0.6,1.6-1.2,3.1-2,4.5
		c-0.2,0.4-0.5,0.7-0.8,1c-0.3,0.3-0.8,0.6-0.6,1c0.5,0.1,1.1,0.1,1.6,0c0.7-0.2,1.3-0.5,1.9-0.9l6.7-4.3c0.8-0.4,1.5-1,2.1-1.6
		c0.5-0.6,1-1.2,1.4-1.9c1.4-1.9,3.3-3.3,4.5-5.3c0,0,0-0.1,0-0.1c0-0.1-0.2-0.2-0.3-0.2c-3.4,0.4-6.7,1.6-10.1,2.1
		C357,361.7,355.9,361.5,355.5,362.1z"/>
	<path class="st17" d="M356.1,363.2c-0.1,0.3-0.2,0.6,0,0.8l0.2-0.1l-0.3-0.5"/>
	<path class="st17" d="M356.8,366c-0.1,0.3-0.2,0.6,0,0.8l0.2-0.1l-0.3-0.5"/>
	<path class="st17" d="M352.4,371c-0.1,0.3-0.2,0.6,0,0.8l0.2-0.1l-0.3-0.5"/>
	<path class="st17" d="M354,370c-0.1,0.3-0.2,0.6,0,0.8l0.2-0.1l-0.3-0.5"/>
	<path class="st17" d="M362.4,364.6c-0.1,0.3-0.2,0.6,0,0.8l0.2-0.1l-0.3-0.5"/>
	<path class="st17" d="M359.6,365.3c-0.1,0.3-0.2,0.6,0,0.8l0.2-0.1l-0.3-0.5"/>
	<path class="st17" d="M358.6,363.8c-0.1,0.3-0.2,0.6,0,0.8l0.2-0.1l-0.3-0.5"/>
	<path class="st17" d="M354.5,367.9c-0.1,0.2-0.1,0.3,0,0.5l0.1-0.1L354.5,367.9"/>
	<path class="st17" d="M353,370.6c-0.1,0.2-0.1,0.3,0,0.5l0.1-0.1l-0.1-0.3"/>
	<path class="st17" d="M358.4,367.1c-0.1,0.2-0.1,0.3,0,0.5l0.1-0.1L358.4,367.1"/>
	<path class="st17" d="M356,370.2c-0.1-0.1-0.2-0.3-0.4-0.2v0.2L356,370.2"/>
	<path class="st17" d="M355.3,367.4c-0.1-0.1-0.2-0.3-0.4-0.2v0.2L355.3,367.4"/>
	<path class="st17" d="M361.1,364.3c-0.1,0.3-0.2,0.6,0,0.8l0.2-0.1l-0.2-0.5"/>
	<path class="st17" d="M362.7,363.4c-0.1,0.3-0.2,0.6,0,0.8l0.2-0.1l-0.3-0.5"/>
	<path class="st17" d="M363.2,361.2c-0.1,0.2-0.1,0.3,0,0.5l0.1-0.1l-0.1-0.3"/>
	<path class="st17" d="M361.7,363.9c-0.1,0.2-0.1,0.3,0,0.5l0.1-0.1L361.7,363.9"/>
	<path class="st17" d="M364.7,363.5c-0.1-0.1-0.2-0.3-0.4-0.2v0.2L364.7,363.5"/>
	<path class="st17" d="M364,360.8c-0.1-0.1-0.2-0.3-0.4-0.2v0.2L364,360.8"/>
	<path class="st17" d="M358.3,365.5c-0.1-0.1-0.2-0.3-0.4-0.2v0.2L358.3,365.5"/>
	<path class="st17" d="M362.2,363c-0.1-0.1-0.2-0.3-0.4-0.2v0.2L362.2,363"/>
	<path class="st16" d="M369.1,358.5c-0.2,0.3-0.3,0.6-0.4,0.9c-0.3,1-0.7,1.9-1.1,2.9l-0.5,1.3c-0.6,1.6-1.2,3.1-2,4.5
		c-0.2,0.4-0.5,0.7-0.8,1c-0.3,0.3-0.8,0.6-0.6,1c0.5,0.1,1.1,0.1,1.6,0c0.7-0.2,1.3-0.5,1.9-0.9l6.7-4.4c0.8-0.4,1.5-1,2.1-1.6
		c0.5-0.6,1-1.2,1.4-1.9c1.4-1.9,3.3-3.3,4.5-5.3c0,0,0-0.1,0-0.1c0-0.1-0.2-0.2-0.3-0.2c-3.4,0.3-6.7,1.6-10.1,2.1
		C370.7,358.1,369.6,357.8,369.1,358.5z"/>
	<path class="st17" d="M369.8,359.6c-0.1,0.3-0.2,0.6,0,0.8l0.2-0.1l-0.3-0.5"/>
	<path class="st17" d="M370.5,362.4c-0.1,0.3-0.2,0.6,0,0.8l0.2-0.1l-0.2-0.5"/>
	<path class="st17" d="M366.1,367.4c-0.1,0.3-0.2,0.6,0,0.8l0.2-0.1l-0.2-0.5"/>
	<path class="st17" d="M367.6,366.4c-0.1,0.3-0.2,0.6,0,0.8l0.2-0.1l-0.3-0.5"/>
	<path class="st17" d="M376,361c-0.1,0.3-0.2,0.6,0,0.8l0.2-0.1l-0.3-0.5"/>
	<path class="st17" d="M373.3,361.7c-0.1,0.3-0.2,0.6,0,0.8l0.2-0.1l-0.3-0.5"/>
	<path class="st17" d="M372.3,360.2c-0.1,0.3-0.2,0.6,0,0.8l0.2-0.1l-0.3-0.5"/>
	<path class="st17" d="M368.2,364.2c-0.1,0.2-0.1,0.3,0,0.5l0.1-0.1l-0.1-0.3"/>
	<path class="st17" d="M366.6,366.9c-0.1,0.2-0.1,0.3,0,0.5l0.1-0.1L366.6,366.9"/>
	<path class="st17" d="M372,363.5c-0.1,0.2-0.1,0.3,0,0.5l0.1-0.1l-0.1-0.3"/>
	<path class="st17" d="M369.6,366.6c-0.1-0.1-0.2-0.3-0.4-0.2v0.2L369.6,366.6"/>
	<path class="st17" d="M368.9,363.8c-0.1-0.1-0.2-0.3-0.4-0.2v0.2L368.9,363.8"/>
	<path class="st17" d="M374.8,360.7c-0.1,0.3-0.2,0.6,0,0.8l0.2-0.1l-0.3-0.5"/>
	<path class="st17" d="M376.3,359.7c-0.1,0.3-0.2,0.6,0,0.8l0.2-0.1l-0.3-0.5"/>
	<path class="st17" d="M376.9,357.6c-0.1,0.2-0.1,0.3,0,0.5l0.1-0.1L376.9,357.6"/>
	<path class="st17" d="M375.3,360.3c-0.1,0.2-0.1,0.3,0,0.5l0.1-0.1l-0.1-0.3"/>
	<path class="st17" d="M378.3,359.9c-0.1-0.1-0.2-0.3-0.4-0.2v0.2L378.3,359.9"/>
	<path class="st17" d="M377.6,357.1c-0.1-0.1-0.2-0.3-0.4-0.2v0.2L377.6,357.1"/>
	<path class="st17" d="M372,361.8c-0.1-0.1-0.2-0.3-0.4-0.2v0.2L372,361.8"/>
	<path class="st17" d="M375.8,359.4c-0.1-0.1-0.2-0.3-0.4-0.2v0.2L375.8,359.4"/>
	<path class="st16" d="M366.4,356.7c-0.2,0.3-0.3,0.6-0.4,0.9c-0.3,1-0.7,1.9-1.1,2.9l-0.5,1.3c-0.6,1.6-1.2,3.1-2,4.5
		c-0.2,0.4-0.5,0.7-0.8,1c-0.3,0.3-0.8,0.6-0.6,1c0.5,0.1,1.1,0.1,1.6,0c0.7-0.2,1.3-0.5,1.9-0.9l6.7-4.3c0.8-0.4,1.5-1,2.1-1.6
		c0.5-0.6,1-1.2,1.4-1.9c1.4-1.9,3.3-3.3,4.5-5.3c0,0,0-0.1,0-0.1c0-0.1-0.2-0.2-0.3-0.2c-3.4,0.4-6.7,1.6-10.1,2.1
		C368,356.3,366.9,356,366.4,356.7z"/>
	<path class="st9" d="M366.4,356.7c-0.2,0.3-0.3,0.6-0.4,0.9c-0.3,1-0.7,1.9-1.1,2.9l-0.5,1.3c-0.6,1.6-1.2,3.1-2,4.5
		c-0.2,0.4-0.5,0.7-0.8,1c-0.3,0.3-0.8,0.6-0.6,1c0.5,0.1,1.1,0.1,1.6,0c0.7-0.2,1.3-0.5,1.9-0.9l6.7-4.3c0.8-0.4,1.5-1,2.1-1.6
		c0.5-0.6,1-1.2,1.4-1.9c1.4-1.9,3.3-3.3,4.5-5.3c0,0,0-0.1,0-0.1c0-0.1-0.2-0.2-0.3-0.2c-3.4,0.4-6.7,1.6-10.1,2.1
		C368,356.3,366.9,356,366.4,356.7z"/>
	<path class="st17" d="M367,357.8c-0.1,0.3-0.2,0.6,0,0.8l0.2-0.1l-0.3-0.5"/>
	<path class="st17" d="M367.7,360.6c-0.1,0.3-0.2,0.6,0,0.8l0.2-0.1l-0.3-0.5"/>
	<path class="st17" d="M363.4,365.5c-0.1,0.3-0.2,0.6,0,0.8l0.2-0.1l-0.3-0.5"/>
	<path class="st17" d="M364.9,364.6c-0.1,0.3-0.2,0.6,0,0.8l0.2-0.1l-0.2-0.5"/>
	<path class="st17" d="M373.3,359.2c-0.1,0.3-0.2,0.6,0,0.8l0.2-0.1l-0.2-0.5"/>
	<path class="st17" d="M370.5,359.9c-0.1,0.3-0.2,0.6,0,0.8l0.2-0.1l-0.3-0.5"/>
	<path class="st17" d="M369.5,358.3c-0.1,0.3-0.2,0.6,0,0.8l0.2-0.1l-0.3-0.5"/>
	<path class="st17" d="M365.4,362.4c-0.1,0.2-0.1,0.3,0,0.5l0.1-0.1L365.4,362.4"/>
	<path class="st17" d="M363.9,365.1c-0.1,0.2-0.1,0.3,0,0.5l0.1-0.1L363.9,365.1"/>
	<path class="st17" d="M369.3,361.7c-0.1,0.1-0.1,0.3,0,0.5l0.1-0.1L369.3,361.7"/>
	<path class="st17" d="M366.9,364.7c-0.1-0.1-0.2-0.3-0.4-0.2v0.2L366.9,364.7"/>
	<path class="st17" d="M366.2,362c-0.1-0.1-0.2-0.3-0.4-0.2v0.2L366.2,362"/>
	<path class="st17" d="M372.1,358.9c-0.1,0.3-0.2,0.6,0,0.8l0.2-0.1l-0.3-0.5"/>
	<path class="st17" d="M373.6,357.9c-0.1,0.3-0.2,0.6,0,0.8l0.2-0.1l-0.3-0.5"/>
	<path class="st17" d="M374.1,355.8c-0.1,0.2-0.1,0.3,0,0.5l0.1-0.1l-0.1-0.3"/>
	<path class="st17" d="M372.6,358.5c-0.1,0.2-0.1,0.3,0,0.5l0.1-0.1L372.6,358.5"/>
	<path class="st17" d="M375.6,358.1c-0.1-0.1-0.2-0.3-0.4-0.2v0.2L375.6,358.1"/>
	<path class="st17" d="M374.9,355.3c-0.1-0.1-0.2-0.3-0.4-0.2v0.2L374.9,355.3"/>
	<path class="st17" d="M369.2,360c-0.1-0.1-0.2-0.3-0.4-0.2v0.2L369.2,360"/>
	<path class="st17" d="M373.1,357.6c-0.1-0.1-0.2-0.3-0.4-0.2v0.2L373.1,357.6"/>
	<path class="st16" d="M367.3,343.9c-0.2,0.3-0.3,0.6-0.4,0.9c-0.3,1-0.7,1.9-1.1,2.9l-0.5,1.3c-0.6,1.6-1.2,3.1-2,4.5
		c-0.2,0.4-0.5,0.7-0.8,1c-0.3,0.3-0.8,0.6-0.6,1c0.5,0.1,1.1,0.1,1.6,0c0.7-0.2,1.3-0.5,1.9-0.9l6.7-4.3c0.8-0.4,1.5-1,2.1-1.6
		c0.5-0.6,1-1.2,1.4-1.9c1.4-1.9,3.3-3.3,4.5-5.3c0,0,0-0.1,0-0.1c0-0.1-0.2-0.2-0.3-0.2c-3.4,0.4-6.7,1.6-10.1,2.1
		C368.9,343.5,367.8,343.3,367.3,343.9z"/>
	<path class="st9" d="M367.3,343.9c-0.2,0.3-0.3,0.6-0.4,0.9c-0.3,1-0.7,1.9-1.1,2.9l-0.5,1.3c-0.6,1.6-1.2,3.1-2,4.5
		c-0.2,0.4-0.5,0.7-0.8,1c-0.3,0.3-0.8,0.6-0.6,1c0.5,0.1,1.1,0.1,1.6,0c0.7-0.2,1.3-0.5,1.9-0.9l6.7-4.3c0.8-0.4,1.5-1,2.1-1.6
		c0.5-0.6,1-1.2,1.4-1.9c1.4-1.9,3.3-3.3,4.5-5.3c0,0,0-0.1,0-0.1c0-0.1-0.2-0.2-0.3-0.2c-3.4,0.4-6.7,1.6-10.1,2.1
		C368.9,343.5,367.8,343.3,367.3,343.9z"/>
	<path class="st17" d="M367.9,345c-0.1,0.3-0.2,0.6,0,0.8l0.2-0.1l-0.2-0.5"/>
	<path class="st17" d="M368.6,347.8c-0.1,0.3-0.2,0.6,0,0.8l0.2-0.1l-0.3-0.5"/>
	<path class="st17" d="M364.3,352.8c-0.1,0.3-0.2,0.6,0,0.8l0.2-0.1l-0.3-0.5"/>
	<path class="st17" d="M365.8,351.8c-0.1,0.3-0.2,0.6,0,0.8l0.2-0.1l-0.3-0.5"/>
	<path class="st17" d="M374.2,346.4c-0.1,0.3-0.2,0.6,0,0.8l0.2-0.1l-0.3-0.5"/>
	<path class="st17" d="M371.4,347.1c-0.1,0.3-0.2,0.6,0,0.8l0.2-0.1l-0.3-0.5"/>
	<path class="st17" d="M370.5,345.6c-0.1,0.3-0.2,0.6,0,0.8l0.2-0.1l-0.3-0.5"/>
	<path class="st17" d="M366.3,349.7c-0.1,0.2-0.1,0.3,0,0.5l0.1-0.1L366.3,349.7"/>
	<path class="st17" d="M364.8,352.4c-0.1,0.2-0.1,0.3,0,0.5l0.1-0.1l-0.1-0.3"/>
	<path class="st17" d="M370.2,348.9c-0.1,0.2-0.1,0.3,0,0.5l0.1-0.1L370.2,348.9"/>
	<path class="st17" d="M367.8,352c-0.1-0.1-0.2-0.3-0.4-0.2v0.2L367.8,352"/>
	<path class="st17" d="M367.1,349.2c-0.1-0.1-0.2-0.3-0.4-0.2v0.2L367.1,349.2"/>
	<path class="st17" d="M373,346.2c-0.1,0.3-0.2,0.6,0,0.8l0.2-0.1l-0.3-0.5"/>
	<path class="st17" d="M374.5,345.2c-0.1,0.3-0.2,0.6,0,0.8l0.2-0.1l-0.3-0.5"/>
	<path class="st17" d="M375,343c-0.1,0.2-0.1,0.3,0,0.5l0.1-0.1l-0.1-0.3"/>
	<path class="st17" d="M373.5,345.7c-0.1,0.2-0.1,0.3,0,0.5l0.1-0.1L373.5,345.7"/>
	<path class="st17" d="M376.5,345.4c-0.1-0.1-0.2-0.3-0.4-0.2v0.2L376.5,345.4"/>
	<path class="st17" d="M375.8,342.6c-0.1-0.1-0.2-0.3-0.4-0.2v0.2L375.8,342.6"/>
	<path class="st17" d="M370.1,347.3c-0.1-0.1-0.2-0.3-0.4-0.2v0.2L370.1,347.3"/>
	<path class="st17" d="M374,344.8c-0.1-0.1-0.2-0.3-0.4-0.2v0.2L374,344.8"/>
	<path class="st16" d="M360.9,364.8c-0.2,0.3-0.3,0.6-0.4,0.9c-0.3,1-0.7,1.9-1.1,2.9l-0.5,1.3c-0.6,1.6-1.2,3.1-2,4.5
		c-0.2,0.4-0.5,0.7-0.8,1c-0.3,0.3-0.8,0.6-0.6,1c0.5,0.1,1.1,0.1,1.6,0c0.7-0.2,1.3-0.5,1.9-0.9l6.7-4.4c0.8-0.4,1.5-1,2.1-1.6
		c0.5-0.6,1-1.2,1.4-1.9c1.4-1.9,3.3-3.3,4.5-5.3c0,0,0-0.1,0-0.1c0-0.1-0.2-0.2-0.3-0.2c-3.4,0.3-6.7,1.6-10.1,2.1
		C362.5,364.4,361.4,364.2,360.9,364.8z"/>
	<path class="st17" d="M361.6,366c-0.1,0.3-0.2,0.6,0,0.8l0.2-0.1l-0.2-0.5"/>
	<path class="st17" d="M362.3,368.8c-0.1,0.3-0.2,0.6,0,0.8l0.2-0.1l-0.3-0.5"/>
	<path class="st17" d="M357.9,373.7c-0.1,0.3-0.2,0.6,0,0.8l0.2-0.1l-0.3-0.5"/>
	<path class="st17" d="M359.4,372.7c-0.1,0.3-0.2,0.6,0,0.8l0.2-0.1l-0.2-0.5"/>
	<path class="st17" d="M367.9,367.3c-0.1,0.3-0.2,0.6,0,0.8l0.2-0.1l-0.2-0.5"/>
	<path class="st17" d="M365.1,368.1c-0.1,0.3-0.2,0.6,0,0.8l0.2-0.1l-0.3-0.5"/>
	<path class="st17" d="M364.1,366.5c-0.1,0.3-0.2,0.6,0,0.8l0.2-0.1l-0.3-0.5"/>
	<path class="st17" d="M360,370.6c-0.1,0.2-0.1,0.3,0,0.5l0.1-0.1l-0.1-0.3"/>
	<path class="st17" d="M358.5,373.3c-0.1,0.2-0.1,0.3,0,0.5l0.1-0.1L358.5,373.3"/>
	<path class="st17" d="M363.8,369.8c-0.1,0.2-0.1,0.3,0,0.5l0.1-0.1L363.8,369.8"/>
	<path class="st17" d="M361.4,372.9c-0.1-0.1-0.2-0.3-0.4-0.2v0.2L361.4,372.9"/>
	<path class="st17" d="M360.7,370.1c-0.1-0.1-0.2-0.3-0.4-0.2v0.2L360.7,370.1"/>
	<path class="st17" d="M366.6,367.1c-0.1,0.3-0.2,0.6,0,0.8l0.2-0.1l-0.3-0.5"/>
	<path class="st17" d="M368.1,366.1c-0.1,0.3-0.2,0.6,0,0.8l0.2-0.1l-0.3-0.5"/>
	<path class="st17" d="M368.7,363.9c-0.1,0.2-0.1,0.3,0,0.5l0.1-0.1L368.7,363.9"/>
	<path class="st17" d="M367.2,366.6c-0.1,0.2-0.1,0.3,0,0.5l0.1-0.1l-0.1-0.3"/>
	<path class="st17" d="M370.1,366.3c-0.1-0.1-0.2-0.3-0.4-0.2v0.2L370.1,366.3"/>
	<path class="st17" d="M369.4,363.5c-0.1-0.1-0.2-0.3-0.4-0.2v0.2L369.4,363.5"/>
	<path class="st17" d="M363.8,368.2c-0.1-0.1-0.2-0.3-0.4-0.2v0.2L363.8,368.2"/>
	<path class="st17" d="M367.6,365.7c-0.1-0.1-0.2-0.3-0.4-0.2v0.2L367.6,365.7"/>
	<path class="st16" d="M376.4,355.7c-0.2,0.3-0.3,0.6-0.4,0.9c-0.3,1-0.7,1.9-1.1,2.9l-0.5,1.3c-0.6,1.6-1.2,3.1-2,4.5
		c-0.2,0.4-0.5,0.7-0.8,1c-0.3,0.3-0.8,0.6-0.6,1c0.5,0.1,1.1,0.1,1.6,0c0.7-0.2,1.3-0.5,1.9-0.9l6.8-4.3c0.8-0.4,1.5-1,2.1-1.6
		c0.5-0.6,1-1.2,1.4-1.9c1.4-1.9,3.3-3.3,4.5-5.3c0,0,0-0.1,0-0.1c0-0.1-0.2-0.2-0.3-0.2c-3.4,0.4-6.7,1.6-10.1,2.1
		C378,355.4,376.9,355.1,376.4,355.7z"/>
	<path class="st9" d="M376.4,355.7c-0.2,0.3-0.3,0.6-0.4,0.9c-0.3,1-0.7,1.9-1.1,2.9l-0.5,1.3c-0.6,1.6-1.2,3.1-2,4.5
		c-0.2,0.4-0.5,0.7-0.8,1c-0.3,0.3-0.8,0.6-0.6,1c0.5,0.1,1.1,0.1,1.6,0c0.7-0.2,1.3-0.5,1.9-0.9l6.8-4.3c0.8-0.4,1.5-1,2.1-1.6
		c0.5-0.6,1-1.2,1.4-1.9c1.4-1.9,3.3-3.3,4.5-5.3c0,0,0-0.1,0-0.1c0-0.1-0.2-0.2-0.3-0.2c-3.4,0.4-6.7,1.6-10.1,2.1
		C378,355.4,376.9,355.1,376.4,355.7z"/>
	<path class="st17" d="M377.1,356.9c-0.1,0.3-0.2,0.6,0,0.8l0.2-0.1L377,357"/>
	<path class="st17" d="M377.7,359.7c-0.1,0.3-0.2,0.6,0,0.8l0.2-0.1l-0.3-0.5"/>
	<path class="st17" d="M373.4,364.6c-0.1,0.3-0.2,0.6,0,0.8l0.2-0.1l-0.3-0.5"/>
	<path class="st17" d="M374.9,363.6c-0.1,0.3-0.2,0.6,0,0.8l0.2-0.1l-0.3-0.5"/>
	<path class="st17" d="M383.3,358.3c-0.1,0.3-0.2,0.6,0,0.8l0.2-0.1l-0.3-0.5"/>
	<path class="st17" d="M380.5,359c-0.1,0.3-0.2,0.6,0,0.8l0.2-0.1l-0.2-0.5"/>
	<path class="st17" d="M379.5,357.4c-0.1,0.3-0.2,0.6,0,0.8l0.2-0.1l-0.2-0.5"/>
	<path class="st17" d="M375.4,361.5c-0.1,0.2-0.1,0.3,0,0.5l0.1-0.1L375.4,361.5"/>
	<path class="st17" d="M373.9,364.2c-0.1,0.2-0.1,0.3,0,0.5l0.1-0.1l-0.1-0.3"/>
	<path class="st17" d="M379.3,360.8c-0.1,0.2-0.1,0.3,0,0.5l0.1-0.1L379.3,360.8"/>
	<path class="st17" d="M376.9,363.8c-0.1-0.1-0.2-0.3-0.4-0.2v0.2L376.9,363.8"/>
	<path class="st17" d="M376.2,361.1c-0.1-0.1-0.2-0.3-0.4-0.2v0.2L376.2,361.1"/>
	<path class="st17" d="M382.1,358c-0.1,0.3-0.2,0.6,0,0.8l0.2-0.1l-0.3-0.5"/>
	<path class="st17" d="M383.6,357c-0.1,0.3-0.2,0.6,0,0.8l0.2-0.1l-0.3-0.5"/>
	<path class="st17" d="M384.1,354.9c-0.1,0.2-0.1,0.3,0,0.5l0.1-0.1l-0.1-0.3"/>
	<path class="st17" d="M382.6,357.5c-0.1,0.2-0.1,0.3,0,0.5l0.1-0.1L382.6,357.5"/>
	<path class="st17" d="M385.6,357.2c-0.1-0.1-0.2-0.3-0.4-0.2v0.2L385.6,357.2"/>
	<path class="st17" d="M384.9,354.4c-0.1-0.1-0.2-0.3-0.4-0.2v0.1h0.3"/>
	<path class="st17" d="M379.2,359.1c-0.1-0.1-0.2-0.3-0.4-0.2v0.2L379.2,359.1"/>
	<path class="st17" d="M383.1,356.6c-0.1-0.1-0.2-0.3-0.4-0.2v0.2L383.1,356.6"/>
	<path class="st16" d="M388.3,363c0.2,0.3,0.3,0.6,0.4,0.9c0.3,1,0.7,1.9,1.1,2.9l0.5,1.3c0.6,1.6,1.2,3.1,2,4.5
		c0.2,0.4,0.5,0.7,0.8,1c0.3,0.3,0.8,0.6,0.6,1c-0.5,0.1-1.1,0.1-1.6,0c-0.7-0.2-1.3-0.5-1.9-0.9l-6.7-4.3c-0.8-0.4-1.5-1-2.1-1.6
		c-0.5-0.6-1-1.2-1.4-1.9c-1.4-1.9-3.3-3.3-4.5-5.3c0,0,0-0.1,0-0.1c0-0.1,0.2-0.2,0.3-0.2c3.4,0.3,6.7,1.6,10.1,2.1
		C386.7,362.6,387.8,362.4,388.3,363z"/>
	<path class="st9" d="M388.3,363c0.2,0.3,0.3,0.6,0.4,0.9c0.3,1,0.7,1.9,1.1,2.9l0.5,1.3c0.6,1.6,1.2,3.1,2,4.5
		c0.2,0.4,0.5,0.7,0.8,1c0.3,0.3,0.8,0.6,0.6,1c-0.5,0.1-1.1,0.1-1.6,0c-0.7-0.2-1.3-0.5-1.9-0.9l-6.7-4.3c-0.8-0.4-1.5-1-2.1-1.6
		c-0.5-0.6-1-1.2-1.4-1.9c-1.4-1.9-3.3-3.3-4.5-5.3c0,0,0-0.1,0-0.1c0-0.1,0.2-0.2,0.3-0.2c3.4,0.3,6.7,1.6,10.1,2.1
		C386.7,362.6,387.8,362.4,388.3,363z"/>
	<path class="st17" d="M387.6,364.1c0.1,0.3,0.2,0.6,0,0.8l-0.2-0.1l0.3-0.5"/>
	<path class="st17" d="M386.9,366.9c0.1,0.3,0.2,0.6,0,0.8l-0.2-0.1l0.3-0.5"/>
	<path class="st17" d="M391.3,371.9c0.1,0.3,0.2,0.6,0,0.8l-0.2-0.1l0.3-0.5"/>
	<path class="st17" d="M389.8,370.9c0.1,0.3,0.2,0.6,0,0.8l-0.2-0.1l0.3-0.5"/>
	<path class="st17" d="M381.4,365.5c0.1,0.3,0.2,0.6,0,0.8l-0.2-0.1l0.3-0.5"/>
	<path class="st17" d="M384.2,366.2c0.1,0.3,0.2,0.6,0,0.8l-0.2-0.1l0.3-0.5"/>
	<path class="st17" d="M385.1,364.7c0.1,0.3,0.2,0.6,0,0.8l-0.2-0.1l0.3-0.5"/>
	<path class="st17" d="M389.2,368.8c0.1,0.2,0.1,0.3,0,0.5l-0.1-0.1L389.2,368.8"/>
	<path class="st17" d="M390.8,371.5c0.1,0.2,0.1,0.3,0,0.5l-0.1-0.1L390.8,371.5"/>
	<path class="st17" d="M385.4,368c0.1,0.2,0.1,0.4,0,0.5l-0.1-0.1l0.1-0.3"/>
	<path class="st17" d="M387.8,371.1c0.1-0.1,0.2-0.3,0.4-0.2v0.2L387.8,371.1"/>
	<path class="st17" d="M388.5,368.3c0.1-0.1,0.2-0.3,0.4-0.2v0.2L388.5,368.3"/>
	<path class="st17" d="M382.6,365.3c0.1,0.3,0.2,0.6,0,0.8l-0.2-0.1l0.3-0.5"/>
	<path class="st17" d="M381.1,364.3c0.1,0.3,0.2,0.6,0,0.8l-0.2-0.1l0.3-0.5"/>
	<path class="st17" d="M380.5,362.1c0.1,0.2,0.1,0.3,0,0.5l-0.1-0.1l0.1-0.3"/>
	<path class="st17" d="M382.1,364.8c0.1,0.2,0.1,0.3,0,0.5l-0.1-0.1L382.1,364.8"/>
	<path class="st17" d="M379.1,364.5c0.1-0.1,0.2-0.3,0.4-0.2v0.2L379.1,364.5"/>
	<path class="st17" d="M379.8,361.7c0.1-0.1,0.2-0.3,0.4-0.2v0.2L379.8,361.7"/>
	<path class="st17" d="M385.4,366.4c0.1-0.1,0.2-0.3,0.4-0.2v0.2L385.4,366.4"/>
	<path class="st17" d="M381.6,363.9c0.1-0.1,0.2-0.3,0.4-0.2v0.2L381.6,363.9"/>
	<path class="st16" d="M385.6,364.8c0.2,0.3,0.4,0.6,0.4,0.9c0.3,1,0.7,1.9,1.1,2.9l0.5,1.3c0.6,1.6,1.2,3.1,2,4.5
		c0.2,0.4,0.5,0.7,0.8,1c0.3,0.3,0.8,0.6,0.6,1c-0.5,0.1-1.1,0.1-1.6,0c-0.7-0.2-1.3-0.5-1.9-0.9l-6.7-4.4c-0.8-0.4-1.5-1-2.1-1.6
		c-0.5-0.6-1-1.2-1.4-1.9c-1.4-1.9-3.3-3.3-4.5-5.3c0,0,0-0.1,0-0.1c0-0.1,0.2-0.2,0.3-0.2c3.4,0.3,6.7,1.6,10.1,2.1
		C384,364.4,385.1,364.2,385.6,364.8z"/>
	<path class="st9" d="M385.6,364.8c0.2,0.3,0.4,0.6,0.4,0.9c0.3,1,0.7,1.9,1.1,2.9l0.5,1.3c0.6,1.6,1.2,3.1,2,4.5
		c0.2,0.4,0.5,0.7,0.8,1c0.3,0.3,0.8,0.6,0.6,1c-0.5,0.1-1.1,0.1-1.6,0c-0.7-0.2-1.3-0.5-1.9-0.9l-6.7-4.4c-0.8-0.4-1.5-1-2.1-1.6
		c-0.5-0.6-1-1.2-1.4-1.9c-1.4-1.9-3.3-3.3-4.5-5.3c0,0,0-0.1,0-0.1c0-0.1,0.2-0.2,0.3-0.2c3.4,0.3,6.7,1.6,10.1,2.1
		C384,364.4,385.1,364.2,385.6,364.8z"/>
	<path class="st17" d="M384.9,366c0.1,0.3,0.2,0.6,0,0.8l-0.2-0.1l0.3-0.5"/>
	<path class="st17" d="M384.2,368.8c0.1,0.3,0.2,0.6,0,0.8l-0.2-0.1l0.2-0.5"/>
	<path class="st17" d="M388.6,373.7c0.1,0.3,0.2,0.6,0,0.8l-0.2-0.1l0.3-0.5"/>
	<path class="st17" d="M387.1,372.7c0.1,0.3,0.2,0.6,0,0.8l-0.2-0.1l0.3-0.5"/>
	<path class="st17" d="M378.6,367.3c0.1,0.3,0.2,0.6,0,0.8l-0.2-0.1l0.3-0.5"/>
	<path class="st17" d="M381.4,368.1c0.1,0.3,0.2,0.6,0,0.8l-0.2-0.1l0.3-0.5"/>
	<path class="st17" d="M382.4,366.5c0.1,0.3,0.2,0.6,0,0.8l-0.2-0.1l0.3-0.5"/>
	<path class="st17" d="M386.5,370.6c0.1,0.2,0.1,0.3,0,0.5l-0.1-0.1l0.1-0.3"/>
	<path class="st17" d="M388,373.3c0.1,0.2,0.1,0.3,0,0.5l-0.1-0.1L388,373.3"/>
	<path class="st17" d="M382.7,369.8c0.1,0.2,0.1,0.3,0,0.5l-0.1-0.1L382.7,369.8"/>
	<path class="st17" d="M385.1,372.9c0.1-0.1,0.2-0.3,0.4-0.2v0.2L385.1,372.9"/>
	<path class="st17" d="M385.8,370.1c0.1-0.1,0.2-0.3,0.4-0.2v0.2L385.8,370.1"/>
	<path class="st17" d="M379.9,367.1c0.1,0.3,0.2,0.6,0,0.8l-0.2-0.1l0.3-0.5"/>
	<path class="st17" d="M378.4,366.1c0.1,0.3,0.2,0.6,0,0.8l-0.2-0.1l0.3-0.5"/>
	<path class="st17" d="M377.8,363.9c0.1,0.2,0.1,0.3,0,0.5l-0.1-0.1L377.8,363.9"/>
	<path class="st17" d="M379.3,366.6c0.1,0.2,0.1,0.3,0,0.5l-0.1-0.1l0.1-0.3"/>
	<path class="st17" d="M376.4,366.3c0.1-0.1,0.2-0.3,0.4-0.2v0.2L376.4,366.3"/>
	<path class="st17" d="M377.1,363.5c0.1-0.1,0.2-0.3,0.4-0.2v0.2L377.1,363.5"/>
	<path class="st17" d="M382.7,368.2c0.1-0.1,0.2-0.3,0.4-0.2v0.2L382.7,368.2"/>
	<path class="st17" d="M378.9,365.7c0.1-0.1,0.2-0.3,0.4-0.2v0.2L378.9,365.7"/>
	<path class="st16" d="M395.6,359.4c0.2,0.3,0.3,0.6,0.4,0.9c0.3,1,0.7,1.9,1.1,2.9l0.5,1.3c0.6,1.6,1.2,3.1,2,4.5
		c0.2,0.4,0.5,0.7,0.8,1c0.3,0.3,0.8,0.6,0.6,1c-0.5,0.1-1,0.1-1.5,0c-0.7-0.2-1.3-0.5-1.9-0.9l-6.8-4.3c-0.8-0.4-1.5-1-2.1-1.6
		c-0.5-0.6-1-1.2-1.4-1.9c-1.4-1.9-3.3-3.3-4.5-5.3c0,0,0-0.1,0-0.1c0-0.1,0.2-0.2,0.3-0.2c3.4,0.4,6.7,1.6,10.1,2.1
		C394,359,395.1,358.7,395.6,359.4z"/>
	<path class="st9" d="M395.6,359.4c0.2,0.3,0.3,0.6,0.4,0.9c0.3,1,0.7,1.9,1.1,2.9l0.5,1.3c0.6,1.6,1.2,3.1,2,4.5
		c0.2,0.4,0.5,0.7,0.8,1c0.3,0.3,0.8,0.6,0.6,1c-0.5,0.1-1,0.1-1.5,0c-0.7-0.2-1.3-0.5-1.9-0.9l-6.8-4.3c-0.8-0.4-1.5-1-2.1-1.6
		c-0.5-0.6-1-1.2-1.4-1.9c-1.4-1.9-3.3-3.3-4.5-5.3c0,0,0-0.1,0-0.1c0-0.1,0.2-0.2,0.3-0.2c3.4,0.4,6.7,1.6,10.1,2.1
		C394,359,395.1,358.7,395.6,359.4z"/>
	<path class="st17" d="M394.9,360.5c0.1,0.3,0.2,0.6,0,0.8l-0.2-0.1l0.3-0.5"/>
	<path class="st17" d="M394.2,363.3c0.1,0.3,0.2,0.6,0,0.8l-0.2-0.1l0.3-0.5"/>
	<path class="st17" d="M398.6,368.3c0.1,0.3,0.2,0.6,0,0.8l-0.2-0.1l0.3-0.5"/>
	<path class="st17" d="M397.1,367.3c0.1,0.3,0.2,0.6,0,0.8l-0.2-0.1l0.3-0.5"/>
	<path class="st17" d="M388.6,361.9c0.1,0.3,0.2,0.6,0,0.8l-0.2-0.1l0.3-0.5"/>
	<path class="st17" d="M391.4,362.6c0.1,0.3,0.2,0.6,0,0.8l-0.2-0.1l0.2-0.5"/>
	<path class="st17" d="M392.4,361.1c0.1,0.3,0.2,0.6,0,0.8l-0.2-0.1l0.2-0.5"/>
	<path class="st17" d="M396.5,365.1c0.1,0.2,0.1,0.3,0,0.5l-0.1-0.1l0.1-0.3"/>
	<path class="st17" d="M398,367.8c0.1,0.2,0.1,0.3,0,0.5l-0.1-0.1L398,367.8"/>
	<path class="st17" d="M392.7,364.4c0.1,0.2,0.1,0.3,0,0.5l-0.1-0.1L392.7,364.4"/>
	<path class="st17" d="M395.1,367.5c0.1-0.1,0.2-0.3,0.4-0.2v0.2L395.1,367.5"/>
	<path class="st17" d="M395.8,364.7c0.1-0.1,0.2-0.3,0.4-0.2v0.2L395.8,364.7"/>
	<path class="st17" d="M389.9,361.6c0.1,0.3,0.2,0.6,0,0.8l-0.2-0.1l0.3-0.5"/>
	<path class="st17" d="M388.4,360.6c0.1,0.3,0.2,0.6,0,0.8l-0.2-0.1l0.3-0.5"/>
	<path class="st17" d="M387.8,358.5c0.1,0.2,0.1,0.3,0,0.5l-0.1-0.1L387.8,358.5"/>
	<path class="st17" d="M389.3,361.2c0.1,0.2,0.1,0.3,0,0.5l-0.1-0.1l0.1-0.3"/>
	<path class="st17" d="M386.4,360.8c0.1-0.1,0.2-0.3,0.4-0.2v0.2L386.4,360.8"/>
	<path class="st17" d="M387.1,358c0.1-0.1,0.2-0.3,0.4-0.2v0.2L387.1,358"/>
	<path class="st17" d="M392.7,362.7c0.1-0.1,0.2-0.3,0.4-0.2v0.2L392.7,362.7"/>
	<path class="st17" d="M388.9,360.3c0.1-0.1,0.2-0.3,0.4-0.2v0.2L388.9,360.3"/>
	<path class="st16" d="M361.9,360.3c0.2,0.3,0.4,0.6,0.5,0.9c0.3,1,0.7,1.9,1.1,2.9l0.5,1.3c0.6,1.6,1.2,3.1,2,4.5
		c0.2,0.4,0.5,0.7,0.8,1c0.3,0.3,0.8,0.6,0.6,1c-0.5,0.1-1.1,0.1-1.6,0c-0.7-0.2-1.3-0.5-1.9-0.9l-6.7-4.4c-0.8-0.4-1.5-1-2.1-1.6
		c-0.5-0.6-1-1.2-1.4-1.9c-1.4-1.9-3.3-3.3-4.5-5.3c0,0,0-0.1,0-0.1c0-0.1,0.2-0.2,0.3-0.2c3.4,0.4,6.7,1.6,10.1,2.1
		C360.4,359.9,361.5,359.7,361.9,360.3z"/>
	<path class="st9" d="M361.9,360.3c0.2,0.3,0.4,0.6,0.5,0.9c0.3,1,0.7,1.9,1.1,2.9l0.5,1.3c0.6,1.6,1.2,3.1,2,4.5
		c0.2,0.4,0.5,0.7,0.8,1c0.3,0.3,0.8,0.6,0.6,1c-0.5,0.1-1.1,0.1-1.6,0c-0.7-0.2-1.3-0.5-1.9-0.9l-6.7-4.4c-0.8-0.4-1.5-1-2.1-1.6
		c-0.5-0.6-1-1.2-1.4-1.9c-1.4-1.9-3.3-3.3-4.5-5.3c0,0,0-0.1,0-0.1c0-0.1,0.2-0.2,0.3-0.2c3.4,0.4,6.7,1.6,10.1,2.1
		C360.4,359.9,361.5,359.7,361.9,360.3z"/>
	<path class="st17" d="M361.3,361.4c0.1,0.3,0.2,0.6,0,0.8l-0.2-0.1l0.3-0.5"/>
	<path class="st17" d="M360.6,364.2c0.1,0.3,0.2,0.6,0,0.8l-0.2-0.1l0.3-0.5"/>
	<path class="st17" d="M365,369.2c0.1,0.3,0.2,0.6,0,0.8l-0.2-0.1l0.3-0.5"/>
	<path class="st17" d="M363.4,368.2c0.1,0.3,0.2,0.6,0,0.8l-0.2-0.1l0.3-0.5"/>
	<path class="st17" d="M355,362.8c0.1,0.3,0.2,0.6,0,0.8l-0.2-0.1l0.3-0.5"/>
	<path class="st17" d="M357.8,363.5c0.1,0.3,0.2,0.6,0,0.8l-0.2-0.1l0.3-0.5"/>
	<path class="st17" d="M358.8,362c0.1,0.3,0.2,0.6,0,0.8l-0.2-0.1l0.3-0.5"/>
	<path class="st17" d="M362.9,366c0.1,0.2,0.1,0.3,0,0.5l-0.1-0.1L362.9,366"/>
	<path class="st17" d="M364.4,368.7c0.1,0.1,0.1,0.3,0,0.5l-0.1-0.1L364.4,368.7"/>
	<path class="st17" d="M359,365.3c0.1,0.2,0.1,0.3,0,0.5l-0.1-0.1L359,365.3"/>
	<path class="st17" d="M361.4,368.4c0.1-0.1,0.2-0.3,0.4-0.2v0.2L361.4,368.4"/>
	<path class="st17" d="M362.1,365.6c0.1-0.1,0.2-0.3,0.4-0.2v0.2L362.1,365.6"/>
	<path class="st17" d="M356.2,362.5c0.1,0.3,0.2,0.6,0,0.8l-0.2-0.1l0.2-0.5"/>
	<path class="st17" d="M354.7,361.5c0.1,0.3,0.2,0.6,0,0.8l-0.2-0.1l0.3-0.5"/>
	<path class="st17" d="M354.2,359.4c0.1,0.2,0.1,0.3,0,0.5l-0.1-0.1L354.2,359.4"/>
	<path class="st17" d="M355.7,362.1c0.1,0.2,0.1,0.3,0,0.5l-0.1-0.1L355.7,362.1"/>
	<path class="st17" d="M352.7,361.7c0.1-0.1,0.2-0.3,0.4-0.2v0.2L352.7,361.7"/>
	<path class="st17" d="M353.4,359c0.1-0.1,0.2-0.3,0.4-0.2v0.2L353.4,359"/>
	<path class="st17" d="M359.1,363.6c0.1-0.1,0.2-0.3,0.4-0.2v0.2L359.1,363.6"/>
	<path class="st17" d="M355.2,361.2c0.1-0.1,0.2-0.3,0.4-0.2v0.2L355.2,361.2"/>
	<path class="st16" d="M386.5,357.6c0.2,0.3,0.3,0.6,0.4,0.9c0.3,1,0.7,1.9,1.1,2.9l0.5,1.3c0.6,1.6,1.2,3.1,2,4.5
		c0.2,0.4,0.5,0.7,0.8,1c0.3,0.3,0.8,0.6,0.6,1c-0.5,0.1-1.1,0.1-1.6,0c-0.7-0.2-1.3-0.5-1.9-0.9l-6.8-4.4c-0.8-0.4-1.5-1-2.1-1.6
		c-0.5-0.6-1-1.2-1.4-1.9c-1.4-1.9-3.3-3.3-4.5-5.3c0,0,0-0.1,0-0.1c0-0.1,0.2-0.2,0.3-0.2c3.4,0.3,6.7,1.6,10.1,2.1
		C384.9,357.2,386,356.9,386.5,357.6z"/>
	<path class="st17" d="M385.8,358.7c0.1,0.3,0.2,0.6,0,0.8l-0.2-0.1l0.2-0.5"/>
	<path class="st17" d="M385.1,361.5c0.1,0.3,0.2,0.6,0,0.8l-0.2-0.1l0.3-0.5"/>
	<path class="st17" d="M389.5,366.4c0.1,0.3,0.2,0.6,0,0.8l-0.2-0.1l0.3-0.5"/>
	<path class="st17" d="M388,365.5c0.1,0.3,0.2,0.6,0,0.8l-0.2-0.1l0.3-0.5"/>
	<path class="st17" d="M379.5,360.1c0.1,0.3,0.2,0.6,0,0.8l-0.2-0.1l0.3-0.5"/>
	<path class="st17" d="M382.3,360.8c0.1,0.3,0.2,0.6,0,0.8l-0.2-0.1l0.3-0.5"/>
	<path class="st17" d="M383.3,359.2c0.1,0.3,0.2,0.6,0,0.8l-0.2-0.1l0.3-0.5"/>
	<path class="st17" d="M387.4,363.3c0.1,0.1,0.1,0.3,0,0.5l-0.1-0.1L387.4,363.3"/>
	<path class="st17" d="M388.9,366c0.1,0.2,0.1,0.3,0,0.5l-0.1-0.1L388.9,366"/>
	<path class="st17" d="M383.6,362.6c0.1,0.2,0.1,0.3,0,0.5l-0.1-0.1l0.1-0.3"/>
	<path class="st17" d="M386,365.7c0.1-0.1,0.2-0.3,0.4-0.2v0.2L386,365.7"/>
	<path class="st17" d="M386.7,362.9c0.1-0.1,0.2-0.3,0.4-0.2v0.2L386.7,362.9"/>
	<path class="st17" d="M380.8,359.8c0.1,0.3,0.2,0.6,0,0.8l-0.2-0.1l0.2-0.5"/>
	<path class="st17" d="M379.3,358.8c0.1,0.3,0.2,0.6,0,0.8l-0.2-0.1l0.3-0.5"/>
	<path class="st17" d="M378.7,356.7c0.1,0.2,0.1,0.3,0,0.5l-0.1-0.1L378.7,356.7"/>
	<path class="st17" d="M380.2,359.4c0.1,0.1,0.1,0.3,0,0.5l-0.1-0.1L380.2,359.4"/>
	<path class="st17" d="M377.3,359c0.1-0.1,0.2-0.3,0.4-0.2v0.2L377.3,359"/>
	<path class="st17" d="M378,356.2c0.1-0.1,0.2-0.3,0.4-0.2v0.2L378,356.2"/>
	<path class="st17" d="M383.6,360.9c0.1-0.1,0.2-0.3,0.4-0.2v0.2L383.6,360.9"/>
	<path class="st17" d="M379.8,358.5c0.1-0.1,0.2-0.3,0.4-0.2v0.2L379.8,358.5"/>
	<path class="st16" d="M368.3,337.6c0.2,0.3,0.3,0.6,0.4,0.9c0.3,1,0.7,1.9,1.1,2.9l0.5,1.3c0.6,1.6,1.2,3.1,2,4.5
		c0.2,0.4,0.5,0.7,0.8,1c0.3,0.3,0.8,0.6,0.6,1c-0.5,0.1-1.1,0.1-1.6,0c-0.7-0.2-1.3-0.5-1.9-0.9l-6.7-4.3c-0.8-0.4-1.5-1-2.1-1.6
		c-0.5-0.6-1-1.2-1.4-1.9c-1.4-1.9-3.3-3.3-4.5-5.3c0,0,0-0.1,0-0.1c0-0.1,0.2-0.2,0.3-0.2c3.4,0.4,6.7,1.6,10.1,2.1
		C366.7,337.2,367.8,336.9,368.3,337.6z"/>
	<path class="st17" d="M367.6,338.7c0.1,0.3,0.2,0.6,0,0.8l-0.2-0.1l0.2-0.5"/>
	<path class="st17" d="M366.9,341.5c0.1,0.3,0.2,0.6,0,0.8l-0.2-0.1l0.3-0.5"/>
	<path class="st17" d="M371.3,346.4c0.1,0.3,0.2,0.6,0,0.8l-0.2-0.1l0.3-0.5"/>
	<path class="st17" d="M369.8,345.5c0.1,0.3,0.2,0.6,0,0.8l-0.2-0.1l0.3-0.5"/>
	<path class="st17" d="M361.4,340.1c0.1,0.3,0.2,0.6,0,0.8l-0.2-0.1l0.3-0.5"/>
	<path class="st17" d="M364.2,340.8c0.1,0.3,0.2,0.6,0,0.8l-0.2-0.1l0.3-0.5"/>
	<path class="st17" d="M365.1,339.2c0.1,0.3,0.2,0.6,0,0.8l-0.2-0.1l0.3-0.5"/>
	<path class="st17" d="M369.2,343.3c0.1,0.2,0.1,0.3,0,0.5l-0.1-0.1L369.2,343.3"/>
	<path class="st17" d="M370.8,346c0.1,0.2,0.1,0.3,0,0.5l-0.1-0.1l0.1-0.3"/>
	<path class="st17" d="M365.4,342.6c0.1,0.2,0.1,0.3,0,0.5l-0.1-0.1L365.4,342.6"/>
	<path class="st17" d="M367.8,345.7c0.1-0.1,0.2-0.3,0.4-0.2v0.2L367.8,345.7"/>
	<path class="st17" d="M368.5,342.9c0.1-0.1,0.2-0.3,0.4-0.2v0.2L368.5,342.9"/>
	<path class="st17" d="M362.6,339.8c0.1,0.3,0.2,0.6,0,0.8l-0.2-0.1l0.2-0.5"/>
	<path class="st17" d="M361.1,338.9c0.1,0.3,0.2,0.6,0,0.8l-0.2-0.1l0.3-0.5"/>
	<path class="st17" d="M360.5,336.7c0.1,0.2,0.1,0.3,0,0.5l-0.1-0.1l0.1-0.3"/>
	<path class="st17" d="M362.1,339.4c0.1,0.2,0.1,0.3,0,0.5l-0.1-0.1L362.1,339.4"/>
	<path class="st17" d="M359.1,339c0.1-0.1,0.2-0.3,0.4-0.2v0.2L359.1,339"/>
	<path class="st17" d="M359.8,336.2c0.1-0.1,0.2-0.3,0.4-0.2v0.2L359.8,336.2"/>
	<path class="st17" d="M365.4,340.9c0.1-0.1,0.2-0.3,0.4-0.2v0.2L365.4,340.9"/>
	<path class="st17" d="M361.6,338.5c0.1-0.1,0.2-0.3,0.4-0.2v0.2L361.6,338.5"/>
	<path class="st16" d="M392.9,335.8c0.2,0.3,0.3,0.6,0.4,0.9c0.3,1,0.7,1.9,1.1,2.9l0.5,1.3c0.6,1.6,1.2,3.1,2,4.5
		c0.2,0.4,0.5,0.7,0.8,1c0.3,0.3,0.8,0.6,0.6,1c-0.5,0.1-1.1,0.1-1.6,0c-0.7-0.2-1.3-0.5-1.9-0.9l-6.7-4.4c-0.8-0.4-1.5-1-2.1-1.6
		c-0.5-0.6-1-1.2-1.4-1.9c-1.4-1.9-3.3-3.3-4.5-5.3c0,0,0-0.1,0-0.1c0-0.1,0.2-0.2,0.3-0.2c3.4,0.4,6.7,1.6,10.1,2.1
		C391.3,335.4,392.4,335.1,392.9,335.8z"/>
	<path class="st17" d="M392.2,336.9c0.1,0.3,0.2,0.6,0,0.8l-0.2-0.1l0.2-0.5"/>
	<path class="st17" d="M391.5,339.6c0.1,0.3,0.2,0.6,0,0.8l-0.2-0.1l0.3-0.5"/>
	<path class="st17" d="M395.9,344.6c0.1,0.3,0.2,0.6,0,0.8l-0.2-0.1l0.3-0.5"/>
	<path class="st17" d="M394.3,343.6c0.1,0.3,0.2,0.6,0,0.8l-0.2-0.1l0.3-0.5"/>
	<path class="st17" d="M385.9,338.3c0.1,0.3,0.2,0.6,0,0.8l-0.2-0.1l0.3-0.5"/>
	<path class="st17" d="M388.7,339c0.1,0.3,0.2,0.6,0,0.8l-0.2-0.1l0.3-0.5"/>
	<path class="st17" d="M389.7,337.4c0.1,0.3,0.2,0.6,0,0.8l-0.2-0.1l0.3-0.5"/>
	<path class="st17" d="M393.8,341.5c0.1,0.2,0.1,0.3,0,0.5l-0.1-0.1L393.8,341.5"/>
	<path class="st17" d="M395.3,344.2c0.1,0.2,0.1,0.3,0,0.5l-0.1-0.1L395.3,344.2"/>
	<path class="st17" d="M389.9,340.8c0.1,0.2,0.1,0.3,0,0.5l-0.1-0.1L389.9,340.8"/>
	<path class="st17" d="M392.3,343.8c0.1-0.1,0.2-0.3,0.4-0.2v0.2L392.3,343.8"/>
	<path class="st17" d="M393,341c0.1-0.1,0.2-0.3,0.4-0.2v0.2L393,341"/>
	<path class="st17" d="M387.2,338c0.1,0.3,0.2,0.6,0,0.8l-0.2-0.1l0.3-0.5"/>
	<path class="st17" d="M385.6,337c0.1,0.3,0.2,0.6,0,0.8l-0.2-0.1l0.3-0.5"/>
	<path class="st17" d="M385.1,334.9c0.1,0.2,0.1,0.3,0,0.5l-0.1-0.1L385.1,334.9"/>
	<path class="st17" d="M386.6,337.5c0.1,0.2,0.1,0.3,0,0.5l-0.1-0.1L386.6,337.5"/>
	<path class="st17" d="M383.6,337.2c0.1-0.1,0.2-0.3,0.4-0.2v0.2L383.6,337.2"/>
	<path class="st17" d="M384.3,334.4c0.1-0.1,0.2-0.3,0.4-0.2v0.2L384.3,334.4"/>
	<path class="st17" d="M390,339.1c0.1-0.1,0.2-0.3,0.4-0.2v0.2L390,339.1"/>
	<path class="st17" d="M386.2,336.6c0.1-0.1,0.2-0.3,0.4-0.2v0.2L386.2,336.6"/>
	<path class="st16" d="M403.8,362.1c0.2,0.3,0.3,0.6,0.4,0.9c0.3,1,0.7,1.9,1.1,2.9l0.5,1.3c0.6,1.6,1.2,3.1,2,4.5
		c0.2,0.4,0.5,0.7,0.8,1c0.3,0.3,0.8,0.6,0.6,1c-0.5,0.1-1.1,0.1-1.6,0c-0.7-0.2-1.3-0.5-1.9-0.9l-6.7-4.3c-0.8-0.4-1.5-1-2.1-1.6
		c-0.5-0.6-1-1.2-1.4-1.9c-1.4-1.9-3.3-3.3-4.5-5.3c0,0,0-0.1,0-0.1c0-0.1,0.2-0.2,0.3-0.2c3.4,0.4,6.7,1.6,10.1,2.1
		C402.2,361.7,403.3,361.5,403.8,362.1z"/>
	<path class="st17" d="M403.1,363.2c0.1,0.3,0.2,0.6,0,0.8l-0.2-0.1l0.3-0.5"/>
	<path class="st17" d="M402.4,366c0.1,0.3,0.2,0.6,0,0.8l-0.2-0.1l0.2-0.5"/>
	<path class="st17" d="M406.8,371c0.1,0.3,0.2,0.6,0,0.8l-0.2-0.1l0.3-0.5"/>
	<path class="st17" d="M405.2,370c0.1,0.3,0.2,0.6,0,0.8l-0.2-0.1l0.3-0.5"/>
	<path class="st17" d="M396.8,364.6c0.1,0.3,0.2,0.6,0,0.8l-0.2-0.1l0.3-0.5"/>
	<path class="st17" d="M399.6,365.3c0.1,0.3,0.2,0.6,0,0.8l-0.2-0.1l0.3-0.5"/>
	<path class="st17" d="M400.6,363.8c0.1,0.3,0.2,0.6,0,0.8l-0.2-0.1l0.3-0.5"/>
	<path class="st17" d="M404.7,367.9c0.1,0.2,0.1,0.3,0,0.5l-0.1-0.1L404.7,367.9"/>
	<path class="st17" d="M406.2,370.6c0.1,0.2,0.1,0.3,0,0.5l-0.1-0.1l0.1-0.3"/>
	<path class="st17" d="M400.9,367.1c0.1,0.2,0.1,0.3,0,0.5l-0.1-0.1L400.9,367.1"/>
	<path class="st17" d="M403.3,370.2c0.1-0.1,0.2-0.3,0.4-0.2v0.2L403.3,370.2"/>
	<path class="st17" d="M404,367.4c0.1-0.1,0.2-0.3,0.4-0.2v0.2L404,367.4"/>
	<path class="st17" d="M398.1,364.3c0.1,0.3,0.2,0.6,0,0.8l-0.2-0.1l0.3-0.5"/>
	<path class="st17" d="M396.5,363.4c0.1,0.3,0.2,0.6,0,0.8l-0.2-0.1l0.3-0.5"/>
	<path class="st17" d="M396,361.2c0.1,0.2,0.1,0.3,0,0.5l-0.1-0.1l0.1-0.3"/>
	<path class="st17" d="M397.5,363.9c0.1,0.2,0.1,0.3,0,0.5l-0.1-0.1L397.5,363.9"/>
	<path class="st17" d="M394.6,363.5c0.1-0.1,0.2-0.3,0.4-0.2v0.2L394.6,363.5"/>
	<path class="st17" d="M395.3,360.8c0.1-0.1,0.2-0.3,0.4-0.2v0.2L395.3,360.8"/>
	<path class="st17" d="M400.9,365.5c0.1-0.1,0.2-0.3,0.4-0.2v0.2L400.9,365.5"/>
	<path class="st17" d="M397.1,363c0.1-0.1,0.2-0.3,0.4-0.2v0.2L397.1,363"/>
	<path class="st16" d="M398.3,364.8c0.2,0.3,0.3,0.6,0.4,0.9c0.3,1,0.7,1.9,1.1,2.9l0.5,1.3c0.6,1.6,1.2,3.1,2,4.5
		c0.2,0.4,0.5,0.7,0.8,1c0.3,0.3,0.8,0.6,0.6,1c-0.5,0.1-1.1,0.1-1.6,0c-0.7-0.2-1.3-0.5-1.9-0.9l-6.8-4.4c-0.8-0.4-1.5-1-2.1-1.6
		c-0.5-0.6-1-1.2-1.4-1.9c-1.4-1.9-3.3-3.3-4.5-5.3c0,0,0-0.1,0-0.1c0-0.1,0.2-0.2,0.3-0.2c3.4,0.3,6.7,1.6,10.1,2.1
		C396.7,364.4,397.8,364.2,398.3,364.8z"/>
	<path class="st17" d="M397.6,366c0.1,0.3,0.2,0.6,0,0.8l-0.2-0.1l0.3-0.5"/>
	<path class="st17" d="M396.9,368.8c0.1,0.3,0.2,0.6,0,0.8l-0.2-0.1l0.3-0.5"/>
	<path class="st17" d="M401.3,373.7c0.1,0.3,0.2,0.6,0,0.8l-0.2-0.1l0.3-0.5"/>
	<path class="st17" d="M399.8,372.7c0.1,0.3,0.2,0.6,0,0.8l-0.2-0.1l0.3-0.5"/>
	<path class="st17" d="M391.4,367.3c0.1,0.3,0.2,0.6,0,0.8l-0.2-0.1l0.3-0.5"/>
	<path class="st17" d="M394.2,368.1c0.1,0.3,0.2,0.6,0,0.8l-0.2-0.1l0.3-0.5"/>
	<path class="st17" d="M395.1,366.5c0.1,0.3,0.2,0.6,0,0.8l-0.2-0.1l0.3-0.5"/>
	<path class="st17" d="M399.2,370.6c0.1,0.2,0.1,0.3,0,0.5l-0.1-0.1l0.1-0.3"/>
	<path class="st17" d="M400.8,373.3c0.1,0.2,0.1,0.3,0,0.5l-0.1-0.1L400.8,373.3"/>
	<path class="st17" d="M395.4,369.8c0.1,0.2,0.1,0.3,0,0.5l-0.1-0.1L395.4,369.8"/>
	<path class="st17" d="M397.8,372.9c0.1-0.1,0.2-0.3,0.4-0.2v0.2L397.8,372.9"/>
	<path class="st17" d="M398.5,370.1c0.1-0.1,0.2-0.3,0.4-0.2v0.2L398.5,370.1"/>
	<path class="st17" d="M392.6,367.1c0.1,0.3,0.2,0.6,0,0.8l-0.2-0.1l0.2-0.5"/>
	<path class="st17" d="M391.1,366.1c0.1,0.3,0.2,0.6,0,0.8l-0.2-0.1l0.3-0.5"/>
	<path class="st17" d="M390.5,363.9c0.1,0.2,0.1,0.3,0,0.5l-0.1-0.1L390.5,363.9"/>
	<path class="st17" d="M392.1,366.6c0.1,0.2,0.1,0.3,0,0.5L392,367l0.1-0.3"/>
	<path class="st17" d="M389.1,366.3c0.1-0.1,0.2-0.3,0.4-0.2v0.2L389.1,366.3"/>
	<path class="st17" d="M389.8,363.5c0.1-0.1,0.2-0.3,0.4-0.2v0.2L389.8,363.5"/>
	<path class="st17" d="M395.4,368.2c0.1-0.1,0.2-0.3,0.4-0.2v0.2L395.4,368.2"/>
	<path class="st17" d="M391.6,365.7c0.1-0.1,0.2-0.3,0.4-0.2v0.2L391.6,365.7"/>
	<path class="st16" d="M413.3,367.6c-0.1,0.3-0.3,0.6-0.5,0.9c-0.6,0.9-1.1,1.7-1.6,2.6l-0.7,1.2c-0.9,1.4-1.6,2.9-2.3,4.4
		c-0.2,0.4-0.3,0.8-0.3,1.2c0,0.4,0,1-0.4,1.1c-0.4-0.3-0.7-0.8-0.9-1.3c-0.2-0.7-0.4-1.3-0.4-2l-0.8-8c-0.1-0.9-0.1-1.8,0-2.6
		c0.2-0.8,0.4-1.6,0.6-2.3c0.6-2.2,0.5-4.6,1.4-6.8c0,0,0-0.1,0.1-0.1c0.1-0.1,0.3,0,0.3,0.2c1.9,2.9,2.9,6.2,4.6,9.3
		C412.6,366.2,413.5,366.9,413.3,367.6z"/>
	<path class="st9" d="M413.3,367.6c-0.1,0.3-0.3,0.6-0.5,0.9c-0.6,0.9-1.1,1.7-1.6,2.6l-0.7,1.2c-0.9,1.4-1.6,2.9-2.3,4.4
		c-0.2,0.4-0.3,0.8-0.3,1.2c0,0.4,0,1-0.4,1.1c-0.4-0.3-0.7-0.8-0.9-1.3c-0.2-0.7-0.4-1.3-0.4-2l-0.8-8c-0.1-0.9-0.1-1.8,0-2.6
		c0.2-0.8,0.4-1.6,0.6-2.3c0.6-2.2,0.5-4.6,1.4-6.8c0,0,0-0.1,0.1-0.1c0.1-0.1,0.3,0,0.3,0.2c1.9,2.9,2.9,6.2,4.6,9.3
		C412.6,366.2,413.5,366.9,413.3,367.6z"/>
	<path class="st17" d="M412,367.8c-0.1,0.2-0.3,0.5-0.6,0.5v-0.2l0.5-0.1"/>
	<path class="st17" d="M409.3,369c-0.1,0.2-0.3,0.5-0.6,0.5v-0.3l0.5-0.1"/>
	<path class="st17" d="M408.2,375.5c-0.1,0.2-0.3,0.5-0.6,0.5v-0.2l0.5-0.1"/>
	<path class="st17" d="M408,373.7c-0.1,0.2-0.3,0.5-0.6,0.5v-0.2l0.5-0.1"/>
	<path class="st17" d="M407,363.8c-0.1,0.2-0.3,0.5-0.6,0.5V364l0.5-0.1"/>
	<path class="st17" d="M408.2,366.4c-0.1,0.2-0.3,0.5-0.6,0.5v-0.2l0.5-0.1"/>
	<path class="st17" d="M410,366.2c-0.1,0.2-0.3,0.5-0.6,0.5v-0.2l0.5-0.1"/>
	<path class="st17" d="M409.3,371.9c-0.1,0.2-0.2,0.3-0.3,0.3v-0.2L409.3,371.9"/>
	<path class="st17" d="M408.2,374.8c-0.1,0.2-0.2,0.3-0.3,0.3V375L408.2,374.8"/>
	<path class="st17" d="M407.5,368.5c-0.1,0.2-0.2,0.3-0.3,0.3v-0.2L407.5,368.5"/>
	<path class="st17" d="M406.6,372.3c0.2,0,0.4,0,0.4,0.1l-0.1,0.1l-0.2-0.2"/>
	<path class="st17" d="M409.2,371.1c0.2,0,0.4,0,0.4,0.2l-0.1,0.1l-0.2-0.2"/>
	<path class="st17" d="M408,364.6c-0.1,0.2-0.3,0.5-0.6,0.5v-0.2l0.5-0.1"/>
	<path class="st17" d="M407.8,362.8c-0.1,0.2-0.3,0.5-0.6,0.5V363l0.5-0.1"/>
	<path class="st17" d="M409.2,361c-0.1,0.2-0.2,0.3-0.3,0.3v-0.2L409.2,361"/>
	<path class="st17" d="M408,363.9c-0.1,0.2-0.2,0.3-0.3,0.3V364L408,363.9"/>
	<path class="st17" d="M406.4,361.3c0.2,0,0.4,0,0.4,0.1l-0.1,0.1l-0.2-0.2"/>
	<path class="st17" d="M409,360.1c0.2,0,0.4,0,0.4,0.2l-0.1,0.1l-0.2-0.2"/>
	<path class="st17" d="M408.9,367.5c0.2,0,0.4,0,0.4,0.2l-0.1,0.1l-0.2-0.2"/>
	<path class="st17" d="M408.4,362.9c0.2,0,0.4,0,0.4,0.1l-0.1,0.1l-0.2-0.2"/>
	<path class="st16" d="M356.9,367.6c-0.1,0.3-0.3,0.6-0.5,0.9c-0.5,0.9-1.1,1.7-1.6,2.6l-0.7,1.2c-0.9,1.4-1.6,2.9-2.3,4.4
		c-0.2,0.4-0.3,0.8-0.3,1.2c0,0.4,0,1-0.4,1.1c-0.4-0.3-0.7-0.8-0.9-1.3c-0.2-0.7-0.4-1.3-0.4-2l-0.8-8c-0.1-0.9-0.1-1.8,0-2.6
		c0.2-0.8,0.4-1.6,0.6-2.3c0.6-2.2,0.5-4.6,1.4-6.8c0,0,0-0.1,0.1-0.1c0.1-0.1,0.3,0,0.3,0.2c1.9,2.9,2.9,6.2,4.6,9.3
		C356.2,366.2,357.1,366.9,356.9,367.6z"/>
	<path class="st17" d="M355.6,367.8c-0.1,0.2-0.3,0.5-0.6,0.5v-0.2l0.5-0.1"/>
	<path class="st17" d="M353,369c-0.1,0.2-0.3,0.5-0.6,0.5v-0.3l0.5-0.1"/>
	<path class="st17" d="M351.8,375.5c-0.1,0.2-0.3,0.5-0.6,0.5v-0.2l0.5-0.1"/>
	<path class="st17" d="M351.6,373.7c-0.1,0.2-0.3,0.5-0.6,0.5v-0.2l0.5-0.1"/>
	<path class="st17" d="M350.6,363.8c-0.1,0.2-0.3,0.5-0.6,0.5V364l0.5-0.1"/>
	<path class="st17" d="M351.8,366.4c-0.1,0.2-0.3,0.5-0.6,0.5v-0.2l0.5-0.1"/>
	<path class="st17" d="M353.6,366.2c-0.1,0.2-0.3,0.5-0.6,0.5v-0.2l0.5-0.1"/>
	<path class="st17" d="M353,371.9c-0.1,0.2-0.2,0.3-0.3,0.3v-0.2L353,371.9"/>
	<path class="st17" d="M351.8,374.8c-0.1,0.2-0.2,0.3-0.3,0.3V375L351.8,374.8"/>
	<path class="st17" d="M351.2,368.5c-0.1,0.2-0.2,0.3-0.3,0.3v-0.2L351.2,368.5"/>
	<path class="st17" d="M350.2,372.3c0.2,0,0.4,0,0.4,0.1l-0.1,0.1l-0.2-0.2"/>
	<path class="st17" d="M352.9,371.1c0.2,0,0.4,0,0.4,0.2l-0.1,0.1l-0.2-0.2"/>
	<path class="st17" d="M351.6,364.6c-0.1,0.2-0.3,0.5-0.6,0.5v-0.2l0.5-0.1"/>
	<path class="st17" d="M351.4,362.8c-0.1,0.2-0.3,0.5-0.6,0.5V363l0.5-0.1"/>
	<path class="st17" d="M352.8,361c-0.1,0.2-0.2,0.3-0.3,0.3v-0.2L352.8,361"/>
	<path class="st17" d="M351.6,363.9c-0.1,0.2-0.2,0.3-0.3,0.3V364L351.6,363.9"/>
	<path class="st17" d="M350.1,361.3c0.2,0,0.4,0,0.4,0.1l-0.1,0.1l-0.2-0.2"/>
	<path class="st17" d="M352.7,360.1c0.2,0,0.4,0,0.4,0.2l-0.1,0.1l-0.2-0.2"/>
	<path class="st17" d="M352.5,367.5c0.2,0,0.4,0,0.4,0.2l-0.1,0.1l-0.2-0.2"/>
	<path class="st17" d="M352,362.9c0.2,0,0.4,0,0.4,0.1l-0.1,0.1l-0.2-0.2"/>
	<path class="st16" d="M415.7,371.8c-0.2,0.3-0.5,0.5-0.8,0.7c-0.8,0.6-1.6,1.2-2.4,1.9l-1.1,0.9c-1.3,1-2.6,2.1-3.7,3.3
		c-0.3,0.3-0.6,0.6-0.8,1c-0.2,0.4-0.4,0.9-0.8,0.9c-0.3-0.5-0.4-1-0.4-1.5c0-0.7,0.1-1.4,0.3-2.1l2.1-7.7c0.2-0.9,0.5-1.7,0.9-2.5
		c0.4-0.7,0.9-1.3,1.4-1.9c1.4-1.9,2.1-4.2,3.7-5.8c0,0,0.1-0.1,0.1-0.1c0,0,0.2,0.1,0.3,0.3c0.7,3.4,0.5,6.9,1,10.3
		C415.6,370.2,416.2,371.2,415.7,371.8z"/>
	<path class="st17" d="M414.5,371.5c-0.2,0.2-0.5,0.4-0.8,0.2l0.1-0.2l0.6,0.1"/>
	<path class="st17" d="M411.6,371.7c-0.2,0.2-0.5,0.4-0.8,0.2l0.1-0.2l0.6,0.1"/>
	<path class="st17" d="M408.2,377.3c-0.2,0.2-0.5,0.4-0.8,0.2l0.1-0.2l0.5,0.1"/>
	<path class="st17" d="M408.6,375.6c-0.2,0.2-0.5,0.4-0.8,0.2l0.1-0.2l0.5,0.1"/>
	<path class="st17" d="M411.3,365.9c-0.2,0.2-0.5,0.4-0.8,0.2l0.1-0.2l0.5,0.1"/>
	<path class="st17" d="M411.4,368.8c-0.2,0.2-0.5,0.4-0.8,0.2l0.1-0.2l0.6,0.1"/>
	<path class="st17" d="M413.2,369.3c-0.2,0.2-0.5,0.4-0.8,0.2l0.1-0.2l0.5,0.1"/>
	<path class="st17" d="M410.5,374.4c-0.1,0.1-0.3,0.2-0.4,0.2l0-0.2L410.5,374.4"/>
	<path class="st17" d="M408.4,376.7c-0.1,0.1-0.3,0.2-0.4,0.2l0-0.2L408.4,376.7"/>
	<path class="st17" d="M410.1,370.5c-0.1,0.1-0.3,0.2-0.4,0.2v-0.2l0.3,0"/>
	<path class="st17" d="M407.9,373.7c0.2,0.1,0.3,0.1,0.3,0.3H408L407.9,373.7"/>
	<path class="st17" d="M410.7,373.6c0.2,0.1,0.3,0.1,0.4,0.3h-0.2L410.7,373.6"/>
	<path class="st17" d="M411.9,367.1c-0.2,0.2-0.5,0.4-0.8,0.2l0.1-0.2l0.5,0.1"/>
	<path class="st17" d="M412.4,365.3c-0.2,0.2-0.5,0.4-0.8,0.2l0.1-0.2l0.5,0.1"/>
	<path class="st17" d="M414.3,364.1c-0.1,0.1-0.3,0.2-0.4,0.2l0-0.2L414.3,364.1"/>
	<path class="st17" d="M412.1,366.4c-0.1,0.1-0.3,0.2-0.4,0.2v-0.2l0.3,0"/>
	<path class="st17" d="M411.6,363.5c0.2,0.1,0.3,0.1,0.4,0.3l-0.2,0L411.6,363.5"/>
	<path class="st17" d="M414.5,363.3c0.2,0.1,0.4,0.1,0.4,0.3h-0.2L414.5,363.3"/>
	<path class="st17" d="M411.7,370.1c0.2,0.1,0.3,0.1,0.3,0.3h-0.2L411.7,370.1"/>
	<path class="st17" d="M412.9,365.7c0.2,0.1,0.3,0.1,0.3,0.3l-0.2,0L412.9,365.7"/>
	<path class="st16" d="M408.3,363.9c0.2,0.3,0.3,0.6,0.4,0.9c0.3,1,0.7,1.9,1.1,2.9l0.5,1.3c0.6,1.6,1.2,3.1,2,4.5
		c0.2,0.4,0.5,0.7,0.8,1c0.3,0.3,0.8,0.6,0.6,1c-0.5,0.1-1,0.1-1.5,0c-0.7-0.2-1.3-0.5-1.9-0.9l-6.8-4.4c-0.8-0.4-1.5-1-2.1-1.6
		c-0.5-0.6-1-1.2-1.4-1.9c-1.4-1.9-3.3-3.3-4.5-5.3c0,0,0-0.1,0-0.1c0-0.1,0.2-0.2,0.3-0.2c3.4,0.3,6.7,1.6,10.1,2.1
		C406.7,363.5,407.8,363.3,408.3,363.9z"/>
	<path class="st9" d="M408.3,363.9c0.2,0.3,0.3,0.6,0.4,0.9c0.3,1,0.7,1.9,1.1,2.9l0.5,1.3c0.6,1.6,1.2,3.1,2,4.5
		c0.2,0.4,0.5,0.7,0.8,1c0.3,0.3,0.8,0.6,0.6,1c-0.5,0.1-1,0.1-1.5,0c-0.7-0.2-1.3-0.5-1.9-0.9l-6.8-4.4c-0.8-0.4-1.5-1-2.1-1.6
		c-0.5-0.6-1-1.2-1.4-1.9c-1.4-1.9-3.3-3.3-4.5-5.3c0,0,0-0.1,0-0.1c0-0.1,0.2-0.2,0.3-0.2c3.4,0.3,6.7,1.6,10.1,2.1
		C406.7,363.5,407.8,363.3,408.3,363.9z"/>
	<path class="st17" d="M407.6,365.1c0.1,0.3,0.2,0.6,0,0.8l-0.2-0.1l0.3-0.5"/>
	<path class="st17" d="M406.9,367.9c0.1,0.3,0.2,0.6,0,0.8l-0.2-0.1l0.3-0.5"/>
	<path class="st17" d="M411.3,372.8c0.1,0.3,0.2,0.6,0,0.8l-0.2-0.1l0.2-0.5"/>
	<path class="st17" d="M409.8,371.8c0.1,0.3,0.2,0.6,0,0.8l-0.2-0.1l0.3-0.5"/>
	<path class="st17" d="M401.4,366.4c0.1,0.3,0.2,0.6,0,0.8l-0.2-0.1l0.3-0.5"/>
	<path class="st17" d="M404.2,367.1c0.1,0.3,0.2,0.6,0,0.8l-0.2-0.1l0.3-0.5"/>
	<path class="st17" d="M405.1,365.6c0.1,0.3,0.2,0.6,0,0.8l-0.2-0.1l0.2-0.5"/>
	<path class="st17" d="M409.3,369.7c0.1,0.2,0.1,0.4,0,0.5l-0.1-0.1l0.1-0.3"/>
	<path class="st17" d="M410.8,372.4c0.1,0.2,0.1,0.3,0,0.5l-0.1-0.1L410.8,372.4"/>
	<path class="st17" d="M405.4,368.9c0.1,0.2,0.1,0.3,0,0.5l-0.1-0.1l0.1-0.3"/>
	<path class="st17" d="M407.8,372c0.1-0.1,0.2-0.3,0.4-0.2v0.2L407.8,372"/>
	<path class="st17" d="M408.5,369.2c0.1-0.1,0.2-0.3,0.4-0.2v0.2L408.5,369.2"/>
	<path class="st17" d="M402.6,366.2c0.1,0.3,0.2,0.6,0,0.8l-0.2-0.1l0.3-0.5"/>
	<path class="st17" d="M401.1,365.2c0.1,0.3,0.2,0.6,0,0.8l-0.2-0.1l0.3-0.5"/>
	<path class="st17" d="M400.5,363c0.1,0.2,0.1,0.3,0,0.5l-0.1-0.1L400.5,363"/>
	<path class="st17" d="M402.1,365.7c0.1,0.2,0.1,0.4,0,0.5l-0.1-0.1l0.1-0.3"/>
	<path class="st17" d="M399.1,365.4c0.1-0.1,0.2-0.3,0.4-0.2v0.2L399.1,365.4"/>
	<path class="st17" d="M399.8,362.6c0.1-0.1,0.2-0.3,0.4-0.2v0.2L399.8,362.6"/>
	<path class="st17" d="M405.4,367.3c0.1-0.1,0.2-0.3,0.4-0.2v0.2L405.4,367.3"/>
	<path class="st17" d="M401.6,364.8c0.1-0.1,0.2-0.3,0.4-0.2v0.2L401.6,364.8"/>
	<path class="st16" d="M395.6,355.7c0.2,0.3,0.3,0.6,0.4,0.9c0.3,1,0.7,1.9,1.1,2.9l0.5,1.3c0.6,1.6,1.2,3.1,2,4.5
		c0.2,0.4,0.5,0.7,0.8,1c0.3,0.3,0.8,0.6,0.6,1c-0.5,0.1-1,0.1-1.5,0c-0.7-0.2-1.3-0.5-1.9-0.9l-6.8-4.3c-0.8-0.4-1.5-1-2.1-1.6
		c-0.5-0.6-1-1.2-1.4-1.9c-1.4-1.9-3.3-3.3-4.5-5.3c0,0,0-0.1,0-0.1c0-0.1,0.2-0.2,0.3-0.2c3.4,0.4,6.7,1.6,10.1,2.1
		C394,355.4,395.1,355.1,395.6,355.7z"/>
	<path class="st17" d="M394.9,356.9c0.1,0.3,0.2,0.6,0,0.8l-0.2-0.1l0.3-0.5"/>
	<path class="st17" d="M394.2,359.7c0.1,0.3,0.2,0.6,0,0.8l-0.2-0.1l0.3-0.5"/>
	<path class="st17" d="M398.6,364.6c0.1,0.3,0.2,0.6,0,0.8l-0.2-0.1l0.3-0.5"/>
	<path class="st17" d="M397.1,363.6c0.1,0.3,0.2,0.6,0,0.8l-0.2-0.1l0.3-0.5"/>
	<path class="st17" d="M388.6,358.3c0.1,0.3,0.2,0.6,0,0.8l-0.2-0.1l0.3-0.5"/>
	<path class="st17" d="M391.4,359c0.1,0.3,0.2,0.6,0,0.8l-0.2-0.1l0.2-0.5"/>
	<path class="st17" d="M392.4,357.4c0.1,0.3,0.2,0.6,0,0.8l-0.2-0.1l0.2-0.5"/>
	<path class="st17" d="M396.5,361.5c0.1,0.2,0.1,0.3,0,0.5l-0.1-0.1L396.5,361.5"/>
	<path class="st17" d="M398,364.2c0.1,0.2,0.1,0.3,0,0.5l-0.1-0.1l0.1-0.3"/>
	<path class="st17" d="M392.7,360.8c0.1,0.2,0.1,0.3,0,0.5l-0.1-0.1L392.7,360.8"/>
	<path class="st17" d="M395.1,363.8c0.1-0.1,0.2-0.3,0.4-0.2v0.2L395.1,363.8"/>
	<path class="st17" d="M395.8,361.1c0.1-0.1,0.2-0.3,0.4-0.2v0.2L395.8,361.1"/>
	<path class="st17" d="M389.9,358c0.1,0.3,0.2,0.6,0,0.8l-0.2-0.1l0.3-0.5"/>
	<path class="st17" d="M388.4,357c0.1,0.3,0.2,0.6,0,0.8l-0.2-0.1l0.3-0.5"/>
	<path class="st17" d="M387.8,354.9c0.1,0.2,0.1,0.3,0,0.5l-0.1-0.1l0.1-0.3"/>
	<path class="st17" d="M389.3,357.5c0.1,0.2,0.1,0.3,0,0.5l-0.1-0.1L389.3,357.5"/>
	<path class="st17" d="M386.4,357.2c0.1-0.1,0.2-0.3,0.4-0.2v0.2L386.4,357.2"/>
	<path class="st17" d="M387.1,354.4c0.1-0.1,0.2-0.3,0.4-0.2v0.1h-0.3"/>
	<path class="st17" d="M392.7,359.1c0.1-0.1,0.2-0.3,0.4-0.2v0.2L392.7,359.1"/>
	<path class="st17" d="M388.9,356.6c0.1-0.1,0.2-0.3,0.4-0.2v0.2L388.9,356.6"/>
	<path class="st10" d="M411.4,386h-58c-1.1,0-2.1-0.8-2.4-1.8l-3.3-13.3c-0.3-1.3,0.5-2.6,1.8-2.9c0.2,0,0.4-0.1,0.6-0.1h64.7
		c1.3,0,2.4,1.1,2.4,2.4c0,0.2,0,0.4-0.1,0.6l-3.3,13.3C413.4,385.2,412.5,386,411.4,386z"/>
	<path class="st10" d="M335,247.8c-2.2-2.8-2-7.1-0.9-10.7c1.1-3.6,2.8-6.9,3.4-10.6c0.6-4.3-0.4-9.3,1.7-12.8
		c1.4-2.3,3.9-3.4,6.2-4c2.3-0.6,4.8-0.8,7-1.9c3-1.4,5.3-4.3,8-6.3c3-2.3,6.8-3.6,10.2-2.3c3.2,1.2,5.5,4.3,8.5,6.3
		c1.5,0.9,3,1.7,4.6,2.4c2.8,1.6,5.5,3.4,8,5.5c1.8,1.4,3.8,3,4.6,5.4c1,2.7,0.3,5.8-0.7,8.5c-0.6,1.2-0.9,2.6-0.9,4
		c0.1,1.7,1.1,3.1,2,4.5c2.1,3.2,3.9,7,3.8,11.1c0,1.8-0.4,3.6-0.2,5.4c0.2,0.8,0.3,1.6,0.3,2.5c-0.1,0.8-0.6,1.7-1.3,1.7
		c-0.4-0.1-0.8-0.3-1.1-0.6c-2.3-1.9-5.4-3.6-7.8-1.8c-0.2,0.2-0.6,0.4-0.9,0.5c-0.3,0-0.5-0.2-0.7-0.4c-3.7-3.6-4.1-11-8.6-13
		c-2-0.9-4.2-0.4-6.3-0.7c-2.5-0.4-4.9-1.9-7.4-2.6c-4.6-1.2-9.7,1.2-12.3,5.7c-1.2,2-2,4.4-2.9,6.7c-1.2,2.9-5.2,9.3-8.5,5.9
		c-1-1.1-1.2-2.9-2.4-4C338.7,250.3,336.5,249.8,335,247.8z"/>
	<path class="st15" d="M374.7,399.3c-15.8-5.9-33.9-8.1-49.4-1.5c-2.7,1.1-5.6,3-5.8,5.9c-0.1,1.3,0.4,2.6,0.6,4
		c0.9,4.1-0.3,8.4-0.6,12.6c-0.3,4.2,0.8,9.1,4.5,11.1c2,16.7,5.8,32.5,13,47.6c1.2,2.3,2.2,4.7,2.8,7.2c0.5,2.5,0.4,5.2,0.5,7.8
		c0.3,7.9,2.8,15.6,5.2,23.1c0.5,1.6,1.1,3.2,1.8,4.8c1.7,3.2,4.6,5.7,6.7,8.7c2,3,3.2,7.3,1.1,10.3c-1.2,1.8,3.1,2.9,5.2,2.9
		c9.4,0.2,18.9-0.2,28.3-1.1c1.6,0.1,2.9-1,3.1-2.6c0,0,0,0,0,0c0.9-3.3,1.8-6.8,0.8-10c-0.6-1.7-1.7-3.3-1.7-5.1
		c0-1.5,0.9-3,1.3-4.5c1.1-4.7-2.9-8.9-5.9-12.8c-6.2-8.1-8.6-18.3-10.9-28.3c-2.9-13-5.8-25.9-8.5-38.9c2.4,1.9,2.1,5,4.4,7
		c2.7,2.3,7.3,0.9,9.3-2.1c2-2.9,2.2-6.8,2.1-10.4C382.5,423,378.8,410.5,374.7,399.3z"/>
	<path class="st15" d="M395.6,403.7c3.8-9.4,12.8-16.7,22.8-17.6s20.6,5.5,23.6,15.2c0.6,2.3,1.1,4.7,1.3,7.1
		c2.7,23.9,2.7,48.5-3.3,71.8c-1.2,4.8-2.7,9.6-3.1,14.5c-0.4,4.9,0.3,10.2,3.1,14.2c0.8,1.1,1.8,2.2,2.2,3.6c0.4,1.5,0,3.1-0.4,4.7
		l-5,19.4c-0.2,1.2-0.8,2.4-1.5,3.4c-1.5,1.5-3.9,1.6-6,1.4c-5.7-0.6-11.2-2.2-16.3-4.8c-4.6-2.4-9.4-6.4-9.1-11.7
		c0.1-1.3,0.5-2.7,0-3.9c-0.5-0.9-1.1-1.7-1.8-2.3c-2.7-3-3.3-7.4-2.6-11.4c0.7-4,2.7-7.6,4.6-11.2c1.9-3.6-0.4-8.2-1-12.1
		c-2.1-13.4,2.2-27.5-1.5-40.6c-2.8,2.4-7.2,4.1-10,1.7c-2.5-2.1-2.2-6-1.7-9.3C391.6,425.2,391.5,413.9,395.6,403.7z"/>
	<path class="st12" d="M257.1,219.6c-1.5-0.1-2.1-2.2-1.5-3.6c0.6-1.4,1.9-2.3,2.8-3.5c2.5-3.4,1.7-8,1.5-12.2
		c-0.3-6.3,1-12.6,2.3-18.8c0.7-3.1,1.3-6.3,3.1-9c2.1-3.2,5.4-5.4,9.1-6.1c0.4-2.8,2.3-5.1,5-6c2.8-0.8,5.7-0.6,8.4,0.3
		c0.4,0.2,0.8,0.2,1.2,0.2c0.4-0.2,0.8-0.4,1.1-0.8c2.6-2.5,6.6-2.8,9.6-0.8c2.6-15.7,5.3-31.2,8.2-46.8c0.5-2.6,1.4-5.3,3.1-7.4
		c1.4-1.7,3.3-3.1,5.5-3c0.9,0.1,1.7,0.3,2.6,0.6c1.9,0.6,3.9,1.4,5,3c0.7,1,1.1,2.2,1.2,3.4c0.6,3,0.8,6.1,0.5,9.2
		c-0.4,4.9-0.8,9.7-0.8,14.6c-0.1,8.6-2.3,17.1-3.6,25.6c-1.5,10.1-1.8,20.5-5.4,30.1c-3.3,8.8-9.3,16.6-11.2,25.9
		c-0.9,4.5-0.5,9.8,3.1,12.7c-0.1,1.3-1.9,1.3-3.2,1.3h-6.9c-3.2,0-6.3-0.1-9.5-0.4C277.4,226.4,267.9,220.4,257.1,219.6z"/>
	<path class="st18" d="M262.3,218.7c-1.3-0.1-1.7-2-1.1-3.3c0.6-1.3,1.7-2.2,2.5-3.4c2.2-3.2,1.7-7.5,1.6-11.4
		c-0.1-5.9,1.2-11.8,2.5-17.6c0.6-2.9,1.3-6,2.9-8.5c1.7-3,4.6-5.1,7.9-5.9c0.4-2.6,2-4.7,4.4-5.7c2.3-0.8,4.8-0.8,7.1,0.1
		c0.3,0.1,0.7,0.2,1,0.1c0.4-0.2,0.7-0.4,0.9-0.8c2.2-2.4,5.8-2.9,8.2-1c2.6-14.7,5.4-29.2,8.4-43.9c0.4-2.5,1.4-4.9,2.8-6.9
		c1.2-1.6,2.9-3,4.8-3c0.7,0,1.5,0.2,2.2,0.4c1.5,0.5,3.2,1.2,4.1,2.6c0.5,1,0.8,2,0.9,3.1c0.4,2.8,0.5,5.7,0.2,8.5
		c-0.5,4.6-0.9,9-1.1,13.6c-0.4,8.1-2.5,16-3.9,24c-1.6,9.5-2.2,19.2-5.5,28.2c-3.1,8.3-8.4,15.8-10.2,24.5
		c-0.9,4.2-0.7,9.2,2.2,11.7c-0.1,1.2-1.6,1.3-2.7,1.3l-5.9,0.2c-2.7,0.1-5.3,0.1-8-0.2C279.3,224.5,271.4,219.1,262.3,218.7z"/>
	<path class="st18" d="M316.7,123.6l2.3,0.8c-1.8,10.2-3.3,20.4-4.4,30.6c0.9,0.2,1.8,0.7,2.6,1.2c-0.8,2.1-1.3,4.3-1.5,6.6
		c-3.1-1.2-6.3-2.1-9.6-2.7l1-3.9c0-0.3,0.2-0.5,0.4-0.7c0.3-0.1,0.6-0.1,0.8-0.1c1.5-0.1,2-2.1,2.1-3.7c0.3-5.7,1.7-11.3,3-16.8
		c-0.9-0.7-2.3-0.6-3,0.3c0.5-0.6,0-3.6,0-4.4c0.1-1.2-0.1-2.4,0.9-3.1c0.9-0.6,2.3-0.5,3.2-1.1
		C315.6,125.8,316.4,124.8,316.7,123.6z"/>
	<path class="st10" d="M397.3,324.4c-1.1,0.6-2.2,1.1-3.4,1.5c-0.4,0.1-0.7,0.5-0.6,0.9c0,0,0,0,0,0l4.6,17.2c0.3,1.2,0.3,2.6,0,3.8
		c-0.6,2-0.4,4.2,0.7,6l11.5,27.6c0,0,1.4,3.7,4.2,2.6c3.6-1,7-2.4,10.2-4.3c0,0,2.1-1.4,0.7-4.8l-11.3-27.2
		c-0.5-2.1-1.8-3.8-3.6-4.8c-1.1-0.6-2-1.5-2.7-2.6l-9.2-15.7C398.2,324.4,397.7,324.2,397.3,324.4
		C397.3,324.4,397.3,324.4,397.3,324.4z"/>
	<path class="st12" d="M405.4,351.7l2.1-0.9c3.2-1.3,6.9,0.2,8.3,3.4l4.8,11.6c1.3,3.2-0.2,6.9-3.4,8.3l-2.1,0.9
		c-3.2,1.3-6.9-0.2-8.3-3.4l-4.8-11.6C400.7,356.7,402.2,353,405.4,351.7z"/>
	<path class="st13" d="M405.4,351.7l2.1-0.9c3.2-1.3,6.9,0.2,8.3,3.4l4.8,11.6c1.3,3.2-0.2,6.9-3.4,8.3l-2.1,0.9
		c-3.2,1.3-6.9-0.2-8.3-3.4l-4.8-11.6C400.7,356.7,402.2,353,405.4,351.7z"/>
	<path class="st14" d="M448.3,372.2c0.7,3.7,1,7.6,0,11.2c-1.1,3.6-3.9,6.9-7.6,7.6c-2.5,0.5-5.1-0.3-7.5-1.4
		c-2.3-1.1-4.5-2.5-6.9-3.3c-5.2-1.9-11-1.2-16.2,0.5c-1.7,0.6-3.4,1.2-5.1,1.6c-1.5,0.3-3,0.4-4.6,0.4c-5.7,0.2-11.5,0.4-17.1-0.9
		c-1.6-0.3-3.1-1-4.4-1.9c-1.3-1.2-2.2-2.8-2.6-4.5c-1.4-4.2-1.5-9.1,0.9-12.8c1.8-2.7,4.7-4.4,7.8-5.4c3.1-0.8,6.3-1.3,9.5-1.3
		c3-0.6,6.1,0.5,8.1,2.8l3.9,3.5c0.8,0.8,1.6,1.4,2.6,1.9c0.8,0.3,1.7,0.5,2.6,0.5c2.9,0.3,5.8,0.4,8.7,0.3c0.3-1.8-0.8-3.5-0.7-5.3
		c0.2-1.8,1.2-3.4,2.8-4.4c1.5-0.9,3.3-1.5,5-1.7c3.9-0.7,8.1-0.9,11.9,0.3C445.3,362,447.3,366.5,448.3,372.2z"/>
	<path class="st12" d="M445.9,339.4c0.6,2.5,1.1,5,1.4,7.6c0.1,1.7,0.1,3.5,0.2,5.2c0.5,6.5,3.8,12.6,3.5,19.1
		c-2-0.9-4.2-1.2-6.4-0.9c0.6-2-0.9-4.1-2.7-5s-4-0.8-6.1-0.7c-5.8,0.4-11.6,1.4-16.9,3.8c-0.2,0.2-0.5,0.2-0.8,0.1
		c-0.3-0.2-0.3-0.6-0.3-1c0-3.1-3.3-5.3-4-8.4c-0.6-2.2,0.3-4.5,0.9-6.7c2.3-8.2,1.4-17,2.1-25.5c0.4-4.8,1.5-10,5.3-13.1
		c3.5-2.7,8.3-3.1,12.2-1.1C443,317.2,443.9,331,445.9,339.4z"/>
</g>
<g id="_x23_accessory">
	<circle class="st0" cx="795.3" cy="178.7" r="19.2"/>
	<circle class="st0" cx="176.8" cy="80.2" r="19.2"/>
	<circle class="st0" cx="274.4" cy="126.3" r="19.2"/>
	<circle class="st0" cx="728.9" cy="95.2" r="19.2"/>
	<circle class="st0" cx="859.5" cy="120.4" r="32.2"/>
	<circle class="st0" cx="890.3" cy="279.3" r="32.2"/>
	<circle class="st0" cx="134.2" cy="197.6" r="32.2"/>
</g>
</svg>
