<?xml version="1.0" encoding="utf-8"?>
<!-- Generator: Adobe Illustrator 19.0.0, SVG Export Plug-In . SVG Version: 6.00 Build 0)  -->
<svg version="1.1" id="图层_1" xmlns="http://www.w3.org/2000/svg" xmlns:xlink="http://www.w3.org/1999/xlink" x="0px" y="0px"
	 viewBox="0 0 1000 1000" style="enable-background:new 0 0 1000 1000;" xml:space="preserve">
<style type="text/css">
	.st0{fill:url(#SVGID_1_);}
	.st1{fill:#F6F7F9;}
	.st2{fill:#DDE1EC;}
	.st3{opacity:0.1;}
	.st4{fill:#6C63FF;}
	.st5{fill:#E8EAF1;}
	.st6{fill:#FF5252;}
	.st7{fill:#FFFF00;}
	.st8{fill:#69F0AE;}
	.st9{fill:#FFFFFF;}
	.st10{fill:url(#SVGID_2_);}
	.st11{fill:url(#SVGID_3_);}
	.st12{fill:#E0A17E;}
	.st13{fill:#F0F1F5;}
	.st14{opacity:0.1;enable-background:new    ;}
	.st15{fill:#293158;}
	.st16{opacity:2.000000e-02;enable-background:new    ;}
	.st17{fill:#463E3B;}
	.st18{fill:#CD9494;}
	.st19{opacity:5.000000e-02;enable-background:new    ;}
	.st20{fill:#FF7361;}
	.st21{fill:none;stroke:#535461;stroke-miterlimit:10;}
	.st22{fill:#B07473;}
	.st23{fill:#EFB7B9;}
	.st24{fill:#444053;}
	.st25{fill:#E1E7EF;}
	.st26{fill:#67647E;}
	.st27{fill:#585268;}
</style>
<g id="_x23_other_x28_have_x5B_website_x2C_plant_x5D__x29_">
	
		<linearGradient id="SVGID_1_" gradientUnits="userSpaceOnUse" x1="565.7727" y1="592.9387" x2="565.7727" y2="-32.0165" gradientTransform="matrix(1 0 0 1 -53 153.79)">
		<stop  offset="0" style="stop-color:#808080;stop-opacity:0.25"/>
		<stop  offset="0.54" style="stop-color:#808080;stop-opacity:0.12"/>
		<stop  offset="1" style="stop-color:#808080;stop-opacity:0.1"/>
	</linearGradient>
	<path class="st0" d="M917,121.8H108.7c-15.6,0.1-28.1,12.8-28.1,28.3l0,0v568.4c-0.1,15.6,12.5,28.3,28,28.3l0,0h808.3
		c15.6-0.1,28.1-12.8,28.1-28.3l0,0V150.1C945,134.5,932.6,121.9,917,121.8L917,121.8z"/>
	<path class="st1" d="M941.3,182v529.7c0,15.4-12.5,27.8-27.8,27.8l0,0H112.4c-15.4,0-27.8-12.5-27.8-27.8l0,0V182H941.3z"/>
	<path class="st2" d="M293.8,455.1v284.5H112.4c-15.4,0-27.8-12.7-27.8-28.4V455.1H293.8z"/>
	<rect x="356" y="246.9" class="st2" width="348.8" height="9.8"/>
	<rect x="356" y="316.6" class="st2" width="210.4" height="9.9"/>
	<rect x="613.2" y="316.6" class="st2" width="70.9" height="9.9"/>
	<g class="st3">
		<rect x="148.9" y="561.3" class="st4" width="70.9" height="9.9"/>
	</g>
	<rect x="613.2" y="408.2" class="st2" width="70.9" height="9.9"/>
	<rect x="613.2" y="499.7" class="st2" width="70.9" height="9.9"/>
	<rect x="613.2" y="347.2" class="st2" width="70.9" height="9.9"/>
	<rect x="735.3" y="347.2" class="st2" width="70.9" height="9.9"/>
	<rect x="613.2" y="377.6" class="st2" width="70.9" height="9.8"/>
	<rect x="735.3" y="434.4" class="st2" width="70.9" height="9.9"/>
	<rect x="735.3" y="464.8" class="st2" width="70.9" height="9.9"/>
	<rect x="735.3" y="530.3" class="st2" width="70.9" height="9.9"/>
	<rect x="356" y="347.2" class="st2" width="210.4" height="9.9"/>
	<rect x="356" y="377.6" class="st2" width="210.4" height="9.8"/>
	<rect x="356" y="408.2" class="st2" width="210.4" height="9.9"/>
	<rect x="356" y="438.7" class="st2" width="210.4" height="9.9"/>
	<rect x="356" y="469.3" class="st2" width="210.4" height="9.9"/>
	<rect x="356" y="499.7" class="st2" width="210.4" height="9.9"/>
	<rect x="356" y="530.3" class="st2" width="210.4" height="9.9"/>
	<rect x="84.5" y="181.4" class="st4" width="209.3" height="279.1"/>
	<path class="st5" d="M941.3,153.7c0-15.4-12.5-27.8-27.8-27.8H112.4c-15.4,0-27.8,12.5-27.8,27.8l0,0v31.6h856.8v-31.6H941.3z"/>
	<circle class="st6" cx="118.4" cy="155.3" r="10.9"/>
	<circle class="st7" cx="154.3" cy="155.3" r="10.9"/>
	<circle class="st8" cx="190.3" cy="155.3" r="10.9"/>
	<path class="st9" d="M250.3,321c0,14-4.8,27.6-13.6,38.4c-0.3,0.4-0.7,0.8-1,1.2l0,0c-0.1,0.1-0.1,0.1-0.2,0.2
		c-3.1,3.6-6.6,6.8-10.6,9.7l-0.5,0.4c-0.7,0.5-1.4,1-2.1,1.4l-0.5,0.3l-1,0.6c-0.2,0.1-0.3,0.2-0.5,0.3c-0.1,0.1-0.3,0.2-0.4,0.2
		c-1.5,0.9-3.1,1.7-4.8,2.5c-0.2,0.1-0.4,0.2-0.6,0.3c-0.2,0.1-0.4,0.2-0.6,0.3c-0.2,0.1-0.6,0.3-1,0.4c-3.5,1.5-7.1,2.6-10.9,3.4
		c-3.5,0.8-7.1,1.2-10.9,1.3h-0.5h-1.4c-4.8,0-9.6-0.5-14.3-1.6l-0.9-0.2c-2-0.5-4-1.2-6-1.9c-1.2-0.4-2.4-0.9-3.5-1.4
		c-0.3-0.1-0.6-0.2-0.9-0.4l-0.9-0.4l-0.8-0.4l0,0l-0.8-0.4l-0.9-0.5l-1-0.6L159,374c-4.3-2.4-8.2-5.3-11.9-8.7
		c-0.3-0.3-0.6-0.6-0.9-0.9c-0.3-0.3-0.6-0.6-0.9-0.9c-23.5-24.1-22.9-62.9,1.3-86.3c24.1-23.5,62.9-22.9,86.3,1.3
		C244.1,289.8,250.3,305.1,250.3,321z"/>
	
		<linearGradient id="SVGID_2_" gradientUnits="userSpaceOnUse" x1="243.8915" y1="228.1636" x2="243.8915" y2="130.0979" gradientTransform="matrix(1 0 0 1 -53 153.79)">
		<stop  offset="0" style="stop-color:#808080;stop-opacity:0.25"/>
		<stop  offset="0.54" style="stop-color:#808080;stop-opacity:0.12"/>
		<stop  offset="1" style="stop-color:#808080;stop-opacity:0.1"/>
	</linearGradient>
	<path class="st10" d="M232.2,342.7c-0.1,0.9-0.3,1.8-0.6,2.7c0,0.1-0.1,0.3-0.1,0.4c0-0.4-0.1-0.8-0.1-1.2l0,0
		c-0.3-4.5-0.6-11.6,0.3-15.7c0.9-3.9-5.3-2.7-9.6,0.8l0,0c-1.2,1-2.2,2.2-2.9,3.6c-0.1-0.1-0.2-0.2-0.3-0.4c-2-2.5-5-4-8.2-4
		c-6.5-0.4-12.8-3.1-17.5-7.6c-0.2-0.8-0.4-1.6-0.5-2.4c0-0.2-0.1-0.5-0.1-0.8c2.3-2.1,3.9-4.8,4.6-7.8v-0.1
		c0.2-1.1,0.4-2.2,0.4-3.3c0-0.5,0-0.9,0-1.3c0-0.2,0-0.3,0-0.5s0-0.4-0.1-0.6c0.3-0.1,0.5-0.2,0.7-0.4c1.4-0.9,2.5-2.2,3.2-3.7
		v-0.1c0.2-0.5,0.5-1.1,0.6-1.7l0,0c0.5-1.6,0.8-3.3,0.8-5c0-0.2,0-0.4,0-0.6c0-1.3-0.3-3-1.5-3.2c-1.7-0.4-2.9,2.2-4.6,1.9
		c-0.5-0.1-1-0.4-1.3-0.8c-1.2-1.1-1.9-2.6-3.1-3.8c-1.8-1.7-4.2-2.7-6.6-2.8s-4.9,0.1-7.3,0.7c-1.3,0.2-2.6,0.7-3.8,1.3
		c-1.2,0.6-2,1.8-2.2,3.1c0,0.3,0,0.6,0,0.9c0,0.4,0,0.9,0,1.3c0,0.2,0,0.4-0.1,0.5c-0.4,1.2-1.2,2.2-2.3,2.8
		c-1.1,0.6-2.2,1.1-3.2,1.8c-1.6,1.2-2.7,3-3.1,5c-0.3,1.1-0.4,2.2-0.4,3.4c0,1,0,2.1,0.2,3.1c0.4,3.4,1.4,6.8,2.9,10
		c0.4,0.9,0.9,1.7,1.4,2.5l0,0c0.1,0.2,0.3,0.4,0.4,0.5c0.9,1.1,2,2,3.2,2.7l0.7,0.5c0.5,0.4,1.1,0.6,1.7,0.4
		c0.2-0.1,0.4-0.2,0.5-0.3c0.9-0.8,1.3-2,1.2-3.1v-0.4c0,0.1,0,0.1,0,0.2c0,0.1,0,0.2,0,0.2h0.1c0,0.5,0,1,0,1.5c0,0.2,0,0.4,0,0.6
		c0,0.1,0,0.2,0,0.4l-0.2,0.1l0,0c-0.3,0.3-0.9,0.8-1.8,1.4l0,0c-3.5,2.7-7.2,4.9-11.3,6.7c-4.5,1.8-7.8,5.6-9.3,10.3
		c-1,3.4-2.5,6.5-4.4,9.6c-0.5,0.7-1.8,6-3.3,11.5c0.3,0.3,0.6,0.6,0.9,0.9c0.3,0.3,0.6,0.6,0.9,0.9c3.6,3.4,7.5,6.3,11.9,8.7
		l0.2,0.1l1,0.6l0.9,0.5c0-0.8-0.1-1.4-0.1-2.1c0-0.4-0.1-0.8-0.1-1.1c0.2-0.4,0.4-0.7,0.6-1c0,0.3,0.1,0.6,0.1,1l0,0
		c0.1,1,0.2,2.2,0.3,3.6c0,0.4,0,0.9,0.1,1.4c0-0.5,0-1-0.1-1.4l0.8,0.4l0.9,0.4c0.3,0.1,0.6,0.3,0.9,0.4c1.1,0.5,2.3,1,3.5,1.4
		c1.9,0.7,3.9,1.3,6,1.9l0.9,0.2c4.6,1.1,9.5,1.7,14.3,1.7h1.4h0.5c3.6-0.1,7.3-0.6,10.9-1.4c3.7-0.8,7.3-1.9,10.9-3.4
		c0.3-0.1,0.7-0.3,1-0.4c0.2-0.1,0.4-0.2,0.6-0.3s0.4-0.2,0.6-0.3c-1-3.5-1.5-5.8-1.5-5.8l1.3-3.4l0.2-0.4l0.4-1l0,0
		c0,0.1,0.1,0.3,0.1,0.4l0,0c0.8,2.9,2.5,5.5,4.7,7.5c0.2-0.1,0.3-0.2,0.5-0.3l1-0.6l0.5-0.3c0.7-0.5,1.4-0.9,2.1-1.4l0.5-0.4
		c3.9-2.8,7.4-6,10.6-9.7l0.2-0.2l0,0c0.3-0.4,0.7-0.8,1-1.2L232.2,342.7z M223.4,347.3l0.1,0.1L223.4,347.3L223.4,347.3z"/>
	
		<linearGradient id="SVGID_3_" gradientUnits="userSpaceOnUse" x1="463.6056" y1="223.2355" x2="463.6056" y2="164.3003" gradientTransform="matrix(-1 0 0 1 655 153.79)">
		<stop  offset="0" style="stop-color:#808080;stop-opacity:0.25"/>
		<stop  offset="0.54" style="stop-color:#808080;stop-opacity:0.12"/>
		<stop  offset="1" style="stop-color:#808080;stop-opacity:0.1"/>
	</linearGradient>
	<path class="st11" d="M223.5,345.4L223.5,345.4l0.1,0.1C223.6,345.5,223.6,345.4,223.5,345.4z M162.1,375.6
		c-0.1-1.4-0.2-2.7-0.3-3.7c-0.1-0.8-0.1-1.4-0.2-2v-0.1c0-0.1,0-0.3,0-0.4c-1,1.5-1.8,3-2.4,4.7l0.2,0.1l1,0.6l0.9,0.5L162.1,375.6
		c0,0.5,0,0.9,0.1,1.4C162.1,376.5,162.1,376.1,162.1,375.6L162.1,375.6z M175.5,318.1L175.5,318.1L175.5,318.1L175.5,318.1
		L175.5,318.1c0.1,0.1,0.1,0.1,0,0.2C175.5,318.2,175.5,318.2,175.5,318.1L175.5,318.1z"/>
	<path class="st12" d="M193,307.8c0,0-3.6,16.3,6.3,24.9c10,8.6-23.5,15.4-29.5,8.1s4.1-10.9,4.1-10.9s5-4.1,0-16.3L193,307.8z"/>
	<path class="st13" d="M202,380.6c-3.5,0.8-7.1,1.2-10.9,1.3h-0.5h-1.4c-4.8,0-9.6-0.5-14.3-1.6l-0.9-0.2c-2-0.5-4-1.2-6-1.9
		l-1-15.1l4.3-20.9l2.5-12.3l0.7-3.4l0.7,1l0.2,0.2l0.2,0.3l8,10.7l8.2-8.9l0.4-0.5l2.2-2.4l0.9-0.9l0.4,3.1l1.4,11.2l2.7,20.6
		L202,380.6z"/>
	<path class="st14" d="M224.4,370.8c-0.7,0.5-1.4,1-2.1,1.4l-0.5,0.3l-1,0.6c-0.2,0.1-0.3,0.2-0.5,0.3c-0.1,0.1-0.3,0.2-0.4,0.2
		c-2.2-1.9-3.9-4.3-4.8-7.1c-0.1-0.3-0.2-0.7-0.3-1.1c0-0.1,0-0.1,0-0.2l-0.6,1.5l-1.8,4.3c0,0,0.5,2.1,1.5,5.5
		c-0.3,0.2-0.7,0.3-1,0.4c-3.5,1.5-7.1,2.6-10.9,3.4c-3.5,0.8-7.1,1.2-10.9,1.3h-0.5c-0.5-4.6-0.7-9.4-0.5-14.1l1.3-25.3l0.7-12.8
		l0.4-7c0,0,0.1,0.1,0.4,0.4c0.2,0.2,0.4,0.4,0.7,0.7l0,0c4.5,3.9,10.2,6.2,16.1,6.6c3.3,0.1,6.4,1.7,8.3,4.4c1.8,2.6,3,5.5,3.4,8.6
		l0.3,2.8l0,0l0.1,0.8l0.1,1L224.4,370.8z"/>
	<path class="st15" d="M224.9,370.5l-0.5,0.4c-0.7,0.5-1.4,1-2.1,1.4l-0.5,0.3l-1,0.6c-2.4-1.9-4.1-4.4-5.2-7.2l0,0
		c0-0.1-0.1-0.2-0.1-0.4c-0.1-0.4-0.2-0.7-0.3-1.1l-0.4,1.1l-0.6,1.5l-1.3,3.3c0,0,0.6,2.4,1.6,6.1c-0.2,0.1-0.4,0.2-0.6,0.3
		s-0.6,0.3-1,0.4c-3.5,1.5-7.1,2.6-10.9,3.4c-3.5,0.8-7.1,1.2-10.9,1.3c-0.6-5-0.8-10-0.6-15l1.3-24.5l0.7-13.1l0.3-6.1l0.1-1.3
		c0.1,0.1,0.1,0.1,0.2,0.2c4.6,4.4,10.7,7.1,17.1,7.5c3.3,0.1,6.3,1.7,8.2,4.3c1.9,2.6,3.1,5.6,3.5,8.9l0.5,4.9v0.1l0,0l0.1,1
		L224.9,370.5z"/>
	<path class="st14" d="M176.1,325v0.6l-0.2,2.3l-0.6,7.9c0,0-0.3,2.3-0.6,7.5c-0.4,6.8-0.6,18.7,0.2,36.9l-0.9-0.2
		c-2-0.5-4-1.2-6-1.9c-1.2-0.4-2.4-0.9-3.5-1.4c-0.3-0.1-0.6-0.2-0.9-0.4c-0.3-4-0.6-6.5-0.6-6.5s-0.3,0.3-0.7,1
		c-0.2,0.3-0.4,0.6-0.6,1v0.1l0,0c-0.2,0.3-0.4,0.7-0.6,1.1c-0.2,0.5-0.5,1-0.7,1.6l-1-0.6l-0.2-0.1c-4.3-2.4-8.2-5.3-11.9-8.7
		c1.6-5.7,3-11.5,3.5-12.2c1.9-2.9,3.3-6,4.2-9.4c1.3-4.5,4.7-8.2,9.1-10.1C168.7,331.8,172.7,328.8,176.1,325L176.1,325L176.1,325z
		"/>
	<path class="st15" d="M176.1,324.7c-3.9,3.3-8.2,6-12.9,8.1c-4.3,1.8-7.7,5.5-9.1,10.1c-1,3.3-2.4,6.4-4.2,9.4
		c-0.5,0.7-1.9,6.4-3.5,12.2c0.3,0.3,0.6,0.6,0.9,0.9c3.6,3.4,7.5,6.3,11.9,8.7l0.2,0.1c0.6-1.5,1.3-2.9,2.2-4.2v-0.1
		c0.4-0.5,0.6-0.8,0.6-0.8s0.1,0.7,0.2,1.9c0.1,1.2,0.3,3,0.5,5.1l0.9,0.4c0.3,0.1,0.6,0.3,0.9,0.4c1.1,0.5,2.3,1,3.5,1.4
		c1.9,0.7,3.9,1.3,6,1.9c-0.8-18-0.6-30-0.3-36.9c0.3-5.6,0.6-8.1,0.6-8.1l1.3-7.3l0.4-2.1l0.2-1L176.1,324.7z"/>
	<path class="st14" d="M182.5,323.7c-2.2,0-4.5-0.5-6.5-1.5c-0.3-2.6-1-5.1-2.1-7.5l19-5.9c-0.7,3.6-0.8,7.3-0.4,11.1
		C189.8,322.3,186.2,323.7,182.5,323.7z"/>
	<circle class="st12" cx="182.5" cy="307.8" r="15"/>
	<g class="st3">
		<path d="M213,377.2c-1.2-4.1-1.8-6.8-1.8-6.8l2.2-5.9c0.2,0.8,0.4,1.6,0.8,2.4v0.1l-1.3,3.3c0,0,0.6,2.4,1.6,6.1
			c-0.2,0.1-0.4,0.2-0.6,0.3S213.3,377.1,213,377.2z"/>
	</g>
	<path class="st12" d="M230.6,349.1c0,0-1.4-13.2,0-19.5s-15.9,0.9-12.3,9.6c1.9,4.7,4.3,9.4,7.2,13.6L230.6,349.1z"/>
	<path class="st14" d="M235.5,360.8c-3.1,3.6-6.6,6.8-10.6,9.7l-0.5,0.4c-0.7,0.5-1.4,1-2.1,1.4c-1.6-1.9-3.1-4-4.3-6.1l-0.1-0.2
		l3.6-19l0.4,0.4c0.2,0.1,0.4,0.4,0.6,0.5l0,0l0,0c1.9,1.6,5.8,4,7.7-1.6c0.3-1,0.6-2,0.7-3l0.4,1.4l0,0l0.2,0.8l4,15.2l0,0
		L235.5,360.8z"/>
	<path class="st15" d="M235.5,360.8c-3.1,3.6-6.6,6.8-10.6,9.7l-0.5,0.4c-0.7,0.5-1.4,1-2.1,1.4l-0.5,0.3c-1.5-1.8-2.8-3.8-3.9-5.8
		l0.1-0.7l3.5-18.4c0,0,0.2,0.2,0.5,0.5l0.6,0.5c0.3,0.2,0.6,0.5,0.9,0.7l0,0c2.1,1.4,5.2,2.5,6.8-2.5c0.3-0.9,0.5-1.9,0.6-2.8
		l0.5,1.7L235.5,360.8z"/>
	<path class="st16" d="M235.5,360.8c-3.1,3.6-6.6,6.8-10.6,9.7l-0.5,0.4c-0.7,0.5-1.4,1-2.1,1.4l-0.5,0.3c-1.5-1.8-2.8-3.8-3.9-5.8
		l0.1-0.7l3.5-18.4c0,0,0.2,0.2,0.5,0.5l0.6,0.5c0.3,0.2,0.6,0.5,0.9,0.7l0,0c2.1,1.4,5.2,2.5,6.8-2.5c0.3-0.9,0.5-1.9,0.6-2.8
		l0.5,1.7L235.5,360.8z"/>
	<path class="st14" d="M161.6,369.8L161.6,369.8C161.5,369.9,161.5,369.8,161.6,369.8c0.6-2.3,1.2-3.7,1.7-4.2c0,0,0.7,4.5,1.3,11.2
		c-0.3-0.1-0.6-0.2-0.9-0.4l-0.9-0.4c-0.1-2.1-0.3-3.9-0.5-5.1s-0.2-1.9-0.2-1.9S161.9,369.3,161.6,369.8z"/>
	<path class="st14" d="M182.7,303.7c0.8-0.4,1.7-0.6,2.5-0.5c0.4,0.2,0.7,0.4,1,0.7c1.2,1.1,2.3,2.4,3.9,2.7c1,0.1,2,0.1,2.9-0.1
		c1.7-0.2,3.3-0.7,4.8-1.5c3.4-2,4.4-6.3,4.6-10.3c0.1-1.3-0.2-3-1.5-3.3c-1.6-0.4-2.8,2.1-4.5,1.9c-0.5-0.1-1-0.4-1.3-0.8
		c-1.1-1.1-1.9-2.6-3-3.7c-1.8-1.6-4-2.6-6.4-2.8c-2.4-0.1-4.8,0.1-7.1,0.7c-1.3,0.2-2.5,0.6-3.6,1.2c-1.1,0.6-1.9,1.7-2.2,3
		c-0.1,0.9,0.1,1.8,0,2.6c-0.3,1.2-1.2,2.2-2.2,2.7c-1,0.6-2.2,1-3.2,1.8c-1.6,1.2-2.6,2.9-3,4.9c-0.4,1.9-0.5,3.9-0.2,5.8
		c0.4,3.4,1.3,6.6,2.8,9.8c0.5,1.1,1.1,2.1,1.8,3c1.1,1.2,2.3,2.2,3.6,3c0.5,0.4,1.2,0.7,1.8,0.5c0.2-0.1,0.4-0.2,0.5-0.3
		c1.3-1.1,1.4-3,1-4.6s-1.1-3.2-1.2-4.8c-0.1-0.5,0-0.9,0.3-1.4c0.3-0.3,0.6-0.6,0.9-0.9c0.4-0.5,0.8-1.1,1-1.7
		c0.8-1.5,1.3-3.2,1.5-4.9c0.1-1.4-0.2-2.8-0.9-4C178.9,303.9,180.9,304.3,182.7,303.7z"/>
	<path class="st17" d="M182.7,303.2c0.8-0.4,1.7-0.6,2.5-0.5c0.4,0.2,0.7,0.4,1,0.7c1.2,1.1,2.3,2.4,3.9,2.7c1,0.1,2,0.1,2.9-0.1
		c1.7-0.2,3.3-0.7,4.8-1.5c3.4-2,4.4-6.3,4.6-10.3c0.1-1.3-0.2-3-1.5-3.3c-1.6-0.4-2.8,2.1-4.5,1.9c-0.5-0.1-1-0.4-1.3-0.8
		c-1.1-1.1-1.9-2.6-3-3.7c-1.8-1.6-4-2.6-6.4-2.8c-2.4-0.1-4.8,0.1-7.1,0.7c-1.3,0.2-2.5,0.6-3.6,1.2c-1.1,0.6-1.9,1.7-2.2,3
		c-0.1,0.9,0.1,1.8,0,2.6c-0.3,1.2-1.2,2.2-2.2,2.7c-1,0.6-2.2,1-3.2,1.8c-1.6,1.2-2.6,2.9-3,4.9c-0.4,1.9-0.5,3.9-0.2,5.8
		c0.4,3.4,1.3,6.6,2.8,9.8c0.5,1.1,1.1,2.1,1.8,3c1.1,1.2,2.3,2.2,3.6,3c0.5,0.4,1.2,0.7,1.8,0.5c0.2-0.1,0.4-0.2,0.5-0.3
		c1.3-1.1,1.4-3,1-4.6s-1.1-3.2-1.2-4.8c-0.1-0.5,0-0.9,0.3-1.4c0.3-0.3,0.6-0.6,0.9-0.9c0.4-0.5,0.8-1.1,1-1.7
		c0.8-1.5,1.3-3.2,1.5-4.9c0.1-1.4-0.2-2.8-0.9-4C178.9,303.4,180.9,303.8,182.7,303.2z"/>
	<ellipse class="st18" cx="100.4" cy="682.1" rx="25.3" ry="9.3"/>
	<ellipse class="st19" cx="100.4" cy="681.1" rx="13" ry="4.7"/>
	<path class="st20" d="M75.1,680c0,0,28,15.5,50.7,2.1c0,0-3.1,53.8-18.6,58.9H86.4C86.4,741,68.8,704.8,75.1,680z"/>
	<path class="st4" d="M122.4,581.5c7.1,25.9-23.2,100-23.2,100s-63.8-48.3-70.9-74.2c-7.1-25.9,8.1-52.8,34.2-59.9
		C88.4,540.2,115.2,555.4,122.4,581.5L122.4,581.5z"/>
	<path class="st14" d="M122.4,581.5c7.1,25.9-23.2,100-23.2,100s-63.8-48.3-70.9-74.2c-7.1-25.9,8.1-52.8,34.2-59.9
		C88.4,540.2,115.2,555.4,122.4,581.5L122.4,581.5z"/>
	<path class="st21" d="M62.6,547.4c0,0,39.7,59.9,36.7,134.2"/>
	<path class="st4" d="M132.4,629c0,0-36-19.6-31.4,52.7c0,0,30.1-1.1,40.6-25.5c4.3-9.9,0.6-21.4-8.7-26.9L132.4,629z"/>
	<path class="st21" d="M133,629.1c0,0-4.6,37.5-32,52.6"/>
	<path class="st19" d="M122.4,683.8c-1,12.4-5.3,50.8-18.3,55.1H85.5c0.6,1.3,0.9,2.1,0.9,2.1h20.7c15.5-5.2,18.6-58.9,18.6-58.9
		C124.7,682.7,123.6,683.3,122.4,683.8z"/>
	<rect x="356" y="597.3" class="st2" width="210.4" height="122.1"/>
</g>
<g id="_x23_man_x28_stand_x2C_point_x5F_to_x29_">
	<path class="st22" d="M776.8,834.9c0,0-2,2.8-10.8,6.1c-8.7,3.3-6.8,9.2-8.1,12.8c-1.3,3.7-10.2,7-27.8,6.1
		c-17.6-0.8-6.4-14-6.4-14s9.2-13.5,12.3-15.3c1.1-0.7,2.2-2.7,3.3-5.2c1.4-3.5,2.6-7.2,3.5-10.8c0,0,28.9,3.9,31,6.8
		c0.8,1.5,1.5,3.3,1.8,4.9C776.3,829.3,776.6,832.1,776.8,834.9z"/>
	<path class="st22" d="M854.7,858c0,0-0.3,10.9-19.1,13.1c-18.9,2.2-18-11.5-16.4-16.7c0.9-3.2,0.3-13.1-0.5-20.4
		c-0.5-4.6-0.8-8.2-0.8-8.2s31.7,0.7,31.4,2.3c0,2,0.3,4,0.8,5.9c0.9,3.6,2,7.2,3.4,10.7C856.6,852.5,854.7,858,854.7,858z"/>
	<path class="st23" d="M631.2,534c-0.6,1.1-1.9,3-5.1,6.1c-3.9,3.7-7.9,7.2-12.1,10.5c-19.5,15.6-29.7-1.9-29.7-1.9
		s-9.9,8.9-14.7,10.9c-4.8,2-4.6-4.3-4.6-4.3s26.3-27.6,34.6-28c4.7-0.2,10.2-2.7,14-4.7c2.8-1.5,4.7-2.8,4.7-2.8l7.1,6.9l6.1,5.9
		C631.5,532.6,631.8,532.9,631.2,534z"/>
	<path class="st14" d="M773.9,821.6c0.8,1.5,1.5,3.3,1.8,4.9c-4.8,7.1-33.8-0.4-36.2-0.9c1.4-3.5,2.6-7.2,3.5-10.8
		C743,814.8,771.9,818.7,773.9,821.6z"/>
	<path class="st14" d="M850.1,834.1c-0.2,0.2-0.4,0.3-0.6,0.4c-4.7,2.1-28.8-0.1-28.8-0.1c-0.7,0.1-1.5,0-2-0.5
		c-0.5-4.6-0.8-8.2-0.8-8.2s31.7,0.7,31.4,2.3C849.2,830.2,849.5,832.2,850.1,834.1z"/>
	<path class="st24" d="M858.8,626.7c-1.3,6.6-1.6,13.5-0.7,20.2c1.6,10.2-0.1,44-0.1,44l0.1,59.2c0,0-2,37.9-3.9,46.1
		c-1.9,8.2,3.9,11.5,3.9,11.5s-3.9,23.3-8.6,25.5c-4.7,2.1-28.8-0.1-28.8-0.1s-2.9,1-6.5-6.5c-3.6-7.5,0-25.9,2.6-32
		c2.6-6,0.3-12.5,0.3-12.5s2.9-33.7,0-36.6s-2.3-15.7-2.3-15.7l-4.7-26.5l-5.6-11.2l-1.6-24.6l-4.5-21.7c0,0-1.9-1.9-3.4-19.1
		s-3.6-11.8-3.6-11.8c0.7,11.5-5.2,17.3-5.2,17.3l-1.7,30.1c0,0-2,22.5-5.4,28c-3.3,5.5,0,12.3,0,12.3s-1.1,21.5-0.1,27.8
		c1,6.3-3.8,20.6-3.8,20.6l-1.3,25.9c0,0,7.8,23.3,4.2,30.9c-3.7,7.6-1.9,16.4-1.9,16.4c-2.9,9.2-37,0-37,0s-4.6-38.8-1.3-42.4
		c3.3-3.6-1.1-28.8-1.1-28.8s-2.3-8.4-1.2-10.7c1.1-2.3-1-11.5-1-11.5s-1.6-24.9,1.3-30.7c2.9-5.8-1.6-39.2-1.6-39.2
		s-1.9-31.4-6.5-42.7c-0.8-2-1.4-6.4-1.7-12.2c-1.4-25.6,1.7-78.9,1.7-78.9l12.8-17.6l13.4-0.7l12.9-0.7l24.3-1.3l23.9-1.3l29.2-1.6
		c0,0,6,53.9,14.5,77.2c1.2,3.3,2,6.6,2.7,10C863.5,603,862.6,615.2,858.8,626.7z"/>
	<path class="st23" d="M787.6,328.4L777.2,354l-22.6,3.7c0,0-12,4.1-11.3-6.1c0.3-5.4-1.4-11.2-3-15.3c-0.8-2.1-1.8-4.2-2.9-6.2
		c0,0,46.4-26.1,43.8-17.3c-0.6,2-0.6,4-0.1,5.9C782.4,324.5,787.6,328.4,787.6,328.4z"/>
	<polygon class="st22" points="760.5,514.3 811.3,514.3 808.7,532.1 759.4,532.1 	"/>
	<polygon class="st14" points="760.5,514.3 811.3,514.3 808.7,532.1 759.4,532.1 	"/>
	<path class="st14" d="M631.2,534c-0.6,1.1-1.9,3-5.1,6.1c-1.8-5-5.6-12.4-9.5-14.9c-1.2-0.7-2.2-1.6-3.1-2.6
		c2.8-1.5,4.7-2.8,4.7-2.8l7.1,6.9L631.2,534z"/>
	<path class="st25" d="M638,540.8c0,0-1.8,0.7-3.8,1.4c-3.4,1.3-7.7,2.9-6.7,2.2c1.7-1-4.2-16.1-10.1-19.9c-4.4-2.8-3.6-4.1-2.9-4.6
		c0.2-0.1,0.3-0.2,0.5-0.2l4.7-1.7L638,540.8z"/>
	<path class="st14" d="M781.1,312.8c-0.6,2-0.6,4-0.1,5.9c-7.8,14.7-24.7,22-40.8,17.6c-0.8-2.1-1.8-4.2-2.9-6.2
		C737.3,330,783.6,303.9,781.1,312.8z"/>
	<path class="st23" d="M785.1,300.6c0,19.5-15.8,35.4-35.4,35.4s-35.4-15.8-35.4-35.4c0-19.6,15.8-35.4,35.4-35.4l0,0
		c19.4-0.1,35.3,15.5,35.4,34.9C785.1,300.3,785.1,300.5,785.1,300.6z"/>
	<path class="st25" d="M816.2,514.4l-22.6,1l-26,1.1l-12.7,0.6l-0.9-8.5l-10-87.9l-3.3-66.5h9l24.9-4.1l8.8-3.3l0,0l11.5-4.4
		l9.4,19.2l3.2,88.1l7.4,55.6L816.2,514.4z"/>
	<path class="st14" d="M785.5,416.8c0,0-9-39.5-15.3-47.1c0,0,2.3-13.6,7.5-15.3c5.2-1.8-8-4.3-8-4.3l-8.1,2.8l-8.1,3.3
		c0,0,7.1,6.3,5.9,14.5c0.7,3.7,0.3,7.5-0.9,11c-2.1,5.5-2.5,50.1,0,55.9c2.5,5.9,2.1,18.9,2.1,18.9l5.3,25.3l1.8,30.4l19.1,14.2
		l13.4-16.7L785.5,416.8z"/>
	<path class="st22" d="M786.2,416.1c0,0-9-39.5-15.3-47.1c0,0,2.3-13.6,7.5-15.3c5.2-1.8-8-4.3-8-4.3l-8.1,2.8l-8.1,3.3
		c0,0,7.1,6.3,5.9,14.5c0.7,3.7,0.4,7.4-0.9,11c-2.1,5.5-2.6,50.1,0,55.9c2.6,5.9,2.1,18.9,2.1,18.9l5.3,25.3l1.8,30.4l19.1,14.1
		l13.4-16.7L786.2,416.1z"/>
	<path class="st14" d="M742.8,346.4l19.6,6.5c0,0-9.9,5-9.9,20C752.7,372.9,742.7,360.7,742.8,346.4z"/>
	<path class="st25" d="M742.8,345.5l19.6,6.5c0,0-9.9,5-9.9,20C752.7,372,742.7,359.9,742.8,345.5z"/>
	<path class="st14" d="M785.5,327.2c0,0-9.7,16.6-23,25.6c0,0,8.1-3,23,8.4C785.5,361.2,794.7,328.1,785.5,327.2z"/>
	<path class="st25" d="M785.5,326.5c0,0-9.7,16.6-23,25.6c0,0,8.1-3,23,8.4C785.5,360.5,794.7,327.2,785.5,326.5z"/>
	<path class="st14" d="M638,540.8c0,0-1.8,0.7-3.8,1.4c-5.9-11.2-17.7-20.7-19.6-22.3c0.2-0.1,0.3-0.2,0.5-0.2l4.7-1.7L638,540.8z"
		/>
	<path class="st14" d="M770.5,568.8c-0.6,13.1-7.8,37.5-7.8,37.5c-9.1,12.6-29.4,3.3-36.5-0.5c-1.4-25.6,1.7-78.9,1.7-78.9
		l12.8-17.6l13.4-0.7l-10-87.9l-3.3-66.5h5c1.6,6.8,4.2,18.2,3.7,21c-0.7,4.1,6.1,44.5,6.1,44.5l8.5,51.5l2.3,14
		c-0.7,2.3-0.2,12.4,0.7,22.7c0.3,2.9,0.5,5.9,0.7,8.6c0.9,9.6,1.9,17.6,1.9,17.6C770.7,543.1,770.5,568.8,770.5,568.8z"/>
	<path class="st26" d="M768.9,568c-0.6,13.2-7.8,37.5-7.8,37.5c-11.2,15.5-39-2-39-2s-5.3-74.6-2.1-83.8c2-5.9,2.9-12.1,2.8-18.2
		l-6-22.6c0,0-3.9,11.2-6.5,12.5c-2.6,1.4-5.7,6.9-5.7,6.9l-26.9,22.4l-20.8,15.9l-18.5,15.9c-1.5-16.6-23.3-32.9-23.3-32.9
		l62.8-51.9c-0.6-1,2.8-12,2.8-12l3.3-11.4l7.1-9.6c0,0-2-6.7,0-10c2-3.3,1.6-11.2,3-30.2c1.4-19.1,8.8-20.3,8.8-20.3
		s28.8-20.1,32.2-19.4c3.2,0.6,7.2-5.8,7.8-6.6l0.1-0.1c0,0,5.6,22,4.9,26.1s6.1,44.5,6.1,44.5l8.5,51.5l2.3,14
		c-1.7,5.3,3.3,48.8,3.3,48.8C769.1,542.4,768.9,568,768.9,568z"/>
	<path class="st14" d="M861.5,591.1c-11.2,5.8-21.7,11.3-21.7,11.3s-17.4,5.8-24.4-27l-20.3-55.7c0,0-0.6-1.7-1.4-4.5
		c-0.7-2.2-1.6-5.3-2.5-8.7c-4-14.1-9.3-35.8-7.3-44.3v-0.7l0.4-76c0,0-2.1-35.8-0.8-38.7c0-0.1,0.1-0.2,0.1-0.2l0,0l11.5-4.4
		l9.4,19.2l3.2,88.1l7.4,55.6l29.2-1.6c0,0,6,53.9,14.5,77.2C860,584.3,860.9,587.7,861.5,591.1z"/>
	<path class="st26" d="M888.2,578c-9.9,4.1-46.8,23.7-46.8,23.7s-17.4,5.8-24.4-27L796.7,519c0,0-14.3-44.4-11.2-57.4V461l0.4-76
		c0,0-2.1-35.7-0.8-38.7c1.3-2.8,2.8-11.1,2.1-18.1c0-0.4-0.1-0.7-0.1-1.1l0.5,0.3l14.3,7.5h1.6c4.6-0.1,17.9-0.2,20,0.7
		c2.5,1,26.6,3.1,26.6,3.1s12.8,0.7,12.2,20.4c0,0,4.8,16.5,6.3,19.2c1.5,2.7,9.9,29.6,9.9,29.6l9.9,51.3l1.2,56.8
		c0,0,0.1,36.2,2,39.2l-7.1,2.8C884.4,557.9,898.1,573.9,888.2,578z"/>
	<path class="st23" d="M853.4,545.7l-4.5,5.9c0,0-27.2,49.3,3.2,42.2s25.9-32.1,25.9-32.1l-1.9-17.3L853.4,545.7z"/>
	<path class="st14" d="M815.1,812.1c0.7-0.1,11.2-4.6,18.6-4.6s17.1-0.7,16,1.2s-15.3,2.2-19.3,4.2c-4.1,2-12.7,7.3-13.5,7.6
		C815.9,820.7,815.1,812.1,815.1,812.1z"/>
	<path class="st14" d="M742.1,789.8c0.1,0.7,15.7,18.3,24.3,17.5C775.1,806.5,742.1,789.8,742.1,789.8z"/>
	<path class="st14" d="M746.6,748.1c0,0,16.7,42.6,22.1,44.8c5.4,2.2,6.1-5.2,3.3-7.3C769.1,783.4,760.2,769.7,746.6,748.1z"/>
	<path class="st14" d="M832.8,734.1c0,0,2.8,15.7-4.2,25.9C821.6,770.2,832.8,734.1,832.8,734.1z"/>
	<path class="st14" d="M788.8,591.7c-0.3-0.3,25-1.3,25-1.3S802.4,602.8,788.8,591.7z"/>
	<path class="st14" d="M791.9,602.6l15.3,1.4C807.2,604,801.8,610.5,791.9,602.6z"/>
	<path class="st14" d="M701.4,439.3c0,0-13.8,1.9-15.1,5.9C685,449.2,701.4,439.3,701.4,439.3z"/>
	<path class="st14" d="M677,472.9c1-0.4,9.6-2.9,15.6-1.3c6,1.6,14.5-2.9,14.5-2.9s8.6-0.3,7,0.9s-6.8,0.7-9.7,2.3
		c-2.9,1.7-10.4,3.2-12.4,2.3C690.1,473.5,677,472.9,677,472.9z"/>
	<path class="st26" d="M762.4,470.4l-0.3,7.1c0,0-24.1-59.2-30.1-71.8s-2.7-40.2-2.7-40.2l3.4-0.8l9.9-16.2l0.1-0.1
		c0,0,5.6,22,4.9,26.1c-0.7,4.1,6.1,44.5,6.1,44.5L762.4,470.4z"/>
	<path class="st26" d="M810.6,346.6c0,0-9.9,101.8-25.2,114.4l0.4-76c0,0-2.1-35.7-0.8-38.7c1.3-2.8,2.8-11.1,2.1-18.1l0.3-0.8
		l14.3,7.5h1.6l0.9,13.6L810.6,346.6z"/>
	<path class="st14" d="M762.4,470.4l-0.3,7.1c0,0-24.1-59.2-30.1-71.8s-2.7-40.2-2.7-40.2l3.4-0.8l9.9-16.2l0.1-0.1
		c0,0,5.6,22,4.9,26.1c-0.7,4.1,6.1,44.5,6.1,44.5L762.4,470.4z"/>
	<path class="st14" d="M810.6,346.6c0,0-9.9,101.8-25.2,114.4l0.4-76c0,0-2.1-35.7-0.8-38.7c1.3-2.8,2.8-11.1,2.1-18.1l0.3-0.8
		l14.3,7.5h1.6l0.9,13.6L810.6,346.6z"/>
	<circle class="st24" cx="759.4" cy="487.3" r="2.9"/>
	<circle class="st24" cx="762.4" cy="530.6" r="2.9"/>
	<path class="st14" d="M785.1,300.6c0,5.1-1.1,10.1-3.3,14.8l-0.5-0.6c-5.7-7.2-7-17.1-12.1-24.7c-1.9-2.7-4.3-5.2-7.3-6.1
		c-3.1-0.9-6.8-0.2-8.7,2.4c-1.2,1.7-1.6,3.9-2.8,5.6c-2.4,3.2-7,3.1-10.9,2.5s-8.3-1.2-11.2,1.3c-3,2.5-3.2,7-5.6,9.9
		c-1.9,2.2-4.6,3.3-7.4,3.8c-4.8-19,6.6-38.2,25.6-43c19-4.8,38.2,6.6,43,25.6C784.7,294.9,785.1,297.8,785.1,300.6L785.1,300.6z"/>
	<path class="st27" d="M765.2,255.2c7.3,3.1,14.5,7,20.1,12.8s9.3,13.8,8.9,21.9c-0.1,2.6-0.7,5.1-2,7.3c-1.2,2-3,3.5-3.5,5.7
		c-0.7,2.5,0.3,5.2,0.3,7.8c0,2.6-2,5.8-4.4,5c-0.9-0.4-1.7-0.9-2.2-1.8c-5.7-7.2-7-17.1-12-24.6c-1.9-2.7-4.3-5.2-7.3-6.1
		c-3.1-0.9-6.8-0.3-8.7,2.4c-1.2,1.7-1.5,3.9-2.8,5.6c-2.4,3.2-7,3.1-10.9,2.5c-3.9-0.6-8.3-1.2-11.2,1.3c-3,2.5-3.2,7-5.6,9.9
		c-2.9,3.6-8.1,4.1-12.6,4.3c1.9-4.2,1.2-9.1-0.4-13.4s-4.1-8.2-5.9-12.5c-1.3-2.9-2-5.9-1.9-9.1c0.3-3.1,1.9-6.2,4.6-7.6
		c1.6-0.8,3.4-1,4.9-2c4.4-3,4.1-7.9,9.9-9.5c4.6-1.3,9.6-1.2,14.3-2.6C746.8,249.8,755.4,251.6,765.2,255.2z"/>
	<path class="st14" d="M868.5,549.9c0,0,8,7.9,9,7.7c1-0.2,2.6-7.1,2.6-7.1L868.5,549.9z"/>
	<path class="st25" d="M869.3,549.2c0,0,8,7.9,9,7.7c1-0.2,2.6-7.1,2.6-7.1L869.3,549.2z"/>
	<path class="st14" d="M890.8,555.8c0,0-34-7.9-42.6-4.2c0,0,3.2-19.2,2.6-22.8c-0.6-3.5,0.1-15.8,0.1-15.8s2-22.9-0.7-29.3
		c-2.6-6.4-1.2-23.4-1.2-23.4l38.8,18.5C887.9,478.7,888.3,550.7,890.8,555.8z"/>
	<path class="st26" d="M891.5,555c0,0-34-7.9-42.6-4.2c0,0,3.2-19.2,2.6-22.8c-0.6-3.5,0.1-15.8,0.1-15.8s2-22.9-0.7-29.3
		c-2.6-6.4-1.2-23.4-1.2-23.4l38.8,18.4C888.6,478,889.2,549.9,891.5,555z"/>
	<g class="st3">
		<path d="M711.8,305.6c1.6-4.1,0.9-8.7-0.7-12.8c-1.6-4.3-4.1-8.2-5.9-12.5c-1.3-2.9-2-5.9-1.9-9.1c0-0.1,0-0.1,0-0.2
			c-0.5,1-0.7,2.1-0.8,3.3c-0.1,3.2,0.6,6.2,1.9,9.1c1.8,4.2,4.3,8.1,5.9,12.5C711.6,298.9,712,302.2,711.8,305.6z"/>
		<path d="M785,312.6c-0.9-0.4-1.8-0.9-2.3-1.8c-5.7-7.2-6.9-17.1-12-24.6c-1.9-2.7-4.3-5.2-7.3-6.1c-3.1-1-6.8-0.3-8.7,2.4
			c-1.2,1.7-1.5,3.9-2.8,5.6c-2.4,3.2-7,3.1-10.9,2.5s-8.3-1.2-11.2,1.3c-3,2.5-3.2,7-5.6,9.9c-2.9,3.6-8,4.1-12.5,4.3
			c-0.2,1.1-0.5,2.1-0.9,3.2c4.6-0.2,9.8-0.7,12.6-4.3c2.4-3,2.7-7.5,5.6-9.9c2.9-2.4,7.3-2,11.2-1.3c3.9,0.7,8.5,0.7,10.9-2.5
			c1.2-1.7,1.6-3.8,2.8-5.6c1.9-2.7,5.7-3.4,8.7-2.4c3.1,1,5.5,3.4,7.3,6.1c5.1,7.6,6.3,17.6,12,24.6c0.6,0.8,1.3,1.5,2.2,1.8
			c2.4,0.7,4.4-2.4,4.4-5v-0.1C787.8,312.1,786.5,313.1,785,312.6z"/>
		<path d="M792.6,294.1c-1.2,2-3,3.5-3.5,5.7c-0.2,0.7-0.3,1.2-0.3,1.9c0.8-1.6,2-2.9,3-4.4c0.9-1.7,1.6-3.4,1.9-5.4
			C793.5,292.8,793.1,293.5,792.6,294.1z"/>
	</g>
</g>
</svg>
