<?xml version="1.0" encoding="utf-8"?>
<!-- Generator: Adobe Illustrator 19.0.0, SVG Export Plug-In . SVG Version: 6.00 Build 0)  -->
<svg version="1.1" id="图层_1" xmlns="http://www.w3.org/2000/svg" xmlns:xlink="http://www.w3.org/1999/xlink" x="0px" y="0px"
	 viewBox="0 0 1000 1000" style="enable-background:new 0 0 1000 1000;" xml:space="preserve">
<style type="text/css">
	.st0{opacity:0.1;fill:#6C63FF;enable-background:new    ;}
	.st1{fill:#D0D2D5;}
	.st2{opacity:0.1;enable-background:new    ;}
	.st3{fill:#3F3D56;}
	.st4{fill:#FFFFFF;}
	.st5{fill:#6C63FF;}
	.st6{fill:#E6E8EC;}
	.st7{fill:#535461;}
	.st8{fill:#9D9CB5;}
	.st9{fill:none;stroke:#535461;stroke-width:2;stroke-miterlimit:10;}
	.st10{fill:#D4DFEC;}
	.st11{opacity:0.5;fill:#D4DFEC;enable-background:new    ;}
	.st12{opacity:0.5;fill:#6C63FF;enable-background:new    ;}
	.st13{opacity:0.5;fill:#3F3D56;enable-background:new    ;}
	.st14{opacity:0.5;fill:#FFFFFF;enable-background:new    ;}
	.st15{opacity:0.25;enable-background:new    ;}
	.st16{opacity:0.3;fill:#6C63FF;enable-background:new    ;}
	.st17{fill:url(#SVGID_1_);}
	.st18{opacity:0.3;enable-background:new    ;}
	.st19{fill:#C37098;}
	.st20{opacity:0.4;enable-background:new    ;}
	.st21{opacity:0.1;}
	.st22{opacity:0.2;enable-background:new    ;}
</style>
<g id="_x23_office_x28_have_x5B_computer_x2C_pad_x2C_phone_x2C_plant_x2C_cup_x5D__x29_">
	<g>
		<g>
			<ellipse class="st0" cx="498" cy="754.2" rx="477.2" ry="30"/>
			<polygon class="st1" points="472.6,744.2 310.7,742.1 311.1,737.9 318.9,669.5 461.2,669.5 471.6,737.9 472.5,743.1 			"/>
			<polygon class="st2" points="472.5,743.1 391.7,743.1 310.7,742.1 311.1,737.9 471.6,737.9 			"/>
			<rect x="283.7" y="739" class="st1" width="215" height="5.2"/>
			<path class="st3" d="M703.6,257.9c0-7.5-6-13.5-13.5-13.5H90c-7.5,0-13.5,6.1-13.5,13.5l0,0v363.8h627.1V257.9z"/>
			<path class="st1" d="M76.5,618.1v42.6c0,7.5,6,13.5,13.5,13.5h600.1c7.5,0,13.5-6,13.5-13.5v-42.6H76.5z"/>
			<rect x="102.5" y="267.1" class="st4" width="578.2" height="327"/>
			<path class="st5" d="M393.2,658c4.3,0,8.4-2,11-5.4l0,0c0.4-0.5,0.7-1,1.1-1.6l-7.7-1.4l8.3,0.1c1.6-3.5,1.7-7.5,0.3-11.1
				l-11.2,5.8l10.3-7.5c-3.9-6.7-12.5-9-19.2-5.1s-9,12.5-5.1,19.2c0.4,0.5,0.7,1.1,1.1,1.6l0,0C384.8,656,388.9,658,393.2,658z"/>
			<polygon class="st2" points="407.2,674.1 471.8,739 461.9,674.1 			"/>
			<path class="st0" d="M597.9,436.2c0-0.1,0-0.1,0-0.2c-0.2-4.5-1-9-2.5-13.3c-0.1-0.3-0.2-0.5-0.3-0.7
				c-3.5-10.4-10.4-19.3-19.4-25.4c-20.9-14.3-49.3-10.7-66.1,8.2c-0.8-4.8-2.2-9.5-4-14.1c-13.3,1.6-26.6,2.2-40,1.5
				c8.2,3.8,16.6,6.8,25.4,9.2l-0.3,1.2c-9.7-2.6-19.3-6.2-28.4-10.6l-2.7-1.4l3.1,0.2c14.2,0.9,28.4,0.5,42.5-1.3
				c-3.1-7.3-7.3-14-12.5-19.9c-22.9-2.3-45.6-7.1-66.8-16.6l0.5-1.1c20.6,9.3,42.7,14.1,65.1,16.4c-26.9-28.9-72.2-30.4-101-3.5
				c-4.9,4.5-9.2,9.8-12.6,15.6c-2.2-20.5-10.7-39.8-24.4-55.2c-12.2,4.9-24.8,8.7-37.7,11.5c-19.4,4.1-39.2,5.6-58.9,4.6
				c8.2,3.8,16.6,6.8,25.4,9.2l-0.3,1.2c-9.7-2.6-19.3-6.2-28.4-10.6l-2.7-1.4l3.1,0.2c33.6,2.2,67.3-3.1,98.7-15.6
				c-1.2-1.3-2.4-2.5-3.6-3.8c-39.2,0.8-81.8,0.4-120.3-13.6c-29.1,17.9-46.7,49.6-46.7,83.8c0,18.5,5.1,43.9,13.9,69.3
				c3.9,11.4,8.5,22.5,13.9,33.4c2.7,5.5,5.5,10.8,8.5,15.9l0,0c3.6,6.2,7.6,12.2,12,17.9c0.8,1,1.5,2,2.4,3
				c4.5,5.6,9.5,10.8,14.9,15.5l0,0c1.1,0.9,2.2,1.8,3.4,2.6c3,2.3,6.2,4.2,9.5,5.9c5.5,2.9,11.7,4.5,18,4.9c0.5,0,1,0,1.5,0v0.2
				h267.2v-0.2h0.2c1.5,0,3.1-0.3,4.5-0.8c9.5-3.4,18.2-16.8,25.4-33.8c1.6-3.7,3.1-7.7,4.5-11.8c1.3-3.5,2.5-7.3,3.6-10.9
				c3.4-10.8,6.2-21.7,8.4-32.8c2.5-12.6,3.9-23.6,3.9-30.6C598,437.7,598,436.9,597.9,436.2z"/>
			<path class="st0" d="M347.9,319.3c-31.8-30.4-80-35.8-117.8-13.3C267.9,319.6,309.6,320,347.9,319.3z"/>
			<path class="st0" d="M566.8,538.9l-41.3-71.4c-0.4-0.6-1.2-0.8-1.8-0.5c-0.2,0.1-0.4,0.3-0.5,0.5L482,538.9
				c-0.4,0.6-0.2,1.5,0.5,1.8c0.2,0.1,0.5,0.2,0.6,0.2h12.3c0.7,0,1.3,0.5,1.4,1.3v15.3c0,0.7,0.5,1.3,1.3,1.3l0,0h16.1
				c0.7,0,1.4-0.5,1.4-1.4l0,0V550c0-0.7,0.5-1.3,1.3-1.3l0,0H532c0.7,0,1.4,0.5,1.4,1.4l0,0v7.4c0,0.7,0.5,1.4,1.4,1.4l0,0h16
				c0.5,0,1.1-0.4,1.3-0.9c0.1-0.1,0.1-0.3,0.1-0.5v-15.3c0-0.7,0.6-1.3,1.4-1.3h12.3c0.7,0,1.4-0.5,1.4-1.3
				C567,539.3,567,539.1,566.8,538.9z M509.4,546.8c-0.3,0.3-0.5,0.4-0.9,0.4h-5.8c-0.7,0-1.4-0.5-1.4-1.4l0,0
				c0-0.7,0.6-1.3,1.4-1.4h5.8c0.7,0,1.4,0.5,1.4,1.3l0,0C509.7,546.2,509.5,546.5,509.4,546.8L509.4,546.8z M547.2,546.8
				c-0.3,0.3-0.5,0.4-0.9,0.4h-5.8c-0.7,0-1.3-0.6-1.3-1.4c0-0.4,0.2-0.6,0.4-0.9c0.3-0.3,0.5-0.4,0.9-0.4h5.8
				c0.7,0,1.4,0.5,1.4,1.4l0,0C547.6,546.2,547.4,546.5,547.2,546.8L547.2,546.8z"/>
			<path class="st0" d="M312,539.5l-41.3-71.4c-0.4-0.6-1.2-0.8-1.8-0.5c-0.2,0.1-0.4,0.3-0.5,0.5l-35.6,61.6
				c4.5,5.6,9.5,10.8,14.9,15.5h5.8c0.7,0,1.4,0.5,1.4,1.3l0,0c0,0.7-0.6,1.3-1.4,1.4h-2.5c3,2.3,6.2,4.3,9.5,5.9v-3.1
				c0-0.7,0.5-1.3,1.3-1.3l0,0h15.3c0.7,0,1.3,0.5,1.3,1.3v7.4c0,0.2,0,0.4,0.1,0.5c0.2,0.5,0.7,0.7,1.2,0.7h16.1
				c0.5,0,0.8-0.2,1-0.5c0.2-0.3,0.3-0.5,0.3-0.8v-15.2c0-0.7,0.5-1.4,1.3-1.4l0,0h12.5c0.7,0,1.4-0.5,1.4-1.3
				C312.1,539.9,312,539.7,312,539.5z M284.7,545.5c0.3-0.3,0.5-0.4,0.9-0.4h5.8c0.7,0,1.4,0.5,1.4,1.4l0,0c0,0.7-0.5,1.4-1.3,1.4
				l0,0h-5.8c-0.7,0-1.4-0.5-1.4-1.3l0,0C284.2,546.1,284.4,545.8,284.7,545.5L284.7,545.5z M258.8,519.1c-0.7,0-1.3-0.5-1.3-1.3
				l0,0v-10c0-0.7,0.5-1.3,1.3-1.4l0,0h21.5c0.7,0,1.3,0.6,1.3,1.4v10c0,0.7-0.5,1.3-1.3,1.4L258.8,519.1L258.8,519.1z"/>
			<path class="st0" d="M474.9,411.2h-51.1v-11c0-1.5-1.2-2.6-2.6-2.6l0,0h-15v-11.7c0-0.9-0.7-1.6-1.6-1.6l0,0h-19.3
				c-0.9,0-1.6,0.7-1.6,1.6v11.7H366c-1.5,0-2.6,1.2-2.6,2.6v11h-48.6c-0.3,0-0.5,0.2-0.5,0.5l0,0v146.5c0,0.3,0.2,0.5,0.5,0.5l0,0
				h32.4c0.3,0,0.5-0.2,0.5-0.5l0,0v-19.7c0-0.3,0.3-0.5,0.5-0.5h13.6c0.3,0,0.5,0.3,0.5,0.5v19.7c0,0.3,0.2,0.5,0.5,0.5l0,0h63.9
				c0.3,0,0.5-0.3,0.5-0.5l0,0v-19.7c0-0.3,0.3-0.5,0.5-0.5l0,0h13.6c0.3,0,0.5,0.3,0.5,0.5l0,0v19.7c0,0.3,0.3,0.5,0.5,0.5l0,0H475
				c0.3,0,0.5-0.3,0.5-0.5l0,0V411.7C475.5,411.4,475.3,411.2,474.9,411.2z M341.9,531.2c0,0.3-0.2,0.5-0.5,0.5l0,0h-20
				c-0.3,0-0.5-0.2-0.5-0.5l0,0v-6.8c0-0.3,0.3-0.5,0.5-0.5l0,0h20c0.3,0,0.5,0.3,0.5,0.5l0,0V531.2z M341.9,513.5
				c0,0.3-0.3,0.5-0.5,0.5h-20c-0.3,0-0.5-0.3-0.5-0.5v-6.8c0-0.3,0.3-0.5,0.5-0.5h20c0.3,0,0.5,0.3,0.5,0.5V513.5z M341.9,495.9
				c0,0.3-0.2,0.5-0.5,0.5l0,0h-20c-0.3,0-0.5-0.2-0.5-0.5l0,0v-6.8c0-0.3,0.2-0.5,0.5-0.5l0,0h20c0.3,0,0.5,0.2,0.5,0.5l0,0V495.9z
				 M341.9,478.3c0,0.3-0.2,0.5-0.5,0.5l0,0h-20c-0.3,0-0.5-0.2-0.5-0.5l0,0v-6.8c0-0.3,0.2-0.5,0.5-0.5l0,0h20
				c0.3,0,0.5,0.2,0.5,0.5l0,0V478.3z M341.9,460.6c0,0.3-0.3,0.5-0.5,0.5h-20c-0.3,0-0.5-0.3-0.5-0.5v-6.8c0-0.3,0.3-0.5,0.5-0.5
				h20c0.3,0,0.5,0.3,0.5,0.5V460.6z M341.9,443c0,0.3-0.2,0.5-0.5,0.5l0,0h-20c-0.3,0-0.5-0.2-0.5-0.5l0,0v-6.8
				c0-0.3,0.2-0.5,0.5-0.5l0,0h20c0.3,0,0.5,0.2,0.5,0.5l0,0V443z M341.9,425.4c0,0.3-0.2,0.5-0.5,0.5l0,0h-20
				c-0.3,0-0.5-0.2-0.5-0.5l0,0v-6.8c0-0.3,0.2-0.5,0.5-0.5l0,0h20c0.3,0,0.5,0.2,0.5,0.5l0,0V425.4z M389.2,531.2
				c0,0.3-0.2,0.5-0.5,0.5l0,0h-20c-0.3,0-0.5-0.2-0.5-0.5l0,0v-6.8c0-0.3,0.3-0.5,0.5-0.5l0,0h20c0.3,0,0.5,0.3,0.5,0.5l0,0V531.2z
				 M389.2,513.5c0,0.3-0.3,0.5-0.5,0.5h-20c-0.3,0-0.5-0.3-0.5-0.5v-6.8c0-0.3,0.3-0.5,0.5-0.5h20c0.3,0,0.5,0.3,0.5,0.5V513.5z
				 M389.2,495.9c0,0.3-0.2,0.5-0.5,0.5l0,0h-20c-0.3,0-0.5-0.2-0.5-0.5l0,0v-6.8c0-0.3,0.2-0.5,0.5-0.5l0,0h20
				c0.3,0,0.5,0.2,0.5,0.5l0,0V495.9z M389.2,478.3c0,0.3-0.2,0.5-0.5,0.5l0,0h-20c-0.3,0-0.5-0.2-0.5-0.5l0,0v-6.8
				c0-0.3,0.2-0.5,0.5-0.5l0,0h20c0.3,0,0.5,0.2,0.5,0.5l0,0V478.3z M389.2,460.6c0,0.3-0.3,0.5-0.5,0.5h-20c-0.3,0-0.5-0.3-0.5-0.5
				v-6.8c0-0.3,0.3-0.5,0.5-0.5h20c0.3,0,0.5,0.3,0.5,0.5V460.6z M389.2,443c0,0.3-0.2,0.5-0.5,0.5l0,0h-20c-0.3,0-0.5-0.2-0.5-0.5
				l0,0v-6.8c0-0.3,0.2-0.5,0.5-0.5l0,0h20c0.3,0,0.5,0.2,0.5,0.5l0,0V443z M389.2,425.4c0,0.3-0.2,0.5-0.5,0.5l0,0h-20
				c-0.3,0-0.5-0.2-0.5-0.5l0,0v-6.8c0-0.3,0.2-0.5,0.5-0.5l0,0h20c0.3,0,0.5,0.2,0.5,0.5l0,0V425.4z M421.6,531.2
				c0,0.3-0.3,0.5-0.5,0.5l0,0h-20c-0.3,0-0.5-0.3-0.5-0.5v-6.8c0-0.3,0.3-0.5,0.5-0.5h20c0.3,0,0.5,0.3,0.5,0.5V531.2z
				 M421.6,513.5c0,0.3-0.3,0.5-0.5,0.5h-20c-0.3,0-0.5-0.3-0.5-0.5v-6.8c0-0.3,0.3-0.5,0.5-0.5h20c0.3,0,0.5,0.3,0.5,0.5V513.5z
				 M421.6,495.9c0,0.3-0.3,0.5-0.5,0.5l0,0h-20c-0.3,0-0.5-0.3-0.5-0.5v-6.8c0-0.3,0.3-0.5,0.5-0.5h20c0.3,0,0.5,0.3,0.5,0.5l0,0
				V495.9z M421.6,478.3c0,0.3-0.3,0.5-0.5,0.5l0,0h-20c-0.3,0-0.5-0.3-0.5-0.5v-6.8c0-0.3,0.3-0.5,0.5-0.5h20
				c0.3,0,0.5,0.3,0.5,0.5l0,0V478.3z M421.6,460.6c0,0.3-0.3,0.5-0.5,0.5h-20c-0.3,0-0.5-0.3-0.5-0.5v-6.8c0-0.3,0.3-0.5,0.5-0.5
				h20c0.3,0,0.5,0.3,0.5,0.5V460.6z M421.6,443c0,0.3-0.3,0.5-0.5,0.5l0,0h-20c-0.3,0-0.5-0.3-0.5-0.5v-6.8c0-0.3,0.3-0.5,0.5-0.5
				h20c0.3,0,0.5,0.3,0.5,0.5l0,0V443z M421.6,425.4c0,0.3-0.3,0.5-0.5,0.5l0,0h-20c-0.3,0-0.5-0.3-0.5-0.5v-6.8
				c0-0.3,0.3-0.5,0.5-0.5h20c0.3,0,0.5,0.3,0.5,0.5l0,0V425.4z M468.9,531.2c0,0.3-0.3,0.5-0.5,0.5l0,0h-20c-0.3,0-0.5-0.2-0.5-0.5
				l0,0v-6.8c0-0.3,0.3-0.5,0.5-0.5l0,0h20c0.3,0,0.5,0.3,0.5,0.5V531.2z M468.9,513.5c0,0.3-0.3,0.5-0.5,0.5h-20
				c-0.3,0-0.5-0.3-0.5-0.5l0,0v-6.8c0-0.3,0.3-0.5,0.5-0.5l0,0h20c0.3,0,0.5,0.3,0.5,0.5V513.5z M468.9,495.9
				c0,0.3-0.3,0.5-0.5,0.5l0,0h-20c-0.3,0-0.5-0.2-0.5-0.5l0,0v-6.8c0-0.3,0.2-0.5,0.5-0.5l0,0h20c0.3,0,0.5,0.3,0.5,0.5l0,0V495.9z
				 M468.9,478.3c0,0.3-0.3,0.5-0.5,0.5l0,0h-20c-0.3,0-0.5-0.2-0.5-0.5l0,0v-6.8c0-0.3,0.2-0.5,0.5-0.5l0,0h20
				c0.3,0,0.5,0.3,0.5,0.5l0,0V478.3z M468.9,460.6c0,0.3-0.3,0.5-0.5,0.5h-20c-0.3,0-0.5-0.3-0.5-0.5l0,0v-6.8
				c0-0.3,0.3-0.5,0.5-0.5l0,0h20c0.3,0,0.5,0.3,0.5,0.5V460.6z M468.9,443c0,0.3-0.3,0.5-0.5,0.5l0,0h-20c-0.3,0-0.5-0.2-0.5-0.5
				l0,0v-6.8c0-0.3,0.2-0.5,0.5-0.5l0,0h20c0.3,0,0.5,0.3,0.5,0.5l0,0V443z M468.9,425.4c0,0.3-0.3,0.5-0.5,0.5l0,0h-20
				c-0.3,0-0.5-0.2-0.5-0.5l0,0v-6.8c0-0.3,0.2-0.5,0.5-0.5l0,0h20c0.3,0,0.5,0.3,0.5,0.5l0,0V425.4z"/>
			<path class="st0" d="M329.6,371.5c-2.3-0.5-4.5-0.2-6.6,0.7c-2.5,1.2-5.5,1.2-8,0c-3-1.4-6.5-1.3-9.5,0.2
				c-0.8,0.5-1.8,0.7-2.7,0.7c-3.8,0-7-3.8-7.6-8.9c0.7-0.5,1.4-1.3,1.9-2.1c2.3-3.6,5.7-5.9,9.6-5.9s7.4,2.3,9.5,5.8
				c1.4,2.2,3.8,3.5,6.4,3.5h0.1C325.7,365.5,328.3,367.9,329.6,371.5z"/>
			<path class="st0" d="M341.2,355.6l-6.2,3.9l3.7-6.8c-1.1-0.8-2.4-1.3-3.7-1.4h-0.1c-0.5,0-0.8,0-1.3-0.1l-2.1,1.4l0.9-1.6
				c-1.5-0.5-2.7-1.5-3.6-2.7l-3.7,2.4l2.4-4.3c-2-2.6-5.1-4.2-8.4-4.3c-3.9,0-7.4,2.3-9.6,5.9c-1.4,2.2-3.8,3.5-6.4,3.5H303
				c-4.3,0-7.8,4.9-7.8,10.9s3.5,10.9,7.8,10.9c0.9,0,1.9-0.3,2.7-0.6c3-1.5,6.4-1.5,9.5-0.2c2.5,1.1,5.5,1.1,8,0
				c3-1.3,6.4-1.3,9.4,0.2c0.8,0.5,1.8,0.6,2.7,0.6c4.3,0,7.8-4.9,7.8-10.9C342.9,359.8,342.3,357.6,341.2,355.6z"/>
			<path class="st3" d="M498.3,337.9h301.7c9.9,0,18,8.1,18,18v370.6c0,9.9-8.1,18-18,18H498.3c-9.9,0-18-8.1-18-18V355.9
				C480.3,345.9,488.3,337.9,498.3,337.9z"/>
			<rect x="495.3" y="378.9" class="st4" width="305.4" height="324.7"/>
			<circle class="st4" cx="649.1" cy="724.9" r="11.9"/>
			<path class="st4" d="M649.1,367.2c-3,0-5.5-2.5-5.5-5.5c0-3,2.5-5.5,5.5-5.5c3,0,5.5,2.5,5.5,5.5
				C654.5,364.7,652.1,367.2,649.1,367.2z"/>
			<path class="st4" d="M649.1,356.7c2.8,0,5.1,2.3,5.1,5c0,2.8-2.3,5.1-5,5.1c-2.8,0-5.1-2.3-5.1-5l0,0
				C644.1,358.9,646.3,356.7,649.1,356.7 M649.1,355.7c-3.3,0-6,2.6-6,5.9c0,3.3,2.6,6,5.9,6s6-2.6,6-5.9l0,0
				C655.1,358.4,652.4,355.7,649.1,355.7L649.1,355.7z"/>
			<path class="st0" d="M769.9,547.3L769.9,547.3c-0.1-2.7-0.6-5.3-1.4-7.8l-0.2-0.5c-2.1-6-6-11.2-11.3-14.7
				c-12.2-8.3-28.6-6.3-38.4,4.7c-0.5-2.8-1.3-5.5-2.4-8.2c-7.7,1-15.5,1.3-23.3,0.9c4.7,2.2,9.7,3.9,14.7,5.3l-0.2,0.6
				c-5.6-1.5-11.2-3.5-16.5-6.1l-1.6-0.8l1.8,0.1c8.3,0.5,16.5,0.3,24.7-0.7c-1.8-4.3-4.3-8.2-7.3-11.5c-13.3-1.4-26.5-4.1-38.8-9.6
				l0.3-0.6c12,5.4,24.8,8.2,37.8,9.5c-15.6-16.8-41.9-17.7-58.7-2.1c-2.8,2.6-5.4,5.7-7.4,9.1c-1.3-11.9-6.2-23.2-14.2-32.1
				c-7.1,2.8-14.5,5.1-21.9,6.6c-11.3,2.4-22.7,3.3-34.3,2.7c4.7,2.2,9.7,4,14.7,5.4l-0.2,0.6c-5.6-1.5-11.2-3.6-16.5-6.2l-1.6-0.8
				l1.8,0.1c19.5,1.3,39.2-1.8,57.4-9.1c-0.7-0.7-1.4-1.5-2.1-2.2c-22.7,0.5-47.5,0.3-70-7.9c-16.9,10.5-27.2,28.9-27.2,48.7
				c0,10.7,2.9,25.5,8.1,40.4c2.3,6.6,4.9,13.1,8,19.4c1.5,3.2,3.2,6.3,5,9.3l0,0c2.1,3.6,4.5,7.1,7,10.5c0.5,0.6,0.9,1.2,1.4,1.7
				c2.5,3.3,5.5,6.3,8.6,9l0,0c0.6,0.5,1.3,1.1,1.9,1.5c1.7,1.3,3.6,2.5,5.5,3.5c3.3,1.7,6.8,2.7,10.5,2.9c0.3,0,0.5,0,0.9,0v0.1
				h155.3v-0.1h0.1c0.9,0,1.8-0.2,2.6-0.5c5.5-2,10.5-9.8,14.7-19.6c0.9-2.2,1.8-4.5,2.6-6.8c0.7-2.1,1.5-4.2,2.1-6.4
				c1.9-6.3,3.5-12.6,4.9-19.1c1.3-5.8,2.1-11.8,2.3-17.8C769.9,548.2,769.9,547.7,769.9,547.3z"/>
			<path class="st0" d="M624.6,479.3c-18.5-17.6-46.4-20.8-68.4-7.7C578.1,479.4,602.3,479.7,624.6,479.3z"/>
			<path class="st0" d="M751.9,607l-24-41.5c-0.2-0.4-0.6-0.5-1-0.3c-0.1,0.1-0.2,0.2-0.3,0.3l-24,41.5c-0.2,0.4-0.1,0.8,0.3,1
				c0.1,0.1,0.3,0.1,0.4,0.1h7.2c0.5,0,0.7,0.4,0.7,0.7v8.9c0,0.5,0.4,0.7,0.7,0.7h9.4c0.5,0,0.7-0.4,0.7-0.7v-4.3
				c0-0.5,0.4-0.7,0.7-0.7l0,0h8.9c0.5,0,0.7,0.4,0.7,0.7l0,0v4.3c0,0.5,0.4,0.7,0.7,0.7h9.5c0.4,0,0.6-0.2,0.7-0.5
				c0-0.1,0-0.2,0-0.3v-8.9c0-0.5,0.4-0.7,0.7-0.7l0,0h7.2c0.5,0,0.8-0.3,0.8-0.7C751.9,607.2,751.9,607.1,751.9,607z M718.4,611.5
				c-0.2,0.2-0.4,0.2-0.5,0.2h-3.4c-0.5,0-0.7-0.4-0.7-0.7c0-0.2,0.1-0.4,0.2-0.5c0.2-0.2,0.4-0.2,0.5-0.2h3.4
				c0.5,0,0.7,0.4,0.7,0.7C718.7,611.1,718.6,611.4,718.4,611.5L718.4,611.5z M740.5,611.5c-0.2,0.2-0.4,0.2-0.5,0.2h-3.4
				c-0.5-0.1-0.7-0.5-0.7-0.8c0-0.4,0.4-0.6,0.7-0.7h3.4c0.5,0,0.7,0.4,0.7,0.7C740.7,611.1,740.6,611.4,740.5,611.5L740.5,611.5z"
				/>
			<path class="st0" d="M603.7,607.3l-24-41.5c-0.2-0.4-0.6-0.5-1-0.3c-0.1,0.1-0.2,0.2-0.3,0.3l-20.7,35.9c2.5,3.3,5.5,6.3,8.6,9
				h3.4c0.5,0,0.7,0.4,0.7,0.7c0,0.2-0.1,0.4-0.2,0.5c-0.2,0.2-0.4,0.3-0.5,0.2h-1.5c1.7,1.3,3.6,2.5,5.5,3.5v-1.8
				c0-0.5,0.4-0.7,0.7-0.7l0,0h8.9c0.5,0,0.7,0.4,0.7,0.7v4.3c0,0.1,0,0.2,0.1,0.3c0.1,0.3,0.4,0.5,0.7,0.5h9.4
				c0.3,0,0.5-0.1,0.6-0.3c0.1-0.1,0.2-0.3,0.2-0.5v-8.9c0-0.5,0.4-0.7,0.7-0.7l0,0h7.2c0.5,0,0.7-0.4,0.7-0.8
				C603.8,607.5,603.7,607.4,603.7,607.3z M587.8,610.8c0.2-0.2,0.4-0.2,0.5-0.2h3.4c0.5,0,0.7,0.4,0.7,0.7c0,0.2-0.1,0.5-0.3,0.5
				c-0.2,0.2-0.4,0.3-0.5,0.2h-3.4c-0.5,0-0.7-0.4-0.7-0.7C587.6,611.1,587.7,611,587.8,610.8z M572.8,595.4c-0.5,0-0.7-0.4-0.7-0.7
				l0,0v-5.8c0-0.5,0.4-0.7,0.7-0.7l0,0h12.5c0.5,0,0.7,0.4,0.7,0.7v5.8c0,0.5-0.4,0.7-0.7,0.7H572.8z"/>
			<path class="st0" d="M698.4,532.7h-29.6v-6.4c0-0.8-0.7-1.5-1.5-1.5l0,0h-8.7v-6.9c0-0.5-0.5-1-1-1h-11.2c-0.5,0-1,0.5-1,0.9l0,0
				v6.8h-10.3c-0.8,0-1.5,0.7-1.5,1.5l0,0v6.4h-28.3c-0.2,0-0.3,0.2-0.3,0.3V618c0,0.2,0.2,0.3,0.3,0.3h18.8c0.2,0,0.3-0.2,0.3-0.3
				l0,0v-11.5c0-0.2,0.2-0.3,0.3-0.3h7.9c0.2,0,0.3,0.2,0.3,0.3V618c0,0.2,0.2,0.3,0.3,0.3l0,0h37.2c0.2,0,0.3-0.2,0.3-0.3l0,0
				v-11.5c0-0.2,0.2-0.3,0.3-0.3l0,0h7.9c0.2,0,0.3,0.2,0.3,0.3l0,0V618c0,0.2,0.2,0.3,0.3,0.3h18.8c0.2,0,0.3-0.2,0.3-0.3l0,0
				L698.4,532.7C698.8,532.9,698.6,532.7,698.4,532.7L698.4,532.7z M621.1,602.4c0,0.2-0.2,0.3-0.3,0.3l0,0h-11.6
				c-0.2,0-0.3-0.2-0.3-0.3l0,0v-4c0-0.2,0.2-0.3,0.3-0.3l0,0h11.6c0.2,0,0.3,0.2,0.3,0.3l0,0V602.4z M621.1,592.2
				c0,0.2-0.2,0.3-0.3,0.3l0,0h-11.6c-0.2,0-0.3-0.2-0.3-0.3l0,0v-4c0-0.2,0.2-0.3,0.3-0.3l0,0h11.6c0.2,0,0.3,0.2,0.3,0.3l0,0
				V592.2z M621.1,582c0,0.2-0.2,0.3-0.3,0.3l0,0h-11.6c-0.2,0-0.3-0.2-0.3-0.3l0,0v-4c0-0.2,0.2-0.3,0.3-0.3l0,0h11.6
				c0.2,0,0.3,0.2,0.3,0.3l0,0V582z M621.1,571.7c0,0.2-0.2,0.3-0.3,0.3h-11.6c-0.2,0-0.3-0.2-0.3-0.3v-4c0-0.2,0.2-0.3,0.3-0.3l0,0
				h11.6c0.2,0,0.3,0.2,0.3,0.3l0,0V571.7z M621.1,561.4c0,0.2-0.2,0.3-0.3,0.3l0,0h-11.6c-0.2,0-0.3-0.2-0.3-0.3l0,0v-4
				c0-0.2,0.2-0.3,0.3-0.3l0,0h11.6c0.2,0,0.3,0.2,0.3,0.3l0,0V561.4z M621.1,551.2c0,0.2-0.2,0.3-0.3,0.3l0,0h-11.6
				c-0.2,0-0.3-0.2-0.3-0.3l0,0v-4c0-0.2,0.2-0.3,0.3-0.3l0,0h11.6c0.2,0,0.3,0.2,0.3,0.3l0,0V551.2z M621.1,541
				c0,0.2-0.2,0.3-0.3,0.3l0,0h-11.6c-0.2,0-0.3-0.2-0.3-0.3l0,0v-4c0-0.2,0.2-0.3,0.3-0.3l0,0h11.6c0.2,0,0.3,0.2,0.3,0.3l0,0V541z
				 M648.6,602.4c0,0.2-0.2,0.3-0.3,0.3l0,0h-11.6c-0.2,0-0.3-0.2-0.3-0.3l0,0v-4c0-0.2,0.2-0.3,0.3-0.3l0,0h11.6
				c0.2,0,0.3,0.2,0.3,0.3l0,0V602.4z M648.6,592.2c0,0.2-0.2,0.3-0.3,0.3l0,0h-11.6c-0.2,0-0.3-0.2-0.3-0.3l0,0v-4
				c0-0.2,0.2-0.3,0.3-0.3l0,0h11.6c0.2,0,0.3,0.2,0.3,0.3l0,0V592.2z M648.6,582c0,0.2-0.2,0.3-0.3,0.3l0,0h-11.6
				c-0.2,0-0.3-0.2-0.3-0.3l0,0v-4c0-0.2,0.2-0.3,0.3-0.3l0,0h11.6c0.2,0,0.3,0.2,0.3,0.3l0,0V582z M648.6,571.7
				c0,0.2-0.2,0.3-0.3,0.3h-11.6c-0.2,0-0.3-0.2-0.3-0.3v-4c0-0.2,0.2-0.3,0.3-0.3l0,0h11.6c0.2,0,0.3,0.2,0.3,0.3l0,0V571.7z
				 M648.6,561.4c0,0.2-0.2,0.3-0.3,0.3l0,0h-11.6c-0.2,0-0.3-0.2-0.3-0.3l0,0v-4c0-0.2,0.2-0.3,0.3-0.3l0,0h11.6
				c0.2,0,0.3,0.2,0.3,0.3l0,0V561.4z M648.6,551.2c0,0.2-0.2,0.3-0.3,0.3l0,0h-11.6c-0.2,0-0.3-0.2-0.3-0.3l0,0v-4
				c0-0.2,0.2-0.3,0.3-0.3l0,0h11.6c0.2,0,0.3,0.2,0.3,0.3l0,0V551.2z M648.6,541c0,0.2-0.2,0.3-0.3,0.3l0,0h-11.6
				c-0.2,0-0.3-0.2-0.3-0.3l0,0v-4c0-0.2,0.2-0.3,0.3-0.3l0,0h11.6c0.2,0,0.3,0.2,0.3,0.3l0,0V541z M667.4,602.4
				c0,0.2-0.2,0.3-0.3,0.3l0,0h-11.6c-0.2,0-0.3-0.2-0.3-0.3l0,0v-4c0-0.2,0.2-0.3,0.3-0.3l0,0h11.5c0.2,0,0.3,0.2,0.3,0.3l0,0
				L667.4,602.4z M667.4,592.2c0,0.2-0.2,0.3-0.3,0.3l0,0h-11.6c-0.2,0-0.3-0.2-0.3-0.3l0,0v-4c0-0.2,0.2-0.3,0.3-0.3l0,0h11.5
				c0.2,0,0.3,0.2,0.3,0.3l0,0L667.4,592.2z M667.4,582c0,0.2-0.2,0.3-0.3,0.3l0,0h-11.6c-0.2,0-0.3-0.2-0.3-0.3l0,0v-4
				c0-0.2,0.2-0.3,0.3-0.3l0,0h11.5c0.2,0,0.3,0.2,0.3,0.3l0,0L667.4,582z M667.4,571.7c0,0.2-0.2,0.3-0.3,0.3h-11.6
				c-0.2,0-0.3-0.2-0.3-0.3v-4c0-0.2,0.2-0.3,0.3-0.3l0,0h11.5c0.2,0,0.3,0.2,0.3,0.3l0,0L667.4,571.7z M667.4,561.4
				c0,0.2-0.2,0.3-0.3,0.3l0,0h-11.6c-0.2,0-0.3-0.2-0.3-0.3l0,0v-4c0-0.2,0.2-0.3,0.3-0.3l0,0h11.5c0.2,0,0.3,0.2,0.3,0.3l0,0
				L667.4,561.4z M667.4,551.2c0,0.2-0.2,0.3-0.3,0.3l0,0h-11.6c-0.2,0-0.3-0.2-0.3-0.3l0,0v-4c0-0.2,0.2-0.3,0.3-0.3l0,0h11.5
				c0.2,0,0.3,0.2,0.3,0.3l0,0L667.4,551.2z M667.4,541c0,0.2-0.2,0.3-0.3,0.3l0,0h-11.6c-0.2,0-0.3-0.2-0.3-0.3l0,0v-4
				c0-0.2,0.2-0.3,0.3-0.3l0,0h11.5c0.2,0,0.3,0.2,0.3,0.3l0,0L667.4,541z M695,602.4c0,0.2-0.2,0.3-0.3,0.3h-11.6
				c-0.2,0-0.3-0.2-0.3-0.3l0,0v-4c0-0.2,0.2-0.3,0.3-0.3l0,0h11.6c0.2,0,0.3,0.2,0.3,0.3l0,0V602.4z M695,592.2
				c0,0.2-0.2,0.3-0.3,0.3l0,0h-11.6c-0.2,0-0.3-0.2-0.3-0.3l0,0v-4c0-0.2,0.2-0.3,0.3-0.3l0,0h11.6c0.2,0,0.3,0.2,0.3,0.3l0,0
				V592.2z M695,582c0,0.2-0.2,0.3-0.3,0.3l0,0h-11.6c-0.2,0-0.3-0.2-0.3-0.3l0,0v-4c0-0.2,0.2-0.3,0.3-0.3l0,0h11.6
				c0.2,0,0.3,0.2,0.3,0.3V582z M695,571.7c0,0.2-0.2,0.3-0.3,0.3h-11.6c-0.2,0-0.3-0.2-0.3-0.3v-4c0-0.2,0.2-0.3,0.3-0.3l0,0h11.6
				c0.2,0,0.3,0.2,0.3,0.3l0,0V571.7z M695,561.4c0,0.2-0.2,0.3-0.3,0.3l0,0h-11.6c-0.2,0-0.3-0.2-0.3-0.3l0,0v-4
				c0-0.2,0.2-0.3,0.3-0.3l0,0h11.6c0.2,0,0.3,0.2,0.3,0.3V561.4z M695,551.2c0,0.2-0.2,0.3-0.3,0.3h-11.6c-0.2,0-0.3-0.2-0.3-0.3
				l0,0v-4c0-0.2,0.2-0.3,0.3-0.3l0,0h11.6c0.2,0,0.3,0.2,0.3,0.3l0,0V551.2z M695,541c0,0.2-0.2,0.3-0.3,0.3l0,0h-11.6
				c-0.2,0-0.3-0.2-0.3-0.3l0,0v-4c0-0.2,0.2-0.3,0.3-0.3l0,0h11.6c0.2,0,0.3,0.2,0.3,0.3l0,0V541z"/>
			<path class="st0" d="M614,509.6c-1.3-0.3-2.6-0.1-3.9,0.5c-0.7,0.4-1.5,0.5-2.3,0.5c-0.8,0-1.6-0.2-2.4-0.5
				c-1.7-0.7-3.7-0.7-5.5,0.1c-0.5,0.3-1,0.4-1.5,0.4c-2.2,0-4.1-2.3-4.5-5.2c0.5-0.4,0.8-0.7,1.1-1.2c1.5-3.1,5.3-4.3,8.4-2.7
				c1.2,0.6,2.2,1.5,2.7,2.7c0.8,1.3,2.2,2,3.6,2h0.1C611.7,506.2,613.2,507.5,614,509.6z"/>
			<path class="st0" d="M620.7,500.4l-3.6,2.3l2.2-4c-0.6-0.5-1.4-0.7-2.2-0.7l0,0c-0.3,0-0.5,0-0.7-0.1l-1.2,0.7l0.5-0.9
				c-0.8-0.3-1.6-0.8-2.1-1.6l-2.2,1.4l1.4-2.5c-1.2-1.5-3-2.5-4.9-2.5c-2.4,0.1-4.5,1.4-5.5,3.5c-0.8,1.3-2.2,2-3.7,2h-0.1
				c-2.5,0-4.5,2.8-4.5,6.4s2,6.4,4.5,6.4c0.5,0,1.1-0.2,1.5-0.4c1.7-0.8,3.7-0.9,5.5-0.1c0.7,0.4,1.5,0.5,2.4,0.5
				c0.8,0,1.5-0.2,2.3-0.5c1.7-0.7,3.7-0.7,5.5,0.1c0.5,0.3,1,0.4,1.5,0.4c2.5,0,4.5-2.8,4.5-6.4
				C621.7,502.9,621.3,501.6,620.7,500.4z"/>
			<path class="st3" d="M921.5,489h0.7c1.2,0,2.1,0.9,2.1,2.1v36c0,1.2-0.9,2.1-2.1,2.1h-0.7c-1.2,0-2.1-0.9-2.1-2.1v-36
				C919.4,489.9,920.4,489,921.5,489z"/>
			<path class="st3" d="M758.9,457.5L758.9,457.5c0.7,0,1.4,0.6,1.4,1.4v10.5c0,0.7-0.6,1.4-1.4,1.4l0,0c-0.7,0-1.4-0.6-1.4-1.4
				v-10.5C757.5,458.1,758.1,457.5,758.9,457.5z"/>
			<path class="st3" d="M758.9,481.7L758.9,481.7c0.8,0,1.5,0.7,1.5,1.5v19.9c0,0.8-0.7,1.5-1.5,1.5l0,0c-0.8,0-1.5-0.7-1.5-1.5
				v-19.9C757.4,482.4,758.1,481.7,758.9,481.7z"/>
			<path class="st3" d="M758.9,512.8L758.9,512.8c0.8,0,1.5,0.6,1.5,1.5v20.3c0,0.8-0.6,1.5-1.5,1.5l0,0c-0.8,0-1.5-0.6-1.5-1.5
				v-20.3C757.5,513.4,758.1,512.8,758.9,512.8z"/>
			<path class="st3" d="M775.9,413.8h129.2c9.3,0,16.8,7.5,16.8,16.8v297.5c0,9.3-7.5,16.8-16.8,16.8H775.9
				c-9.3,0-16.8-7.5-16.8-16.8V430.6C759,421.4,766.7,413.8,775.9,413.8z"/>
			<path class="st6" d="M827.1,423.7h18.2c1.3,0,2.3,1,2.3,2.3l0,0c0,1.3-1,2.3-2.3,2.3h-18.2c-1.3,0-2.3-1-2.3-2.3l0,0
				C824.8,424.7,825.8,423.7,827.1,423.7z"/>
			<circle class="st6" cx="853.7" cy="426" r="2.6"/>
			<path class="st4" d="M899,422.5h-18.6v2.3c0,5.9-4.7,10.6-10.6,10.6h-59.5c-5.9,0-10.6-4.8-10.6-10.6v-2.3h-17.5
				c-7.2,0-12.9,5.8-12.9,12.9v288c0,7.2,5.8,12.9,12.9,12.9h117c7.2,0,12.9-5.8,12.9-12.9l0,0v-288
				C912,428.3,906.2,422.5,899,422.5z"/>
			<path class="st0" d="M895.4,582.2L895.4,582.2c-0.1-1.2-0.3-2.4-0.6-3.5c0-0.1,0-0.1-0.1-0.2c-2.4-6.9-9.9-10.6-16.8-8.3
				c-2.2,0.7-4.1,2-5.6,3.7c-0.2-1.3-0.5-2.5-1.1-3.7c-3.5,0.5-7,0.5-10.5,0.4c2.2,1,4.4,1.8,6.6,2.5l-0.1,0.3
				c-2.5-0.7-5.1-1.6-7.5-2.8l-0.7-0.4l0.8,0.1c3.7,0.3,7.5,0.2,11.2-0.4c-0.8-1.9-1.9-3.6-3.3-5.3c-6-0.5-11.9-2-17.5-4.4l0.1-0.3
				c5.5,2.4,11.2,3.8,17.1,4.3c-7.1-7.5-18.9-8-26.5-0.9c-1.3,1.2-2.4,2.5-3.3,4.1c-0.5-5.4-2.8-10.5-6.4-14.5
				c-8,3.2-16.7,4.6-25.4,4.2c2.2,1,4.4,1.8,6.6,2.5l-0.1,0.3c-2.5-0.7-5.1-1.6-7.5-2.8l-0.7-0.4l0.8,0.1c8.8,0.5,17.6-0.8,25.9-4.1
				c-0.3-0.4-0.6-0.6-0.9-1c-10.3,0.2-21.5,0.1-31.5-3.5c-7.6,4.7-12.3,13-12.3,22c0,4.8,1.4,11.5,3.6,18.2c1,3,2.3,5.9,3.6,8.7
				c0.7,1.5,1.5,2.8,2.3,4.2l0,0c0.9,1.6,2,3.2,3.2,4.7l0.6,0.8c1.2,1.5,2.5,2.8,3.9,4.1l0,0c0.3,0.3,0.5,0.5,0.9,0.7
				c0.8,0.6,1.6,1.1,2.5,1.5c1.5,0.7,3.1,1.2,4.7,1.3h0.4l0,0h70.1l0,0h0.1c0.4,0,0.8-0.1,1.2-0.2c2.5-0.9,4.7-4.4,6.6-8.9
				c0.5-1,0.8-2,1.2-3.1c0.4-1.1,0.6-1.9,1-2.9c0.9-2.9,1.6-5.9,2.2-8.6c0.5-2.6,0.9-5.4,1-8C895.4,582.5,895.4,582.3,895.4,582.2z"
				/>
			<path class="st0" d="M829.8,551.5c-8.4-8-21-9.4-30.9-3.5C808.8,551.5,819.8,551.7,829.8,551.5z"/>
			<path class="st0" d="M887.2,609.1l-10.8-18.7c-0.1-0.2-0.3-0.2-0.5-0.1c-0.1,0-0.1,0.1-0.1,0.1L865,609.1c-0.1,0.2,0,0.4,0.1,0.5
				c0.1,0,0.1,0.1,0.2,0.1h3.2c0.2,0,0.4,0.2,0.4,0.4l0,0v4c0,0.2,0.2,0.4,0.4,0.4l0,0h4.2c0.2,0,0.4-0.2,0.4-0.4l0,0v-1.9
				c0-0.2,0.2-0.4,0.4-0.4l0,0h4c0.2,0,0.4,0.2,0.4,0.4l0,0v1.9c0,0.2,0.2,0.4,0.4,0.4l0,0h4.2c0.2,0,0.3-0.1,0.4-0.3V614v-4
				c0-0.2,0.2-0.4,0.4-0.4l0,0h3.3c0.2,0,0.4-0.1,0.4-0.3C887.3,609.2,887.3,609.1,887.2,609.1z M872.1,611.1
				c-0.1,0.1-0.2,0.1-0.3,0.1h-1.5c-0.2,0-0.4-0.2-0.4-0.4l0,0c0-0.1,0-0.2,0.1-0.3c0.1-0.1,0.2-0.1,0.3-0.1h1.5
				c0.2,0,0.4,0.2,0.4,0.4l0,0C872.3,611,872.2,611.1,872.1,611.1L872.1,611.1z M882.1,611.1c-0.1,0.1-0.2,0.1-0.3,0.1h-1.5
				c-0.2,0-0.4-0.2-0.4-0.4l0,0c0-0.1,0-0.2,0.1-0.3c0.1-0.1,0.2-0.1,0.3-0.1h1.5c0.2,0,0.4,0.2,0.4,0.4l0,0
				C882.2,611,882.1,611.1,882.1,611.1L882.1,611.1z"/>
			<path class="st0" d="M820.4,609.2l-10.8-18.7c-0.1-0.2-0.3-0.2-0.5-0.1c-0.1,0-0.1,0.1-0.1,0.1l-9.4,16.2
				c1.2,1.5,2.5,2.8,3.9,4.1h1.5c0.2,0,0.4,0.1,0.4,0.3c0,0.2-0.1,0.4-0.3,0.4h-0.1h-0.6c0.8,0.6,1.6,1.1,2.5,1.5v-0.8
				c0-0.2,0.2-0.4,0.4-0.4l0,0h4c0.2,0,0.4,0.2,0.4,0.4v1.9c0,0.2,0.2,0.4,0.4,0.4h4.2c0.1,0,0.2-0.1,0.3-0.2c0-0.1,0.1-0.1,0.1-0.2
				v-4c0-0.2,0.2-0.4,0.4-0.4l0,0h3.2c0.2,0,0.4-0.2,0.4-0.4C820.4,609.3,820.4,609.2,820.4,609.2z M813.2,610.8
				c0.1-0.1,0.2-0.1,0.3-0.1h1.5c0.2,0,0.4,0.1,0.4,0.3s-0.1,0.4-0.3,0.4H815h-1.5c-0.2,0-0.4-0.2-0.4-0.4l0,0
				C813.1,611,813.1,610.9,813.2,610.8z M806.4,603.9c-0.2,0-0.4-0.2-0.4-0.4l0,0v-2.6c0-0.2,0.2-0.4,0.4-0.4l0,0h5.6
				c0.2,0,0.4,0.2,0.4,0.4l0,0v2.6c0,0.2-0.2,0.4-0.4,0.4l0,0H806.4z"/>
			<path class="st0" d="M863.1,575.6h-13.4v-2.9c0-0.4-0.3-0.7-0.7-0.7l0,0h-3.9v-3.1c0-0.3-0.2-0.5-0.5-0.5h-5.1
				c-0.3,0-0.5,0.2-0.5,0.5v3.1h-4.6c-0.4,0-0.7,0.3-0.7,0.7l0,0v2.9H821c-0.1,0-0.2,0.1-0.2,0.1l0,0v38.4c0,0.1,0.1,0.2,0.2,0.2
				h8.5c0.1,0,0.2-0.1,0.2-0.2V609c0-0.1,0.1-0.2,0.1-0.2l0,0h3.5c0.1,0,0.2,0.1,0.2,0.2v5.2c0,0.1,0.1,0.2,0.2,0.2h16.7
				c0.1,0,0.2-0.1,0.2-0.2V609c0-0.1,0.1-0.2,0.1-0.2l0,0h3.5c0.1,0,0.2,0.1,0.2,0.2v5.2c0,0.1,0.1,0.2,0.2,0.2h8.5
				c0.1,0,0.2-0.1,0.2-0.2L863.1,575.6C863.3,575.6,863.2,575.6,863.1,575.6C863.2,575.6,863.1,575.6,863.1,575.6z M828.2,607.1
				c0,0.1-0.1,0.2-0.2,0.2h-5.3c-0.1,0-0.2-0.1-0.2-0.2v-1.8c0-0.1,0.1-0.2,0.2-0.2h5.3c0.1,0,0.2,0.1,0.2,0.2V607.1z M828.2,602.4
				c0,0.1-0.1,0.2-0.2,0.2h-5.3c-0.1,0-0.2-0.1-0.2-0.2v-1.8c0-0.1,0.1-0.2,0.2-0.2h5.3c0.1,0,0.2,0.1,0.2,0.2V602.4z M828.2,597.8
				c0,0.1-0.1,0.2-0.2,0.2h-5.3c-0.1,0-0.2-0.1-0.2-0.2V596c0-0.1,0.1-0.2,0.2-0.2h5.3c0.1,0,0.2,0.1,0.2,0.2V597.8z M828.2,593.2
				c0,0.1-0.1,0.2-0.2,0.2h-5.3c-0.1,0-0.2-0.1-0.2-0.2v-1.8c0-0.1,0.1-0.2,0.2-0.2h5.3c0.1,0,0.2,0.1,0.2,0.2V593.2z M828.2,588.5
				c0,0.1-0.1,0.2-0.2,0.2h-5.3c-0.1,0-0.2-0.1-0.2-0.2v-1.8c0-0.1,0.1-0.2,0.2-0.2h5.3c0.1,0,0.2,0.1,0.2,0.2V588.5z M828.2,583.9
				c0,0.1-0.1,0.2-0.2,0.2h-5.3c-0.1,0-0.2-0.1-0.2-0.2v-1.8c0-0.1,0.1-0.2,0.2-0.2h5.3c0.1,0,0.2,0.1,0.2,0.2V583.9z M828.2,579.3
				c0,0.1-0.1,0.2-0.2,0.2h-5.3c-0.1,0-0.2-0.1-0.2-0.2v-1.8c0-0.1,0.1-0.2,0.2-0.2h5.3c0.1,0,0.2,0.1,0.2,0.2V579.3z M840.7,607.1
				c0,0.1-0.1,0.2-0.2,0.2h-5.3c-0.1,0-0.2-0.1-0.2-0.2v-1.8c0-0.1,0.1-0.2,0.1-0.2l0,0h5.3c0.1,0,0.2,0.1,0.2,0.1l0,0L840.7,607.1
				L840.7,607.1z M840.7,602.4c0,0.1-0.1,0.2-0.1,0.2l0,0h-5.3c-0.1,0-0.2-0.1-0.2-0.1l0,0v-1.8c0-0.1,0.1-0.2,0.2-0.2h5.3
				c0.1,0,0.2,0.1,0.2,0.2L840.7,602.4L840.7,602.4z M840.7,597.8c0,0.1-0.1,0.2-0.2,0.2h-5.3c-0.1,0-0.2-0.1-0.2-0.2V596
				c0-0.1,0.1-0.2,0.1-0.2l0,0h5.3c0.1,0,0.2,0.1,0.2,0.1l0,0L840.7,597.8L840.7,597.8z M840.7,593.2c0,0.1-0.1,0.2-0.2,0.2h-5.3
				c-0.1,0-0.2-0.1-0.2-0.2v-1.8c0-0.1,0.1-0.2,0.2-0.2h5.3c0.1,0,0.2,0.1,0.2,0.2V593.2z M840.7,588.5c0,0.1-0.1,0.2-0.1,0.2l0,0
				h-5.3c-0.1,0-0.2-0.1-0.2-0.1l0,0v-1.8c0-0.1,0.1-0.2,0.1-0.2l0,0h5.3c0.1,0,0.2,0.1,0.2,0.1l0,0V588.5z M840.7,583.9
				c0,0.1-0.1,0.2-0.2,0.2h-5.3c-0.1,0-0.2-0.1-0.2-0.2v-1.8c0-0.1,0.1-0.2,0.1-0.2l0,0h5.3c0.1,0,0.2,0.1,0.2,0.1l0,0L840.7,583.9
				L840.7,583.9z M840.7,579.3c0,0.1-0.1,0.2-0.1,0.2l0,0h-5.3c-0.1,0-0.2-0.1-0.2-0.1l0,0v-1.8c0-0.1,0.1-0.2,0.2-0.2h5.3
				c0.1,0,0.2,0.1,0.2,0.2L840.7,579.3L840.7,579.3z M849.1,607.1c0,0.1-0.1,0.2-0.2,0.2h-5.3c-0.1,0-0.2-0.1-0.2-0.2v-1.8
				c0-0.1,0.1-0.2,0.2-0.2h5.3c0.1,0,0.2,0.1,0.2,0.2V607.1z M849.1,602.4c0,0.1-0.1,0.2-0.2,0.2h-5.3c-0.1,0-0.2-0.1-0.2-0.2v-1.8
				c0-0.1,0.1-0.2,0.2-0.2h5.3c0.1,0,0.2,0.1,0.2,0.2V602.4z M849.1,597.8c0,0.1-0.1,0.2-0.2,0.2h-5.3c-0.1,0-0.2-0.1-0.2-0.2V596
				c0-0.1,0.1-0.2,0.2-0.2h5.3c0.1,0,0.2,0.1,0.2,0.2V597.8z M849.1,593.2c0,0.1-0.1,0.2-0.2,0.2h-5.3c-0.1,0-0.2-0.1-0.2-0.2v-1.8
				c0-0.1,0.1-0.2,0.2-0.2h5.3c0.1,0,0.2,0.1,0.2,0.2V593.2z M849.1,588.5c0,0.1-0.1,0.2-0.2,0.2h-5.3c-0.1,0-0.2-0.1-0.2-0.2v-1.8
				c0-0.1,0.1-0.2,0.2-0.2h5.3c0.1,0,0.2,0.1,0.2,0.2V588.5z M849.1,583.9c0,0.1-0.1,0.2-0.2,0.2h-5.3c-0.1,0-0.2-0.1-0.2-0.2v-1.8
				c0-0.1,0.1-0.2,0.2-0.2h5.3c0.1,0,0.2,0.1,0.2,0.2V583.9z M849.1,579.3c0,0.1-0.1,0.2-0.2,0.2h-5.3c-0.1,0-0.2-0.1-0.2-0.2v-1.8
				c0-0.1,0.1-0.2,0.2-0.2h5.3c0.1,0,0.2,0.1,0.2,0.2V579.3z M861.6,607.1c0,0.1-0.1,0.2-0.2,0.2h-5.3c-0.1,0-0.2-0.1-0.2-0.2v-1.8
				c0-0.1,0.1-0.2,0.1-0.2l0,0h5.3c0.1,0,0.2,0.1,0.2,0.1l0,0L861.6,607.1L861.6,607.1z M861.6,602.4c0,0.1-0.1,0.2-0.1,0.2l0,0
				h-5.3c-0.1,0-0.2-0.1-0.2-0.1l0,0v-1.8c0-0.1,0.1-0.2,0.2-0.2h5.3c0.1,0,0.2,0.1,0.2,0.2L861.6,602.4L861.6,602.4z M861.6,597.8
				c0,0.1-0.1,0.2-0.2,0.2h-5.3c-0.1,0-0.2-0.1-0.2-0.2V596c0-0.1,0.1-0.2,0.1-0.2l0,0h5.3c0.1,0,0.2,0.1,0.2,0.1l0,0L861.6,597.8
				L861.6,597.8z M861.6,593.2c0,0.1-0.1,0.2-0.2,0.2h-5.3c-0.1,0-0.2-0.1-0.2-0.2v-1.8c0-0.1,0.1-0.2,0.2-0.2h5.3
				c0.1,0,0.2,0.1,0.2,0.2V593.2z M861.6,588.5c0,0.1-0.1,0.2-0.1,0.2l0,0h-5.3c-0.1,0-0.2-0.1-0.2-0.1l0,0v-1.8
				c0-0.1,0.1-0.2,0.1-0.2l0,0h5.3c0.1,0,0.2,0.1,0.2,0.1l0,0V588.5z M861.6,583.9c0,0.1-0.1,0.2-0.2,0.2h-5.3
				c-0.1,0-0.2-0.1-0.2-0.2v-1.8c0-0.1,0.1-0.2,0.1-0.2l0,0h5.3c0.1,0,0.2,0.1,0.2,0.1l0,0L861.6,583.9L861.6,583.9z M861.6,579.3
				c0,0.1-0.1,0.2-0.1,0.2l0,0h-5.3c-0.1,0-0.2-0.1-0.2-0.1l0,0v-1.8c0-0.1,0.1-0.2,0.2-0.2h5.3c0.1,0,0.2,0.1,0.2,0.2L861.6,579.3
				L861.6,579.3z"/>
			<path class="st0" d="M825,565.2c-0.5-0.1-1.2,0-1.7,0.2c-0.4,0.2-0.7,0.2-1.1,0.2s-0.7-0.1-1.1-0.2c-0.8-0.4-1.7-0.4-2.5,0.1
				c-0.2,0.1-0.5,0.2-0.7,0.2c-1,0-1.8-1-2-2.4c0.2-0.2,0.4-0.4,0.5-0.5c0.7-1.4,2.4-1.9,3.8-1.3c0.5,0.3,1,0.7,1.3,1.3
				c0.4,0.5,1,0.9,1.6,0.9l0,0C824,563.7,824.8,564.3,825,565.2z"/>
			<path class="st0" d="M828,561l-1.6,1l1-1.8c-0.3-0.2-0.6-0.4-1-0.4l0,0c-0.1,0-0.2,0-0.4,0l-0.5,0.4l0.3-0.5
				c-0.4-0.2-0.7-0.4-0.9-0.7l-1,0.6l0.6-1.1c-0.5-0.6-1.4-1.1-2.2-1.1c-1.1,0.1-2,0.6-2.5,1.5c-0.4,0.5-1,0.9-1.6,0.9H818
				c-1.1,0-2,1.3-2,2.8c0,1.5,0.9,2.8,2,2.8c0.3,0,0.5-0.1,0.7-0.2c0.8-0.4,1.7-0.4,2.5,0c0.6,0.3,1.5,0.3,2.1,0
				c0.8-0.4,1.6-0.4,2.5,0c0.2,0.1,0.5,0.2,0.7,0.2c1.1,0,2-1.3,2-2.8C828.5,562.2,828.4,561.5,828,561z"/>
			<path class="st3" d="M111.4,735.7c0,2.4-0.3,4.7-0.7,7.1c-0.1,0.5-0.2,0.9-0.3,1.3c-2.5,10.4-9.9,17.9-18.5,18.4
				c-0.3,0-0.5,0-0.9,0c-9.2,0-17-7.9-19.5-18.8c-0.1-0.3-0.1-0.5-0.2-0.9c-0.5-2.4-0.7-4.7-0.7-7.1c0-14.8,9.2-26.8,20.5-26.8
				S111.4,720.9,111.4,735.7z"/>
			<path class="st2" d="M111.4,735.7c0,2.4-0.3,4.7-0.7,7.1c-0.1,0.5-0.2,0.9-0.3,1.3c-0.3,0-0.6,0-0.9,0c-2.3-0.1-4.5-0.5-6.7-0.9
				c-1.9,0.6-3.9,1.1-6,1.4c-1.5,0.3-3.1,0.4-4.6,0.5h-1.5c-1.9,0-3.7-0.1-5.6-0.4c-3-0.4-5.9-1.1-8.8-2.2c-1.5,0.5-3.2,0.9-4.7,1.3
				c-0.1-0.3-0.1-0.5-0.2-0.9c-0.5-2.4-0.7-4.7-0.7-7.1c0-14.8,9.2-26.8,20.5-26.8S111.4,720.9,111.4,735.7z"/>
			<path class="st5" d="M155,685.8c0-6.5-1.5-12.9-4.5-18.7l-24.1,7.5l21.1-12.5c-7.2-10.4-18.6-16.9-31.3-17.8
				c-1-1.5-2.1-2.9-3.3-4.3l-34.5,10.7l28.4-16.6c-18.2-14-44.3-10.5-58.3,7.6c-3.3,4.4-5.7,9.3-7.2,14.5L71,690.3l-32-23.2
				c-18.7,13.3-23.2,39.3-9.8,58c10.6,14.9,29.7,21.2,47.1,15.4c8.5,3.2,17.9,3.4,26.6,0.7c22.4,5,44.6-9.2,49.5-31.6
				c0.6-2.9,1-6,1-9c0-0.9,0-1.8-0.1-2.7C154.4,693.9,155.1,689.9,155,685.8z"/>
			<path class="st2" d="M154.3,693.5c-12.7-2.4-25.7-2.5-38.4-0.5c-14.5,2.4-29.2,7.6-43.4,3.8c-8.3-2.3-15.5-7.5-23.5-10.4
				c-7.8-2.7-16.3-3.3-24.4-1.5c-8.8,21.2,1.2,45.5,22.4,54.4c9.3,3.9,19.6,4.3,29.2,1.1c8.5,3.2,17.9,3.4,26.6,0.7
				c22.4,5,44.6-9.2,49.5-31.6c0.6-2.9,1-6,1-9c0-0.9,0-1.8-0.1-2.7C153.7,696.5,154.1,694.9,154.3,693.5z"/>
		</g>
	</g>
</g>
<g id="_x23_accessory_x28_have_x5B_plant_x2C_cup_x5D__x29_">
	<g>
		<g>
			<ellipse class="st5" cx="530.2" cy="834.3" rx="264.6" ry="40.6"/>
			<rect x="301" y="691.9" class="st7" width="3.2" height="71.2"/>
			<path class="st3" d="M323.9,763l-0.2,3.2l-0.3,4.5l-0.1,1.9l-0.3,4.5l-0.1,1.9l-0.3,4.5l-3.2,51.5c-0.3,4.6-4.1,8.2-8.7,8.2
				h-16.6c-4.6,0-8.4-3.6-8.7-8.2l-3.2-51.5L282,779l-0.1-1.9l-0.3-4.5l-0.1-1.9l-0.3-4.5L281,763c-0.2-2.5,1.7-4.6,4.2-4.8
				c0.1,0,0.2,0,0.3,0h33.9c2.5,0,4.5,2,4.5,4.5C324,762.7,324,762.8,323.9,763z"/>
			<polygon class="st8" points="323.8,766.1 323.5,770.7 281.5,770.7 281.3,766.1 			"/>
			<polygon class="st8" points="323.4,772.5 323.1,777.1 281.9,777.1 281.7,772.5 			"/>
			<polygon class="st8" points="323,779 322.7,783.5 282.4,783.5 282,779 			"/>
			<path class="st5" d="M276.4,718.7c18.4,13.3,26.1,34.2,26.1,34.2s-22.2-0.8-40.6-14.1s-26.1-34.2-26.1-34.2
				S258.1,705.4,276.4,718.7z"/>
			<path class="st9" d="M235.9,704.6c0,0,23,12.8,30.4,23.4s36.3,24.9,36.3,24.9"/>
			<path class="st5" d="M288.3,691.8c10,7.2,14.2,18.6,14.2,18.6s-12.1-0.4-22.1-7.7c-10-7.3-14.2-18.6-14.2-18.6
				S278.3,684.6,288.3,691.8z"/>
			<path class="st9" d="M266.2,684.2c0,0,12.5,7,16.6,12.7c4.1,5.7,19.8,13.5,19.8,13.5"/>
			<path class="st5" d="M317.1,709.8c-11.5,12.6-14,29.2-14,29.2s16.3-4,27.7-16.6c11.5-12.6,14-29.2,14-29.2
				S328.6,697.2,317.1,709.8z"/>
			<path class="st9" d="M344.8,693.2c0,0-15,13-18.8,21.9c-3.8,9-22.9,23.9-22.9,23.9"/>
			<path class="st2" d="M717.5,759.2c0,0,3.2,4.2-1.5,10.6c-4.7,6.4-8.6,11.7-7,15.7c0,0,7.1-11.8,12.9-12
				C727.6,773.4,723.9,766.3,717.5,759.2z"/>
			<path class="st2" d="M717.5,759.2c0.3,0.4,0.5,0.8,0.7,1.3c5.6,6.6,8.6,12.8,3.2,13c-5.1,0.2-11.1,9.2-12.5,11.4
				c0.1,0.2,0.1,0.3,0.2,0.5c0,0,7.1-11.8,12.9-12C727.7,773.3,723.9,766.3,717.5,759.2z"/>
			<path class="st3" d="M723.5,764.6c0,1.5-0.2,2.7-0.4,2.7c-0.2,0-0.4-1.2-0.4-2.7s0.2-0.8,0.4-0.8
				C723.2,763.8,723.5,763.1,723.5,764.6z"/>
			<path class="st3" d="M725.5,766.3c-1.3,0.7-2.4,1.1-2.5,0.9c-0.1-0.2,0.9-0.9,2.2-1.6c1.3-0.7,0.8-0.2,0.9,0
				C726.2,765.8,726.9,765.6,725.5,766.3z"/>
			<path class="st3" d="M700.5,759.2c0,0-3.2,4.2,1.5,10.6c4.7,6.4,8.6,11.7,7,15.7c0,0-7.1-11.8-12.9-12
				C690.4,773.4,694.2,766.3,700.5,759.2z"/>
			<path class="st10" d="M717.5,759.2c0,0,3.2,4.2-1.5,10.6c-4.7,6.4-8.6,11.7-7,15.7c0,0,7.1-11.8,12.9-12
				C727.6,773.4,723.9,766.3,717.5,759.2z"/>
			<path class="st2" d="M700.5,759.2c0,0-3.2,4.2,1.5,10.6c4.7,6.4,8.6,11.7,7,15.7c0,0-7.1-11.8-12.9-12
				C690.4,773.4,694.2,766.3,700.5,759.2z"/>
			<path class="st2" d="M700.5,759.2c-0.3,0.4-0.5,0.8-0.7,1.3c-5.6,6.6-8.6,12.8-3.2,13c5.1,0.2,11.1,9.2,12.5,11.4
				c-0.1,0.2-0.1,0.3-0.2,0.5c0,0-7.1-11.8-12.9-12S694.2,766.3,700.5,759.2z"/>
			<path class="st10" d="M694.5,764.6c0,1.5,0.2,2.7,0.4,2.7c0.2,0,0.4-1.2,0.4-2.7s-0.2-0.8-0.4-0.8
				C694.8,763.8,694.5,763.1,694.5,764.6z"/>
			<path class="st10" d="M692.5,766.3c1.3,0.7,2.4,1.1,2.5,0.9c0.1-0.2-0.9-0.9-2.2-1.6c-1.3-0.7-0.8-0.2-0.9,0
				C691.8,765.8,691.2,765.6,692.5,766.3z"/>
			<path class="st3" d="M726.3,779.8l-0.2,1.3l-0.2,1.8l-0.1,0.8l-0.2,1.8l-0.1,0.8l-0.2,1.8l-2.6,21.1c-0.2,1.9-3.3,3.3-7,3.3
				h-13.4c-3.7,0-6.8-1.4-7-3.3l-2.6-21.1l-0.2-1.8l-0.1-0.8l-0.2-1.8l-0.1-0.8l-0.2-1.8l-0.1-1.3c-0.1-1.1,1.6-1.9,3.6-1.9h27.3
				C724.8,777.8,726.5,778.7,726.3,779.8z"/>
			<polygon class="st8" points="726.1,781.1 725.9,782.9 692.1,782.9 691.9,781.1 			"/>
			<polygon class="st8" points="725.9,783.7 725.6,785.6 692.4,785.6 692.2,783.7 			"/>
			<polygon class="st8" points="725.5,786.3 725.3,788.2 692.7,788.2 692.5,786.3 			"/>
			<g>
				<path class="st11" d="M416.6,842.7l1.2-14.8l11.7-13.6c0,0-12.9,3.5-28.5-0.8l12.4,14.5l0.5,14.7c-3.8,0.4-6.6,2.4-6.6,4.8
					c0,2.7,3.6,5,8.1,5c4.5,0,8.1-2.2,8.1-5C423.3,845.1,420.4,843.1,416.6,842.7z"/>
				<path class="st12" d="M402.5,813.9l9.9,11c0.8,0.9,2.1,1.5,3.3,1.5l0,0c1.3,0,2.5-0.6,3.3-1.5l9.4-10.6
					C428.5,814.3,416.8,817.7,402.5,813.9z"/>
				<ellipse class="st11" cx="415.7" cy="811" rx="16.3" ry="6.2"/>
				<ellipse class="st5" cx="415.5" cy="811.5" rx="14.5" ry="5"/>
				<polyline class="st12" points="419.6,817.1 417.2,823.6 419.4,817.1 				"/>
				<path class="st13" d="M419.7,816.2l6.5-18.4c0.1-0.2,0.3-0.3,0.4-0.2l0,0l0,0c0.2,0.1,0.3,0.3,0.2,0.4l-6.9,18.1"/>
				<path class="st3" d="M422.5,808.4l3.7-10.6c0.1-0.2,0.3-0.3,0.4-0.2l0,0l0,0c0.2,0.1,0.3,0.3,0.2,0.4l-4,10.5"/>
				<circle class="st5" cx="423.6" cy="806.3" r="3.2"/>
				<circle class="st14" cx="423.6" cy="806.3" r="3.2"/>
				<circle class="st5" cx="423.9" cy="805.9" r="1.3"/>
				<circle class="st15" cx="423.9" cy="805.9" r="1.3"/>
				<path class="st16" d="M420.4,806.9c0.3,1.7,1.9,2.9,3.6,2.6c0.8-0.1,1.6-0.6,2.1-1.3C424.3,807.6,422.4,807.1,420.4,806.9z"/>
			</g>
		</g>
	</g>
</g>
<g id="_x23_woman_x28_sit_x5F_on_x5B_chair_x5D__x29_">
	<g>
		<g>
			
				<linearGradient id="SVGID_1_" gradientUnits="userSpaceOnUse" x1="612.8489" y1="618.6833" x2="612.8489" y2="268.0319" gradientTransform="matrix(1 0 0 1 -97.31 231.72)">
				<stop  offset="0" style="stop-color:#808080;stop-opacity:0.25"/>
				<stop  offset="0.54" style="stop-color:#808080;stop-opacity:0.12"/>
				<stop  offset="1" style="stop-color:#808080;stop-opacity:0.1"/>
			</linearGradient>
			<path class="st17" d="M660.2,668.3c0,0-3.7-1.1-8.6-2.6c-2.1-1.2-4.5-1.8-6.9-1.9c-5.8-1.6-11.8-3.1-15-3.6
				c-7.7-1.1-21.1-5.4-21.1-5.4c-5.2,0.4-10.6-3.3-10.6-3.3s-5.6-10.1-8.8-12.3c-0.1-0.1-0.2-0.2-0.4-0.2c-0.5-0.2-0.9-0.5-1.3-0.9
				c-3.3-10.9-10.6-11.5-11-11.6l0,0c-1.4-1.6-2.7-3-3.6-4.2c3.8-20.3,15-42.9,40.8-62.1c0,0,15.3-17.9,6.4-38.7
				c-8.9-20.8-11.4-21.1-26.7-17.2l-34.6,16.5c0,0-9.8,2.3-28.7,3.4c-1.6-3.2-4-5.8-7.4-6.6c-7.1-1.7-13.3,5.7-20.1,3.7
				c-5.2-1.6-11.5-7.7-16.6-1.8c-0.7,0.9-1.2,1.9-1.9,2.7c-0.5,0.6-1,1.1-1.7,1.5c-11.6-0.8-24.5-2.1-38.7-4L413,501.4
				c0,0-18.9-8.8-19.6,14.5c-0.7,23.3-2.5,34.1,5.7,40.4c6,4.6,25.3,36,32.6,62.9c-1.1,1.5-1.8,2.5-1.8,2.5s-20.7,28.1-22.3,28.7
				c-0.1,0.1-0.1,0.2-0.1,0.4c-0.3,0.7-1.2,1.9-4.1,2.7c-4.1,1.1-22,6.5-24.5,6.5s-13.7,0.7-14.9,5.2c0.7-0.1,1.4,0,2.1,0.1
				l-0.5,0.7c-3.1,3.9-8.3,11.3-8.6,16.3c-0.5,7.2,1.6,29.4,13.3,29.2c11.7-0.2,6.3-33.2,6.3-33.2l1.4-4l0.1-0.1l1,6.6
				c0.2-0.1,0.4-0.2,0.6-0.3c1.1,3.2,4.9,6.4,15.9,6.6c0,0,16.9,1.6,29.5,26.7c11.4,22.8,49.4,44,77.2,43.8v37l-3.8,1.1l-49.6,0.9
				c-1.7,0-3.1,1.4-3.2,3.1l-0.3,6.4l14.4,1.3l-44.9,10.7c0,0-7.9-0.7-6.6,10.6h11.1l0.2-2.2l89.5-6.3l5.2,1.3
				c-0.7,3.8-1.5,6.9-1.6,7.7l-0.1,0.2c0,0,0,0.1-0.1,0.4c-0.5-0.2-0.9-0.3-0.9-0.3c-1.2,1.4-1.9,15.9-2,17.3
				c-0.1,1.5,5.6,3.2,5.6,3.2c2.6,1,12.7,0,12.7,0l0,0c3.3-0.2,12.3-3.3,12.3-3.3l-0.8-15.9c-0.4,0.1-0.8,0.2-1.2,0.4
				c0-0.2,0.1-0.4,0.1-0.7c0.1-0.9,0.1-1.9,0.2-3l40,9.9h1.1v2h12.4c0,0,1.1-8.5-3.4-11.2c-4.5-2.7-28.1-11.8-28.1-11.8l5.6-0.5l0,0
				l22.6-2.1c0,0.4,0,0.6,0,0.6h3.3l-0.1-0.9l6.3-0.6l7.4,0.2c0,0-0.2-9.4-5.8-10.1c-1-0.1-4.2-0.4-8.7-0.9l-1.5-17.8
				c3.6-6.1,12.8,12.3,12.8,12.3s0.1,0.1,0.1,0.4c0.4,1.9,2.5,10.3,3.9,11.3h0.1c0.8,0.4,1.6,0.8,2.4,1.1c3.6,1.3,7.4,2.2,11.3,2.7
				c7.2,0.9,23-3.8,25.9-5.4c0.5-0.2,0.9-0.6,1.3-1c1-1.4-0.2-3-0.2-3l-3.2-0.3c2.8-1.3,3.3-6-1.9-6.8c-0.2-0.1-0.4-0.1-0.6-0.1
				c0.2-0.5,0.6-0.9,0.9-1.3c-2.7,0.5-9.9-2.7-9.9-2.7c-1-0.4-2.1-0.8-3.2-1l-0.1-0.1c-0.1-0.2-0.2-0.4-0.3-0.6
				c-1.6-3.3-2.1-7.3-2.7-10.3c-1.1-6.5-14.3-31.6-14.3-31.6s-4.6-10.4-8.5-21.6c4.7-3.9,8.3-8.4,10.3-13.4l0,0l3.9-6
				c2.6-3.3,4.9-6.8,6.8-10.5l3.9-6l0,0c7.3-0.5,19.4-1.4,25.6-1.6c1.8,9.6,3.9,20.8,4.9,23.8c1.8,5.6,11.1-0.9,14.6-15.2
				C677.3,683,660.2,668.3,660.2,668.3z M521.5,786.8v-31.6c1.9-0.3,4.1-0.7,6.3-1.1c-1.3,8.1-3,15.4-3,15.4
				C524.9,773.5,522.8,782.3,521.5,786.8z M593.6,776.9l1.2,0.4c1.9,0.7,3.6,1.8,5,3.2C597.8,779.1,595.7,777.9,593.6,776.9
				L593.6,776.9z M586.4,747.8c0,0,2.7,5.2-2.7,13.7c-4.1,6.4-1.6,10.1,4.2,13.1c-1.9-0.7-3.9-1.2-5.9-1.6l0.3,0.2
				c-4.7-1-2.4,3.2-2.4,3.2c4.7,4.6,6.9,16.2,7.9,25.3c-12.4-1.2-31.9-3.1-47.6-4.6c0.2-1.6,0.4-3.2,0.5-4.7
				c0-2.7,2.9-13.2,2.9-13.2s8.4-19.6,13.1-31.4c8.8-2.4,17.4-5.4,25.7-9C584.6,743.4,586.4,747.8,586.4,747.8L586.4,747.8z"/>
			<rect x="502.5" y="749.8" class="st5" width="19.3" height="55.4"/>
			<rect x="502.5" y="749.8" class="st18" width="19.3" height="55.4"/>
			<path class="st5" d="M446.5,798.8l-0.3,6.3l14.2,1.3l-44.3,10.7c0,0-7.8-0.7-6.4,10.4h10.9l0.2-2.2l88.5-6.3l68.7,17.1h1.1v2
				h12.2c0,0,1.1-8.4-3.3-11.1c-4.4-2.7-27.8-11.8-27.8-11.8l37.3-3.6l7.3,0.2c0,0-0.2-9.4-5.8-10c-5.5-0.7-84.1-8.2-84.1-8.2h-12.6
				l-3.8,1.2l-49,0.8C448,795.8,446.6,797.1,446.5,798.8z"/>
			<path class="st2" d="M521.8,749.8v6.4c-7,1.1-11.4,1.6-11.4,1.6c-2.6,0.5-5.3,0.7-8,0.7v-8.7L521.8,749.8L521.8,749.8z"/>
			<path class="st19" d="M672,697.3c-3.6,14.2-12.7,20.6-14.5,15.1c-1.6-5-6.6-33.1-7.4-38c-0.1-0.5-0.1-0.7-0.1-0.7l-0.9-5.8
				l7.5,0.7l2.2,0.2C658.9,668.8,675.6,683,672,697.3z"/>
			<path class="st5" d="M382.4,673.7c0,0-7.8,13.1,14.7,13.5c0,0,16.7,1.6,29.1,26.5c12.4,24.9,56.7,47.8,84.3,42.7
				c0,0,92.3-10,103.4-46l7.6-19.6c0,0,31.6-2.4,34.9-2s1.1-9.1,1.1-9.1l-8.2-6l-19.6,3.3l-22.2,20.5l-69.4,32.7l-67-9.5
				c0,0-52.9-34-53.4-35.6c-0.5-1.6-21.3-15.8-21.3-15.8L382.4,673.7z"/>
			<path class="st19" d="M381.6,666.1v3.3l-1.8,5.1l-1.3,4c0,0,5.3,32.7-6.2,32.9c-11.5,0.2-13.5-21.8-13.1-28.9
				c0.3-5,5.4-12.3,8.4-16.2c1.3-1.7,2.2-2.7,2.2-2.7L381.6,666.1z"/>
			<path class="st18" d="M446.5,798.8l-0.3,6.3l14.2,1.3l-44.3,10.7c0,0-7.8-0.7-6.4,10.4h10.9l0.2-2.2l88.5-6.3l68.7,17.1h1.1v2
				h12.2c0,0,1.1-8.4-3.3-11.1c-4.4-2.7-27.8-11.8-27.8-11.8l37.3-3.6l7.3,0.2c0,0-0.2-9.4-5.8-10c-5.5-0.7-84.1-8.2-84.1-8.2h-12.6
				l-3.8,1.2l-49,0.8C448,795.8,446.6,797.1,446.5,798.8z"/>
			<path class="st20" d="M382.4,673.7c0,0-7.8,13.1,14.7,13.5c0,0,16.7,1.6,29.1,26.5c12.4,24.9,56.7,47.8,84.3,42.7
				c0,0,92.3-10,103.4-46l7.6-19.6c0,0,31.6-2.4,34.9-2s1.1-9.1,1.1-9.1l-8.2-6l-19.6,3.3l-22.2,20.5l-69.4,32.7l-67-9.5
				c0,0-52.9-34-53.4-35.6c-0.5-1.6-21.3-15.8-21.3-15.8L382.4,673.7z"/>
			<path class="st5" d="M636.3,670.3l-19,21.3c-45.4,52.6-131.1,33.1-160.9,28.9c-29.9-4.2-45.2-49.8-45.2-49.8
				c1.2,0.1,2.3,0.1,3.4-0.1c5-0.9,14.5-5,20-23.6c7.8-26.1-25.7-82.9-33.8-89.2c-8.1-6.3-6.3-17.1-5.6-40.1s19.4-14.3,19.4-14.3
				l30.3,18.1c74.3,10.4,113.7,1,113.7,1l34.1-16.4c15.1-3.8,17.6-3.5,26.4,17.1c8.8,20.5-6.3,38.3-6.3,38.3
				c-51.1,38-44.4,89.9-36.3,109c5.5,12.9,30.7,8.3,46.6,3.9C630.8,672.4,636.3,670.3,636.3,670.3z"/>
			<path class="st2" d="M636.3,670.3l-19,21.3c-45.4,52.6-131.1,33.1-160.9,28.9c-29.9-4.2-45.2-49.8-45.2-49.8
				c1.2,0.1,2.3,0.1,3.4-0.1c5-0.9,14.5-5,20-23.6c7.8-26.1-25.7-82.9-33.8-89.2c-8.1-6.3-6.3-17.1-5.6-40.1s19.4-14.3,19.4-14.3
				l30.3,18.1c74.3,10.4,113.7,1,113.7,1l34.1-16.4c15.1-3.8,17.6-3.5,26.4,17.1c8.8,20.5-6.3,38.3-6.3,38.3
				c-51.1,38-44.4,89.9-36.3,109c5.5,12.9,30.7,8.3,46.6,3.9C630.8,672.4,636.3,670.3,636.3,670.3z"/>
			<path class="st5" d="M629.6,668.9l-18,20.3c-43,50.3-124.1,31.7-152.4,27.7c-28.4-4-42.8-47.7-42.8-47.7c1.1,0.1,2.1,0.1,3.2-0.1
				c4.8-0.9,13.7-4.8,18.9-22.5c7.3-25-24.4-79.4-32-85.4c-7.7-6-6-16.3-5.3-38.3c0.7-22,18.3-13.7,18.3-13.7l28.7,17.3
				c70.4,10,107.7,1,107.7,1l32.4-15.7c14.3-3.6,16.7-3.3,25,16.3c8.3,19.7-6,36.7-6,36.7c-48.3,36.4-42,86.1-34.3,104.5
				c5.2,12.3,29.1,7.9,44.2,3.7C624.4,670.9,629.6,668.9,629.6,668.9z"/>
			<path class="st3" d="M658.9,668.8c0,0-8-0.7-8.9,4.9l-55.4,4.7l-13.8,1.2l-14.6-51.1l-2.8-9.8l6.9,2.2c0,0,2.6,3,5.8,6.6
				c4.5,5.1,10.2,11.4,12,12.3c0.1,0.1,0.3,0.2,0.4,0.2c3.2,2.2,8.7,12.2,8.7,12.2s5.3,3.8,10.4,3.3c0,0,13.4,4.3,20.9,5.3
				C636.1,662,658.9,668.8,658.9,668.8z"/>
			<path class="st2" d="M629.6,668.9l-18,20.3c-43,50.3-124.1,31.7-152.4,27.7c-28.4-4-42.8-47.7-42.8-47.7c1.1,0.1,2.1,0.1,3.2-0.1
				c3.9,3.3,7.5,6.9,10.8,10.8c31.3,37.2,78.9,34.7,78.9,34.7s68.9,8.2,94.3-30.5c4.2-4.1,8.7-7.8,13.5-11.2
				C624.4,670.9,629.6,668.9,629.6,668.9z"/>
			<path class="st2" d="M658.9,668.8c0,0-8-0.7-8.9,4.9l-55.4,4.7l-13.8,1.2l-14.6-51.1l-2.8-9.8l6.9,2.2c0,0,2.6,3,5.8,6.6
				c4.5,5.1,10.2,11.4,12,12.3c0.1,0.1,0.3,0.2,0.4,0.2c3.2,2.2,8.7,12.2,8.7,12.2s5.3,3.8,10.4,3.3c0,0,13.4,4.3,20.9,5.3
				C636.1,662,658.9,668.8,658.9,668.8z"/>
			<path class="st2" d="M659.6,669.5c0,0-8-0.7-8.9,4.9l-0.5,0.1c-0.1-0.5-0.1-0.7-0.1-0.7l-0.9-5.8l7.5,0.7L659.6,669.5z"/>
			<path class="st2" d="M613,712.7c-13.4,14.8-38.8,31.8-84.8,30.2c0,0-82.7,10.4-113.2-52.5c0,0-11.8-21.6-33.6-9.7l-0.6,0.3
				l-1.3-9.4c0,0,19.6-26.2,50.9,10.9s78.9,34.7,78.9,34.7s68.9,8.2,94.3-30.5c0,0,35.8-36.3,52.7-14l0.9,6.7l0.2,1.5
				c0,0-17.6-5.8-30,9.4L613,712.7z"/>
			<path class="st5" d="M379.5,670.4c0,0,19.6-26.2,51,10.9c3.6,4.3,7.5,8.1,11.8,11.7c30.2,24.9,67.2,23,67.2,23
				s68.9,8.2,94.3-30.5c0,0,35.8-36.3,52.7-14l1.1,8.2c0,0-18.9-6.3-31.3,11.1c0,0-18,53.4-97.8,50.7c0,0-82.7,10.4-113.2-52.5
				c0,0-12-22-34.3-9.4L379.5,670.4z"/>
			<path class="st2" d="M559.7,559.7l-1.6,0.1c-1.7-3.3-2.1-18.2-1.5-32.2l-1.3-0.1c-0.3,6.6-0.9,26.2,1.6,32.4
				c-15.7,1.2-85.4,5.9-110.3-0.1c8.6-18.2,2.4-33.5,2.3-33.6l-1.2,0.5c0.1,0.1,6,14.6-2.1,32.2c-4.1-6.3-25.4-38.1-44.5-34l0.3,1.3
				c17.6-3.8,38.3,26.1,42.8,33l-0.8-0.2l1.8,1.7l0.6,1l0.1-0.2c3.2,3.5,17.5,20.3,16.7,45.3c-0.2,7,4.4,13.4,13.5,18.3
				c10.2,5.5,24,8.4,36.5,8.4c10,0,19.1-1.9,24.7-5.7c4.5-3.1,6.5-7.3,5.8-12.3c-3.7-27.1,17.3-54.4,17.7-54.8
				c28.7-34.4,52.4-31.9,52.7-31.9l0.2-1.3C612.4,527.4,588.9,524.9,559.7,559.7z M541.6,615.7c0.6,4.5-1.2,8.2-5.3,11.1
				c-12,8.2-42.1,6.8-59.8-2.8c-6-3.3-13.1-8.9-12.8-17.1c0.7-23.7-11.8-40.3-16.3-45.4c26.5,5.6,95.8,0.8,110-0.3
				c0.2,0.2,0.4,0.4,0.7,0.5C553.6,568.3,538.4,592.1,541.6,615.7L541.6,615.7z"/>
			<polygon class="st2" points="537.8,806.7 565.9,814.9 560.3,815.4 			"/>
			<polygon class="st2" points="460.5,806.5 480.7,801.6 454.9,805.9 			"/>
			<path class="st2" d="M381.6,666.1v3.3l-1.8,5.1c-2.4-6.4-8.8-7.9-12.3-8.2c1.3-1.7,2.2-2.7,2.2-2.7L381.6,666.1z"/>
			<path class="st3" d="M414.1,652.1l-4.9-1.1c0,0-0.2,2-4.3,3.1s-21.8,6.4-24.2,6.4c-2.4,0-13.5,0.7-14.7,5.1
				c0,0,13.1-0.9,15.1,10.7l38-1.8L414.1,652.1z"/>
			<path class="st2" d="M414.1,652.1l-4.9-1.1c0,0-0.2,2-4.3,3.1s-21.8,6.4-24.2,6.4c-2.4,0-13.5,0.7-14.7,5.1
				c0,0,13.1-0.9,15.1,10.7l38-1.8L414.1,652.1z"/>
			<path class="st3" d="M581.7,772.4c0,0,11.2,6.4,15.4,12.6c2.9,4.4,5.6,9,7.9,13.8c0,0,8.3,3.6,2.2-9.6
				C601.2,776,581.7,772.4,581.7,772.4z"/>
			<path class="st3" d="M581.7,772.4c0,0,11.2,6.4,15.4,12.6c2.9,4.4,5.6,9,7.9,13.8c0,0,8.3,3.6,2.2-9.6
				C601.2,776,581.7,772.4,581.7,772.4z"/>
			<path class="st2" d="M581.7,772.4c0,0,11.2,6.4,15.4,12.6c2.9,4.4,5.6,9,7.9,13.8c0,0,8.3,3.6,2.2-9.6
				C601.2,776,581.7,772.4,581.7,772.4z"/>
			<path class="st3" d="M486.5,521.4c-0.7,0.9-1.2,1.8-1.9,2.7c-2.9,3.5-8.1,3.3-12.2,5.3c-5.5,2.7-8.3,9.4-8.1,15.5
				c0.2,6.1,2.6,12,4.9,17.7s4.5,11.7,4.2,17.9c-0.2,3.6-1.3,7.2-2.4,10.7c-0.7,2.2-1.5,4.7-3.6,6c6.1,1.1,12.2,1.7,18.4,1.8
				c17.7,0.3,35.4-3.6,53-1.8c-4.3-3.9-6.3-9.8-5-15.5c0.5-2.2,1.5-4.3,2.2-6.4c2.4-7.2,2.5-15,0.1-22.2c-0.7-2.1-1.6-4.2-2.2-6.4
				c-1.4-5-1-10.4-2-15.5c-1-5.1-4-10.4-9-11.7c-7-1.7-13.1,5.6-19.9,3.6C497.7,521.5,491.5,515.5,486.5,521.4z"/>
			<g class="st21">
				<path d="M536.2,575.4c1.3-3.8,1.9-7.8,1.8-11.8c-0.1,3.6-0.7,7.2-1.8,10.6c-0.7,2.1-1.7,4.3-2.2,6.4c-0.3,1.3-0.4,2.7-0.3,4
					c0.1-0.9,0.1-1.8,0.3-2.7C534.5,579.5,535.5,577.5,536.2,575.4z"/>
				<path d="M473.6,578.8c0.2-6-2-11.8-4.2-17.3c-2.3-5.7-4.7-11.5-4.9-17.6c0,0.4,0,0.8,0,1.2c0.2,6.2,2.6,12,4.9,17.7
					C471.4,567.9,473.5,573.3,473.6,578.8z"/>
				<path d="M537.7,595.8c-17.1-1.5-34.4,2.2-51.6,1.9c-5.7-0.1-11.4-0.6-17.1-1.6c-0.4,0.4-0.8,0.8-1.3,1.1
					c6.1,1.1,12.2,1.7,18.4,1.8c17.7,0.3,35.4-3.6,53-1.8C538.6,596.8,538.1,596.4,537.7,595.8z"/>
			</g>
			<path class="st3" d="M514.4,844.2l14.6,2.7l-1,1.8c0,0-10,1-12.6,0C512.8,847.7,514.4,844.2,514.4,844.2z"/>
			<path class="st3" d="M529.5,719.8c0,0,60.8-19.2,58.5-31.4s-56.2-15.2-58.5-12C527.1,679.6,529.5,719.8,529.5,719.8z"/>
			<path class="st22" d="M529.5,719.8c0,0,60.8-19.2,58.5-31.4s-56.2-15.2-58.5-12C527.1,679.6,529.5,719.8,529.5,719.8z"/>
			<path class="st19" d="M529.5,601L518,611.2l-14.7,2.7l-26.5-3.3l-14.9-10.3c0,0,2.6-0.6,10-2.2l6-1.3c12-2.7,7.1-22.5,7.1-22.5
				s32.9-17.6,28.7,4.7c-2.3,12.1,2.6,17.6,7.5,20C523.9,600.3,526.6,600.9,529.5,601z"/>
			<circle class="st2" cx="501.2" cy="562.2" r="25.6"/>
			<circle class="st19" cx="501.2" cy="561.5" r="25.6"/>
			<path class="st2" d="M529.5,601L518,611.2l-14.7,2.7l-26.5-3.3l-14.9-10.3c0,0,2.6-0.6,10-2.2l1.6,0.9h47.8
				C523.8,600.3,526.6,600.9,529.5,601z"/>
			<path class="st3" d="M496.6,599.6h26.2c0,0,9-3.3,11.8-1.3c2.9,2,11.1,2.2,12.2,1.3c1.1-0.9,17.6,8.3,23.6,21.1l-21.3,16.9
				l-92.7,36.9c0,0-4.3-7.3-2.7-9.8c1.6-2.4-2.9-7.1-2.9-7.1s-1.6-8.2,0-10.7l-19.6-24.5c0,0,13.5-19.8,16.7-21.8
				c0,0,1.1-3.3,2.2-3.1s21,0.6,21,0.6l2.4,1.4H496.6z"/>
			<path class="st2" d="M496.6,599.6h26.2c0,0,9-3.3,11.8-1.3c2.9,2,11.1,2.2,12.2,1.3c1.1-0.9,17.6,8.3,23.6,21.1l-2.2,1.8
				l-19.1,15.1l-92.7,36.9c0,0-4.3-7.3-2.7-9.8c1.6-2.4-2.9-7.1-2.9-7.1s-1.6-8.2,0-10.7l-19.6-24.5c0,0,13.5-19.8,16.7-21.8
				c0,0,1.1-3.3,2.2-3.1s21,0.6,21,0.6l2.4,1.4H496.6z"/>
			<path class="st3" d="M439.4,620.1l-8.2,2.4c0,0-20.5,27.8-22,28.5s10,23.6,10,23.6s4-3.1,6-5.1c2-2,25.6-22.5,25.6-22.5
				L439.4,620.1z"/>
			<path class="st2" d="M439.4,620.1l-8.2,2.4c0,0-20.5,27.8-22,28.5s10,23.6,10,23.6s4-3.1,6-5.1c2-2,25.6-22.5,25.6-22.5
				L439.4,620.1z"/>
			<path class="st2" d="M594.7,678.4l-13.8,1.2l-14.6-51.1l9.8-0.9c4.5,5.1,10.2,11.4,12,12.3c0.1,0.1,0.3,0.2,0.4,0.2
				c0.6,2.4,1,4.9,1.2,7.5c1.3,19.4,3.1,23.3,3.1,23.3S593.6,673.7,594.7,678.4z"/>
			<path class="st19" d="M640.9,801.8c-0.4-0.1-0.9-0.1-1.5-0.2l-0.6-0.1c-8.1-0.7-30.3-1.8-30.3-1.8c-0.4-1.9-1-3.9-1.6-5.8
				c-0.1-0.3-0.2-0.5-0.3-0.9c-2.1-6.1-6-14.4-12.3-16.5c-10.2-3.3-16.2-7.1-10.9-15.5c5.3-8.4,2.7-13.5,2.7-13.5s-7.4-18-9.9-20.2
				c-1.5-1.3-5.2-8.7-8-15.6c-0.3-0.7-0.5-1.3-0.8-2c-1.6-4.1-2.7-7.7-2.9-9.5c-0.2-4.7-8.6-43.6-10-50.2c-0.1-0.6-0.2-1-0.2-1
				s0-0.1-0.1-0.3c-0.4-2.4-2.5-18.1,8.3-20.2l13.7-1.3l0,0c0.5,0.1,11.1,1,12.3,20c1.3,19.4,3.1,23.3,3.1,23.3s5.6,22.5,6,34.5
				s13.7,42.3,13.7,42.3s13,24.9,14.1,31.3c0.5,3,1.1,7,2.6,10.3c0.1,0.2,0.2,0.4,0.3,0.6c1.7,3.2,4.6,5.6,9.5,5.2
				c0.7-0.1,1.5-0.1,2.2,0c0.3,0,0.7,0.1,1,0.1C647.3,795.8,645.2,802.4,640.9,801.8z"/>
			<path class="st2" d="M571.8,667c-0.2,18.7-1.1,34.9-1.1,34.9s-1.1,4.1-2.6,9.7c-2-4.9-3.5-9.4-3.6-11.5
				c-0.2-5.1-10.3-51.1-10.3-51.1s0-0.1-0.1-0.3l1.4,0.3C555.5,649,572,648.3,571.8,667z"/>
			<path class="st19" d="M570.4,667c-0.2,18.7-1.1,34.9-1.1,34.9s-0.9,3.2-2.1,7.7c-2.6,9.9-7,26.2-7.7,29.6
				c-1.1,4.9-15.8,39.1-15.8,39.1s-2.9,10.4-2.9,13.1s-2,13.4-2,13.4v9.5c0,0,0,8.9-0.5,14.9c-0.1,0.5-0.1,0.9-0.1,1.4
				c-0.2,1.9-0.5,3.3-0.9,3.8c-1.5,1.8-8.2,12.4-8.2,12.4s-0.9,0-2.2,0l0,0c-3-0.1-8.6-0.5-11.7-1.9c-0.9-0.4-1.8-1-2.2-1.8
				c-1.6-3.2-0.6-11.1-0.2-13.8c0.1-0.7,0.2-1,0.2-1s0-0.1,0.1-0.2c0.5-2.2,4.9-21,2.6-25.1c-2.4-4.4,5.6-14,5.6-14s4.3-14.5,4-19.8
				c0,0,6-26.2,4.4-33.6c-0.5-2.2-0.1-8,0.7-15c1-8.9,2.6-19.9,3.8-27.9c1-6.6,1.8-11.2,1.8-11.2s-0.4-0.1-1-0.2
				c-1.5-0.4-4.6-0.8-6.4,0.5c-2.4,1.8-1.6-18.9-1.6-18.9l19.7-15.5l7.5,1.6c0.5,0,1,0,1.5,0.1C559.8,649.4,570.6,651.8,570.4,667z"
				/>
			<path class="st3" d="M646.2,804.7c-0.3,0.4-0.8,0.8-1.3,1c-2.9,1.6-18.5,6.3-25.6,5.3c-3.8-0.4-7.5-1.3-11.1-2.7
				c-0.9-0.3-1.6-0.7-2.4-1.1h-0.1c-1.4-0.9-3.5-9.3-3.9-11.2c-0.1-0.2-0.1-0.4-0.1-0.4s-9.1-18.2-12.7-12.2l2.4,29.8h-3.3
				c0,0-0.4-29.6-8.7-37.6c0,0-2.4-4.4,2.7-3.1s17.1,9.4,18.5,14c0.9,2.9,2.1,5.6,3.6,8.2c1,1.7,1.7,2.9,1.7,2.9l32.7,3.3l7.3,0.7
				C646,801.8,647.2,803.3,646.2,804.7z"/>
			<path class="st2" d="M646.2,804.7c-0.3,0.4-0.8,0.8-1.3,1c-2.9,1.6-18.5,6.3-25.6,5.3c-3.8-0.4-7.5-1.3-11.1-2.7
				c-0.9-0.3-1.6-0.7-2.4-1.1h-0.1c7.2-1.3,23-3.8,33.1-3.6C641.9,803.7,644.5,804.1,646.2,804.7z"/>
			<path class="st2" d="M638.7,800.4c0,0.4,0,0.7,0.1,1.2c-8.1-0.7-30.3-1.8-30.3-1.8c-0.5-2.2-1.1-4.5-1.9-6.7
				c5.8-2.7,14.2-5.6,21.4-4.2c1.7,3.6,4.6,6.2,9.8,5.8c0.7-0.1,1.5-0.1,2.2,0C639.1,796.4,638.7,798.4,638.7,800.4z"/>
			<path class="st2" d="M639.4,801.1c0,0.2,0,0.4,0,0.5l-0.6-0.1c-8.1-0.7-30.3-1.8-30.3-1.8c-0.4-1.9-1-3.9-1.6-5.8
				c5.8-2.7,14.1-5.6,21.4-4.4c1.7,3.2,4.6,5.6,9.5,5.2c0.7-0.1,1.5-0.1,2.2,0c0.3,0,0.7,0.1,1,0.1
				C639.9,796.7,639.4,798.8,639.4,801.1z"/>
			<path class="st3" d="M638.7,801.1c0,0.9,0.1,1.7,0.2,2.6h-0.1l-30.6,4.8c-0.9-0.3-1.6-0.7-2.4-1.1h-0.1
				c-1.4-0.9-3.5-9.3-3.9-11.2c0.7-0.4,1.5-0.8,2.4-1.3c6.6-3.3,18.5-8,27.3-4.2c0,0,7.1,3.2,9.8,2.7
				C641.3,793.4,638.7,796.1,638.7,801.1z"/>
			<path class="st2" d="M538.2,830.7c-0.2,1.9-0.5,3.3-0.9,3.8c-1.5,1.8-8.2,12.4-8.2,12.4s-0.9,0-2.2,0c-0.2-2.9-1.3-7.6-6.4-7.7
				c-4.1-0.1-5.2,3-5.3,5.8c-0.9-0.4-1.8-1-2.2-1.8c-1.6-3.2-0.6-11.1-0.2-13.8C515.5,830.3,527,833.8,538.2,830.7z"/>
			<path class="st2" d="M538.3,829.3c-0.1,0.5-0.1,0.9-0.1,1.4c-0.2,1.9-0.5,3.3-0.9,3.8c-1.5,1.8-8.2,12.4-8.2,12.4s-0.9,0-2.2,0
				c0.1-2.4-0.4-8.9-6.5-9c-4.8-0.1-5.5,4.1-5.3,7.2c-0.9-0.4-1.8-1-2.2-1.8c-1.6-3.2-0.6-11.1-0.2-13.8c0.1-0.7,0.2-1,0.2-1
				s0-0.1,0.1-0.2C516.1,829.1,527.3,832.5,538.3,829.3z"/>
			<path class="st3" d="M512,828.4c0,0,14.1,5.6,27.4,1.3l0.8,15.7c0,0-12.8,4.5-13.4,3c0,0,1-9.7-6.4-9.8
				c-7.4-0.1-4.9,10.1-4.9,10.1s-5.6-1.8-5.6-3.2C509.9,844,510.7,829.7,512,828.4z"/>
			<path class="st2" d="M577.4,627.9c-12.6-3.8-20.3,17.2-21.7,21.1c-0.1,0.4-0.2,0.6-0.2,0.6c-0.4,0.1-0.8,0.2-1.2,0.3
				c-21.8,5.7-20.5,25.5-19.6,31.3c-1.5-0.4-4.6-0.8-6.4,0.5c-2.4,1.8-1.6-18.9-1.6-18.9l19.8-15.4l7.5,1.6c0,0,0-0.1-0.1-0.3
				c-0.4-2.4-2.5-18.1,8.3-20.2l13.7-1.3l0,0L577.4,627.9z"/>
			<path class="st3" d="M460.8,663.7l-4.4,10.9c0,0-18.5,25.6-1.6,36.9c16.9,11.4,74.7,8.3,74.7,8.3l4.3-37.7
				c0,0-6.4-26.9,20.4-33.2c0,0,8-25.9,21.9-21.7l-26.5-13.4L513,627.5l-30.9,16.7L460.8,663.7z"/>
			<path class="st2" d="M460.8,663.7l-4.4,10.9c0,0-18.5,25.6-1.6,36.9c16.9,11.4,74.7,8.3,74.7,8.3l4.3-37.7
				c0,0-6.4-26.9,20.4-33.2c0,0,8-25.9,21.9-21.7l-26.5-13.4L513,627.5l-30.9,16.7L460.8,663.7z"/>
			<path class="st2" d="M461.9,683.9c0,0,5.6-13.2,12.4-16.9C481.2,663.2,461.9,683.9,461.9,683.9z"/>
			<path class="st2" d="M485.7,660.1c0,0,49.6-32.2,67.6-31.6L485.7,660.1z"/>
			<path class="st2" d="M501.4,547.1c9.2,0.9,15.9,10,25,11.4c0.8,0.2,1.6,0.1,2.3-0.1c2.3-1,1.6-4.5,0.4-6.7
				c-1.7-3.4-3.5-6.8-5.2-10.2c-1.3-2.5-2.6-5.1-4.7-6.9c-1.8-1.5-4.1-2.4-6.3-3.1c-8.8-2.9-18.7-3.6-27,0.4
				c-4.7,2.2-17.3,13.7-10.7,19.1C481.2,555.9,494.5,546.4,501.4,547.1z"/>
			<path class="st3" d="M501.4,546.4c9.2,0.9,15.9,10,25,11.4c0.8,0.2,1.6,0.1,2.3-0.1c2.3-1,1.6-4.5,0.4-6.7
				c-1.7-3.4-3.5-6.8-5.2-10.2c-1.3-2.5-2.6-5.1-4.7-6.9c-1.8-1.5-4.1-2.4-6.3-3.1c-8.8-2.9-18.7-3.6-27,0.4
				c-4.7,2.2-17.3,13.7-10.7,19.1C481.2,555.2,494.5,545.7,501.4,546.4z"/>
			<path class="st2" d="M458.5,660.7c5.6,0.6,11.4,0,16.7-1.8"/>
			<path class="st2" d="M405.7,656.6c0,0,4.3,0.6,4.3,3.5C410,663,405.7,656.6,405.7,656.6z"/>
			<path class="st2" d="M407.9,667.9c0,0,0.8-1.3,2.1,1.2C411.3,671.7,407.9,667.9,407.9,667.9z"/>
			<path class="st2" d="M528.8,556.4c-0.7,0.2-1.6,0.3-2.3,0.1c-9.1-1.5-15.8-10.5-25-11.4c-7-0.7-20.3,8.7-26.2,3.8
				c-1-0.8-1.6-1.9-1.8-3.2c-0.2,1.8,0.4,3.5,1.8,4.6c6,4.9,19.3-4.5,26.2-3.8c9.2,0.9,15.9,10,25,11.4c0.8,0.2,1.6,0.1,2.3-0.1
				c1.3-0.6,1.6-1.9,1.5-3.5C530.2,555.2,529.6,556,528.8,556.4z"/>
			<path class="st2" d="M519.7,654.5c0,0,27.1-7.1,34.6-5.5L519.7,654.5z"/>
		</g>
	</g>
</g>
</svg>
