<?xml version="1.0" encoding="utf-8"?>
<!-- Generator: Adobe Illustrator 19.0.0, SVG Export Plug-In . SVG Version: 6.00 Build 0)  -->
<svg version="1.1" xmlns="http://www.w3.org/2000/svg" xmlns:xlink="http://www.w3.org/1999/xlink" x="0px" y="0px"
	 viewBox="0 0 1000 1000" style="enable-background:new 0 0 1000 1000;" xml:space="preserve">
<style type="text/css">
	.st0{opacity:0.1;enable-background:new    ;}
	.st1{fill:#6C63FF;}
	.st2{opacity:0.7;}
	.st3{fill:#444053;}
	.st4{fill:#FFFFFF;}
	.st5{opacity:0.3;fill:#6C63FF;enable-background:new    ;}
	.st6{opacity:0.3;enable-background:new    ;}
	.st7{fill:#3ACC6C;}
	.st8{fill:url(#SVGID_1_);}
	.st9{fill:#A5636D;}
	.st10{opacity:5.000000e-02;enable-background:new    ;}
	.st11{fill:#BEBED0;}
	.st12{fill:#5C5C8E;}
	.st13{opacity:0.1;}
	.st14{fill:#F7CDDD;}
	.st15{fill:#4C3E42;}
	.st16{opacity:0.1;fill:#FFFFFF;enable-background:new    ;}
	.st17{fill:#EFC8C4;}
	.st18{fill:#727A9C;}
</style>
<g id="_x23_background">
	<g class="st0">
		<g>
			<path class="st1" d="M315.7,199.2c33.2-29.9,85.2-35.9,132.5-33.5c148.8,7.4,283.1,80,399.3,162.1c42,29.7,83.5,61.7,110.8,102.6
				c55.6,83.3,39.1,198.6-38.2,267.2c-26.3,23.3-58.2,41.3-90.9,57.1c-58.2,28.2-120.9,50.8-187,57.3c-47.1,4.6-94.7,0.8-141.6-5.6
				C369.8,788.4,241.3,748.8,133.7,681c-47.1-29.7-91.6-66.6-111.1-114.8c-19.5-48.1-7-109,41.2-137.4c20-11.8,43.7-17.1,67.1-22.1
				c34.3-7.4,69.3-14.5,100.2-29.5c32.1-15.4,69.9-45.2,63.6-79.4C288,261.2,282.5,229,315.7,199.2z"/>
		</g>
	</g>
</g>
<g>
	<g id="_x23_accessory_x28_have_x5B_leaf_x5D__x29__1_" class="st2">
		<path class="st1" d="M266.4,490.3c0,0,10.2-3.4,17.8,3c0,0-4.1,4.4-14.8,0.9L266.4,490.3z"/>
		<path class="st1" d="M265.3,490.4c0,0-5.3,9.4-0.6,18c0,0,5.1-3,3.9-14.3L265.3,490.4z"/>
		<path class="st1" d="M257.1,477.8c0,0,3-8.4,21.6-0.3c0,0-1.4,5.6-8.9,6.3S259.7,481.5,257.1,477.8z"/>
		<path class="st1" d="M255.9,477.4c0,0-8.9,0.4-6.5,20.6c0,0,5.8,0.3,8.6-6.7C260.9,484.3,258.7,481,255.9,477.4z"/>
		<path class="st1" d="M248.2,462.2c0,0,2.7-14.4,22.1-7.6c0,0-2,13.1-19.5,11.9L248.2,462.2z"/>
		<path class="st1" d="M239.4,442.8c0,0,7-15.2,25.5-5.2c0,0-3.6,13.9-23.3,9.8L239.4,442.8z"/>
		<path class="st1" d="M234.3,423.8c0,0,8.8-14.4,27.1-4.4c0,0-8.5,12.8-26.6,7.6L234.3,423.8z"/>
		<path class="st1" d="M229.6,405.3c0,0,8.8-15,26.4-5c0,0-10.5,13.6-25.9,8.1L229.6,405.3z"/>
		<path class="st1" d="M227.9,388.5c0,0,8.7-18.9,25.2-9.7c0,0-10,16.6-24.7,12.9L227.9,388.5z"/>
		<path class="st1" d="M227.4,368.5c0,0,9.5-18.8,25.7-8.2c0,0-12.1,16.9-25.2,11.2L227.4,368.5z"/>
		<path class="st1" d="M228.6,350.5c0,0,11.8-18.2,25.5-13.9c0,0-12.3,19.2-25.5,18.2L228.6,350.5z"/>
		<path class="st1" d="M231,333.2c0,0,13.5-22.1,24.3-17.2c0,0-9.8,17-24.9,21L231,333.2z"/>
		<path class="st1" d="M235.2,312.9c0,0,12-18.2,23.3-16c0,0-9.8,18.4-24.4,21.2L235.2,312.9z"/>
		<path class="st1" d="M238.9,293.9c0,0,13.6-17.8,21.1-16.2c0,0-8.9,18.7-21.2,19.7L238.9,293.9z"/>
		<path class="st1" d="M242.6,276.3c0,0,10.9-20.3,18.8-20.1c0,0-5.8,17.5-18.4,22L242.6,276.3z"/>
		<path class="st1" d="M246,252.8c0,0,10.1-15.8,16.7-16.9c0,0-6.7,20-16.4,21.5L246,252.8z"/>
		<path class="st1" d="M247.8,237.3l7.2-30.8c0,0,4.8,26-7.8,36.4L247.8,237.3z"/>
		<path class="st1" d="M247.3,204.7c0,0-1.9-24.4-3.6-26.2c0,0,11.8,18.7,5.2,36.9L247.3,204.7z"/>
		<path class="st1" d="M247.7,462.1c0,0-13.5-5.6-18.4,14.3c0,0,12.1,5.5,20.6-9.8L247.7,462.1z"/>
		<path class="st1" d="M238.9,442.1c0,0-16.2-4.4-20.4,16.2c0,0,12.9,6.1,22.5-11.5L238.9,442.1z"/>
		<path class="st1" d="M233.8,425.1c0,0-12.9-10.9-27.1,4.4c0,0,12,9.4,27.6-1.2L233.8,425.1z"/>
		<path class="st1" d="M229.2,405.4c0,0-13.1-11.4-26.6,3.6c0,0,14.2,9.6,27.1-0.5L229.2,405.4z"/>
		<path class="st1" d="M228,389c0,0-10.7-17.8-26.1-6.9c0,0,11.8,15.4,26,10.1L228,389z"/>
		<path class="st1" d="M228.3,368.3c0,0-10.7-18.1-26.2-6.3c0,0,13.2,16.1,26,9.5L228.3,368.3z"/>
		<path class="st1" d="M230.2,350.4c0,0-6.4-20.7-20.7-20.3c0,0,6.6,21.9,19.5,24.4L230.2,350.4z"/>
		<path class="st1" d="M231.3,333.2c0,0-5.3-25.3-17.1-24.4c0,0,3.6,19.3,16.3,28.2L231.3,333.2z"/>
		<path class="st1" d="M236.3,312c0,0-6.9-20.6-18.4-21.5c0,0,4.7,20.4,18.1,26.9L236.3,312z"/>
		<path class="st1" d="M240.1,293.8c0,0-3.7-22.1-11-24.3c0,0-0.9,20.7,9.5,27.4L240.1,293.8z"/>
		<path class="st1" d="M243.1,275.9c0,0-4.7-22.7-12.2-24.7c0,0,0.5,18.4,11.3,26.4L243.1,275.9z"/>
		<path class="st1" d="M247.2,254.5c0,0-3-18.5-8.7-22.1c0,0-1.7,21.1,6.8,26.2L247.2,254.5z"/>
		<path class="st1" d="M247,236.4l-9.9-30c0,0-2.5,26.3,11,35.6L247,236.4z"/>
		<path class="st1" d="M242.9,205.7c0,0-15.8-18.7-16-21.1c0,0,4.8,21.5,22.3,29.8L242.9,205.7z"/>
		<path class="st1" d="M243.4,199.4c0,0-16.6-27.5-22.2-29c0,0,18.2,5.8,23.1,28.1L243.4,199.4z"/>
		<path class="st3" d="M246.1,257.6l-0.8-0.1c4.7-34,3.8-55.1-2.5-59.4l0.5-0.7C250,201.9,251,222.8,246.1,257.6z"/>
		<path class="st3" d="M231.1,337.9l-1.3-0.3c0.6-3.1,1.2-6.3,1.9-9.5c6.2-27.6,11.1-53,13.8-72.4l0.9-0.7
			c-2.7,19.5-7.3,45.8-13.4,73.4C232.4,331.6,231.7,334.8,231.1,337.9z"/>
		<path class="st3" d="M285.1,512.2c-0.2-0.2-19.2-15.6-35.5-44.8c-9.6-17.1-16.2-35.5-20-54.7c-4.7-23.9-4-51.7,0.7-77.6l1.1,0.9
			c-10.6,58,4.8,103.8,19.6,130.4c16.1,28.8,34.9,44.2,35.1,44.4L285.1,512.2z"/>
	</g>
	<g id="_x23_accessory_x28_have_x5B_leaf_x5D__x29_">
		<path class="st1" d="M231,543.9c0,0,8.8-6.3,17.8-2.4c0,0-2.5,5.4-13.9,5.3L231,543.9z"/>
		<path class="st1" d="M229.9,544.3c0,0-2.4,10.6,4.8,17.3c0,0,4-4.5-0.5-14.8L229.9,544.3z"/>
		<path class="st1" d="M218.3,534.7c0,0,0.3-8.9,20.5-6.7c0,0,0.3,5.8-6.6,8.7C225.3,539.7,222,537.5,218.3,534.7z"/>
		<path class="st1" d="M217.1,534.7c0,0-8.4,3-0.1,21.6c0,0,5.5-1.4,6.3-9C224,539.8,220.9,537.3,217.1,534.7z"/>
		<path class="st1" d="M205.3,522.6c0,0-1.7-14.5,18.8-13.9c0,0,1.9,13.1-15.1,17.2L205.3,522.6z"/>
		<path class="st1" d="M191.1,506.6c0,0,2.2-16.7,22.8-12.5c0,0,0.6,14.3-19.3,16.3L191.1,506.6z"/>
		<path class="st1" d="M180.6,490c0,0,4.1-16.3,24.5-12.3c0,0-4.2,14.7-23.1,15.1L180.6,490z"/>
		<path class="st1" d="M170.5,473.7c0,0,4-16.9,23.7-12.6c0,0-5.9,16.2-22.3,15.4L170.5,473.7z"/>
		<path class="st1" d="M163.9,458.2c0,0,2.7-20.6,21.1-16.7c0,0-4.6,18.8-19.7,19.7L163.9,458.2z"/>
		<path class="st1" d="M157.5,439.2c0,0,3.5-20.7,22.1-15.5c0,0-6.5,19.8-20.7,18.3L157.5,439.2z"/>
		<path class="st1" d="M153.3,421.6c0,0,5.9-20.9,20.2-20.8c0,0-6,22-18.9,25L153.3,421.6z"/>
		<path class="st1" d="M150.4,404.4c0,0,6.3-25.1,18.1-23.6c0,0-4.3,19.1-17.5,27.5L150.4,404.4z"/>
		<path class="st1" d="M148.4,383.8c0,0,6.1-20.9,17.5-22.2c0,0-3.9,20.5-17,27.6L148.4,383.8z"/>
		<path class="st1" d="M146.3,364.6c0,0,7.8-21.1,15.3-21.8c0,0-3,20.5-14.5,25.1L146.3,364.6z"/>
		<path class="st1" d="M144.6,346.6c0,0,4.4-22.7,11.9-24.9c0,0-0.3,18.4-11.1,26.5L144.6,346.6z"/>
		<path class="st1" d="M140.8,323.3c0,0,4.8-18.1,10.9-21.1c0,0-0.4,21.1-9.3,25.4L140.8,323.3z"/>
		<path class="st1" d="M137.9,307.9l-2.4-31.5c0,0,12.3,23.4,3.4,37L137.9,307.9z"/>
		<path class="st1" d="M127.8,276.9c0,0-9.1-22.8-11.2-23.9c0,0,16.7,14.4,15.9,33.7L127.8,276.9z"/>
		<path class="st1" d="M204.7,522.5c0,0-14.5-1.4-13.4,19.1c0,0,13.2,1.6,16.8-15.5L204.7,522.5z"/>
		<path class="st1" d="M190.4,506.1c0,0-16.7,0.6-14.6,21.5c0,0,14.2,1.9,18.1-17.7L190.4,506.1z"/>
		<path class="st1" d="M180.4,491.3c0,0-15.5-6.6-24.5,12.3c0,0,14.3,5.4,26-9.3L180.4,491.3z"/>
		<path class="st1" d="M170.2,473.9c0,0-15.9-7-24.4,11.3c0,0,16.4,5,25.7-8.5L170.2,473.9z"/>
		<path class="st1" d="M164.1,458.6c0,0-15.6-13.8-27,1.2c0,0,15.7,11.2,27.7,1.9L164.1,458.6z"/>
		<path class="st1" d="M158.4,438.7c0,0-15.6-14-27,1.7c0,0,17.4,11.4,27.6,1.4L158.4,438.7z"/>
		<path class="st1" d="M154.8,421c0,0-12.3-17.8-25.9-13.3c0,0,12.8,18.9,25.9,17.6V421z"/>
		<path class="st1" d="M150.7,404.3c0,0-12.6-22.6-23.5-18.2c0,0,9.1,17.4,23.9,22L150.7,404.3z"/>
		<path class="st1" d="M149.1,382.6c0,0-12.8-17.7-23.9-15.1c0,0,10.6,18,25.3,20.2L149.1,382.6z"/>
		<path class="st1" d="M147.4,364.1c0,0-10.1-20-17.7-19.9c0,0,5.2,20,17.2,23.3L147.4,364.1z"/>
		<path class="st1" d="M144.9,346.2c0,0-11.2-20.2-18.9-20c0,0,6,17.4,18.7,21.8L144.9,346.2z"/>
		<path class="st1" d="M142.5,324.4c0,0-8.4-16.7-14.9-18.4c0,0,4.7,20.6,14.2,23L142.5,324.4z"/>
		<path class="st1" d="M137,307.4l-18.4-25.7c0,0,5.4,25.9,21.1,30.7L137,307.4z"/>
		<path class="st1" d="M123.9,279.1c0,0-20.6-13.1-21.5-15.4c0,0,11,19.1,30.2,21.8L123.9,279.1z"/>
		<path class="st1" d="M122.5,273c0,0-24-21.3-29.9-21.1c0,0,19.1,0.2,30.4,19.9L122.5,273z"/>
		<path class="st3" d="M142.5,327.8l-0.8,0.2c-5.7-33.9-12.8-53.7-20-56l0.3-0.8C129.5,273.5,136.7,293.1,142.5,327.8z"/>
		<path class="st3" d="M151.9,408.9l-1.3,0.2c-0.4-3.1-0.8-6.4-1-9.6c-2.3-28.1-5.2-53.9-8.4-73.2l0.7-0.9c3.2,19.4,6.7,45.9,9,74.1
			C151.3,402.5,151.6,405.7,151.9,408.9z"/>
		<path class="st3" d="M255.4,559.3c-0.3-0.1-23-9.2-47.2-32.2c-14.1-13.4-26.1-29.1-35.4-46.3c-11.6-21.5-19.2-48.2-22.4-74.3
			l1.4,0.6c7.2,58.5,35.4,97.6,57.5,118.7c23.9,22.8,46.5,31.9,46.7,32L255.4,559.3z"/>
	</g>
	<g id="_x23_chart_x28_have_x5B_list_x2C_paper_x5D__x29_">
		<path class="st0" d="M617.9,758.1L533,790.9l-124,48c-4.7-8.7-11.6-20.6-20.1-34.7c-29.3-48.6-78-124.4-121.2-190.9
			C219,538.4,177,475,177,475l30.4-8.8l248-72L617.9,758.1z"/>
		<path class="st4" d="M619.6,752.2L534.7,785l-124,48c-4.7-8.7-11.6-20.6-20.1-34.7c-29.3-48.6-78-124.4-121.2-190.9
			c-48.7-74.9-90.7-138.3-90.7-138.3l30.4-8.8l248-72L619.6,752.2z"/>
		<path class="st0" d="M619.6,752.2L534.7,785c-47.4,9.9-95.7,14.3-144.1,13.3c-29.3-48.6-78-124.4-121.2-190.9l-60.3-147.1l248-72
			L619.6,752.2z"/>
		<path class="st1" d="M682.7,731.8c0,0-131.8,78-328.6,60.4L197.2,409.6l75.2-12.9l259.9-44.6l147.4,372.2L682.7,731.8z"/>
		<path class="st0" d="M679.7,724.4c-31,1.5-66.9,1.4-103.1-3c-39.1-4.6-78.4-14-112.1-31.5c-28.2-14.5-52.3-30.3-73.3-49.2
			c-54.6-49.1-88.4-119.4-118.7-243.9l259.9-44.7L679.7,724.4z"/>
		<path class="st4" d="M776.4,703c0,0-97.2,19-196.1,7.4c-39.1-4.7-78.4-14-112.1-31.5c-28.2-14.5-52.3-30.3-73.3-49.2
			c-67.7-60.9-103.4-154.1-140.2-342.5c0,0,161.5,39,321.1-46.4C575.9,240.7,629.7,576.8,776.4,703z"/>
		<path class="st0" d="M580.4,710.3c-39.1-4.7-78.4-14-112.1-31.5c-28.2-14.5-52.3-30.3-73.3-49.2c57.6-4.7,65.9-36.2,65.9-36.2
			C503.5,661.3,580.4,710.3,580.4,710.3z"/>
		<path class="st5" d="M338.3,356.3c0,0,86.8,9.9,168-35.7l5.6,17.8c0,0-77.7,38.7-173.6,38.7L338.3,356.3L338.3,356.3z"/>
		<path class="st6" d="M338.3,444.5c0,0,86.3-6.9,182.3-53.4l3.2,7.4c0,0-35.4,44.5-185.6,56.1V444.5z"/>
		<path class="st6" d="M348.5,478.9c0,0,86.3-6.9,182.3-53.4l3.2,7.4c0,0-35.4,44.5-185.6,56.2L348.5,478.9L348.5,478.9z"/>
		<path class="st6" d="M357.9,516c0,0,86.3-6.9,182.3-53.4l3.2,7.4c0,0-35.4,44.5-185.6,56.2L357.9,516L357.9,516z"/>
		<path class="st6" d="M369,547.8c0,0,86.3-6.9,182.3-53.4l3.2,7.4c0,0-35.4,44.5-185.6,56.2L369,547.8L369,547.8z"/>
		<path class="st0" d="M379.2,582.3c0,0,86.3-6.9,182.3-53.4l3.2,7.4c0,0-35.4,44.5-185.6,56.2V582.3z"/>
		
			<rect x="538.3" y="371.4" transform="matrix(-0.9466 0.3223 -0.3223 -0.9466 1196.4413 570.111)" class="st5" width="25.5" height="25.5"/>
		
			<rect x="552" y="407.3" transform="matrix(-0.9466 0.3223 -0.3223 -0.9466 1234.7258 635.6752)" class="st5" width="25.5" height="25.5"/>
		
			<rect x="574" y="476.4" transform="matrix(-0.9466 0.3223 -0.3223 -0.9466 1299.958 763.0276)" class="st5" width="25.5" height="25.5"/>
		
			<rect x="586.6" y="513.5" transform="matrix(-0.9466 0.3223 -0.3223 -0.9466 1336.411 831.1008)" class="st5" width="25.5" height="25.5"/>
		
			<rect x="563.2" y="444.6" transform="matrix(-0.9466 0.3223 -0.3223 -0.9466 1268.6298 704.6221)" class="st5" width="25.5" height="25.5"/>
		<path class="st7" d="M551.2,386l-11.4-5.6c-0.7-0.3-0.9-1.2-0.7-1.9l0,0l1.2-2.5c0.3-0.7,1.2-0.9,1.9-0.7l0,0l7.7,3.7l8-16.5
			c0.3-0.7,1.2-0.9,1.9-0.7l2.5,1.2c0.7,0.3,0.9,1.2,0.7,1.9l0,0l-9.8,20.2C552.7,386,551.9,386.4,551.2,386L551.2,386z"/>
		<path class="st7" d="M576.2,457.2l-11.4-5.6c-0.7-0.3-0.9-1.2-0.7-1.9l0,0l1.2-2.5c0.3-0.7,1.2-0.9,1.9-0.7l7.7,3.7l8-16.5
			c0.3-0.7,1.2-0.9,1.9-0.7l2.5,1.2c0.7,0.3,1,1.2,0.7,1.9l0,0l-9.8,20.2C577.6,457.3,576.8,457.5,576.2,457.2L576.2,457.2z"/>
		<path class="st7" d="M564.9,422.2l-11.4-5.6c-0.7-0.3-0.9-1.2-0.7-1.9l1.2-2.5c0.3-0.7,1.2-0.9,1.9-0.7l0,0l7.7,3.7l8-16.5
			c0.3-0.7,1.2-0.9,1.9-0.7l0,0l2.5,1.2c0.7,0.3,0.9,1.2,0.7,1.9l-9.8,20.3C566.4,422.2,565.6,422.4,564.9,422.2L564.9,422.2
			L564.9,422.2z"/>
		<path class="st7" d="M587,489.3l-11.4-5.6c-0.7-0.3-0.9-1.2-0.7-1.9l0,0l1.2-2.5c0.3-0.7,1.2-0.9,1.9-0.7l0,0l7.7,3.7l8-16.5
			c0.3-0.7,1.2-0.9,1.9-0.7l2.5,1.2c0.7,0.3,0.9,1.2,0.7,1.9l0,0l-9.8,20.2C588.4,489.4,587.7,489.6,587,489.3z"/>
	</g>
	<g id="_x23_woman_x28_bend_x2C_write_x29_">
		
			<linearGradient id="SVGID_1_" gradientUnits="userSpaceOnUse" x1="761.7454" y1="611.5696" x2="761.7454" y2="203.077" gradientTransform="matrix(1 0 0 1 -22.3 150.96)">
			<stop  offset="0" style="stop-color:#808080;stop-opacity:0.25"/>
			<stop  offset="0.54" style="stop-color:#808080;stop-opacity:0.12"/>
			<stop  offset="1" style="stop-color:#808080;stop-opacity:0.1"/>
		</linearGradient>
		<path class="st8" d="M836.3,545.5l-0.9-0.8c2.4-0.5,4.6-0.7,4.6-0.7s-8-29-21.5-38.7c-6.7-4.7-12.3-12.8-16.2-19.5
			c-7.2-12.3-15.2-24.2-24.1-35.4l-2.5-3l-1-1.4c1.4-2.2,3.2-4.3,3-6.9c0,0,0,0,0-0.1c0-0.2,0-0.3,0-0.4c0-0.3-0.1-0.6-0.2-0.9
			l-0.1,0.2c-1.1-3.3-5.5-4.7-8.8-6.6c-7.6-4.3-10.8-13.6-12.5-22.4c-1.3-6.8-2.3-14.4-7.6-18.7c-3.4-2.8-8-3.7-11.4-6.5
			c-3.2-2.6-5.1-6.6-7-10.3c-3.4-6.1-7.9-11.8-13.7-15.5s-13.4-5.1-19.9-2.6c-2.5,0.9-4.7,2.5-7.2,3.5c-6.1,2.5-13.1,2.2-19.1,4.9
			c-7.4,3.3-12.3,10.6-16.7,17.5c-2.3,3.6-5.8,8.8-7.9,14c0-0.2,0-0.3,0-0.5c-1,2.3-1.5,4.8-1.6,7.4c0,1.1,0.1,2.1,0.3,3.2
			c0.9,3.4,3.6,5.2,6.9,6.6c0.2,1.1,0.4,2.1,0.8,3.2c3,9.7,10.5,17.5,20.2,20.6c0.3,0.1,0.6,0.2,0.8,0.3c0.3,0.7,0.6,1.3,1,1.9
			c2.7,3.4,8.1,2.5,11.7,0c0.2-0.1,0.3-0.2,0.4-0.3c0,0.5,0.1,0.9,0.2,1.4c0.1,0.4,0.2,0.8,0.3,1.2c3.2,17.1,11.2,26.3,11.2,26.3
			s0.8,1.1,1.9,3c-0.7,9.4,3.6,18,8.6,24.7c-4.3,2.5-13.5,7.4-19.3,6.9c0,0-21,2.7-23.4,1.4c-0.3-0.2-0.7,0.1-0.9,0.7
			c-5.8-3.6-24.3-13.7-25.9-0.7c-1.4,11.8,15.4,13.4,23.4,13.4c-0.3,3.5-0.6,6.3-0.6,6.3l34.5-2.4l17.9-2.6c-1.9,2.6-4.2,5-6.4,6.1
			c0,0-16.2,13.1-19,13.3c-0.4,0-0.5,0.4-0.4,1c-6.9,0-28.1,1-22.2,12.9c5.3,10.7,20.5,3.3,27.2-0.8c1.6,3.1,3,5.6,3,5.6l27.8-19.9
			l6-5.1c2-0.1,4.1-0.5,6-1.2c0,0.1,0.1,0.2,0.1,0.3c0.3,0.6,0.3,1.3,0.5,1.9c1.7,9.7-4,32.4-4,32.4s-12.5,31.9-6.5,36.2
			c6,4.3,1.5,22.7,1.5,22.7c1,1.8,2.3,3.5,3.6,5l0,0c0.7,0.8,1.4,1.4,2.1,2c-0.3,0.8-0.5,1.5-0.7,2.4c-0.9,3.9-0.6,8,1,11.7
			c4.1,10,1.6,24.5,1.6,24.5l-8.1,54.7c-3.9-0.6-8.9-1.1-10.8,0c-2.9,1.6-1.9,9.7,4.7,13.3c-2,1.5-4.4,2.6-6.9,3.1
			c-5.9,1.4-10.1,2.2-12.9,2.7c-0.2,0-14.2-3.1-17.8-1s-1.9,13.4,8.4,16.2c10.1,2.7,47.4,6.7,58.2,5.1l0.7-0.1
			c9.1-1.8,1.1-13.9,0.1-15.3c-0.1-0.5-0.2-1-0.2-1.5c-0.2-1.3-0.3-2.7-0.3-4.2c10.2,0.9,20.3,1.4,25,0.7c0.3,0,0.4-0.1,0.6-0.1
			c8.1-1.6,1-12.3,0.1-13.5c0-0.3-0.1-0.7-0.2-1V727c0-0.3-0.1-0.5-0.1-0.8s0-0.4-0.1-0.7s0-0.4-0.1-0.6c0-0.4-0.1-0.8-0.1-1.3
			c0-0.2,0-0.3,0-0.6c0-0.3,0-0.7-0.1-1c0-0.2,0-0.3,0-0.6c0-0.5,0-1-0.1-1.5c0-0.2,0-0.3,0-0.4c0-0.4,0-0.8,0-1.3
			c0-0.2,0-0.4,0-0.6c0-0.4,0-0.9,0-1.4c0-0.2,0-0.3,0-0.4c0-0.6,0.1-1.2,0.1-1.7l0.1-0.6c0-0.4,0.1-0.8,0.1-1.3
			c0-0.2,0-0.4,0.1-0.7c0.1-0.6,0.2-1.2,0.3-1.8c0-0.2,0.1-0.3,0.1-0.5c0.1-0.4,0.2-0.9,0.3-1.4c0-0.3,0.1-0.4,0.2-0.7
			c0.1-0.5,0.3-1,0.3-1.4c0-0.2,0.1-0.3,0.1-0.4c0.2-0.6,0.3-1.2,0.5-1.8c0.1-0.2,0.2-0.4,0.2-0.6c0.2-0.4,0.3-0.8,0.4-1.3l0.2-0.5
			c0.3-0.6,0.5-1.1,0.8-1.7c0.1-0.2,0.2-0.3,0.3-0.4c0.2-0.4,0.4-0.8,0.7-1.3l0.3-0.5c0.3-0.5,0.7-1.1,1-1.6
			c9.3-13.3,11.8-38.8,11.5-44.4s1.1-17.1,2.8-18.8c1.1-1.1,7.6-10.1,11.5-17c0.7-1.3,1.3-2.5,1.8-3.5c2.8-0.9,4.6-1.7,4.6-1.7l0,0
			l0,0c-0.9-3.6-1.4-7.2-1.4-10.9c0.1-7.2,2-16.7,10.2-24.4c12.1-11.3,13.7-22.7,13.9-27c0-0.3,0-0.6,0-0.8
			C836.4,545.8,836.3,545.5,836.3,545.5z"/>
		<path class="st9" d="M804.2,616.3c-3.3,5.8-6.9,11.5-11,16.8c-1.6,1.7-2.9,13.1-2.6,18.6c0.3,5.5-2.1,30.8-11,43.9
			c-8.9,13.1-4.3,35.8-4.3,35.8l-14.2,5H744l-11.8-3.5l-3.1-8.5c0,0,4.1-0.7,14.4-3c5.8-1.2,10.1-6.1,10.6-12.1l7.2-50.2
			c0,0,2.1-12.7-1.4-21.5c-2-5-1.6-10.7,1.2-15.3l0.3-0.3c0,0,11.1-8.8,22.4-14.3c10-4.8,20.2-7.1,23.1,1.4
			C807.2,610.2,806,613,804.2,616.3z"/>
		<path class="st10" d="M804.2,616.3c-3.3,5.8-6.9,11.5-11,16.8c-1.6,1.7-2.9,13.1-2.6,18.6c0.3,5.5-2.1,30.8-11,43.9
			c-6.3,9.2-5.8,23.3-5.1,30.7c0.3,3.1,0.8,5.1,0.8,5.1l-14.2,5h-17l-11.8-3.5l-3.1-8.5c0,0,1-0.2,3.4-0.6c2.4-0.4,5.9-1.3,11.1-2.5
			c5.8-1.2,10.1-6.2,10.6-12.1l7.2-50.2c0,0,2.1-12.7-1.4-21.5c-2-5-1.6-10.7,1.2-15.3l0.3-0.3c0,0,11.1-8.8,22.4-14.3
			c10-4.8,20.2-7.1,23.1,1.4C807.2,610.2,806,613,804.2,616.3z"/>
		<path class="st0" d="M775.3,731.5l-14.2,5H744l-11.8-3.6l-3.1-8.5c0,0,1-0.2,3.4-0.6c-0.3,3.2,1.8,6.2,4.9,6.9l6.7,0.3
			c0.9,0,1.9,0.1,2.8,0.1c9.4,0,18.7-1.5,27.6-4.6C774.8,729.5,775.3,731.5,775.3,731.5z"/>
		<path class="st11" d="M744.1,732.3l-6.7-0.3c0,0-6.3-1.4-4.7-8.4c0,0-12-2.7-15.1-0.9c-3,1.8-1.6,11.8,7.1,14.2
			c8.5,2.4,40.2,5.8,49.2,4.4l0.6-0.1c8.3-1.7,0-13.5,0-13.5l0,0C764.8,731.1,754.5,732.6,744.1,732.3z"/>
		<path class="st9" d="M785.2,618.3c-0.4,0.9-0.9,1.9-1.5,2.8c-4.2,7.6-10.9,17.2-12.1,18.4c-1.8,1.9-3.2,14.8-3,21.1
			c0.3,6.3-2.4,34.8-12.4,49.6c-5.2,7.6-6.3,17.9-6.2,26.3c0,2.8,0.2,5.7,0.5,8.5c0.3,3.5,0.8,5.6,0.8,5.6l-16,5.6h-19.3l-13.3-4
			l-3.5-9.6c0,0,1.2-0.2,3.8-0.7c2.6-0.5,6.7-1.4,12.4-2.7c6.6-1.4,11.4-6.9,11.9-13.6l8.1-56.8c0,0,2.4-14.4-1.5-24.3
			c-1.5-3.6-1.8-7.7-0.9-11.6c0.5-2.2,1.4-4.2,2.5-6.1c0,0,3.1-2.5,7.8-5.7c2-1.4,4.5-3,7-4.6c11.3-7,26.1-14.1,33.2-9
			c1.6,1.2,2.7,2.9,3.3,4.7C787.4,613.3,786.6,615.5,785.2,618.3z"/>
		<path class="st0" d="M751.3,750.5l-16,5.6h-19.2l-13.3-4l-3.5-9.6c0,0,1.2-0.2,3.8-0.7c-0.3,2.4,0.5,4.7,2.3,6.3
			c1.4,1.1,3,1.8,4.7,1.8l6.1,0.2c1,0,2.1,0.1,3.2,0.1c10.6,0,21.1-1.8,31.1-5.2C750.9,748.4,751.3,750.5,751.3,750.5z"/>
		<path class="st11" d="M716.2,751.5l-6.1-0.2c-1.8,0-3.5-0.7-4.8-1.8c-1.5-1.4-2.9-3.7-2-7.7c0,0-13.5-3-17-1c-3.5,2-1.8,13.3,8,16
			c9.6,2.7,45.3,6.6,55.6,5l0.7-0.1c9.3-1.9,0-15.3,0-15.3l0,0C739.6,750.1,727.9,751.8,716.2,751.5z"/>
		<path class="st0" d="M804.2,616.3c-5.8,2-14.3,4.7-18.9,4.8c-0.5,0-0.9,0-1.4-0.1l0,0c-3.3-0.4-13.4,0.3-22.6,1.1
			c-3.7,0.3-7.3,0.7-10.2,1c-4.4,0.4-7.4,0.8-7.4,0.8v-2.9c2-1.4,4.5-3,7-4.6c11.3-7,26.1-14.1,33.2-9c10-4.8,20.2-7.1,23.1,1.4
			C807.2,610.2,806,613,804.2,616.3z"/>
		<path class="st12" d="M832,549.7c-0.2,4.3-1.8,15.4-13.3,26.6c-14.7,14.4-8.5,34.9-8.5,34.9s-17.5,6.9-25,7c-0.5,0-0.9,0-1.4-0.1
			c-4.6-0.7-22.5,1-32.9,2.1c-4.4,0.4-7.4,0.8-7.4,0.8v-60.9l81.1-19.7l7.4,7.3C832,548.4,832,549,832,549.7z"/>
		<g class="st13">
			<path d="M744.8,620.4l-1.4,0.2v0.7c0,0,3-0.3,7.4-0.8c7.4-0.8,18.8-1.8,26.3-2.1C772,617.8,754.8,619.4,744.8,620.4z"/>
			<path d="M831.9,547.8l-7.4-7.4l-4.9,1.3l6.2,6.1c0,0.6,0,1.2,0,1.9c-0.2,4.3-1.8,15.4-13.3,26.6c-14.7,14.3-8.5,34.9-8.5,34.9
				s-14.5,5.7-22.8,6.9c0.8,0,1.6,0,2.4,0.2c0.5,0.1,0.9,0.1,1.4,0.1c7.5-0.2,25-7,25-7s-6.3-20.6,8.5-34.9
				c11.5-11.2,13.1-22.4,13.3-26.6C832,549.1,832,548.5,831.9,547.8z"/>
		</g>
		<path class="st9" d="M669.9,506.6c0,0-24.5-17-26.3-1.7c-1.8,15.3,26.3,13.1,26.3,13.1V506.6z"/>
		<path class="st14" d="M712.2,495.4c0,0-13.3,8.8-20.6,8.2c0,0-20,2.7-22.4,1.4c-2.4-1.4-3.7,19.5-3.7,19.5l33-2.4l21.1-3.2
			c0,0,10.6-6.4,10.6-12C730.1,501.2,712.2,495.4,712.2,495.4z"/>
		<path class="st10" d="M712.2,495.4c0,0-13.3,8.8-20.6,8.2c0,0-20,2.7-22.4,1.4c-2.4-1.4-3.7,19.5-3.7,19.5l33-2.4l21.1-3.2
			c0,0,10.6-6.4,10.6-12C730.1,501.2,712.2,495.4,712.2,495.4z"/>
		<path class="st9" d="M692.7,539.6c0,0-29.9-1.3-23.2,12.7s29.3-3,29.3-3L692.7,539.6z"/>
		<path class="st12" d="M722.7,510c0,0-24.2-18.1-20.8-40.1c3.4-22,20.8,16.8,20.8,16.8V510z"/>
		<path class="st9" d="M716,410.1c0,8-3.1,15.6-8.6,21.2c-1.4,1.4-2.8,2.6-4.4,3.8c-3,2.1-6.4,3.7-10.1,4.7
			c-1.4,0.3-2.9,0.6-4.3,0.8c-1,0.1-2.1,0.2-3.2,0.2c-3.5,0-6.9-0.6-10.1-1.7c-15.9-5.6-24.4-23-18.8-38.9
			c5.6-15.9,23-24.4,38.9-18.8C707.8,385.6,716,397.2,716,410.1L716,410.1z"/>
		<path class="st0" d="M832,549.7c-2.7,0.5-6.1,1.4-6.1,2.9c0,2.4-38.2,15.3-38.2,15.3s1.4,3.3-2.4,9c-3.8,5.8-34.8,38.7-34.8,38.7
			l0.1,1l0.4,3.8l1.9,18.2c0,0-11.9-4.3-15.7-3.8c-1.3,0.2-2.5-0.7-3.8-1.8c0.5-2.2,1.4-4.2,2.5-6.1c0,0,3.1-2.5,7.8-5.7v-60.9
			l81.1-19.7l7.4,7.3C832,548.4,832,549.1,832,549.7z"/>
		<path class="st14" d="M835.4,546.3c0,0-9.6,0.9-9.6,3.4c0,2.5-38.2,15.3-38.2,15.3s1.4,3.3-2.4,9c-3.8,5.8-34.8,38.7-34.8,38.7
			l2.4,22.9c0,0-11.9-4.3-15.7-3.8c-1.7,0.2-3.6-1.4-5.2-3.2c-1.3-1.5-2.5-3.2-3.5-4.9c0,0,4.3-18.2-1.4-22.4s6.2-35.8,6.2-35.8
			s5.4-22.4,3.8-32.1c-0.1-0.7-0.3-1.3-0.4-1.9c0-0.1,0-0.2-0.1-0.2c-3.4-9.2-40.1-86.3-40.1-86.3c0-2.2,0.2-4.4,0.4-6.5
			c0.1-0.6,0.2-1.3,0.3-1.9c0.2-1.1,0.4-2.3,0.8-3.4c0.2-0.7,0.4-1.4,0.7-2.1c1.1-2.9,2.9-5.2,5.5-5.2c0,0,2.9-3.2,9.6-4.1
			c4.9-0.7,11.9,0,21.5,4.1c22.4,9.6,27.7,10.1,27.7,10.1l11.2,14.8l2.3,3c8.5,11.1,16.2,22.8,23,34.9c3.7,6.8,9,14.6,15.5,19.4
			C827.8,517.6,835.4,546.3,835.4,546.3z"/>
		<path class="st0" d="M751.8,491.1c0,0,31.9,7.9,44.2,27.7L751.8,491.1z"/>
		<path class="st0" d="M761.6,526c0,0,6,40.5,4.4,43.6C764.4,572.6,761.6,526,761.6,526z"/>
		<path class="st0" d="M759.4,546.7c-2.3,3-11.8,26.5-11.8,26.5l2.7,39.4l2.4,22.9c0,0-11.9-4.3-15.7-3.8c-1.7,0.2-3.6-1.4-5.2-3.2
			c2.5-13.4,7.8-41.5,8.7-42c1.3-0.7,7.7-23.3,8-29.6s9.3-20.4,9.3-20.4S761.7,543.8,759.4,546.7z"/>
		<path class="st0" d="M750.4,508.1c-0.6,1.8-1.5,12.2-1.5,12.2c-0.7,9.1-7.6,12.2-11.8,13.1c-0.1-0.7-0.3-1.3-0.4-1.9
			c-3-8.1-40.2-86.4-40.2-86.4c0-4,0.5-8,1.5-11.8c8.1-2.4,21,1.3,21,1.3c3.7-0.5,15.8,23.6,15.8,23.6s8,18.4,9,21
			c0.9,2.5,0,6.6,0.3,8c0.3,1.4,4.1,2.7,4.7,4.7s0.2,5.9,0.5,6.6C749.6,499.1,751,506.3,750.4,508.1z"/>
		<path class="st14" d="M747.5,506.6c-0.6,1.8-1.5,12.2-1.5,12.2c-0.5,7.6-5.4,11-9.6,12.4c-1.9,0.7-3.8,1-5.8,1.2l-5.8,5L698.4,557
			c0,0-9.9-18.4-7.2-18.4s18.2-13.1,18.2-13.1c4.7-2.5,9.5-11,11.7-15.3c-0.2-0.5-0.3-1-0.3-1.6c-0.9-8.1-21-39.2-21-39.2
			s-7.8-9.1-10.7-26c-0.1-0.4-0.2-0.8-0.3-1.2c-0.1-0.5-0.2-1.1-0.2-1.6c-0.3-6.5,4.4-8.9,10-9.4l0,0c3-0.3,5.9-0.2,8.8,0.3
			c2.9,0.3,5.8,0.9,8.6,1.7c2.4-0.3,8.3,9.6,12.2,16.7l0,0c2.1,3.8,3.6,6.9,3.6,6.9s8,18.4,9,21s0,6.7,0.3,8s4.1,2.7,4.7,4.7
			s0.2,5.9,0.5,6.6C746.6,497.6,748.1,504.9,747.5,506.6z"/>
		<path class="st0" d="M778.4,465.3c-5.1,5.2-13.3,5.2-19.9,2.5c-6.6-2.6-12.2-7.4-18.3-11.2c-4-2.5-8.1-4.4-12-6.9l0,0
			c-0.6-0.3-1.1-0.8-1.7-1.1c-4.5-3.2-8.4-7.3-13-10.1c-3.1-2.1-6.8-3.2-10.5-3.4c-1.7,0-3.5,0.3-5,1c-0.3,0.1-0.6,0.3-0.8,0.4
			c-1.5,0.8-3,1.9-4.2,3.2c-1.4,1.2-2.5,2.5-4,3.6c-0.1-0.4-0.2-0.8-0.3-1.2c-0.1-0.5-0.2-1.1-0.2-1.6c-1,0.1-2.1,0.2-3.2,0.2
			c-3.5,0-6.9-0.6-10.1-1.7c0-0.1,0-0.3-0.1-0.4c-1.1-6-3.2-12.4-8-15.8c-2.8-1.9-7.3-2.8-11.2-4.2c-4.7-16.2,4.7-33.2,21-37.8
			c16.2-4.7,33.2,4.7,37.8,21c1.9,6.7,1.5,13.8-1.2,20.2c4.9-0.7,11.9,0,21.5,4.1c22.4,9.6,27.7,10.1,27.7,10.1l11.2,14.8
			c-1.2,1.9-2.6,3.7-2.7,5.8C771.1,460.6,775,463.4,778.4,465.3z"/>
		<path class="st15" d="M667.3,420c4.8,3.4,6.9,9.7,8,15.7c0.3,1.9,0.7,3.9,1.9,5.3c2.5,3.3,7.8,2.4,11.1,0c3.3-2.4,6-6,9.7-7.7
			c5-2.3,10.8-0.6,15.5,2.3c4.7,2.9,8.5,7,13,10.1c4.4,3,9.2,5.2,13.7,8c6.1,3.7,11.7,8.5,18.3,11.2c6.6,2.6,14.8,2.6,19.9-2.5
			c-3.4-1.9-7.3-4.7-7-8.7c0.3-4.1,4.9-7,4.7-11.2c-0.3-4.1-5.2-5.8-8.6-7.8c-7.3-4.2-10.4-13.5-11.9-22.1
			c-1.2-6.7-2.2-14.2-7.2-18.5c-3.2-2.8-7.6-3.7-10.9-6.4c-3.1-2.6-4.8-6.6-6.8-10.2c-3.2-6.1-7.5-11.7-13.1-15.3
			s-12.8-5.1-18.9-2.6c-2.4,0.9-4.5,2.4-6.9,3.4c-5.8,2.5-12.5,2.2-18.3,4.8c-7.1,3.3-11.7,10.5-15.9,17.3
			c-3.6,5.8-10.7,16.2-8.6,23.8C650.9,416.7,661.9,416.3,667.3,420z"/>
		<g class="st13">
			<path d="M776,442.2c0-0.3-0.1-0.6-0.2-0.9c-1.3,2-2.9,4-3,6.3c0,0.5,0,1.1,0.2,1.6C774.3,446.9,776.2,444.8,776,442.2z"/>
			<path d="M760,458.9c-6.6-2.6-12.2-7.4-18.3-11.2c-4.6-2.8-9.4-5-13.8-8c-4.5-3.2-8.4-7.3-13-10.1c-4.7-2.9-10.5-4.6-15.5-2.3
				c-3.7,1.7-6.3,5.2-9.7,7.7c-3.4,2.5-8.5,3.4-11.1,0c-1.2-1.5-1.5-3.5-1.9-5.3c-1.1-6-3.2-12.3-8-15.7c-5.2-3.7-16.4-3.3-18.4-11
				c-0.3-1.4-0.4-2.8-0.3-4.2c-1.3,3.5-1.9,6.9-1.2,10c2,7.8,13.2,7.4,18.4,11c4.8,3.4,6.9,9.7,8,15.7c0.3,1.9,0.7,3.9,1.9,5.3
				c2.5,3.3,7.8,2.4,11.1,0c3.3-2.4,6-6,9.7-7.7c5-2.2,10.8-0.6,15.5,2.3c4.7,2.9,8.5,7,13,10.1c4.4,3,9.2,5.2,13.7,8
				c6.1,3.7,11.7,8.5,18.3,11.2s14.8,2.6,19.9-2.5c-1.3-0.7-2.5-1.5-3.7-2.5C770.1,461.2,764.6,460.7,760,458.9z"/>
		</g>
		<path class="st12" d="M610.3,516.7l67.7-25.3c3.3-1.3,7,0.4,8.3,3.7l0,0l0,0c1.3,3.3-0.4,7-3.8,8.3l0,0l-67.7,25.3l-14.5-1.4
			L610.3,516.7z"/>
		<path class="st16" d="M684.2,493.2L684.2,493.2c1.3,3.3-0.4,7-3.8,8.3l-67.7,25.3l-10.9-1.1l-1.5,1.7l14.5,1.4l67.7-25.3
			c3.3-1.3,5-5,3.8-8.3l0,0l0,0c-0.5-1.4-1.4-2.5-2.6-3.2C683.8,492.4,684,492.8,684.2,493.2z"/>
		<polygon class="st17" points="610.3,516.7 614.8,528.7 602.9,527.5 600.3,527.3 603.8,523.6 		"/>
		<path class="st18" d="M603.8,523.6c0.3,0.2,0.5,0.4,0.7,0.8c0.3,0.3,0.3,0.8,0,1.2c-0.2,0.2-0.4,0.3-0.7,0.4
			c-0.6,0.3-0.9,0.9-0.9,1.6l-2.6-0.3L603.8,523.6z"/>
	</g>
</g>
</svg>
