<?xml version="1.0" encoding="utf-8"?>
<!-- Generator: Adobe Illustrator 19.0.0, SVG Export Plug-In . SVG Version: 6.00 Build 0)  -->
<svg version="1.1" xmlns="http://www.w3.org/2000/svg" xmlns:xlink="http://www.w3.org/1999/xlink" x="0px" y="0px"
	 viewBox="0 0 1000 1000" style="enable-background:new 0 0 1000 1000;" xml:space="preserve">
<style type="text/css">
	.st0{fill:#F2F2F2;}
	.st1{fill:#2F2E41;}
	.st2{fill:#FFB9B9;}
	.st3{opacity:0.1;enable-background:new    ;}
	.st4{fill:#575A89;}
	.st5{opacity:0.2;enable-background:new    ;}
	.st6{fill:#6C63FF;}
	.st7{opacity:0.2;fill:none;stroke:#000000;stroke-width:2;stroke-miterlimit:10;enable-background:new    ;}
	.st8{fill:#9F616A;}
	.st9{fill:#D0CDE1;}
	.st10{fill:none;stroke:#3F3D56;stroke-width:2;stroke-miterlimit:10;}
	.st11{fill:#3F3D56;}
	.st12{fill:#57B894;}
</style>
<circle id="_x23_background" class="st0" cx="477.5" cy="460.5" r="389.9"/>
<g>
	<g id="_x23_woman_x28_sit_x2C_play_x5B_computer_x5D__x29_">
		<path class="st1" d="M793.1,516.9c0,0,2,6.8-9.5,12.9c-11.5,6.1-14.9,29.2-1.4,36c13.6,6.8,17.7,15.6,10.9,21.7
			c-6.8,6.1-19,22.4-2.7,26.5c16.3,4.1,18.3,12.2,13.6,15.6s10.9-6.1,10.9-6.1s2.7,16.3,17,12.2s54.3-81.5,34-92.4
			C845.4,532.5,793.1,516.9,793.1,516.9z"/>
		<path class="st2" d="M817.7,582.5c0,0,7,24.7-5.3,26.4c-7.7,1.2-14.9,4.2-21.1,8.8l22.9,29.9h42.3l26.4-26.4
			c0,0-35.2-26.4-28.2-42.3C861.8,563.1,817.7,582.5,817.7,582.5z"/>
		<path class="st3" d="M817.7,582.5c0,0,7,24.7-5.3,26.4c-7.7,1.2-14.9,4.2-21.1,8.8l22.9,29.9h42.3l26.4-26.4
			c0,0-35.2-26.4-28.2-42.3C861.8,563.1,817.7,582.5,817.7,582.5z"/>
		<polygon class="st2" points="828.3,889 868.8,903.1 897,904.9 895.2,880.2 837.1,863 		"/>
		<path class="st4" d="M880.3,883.8c0,0,0,24.7,3.5,24.7c3.5,0,51.1-5.3,65.2,0c14.1,5.3,35.2-14.1,24.7-24.7s-27.8-26.4-38.6-22.9
			s-54.8,12.3-54.8,12.3V883.8z"/>
		<path class="st4" d="M750.8,860.9c0,0-21.1,42.3-7,45.8c14.1,3.5,29.9-1.8,31.7-3.5c1.8-1.8,26.4-8.8,29.9-5.3
			c3.5,3.5,3.5-14.1,3.5-14.1L750.8,860.9z"/>
		<path class="st1" d="M768.4,802.7c0,0-33.5,45.8-8.8,58.1s142.7,12.3,151.5,0c8.8-12.3,12.3-51.1,0-54.6
			C898.7,802.7,768.4,802.7,768.4,802.7z"/>
		<path class="st5" d="M768.4,802.7c0,0-33.5,45.8-8.8,58.1s142.7,12.3,151.5,0c8.8-12.3,12.3-51.1,0-54.6
			C898.7,802.7,768.4,802.7,768.4,802.7z"/>
		<circle class="st2" cx="831.8" cy="554.3" r="40.5"/>
		<path class="st6" d="M768.4,617.7l35.2-7c0,0,8.8,28.2,37,22.9c28.2-5.3,35.2-22.9,35.2-22.9s21.1,8.8,22.9,8.8
			s24.7,8.8,24.7,14.1c0,5.3-26.4,58.1-26.4,58.1l3.5,95.1l-130.4-3.5L779,690L768.4,617.7z"/>
		<path class="st2" d="M749,663.6c0,0-10.6,93.4-3.5,100.4s35.2,26.4,35.2,26.4v-21.1l-14.1-26.4l14.1-61.7L749,663.6z"/>
		<path class="st2" d="M931.3,660.9c0,0-6.2,96-6.2,99.5c0,3.5-15.9,15.9-21.1,15.9c-5.3,0-8.8-8.8-8.8-8.8l12.3-14.1l-8.8-72.2
			L931.3,660.9z"/>
		<path class="st1" d="M914.6,795.7c0,0,79.3-44,81,0c1.8,44-40.5,61.7-40.5,61.7s-109.2,32.8-113.6,20.8s-13.2-31.3-6.2-33.1
			c7-1.8,15.9-5.3,19.4-1.8c3.5,3.5,47.6-26.4,47.6-26.4L914.6,795.7z"/>
		<path class="st7" d="M951.6,790.4c0,0-15.9,7-21.1,12.3c-5.3,5.3-28.2,14.1-28.2,14.1"/>
		<path class="st6" d="M779,621.3l-10.6-3.5c0,0-38.8,40.5-26.4,51.1c12.3,10.6,19.4,14.1,22.9,17.6c3.5,3.5,21.1,5.3,21.1,5.3
			L779,621.3z"/>
		<path class="st6" d="M907.6,630.1l15.9,3.5c0,0,12.3,26.4,15.9,29.9c3.5,3.5-5.3,1.8-10.6,8.8c-5.3,7-10.6,19.4-21.1,19.4
			s-24.7-17.6-24.7-17.6L907.6,630.1z"/>
		<path class="st1" d="M771.9,811.5c0,0-66.9-47.6-89.8-12.3c-22.9,35.2,98.7,82.8,116.3,89.8c17.6,7,33.5,14.1,33.5,14.1
			s15.9-38.8,15.9-45.8c0-7-12.3-7-15.9-7s-19.4-3.5-22.9-8.8C805.4,836.2,771.9,811.5,771.9,811.5z"/>
		<path class="st7" d="M734.9,799.2c0,0,17.6,14.1,33.5,17.6s21.1,12.3,21.1,12.3"/>
		<path class="st4" d="M759.8,733l1.4,74.6c0.1,5.1,4.3,9.2,9.4,9.2l138.8-1.6c4.9-0.1,8.9-3.9,9.2-8.8l4.2-73
			c0.3-5.1-3.6-9.6-8.8-9.9c-0.2,0-0.4,0-0.5,0H769.1c-5.2,0-9.3,4.2-9.3,9.3C759.8,732.8,759.8,732.9,759.8,733z"/>
		<path class="st1" d="M834,503.4c0,0,2.3,7.5-10.5,14.3c-12.8,6.8-16.6,32.4-1.5,39.9c15.1,7.5,19.6,17.3,12,24.1
			s-21.1,24.8-3,29.3c18.1,4.5,20.3,13.5,15.1,17.3c-5.3,3.8,12-6.8,12-6.8s3,18.1,18.8,13.5c15.8-4.5,31.6-86.6,14-107.7
			C874.4,507.7,834,503.4,834,503.4z"/>
		<path class="st1" d="M829.2,495.7c0-11,33-3.1,47.1,12.3c9.8,10.7,24.7,26.7,12.2,38s21.4,26.1,30.4,30.6s27,18.2,10.8,27.5
			c-16.2,9.2-15.9,18.5-9.8,20.7s-13.4-3.3-13.4-3.3s2,18.2-14.5,18.1c-16.4-0.1-63.6-90.4-52.3-115.5
			C850.2,500.7,829.2,495.7,829.2,495.7z"/>
		<path class="st1" d="M836.3,493.3c-44.1-2.7-48.5,30.5-48.5,30.5c0.3,19.2,30.8,9.9,39.3,12.7c10.2-7.4,29.9-21.3,44-31.2
			C860.9,498.1,848.8,493.9,836.3,493.3z"/>
	</g>
	<g id="_x23_man_x28_stand_x2C_hold_x5B_phone_x5D__x29_">
		<path class="st1" d="M157.2,888.5l6.7-5c0,0,4.4,24.7-0.5,28.4c-4.9,3.7-23.4,9.9-23.4,17.2s-41.9,17.2-43.1,6.2
			c-1.2-11.1,3.7-17.2,3.7-17.2s19.7-19.7,22.2-23.4c2.5-3.7,8.6-11.1,8.6-11.1L157.2,888.5z"/>
		<path class="st1" d="M58.6,581.8c0,0,0.2,1.1,0.5,3.1c0.3,1.8,0.7,4.2,1.2,7.3c5.2,31.6,20.3,124.5,19.2,127.6
			c-1.2,3.7-9.9,17.2,0,20.9c0.9,0.4,2,1.5,3.1,3.3c2.1,3.9,3.9,8,5.2,12.3c5.9,17,12.2,44.3,15.8,63.2c1.6,8.3,2.7,15,3,18.5
			c0.1,0.8,0.1,1.6,0,2.4c-1.2,4.9,7.4,22.2,11.1,27.1c3.7,4.9,9.9,9.9,8.6,14.8c-1.2,4.9,30.8,18.5,34.5,9.9
			c3.7-8.6,3.7-13.6,4.9-16c1.2-2.5,2.5-19.7-3.7-22.2c-6.2-2.5-2.5-45.6-8.6-54.2c-2.1-2.9-5.2-12.6-8.5-24.3
			c-1.3-4.6-2.6-9.5-3.9-14.4c-5.2-20-9.8-40.2-9.8-40.2l1.2-144.1l-67.8-8.6l-1.7,3.8l-3.5,7.6L58.6,581.8z"/>
		<path class="st1" d="M54.9,818.3c0,0-9.9-9.9-14.8,0s-9.9,48-18.5,56.7c-8.6,8.6-19.7,51.7-7.4,54.2c12.3,2.5,25.9-3.7,27.1-11.1
			c1.2-7.4,27.1-45.6,27.1-49.3s-17.2-17.2-17.2-17.2L54.9,818.3z"/>
		<path class="st1" d="M206.5,514.1c0,0-16,144.1-19.7,157.7c-3.7,13.6-23.4,65.3-29.6,73.9c-6.2,8.6-45.6,78.8-50.5,82.5
			c-4.9,3.7-14.8,13.6-14.8,13.6S73.4,860.2,71,863.9s-23.4-7.4-24.6-14.8s1.2-19.7,2.5-24.6c1.2-4.9-2.5-12.3,1.2-16
			s22.2-22.2,22.2-30.8c0-8.6,32-59.1,44.3-70.2c12.3-11.1,9.9-29.6,9.9-29.6v-75.1l-67.8-20.9c0,0,3.7-59.1,12.3-59.1
			S192.9,503,206.5,514.1z"/>
		<circle class="st8" cx="106.7" cy="267.7" r="40.7"/>
		<path class="st8" d="M120.2,299.7c0,0,4.9,18.5,11.1,23.4c6.2,4.9-16,25.9-16,25.9l-41.9,2.5L66,328c0,0,13.6-27.1,9.9-44.3
			S120.2,299.7,120.2,299.7z"/>
		<path class="st6" d="M137.5,320.7c0,0-11.1,1.2-13.6,4.9c-2.5,3.7-19.7,14.8-33.3,12.3c-13.6-2.5-22.2-6.2-24.6-4.9
			c-2.5,1.2-7.4,27.1-7.4,27.1l13.6,39.4l-2.5,108.4L66,537.5c0,0-7.4-9.9,22.2-3.7s67.8-4.9,80.1-6.2c12.3-1.2,33.3-4.9,34.5-12.3
			c1.2-7.4-3.7-34.5-3.7-34.5l-19.7-82.5L167,353.9L137.5,320.7z"/>
		<path class="st9" d="M125.8,315.1c0,0,10.4-5.5,14.1-0.6c3.7,4.9,50.5,12.3,50.5,16s9.9,103.5,7.4,112.1s4.9,18.5,4.9,18.5l8.6,37
			c0,0,23.4,70.2,13.6,72.7c-9.9,2.5-18.5,0-22.2,0s-2.5-46.8-12.3-59.1c-9.9-12.3-23.4-43.1-25.9-49.3s-33.3-91.2-32-101
			C133.8,351.4,125.8,315.1,125.8,315.1z"/>
		<path class="st9" d="M74.7,320.7c0,0-9.9,0-11.1,2.5c-1.2,2.5-13.6,18.5-18.5,22.2S22.9,365,22.9,368.7s35.7,30.8,35.7,30.8
			s14.8,72.7,7.4,97.3c-7.4,24.6-18.5,83.8-13.6,87.5c4.9,3.7,16,4.9,16,0c0-4.9,7.4-57.9,13.6-69c6.2-11.1,24.6-81.3,17.2-101
			S74.7,320.7,74.7,320.7z"/>
		<path class="st8" d="M237.3,442.6c0,0,1.2,38.2-12.3,57.9c-13.6,19.7-22.2,41.9-22.2,41.9s-22.2-6.2-25.9-13.6s-27.1-1.2-27.1-3.7
			c0-2.5,28.3-14.8,30.8-17.2c2.5-2.5,11.1-2.5,16-7.4c4.9-4.9,6.2-16,6.2-16l4.9-32L237.3,442.6z"/>
		<path class="st1" d="M134.7,242.6c3.1-0.3,6.4-0.6,9.1-2.1c6.2-3.3,7.8-12.9,3.1-18.1c-1.3-1.3-2.8-2.5-4.3-3.5l-9.4-6.4
			c-4.1-2.8-8.4-5.7-13.2-7c-4.4-1.2-9-1.1-13.5-0.8c-8.8,0.5-17.6,1.7-25.9,4.7c-8.3,3-16,8.1-21,15.3c-7.9,11.5-8,26.9-3.7,40.2
			s12.7,24.8,20.8,36.1l4.2-20.7c0.4-1.8,0.9-3.9,2.4-5c3.8-2.7,8.5,2.9,13.1,2.8c3,0,5.5-2.5,6.7-5.3s1.2-5.9,1.5-8.9
			c0.6-6.3,2.8-15.2,8.8-18.7C119.1,242.2,128.4,243.2,134.7,242.6z"/>
		<path class="st3" d="M132.4,582.8c0,0-4.2,120.3-6.6,124s0-124.4,0-124.4L132.4,582.8z"/>
		<path class="st9" d="M180.6,330.5h9.9c0,0,41.9,56.7,37,60.4c-4.9,3.7,0,13.6,0,13.6l9.9,18.5c0,0,12.3,11.1,8.6,13.6
			c-3.7,2.5-8.6,12.3-8.6,12.3s-24.6-3.7-32,11.1l-16-20.2L180.6,330.5z"/>
		
			<rect x="161.9" y="353.1" transform="matrix(-0.9243 0.3817 -0.3817 -0.9243 494.5137 676.3594)" class="st1" width="36.6" height="68.2"/>
		
			<ellipse transform="matrix(-0.3817 -0.9243 0.9243 -0.3817 -105.4369 688.4248)" class="st6" cx="177.5" cy="379.5" rx="6.7" ry="7.3"/>
		<path class="st8" d="M156,429.1c0,0-88.7,73.9-103.5,50.5s16-43.1,16-43.1s27.1,1.2,57.9-18.5l30.8-13.6c0,0,28.1-40.1,37.7-24.9
			S178.5,421.4,156,429.1z"/>
		<path class="st9" d="M36.5,363.8l-13.6,4.9v37L18,413c0,0,1.2,14.8,4.9,18.5c3.7,3.7,11.1,2.5,8.6,11.1
			c-1.5,5.6-1.9,11.5-1.2,17.2c0,0,22.2,28.3,23.4,24.6c1.2-3.7,18.5-49.3,20.9-49.3S50,363.8,50,363.8H36.5z"/>
		<path class="st1" d="M198.5,550.4c0,0,12.7-12.3,6.4-12.9s-28.5-12.9-32.2-6.8S198.5,550.4,198.5,550.4z"/>
	</g>
</g>
<g id="_x23_chart_x28_have_x5B_money_x2C_arrow_x5D__x29_">
	<path class="st10" d="M823.7,705.1c0,0-39.6-185.4-287.2-320"/>
	<polygon class="st11" points="546.7,381.1 547.2,383.2 537.2,385.6 540.4,395.4 538.4,396.1 534.5,384.1 	"/>
	<ellipse class="st12" cx="440.7" cy="306" rx="17.8" ry="9.4"/>
	<path class="st10" d="M508.6,337.4c-40.1-15.1-80.1-15.1-120.2,0v-49.1c39.2-11.8,81-11.8,120.2,0V337.4z"/>
	<path class="st10" d="M491.9,327.2c-28.9-10.9-57.8-10.9-86.8,0v-35.5c28.3-8.5,58.5-8.5,86.8,0V327.2z"/>
	<ellipse class="st10" cx="447" cy="301.8" rx="17.8" ry="9.4"/>
	<ellipse transform="matrix(-0.2 -0.9798 0.9798 -0.2 184.5226 880.8734)" class="st12" cx="451.9" cy="365.1" rx="9.4" ry="17.8"/>
	<path class="st10" d="M524.7,382.2c-42.3-6.8-81.5,1.2-117.8,24l-9.8-48.1c36-19.4,77-27.8,117.8-24L524.7,382.2z"/>
	<path class="st10" d="M506.3,375.6c-30.5-4.9-58.9,0.9-85,17.3l-7.1-34.7c26-14,55.6-20.1,85-17.3L506.3,375.6z"/>
	<ellipse transform="matrix(-0.2 -0.9798 0.9798 -0.2 196.1361 879.6541)" class="st10" cx="457.2" cy="359.8" rx="9.4" ry="17.8"/>
	
		<ellipse transform="matrix(-0.9976 -6.941868e-02 6.941868e-02 -0.9976 865.9161 877.2457)" class="st12" cx="448.2" cy="423.6" rx="17.8" ry="9.4"/>
	<path class="st10" d="M513.8,459.6c-38.9-17.9-78.9-20.7-119.9-8.3l3.4-49c39.9-9.1,81.6-6.2,119.9,8.3L513.8,459.6z"/>
	<path class="st10" d="M497.8,448.3c-28.1-12.9-56.9-14.9-86.6-6l2.5-35.4c28.8-6.6,58.9-4.5,86.6,6L497.8,448.3z"/>
	
		<ellipse transform="matrix(-0.9976 -6.941868e-02 6.941868e-02 -0.9976 879.2535 870.2377)" class="st10" cx="454.7" cy="419.8" rx="17.8" ry="9.4"/>
	<path class="st10" d="M370.6,338.5c0,0-76.8-10.5-131.7,21.6"/>
	<polygon class="st11" points="240.7,349.3 242.7,350 239.6,359.8 249.6,362.2 249.2,364.2 236.9,361.3 	"/>
</g>
</svg>
