<?xml version="1.0" encoding="utf-8"?>
<!-- Generator: Adobe Illustrator 19.0.0, SVG Export Plug-In . SVG Version: 6.00 Build 0)  -->
<svg version="1.1" xmlns="http://www.w3.org/2000/svg" xmlns:xlink="http://www.w3.org/1999/xlink" x="0px" y="0px"
	 viewBox="-917 917.7 1000 1000" style="enable-background:new -917 917.7 1000 1000;" xml:space="preserve">
<style type="text/css">
	.st0{opacity:0.1;enable-background:new    ;}
	.st1{fill:#6C63FF;}
	.st2{opacity:0.1;fill:#6C63FF;enable-background:new    ;}
	.st3{fill:#FFD037;}
	.st4{fill:#65617D;}
	.st5{fill:#9D9CB5;}
	.st6{opacity:0.2;}
	.st7{opacity:0.2;fill:#FFFFFF;enable-background:new    ;}
	.st8{opacity:0.2;fill:#6C63FF;enable-background:new    ;}
	.st9{fill:#FFFFFF;}
	.st10{opacity:0.5;}
	.st11{fill:#F6F7F9;}
	.st12{fill:#B07473;}
	.st13{fill:#EFB7B9;}
	.st14{fill:#444053;}
	.st15{fill:#E1E7EF;}
	.st16{fill:#67647E;}
	.st17{fill:#585268;}
	.st18{opacity:0.1;}
</style>
<g id="_x23_background">
	<g class="st0">
		<g>
			<path class="st1" d="M-293.2,1128.3c-40.7,28.3-93.5,26.5-139.7,11.7c-46.2-14.8-88.7-41-133.8-59.7
				c-37.5-15.6-77.1-25.8-117.6-30.5c-57.4-6.5-121.6,1.4-161.6,47.2c-44.5,51-41.2,142.9,7.1,189.8c24.5,23.8,56.6,35.5,84.6,54.1
				c28,18.6,53.9,49.4,51.6,85.3c-2.2,33.2-27.9,58.7-54.5,74.7c-20.5,12.4-45.8,25.8-48.3,51.5c-2.4,24.8,18.9,44.1,39.1,55.2
				c66.2,36.1,147.8,35.7,213.7-0.9c23.5-13,45.2-30.4,69.8-40.6c64.8-26.7,136.2,0.2,204.8,10c58.3,8.3,117.7,4,174.2-12.6
				c34-9.9,68.1-25.3,92-53.6c17.2-20.4,28-46.5,38-72c10.7-27.3,21-54.8,30.9-82.5c5.9-16.6,11.8-33.5,13.3-51.4
				c2.8-32.2-8.9-64.1-24.9-91.3C7.8,1148.2-56,1102.8-125.1,1091.3s-142.3,11-195.9,60.3"/>
		</g>
	</g>
</g>
<g id="_x23_accessory_x28_have_x5B_plant_x5D__x29_">
	<g>
		<g>
			<ellipse class="st2" cx="-200.8" cy="1662.1" rx="74.2" ry="11.3"/>
			<ellipse class="st2" cx="-590.4" cy="1776.9" rx="36.7" ry="5.7"/>
			<ellipse class="st2" cx="-356.5" cy="1747.8" rx="36.7" ry="5.7"/>
			<ellipse class="st2" cx="-525.4" cy="1707.2" rx="36.7" ry="5.7"/>
			<ellipse class="st2" cx="-415.6" cy="1673.5" rx="36.7" ry="5.7"/>
			<path class="st1" d="M-11.7,1609.5c0,0,6.1,8.1-2.9,20.3c-9,12.2-16.4,22.4-13.4,29.9c0,0,13.6-22.6,24.7-23
				C7.8,1636.5,0.5,1623-11.7,1609.5z"/>
			<path class="st0" d="M-11.7,1609.5c0.6,0.7,0.9,1.7,1.3,2.5c10.8,12.7,16.5,24.5,6.1,24.8c-9.7,0.3-21.3,17.6-24.1,21.9
				c0.1,0.4,0.2,0.7,0.4,1c0,0,13.6-22.6,24.7-23C7.7,1636.6,0.5,1623-11.7,1609.5z"/>
			<path class="st3" d="M-0.3,1619.7c0,2.9-0.3,5.1-0.7,5.1s-0.7-2.3-0.7-5.1c0-2.8,0.4-1.5,0.8-1.5
				C-0.4,1618.2-0.3,1616.9-0.3,1619.7z"/>
			<path class="st3" d="M3.6,1623.1c-2.5,1.4-4.6,2.1-4.8,1.9c-0.2-0.3,1.7-1.8,4.2-3.1c2.5-1.3,1.5-0.4,1.7,0
				C4.9,1622.3,6.2,1621.8,3.6,1623.1z"/>
			<path class="st1" d="M-44.3,1609.5c0,0-6.1,8.1,2.9,20.3c9,12.2,16.4,22.5,13.5,30c0,0-13.7-22.6-24.7-23
				C-63.7,1636.4-56.5,1623-44.3,1609.5z"/>
			<path class="st0" d="M-44.3,1609.5c-0.6,0.7-0.9,1.7-1.2,2.5c-10.8,12.7-16.5,24.5-6.2,24.8c9.7,0.3,21.3,17.6,24.1,21.9
				c-0.1,0.4-0.2,0.7-0.3,1c0,0-13.7-22.6-24.7-23C-63.7,1636.4-56.5,1623-44.3,1609.5z"/>
			<path class="st3" d="M-55.8,1619.7c0,2.9,0.3,5.1,0.7,5.1s0.7-2.3,0.7-5.1c0-2.8-0.4-1.5-0.7-1.5
				C-55.5,1618.2-55.8,1616.9-55.8,1619.7z"/>
			<path class="st3" d="M-59.7,1623.1c2.5,1.4,4.6,2.1,4.8,1.9c0.2-0.3-1.7-1.8-4.2-3.1c-2.5-1.3-1.5-0.4-1.7,0
				C-60.9,1622.3-62.2,1621.8-59.7,1623.1z"/>
			<ellipse class="st2" cx="-28" cy="1711.7" rx="64.5" ry="9.9"/>
			<path class="st4" d="M5.2,1648.9l-0.3,2.5l-0.5,3.5l-0.2,1.5l-0.5,3.5l-0.2,1.5l-0.5,3.5l-4.9,40.5c-0.5,3.6-6.3,6.4-13.5,6.4
				H-41c-7.2,0-13-2.8-13.5-6.4l-4.9-40.5l-0.5-3.5l-0.2-1.5l-0.5-3.5l-0.2-1.5l-0.5-3.5l-0.3-2.5c-0.3-2,3-3.8,7-3.8h52.5
				C2.2,1645.1,5.5,1646.9,5.2,1648.9z"/>
			<polygon class="st5" points="4.9,1651.5 4.5,1655 -60.5,1655 -60.9,1651.5 			"/>
			<polygon class="st5" points="4.3,1656.5 3.8,1660 -59.9,1660 -60.3,1656.5 			"/>
			<polygon class="st5" points="3.6,1661.5 3.3,1665 -59.3,1665 -59.6,1661.5 			"/>
		</g>
	</g>
</g>
<g id="_x23_other_x28_have_x5B_bulletin_x5D__x29_">
	<path class="st1" d="M-713.6,1219h683.8c15.6,0,28.2,12.6,28.2,28.2v294.5c0,15.6-12.6,28.2-28.2,28.2h-683.8
		c-15.6,0-28.2-12.6-28.2-28.2v-294.6C-741.9,1231.6-729.2,1219-713.6,1219z"/>
	<g class="st6">
		<path class="st7" d="M-590.1,1506h-119.7c-14.3,0-25.9-11.6-25.9-25.9l0,0v-171.4c0-14.3,11.6-25.9,25.9-25.9l0,0h119.7V1506z"/>
	</g>
	<g class="st6">
		<path class="st7" d="M-33.7,1506h-119.7v-223.3h119.7c14.3,0,25.9,11.6,25.9,25.9l0,0v171.5C-7.7,1494.4-19.3,1506-33.7,1506z"/>
	</g>
	<g class="st6">
		<rect x="-299" y="1282.7" class="st7" width="145.6" height="223.3"/>
	</g>
	<g class="st6">
		<rect x="-444.7" y="1282.7" class="st7" width="145.6" height="223.3"/>
	</g>
	<g class="st6">
		<rect x="-590.4" y="1282.7" class="st8" width="145.6" height="223.3"/>
	</g>
	<path class="st9" d="M-507.6,1381.7c-1.2,0-2.1-0.9-2.1-2.1l0,0v-6.1c0-1.2,0.9-2.1,2.1-2.1s2.1,0.9,2.1,2.1l0,0v6.1
		C-505.4,1380.7-506.4,1381.7-507.6,1381.7z"/>
	<path class="st9" d="M-518.3,1386c-0.6,0-1.1-0.2-1.5-0.7l-4.3-4.3c-0.8-0.7-0.9-2.1-0.2-3c0.7-0.8,2.1-0.9,3-0.2
		c0.1,0.1,0.1,0.1,0.2,0.2l4.4,4.3c0.8,0.8,0.8,2.1,0,3C-517.1,1385.9-517.7,1386-518.3,1386L-518.3,1386z"/>
	<path class="st9" d="M-492.5,1411.8c-0.6,0-1.1-0.2-1.5-0.7l-4.3-4.3c-0.8-0.7-0.9-2.1-0.2-3c0.7-0.8,2.1-0.9,3-0.2
		c0.1,0.1,0.1,0.1,0.2,0.2l4.3,4.3c0.8,0.8,0.8,2.1,0,3C-491.5,1411.5-492,1411.7-492.5,1411.8L-492.5,1411.8z"/>
	<path class="st9" d="M-486.4,1396.7h-6.1c-1.2,0-2.1-0.9-2.1-2.1c0-1.2,0.9-2.1,2.1-2.1h6.1c1.2,0,2.1,0.9,2.1,2.1
		C-484.2,1395.8-485.2,1396.7-486.4,1396.7L-486.4,1396.7z"/>
	<path class="st9" d="M-496.9,1386c-1.2,0-2.1-0.9-2.1-2.1c0-0.6,0.2-1.1,0.7-1.5l4.3-4.3c0.8-0.8,2.1-0.8,3,0c0.8,0.8,0.8,2.1,0,3
		l0,0l-4.3,4.3C-495.8,1385.9-496.3,1386-496.9,1386z"/>
	<path class="st9" d="M-496.3,1394.6c0-6.1-4.9-11.2-11.2-11.2c-3.6,0-7,1.8-9.1,4.6c-7.5-4.3-17.1-1.6-21.4,5.9
		c-0.5,0.8-0.8,1.7-1.1,2.5c-1.2-0.1-2.4-0.1-3.6,0.2c-5.7,1.3-9.1,7-7.8,12.6c1.1,4.7,5.4,8.1,10.2,8.1h28.2c0.9,0,1.9-0.1,2.8-0.4
		c6.3-1.5,10.3-7.7,9.1-14.1C-497.8,1400.9-496.4,1397.8-496.3,1394.6z M-510.3,1413.1c-0.7,0.2-1.2,0.2-1.9,0.2h-28.2
		c-3.4,0-6.2-2.9-6.2-6.3c0-2.9,2-5.4,4.8-6c0.5-0.1,0.9-0.2,1.5-0.2c0.7,0,1.4,0.1,2,0.4c0.6,0.2,1.2,0.1,1.8-0.2
		c0.6-0.3,0.9-0.8,1-1.4c1.3-6.2,7.3-10.2,13.6-8.9c3.3,0.7,6.1,2.8,7.7,5.7v0.1c0.4,0.7,1.1,1.1,2,1.1h0.2c2.7,0,5.3,1.4,6.7,3.7
		c0.5,0.7,0.7,1.5,0.9,2.3c0.1,0.6,0.2,1.1,0.2,1.8C-504.2,1408.9-506.7,1412.2-510.3,1413.1z M-504.6,1395.8
		c-1.9-1.5-4.2-2.3-6.5-2.5c-0.6-0.9-1.3-1.8-2-2.6c2.1-3.2,6.5-4,9.7-1.9s4,6.5,1.9,9.7c-0.1,0.1-0.1,0.2-0.2,0.3
		C-502.6,1397.7-503.6,1396.6-504.6,1395.8z"/>
	<g class="st10">
		<path class="st9" d="M-340.8,1392c-1.2-5.1-5.6-8.9-10.9-9.3c-4.7-7.2-14.4-9.4-21.7-4.6c-1.6,1-2.9,2.2-4,3.7
			c-6.4,0.3-11.9,4.5-14,10.5c-5.8-0.7-11,3.5-11.6,9.3c-0.7,5.8,3.5,11,9.3,11.6c0.4,0,0.7,0.1,1.1,0.1h28.2c0.9,0,1.9-0.1,2.8-0.4
			c3.3-0.7,6.1-2.9,7.8-5.9h1.2c0.9,0,1.9-0.1,2.8-0.4C-343.3,1405.1-339.2,1398.6-340.8,1392L-340.8,1392z M-359.2,1406.9
			c-0.9,0.9-2.1,1.5-3.4,1.9c-0.7,0.2-1.2,0.2-1.9,0.2h-28.2c-3.4,0-6.3-2.8-6.3-6.2c0-2.9,2-5.5,4.8-6.1c0.9-0.2,1.9-0.2,2.8,0
			c0.2,0.1,0.5,0.1,0.7,0.2c1.1,0.4,2.3-0.2,2.7-1.3c0-0.1,0.1-0.2,0.1-0.3c1.1-5.3,5.8-9.1,11.2-9.1c0.6,0,1,0,1.6,0.1
			c3.6,0.5,6.8,2.7,8.5,5.9c0.4,0.7,1.1,1.1,2,1.1h0.2c4.4,0,7.9,3.5,7.9,7.9C-356.5,1403.3-357.4,1405.5-359.2,1406.9
			L-359.2,1406.9z M-350.8,1402.5c-0.6,0.1-1.1,0.2-1.7,0.2c0.2-1.5,0.1-3-0.2-4.5c-1.2-5.1-5.6-8.9-10.9-9.3
			c-2-3.2-5.1-5.4-8.6-6.5c4.8-4.1,12.1-3.4,16.2,1.5c0.5,0.6,0.9,1.2,1.3,2c0.4,0.7,1.1,1.1,2,1.1h0.2c4.4,0,7.9,3.5,7.9,7.9
			C-344.7,1398.4-347.2,1401.6-350.8,1402.5L-350.8,1402.5z"/>
	</g>
	<g class="st10">
		<path class="st9" d="M-70.7,1412l-1.4-0.8l1.4-0.7c0.6-0.3,0.7-0.9,0.4-1.5c-0.3-0.6-0.9-0.7-1.5-0.4l0,0l-1.4,0.8v-1.5
			c0.1-0.6-0.4-1.1-0.9-1.1c-0.6-0.1-1.1,0.4-1.1,0.9c0,0.1,0,0.1,0,0.2v1.6l-1.4-0.7c-0.6-0.3-1.2-0.1-1.5,0.4
			c-0.3,0.6-0.1,1.2,0.4,1.5l1.4,0.7l-1.4,0.7c-0.5,0.3-0.7,0.9-0.4,1.4l0,0c0.2,0.4,0.6,0.6,0.9,0.6c0.2,0,0.4-0.1,0.6-0.2l1.4-0.7
			v1.6c0.1,0.6,0.6,1,1.1,0.9c0.5-0.1,0.9-0.5,0.9-0.9v-1.6l1.4,0.7c0.2,0.1,0.4,0.2,0.6,0.2c0.4,0,0.7-0.2,0.9-0.6
			C-70.1,1413-70.1,1412.3-70.7,1412L-70.7,1412z"/>
		<path class="st9" d="M-77.1,1403.1l-1.4-0.7l1.4-0.8c0.5-0.3,0.7-0.9,0.4-1.4l0,0c-0.3-0.5-0.9-0.7-1.4-0.4l0,0l-1.4,0.8v-1.6
			c-0.1-0.6-0.6-1-1.1-0.9c-0.5,0.1-0.9,0.5-0.9,0.9v1.6l-1.4-0.7c-0.6-0.3-1.2-0.1-1.5,0.4c-0.3,0.6-0.1,1.2,0.4,1.5l1.4,0.7
			l-1.4,0.7c-0.5,0.3-0.7,0.9-0.4,1.4c0.2,0.4,0.6,0.6,0.9,0.6c0.2,0,0.4-0.1,0.6-0.1l1.4-0.7v1.6c0.1,0.6,0.6,1,1.1,0.9
			s0.9-0.5,0.9-0.9v-1.6l1.3,0.7c0.2,0.1,0.4,0.1,0.6,0.1c0.6,0,1-0.5,1-1.1C-76.6,1403.7-76.7,1403.4-77.1,1403.1L-77.1,1403.1z"/>
		<path class="st9" d="M-83.4,1412l-1.4-0.8l1.4-0.7c0.6-0.3,0.7-0.9,0.4-1.5c-0.3-0.6-0.9-0.7-1.5-0.4l-1.4,0.8v-1.5
			c0.1-0.6-0.4-1.1-0.9-1.1c-0.6-0.1-1.1,0.4-1.1,0.9c0,0.1,0,0.1,0,0.2v1.6l-1.3-0.7c-0.6-0.3-1.2-0.1-1.5,0.4s-0.1,1.2,0.4,1.5
			l0,0l1.4,0.7l-1.4,0.7c-0.5,0.3-0.7,0.9-0.4,1.4l0,0c0.2,0.4,0.6,0.6,0.9,0.6c0.2,0,0.4-0.1,0.6-0.2l1.3-0.7v1.6
			c0.1,0.6,0.6,1,1.1,0.9c0.5-0.1,0.9-0.5,0.9-0.9v-1.6l1.4,0.7c0.2,0.1,0.4,0.2,0.6,0.2c0.6,0,1-0.5,1-1.1
			C-82.9,1412.5-83.1,1412.2-83.4,1412L-83.4,1412z"/>
		<path class="st9" d="M-55.5,1389.6c-1.2-5.1-5.6-8.9-10.9-9.3c-4.7-7.2-14.4-9.4-21.7-4.6c-2.9,1.9-5.1,4.6-6.2,7.9
			c-5.8-0.7-11,3.5-11.6,9.3c-0.7,5.8,3.5,11,9.3,11.6c0.4,0,0.7,0.1,1.1,0.1h3.3c1.2,0,2.1-0.9,2.1-2.1c0-1.2-0.9-2.1-2.1-2.1l0,0
			h-3.4c-2.9,0-5.5-2-6.1-4.8c-0.7-3.3,1.3-6.7,4.6-7.5c1.1-0.3,2.3-0.2,3.4,0.2s2.3-0.2,2.7-1.3c0-0.1,0.1-0.2,0.1-0.3
			c1.3-6.2,7.3-10.2,13.6-8.9c3.3,0.7,6.1,2.8,7.7,5.8c0.4,0.7,1.1,1.1,2,1.1h0.3c4.4,0,7.9,3.5,7.9,7.9c0,3.7-2.5,6.9-6,7.7
			c-0.7,0.2-1.2,0.2-1.9,0.2H-69c-1.2,0-2.1,0.9-2.1,2.1c0,1.2,0.9,2.1,2.1,2.1h1.8c6.7,0,12.1-5.4,12.2-12
			C-55.1,1391.5-55.2,1390.5-55.5,1389.6L-55.5,1389.6z"/>
	</g>
	<g class="st10">
		<path class="st9" d="M-210.1,1402.3c-0.9,0.2-1.9,0.3-2.8,0.4h-4.8c-1.2,0-2.1-0.9-2.1-2.1c0-1.2,0.9-2.1,2.1-2.1h4.8
			c0.7,0,1.2-0.1,1.9-0.2c4.3-1,6.9-5.3,5.9-9.5c-0.8-3.5-4.1-6.1-7.7-6h-0.3c-0.8,0-1.6-0.4-2-1.1c-3-5.6-9.9-7.7-15.5-4.7
			c-3.1,1.6-5.2,4.5-5.9,7.8c-0.2,1.1-1.3,1.9-2.4,1.7c-0.1,0-0.2-0.1-0.4-0.1c-2.8-0.9-5.8,0.2-7.3,2.7c-1.9,3-0.9,6.8,2,8.6
			c1,0.7,2.1,0.9,3.3,0.9h7.1c1.2,0,2.1,0.9,2.1,2.1c0,1.2-0.9,2.1-2.1,2.1l0,0h-7.1c-5.8,0-10.5-4.7-10.5-10.5c0-2,0.6-3.8,1.6-5.5
			c2.1-3.4,6-5.4,10.1-4.9c2.8-8.2,11.7-12.5,20-9.7c3.3,1.1,6.2,3.4,8.1,6.4c6.7,0.4,11.8,6,11.4,12.7
			C-200.9,1396.6-204.8,1401.2-210.1,1402.3z"/>
		<polygon class="st9" points="-225.3,1402.1 -222.4,1402.1 -228.7,1417.5 -227.2,1406.4 -230,1406.4 -227.8,1394.1 -222,1394.1 		
			"/>
	</g>
	<g class="st10">
		<path class="st9" d="M-663,1381.4c-1.1,0-2.1-0.9-2.1-2.1v-6c-0.1-1.2,0.8-2.1,2-2.2c1.1-0.1,2.1,0.8,2.2,2c0,0.1,0,0.2,0,0.3v6.1
			C-660.8,1380.5-661.8,1381.4-663,1381.4z"/>
		<path class="st9" d="M-678.1,1396.5h-6.1c-1.2,0-2.1-0.9-2.1-2.1c0-1.2,0.9-2.1,2.1-2.1h6.1c1.2,0,2.1,0.9,2.1,2.1
			C-676,1395.5-676.9,1396.5-678.1,1396.5z"/>
		<path class="st9" d="M-663,1417.7c-1.1,0-2.1-0.9-2.1-2.1v-6.1c0.1-1.2,1.1-2,2.2-2c1,0.1,1.9,0.9,2,2v6.1
			C-660.8,1416.8-661.8,1417.7-663,1417.7z"/>
		<path class="st9" d="M-641.8,1396.5h-6c-1.2,0-2.1-0.9-2.1-2.1c0-1.2,0.9-2.1,2.1-2.1h6.1c1.2,0,2.1,0.9,2.1,2.1
			C-639.6,1395.5-640.6,1396.5-641.8,1396.5L-641.8,1396.5z"/>
		<path class="st9" d="M-663,1405.6c-6.1,0-11.2-5-11.2-11.2c0-6.2,5-11.2,11.2-11.2s11.2,5,11.2,11.2
			C-651.8,1400.6-656.8,1405.6-663,1405.6z M-663,1387.4c-3.8,0-7,3.2-7,7c0,3.8,3.2,7,7,7s7-3.1,7-7
			C-656,1390.6-659.1,1387.4-663,1387.4z"/>
		<path class="st9" d="M-673.6,1385.9c-0.6,0-1.1-0.2-1.5-0.7l-2.1-2.1c-0.8-0.8-0.8-2.1,0-3c0.8-0.9,2.1-0.8,3,0l2.1,2.1
			c0.8,0.8,0.8,2.1,0,3C-672.5,1385.6-673.1,1385.8-673.6,1385.9z"/>
		<path class="st9" d="M-675.8,1409.4c-1.2,0-2.1-0.9-2.1-2.1c0-0.6,0.2-1.1,0.7-1.5l2.1-2.1c0.8-0.8,2.1-0.8,3,0
			c0.8,0.8,0.8,2.1,0,3l0,0l-2.1,2.1C-674.8,1409.1-675.2,1409.4-675.8,1409.4z"/>
		<path class="st9" d="M-650.1,1409.4c-0.6,0-1.1-0.2-1.5-0.7l-2.1-2.1c-0.8-0.8-0.8-2.1,0-3c0.8-0.8,2.1-0.8,3,0l2.1,2.1
			c0.8,0.8,0.8,2.1,0,3C-649,1409.1-649.6,1409.4-650.1,1409.4z"/>
		<path class="st9" d="M-652.3,1385.9c-1.2,0-2.1-0.9-2.1-2.1c0-0.6,0.2-1.1,0.7-1.5l2.1-2.1c0.8-0.8,2.1-0.8,3,0
			c0.8,0.8,0.8,2.1,0,3l-2.1,2.1C-651.2,1385.6-651.7,1385.9-652.3,1385.9z"/>
	</g>
	<path class="st11" d="M-692.5,1292.5h59c7.2,0,13,5.9,13,13l0,0c0,7.2-5.9,13-13,13h-59c-7.2,0-13-5.9-13-13l0,0
		C-705.5,1298.3-699.7,1292.5-692.5,1292.5z"/>
	<path class="st11" d="M-547,1292.5h59c7.2,0,13,5.9,13,13l0,0c0,7.2-5.9,13-13,13h-59c-7.2,0-13-5.9-13-13l0,0
		C-560,1298.3-554.1,1292.5-547,1292.5z"/>
	<path class="st11" d="M-401.4,1292.5h59c7.2,0,13,5.9,13,13l0,0c0,7.2-5.9,13-13,13h-59c-7.2,0-13-5.9-13-13l0,0
		C-414.4,1298.3-408.6,1292.5-401.4,1292.5z"/>
	<path class="st11" d="M-255.8,1292.5h59c7.2,0,13,5.9,13,13l0,0c0,7.2-5.9,13-13,13h-59c-7.2,0-13-5.9-13-13l0,0
		C-268.8,1298.3-263.1,1292.5-255.8,1292.5z"/>
	<path class="st11" d="M-110.3,1292.5h59c7.2,0,13,5.9,13,13l0,0c0,7.2-5.9,13-13,13h-59c-7.2,0-13-5.9-13-13l0,0
		C-123.3,1298.3-117.4,1292.5-110.3,1292.5z"/>
</g>
<g id="_x23_man_x28_stand_x2C_point_x5F_to_x29_">
	<path class="st12" d="M-780.4,1670.8c0,0,2,2.8,10.8,6.1c8.7,3.3,6.8,9.2,8.1,12.8c1.3,3.7,10.2,7,27.8,6.1c17.6-0.9,6.4-14,6.4-14
		s-9.2-13.5-12.3-15.3c-1.1-0.7-2.2-2.7-3.3-5.2c-1.4-3.5-2.6-7.2-3.5-10.8c0,0-28.9,3.9-31,6.8c-0.8,1.5-1.5,3.3-1.8,4.9
		C-779.9,1665.2-780.2,1668-780.4,1670.8z"/>
	<path class="st12" d="M-858.3,1693.8c0,0,0.3,10.9,19.1,13.1s18-11.5,16.4-16.7c-0.9-3.2-0.3-13.1,0.5-20.4
		c0.5-4.6,0.8-8.2,0.8-8.2s-31.7,0.7-31.4,2.3c0,2-0.3,4-0.8,5.9c-0.9,3.6-2,7.2-3.4,10.7C-860.3,1688.4-858.3,1693.8-858.3,1693.8z
		"/>
	<path class="st13" d="M-634.8,1369.9c0.6,1.1,1.9,3,5.1,6.1c3.9,3.7,7.9,7.2,12.1,10.5c19.5,15.6,29.7-1.9,29.7-1.9
		s9.9,8.9,14.7,10.9c4.8,2,4.6-4.3,4.6-4.3s-26.3-27.6-34.6-28c-4.7-0.2-10.2-2.7-14-4.7c-2.8-1.5-4.7-2.8-4.7-2.8l-7.1,6.9
		l-6.1,5.9C-635.1,1368.5-635.4,1368.8-634.8,1369.9z"/>
	<path class="st0" d="M-777.5,1657.5c-0.8,1.5-1.5,3.3-1.8,4.9c4.8,7.1,33.8-0.4,36.2-0.9c-1.4-3.5-2.6-7.2-3.5-10.8
		C-746.6,1650.7-775.5,1654.6-777.5,1657.5z"/>
	<path class="st0" d="M-853.7,1670c0.2,0.2,0.4,0.3,0.6,0.4c4.7,2.1,28.8-0.1,28.8-0.1c0.7,0.1,1.5,0,2-0.5c0.5-4.6,0.8-8.2,0.8-8.2
		s-31.7,0.7-31.4,2.3C-852.8,1666-853.1,1668.1-853.7,1670z"/>
	<path class="st14" d="M-862.4,1462.5c1.3,6.6,1.6,13.5,0.7,20.2c-1.6,10.2,0.1,44,0.1,44l-0.1,59.2c0,0,2,37.9,3.9,46.1
		c1.9,8.2-3.9,11.5-3.9,11.5s3.9,23.3,8.6,25.5c4.7,2.1,28.8-0.1,28.8-0.1s2.9,1,6.5-6.5c3.6-7.5,0-25.9-2.6-32
		c-2.6-6.1-0.3-12.5-0.3-12.5s-2.9-33.7,0-36.6c2.9-2.9,2.3-15.7,2.3-15.7l4.7-26.5l5.6-11.2l1.6-24.6l4.5-21.7
		c0,0,1.9-1.9,3.4-19.1s3.6-11.8,3.6-11.8c-0.7,11.5,5.2,17.3,5.2,17.3l1.7,30.1c0,0,2,22.5,5.4,28c3.3,5.5,0,12.3,0,12.3
		s1.1,21.5,0.1,27.8c-1,6.3,3.8,20.6,3.8,20.6l1.3,25.9c0,0-7.8,23.3-4.2,30.9c3.7,7.6,1.9,16.4,1.9,16.4c2.9,9.2,37,0,37,0
		s4.6-38.8,1.3-42.4s1.1-28.8,1.1-28.8s2.3-8.4,1.2-10.7c-1.1-2.3,1-11.5,1-11.5s1.6-24.9-1.3-30.7c-2.9-5.8,1.6-39.2,1.6-39.2
		s1.9-31.4,6.5-42.7c0.8-2,1.4-6.4,1.7-12.2c1.4-25.6-1.7-78.9-1.7-78.9l-12.8-17.6l-13.4-0.7l-12.9-0.7l-24.3-1.3l-23.9-1.3
		l-29.2-1.6c0,0-6,53.9-14.5,77.2c-1.2,3.3-2,6.6-2.7,10C-867.1,1438.8-866.2,1451.1-862.4,1462.5z"/>
	<path class="st13" d="M-791.2,1164.3l10.4,25.6l22.6,3.7c0,0,12,4.1,11.3-6.1c-0.3-5.4,1.4-11.2,3-15.3c0.8-2.1,1.8-4.2,2.9-6.2
		c0,0-46.4-26.1-43.8-17.3c0.6,2,0.6,4,0.1,5.9C-786,1160.4-791.2,1164.3-791.2,1164.3z"/>
	<polygon class="st12" points="-764.1,1350.2 -814.9,1350.2 -812.3,1368 -763,1368 	"/>
	<polygon class="st0" points="-764.1,1350.2 -814.9,1350.2 -812.3,1368 -763,1368 	"/>
	<path class="st0" d="M-634.8,1369.9c0.6,1.1,1.9,3,5.1,6.1c1.8-5,5.6-12.4,9.5-14.9c1.2-0.7,2.2-1.6,3.1-2.6
		c-2.8-1.5-4.7-2.8-4.7-2.8l-7.1,6.9L-634.8,1369.9z"/>
	<path class="st15" d="M-641.6,1376.7c0,0,1.8,0.7,3.8,1.4c3.4,1.3,7.7,2.9,6.7,2.2c-1.7-1,4.2-16.1,10.1-19.9
		c4.4-2.8,3.6-4.1,2.9-4.6c-0.2-0.1-0.3-0.2-0.5-0.2l-4.7-1.7L-641.6,1376.7z"/>
	<path class="st0" d="M-784.7,1148.7c0.6,2,0.6,4,0.1,5.9c7.8,14.7,24.7,22,40.8,17.6c0.8-2.1,1.8-4.2,2.9-6.2
		C-740.9,1165.9-787.2,1139.8-784.7,1148.7z"/>
	<path class="st13" d="M-788.7,1136.4c0,19.5,15.8,35.4,35.4,35.4s35.4-15.8,35.4-35.4s-15.8-35.4-35.4-35.4l0,0
		c-19.4-0.1-35.3,15.5-35.4,34.9C-788.7,1136.1-788.7,1136.3-788.7,1136.4z"/>
	<path class="st15" d="M-819.8,1350.3l22.6,1l26,1.1l12.7,0.6l0.9-8.5l10-87.9l3.3-66.5h-9l-24.9-4.1l-8.8-3.3l0,0l-11.5-4.4
		l-9.4,19.2l-3.2,88.1l-7.4,55.6L-819.8,1350.3z"/>
	<path class="st0" d="M-789.1,1252.7c0,0,9-39.5,15.3-47.1c0,0-2.3-13.6-7.5-15.3s8-4.3,8-4.3l8.1,2.8l8.1,3.3c0,0-7.1,6.3-5.9,14.5
		c-0.7,3.7-0.3,7.5,0.9,11c2.1,5.5,2.5,50.1,0,55.9c-2.5,5.9-2.1,18.9-2.1,18.9l-5.3,25.3l-1.8,30.4l-19.1,14.2l-13.4-16.7
		L-789.1,1252.7z"/>
	<path class="st12" d="M-789.8,1251.9c0,0,9-39.5,15.3-47.1c0,0-2.3-13.6-7.5-15.3c-5.2-1.8,8-4.3,8-4.3l8.1,2.8l8.1,3.3
		c0,0-7.1,6.3-5.9,14.5c-0.7,3.7-0.4,7.4,0.9,11c2.1,5.5,2.6,50.1,0,55.9c-2.6,5.8-2.1,18.9-2.1,18.9l-5.3,25.3l-1.8,30.4l-19,14
		l-13.4-16.7L-789.8,1251.9z"/>
	<path class="st0" d="M-746.4,1182.2l-19.6,6.5c0,0,9.9,5,9.9,20C-756.3,1208.7-746.3,1196.6-746.4,1182.2z"/>
	<path class="st15" d="M-746.4,1181.4l-19.6,6.5c0,0,9.9,5,9.9,20C-756.3,1207.9-746.3,1195.8-746.4,1181.4z"/>
	<path class="st0" d="M-789.1,1163.1c0,0,9.7,16.6,23,25.6c0,0-8.1-3-23,8.4C-789.1,1197.1-798.3,1163.9-789.1,1163.1z"/>
	<path class="st15" d="M-789.1,1162.4c0,0,9.7,16.6,23,25.6c0,0-8.1-3-23,8.4C-789.1,1196.4-798.3,1163.1-789.1,1162.4z"/>
	<path class="st0" d="M-641.6,1376.7c0,0,1.8,0.7,3.8,1.4c5.9-11.2,17.7-20.7,19.6-22.3c-0.2-0.1-0.3-0.2-0.5-0.2l-4.7-1.7
		L-641.6,1376.7z"/>
	<path class="st0" d="M-774.1,1404.6c0.6,13.1,7.8,37.5,7.8,37.5c9.1,12.6,29.4,3.3,36.5-0.5c1.4-25.6-1.7-78.9-1.7-78.9l-12.8-17.6
		l-13.4-0.7l10-87.9l3.3-66.5h-5c-1.6,6.8-4.2,18.2-3.7,21c0.7,4.1-6.1,44.5-6.1,44.5l-8.5,51.5l-2.3,14c0.7,2.3,0.2,12.4-0.7,22.7
		c-0.3,2.9-0.5,5.9-0.7,8.6c-0.9,9.6-1.9,17.6-1.9,17.6C-774.3,1379-774.1,1404.6-774.1,1404.6z"/>
	<path class="st16" d="M-772.5,1403.9c0.6,13.2,7.8,37.5,7.8,37.5c11.2,15.5,39-2,39-2s5.3-74.6,2.1-83.8c-2-5.9-2.9-12.1-2.8-18.2
		l6-22.6c0,0,3.9,11.2,6.5,12.5c2.6,1.3,5.7,6.9,5.7,6.9l26.9,22.4l20.8,15.9l18.5,15.9c1.5-16.6,23.3-32.9,23.3-32.9l-62.8-51.8
		c0.6-1-2.8-12-2.8-12l-3.3-11.4l-7.1-9.6c0,0,2-6.7,0-10c-2-3.3-1.6-11.2-3-30.2c-1.4-19.1-8.8-20.3-8.8-20.3s-28.8-20.1-32.2-19.4
		c-3.2,0.6-7.2-5.8-7.8-6.6l-0.1-0.1c0,0-5.6,22-4.9,26.1c0.7,4.1-6.1,44.5-6.1,44.5l-8.5,51.5l-2.3,14c1.7,5.3-3.3,48.8-3.3,48.8
		C-772.7,1378.2-772.5,1403.9-772.5,1403.9z"/>
	<path class="st0" d="M-865.1,1426.9c11.2,5.8,21.7,11.3,21.7,11.3s17.4,5.8,24.4-27l20.3-55.7c0,0,0.6-1.7,1.4-4.5
		c0.7-2.2,1.6-5.3,2.5-8.7c4-14.1,9.3-35.8,7.3-44.3v-0.7l-0.4-76c0,0,2.1-35.8,0.8-38.7c0-0.1-0.1-0.2-0.1-0.2l0,0l-11.5-4.4
		l-9.4,19.2l-3.2,88.1l-7.4,55.6l-29.2-1.6c0,0-6,53.9-14.5,77.2C-863.6,1420.1-864.5,1423.6-865.1,1426.9z"/>
	<path class="st16" d="M-891.8,1413.8c9.8,4.1,46.8,23.7,46.8,23.7s17.4,5.8,24.4-27l20.3-55.7c0,0,14.3-44.4,11.2-57.4v-0.7
		l-0.4-76c0,0,2.1-35.7,0.8-38.7c-1.3-2.8-2.8-11.1-2.1-18.1c0-0.4,0.1-0.7,0.1-1.1l-0.5,0.3l-14.3,7.5h-1.5
		c-4.6-0.1-17.9-0.2-20,0.7c-2.5,1-26.6,3.1-26.6,3.1s-12.8,0.7-12.2,20.4c0,0-4.8,16.5-6.3,19.2c-1.5,2.7-9.9,29.6-9.9,29.6
		l-9.9,51.3l-1.2,56.8c0,0-0.1,36.2-2,39.2l7.1,2.8C-888,1393.8-901.7,1409.7-891.8,1413.8z"/>
	<path class="st13" d="M-857,1381.6l4.5,5.9c0,0,27.2,49.3-3.2,42.2c-30.4-7.2-25.9-32.1-25.9-32.1l1.9-17.3L-857,1381.6z"/>
	<path class="st0" d="M-818.7,1647.9c-0.7-0.1-11.2-4.6-18.6-4.6c-7.3,0-17.1-0.7-16,1.2c1.1,2,15.3,2.2,19.3,4.2
		c4.1,2,12.7,7.3,13.5,7.6C-819.5,1656.6-818.7,1647.9-818.7,1647.9z"/>
	<path class="st0" d="M-745.7,1625.7c-0.1,0.7-15.7,18.3-24.3,17.5C-778.7,1642.3-745.7,1625.7-745.7,1625.7z"/>
	<path class="st0" d="M-750.2,1584c0,0-16.7,42.6-22.1,44.8c-5.4,2.2-6.1-5.2-3.3-7.3C-772.7,1619.3-763.8,1605.5-750.2,1584z"/>
	<path class="st0" d="M-836.4,1570c0,0-2.8,15.7,4.2,25.9C-825.2,1606.1-836.4,1570-836.4,1570z"/>
	<path class="st0" d="M-792.4,1427.6c0.3-0.3-25-1.3-25-1.3S-806,1438.6-792.4,1427.6z"/>
	<path class="st0" d="M-795.5,1438.5l-15.3,1.4C-810.8,1439.9-805.4,1446.4-795.5,1438.5z"/>
	<path class="st0" d="M-705,1275.2c0,0,13.8,1.9,15.1,5.9C-688.6,1285-705,1275.2-705,1275.2z"/>
	<path class="st0" d="M-680.6,1308.8c-1-0.4-9.6-2.9-15.6-1.3c-6,1.6-14.5-2.9-14.5-2.9s-8.6-0.3-7,0.9c1.7,1.2,6.8,0.7,9.7,2.3
		c2.9,1.7,10.4,3.2,12.4,2.3C-693.7,1309.4-680.6,1308.8-680.6,1308.8z"/>
	<path class="st16" d="M-766,1306.3l0.3,7.1c0,0,24.1-59.2,30.1-71.8s2.7-40.2,2.7-40.2l-3.4-0.8l-9.9-16.2l-0.1-0.1
		c0,0-5.6,22-4.9,26.1c0.7,4.1-6.1,44.5-6.1,44.5L-766,1306.3z"/>
	<path class="st16" d="M-814.2,1182.4c0,0,9.9,101.8,25.2,114.4l-0.4-76c0,0,2.1-35.7,0.8-38.7c-1.3-2.8-2.8-11.1-2.1-18.1l-0.3-0.8
		l-14.3,7.5h-1.6l-0.9,13.6L-814.2,1182.4z"/>
	<path class="st0" d="M-766,1306.3l0.3,7.1c0,0,24.1-59.2,30.1-71.8s2.7-40.2,2.7-40.2l-3.4-0.8l-9.9-16.2l-0.1-0.1
		c0,0-5.6,22-4.9,26.1c0.7,4.1-6.1,44.5-6.1,44.5L-766,1306.3z"/>
	<path class="st0" d="M-814.2,1182.4c0,0,9.9,101.8,25.2,114.4l-0.4-76c0,0,2.1-35.7,0.8-38.7c-1.3-2.8-2.8-11.1-2.1-18.1l-0.3-0.8
		l-14.3,7.5h-1.6l-0.9,13.6L-814.2,1182.4z"/>
	<circle class="st14" cx="-763" cy="1323.1" r="2.9"/>
	<circle class="st14" cx="-766" cy="1366.4" r="2.9"/>
	<path class="st0" d="M-788.7,1136.4c0,5.1,1.1,10.1,3.3,14.8l0.5-0.6c5.7-7.2,7-17.1,12.1-24.7c1.9-2.7,4.3-5.2,7.3-6.1
		c3.1-0.9,6.8-0.2,8.7,2.4c1.2,1.7,1.6,3.9,2.8,5.6c2.4,3.2,7,3.1,10.9,2.5c3.9-0.6,8.3-1.2,11.2,1.3c3,2.5,3.2,7,5.6,9.9
		c1.9,2.2,4.6,3.3,7.4,3.8c4.8-19-6.6-38.2-25.6-43s-38.2,6.6-43,25.6C-788.3,1130.8-788.7,1133.6-788.7,1136.4L-788.7,1136.4z"/>
	<path class="st17" d="M-768.8,1091.1c-7.3,3.1-14.5,7-20.1,12.8c-5.6,5.9-9.3,13.8-8.9,21.9c0.1,2.6,0.7,5.1,2,7.3
		c1.2,2,3,3.5,3.5,5.7c0.7,2.5-0.3,5.2-0.3,7.8c0,2.6,2,5.8,4.4,5c0.9-0.4,1.7-0.9,2.2-1.8c5.7-7.2,7-17.1,12-24.6
		c1.9-2.7,4.3-5.2,7.3-6.1c3-0.9,6.8-0.3,8.7,2.4c1.2,1.7,1.5,3.9,2.8,5.6c2.4,3.2,7,3.1,10.9,2.5c3.9-0.6,8.3-1.2,11.2,1.3
		c3,2.5,3.2,7,5.6,9.9c2.9,3.6,8.1,4.1,12.6,4.3c-1.9-4.2-1.2-9.1,0.4-13.4c1.6-4.3,4.1-8.2,5.9-12.5c1.3-2.9,2-5.9,1.9-9.1
		c-0.3-3.1-1.9-6.2-4.6-7.6c-1.6-0.8-3.4-1-4.9-2c-4.4-3-4.1-7.9-9.9-9.5c-4.6-1.3-9.6-1.2-14.3-2.6
		C-750.4,1085.7-759,1087.5-768.8,1091.1z"/>
	<path class="st0" d="M-872.1,1385.8c0,0-8,7.9-9,7.7c-1-0.2-2.6-7.1-2.6-7.1L-872.1,1385.8z"/>
	<path class="st15" d="M-872.9,1385c0,0-8,7.9-9,7.7c-1-0.2-2.6-7.1-2.6-7.1L-872.9,1385z"/>
	<path class="st0" d="M-894.4,1391.7c0,0,34-7.9,42.6-4.2c0,0-3.2-19.2-2.6-22.8c0.6-3.6-0.1-15.8-0.1-15.8s-2-22.9,0.7-29.3
		s1.2-23.4,1.2-23.4l-38.8,18.5C-891.5,1314.6-891.9,1386.6-894.4,1391.7z"/>
	<path class="st16" d="M-895.1,1390.9c0,0,34-7.9,42.6-4.2c0,0-3.2-19.2-2.6-22.8c0.6-3.5-0.1-15.8-0.1-15.8s-2-22.9,0.7-29.3
		c2.7-6.4,1.2-23.4,1.2-23.4l-38.8,18.4C-892.2,1313.8-892.8,1385.8-895.1,1390.9z"/>
	<g class="st18">
		<path d="M-715.4,1141.4c-1.6-4.1-0.9-8.7,0.7-12.8c1.6-4.3,4.1-8.2,5.9-12.5c1.3-2.9,2-5.9,1.9-9.1c0-0.1,0-0.1,0-0.2
			c0.5,1,0.7,2.1,0.8,3.3c0.1,3.2-0.6,6.2-1.9,9.1c-1.8,4.2-4.3,8.1-5.9,12.5C-715.2,1134.8-715.6,1138.1-715.4,1141.4z"/>
		<path d="M-788.6,1148.5c0.9-0.4,1.8-0.9,2.3-1.8c5.7-7.2,6.9-17.1,12-24.6c1.9-2.7,4.3-5.2,7.3-6.1c3.1-1,6.8-0.3,8.7,2.4
			c1.2,1.7,1.5,3.9,2.8,5.6c2.4,3.2,7,3.1,10.9,2.5c3.9-0.6,8.3-1.2,11.2,1.3c3,2.5,3.2,7,5.6,9.9c2.9,3.6,8,4.1,12.5,4.3
			c0.2,1.1,0.5,2.1,0.9,3.2c-4.6-0.2-9.8-0.7-12.6-4.3c-2.4-3-2.7-7.5-5.6-9.9c-2.9-2.4-7.3-2-11.2-1.3c-3.9,0.7-8.5,0.7-10.9-2.5
			c-1.2-1.7-1.6-3.8-2.8-5.6c-1.9-2.7-5.7-3.4-8.7-2.4c-3.1,1-5.5,3.4-7.3,6.1c-5.1,7.6-6.3,17.6-12,24.6c-0.6,0.8-1.3,1.5-2.2,1.8
			c-2.4,0.7-4.4-2.4-4.4-5v-0.1C-791.4,1148-790.1,1149-788.6,1148.5z"/>
		<path d="M-796.2,1130c1.2,2,3,3.5,3.5,5.7c0.2,0.7,0.3,1.2,0.3,1.9c-0.8-1.6-2-2.9-3-4.4c-0.9-1.7-1.6-3.4-1.9-5.4
			C-797.1,1128.6-796.7,1129.4-796.2,1130z"/>
	</g>
</g>
</svg>
