<?xml version="1.0" encoding="UTF-8"?>
<svg xmlns="http://www.w3.org/2000/svg" xmlns:xlink="http://www.w3.org/1999/xlink" width="835.17pt" height="589.4325pt" viewBox="0 0 835.17 589.4325" version="1.1">
<g id="surface1">
<path style=" stroke:none;fill-rule:nonzero;fill:rgb(42.352941%,38.823529%,100%);fill-opacity:0.1;" d="M 785.25 343.671875 C 755.886719 383.960938 765.578125 441.472656 782.550781 487.289062 C 788.234375 502.625 794.691406 518.847656 791.746094 535.535156 C 788.144531 555.933594 771.226562 571.21875 753.636719 579.546875 C 721.574219 594.71875 683.699219 592.296875 655.019531 573.179688 C 630.269531 556.679688 612.847656 529.257812 587.617188 513.546875 C 545.390625 487.257812 490.574219 499.003906 443.578125 519.074219 C 410.324219 533.25 373.925781 551.558594 341.511719 538.5 C 318.710938 529.273438 303.359375 505.792969 295.28125 480.691406 C 291.382812 468.570312 288.652344 455.417969 280.882812 445.929688 C 276.261719 440.289062 270.15625 436.359375 263.878906 433.074219 C 206.585938 403.074219 132.890625 421.824219 77.347656 388.351562 C 39.847656 365.746094 16.507812 321.878906 6.847656 275.761719 C -2.8125 229.640625 -0.488281 180.921875 3.375 133.074219 C 6.121094 99.066406 10.5 62.730469 30.90625 36 C 52.5 7.738281 88.761719 -3.496094 121.175781 0.9375 C 153.589844 5.371094 182.628906 23.390625 208.054688 44.84375 C 239.832031 71.65625 269.089844 105.308594 308.636719 115.480469 C 335.570312 122.410156 364.183594 117.503906 392.179688 115.339844 C 438.980469 111.726562 485.613281 115.886719 531.964844 120.589844 C 576.335938 125.089844 621.011719 130.113281 663.035156 144.867188 C 692.773438 155.308594 716.34375 175.039062 744.34375 188.523438 C 762.589844 197.3125 782.667969 199.351562 799.84375 210.707031 C 821.039062 224.695312 840.195312 249.472656 833.976562 279.210938 C 828.097656 307.5 800.828125 322.289062 785.25 343.671875 Z M 785.25 343.671875 "/>
</g>
</svg>
