<?xml version="1.0" encoding="utf-8"?>
<!-- Generator: Adobe Illustrator 19.0.0, SVG Export Plug-In . SVG Version: 6.00 Build 0)  -->
<svg version="1.1" xmlns="http://www.w3.org/2000/svg" xmlns:xlink="http://www.w3.org/1999/xlink" x="0px" y="0px"
	 viewBox="0 0 1000 1000" style="enable-background:new 0 0 1000 1000;" xml:space="preserve">
<style type="text/css">
	.st0{fill:#6C63FF;}
	.st1{fill:#F2F2F2;}
	.st2{fill:none;stroke:#3F3D56;stroke-miterlimit:10;}
	.st3{fill:#FFC1C7;}
	.st4{fill:#3F3D56;}
	.st5{fill:#2F2E41;}
	.st6{opacity:0.1;enable-background:new    ;}
</style>
<g id="A2121">
	<g>
		
			<image style="overflow:visible;opacity:0.8;" width="1025" height="636" xlink:href="A235019AF433349C.png"  transform="matrix(1 0 0 1 -18.0079 186.9921)">
		</image>
		<g>
			<g>
				<path class="st0" d="M102.7,224.8h334.7c11.8,0,21.4,9.6,21.4,21.4v182c0,11.8-9.6,21.4-21.4,21.4H102.7
					c-11.8,0-21.4-9.6-21.4-21.4v-182C81.3,234.3,90.9,224.8,102.7,224.8z"/>
				<path class="st1" d="M598.2,404.6h334.7c11.8,0,21.4,9.6,21.4,21.4v182c0,11.8-9.6,21.4-21.4,21.4H598.2
					c-11.8,0-21.4-9.6-21.4-21.4V426C576.8,414.2,586.4,404.6,598.2,404.6z"/>
				<path class="st2" d="M73.7,199.5h334.7c11.8,0,21.4,9.6,21.4,21.4v182c0,11.8-9.6,21.4-21.4,21.4H73.7
					c-11.8,0-21.4-9.6-21.4-21.4v-182C52.3,209.1,61.9,199.5,73.7,199.5z"/>
				<path class="st2" d="M569.2,379.3h334.7c11.8,0,21.4,9.6,21.4,21.4v182c0,11.8-9.6,21.4-21.4,21.4H569.2
					c-11.8,0-21.4-9.6-21.4-21.4v-182C547.8,388.9,557.3,379.3,569.2,379.3z"/>
				<path class="st2" d="M904,265.9c-8.1,0.5-15.3,5.5-18.6,13c-4.6,11.2,1.3,24.4,10.3,32.6c9,8.2,20.5,12.9,31,19
					c14.1,8.3,26.7,19.7,33.7,34.4c7,14.7,7.8,32.9-0.5,47c-7.7,13-21.6,20.8-34.9,28"/>
				<ellipse class="st0" cx="915.9" cy="266.9" rx="16.4" ry="8"/>
				<ellipse class="st0" cx="929" cy="319.4" rx="16.4" ry="8"/>
				<ellipse class="st0" cx="899" cy="327.8" rx="16.4" ry="8"/>
				<ellipse class="st0" cx="945.8" cy="371.8" rx="16.4" ry="8"/>
				<ellipse class="st0" cx="978.6" cy="371.8" rx="16.4" ry="8"/>
				<path class="st2" d="M26.4,625.6c-8.1,0.5-15.3,5.5-18.6,13c-4.6,11.2,1.3,24.4,10.3,32.6s20.5,12.9,31,19
					c14.1,8.3,26.7,19.7,33.7,34.4s7.8,32.9-0.5,47c-7.7,13-21.6,20.8-34.9,28"/>
				<ellipse class="st0" cx="38.2" cy="626.6" rx="16.4" ry="8"/>
				<ellipse class="st0" cx="51.4" cy="679" rx="16.4" ry="8"/>
				<ellipse class="st0" cx="21.4" cy="687.5" rx="16.4" ry="8"/>
				<ellipse class="st0" cx="68.2" cy="731.5" rx="16.4" ry="8"/>
				<ellipse class="st0" cx="101" cy="731.5" rx="16.4" ry="8"/>
			</g>
		</g>
	</g>
</g>
<g id="A3212">
	<g>
		
			<image style="overflow:visible;opacity:0.8;" width="297" height="580" xlink:href="A235019AF433349D.png"  transform="matrix(1 0 0 1 12.9921 277.9921)">
		</image>
		<g>
			<g>
				<ellipse class="st1" cx="161.9" cy="814.4" rx="125.5" ry="20.1"/>
				<ellipse class="st2" cx="171.7" cy="802.7" rx="125.5" ry="20.1"/>
				<path class="st3" d="M244.8,453.3c0,0,1.9,14-2.8,19.7s-12.2,43.1-12.2,43.1v22.5c0,0,29-42.1,34.7-59c5.6-16.9,0-30,0-30
					L244.8,453.3z"/>
				<path class="st4" d="M242,384l0.4,0.4c4.8,5.4,8.6,11.7,11.2,18.5c6.1,16.3,19.4,56.6,14.6,60.6c-6.6,5.6-25.3,9.4-26.2,8.4
					s-19.7-59-19.7-59L242,384z"/>
				<path class="st4" d="M211.5,782c0,0,22.5,4.7,23.4,0c0.6-2.9,1.5-5.7,2.8-8.4c0,0,20.4,0.8,15.1,18.7c-0.5,1.8-1.7,3.3-3.3,4.2
					c-4.9,3-16.3,10-22.1,13.6c-4.4,2.7-10.6,0.7-15.1-1.5c-3.3-1.6-5.1-5.3-4.4-8.9L211.5,782z"/>
				<path class="st4" d="M146.9,784.9c0,0-22.5,4.7-23.4,0c-0.6-2.9-1.5-5.7-2.8-8.4c0,0-20.3,0.8-15.1,18.7
					c0.5,1.8,1.7,3.3,3.3,4.3c4.9,3,16.3,10,22,13.6c4.8,3,11.8,0.3,16.3-2.1c2.6-1.3,3.9-4.2,3.4-7L146.9,784.9z"/>
				<path class="st3" d="M118.8,465.5c0,0-1.9,14,2.8,19.7c4.7,5.6,12.2,27.2,12.2,27.2v22.5c0,0-29-26.2-34.7-43.1
					c-5.6-16.9,0-30,0-30L118.8,465.5z"/>
				<circle class="st3" cx="184.4" cy="326.9" r="23.4"/>
				<path class="st3" d="M203.1,336.2c0,0-6.6,30,0,33.7s-39.3,0-39.3,0s10.3-25.3,5.6-33.7C164.7,327.8,203.1,336.2,203.1,336.2z"
					/>
				<path class="st5" d="M225.6,535.7c0,0,8.4,12.2,5.6,49.6c-2.8,37.5-5.6,76.8-5.6,76.8s20.6,118,14,120.8s-28.1,5.6-30.9,2.8
					c-2.8-2.8-15.9-112.4-15.9-112.4l-12.2-89.9l-18.7,103c0,0-10.3,100.2-17.8,104.9c-5.4,3.3-16,1-21.6-0.7
					c-2.2-0.6-3.6-2.7-3.5-4.9c0.7-15.8,3.8-78,11.1-116.2c8.4-44-8.4-132.1,6.6-133.9S225.6,535.7,225.6,535.7z"/>
				<path class="st4" d="M160,366.2c0,0,3.7-16.9,17.8-15s23.4,0.9,26.2,10.3c2.8,9.4,32.8,16.9,32.8,16.9s7.5,0.9,6.6,13.1
					c-0.9,12.2-19.7,57.1-19.7,57.1s0.9,37.5,5.6,54.3c4.7,16.9,4.7,37.5-5.6,42.1c-10.3,4.7-74.9,21.5-89.9,0.9
					c0,0-8.4-30-2.8-42.1c5.6-12.2-0.9-59.9-0.9-59.9l-17.8-39.3c0,0,5.6-18.7,21.5-24.4C143.2,377,152.1,372.2,160,366.2z"/>
				<path class="st4" d="M119.7,396.2l-7.5,8.4c0,0-22.5,55.3-15.9,60.9c6.6,5.6,25.3,9.4,26.2,8.4s16.9-48.7,16.9-48.7L119.7,396.2
					z"/>
				<path class="st5" d="M211.5,312.8c0,0-3.7,2.8-4.7,9.4c-0.9,6.6-6.7-3.7-8,9.8S175,355,166.6,348.4c-8.4-6.6-22.5-47.8-2.8-54.3
					c19.7-6.6,39.3-5.6,43.1,0.9C210.6,301.6,211.5,312.8,211.5,312.8z"/>
				<path class="st6" d="M193.2,332c1.3-13.6,7.1-3.3,8-9.8c0.9-6.6,4.7-9.4,4.7-9.4s-0.9-11.2-4.7-17.8c-1.8-3.1-7.2-5-14.6-5.3
					c10.1-0.5,18,1.4,20.2,5.3c3.7,6.6,4.7,17.8,4.7,17.8s-3.7,2.8-4.7,9.4c-0.9,6.6-6.7-3.7-8,9.8c-1.1,11.5-17.5,20-27.5,18.3
					C180.9,349,192.3,341.6,193.2,332z"/>
			</g>
		</g>
	</g>
</g>
</svg>
