<?xml version="1.0" encoding="utf-8"?>
<!-- Generator: Adobe Illustrator 19.0.0, SVG Export Plug-In . SVG Version: 6.00 Build 0)  -->
<svg version="1.1" id="图层_1" xmlns="http://www.w3.org/2000/svg" xmlns:xlink="http://www.w3.org/1999/xlink" x="0px" y="0px"
	 viewBox="187 -93.3 970 781.6" style="enable-background:new 187 -93.3 970 781.6;" xml:space="preserve">
<style type="text/css">
	.st0{opacity:0.5;}
	.st1{fill:url(#SVGID_1_);}
	.st2{fill:#6C63FF;}
	.st3{opacity:0.3;enable-background:new    ;}
	.st4{fill:url(#SVGID_2_);}
	.st5{fill:#F55F44;}
	.st6{opacity:0.1;enable-background:new    ;}
	.st7{fill:url(#SVGID_3_);}
	.st8{fill:url(#SVGID_4_);}
	.st9{fill:url(#SVGID_5_);}
	.st10{fill:url(#SVGID_6_);}
	.st11{fill:#F99F8F;}
	.st12{opacity:0.15;fill:#FFFFFF;enable-background:new    ;}
	.st13{fill:#FDA57D;}
	.st14{fill:url(#SVGID_7_);}
	.st15{fill:#4D8AF0;}
	.st16{fill:#FFD180;}
	.st17{opacity:0.1;}
	.st18{fill:url(#SVGID_8_);}
	.st19{fill:#FFFFFF;}
	.st20{fill:#58555D;}
	.st21{opacity:0.1;fill:url(#SVGID_9_);enable-background:new    ;}
	.st22{fill:url(#SVGID_10_);}
	.st23{fill:#333333;}
	.st24{fill:#3AD29F;}
	.st25{opacity:0.5;fill:#58555D;enable-background:new    ;}
	.st26{fill:url(#SVGID_11_);}
	.st27{fill:url(#SVGID_12_);}
	.st28{opacity:0.2;fill:none;stroke:#000000;stroke-miterlimit:10;enable-background:new    ;}
</style>
<g id="A-2-1-2-1">
	<g>
		<g>
			<g>
				<title>chilling</title>
				<g>
					<g>
						<g>
							<g class="st0">
								
									<linearGradient id="SVGID_1_" gradientUnits="userSpaceOnUse" x1="786.9999" y1="190.5094" x2="787.0001" y2="716.2096" gradientTransform="matrix(1 0 0 -1 -115 718.8506)">
									<stop  offset="0" style="stop-color:#808080;stop-opacity:0.25"/>
									<stop  offset="0.54" style="stop-color:#808080;stop-opacity:0.12"/>
									<stop  offset="1" style="stop-color:#808080;stop-opacity:0.1"/>
								</linearGradient>
								<path class="st1" d="M1105.8,106.6H973V55.8c0-29.4-23.8-53.2-53.2-53.2H311.5c-26.7,0-48.3,21.6-48.3,48.3l0,0v55.8h-20
									c-31,0-56.2,25.1-56.2,56.1v252c0,29.4,22.7,53.8,52,56v57h56.8V471h71.5v57.3h56.8V471h511v57.3h56.8V471h47.3v56.8h56.8
									V471h10.2c28,0,50.8-22.7,50.8-50.8l0,0V157.8C1157,129.5,1134.1,106.6,1105.8,106.6L1105.8,106.6z M963,329v42.6H751.3
									c2.3-4.1,3.5-8.7,3.5-13.4V329H963L963,329z"/>
							</g>
							<rect x="255.1" y="449.7" class="st2" width="54.7" height="68.3"/>
							<rect x="925.4" y="450.2" class="st2" width="54.7" height="68.3"/>
							<rect x="1025.6" y="449.7" class="st2" width="54.7" height="68.3"/>
							<rect x="378.6" y="450.2" class="st2" width="54.7" height="68.3"/>
							<rect x="255.1" y="449.7" class="st3" width="54.7" height="68.3"/>
							<rect x="925.4" y="450.2" class="st3" width="54.7" height="68.3"/>
							<rect x="1025.6" y="449.7" class="st3" width="54.7" height="68.3"/>
							<rect x="378.6" y="450.2" class="st3" width="54.7" height="68.3"/>
							<path class="st2" d="M952.2,112.5h137.5c27.2,0,49.3,22.1,49.3,49.3l0,0v252.7c0,27-21.9,48.9-48.9,48.9l0,0H952.2l0,0V112.5
								L952.2,112.5z"/>
							<path class="st3" d="M952.2,112.5h137.5c27.2,0,49.3,22.1,49.3,49.3l0,0v252.7c0,27-21.9,48.9-48.9,48.9l0,0H952.2l0,0V112.5
								L952.2,112.5z"/>
							<path class="st2" d="M324.9,12.3h263.3l0,0v314.4l0,0H278.4l0,0V58.8C278.4,33.1,299.2,12.3,324.9,12.3z"/>
							<path class="st3" d="M326.4,12.3h261.8l0,0v314.4l0,0H278.4l0,0V60.3C278.4,33.8,299.9,12.3,326.4,12.3L326.4,12.3z"/>
							<path class="st2" d="M396.2,12.3h255.3l0,0v314.4l0,0H341.7l0,0V66.8C341.7,36.7,366.1,12.3,396.2,12.3L396.2,12.3z"/>
							<path class="st2" d="M650,12.3h260.5c28.3,0,51.3,23,51.3,51.3l0,0v263.1l0,0H650l0,0V12.3L650,12.3z"/>
							<path class="st2" d="M1038.8,112.5h51c27.2,0,49.2,22.1,49.2,49.3v252.7c0,27-21.9,48.9-48.9,48.9l0,0h-51.4l0,0V112.5
								H1038.8z"/>
							<rect x="410" y="367.7" class="st2" width="628.7" height="95.7"/>
							
								<linearGradient id="SVGID_2_" gradientUnits="userSpaceOnUse" x1="2753.5579" y1="5086.6841" x2="2753.5579" y2="5300.9424" gradientTransform="matrix(0.8179 -0.5753 -0.5753 -0.8179 1283.3593 6060.8735)">
								<stop  offset="0" style="stop-color:#808080;stop-opacity:0.25"/>
								<stop  offset="0.54" style="stop-color:#808080;stop-opacity:0.12"/>
								<stop  offset="1" style="stop-color:#808080;stop-opacity:0.1"/>
							</linearGradient>
							<path class="st4" d="M485.8,144.9l68.7-20c30.2-8.8,61.9,8.6,70.7,38.8l22.8,78.1c8.8,30.2-8.6,61.9-38.8,70.7l-68.7,20
								c-30.2,8.8-61.9-8.6-70.7-38.8L447,215.6C438.2,185.4,455.5,153.7,485.8,144.9z"/>
							<path class="st5" d="M486.6,152.9l64.1-18.7c28.2-8.2,57.7,8,66,36.2l21.2,72.8c8.2,28.2-8,57.7-36.2,66l-64.1,18.7
								c-28.2,8.2-57.7-8-66-36.2l-21.2-72.8C442.2,190.6,458.4,161.1,486.6,152.9z"/>
							<path class="st6" d="M486.6,152.9l64.1-18.7c28.2-8.2,57.7,8,66,36.2l21.2,72.8c8.2,28.2-8,57.7-36.2,66l-64.1,18.7
								c-28.2,8.2-57.7-8-66-36.2l-21.2-72.8C442.2,190.6,458.4,161.1,486.6,152.9z"/>
							<path class="st5" d="M489.9,150.5l64.1-18.7c28.2-8.2,57.7,8,66,36.2l21.2,72.8c8.2,28.2-8,57.7-36.2,66l-64.1,18.7
								c-28.2,8.2-57.7-8-66-36.2l-21.2-72.8C445.5,188.3,461.7,158.8,489.9,150.5z"/>
							
								<linearGradient id="SVGID_3_" gradientUnits="userSpaceOnUse" x1="2767.1904" y1="5225.7695" x2="2767.1904" y2="5253.1094" gradientTransform="matrix(0.8179 -0.5753 -0.5753 -0.8179 1283.3828 6060.8691)">
								<stop  offset="0" style="stop-color:#808080;stop-opacity:0.25"/>
								<stop  offset="0.54" style="stop-color:#808080;stop-opacity:0.12"/>
								<stop  offset="1" style="stop-color:#808080;stop-opacity:0.1"/>
							</linearGradient>
							<circle class="st7" cx="532.4" cy="183.5" r="13.7"/>
							
								<linearGradient id="SVGID_4_" gradientUnits="userSpaceOnUse" x1="2799.0476" y1="5157.4321" x2="2799.0476" y2="5184.772" gradientTransform="matrix(0.8179 -0.5753 -0.5753 -0.8179 1283.3849 6060.8647)">
								<stop  offset="0" style="stop-color:#808080;stop-opacity:0.25"/>
								<stop  offset="0.54" style="stop-color:#808080;stop-opacity:0.12"/>
								<stop  offset="1" style="stop-color:#808080;stop-opacity:0.1"/>
							</linearGradient>
							<circle class="st8" cx="597.8" cy="221.1" r="13.7"/>
							
								<linearGradient id="SVGID_5_" gradientUnits="userSpaceOnUse" x1="2694.2998" y1="5184.7651" x2="2694.2998" y2="5212.105" gradientTransform="matrix(0.8179 -0.5753 -0.5753 -0.8179 1283.3827 6060.8589)">
								<stop  offset="0" style="stop-color:#808080;stop-opacity:0.25"/>
								<stop  offset="0.54" style="stop-color:#808080;stop-opacity:0.12"/>
								<stop  offset="1" style="stop-color:#808080;stop-opacity:0.1"/>
							</linearGradient>
							<circle class="st9" cx="496.4" cy="259" r="13.7"/>
							
								<linearGradient id="SVGID_6_" gradientUnits="userSpaceOnUse" x1="2721.6414" y1="5116.3848" x2="2721.6414" y2="5143.7246" gradientTransform="matrix(0.8179 -0.5753 -0.5753 -0.8179 1283.3807 6060.8599)">
								<stop  offset="0" style="stop-color:#808080;stop-opacity:0.25"/>
								<stop  offset="0.54" style="stop-color:#808080;stop-opacity:0.12"/>
								<stop  offset="1" style="stop-color:#808080;stop-opacity:0.1"/>
							</linearGradient>
							<circle class="st10" cx="558.1" cy="299.2" r="13.7"/>
							<circle class="st11" cx="532.4" cy="183.5" r="9.1"/>
							<circle class="st11" cx="597.8" cy="221.1" r="9.1"/>
							<circle class="st11" cx="496.4" cy="259" r="9.1"/>
							<circle class="st11" cx="558.1" cy="299.2" r="9.1"/>
							<path class="st2" d="M259.1,112.5h201l0,0v350.8l0,0h-201c-29.9,0-54.1-24.2-54.1-54.1V166.6
								C205,136.8,229.2,112.5,259.1,112.5z"/>
							<path class="st3" d="M259.5,112.5h150.2c27.9,0,50.4,22.6,50.4,50.4l0,0v249.9c0,27.9-22.6,50.4-50.4,50.4H259.5
								c-30.1,0-54.5-24.4-54.5-54.5V167C205,136.9,229.4,112.5,259.5,112.5z"/>
							<path class="st6" d="M360.4,112.5h87.8c9.4,0,17,7.6,17,17v316.8c0,9.4-7.6,17-17,17h-87.8l0,0L360.4,112.5L360.4,112.5z"/>
							<path class="st2" d="M355.4,112.5h87.8c9.4,0,17,7.6,17,17v316.8c0,9.4-7.6,17-17,17h-87.8l0,0L355.4,112.5L355.4,112.5z"/>
							<rect x="437.4" y="294.8" class="st2" width="314.4" height="86.6"/>
							<rect x="752.2" y="295.3" class="st2" width="314.4" height="86.6"/>
							<path class="st12" d="M464,294.8h261.2c14.7,0,26.6,11.9,26.6,26.6v33.4c0,14.7-11.9,26.6-26.6,26.6H464
								c-14.7,0-26.6-11.9-26.6-26.6v-33.4C437.4,306.7,449.3,294.8,464,294.8z"/>
							<circle class="st2" cx="788.4" cy="117.3" r="18.2"/>
							<circle class="st3" cx="788.4" cy="117.3" r="18.2"/>
							<circle class="st2" cx="506" cy="117.3" r="18.2"/>
							<circle class="st3" cx="506" cy="117.3" r="18.2"/>
							<ellipse class="st13" cx="496.8" cy="14.3" rx="4.6" ry="6.8"/>
							<path class="st12" d="M778.8,295.3H1040c14.7,0,26.6,11.9,26.6,26.6v33.4c0,14.7-11.9,26.6-26.6,26.6H778.8
								c-14.7,0-26.6-11.9-26.6-26.6v-33.4C752.2,307.2,764.1,295.3,778.8,295.3z"/>
							<g class="st0">
								
									<linearGradient id="SVGID_7_" gradientUnits="userSpaceOnUse" x1="939.5449" y1="526.5095" x2="939.5449" y2="663.822" gradientTransform="matrix(1 0 0 -1 -115 718.8506)">
									<stop  offset="0" style="stop-color:#808080;stop-opacity:0.25"/>
									<stop  offset="0.54" style="stop-color:#808080;stop-opacity:0.12"/>
									<stop  offset="1" style="stop-color:#808080;stop-opacity:0.1"/>
								</linearGradient>
								<path class="st14" d="M859.4,120c-2.1-11.5-4.2-23.1-9-33.8c-5.2-11.7-13.4-21.9-23.8-29.6c-1.5-1.2-3.4-1.7-5.4-1.6l0,0
									c-3,0.3-3.9,2.1-4.4,4c-0.1,0.2-0.1,0.4-0.2,0.7c-1.2,5.8-0.4,11.6,1.3,17.3c2.1,7.1,5.7,14,8.7,20.9
									c5.4,12.3,8.9,25.3,10.5,38.6c0.2,1.8,0.4,3.6,0.4,5.4c0,1.1,0,2.2-0.1,3.2c-0.1,2.1-0.6,4.2-1.4,6.1
									c-0.1,0.3-0.3,0.7-0.5,1s-0.3,0.7-0.5,0.9c-1.8,3-4.7,5.1-7.4,7.2s-5.9,4.4-9.2,5.5h0.1c-1.5,0.6-3.2,0.8-4.8,0.8
									c-5.1-0.2-10.6-4.3-15.8-3.3l0,0l-0.6,0.1c-5.3,1.4-9.3,9.7-9.4,15l0,0c0,0.4,0,0.8,0,1.2c0,0.1,0,0.3,0,0.4
									c0,0.1,0.1,0.5,0.1,0.8s0.1,0.3,0.1,0.5s0.1,0.5,0.2,0.7c0.1,0.2,0.1,0.3,0.1,0.5s0.1,0.4,0.2,0.6s0.1,0.3,0.2,0.4
									c0.1,0.1,0.2,0.4,0.2,0.6l0.2,0.4c0.1,0.2,0.2,0.4,0.3,0.5l0.3,0.4l0.3,0.5l0.3,0.4l0.4,0.4l0.3,0.3l0.4,0.4l0.3,0.3
									l0.5,0.4l0.4,0.3l0.5,0.4l0.4,0.3l0.6,0.3l0.4,0.2l0.6,0.3l0.4,0.2c0.3,0.1,0.6,0.3,0.9,0.4l0.5,0.2l0.7,0.3l0.5,0.2
									l0.6,0.2l0.6,0.1l0.6,0.1l0.6,0.1l0.5,0.1l0.7,0.1l0.5,0.1l0.7,0.1l0.5,0.1l0.7,0.1h0.5h0.7h0.5h0.8h1.6h0.8h0.3l0.9-0.1
									h0.2c2.5-0.2,5-0.8,7.3-1.6c7.5-2.8,13.8-8,19.7-13.4c11.6-10.8,22.6-24.1,23.6-39.9C861.5,131.5,860.5,125.7,859.4,120z"/>
							</g>
							<rect x="715.9" y="116.2" class="st6" width="94.3" height="27.3"/>
							<rect x="715.9" y="116.2" class="st2" width="94.3" height="24.8"/>
							<circle class="st2" cx="770.5" cy="104.6" r="14.9"/>
						</g>
					</g>
				</g>
			</g>
		</g>
	</g>
</g>
<g id="A-3-1">
	<g>
		<g>
			<g>
				<g>
					<g>
						<g>
							<path class="st15" d="M760,123.1l-0.2-0.2c1.2-0.9,1.4-2.6,0.5-3.8c-0.2-0.2-0.3-0.4-0.5-0.5l0.2-0.2c1.3,1,1.5,2.9,0.5,4.2
								C760.4,122.8,760.2,123,760,123.1L760,123.1z"/>
							<path class="st6" d="M760,123.1l-0.2-0.2c1.2-0.9,1.4-2.6,0.5-3.8c-0.2-0.2-0.3-0.4-0.5-0.5l0.2-0.2c1.3,1,1.5,2.9,0.5,4.2
								C760.4,122.8,760.2,123,760,123.1L760,123.1z"/>
							<path class="st15" d="M759.9,123.1c-1.3-1-1.5-2.9-0.5-4.2c0.2-0.2,0.3-0.4,0.5-0.5l0.2,0.2c-1.2,0.9-1.4,2.6-0.5,3.8
								c0.2,0.2,0.3,0.4,0.5,0.5L759.9,123.1z"/>
							<polyline class="st15" points="759.9,118.5 759.9,118.5 759.9,118.5 759.9,118.5 							"/>
							<path class="st16" d="M836.1,203.2c6.8-2.6,12.6-7.3,18-12.3c10.6-9.8,20.7-22,21.5-36.5c0.3-5.3-0.6-10.5-1.6-15.8
								c-1.9-10.5-3.9-21.1-8.2-30.9c-4.8-10.7-12.3-20-21.7-27c-1.4-1.1-3.2-1.6-4.9-1.5c-3,0.3-3.8,2.3-4.2,4.3
								c-2.4,12,4.2,23.6,9.1,34.8s8.1,23.1,9.6,35.3c0.6,5.2,0.9,10.7-1.9,15.2c-1.7,2.7-4.3,4.7-6.8,6.6c-3.8,2.9-8,5.9-12.8,5.7
								s-10.1-4.2-15-2.9s-8.5,8.9-8.6,13.7C808.8,205.3,826.9,206.7,836.1,203.2z"/>
							<g class="st17">
								<path d="M851.9,168.9c-1.7,2.7-4.3,4.7-6.8,6.6c-2.5,2.1-5.4,3.8-8.5,5c4.3-0.3,8.2-3,11.7-5.7c2.5-1.9,5.1-3.9,6.8-6.6
									c2.7-4.4,2.5-10,1.9-15.2c-1.5-12.2-4.7-24-9.6-35.3c-4.9-11.2-11.6-22.9-9.1-34.8c0.1-1.4,0.9-2.7,2-3.6
									c-0.4,0-0.7,0-1.1,0c-3,0.3-3.8,2.3-4.2,4.3c-2.4,12,4.2,23.6,9.1,34.8s8.1,23.1,9.6,35.3
									C854.4,158.9,854.7,164.5,851.9,168.9z"/>
								<path d="M812.1,191.5c0-4.5,3.2-11.3,7.5-13.3c-0.7,0-1.5,0.1-2.2,0.2c-4.8,1.3-8.5,8.9-8.6,13.7
									c-0.1,12.3,15.7,14.3,25.3,11.7C824.6,205.2,812,202.4,812.1,191.5z"/>
							</g>
							<g class="st0">
								
									<linearGradient id="SVGID_8_" gradientUnits="userSpaceOnUse" x1="881.2111" y1="448.3968" x2="881.2112" y2="683.9113" gradientTransform="matrix(1 0 0 -1 -115 718.8506)">
									<stop  offset="0" style="stop-color:#808080;stop-opacity:0.25"/>
									<stop  offset="0.54" style="stop-color:#808080;stop-opacity:0.12"/>
									<stop  offset="1" style="stop-color:#808080;stop-opacity:0.1"/>
								</linearGradient>
								<path class="st18" d="M742.4,54.8c0,0,27.2-5.4,40.9,0c0,0,8.2-19.1,16.3-19.1s10.9,30,10.9,30l10.9,43.6
									c0,0,51.8,92.6,0,141.6S688,245.4,688,210s16.3-108.9,16.3-108.9s16.3-59.9,21.8-65.4S742.4,54.8,742.4,54.8z"/>
							</g>
							<path class="st16" d="M743.4,58.6c0,0,26.2-5.2,39.3,0c0,0,7.8-18.3,15.7-18.3s10.5,28.8,10.5,28.8l10.5,41.9
								c0,0,49.8,89,0,136.1S691,241.8,691,207.8s15.7-104.7,15.7-104.7s15.7-57.6,21-62.8S743.4,58.6,743.4,58.6z"/>
							<g class="st17">
								<path class="st19" d="M837.6,159.9c-4-17-10.2-33.5-18.3-48.9l1.7,6.6C828,131,833.6,145.2,837.6,159.9z"/>
								<path class="st19" d="M695.7,200.8c0-34,12.7-91.1,12.7-91.1s15.7-57.6,21-62.8s15.7,18.3,15.7,18.3s26.2-5.2,39.3,0
									c0,0,7.9-18.3,15.7-18.3c3,0,5.3,4.3,6.9,9.6c-1.6-7.8-4.3-16.3-8.6-16.3c-7.8,0-15.7,18.3-15.7,18.3
									c-13.1-5.2-39.3,0-39.3,0s-10.5-23.6-15.7-18.3s-21,62.8-21,62.8S694,160,694,194.1C694,197.2,695.7,201.7,695.7,200.8z"/>
							</g>
							<circle class="st20" cx="794.4" cy="104.4" r="5.2"/>
							<circle class="st20" cx="734.2" cy="104.4" r="5.2"/>
							<ellipse class="st20" cx="765.6" cy="109.6" rx="7.8" ry="5.2"/>
							
								<rect x="810" y="100.4" transform="matrix(-0.9762 0.2168 -0.2168 -0.9762 1646.5626 22.8367)" class="st16" width="24.1" height="2.6"/>
							
								<rect x="810" y="110.8" transform="matrix(-0.9807 0.1954 -0.1954 -0.9807 1652.687 61.2315)" class="st16" width="26.7" height="2.6"/>
							
								<rect x="701.5" y="82.4" transform="matrix(-0.3714 0.9285 -0.9285 -0.3714 1053.4968 -520.2037)" class="st16" width="2.6" height="28.2"/>
							
								<rect x="697.6" y="89.7" transform="matrix(-0.1521 0.9884 -0.9884 -0.1521 910.8201 -567.6)" class="st16" width="2.6" height="34.4"/>
							<path class="st6" d="M759.1,143.1c-6.9,0-13.7-0.6-20.5-1.7c-13-2.2-25.5-6.7-36.9-13.3l0.9-4.2c11.6,6.3,24.1,10.7,37,13
								c18.8,3.2,51.3,2.3,84.2-15.9l2.2,4C802.1,138.2,777,143.1,759.1,143.1z"/>
							<path class="st5" d="M823.9,120c-33,18.2-65.4,19.1-84.2,15.9c-12.9-2.3-25.4-6.7-37-13l-2.4,3.9c12,6.6,25,11.2,38.4,13.6
								c6.8,1.2,13.6,1.8,20.5,1.8c17.9,0,43-4.9,67-18.1L823.9,120z M759.9,141.8c-0.3,0-0.5-0.2-0.5-0.5s0.2-0.5,0.5-0.5
								s0.5,0.2,0.5,0.5C760.5,141.5,760.2,141.8,759.9,141.8L759.9,141.8z"/>
							
								<linearGradient id="SVGID_9_" gradientUnits="userSpaceOnUse" x1="875" y1="564.962" x2="875" y2="575.082" gradientTransform="matrix(1 0 0 -1 -115 718.8506)">
								<stop  offset="0" style="stop-color:#FFFFFF"/>
								<stop  offset="1" style="stop-color:#000000"/>
							</linearGradient>
							<path class="st21" d="M754.9,148.9L754.9,148.9c0,2.8,2.3,5.1,5.1,5.1l0,0c2.8,0,5.1-2.3,5.1-5.1l0,0c0-2.8-2.3-5.1-5.1-5.1
								l0,0C757.1,143.8,754.9,146.1,754.9,148.9z M759.9,146.3c-0.5,0-0.8-0.4-0.8-0.8c0-0.4,0.4-0.8,0.8-0.8
								c0.5,0,0.8,0.4,0.8,0.8C760.8,146,760.4,146.3,759.9,146.3L759.9,146.3z"/>
							<path class="st15" d="M755.4,148.9L755.4,148.9c0,2.5,2,4.6,4.6,4.6l0,0c2.5,0,4.6-2,4.6-4.6l0,0c0-2.5-2-4.6-4.6-4.6l0,0
								C757.4,144.3,755.4,146.3,755.4,148.9z M759.9,146.6c-0.4,0-0.8-0.3-0.8-0.8s0.3-0.8,0.8-0.8c0.4,0,0.8,0.3,0.8,0.8
								S760.4,146.6,759.9,146.6L759.9,146.6z"/>
							<path class="st16" d="M817.1,121.5c-69.7,41-109.8,3-109.8,3L817.1,121.5z"/>
							
								<linearGradient id="SVGID_10_" gradientUnits="userSpaceOnUse" x1="817.2775" y1="186.9855" x2="817.2775" y2="811.3994" gradientTransform="matrix(1 0 0 -1 -115 718.8506)">
								<stop  offset="0" style="stop-color:#808080;stop-opacity:0.25"/>
								<stop  offset="0.54" style="stop-color:#808080;stop-opacity:0.12"/>
								<stop  offset="1" style="stop-color:#808080;stop-opacity:0.1"/>
							</linearGradient>
							<path class="st22" d="M1008.3,323c-4.3-12.1-50,22-50,22l-10.6-0.6l-20.3-18.8l14.2-14.2L822.4,209c-6.4-5.5-14.9-8.1-23.3-7
								L700,214.4c-0.4-5.7-3.9-12.4-8.9-19.3c-10.2-16.7-31.6-35.5-39.5-42.2l-12.1-81.5L649.8,56c-1.9-0.5-3.8-1.1-5.6-1.9
								l2.2-3.3l-0.8-0.2l1-1.2h-0.1l25.6-29.6c3.9-4.6,3.6-11.4-0.8-15.6L614-39.3c1.7-4.1,2.6-8.6,2.4-13.1
								c0.5-8.6-3.4-17.4-16.4-23.9c-8-3.8-16.4-6.8-25.1-8.9c-14.3-3.7-29.2-3.4-43.4,0.6c-0.2-0.3-0.5-0.6-0.7-0.9
								c-17.6-20.1-40.7,8.8-41.6,10L398.9,25c-5.1,8.1-3.1,18.7,4.5,24.5l47.8,35.9l-0.1,0.3l2.7,2c-2,4-4.8,6.7-8.4,7.1l7.3,3.7
								c-1.2,0.8-2.5,1.3-3.9,1.5l33.5,16.8c0,17.4,1.8,97.2,30.1,136.3c2.9,4.8,6.4,9.3,10.3,13.3c0,0,2.4-1.3,6.8-3.4l5.1,10.1
								c11.4,22.8,36.1,35.8,61.4,32.1l157.3-22.5l-1.7,5l0.9-0.1l-51,153l8.4,2.8l-0.2,0.3l1.2,0.5l-10.6,20l-33.4,25.7
								c0,0,97.6,48.8,107.9,41.1c10.3-7.7-36-41.1-36-41.1l-2.6-10.3l11.2-23.7l9.4,3.1l75.6-151.2l0,0l2.6-5.1l51.2,64l14.4-14.4
								l1.6,1.6l0.1-0.1l20,20.2l14.5,39.5C936.8,413.5,1012.6,335.1,1008.3,323z M611.3,28.9l-1-1.2c-6.1,7.6-16.9,16.9-28.9,23.1
								v-8.4l0.6-0.5v-3.7c15.5-14.3,21.6-36.1,15.7-56.4l33.2,25.5L611.3,28.9z M498.6-66l-0.8-0.8L498.6-66L498.6-66z M472-12.5
								c-0.2,2.7-0.3,5.4-0.3,8.1c-0.1,3.9,0.2,7.8,0.6,11.7c1.7,13.6,6.6,24.7,16.6,30c8.7,4.6,14.5,4.4,18.1,1.2l0.4,0.4
								c0.3,5.3,1.7,10.5,4.1,15.3c-18.7-3.9-36.6-11.1-52.8-21.3c0,0,0.1,0.7,0.1,1.9L445.2,21L472-12.5z"/>
							<polygon class="st13" points="722.7,414.9 700.3,457.3 735.2,472.2 757.7,424.8 							"/>
							<path class="st23" d="M735.2,472.2l2.5,10c0,0,44.9,32.4,34.9,39.9s-104.8-39.9-104.8-39.9l32.4-25L735.2,472.2z"/>
							<polygon class="st6" points="755.3,429.2 719.9,417.5 709.4,437.3 744.4,452.3 							"/>
							<polygon class="st13" points="882.3,335.4 916,369.6 940.7,340.7 902.3,305.1 							"/>
							<polygon class="st6" points="903.6,306.8 883.7,337.1 896.4,350 922.4,324.1 							"/>
							<path class="st23" d="M940.7,340.7l10.3,0.6c0,0,44.4-33.1,48.5-21.4s-69.5,88-69.5,88l-14-38.3L940.7,340.7z"/>
							<path class="st13" d="M621,85.5l51.8-60c3.8-4.4,3.5-11.1-0.8-15.1L559.3-75.1l-13.7,21.4L633,13.6l-37.1,40.7L621,85.5z"/>
							<path class="st6" d="M615.1,33.2L597,53.1l25.2,31.3l26-30.1C635.5,50.3,624.1,43,615.1,33.2z"/>
							<path class="st13" d="M470.6,98.5l-58.7-44c-7.4-5.6-9.3-15.9-4.4-23.8L495.3-67l18,18l-60.7,75.6l35.9,35.9L470.6,98.5z"/>
							<path class="st6" d="M458.2,89.6l9.6,7.2l18-35.9l-22.6-22.5C463.6,46,465,75.7,458.2,89.6z"/>
							<polygon class="st15" points="755.3,272.7 701.4,434.3 755.3,452.3 845,272.7 773.2,254.8 							"/>
							<polygon class="st6" points="752.8,277.7 750.1,285.8 806.6,277.7 828.7,305.3 842.5,277.7 770.7,259.8 							"/>
							<path class="st13" d="M495.2-66.9c0,0,23-29.7,40.5-9.7s-27.4,22.4-27.4,22.4L495.2-66.9z"/>
							<path class="st15" d="M521.9,236.8l17.4,34.7c11.1,22.2,35.1,34.7,59.6,31.2l210.3-30l71.8,89.8l53.8-53.9L819,209.3
								c-6.3-5.4-14.5-7.8-22.6-6.8L521.9,236.8z"/>
							<path class="st6" d="M469.1,43.2c0,0,4.7,58.3-13.2,60.3l35.9,18c0,0-2,105.7,35.9,143.6c0,0,69.8-37.9,143.6-35.9
								s-18-71.8-18-71.8l-12.1-81.7l10-15c-13.5-4-25.6-11.8-34.9-22.4l0,0c-10,12.5-32.9,29.4-52.7,29.4H555
								c-29.6,0-61-6-85.9-21.9V43.2L469.1,43.2z"/>
							<path class="st24" d="M465.8,38.2c0,0,4.8,58.3-13.2,60.3l35.9,18c0,0-2,105.7,35.9,143.6c0,0,69.8-37.9,143.6-35.9
								s-18-71.8-18-71.8l-12.1-81.7l10-15c-13.5-4-25.6-11.8-34.9-22.4l0,0c-10,12.5-32.9,29.4-52.7,29.4h-8.6
								C522.1,62.6,490.7,54.1,465.8,38.2L465.8,38.2z"/>
							<path class="st13" d="M513.1,21.8v20c0,10.2,4,19.9,11.2,27.1l42.6,42.6l14.2-28.4c2.5-4.9,3.8-10.4,3.8-15.9V21.8H513.1
								L513.1,21.8z"/>
							<path class="st6" d="M513.6,44.8c0,0.7,0,1.5,0.1,2.2c20.4,18.2,51.3,18.2,71.7-0.1V24.7h-71.8V44.8L513.6,44.8z"/>
							<circle class="st13" cx="549" cy="3.8" r="53.9"/>
							<path class="st6" d="M513.1-11.4h89.8c0,0,35.9-35.9,0-53.9c-7.8-3.7-16-6.6-24.4-8.6C523.9-87.7,472-42.5,479,13.4
								c1.7,13.2,6.4,24,16.1,29.1C533,62.4,513.1-11.4,513.1-11.4z"/>
							<path class="st23" d="M513.1-13.9h89.8c0,0,35.9-35.9,0-53.9c-7.8-3.7-16-6.6-24.4-8.6C523.9-90.2,472-45,479,10.9
								c1.7,13.2,6.4,24,16.1,29.1C533,59.9,513.1-13.9,513.1-13.9z"/>
							<ellipse class="st13" cx="515.7" cy="4.5" rx="5" ry="8.7"/>
							<polygon class="st6" points="488.3,115.5 490.8,108 498.2,113 							"/>
							<path class="st6" d="M650.1,152.4c0,0-27.2,13-34.7,25.5"/>
							<polygon class="st6" points="637.9,70.6 635.4,78.1 630.4,70.6 							"/>
							<path class="st23" d="M513.1-13.9h89.8c0,0,35.9-35.9,0-53.9c-7.8-3.7-16-6.6-24.4-8.6C523.9-90.2,472-45,479,10.9
								c1.7,13.2,6.4,24,16.1,29.1C533,59.9,513.1-13.9,513.1-13.9z"/>
							<path class="st6" d="M754.6,187.8c0,0,18.2,39.6-5.7,43s-13-33.2-13-33.2s-2.4-10.9-8.2-11.5"/>
							<path class="st6" d="M776.6,186.8c0,0-21.7,37.8,1.9,43.3s15.9-31.9,15.9-31.9s3.3-10.6,9.2-10.7"/>
							<path class="st16" d="M752.5,186.6c0,0,18.2,39.6-5.7,43s-13-33.2-13-33.2s-2.4-10.9-8.2-11.5"/>
							<path class="st16" d="M778.3,185.1c0,0-21.7,37.8,1.9,43.3s15.9-31.9,15.9-31.9s3.3-10.6,9.2-10.7"/>
							<rect x="739.1" y="221.4" class="st25" width="0.4" height="7.7"/>
							<rect x="745.7" y="221.4" class="st25" width="0.4" height="7.7"/>
							<rect x="742.1" y="219" class="st25" width="0.4" height="10.8"/>
							<rect x="782.1" y="219.8" class="st25" width="0.4" height="7.7"/>
							<rect x="788.7" y="219.8" class="st25" width="0.4" height="7.7"/>
							<rect x="785.1" y="217.3" class="st25" width="0.4" height="10.8"/>
							<g class="st0">
								
									<linearGradient id="SVGID_11_" gradientUnits="userSpaceOnUse" x1="1641.4697" y1="2618.7021" x2="1641.4697" y2="2713.9272" gradientTransform="matrix(0.9481 -0.318 -0.318 -0.9481 45.6106 3678.5613)">
									<stop  offset="0" style="stop-color:#808080;stop-opacity:0.25"/>
									<stop  offset="0.54" style="stop-color:#808080;stop-opacity:0.12"/>
									<stop  offset="1" style="stop-color:#808080;stop-opacity:0.1"/>
								</linearGradient>
								<circle class="st26" cx="754" cy="628.6" r="47.6"/>
							</g>
							<circle class="st5" cx="754" cy="628.6" r="44.5"/>
							<g class="st0">
								
									<linearGradient id="SVGID_12_" gradientUnits="userSpaceOnUse" x1="1538.473" y1="2647.4431" x2="1538.473" y2="2828.7869" gradientTransform="matrix(0.9481 -0.318 -0.318 -0.9481 45.6661 3678.5588)">
									<stop  offset="0" style="stop-color:#808080;stop-opacity:0.25"/>
									<stop  offset="0.54" style="stop-color:#808080;stop-opacity:0.12"/>
									<stop  offset="1" style="stop-color:#808080;stop-opacity:0.1"/>
								</linearGradient>
								<path class="st27" d="M635.4,688.3c-6.4,2.2-14.4,0.6-17.3-5.5c-1.7-3.5-1.3-7.5-0.9-11.4c0.4-4.2,0.8-7.8-1.6-10.2
									c-1.2-1-2.7-1.8-4.2-2.2c-2-0.7-4.2-1.2-6.2-1.8c-3.7-0.8-7.3-2-10.7-3.5c-6.8-3.2-11.1-8.6-11.6-14.4
									c-0.4-5,2-9.6,4.3-13.9s4.6-8.7,3.5-13c-1.5-5.8-8.4-8.5-14.6-11l-1-0.4c-7.5-3-15.5-9.3-13.5-17.5c0.7-2.8,2.5-5,4.2-7
									c1.2-1.3,2.2-2.7,3-4.3c2.7-5.7-1-12.3-2.6-14.8c-1.3-2-2.8-3.8-4.3-5.7c-2.3-2.7-4.4-5.6-6.1-8.7l-0.3-0.5
									c-4.1-7.7-4.1-8-3.8-16.4v-1l3.5,0.1v1c-0.3,7.6-0.3,7.6,3.4,14.6l0.3,0.5c1.6,2.9,3.6,5.6,5.8,8.1c1.5,1.9,3.1,3.8,4.5,5.9
									c4.3,6.5,5.3,13.2,2.9,18.3c-1,1.8-2.1,3.5-3.5,5c-1.5,1.8-3,3.6-3.5,5.6c-1.6,6.3,6.4,11.3,11.4,13.3l1,0.4
									c6.6,2.6,14.8,5.8,16.7,13.4c1.4,5.6-1.2,10.6-3.8,15.5c-2.2,4.1-4.2,8-3.9,12c0.4,5.4,5.2,9.5,9.6,11.5
									c3.3,1.4,6.6,2.5,10.1,3.3c2.1,0.5,4.3,1.1,6.5,1.8c2.1,0.6,4,1.6,5.6,3.1c3.6,3.5,3.1,8.4,2.6,13.1
									c-0.4,3.5-0.7,6.8,0.6,9.5c2.3,4.8,9.5,5.5,14.5,3.1c4.1-1.9,7.3-5.2,10.7-8.6c1.1-1.1,2.2-2.3,3.4-3.4
									c6.3-6,12.8-8.6,18.5-7.6c1.8,0.4,3.6,1,5.3,1.7c1.3,0.6,2.7,1.1,4.1,1.4c6.5,1.2,12.9-2.9,14.5-9.3
									c0.1-0.6,0.2-1.2,0.3-1.9c0.3-2.1,0.7-4.4,2.3-6.3c1.6-1.9,4.3-2.5,6.2-2.9l19.3-4.5l0.8,3.5l-19.3,4.5
									c-1.8,0.4-3.4,0.9-4.3,1.9s-1.2,2.7-1.4,4.4c-0.1,0.7-0.2,1.4-0.4,2.1c-2.1,8.3-10.3,13.6-18.8,12c-1.6-0.4-3.2-0.9-4.7-1.6
									s-3-1.2-4.6-1.5c-5.9-1-11.7,3.1-15.5,6.7c-1.1,1-2.2,2.2-3.3,3.3c-3.5,3.5-7,7.2-11.7,9.4C636.6,687.8,636,688,635.4,688.3
									z"/>
							</g>
							<path class="st5" d="M635.9,686.5c-6.4,2.2-14.4,0.6-17.3-5.5c-1.7-3.5-1.3-7.5-0.9-11.4c0.4-4.2,0.8-7.8-1.6-10.2
								c-1.2-1-2.7-1.8-4.2-2.2c-2-0.7-4.2-1.2-6.2-1.8c-3.7-0.8-7.3-2-10.7-3.5c-6.8-3.2-11.1-8.6-11.6-14.4c-0.4-5,2-9.6,4.3-13.9
								s4.6-8.7,3.5-13c-1.5-5.8-8.4-8.5-14.6-11l-1-0.4c-7.5-3-15.5-9.3-13.5-17.5c0.7-2.8,2.5-5,4.2-7c1.2-1.3,2.2-2.7,3-4.3
								c2.7-5.7-1-12.3-2.6-14.8c-1.3-2-2.8-3.8-4.3-5.7c-2.3-2.7-4.4-5.6-6.1-8.7l-0.3-0.5c-4.1-7.7-4.1-8-3.8-16.4v-1l3.5,0.1v1
								c-0.3,7.6-0.3,7.6,3.4,14.6l0.3,0.5c1.6,2.9,3.6,5.6,5.8,8.1c1.5,1.9,3.1,3.8,4.5,5.9c4.3,6.5,5.3,13.2,2.9,18.3
								c-1,1.8-2.1,3.5-3.5,5c-1.5,1.8-3,3.6-3.5,5.6c-1.6,6.3,6.4,11.3,11.4,13.3l1,0.4c6.6,2.6,14.8,5.8,16.7,13.4
								c1.4,5.6-1.2,10.6-3.8,15.5c-2.2,4.1-4.2,8-3.9,12c0.4,5.4,5.2,9.5,9.6,11.5c3.3,1.4,6.6,2.5,10.1,3.3
								c2.1,0.5,4.3,1.1,6.5,1.8c2.1,0.6,4,1.6,5.6,3.1c3.6,3.5,3.1,8.4,2.6,13.1c-0.4,3.5-0.7,6.8,0.6,9.5
								c2.3,4.8,9.5,5.5,14.5,3.1c4.1-1.9,7.3-5.2,10.7-8.6c1.1-1.1,2.2-2.3,3.4-3.4c6.3-6,12.8-8.6,18.5-7.6c1.8,0.4,3.6,1,5.3,1.7
								c1.3,0.6,2.7,1.1,4.1,1.4c6.5,1.2,12.9-2.9,14.5-9.3c0.1-0.6,0.2-1.2,0.3-1.9c0.3-2.1,0.7-4.4,2.3-6.3
								c1.6-1.9,4.3-2.5,6.2-2.9l19.3-4.5l0.8,3.5l-19.3,4.5c-1.8,0.4-3.4,0.9-4.3,1.9s-1.2,2.7-1.4,4.4c-0.1,0.7-0.2,1.4-0.4,2.1
								c-2.1,8.3-10.3,13.6-18.8,12c-1.6-0.4-3.2-0.9-4.7-1.6s-3-1.2-4.6-1.5c-5.9-1-11.7,3.1-15.5,6.7c-1.1,1-2.2,2.2-3.3,3.3
								c-3.5,3.5-7,7.2-11.7,9.4C637.1,686,636.5,686.3,635.9,686.5z"/>
							<path class="st28" d="M751.4,596.9c0,0,24.7-3.7,36.7,30.7"/>
							<path class="st28" d="M724.1,651.7c0,0-18.3-25.9,14.3-54.5"/>
							<path class="st28" d="M731.6,642.2c0,0-8.8-13.6,0.4-25.8"/>
							<path class="st28" d="M747.4,611.3c0,0,11.7,4.6,13.3,25.4"/>
							<path class="st28" d="M761.1,586.9c0,0,18.3,3.5,31,28.6"/>
							<path class="st28" d="M737.6,594.8c0,0,8.6-6.1,16.6-2.9"/>
							<path class="st28" d="M744.1,652.4c0,0,11.5,7.3,41.3-13.8"/>
							<path class="st28" d="M742,667c0,0,7.2,7.2,22.2,1.1"/>
							<path class="st28" d="M720.6,603.2c-6.3,9.3-8.2,20.9-5.4,31.7"/>
							<path class="st28" d="M730.3,649.6c0,0-1,6.7,6.6,10.1"/>
							<path class="st28" d="M790.2,641.8c0,0-0.5,13-7.7,13.8"/>
							<path class="st28" d="M750.7,660.9c8.8,1.2,17.7-1.8,24-8"/>
							<path class="st28" d="M761.8,614.5c0,0,6.2,4.3,5.6,12"/>
							<path class="st28" d="M738,623c0,0-1.7,9.1,2.8,14.6"/>
							<path class="st28" d="M743.2,621.2c0,0,6.4,8,4.7,13.9"/>
						</g>
					</g>
				</g>
			</g>
		</g>
	</g>
</g>
</svg>
