<?xml version="1.0" encoding="utf-8"?>
<!-- Generator: Adobe Illustrator 19.0.0, SVG Export Plug-In . SVG Version: 6.00 Build 0)  -->
<svg version="1.1" xmlns="http://www.w3.org/2000/svg" xmlns:xlink="http://www.w3.org/1999/xlink" x="0px" y="0px"
	 viewBox="0 0 1000 1000" style="enable-background:new 0 0 1000 1000;" xml:space="preserve">
<style type="text/css">
	.st0{fill:#6C63FF;}
	.st1{fill:url(#SVGID_1_);}
	.st2{opacity:0.1;}
	.st3{fill:#3F3D56;}
	.st4{opacity:0.1;enable-background:new    ;}
	.st5{opacity:0.2;fill:#6C63FF;enable-background:new    ;}
	.st6{fill:none;}
	.st7{fill:none;stroke:#3F3D56;stroke-width:2;stroke-miterlimit:10;}
	.st8{fill:#FFFFFF;}
	.st9{fill:#FBBEBE;}
	.st10{opacity:0.2;fill:#FFFFFF;enable-background:new    ;}
	.st11{opacity:0.2;enable-background:new    ;}
</style>
<g id="A2221">
	<g id="b3eb9a67-8d35-4413-b29d-d464657b13c9">
		<g>
			<path class="st0" d="M930,629.7c-10.1,26.4-9.1,55.8,2.8,81.4c0.7,1.5,1.5,3.1,2.2,4.6c9.3,18.2,22.3,37.3,15.3,56
				c-5.4,14.6-21.2,22.3-35.7,28.1c-56.3,22.3-115.3,36.6-175.5,42.5c-44.4,4.4-89.1,4.1-133.7,4c-96.5-0.4-193.1-0.9-289.3-8.6
				c-44-3.4-88.1-8.5-130.4-21c-58.1-17.2-111.3-48-155.1-89.8c-1.5-1.5-3.1-3-4.6-4.6c-9.2-9.3-17.6-19.6-21.9-31.9
				c-8.4-24.7,1.7-51.8,14.7-74.3c13-22.5,29.3-44.1,34.6-69.7c7.7-37.5-9.7-75.1-23.1-111.1s-22.2-79.2,0-110.6
				c10.8-15.3,27.5-25.3,44.3-33.6c49.6-24.4,104-37.6,159.3-38.8c32.3-0.7,65.6,2.6,95.7-8.9c17-6.5,32.2-17.4,49.8-21.8
				c29.8-7.3,60.7,5.6,87.4,20.7c15.4,8.7,30.4,18.2,46.5,25.6c11.7,5.4,25.1,11.4,37.6,14.8c12.2,3.3,24.8-3.3,35.5-8.7
				c23.2-11.7,45.1-29.2,71.8-31.9c33.8-3.4,67.4,18.4,100.7,11.4c14.2-3,26.8-11,40.6-15.4c36.1-11.5,75.2,2.6,109.4,19.2
				c21.2,10.2,42.7,22.2,55.9,41.7c10.2,15,14.5,33,18.5,50.6c15.5,66.9,29.6,140.9-3.2,201.3C965.2,578.2,941.3,600.6,930,629.7z"
				/>
			
				<linearGradient id="SVGID_1_" gradientUnits="userSpaceOnUse" x1="519.9721" y1="1201.0717" x2="519.9721" y2="574.1636" gradientTransform="matrix(1 0 0 1 -19.44 -355.43)">
				<stop  offset="0" style="stop-color:#000000;stop-opacity:0.2"/>
				<stop  offset="0.48" style="stop-color:#FFFFFF;stop-opacity:0"/>
				<stop  offset="1" style="stop-color:#FFFFFF;stop-opacity:0"/>
			</linearGradient>
			<path class="st1" d="M993.8,515.4c-3.1,12-7.7,23.7-13.6,34.6c-15,27.4-38.8,49.9-50.2,79.1c-1.7,4.3-3,8.8-4.1,13.3
				c-0.4,1.9-0.9,3.7-1.1,5.6c-3.8,21.2-0.9,43,8.1,62.6c0.7,1.5,1.5,3.1,2.2,4.6c9.3,18.2,22.3,37.3,15.3,56
				c-0.7,1.9-1.6,3.7-2.7,5.4c-6.9,11.2-20.4,17.6-33,22.6c-56.3,22.3-115.3,36.6-175.5,42.5c-11.6,1.1-23.2,2-34.8,2.6l0,0
				c-32.9,1.7-65.9,1.5-98.9,1.4c-96.5-0.4-193.1-0.9-289.3-8.6c-44-3.4-88.1-8.5-130.4-21C127.7,798.7,74.5,768,30.7,726.2
				c-1.5-1.5-3.1-3-4.6-4.6c-9.2-9.3-17.6-19.6-21.9-31.9c-5.9-17-2.8-35.2,3.9-52.3c3-7.6,6.6-15,10.8-22c1.1-2,2.2-3.9,3.4-5.8
				c12.3-20.6,26.3-40.5,31.2-63.8c6-28.8-2.8-57.6-13.3-85.6c-0.9-2.5-1.9-4.9-2.8-7.4c-2.3-6.1-4.6-12.1-6.9-18.2
				c-13.4-36-22.2-79.2-0.1-110.6c0.6-0.9,1.3-1.7,1.9-2.6c10.3-13.3,25.2-22.4,40.4-29.9l2.1-1c49.6-24.5,103.9-37.8,159.3-39
				c32.3-0.7,65.6,2.6,95.7-8.9c17-6.5,32.2-17.4,49.8-21.8c29.8-7.3,60.7,5.6,87.4,20.7c15.4,8.7,30.4,18.2,46.5,25.6
				c11.7,5.4,25.1,11.4,37.6,14.8c12.2,3.3,24.8-3.3,35.5-8.7c23.2-11.7,45.1-29.2,71.8-31.9c33.8-3.4,67.4,18.4,100.7,11.4
				c14.2-3,26.8-11,40.6-15.4c36.1-11.5,75.2,2.6,109.4,19.2c18.7,9,37.5,19.4,50.8,35c1.8,2.2,3.5,4.4,5.1,6.7
				c0.2,0.3,0.3,0.5,0.5,0.8c9.7,14.8,14,32.5,18,49.8c7.8,33.7,15.3,69.4,16.5,104C1000.7,474.2,999.1,495.2,993.8,515.4z"/>
			<g class="st2">
				<path d="M950.3,771c-0.7,1.9-1.6,3.7-2.7,5.4c-47.8,24.4-98.9,41.8-151.6,51.6c-29.5,5.5-60.3,10.9-91.8,16.1l0,0
					c-32.9,1.7-65.9,1.5-98.9,1.4c-96.5-0.4-193.1-0.9-289.3-8.6c-44-3.4-88.1-8.5-130.4-21C127.6,798.7,74.4,768,30.6,726.2
					c-1.5-1.5-3.1-3-4.6-4.6c-9.2-9.3-17.6-19.6-21.9-31.9c-5.9-17-2.8-35.2,3.9-52.3l916.8,10.5c-3.8,21.2-0.9,43,8.1,62.6
					c0.7,1.5,1.5,3.1,2.2,4.6C944.4,733.3,957.4,752.3,950.3,771z"/>
				<path d="M959.7,291.3H72.7l2.1-1c49.6-24.4,103.9-37.6,159.3-38.8c32.3-0.7,65.6,2.6,95.7-8.9c17-6.5,32.2-17.4,49.8-21.8
					c29.8-7.3,60.7,5.6,87.4,20.7c15.4,8.7,30.4,18.2,46.5,25.6c11.7,5.4,25.1,11.4,37.6,14.8c12.2,3.3,24.8-3.3,35.5-8.7
					c23.2-11.7,45.1-29.2,71.8-31.9c33.8-3.4,67.4,18.4,100.7,11.4c14.2-3,26.8-11,40.6-15.4c36.1-11.5,75.2,2.6,109.4,19.2
					C927.5,265.3,946.5,275.7,959.7,291.3z"/>
				<path d="M40.1,460c10.5,28.1,19.3,56.8,13.3,85.6C48.6,569,34.5,589,22.2,609.5l903.7,32.7c1-4.6,2.4-8.9,4.1-13.3
					c11.4-29.2,35.2-51.6,50.2-79.1c5.9-10.9,10.5-22.5,13.6-34.5L40.1,460z M403,563.2h-22.9c6.3-0.2,11.4,4.7,11.6,11
					c0.2,6.3-4.7,11.4-11,11.6c-0.2,0-0.4,0-0.6,0H247.6c-6.3,0.2-11.4-4.7-11.6-11c-0.2-6.3,4.7-11.4,11-11.6c0.2,0,0.4,0,0.6,0
					h22.9c-6.3,0.2-11.4-4.7-11.6-11c-0.2-6.3,4.7-11.4,11-11.6c0.2,0,0.4,0,0.6,0h-16.3c-6.3,0-11.4-5.1-11.4-11.4
					s5.1-11.4,11.4-11.4l0,0h132.5c6.3,0,11.4,5.1,11.4,11.4s-5.1,11.4-11.4,11.4l0,0H403c6.3-0.2,11.4,4.7,11.6,11
					c0.2,6.3-4.7,11.4-11,11.6C403.4,563.2,403.2,563.2,403,563.2L403,563.2z"/>
				<path d="M983.4,348.6c-4-17.3-8.3-35-18-49.8L32.2,321.3c-0.7,0.9-1.3,1.7-1.9,2.6C8.1,355.3,17,398.5,30.4,434.5
					c2.2,6,4.6,12,7,18.2H1000C998.6,418,991.1,382.3,983.4,348.6z M200.9,392.4H178c6.3-0.2,11.4,4.7,11.6,11s-4.7,11.4-11,11.6
					c-0.2,0-0.4,0-0.6,0H45.5c-6.3,0.2-11.4-4.7-11.6-11c-0.2-6.3,4.7-11.4,11-11.6c0.2,0,0.4,0,0.6,0h22.9
					c-6.3,0.2-11.5-4.7-11.7-11s4.7-11.4,11-11.6c0.2,0,0.4,0,0.6,0H51.9c-6.3,0-11.4-5.1-11.4-11.4s5.1-11.4,11.4-11.4h132.5
					c6.3,0,11.4,5.1,11.4,11.4s-5.1,11.4-11.4,11.4h16.3c6.3-0.2,11.4,4.7,11.6,11c0.2,6.3-4.7,11.4-11,11.6
					C201.2,392.4,201.1,392.4,200.9,392.4L200.9,392.4z"/>
			</g>
			<path class="st3" d="M950.3,771.8c-5.4,14.6-21.2,22.3-35.7,28.1c-56.3,22.3-115.3,36.6-175.5,42.5c-44.4,4.4-89.1,4.1-133.7,4
				c-96.5-0.4-193.1-0.9-289.3-8.6c-44-3.4-88.1-8.5-130.4-21c-58.1-17.2-111.3-48-155.1-89.8c-1.5-1.5-3.1-3-4.6-4.6
				c13.2-1.7,26.5-2.1,39.8-1c37.2,2.6,73.4,12.9,110.4,17.4c143.3,17.3,290.2-53.5,430.1-18.2c43.2,10.9,84.1,31.8,128.5,36
				c65.5,6.2,128-24.4,192.2-39c2.7-0.6,5.4-1.2,8.3-1.7C944.4,734,957.4,753,950.3,771.8z"/>
			<rect x="773.5" y="468.7" class="st3" width="4.4" height="243.6"/>
			<path class="st3" d="M782.1,757.9c-4.1,3.3-10,3.3-14.1,0c-2-13.1,3-38.6,4.2-44.4c0.2-0.8,0.3-1.1,0.3-1.1h5.7
				c0.3,0.3,0.7,0.9,0.9,1.3C782.9,722,782.1,757.9,782.1,757.9z"/>
			<path class="st4" d="M777,707v5.2h-2.4V707c0.3-0.1,0.8-0.1,1.1-0.1C776.1,706.9,776.5,706.9,777,707z"/>
			<path class="st4" d="M779,713.6c-1,0.5-2.2,0.8-3.3,0.8c-1.2,0-2.5-0.3-3.5-0.9c0.2-0.8,0.3-1.1,0.3-1.1h5.7
				C778.5,712.7,778.8,713.1,779,713.6z"/>
			<ellipse class="st3" cx="775.8" cy="710.6" rx="4.7" ry="2.8"/>
			<polygon class="st3" points="754.8,429.4 771.3,422.4 796.3,427.4 777.1,412.8 			"/>
			<polygon class="st0" points="759.7,432 754.8,429.4 771.5,421.4 796.3,427.4 791.9,429.4 771.5,424.9 			"/>
			<polygon class="st3" points="759.7,432 754.8,429.4 772.1,420.6 796.3,427.4 791.9,429.4 771.5,424.9 			"/>
			<polygon class="st3" points="759,430.1 772.5,468 779.2,468 791.8,427.8 771.5,423 			"/>
			<polygon class="st3" points="782.6,457.3 779.9,465.9 779.2,468 772.5,468 772.1,466.6 768.9,457.7 774,454.7 			"/>
			<polygon class="st5" points="771.5,424.9 774.7,468 772.5,468 759.7,432 			"/>
			<polygon class="st4" points="777.1,412.8 771.5,421.4 754.8,429.4 			"/>
			<path class="st4" d="M779.9,465.9l-0.7,2.1h-6.7l-0.5-1.4c1.1-1.1,2.7-1.7,4.3-1.6C777.6,465,778.8,465.3,779.9,465.9z"/>
			<path class="st4" d="M777,468.7v3.7c-0.2,0-0.4,0-0.6,0c-0.6,0-1.1-0.1-1.7-0.2v-3.5L777,468.7z"/>
			<ellipse class="st3" cx="776.3" cy="468.7" rx="4.7" ry="2.8"/>
			<path class="st3" d="M562.2,716.1c0,0-57.4-2.4-63.4-114.7s53.8-131.3,53.8-131.3s18.9-10.6,27.4-11s36.5,2.2,36.5,2.2l-30.9-5.9
				c0,0,43.5-16.6,56.5-17.9l-47.1,9.9c0,0-0.7-26.1,10.6-34.7c0,0-9.6-0.7-14.7,18.1c-2.9,11-10.9,20-21.5,24.1
				c-17.5,6.8-41.6,17.6-47.1,26.8c0,0-10.2,10.6-8.6-17s8.9-51.3,11.4-51.9c0,0,20.7-22.1,49.9-23.4c0,0-17-6.9-45.7,14.6
				c0,0-2.4-10.8,8.4-23.7s27.6-39.8,45.9-42.7c0,0-25.6-1.5-45.9,31.6c0,0-7.5,4.8-8.2-7.5c-0.7-12.3-5.1-27.8-5.1-27.8
				s-6.2,28.5,6.9,41.3c0,0-25,32.4-23.8,68.9c0,0-7.7,16.6-10.6-2.8c0,0-1.6-26.8-5-49.5c-2.8-18.5,2.4-37.3,14.1-51.9
				c5.5-6.9,9.4-13.5,7.2-17l-28.9,34.4c0,0-24.3-56.4-42-68.5c-17.7-12.1-19.9-14.8-19.9-14.8l28.5,33.4l-35.8-12.6l35.8,16.6
				c0,0,16.6,13.5,26.1,50.3s10.4,60,10.4,60s-51-40.4-60.7-39.1l33,25c18.2,13.8,29.5,34.7,31.1,57.4l0,0c0,0-63.8-16.3-79.3-19.4
				l-29.3-30l22.1,28.3l-45.5-0.7l-26.1-18.6c0,0,20.6,17.2,18.6,18.3c-2,1.1-32,2.4-32,2.4s76.4-0.4,84.8,5.1
				c8.4,5.5,27.1,7.6,27.1,7.6l-54.1,8.2l64.5-4.6c0,0,48.8,8.9,51.5,24.1c0,0-10,25.9-16.6,36.2c-5.5,8.5-16.6,36.2-18.8,60.5
				c-2.2,24.3-5.3,61.6,3.1,84.4s11.4,35.8,7.3,42.6c-4.1,6.8-8.2,15.7,5.5,17.5c13.7,1.8,73.7-0.9,73.7-0.9
				S565.7,729.6,562.2,716.1z"/>
			<path class="st4" d="M530.1,704c-6-3.1-12.9-4-19.4-2.4c-11.3,2.4-28.5,1.1-30,0.9"/>
			<path class="st4" d="M494.1,571.7c0,0-2.8,43.2,2.2,51.7L494.1,571.7z"/>
			<path class="st4" d="M484,623.5c0,0,3.5,40.4,5.9,48.4C492.3,679.7,484,623.5,484,623.5z"/>
			<path class="st4" d="M480.5,524c-2.5,0.9-13.2,22.5-11,28.9S480.5,524,480.5,524z"/>
			<path class="st4" d="M507.6,501.6c-1.1,0.5-6.1,13-5.2,16.6C503.3,521.8,507.6,501.6,507.6,501.6z"/>
			<path class="st4" d="M461.5,574.1c1.2,12.6,1.9,20.7,1.1,30.8c-0.7,7.8-0.5,15.7,0.3,23.4"/>
			<path class="st4" d="M594.7,428.1c-1.4,1.8-2.2,4-2.1,6.4c-0.1,2.2,0.3,4.6,0.1,6.8c-0.2,2.4-1.3,5.2-3.7,5.5"/>
			<path class="st4" d="M553.9,353.4c-3,3-5.7,6.4-8,9.9c-0.7,1.1-1.5,2.2-2.2,3.2c-1.4,1.3-2.8,2.5-4.4,3.6
				c-3.4,2.8-5.9,6.6-7,10.9"/>
			<path class="st4" d="M438.5,288.8c0.7,1.4,1.7,2.7,2.8,3.8c1,0.9,2.2,1.7,3,2.8c0.7,0.9,1.4,1.9,2,2.9c2.4,3.7,5.2,7.1,8.2,10.3"
				/>
			<path class="st4" d="M492,352.7c-1.9,1.2-2.4,3.7-2.3,6c0.1,2.3,0.4,4.6-0.4,6.6c-0.3,0.9-1,1.8-1.4,2.8
				c-0.6,1.6-0.8,3.4-0.7,5.2c0,2.1,0.1,4,0.2,6.1c0.1,2.5,0.3,5.1,2,6.9"/>
			<path class="st6" d="M476,416.1c1.8,0.9,3.4,2.1,5,3.4c1.5,1.4,2.5,3.2,2.8,5.2c0.1,0.9,0.1,1.7,0.3,2.6c0.3,1.1,0.9,2.2,1.7,3.1
				c1.3,1.6,2.7,3.2,4.2,4.6"/>
			<path class="st4" d="M490.4,473.7c-1.3-1-2.6-2-4-2.8c-1.3-0.8-2.7-1.4-4.1-1.8c-2.2-0.6-4.6-0.5-6.8-0.8s-4.6-0.9-6.2-2.6"/>
			<path class="st4" d="M400.6,445.9c2.7,0.1,5.5,0.2,7.8,1.4c1.2,0.6,2.2,1.5,3.4,2.2c1.5,0.9,3.3,1.3,5.1,1.3"/>
			<path class="st4" d="M437.9,457c-0.7-0.3-1.5-0.2-1.9,0.4c-0.5,0.5-0.8,1.3-1.2,1.8c-0.9,1-2.6,1.2-4,1.2"/>
			<path class="st4" d="M453.3,399.8l2.6,1.4c2.7,1.3,5.2,2.8,7.6,4.6"/>
			<path class="st4" d="M482.7,425.1c1.7-0.4,3.2,1.4,3.4,3.1c0.3,1.7-0.1,3.5,0.4,5.2c0.5,1.5,1.5,2.8,2.6,3.8"/>
			<path class="st4" d="M511.4,428.2c1.5,4.6-1.7,9.6-0.8,14.5c0.3,1.5,0.9,2.8,1.3,4.2c0.9,3.8-0.7,7.8-3.1,10.8"/>
			<polygon class="st3" points="253.5,754.9 254.8,757.8 254.8,736.8 253.5,736.8 			"/>
			<polygon class="st3" points="168,754.9 166.7,757.8 166.7,736.8 168,736.8 			"/>
			<rect x="173.4" y="698.3" class="st3" width="3.7" height="25.8"/>
			<rect x="247.1" y="698.3" class="st3" width="3.7" height="25.8"/>
			<g class="st2">
				<rect x="173.4" y="698.3" width="3.7" height="25.8"/>
				<rect x="247.1" y="698.3" width="3.7" height="25.8"/>
			</g>
			<rect x="173.4" y="698.3" class="st4" width="3.7" height="3"/>
			<rect x="247.1" y="698.3" class="st4" width="3.7" height="3"/>
			<rect x="167.8" y="697.2" class="st3" width="88.3" height="3.9"/>
			<rect x="173.4" y="702.6" class="st4" width="3.7" height="3.9"/>
			<rect x="247.1" y="702.6" class="st4" width="3.7" height="3.9"/>
			<rect x="167.8" y="702.4" class="st3" width="88.3" height="3.9"/>
			<rect x="173.4" y="707.9" class="st4" width="3.7" height="3.9"/>
			<rect x="247.1" y="707.9" class="st4" width="3.7" height="3.9"/>
			<rect x="167.8" y="707.6" class="st3" width="88.3" height="3.9"/>
			<rect x="173.4" y="713.1" class="st4" width="3.7" height="3.9"/>
			<rect x="247.1" y="713.1" class="st4" width="3.7" height="3.9"/>
			<rect x="167.8" y="712.9" class="st3" width="88.3" height="3.9"/>
			<rect x="173.4" y="718.4" class="st4" width="3.7" height="3.9"/>
			<rect x="247.1" y="718.4" class="st4" width="3.7" height="3.9"/>
			<rect x="167.8" y="718.1" class="st3" width="88.3" height="3.9"/>
			<g class="st2">
				<circle cx="175.2" cy="699.3" r="0.5"/>
				<circle cx="175.2" cy="704.6" r="0.5"/>
				<circle cx="175.2" cy="709.8" r="0.5"/>
				<circle cx="175.2" cy="715" r="0.5"/>
				<circle cx="175.2" cy="720.3" r="0.5"/>
				<circle cx="249" cy="699.3" r="0.5"/>
				<circle cx="249" cy="704.6" r="0.5"/>
				<circle cx="249" cy="709.8" r="0.5"/>
				<circle cx="249" cy="715" r="0.5"/>
				<circle cx="249" cy="720.3" r="0.5"/>
			</g>
			<circle class="st3" cx="175.2" cy="699.1" r="0.5"/>
			<circle class="st3" cx="175.2" cy="704.3" r="0.5"/>
			<circle class="st3" cx="175.2" cy="709.6" r="0.5"/>
			<circle class="st3" cx="175.2" cy="714.8" r="0.5"/>
			<circle class="st3" cx="175.2" cy="720" r="0.5"/>
			<circle class="st3" cx="175.2" cy="699.1" r="0.5"/>
			<circle class="st3" cx="175.2" cy="704.3" r="0.5"/>
			<circle class="st3" cx="175.2" cy="709.6" r="0.5"/>
			<circle class="st3" cx="175.2" cy="714.8" r="0.5"/>
			<circle class="st3" cx="175.2" cy="720" r="0.5"/>
			<circle class="st3" cx="249" cy="699.1" r="0.5"/>
			<circle class="st3" cx="249" cy="704.3" r="0.5"/>
			<circle class="st3" cx="249" cy="709.6" r="0.5"/>
			<circle class="st3" cx="249" cy="714.8" r="0.5"/>
			<circle class="st3" cx="249" cy="720" r="0.5"/>
			<g class="st2">
				<circle cx="175.2" cy="699.1" r="0.5"/>
				<circle cx="175.2" cy="704.3" r="0.5"/>
				<circle cx="175.2" cy="709.6" r="0.5"/>
				<circle cx="175.2" cy="714.8" r="0.5"/>
				<circle cx="175.2" cy="720" r="0.5"/>
				<circle cx="175.2" cy="699.1" r="0.5"/>
				<circle cx="175.2" cy="704.3" r="0.5"/>
				<circle cx="175.2" cy="709.6" r="0.5"/>
				<circle cx="175.2" cy="714.8" r="0.5"/>
				<circle cx="175.2" cy="720" r="0.5"/>
				<circle cx="249" cy="699.1" r="0.5"/>
				<circle cx="249" cy="704.3" r="0.5"/>
				<circle cx="249" cy="709.6" r="0.5"/>
				<circle cx="249" cy="714.8" r="0.5"/>
				<circle cx="249" cy="720" r="0.5"/>
			</g>
			<polygon class="st3" points="258,725.6 165.7,725.6 167.8,723 256,723 			"/>
			<polygon class="st3" points="261.3,729.5 162.2,729.3 165.5,725.8 258.4,725.8 			"/>
			<polygon class="st3" points="264.4,733.3 158.6,733.3 161.8,729.7 261.5,729.8 			"/>
			<polygon class="st3" points="174.7,736.8 174.7,744.3 173.4,746.8 173,737.9 172.9,736.8 			"/>
			<polygon class="st3" points="248.9,736.8 248.9,737.9 248.5,746.8 247.1,744.3 247.1,736.8 			"/>
			<rect x="170" y="736.2" class="st3" width="3.4" height="10.7"/>
			<rect x="248.5" y="736.2" class="st3" width="3.4" height="10.7"/>
			<polygon class="st4" points="173.4,736.8 174.7,736.8 174.7,737.9 170,737.9 170,736.2 173.4,736.2 			"/>
			<rect x="170" y="736.2" class="st4" width="3.4" height="10.7"/>
			<rect x="248.5" y="736.2" class="st4" width="3.4" height="10.7"/>
			<polygon class="st4" points="251.8,736.2 251.8,737.9 247.1,737.9 247.1,736.8 248.5,736.8 248.5,736.2 			"/>
			<rect x="165.7" y="735" class="st3" width="90.3" height="2.7"/>
			<rect x="165.7" y="735" class="st4" width="90.3" height="2.7"/>
			<rect x="162.9" y="734.5" class="st3" width="3.9" height="23.2"/>
			<rect x="254.8" y="734.5" class="st3" width="3.9" height="23.2"/>
			<rect x="162.9" y="734.5" class="st4" width="3.9" height="23.2"/>
			<rect x="254.8" y="734.5" class="st4" width="3.9" height="23.2"/>
			<rect x="165.7" y="735" class="st4" width="90.3" height="0.3"/>
			<circle class="st4" cx="164.6" cy="736.4" r="0.5"/>
			<circle class="st4" cx="257.1" cy="736.3" r="0.5"/>
			<polygon class="st3" points="159.5,732.4 158.6,733.3 158.6,734.2 264.4,734.2 264.4,733.3 263.6,732.4 			"/>
			<rect x="158.6" y="733.3" class="st3" width="105.8" height="1.6"/>
			<path class="st3" d="M425.9,691.2c-0.5,0.7-0.9,1.4-1.1,2.2c-0.1,0.2-0.2,0.4-0.3,0.6c-0.2-0.1-0.3-0.1-0.4-0.2
				c-0.6-0.2-1.2-0.2-1.8-0.2c0-0.3,0-0.5,0-0.8c0.1-2.7-0.3-6.5-2.8-4.8c-2.6,1.6-0.7,4,0.9,5.7l0.4,0.4c-1.5,1-1.7,3.4-2,5.9
				c-0.3,2.5-2.3,5.2-3.8,6.8l-0.4,0.4c-1.1-0.9-2.7-1.3-4.1-1c-0.1-0.3-0.1-0.4-0.2-0.7c-1.1-4.1-3.5-11.3-6.5-12.8
				c0.1-0.2,0.3-0.3,0.4-0.5c1.3-1.7,2.8-4.1,0.6-4.8c-2.2-0.7-2.3,2.2-2.2,4.3c0,0.3,0,0.5,0.1,0.8c-0.9,0-1.6,0.4-2.2,1.1
				l-0.3-0.4c-1.7-2.1-4.9-5.2-5.9-2.8c-0.9,2.3,1.9,5.2,3.9,7l0.1,0.1c-1.3,5.3,4.5,9.7,7.6,11.6l0.4,0.3c-4.3,5-6.9,14.5-6.9,14.5
				l12,2.2c0,0,7.9-6.9,6.9-13.3h0.1c7.9-1.5,9.7-10.1,8.5-15.1l0.2-0.1c1.5-0.6,2.7-1.5,3.7-2.8
				C432.9,691.6,428.2,688.2,425.9,691.2z"/>
			<path class="st4" d="M425.9,691.2c-0.5,0.7-0.9,1.4-1.1,2.2c-0.1,0.2-0.2,0.4-0.3,0.6c-0.2-0.1-0.3-0.1-0.4-0.2
				c-0.6-0.2-1.2-0.2-1.8-0.2c0-0.3,0-0.5,0-0.8c0.1-2.7-0.3-6.5-2.8-4.8c-2.6,1.6-0.7,4,0.9,5.7l0.4,0.4c-1.5,1-1.7,3.4-2,5.9
				c-0.3,2.5-2.3,5.2-3.8,6.8l-0.4,0.4c-1.1-0.9-2.7-1.3-4.1-1c-0.1-0.3-0.1-0.4-0.2-0.7c-1.1-4.1-3.5-11.3-6.5-12.8
				c0.1-0.2,0.3-0.3,0.4-0.5c1.3-1.7,2.8-4.1,0.6-4.8c-2.2-0.7-2.3,2.2-2.2,4.3c0,0.3,0,0.5,0.1,0.8c-0.9,0-1.6,0.4-2.2,1.1
				l-0.3-0.4c-1.7-2.1-4.9-5.2-5.9-2.8c-0.9,2.3,1.9,5.2,3.9,7l0.1,0.1c-1.3,5.3,4.5,9.7,7.6,11.6l0.4,0.3c-4.3,5-6.9,14.5-6.9,14.5
				l12,2.2c0,0,7.9-6.9,6.9-13.3h0.1c7.9-1.5,9.7-10.1,8.5-15.1l0.2-0.1c1.5-0.6,2.7-1.5,3.7-2.8
				C432.9,691.6,428.2,688.2,425.9,691.2z"/>
			<path class="st3" d="M402.1,694.6l-1.4,4.1c0,0-0.8-0.5-1.7-1.4c-2-1.7-4.7-4.6-3.9-7c0.9-2.4,4.1,0.8,5.9,2.8
				C401.6,694,402.1,694.6,402.1,694.6z"/>
			<path class="st3" d="M405.1,692.3c-0.4,0.6-0.9,1.1-1.4,1.6c0,0-0.2-0.9-0.3-2.2c-0.1-2.1,0.1-4.9,2.2-4.3
				C407.8,688.1,406.4,690.7,405.1,692.3z"/>
			<path class="st3" d="M423.1,693c0,1.4-0.2,2.4-0.2,2.4c-0.6-0.5-1.2-1-1.7-1.5c-1.5-1.6-3.4-4.2-0.9-5.7
				C422.9,686.7,423.1,690.2,423.1,693z"/>
			<path class="st3" d="M431.4,694.7c-0.9,1.2-2.2,2.2-3.7,2.8c-0.4,0.2-0.8,0.3-1.2,0.4l-1.6-2.3c0.2-0.8,0.4-1.5,0.7-2.2
				c0.3-0.8,0.7-1.5,1.1-2.2C428.9,688.2,433.6,691.6,431.4,694.7z"/>
			<path class="st4" d="M400.9,693.1c0.7,0.9,1.1,1.5,1.1,1.5l-1.4,4.1c0,0-0.8-0.5-1.7-1.4c0.3-1.3,0.8-2.6,1.5-3.6
				C400.7,693.5,400.8,693.3,400.9,693.1z"/>
			<path class="st4" d="M405.1,692.3c-0.4,0.6-0.9,1.1-1.4,1.6c0,0-0.2-0.9-0.3-2.2C404,691.8,404.6,691.9,405.1,692.3z"/>
			<path class="st3" d="M412,708.6l-3.4,1.5c0,0-0.8-0.3-1.9-1c-3.7-2.2-11-7.9-6.1-14.6c4.9-6.7,9,5.3,10.7,11.2
				C411.7,707.3,412,708.6,412,708.6z"/>
			<path class="st4" d="M421.2,693.8c0.5-0.5,1.2-0.9,1.9-0.9c0,1.4-0.2,2.4-0.2,2.4C422.3,694.9,421.8,694.4,421.2,693.8z"/>
			<path class="st4" d="M427.7,697.5c-0.4,0.2-0.8,0.3-1.2,0.4l-1.6-2.3c0.2-0.8,0.4-1.5,0.7-2.2C426.6,694,427.4,695.6,427.7,697.5
				z"/>
			<path class="st3" d="M419.1,712.6c-0.2,0-0.4,0.1-0.6,0.1c-11.7,1.8-3.9-4.6-3.9-4.6s0.5-0.5,1.2-1.3c1.4-1.5,3.5-4.3,3.8-6.8
				c0.3-3.8,0.8-7.3,5.2-6.3C429.3,694.8,430.1,710.4,419.1,712.6z"/>
			<path class="st4" d="M411.2,705.6c0.5,1.7,0.8,2.9,0.8,2.9l-3.4,1.5c0,0-0.8-0.3-1.9-1C408,707.3,409.5,706.1,411.2,705.6z"/>
			<path class="st4" d="M419.1,712.6c-0.2,0-0.4,0.1-0.6,0.1c-11.7,1.8-3.9-4.6-3.9-4.6s0.5-0.5,1.2-1.3
				C417.7,708.3,418.9,710.4,419.1,712.6z"/>
			<path class="st3" d="M400.1,723.8c0,0,6.5-23.4,15.7-16.2c9.2,7.2-3.7,18.3-3.7,18.3L400.1,723.8z"/>
			<circle class="st4" cx="403.4" cy="698.1" r="0.7"/>
			<circle class="st4" cx="403.4" cy="701.6" r="0.7"/>
			<circle class="st4" cx="424.6" cy="698.8" r="0.7"/>
			<circle class="st4" cx="407.5" cy="716.3" r="0.7"/>
			<circle class="st4" cx="423.1" cy="704.5" r="0.7"/>
			<circle class="st4" cx="415.5" cy="712.1" r="0.7"/>
			<circle class="st4" cx="405.8" cy="699.6" r="0.7"/>
			<circle class="st4" cx="422.5" cy="701" r="0.7"/>
			<circle class="st4" cx="420" cy="706.7" r="0.7"/>
			<circle class="st4" cx="412.4" cy="715.8" r="0.7"/>
			<circle class="st4" cx="410.8" cy="712.2" r="0.7"/>
			<circle class="st4" cx="407" cy="704.1" r="0.7"/>
			<circle class="st4" cx="413.3" cy="719" r="0.7"/>
			<circle class="st4" cx="408.9" cy="720" r="0.7"/>
			<path class="st3" d="M299.1,739.2c0,0,13.6-27.3,19.7-28.5L299.1,739.2z"/>
			<path class="st3" d="M302.5,745c0,0,13.6-27.3,19.7-28.5L302.5,745z"/>
			<path class="st3" d="M305.4,751.1c0,0,13.6-27.3,19.6-28.5L305.4,751.1z"/>
			<path class="st3" d="M357.7,733.9c0,0,13.6-27.3,19.6-28.5L357.7,733.9z"/>
			<path class="st3" d="M361.2,739.7c0,0,13.6-27.3,19.6-28.5L361.2,739.7z"/>
			<path class="st3" d="M364.1,745.7c0,0,13.6-27.3,19.7-28.5L364.1,745.7z"/>
			<path class="st3" d="M534.7,706.5c0,0,13.6-27.3,19.6-28.5L534.7,706.5z"/>
			<path class="st3" d="M538,712.3c0,0,13.6-27.3,19.6-28.5L538,712.3z"/>
			<path class="st3" d="M541,718.3c0,0,13.6-27.3,19.6-28.5L541,718.3z"/>
			<path class="st3" d="M315.7,744.5c0,0-9.4-29-5.9-34.1L315.7,744.5z"/>
			<path class="st3" d="M369,741.3c0,0-9.4-29-5.9-34.1L369,741.3z"/>
			<path class="st3" d="M541,722.4c0,0-9.4-29-5.9-34.2L541,722.4z"/>
			<path class="st7" d="M768.8,763.8c0,0-11.9-21.1-29.9-27.2c-7.6-2.5-14-7.4-18.6-13.9c-2.2-3.1-4-6.5-5.5-9.9"/>
			<path class="st3" d="M704.3,709.7c2.1,2,11.5,4,11.5,4s-2.3-9.5-4.4-11.4c-1.9-2.1-5.2-2.2-7.3-0.3c-2.1,1.9-2.2,5.2-0.3,7.3
				C703.9,709.3,704.1,709.5,704.3,709.7L704.3,709.7z"/>
			<path class="st3" d="M709,726c2.8,0.6,11.9-2.9,11.9-2.9s-7.1-6.6-9.9-7.2c-2.8-0.4-5.4,1.5-5.9,4.4
				C704.8,722.9,706.4,725.4,709,726z"/>
			<path class="st3" d="M728.6,744.6c2.7-0.9,8.8-8.5,8.8-8.5s-9.5-2.2-12.2-1.2c-2.7,1-4,4-2.9,6.7
				C723.3,744,726,745.4,728.6,744.6z"/>
			<path class="st3" d="M746.5,755.3c2.8-0.4,10.2-6.9,10.2-6.9s-8.9-3.7-11.8-3.3c-2.8,0.3-4.8,2.9-4.5,5.8
				c0.3,2.8,2.9,4.8,5.8,4.5C746.2,755.3,746.4,755.3,746.5,755.3L746.5,755.3z"/>
			<path class="st3" d="M728.8,715.8c0,2.8-5.2,11.1-5.2,11.1s-5.2-8.3-5.2-11.1c0-2.8,2.3-5.2,5.2-5.2S728.8,712.9,728.8,715.8
				L728.8,715.8z"/>
			<path class="st3" d="M749.7,728.5c-0.9,2.8-8.3,9-8.3,9s-2.4-9.5-1.6-12.1c0.9-2.7,4-4,6.6-3.1
				C748.9,723.3,750.4,725.9,749.7,728.5L749.7,728.5z"/>
			<path class="st3" d="M768.3,743.7c-0.4,2.8-6.6,10.3-6.6,10.3s-4-8.9-3.6-11.7c0.5-2.8,3.2-4.6,6-4.1
				C766.6,738.7,768.5,741.1,768.3,743.7L768.3,743.7z"/>
			<path class="st7" d="M768.1,763.4c0,0-2.3-24.1-16.3-36.9c-5.9-5.3-9.9-12.5-11.4-20.2c-0.7-3.7-1-7.5-1-11.3"/>
			<path class="st3" d="M730.7,688.2c1,2.7,8.9,8.3,8.9,8.3s1.7-9.6,0.6-12.2c-1.2-2.6-4.2-3.8-6.8-2.6
				C731,682.8,729.8,685.7,730.7,688.2z"/>
			<path class="st3" d="M728.7,704.7c2.3,1.6,12,2.2,12,2.2s-3.8-8.9-6.1-10.6c-2.4-1.5-5.6-0.8-7.1,1.6
				C726.1,700,726.6,703,728.7,704.7z"/>
			<path class="st3" d="M739.1,729.5c2.8,0.3,11.5-4.2,11.5-4.2s-7.8-5.9-10.7-6c-2.8-0.4-5.4,1.5-5.9,4.4c-0.4,2.8,1.5,5.4,4.4,5.9
				C738.8,729.5,738.9,729.5,739.1,729.5L739.1,729.5z"/>
			<path class="st3" d="M751.2,746.5c2.8,0.7,12-2.2,12-2.2s-6.7-7.1-9.5-7.7c-2.8-0.9-5.6,0.6-6.5,3.4s0.6,5.6,3.4,6.5
				C750.9,746.5,751.1,746.5,751.2,746.5L751.2,746.5z"/>
			<path class="st3" d="M751,703.3c-1.1,2.6-9.2,8.1-9.2,8.1s-1.4-9.6-0.3-12.2c1-2.7,4-4,6.6-3s4,4,3,6.6
				C751.2,703,751.1,703.1,751,703.3z"/>
			<path class="st3" d="M764.9,723.4c-1.9,2.2-11.2,4.9-11.2,4.9s1.5-9.6,3.4-11.8c2-2.1,5.2-2.1,7.3-0.1
				C766.4,718.4,766.6,721.3,764.9,723.4L764.9,723.4z"/>
			<path class="st3" d="M775.8,744.8c-1.5,2.4-10.2,6.8-10.2,6.8s-0.1-9.7,1.5-12.1c1.4-2.5,4.6-3.4,7.1-2.1
				c2.5,1.4,3.4,4.6,2.1,7.1C775.9,744.5,775.8,744.7,775.8,744.8L775.8,744.8z"/>
			<path class="st3" d="M240.1,566c0,0,16.1-0.9,14.2,10.3c0.2,1.2-0.3,2.3-1.5,2.9c0,0,0-0.9-1.6-0.5c-0.6,0.1-1.1,0.1-1.7,0.1
				c-0.8-0.1-1.5-0.3-2.2-0.9l0,0c0,0-4.6-1.9-6.3-9.3c0,0-1.3-1.6-1.3-2.1l2.8,1.2c-0.5,1.1-0.6,2.4-0.2,3.6c0,0,0.1-3.5,0.6-3.4
				c0.1,0,1.4,0.7,1.4,0.7s-1.6,3.4-0.4,5.9c0,0-0.4-4.2,0.9-5.7l1.9,1.1c0,0-1.9,3.5-0.6,6.5c0,0-0.3-4.4,1-6.1l1.7,1.4
				c0,0-1.7,3.4-0.7,5.9c0,0,0.2-5.2,1-5.5c0.7,0.6,1.2,1.2,1.7,1.9c0,0-1.2,2.5-0.4,3.9c0,0,0.4-3.4,0.9-3.4
				c0.8,1.2,1.4,2.5,1.6,3.9c-0.1-1.5-0.5-2.8-1.3-4c0.9,0.2,1.6,0.6,2.3,1.2c0,0-0.3-1.6-2.7-1.7c-0.4-0.7-0.9-1.3-1.5-1.8
				c1.3-0.1,2.7,0,3.9,0.4c0,0-1.3-1.5-4.4-0.9l-1.7-1.4c0,0,3.2-0.4,4.6,0.1c0,0-1.5-1.4-5.1-0.3l-1.9-1.1c1.5-0.3,2.9-0.4,4.4-0.3
				c0,0-1.7-0.9-4.9,0.1l-1.3-0.6c0,0,2-0.4,2.6-0.4s0.6-0.3,0.6-0.3c-1.3-0.2-2.6-0.1-3.8,0.4C242.8,567.2,240,566.1,240.1,566z"/>
			<path class="st3" d="M318.1,532.2c0,0,16.1-0.9,14.2,10.3c0.2,1.2-0.3,2.3-1.5,2.9c0,0,0-0.9-1.6-0.5c-0.6,0.1-1.1,0.1-1.7,0.1
				c-0.8-0.1-1.5-0.3-2.2-0.9l0,0c0,0-4.6-1.9-6.3-9.3c0,0-1.3-1.6-1.3-2.1l2.8,1.2c-0.5,1.1-0.6,2.4-0.2,3.6c0,0,0.1-3.5,0.6-3.4
				c0.1,0,1.4,0.7,1.4,0.7s-1.6,3.4-0.4,5.9c0,0-0.4-4.2,0.9-5.7l1.9,1.1c0,0-1.9,3.5-0.6,6.4c0,0-0.3-4.4,1-6.1l1.7,1.4
				c0,0-1.7,3.4-0.7,5.9c0,0,0.2-5.2,1-5.5c0.7,0.6,1.2,1.2,1.7,1.9c0,0-1.2,2.5-0.4,3.9c0,0,0.4-3.4,0.9-3.4
				c0.8,1.2,1.4,2.5,1.6,3.9c-0.1-1.5-0.5-2.8-1.3-4c0.9,0.2,1.6,0.6,2.3,1.2c0,0-0.3-1.6-2.7-1.7c-0.4-0.7-0.9-1.3-1.5-1.8
				c1.3-0.1,2.7,0.1,3.9,0.4c0,0-1.3-1.5-4.4-0.9l-1.7-1.4c0,0,3.2-0.4,4.6,0.1c0,0-1.5-1.4-5.1-0.3l-1.9-1.1
				c1.5-0.3,2.9-0.4,4.4-0.3c0,0-1.7-0.9-4.9,0.1l-1.3-0.6c0,0,2-0.4,2.6-0.4c0.6,0,0.6-0.3,0.6-0.3c-1.3-0.2-2.6-0.1-3.8,0.4
				C319.9,533.1,318.9,532.8,318.1,532.2z"/>
			<path class="st3" d="M370.4,407.9c0,0,16.1-0.9,14.2,10.3c0.2,1.2-0.3,2.3-1.5,2.9c0,0,0-0.9-1.6-0.5c-0.6,0.1-1.1,0.1-1.7,0.1
				c-0.8-0.1-1.5-0.3-2.2-0.9l0,0c0,0-4.6-1.9-6.3-9.3c0,0-1.3-1.6-1.3-2.1l2.8,1.2c-0.5,1.1-0.6,2.4-0.2,3.6c0,0,0.1-3.5,0.6-3.4
				c0.1,0,1.4,0.7,1.4,0.7s-1.6,3.4-0.4,5.9c0,0-0.4-4.2,0.9-5.7l1.9,1.1c0,0-1.9,3.5-0.6,6.4c0,0-0.3-4.4,1-6.1l1.7,1.4
				c0,0-1.7,3.4-0.7,5.9c0,0,0.2-5.2,1-5.5c0.7,0.5,1.2,1.2,1.7,1.9c0,0-1.2,2.5-0.4,3.9c0,0,0.4-3.4,0.9-3.4
				c0.8,1.2,1.4,2.5,1.6,3.9c-0.1-1.5-0.5-2.8-1.3-4c0.9,0.2,1.6,0.6,2.3,1.2c0,0-0.3-1.6-2.7-1.7c-0.4-0.7-1-1.3-1.5-1.8
				c1.3-0.1,2.7,0.1,3.9,0.4c0,0-1.3-1.5-4.4-0.9l-1.7-1.4c0,0,3.2-0.4,4.6,0c0,0-1.5-1.4-5.1-0.3l-1.9-1.1c1.5-0.3,2.9-0.4,4.4-0.3
				c0,0-1.7-0.9-4.9,0.1l-1.3-0.6c0,0,2-0.4,2.6-0.4c0.6,0,0.6-0.3,0.6-0.3c-1.3-0.2-2.6-0.1-3.8,0.4
				C372.2,408.8,371.3,408.3,370.4,407.9z"/>
			<path class="st3" d="M417.3,371.3c0,0,16.1-0.9,14.2,10.3c0.2,1.2-0.3,2.3-1.5,2.9c0,0,0-0.9-1.6-0.5c-0.6,0.1-1.1,0.1-1.7,0.1
				c-0.8-0.1-1.5-0.3-2.2-0.9l0,0c0,0-4.6-1.9-6.3-9.3c0,0-1.3-1.6-1.3-2.1l2.7,1.1c-0.5,1.1-0.6,2.4-0.2,3.6c0,0,0.1-3.5,0.6-3.4
				c0.1,0,1.4,0.7,1.4,0.7s-1.6,3.4-0.4,5.9c0,0-0.4-4.2,0.9-5.7l1.9,1.1c0,0-1.9,3.5-0.6,6.5c0,0-0.3-4.4,1-6.1l1.7,1.4
				c0,0-1.7,3.4-0.7,5.9c0,0,0.2-5.2,1-5.5c0.7,0.5,1.2,1.2,1.7,1.9c0,0-1.2,2.5-0.4,3.9c0,0,0.4-3.4,0.9-3.4
				c0.8,1.1,1.4,2.5,1.6,3.8c-0.1-1.5-0.5-2.8-1.3-4c0.9,0.2,1.7,0.6,2.3,1.2c0,0-0.3-1.6-2.7-1.7c-0.4-0.7-0.9-1.3-1.5-1.8
				c1.3-0.1,2.7,0,4,0.4c0,0-1.3-1.5-4.4-0.9l-1.6-1.4c0,0,3.2-0.4,4.6,0c0,0-1.5-1.3-5.1-0.3l-1.9-1.1c1.5-0.3,2.9-0.4,4.4-0.3
				c0,0-1.7-0.9-4.9,0.1l-1.3-0.6c0,0,2-0.4,2.6-0.4c0.6,0,0.6-0.3,0.6-0.3c-1.3-0.3-2.6-0.1-3.8,0.4
				C420,372.5,417.2,371.5,417.3,371.3z"/>
			<path class="st3" d="M518.3,308.7c0,0,5.8,15.1-5.6,16.6c-1,0.5-2.3,0.3-3.2-0.5c0,0,0.8-0.3,0-1.7c-0.3-0.5-0.4-1.1-0.6-1.6
				c-0.2-0.8-0.1-1.5,0.3-2.3l0,0c0,0,0.4-4.9,7-8.8c0,0,1.1-1.7,1.5-1.8l-0.3,2.9c-1.2-0.2-2.5,0.2-3.4,0.9c0,0,3.4-0.9,3.4-0.4
				c0,0.1-0.3,1.5-0.3,1.5s-3.7-0.5-5.8,1.4c0,0,3.9-1.7,5.7-0.9l-0.5,2.2c0,0-4-0.8-6.3,1.4c0,0,4.1-1.6,6.2-0.9l-0.8,2.1
				c0,0-3.9-0.6-5.8,1.1c0,0,5-1.4,5.6-0.6c-0.3,0.8-0.8,1.5-1.3,2.2c0,0-2.8-0.4-3.8,0.7c0,0,3.4-0.6,3.5-0.3c-0.9,1.1-2,2-3.2,2.8
				c1.4-0.5,2.5-1.4,3.4-2.4c0.1,0.9-0.1,1.8-0.4,2.6c0,0,1.5-0.7,0.9-3.1c0.5-0.6,0.9-1.3,1.3-2.1c0.5,1.2,0.8,2.6,0.7,3.9
				c0,0,1-1.7-0.5-4.4l0.9-2.1c0,0,1.4,2.9,1.3,4.4c0,0,0.8-1.9-1.1-4.9l0.5-2.1c0.7,1.3,1.3,2.7,1.6,4c0,0,0.3-1.9-1.5-4.6l0.2-1.5
				c0,0,0.9,1.8,1.2,2.3c0.3,0.5,0.4,0.5,0.4,0.5c-0.2-1.3-0.7-2.5-1.5-3.4C518,310.8,518.1,309.7,518.3,308.7z"/>
			<path class="st3" d="M811.4,574.1c0,0,16.1-0.9,14.2,10.3c0.2,1.2-0.3,2.3-1.5,2.9c0,0,0-0.9-1.6-0.5c-0.6,0.1-1.1,0.1-1.7,0.1
				c-0.8-0.1-1.5-0.3-2.2-0.9l0,0c0,0-4.6-1.9-6.3-9.3c0,0-1.3-1.6-1.3-2.1l2.8,1.2c-0.5,1.1-0.6,2.4-0.2,3.6c0,0,0.1-3.5,0.6-3.4
				c0.1,0,1.4,0.7,1.4,0.7s-1.6,3.4-0.4,5.9c0,0-0.4-4.2,0.9-5.7l1.9,1.1c0,0-1.9,3.5-0.6,6.5c0,0-0.3-4.4,1-6.1l1.7,1.4
				c0,0-1.7,3.4-0.7,5.9c0,0,0.2-5.2,1-5.5c0.7,0.5,1.2,1.2,1.7,1.9c0,0-1.2,2.5-0.4,3.9c0,0,0.4-3.4,0.9-3.4
				c0.8,1.1,1.4,2.5,1.6,3.8c-0.1-1.5-0.5-2.8-1.3-4c0.9,0.2,1.6,0.6,2.3,1.2c0,0-0.3-1.6-2.7-1.7c-0.4-0.7-0.9-1.3-1.5-1.8
				c1.3-0.1,2.7,0,4,0.4c0,0-1.3-1.5-4.4-0.9l-1.7-1.4c0,0,3.2-0.4,4.6,0c0,0-1.5-1.3-5-0.3l-1.9-1.1c1.5-0.3,2.9-0.4,4.4-0.3
				c0,0-1.7-0.9-4.9,0.1l-1.3-0.6c0,0,2-0.4,2.6-0.4c0.6,0,0.6-0.3,0.6-0.3c-1.3-0.3-2.6-0.1-3.8,0.4
				C814.1,575.4,811.4,574.3,811.4,574.1z"/>
			<path class="st3" d="M309.6,612.6c0,0,10,12.7-0.4,17.6c-0.9,0.9-2.2,1-3.2,0.4c0,0,0.7-0.5-0.5-1.6c-0.4-0.4-0.8-0.9-1-1.4
				c-0.4-0.7-0.6-1.5-0.5-2.2l0,0c0,0-1-4.8,4-10.4c0,0,0.6-2,0.9-2.2l0.6,2.9c-1.2,0.2-2.3,0.9-3.1,1.9c0,0,2.9-1.9,3.2-1.5
				c0.1,0.1,0.3,1.5,0.3,1.5s-3.7,0.6-5.1,3c0,0,3.2-2.8,5.2-2.5l0.2,2.2c0,0-4,0.4-5.6,3.2c0,0,3.4-2.8,5.6-2.7l-0.1,2.2
				c0,0-3.9,0.5-5.2,2.8c0,0,4.3-2.8,5.2-2.2c-0.1,0.9-0.3,1.7-0.5,2.5c0,0-2.8,0.4-3.4,1.8c0,0,3.1-1.5,3.3-1.3
				c-0.5,1.3-1.3,2.5-2.2,3.5c1.1-0.9,2.1-2.1,2.6-3.4c0.3,0.8,0.4,1.7,0.3,2.6c0,0,1.2-1.1-0.1-3.2c0.3-0.8,0.5-1.5,0.6-2.3
				c0.9,1,1.5,2.2,1.9,3.4c0,0,0.5-2-1.8-4l0.2-2.2c0,0,2.2,2.4,2.6,3.8c0,0,0.3-2.1-2.6-4.3l-0.2-2.2c1,1,2,2.2,2.8,3.4
				c0,0-0.3-2-2.8-4l-0.3-1.5c0,0,1.5,1.5,1.8,1.9s0.5,0.3,0.5,0.3c-0.5-1.2-1.4-2.2-2.5-2.8C310.2,615.5,309.5,612.6,309.6,612.6z"
				/>
			<path class="st3" d="M824.1,518.6c0,0,10,12.7-0.4,17.6c-0.9,0.9-2.2,1-3.2,0.4c0,0,0.7-0.5-0.5-1.7c-0.4-0.4-0.8-0.9-1-1.4
				c-0.4-0.7-0.6-1.5-0.5-2.2l0,0c0,0-1-4.8,4-10.4c0,0,0.6-2,0.9-2.2l0.6,2.9c-1.2,0.2-2.3,0.9-3.1,1.9c0,0,2.9-1.9,3.2-1.5
				c0.1,0.1,0.3,1.5,0.3,1.5s-3.7,0.6-5.1,3c0,0,3.2-2.8,5.2-2.5l0.2,2.2c0,0-4,0.4-5.6,3.2c0,0,3.4-2.8,5.6-2.7l-0.1,2.2
				c0,0-3.9,0.5-5.2,2.8c0,0,4.3-2.8,5.2-2.2c-0.1,0.9-0.3,1.7-0.6,2.5c0,0-2.8,0.4-3.4,1.8c0,0,3.1-1.5,3.3-1.3
				c-0.5,1.3-1.3,2.5-2.2,3.5c1.1-0.9,2.1-2.1,2.6-3.4c0.3,0.8,0.4,1.7,0.3,2.6c0,0,1.2-1.1-0.1-3.2c0.3-0.8,0.5-1.5,0.6-2.3
				c0.9,1,1.5,2.2,1.9,3.4c0,0,0.5-1.9-1.8-4l0.2-2.2c0,0,2.2,2.4,2.6,3.8c0,0,0.3-2.1-2.6-4.3l-0.2-2.2c1,1,2,2.2,2.8,3.4
				c0,0-0.3-2-2.8-4l-0.3-1.5c0,0,1.5,1.5,1.9,1.9s0.5,0.3,0.5,0.3c-0.5-1.2-1.4-2.2-2.5-2.8C824.7,521.6,823.9,518.7,824.1,518.6z"
				/>
			<path class="st3" d="M866.3,606.9c0,0,1.9,16-9.5,14.8c-1.1,0.3-2.3-0.3-3-1.3c0,0,0.9-0.1,0.4-1.7c-0.1-0.6-0.2-1.1-0.2-1.7
				c0-0.8,0.3-1.5,0.8-2.2l0,0c0,0,1.6-4.6,8.9-6.8c0,0,1.5-1.4,2-1.4l-1,2.8c-1.1-0.4-2.4-0.4-3.6,0c0,0,3.5-0.1,3.4,0.4
				c0,0.1-0.6,1.5-0.6,1.5s-3.5-1.4-5.9-0.1c0,0,4.2-0.7,5.7,0.6l-1,2c0,0-3.6-1.6-6.5-0.3c0,0,4.4-0.6,6.2,0.7l-1.3,1.8
				c0,0-3.6-1.5-5.9-0.3c0,0,5.2-0.2,5.6,0.8c-0.5,0.7-1.1,1.3-1.8,1.9c0,0-2.6-1-3.9-0.3c0,0,3.4,0.3,3.4,0.6
				c-1.1,0.9-2.4,1.5-3.7,1.9c1.5-0.2,2.8-0.7,4-1.5c-0.1,0.9-0.5,1.7-1,2.4c0,0,1.5-0.3,1.5-2.8c0,0,1.6-1.4,1.7-1.7
				c0.2,1.3,0.1,2.7-0.3,4c0,0,1.5-1.4,0.6-4.4l1.3-1.8c0,0,0.6,3.2,0.3,4.6c0,0,1.3-1.6,0.1-5.1l1-1.9c0.4,1.4,0.6,2.8,0.6,4.3
				c0,0,0.9-1.8-0.3-4.9l0.5-1.4c0,0,0.5,2,0.6,2.6c0.1,0.6,0.3,0.6,0.3,0.6c0.2-1.3-0.1-2.6-0.6-3.7
				C865.2,609.7,866,606.8,866.3,606.9z"/>
			<path class="st3" d="M902.9,723.7c1.5-1.2,2.6-2.8,3.1-4.6c0.4-1.9-0.3-4.1-2.2-4.7c-2-0.8-4.1,0.6-5.8,2c-1.6,1.4-3.4,3-5.6,2.7
				c2.2-2,3.2-5,2.6-7.9c-0.1-0.6-0.3-1.1-0.7-1.6c-1.1-1.2-3.1-0.7-4.5,0.3c-4.2,2.9-5.4,8.7-5.4,13.9c-0.4-1.9-0.1-3.8-0.1-5.7
				c0-1.9-0.5-4-2.2-5c-1-0.5-2.2-0.8-3.3-0.8c-1.9-0.1-4,0.1-5.3,1.5c-1.6,1.7-1.2,4.6,0.2,6.5c1.4,1.9,3.5,3.1,5.5,4.4
				c1.5,0.9,2.9,2.2,4,3.7c0.1,0.2,0.2,0.4,0.3,0.7h11.9C898.2,727.4,900.7,725.8,902.9,723.7z"/>
			<path class="st3" d="M671.1,733.3c1.5-1.2,2.6-2.8,3.1-4.6c0.4-1.9-0.4-4.1-2.2-4.7c-2-0.8-4.1,0.6-5.8,2c-1.6,1.4-3.4,3-5.6,2.7
				c2.2-2,3.2-5,2.6-7.9c-0.1-0.6-0.3-1.1-0.7-1.6c-1.1-1.2-3.1-0.7-4.4,0.3c-4.2,2.9-5.4,8.7-5.4,13.9c-0.4-1.9-0.1-3.8-0.1-5.7
				c0-1.9-0.5-4-2.2-5c-1-0.5-2.2-0.8-3.3-0.8c-1.9-0.1-4,0.1-5.2,1.5c-1.6,1.7-1.2,4.6,0.2,6.5c1.4,1.9,3.5,3.1,5.5,4.4
				c1.5,0.9,2.9,2.2,3.9,3.7c0.1,0.2,0.2,0.4,0.3,0.7h11.9C666.5,737,669,735.3,671.1,733.3z"/>
			<path class="st3" d="M162.9,674.6c0,0,3.7-0.3,4.9,0.7c0,0-4.1,1.1-4.6,2c0,0,0.1,0.1,0.4,0c0.3-0.1,2.5-0.5,3,0l0.2,0.3l0.2,0.1
				l0.3,0.2c0.2,0.1,0.3,0.3,0.3,0.4c0.1,0.3,0.3,0,0.3,0s0.3,0.6,0.2,0.7c-0.1,0.1,0.3,0.5,0.3,0.5v1.7l0.2-0.2
				c0,1.1,0.3,2.2,0.8,3.1c0,0,1.6,4.1,2.2,4.5h0.3c0,0,2.5,3.3,4.8,4c2.3,0.7,2.5,1.5,2.5,1.5l-2.9,3.3c-0.6,0.1-1.1,0.2-1.6,0.3
				c1,0.1,2.1,0.2,3.1,0.1l2.3-3c0.3,0.1,0.6,0.2,0.8,0.4c0.2,0.1,0.3,0.1,0.4,0.2c0.2,0.2,0.3,0,0.5,0.1c0.2,0.1-1.2,2.4-1.2,2.4
				h-1.5l1.3,0.4c0.4,0.2,1.3-0.3,1.3-0.3l1.2-2.2l0.5,0.4v-0.3c0,0,0.5,0.3,0.7,0.3s-0.3-0.3-0.3-0.3c0.3,0,0.5,0,0.7,0
				c0.2-0.1-0.1-0.5-0.1-0.5v-0.3c0,0-0.8,0-0.7-0.2c0.1-0.2,0.4-0.3,0.9,0s3.6,1.5,4.8,1.1c0.8,0.6,1.6,1.1,2.5,1.5
				c0.6,0.2,1.3,1.1,1.3,1.1s2.5,2.6,4,2c-0.3-0.4-0.5-0.9-0.7-1.5c-0.1-0.4-1.9-2-1.9-2s3.9,0.9,3.9,0.7c0,0,2,1.1,2.1,1.1
				c0.1,0,0-0.7-1-1.5l1.5,0.3c-0.1-0.7-0.5-1.3-1.2-1.5c-0.3-0.5-0.8-0.9-1.4-1.2l-6.1-3.4c0,0,0.6-0.3-0.1-1.1
				c0.2-0.1,0.3-0.1,0.6-0.2c0.3-0.1-2.8-2.7-2.8-2.7c-0.4-0.3-0.7-0.6-0.9-1c-0.1-0.3-2.9-2-2.9-2s-2.4-0.2-4-3.4
				c-1.6-3.3-5.5-3.6-5.5-3.6s-1.4-7-8-4.3C168.1,673.1,163.5,673.4,162.9,674.6z"/>
			<circle class="st8" cx="89.5" cy="328.7" r="0.9"/>
			<circle class="st8" cx="192.4" cy="307.3" r="0.9"/>
			<circle class="st8" cx="657.7" cy="308.6" r="0.9"/>
			<circle class="st8" cx="89.5" cy="371.2" r="0.9"/>
			<circle class="st8" cx="688.6" cy="342.1" r="0.9"/>
			<circle class="st8" cx="696.5" cy="399.8" r="0.9"/>
			<circle class="st8" cx="888.5" cy="332.7" r="0.9"/>
			<circle class="st8" cx="309" cy="288.8" r="0.9"/>
			<circle class="st8" cx="766.2" cy="298.7" r="0.9"/>
			<circle class="st8" cx="674.4" cy="460" r="0.9"/>
			<circle class="st8" cx="191.4" cy="499.4" r="0.9"/>
			<circle class="st8" cx="687.6" cy="469.9" r="0.9"/>
			<circle class="st8" cx="920.8" cy="398.8" r="0.9"/>
			<circle class="st8" cx="274.1" cy="361.9" r="0.9"/>
		</g>
	</g>
</g>
<g id="A316">
	<g>
		<g>
			<g>
				<g>
					<path class="st3" d="M590.2,633.3c-0.4,0.7-1.8,0.3-2.2,1c-0.2,0.4-0.2,0.9,0,1.3c0.1,1.5-1,2.8-2.5,2.8c-0.3,0-0.6,0-0.9-0.1
						c-0.1,1.1-0.5,2.2-1.4,3c-1,0.7-2.4,0.6-3.4-0.2c-0.9-0.8-1.6-1.8-2-2.9c-0.5-1.4-0.9-2.8-2.1-3.8c-0.4-0.3-0.9-0.5-1.3-0.9
						c-0.9-0.8-1.5-1.8-1.7-3c-0.3-1.5-0.9-2.8-1.4-4.1c-0.6-1.4-1.6-2.5-2.9-3.2c-1.3-0.6-2.7-0.5-4-1c-0.9-0.3-1.9-0.9-2.7-1.5
						c-1-0.8-2.2-1.5-3.4-2.1c-0.7-0.3-1.4-0.7-2-1.1c-0.9-0.5-1.5-1.5-1.5-2.5c-0.2-0.9-0.6-1.9-1.1-2.8c-0.6-1.1-1.1-2.2-0.7-3.3
						s1.5-1.8,2-2.8c0.2-0.8,0.3-1.5,0.2-2.3c-0.1-0.8,0.3-1.5,0.9-2.1c1-0.7,2.2,0.2,3.4,0.5c0.4,0.2,0.9,0.2,1.3,0.1
						c0.4-0.2,0.8-0.3,1.1-0.5c1.9-0.8,4,0.6,5.1,2.3c1,1.7,1.5,3.8,2.4,5.6c0.3,0.7,0.8,1.3,1.4,1.8c0.6,0.4,1.5,0.6,2.2,0.3l1,2.3
						c0.5,1.2,1,2.4,1.6,3.5c0.7,1.5,1.5,3.2,3,3.8c0.7,0.3,1.5,0.3,2.2,0.6c1.5,0.5,2.7,1.9,3,3.4c0.1,0.5,0.2,1,0.3,1.5
						c0.6,1.5,2.6,1.9,4,2.8c0.9,0.5,1.5,1.2,2.1,2C590.2,632.2,590.3,632.8,590.2,633.3z"/>
					<path class="st4" d="M590.2,633.3c-0.4,0.7-1.8,0.3-2.2,1c-0.2,0.4-0.2,0.9,0,1.3c0.1,1.5-1,2.8-2.5,2.8c-0.3,0-0.6,0-0.9-0.1
						c-0.1,1.1-0.5,2.2-1.4,3c-1,0.7-2.4,0.6-3.4-0.2c-0.9-0.8-1.6-1.8-2-2.9c-0.5-1.4-0.9-2.8-2.1-3.8c-0.4-0.3-0.9-0.5-1.3-0.9
						c-0.9-0.8-1.5-1.8-1.7-3c-0.3-1.5-0.9-2.8-1.4-4.1c-0.6-1.4-1.6-2.5-2.9-3.2c-1.3-0.6-2.7-0.5-4-1c-0.9-0.3-1.9-0.9-2.7-1.5
						c-1-0.8-2.2-1.5-3.4-2.1c-0.7-0.3-1.4-0.7-2-1.1c-0.9-0.5-1.5-1.5-1.5-2.5c-0.2-0.9-0.6-1.9-1.1-2.8c-0.6-1.1-1.1-2.2-0.7-3.3
						s1.5-1.8,2-2.8c0.2-0.8,0.3-1.5,0.2-2.3c-0.1-0.8,0.3-1.5,0.9-2.1c1-0.7,2.2,0.2,3.4,0.5c0.4,0.2,0.9,0.2,1.3,0.1
						c0.4-0.2,0.8-0.3,1.1-0.5c1.9-0.8,4,0.6,5.1,2.3c1,1.7,1.5,3.8,2.4,5.6c0.3,0.7,0.8,1.3,1.4,1.8c0.6,0.4,1.5,0.6,2.2,0.3l1,2.3
						c0.5,1.2,1,2.4,1.6,3.5c0.7,1.5,1.5,3.2,3,3.8c0.7,0.3,1.5,0.3,2.2,0.6c1.5,0.5,2.7,1.9,3,3.4c0.1,0.5,0.2,1,0.3,1.5
						c0.6,1.5,2.6,1.9,4,2.8c0.9,0.5,1.5,1.2,2.1,2C590.2,632.2,590.3,632.8,590.2,633.3z"/>
					<path class="st9" d="M557.8,616.1c0,0,0.8,1.5-1.5,1.5s1.5,10.1,1.5,10.1l3.8,4.8l4.6-2.5l0.3-7l0.3-4.2c0,0-4.4-1.5-3.6-3.3
						C564,613.8,557.8,616.1,557.8,616.1z"/>
					<path class="st3" d="M571.4,656.9c0,0,2.8,2.8,6-0.9l-2.5-2.6h-3.1L571.4,656.9z"/>
					<path class="st3" d="M576.3,653.9c0.5,1.4,1.1,2.6,1.9,3.8c0.8,0.9,2.1,7,0.4,6.3c-1.6-0.7-4.9-5.9-5.1-6.7
						c-0.2-1.1-0.3-2.2-0.3-3.4L576.3,653.9L576.3,653.9z"/>
					<polygon class="st3" points="552.2,668.8 567.1,669.4 565.4,663.1 557.9,662.9 					"/>
					<path class="st3" d="M557.1,679.2c-0.3,0.7-0.3,2.9-0.1,4.6c0.1,1,0.3,1.9,0.3,1.9s-5.6,1.7-6.4,0.3c-0.3-0.6-0.3-1.2-0.3-1.8
						c0-1.9,0.1-3.8,0.3-5.6c0,0-0.3-5.1-0.3-5.6c0-0.2-0.1-0.9-0.2-1.5c-0.1-1-0.2-2.2-0.2-2.2l7.6-4c0,0,0,0.8,0,1.9
						C557.6,670.8,557.5,678.4,557.1,679.2z"/>
					<path class="st3" d="M557.5,714.7L557.5,714.7c-0.8,0-4.6,0-4.6,0l-0.2-0.2c-0.7-0.9-0.9-2-0.5-3c0.5-1.7,0.8-3.5,0.8-5.3
						c0.2-0.4,0.2-0.9,0-1.4c-0.2-0.4-0.2-0.9-0.1-1.3c0-0.3-0.1-0.6-0.3-0.9c-0.1-0.4-0.1-0.9,0-1.3c0-0.9-0.2-1.6-0.4-2.4
						c-0.3-1-2.8-12.8-2.2-14.3c0,0,5.3-0.9,7.4-0.3l-0.3,9.2c0,0-0.9,2.8-0.2,3.4s0,3,0,3s-0.1,0.4,0.6,1.8c0.7,1.4,0,2.1,0,2.1
						v2.8c-0.3,1.1-0.3,2.2,0.1,3.4C558.4,711.6,557.7,714.7,557.5,714.7z"/>
					<path class="st3" d="M568,679.2c-0.3,0.7-0.3,2.9-0.1,4.6c0.1,1,0.3,1.9,0.3,1.9s-5.6,1.7-6.4,0.3c-0.3-0.6-0.3-1.2-0.3-1.8
						c0-1.9,0.1-3.8,0.3-5.6c0,0-0.3-5.1-0.3-5.6c-0.1-0.3-0.2-2.8-0.3-5.2c-0.1-2-0.2-3.7-0.2-3.7l7.6,1.2c0,0,0,3.4-0.1,6.8
						C568.4,675.5,568.2,678.7,568,679.2z"/>
					<path class="st3" d="M568.3,714.7L568.3,714.7c-0.8,0-4.6,0-4.6,0l-0.2-0.2c-0.7-0.9-0.9-2-0.5-3c0.5-1.7,0.8-3.5,0.8-5.3
						c0.2-0.4,0.2-0.9,0-1.4s-0.2-0.9-0.1-1.3c0-0.3-0.1-0.6-0.3-0.9c-0.1-0.4-0.1-0.9,0-1.3c0-0.9-0.2-1.6-0.4-2.4
						c-0.3-1-2.8-12.8-2.2-14.3c0,0,5.3-0.9,7.4-0.3l-0.3,9.2c0,0-0.9,2.8-0.2,3.4c0.8,0.7,0,3,0,3s-0.1,0.4,0.6,1.8
						c0.7,1.4,0,2.1,0,2.1v2.8c-0.3,1.1-0.3,2.2,0.1,3.4C569.2,711.6,568.6,714.7,568.3,714.7z"/>
					<circle class="st4" cx="560.6" cy="612.4" r="5.4"/>
					<circle class="st9" cx="560.8" cy="612.3" r="5.4"/>
					<path class="st3" d="M567.2,635.9c-0.2,1.5-0.3,3-0.1,4.5c3.5,2.8,2.8,8.9,2.8,8.9s2.7,12.2,2.1,13.3s1.3,7.9,1.3,7.9
						c-1.6,0.3-3.2,0.5-4.8,0.6c-0.6,0-1.1,0-1.7-0.1c-0.8,0-1.5-0.3-2.1-0.9c-1.1-1.9-5.7-4.6-5.7-4.6s-2.9,1.7-5.7,3.4
						c-0.9,0.5-1.7,1-2.5,1.5c-0.6,0.3-1.3,0.5-1.9,0.5c-3.3,0.3-7.6-1.8-6.9-2.5c0.9-0.9,5-16.3,5-16.3s2.2-9.6,4-10.9
						c0.3-0.3,0.6-0.6,0.7-0.9c0.6-1.7-0.4-4.6-0.4-4.6s-5.9-7.3-5.7-7.7c0.2-0.9,0.3-1.8,0.3-2.7c0,0,0.7-3.6,1.1-5.3
						c0.4-1.7,3.4-2.2,4.3-2s3.1,0,3.9-0.7c0.8-0.7,2.2,0.3,2.2,0.3l3.3,1.6l3.2-1.9c0,0,3.2,0.2,3.4,0.6c0.3,0.4,4.4,1.2,4.4,1.2
						c2.2,1.5,2.1,8.2,2.1,8.2s-5.1,4.4-6.1,6.7C567.4,634.6,567.3,635.3,567.2,635.9z"/>
					<path class="st3" d="M572.6,626.4l1.1,0.9l1.2,10.7l1.2,10.8c0,0,0.4,1.1,0.9,0.9s0.3,6.4,0.3,6.4s-4.4-2.8-6,0.9l-1.2-8.7
						c0,0-1.5-8.9-1.5-9.6c0-0.7-0.8-8.2-0.8-8.2L572.6,626.4z"/>
					<path class="st3" d="M546.4,626.9l-0.9,1c0,0,0.1,4.5-0.6,5.5c-0.7,1,1.8,7.3,2.8,7s3-10.2,3-10.3
						C550.7,629.9,546.4,626.9,546.4,626.9z"/>
					<path class="st3" d="M546.4,633.2c0,0-2.7,2.8-2.5,4s2.8,5.4,6.5,3.2C550.3,640.4,553.7,633.9,546.4,633.2z"/>
					<path class="st4" d="M557.4,714.7c-0.7,0-4.5,0-4.5,0l-0.2-0.2C553.7,714.1,555.8,713.6,557.4,714.7z"/>
					<path class="st4" d="M568.2,714.7c-0.7,0-4.5,0-4.5,0l-0.2-0.2C564.6,714.1,566.7,713.6,568.2,714.7z"/>
					<path class="st3" d="M556.8,608.9c0.2,0,0.3,0,0.5,0.1c0.3,0.1,0.4,0.3,0.7,0.5c0.6,0.5,1.5,0.7,2.2,0.4
						c0.3-0.1,0.6-0.2,0.9-0.3c0.4,0,0.9,0.3,1,0.7c0.3,0.3,0.3,0.8,0.5,1.2c0.2,0.4,0.5,0.7,0.9,0.9c0.2,0,0.4,0.1,0.6,0.2
						c0.1,0.1,0.2,0.3,0.3,0.3c0.3,0.8,0.7,1.7,1.4,2.1c0.3,0.1,0.6,0.2,0.9,0.2c0.3,0,0.6,0,0.9-0.2c0.3-0.2,0.5-0.4,0.7-0.7
						c0.4-0.9,0.6-1.8,0.4-2.7c-0.2-1.1-0.5-2.2-1.2-3.3c-1.4-2-3.8-3.1-6.2-2.8c-0.4,0.1-0.9,0.2-1.2,0.3c-1.5,0.3-2.8,1.1-3.8,2.3
						c-0.2,0.3-0.4,0.6-0.7,0.9C556,608.9,556.3,608.9,556.8,608.9z"/>
					<path class="st4" d="M556.8,608.9c0.2,0,0.3,0,0.5,0.1c0.3,0.1,0.4,0.3,0.7,0.5c0.6,0.5,1.5,0.7,2.2,0.4
						c0.3-0.1,0.6-0.2,0.9-0.3c0.4,0,0.9,0.3,1,0.7c0.3,0.3,0.3,0.8,0.5,1.2c0.2,0.4,0.5,0.7,0.9,0.9c0.2,0,0.4,0.1,0.6,0.2
						c0.1,0.1,0.2,0.3,0.3,0.3c0.3,0.8,0.7,1.7,1.4,2.1c0.3,0.1,0.6,0.2,0.9,0.2c0.3,0,0.6,0,0.9-0.2c0.3-0.2,0.5-0.4,0.7-0.7
						c0.4-0.9,0.6-1.8,0.4-2.7c-0.2-1.1-0.5-2.2-1.2-3.3c-1.4-2-3.8-3.1-6.2-2.8c-0.4,0.1-0.9,0.2-1.2,0.3c-1.5,0.3-2.8,1.1-3.8,2.3
						c-0.2,0.3-0.4,0.6-0.7,0.9C556,608.9,556.3,608.9,556.8,608.9z"/>
					<path class="st4" d="M550.9,621.7c0,0,0.3,2.2-0.7,2.7C549.3,624.9,550.9,621.7,550.9,621.7z"/>
					<path class="st4" d="M555.7,619.2c0,0-3.3,0.2-3.3,0.7C552.5,620.4,555.7,619.2,555.7,619.2z"/>
					<path class="st10" d="M573.8,614.2l-12,6.5l-11.4,6.2l-3.4-2.8l6.7-11.8l5.6-10c0.4,0.2,0.9,0.2,1.3,0.1
						c0.4-0.2,0.8-0.3,1.1-0.5c1.9-0.8,4,0.6,5.1,2.3c1,1.7,1.5,3.8,2.3,5.6c0.3,0.7,0.8,1.3,1.4,1.8c0.6,0.4,1.5,0.6,2.2,0.3
						L573.8,614.2z"/>
					<path class="st3" d="M547.4,624h2.2c0.5,0,0.9,0.4,0.9,0.9v6.4c0,0.5-0.4,0.9-0.9,0.9h-2.2c-0.5,0-0.9-0.4-0.9-0.9v-6.4
						C546.5,624.4,547,624,547.4,624z"/>
					<path class="st11" d="M547.4,624h2.2c0.5,0,0.9,0.4,0.9,0.9v6.4c0,0.5-0.4,0.9-0.9,0.9h-2.2c-0.5,0-0.9-0.4-0.9-0.9v-6.4
						C546.5,624.4,547,624,547.4,624z"/>
					<circle class="st3" cx="548.4" cy="626.4" r="0.6"/>
					<path class="st3" d="M546.5,636.7c0,0,0.7-3.2-0.3-4.2c-0.9-1-0.6-6.3,0.8-6.2s3.4,4.3,3.1,5.2c-0.3,0.9-1.6,5.4-1.6,5.4
						L546.5,636.7z"/>
				</g>
			</g>
		</g>
	</g>
</g>
</svg>
