<?xml version="1.0" encoding="utf-8"?>
<!-- Generator: Adobe Illustrator 19.0.0, SVG Export Plug-In . SVG Version: 6.00 Build 0)  -->
<svg version="1.1" id="图层_1" xmlns="http://www.w3.org/2000/svg" xmlns:xlink="http://www.w3.org/1999/xlink" x="0px" y="0px"
	 viewBox="-917 917.7 1000 1000" style="enable-background:new -917 917.7 1000 1000;" xml:space="preserve">
<style type="text/css">
	.st0{opacity:0.1;fill:#6C63FF;enable-background:new    ;}
	.st1{fill:none;stroke:#444053;stroke-miterlimit:10;}
	.st2{fill:#6C63FF;}
	.st3{fill:#3F3D56;}
	.st4{opacity:0.1;enable-background:new    ;}
	.st5{fill:#444053;}
	.st6{fill:#D0D2D5;}
	.st7{fill:url(#SVGID_1_);}
	.st8{fill:#FABDBD;}
	.st9{fill:url(#SVGID_2_);}
	.st10{fill:#A1616A;}
	.st11{opacity:5.000000e-02;enable-background:new    ;}
	.st12{opacity:0.1;}
	.st13{display:none;}
	.st14{display:inline;}
	.st15{fill:none;stroke:#FF0000;stroke-width:4;stroke-miterlimit:10;stroke-dasharray:30;}
	.st16{fill:none;}
	.st17{fill:#FF0000;}
	.st18{font-family:'MicrosoftYaHei';}
	.st19{font-size:30px;}
	.st20{letter-spacing:27;}
</style>
<g id="图层_1_1_">
	<g id="A4">
		<g>
			<circle class="st0" cx="-526.9" cy="1201.3" r="14"/>
			<circle class="st0" cx="-476.8" cy="1138.7" r="23.5"/>
			<circle class="st0" cx="-507.9" cy="1252.8" r="23.5"/>
			<circle class="st0" cx="-13" cy="1370.3" r="14"/>
			<circle class="st0" cx="-63.2" cy="1307.7" r="23.5"/>
			<circle class="st0" cx="-32" cy="1421.9" r="23.5"/>
			<circle class="st0" cx="-805.9" cy="1395.7" r="7.9"/>
			<circle class="st0" cx="-771.8" cy="1365.6" r="13.3"/>
			<circle class="st0" cx="-835.6" cy="1386.3" r="13.3"/>
			<circle class="st0" cx="-217.1" cy="1347.9" r="7.9"/>
			<circle class="st0" cx="-183" cy="1317.9" r="13.3"/>
			<circle class="st0" cx="-246.7" cy="1338.5" r="13.3"/>
			<circle class="st0" cx="-699.5" cy="1245.9" r="33.3"/>
			<circle class="st0" cx="-509.3" cy="1356.2" r="19.2"/>
			<circle class="st0" cx="-319.2" cy="1481.1" r="19.2"/>
		</g>
	</g>
	<g id="A2122">
		<g>
			
				<image style="overflow:visible;opacity:0.8;enable-background:new    ;" width="1010" height="253" xlink:href="D0F788FA402FBEE6.png"  transform="matrix(0.9988 0 0 0.9988 -921.394 1495.7931)">
			</image>
			<g>
				<g>
					<ellipse class="st1" cx="-153" cy="1637" rx="109.8" ry="22"/>
					<ellipse class="st2" cx="-664.2" cy="1634.7" rx="37.6" ry="7.2"/>
					<ellipse class="st3" cx="-664.8" cy="1631.7" rx="4.4" ry="5.7"/>
					<ellipse class="st3" cx="-664.8" cy="1624.7" rx="4.4" ry="5.7"/>
					<ellipse class="st3" cx="-664.8" cy="1617.7" rx="4.4" ry="5.7"/>
					<ellipse class="st3" cx="-664.8" cy="1610.7" rx="4.4" ry="5.7"/>
					<ellipse class="st3" cx="-664.8" cy="1603.7" rx="4.4" ry="5.7"/>
					<ellipse class="st3" cx="-664.8" cy="1596.7" rx="4.4" ry="5.7"/>
					<ellipse class="st3" cx="-664.8" cy="1589.7" rx="4.4" ry="5.7"/>
					<path class="st2" d="M-648.5,1541.8c0.6-0.8,1.1-1.6,1.6-2.4l-11.5-1.9l12.4,0.1c2.4-5.2,2.6-11.3,0.4-16.6l-16.7,8.7
						l15.4-11.3c-5.8-10-18.6-13.4-28.7-7.6c-10,5.8-13.4,18.6-7.6,28.7c0.5,0.8,1,1.7,1.6,2.4c-0.9,1.2-1.7,2.5-2.4,3.8l14.9,7.8
						l-15.9-5.3c-2.3,6.7-1,14.1,3.4,19.7c-7.2,9.1-5.6,22.3,3.5,29.4c9.1,7.2,22.3,5.6,29.4-3.5c6-7.6,6-18.3,0-25.9
						C-642.5,1560-642.5,1549.3-648.5,1541.8L-648.5,1541.8z"/>
					<path class="st4" d="M-685.9,1554.7c0,4.7,1.6,9.3,4.5,13c-7.2,9.1-5.6,22.3,3.5,29.4c9.1,7.2,22.3,5.6,29.4-3.5
						c6-7.6,6-18.3,0-25.9C-645.6,1564.1-685.9,1552.4-685.9,1554.7z"/>
					<ellipse class="st2" cx="-35" cy="1701.8" rx="37.6" ry="7.2"/>
					<ellipse class="st3" cx="-35.6" cy="1698.7" rx="4.4" ry="5.7"/>
					<ellipse class="st3" cx="-35.6" cy="1691.7" rx="4.4" ry="5.7"/>
					<ellipse class="st3" cx="-35.6" cy="1684.7" rx="4.4" ry="5.7"/>
					<ellipse class="st3" cx="-35.6" cy="1677.7" rx="4.4" ry="5.7"/>
					<ellipse class="st3" cx="-35.6" cy="1670.7" rx="4.4" ry="5.7"/>
					<ellipse class="st3" cx="-35.6" cy="1663.7" rx="4.4" ry="5.7"/>
					<ellipse class="st3" cx="-35.6" cy="1656.7" rx="4.4" ry="5.7"/>
					<path class="st2" d="M-19.2,1608.8c0.6-0.8,1.1-1.6,1.6-2.4l-11.5-1.9l12.4,0.1c2.4-5.2,2.6-11.3,0.4-16.6l-16.7,8.7l15.4-11.3
						c-5.8-10-18.6-13.4-28.7-7.6c-10,5.8-13.4,18.6-7.6,28.7c0.5,0.8,1,1.7,1.6,2.4c-0.9,1.2-1.7,2.5-2.4,3.8l14.9,7.8l-15.9-5.3
						c-2.3,6.7-1,14.1,3.4,19.7c-7.2,9.1-5.6,22.3,3.5,29.4c9.1,7.2,22.3,5.6,29.4-3.5c6-7.6,6-18.3,0-25.9
						C-13.2,1627.1-13.2,1616.4-19.2,1608.8L-19.2,1608.8z"/>
					<path class="st4" d="M-56.6,1621.8c0,4.7,1.6,9.3,4.5,13c-7.2,9.1-5.6,22.3,3.5,29.4c9.1,7.2,22.3,5.6,29.4-3.5
						c6-7.6,6-18.3,0-25.9C-16.4,1631.2-56.6,1619.4-56.6,1621.8z"/>
					<ellipse class="st1" cx="-664.2" cy="1637.5" rx="109.8" ry="22"/>
					<ellipse class="st1" cx="-35" cy="1702.7" rx="109.8" ry="22"/>
					<ellipse class="st1" cx="-788.2" cy="1702.7" rx="109.8" ry="22"/>
				</g>
			</g>
		</g>
	</g>
	<g id="A312">
		<g>
			
				<image style="overflow:visible;opacity:0.8;enable-background:new    ;" width="282" height="549" xlink:href="D0F788FA402FBEE1.png"  transform="matrix(0.9978 0 0 0.9978 -590.6746 1169.2445)">
			</image>
			<g>
				<g>
					<g>
						
							<rect x="-422.9" y="1181.7" transform="matrix(0.9859 0.1673 -0.1673 0.9859 201.6177 86.9242)" class="st5" width="15.7" height="116.7"/>
						<polygon class="st6" points="-379.4,1645.7 -375.9,1670.2 -373,1644.7 						"/>
						<polygon class="st3" points="-489.7,1632 -489.7,1647.2 -486.3,1660.4 -483.9,1660.4 -480.9,1646.2 -479.4,1629 						"/>
						<path class="st6" d="M-447.6,1295.5l-23.5,149.1c0,0-34.8,158.9-21.6,190.3h16.7l50-305.1L-447.6,1295.5z"/>
						<path class="st6" d="M-387.8,1277l18.1,149.9c0,0,13.1,190.9-1.2,221.8h-14.2l-25.4-338.1L-387.8,1277z"/>
						<path class="st5" d="M-449.8,1241c2.5-8.4,10.3-14,19-13.8c14.5,0.4,37,3,48.7,15c18.2,18.6-12.3,81.4-12.3,81.4
							s-28.5,52.5-54.4-14.2C-448.8,1309.5-459.5,1273.8-449.8,1241z"/>
						<path class="st4" d="M-449.8,1241c2.5-8.4,10.3-14,19-13.8c14.5,0.4,37,3,48.7,15c18.2,18.6-12.3,81.4-12.3,81.4
							s-28.5,52.5-54.4-14.2C-448.8,1309.5-459.5,1273.8-449.8,1241z"/>
						<path class="st5" d="M-439.8,1253.8c1.8-5.9,7.3-10,13.5-9.8c10.3,0.3,26.3,2.1,34.6,10.7c12.9,13.3-8.7,58-8.7,58
							s-20.2,37.4-38.8-10.1C-439.1,1302.5-446.8,1277.1-439.8,1253.8z"/>
						<path class="st1" d="M-442.8,1648.2c60.6,0,109.8,9.9,109.8,22s-49.1,22-109.8,22s-109.8-9.9-109.8-22"/>
					</g>
					<g>
						
							<linearGradient id="SVGID_1_" gradientUnits="userSpaceOnUse" x1="-9121.0381" y1="3558.2839" x2="-9040.665" y2="3558.2839" gradientTransform="matrix(-1 0 0 1 -9443.7305 -1951.4597)">
							<stop  offset="0" style="stop-color:#808080;stop-opacity:0.25"/>
							<stop  offset="0.54" style="stop-color:#808080;stop-opacity:0.12"/>
							<stop  offset="1" style="stop-color:#808080;stop-opacity:0.1"/>
						</linearGradient>
						<path class="st7" d="M-403,1655.3c0.2,2.4,0.5,4.9,2,6.7c2.5,3.1,7,3.3,10.8,4.3c3,0.8,5.8,2,8.6,3.4l8.4,4
							c-2.1,0.1-4.3,0.6-6.3,1.3c-1.1,0.4-2.3,1-2.4,2.2c0,1,0.5,1.8,1.4,2.2s1.8,0.5,2.8,0.5c5,0.1,10-0.1,14.9-0.8l0.6-0.1
							c2.5,1.3,5.1,2.5,7.6,3.8c1,0.6,2.3,0,3.2-0.8c1.1-1,2-2,2.8-3.2c0.1,0.3,0.3,0.5,0.4,0.8c0.8,1.6,1.6,3.6,0.4,4.9
							c-0.9,1-2.7,1.2-3.2,2.5c-0.3,0.9,0.1,1.9,0.9,2.5c0.8,0.5,1.7,0.8,2.7,0.9c2.3,0.3,4.6,0.3,6.8-0.1c1.2-0.1,2.4-0.6,3.3-1.4
							c0.8-1.1,1.2-2.4,1.2-3.7l1.6-17.8c0.1-0.8,0.1-1.7-0.2-2.5c-0.6-1.5-2.4-2.1-4.1-2.4h-0.2c1.4,0,2.8-0.1,4.2-0.1
							c1.3,0.1,2.6-0.1,3.8-0.5c2.3-0.9,3.6-3.4,4.6-5.6c1.8-4,4-8.3,3.7-12.7l-0.8-0.4c-0.1-4.7-2-9.1-2.8-13.7
							c0.8-1.2,1.2-2.7,1.2-4.1c-0.1-1.6-0.4-3.2-1-4.7c-2.9-8.7-5.8-17.3-9.7-25.6c-2.5-5.5-5.6-10.7-9.2-15.6
							c-0.9-1.2-1.9-2.4-2.9-3.7c-0.7-0.8-2.4-2-2.7-3.1s0.3-2.1,0-3.2c-0.1-0.3-0.2-0.6-0.3-0.8c2.1-2.8,1.5-7,0.8-10.5l-0.9-4.4
							c-0.2-1.2-0.6-2.4-1.1-3.5c-0.6-0.9-1.3-1.8-2.2-2.5c-4.5-4.1-10.1-6.8-15.2-10.2c-5.4-3.6-10.2-7.9-15-12.2
							c-1.5-1.3-3.3-2.7-5.2-2.2c-1.9,0.6-2.7,2.6-2.8,4.5c0,2.6,1.1,5.1,3,6.9c3.3,3,8.4,3.3,12.3,5.4c1.4,0.8,2.7,1.7,3.9,2.7
							l11.5,9c0.9,0.5,1.5,1.4,1.8,2.3c0,0.6,0,1.2-0.3,1.7c-0.4,1.3-1.2,3-1.7,4.7l-0.9-0.7c-1.9-1.4-3.9-2.7-6.1-3.7
							c-2.8-1.2-5.9-1.9-8.9-2.1c-6.8-0.8-12.9,0.3-17,6c-0.9,1.3-2,2.4-3.2,3.3c-0.9,0.4-1.8,1-2.6,1.7c-2.1,2.4-0.9,6.3,1.1,8.3
							c1.7,1.6,3.8,2.7,6,3.2c2.6,5.8,9.1,8.7,15.1,6.8c0.1,1.2,0.2,2.4,0.1,3.6s0.4,2.5,1.3,3.3c0.5,0.3,1,0.6,1.6,0.7
							c2,0.7,4,1.7,5.7,3c-2.1,2.2-3.8,4.8-5.1,7.6c-1.6,3.7-1.3,8,0.9,11.5l0.1,0.1c-0.2,0.6-0.4,1.1-0.8,1.5
							c-1.2,0.9-2.8,0.7-3.8-0.4c-0.8-0.9-1.5-2-2-3.1c-1.8-3-4.8-5.1-8.3-5.8c-1.3-0.3-2.6-0.3-3.8,0.2c-1.2,0.4-2.1,1.6-2.2,2.9
							c0,1.4,1,2.5,2,3.5c3,3.2,6.4,6,10.1,8.4c1,0.6,2,1.2,3.1,1.7c-1.8-0.4-3.6-0.8-5.4-1.1c-2.5-0.6-5.1-0.9-7.7-0.7
							c-2.6,0.2-5,1.6-6.4,3.7c-1,1.9-1.2,4.2-0.6,6.2c0.6,2.1,1.6,4,2.8,5.8c1.9,3.2,4.3,6.2,7,8.8c-2.3,0.7-4.6,1.4-6.8,2.3
							c-2.2,0.9-4.6,1.8-5.6,3.9C-403.1,1652.1-403.3,1653.7-403,1655.3z M-369.2,1624L-369.2,1624c0.6-0.2,1-0.6,1.3-1
							c1.4-1.9,2.4-4,2.9-6.3c0.5-0.1,1.1-0.2,1.6-0.4c-0.7,0.7-1.1,1.6-1.1,2.5l5.2,2.5c0.4,0.1,0.7,0.4,0.9,0.7
							c0.1,0.3,0.2,0.7,0.1,1.1c-0.1,1.2-0.4,2.4-0.5,3.5c-1.6-0.5-3.1-0.8-4.4-1.2C-365.3,1625-367.2,1624.5-369.2,1624
							L-369.2,1624z"/>
						<path class="st8" d="M-368.2,1575.2c2.6,0.7,5.4,0.2,7.7-1.2c0.5-0.3,1-0.6,1.5-0.7c1-0.1,1.9,0.3,2.6,1
							c2.2,2.2,2.5,5.8,1.3,8.7c-1.1,2.9-3.4,5.2-5.8,7.1c-1.9,1.6-4,3.1-6.1,4.4c-1.2-2.8-3.5-5-6.3-6.1c-2.5-1-4.4-3.6-5.8-5.9
							c-1.1-1.7-2-1.6-1.1-3.4c1.1-1.7,2.4-3.2,3.8-4.6c0.8-0.8,1.5-1.8,2.1-2.8c0.6-1.2,0.5-1.9,1.5-1c0.7,0.6,0.9,1.9,1.7,2.6
							C-370.4,1574.3-369.4,1574.9-368.2,1575.2z"/>
						<path class="st8" d="M-360.3,1557.3c0.2-0.5,0.3-1.1,0.3-1.7c-0.3-1-0.9-1.8-1.8-2.3l-11.2-8.9c-1.2-1-2.4-1.9-3.8-2.7
							c-3.9-2.1-8.8-2.4-12-5.4c-1.9-1.8-3-4.3-2.9-6.8c0-1.8,0.9-3.9,2.7-4.4c1.7-0.5,3.7,0.8,5.1,2.1c4.7,4.2,9.4,8.5,14.6,12
							c5,3.3,10.4,6,14.8,10c0.8,0.7,1.5,1.5,2,2.4c0.5,1.1,0.9,2.3,1.1,3.5l0.9,4.4c0.8,3.7,1.4,7.9-1.1,10.8
							c-0.7,0.9-1.8,1.5-3,1.5c-0.8-0.1-1.6-0.4-2.3-0.8c-1.8-0.9-5.2-1.8-5.7-4.1C-363.3,1564-361.2,1560-360.3,1557.3z"/>
						<path class="st8" d="M-378.3,1614.7c-0.8-0.9-1.4-1.9-1.9-3c-1.8-3-4.7-5-8.1-5.8c-1.2-0.3-2.5-0.3-3.7,0.1s-2.1,1.6-2.2,2.8
							c0,1.4,1,2.5,1.9,3.5c3,3.1,6.3,5.9,9.9,8.3s7.7,3.8,12,4.2c0.4,0.1,0.9,0,1.3-0.1c0.5-0.2,0.9-0.6,1.2-1
							c2.3-2.9,3.1-6.7,3.7-10.4c-0.2,1.3-7.6-1.8-8.5-1.4c-1.2,0.6-1.1,2.3-2,3.1C-375.7,1616-377.4,1615.8-378.3,1614.7z"/>
						<path class="st8" d="M-324.4,1643.6c0,0.5,0,0.9-0.3,1.3c-0.5,0.8-1.6,0.8-2.6,0.7c-2.1-0.4-4.3-0.9-6.3-1.5l-18.9-5.4
							c-0.3-0.1-0.6-0.2-0.8-0.4c-0.2-0.2-0.3-0.5-0.4-0.8c-0.7-2.7-0.8-5.5-0.4-8.3c0-0.4,0.2-0.8,0.4-1.1c0.4-0.4,1-0.6,1.6-0.6
							c3-0.3,5.9-0.4,8.9-0.4c1.9,0.1,3.9,0,5.8-0.1c2.5-0.3,5.3-1.7,7.8-1.5c2.2,0.2,2.1,1.8,2.3,3.7
							C-326.7,1633.9-324.4,1638.6-324.4,1643.6z"/>
						<path class="st3" d="M-384.6,1621.2c-2.4-0.6-5-0.9-7.5-0.7c-2.5,0.2-4.9,1.6-6.3,3.7c-1,1.9-1.2,4.1-0.6,6.2
							c0.6,2,1.6,4,2.8,5.7c2.1,3.7,4.8,6.9,8.1,9.7c1.6,1.3,3.4,2.3,4.9,3.7c3.3,2.9,5.3,6.9,7.3,10.8c1.8,3.7,3.7,7.4,4.5,11.5
							c0,0.3,0.2,0.6,0.4,0.8c0.3,0.1,0.5,0.1,0.8,0.1l9-1.7c0.8,0,1.4-0.6,1.5-1.4c0-0.3-0.1-0.6-0.2-0.8
							c-2-8.4-5.6-16.4-10.8-23.3c4.9,4.6,11.6,6.6,18.2,5.3c1.3-0.2,2.5-0.7,3.5-1.5c2-1.8,1.9-5,1.5-7.6c-0.4-2.4-1-4.7-1.7-7
							c-1.7-5.5-9-7-14-8.3C-370.3,1624.3-377.4,1622.6-384.6,1621.2z"/>
						<path class="st4" d="M-377.9,1640.7c1.3,0.5,2.5,1.3,3.4,2.3c-1.6-1.8-6.3-2.8-8.6-3.6c-2.8-1-5.9-2.1-8.3-4
							C-386.7,1636.9-382.2,1638.6-377.9,1640.7z"/>
						<path class="st2" d="M-348.6,1679.5c0.8,1.5,1.5,3.5,0.4,4.9c-0.9,1-2.6,1.2-3.1,2.4c-0.3,0.9,0,1.9,0.8,2.5
							c0.8,0.5,1.7,0.8,2.6,0.9c2.2,0.3,4.5,0.3,6.7-0.1c1.2-0.1,2.3-0.6,3.2-1.4c0.8-1.1,1.2-2.4,1.1-3.7l1.5-17.6
							c0.1-0.8,0.1-1.7-0.2-2.5c-0.6-1.5-2.4-2.1-4-2.4c-1.8-0.3-3.6-0.4-5.4-0.2c-1.2,0-2.4,0.4-3.4,1.2c-0.9,1-1.5,2.3-1.6,3.7
							c-0.4,2.1-1.6,5-1.3,7.1C-351,1676-349.4,1677.9-348.6,1679.5z"/>
						<path class="st2" d="M-368.9,1673.8c-3.4-0.4-6.9-0.1-10.2,1.1c-1,0.4-2.2,1-2.4,2.1c0,0.9,0.5,1.8,1.4,2.2s1.8,0.5,2.7,0.5
							c4.9,0.1,9.7-0.1,14.5-0.8c1.3-0.1,2.5-0.5,3.5-1.1c1.1-0.7,1.6-2.1,1.1-3.3c-0.6-1.2-2.2-1.6-2.9-2.7c-0.6-0.8-0.7-2-1.6-2.4
							c-0.7-0.2-1.4-0.2-2,0.1c-0.9,0.3-3.1,0.6-3.8,1.4C-368.7,1671.9-368.8,1672.8-368.9,1673.8z"/>
						<circle class="st8" cx="-381.9" cy="1572.8" r="12.1"/>
						<path class="st2" d="M-353.3,1567.5c-1.9-1.4-4.4-1.9-6.7-2.4c-0.8-0.2-1.7-0.2-2.4,0.1c-0.5,0.4-0.9,0.9-1.2,1.4
							c-0.7,1.2-1.3,2.5-1.6,3.8c-0.3,1.4,0,2.8,0.9,3.9c0.7,0.7,1.7,1.1,2.5,1.8c1,1.1,1.4,2.5,1.1,4c-0.3,1.4-0.8,2.7-1.6,3.9
							c-1.8,3.1-3.8,6.1-6,8.9c-2.3,2.9-5,5.7-6.3,9.2c-1.6,3.7-1.2,7.9,0.9,11.3c2.2,3.3,6.7,5,10.4,3.6c-0.7,0.7-1.1,1.6-1,2.5
							l5.1,2.5c0.4,0.1,0.7,0.4,0.9,0.7c0.1,0.3,0.2,0.7,0.1,1.1c-0.4,2-0.6,4.1-0.6,6.2c0.1,2.1,1.1,4.2,3,5.1
							c1.7,0.8,3.8,0.4,5.6,0c4.4-0.9,8.8-1.4,13.3-1.4c2.2,0,4.5,0.1,6.6-0.8c2.8-1.2,4.6-4,4.7-7.1c-0.1-1.6-0.4-3.2-1-4.6
							c-2.8-8.5-5.7-17.1-9.5-25.3c-2.5-5.4-5.5-10.6-9-15.4c-0.9-1.2-1.8-2.4-2.9-3.6c-0.7-0.8-2.3-2-2.6-3.1s0.3-2.1,0-3.2
							C-351.4,1569.4-352.2,1568.3-353.3,1567.5z"/>
						<path class="st3" d="M-323.7,1643.8c-5.3-2.4-10.6-4.9-16.1-6.8c-4.1-1.4-8.6-2.5-12.5-0.9c-1.2,0.5-2.3,1.2-3.4,1.7
							c-3.8,1.8-8.3,2.1-12.5,2.6c-9.5,1.1-18.8,3.3-27.7,6.6c-2.1,0.8-4.4,1.8-5.5,3.8c-0.6,1.5-0.8,3-0.6,4.6
							c0.2,2.3,0.5,4.8,2,6.6c2.4,3,6.8,3.3,10.6,4.2c2.9,0.8,5.7,2,8.4,3.3c8.8,4.2,17.6,8.4,26.2,12.9c1,0.5,2.2,0,3.1-0.8
							c2.6-2.4,4.5-5.5,5.4-8.9s1.4-6.9,1.4-10.5c3.4,0,6.1-0.1,9.5-0.1c1.2,0.1,2.5-0.1,3.7-0.5c2.3-0.9,3.5-3.3,4.5-5.6
							C-325.5,1652.4-323.4,1648.1-323.7,1643.8z"/>
						<path class="st4" d="M-385.1,1656.4c2.4-1.2,5.1-1.2,7.8-1.2c1.6,0,3.2,0.1,4.8,0.4c2.4,0.6,4.8,1.5,7.1,2.7
							c5.6,2.4,11.7,3.6,17.8,3.5"/>
						<path class="st3" d="M-398.9,1574.5c1.8,1.7,4.1,2.8,6.5,3.3c2.4,0.6,4.9,0.8,7.3,1.3c3,0.7,6.2,2.2,6.9,5.2
							c0.2,1.2,0.2,2.4,0.1,3.6s0.4,2.4,1.2,3.2c0.5,0.3,1,0.6,1.5,0.7c9.9,3.8,16.4,13.2,16.5,23.7c3.1-1.8,5.2-4.9,5.7-8.4
							c0,3.2,2.8,6.4,1.2,9.3c6.8-4.4,8.7-13.5,4.3-20.3c-0.2-0.3-0.5-0.7-0.7-1c-1.2-1.5-2.8-2.8-4-4.3c-3.6-4.2-5.4-9.7-4.8-15.2
							c0.3-2.3,0.9-4.7,0.4-7c-0.7-3.2-3.5-5.4-6.1-7.3c-1.9-1.4-3.9-2.6-6-3.6c-2.8-1.2-5.7-1.9-8.7-2.1
							c-6.6-0.7-12.5,0.3-16.6,5.9c-0.8,1.3-1.9,2.4-3.1,3.3c-0.9,0.4-1.8,1-2.6,1.6C-402,1568.7-400.8,1572.5-398.9,1574.5z"/>
					</g>
					<g>
						
							<linearGradient id="SVGID_2_" gradientUnits="userSpaceOnUse" x1="-9122.5117" y1="3613.6423" x2="-9122.5117" y2="3337.5398" gradientTransform="matrix(-1 0 0 1 -9645.8203 -1951.4597)">
							<stop  offset="0" style="stop-color:#808080;stop-opacity:0.25"/>
							<stop  offset="0.54" style="stop-color:#808080;stop-opacity:0.12"/>
							<stop  offset="1" style="stop-color:#808080;stop-opacity:0.1"/>
						</linearGradient>
						<path class="st9" d="M-567.3,1461.4c0.3,0.8,0.7,1.6,1.1,2.4v0.1c0,0,5.2,19.2,7.6,23.2c0.7,1.2,1.5,2.4,2.3,3.7
							c-0.2,0.9-0.2,1.8,0,2.8c0.7,4.3,1.6,10.2,1.2,11.5c-0.4,1.3,0.5,4.5-0.9,5.6s-2.8,3.1,1.5,5.6c0,0,0.8,2.2,0.1,2.7
							c-0.1,0.1,0,0.2,0.2,0.3c-1.2,3.5-2.9,9.2-1.8,9.6c0.6,0.2,2.2-0.6,4-1.8c0,0.2,0.1,0.5,0.1,0.7c0.3,1.9,0.7,3.8,1.3,5.6
							c0.8,1.8,1.6,4.7,1.2,5.7c-0.4,1,1.2,3.1,0.8,4s1.2,3.6,1.2,3.6s1.6,5.4,1.5,7.2c-0.1,1.8,1.7,13.5,1.7,13.5s-1.8,6.1-0.9,7.8
							c0.9,1.8,1.5,7.8,0,10s-3.4,7.2-2.8,8.5c0.6,1.3-0.9,17.8,2.9,24.6c0.5,2.5,0.8,5.1,1,7.6c0,1.8,2.9,6.7,2.9,6.7
							s-1.8,7.3,2.6,8.6c0.3,0.1,0.6,0.2,0.9,0.2c0.1,0.8,0,1.6-0.3,2.4c-0.7,1-1.3,2.2-1.5,3.4l0,0c-0.1,0.2,0,0.5,0.1,0.7
							c0.5,0.5,1.8,7.8,1.8,7.8s1.9,8.2,12.7,6.2c0,0,7.2-0.4,6.6-3c-0.2-0.8-0.5-1.7-0.8-2.5c-0.3-0.5-0.5-1-0.7-1.6
							c-0.1-0.6-1.6-2.3-1.8-3.5c-0.1-1.1-1.1-3.4-0.9-4.1c0.2-0.7-1.6-5.9-1.8-7.1c-0.1-0.8-0.4-1.6-0.7-2.4l0.4-0.2
							c0,0,1-5.4,0.1-7.4c-0.8-2-4.2-4.6-4.2-4.6s0.5-13.4-0.1-15.2c-0.6-1.8,0.3-8.7,0.3-8.7s2.1-9.7,1.9-11.9
							c-0.1-1.4,0.1-2.7,0.6-4c0,0,1.3-14.3,2.1-16.2c0.8-1.9,1.8-19.6,1.8-19.6l0.6,1.6c0.8,2.5,1.8,4.9,2.8,7.2
							c0.5,0.7,1.8,3.1,3,5.1l1.7,2.9c0,0,0.8,2.8,0.2,4.6c-0.6,1.7,5.7,11.2,5.7,11.2c-0.4,0.8-0.6,1.7-0.6,2.5
							c0.2,0.9-1.9,3.8-1.9,3.8s-0.8,2.6-0.3,3.5s-0.8,6.3-0.8,6.3s-2.1,11.9-2.6,13.3s0.2,11,0.2,11s-3.8,9.8-2,13
							c0.1,1.2,0.1,3-0.4,3.8c-0.6,1-0.5,4.7-0.4,5.7c0,0.2,0,0.3,0,0.3s-2.1,2.8,0.5,3.9c2.6,1.1,11.5,1.9,11.5,1.9
							s8.5,2.4,12.5,3.1s12.6,0.4,13.2-2.1c0.2-0.8,0.3-1.6,0.2-2.4c-0.1-1-0.7-1.9-1.7-2.4c-2.5-1-5.1-1.8-7.7-2.5
							c0,0-4-0.9-4.4-2.7c-0.4-1.7-6.1-6.6-6.1-6.6s-0.1-0.3-0.2-0.8h0.2l-0.3-0.3c-0.3-0.9-0.7-2.1-1.3-1.9l0,0
							c-0.4-0.7-0.1-1.5,0.6-1.9c0,0,0,0,0.1,0c2.2-1.2,3.5-5,2.9-9.1s-0.7-3.4,0.6-5.8c0.8-1.8,1.1-3.7,0.9-5.7l3.8-12.2
							c0.5-1.5,0.9-3.1,1-4.8c0.1-1.3,0.4-2.5,1-3.7c0,0,1.5-8.7,2.9-10.7c1.3-2-0.9-9-0.9-9s-2.1-10.9-1.9-15.9
							c0.1-5-5.4-22.2-5.4-22.2c-0.7-1.1-1-2.4-0.8-3.8c0.1-1-0.5-2.7-1.3-4.2l-0.2-0.5c0.3-0.4,0.6-0.7,1-0.9
							c1.5-0.9,2.2-3.3,2.2-5l-20.8-49c0-0.1,9.6-19.8,9.6-19.9c-0.6-3.2-6-11.8-6-11.8l0,0c-0.1-0.1-0.1-0.2-0.2-0.3
							c-1.2-0.6-5.4-2.9-5.4-2.9c-3.2-4-6.3-4.8-8.3-4.8c-0.6,0-1.2,0.1-1.8,0.3c-0.2,0.1-0.4,0.1-0.6,0.2l-0.1,0.8
							c-0.2-1.8,0-3.7,0.4-5.5c0-0.2,0.1-0.3,0.1-0.5c0.3,0,0.6,0,0.9,0c8.2,0,14.8-6.6,14.9-14.8l0,0c0-1.4-0.2-2.8-0.6-4.1
							l-0.1-0.2l0.5-0.2c1.8-0.7,4.1,0.5,5.6-0.8c0.5-0.5,0.9-1.2,1.1-1.9c0.4-1,0.7-2,0.8-3.1c0-0.2,0-0.4,0-0.6c0-0.1,0-0.1,0-0.2
							s0-0.1,0-0.2s0-0.2,0-0.2l0,0c-0.1-0.7-0.4-1.3-0.8-1.8c-1-1.1-2.6-1.4-3.8-2.3c-1-0.8-1.8-1.8-2.5-2.9
							c-0.6-1.1-1.4-2.1-2.4-2.9s-2.4-1.1-3.6-0.6c-0.4,0.2-0.8,0.4-1.2,0.6c-0.5,0-0.9-0.1-1.3-0.3c-4.2-2-9.2-1.6-13.8-1
							c-1.9,0.1-3.7,0.6-5.4,1.3c-1.8,0.7-3.1,2.2-3.7,4c-0.4,1.4-0.1,3-0.5,4.4c-0.3,0.9-0.9,1.8-1.3,2.7c-0.2,0.5-0.3,1-0.3,1.5
							l0,0v0.1c-0.2,2.1,0.7,4.3,1.1,6.4c0.5,2.9,0.3,6.1,1.5,8.9c0.1,0.3,0.3,0.7,0.5,1c-0.4,0.9-0.9,1.9-1.4,2.8
							c-0.7-0.2-2.8-0.7-2.8,1.2c0,1.5-0.4,2.9-1,4.3c-0.1,0.1-0.2,0.1-0.3,0.2c-0.2,0.1-0.4,0.3-0.3,0.6l0,0l-0.2,0.2
							c-0.1,0-0.2,0-0.3,0.1c-0.1-0.2-0.6-0.2-1.9,1.4c-1.8,1.9-3.8,3.4-6.1,4.7c0,0-9,6.3-9.5,9.2
							C-565.8,1444.6-568.8,1457.2-567.3,1461.4z M-527.6,1430.7L-527.6,1430.7L-527.6,1430.7L-527.6,1430.7z M-503.1,1636.5
							c-0.2,0.1-0.5,0.2-0.8,0.2L-503.1,1636.5z"/>
						<path class="st5" d="M-523.9,1662.1c-10.6,2-12.5-6.1-12.5-6.1s-1.3-7.2-1.8-7.8c-0.1-0.2-0.1-0.5-0.1-0.7l0,0
							c0.3-1.2,0.8-2.4,1.5-3.4c0.7-0.8,0.1-4,0.1-4l12.3-3.1c0.5,1.2,0.9,2.4,1.2,3.6c0.1,1.1,1.9,6.3,1.7,7s0.8,2.9,0.9,4.1
							c0.1,1.1,1.6,2.8,1.7,3.4c0.2,0.5,0.4,1.1,0.7,1.6c0.3,0.8,0.6,1.6,0.8,2.4C-516.8,1661.7-523.9,1662.1-523.9,1662.1z"/>
						<path class="st4" d="M-523.9,1662.1c-10.6,2-12.5-6.1-12.5-6.1s-1.3-7.2-1.8-7.8c-0.1-0.2-0.1-0.5-0.1-0.7l2.5,7.3
							c0,0,2.1,4.4,9.9,3.7c4.5-0.4,6.6-1.2,7.7-1.8c0.3,0.8,0.6,1.6,0.8,2.4C-516.8,1661.7-523.9,1662.1-523.9,1662.1z"/>
						<path class="st4" d="M-532.2,1650.6c0,0,2.7,0.1,2.8-2.1L-532.2,1650.6z"/>
						<path class="st3" d="M-486.1,1579.5c-1.3,2-2.8,10.6-2.8,10.6c-0.6,1.1-0.9,2.4-0.9,3.7c-0.1,1.6-0.4,3.2-0.9,4.8l-3.5,12.5
							c0.2,1.9-0.1,3.9-0.9,5.6c-1.3,2.4-1.1,1.6-0.5,5.7s-0.7,7.9-2.9,9.1c-2.2,1.2,1,4,1,4s-13.8,3.7-16.7,1.4
							c-2.9-2.3,1.5-13.6,1.5-13.6s-0.7-9.5-0.2-10.9s2.5-13.2,2.5-13.2s1.3-5.4,0.8-6.3s0.3-3.5,0.3-3.5s2-2.9,1.8-3.8
							c0-0.9,0.2-1.7,0.6-2.5c0,0-6.1-9.4-5.6-11.1s-0.2-4.6-0.2-4.6s-0.8-1.3-1.7-2.9c-1.1-2-2.5-4.3-3-5c-1.1-2.3-2-4.7-2.8-7.1
							l-0.6-1.6c0,0-0.9,17.7-1.8,19.5c-0.9,1.8-2.1,16.1-2.1,16.1c-0.5,1.3-0.7,2.6-0.6,4c0.1,2.2-1.9,11.9-1.9,11.9
							s-0.9,6.9-0.3,8.7c0.6,1.8,0.1,15.1,0.1,15.1s3.3,2.6,4.2,4.6c0.8,2-0.1,7.4-0.1,7.4s-9.6,4.8-13.9,3.5
							c-4.3-1.3-2.5-8.5-2.5-8.5s-2.9-4.8-2.9-6.7c-0.2-2.5-0.6-5.1-1-7.6c-3.7-6.7-2.2-23.1-2.8-24.4s1.3-6.3,2.8-8.5s0.9-8.3,0-10
							s0.9-7.8,0.9-7.8s-1.7-11.7-1.7-13.5c0.1-1.8-1.5-7.2-1.5-7.2s-1.6-2.8-1.2-3.6c0.4-0.8-1.2-3-0.8-4s-0.4-3.9-1.1-5.7
							c-0.6-1.8-1-3.6-1.3-5.5c-0.4-2.1-0.6-3.9-0.6-3.9l9.9-8l24.8-6.5l9.4-3.1l9.1,14.3c0,0,0.9,1.5,1.8,3.2
							c0.7,1.5,1.4,3.2,1.2,4.2c-0.2,1.3,0.1,2.6,0.8,3.7c0,0,5.4,17.2,5.3,22c-0.1,4.9,1.9,15.8,1.9,15.8
							S-484.8,1577.5-486.1,1579.5z"/>
						<path class="st4" d="M-541.8,1588.5c0,0,10.6-4.5,13.7-1.3C-525,1590.3-541.8,1588.5-541.8,1588.5z"/>
						<path class="st4" d="M-535.9,1590.3c0,0-10.7,6.1-7.1,7C-539.3,1598.3-535.9,1590.3-535.9,1590.3z"/>
						<path class="st4" d="M-503.9,1585.1c0,0-4.6,0.3-2.8,1.2S-503.9,1585.1-503.9,1585.1z"/>
						<path class="st4" d="M-498.2,1586.4c-0.1,0.3-13.3,4.6-10.7,6.5C-506.3,1594.8-498.2,1586.4-498.2,1586.4z"/>
						<path class="st4" d="M-540.3,1623.3c2-0.3,13.1-5.4,8.7-1.7C-533.9,1623.7-537.3,1624.3-540.3,1623.3z"/>
						<path class="st4" d="M-534.8,1627.3c0,0,1,3.7,4.6,3.3C-526.5,1630.1-534.8,1627.3-534.8,1627.3z"/>
						<path class="st4" d="M-537.9,1634.9c0.7-0.2,8.5-3.8,8.7-2.1c0.2,1.7-7.5,4.6-8.1,3.7C-537.6,1636-537.8,1635.5-537.9,1634.9z
							"/>
						<path class="st4" d="M-512.4,1630.5c0.9-0.1,10-2.9,11.8-0.4L-512.4,1630.5z"/>
						<path class="st4" d="M-504.2,1632.2c0,0,1.6-1.4,3.1-0.7C-499.5,1632.3-504.2,1632.2-504.2,1632.2z"/>
						<path class="st4" d="M-524.1,1647.2c0.2,1,1,1.9,2,2.1L-524.1,1647.2z"/>
						<path class="st5" d="M-478.2,1652.8c-0.6,2.5-9,2.7-13.1,2c-4-0.7-12.4-3.1-12.4-3.1s-8.8-0.8-11.4-1.9s-0.5-3.8-0.5-3.8
							s0-0.1,0-0.3c-0.1-1-0.2-4.7,0.4-5.6c0.7-1.1,0.3-4.9,0.3-4.9s12.5,2.4,12.7,1.3s2.2-2.8,3.1-3.1c0.9-0.4,1.6,3,1.6,3
							s5.7,4.8,6,6.6c0.3,1.8,4.3,2.6,4.3,2.6c2.6,0.7,5.1,1.5,7.6,2.5c0.9,0.4,1.6,1.3,1.7,2.3
							C-477.9,1651.2-478,1652-478.2,1652.8z"/>
						<path class="st4" d="M-478.2,1652.8c-0.6,2.5-9,2.7-13.1,2c-4-0.7-12.4-3.1-12.4-3.1s-8.8-0.8-11.4-1.9s-0.5-3.8-0.5-3.8
							s0-0.1,0-0.3l12.6,2.8c0,0,6.2,2.6,10.2,2.6c3.5,0,11.2,1.4,14.8-0.7C-477.9,1651.2-478,1652-478.2,1652.8z"/>
						<path class="st4" d="M-495.3,1643.3c0,0-0.6,4-3,5.3L-495.3,1643.3z"/>
						<path class="st10" d="M-456.7,1497c-3.6,1.4-11.9,1.5-15.5,1.5c-1.1,0-1.8,0-1.8,0l-2.4-4.8l2.4-4c0,0,2.2-0.6,5.1-1.1
							c4.3-0.8,10.1-1.4,12.9,0.4C-451.5,1491.8-452,1495.3-456.7,1497z"/>
						<path class="st2" d="M-511.4,1439.4l1-1.2c0,0,5.4,8.5,5.9,11.7c0.6,3.2,1.3,6.9,1.3,6.9s1.4,4.2,2.3,6
							c0.8,1.4,1.4,2.9,1.8,4.4c0.1,0.8-0.3,2.6,1.4,3.7c1.7,1.1,2.1,4.2,2.1,4.2s6.1,5.9,9.3,6.1s12.4,1.8,12.1,3.4s3.8,2.6,5.5,3
							s-10.8,5.2-3.5,11.4c0,0-4.7,0.9-5.1,2.1c-0.5,1.2-5.4-0.6-5.4-0.6s-1-2.5-4.7-2.6c-3.6-0.2-5.5-1.8-5.5-2s-3.6-2.3-5.6-2.8
							c-2-0.6-4.7-0.8-4.7-1.4c-0.1-0.6-12-52.2-12-52.2L-511.4,1439.4z"/>
						<path class="st11" d="M-511.4,1439.6l1-1.2c0,0,5.4,8.5,5.9,11.7c0.6,3.2,1.3,6.9,1.3,6.9s1.4,4.2,2.3,6
							c0.8,1.4,1.3,2.9,1.8,4.4c0.1,0.8-0.3,2.6,1.4,3.7c1.7,1.1,2.1,4.2,2.1,4.2s6.1,5.9,9.3,6.1c3.2,0.2,12.4,1.8,12.1,3.4
							s3.8,2.6,5.5,3s-10.8,5.2-3.5,11.4c0,0-4.7,0.9-5.1,2.1c-0.5,1.2-5.4-0.6-5.4-0.6s-1-2.5-4.7-2.6c-3.6-0.2-5.5-1.8-5.5-2
							s-3.6-2.2-5.6-2.8s-4.7-0.8-4.7-1.4c-0.1-0.6-12-52.2-12-52.2L-511.4,1439.6z"/>
						<path class="st6" d="M-510.3,1592.1l7.3,1.5c0,0-8.3,23-2.5,28h-9.3C-514.7,1621.6-518.1,1603.9-510.3,1592.1z"/>
						<path class="st4" d="M-510.3,1592.1l7.3,1.5c0,0-8.3,23-2.5,28h-9.3C-514.7,1621.6-518.1,1603.9-510.3,1592.1z"/>
						<path class="st10" d="M-522.7,1440c-0.4-0.2-26.6-11-23-13.1c2.1-1.3,4.8-6.7,6.6-10.9c1.3-2.9,2.1-5.3,2.1-5.3
							s21-3.7,13.5,9.2c-1.2,2-2.1,4.1-2.7,6.3C-528.3,1434.9-523,1439.9-522.7,1440z"/>
						<path class="st4" d="M-523.6,1419.8c-1.2,2-2.1,4.1-2.7,6.3c-5.4-0.4-10.2-3.7-12.4-8.7c-0.2-0.5-0.4-0.9-0.6-1.4
							c1.3-2.9,2.1-5.3,2.1-5.3S-516,1406.9-523.6,1419.8z"/>
						<path class="st10" d="M-510.5,1411c0,8.1-6.6,14.7-14.8,14.6c-5.8,0-11-3.4-13.4-8.7c-0.8-1.9-1.3-3.9-1.2-5.9
							c0-8.1,6.7-14.7,14.8-14.6c6.5,0,12.2,4.3,14,10.6C-510.7,1408.3-510.5,1409.6-510.5,1411z"/>
						<path class="st4" d="M-496.3,1524.8c-1.1,1.1-1.8,2.5-2.1,4.1c0,0-7.2,4.9-6.7,1.8s-3.8-15.8-3.8-15.8l0.5,17.2
							c0,0-23.1-1.1-24.8-2.8c-1.7-1.7-11.5-5-11.5-5s-3,2.4-5.8,4.3c-0.4-2.1-0.6-3.9-0.6-3.9l9.9-8l24.7-6.5l9.3-3l9.1,14.3
							C-498.1,1521.6-497.2,1523.1-496.3,1524.8z"/>
						<path class="st5" d="M-495.6,1523.4c-1.9,1.2-2.6,4.5-2.6,4.5s-7.2,4.9-6.7,1.8s-3.7-15.8-3.7-15.8l0.5,17.2
							c0,0-23.1-1.1-24.8-2.8c-1.7-1.7-11.6-4.9-11.6-4.9s-8.5,6.9-10.1,6.3s2.8-12.3,2.8-12.3l4.4-68.4c0,0-1.2-20.3,0.6-21.1
							c0.3-0.1,0.5-0.3,0.8-0.5c1.2-1.1,1.6-3.2,1.7-5.1c0.1-2.2,3-1.1,3-1.1l-1.7,2.2l14.9,9.1l0.1,0.1c0.6-0.3,1.2-0.6,1.8-0.8
							c1.3-0.5,3.1-1,4.2-0.5c0.6,0.3,1.2,0.8,1.6,1.4c0.9,1.3,1.5,2.7,2,4.1l5.4,9.1c0,0,2.8,12.2,2.8,12.6s0.8,11.6,1.8,12.8
							c1,1.2,1.9,7.2,1.6,9c-0.4,1.8,0.6,8.5,0.6,8.5c4,3.3,6,14.3,6,14.3s6.3,12.4,6.7,13.8C-493,1518.7-493.6,1522.2-495.6,1523.4
							z"/>
						<path class="st4" d="M-528.2,1433.1c-1.5,2.2-5.7,5.2-5.7,5.2l-12.2-10.3c1.2-1.1,1.6-3.2,1.7-5.1c0.1-2.2,3-1.1,3-1.1
							l-0.3,0.5c-0.7,0.9-0.5,2.1,0.4,2.7c0.1,0,0.1,0.1,0.2,0.1L-528.2,1433.1z"/>
						<path class="st5" d="M-528.2,1432.6c-1.5,2.2-5.7,5.2-5.7,5.2l-12.2-10.3c1.2-1.1,1.6-3.2,1.7-5.1c0.1-2.2,3-1.1,3-1.1
							l-0.3,0.5c-0.7,0.9-0.5,2.1,0.4,2.7c0.1,0,0.1,0.1,0.2,0.1L-528.2,1432.6z"/>
						<path class="st4" d="M-522.6,1434.2c-1.6,1.9-3.8,4-3.7,2.9s-1.3-3.4-2.2-4.5c1.4-0.5,3-0.4,4.4,0.1
							C-523.5,1433.1-522.9,1433.6-522.6,1434.2z"/>
						<path class="st5" d="M-522.3,1433.5c-1.6,1.9-3.8,4-3.7,3s-1.2-2.8-2.1-3.9c1.3-0.5,3.1-1,4.2-0.5
							C-523.2,1432.4-522.7,1432.9-522.3,1433.5z"/>
						<path class="st4" d="M-546.1,1428.1c0,0,0.2-1.4-1.9,1c-1.8,1.8-3.8,3.4-6,4.6c0,0-8.9,6.3-9.4,9.2s-3.4,15.4-1.8,19.6
							c1.6,4.2,13.2,24.2,13.2,24.2s-3,3.6-2.3,7.9s1.6,10.1,1.2,11.4c-0.4,1.3,0.5,4.5-0.9,5.6s-2.8,3,1.5,5.6c0,0,0.8,2.2,0.1,2.6
							c-0.7,0.5,10.7,5.5,15.2,2.8c4.5-2.6,12.6-23.8,12.8-28.6c0.2-4.7-2.5-20.4-3.9-24.1s-5.8-18.1-7.6-21.3
							C-538,1445.5-546.1,1428.1-546.1,1428.1z"/>
						<path class="st2" d="M-546.6,1428.1c0,0,0.2-1.4-1.9,1c-1.8,1.8-3.8,3.4-6,4.6c0,0-8.9,6.3-9.4,9.2s-3.4,15.4-1.8,19.6
							c1.5,4.2,13.2,24.2,13.2,24.2s-3,3.6-2.3,7.9s1.6,10.1,1.2,11.4c-0.4,1.3,0.5,4.5-0.9,5.6s-2.8,3,1.4,5.6c0,0,0.8,2.2,0.1,2.6
							c-0.7,0.5,10.7,5.5,15.2,2.8s12.6-23.8,12.8-28.6c0.2-4.7-2.5-20.4-3.9-24.1s-5.8-18.1-7.6-21.3
							C-538.6,1445.6-546.6,1428.1-546.6,1428.1z"/>
						<path class="st4" d="M-549.8,1441.7c0,0,6.9,7.6,6.7,12.7C-543.1,1454.4-543,1446.2-549.8,1441.7z"/>
						<path class="st4" d="M-526.5,1430.8c0,0,4.5-2.8,10.1,4.3c0,0,4.1,2.3,5.3,2.9s2.6,15.5,2.6,15.5s2.6,6.4,1.9,10.1
							s2.1,16.4,2.1,16.4s4.6,22.8,4.5,23.4c-0.2,0.6-4.7-7.1-4.7-11c0.1-3.9-3.8-15.9-4.4-16.6s-4.4-21.3-4.4-21.3
							s-3.1-8.7-5.1-11.6s-4.5-8.4-5.5-9.3c-0.7-0.6-1.6-1.2-2.5-1.6L-526.5,1430.8z"/>
						<path class="st2" d="M-526.5,1430.8c0,0,5-2.8,10.6,4.3c0,0,4.1,2.3,5.3,2.9s2.6,15.5,2.6,15.5s2.6,6.4,1.9,10.1
							s2.1,16.4,2.1,16.4s4.7,22.8,4.5,23.4s-4.7-7.1-4.7-11c0.1-3.9-3.8-15.9-4.4-16.6s-4.4-21.3-4.4-21.3s-3.1-8.7-5.1-11.6
							s-4.5-8.4-5.5-9.3c-0.9-0.7-1.9-1.2-3-1.6L-526.5,1430.8z"/>
						<path class="st10" d="M-504.5,1481c0,0,9.5-6.3,14.2-3.2s12.2,7.5,4.7,10.6s-17.7,2.6-17.7,2.6L-504.5,1481z"/>
						<path class="st4" d="M-511.1,1541.4c-1.4,3.1-2.6,18.4-3.4,23.3c-1.1-2-2.5-4.3-3-5c-1.1-2.3-2-4.7-2.8-7.1
							c0.9-2.2,3.4-8.5,3.4-10.8c0-2.8,4.6-6.4,4.6-6.4C-510.7,1536.8-510.2,1539.3-511.1,1541.4z"/>
						<path class="st4" d="M-511.1,1406.9c-0.2,0.1-0.5,0.2-0.7,0.3c-1.1,0.3-2.2-0.5-3.2-1.1s-2.4-1.1-3.3-0.3
							c-1.1,1-0.3,3.2-1.5,4.2c-0.7,0.6-1.9,0.4-2.8,0.9c-0.9,0.5-1.1,1.7-1.3,2.6c-0.2,1-0.6,2.1-1.6,2.4s-1.8-0.3-2.8-0.3
							c-0.2,0-0.4,0-0.6-0.1c-0.1-0.1-0.1-0.3-0.1-0.4c0.1-1.2,0-2.4-0.3-3.5s-1.3-2-2.4-2.3c-1.7-0.3-3.1,1.2-4.1,2.6
							c-1,1.5-2,3-2.8,4.6c0,0.1-0.1,0.2-0.1,0.3c-0.8-1.9-1.3-3.9-1.2-5.9c0-8.1,6.7-14.7,14.8-14.6
							C-518.6,1396.4-512.9,1400.7-511.1,1406.9L-511.1,1406.9z"/>
						<path class="st3" d="M-535.6,1411.8c1-1.4,2.4-2.9,4.1-2.6c1.2,0.3,2.1,1.1,2.4,2.3c0.3,1.1,0.4,2.3,0.3,3.5
							c0,0.2,0,0.3,0.1,0.4s0.4,0.1,0.6,0.1c0.9,0,1.9,0.6,2.8,0.3c0.9-0.3,1.4-1.4,1.6-2.4s0.4-2.1,1.3-2.6c0.8-0.5,2-0.3,2.8-0.9
							c1.2-1,0.3-3.2,1.5-4.2c0.9-0.8,2.3-0.3,3.3,0.3s2.1,1.4,3.2,1.1c0.4-0.1,0.7-0.3,1.1-0.5c1.8-0.7,4.1,0.5,5.6-0.7
							c0.5-0.5,0.9-1.2,1.1-1.9c0.4-1,0.7-2,0.8-3.1c0.1-1.1-0.2-2.1-0.8-3c-0.9-1.1-2.6-1.4-3.8-2.2c-1-0.8-1.8-1.8-2.4-2.9
							s-1.4-2.1-2.4-2.9c-1-0.8-2.3-1-3.5-0.6c-0.4,0.2-0.7,0.4-1.2,0.5c-0.5,0-0.9-0.1-1.3-0.3c-4.2-2-9-1.6-13.6-1
							c-1.8,0.1-3.7,0.6-5.4,1.3c-1.7,0.7-3,2.2-3.6,4c-0.4,1.4-0.1,2.9-0.5,4.3c-0.3,0.9-0.9,1.8-1.3,2.7c-1,2.5,0.2,5.3,0.7,8
							c0.5,2.9,0.3,6.1,1.5,8.8c0.2,0.5,0.5,1.5,1.1,1.1c0.5-0.3,0.9-1.8,1.1-2.3C-537.6,1414.8-536.6,1413.3-535.6,1411.8z"/>
						<path class="st4" d="M-562,1458.8l-2.2,6.2c0,0,5.1,19.1,7.5,23.1s5.9,9.2,5.9,9.2c4,1.8,8.5,2.4,12.9,1.6c6.9-1.4,27-5,27-5
							c1,0.2,2-0.2,2.6-1c0.9-1.3,5.5-1.9,5.5-1.9s5.3-7.7-1.2-10.9c0,0-0.8,1.8-4.3,0.6c-3.5-1.2-4.5,1-4.5,1s-5.6,1.1-8.7,0.7
							s-10.9-0.6-11.7-1.2c-0.4-0.4-1.1-0.3-1.4,0.1l0,0c-0.9-0.3-1.8-0.8-2.6-1.5c-0.6-0.7-1.5,0.8-1.5,0.8s-1.1-0.6-0.8-1.4
							s-1-3.9-1-3.9c-0.4-1.2-0.4-2.4-0.2-3.6c0.4-1.6-2-7.3-2-7.3c0-1,0.1-1.9,0.3-2.9c0.4-1.4-3-4.3-3-4.3s-3.4-16.4-10.5-11
							C-563.2,1451.4-562,1458.8-562,1458.8z"/>
						<path class="st2" d="M-562.5,1458.8l-2.2,6.2c0,0,5.1,19.1,7.5,23.1s5.9,9.2,5.9,9.2c4,1.8,8.5,2.4,12.9,1.6
							c6.9-1.4,27-5,27-5c1,0.2,2-0.2,2.6-1c0.9-1.3,5.5-1.9,5.5-1.9s5.3-7.7-1.2-10.9c0,0-0.8,1.8-4.3,0.6c-3.4-1.2-4.5,1-4.5,1
							s-5.6,1.1-8.7,0.7s-10.9-0.6-11.7-1.2c-0.4-0.4-1.1-0.3-1.4,0.1l0,0c-0.9-0.3-1.8-0.8-2.6-1.5c-0.6-0.7-1.5,0.8-1.5,0.8
							s-1.1-0.6-0.8-1.4s-1-3.9-1-3.9c-0.4-1.2-0.4-2.4-0.2-3.6c0.4-1.6-2-7.3-2-7.3c0-1,0.1-1.9,0.3-2.9c0.4-1.4-3-4.3-3-4.3
							s-3.4-16.4-10.5-11C-563.7,1451.4-562.5,1458.8-562.5,1458.8z"/>
						<path class="st4" d="M-542.7,1477.4c0,0-7.9,1.6-5.2,3C-545.3,1481.8-542.7,1477.4-542.7,1477.4z"/>
						<g class="st12">
							<path d="M-529.1,1410.1c-0.3-1.1-1.3-2-2.4-2.3c-1.7-0.3-3.1,1.2-4.1,2.6c-1,1.5-2,3-2.8,4.6c-0.3,0.5-0.7,2-1.1,2.3
								c-0.6,0.4-0.9-0.6-1.1-1.1c-1.2-2.8-0.9-5.9-1.5-8.8c-0.4-1.7-0.8-3.4-1-5.2c-0.2,2.1,0.6,4.3,1,6.4c0.5,2.9,0.3,6.1,1.5,8.8
								c0.2,0.5,0.5,1.5,1.1,1.1c0.5-0.3,0.9-1.8,1.1-2.3c0.9-1.6,1.8-3.1,2.8-4.6c1-1.4,2.4-2.9,4.1-2.6c1.2,0.3,2.1,1.1,2.4,2.3
								c0.2,0.6,0.3,1.2,0.3,1.8C-528.7,1412.2-528.8,1411.1-529.1,1410.1z"/>
							<path d="M-504,1402.5c-0.2,0.7-0.6,1.4-1.1,1.9c-1.5,1.2-3.8,0.1-5.6,0.8c-0.4,0.1-0.7,0.4-1.1,0.5c-1.1,0.3-2.2-0.5-3.2-1.1
								s-2.4-1.1-3.3-0.3c-1.1,1-0.3,3.2-1.5,4.2c-0.7,0.6-1.9,0.4-2.8,0.9c-0.9,0.5-1.1,1.6-1.3,2.6s-0.6,2.1-1.6,2.4
								s-1.8-0.3-2.8-0.3c-0.2,0-0.4,0-0.6-0.1l-0.1-0.1c0,0.3,0,0.6,0,1c0,0.2,0,0.3,0.1,0.4s0.4,0.1,0.6,0.1
								c0.9,0,1.9,0.6,2.8,0.3c0.9-0.3,1.4-1.4,1.6-2.4c0.2-1,0.4-2.1,1.3-2.6c0.8-0.5,2-0.3,2.8-0.9c1.2-1,0.3-3.2,1.5-4.2
								c0.9-0.8,2.3-0.3,3.3,0.3s2.1,1.4,3.2,1.1c0.4-0.1,0.7-0.3,1.1-0.5c1.8-0.7,4.1,0.5,5.6-0.8c0.5-0.5,0.9-1.2,1.1-1.9
								c0.4-1,0.7-2,0.8-3.1c0-0.4,0-0.7,0-1.1C-503.3,1400.7-503.6,1401.6-504,1402.5z"/>
						</g>
					</g>
				</g>
			</g>
		</g>
	</g>
</g>
<g id="图层_2" class="st13">
	<g class="st14">
		<rect x="-556.4" y="1183.8" class="st15" width="240.1" height="519.8"/>
		<rect x="-784.8" y="1110.5" class="st16" width="767.6" height="91.3"/>
		<text transform="matrix(1 0 0 1 -784.8025 1136.2018)" class="st17 st18 st19">#group(have[man(stand, draw, hold[compass]), </text>
		<text transform="matrix(1 0 0 1 -784.8025 1172.2018)" class="st17 st18 st19 st20">     </text>
		<text transform="matrix(1 0 0 1 -604.8025 1172.2018)" class="st17 st18 st19">  woman(squat, draw, hold[compass])])</text>
	</g>
	<g class="st14">
		<rect x="-866.7" y="1499.2" class="st15" width="898.6" height="259.9"/>
		<rect x="-848.9" y="1704.7" class="st16" width="264" height="39.9"/>
		<text transform="matrix(1 0 0 1 -848.8744 1730.4437)" class="st17 st18 st19">#wild(have[tree])</text>
	</g>
	<g class="st14">
		<rect x="-828.2" y="1201.8" class="st15" width="819.7" height="270.3"/>
		<rect x="-369.7" y="1217.3" class="st16" width="393.4" height="39.9"/>
		<text transform="matrix(1 0 0 1 -369.6521 1243.0441)" class="st17 st18 st19">#background(have[dot])</text>
	</g>
</g>
</svg>
