<?xml version="1.0" encoding="utf-8"?>
<!-- Generator: Adobe Illustrator 19.0.0, SVG Export Plug-In . SVG Version: 6.00 Build 0)  -->
<svg version="1.1" xmlns="http://www.w3.org/2000/svg" xmlns:xlink="http://www.w3.org/1999/xlink" x="0px" y="0px"
	 viewBox="210 -95.2 1015.6 783.5" style="enable-background:new 210 -95.2 1015.6 783.5;" xml:space="preserve">
<style type="text/css">
	.st0{opacity:0.1;fill:#6C63FF;enable-background:new    ;}
	.st1{fill:none;stroke:#535461;stroke-width:2;stroke-miterlimit:10;}
	.st2{fill:#6C63FF;}
	.st3{opacity:0.25;enable-background:new    ;}
	.st4{fill:url(#SVGID_1_);}
	.st5{fill:#F6F7F9;}
	.st6{opacity:0.2;}
	.st7{opacity:0.2;fill:#6C63FF;enable-background:new    ;}
	.st8{opacity:0.1;}
	.st9{opacity:0.2;enable-background:new    ;}
	.st10{opacity:0.1;enable-background:new    ;}
	.st11{fill:#FFD037;}
	.st12{fill:#65617D;}
	.st13{fill:#9D9CB5;}
	.st14{fill:url(#SVGID_2_);}
	.st15{fill:#CC818C;}
	.st16{fill:#444053;}
	.st17{opacity:5.000000e-02;enable-background:new    ;}
	.st18{fill:#FF748F;}
	.st19{fill:#575988;}
	.st20{fill:#DCE6F2;}
	.st21{opacity:0.5;fill:#575988;enable-background:new    ;}
	.st22{fill:#67647E;}
	.st23{fill:#585268;}
	.st24{fill:#E4AAB4;}
	.st25{opacity:0.4;fill:#6C63FF;enable-background:new    ;}
	.st26{fill:none;stroke:#F6F7F9;stroke-miterlimit:10;}
</style>
<g id="A-1">
	<g id="背景3">
		<title>collection</title>
		<path class="st0" d="M847.1,31.1c-42.3,26.7-97.1,25-145.2,11.1s-92.2-38.7-139-56.3c-39.3-14.8-80.4-24.4-122.1-28.8
			c-59.7-6.2-126.3,1.3-167.9,44.6c-46.3,48.1-42.8,135,7.3,179.2c25.5,22.5,58.8,33.5,87.9,51.1s56,46.7,53.5,80.6
			c-2.3,31.4-29,55.4-56.5,70.5c-21.3,11.7-47.6,24.4-50.2,48.6c-2.5,23.4,19.6,41.7,40.7,52.1c68.8,34,153.6,33.7,222.1-0.9
			c24.5-12.3,46.9-28.7,72.6-38.3c67.3-25.2,141.5,0.2,212.8,9.5c60.5,7.8,122,3.8,181-11.9c35.3-9.4,70.8-23.8,95.5-50.6
			c17.9-19.3,29-43.8,39.5-68c11.2-25.8,21.9-51.8,32.2-77.9c6.2-15.7,12.2-31.7,13.8-48.5c2.9-30.4-9.3-60.5-25.9-86.2
			C1159.8,50,1093.5,7.1,1021.7-3.8S874,6.6,818.3,53.1"/>
	</g>
</g>
<g id="A-2-2-1">
	<g id="_x31_26">
		<g>
			
				<image style="overflow:visible;opacity:0.8;enable-background:new    ;" width="769" height="800" xlink:href="9FC3B867EB907C38.png"  transform="matrix(0.9987 0 0 0.9987 440.982 -106.6881)">
			</image>
			<g>
				<g>
					<ellipse class="st0" cx="749" cy="606.4" rx="284.5" ry="26.5"/>
					<path class="st1" d="M942.1,417.4c0,0,39.9-70.7,100-91c25.2-8.5,47.2-24.6,62.3-46.6c7.1-10.4,13.3-21.5,18.4-33"/>
					<path class="st2" d="M1160.5,233.7c-6.8,6.6-38.7,13.5-38.7,13.5s7.8-31.6,14.7-38.3c6.8-6.6,17.8-6.5,24.4,0.4
						C1167.5,216.1,1167.4,227,1160.5,233.7L1160.5,233.7z"/>
					<path class="st2" d="M1142.5,291c-9.3,1.9-39.8-9.7-39.8-9.7s23.8-22.3,33.1-24.2c9.4-1.9,18.4,4.2,20.3,13.6
						C1157.9,280,1151.8,289.1,1142.5,291L1142.5,291L1142.5,291z"/>
					<path class="st2" d="M1076.8,353c-9-3.1-29.5-28.5-29.5-28.5s31.8-7.3,40.8-4.2c8.9,3.3,13.5,13.3,10.1,22.2
						C1095,351.2,1085.6,355.8,1076.8,353z"/>
					<path class="st2" d="M1016.6,388.7c-9.4-1.5-33.9-23.1-33.9-23.1s30.1-12.5,39.5-11c9.4,1.6,15.8,10.4,14.2,19.9
						C1034.9,383.9,1026,390.2,1016.6,388.7L1016.6,388.7L1016.6,388.7z"/>
					<path class="st2" d="M1076,256.6c0,9.5,17.2,37.2,17.2,37.2s17.3-27.7,17.3-37.2s-7.7-17.3-17.2-17.3S1076.1,247,1076,256.6
						L1076,256.6L1076,256.6z"/>
					<path class="st2" d="M1006.1,299.2c2.8,9.1,27.6,30.3,27.6,30.3s8.2-31.6,5.4-40.7s-12.5-14.2-21.7-11.3
						C1008.3,280.4,1003.2,290.1,1006.1,299.2L1006.1,299.2z"/>
					<path class="st2" d="M943.8,350c1.3,9.5,22.1,34.6,22.1,34.6s13.4-29.7,12.2-39.2c-1.3-9.5-10-16.1-19.4-14.8
						C949.2,331.9,942.6,340.5,943.8,350L943.8,350z"/>
					<path class="st3" d="M1160.5,233.7c-6.8,6.6-38.7,13.5-38.7,13.5s7.8-31.6,14.7-38.3c6.8-6.6,17.8-6.5,24.4,0.4
						C1167.5,216.1,1167.4,227,1160.5,233.7L1160.5,233.7z"/>
					<path class="st3" d="M1142.5,291c-9.3,1.9-39.8-9.7-39.8-9.7s23.8-22.3,33.1-24.2c9.4-1.9,18.4,4.2,20.3,13.6
						C1157.9,280,1151.8,289.1,1142.5,291L1142.5,291L1142.5,291z"/>
					<path class="st3" d="M1076.8,353c-9-3.1-29.5-28.5-29.5-28.5s31.8-7.3,40.8-4.2c8.9,3.3,13.5,13.3,10.1,22.2
						C1095,351.2,1085.6,355.8,1076.8,353z"/>
					<path class="st3" d="M1016.6,388.7c-9.4-1.5-33.9-23.1-33.9-23.1s30.1-12.5,39.5-11c9.4,1.6,15.8,10.4,14.2,19.9
						C1034.9,383.9,1026,390.2,1016.6,388.7L1016.6,388.7L1016.6,388.7z"/>
					<path class="st3" d="M1076,256.6c0,9.5,17.2,37.2,17.2,37.2s17.3-27.7,17.3-37.2s-7.7-17.3-17.2-17.3S1076.1,247,1076,256.6
						L1076,256.6L1076,256.6z"/>
					<path class="st3" d="M1006.1,299.2c2.8,9.1,27.6,30.3,27.6,30.3s8.2-31.6,5.4-40.7s-12.5-14.2-21.7-11.3
						C1008.3,280.4,1003.2,290.1,1006.1,299.2L1006.1,299.2z"/>
					<path class="st3" d="M943.8,350c1.3,9.5,22.1,34.6,22.1,34.6s13.4-29.7,12.2-39.2c-1.3-9.5-10-16.1-19.4-14.8
						C949.2,331.9,942.6,340.5,943.8,350L943.8,350z"/>
					<path class="st1" d="M944.4,416c0,0,7.8-80.8,54.5-123.7c19.6-18,33.2-41.6,38-67.8c2.3-12.4,3.4-25,3.4-37.7"/>
					<path class="st2" d="M1069.6,159.6c-3.6,8.9-29.9,28-29.9,28s-5.7-32.1-2.1-41c4-8.7,14.2-12.5,22.9-8.5
						C1068.6,141.7,1072.6,151,1069.6,159.6L1069.6,159.6z"/>
					<path class="st2" d="M1076.3,219.2c-7.8,5.5-40.4,7.3-40.4,7.3s12.7-30,20.5-35.5c7.9-5.4,18.6-3.4,24,4.4
						C1085.8,203.2,1084,213.7,1076.3,219.2z"/>
					<path class="st2" d="M1041.4,302.5c-9.5,0.8-38.5-14.1-38.5-14.1s26.1-19.5,35.6-20.3s17.9,6.3,18.7,15.8
						C1058,293.4,1050.9,301.7,1041.4,302.5z"/>
					<path class="st2" d="M1000.8,359.6c-9.2,2.4-40.3-7.4-40.3-7.4s22.4-23.7,31.7-26.1c9.2-2.4,18.7,3.2,21.1,12.4
						S1010,357.2,1000.8,359.6L1000.8,359.6z"/>
					<path class="st2" d="M1001.7,214.7c3.9,8.7,30.8,27,30.8,27s4.6-32.3,0.7-41c-3.9-8.7-14.1-12.7-22.8-8.8
						C1001.7,195.7,997.8,205.9,1001.7,214.7L1001.7,214.7L1001.7,214.7z"/>
					<path class="st2" d="M955,282c6.3,7.2,37.5,16.5,37.5,16.5s-5.3-32.2-11.6-39.4c-6.3-7.2-17.2-7.9-24.4-1.6
						C949.4,263.9,948.7,274.8,955,282L955,282z"/>
					<path class="st2" d="M918.7,353.7c5,8.1,34.2,22.7,34.2,22.7s0.2-32.6-4.8-40.7s-15.6-10.7-23.8-5.7
						C916.2,334.9,913.7,345.6,918.7,353.7L918.7,353.7L918.7,353.7z"/>
					
						<linearGradient id="SVGID_1_" gradientUnits="userSpaceOnUse" x1="745.5" y1="421.67" x2="745.5" y2="-283.83" gradientTransform="matrix(1 0 0 1 0 188.61)">
						<stop  offset="0" style="stop-color:#808080;stop-opacity:0.25"/>
						<stop  offset="0.54" style="stop-color:#808080;stop-opacity:0.12"/>
						<stop  offset="1" style="stop-color:#808080;stop-opacity:0.1"/>
					</linearGradient>
					<polygon class="st4" points="491.8,-95.2 491.8,-67.8 491.8,610.3 999.2,610.3 999.2,-67.8 999.2,-95.2 					"/>
					<rect x="496.3" y="-89" class="st5" width="498.5" height="26.9"/>
					<g class="st6">
						<rect x="496.3" y="-89" class="st2" width="498.5" height="26.9"/>
					</g>
					<rect x="496.3" y="-62.1" class="st5" width="498.5" height="666.2"/>
					<circle class="st5" cx="509.4" cy="-75.6" r="4.6"/>
					<circle class="st5" cx="521.8" cy="-75.6" r="4.6"/>
					<circle class="st5" cx="534.1" cy="-75.6" r="4.6"/>
					<g class="st6">
						<rect x="585.3" y="-21.1" class="st2" width="320.5" height="12.6"/>
					</g>
					<rect x="863.2" y="-21.1" class="st2" width="42.6" height="12.6"/>
					<g class="st6">
						<rect x="543.8" y="235.4" class="st7" width="403.4" height="144.5"/>
						<path class="st2" d="M947.3,235.4h-12v1h12V235.4z M923.3,235.4h-12v1h12V235.4z M899.3,235.4h-12v1h12V235.4z M875.3,235.4
							h-12v1h12V235.4z M851.3,235.4h-12v1h12V235.4z M827.3,235.4h-12v1h12V235.4z M803.3,235.4h-12v1h12V235.4z M779.3,235.4h-12
							v1h12V235.4z M755.3,235.4h-12v1h12V235.4z M731.3,235.4h-12v1h12V235.4z M707.3,235.4h-12v1h12V235.4z M683.3,235.4h-12v1h12
							V235.4z M659.3,235.4h-12v1h12V235.4z M635.3,235.4h-12v1h12V235.4z M611.3,235.4h-12v1h12V235.4z M587.3,235.4h-12v1h12
							V235.4z M563.3,235.4h-12v1h12V235.4z M544.8,240h-1v12h1V240z M544.8,264h-1v12h1V264z M544.8,288h-1v12h1V288z M544.8,312
							h-1v12h1V312z M544.8,336h-1v12h1V336z M544.8,360h-1v12h1V360z M559.9,378.9h-12v1h12V378.9z M583.9,378.9h-12v1h12V378.9z
							 M607.9,378.9h-12v1h12V378.9z M631.9,378.9h-12v1h12V378.9z M655.9,378.9h-12v1h12V378.9z M679.9,378.9h-12v1h12V378.9z
							 M703.9,378.9h-12v1h12V378.9z M727.9,378.9h-12v1h12V378.9z M751.9,378.9h-12v1h12V378.9z M775.9,378.9h-12v1h12V378.9z
							 M799.9,378.9h-12v1h12V378.9z M823.9,378.9h-12v1h12V378.9z M847.9,378.9h-12v1h12V378.9z M871.9,378.9h-12v1h12V378.9z
							 M895.9,378.9h-12v1h12V378.9z M919.9,378.9h-12v1h12V378.9z M943.9,378.9h-12v1h12V378.9z M947.2,359.3h-1v12h1V359.3z
							 M947.2,335.3h-1v12h1V335.3z M947.2,311.3h-1v12h1V311.3z M947.2,287.3h-1v12h1V287.3z M947.2,263.3h-1v12h1V263.3z
							 M947.2,239.3h-1v12h1V239.3z"/>
					</g>
					<g class="st8">
						<polygon class="st9" points="758.3,163.2 496.3,215.4 496.3,68.1 730.1,21.4 						"/>
					</g>
					<g class="st6">
						<rect x="543.8" y="48" class="st7" width="403.4" height="144.5"/>
						<path class="st2" d="M947.3,48h-12v1h12V48z M923.3,48h-12v1h12V48z M899.3,48h-12v1h12V48z M875.3,48h-12v1h12V48z M851.3,48
							h-12v1h12V48z M827.3,48h-12v1h12V48z M803.3,48h-12v1h12V48z M779.3,48h-12v1h12V48z M755.3,48h-12v1h12V48z M731.3,48h-12v1
							h12V48z M707.3,48h-12v1h12V48z M683.3,48h-12v1h12V48z M659.3,48h-12v1h12V48z M635.3,48h-12v1h12V48z M611.3,48h-12v1h12V48
							z M587.3,48h-12v1h12V48z M563.3,48h-12v1h12V48z M544.8,52.6h-1v12h1V52.6z M544.8,76.6h-1v12h1V76.6z M544.8,100.6h-1v12h1
							V100.6z M544.8,124.6h-1v12h1V124.6z M544.8,148.6h-1v12h1V148.6z M544.8,172.6h-1v12h1V172.6z M559.9,191.5h-12v1h12V191.5z
							 M583.9,191.5h-12v1h12V191.5z M607.9,191.5h-12v1h12V191.5z M631.9,191.5h-12v1h12V191.5z M655.9,191.5h-12v1h12V191.5z
							 M679.9,191.5h-12v1h12V191.5z M703.9,191.5h-12v1h12V191.5z M727.9,191.5h-12v1h12V191.5z M751.9,191.5h-12v1h12V191.5z
							 M775.9,191.5h-12v1h12V191.5z M799.9,191.5h-12v1h12V191.5z M823.9,191.5h-12v1h12V191.5z M847.9,191.5h-12v1h12V191.5z
							 M871.9,191.5h-12v1h12V191.5z M895.9,191.5h-12v1h12V191.5z M919.9,191.5h-12v1h12V191.5z M943.9,191.5h-12v1h12V191.5z
							 M947.2,171.9h-1v12h1V171.9z M947.2,147.9h-1v12h1V147.9z M947.2,123.9h-1v12h1V123.9z M947.2,99.9h-1v12h1V99.9z
							 M947.2,75.9h-1v12h1V75.9z M947.2,51.9h-1v12h1V51.9z"/>
					</g>
					<g class="st6">
						<rect x="543.8" y="420.4" class="st7" width="403.4" height="144.5"/>
						<path class="st2" d="M947.3,420.4h-12v1h12V420.4z M923.3,420.4h-12v1h12V420.4z M899.3,420.4h-12v1h12V420.4z M875.3,420.4
							h-12v1h12V420.4z M851.3,420.4h-12v1h12V420.4z M827.3,420.4h-12v1h12V420.4z M803.3,420.4h-12v1h12V420.4z M779.3,420.4h-12
							v1h12V420.4z M755.3,420.4h-12v1h12V420.4z M731.3,420.4h-12v1h12V420.4z M707.3,420.4h-12v1h12V420.4z M683.3,420.4h-12v1h12
							V420.4z M659.3,420.4h-12v1h12V420.4z M635.3,420.4h-12v1h12V420.4z M611.3,420.4h-12v1h12V420.4z M587.3,420.4h-12v1h12
							V420.4z M563.3,420.4h-12v1h12V420.4z M544.8,425h-1v12h1V425z M544.8,449h-1v12h1V449z M544.8,473h-1v12h1V473z M544.8,497
							h-1v12h1V497z M544.8,521h-1v12h1V521z M544.8,545h-1v12h1V545z M559.9,563.9h-12v1h12V563.9z M583.9,563.9h-12v1h12V563.9z
							 M607.9,563.9h-12v1h12V563.9z M631.9,563.9h-12v1h12V563.9z M655.9,563.9h-12v1h12V563.9z M679.9,563.9h-12v1h12V563.9z
							 M703.9,563.9h-12v1h12V563.9z M727.9,563.9h-12v1h12V563.9z M751.9,563.9h-12v1h12V563.9z M775.9,563.9h-12v1h12V563.9z
							 M799.9,563.9h-12v1h12V563.9z M823.9,563.9h-12v1h12V563.9z M847.9,563.9h-12v1h12V563.9z M871.9,563.9h-12v1h12V563.9z
							 M895.9,563.9h-12v1h12V563.9z M919.9,563.9h-12v1h12V563.9z M943.9,563.9h-12v1h12V563.9z M947.2,544.3h-1v12h1V544.3z
							 M947.2,520.3h-1v12h1V520.3z M947.2,496.3h-1v12h1V496.3z M947.2,472.3h-1v12h1V472.3z M947.2,448.3h-1v12h1V448.3z
							 M947.2,424.3h-1v12h1V424.3z"/>
					</g>
					<path class="st5" d="M734.6,309.6l-1.3-1.3c-0.6-0.5-0.6-1.4,0-2l0,0l11.2-11.2c0.5-0.6,1.4-0.6,2,0l0,0l11.2,11.2
						c0.6,0.5,0.6,1.4,0,2l0,0l-1.3,1.3c-0.5,0.6-1.4,0.6-2,0l0,0l-6.6-7v16.6c0,0.8-0.6,1.4-1.4,1.4l0,0h-1.8
						c-0.8,0-1.4-0.6-1.4-1.4l0,0v-16.6l-6.6,7C736,310.2,735.2,310.1,734.6,309.6L734.6,309.6z"/>
					<path class="st5" d="M745.5,284.9c12.6,0,22.8,10.2,22.8,22.8c0,12.6-10.2,22.8-22.8,22.8s-22.8-10.2-22.8-22.8l0,0
						C722.8,295.1,733,284.9,745.5,284.9 M745.5,281.9c-14.2,0-25.8,11.5-25.8,25.8c0,14.2,11.5,25.8,25.8,25.8
						c14.2,0,25.8-11.5,25.8-25.8l0,0C771.3,293.4,759.8,281.9,745.5,281.9L745.5,281.9z"/>
					<path class="st5" d="M734.6,494.6l-1.3-1.3c-0.6-0.5-0.6-1.4,0-2l0,0l11.2-11.2c0.5-0.6,1.4-0.6,2,0l0,0l11.2,11.2
						c0.6,0.5,0.6,1.4,0,2l0,0l-1.3,1.3c-0.5,0.6-1.4,0.6-2,0l0,0l-6.7-7v16.6c0,0.8-0.6,1.4-1.4,1.4l0,0h-1.8
						c-0.8,0-1.4-0.6-1.4-1.4l0,0v-16.6l-6.6,7C736.1,495.1,735.2,495.1,734.6,494.6L734.6,494.6z"/>
					<path class="st5" d="M745.5,469.9c12.6,0,22.8,10.2,22.8,22.8s-10.2,22.8-22.8,22.8s-22.8-10.2-22.8-22.8l0,0
						C722.8,480.1,733,469.9,745.5,469.9 M745.5,466.9c-14.2,0-25.8,11.5-25.8,25.8c0,14.2,11.5,25.8,25.8,25.8
						c14.2,0,25.8-11.5,25.8-25.8l0,0C771.3,478.4,759.8,466.9,745.5,466.9z"/>
					<path class="st2" d="M1141.6,539.3c0,0,7.1,9.3-3.3,23.4c-10.4,14.1-19,26-15.5,34.8c0,0,15.7-26.2,28.5-26.5
						C1164.1,570.7,1155.7,555,1141.6,539.3z"/>
					<path class="st10" d="M1141.6,539.3c0.6,0.9,1.1,1.9,1.5,2.9c12.5,14.7,19.2,28.4,7.1,28.7c-11.2,0.3-24.6,20.3-27.8,25.4
						c0.1,0.4,0.2,0.8,0.4,1.2c0,0,15.7-26.2,28.5-26.5C1164.1,570.7,1155.7,555,1141.6,539.3z"/>
					<path class="st11" d="M1154.8,551.2c0,3.3-0.4,5.9-0.8,5.9s-0.8-2.7-0.8-5.9s0.5-1.7,0.9-1.7
						C1154.5,549.5,1154.8,547.9,1154.8,551.2z"/>
					<path class="st11" d="M1159.4,555.1c-2.9,1.6-5.4,2.5-5.6,2.1s2-2,4.8-3.6c2.8-1.6,1.8-0.4,2,0
						C1160.8,554,1162.3,553.6,1159.4,555.1z"/>
					<path class="st2" d="M1103.9,539.3c0,0-7.1,9.3,3.3,23.4c10.4,14.1,19,26,15.5,34.8c0,0-15.7-26.2-28.5-26.5
						C1081.4,570.7,1089.8,555,1103.9,539.3z"/>
					<path class="st10" d="M1103.9,539.3c-0.6,0.9-1.1,1.9-1.5,2.9c-12.5,14.7-19.2,28.4-7.1,28.7c11.2,0.3,24.6,20.3,27.8,25.4
						c-0.1,0.4-0.2,0.8-0.4,1.2c0,0-15.7-26.2-28.5-26.5C1081.4,570.7,1089.8,555,1103.9,539.3z"/>
					<path class="st11" d="M1090.6,551.2c0,3.3,0.4,5.9,0.8,5.9c0.4,0,0.8-2.7,0.8-5.9s-0.5-1.7-0.9-1.7S1090.6,547.9,1090.6,551.2z
						"/>
					<path class="st11" d="M1086.1,555.1c2.9,1.6,5.4,2.5,5.6,2.1s-1.9-2-4.8-3.6c-2.9-1.6-1.8-0.4-2,0
						C1084.7,554,1083.2,553.6,1086.1,555.1z"/>
					<ellipse class="st0" cx="1122.7" cy="657.4" rx="74.6" ry="11.5"/>
					<path class="st12" d="M1161.1,584.9l-0.4,2.9l-0.5,4.1l-0.2,1.7l-0.5,4.1l-0.2,1.7l-0.5,4.1l-5.7,46.8
						c-0.5,4.2-7.3,7.4-15.6,7.4h-29.7c-8.2,0-15.1-3.2-15.6-7.4l-5.7-46.8l-0.5-4.1l-0.2-1.7l-0.5-4.1l-0.2-1.7l-0.5-4.1l-0.4-2.9
						c-0.3-2.4,3.4-4.4,8.1-4.4h60.7C1157.7,580.6,1161.4,582.6,1161.1,584.9z"/>
					<polygon class="st13" points="1160.8,587.8 1160.3,591.9 1085.2,591.9 1084.7,587.8 					"/>
					<polygon class="st13" points="1160.1,593.6 1159.6,597.8 1085.9,597.8 1085.4,593.6 					"/>
					<polygon class="st13" points="1159.3,599.5 1158.8,603.6 1086.6,603.6 1086.1,599.5 					"/>
				</g>
			</g>
		</g>
	</g>
</g>
<g id="A-3-2">
	<g id="商务办公1">
		<g>
			
				<image style="overflow:visible;opacity:0.8;enable-background:new    ;" width="567" height="713" xlink:href="9FC3B867EB907C39.png"  transform="matrix(0.9985 0 0 0.9985 186.9294 -0.6479)">
			</image>
			<g>
				<g>
					<ellipse class="st0" cx="345.7" cy="661.8" rx="135.7" ry="26.5"/>
					
						<linearGradient id="SVGID_2_" gradientUnits="userSpaceOnUse" x1="2061.0842" y1="535.4322" x2="2061.0842" y2="25.2" gradientTransform="matrix(-1 0 0 1 2412.8401 130.3799)">
						<stop  offset="0" style="stop-color:#808080;stop-opacity:0.25"/>
						<stop  offset="0.54" style="stop-color:#808080;stop-opacity:0.12"/>
						<stop  offset="1" style="stop-color:#808080;stop-opacity:0.1"/>
					</linearGradient>
					<path class="st14" d="M224.5,353.2c0,0,4.3,10.8,2.7,13.5c0,0,0.8,8,11.1,13.5s22,18.6,22,18.6c2,3.3,5.4,5.6,9.2,6.4
						c0.1,1.3,0.2,2,0.2,2l0.5,0.2c-0.1,0.4-0.2,0.9-0.4,1.4c-0.3,1.1-0.6,2.2-0.8,3.5c-1.7,7.8-2.7,17.4,0.7,22.9
						c0.5,0.7,0.9,1.5,1.3,2.3c4.7,9.9,1.5,22.3,1.5,22.3s4.1,28.1,5.9,32.7c1.3,3.2,0.1,7.7-0.7,10.1c-0.4,1.1-0.6,2.3-0.6,3.5v10
						c0,0-2,8.4-1,10.6s-1.8,8.6-1.8,8.6s-6.6,27.6-3.8,32.2s2.6,14.7,2.6,14.7s5.4,39.5,7.4,41c1.7,1.5,3.1,3.2,4.3,5.1
						c0,0-3.6,9-1.4,12.6c0.1,0.1,0.1,0.2,0.2,0.3c-0.4,1-1.3,3.5-1.8,5.4c-0.2,0.6-0.3,1.4-0.5,2.3c-0.3,1.7-0.4,3.4-0.4,5.1
						l-0.2,0.1l0.2,0.2c0,0.8,0.1,1.5,0.3,2.2c0.8,2.3,6.5,2.3,6.5,2.3s10.3,2.9,14.9,5.2s7.7,1.1,7.7,1.1c10.5,2.4,24-1.8,28.1-2.6
						s5.7-6.1,0.6-7.1c-0.6-0.1-1.3-0.3-1.9-0.6c-2.5-1.1-4.7-2.8-6.3-5.1c-3.4-3.3-7-6.3-10.7-9.2c-2.6-1.9-4.8-4.2-6.7-6.8
						c-1-1-2.4-1.7-3.8-1.9c1-1.7,0.6-3.8-0.9-5.1c0.9-1.8,0.4-3.9-1.2-5.1l-1.9-1.5l0.4-0.5c1.2-1.4,1.3-3.3,0.4-4.8
						c-0.8-1.4-1.6-3.8-1.8-8.1c-0.5-9.9-3.1-13.7-3.1-13.7l1.5-45.1c-0.1-2.4-0.1-4.9,0-7.3c0.2-2.8,5-1,5.7-1.7
						c0.7-0.7,0.9-4.4,2.9-5.4c0.7-0.4,1.4-1.6,1.9-3.1c0.9-2.8,1.1-5.9,0.5-8.8c-0.3-1.4,0.1-2.9,0.9-4c2.3-3,1.5-13.4,1.5-13.4
						l3.5-21.7c5.6,18.4,12.7,40.6,15.1,42.2c4.1,2.8,3.6,6.6,3.6,6.6c-3.3,4.1-2,21.5-2,21.5s0,48.4,2.4,51.7s7,13.4,7,13.4
						s-13.6,12-3,18.1l0.4,5.1c-0.1,0.1-0.1,0.1-0.2,0.2c-1,1.2-1.7,2.7-2,4.2l-0.1,0.1l0,0c-0.2,1.6,0.5,3.2,3.5,3.9
						c7.1,1.6,32.1,1.5,32.1,1.5l14,2.2c0,0,24,2.3,26.7-5.1c2.7-7.4-2.1-7-2.1-7h-0.2l-10-0.8c0,0-12.7-4.9-17.3-8.2
						c-3.7-2.8-7.1-5.9-10.4-9.2c-0.9-0.1-1.8,0-2.6,0.5l-0.4-0.4l-0.7-0.7l2.6-4c2.6-4.6-7.7-13.2-7.7-13.2s2.8-10.6,1.7-11.1
						s-1.7-10.2-1.7-10.2s2.5-35,1.5-38.2c-0.5-1.5,0.3-3.1,1.2-4.4c1.4-2,2.1-4.4,2-6.8c-0.1-2,0.2-4.3,1.7-5.8
						c3.1-3.3,0-17.5,0-17.5l-2.5-18.8v-29.8c0-5.7-1.1-11.4-3.1-16.8c-1.3-3.7-2.2-7.6-2.6-11.5l0.9,0.2c-0.3-0.2-0.6-0.4-0.9-0.7
						c0-0.5-0.1-1-0.1-1.5c-0.8-9.4-5.8-18.5-9.3-23.9c-0.8-3.1,0.1-16.2,0.1-16.2c4-6.8,0.2-16.7,0.2-16.7s-4-46.7-6.5-53.2
						s-3.6-46.5,2.3-46.2s44.2-19,44.2-19s-1-1.5,11.7-6.6s31-21.1,31-21.1l25.4-30.4c-0.1,0-0.2,0-0.3,0l0.5-0.2
						c5.9-1.7,10.7-5.9,13.3-11.5c4.4-9.7-4.4-22.7-10.2-28.6l-5.5-3c-1.5,1.2-0.9,6.5-3.3,12.2c-2,5.1-3.7,10.3-5,15.6l-0.3,1
						l-0.2-0.4l-13.4,10.6L429,204.8c0,0-27.9,13.5-31.4,16.9s-4.6,2.5-7.6,3.2s-3.5,2.9-4.4,2.7s-2.7,2.7-4,2.3s-4.2,1.1-6.1,1.5
						s-15.5,6.1-15.5,6.1c-8.4-4.2-31.2-2.5-31.2-2.5s-7.5-4.4-9.6,0c-1.2,2.5-3.7,4.2-6.5,4.2l-9.1-3.9c0-0.2,0-0.5,0.1-0.7v-0.1
						c0.1-0.6,0.2-1.1,0.2-1.6c15.5-6.1,23-23.6,16.9-39.1c-1.5-3.7-3.7-7.1-6.5-10l-0.8-0.8c0.9-0.4,1.8-1,2.6-1.6
						c0.3-0.2,0.5-0.4,0.6-0.7c0.1-0.2,0-0.4-0.1-0.6c-0.2-0.5-0.5-0.9-1-1.1c-2.8-1.5-5.8-1-8.2-3.4c-0.6-0.5-1-1.2-1.2-1.9
						c-0.3-0.8-0.3-1.6,0-2.4c0.7-1.8,2.8-3,2.7-4.9h-0.1c0-0.1,0-0.2,0-0.3c-2.3,0.9-4.7,1.3-7.1,1.2l0.4-2h0.2l0.2-1.1h-0.2
						l0.1-0.3l-6.7,1.8c-0.5,0.2-1,0.2-1.5-0.1c-0.3-0.3-0.4-0.7-0.5-1c-0.6-1.4-2.4-1.9-3.9-1.5c-1.4,0.5-2.8,1.3-4,2.2
						c-4.4,2.6-9.7,3-14.7,3.6s-10.4,1.7-14,5.4c-4.7,4.9-4.7,12.5-7.6,18.6c-0.6,1-1,2-1.4,3.1c-0.3,1.6-0.3,3.3,0.1,4.9
						c0.7,4.7,1.5,9.5,4,13.5l-0.3-0.3c0.3,0.5,0.6,1,1,1.6c1.8,2.5,4.3,4.6,6.2,7c-0.1-0.2-0.3-0.4-0.4-0.7
						c1.1,1.2,1.9,2.6,2.5,4.1c0.7,1.9,0.8,4,1.6,5.8l0,0c0.3,0.7,0.6,1.3,1.1,1.9c1.3,1.3,3.1,1.9,4.8,1.7c-0.8,2.2-1.8,4.2-3,6.2
						l-0.1,0.3c-0.5,0-1,0-1.5,0.2c-2.2,0.4-9.8,6.9-9.8,6.9l-13.6,12c-20.5,16-15.9,40.9-15.9,40.9v12.6c0,0-4,13.5,0,27
						L224.5,353.2z M254.4,353.4c0,0,7.1-5.7,4.6-9.1c-0.8-1.1-1.1-3.4-1.2-6l9.2,20.5c0,0,5.6,8.9,2.7,12.9v0.1l-11-12.8
						C258.7,359,258.2,353.4,254.4,353.4z"/>
					<path class="st15" d="M453,191.1l6,11.7c1.9-0.2,3.8-0.6,5.6-1.2c5.8-1.7,10.6-5.9,13.2-11.4c5.4-11.9-9.2-29-13.4-31.2
						s-2.3,4.5-5.4,12c-2,5.1-3.6,10.2-4.9,15.5C453.5,189.2,453,191.1,453,191.1z"/>
					<path class="st15" d="M261.5,251.9l9.6,14.4c0,0,45.5,21.7,36.8-3.8c-3.8-11.2-4.3-19.5-3.6-25.1c0-0.1,0-0.1,0-0.2
						c0.9-7.1,3.6-10.2,3.6-10.2s-44.4-22.7-37.8-7.2c1.4,3.2,1.9,6.7,1.6,10.2c-0.6,5-2.2,9.8-4.8,14.2
						C265.5,247,263.6,249.6,261.5,251.9z"/>
					<path class="st16" d="M275.3,536c0,0-6.6,27.4-3.8,32s2.5,14.6,2.5,14.6s5.3,39.3,7.3,40.8c1.6,1.5,3.1,3.1,4.3,5
						c0,0-3.6,8.9-1.4,12.6c0.3,0.6,0.8,1,1.4,1.3c3.4,1.4,15.8-4.9,22.9-8.8c0.9-0.5,1.6-1.3,1.9-2.2c0.5-1.5,0.1-3.3-1.1-4.3
						c0.9-1.8,0.4-3.9-1.2-5.1l-1.9-1.5l0.4-0.5c1.1-1.4,1.3-3.3,0.4-4.8c-0.8-1.4-1.6-3.8-1.8-8c-0.5-9.8-3-13.6-3-13.6l1.5-44.8
						c-0.1-2.4-0.1-4.9,0-7.3c0.2-2.8,4.9-0.9,5.7-1.7c0.8-0.8,0.9-4.3,2.9-5.3c0.7-0.4,1.3-1.6,1.8-3.1c0.9-2.8,1.1-5.8,0.5-8.7
						c-0.3-1.4,0.1-2.9,0.9-4c2.3-3,1.5-13.3,1.5-13.3l3.5-21.6c5.5,18.3,12.6,40.4,14.9,42c4,2.8,3.5,6.5,3.5,6.5
						c-3.3,4-2,21.4-2,21.4s0,48.1,2.4,51.3s7,13.3,7,13.3s-13.5,12-2.9,18.1l0.1,0.1c10.8,6,33.2-10.8,33.2-10.8l-2.4-2.3l-0.7-0.7
						l2.6-4c2.6-4.5-7.6-13.1-7.6-13.1s2.7-10.6,1.7-11.1s-1.7-10.1-1.7-10.1s2.5-34.7,1.5-38c-0.5-1.5,0.3-3,1.2-4.3
						c1.4-2,2.1-4.3,1.9-6.8c-0.1-2,0.2-4.2,1.7-5.8c3-3.3,0-17.4,0-17.4l-2.5-18.6v-29.6c0-5.7-1-11.3-3-16.7
						c-1.6-4.3-2.5-8.8-2.8-13.4c-0.8-9.5-6-18.8-9.4-24.1c-1.8-2.8-3.2-4.5-3.2-4.5l-80.5-3.2c0,0-1.3,3.6-2.6,8.6
						c-0.3,1.1-0.6,2.2-0.8,3.4c-1.7,7.7-2.7,17.3,0.7,22.7c0.5,0.7,0.9,1.5,1.2,2.3c4.6,9.8,1.5,22.1,1.5,22.1s4,27.9,5.8,32.5
						c1.2,3.2,0.1,7.7-0.7,10c-0.4,1.1-0.6,2.3-0.6,3.5v9.9c0,0-2,8.3-1,10.6S275.3,536,275.3,536z"/>
					<path class="st10" d="M271.6,437.3c0.5,0.7,0.9,1.5,1.2,2.2l4.5-0.3c-0.4-2.3,2.6-24.2,2.6-24.2l-9.1-0.5
						C269.2,422.3,268.2,431.9,271.6,437.3z"/>
					<path class="st16" d="M270.8,436.6c0.5,0.7,0.9,1.5,1.2,2.3l4.5-0.3c-0.4-2.3,2.6-24.2,2.6-24.2l-9.1-0.5
						C268.4,421.6,267.4,431.2,270.8,436.6z"/>
					<path class="st17" d="M270.8,436.6c0.5,0.7,0.9,1.5,1.2,2.3l4.5-0.3c-0.4-2.3,2.6-24.2,2.6-24.2l-9.1-0.5
						C268.4,421.6,267.4,431.2,270.8,436.6z"/>
					<path class="st10" d="M284.2,641c0.3,0.6,0.8,1,1.4,1.3c3.4,1.4,15.8-4.9,22.9-8.8c0.9-0.5,1.6-1.3,1.9-2.2
						c-4-0.7-6.7,3.8-6.7,3.8c-2.8-1.7-6.5-0.9-8.3,1.9c0,0,0,0,0,0.1c-3.5,5.1-10.9,3-10.9,3S284.4,640.3,284.2,641z"/>
					<path class="st18" d="M282.1,656.4c0.8,2.3,6.4,2.3,6.4,2.3s10.1,2.9,14.7,5.2c4.6,2.3,7.6,1.1,7.6,1.1
						c10.4,2.4,23.7-1.8,27.8-2.6c4.1-0.8,5.6-6,0.6-7c-0.6-0.1-1.3-0.3-1.9-0.6c-2.5-1.1-4.6-2.8-6.2-5c-3.4-3.3-6.9-6.3-10.6-9.2
						c-2.5-1.9-4.8-4.2-6.6-6.7c-5.9-5.2-10.1,2-10.1,2c-2.8-1.7-6.5-0.9-8.3,1.9c0,0,0,0,0,0.1c-3.5,5.1-10.9,2.9-10.9,2.9
						s-1.3,3.4-1.9,5.9c-0.2,0.6-0.3,1.4-0.5,2.3C281.7,651.4,281.5,654.7,282.1,656.4z"/>
					<circle class="st19" cx="299.4" cy="639.8" r="0.7"/>
					<circle class="st19" cx="305.3" cy="645.3" r="0.7"/>
					<circle class="st19" cx="311.3" cy="650.3" r="0.7"/>
					<circle class="st19" cx="308.2" cy="648.1" r="0.7"/>
					<circle class="st19" cx="302.2" cy="642.4" r="0.7"/>
					<path class="st20" d="M282.1,656.4c0.8,2.3,6.4,2.3,6.4,2.3s10.1,2.9,14.7,5.2c4.6,2.3,7.6,1.1,7.6,1.1
						c10.4,2.4,23.7-1.8,27.8-2.6c4.1-0.8,5.6-6,0.6-7c-0.6-0.1-1.3-0.3-1.9-0.6c-4.4,1.5-9,2.4-13.6,2.6c-10.3,0.4-18.4,0-18.4,0
						l-10.4-3.3c-2-1.2-4.1-2-6.4-2.3c-2.2-0.2-4.9-1.8-6.4-2.8C281.7,651.4,281.5,654.7,282.1,656.4z"/>
					<path class="st21" d="M307.9,662.9c0.6,0,1.2-0.1,1.7-0.2l-0.1-0.7c-2.1,0.3-4.3,0-6.2-0.9c-0.9-0.4-1.9-0.8-2.8-1.2
						c-1.1-0.5-2.2-1-3.3-1.4l-1-0.4c-0.6-0.2-1.1-0.4-1.7-0.6c-0.3-0.1-0.6-0.3-0.9-0.4c-0.7-0.4-1.5-0.7-2.3-0.9
						c-0.4-0.1-0.8-0.1-1.3-0.2c-0.4,0-0.8-0.1-1.1-0.1c-0.8-0.2-1.5-0.5-2.2-0.8c-0.7-0.4-1.5-0.7-2.3-0.9l-0.6-0.1
						c-0.6,0-1.2-0.2-1.6-0.6l-0.6,0.5c0.6,0.5,1.3,0.8,2.1,0.8l0.5,0.1c0.8,0.2,1.5,0.5,2.2,0.8c0.7,0.4,1.5,0.7,2.3,0.9
						c0.4,0.1,0.8,0.1,1.2,0.2c0.4,0,0.8,0.1,1.2,0.2c0.8,0.2,1.5,0.5,2.2,0.8c0.3,0.2,0.6,0.3,0.9,0.4c0.6,0.2,1.2,0.5,1.7,0.6
						l1,0.3c1.1,0.4,2.2,0.9,3.2,1.4s1.8,0.9,2.8,1.2C304.6,662.5,306.2,662.9,307.9,662.9z"/>
					<path class="st10" d="M305.5,537.8c0,0-5.2-7.5-14.2-7.5s-12.8-1-12.8-1s5.7,3.4,9.7,3.8S305.5,537.8,305.5,537.8z"/>
					<path class="st10" d="M302.5,539.6c0,0-4.7-3.3-7.4-3.4c-2.7-0.1-5-0.4-5-0.4c1.3,0.9,2.7,1.6,4.1,2
						C296.4,538.5,302.5,539.6,302.5,539.6z"/>
					<path class="st10" d="M301.5,541.9c0,0-7.1,0.6-7.2,2.5"/>
					<path class="st10" d="M367.7,435.7c-0.4,0.1-6.7-6.6-7.2-9.2c-0.4-1.7-1.3-3.1-2.8-4.1c0,0-4.1,1.6-0.4,6.7
						S367.7,435.7,367.7,435.7z"/>
					<path class="st10" d="M270.2,219.8c1.4,3.4,2.7,3.7,2.4,7c1.7,1.8,3.6,3.3,5.8,4.5c4.5,2.7,9.4,7.9,15,7.9
						c3.8,0,7.5-0.7,11-2.1c0.9-7.1,3.6-10.2,3.6-10.2S263.6,204.3,270.2,219.8z"/>
					<path class="st15" d="M263.4,207.8c0,16.6,13.4,30,30,30s30-13.4,30-30s-13.4-30-30-30S263.4,191.2,263.4,207.8L263.4,207.8z"
						/>
					<path class="st10" d="M261.5,251.9l9.6,14.4c0,0,45.5,21.7,36.8-3.8c-3.8-11.2-4.3-19.5-3.6-25.1h-0.1
						c-0.5,1.9-0.8,3.8-0.9,5.8c-0.1,3.9-0.2,8.9-10,10.5c-16.2,2.7-24.9-7.4-26.4-9.4C265.4,247,263.6,249.6,261.5,251.9z"/>
					<path class="st10" d="M453,191.1l6,11.7c1.9-0.2,3.8-0.6,5.6-1.2l0.5-0.6c-2.5,0.9-10.8-14.7-10.8-14.7l-0.3,0.2
						C453.5,189.2,453,191.1,453,191.1z"/>
					<path class="st10" d="M270.9,410.4c19.4,8.4,86.7,1.2,86.7,1.2c-0.2-0.7-0.3-1.5-0.3-2.2c-1.8-2.8-3.2-4.5-3.2-4.5l-80.6-3.1
						C273.5,401.8,272.2,405.4,270.9,410.4z"/>
					<path class="st22" d="M304.3,238.1l9,3.8c2.8,0,5.3-1.6,6.4-4.2c2.1-4.3,9.4,0,9.4,0s22.5-1.7,30.8,2.5c0,0,13.4-5.7,15.3-6
						s4.7-1.9,6-1.5s3-2.5,4-2.3s1.3-1.9,4.4-2.6s4.1,0.2,7.5-3.2s31-16.8,31-16.8l12.4-10.2l13.2-10.6c0,0,8.3,15.7,10.8,14.7
						l-25.1,30.2c0,0-18.1,15.9-30.6,21s-11.5,6.6-11.5,6.6s-37.8,19.3-43.6,18.9s-4.7,39.5-2.3,45.9c2.4,6.4,6.4,52.8,6.4,52.8
						s3.8,9.8-0.2,16.6c0,0-0.9,14,0,16.4c0,0-67.6,7.2-86.9-1.3c0,0-2.8-31.3,0-35.3c2.8-4-2.6-12.8-2.6-12.8l-12.1-27l-29.4-29.6
						c0,0-4.5-24.7,15.7-40.6l13.4-11.9c0,0,7.5-6.5,9.7-6.9c2.2-0.4,1.4,0,1.4,0s8.7,12.8,26.7,9.7c9.7-1.6,9.8-6.6,10-10.5
						C303.5,241.9,303.8,240,304.3,238.1z"/>
					<path class="st10" d="M267.4,339.7c0,0,41.5,1.7,49.8,14.7c0,0-10.8-5.1-20.4-3.6C287.2,352.3,267.4,339.7,267.4,339.7z"/>
					<path class="st10" d="M313.2,385.2c0,0-19.6,1.3-23.8-2.8s-4.2-6.6-4.2-6.6L313.2,385.2z"/>
					<path class="st10" d="M263.4,299.7c0,0,16.6,19.6-3.6,28.1L263.4,299.7z"/>
					<path class="st10" d="M361.8,261.8c0,0-6,12.3-9.1,13.1L361.8,261.8z"/>
					<path class="st10" d="M382.1,256.5c0,0-15.1,13.6-17.9,14.9C364.2,271.4,379.9,256.5,382.1,256.5z"/>
					<path class="st10" d="M321.9,243.4c0,0,14.5,21.7,5.1,34.9C327,278.4,332.3,262.7,321.9,243.4z"/>
					<path class="st15" d="M285.3,407.9l4.4,4.2l0.6,0.6l5.1,4.9c0.4,0.3,0.7,0.6,1.1,0.8c20.9,15,25.1-7.8,25.1-7.8s9.2,6,10.6,1.1
						c1.4-4.9-21.5-11.9-24.9-11.5c-0.3,0-0.6,0-0.9,0c-1.6-0.3-3.2-0.8-4.7-1.7l-1-0.5c-1.9-1.1-3.4-2.1-3.4-2.1L285.3,407.9z"/>
					<path class="st10" d="M262.6,207.8c0,10.6,5.6,20.4,14.7,25.8c0.4-0.7,0.8-1.4,1.1-2.2c1.1-2.5,1.7-5.2,2.8-7.7
						c1.2-2.7,2.9-5.2,5.1-7.4c0.4-0.4,0.8-0.7,1.3-0.9c1-0.1,2,0.1,2.8,0.8c1.3,0.9,2.7,1.5,4.2,1.8s3.1-0.1,4.2-1.3
						c1.2-1.4,1-3.5,0.7-5.2c-0.7-3.9-2-7.8-2-11.7s1.5-8.3,5-10.2c3-1.7,6.8-1.3,10.2-2.2c0.5-0.1,1-0.3,1.5-0.5
						c-11.5-11.9-30.5-12.1-42.4-0.6C265.9,191.9,262.6,199.7,262.6,207.8L262.6,207.8z"/>
					<path class="st23" d="M316.2,182c0.6,0.3,1.1,0.8,1,1.4c-0.1,0.3-0.3,0.5-0.6,0.7c-1.4,1.1-3,2-4.8,2.4
						c-3.4,0.9-7.2,0.5-10.2,2.2c-3.4,2-5,6.2-5,10.2s1.2,7.8,2,11.7c0.3,1.8,0.5,3.8-0.7,5.2c-1.1,1.1-2.7,1.6-4.2,1.3
						c-1.5-0.3-2.9-1-4.2-1.8c-0.8-0.6-1.8-0.9-2.8-0.8c-0.5,0.2-1,0.5-1.3,0.9c-2.1,2.1-3.8,4.6-5,7.4c-1.1,2.5-1.8,5.2-2.8,7.7
						c-0.9,2.6-2.7,4.8-5.1,6.3c-2.4,1.3-5.7,1.2-7.6-0.8s-1.7-4.9-2.6-7.3c-1.5-4.3-5.7-7-8.3-10.7c-2.9-4.2-3.8-9.4-4.5-14.4
						c-0.4-1.6-0.4-3.2-0.1-4.8c0.3-1.1,0.8-2.1,1.3-3.1c2.9-6,2.9-13.6,7.5-18.5c3.5-3.6,8.8-4.7,13.8-5.3s10.2-1,14.5-3.6
						c1.2-0.9,2.5-1.6,3.9-2.2c1.4-0.4,3.3,0,3.9,1.5c0.1,0.4,0.3,0.7,0.5,1c0.5,0.3,1,0.3,1.5,0.1l6.6-1.8l-0.8,3.4
						c2.4,0.1,4.8-0.3,7-1.2c0.1,1.9-2,3.1-2.7,4.9c-0.5,1.7,0,3.4,1.3,4.6C310.4,181,313.5,180.6,316.2,182z"/>
					<path class="st10" d="M343.1,633.1l0.3,3l0.1,0.1c10.8,6,33.2-10.8,33.2-10.8l-2.4-2.3c-0.8,0.9-1.1,2-1,3.2l-4.6,0.2l-5.5,5.9
						c0,0-14.8,1.7-18.8,0.8L343.1,633.1z"/>
					<path class="st18" d="M345,649.6c7.1,1.6,31.7,1.5,31.7,1.5l13.8,2.2c0,0,23.7,2.3,26.4-5.1s-2.1-6.9-2.1-6.9h-0.2l-9.9-0.8
						c0,0-12.5-4.8-17.1-8.2c-3.6-2.8-7.1-5.9-10.3-9.2c0,0-4.1-0.8-4,4l-4.6,0.2l-5.5,5.9c0,0-14.8,1.7-18.8,0.8H343l0.6,7.3
						l-0.2,0.2C342.7,642.6,338.7,648.1,345,649.6z"/>
					<circle class="st19" cx="370.6" cy="631.2" r="0.7"/>
					<circle class="st19" cx="388.3" cy="638.9" r="0.7"/>
					<circle class="st19" cx="397.4" cy="641.7" r="0.7"/>
					<circle class="st19" cx="383.6" cy="637.4" r="0.7"/>
					<circle class="st19" cx="392.9" cy="640.3" r="0.7"/>
					<circle class="st19" cx="378.9" cy="635.3" r="0.7"/>
					<circle class="st19" cx="374.3" cy="633.2" r="0.7"/>
					<path class="st20" d="M345,649.6c7.1,1.6,31.7,1.5,31.7,1.5l13.8,2.2c0,0,23.7,2.3,26.4-5.1s-2.1-6.9-2.1-6.9h-0.2
						c-1.5,2-4.5,4.2-10.5,4.3l-17.1,0.7l-17.7-1.3c0,0-16.6-0.5-19.2-1.1c-2.3-0.6-4.5-1.4-6.6-2.4
						C342.7,642.6,338.7,648.1,345,649.6z"/>
					<path class="st21" d="M389.2,651.6c0.9,0,1.9-0.1,2.8-0.3l-0.2-0.7c-2.3,0.5-4.7,0.4-7-0.3c-0.8-0.2-1.7-0.5-2.5-0.7
						c-1.5-0.5-3.1-0.9-4.6-1.2c-2.5-0.3-5.1-0.4-7.6-0.2h-0.5c-7.6,0.4-15.2,0.1-22.7-1c-1.7-0.3-3.6-0.7-4.8-1.9l-0.5,0.5
						c1.4,1.4,3.4,1.9,5.3,2.2c7.6,1.1,15.2,1.4,22.8,1h0.5c2.5-0.2,5-0.1,7.5,0.2c1.5,0.3,3,0.7,4.5,1.1c0.8,0.2,1.7,0.5,2.5,0.7
						C386.1,651.3,387.7,651.5,389.2,651.6z"/>
					<path class="st10" d="M285.3,407.9l4.4,4.2l11-14.1c-1.9-1.1-3.4-2.1-3.4-2.1L285.3,407.9z"/>
					<path class="st22" d="M235.3,292l-8.7,12.1v12.6c0,0-4,13.4,0,26.8l-0.4,11.7c0,0,4.2,10.8,2.7,13.4c0,0,0.8,7.9,11,13.4
						c10.2,5.5,21.7,18.5,21.7,18.5s4.4,8.3,16.1,6.4l11.1,4.7l12.8-16.4l-17.4-9.4c0,0-6-8.1-9.6-7.7l-14.7-17.2
						c0,0-0.4-5.5-4.1-5.5c0,0,7-5.7,4.5-9.1s-0.5-18.5-0.5-18.5L235.3,292z"/>
					<path class="st10" d="M251.5,347.1c0,0-19.8-0.4-22.3,4.7S245.5,344.3,251.5,347.1z"/>
					<path class="st10" d="M290.3,411.7c0,0.3,0,0.7,0.1,1c0.5,3.1,3.1,5.5,6.2,5.7h0.4c3.7,0,6.7-3,6.7-6.7l0,0
						c0-0.7-0.1-1.5-0.4-2.2c3.1-2.5,3.3-7.1,3.2-9.3c-1.6-0.3-3.2-0.8-4.7-1.7c-0.8,2.4-1.9,4.6-3.3,6.7c-3.6-0.9-7.2,1.3-8,4.9
						C290.3,410.6,290.3,411.1,290.3,411.7L290.3,411.7z"/>
					<path class="st19" d="M301.2,397c0,0,4.5,1,4.5,1.8s1,8.2-3.9,11.2c-4.9,3-4.4-4.2-4.4-4.2S301.6,399.3,301.2,397z"/>
					<circle class="st24" cx="296.2" cy="411.7" r="6.7"/>
					<circle class="st20" cx="296.2" cy="411.7" r="5.7"/>
					<path class="st10" d="M322.2,414.2c0,0-14.1,11.7-32.2,4.3v5.7c0,0,12.1,8.3,23,3.3S322.2,414.2,322.2,414.2z"/>
					<path class="st10" d="M322.2,412.7c0,0-14.1,11.7-32.2,4.3v5.7c0,0,12.1,8.3,23,3.3S322.2,412.7,322.2,412.7z"/>
					<path class="st16" d="M322.2,412.7c0,0-14.1,11.7-32.2,4.3v5.7c0,0,12.1,8.3,23,3.3S322.2,412.7,322.2,412.7z"/>
					<path class="st17" d="M321.8,412.7c0,0-14.1,11.7-32.2,4.3v5.7c0,0,12.1,8.3,23,3.3S321.8,412.7,321.8,412.7z"/>
					<path class="st10" d="M366.5,623c0,0-18.9,3.5-21.6,4.2s0.8,2.1,0.8,2.1S362.8,626.2,366.5,623z"/>
					<path class="st10" d="M366.9,613c-0.3,0-12.8-3.5-15.5-9.6"/>
					<path class="st10" d="M348.6,540.7c0,0-5.1,6.7-8.4,6.5S345.7,540.5,348.6,540.7z"/>
					<path class="st10" d="M345.8,551.8c0,0-2.1,4.7-5.3,3.2"/>
					<path class="st17" d="M333.9,448.2l-13.4,35.3c0,0-1.9-22.7,2.1-29.5C325,450,329.4,447.7,333.9,448.2z"/>
					<g class="st8">
						<path d="M301,168.4l0.1-0.5l2.1-0.6l-0.2,1.1C302.3,168.4,301.7,168.4,301,168.4z"/>
						<path d="M306.9,176.9l-0.2-0.2c-1.3-1.2-1.8-2.9-1.3-4.6c0.3-0.6,0.6-1.2,1.1-1.7c1.1-0.2,2.1-0.5,3.1-0.9
							c0.1,1.9-2,3.1-2.7,4.9C306.6,175.2,306.6,176.1,306.9,176.9z"/>
						<path d="M271.2,234.9c2.3-1.5,4.1-3.7,5-6.3c1.1-2.5,1.7-5.2,2.8-7.7c1.2-2.7,2.9-5.2,5-7.4c0.4-0.4,0.8-0.7,1.3-0.9
							c1-0.1,2,0.1,2.8,0.8c1.3,0.9,2.7,1.5,4.2,1.8s3.1-0.1,4.2-1.3c1.2-1.4,1-3.5,0.7-5.2c-0.7-3.9-2-7.8-2-11.7s1.5-8.2,4.9-10.2
							c3.1-1.7,6.8-1.3,10.2-2.2c1.7-0.5,3.4-1.3,4.8-2.4l0.3-0.2c0.3,0.1,0.6,0.2,0.8,0.4c0.5,0.3,1.1,0.8,1,1.4
							c-0.1,0.3-0.3,0.5-0.6,0.7c-1.4,1.1-3,2-4.8,2.4c-3.4,0.9-7.2,0.5-10.2,2.2c-3.4,2-5,6.2-4.9,10.2c0.1,4,1.2,7.8,2,11.7
							c0.3,1.8,0.5,3.8-0.7,5.2c-1.1,1.1-2.7,1.6-4.2,1.3c-1.5-0.3-2.9-1-4.2-1.8c-0.8-0.6-1.8-0.9-2.8-0.8c-0.5,0.2-1,0.5-1.3,0.9
							c-2.1,2.1-3.8,4.6-5,7.4c-1.1,2.5-1.8,5.2-2.8,7.7c-0.9,2.6-2.7,4.8-5,6.3c-2.4,1.3-5.7,1.2-7.6-0.8c-0.5-0.6-0.9-1.2-1.1-1.9
							C266.1,236.1,268.9,236.2,271.2,234.9z"/>
						<path d="M260.4,225.3c-1.9-2.4-4.4-4.4-6.1-6.9c-0.4-0.5-0.7-1-1-1.5C255.6,219.8,258.7,222.1,260.4,225.3z"/>
					</g>
					
						<rect x="327.8" y="49.6" transform="matrix(0.9807 -0.1956 0.1956 0.9807 -13.5971 105.93)" class="st5" width="403.4" height="144.5"/>
					
						<rect x="327.8" y="49.6" transform="matrix(0.9807 -0.1956 0.1956 0.9807 -13.5971 105.93)" class="st25" width="403.4" height="144.5"/>
					<path class="st5" d="M475.2,86.1c-1.3,2.2-1.8,4.8-1.5,7.4c5.3-1.2,8.7-6.3,7.6-11.7C478.9,82.5,476.7,84,475.2,86.1z"/>
					<path class="st5" d="M631.5,58.1c1.6,2,3.8,3.5,6.3,4.1c0.9-5.3-2.6-10.4-7.9-11.5C629.6,53.3,630.2,55.9,631.5,58.1z"/>
					<path class="st5" d="M573.9,56.6c-0.3,1.7-0.1,3.5,0.7,5.1c3.2-2,4.2-6.1,2.3-9.3C575.5,53.5,574.4,55,573.9,56.6z"/>
					<path class="st5" d="M500.9,124.3c-0.3,1.7-0.1,3.5,0.7,5.1c3.2-2,4.2-6.1,2.3-9.3C502.5,121.1,501.4,122.6,500.9,124.3z"/>
					<path class="st5" d="M538.8,136.9c0.9,1.5,2.2,2.7,3.9,3.4c1.2-3.5-0.7-7.4-4.2-8.6C538,133.5,538.1,135.3,538.8,136.9z"/>
					<path class="st5" d="M524.9,86.4c0.4,2.5,1.7,4.9,3.6,6.6c3.3-4.3,2.6-10.4-1.6-13.9C525.5,81.3,524.7,83.8,524.9,86.4z"/>
					<path class="st5" d="M572.7,88.7c-1.2,2.3-1.7,4.9-1.3,7.4c5.3-1.3,8.5-6.5,7.4-11.8C576.3,85,574.2,86.6,572.7,88.7z"/>
					
						<ellipse transform="matrix(-0.9807 0.1956 -0.1956 -0.9807 1366.0001 151.3393)" class="st5" cx="675.5" cy="143.1" rx="40.2" ry="6.8"/>
					<path class="st5" d="M689.7,129c1.5-1.8,2.4-4.1,2.6-6.4c0-2.4-1.5-4.9-3.8-5.3c-2.6-0.4-4.8,1.8-6.5,3.8
						c-1.7,2-3.5,4.5-6.1,4.6c2.2-3,2.7-6.8,1.3-10.2c-0.3-0.7-0.7-1.3-1.3-1.8c-1.6-1.2-3.9-0.1-5.3,1.4
						c-4.4,4.6-4.4,11.8-3.2,18.1c-1-2.1-1-4.6-1.5-6.9s-1.6-4.7-3.8-5.6c-1.3-0.4-2.8-0.5-4.1-0.1c-2.3,0.4-4.8,1.1-6,3.1
						c-1.5,2.5-0.3,5.9,1.8,7.8s5,2.9,7.7,4c2.1,0.8,4.1,2,5.6,3.6c0.2,0.2,0.4,0.5,0.5,0.7l14.4-2.9
						C684.9,134.6,687.5,132,689.7,129z"/>
					<path class="st26" d="M408.8,194.6c0,0-11.4-21.8-6.7-40.4c2-7.8,1.4-16-1.6-23.5c-1.5-3.5-3.3-6.9-5.4-10.1"/>
					<path class="st5" d="M398,108.8c0.6,2.8-2.9,12.1-2.9,12.1s-6.8-7.2-7.3-10c-0.7-2.8,1.1-5.6,3.9-6.3s5.6,1.1,6.3,3.9
						C397.9,108.7,398,108.8,398,108.8L398,108.8z"/>
					<path class="st5" d="M409.6,122.8c-1.1,2.7-9,8.5-9,8.5s-1.8-9.7-0.7-12.4c1-2.7,4-4.1,6.7-3c2.7,1,4.1,4,3,6.7
						C409.7,122.7,409.6,122.8,409.6,122.8L409.6,122.8z"/>
					<path class="st5" d="M414.6,149.7c-2.3,1.8-12.1,2.8-12.1,2.8s3.4-9.3,5.6-11.1c2.3-1.8,5.6-1.4,7.3,0.9
						C417.1,144.6,416.8,148,414.6,149.7L414.6,149.7z"/>
					<path class="st5" d="M413.8,170.9c-1.9,2.1-11.4,4.8-11.4,4.8s1.8-9.7,3.7-11.9c1.8-2.3,5.1-2.7,7.3-0.9
						c2.2,1.8,2.7,5.1,0.9,7.3C414.1,170.6,413.9,170.8,413.8,170.9L413.8,170.9z"/>
					<path class="st5" d="M389.9,134.1c2.4,1.6,12.3,1.7,12.3,1.7s-4.2-8.9-6.6-10.5c-2.5-1.5-5.7-0.7-7.2,1.7
						C386.9,129.4,387.6,132.5,389.9,134.1z"/>
					<path class="st5" d="M389.3,158.9c2.8,0.8,12.2-2,12.2-2s-6.7-7.3-9.5-8.1s-5.7,0.9-6.4,3.6S386.5,158.2,389.3,158.9
						L389.3,158.9z"/>
					<path class="st5" d="M392,183.1c2.6,1.2,12.4,0.1,12.4,0.1s-5.4-8.3-8-9.5s-5.7,0-6.9,2.6C388.3,178.8,389.4,181.8,392,183.1
						L392,183.1z"/>
					<path class="st5" d="M446.5,145.3c0,0,3.2,2.8,0.5,8.6s-5,10.6-3.1,13.5c0,0,3.8-10.5,8.3-11.5S452.7,149.9,446.5,145.3z"/>
					<path class="st10" d="M446.5,145.3c0.3,0.3,0.5,0.6,0.7,1c5.5,4.4,8.9,8.8,4.6,9.7c-4,0.9-7.3,9-8.1,11
						c0.1,0.1,0.1,0.3,0.2,0.4s3.8-10.5,8.3-11.5S452.7,149.9,446.5,145.3z"/>
					<path class="st5" d="M452.1,148.6c0.2,1.2,0.3,2.1,0.1,2.2s-0.5-0.9-0.7-2.1c-0.2-1.2,0-0.6,0.2-0.7S451.9,147.4,452.1,148.6z"
						/>
					<path class="st5" d="M454,149.7c-0.9,0.8-1.8,1.3-1.9,1.2s0.5-0.9,1.5-1.6s0.6-0.3,0.7-0.1C454.4,149.4,454.9,148.9,454,149.7z
						"/>
					<path class="st5" d="M433.1,148c0,0-1.9,3.8,2.8,8.1c4.7,4.3,8.6,7.9,8,11.3c0,0-7.5-8.2-12.1-7.4
						C427.2,160.8,429.2,154.6,433.1,148z"/>
					<path class="st10" d="M433.1,148c-0.2,0.4-0.3,0.8-0.3,1.1c-3.4,6.1-4.8,11.5-0.5,10.8c4-0.7,10.2,5.5,11.8,7.1
						c0,0.1,0,0.3-0.1,0.4c0,0-7.5-8.2-12.1-7.4C427.3,160.8,429.2,154.6,433.1,148z"/>
					<path class="st5" d="M429.2,153.2c0.2,1.2,0.6,2.1,0.7,2.1s0.1-1-0.1-2.2s-0.3-0.6-0.5-0.5S429,152,429.2,153.2z"/>
					<path class="st5" d="M427.8,154.9c1.1,0.4,2.1,0.5,2.2,0.4s-0.8-0.6-2-0.9s-0.6,0-0.7,0.1C427.2,154.6,426.7,154.6,427.8,154.9
						z"/>
					
						<ellipse transform="matrix(-0.9807 0.1956 -0.1956 -0.9807 849.2671 308.4391)" class="st5" cx="409.4" cy="196.2" rx="28.4" ry="4.8"/>
					
						<ellipse transform="matrix(-0.9807 0.1956 -0.1956 -0.9807 912.7454 247.9727)" class="st5" cx="444.1" cy="169.1" rx="20.2" ry="3.4"/>
					
						<ellipse transform="matrix(-0.9807 0.1956 -0.1956 -0.9807 1116.5228 193.0974)" class="st5" cx="548.7" cy="151.7" rx="13.8" ry="2.3"/>
					
						<ellipse transform="matrix(-0.9807 0.1956 -0.1956 -0.9807 1220.8124 135.7074)" class="st5" cx="603.7" cy="128.1" rx="10.9" ry="1.9"/>
					
						<ellipse transform="matrix(-0.9807 0.1956 -0.1956 -0.9807 1021.3716 256.2148)" class="st5" cx="498" cy="178.5" rx="20.2" ry="3.4"/>
					
						<ellipse transform="matrix(-0.9807 0.1956 -0.1956 -0.9807 1180.2733 214.8473)" class="st5" cx="579.5" cy="165.7" rx="20.2" ry="3.4"/>
					
						<rect x="657.6" y="33.3" transform="matrix(0.9807 -0.1956 0.1956 0.9807 5.6251 133.7125)" class="st5" width="44.5" height="10.2"/>
				</g>
			</g>
		</g>
	</g>
</g>
</svg>
