<?xml version="1.0" encoding="utf-8"?>
<!-- Generator: Adobe Illustrator 19.0.0, SVG Export Plug-In . SVG Version: 6.00 Build 0)  -->
<svg version="1.1" id="A312" xmlns="http://www.w3.org/2000/svg" xmlns:xlink="http://www.w3.org/1999/xlink" x="0px" y="0px"
	 viewBox="0 0 914.8 687.6" style="enable-background:new 0 0 914.8 687.6;" xml:space="preserve">
<style type="text/css">
	.st0{opacity:0.4;fill:#6C63FF;enable-background:new    ;}
	.st1{fill:#3F3D56;}
	.st2{fill:#6C63FF;}
	.st3{opacity:0.1;enable-background:new    ;}
	.st4{fill:#2F2E41;}
	.st5{fill:#A0616A;}
	.st6{fill:#575A89;}
	.st7{fill:#F2F2F2;}
	.st8{fill:#57B894;}
	.st9{fill:#FFB9B9;}
</style>
<g>
	<g>
		<g>
			<circle class="st0" cx="772.1" cy="242.4" r="21.9"/>
			<circle class="st0" cx="309.9" cy="112.5" r="31.2"/>
			<circle class="st0" cx="252.1" cy="127.4" r="21.9"/>
		</g>
	</g>
</g>
<g>
	<path class="st1" d="M772.4,523.4c-17.3,19-17.9,46.6-17.9,46.6s27.5-3.1,44.8-22.1c17.3-19,17.9-46.6,17.9-46.6
		S789.7,504.5,772.4,523.4z"/>
	<path class="st2" d="M782.1,528.9c-5.2,25.1-27.3,41.8-27.3,41.8s-13.5-24.1-8.3-49.2c5.2-25.1,27.3-41.8,27.3-41.8
		S787.4,503.8,782.1,528.9z"/>
	<polygon class="st1" points="759.6,269.5 759.6,569.2 659.7,651.7 148.6,651.7 148.6,337.5 297.8,269.5 	"/>
	<polygon class="st3" points="759.6,269.5 759.6,270.7 723.8,294.7 659.7,337.5 148.6,337.5 297.8,269.5 	"/>
	<polygon class="st3" points="759.6,269.5 759.6,569.2 659.7,651.7 660.5,336.8 723.8,294.7 759.1,269.5 	"/>
	<polygon class="st4" points="625,310.7 313.7,310.7 336.9,297.7 635.1,297.7 	"/>
	<path class="st5" d="M533.9,125.5c0,0-8.1-23-14-15.8s9,19.4,9,19.4L533.9,125.5z"/>
	<path class="st6" d="M572.3,103l-4.9,1.8c0,0-2.3,10.4-1.4,12.2s1.4,0.5,0,4.1s-5.4,13.1-5.9,14.5c-0.5,1.4-26.2-8.7-26.2-13.7
		c0,0-5.4,6.3-8.1,7.7c0,0,29.8,21.7,33.9,24.4c4.1,2.7,6.3,1.4,9.9-1.8c3.6-3.2,19-29.4,19-29.4L572.3,103z"/>
	<path class="st4" d="M559.2,263.3c0,0,0.5,5,1.4,5.4s7.7,11.7,0,14c-7.7,2.3-12.2,1.4-14,2.3c-1.8,0.9-33.4,2.7-33.9-2.3
		s15.4-5.9,15.4-5.9s14.5-9.5,16.7-14.5S559.2,263.3,559.2,263.3z"/>
	<path class="st4" d="M650.8,272.3c0,0,10.8,18.5,8.1,20.8s-29.1,10.5-33,10.8c-5,0.5-8.6-3.6-4.5-5.9s12.6-11.7,12.6-14.9V275
		L650.8,272.3z"/>
	<path class="st4" d="M661.2,151.3c0,0,9.5,11.7-5.4,30.7L631,213.6c0,0,15.4,24.4,15.8,37s3.6,9.9,4.5,15.4s5,2.7,1.8,6.8
		s-14.9,7.7-18.5,4.5c-2.5-2.3-3.8-5.6-3.6-9c0-1.8-6.3-12.2-6.8-15.4S607,224,607,224s-5.4-15.4,0.9-23.9s10.5-20.8,10.5-20.8
		s-18.6,22.6-31.7,28c0,0-5,0.9-4.1,3.2s0,3.6-1.4,5.9s-10.8,28.5-14,35.2c-3.2,6.7-1.8,10.8-5.4,13.1c-3.6,2.3-19.9,0.5-19.9-1.8
		c0-2.3,2.3-8.1,3.6-11.3s12.2-39.7,11.3-46.1s0.5-14.9,7.2-18.5s41.1-33,42.9-33S661.2,151.3,661.2,151.3z"/>
	<circle class="st5" cx="570.5" cy="61.4" r="19"/>
	<path class="st5" d="M585.8,63.2c0,0,5.9,10.4,13.1,11.7s-19,22.1-19,22.1s-6.3-19.9-11.7-20.8C562.8,75.3,585.8,63.2,585.8,63.2z"
		/>
	<path class="st6" d="M567.3,105.7c0,5.9,17.6,22.6,17.6,22.6l16.7,14c0,0,0.5,5,2.3,5.4c1.8,0.4,4.1,0.5,2.3,3.2s-6.3,8.6-2.3,9.5
		c1.2,0.2,2.5,0.3,3.7,0.4c1.1,0.1,2.4,0.1,3.8,0.2c3.3,0.1,7.5,0.2,12.1,0.2c1.3,0,2.6,0,3.9,0c17.1-0.3,36.9-2.3,35.2-8.8
		c-2.7-10.8-0.9-14.5-6.8-20.3c-5.9-5.8-15.4-26.2-15.4-26.2s-19-32.1-34.8-32.1l-3.3-0.9c-3.1-0.8-6.4,0.4-8.2,3.2
		c-3.2,4.8-8.2,12.1-11.1,14.4c-4.5,3.6-5.2,1-5.2,1S567.3,99.8,567.3,105.7z"/>
	<path class="st5" d="M607.5,174.3c0,0-13.1,20.3-5,23.9s12.6-21.2,12.6-21.2L607.5,174.3z"/>
	<path class="st4" d="M582.9,59.3c-0.7-0.1-1-1-1.1-1.7c-0.7-3.9-3.5-7.5-7.4-8.2c-1.5-0.2-3-0.1-4.4,0.4c-2.1,0.6-4,1.5-5.7,2.8
		c-0.8,0.8-1.8,1.4-2.8,1.8c-0.7,0.2-3.7,1.6-4.4,1.8c-1.6,0.5-2.8,2.1-4.4,1.8c-1.5-0.3-2.1-2.2-2.4-3.7c-0.6-3.5,1.4-8.7,3.4-11.7
		c1.5-2.2,4.1-3.5,6.6-4.4c3-0.9,6.1-1.5,9.2-1.8c4.2-0.5,8.6-0.8,12.6,0.5s7.7,4.5,8.5,8.7c0.2,0.9,0.2,1.8,0.4,2.6
		c0.5,2.1,1.9,3.9,2.7,5.9c1.2,3,1.1,6.3-0.3,9.2c-1.1,2.3-3.1,4.4-2.7,6.9l-3.5-2.7c-1-0.6-1.5-1.8-1.2-3l0.5-4.4
		c0.2-0.8,0.1-1.6-0.2-2.4C584.7,55,584.1,59.4,582.9,59.3z"/>
	<path class="st3" d="M615.6,143.2l-4.3,17.7c4.3,0.2,10,0.2,16,0.1c1.5-4.6,3-9.3,4.1-13.7c4.1-16.3-2.7-41.1-6.3-52.8
		s-12.6-14.9-12.6-14.9c-3.7,1.3-7.2,3.1-10.4,5.4C596.2,89,615.6,143.2,615.6,143.2z"/>
	<path class="st3" d="M612,142.3l-4.4,18.4c1.1,0.1,2.4,0.1,3.8,0.2c3.3,0.1,7.5,0.2,12.1,0.2c1.6-4.8,3.2-9.9,4.4-14.7
		c4.1-16.3-2.7-41.1-6.3-52.8s-11.5,1.1-11.5,1.1s3.2-7.7-2.7-3.6C601.5,95.2,612,142.3,612,142.3z"/>
	<path class="st6" d="M610.7,78.6c0,0,9,3.2,12.6,14.9s10.4,36.6,6.3,52.8S617,182.9,617,182.9s-8.6-6.3-11.7-5l8.6-35.7
		c0,0-19.4-54.2-13.5-58.3C603.5,81.7,607,79.9,610.7,78.6z"/>
	<polygon class="st7" points="617.4,305.1 492.4,44.7 283.5,145 360.4,305.1 	"/>
	
		<rect x="334.8" y="173.2" transform="matrix(-0.9016 0.4326 -0.4326 -0.9016 830.2764 165.0734)" class="st1" width="123.1" height="7.6"/>
	
		<rect x="364.2" y="234.4" transform="matrix(-0.9016 0.4326 -0.4326 -0.9016 912.6311 268.7318)" class="st1" width="123.1" height="7.6"/>
	
		<rect x="477.3" y="116" transform="matrix(-0.9016 0.4326 -0.4326 -0.9016 993.5417 36.5152)" class="st1" width="30.6" height="30.6"/>
	
		<rect x="506.7" y="177.2" transform="matrix(-0.9016 0.4326 -0.4326 -0.9016 1075.8964 140.1735)" class="st1" width="30.6" height="30.6"/>
	<polygon class="st8" points="501.6,91.8 490.3,124.1 475,118.7 472.9,124.7 494.1,132.1 507.6,93.9 	"/>
	<polygon class="st8" points="531,153 519.7,185.3 504.4,180 502.3,185.9 523.5,193.4 537,155.1 	"/>
</g>
<g>
	<path class="st4" d="M849.2,629.7c0,0,6,25.2,0.5,26.3s-32.4,0.7-39,1.8s-20.3-0.7-20.3-5.7s14.3-8.2,14.3-8.2s20.3-11,20.8-11.5
		S849.2,629.7,849.2,629.7z"/>
	<path class="st6" d="M844.2,481c0,0-1.6,18.7-1.6,20.3s1.6,27.4,0,28.5s1.1,8.8,1.1,11.5s8.8,48.3,6.6,65.8s3.3,15.9,1.6,17.6
		s-1.6,1.6-1.6,4.9s-17.6,6-17.6,6l-19.2-121.2l9.9-36.2L844.2,481z"/>
	<path class="st3" d="M844.2,481c0,0-1.6,18.7-1.6,20.3s1.6,27.4,0,28.5s1.1,8.8,1.1,11.5s8.8,48.3,6.6,65.8s3.3,15.9,1.6,17.6
		s-1.6,1.6-1.6,4.9s-17.6,6-17.6,6l-19.2-121.2l9.9-36.2L844.2,481z"/>
	<path class="st4" d="M841.5,637.4c0,0,5.5,19.8,0,20.8s-32.4-1.3-39-0.2s-20.3,1.3-20.3-3.7s14.3-8.2,14.3-8.2s20.3-11,20.8-11.5
		S841.5,637.4,841.5,637.4z"/>
	<path class="st6" d="M849.2,459.1c0,0,6.6,15.9-1.1,24.1s-16.5,24.7-16.5,25.8c0,1.1,15.4,110.3,13.2,117.4s-1.6,11.5-1.1,12.6
		s-5.5,7.1-12.1,7.1s-16.5-4.9-17.6-9.3s1.6-42.2,1.1-49.4s-3.3-17.6-4.4-19.8s-7.1-4.4-8.2-11s-9.9-90.5-7.1-93.3
		S849.2,459.1,849.2,459.1z"/>
	<circle class="st9" cx="807.5" cy="314.3" r="18.7"/>
	<path class="st9" d="M819,323.6c0,0-3.8,20.3-1.1,22.5s-20.8,5.5-20.8,5.5s-2.7-26.9-3.3-29.6S819,323.6,819,323.6z"/>
	<path class="st2" d="M793.8,349.9c0,0,6.6-19.2,33.5-13.7c0,0,4.9,1.6,3.3,3.3s-3.3,1.6-1.1,3.3s4.9,0,3.3,1.6s14.8,11.5,13.7,30.2
		s3.8,45,0,49.4s2.7,23.6,1.6,27.4s6.6,8.8,3.3,10.4s-62.5,11.5-64.2,0s-0.5-3.3-2.2-6s-2.2-7.7-1.1-13.7s3.8-20.8,2.7-26.3
		s0-51.6,3.3-57.1S793.8,349.9,793.8,349.9z"/>
	<path class="st9" d="M805.3,483.8c0,0,8.2,31.3-2.2,31.3s-9.9-32.4-9.9-32.4L805.3,483.8z"/>
	<path class="st4" d="M799.2,314.3c0,1.6,2.3,2.6,5.9,2.8l0,0c1.5,0.1,3,0.1,4.5-0.1c2.3-0.2,3.2,1.9,3.6,4.8
		c0.6,4.7-0.3,11.2,0.8,12.2c1.4,1.4,11.7,0,15-3.2c0.5-0.5,0.8-1.1,0.9-1.7c0.3-2,1.3-3.8,2.8-5.1c1.9-2.1,4.6-4.4,7.7-8
		c5.5-6.6,0-7.1-1.6-12.1s-4.4-6.6-4.4-9.9s-12.6-6-23-5.5s-8.2,13.7-8.2,13.7s-0.6,1.6-1.4,3.6c-1,2.6-1.8,5.2-2.4,7.9
		C799.3,313.9,799.2,314.1,799.2,314.3z"/>
	<path class="st3" d="M801.4,358.2c0,0,18.7-1.1,20.3,26.3s1.1,53.2,1.1,53.8S815.1,491,808,491s-12.6-1.1-14.3-3.8
		s4.4-42.2,4.4-42.2s2.7-41.7-1.6-54.9S791.6,359.8,801.4,358.2z"/>
	<path class="st2" d="M798.7,355.4c0,0,18.7-1.1,20.3,26.3s1.1,53.2,1.1,53.8s-7.7,52.7-14.8,52.7s-12.6-1.1-14.3-3.8
		s4.4-42.2,4.4-42.2s2.7-41.7-1.6-54.9S788.8,357.1,798.7,355.4z"/>
</g>
<g>
	
		<rect x="25.6" y="494" transform="matrix(-0.9779 0.2089 -0.2089 -0.9779 216.9076 1022.8506)" class="st7" width="57.7" height="57.7"/>
	<path id="ac286760-ef31-4470-8aba-995faff60c3b_12_" class="st9" d="M87.1,473.6c0,0-20.7,14.8-13.8,20.7
		c6.9,5.9,20.7-17.8,20.7-17.8L87.1,473.6z"/>
	<path id="ad0ee0d5-d520-47bd-bca9-706ef112ee3c_12_" class="st9" d="M182.9,496.3c0,0-3.9,49.4-4.9,56.3s-2,69.1-3.9,76
		s-3.9,23.7-3.9,23.7h-12c0,0,1-30.6-2-42.5s-2-44.4-2-44.4s-5.9-58.3-3-66.2S182.9,496.3,182.9,496.3z"/>
	<path id="a2d865fc-f989-4a0f-bdfe-5d1a04b5cb09_12_" class="st4" d="M167.1,649.3c0,0,4.9,3,4.9,4.9s-1,6.9,0,8.9s7.9,9.9,3.9,11.8
		s-21.7,0-21.7,0s1-13.8,2-14.8s-1-10.9-1-10.9L167.1,649.3L167.1,649.3z"/>
	<path id="a5afd73e-dc2f-49f8-bb76-01b6bc8ff4ec_12_" class="st9" d="M107.4,495.1c0,0-1.3,49.5-1,56.5s-5.3,68.9-4.1,76
		s1.4,24,1.4,24l11.8,1.2c0,0,2.2-30.5,6.4-42s6.6-44,6.6-44s12-57.3,9.9-65.5S107.4,495.1,107.4,495.1z"/>
	<path id="bae9c969-98bd-41cd-ab49-dced4866e2f9_12_" class="st4" d="M107.1,648.9c0,0-5.2,2.4-5.4,4.4s0.3,7-0.9,8.8
		s-8.9,9-5.2,11.4s21.6,2.3,21.6,2.3s0.5-13.9-0.4-14.9s2.1-10.7,2.1-10.7L107.1,648.9z"/>
	<path id="efa1face-c8d6-4f61-8a17-c81461288bfc_12_" class="st4" d="M169.1,422.2c0,0,7.9,1,10.9,17.8s13.8,59.2,4.9,62.2
		c-8.9,3-35.5,8.9-36.5,6.9s-3-6.9-3-6.9s3,8.9-1,8.9s-42.5-5.9-41.5-8.9s3-24.7,3-24.7s5.9-36.5,11.8-42.5c3.5-3.3,5.3-8,4.9-12.8
		L169.1,422.2z"/>
	<path id="ba787e0e-2496-4127-9664-864bc1f1b460_12_" class="st9" d="M183.9,414.3c0,0-12.8-3-14.8,1s4.9,9.9,7.9,9.9s7.9-3,7.9-3
		L183.9,414.3z"/>
	<circle id="af432612-84fe-4a80-a474-ad6710b59c23_12_" class="st9" cx="157.2" cy="312.6" r="17.8"/>
	<path id="fc691572-079c-4ac7-a111-0c7206f484e6_12_" class="st9" d="M154.3,325.5c0,0-3,13.8-1,13.8s-14.8,8.9-14.8,8.9l-12.8-2
		l-3.9-5.9c0,0,20.7-13.8,20.7-21.7S154.3,325.5,154.3,325.5z"/>
	<path id="a377c2ac-5aad-4dd5-94e4-d6887260be3a_12_" class="st2" d="M145.4,339.3c0,0,3-2,3.9-2h7.9c1,0,13.8,3,13.8,3l7.9,44.4
		c0,0-13.8,22.7-3.9,40.5c0,0-3-2-16.8-1c-13.8,1-38.5,3.9-39.5,3.9s-1-7.9,0-9.9s-1-1-1-5.9s-3-13.8-3-13.8l-13.8-50.4
		c0,0,17.8-9.9,20.7-8.9s11.8,3.9,13.8,3C137.5,341.3,145.4,339.3,145.4,339.3z"/>
	<path id="fd50713a-8150-4e39-832b-91f38638a5e4_12_" class="st2" d="M168.1,341.3l3-1c0,0,5.9-1,12.8,4.9
		c6.9,5.9,32.6,23.7,32.6,23.7s9.9,7.9,6.9,16.8s-7.9,30.6-22.7,29.6c0,0-8.9,11.8-13.8,9.9c-4.9-1.9-8.9-9.9-5.9-10.9
		s10.9-10.9,10.9-10.9l-9.9-18.8h-3l-10.9-5.9V341.3z"/>
	<path id="a85ddca5-281c-4897-a8aa-82a4133bac02_12_" class="st2" d="M108.9,347.2l-7.9,1c0,0-6.9,3-5.9,15.8s-5.9,71.1-3,78
		c0,0-9.9,33.6-7.9,34.6s13.8,6.9,12.8,3s10.9-31.6,10.9-31.6s13.8-14.8,7.9-35.5v-16.8L108.9,347.2z"/>
	<path id="eb14ef5a-0bc4-48da-8b11-b0e113a7ef46_12_" class="st4" d="M172,329.8l-12.6,2.7l-1.6-6.2l0.6,6.4l-20.2,4.4l-0.9-3.4
		l0.3,3.5l-13,2.8l-2.8-26.6c-2.9-10.9,7.6-22.6,18.5-25.4l4.8-1.3c8-2.1,22.6-0.2,24.7,7.8C166.3,308.6,160.1,324,172,329.8z"/>
</g>
</svg>
