<?xml version="1.0" encoding="utf-8"?>
<!-- Generator: Adobe Illustrator 19.0.0, SVG Export Plug-In . SVG Version: 6.00 Build 0)  -->
<svg version="1.1" id="A316" xmlns="http://www.w3.org/2000/svg" xmlns:xlink="http://www.w3.org/1999/xlink" x="0px" y="0px"
	 viewBox="0 0 1081.4 714.8" style="enable-background:new 0 0 1081.4 714.8;" xml:space="preserve">
<style type="text/css">
	.st0{opacity:0.1;fill:#6C63FF;enable-background:new    ;}
	.st1{opacity:0.1;}
	.st2{fill:#6C63FF;}
	.st3{opacity:0.2;fill:#6C63FF;enable-background:new    ;}
	.st4{fill:#DC9BA3;}
	.st5{opacity:5.000000e-02;enable-background:new    ;}
	.st6{opacity:0.1;enable-background:new    ;}
	.st7{fill:#FFD2D9;}
	.st8{fill:#E9E9EF;}
	.st9{fill:#CEDAD5;}
	.st10{fill:#844F6E;}
	.st11{opacity:5.000000e-02;}
	.st12{opacity:0.2;fill:#FFFFFF;enable-background:new    ;}
	.st13{opacity:5.000000e-02;fill:#00FF00;enable-background:new    ;}
	.st14{fill:#7679B4;}
	.st15{fill:#565388;}
	.st16{opacity:0.5;}
	.st17{fill:#865A61;}
	.st18{fill:#FDC2CC;}
	.st19{fill:#EC7580;}
	.st20{fill:#535461;}
	.st21{opacity:0.2;enable-background:new    ;}
	.st22{opacity:0.3;fill:#FFFFFF;enable-background:new    ;}
</style>
<g>
	<g>
		<g>
			<rect x="657.2" y="57" class="st0" width="318" height="22"/>
			<rect x="685.2" y="0" class="st0" width="20" height="57"/>
			<rect x="685.2" y="9" class="st0" width="20" height="4"/>
			<rect x="685.2" y="40" class="st0" width="20" height="4"/>
			<rect x="715.2" y="0" class="st0" width="20" height="57"/>
			<rect x="715.2" y="9" class="st0" width="20" height="4"/>
			<rect x="715.2" y="40" class="st0" width="20" height="4"/>
			<rect x="745.2" y="0" class="st0" width="20" height="57"/>
			<rect x="745.2" y="9" class="st0" width="20" height="4"/>
			<rect x="745.2" y="40" class="st0" width="20" height="4"/>
			<rect x="775.2" y="0" class="st0" width="20" height="57"/>
			<rect x="775.2" y="9" class="st0" width="20" height="4"/>
			<rect x="775.2" y="40" class="st0" width="20" height="4"/>
			<rect x="805.2" y="0" class="st0" width="20" height="57"/>
			<rect x="805.2" y="9" class="st0" width="20" height="4"/>
			<rect x="805.2" y="40" class="st0" width="20" height="4"/>
			<rect x="835.2" y="0" class="st0" width="20" height="57"/>
			<rect x="835.2" y="9" class="st0" width="20" height="4"/>
			<rect x="835.2" y="40" class="st0" width="20" height="4"/>
			<rect x="865.2" y="0" class="st0" width="20" height="57"/>
			<rect x="865.2" y="9" class="st0" width="20" height="4"/>
			<rect x="865.2" y="40" class="st0" width="20" height="4"/>
			<rect x="685.2" y="96" class="st0" width="20" height="57"/>
			<rect x="685.2" y="105" class="st0" width="20" height="4"/>
			<rect x="715.2" y="96" class="st0" width="20" height="57"/>
			<rect x="715.2" y="105" class="st0" width="20" height="4"/>
			<rect x="745.2" y="96" class="st0" width="20" height="57"/>
			<rect x="745.2" y="105" class="st0" width="20" height="4"/>
			<rect x="870.2" y="96" class="st0" width="20" height="57"/>
			<rect x="870.2" y="105" class="st0" width="20" height="4"/>
			<rect x="900.2" y="96" class="st0" width="20" height="57"/>
			<rect x="900.2" y="105" class="st0" width="20" height="4"/>
			<rect x="930.2" y="96" class="st0" width="20" height="57"/>
			<rect x="930.2" y="105" class="st0" width="20" height="4"/>
			<g class="st1">
				<path class="st2" d="M805.5,132.3c0,0-6.1-2.1-9,3.3c-1.6,2.9-1.5,6.5,0.1,9.4c1.9,3.5,5.9,8,13.3,7.6c6.3-0.3,8.5-5.2,9-9.7
					c0.7-5.5-3.2-10.5-8.7-11.1c-1.5-0.2-3.1,0-4.5,0.5H805.5z"/>
				<path class="st0" d="M798,145.4c-1.6-2.9-1.7-6.4-0.1-9.4c2.9-5.3,9-3.3,9-3.3l0.3-0.1c2.3-0.8,4.9-0.8,7.1,0.2
					c-2.5-1.5-5.6-1.8-8.4-0.8l-0.3,0.1c0,0-6.1-2.1-9,3.3c-1.6,2.9-1.5,6.5,0.1,9.4c1.5,2.9,3.9,5.1,6.9,6.5
					C801.2,149.8,799.3,147.8,798,145.4z"/>
				<path class="st3" d="M802.4,134.8c0,0,2.2,1.8,7.7,0"/>
				<path class="st2" d="M801.9,122c0,0,3.8,10.4,3.5,13.2l3-0.3c0,0-5.1-9.1-3.8-12.9L801.9,122z"/>
				<path class="st3" d="M801.9,122c0,0,3.8,10.4,3.5,13.2l3-0.3c0,0-5.1-9.1-3.8-12.9L801.9,122z"/>
				<path class="st2" d="M817.7,122.9c0,0-6.1-3.1-8.8-0.5s-3.1,9.1-3.1,9.1S815.7,132.8,817.7,122.9z"/>
				<path class="st0" d="M817.7,122.9c0,0-6.1-3.1-8.8-0.5s-3.1,9.1-3.1,9.1S815.7,132.8,817.7,122.9z"/>
				<path class="st2" d="M805.8,131.4c0,0,1.6-7.6,11.9-8.6"/>
			</g>
			<g>
				<rect x="657.2" y="152" class="st0" width="318" height="22"/>
				<rect x="657.2" y="251" class="st0" width="318" height="22"/>
				
					<rect x="867.2" y="194" transform="matrix(-0.8939 0.4482 -0.4482 -0.8939 1761.0695 28.2284)" class="st0" width="20" height="57"/>
				
					<rect x="859.3" y="204.8" transform="matrix(-0.8939 0.4482 -0.4482 -0.8939 1739.0438 2.0966)" class="st0" width="20" height="4"/>
				
					<rect x="873.2" y="232.5" transform="matrix(-0.8939 0.4482 -0.4482 -0.8939 1777.7677 48.3362)" class="st0" width="20" height="4"/>
				<rect x="685.2" y="136" class="st0" width="20" height="4"/>
				<rect x="715.2" y="136" class="st0" width="20" height="4"/>
				<rect x="745.2" y="136" class="st0" width="20" height="4"/>
				<rect x="870.2" y="136" class="st0" width="20" height="4"/>
				<rect x="900.2" y="136" class="st0" width="20" height="4"/>
				<rect x="930.2" y="136" class="st0" width="20" height="4"/>
				<rect x="685.2" y="194" class="st0" width="20" height="57"/>
				<rect x="685.2" y="203" class="st0" width="20" height="4"/>
				<rect x="685.2" y="234" class="st0" width="20" height="4"/>
				<rect x="715.2" y="194" class="st0" width="20" height="57"/>
				<rect x="715.2" y="203" class="st0" width="20" height="4"/>
				<rect x="715.2" y="234" class="st0" width="20" height="4"/>
				<rect x="745.2" y="194" class="st0" width="20" height="57"/>
				<rect x="745.2" y="203" class="st0" width="20" height="4"/>
				<rect x="745.2" y="234" class="st0" width="20" height="4"/>
				<rect x="775.2" y="194" class="st0" width="20" height="57"/>
				<rect x="775.2" y="203" class="st0" width="20" height="4"/>
				<rect x="775.2" y="234" class="st0" width="20" height="4"/>
				<rect x="805.2" y="194" class="st0" width="20" height="57"/>
				<rect x="805.2" y="203" class="st0" width="20" height="4"/>
				<rect x="805.2" y="234" class="st0" width="20" height="4"/>
				<rect x="835.2" y="194" class="st0" width="20" height="57"/>
				<rect x="835.2" y="203" class="st0" width="20" height="4"/>
				<rect x="835.2" y="234" class="st0" width="20" height="4"/>
				<g class="st1">
					<path class="st2" d="M933.5,231.3c0,0-6.1-2.1-9,3.3c-1.6,2.9-1.5,6.5,0.1,9.4c1.9,3.5,5.9,8,13.3,7.6c6.3-0.3,8.5-5.2,9-9.7
						c0.7-5.5-3.2-10.5-8.7-11.1c-1.5-0.2-3.1,0-4.5,0.5H933.5z"/>
					<path class="st0" d="M926,244.4c-1.6-2.9-1.7-6.4-0.1-9.4c2.9-5.3,9-3.3,9-3.3l0.3-0.1c2.3-0.8,4.9-0.8,7.1,0.2
						c-2.5-1.5-5.6-1.8-8.4-0.8l-0.3,0.1c0,0-6.1-2.1-9,3.3c-1.6,2.9-1.5,6.5,0.1,9.4c1.5,2.9,3.9,5.1,6.9,6.5
						C929.2,248.8,927.3,246.8,926,244.4z"/>
					<path class="st3" d="M930.4,233.8c0,0,2.2,1.8,7.7,0"/>
					<path class="st2" d="M929.9,221c0,0,3.8,10.4,3.5,13.2l3-0.3c0,0-5.1-9.1-3.8-12.9H929.9z"/>
					<path class="st3" d="M929.9,221c0,0,3.8,10.4,3.5,13.2l3-0.3c0,0-5.1-9.1-3.8-12.9H929.9z"/>
					<path class="st2" d="M945.7,221.9c0,0-6.1-3.1-8.8-0.5s-3.1,9.1-3.1,9.1S943.7,231.8,945.7,221.9z"/>
					<path class="st0" d="M945.7,221.9c0,0-6.1-3.1-8.8-0.5s-3.1,9.1-3.1,9.1S943.7,231.8,945.7,221.9z"/>
					<path class="st2" d="M933.8,230.4c0,0,1.6-7.6,11.9-8.6"/>
				</g>
			</g>
		</g>
	</g>
</g>
<g>
	<path class="st0" d="M698.9,352.2c24.5,14.2,47.1,33.7,72.6,44.6c31.1,13.3,64.6,13.2,97.5,12.9l132.5-1.2
		c-26.8,60.5-74.2,106-127.8,122.7c-21,6.6-43.4,9.1-62,23.2c-23.1,17.6-36.8,50.6-60.2,67.3c-25.9,18.4-58,13.5-86.8,22.5
		c-37.6,11.8-69,47.4-107.3,54.4c-37.1,6.8-73.2-14.2-109.1-27.5C320,623.7,181.4,674.3,49,650.9c-5.1-0.9-10.5-2.1-14.2-6.6
		c-4.7-5.8-5.1-15.1-4.2-23.3c4.7-41.1,34.2-71.3,65.1-86.2c65.8-31.7,139.7-11.8,209.6-23.2c48-7.8,93.7-30.5,138.7-52.9
		c47.2-23.5,95.1-46.5,139.8-76.9C629.1,351,643.8,320.2,698.9,352.2z"/>
</g>
<g>
	<g>
		<g>
			<g>
				<path class="st4" d="M352.1,550c0,0-2,30,2,35c0,0-88,16-99,11s-6-13,0-16s36-14,40-35c0,0-13-6,29,2S352.1,550,352.1,550z"/>
				<path class="st5" d="M352.1,550c0,0-2,30,2,35c0,0-88,16-99,11s-6-13,0-16s36-14,40-35c0,0-13-6,29,2S352.1,550,352.1,550z"/>
				<path class="st2" d="M695.3,132.3l0.4,0.2c18.2,8.6,33.9,21.4,46,37.5c6.8,9,15.2,17.6,23.2,19
					c17.7,3.1,147.8,138.5,116.6,264.5S668,584.5,668,584.5s-38.8,6.6-61,19.7c-10.5,6.2-23.2,7.4-34.8,3.3
					c-26.5-9.4-70-23.1-89.6-18.9c-29.2,6.2-279-97.9-279-97.9s104.1-100,257.2-97.9c0,0,241.5-168.7,233.2-238.4L695.3,132.3z"/>
				<path class="st6" d="M695.3,132.3l0.4,0.2c18.2,8.6,33.9,21.4,46,37.5c6.8,9,15.2,17.6,23.2,19
					c17.7,3.1,147.8,138.5,116.6,264.5S668,584.5,668,584.5s-38.8,6.6-61,19.7c-10.5,6.2-23.2,7.4-34.8,3.3
					c-26.5-9.4-70-23.1-89.6-18.9c-29.2,6.2-279-97.9-279-97.9s104.1-100,257.2-97.9c0,0,241.5-168.7,233.2-238.4L695.3,132.3z"/>
				<path class="st2" d="M695.1,132l25,24c0,0,19,37,36,40s142,133,112,254s-205,126-205,126s-36.4,6.2-57.8,18.5
					c-10.5,6.2-23.2,7.4-34.7,3.4c-25.5-9-66.8-21.9-85.4-17.9c-28,6-268-94-268-94s100-96,247-94c0,0,232-162,224-229L695.1,132z"
					/>
				
					<ellipse transform="matrix(-0.7071 -0.7071 0.7071 -0.7071 781.4485 1152.2496)" class="st6" cx="629.4" cy="414.3" rx="78.9" ry="143.6"/>
				<path class="st7" d="M695.1,259c0,0-11,18-4,53s-18,35-18,35h-50l-17-44l24,2c0,0,16-4,9-41L695.1,259z"/>
				<path class="st7" d="M545.1,217c7.7,24.4,17.2,54,22.4,69.8l3.6,11.2l33-34c0,0-1.5-3.4-3.6-8.1c-4.8-10.5-13.2-27.5-17.4-28.9
					c0,0,46-3,60,8s10-30,10-30s-27-2-37-8s-64-12-64-12S534.1,182,545.1,217z"/>
				<path class="st6" d="M726.1,519c0,0-85-39-115-33"/>
				<path class="st6" d="M813.1,427c0,0-103-4-159,32"/>
				<path class="st6" d="M762.1,468c0,0-81-20-124-13"/>
				<path class="st7" d="M245.1,511l7,51l18-2c0,0,1.1-1,2.9-2.7c4.9-4.3,14.9-12.6,24.6-17.2c3.3-1.7,6.8-2.7,10.5-3.1l-20-30
					c-4.9,1.8-9.9,3.3-14.9,4.4c-5.3,1.2-10.7,1.9-16.1,1.9C253,513.4,248.9,512.6,245.1,511z"/>
				<path class="st8" d="M295.1,547c9,8,50-9,57,17l6.4-24.6l19.8-75.9L381,453l16.5-0.7l189.6-8.1l10.7-0.5l5.7-0.2l-7.5-3.7
					L546,415c0,0-18-1.3-42.8-4.7l0,0c-37.7-5.2-91-15.2-121.1-33.3c-50-30-69,71-69,71s-7.6,25.6-13.4,50.9c-2.8,12-5.1,24-6,33.1
					C292.9,539.7,293.2,545.3,295.1,547z"/>
				<path class="st5" d="M295.1,547c9,8,50-9,57,17l6.4-24.6l19.8-75.9L381,453l17-1l183.2-11.3l11.3-0.7l3.5-0.2l4.5-0.3L546,415
					c0,0-18-1.3-42.8-4.7l0,0c-37.7-5.2-91-15.2-121.1-33.3c-50-30-69,71-69,71s-7.6,25.6-13.4,50.9c-2.8,12-5.1,24-6,33.1
					C292.9,539.7,293.2,545.3,295.1,547z"/>
				<path class="st6" d="M273.2,511.4l17.5,20.5l7,8.2c3.3-1.7,6.8-2.7,10.5-3.1l-20-30C283.3,508.8,278.3,510.3,273.2,511.4z"/>
				<path class="st8" d="M274.1,509l19.5,22.9L303,543v3c11.6,2.7,47.6-4.9,55.5-6.6c1-0.2,1.6-0.3,1.6-0.3c23,1,108-49,108-49
					s93,16,138,12c25.1-2.2,32.2-11.3,33.5-18.9c0.6-3.8,0.1-7.6-1.5-11.1L598,443.8l-5.3-3.8l-8.5-6c0,0-14.8-3.3-33.6-7.5l0,0
					c-29.3-6.5-68.5-14.9-76.4-15.5c-13-1-46,10-65,32c-3.3,3.5-7,6.5-11,9l-0.5,0.3c-5.3,3.5-11.9,7.3-19.2,11.2
					c-24.2,12.8-56.5,26.4-78.7,35.4C284.6,505.1,274.1,509,274.1,509z"/>
				<path class="st6" d="M245.1,511l7,51l18-2c0,0,1.1-1,2.9-2.7c-4,0.1-10.6-1.1-11.9-9.3c0,0,6.9-24.2-4-34.7
					C253,513.4,248.9,512.6,245.1,511z"/>
				<path class="st4" d="M259.1,548c0,0,10-35-13-39l-38,15l-44,3c0,0-11.5,18.8,6.9,39.8c10.2,11.5,24.6,18.4,40,19l48.1,2.2l15-31
					C274.1,557.1,261.1,560,259.1,548z"/>
				<path class="st6" d="M503.3,410.4c5,1.5,25.9,7.7,47.2,16.2l0,0c10.6,4.1,20.8,8.8,30.8,14.2c2.1,1.2,4,2.3,5.9,3.5
					c5.6,3.5,10.1,7.2,12.9,10.8c12.3,16,30.5,24.6,39.5,28.1c0.6-3.8,0.1-7.6-1.5-11.1L598,443.8l5.7-0.2l-7.5-3.7l4.5-0.3
					L546.1,415C546.1,415,528.1,413.8,503.3,410.4z"/>
				<path class="st6" d="M567.5,286.8l3.6,11.2l33-34c0,0-1.5-3.4-3.6-8.1C596.3,264.8,576.4,280.2,567.5,286.8z"/>
				<path class="st9" d="M686.6,303.5c1.2-3.4,2-6.9,2.6-10.4l43,15c0,0,29.5,22.5,26.5,71.5c0,0-36.5-13.5-52.5,2.5l-0.3,2.8
					c-3.4,28-15.8,54.1-35.2,74.4c-8,8.3-15.5,17.8-19.4,26.8c0,0-28-8-45-30s-98-45-98-45s43,1,49-14s26-47,19-72s-11-33-11-33
					s41-29,38-38l26,30l12,4c-0.9,2.3-1.4,4.8-1.4,7.3C639.1,322.5,677.5,329.1,686.6,303.5z"/>
				<path class="st2" d="M650.7,508.5c0,0-97-40-176-2l19,40l91,2L650.7,508.5z"/>
				<path class="st6" d="M640.7,277.2c-0.3-3.7-0.8-7.5-1.5-11.1l56-5c0,0-3.9,3.4-5.6,15.9c-6.6,3.9-14.2,9.1-22.4,9.1
					C657.6,286,648.3,282.9,640.7,277.2z"/>
				<circle class="st7" cx="666.6" cy="240.5" r="44"/>
				<path class="st10" d="M699.1,252h-6v-17l-6-18c0,0-30-14-44-11l-11,10c0,0-3-24,15-33s50-5,58,2s21,19,11,52l-3,8
					C713.1,245,701.1,241,699.1,252z"/>
				<g class="st11">
					<path d="M621.4,275.1l-3.3-1.1L603,256.6c0.3-0.8,0.3-1.7,0.1-2.6L621.4,275.1z"/>
					<path d="M642.5,307.4c-7.9-3.5-14-11.1-13.7-22c0-0.6,0-1.2,0.1-1.7l0.3,0.4l12,4c-0.9,2.3-1.4,4.8-1.4,7.3
						C639.6,299.6,640.5,303.7,642.5,307.4z"/>
					<path d="M525.8,410.2c25.1,8.7,59,22.5,69.3,35.8c0.2,0.3,0.5,0.6,0.8,1c-27.5-18.8-87.8-36-87.8-36
						C514,411.1,519.9,410.8,525.8,410.2z"/>
					<path d="M640.1,476c4-9,11.5-18.5,19.4-26.8c19.5-20.3,31.9-46.4,35.2-74.4l0.3-2.8c16-16,52.5-2.5,52.5-2.5
						c1.9-31.1-9.3-51.5-17.7-62.3l2.2,0.8c0,0,29.5,22.5,26.5,71.5c0,0-36.5-13.5-52.5,2.5l-0.3,2.8c-3.4,28-15.8,54.1-35.2,74.4
						c-8,8.3-15.5,17.8-19.4,26.8c0,0-24.4-7-41.4-25.8C618.9,467.2,629.2,472.5,640.1,476z"/>
				</g>
				<path class="st7" d="M651.1,359c0,0,48,69,73,89s32-9,32-9v-64l-44-5l-0.5,6.1l-0.5,6.9l-41-44c0,0-41-37-49-15
					S651.1,359,651.1,359z"/>
				<path class="st6" d="M711.7,376.1c6,3.5,12.4,6.3,19,8.4c9.5,2.9,20.3-0.2,25.5-2V375l-44-5L711.7,376.1z"/>
				<path class="st9" d="M756.7,368.5l2.6,10.7c0,0-15.6,7.3-28.6,3.3s-23-11-25-12s8-12,8-12L756.7,368.5z"/>
				<path class="st6" d="M468.7,490.5c-6.7-5.1-14.1-9.2-22-12c-7.5-2.6-14.6-6.3-21-11"/>
				<path class="st12" d="M164.1,527l1.6-0.1c-2.4,6-5.8,20.8,8.3,36.9c10.2,11.5,24.6,18.4,40,19l46.6,2.2l-1.5,3.1l-48.1-2.2
					c-15.4-0.6-29.8-7.5-40-19C152.7,545.8,164.1,527,164.1,527z"/>
				<path class="st13" d="M390.9,578.5h0.1c-0.1,2.4-0.4,7.2-0.4,12.6C390.6,586.4,390.8,581.8,390.9,578.5z"/>
				<path class="st13" d="M333.9,569.9c-0.1,0.6-0.3,1.2-0.5,1.8C332.5,571.1,331.1,570,333.9,569.9z"/>
				<path class="st12" d="M255.1,593c10.2,4.7,87.3-8.9,97.8-10.8c0.2,1,0.6,1.9,1.2,2.8c0,0-88,16-99,11c-5.7-2.6-7.1-5.9-6.3-9
					C249.4,589.2,251.3,591.3,255.1,593z"/>
				<path class="st13" d="M391,578.5c0-1,0.1-1.5,0.1-1.5S396.2,578.8,391,578.5z"/>
				<path class="st6" d="M688.6,252.5h-60.8c-2.3,0-4.1-1.8-4.1-4.1v-25.8c0-2.3,1.8-4.1,4.1-4.1h60.8c2.3,0,4.1,1.8,4.1,4.1v25.8
					C692.6,250.7,690.8,252.5,688.6,252.5z"/>
				<path class="st6" d="M716.2,242.5h-24.1c-1.3,0-2.4-1.1-2.4-2.4V232c0-1.3,1.1-2.4,2.4-2.4h24.1c1.3,0,2.4,1.1,2.4,2.4v8.1
					C718.6,241.4,717.6,242.5,716.2,242.5z"/>
				<path class="st14" d="M688.6,251.5h-60.8c-2.3,0-4.1-1.8-4.1-4.1v-25.8c0-2.3,1.8-4.1,4.1-4.1h60.8c2.3,0,4.1,1.8,4.1,4.1v25.8
					C692.6,249.7,690.8,251.5,688.6,251.5z"/>
				<path class="st15" d="M680.5,249.5h-52.7c-2.3,0-4.1-1.8-4.1-4.1v-21.8c0-2.3,1.8-4.1,4.1-4.1h52.7c2.3,0,4.1,1.8,4.1,4.1v21.8
					C684.6,247.7,682.8,249.5,680.5,249.5z"/>
				<path class="st15" d="M716.2,241.5h-24.1c-1.3,0-2.4-1.1-2.4-2.4V231c0-1.3,1.1-2.4,2.4-2.4h24.1c1.3,0,2.4,1.1,2.4,2.4v8.1
					C718.6,240.4,717.6,241.5,716.2,241.5z"/>
				<path class="st6" d="M638.7,219.5c-10.8-6.5-19.6-16-25.4-27.2c-0.7-1.3-1.3-2.8-0.9-4.2c0.7-2.7,4.3-3.2,6.8-4.4
					c4.8-2.2,6.8-7.7,9.9-11.9c5.5-7.2,14.5-10.6,23.3-9c4.6,0.9,8.8,3.2,13.4,3.9c9.9,1.5,20.7-4.6,29.7,0c4.1,2.1,6.8,6,9.2,9.9
					c6.1,9.7,13.7,20,8.2,31.4c-3.2,6.5-8.2,11.9-15.3,13.8s-15.3,0.3-22.6-0.5c-6-0.6-12.2-2-18.2-1.4
					C649.8,220.7,645.4,223.5,638.7,219.5z"/>
				<path class="st10" d="M638.7,217.5c-10.8-6.5-19.6-16-25.4-27.2c-0.7-1.3-1.3-2.8-0.9-4.2c0.7-2.7,4.3-3.2,6.8-4.4
					c4.8-2.2,6.8-7.7,9.9-11.9c5.5-7.2,14.5-10.6,23.3-9c4.6,0.9,8.8,3.2,13.4,3.9c9.9,1.5,20.7-4.6,29.7,0c4.1,2.1,6.8,6,9.2,9.9
					c6.1,9.7,13.7,20,8.2,31.4c-3.2,6.5-8.2,11.9-15.3,13.8s-15.3,0.3-22.6-0.5c-6-0.6-12.2-2-18.2-1.4
					C649.8,218.7,645.4,221.5,638.7,217.5z"/>
				<polygon class="st3" points="120.8,126.4 40.3,112.6 39.2,148.6 121.7,162.4 				"/>
				<polygon class="st3" points="0,59.5 0,292.8 104.5,311.5 124.1,315 152.6,320.1 156.2,320.7 159.2,321.2 160.3,321.4 
					160.5,321.5 175.7,324.2 179,324.8 200.3,328.6 224.9,333 257.3,338.8 257.8,338.9 297.4,345.9 353.6,356 435,370.5 435,137.3 
									"/>
				<g class="st16">
					<rect x="182.2" y="179" class="st17" width="74.4" height="77.1"/>
					<rect x="182.2" y="168.3" class="st6" width="74.4" height="77.1"/>
					<path class="st18" d="M164.4,278l1.8,2.6l5.8,8.2l0.9,1.2l2.9,4.1l0.6,0.8l10.1,14.2l0.7,0.9l6.1,8.6l0.6,0.8l6.4,9.1l24.6,4.4
						l3.3-0.4l11.6-22.6l0.4-0.7v-0.1l6.2-12.2l0.2-0.4l0.1-0.5l0.6-4.1v-0.2l0.1-0.8l0,0v-0.1l2.1-15.2v-0.1l2.7-19.5l1.5-10.6
						l0.4-2.5c-2.4,1.1-5,2-7.6,2.5c-1.6,0.4-3.3,0.5-5,0.5h-0.1c-1.4,0-2.9-0.2-4.3-0.5c-3.2-0.8-6-2.9-7.6-5.8l0,0
						c-2.7-4.5-4-12-2.5-24c0-0.3,0.1-0.6,0.1-1c0.4-2.7,0.9-5.6,1.6-8.7l-28-13.6l-0.4-0.2l-3.9-1.9c0,0,0.6,2.8,1.1,7.1l0.1,0.7
						c0.5,4.4,0.8,8.8,0.8,13.2c0,0.3,0,0.6,0,0.9c0,4.5-0.6,8.9-1.7,13.3c0,0.2-0.1,0.3-0.1,0.5c-2.1,7.5-6.3,13.5-14.2,14.9
						c-2.2,0.4-4.5,0.4-6.7,0.1c-2.9-0.4-5.8-0.3-8.7,0.2C147.5,245.7,164.4,278,164.4,278z"/>
					<path class="st6" d="M228.7,206c-0.8,3.5-1.3,6.7-1.7,9.6c-3.4,1-6.8,1.4-10.3,1.4c-6.4,0-12.7-1.6-18.3-4.8
						c0.1-7.4-0.6-14.8-2-22L228.7,206z"/>
					<circle class="st18" cx="216.6" cy="178.7" r="37.4"/>
					<path class="st19" d="M155.7,309c0,0,0.2,0.3,0.5,0.9c1.9,3.7,3.3,7.5,4.4,11.5l15.1,2.7l3.3,0.6l21.3,3.8l24.6,4.4l32.4,5.8
						c4.8-6.5,7.9-14.2,8.9-22.2c0-0.3,0.1-0.6,0.1-1c0.2-1.5,0.2-3.1,0.3-4.7l0,0v-0.1v-0.1c0-0.5,0-1.1,0-1.7
						c-0.3-10.8-10.8-13-19.8-13c-4.2,0.1-8.4,0.5-12.5,1.4l-2.2,3.5l0,0l0,0l-0.9,1.3l0,0l-3,4.8l-11.1,19.9l-3.2-7.4l-0.2-0.5l0,0
						l-4.4-9.9h-0.5l-22.3-0.1L155.7,309z"/>
					<path class="st19" d="M160.3,321.7c0-0.1,0-0.2-0.1-0.3c-1.1-4-2.6-7.8-4.6-11.5h0.5l31,0.1l21.7,0.1h0.4l4.2,9.5l0.2,0.4
						l0.2,0.5l3.2,7.4l11.1-19.9l0,0l0.1-0.2l2.1-3.5l1-1.7l0,0l0.5-0.9l2.2-3.5c0,0,1.9-0.5,4.9-0.8l1-0.1c0.8-0.1,1.6-0.2,2.5-0.2
						l0.8-0.1h0.1l1.6-0.1c0.5,0,0.9,0,1.4,0c1.4,0,2.8,0,4.2,0.1l1.1,0.1c2.9,0.2,5.8,1,8.4,2.3c0.2,0.1,0.4,0.2,0.6,0.3
						c0.7,0.4,1.3,0.8,1.9,1.3c0.2,0.2,0.5,0.4,0.7,0.6c0.6,0.5,1.1,1,1.5,1.6c0.3,0.4,0.5,0.9,0.8,1.4c0.2,0.5,0.4,1,0.6,1.5
						c0.2,0.6,0.3,1.1,0.4,1.7s0.1,1.3,0.2,1.9c0,0.2,0,0.5,0,0.7v0.1c0,0,0,0,0,0.1l0,0c0,0.5,0,1.1,0,1.6c0,0.4,0,0.7,0,1.1
						c0,0,0,0,0,0.1l0,0c0,0.3,0,0.6,0,0.9s0,0.7-0.1,1s0,0.7-0.1,1c-0.8,8.1-3.8,15.8-8.4,22.4l-0.6-0.1l-32.4-5.8l-24.6-4.4
						l-21.3-3.8l-3.3-0.6l-15.2-2.7c0,0.1,0.1,0.2,0.1,0.4H160.3z"/>
					<path class="st18" d="M268.8,305.3c0.7,2.3,1.5,4.5,2.4,6.7l0.3,0.7c5.7,13,14.6,24.4,25.8,33.2l56.2,10
						c-4.2-3.3-8.6-6.3-13.1-9.1l-27.7-18.4l-18.8-28.8l-0.4-0.6l-5.3-8.1L268.8,305.3z"/>
					<path class="st6" d="M293.9,299.7c-0.5,0.6-1.3,0.8-2,0.6c-9.2-1.4-19.9,12-19.9,12l-0.5,0.5c-1.1-2.4-2-4.9-2.7-7.4l19.4-14.3
						L293.9,299.7z"/>
					<path class="st6" d="M266.3,316.4c-4.4,2.4-10.3,4.2-15-0.5c-8.1-8.1-22.2-7-23.1-6.9c1.4-0.2,2.7-3.2,3.8-7.1l2.2-3.5
						c0,0,31.9-7.4,32.3,11.5C266.6,312.1,266.5,314.3,266.3,316.4z"/>
					<path class="st6" d="M249.6,275.6l-2.9,21l-6.5,12.7c-4-1-8.2-1.4-12.4-1.2c4.6-0.6,7.6-29.3,7.6-29.3l0.3-0.1L249.6,275.6z"/>
					<path class="st19" d="M291.9,299.3c-9.2-1.4-19.9,12-19.9,12s-12.5,12-20.8,3.7c-8.1-8.1-22.2-7-23.1-6.9
						c4.6-0.6,7.6-29.3,7.6-29.3l0.3-0.1l44.3-9.9c0,0,2.6,4,5.6,9.2C291.4,287.3,297.9,300.2,291.9,299.3z"/>
					<path class="st6" d="M280.9,280.8c0.5,0.9-7.4,5.5-11.1,4.2s-12.9,6-13.9,6.9s-21.7-1.4-21.7-1.4c0.9-3.9,1.5-7.9,1.9-11.8
						l44.3-9.9c0,0,2.6,4,5.6,9.2C283.3,279.2,280.6,280.4,280.9,280.8z"/>
					<path class="st6" d="M254.1,242.9l-4.5,32.6l-2.1,15.3c-6.2-0.5-13.7-1.3-13.7-1.3s7.9-32.8-5.1-49.9h0.8
						C236.7,251.7,254.1,242.9,254.1,242.9z"/>
					<path class="st19" d="M229.1,239.7c0,0,23.6-1.9,32.8,4.6s22.6,25.9,22.6,25.9l7.4,4.6c0,0-11.5,4.2-11.1,5.1
						s-7.4,5.5-11.1,4.2s-12.9,6-13.9,6.9s-21.7-1.4-21.7-1.4S242,256.8,229.1,239.7z"/>
					<path class="st18" d="M124.1,315l28.6,5.1l3.6,0.6l-0.1-0.4c-0.8-2.7-2.1-5.3-3.7-7.6c-8.8-12-28.2,0-28.2,0
						S124.2,313.5,124.1,315z"/>
					<path class="st6" d="M124.1,315l28.6,5.1l3.6,0.6l-0.1-0.4c-0.8-2.7-2.1-5.3-3.7-7.6c-8.8-12-28.2,0-28.2,0
						S124.2,313.5,124.1,315z"/>
					<path class="st6" d="M160.3,321.7c0-0.1,0-0.2-0.1-0.3c-1.1-4-2.6-7.8-4.6-11.5h0.5l31,0.1l21.7,0.1l4.6,9.5l0.2,0.4l0.2,0.4
						l0,0c-0.3,0.1-4.5,0.8-12.5-0.9c-2.5-0.6-5.1-0.7-7.5-0.1c-3.4,0.8-5.7,2.7-8.6,3.8c-2,0.7-4.1,1.2-6.3,1.4l-3.3-0.6l-15.2-2.7
						c0,0.1,0.1,0.2,0.1,0.4L160.3,321.7z"/>
					<path class="st19" d="M104.5,311.5l19.6,3.5l28.6,5.1c1.2,0,2.3,0,3.4,0.3c1.1,0.2,2.1,0.5,3.1,0.9c0.4,0.1,0.8,0.3,1.2,0.5
						l0.3,0.1c0-0.1-0.1-0.2-0.1-0.4l15.2,2.7c3.2-0.2,6.4-0.8,9.5-1.8c2.7-1.1,5-2.8,8.1-3.7c2.7-0.7,5.4-0.7,8.1,0
						c6.8,1.5,10.8,1.2,12,1l0,0c0.1,0,0.3,0,0.4-0.1l0,0l-0.2-0.5l0,0l-4.4-9l-0.4-0.9l0,0l-8.8-18.1l-0.5-1l-5.5-11.4l0,0h-0.4
						l-27.4,1.9l-1.9,0.1l-3.6,0.2l0,0H160l-43.5,3l-2.8,6.6l-0.2,0.6L104.5,311.5z"/>
					<path class="st6" d="M201.4,297.5c-5.1-8.3-31.9-0.9-31.9-0.9s-12.9,3.7-15.7-3.2c-2.8-6.9-22.6-2.3-22.6-2.3
						s-14.4,5.4-17.9,0.2l3.1-7.1l77.3-5.3L201.4,297.5z"/>
					<path class="st19" d="M179.2,242.9c0,0-25.4-5.1-37.4,1.4c-12,6.5-21.2,20.8-21.2,20.8L103,281.3c0,0,6.9,3.2,10.2,8.8
						s18,0,18,0s19.9-4.6,22.6,2.3s15.7,3.2,15.7,3.2s26.8-7.4,31.9,0.9L179.2,242.9z"/>
					<path class="st6" d="M208.5,124.6c-3.4-0.6-7-1.1-10.4-0.4c-5.6,1.2-9.9,5.8-13.1,10.6s-5.6,10.1-9.5,14.4
						c-2.6,2.8-5.8,5.1-8.1,8.2c-3.4,4.5-4.6,10.3-5.7,15.9c-1.6,8.2-3.2,16.5-2.5,24.8c0.4,4.2,1.3,8.3,1.5,12.5
						c0.4,8.4-2,16.7-4.5,24.8c-1.7,5.6-3.5,11.3-6.8,16c-2.4,3.1-5,5.9-7.8,8.5c-0.7,0.6-1.2,1.3-1.4,2.1c-0.6,2.4,2.3,4,4.5,5.1
						c6.7,3.4,11.1,9.9,16.4,15.3c5.2,5.4,12.7,10,19.9,7.9c2.1-0.6,4.2-1.9,6.4-1.8c1.5,0.1,3,0.5,4.4,1.1c3.5,1.2,7.3,1.9,11,1.8
						c0.8,0.1,1.7-0.1,2.4-0.5c1.1-0.8,1.3-2.3,1.4-3.6c0.7-8.4,1.4-16.8,0.9-25.2c-1.1-19-18.7-41-12-58.9
						c2.9-7.8,8.2-14.5,11.2-22.3c3.1-8.2,14-14.9,16.2-23.3c0.1-1,0.6-1.9,1.4-2.5c1.1-0.7,2.6-0.1,3.8,0.7
						c6.3,4.3,8.3,12.5,10.6,19.8c1.8,5.9,4.1,11.6,6.8,17.1c1.5,3,4.7,6.5,7.5,4.6c-1.4,12.6-9.6,23.6-11.5,36.2
						c-1.8,12.2,2.6,24.7,0.9,37c-1.1,7.9-4.7,15.2-10.2,21c6.2,1.2,12.6,1.3,18.9,0.2c6.3-1.1,13.1-4.1,15.4-10.2
						c2.5-6.6-1.4-13.7-3.3-20.5c-4.7-16.4-4.3-35.7-2.9-52.7c1.5-17.4,3.8-32.7-0.1-49.8c-0.8-4.2-2.1-8.3-3.8-12.3
						c-3.9-8.2-11.8-14-20.5-16c-4.5-1.1-9.1,0.6-13.2-0.2c-2.1-0.4-4-2.4-6-3.2C214.1,125.6,211.3,125,208.5,124.6z"/>
					<path class="st17" d="M266.5,280.3c-2.3,6-9.1,9-15.4,10.2c-6.2,1.1-12.6,1.1-18.9-0.2c5.5-5.8,9.1-13.1,10.2-21
						c1.7-12.2-2.7-24.8-0.9-37c1.9-12.6,10-23.6,11.5-36.2c-2.8,1.8-6-1.6-7.5-4.6c-2.7-5.5-5-11.2-6.9-17.1
						c-2.3-7.3-4.3-15.5-10.6-19.8c-1.1-0.8-2.6-1.4-3.8-0.7c-0.8,0.6-1.3,1.5-1.4,2.5c-2.2,8.5-13.1,15.1-16.2,23.3
						c-3,7.8-8.3,14.5-11.2,22.3c-6.7,17.9,10.9,39.9,12,58.9c0.5,8.4-0.2,16.8-0.9,25.2c-0.1,1.3-0.3,2.9-1.4,3.6
						c-0.7,0.4-1.5,0.6-2.4,0.6c-3.7,0-7.5-0.6-11-1.9c-1.4-0.6-2.9-1-4.4-1.1c-2.2,0-4.2,1.2-6.4,1.8c-7.2,2.2-14.7-2.5-19.9-7.9
						s-9.6-12-16.4-15.3c-2.2-1.1-5.1-2.7-4.5-5.1c0.3-0.8,0.8-1.5,1.4-2.1c2.8-2.6,5.5-5.5,7.8-8.5c3.4-4.8,5.1-10.4,6.8-16
						c2.5-8.1,5-16.3,4.5-24.8c-0.2-4.2-1.2-8.3-1.5-12.5c-0.7-8.3,0.9-16.6,2.5-24.8c1.1-5.6,2.3-11.3,5.7-15.9
						c2.3-3.1,5.5-5.4,8.1-8.2c3.9-4.2,6.4-9.6,9.5-14.4c3.2-4.8,7.4-9.4,13.1-10.6c3.4-0.7,7-0.2,10.4,0.4c2.8,0.4,5.5,1,8.2,2
						c2,0.8,3.9,2.8,6,3.2c4.2,0.8,8.8-0.9,13.2,0.2c8.7,2.1,16.6,7.9,20.5,16c0.8,1.6,1.4,3.3,1.9,5c0.7,2.4,1.3,4.9,1.9,7.3
						c0.1,0.5,0.2,1,0.3,1.6l0,0c3.4,16.2,1.2,28.1-0.3,45s-1.9,39.5,2.9,55.9C265.1,266.6,269,273.7,266.5,280.3z"/>
					<path class="st5" d="M213.2,309.7c0,0,3.7,6,3.7,10.2c0,0,2.8-10.2,5.1-10.2H213.2z"/>
				</g>
				<path class="st20" d="M516.5,642.8l127.8-13.1l1.6,25.2l-58.4,5.8c-4,0.3-8.1,0-12-0.9l-59-15.3c-0.5-0.1-0.7-0.6-0.6-1
					C515.9,643.1,516.2,642.9,516.5,642.8z"/>
				<path class="st21" d="M516.5,642.8l127.8-13.1l1.6,25.2l-58.4,5.8c-4,0.3-8.1,0-12-0.9l-59-15.3c-0.5-0.1-0.7-0.6-0.6-1
					C515.9,643.1,516.2,642.9,516.5,642.8z"/>
				<path class="st20" d="M516.5,642.3l128.8-13.1l1.6,25.2l-58.4,4.8c-4,0.3-8.1,0-12-0.9L516.4,644c-0.5,0-0.8-0.4-0.8-0.9
					S516.1,642.3,516.5,642.3L516.5,642.3z"/>
				<path class="st22" d="M547.1,643.2l68.1-6.9l0.8,13.3l-30.9,2.5c-2.1,0.2-4.3,0-6.3-0.5l-31.8-7.5c-0.2,0-0.4-0.2-0.4-0.5
					C546.6,643.4,546.8,643.2,547.1,643.2z"/>
				<path class="st20" d="M619.3,500.9l132-2c7.1,0.7,12.2,7,11.5,14.1c0,0.1,0,0.2,0,0.2l-15,124.7c-0.7,6.2-5.8,10.9-12,11.3
					l-135,8.4c-7.1,0.4-13.2-5-13.6-12.1c-0.1-0.9,0-1.8,0.1-2.6l17.9-131C606.2,505,612.4,500.1,619.3,500.9z"/>
				<path class="st21" d="M619.3,500.9l132-2c7.1,0.7,12.2,7,11.5,14.1c0,0.1,0,0.2,0,0.2l-15,124.7c-0.7,6.2-5.8,10.9-12,11.3
					l-135,8.4c-7.1,0.4-13.2-5-13.6-12.1c-0.1-0.9,0-1.8,0.1-2.6l17.9-131C606.2,505,612.4,500.1,619.3,500.9z"/>
				<path class="st20" d="M620.4,500.9l132-2c7.1,0.7,12.2,7,11.5,14.1c0,0.1,0,0.2,0,0.2l-15,124.7c-0.7,6.2-5.8,10.9-12,11.3
					l-135,8.4c-7.1,0.4-13.2-5-13.6-12.1c-0.1-0.9,0-1.8,0.1-2.6l17.9-131C607.3,505,613.5,500.1,620.4,500.9z"/>
				<circle class="st22" cx="685" cy="571.8" r="6.3"/>
				<circle class="st21" cx="570.9" cy="658" r="0.8"/>
			</g>
		</g>
	</g>
</g>
</svg>
