<?xml version="1.0" encoding="utf-8"?>
<!-- Generator: Adobe Illustrator 19.0.0, SVG Export Plug-In . SVG Version: 6.00 Build 0)  -->
<svg version="1.1" xmlns="http://www.w3.org/2000/svg" xmlns:xlink="http://www.w3.org/1999/xlink" x="0px" y="0px"
	 viewBox="-892 1079.1 1049.6 678.6" style="enable-background:new -892 1079.1 1049.6 678.6;" xml:space="preserve">
<style type="text/css">
	.st0{fill:#85848B;}
	.st1{fill:#6C63FF;}
	.st2{fill:#514E7F;}
	.st3{fill:#464353;}
	.st4{fill:#A1616A;}
	.st5{opacity:0.1;enable-background:new    ;}
	.st6{fill:#8DD070;}
	.st7{opacity:0.2;enable-background:new    ;}
	.st8{fill:#504F60;}
	.st9{fill:#33323D;}
	.st10{fill:#FBBEBE;}
	.st11{opacity:5.000000e-02;enable-background:new    ;}
	.st12{fill:#3F3D56;}
	.st13{fill:url(#SVGID_1_);}
	.st14{fill:#2D293D;}
	.st15{opacity:5.000000e-02;}
	.st16{fill:#FFCDD3;}
	.st17{fill:#575988;}
	.st18{opacity:0.1;}
	.st19{display:none;}
	.st20{display:inline;}
	.st21{fill:none;}
	.st22{fill:#FF0000;}
	.st23{font-family:'MicrosoftYaHei';}
	.st24{font-size:40px;}
	.st25{fill:none;stroke:#FF0000;stroke-width:4;stroke-miterlimit:10;stroke-dasharray:30;}
	.st26{fill:none;stroke:#FF0000;stroke-width:4;stroke-miterlimit:10;}
	.st27{fill:none;stroke:#FF0000;stroke-width:4;stroke-miterlimit:10;stroke-dasharray:32.8954,32.8954;}
	.st28{fill:none;stroke:#FF0000;stroke-width:4;stroke-miterlimit:10;stroke-dasharray:27.9453,27.9453;}
</style>
<g id="A312">
	<g>
		<g>
			<g>
				<g>
					<rect x="-892" y="1750" class="st0" width="1049.6" height="7.7"/>
				</g>
				<g>
					<path class="st1" d="M-466.8,1504.4c6.6,0.8,13.5,1.4,19.9-0.7c1-0.3,2.1-1,2-2c-0.1-0.4-0.2-0.7-0.5-1
						c-2.4-3.6-4.4-7.4-6-11.4c-0.1-0.2-0.2-0.4-0.4-0.5c-0.2-0.1-0.4-0.1-0.6,0c-2.9,0.8-5.5,2.7-8.4,3.5c-1.5,0.4-3,0.5-4.6,0.3
						c-1.3-0.2-3.1-1.2-4.3-1.1C-468.9,1495.9-467.3,1500-466.8,1504.4z"/>
					<path class="st1" d="M-341.4,1493.4c4.4-3,8.9-6.2,11.5-10.8c0.2-0.3,0.3-0.6,0.3-0.9c0-0.3-0.2-0.6-0.4-0.9
						c-2.5-3.9-5.6-7.3-9.3-10.1c-1.9,1.4-3.7,3-5.2,4.8c-1.1,1.2-4.1,3-4.2,4.8c0,1,1.2,2.2,1.7,3c0.7,1.1,1.4,2.2,2.1,3.3
						C-344.5,1487.1-341,1493.1-341.4,1493.4z"/>
					<path class="st2" d="M-440.8,1517.8c0.1,1-0.2,2.1-0.8,2.9c-0.5,0.5-1,0.8-1.7,1c-9.3,3.3-20-0.8-29.2,2.5
						c-1.9,0.7-3.7,1.6-5.6,2.3c-2.3,0.7-4.6,1.1-7,1.2c-3.3,0.3-6.6,0.5-9.8,0.6c-2.5,0.2-5,0-7.4-0.7c-2.5-0.6-4.5-2.3-5.7-4.5
						c-0.5-1-0.6-2.1-0.3-3.2c0.1-0.4,0.4-0.7,0.6-1c0.6-0.7,1.4-1.3,2.2-1.8l3.4-2.2c1.6-1.1,3.3-2.1,5.2-2.7
						c1.4-0.4,2.8-0.6,4.1-1c4.8-1.4,8.5-5.2,11.9-8.8l4.6-5c0.4-0.5,1-1,1.6-1.3c0.6-0.2,1.3-0.3,2-0.2c4.5,0.3,8.9,1.8,12.6,4.2
						c1,0.7,2,1.3,3.1,1.8c2.7,1.1,6.2,0.3,8.7-1.1c1.2-0.6,0.9-1,1.4-2.1s1.7-1.9,2.8-0.8c0.3,0.4,0.5,0.8,0.7,1.3
						c1,3.3,0.6,6.8,0.6,10.3c0,0.5,0,1.1,0.2,1.6c0.3,0.5,0.6,1,0.9,1.5c0.1,0.1,0.1,0.2,0.2,0.4
						C-440.8,1514.5-440.6,1516.2-440.8,1517.8z"/>
					<path class="st3" d="M-440.8,1517.8c0.1,1-0.2,2.1-0.8,2.9c-0.5,0.5-1,0.8-1.7,1c-9.3,3.3-20-0.8-29.2,2.5
						c-1.9,0.7-3.7,1.6-5.6,2.3c-2.3,0.7-4.6,1.1-7,1.2c-3.3,0.3-6.6,0.5-9.8,0.6c-2.5,0.2-5,0-7.4-0.7c-2.5-0.6-4.5-2.3-5.7-4.5
						c-0.5-1-0.6-2.1-0.3-3.2c0.1-0.4,0.4-0.7,0.6-1c0.5,1.1,0.9,2.6,1.3,3.2c0.9,1.6,2.5,2.8,4.3,3.1c1.4,0.1,2.7-0.1,4-0.5
						c8.4-2.1,17.3-2.1,25.4-5.3c2.8-1.1,5.4-2.5,8.3-3.2c2.9-0.7,6-0.5,9-0.7c4.7-0.4,9.3-1.8,14-2.6
						C-440.8,1514.5-440.6,1516.2-440.8,1517.8z"/>
					<path class="st2" d="M-320.1,1492.8c-0.4,3.5-2.7,6.5-5.1,9.1c-2.4,2.6-5.2,4.9-7.2,7.8c-2.4,3.7-3.5,8.2-6.6,11.3
						c-1.2,1.1-2.5,2.1-4,2.8c-1.6,1-3.4,1.8-5.2,2.4c-4.7,1.5-9.7,1.2-14.5,0.8c-1.6,0-3.1-0.3-4.6-0.9c-0.7-0.3-1.3-0.7-1.9-1.2
						c-1.2-0.8-2.2-1.8-3-3c-0.4-0.7-0.5-1.4-0.3-2.2c0.3-0.8,0.8-1.5,1.4-2.1c1.1-1.1,2.3-2.2,3.5-3.2c1.7-1.1,3.3-2.5,4.6-4
						c0.8-1.2,1.4-2.6,1.8-4c0.7-2.5,1.1-5.1,1.3-7.7c0-1.7,0.2-3.4,0.5-5.1c0.7-2.6,2.7-5,2.5-7.7c-0.1-0.4-0.1-0.8,0.1-1.2
						c0.2-0.3,0.6-0.5,0.9-0.6c1.5-0.6,3.1-1,4.8-1.1c1.7-0.1,3.3,0.5,4.4,1.7c0.7,0.8,1.1,2,2.1,2.3c0.5,0.1,1,0.2,1.5,0.1
						c2.5-0.2,5.1-0.6,7-2.2c1.8-1.6,2.9-3.9,2.9-6.4c0-0.9-0.4-1.9,1-2c1.1-0.1,1.9,1,2.4,1.7c2,2.6,4,5.3,4.7,8.5
						c0.3-0.1,0.6-0.2,0.9-0.2c1.3,0,2.5,0.6,3.2,1.6C-320.2,1489.7-319.9,1491.3-320.1,1492.8z"/>
					<path class="st3" d="M-320.1,1492.8c-0.4,3.5-2.7,6.5-5.1,9.1c-2.4,2.6-5.2,4.9-7.2,7.8c-2.4,3.7-3.5,8.2-6.6,11.3
						c-1.2,1.1-2.5,2.1-4,2.8c-1.6,1-3.4,1.8-5.2,2.4c-4.7,1.5-9.7,1.2-14.5,0.8c-1.6,0-3.1-0.3-4.6-0.9c-0.7-0.3-1.3-0.7-1.9-1.2
						c-1.2-0.8-2.2-1.8-3-3c0.9-0.5,2-0.7,3-0.7c2.2,0.1,3.7,2.2,5.8,2.8c3,0.9,5.9-1.2,8.9-1.9c2-0.5,4-0.3,5.9-1
						c1.6-0.6,3.1-1.5,4.4-2.7c1.8-1.3,3.4-2.8,4.7-4.5c1.1-1.7,2-3.6,2.8-5.5c1.6-3.7,3.4-7.2,5.6-10.6c0.3-0.5,0.7-1,1.1-1.5
						c0.5-0.4,1-0.7,1.5-1.1c2-1.5,2.8-4,3.5-6.4c0.2-0.7,0.5-1.5,0.8-2.2c1.3,0,2.5,0.6,3.2,1.6
						C-320.2,1489.6-319.9,1491.2-320.1,1492.8z"/>
					<path class="st4" d="M-529.8,1181c2.5,1.9,4.5,4.3,6,7c1.4,2.7,9.5,24,9,27.1c2.6-2.6,13-3.1,15.7-5.7c1.1-1.1,7.1-6.7,8-7.9
						c0.9-1.2,7.6-4,8.3-5.4c2.7-4.9-19.4-23.4-16.5-28.2c0.2-0.2,0.2-0.5,0.2-0.8c-0.1-0.2-0.2-0.4-0.4-0.6c-1.8-1.9-4.2-3-6.4-4.4
						s-4.3-3.3-4.9-5.8c-2.1,1-4,2.2-5.6,3.8c-4.1,3.5-8,7-12,10.6c-1.5,1.4-4.5,3.3-5.2,5.3C-534.4,1178.2-531.3,1179.8-529.8,1181
						z"/>
					<path class="st2" d="M-494.1,1173.1c-3.4,2.3-6.6,4.9-9.5,7.7c-2.7,2.7-5.3,5.9-6,9.6c-0.3,1.5-0.2,3-0.5,4.5
						c-1,6.6-6.7,11.4-9.2,17.5c-0.7,1.9-1.3,3.9-1.6,5.9c-0.7,3.8-1.1,7.6-1.1,11.5c-0.1,3.7,3.6,6.3,4.9,9.8s1.7,7.1,2.4,10.6
						c1.3,6.7,3.6,13.2,6,19.7c4.9,13.6,20.9,51.3,25.8,64.9c15.1-3.8,55.3-12.5,68.7-20.5c4.5-2.7-31-32.7-26.2-34.7
						c1-0.2,1.6-1.1,1.5-2c0-0.2-0.1-0.3-0.1-0.5c-4.8-20.9-19.7-38-26.5-58.3c-2.4-7-6.6-13.1-9.8-19.8c-2.9-6.1-4.5-12.8-7.9-18.6
						c-0.7-1.2-1.5-2.3-2.5-3.1c-0.9-0.7-1.8-1.2-2.8-1.7C-490.3,1174.6-492.1,1174.1-494.1,1173.1z"/>
					<circle class="st4" cx="-529" cy="1155" r="23.6"/>
					<path class="st3" d="M-505,1166.1c2.4-2.2,5.9-2.7,8.9-1.3c1.6,0.8,3,2.5,2.6,4.3l11.7,0.2c1.9-0.1,3.7,0.1,5.6,0.5
						c1.8,0.4,3.5,1.4,4.6,2.9c0.1,0.2,0.3,0.4,0.5,0.4s0.4-0.1,0.5-0.2c1.8-0.9,3.8-1.3,5.8-1c6.3,0.4,12.2,3.6,17.2,7.5
						c0.9,0.6,1.6,1.5,2,2.5c0.4,1.3-0.1,3,1,3.9c0,11,3.8,21.3,6.3,32c0.5,1.9,2.3,3.6,3.5,5.1c1.6,1.7,2.8,3.6,3.8,5.7
						c2.1,5.6-0.8,12.1,1.3,17.7c0.9,2.4,2.6,4.3,4,6.4c1.9,2.4,3.1,5.2,3.4,8.2c0.1,1.3-0.1,2.7,0,4c0.1,1.8,0.5,3.6,1,5.3
						c0.9,3.2,1.7,6.5,2.7,9.7c1.5,5.2,3.5,10.8,8.2,13.6c-11.2,1.9-23.1,3.8-33.8-0.1c-1.5-0.5-2.9-1.2-4.2-2.1
						c-3.9-2.8-5.7-7.5-7.4-11.9c-1.9-5-3.8-10.1-4.1-15.4c0-1.7-0.2-3.4-0.7-5c-1.1-2.9-4-4.6-6.6-6.3c-3-1.6-5.7-3.7-8-6.2
						s-3.5-5.9-3.2-9.3c0.2-1.6,0.9-3.2,0.9-4.9c0-1.7-0.7-3.6-2.3-4c-8.2-2.5-12.1-12.2-13.9-20.5c-0.8-4.3-1.1-8.7-1-13.1
						l-0.1-8.5c-2.3-2.1-3.6-5-3.7-8.1c0.1-0.9,0.1-1.8,0-2.7c-0.4-1.1-1-2.1-1.9-2.9C-502.3,1170.5-503.8,1168.4-505,1166.1z"/>
					<path class="st3" d="M-530.1,1193.1c-0.3,2.6,0.3,5.4-0.3,7.9c-0.2,1-0.6,2-0.9,2.9c-0.9,3.7-0.5,7.6,1.1,11.1
						c1.6,3.5,3.5,6.7,5.7,9.9c0.7,1.1,1.4,2.2,1.8,3.4c0.4,1.3,0.6,2.6,0.7,3.9c0.6,5.3,1.5,10.5,2.8,15.7
						c1.1,4.5,13.8,42.8,16.8,46.3c0.5,0.8,1.4,1.3,2.3,1.5c0.7,0,1.3-0.1,1.9-0.4l6-2.3c0.5-0.2,1-0.4,1.4-0.8
						c0.6-0.7,0.9-1.5,0.9-2.4c0.4-4.9-12.3-43.5-13.9-48.1c-4.9-13.9-11.4-27.3-14.6-41.7c-0.9-4-1.4-10.2-4.3-13.4
						c-1.2-1.3-0.8-0.8-2.2-0.1c-0.7,0.3-1.4,0.7-2.1,1.1C-528.9,1189.1-530,1191-530.1,1193.1z"/>
					<path class="st3" d="M-414.7,1279.8"/>
					<path class="st1" d="M-511.9,1219.5c1.6,8.5,3.3,17,4.9,25.5l23.5-6.1c0.2-2.5-1.1-4.7-2-7c-2.1-5.4-2.2-11.4-3.9-16.9
						c-1.3-4.2-3.6-8.1-4.8-12.3c-0.7-2.5-1.1-5-1.8-7.5c-0.8-2.4-1.7-4.8-2.8-7.1c-1.3-3.4-3-6.5-5.1-9.5c-3,1.1-6.2,2.4-7.9,5.1
						c-0.9,1.5-1.4,3.2-1.5,5c-0.4,5.3,1.5,10.6,0.9,15.8C-513.1,1209.5-512.9,1214.6-511.9,1219.5z"/>
					<path class="st3" d="M-483.1,1332.7c1.3,5-0.6,10.3-2.1,15.2c-2.3,7.5-3.9,15.1-4.8,22.9c-0.1,2-0.5,3.9-1.2,5.8
						c-0.7,1.7-2,3.1-2.9,4.7c-2.4,4.2-2.3,9.3-1.8,14.1c0.3,3.1,0.9,6.3,1.5,9.4c0.8,3.8,1.7,7.8,0.6,11.5c1.9-0.4,3.1,2,3,3.9
						s-0.7,4,0.2,5.6c2.3,0.8,2.3,4,2.2,6.5c0,4.2,0.6,8.5,1.6,12.6c3.5,16.7,7.2,33.4,11.1,50.1c8.5,2.6,18.3,5.3,26.4,1.7
						c1.5-0.7,3-1.7,3.3-3.4c0.1-0.9,0-1.8-0.3-2.6l-3.8-13.9c-0.9-3.4-1.9-6.8-1.4-10.3c0.4-2.6,1.5-5.3,0.2-7.6
						c-0.4-0.8-1.1-1.4-1.6-2.1c-2-2.9-1-6.9-0.8-10.4c0.1-0.8,0-1.6-0.2-2.4c-0.3-0.9-0.7-1.8-1.1-2.6c-3.2-6.1-4.7-13-4.4-19.9
						c0.1-0.9,0-1.8-0.4-2.6c-0.2-0.3-0.5-0.7-0.6-1.1c-0.1-0.6-0.1-1.3,0.2-1.9c-1.1-0.9-2.2-1.9-3.1-3c2-1.3,2.6-3.9,1.4-5.9
						c-0.2-0.3-0.4-0.6-0.6-0.8c1.2-0.2,2-1.4,1.8-2.6c-0.1-0.5-0.3-0.9-0.7-1.2c-0.5-0.3-1.1-0.5-1.5-1c-0.5-0.7-0.1-1.8,0.3-2.6
						l2.3-4.2c1.7-3.1,2.1-7,4-10c2.7-4.4,4.4-9.2,6.2-14.1l6.7-18.6l4.5,3.9c1.5,1.2,2.8,2.6,3.7,4.2c0.6,1.6,1.1,3.3,1.2,5.1
						c1.7,10.1,8,18.8,10.3,28.8c0.5,2.2,0.9,4.5,2.1,6.4c0.5,0.6,0.9,1.2,1.2,1.8c0.3,1,0.5,2,0.5,3c0.4,4.1,2.6,7.8,6,10.2
						c2.2,1.5,5,2.6,6.2,5c0.2,0.7,0.6,1.5,1,2.1c1.1,1.3,3.4,1.5,3.9,3.1c0.3,0.9-0.2,2,0.3,2.8c0.3,0.4,0.7,0.7,1.1,0.8l6.5,3.2
						c7.3,3.6,11,12,16.4,18.1c1.9,2,3.5,4.2,4.9,6.5c2.3,4.1,3.4,9.4,7.3,12c1.1,0.5,2,1.3,2.8,2.1c1.2,1.6,0.8,3.9,0.9,5.9
						s1.7,4.5,3.6,3.8c-0.7,2.5-0.7,5.1,0,7.5c8.5-0.4,16.6-3.7,23.1-9.3c1.9-1.7,3.7-3.8,3.8-6.3c0-0.4-0.1-0.9-0.3-1.2
						c-0.4-0.5-0.9-0.9-1.5-1.1c-6.1-3.3-7.9-11-11-17.2c-2.7-5.5-6.7-10.2-10-15.3c-7.2-11-12.2-24.2-23.1-31.4
						c-2.4-1.6-5.2-3-6.4-5.6c-0.7-1.5-0.8-3.1-1.3-4.7s-1.8-3-3.4-3c0.9-2.2,0.7-4.9,0.8-7.3c0.1-1.1-0.1-2.1-0.4-3.1
						c-0.4-1.1-1-2.1-1.6-3.1c-2.9-4.8-4.3-10.4-4.1-16c0.1-2.9,0.6-5.9-0.3-8.6c-0.4-1.4-1.2-2.7-1.7-4c-0.8-2.4-1.2-5-1.2-7.5
						l-0.6-9.6c-0.1-3.2-0.5-6.4-1.2-9.5c-2-7.5-4-38.7-10.8-42.2s-18.6,20.5-26.3,21c-3.4,0.1-6.8,0.8-10,1.9
						c-5.1,1.9-9.4,5.5-13.6,9l-14.2,11.9C-477.4,1328.6-479.8,1331-483.1,1332.7z"/>
					<path class="st3" d="M-551.2,1128.7c3.1-4.3,8.5-6.5,13.8-6.7c5.3-0.2,10.5,1.5,15.2,3.8c1.4,0.8,2.9,1.4,4.4,1.8
						c2.5,0.5,5.3-0.2,7.5,1c3,1.6,3.6,5.6,3.3,9s-0.9,7.1,0.9,10c0.6,0.8,1.2,1.7,1.7,2.6c0.8,1.7,0.3,3.7-0.1,5.6
						c-1.2-1-1.8-2.5-2.9-3.7c-1.1-1.2-2.9-1.9-4.1-1.1c-1.2,0.8-1.3,2.4-1.3,3.9s-0.4,3.1-1.8,3.6c-1.1,0.3-2.3-0.2-3-1.2
						c-2.3-2.8-1.4-7.3-3.6-10.1c-1.3-1.6-3.4-2.4-4.6-4.1c-0.9-1.3-1.2-3-2-4.4c-0.8-1.4-2.7-2.5-4-1.5c-0.4,0.4-0.8,0.9-1.1,1.4
						c-1.6,2.3-4.7,3.2-7.3,2.2c-1-0.6-2-1.1-3.2-1.4c-1.5-0.1-2.9,0.7-3.6,2c-0.7,1.3-1.1,2.7-1,4.2c0,2,0.4,4.1-0.8,5.7
						c-0.4,0.6-1,1.1-1.6,1.5c-1.7,1.1-4,1.8-5.5,0.6c-1.1-1-1.5-2.5-1.2-3.9c0.3-1.4,0.7-2.8,1.2-4.1c0.9-3.1-0.3-6.6,0.7-9.5
						C-554.3,1133.4-552.9,1130.9-551.2,1128.7z"/>
					<path class="st1" d="M-538.5,1199.2c-0.2,0.7-0.1,1.5,0.2,2.2c0.3,0.5,0.7,0.9,1.2,1.1c3.4,2.1,7.2,3.3,11.1,3.6
						c0.5,0,1.1,0.1,1.5,0.4c0.9,0.6,1,2,0.6,3.1c-0.5,1-0.7,2.2-0.7,3.3c0.3,2.1,2.8,3,4.9,3.3c2.9,0.4,6.1,0.2,8.5-1.6
						c1.6-1.4,2.8-3.2,3.5-5.2c5.7-13.2,7.8-27.8,13.6-40.9c0.4-0.9,0.7-1.8,0.9-2.7c0.1-1-0.3-1.9-1.1-2.5
						c-1.1-0.7-2.8-0.3-3.5-1.3c-0.4-0.5-0.3-1.2-0.6-1.8c-0.7-1.2-2.4-1-3.6-1.7c-0.9-0.5-1.6-1.5-2.6-1.7c-1-0.1-2.1,0.4-2.7,1.2
						c-3.4,3.2-5.2,7.7-7.1,11.9c-2.9,6.5-6.3,12.8-10.2,18.8c0.5-0.7-2.2-6-3.2-6.2c-1.8-0.4-4.1,2.8-5,3.9
						C-536,1190-538,1194.5-538.5,1199.2z"/>
					<path class="st5" d="M-502.2,1159.3c-1.5,0-2.8,0.7-3.7,1.9c-1.1,1.4-1.3,3.2-1.5,5c-0.9,5.6-2.9,11-5.9,15.8"/>
					<path class="st5" d="M-497.1,1163.3c-2,0-3.9,1.2-4.9,2.9c-0.7,1.6-1.1,3.2-1.2,4.9c-0.9,3.8-2.5,7.3-4.9,10.4"/>
					<path class="st6" d="M-648,1297.3c0,0-1.4,86.9,14,115.4s22,152.9,22,152.9s161.4,16.7,273.9-20
						c112.5-36.7,351.9-51.7,351.9-51.7L-26.5,1222c0,0-199.3-12.8-312.7,41.3S-648,1297.3-648,1297.3z"/>
					<path class="st5" d="M-648,1297.3c0,0-1.4,86.9,14,115.4s22,152.9,22,152.9s161.4,16.7,273.9-20
						c112.5-36.7,351.9-51.7,351.9-51.7L-26.5,1222c0,0-199.3-12.8-312.7,41.3S-648,1297.3-648,1297.3z"/>
					<path class="st6" d="M-612.2,1329.1c0,0-5,71.7,7.6,94.6c12.6,22.9,13.3,125.1,13.3,125.1s145.3,6.7,248.6-28.4
						c103.3-35.1,320.5-58,320.5-58L-46.9,1240c0,0-179.7-1.9-284.6,47.7S-612.2,1329.1-612.2,1329.1z"/>
					
						<ellipse transform="matrix(-0.9923 0.1236 -0.1236 -0.9923 -510.3198 2830.1277)" class="st5" cx="-343" cy="1399.2" rx="37.7" ry="80.9"/>
					<path class="st7" d="M-135.8,1089.6c0,0-193.6,49-284.9,135.2C-512,1311-704.2,1352-704.2,1352s25.3,83.1,48.7,105.6
						s67.8,138.8,67.8,138.8s158.9-33.7,254.7-103.2S-13.9,1336-13.9,1336L-135.8,1089.6z"/>
					<path class="st6" d="M-707.1,1339.5c0,0,25.3,83.1,48.7,105.6c23.4,22.5,67.8,138.8,67.8,138.8s158.9-33.6,254.7-103.1
						s319-157.2,319-157.2l-121.8-246.4c0,0-193.6,49-284.9,135.2C-514.9,1298.6-707.1,1339.5-707.1,1339.5z"/>
					<path class="st5" d="M-707.1,1339.5c0,0,25.3,83.1,48.7,105.6c23.4,22.5,67.8,138.8,67.8,138.8s158.9-33.6,254.7-103.1
						s319-157.2,319-157.2l-121.8-246.4c0,0-193.6,49-284.9,135.2C-514.9,1298.6-707.1,1339.5-707.1,1339.5z"/>
					<path class="st6" d="M-663.4,1358.8c0,0,17.2,69.8,36.3,87.7c19.1,17.9,51,115,51,115s140.3-38.2,227.9-103.4
						c87.6-65.2,287.3-153.5,287.3-153.5l-91.7-204.1c0,0-171.6,53.4-256.2,132.7C-493.4,1312.5-663.4,1358.8-663.4,1358.8z"/>
					
						<ellipse transform="matrix(-0.9065 0.4221 -0.4221 -0.9065 -168.2892 2723.2249)" class="st5" cx="-385.6" cy="1343" rx="37.7" ry="80.9"/>
					<path class="st4" d="M-413.7,1280.6c-2,1.7-3.8,3.6-5.4,5.7s-2.5,4.6-2.5,7.3c0,0.8,0.3,1.5,0.7,2.1c0.5,0.6,1.3,0.9,2,0.6
						c0.4-0.2,0.7-0.5,1-0.9c1.1-1.3,2.2-2.5,3.4-3.6c0.4-0.4,1-0.9,1.6-0.7c0.3,0.1,0.5,0.2,0.7,0.5c0.7,0.6,1.2,1.3,1.4,2.2
						c0.3,1.5-0.5,3.1-1.5,4.3s-2.2,2.4-2.6,3.9c-0.2,0.4-0.2,0.8,0,1.2c0.2,0.3,0.5,0.5,0.8,0.7c2.9,1.6,6.4,1.8,9.4,0.6
						c2-0.8,3.8-2.2,5.8-2.9c0.9-0.2,1.8-0.6,2.6-1c1.2-0.8,2-2,2.3-3.4s0.3-2.8,0.2-4.2c-0.2-5.4-1.4-10.8-3.4-15.8
						c-0.1-0.3-0.3-0.6-0.6-0.8c-0.3-0.2-0.6-0.3-1-0.3c-2.6-0.3-6.8-1.6-9.2-0.6c-0.9,0.5-1.6,1.1-2.2,1.9
						C-410.8,1277.7-413.7,1280-413.7,1280.6z"/>
					<path class="st3" d="M-414.5,1278.4c0-2.4-3-8.3,1.8-8.7c0-2.6-3.7-4.2-3-7c0.2-0.9,1-1.7,1.1-2.6c0.3-2.7-4.5-4.1-3.7-6.7
						c0.3-1,1.4-1.6,1.6-2.6c0.5-2.3-3.6-3.3-3.7-5.7c0-0.8,0.5-1.5,0.4-2.4c0-1-0.9-1.8-1.3-2.6c-1.2-2.2-0.6-5.7-2.9-6.8
						c1.5,0.1,2-2.1,1.4-3.5s-1.9-2.6-1.9-4.1c0.1-0.6,0.1-1.1,0-1.7c-0.4-1.5-2.8-1.6-3.2-3c-0.1-0.5-0.1-1.1,0-1.6
						c-0.2-1.1-1.3-1.9-2.4-2.2c-1.1-0.2-2.2-0.6-3.2-1.1c-0.7-0.5-1.5-1.4-2.3-1c-0.3,0.2-0.4,0.5-0.6,0.7c-0.9,1-2.6,0.6-3.8-0.2
						c-3.3-2.3-5-6.3-5.7-10.3s-0.7-8.1-1.6-12c-0.3-1.2-0.6-2.4-1.1-3.6c-0.4-1-1.6-2.6-1.7-3.6c-0.2-2.3,4.6-0.7,6.4-0.5
						c1.8,0.2,3.5,0.5,5.2,1c1.8,0.7,3.6,1.5,5.3,2.3c7.2,3.2,15.9,3.6,21.7,8.9c1.9,1.8,3.5,4.1,6,4.9c1.1,0.2,2.3,0.5,3.4,0.9
						c2.8,1.3,3.2,4.9,4.7,7.6c0.5,0.7,0.9,1.4,1.2,2.2c0.3,0.9,0.4,1.9,0.4,2.8l0.2,6.9c0.3,11.6,0.7,23.2-0.6,34.8
						c-0.4,3.8-1,7.7,0.1,11.4c0.3,1,0.7,1.9,1,3c0.2,1.2,0.4,2.4,0.4,3.6l0.2,4.5c0.1,0.3,0,0.7-0.2,1c-0.3,0.3-0.8,0.4-1.2,0.3
						c-6.2-0.6-12.6-4.1-18.5-2"/>
				</g>
				<g>
					<path class="st5" d="M-282.6,1367.7v345c0,16.5-13.4,29.8-29.8,29.8l0,0h-513c-16.5,0-29.8-13.4-29.8-29.8v-379.8
						c14.7,5.5,14.7,5.5,29.8,5h513C-296,1337.9-282.6,1351.2-282.6,1367.7z"/>
					<path class="st8" d="M-282.6,1367.7v345c0,16.5-13.4,29.8-29.8,29.8h-513c-16.5,0-29.9-13.4-29.9-29.8v-379.8
						c14.7,5.5,14.7,5.5,29.8,5h513C-296,1337.9-282.6,1351.2-282.6,1367.7z"/>
					<path class="st5" d="M-284.1,1499.6v110.3h-107c-30.5-0.4-54.8-25.4-54.4-55.9c0.4-29.9,24.5-54,54.4-54.4H-284.1z"/>
					<path class="st9" d="M-282.6,1492.3v110.4h-107c-30.5-0.4-54.8-25.4-54.4-55.9c0.4-29.9,24.5-54,54.4-54.4L-282.6,1492.3z"/>
					<circle class="st5" cx="-384.5" cy="1554.8" r="21.5"/>
					<circle class="st1" cx="-383" cy="1547.5" r="21.5"/>
					<path class="st9" d="M-295.9,1351.1v-12.4c0-19-15.4-34.5-34.5-34.5h-490.4c-19,0-34.5,15.4-34.5,34.5v22.9L-295.9,1351.1z"/>
				</g>
				<g>
					<path class="st8" d="M-45.4,1591.4c0,5.9-34.4,23.1-75.2,23.1s-72.7-17.2-72.7-23.1c0-5.9,33.1-4,74-4
						S-45.4,1585.5-45.4,1591.4z"/>
					<path class="st7" d="M-45.4,1590.1c0,5.9-34.4,23.1-75.2,23.1s-72.7-17.2-72.7-23.1"/>
					<path class="st10" d="M-50.5,1476.4c0.8,9.2-6.1,18.2-4.1,27.2c0.4,1.9,1.3,3.8,1.6,5.7c0.8,5.4-2.3,10.4-5.4,14.9l-26.2,38.4
						c-1,1.7-2.3,3.2-3.7,4.6c-5,4.5-12.5,4-19.1,5.3c-4.6,0.9-9,2.9-12.8,5.7c-0.3,0.3-0.4,0.8-0.1,1.1c2.2,3,5.8,4.7,9.5,4.5
						c0.7,0.9,0,2.2-1,2.9c-1.4,1-3.3,1.2-3.6,3.6c-0.1,0.8,0.1,1.7,0.5,2.4c1.1,1.6,2.7,2.8,4.6,3.2c9.1,2.8,18.9-2.1,25.7-8.7
						c6.8-6.6,11.7-15,18.3-21.8c3.7-3.7,7.9-6.9,11.7-10.5c7.6-7.2,13.5-16,19.2-24.8c1.7-2.7,3.4-5.4,4.2-8.4s0.4-6.2,1.2-9.1
						c1.1-3.9,3.9-7,6.3-10.3c4.7-6.4,7.8-14.2,7.1-22.1c-0.7-7.9-5.5-15.7-12.9-18.3c-2.3-0.9-4.8-1.1-7.2-0.4
						c-3,0.9-5.3,3.5-7.4,5.9l-5,5.8c-1.2,1.3-2.2,2.8-2.9,4.4c-0.7,1.7-0.3,3.6,1,4.9"/>
					<path class="st11" d="M-50.5,1476.4c0.8,9.2-6.1,18.2-4.1,27.2c0.4,1.9,1.3,3.8,1.6,5.7c0.8,5.4-2.3,10.4-5.4,14.9l-26.2,38.4
						c-1,1.7-2.3,3.2-3.7,4.6c-5,4.5-12.5,4-19.1,5.3c-4.6,0.9-9,2.9-12.8,5.7c-0.3,0.3-0.4,0.8-0.1,1.1c2.2,3,5.8,4.7,9.5,4.5
						c0.7,0.9,0,2.2-1,2.9c-1.4,1-3.3,1.2-3.6,3.6c-0.1,0.8,0.1,1.7,0.5,2.4c1.1,1.6,2.7,2.8,4.6,3.2c9.1,2.8,18.9-2.1,25.7-8.7
						c6.8-6.6,11.7-15,18.3-21.8c3.7-3.7,7.9-6.9,11.7-10.5c7.6-7.2,13.5-16,19.2-24.8c1.7-2.7,3.4-5.4,4.2-8.4s0.4-6.2,1.2-9.1
						c1.1-3.9,3.9-7,6.3-10.3c4.7-6.4,7.8-14.2,7.1-22.1c-0.7-7.9-5.5-15.7-12.9-18.3c-2.3-0.9-4.8-1.1-7.2-0.4
						c-3,0.9-5.3,3.5-7.4,5.9l-5,5.8c-1.2,1.3-2.2,2.8-2.9,4.4c-0.7,1.7-0.3,3.6,1,4.9"/>
					<path class="st12" d="M-30.7,1713.5c-5.7,3.5-12.8,3.7-19.5,2.9c-1.1-0.1-2.3-0.2-3,0.6c-1,1.2,0.2,3,1.4,3.9
						c3.9,2.9,8.5,4.8,13.4,5.5c4.3,0.6,8.7,0.9,13.1,0.9c12,0.2,24,0.4,35.8-1.3c0.7-0.1,1.4-0.3,2-0.6c0.8-0.5,1.3-1.3,1.5-2.2
						c0.8-3.1-0.8-6.4-3.1-8.5s-5.4-3.3-8.3-4.5l-10.4-4c-2.4-1-6.3-3.5-9-3.3C-21.8,1703.2-26.5,1711.1-30.7,1713.5z"/>
					<path class="st11" d="M-30.7,1713.5c-5.7,3.5-12.8,3.7-19.5,2.9c-1.1-0.1-2.3-0.2-3,0.6c-1,1.2,0.2,3,1.4,3.9
						c3.9,2.9,8.5,4.8,13.4,5.5c4.3,0.6,8.7,0.9,13.1,0.9c12,0.2,24,0.4,35.8-1.3c0.7-0.1,1.4-0.3,2-0.6c0.8-0.5,1.3-1.3,1.5-2.2
						c0.8-3.1-0.8-6.4-3.1-8.5s-5.4-3.3-8.3-4.5l-10.4-4c-2.4-1-6.3-3.5-9-3.3C-21.8,1703.2-26.5,1711.1-30.7,1713.5z"/>
					<path class="st3" d="M-23.4,1575.5c-4.3,5.8-8.8,12.4-7.7,19.5c0.6,3.8,2.7,7.2,4.3,10.8c2.1,4.8,3.3,10,4.4,15.2
						c1.6,7.5,3.2,15.1,4.2,22.8c1.1,8.7-4.2,33.7-4.7,42.4c-0.1,2.1-0.4,4.4-1.8,5.9c-0.6,0.6-1.3,1.1-1.6,1.9
						c-0.2,0.8,0,1.5,0.3,2.2c2.4,5.5,7.4,9.6,13,11.9s19,6.4,25.1,6.6c0.8,0.1,1.6,0,2.4-0.3c0.8-0.5,1.4-1.2,1.8-2.1
						c4.3-8.3,0.2-37.9,0.2-47.3c0.1-7.8,1.9-15.6,1.6-23.4c-0.3-6.3-2-12.4-2.6-18.7c-1-10.3,0.9-20.6,2.8-30.7
						c1.4-7.8,2.9-15.6,4.7-23.2c1.1-4.7,2.4-9.4,5-13.5c2-3.2,4.8-5.9,7.1-9c6.5-8.5,9.3-19.2,8-29.7c-0.1-1-15,3.8-16.3,4.3
						c-5.3,2.3-10.3,5.4-14.5,9.3c-3.4,3.3-6.2,7.7-9.2,11.3c-4.3,5.2-8.5,10.4-12.6,15.7C-14.2,1563.3-18.8,1569.4-23.4,1575.5z"/>
					<path class="st11" d="M-23.4,1575.1c-4.3,5.8-8.8,12.4-7.7,19.5c0.6,3.8,2.7,7.2,4.3,10.8c2.1,4.8,3.3,10,4.4,15.2
						c1.6,7.5,3.2,15.1,4.2,22.8c1.1,8.7-4.2,33.7-4.7,42.4c-0.1,2.1-0.4,4.4-1.8,5.9c-0.6,0.6-1.3,1.1-1.6,1.8
						c-0.2,0.8,0,1.5,0.3,2.2c2.4,5.5,7.4,9.6,13,12s19,4.5,25.1,4.7c0.8,0.1,1.6,0,2.4-0.3c0.8-0.5,1.4-1.2,1.8-2.1
						c4.3-8.3,0.2-36,0.2-45.4c0.1-7.8,1.9-15.6,1.6-23.4c-0.3-6.3-2-12.4-2.6-18.7c-1-10.3,0.9-20.6,2.8-30.7
						c1.4-7.8,2.9-15.5,4.7-23.2c1.1-4.7,2.4-9.4,5-13.5c2-3.2,4.8-5.9,7.1-9c6.5-8.5,9.3-19.2,8-29.7c-0.1-1-15,3.8-16.3,4.3
						c-5.3,2.3-10.3,5.4-14.5,9.4c-3.4,3.3-6.2,7.7-9.2,11.3c-4.3,5.2-8.5,10.4-12.6,15.7C-14.2,1563-18.8,1569-23.4,1575.1z"/>
					<circle class="st10" cx="-71.5" cy="1424.3" r="24.3"/>
					<path class="st10" d="M-49.7,1423.3c4.5,7.2,11.8,12.3,20.2,14.1l-1.8,6.6c-3.2,11.4-6.7,23.5-15.5,31.4c1-3.9-0.3-8-2.5-11.4
						s-5.2-6-8.2-8.6l-14-12.1c-0.4-0.3-0.7-0.7-1-1.2c-0.3-0.9-0.3-1.8,0-2.7c1.8-5.5,6.9-9,11-12.7c2.1-1.9,3.9-4.1,5.5-6.4
						C-53.2,1416.4-51.5,1420.4-49.7,1423.3z"/>
					<path class="st3" d="M-103.5,1399.9l-0.5-4.6c3.8,1,7.5-2.3,9.9-5.6s4.7-7.3,8.5-8.8c4.5-1.7,9.3,1,13.7,3.3
						c4.8,2.7,10.2,4.4,15.7,5.1c0.9,0,1.7,0.2,2.6,0.4c2.8,1,4.2,4.5,4.6,7.8c0.4,3.3,0.3,6.6,1.7,9.5c1,2.2,2.9,3.8,4,5.9
						c3,5.7,0.1,13.6,3.2,19.2l-7.8-7.1c-0.7-0.6-1.7-1.3-2.5-0.8c-0.6,0.4-0.7,1.4-0.9,2.1c-0.8,2.2-3.5,2.9-5.5,2s-3.5-2.8-5-4.5
						c-3.4-4.1-7.5-7.6-12.3-9.4c-4.3-1.6-9-1.3-13,0.9c-3.6,2-6.3,6.8-10.7,7c-6.1,0.2-8.6-11.1-11.5-15.6c2.1-1.6,2.8-4.5,1.6-6.9
						C-107.6,1399.7-103.6,1399.2-103.5,1399.9z"/>
					<ellipse class="st8" cx="-119.3" cy="1590.1" rx="74" ry="10.7"/>
					<path class="st12" d="M-2.4,1713.4c-4.8,4.3-11,6.6-17.5,6.5c-1.6,0-3.9,0.3-3.9,2c0,0.5,0.2,0.9,0.5,1.3c2,3.4,5.2,5.9,9,7.1
						c3.5,1.1,7.2,0.9,10.9,0.7l10.7-0.5c2-0.1,4-0.2,6-0.5c2-0.3,4.2-0.7,6.3-1c5.1-0.7,10.3-1,15.5-0.7c1.4,0,3,0,3.8-1
						s0.4-2.9,0.1-4.4c-0.6-3.1,0-6.3-0.6-9.4c-1-5.4-5.7-9.6-10.9-11.6c-4.8-1.8-13.3-3.9-17.8-0.9C4.9,1704.1,2,1709.4-2.4,1713.4
						z"/>
					<path class="st3" d="M8.2,1531.1c0.9,4.5,5.3,7.9,5.4,12.5c0.1,3.7-2.5,6.7-4.4,9.9c-1.8,3.2-3.3,6.6-4.5,10.1
						c-3.5,9.1-7.9,17.8-13.1,26.1c-2.5,4-5.3,8.3-4.7,12.9c0.4,2.2,1.2,4.3,2.3,6.2l7.5,14.9c1.6,3,2.9,6.1,3.8,9.4
						c0.7,2.8,0.7,5.8,1.1,8.6c1.2,9.1,5.5,18.3,2.9,27.2c-0.2,0.8-1,1.7-1.6,1.2c2.5,4.6,4.5,9.3,4.3,14.5
						c-0.1,2.8-0.9,5.6,0.1,8.2c0.4,1.1,1.2,2.1,1.2,3.2c0,0.8-0.3,1.5-0.4,2.2c-0.2,2.1,1.7,3.9,3.7,4.5s4.2,0.6,6.2,1.2
						c3.9,1.2,6.7,4.5,10,6.9c3.4,2.3,7.4,3.6,11.5,3.8c0.6,0.1,1.2-0.1,1.7-0.3c0.6-0.5,0.9-1.3,0.9-2.1c0.4-3.8-1.2-7.5-4.1-9.9
						c-0.6-0.4-1.2-0.9-1.5-1.6c-0.2-0.6-0.2-1.2-0.1-1.8c0.6-8.2,0.5-16.4-0.4-24.6c-0.4-2.6-0.5-5.2-0.4-7.8
						c0.2-2.2,0.9-4.3,0.6-6.5c-0.3-2.2-1.3-4.2-2-6.2c-1.2-3.7-0.8-7.7-1-11.6c-0.2-6.8-1.8-13.4-3.3-20c-0.6-2.6-1.3-5.3-3.1-7.2
						c-1.6-1.6-4.1-3.2-3.5-5.4c0.3-0.8,0.8-1.5,1.4-2.1c1.5-1.8,2.1-4.2,1.8-6.5c1.4,0.3,2.8-0.3,3.4-1.6c12.2-5.8,22-17.2,26.4-30
						c0.3-0.9,0.7-1.9,1.2-2.7c1.1-1.6,3.1-2.3,4.8-3.1c5.5-2.8,9.2-7.9,12.7-12.9c2-2.9,4-5.9,4.9-9.4c0.5-2.2,0.7-4.5,0.7-6.8
						l0.3-11.8c0.1-0.8,0-1.6-0.2-2.3c-0.3-0.7-0.7-1.3-1.3-1.9c-3.3-3.5-7.7-5.9-12.5-6.7c-3.2-0.6-6.5-0.5-9.7-0.7
						c-6.3-0.5-12.5-2.5-18.8-2c-9.9,0.7-18.7,7.6-23.3,16.3C13.4,1528.4,11.7,1531,8.2,1531.1z"/>
					<path class="st1" d="M-46.6,1454.7c0.1,1.8-0.1,3.6-0.7,5.3c-0.8,1.6-2.7,2.9-4.4,2.2c0.5-1.2-0.8-2.5-2.1-2.3
						c-1.3,0.3-2.3,1.2-2.8,2.4c-0.8,1.7-1.1,3.6-0.8,5.4c0.4,2.3,1.7,4.5,1.4,6.8c-0.3,1.9-1.7,3.8-0.9,5.6
						c0.5,0.8,1.1,1.5,1.8,2.2c2.1,2.5,1.8,6.2-0.7,8.4l18.9,0.4c-0.7,3.2,0.7,6.4,2.3,9.2c9.2,15.7,25.2,26.1,43.2,28.2
						c-1.8,1-2.4,3.3-1.4,5.1c0.1,0.2,0.3,0.4,0.4,0.6c1.5,1.5,4.2,1.3,6.1,0.3s3.4-2.6,5.2-3.9c3.1-2.2,6.9-3.2,10.7-2.9
						c2.4,0.2,4.7,1,7,1.1c7,0.4,13-4.7,19.7-6.7c4.9-1.5,10.5-1.5,14.6-4.6c1.8-1.3,3.2-3.5,2.7-5.6c-0.4-1.2-1.1-2.4-2-3.3
						c-2.4-3.1-3.8-6.8-5.5-10.2c-3.4-6.9-8-13.1-13.7-18.3c-4.3-3.7-8.8-7.2-13.6-10.3c-1.1-0.8-2.4-1.6-3.7-2.2
						c-1.7-0.7-3.5-1.1-5-2c-2.2-1.4-3.5-3.9-5.2-5.9c-3.8-4.4-9.5-6.4-14.1-9.8c-3.1-2.3-5.8-5.4-9.5-6.5c-1.8-0.5-3.7-0.6-5.5-1.1
						c-4.1-1.2-7.1-4.9-11.1-6.3c-3.2-1.2-6.7-0.9-10-1.3c-3.8-0.5-7.3-1.8-10.4-4c-1-0.8-2.1-1.5-3.3-1.9c-5.1-1.5-5.5,7.9-6,11.2
						C-45.4,1445-46.6,1449.8-46.6,1454.7z"/>
					<path class="st10" d="M-41.6,1486.4c0.8,9.2-6.1,18.2-4.1,27.2c0.4,1.9,1.3,3.8,1.6,5.7c0.8,5.3-2.3,10.4-5.4,14.9l-26.3,38.4
						c-1.1,1.7-2.3,3.2-3.7,4.6c-5,4.5-12.5,4-19.1,5.3c-4.6,0.9-9,2.9-12.8,5.7c-0.4,0.3-0.4,0.8-0.2,1.2c2.2,3,5.8,4.7,9.5,4.5
						c0.7,0.9,0,2.2-1,2.9c-1.4,1-3.3,1.2-3.6,3.6c-0.1,0.8,0.1,1.7,0.5,2.4c1.1,1.6,2.7,2.8,4.6,3.2c9.1,2.8,18.9-2.1,25.7-8.7
						s11.7-15,18.3-21.7c3.7-3.7,7.9-6.9,11.7-10.6c7.6-7.2,13.5-16,19.2-24.8c1.7-2.7,3.4-5.4,4.2-8.4s0.4-6.2,1.2-9.2
						c1.1-3.9,3.9-7,6.3-10.3c4.7-6.4,7.8-14.2,7.1-22.1c-0.7-7.9-5.5-15.7-12.9-18.3c-2.3-0.9-4.8-1.1-7.2-0.4
						c-3,0.9-5.3,3.5-7.4,5.9l-5,5.7c-1.2,1.3-2.2,2.8-2.8,4.4c-0.7,1.7-0.3,3.6,1,4.9"/>
					<path class="st1" d="M-28.4,1448.5c-3.4,0.2-7.2,0.5-9.7,3c-1,1.1-1.8,2.4-2.4,3.8c-2.4,4.8-4.7,9.8-4.8,15.2
						c-0.1,4.3,1.1,8.5,1.8,12.7c0.5,3.5-0.8,7.1-1.1,10.7c4.3-1.3,9.9-3.1,13.8-5.3c2.6-1.5,5.2-3.2,8.1-4.2c4.1-1.4,11,1,14.9,2.9
						c0.2-2.7-1.8-7.5-1.6-10.3c0-1.2,0.2-2.3,0.6-3.4c0.6-1.2,1.3-2.3,2.1-3.3c3.1-5,2.6-11.3-1.2-15.8c-3.5-3.9-8.9-5.4-14.1-6
						c-3.3-0.4-6.5-0.5-9.8-0.3"/>
				</g>
				<g>
					
						<linearGradient id="SVGID_1_" gradientUnits="userSpaceOnUse" x1="-103.1907" y1="1200.0645" x2="-103.1907" y2="1688.7188" gradientTransform="matrix(1 0 0 -1 -84.46 2805.2402)">
						<stop  offset="0" style="stop-color:#808080;stop-opacity:0.25"/>
						<stop  offset="0.54" style="stop-color:#808080;stop-opacity:0.12"/>
						<stop  offset="1" style="stop-color:#808080;stop-opacity:0.1"/>
					</linearGradient>
					<path class="st13" d="M-72.6,1595.1c-1.3-5.6-2.1-10.5-2.1-10.5s0.3-6.1-2.4-10.6v-1.5l0,0v-11.2c0.8-2,1.7-4,2.8-5.9
						c2-3.5,0-16.4,0-16.4s-7.5-18.2-5.7-29.7s-15.3-51.2-15.3-51.2c0.1-3.8,0.6-7.6,1.6-11.3c0.2-0.8,0.3-1.6,0.2-2.4
						c0-0.1,0-0.2,0-0.3s0,0.1,0,0.1c-0.3-7.6-6.3-21.9-6.3-21.9l0.8-27.2c0,0,3.8-16-2.4-37.5c-2.2-7.5-3.6-13.5-4.5-18.2
						c-0.1-0.5-0.2-1-0.3-1.5c12.9-2,22.7-3.6,22.7-3.6S-91,1303-96,1297.5s-9.1-22.7-9.1-22.7s-2.6-22.1,1.6-28.5
						s4.8-17.6,4.8-17.6s9.7-7,10.9-10.2c1.2-3.2,3.2-10.2,3.2-13.9c0-3.7-1.2-7-0.8-9s-2.8-9.4-1.2-12.9c0.4-1.1,0.6-2.2,0.6-3.4
						v-0.1l0,0c0-3.1-0.3-6.2-0.8-9.2c-2.8-2.4-6.1-4.1-9.6-5.1l-0.2-0.8l-0.5-2.2c-0.3-0.2-0.6-0.4-1-0.6v-0.8l-0.1-3.2l1.5-7.1
						c3-12.4-13.6-14.3-13.6-14.3c-1-1.9-2.7-3.4-4.7-4.1c-3.3-1.2-0.5,18.7,1,20c1.2,1,4.8,7.2,6.5,10.2l0,0l0.3,0.5
						c-0.3,0.2-0.5,0.5-0.8,0.8l0.6,4.3l0.1,0.7c-1.1,1.4-2,2.9-2.7,4.5c0,0,3,3.3,2.4,7s0.9,8.4,1,8.6c-0.2-0.2-2.3-2.5-4.4-2
						s-8.1,2.3-8.1,2.3s-4.4,0.8-4,1.8s-3,5.3-3,5.3l-11.9-11.3c-0.1-0.3-0.2-0.7-0.3-1c-0.5-1.6-0.8-3.3-1-5
						c1.3-0.3,2.6-0.7,3.8-1.2c1.3-0.4,2.4-1.2,3.3-2.1c1.2-1.4,1.4-3.4,1.9-5.1c0.9-3.5,3-6.6,4.4-9.9c2.4-5.6,3.2-11.8,2.3-17.8
						c-0.2-1.9-0.8-3.6-1.8-5.2c-2-2.7-5.5-3.8-8.1-5.9s-4.2-5.4-7.2-7c-2.7-1.4-6-1.3-9.1-0.8c-6,1-11.7,3.1-16.9,6.2
						c-1.7,1-3.7,2.2-5.7,1.9c-1.7-0.3-3-1.7-4.1-3c0-0.1,0-0.1,0-0.2c0,0-0.1-0.1-0.1-0.2c-1.3,2.8-1.9,5.9-1.9,8.9
						c0,0.5,0,1,0.1,1.4v0.6c0,0.1,0,0.3,0,0.4l0,0c0,0.2,0,0.4-0.1,0.6c-0.3,0.6-0.6,1.2-1.1,1.6c-0.4,0.4-0.7,0.9-1,1.3
						c0-0.2,0.1-0.3,0.2-0.5c-0.8,1.1-1.2,2.4-1.2,3.8c-0.1,1,0.3,1.9,0.9,2.7c0.6,0.6,1.3,1.1,2,1.6c-0.2,1.3-0.4,2.7-0.4,4
						c0,8.1,4.3,15.6,11.3,19.7c0.1,0.3,0.3,0.7,0.4,1c1.5,4,2.7,8.7,2.2,13c0,0.3-0.1,0.6-0.1,0.9s-0.3,0.3-0.4,0.5l0,0
						c0,0-19.7,0.2-24.4-4c-4.6-4.2-11.7,10.3-11.7,10.3s-7.1,1.4-8.5,0c-1.4-1.4-9.7-0.2-9.7-0.2c-3.4-3-7.8-4.6-12.3-4.5
						c-2.7-2.1-5.8-3.8-9-5l0,0l-0.2-0.1l0,0c-1.4-0.5-2.9-0.7-4.5-0.6c0,0-9.7-8-12.5-12.3c-2.8-4.3-16.1-20.2-16.2-20.3v-0.8
						l-0.2-2.3c-0.4,0.1-0.8,0.1-1.2,0.1c-0.1-0.2-0.2-0.5-0.3-0.8c-0.8-2.3-1.7-4.5-2.9-6.6c0,0,0-2.9,0.8-3.7
						c0.8-0.8-0.3-11.5-0.3-11.5s-8.7-20.4-16.6-5.2c0,0-14.8,9.9-2.4,21.4c0,0,5,2.4,5.7,4.3c0.5,1.2,2.1,4.7,3.3,7l0.5,1l-0.1,0.1
						l0.2,1.9l0.1,0.7c-2.3,1.3-3.9,2.6-3.5,3.6c0.7,1.7,1.2,3.5,1.4,5.3c0,0,17.2,21.5,19.4,30.7c0,0,46.1,27.4,61.2,29.3
						l-2.7,13.7c-0.4,3.7-0.6,7.4-0.6,11.1c0.2,2.9-1.8,16.2-1.8,16.2s-2.6,19.6-4.8,22.3c-2.2,2.7-1.8,14.5-1.8,14.5
						c-0.5,5.6-1.5,11.2-3,16.6c-2.2,7.4-0.6,16.6-0.6,16.6s-7.7,17.6,10.7,5.7c0,0,9-0.6,19.4-0.9c0,0.3,0,0.7,0,1
						c0,1.3,0,2.8-0.1,4.3c-0.1,10.1-0.2,24,0.3,34.5c0.8,18.6,6.5,55.4,6.5,55.4v18.5c-0.4,1.7-0.5,3.5-0.5,5.3
						c-0.1,6.5,1.6,12.9,5,18.5l1.4,12.3c0,0,3.3,8.1,3.4,13c0,0.4-0.1,0.8-0.1,1.2c-0.1,0.6-0.2,1.3-0.2,1.9
						c-0.2,5.6,3.2,19,3.2,19s0.2,13.5,2.2,14.3c1.7,0.7-2.3,7.8-3.5,9.8c0-0.1-0.1-0.3-0.1-0.4l-0.2,0.4c-0.4,1.1-0.6,2.3-0.6,3.4
						c-0.2,1.9,0.6,3.7,2.2,4.7c3.8,2.3,5.9,4.3,2.6,5.1c-1.2,0.2-2.4,0.4-3.6,0.8c0-0.2-0.1-0.3-0.2-0.5c-0.9,0.4-1.5,1.4-1.3,2.4
						c0,1.6,0.4,3.1,1.2,4.5c3.2,7.2,5.5,10,5.5,10l1.5-0.2c-0.2,0.6-0.5,1.2-0.9,1.7c-0.6,0.8-1.4,1.5-2.3,2
						c-0.8,0.5-1.8,0.8-2.8,1c-2.2,0.1-4.3,1.1-5.7,2.8c-2,2.6-3.3,6.2,0.7,9.3l14.5,5c0,0,24.9,3.2,23.5-2.3s-2.1-10.5-2.1-10.5
						c0.1-3.4-0.6-6.8-2-9.9c-0.3-0.5-0.6-1-0.9-1.5l0.9-0.1c0,0,1.8-12.3,4.2-14.7c0.6-0.5,0.7-1,0.6-1.3c0.2-0.7-0.4-1.1-1.2-1.3
						l-0.2,0.5c-0.8-0.2-1.6-0.3-2.4-0.3c0,0-0.8-6.5,1.8-8.8c0.4-0.5,0.6-1.2,0.5-1.9c0-0.9-0.1-1.8-0.3-2.6c0,0.1-0.1,0.1-0.1,0.2
						c-1.3-5.9-5.8-15.2-5.8-15.2s-0.2-5.9,1.4-8.2c1.6-2.3-0.2-31.9-0.2-31.9s0.6-14.3-1.2-20.9s2.2-14.5,2.2-14.5s0-0.2,0-0.4
						v-0.1l-0.2-2.2v0.1c-0.4-3.8-1.2-10.6-1.8-13.8c-0.8-4.5,0.2-26,0.2-26l3.6-9.2l6.5,15.9l6.9,21.1c0,0,3.4,4.5,3.5,9
						c0,0.2,0,0.4,0,0.7c-0.1,0.5-0.1,0.9-0.1,1.4c-0.1,2.7,0.6,5.3,2.1,7.5c0,0,1.8,10,4.7,12.5s2.8,7.4,2.8,7.4s3.4,14.5,5,17
						c1.4,2.1,1.4,8,1.4,9.8l0,0c0,0.3,0,0.5,0,0.5s0.5,5.2,0.5,9.5c0,0.5,0,1.1,0,1.5v-0.1c0,1.2-0.1,2.4-0.4,3.5l-0.1,0.2
						c0-0.2,0-0.5,0.1-0.7c-0.7,2.9-1,6-1,9c-0.1,5.2,0.7,11.4,3.8,15c5.5,6.3,8.9,5.5,8.9,5.5s-2.6,7.8-5.9,9.4
						c-0.1,0.1-0.2,0.1-0.3,0.2c0-0.2-0.1-0.3-0.1-0.5c-0.7,0.8-1.1,1.8-1,2.9c-0.2,3.4,1.9,9,4,11.6c0.8,0.7,1.7,1.3,2.7,1.6
						c-0.2,0.1-0.3,0.2-0.5,0.3c-0.4,0.2-0.7,0.4-1.1,0.5c-0.5,0.2-1.1,0.4-1.7,0.4c-2.2,0.1-4.3,1.1-5.7,2.8
						c-2,2.6-3.3,6.2,0.7,9.3l14.5,5C-96,1597.5-71.3,1600.7-72.6,1595.1z"/>
					<path class="st14" d="M-167.5,1604.3l-14-5c-3.9-3.1-2.6-6.7-0.7-9.3c1.4-1.7,3.4-2.7,5.5-2.8c0.9-0.1,1.9-0.4,2.7-1
						c0.9-0.5,1.6-1.2,2.2-2c1-1.6,1.6-3.5,1.6-5.4c0,0,15.4-4.5,19.6,0c0.7,0.8,1.4,1.7,1.9,2.7c1.4,3.1,2.1,6.5,2,9.9
						c0,0,0.8,4.9,2,10.5S-167.5,1604.3-167.5,1604.3z"/>
					<path class="st14" d="M-99,1597.5l-14-5c-3.9-3.1-2.6-6.7-0.7-9.3c1.3-1.7,3.4-2.7,5.5-2.8c0.6-0.1,1.1-0.2,1.6-0.4
						c0.4-0.2,0.7-0.3,1.1-0.5c3.9-2.2,3.8-7.4,3.8-7.4s15.3-4.5,19.6,0c0.6,0.6,1.1,1.3,1.5,2c2.6,4.5,2.3,10.6,2.3,10.6
						s0.8,4.9,2,10.5C-75.1,1600.8-99,1597.5-99,1597.5z"/>
					<path class="st5" d="M-150.6,1578.9c0.7,0.8,1.4,1.7,1.9,2.7l0,0l-23,2.7c1-1.6,1.6-3.5,1.6-5.4
						C-170.1,1578.9-154.8,1574.4-150.6,1578.9z"/>
					<path class="st5" d="M-80.6,1574v4.3c-3.6,5.9-20.9,4.6-25.9,1.7c0.4-0.2,0.7-0.3,1.1-0.5c3.9-2.2,3.8-7.4,3.8-7.4
						s15.3-4.5,19.6,0C-81.5,1572.6-81.1,1573.3-80.6,1574z"/>
					<path class="st3" d="M-77.9,1555.5c-1.1,1.9-2,3.8-2.7,5.9v15.5c-3.9,6.5-24.2,4.3-27,0.8s-5.6-12.7-2.5-14.3s5.7-9.4,5.7-9.4
						s-3.3,0.8-8.6-5.5c-5.3-6.3-3.7-20.1-2.7-23.5c1-3.4,0-14.5,0-14.5s0.2-7.8-1.4-10.4s-4.9-17-4.9-17s0-4.9-2.7-7.4
						s-4.5-12.5-4.5-12.5c-1.6-2.5-2.3-5.5-2-8.4c0.6-4.9-3.3-10.2-3.3-10.2l-6.7-21.1l-6.3-15.8l-3.5,9.2c0,0-1,21.5-0.2,26
						s2,16.4,2,16.4s-3.9,7.8-2.2,14.5c1.7,6.7,1.1,20.9,1.1,20.9s1.8,29.5,0.2,31.9s-1.4,8.2-1.4,8.2s8,17.2,5.5,19.5
						c-2.5,2.3-1.8,8.8-1.8,8.8s5.5,0,3.1,2.3c-2.4,2.3-4.1,14.7-4.1,14.7l-23.7,2.8c0,0-2.2-2.7-5.3-10c-3.1-7.3,0.6-6.5,3.7-7.2
						c3.1-0.7,1.2-2.7-2.6-5.1c-3.8-2.4-1.6-7.6-1.6-7.6s5.7-9.6,3.7-10.4c-2-0.8-2.2-14.3-2.2-14.3s-3.9-16-2.9-20.3
						c1-4.3-3.1-14.7-3.1-14.7l-1.4-12.3c-4.2-7-5.7-15.3-4.3-23.3v-19c0,0-5.5-36.8-6.3-55.3c-0.5-11.9-0.4-28.1-0.2-38.3
						c0.1-5.7,0.2-9.5,0.2-9.5l84.5-8.8c0,0-0.1,3.9,1.5,12.5c0.9,4.6,2.2,10.6,4.3,18.2c6.1,21.5,2.3,37.5,2.3,37.5l-0.8,27.2
						c0,0,7.4,18.2,5.9,24.4c-0.9,3.7-1.5,7.5-1.6,11.4c0,0,16.6,39.7,14.9,51.2s5.5,29.7,5.5,29.7S-76,1551.9-77.9,1555.5z"/>
					<path class="st11" d="M-126.2,1453.6l25.7-3.4C-100.5,1450.1-115.1,1465-126.2,1453.6z"/>
					<path class="st5" d="M-104.2,1425c0,0,0.9,9.1-4.7,12.5C-108.9,1437.5-98.9,1436-104.2,1425z"/>
					<path class="st5" d="M-105.8,1396.1c0,0-21.5,17.7-29.3,16.2S-105.8,1396.1-105.8,1396.1z"/>
					<path class="st5" d="M-158.1,1461.9c0,0-16.3,3.7-16.8,10.3S-158.1,1461.9-158.1,1461.9z"/>
					<path class="st11" d="M-154.5,1543.4c0,0-23.1,4.3-16.5,7.2s17.3,5.3,17.3,5.3S-146.3,1556.3-154.5,1543.4z"/>
					<g class="st15">
						<path d="M-175.7,1555.3c-1.2-0.7-2-2-2.1-3.3l-0.2,0.4c0,0-2.2,5.3,1.6,7.6c0.4,0.3,0.8,0.5,1.2,0.8c0.7-0.1,1.4-0.2,2.1-0.4
							C-170,1559.6-172,1557.7-175.7,1555.3z"/>
						<path d="M-146,1553.7c0.6-0.6,0.6-2.1,0.2-4c-1,1.5-1.3,3.9-1.3,5.7C-146.8,1554.8-146.4,1554.2-146,1553.7z"/>
						<path d="M-149.5,1456.5c-0.8,2.3-1.4,4.7-1.6,7.2c0.4-1.7,1-3.4,1.8-4.9L-149.5,1456.5z"/>
						<path d="M-96.7,1446.2c0.2-0.7,0.2-1.4,0.2-2.1c-0.3,1.5-0.5,2.8-0.6,4C-97,1447.4-96.8,1446.9-96.7,1446.2z"/>
						<path d="M-150.1,1526c0.3-0.5,0.5-2.1,0.6-4.3c-0.7,1.7-1.1,3.6-1.1,5.5C-150.5,1526.7-150.3,1526.3-150.1,1526z"/>
						<path d="M-145.3,1562.9c-1.2,3.9-2.1,7.9-2.7,12l-23.7,2.7c0,0-2.2-2.7-5.3-10c-0.3-0.6-0.5-1.1-0.7-1.7
							c-1.4,0.7-2,2.1-0.1,6.4c3.1,7.2,5.3,10,5.3,10l23.7-2.7c0,0,1.8-12.3,4.1-14.7C-143.4,1563.7-144.2,1563.2-145.3,1562.9z"/>
						<path d="M-176.5,1527.7c0,0,0.2,13.5,2.2,14.3l0,0c1-2.2,1.7-4.3,0.8-4.7c-2-0.8-2.2-14.3-2.2-14.3s-3.9-16-2.9-20.3
							c1-4.3-3.1-14.7-3.1-14.7l-1.4-12.3c-4.2-7-5.7-15.3-4.3-23.3v-19c0,0-5.5-36.8-6.3-55.3c-0.5-11.9-0.4-28.1-0.2-38.3
							c0-1.8,0.1-3.5,0.1-4.8l-0.7,0.1c0,0-0.1,3.8-0.2,9.5c-0.2,10.1-0.3,26.4,0.2,38.3c0.8,18.6,6.2,55.4,6.2,55.4v19
							c-1.4,8,0.1,16.3,4.3,23.3l1.4,12.3c0,0,4.1,10.4,3.1,14.7S-176.5,1527.7-176.5,1527.7z"/>
						<path d="M-106.8,1572.3c-1.9-2.8-3.2-6-3.8-9.3c-2.4,2.2,0.4,10.6,3,14c2.7,3.5,23.1,5.7,27-0.8v-3.7
							C-85.9,1577.8-104.3,1575.7-106.8,1572.3z"/>
						<path d="M-77.1,1550.2c-1.1,1.9-2,3.8-2.7,5.9v2.8c0.5-1,1.1-2.3,2-3.9c0.6-1.5,0.9-3.2,0.9-4.8
							C-77,1550.1-77.1,1550.2-77.1,1550.2z"/>
						<path d="M-105.6,1553.3c0.7-1.5,1.4-3.1,1.9-4.7c0,0-3.3,0.8-8.6-5.5c-3.8-4.5-4.1-13.2-3.5-18.8c-1,3.3-2.5,17.2,2.7,23.5
							C-109.7,1552-107,1553.1-105.6,1553.3z"/>
						<path d="M-115.8,1510c0.3,3.9,0.5,7.7,0.4,11.6c0.1-0.6,0.2-1.2,0.4-1.8c1-3.3,0-14.5,0-14.5s0.2-7.8-1.4-10.4
							c-1.6-2.6-4.8-17-4.8-17s0-4.9-2.7-7.4s-4.5-12.5-4.5-12.5c-1.6-2.5-2.3-5.5-2-8.4c0.6-4.9-3.3-10.2-3.3-10.2l-6.7-21.1
							l-6.3-15.8l-3.5,9.2c0,0,0,1.2-0.1,3l2.9-7.5l6.3,15.8l6.7,21.1c0,0,3.9,5.3,3.3,10.2c-0.3,3,0.4,5.9,2,8.4
							c0,0,1.8,10,4.5,12.5s2.7,7.4,2.7,7.4s3.3,14.5,4.9,17S-115.8,1510-115.8,1510z"/>
					</g>
					<path class="st16" d="M-99.4,1150.1l-1.5,7.1l0.1,3.2l0.1,2.3l-8.2,0.8l-0.9-1.7l0,0c-1.7-3.1-5.2-9.3-6.3-10.2
						c-1.5-1.3-4.2-21.1-1-19.9c2,0.8,3.6,2.2,4.5,4.1C-112.6,1135.9-96.5,1137.7-99.4,1150.1z"/>
					<path class="st5" d="M-100.7,1162.8l-8.2,0.8l-0.9-1.7l0,0c2.3-2.6,6-3.2,9-1.5L-100.7,1162.8z"/>
					<path class="st1" d="M-98.7,1166.7l-10.8,2.5l-0.2-1.6l-0.6-4.3c0,0,4.3-5.7,10.4-1.4l0.5,2.2L-98.7,1166.7z"/>
					<path class="st16" d="M-273,1150.9l-11.5,6.2l-1-2.2c-1.1-2.3-2.7-5.7-3.2-7c-0.7-1.9-5.5-4.3-5.5-4.3
						c-12-11.5,2.3-21.4,2.3-21.4c7.6-15.2,16,5.2,16,5.2s1.2,10.8,0.3,11.5c-0.9,0.7-0.8,3.7-0.8,3.7c1.1,2.1,2,4.3,2.8,6.6
						C-273.2,1150.3-273,1150.9-273,1150.9z"/>
					<path class="st5" d="M-273,1150.9l-11.5,6.2l-1-2.2c1.6-1.4,7.4-6,9.3-5.8c0.9,0.1,1.8,0.1,2.7,0.1
						C-273.2,1150.3-273,1150.9-273,1150.9z"/>
					<path class="st1" d="M-271.8,1154.4l-12.9,6.4l-0.3-2.8l-0.2-1.9c0,0,7.5-6.4,9.7-6.2c1.1,0.2,2.3,0.2,3.4,0l0.2,2.3
						L-271.8,1154.4z"/>
					<path class="st16" d="M-130.7,1197.6c0,0-56.3,6.4-45.8,2.9c7.3-2.4,10.2-7,10.8-12.2c0.5-4.3-0.6-9-2.1-13
						c-1.3-3.5-3-7-5-10.2c0,0,43-23.7,34.4-2.1c-1.3,3.3-2.1,6.7-2.4,10.2c-0.3,3.5,0.1,7,1.1,10.3
						C-138,1188.9-134.9,1193.8-130.7,1197.6z"/>
					<path class="st5" d="M-138.3,1163c-1.3,3.3-2.1,6.7-2.4,10.2c-4,3.4-8.5,3.2-14.2,3.2c-4.4,0-9.2,1.1-12.7-1.1
						c-1.3-3.5-3-7-5-10.2C-172.7,1165.1-129.7,1141.4-138.3,1163z"/>
					<circle class="st16" cx="-155.7" cy="1154.6" r="23.3"/>
					<path class="st5" d="M-130.7,1197.6c0,0-56.3,6.4-45.8,2.9c7.3-2.4,10.2-7,10.8-12.2c2.8-3,8.4-5.2,12-6.4
						c3.3-1.1,6.9-1.2,10.2-0.2c1.3,0.4,2.6,1,3.7,1.7C-138.1,1188.9-135,1193.8-130.7,1197.6z"/>
					<path class="st5" d="M-98.7,1166.7l-10.8,2.5l-0.2-1.6c2.4-3.2,6.5-4.7,10.3-3.5L-98.7,1166.7z"/>
					<path class="st5" d="M-271.8,1154.4l-12.9,6.4l-0.3-2.8c4.2-2.2,8.5-4.2,13-5.8L-271.8,1154.4z"/>
					<path class="st5" d="M-108.5,1339.4c-21.8,3.5-52.8,7.9-57.7,6.4c-4.1-1.2-17.1-1.1-28.5-0.7c0.1-5.7,0.2-9.5,0.2-9.5l84.5-8.8
						C-110,1326.8-110.1,1330.7-108.5,1339.4z"/>
					<path class="st12" d="M-86.7,1334.3c0,0-71.8,12.3-79.5,10c-7.7-2.3-47.2,0.2-47.2,0.2c-17.8,11.9-10.4-5.7-10.4-5.7
						s-1.6-9.2,0.6-16.6c1.4-5.5,2.4-11,3-16.6c0,0-0.4-11.7,1.8-14.5c2.2-2.8,4.7-22.3,4.7-22.3s2-13.3,1.8-16.2s0.6-11.1,0.6-11.1
						l2.5-13.7c-14.7-2-59.3-29.3-59.3-29.3c-2.2-9.2-18.8-30.7-18.8-30.7c-0.2-1.8-0.7-3.6-1.4-5.3c-1.2-3.1,16.4-9.4,16.4-9.4
						s13.1,16,15.8,20.3c2.7,4.3,12.1,12.3,12.1,12.3c1.5-0.1,2.9,0,4.3,0.6l0.2,0.1l0,0c3.1,1.2,6.1,2.9,8.8,5
						c4.4-0.1,8.7,1.5,11.9,4.5c0,0,8-1.2,9.4,0.2c1.4,1.4,8.2,0,8.2,0s6.8-14.5,11.3-10.3s23.6,4,23.6,4c2.5-3.4,8.7-5.8,12.6-7
						c3.3-1.1,6.9-1.2,10.2-0.2c1.4,0.4,2.8,1.1,4,2l11.6,11.3c0,0,3.3-4.3,2.9-5.3s3.9-1.8,3.9-1.8s5.7-1.8,7.8-2.4
						s4.1,1.7,4.3,1.9c-0.1-0.2-1.5-5-1-8.6s-2.3-7-2.3-7c6.8-16.8,22.3-2.7,22.3-2.7s1.8,9.2,0.2,12.7s1.6,11,1.2,12.9
						c-0.4,1.9,0.8,5.3,0.8,9c0,3.7-2,10.8-3.1,13.9c-1.1,3.1-10.6,10.2-10.6,10.2s-0.6,11.1-4.7,17.6s-1.5,28.5-1.5,28.5
						s3.9,17.2,8.8,22.7S-86.7,1334.3-86.7,1334.3z"/>
					<path class="st5" d="M-191.3,1205.6c0,0-2.2-6.5-4.1-7c-1.9-0.7-3.8-1.6-5.7-2.5l1.3-2.4c0,0,7.3,2,8.5,4.2
						C-190.1,1200.1-191.3,1205.6-191.3,1205.6z"/>
					<path class="st5" d="M-230.6,1191.3c-0.4,2-17.8,3.7-17.8,3.7l8.8-8.8l0,0l0.2,0.1l0,0
						C-236.3,1187.5-233.3,1189.2-230.6,1191.3z"/>
					<circle class="st17" cx="-281" cy="1164.5" r="1.6"/>
					<circle class="st17" cx="-279" cy="1167.6" r="1.6"/>
					<circle class="st17" cx="-277" cy="1170.5" r="1.6"/>
					<circle class="st17" cx="-275" cy="1173.6" r="1.6"/>
					<circle class="st17" cx="-90.6" cy="1173.4" r="1.3"/>
					<circle class="st17" cx="-90.5" cy="1176.3" r="1.3"/>
					<circle class="st17" cx="-90.3" cy="1179.2" r="1.3"/>
					<path class="st5" d="M-191.3,1258.6c-0.2-0.2,43.9,55.4,78.1,23.3C-113.1,1281.9-167.2,1289.2-191.3,1258.6z"/>
					<path class="st5" d="M-216.6,1287.5c0,0,26.4,0.7,29.1,8.3v7.9c-1.5,0.8-3.4,0.8-4.9,0c-2.7-1.4-18.6-9.5-24.2-5.6
						L-216.6,1287.5z"/>
					<path class="st12" d="M-216.1,1287.5c0,0,25.2,0.7,27.9,7.9v7.5c-1.5,0.8-3.2,0.8-4.7,0c-2.5-1.4-17.8-9.1-23.2-5.4V1287.5z"/>
					<path class="st5" d="M-202.2,1230.2c2.7,6.2,6.1,12.1,10.2,17.5c4.5,6,9.9,11.2,16,15.5
						C-175.9,1263.3-201.7,1233.9-202.2,1230.2z"/>
					<path class="st5" d="M-210.8,1199.6c0,0,4.4,19,15.7,25.5L-210.8,1199.6z"/>
					<path class="st5" d="M-217.5,1201.5c-0.1-0.4-3.9,15,14.6,23.5C-202.9,1225-210.8,1222.4-217.5,1201.5z"/>
					<path class="st5" d="M-102.4,1188.8c-0.3,0,9.1,6,11.7,8.8C-90.6,1197.6-96.8,1188.4-102.4,1188.8z"/>
					<path class="st14" d="M-162,1175.6c0,2,1.7,3.7,3.7,3.6c0.1,0,0.2,0,0.3,0c7.1,0.4,14.5,0.8,21-2c1.2-0.4,2.3-1.2,3.2-2.1
						c1.2-1.4,1.4-3.4,1.9-5.1c0.9-3.5,2.9-6.6,4.3-9.9c2.4-5.6,3.2-11.7,2.3-17.8c-0.2-1.8-0.8-3.6-1.8-5.2
						c-1.9-2.7-5.3-3.8-7.8-5.9s-4.1-5.4-7-7c-2.6-1.5-5.8-1.3-8.8-0.8c-5.8,1-11.4,3.1-16.4,6.1c-1.7,1-3.5,2.2-5.5,1.9
						c-1.7-0.3-2.9-1.8-4-3.1c-1.4,3.2-1.9,6.7-1.7,10.1c0.1,0.5,0.1,1,0,1.5c-0.2,0.6-0.6,1.2-1.1,1.6c-1.8,2-2.8,5.2-1.1,7.3
						c0.8,0.9,1.9,1.4,2.6,2.3c1.3,1.6,0.9,4,0.8,6.1c-0.1,0.7,0.1,1.5,0.5,2.1c0.8,0.7,1.9,1,2.9,0.7c1-0.3,2-0.4,3.1-0.3
						c1.1,0.4,2,1.1,2.7,2C-164.7,1166-163.4,1170.6-162,1175.6z"/>
					<g class="st18">
						<path d="M-133,1173.4c-0.9,1-2,1.7-3.2,2.1c-6.6,2.7-13.9,2.4-21,2c-0.8,0-1.5-0.2-2.2-0.5c-1.1-0.6-1.5-1.9-1.8-3.1
							c-1.4-5-2.7-9.6-5.9-13.8c-0.6-1-1.6-1.7-2.7-2.1c-1-0.1-2.1,0-3.1,0.3c-1,0.3-2.1,0-2.9-0.7c-0.4-0.6-0.6-1.3-0.5-2.1
							c0-2.1,0.5-4.4-0.8-6.1c-0.7-0.9-1.9-1.4-2.6-2.3c-1-1.4-1.2-3.1-0.5-4.7c-1.2,2-1.8,4.5-0.3,6.2c0.8,0.9,1.9,1.4,2.6,2.3
							c1.3,1.6,0.9,4,0.8,6.1c-0.1,0.7,0.1,1.5,0.5,2.1c0.8,0.7,1.9,1,2.9,0.7c1-0.3,2-0.4,3.1-0.3c1.1,0.4,2,1.1,2.7,2
							c3.3,4.2,4.5,8.8,5.9,13.8c0.2,1.2,0.8,2.4,1.7,3.2c0.7,0.3,1.4,0.5,2.2,0.5c7.1,0.4,14.5,0.8,21-2c1.2-0.4,2.3-1.2,3.2-2.1
							c0.4-0.6,0.8-1.2,1-1.9C-132.9,1173.2-132.9,1173.3-133,1173.4z"/>
						<path d="M-178.3,1139.5c0.3-0.3,0.6-0.7,0.7-1.2c0.1-0.5,0.1-1,0-1.5c-0.2-2.9,0.2-5.7,1.1-8.4l-0.1-0.1
							c-1.4,3.2-1.9,6.7-1.7,10.1C-178.2,1138.7-178.2,1139.1-178.3,1139.5z"/>
					</g>
					<path class="st5" d="M-166.2,1189.7c0,0,29.1,3.9,31.7-0.5"/>
					<path class="st5" d="M-109.7,1177.7c0,0,16.2,0,19.7,6.1"/>
				</g>
			</g>
		</g>
	</g>
</g>
<g class="st19">
	<g class="st20">
		<rect x="-839.1" y="1318.4" class="st21" width="167.4" height="49.2"/>
		<text transform="matrix(1 0 0 1 -839.1121 1352.6276)" class="st22 st23 st24">#wallet</text>
		<rect x="-855.3" y="1303.3" class="st25" width="576.8" height="439.2"/>
	</g>
	<g class="st20">
		<rect x="-678.5" y="1100.7" class="st21" width="517.1" height="49.2"/>
		<text transform="matrix(1 0 0 1 -678.4551 1134.9437)" class="st22 st23 st24">#man(hold[money])</text>
		<rect x="-694.6" y="1085.7" class="st25" width="702.2" height="448.6"/>
	</g>
	<g class="st20">
		<rect x="-255.6" y="1129.8" class="st21" width="415.2" height="46.7"/>
		<text transform="matrix(1 0 0 1 -255.5663 1164.0363)" class="st22 st23 st24">#man(stand, put_up)</text>
		<g>
			<g>
				<polyline class="st26" points="-64.7,1557.6 -64.7,1572.6 -79.7,1572.6 				"/>
				<line class="st27" x1="-112.6" y1="1572.6" x2="-227.7" y2="1572.6"/>
				<polyline class="st26" points="-244.2,1572.6 -259.2,1572.6 -259.2,1557.6 				"/>
				<line class="st28" x1="-259.2" y1="1529.7" x2="-259.2" y2="1152.4"/>
				<polyline class="st26" points="-259.2,1138.4 -259.2,1123.4 -244.2,1123.4 				"/>
				<line class="st27" x1="-211.3" y1="1123.4" x2="-96.1" y2="1123.4"/>
				<polyline class="st26" points="-79.7,1123.4 -64.7,1123.4 -64.7,1138.4 				"/>
				<line class="st28" x1="-64.7" y1="1166.4" x2="-64.7" y2="1543.6"/>
			</g>
		</g>
	</g>
	<g class="st20">
		<rect x="-117.1" y="1678.3" class="st21" width="364.9" height="37"/>
		<text transform="matrix(1 0 0 1 -117.092 1712.5636)" class="st22 st23 st24">#man(hold[plate])</text>
		<rect x="-128.8" y="1396.1" class="st25" width="190.9" height="331.3"/>
	</g>
</g>
</svg>
