<?xml version="1.0" encoding="utf-8"?>
<!-- Generator: Adobe Illustrator 19.0.0, SVG Export Plug-In . SVG Version: 6.00 Build 0)  -->
<svg version="1.1" xmlns="http://www.w3.org/2000/svg" xmlns:xlink="http://www.w3.org/1999/xlink" x="0px" y="0px"
	 viewBox="275 -112.3 1145.7 818.6" style="enable-background:new 275 -112.3 1145.7 818.6;" xml:space="preserve">
<style type="text/css">
	.st0{opacity:0.1;fill:#6C63FF;enable-background:new    ;}
	.st1{fill:#3F3D56;}
	.st2{opacity:0.1;enable-background:new    ;}
	.st3{fill:#6C63FF;}
	.st4{fill:#FF6F61;}
	.st5{fill:#EDEDF4;}
	.st6{fill:#FEE374;}
	.st7{opacity:0.15;enable-background:new    ;}
</style>
<g id="A-1">
	<title>christmas tree</title>
	<g id="背景4">
		<path class="st0" d="M1420.7,380.1c-0.1,148-120.2,268-268.2,267.9c-14.2,0-28.3-1.1-42.3-3.4H685.5c-16.4,2.3-32.9,3.4-49.5,3.4
			c-11.9,0-23.6-0.6-35.2-1.7c-185-17.9-326-173.5-325.8-359.3C275,87.6,436.6-74,636-74c160.6,0,296.6,104.8,343.5,249.8
			c48.4-41.1,109.8-63.7,173.3-63.6C1300.8,112.2,1420.7,232.1,1420.7,380.1z"/>
		<path class="st0" d="M1317.8,591.2c-58.8,45.9-134,65.2-207.6,53.5H685.5c-16.4,2.3-32.9,3.4-49.5,3.4c-11.9,0-23.6-0.6-35.2-1.7
			c-143.8-14.2-265.3-112.6-309-250.3c34.6-73.9,123.4-126.5,227.6-126.5c101.5,0,188.5,49.9,224.8,120.9c17.9-3.3,36-4.9,54.2-4.9
			c105.2,0,194.8,53.7,228.6,128.7c28-8.5,57.1-12.8,86.4-12.7C1199.2,501.6,1274.6,537.3,1317.8,591.2z"/>
	</g>
</g>
<g id="A-2-1-2">
	<g id="_x31_25">
		<g>
			<g>
				<path class="st1" d="M886.5,453.6c-0.4,5.3-2,10.5-4.7,15.2c6.5,11.5,6.5,25.6,0,37.2c2.3,4,3.8,8.4,4.4,13l-13.4,23l13.6-13.4
					c-0.5,5.1-2.1,10.1-4.6,14.6c6.5,11.5,6.5,25.6,0,37.2c6.5,11.5,6.5,25.6,0,37.2c3.2,5.7,4.9,12.1,4.8,18.6
					c0,16.8-10.4,30.4-23.2,30.4c-0.4,0-0.7,0-1.1,0c-7.1-0.4-14.2-0.4-21.4,0c-0.3,0-0.7,0-1.1,0c-0.4,0-0.7,0-1.1,0
					c-7.1-0.4-14.2-0.4-21.4,0c-0.3,0-0.7,0-1.1,0c-12.8,0-23.2-13.6-23.2-30.4c-0.1-6.5,1.6-12.9,4.8-18.6
					c-3.2-5.6-4.9-12-4.9-18.5c0-2.4,0.2-4.8,0.7-7.2l18.6,11.5l-16.8-18c0.6-1.7,1.4-3.4,2.4-5c-6.5-11.5-6.5-25.6,0-37.2
					c-6.5-11.5-6.5-25.6,0-37.2c-2.9-5-4.5-10.7-4.8-16.5l31.8,19.8l-30.4-32.5c0.8-2.7,1.9-5.4,3.3-7.9c-2.2-3.7-3.6-7.9-4.3-12.1
					c-0.4-2.1-0.5-4.3-0.5-6.4c-0.1-6.5,1.6-12.9,4.8-18.6c-3.2-5.6-4.9-12.1-4.8-18.6c0-16.8,10.4-30.4,23.2-30.4
					c4.3,0,8.4,1.5,11.8,4.2c6.8-5.6,16.7-5.6,23.5,0c3.3-2.7,7.5-4.1,11.8-4.2c12.8,0,23.2,13.6,23.2,30.4
					c0.1,6.5-1.6,12.9-4.8,18.5c3.2,5.7,4.9,12.1,4.8,18.6C886.7,451.3,886.6,452.5,886.5,453.6z"/>
				<path class="st2" d="M881.8,431.6c3.2,5.7,4.9,12.1,4.8,18.6c0,1.2,0,2.3-0.2,3.4c-15.5-5.4-29.5-14.1-41.2-25.6
					c-14.3,14-32.1,23.9-51.5,28.6c-0.4-2.1-0.5-4.3-0.5-6.4c-0.1-6.5,1.6-12.9,4.8-18.6c-3.2-5.6-4.9-12.1-4.8-18.6
					c0-16.8,10.4-30.4,23.2-30.4c4.3,0.1,8.4,1.5,11.7,4.2c6.8-5.6,16.7-5.6,23.5,0c3.3-2.7,7.5-4.1,11.8-4.2
					c12.8,0,23.2,13.6,23.2,30.4C886.7,419.5,885.1,426,881.8,431.6z"/>
				<path class="st3" d="M1105.5,303.6l55.5-26.7c-11.3-18.3-27.8-32.9-47.3-42c0.3-3.4,0.5-6.8,0.5-10.3c0-13.2-2.3-26.4-7-38.8
					l-69.6-25l0.2-0.5l58.9,4.9c-11.7-18.2-28.5-32.6-48.3-41.4c0.4-4,0.7-8,0.7-12.1c0-14.6-2.9-29.1-8.5-42.6l-33,32.7l26.6-45.6
					c-4.4-7.5-9.7-14.5-15.8-20.9l-34.3,33.9l24.9-42.7C997.4,17,984,9.9,969.6,5.7c-8.2-31-29.6-56.9-58.4-71L863-17.5l31.5-54.2
					C836.1-89.1,774.6-55.8,757.2,2.6c-0.2,0.7-0.4,1.4-0.6,2.2c-20.1,5-38.3,15.6-52.6,30.5l38.7,36.8l-47.9-25.9
					c-14.1,19-21.7,42-21.6,65.6c0,1.6,0,3.1,0.1,4.7c-25.6,4.9-48.6,18.6-65,38.9l31.3,29.8l-38-20.6c-11.7,17.9-18,38.9-17.9,60.3
					c0,1.3,0,2.5,0.1,3.8c-17.4,4.7-33.4,13.6-46.6,26l41.9,39.8l-52.5-28.4c-15.7,19.5-24.3,43.9-24.3,69c0,1.6,0,3.1,0.1,4.7
					l52.2,49.6L505.8,363c15.4,58.9,75.6,94.2,134.6,78.8c18.8-4.9,36-14.8,49.9-28.5c42.8,42.6,111.9,42.8,155,0.4
					c41,40.3,106.2,42.3,149.6,4.5c46,39.9,115.6,35,155.6-10.9c27.6-31.8,34.7-76.6,18.3-115.4L1105.5,303.6z"/>
				<path class="st2" d="M1123.7,342c-23.3,11.8-51.3,2.5-76-6.3c-32.2-11.5-65.2-22.1-99.3-25.4s-69.8,1.3-99.4,18.4
					c-17.7,10.2-33,24.7-51.8,32.7c-53,22.7-115.4-11.6-171.3,2.8c-32.9,8.5-57.8,31.9-82.2,56.7c43.8,35,106.8,31.6,146.6-7.9
					c42.8,42.6,111.9,42.8,155,0.4c41,40.3,106.1,42.3,149.6,4.6c46,39.9,115.6,35,155.6-10.9c17.4-20.1,27-45.7,27-72.3
					c0-6.8-0.6-13.7-1.9-20.4c-10.2,1.7-19.9,5.5-28.5,11.1C1139.1,330.9,1132.1,337.7,1123.7,342z"/>
				<path class="st2" d="M766.2,6.7c23,5.3,45.6,14.1,63.8,29c18.2,14.9,31.8,36.6,33.4,60.2"/>
				<path class="st2" d="M912.8,205.8c8.6-22,20.6-43,38-58.9s40.8-26.1,64.3-24.3"/>
				<path class="st2" d="M614.8,226.6c23.5,1.9,47.1,7.3,67.4,19.4s36.8,31.6,41.8,54.6"/>
				<circle class="st4" cx="742.7" cy="71.9" r="16.3"/>
				<circle class="st4" cx="759" cy="2.3" r="16.3"/>
				<circle class="st4" cx="673.1" cy="111.7" r="16.3"/>
				<circle class="st4" cx="969.6" cy="2.3" r="16.3"/>
				<circle class="st4" cx="1040.1" cy="71.9" r="16.3"/>
				<circle class="st4" cx="1107" cy="185.8" r="16.3"/>
				<circle class="st4" cx="1168.4" cy="300.6" r="16.3"/>
				<circle class="st4" cx="994.9" cy="418.1" r="16.3"/>
				<circle class="st4" cx="690.3" cy="418.1" r="16.3"/>
				<circle class="st4" cx="857.5" cy="91.8" r="16.3"/>
				<circle class="st4" cx="912.6" cy="202" r="16.3"/>
				<circle class="st4" cx="1135.9" cy="420.8" r="16.3"/>
				<circle class="st4" cx="722.8" cy="295.1" r="16.3"/>
				<circle class="st4" cx="863.8" cy="-20.3" r="16.3"/>
				<circle class="st4" cx="583.6" cy="226.5" r="16.3"/>
				<circle class="st4" cx="502.3" cy="369.3" r="16.3"/>
				<circle class="st4" cx="527.6" cy="270.7" r="16.3"/>
				<path class="st5" d="M1089.8,244.9c-2.5-0.4-5.5-1.6-8-1.6s-4.4,7.7-6.9,8.1s-5.7-3.4-8.2-2.7s-3.5,4.8-5.9,5.8
					s-5.2,0.5-7.4,1.7c-2.2,1.2-3.1,4.3-5.2,5.7s-6,0.2-8,1.7s-2.7,4.6-4.6,6.2s-6.7,0.2-8.5,1.9c-1.8,1.7-4.7,2.6-6.5,4.4
					c-1.8,1.8-1.2,5.9-3,7.8c-1.8,1.9-3.3,3.9-5,5.7"/>
				<path class="st5" d="M754.4,222.6c-1.2-2.2-2-5.4-3.5-7.4s-9,1.3-10.9-0.4s-0.6-6.8-2.7-8.3c-2.1-1.5-6.1,0.2-8.2-1.1
					s-3.5-3.9-5.8-5c-2.3-1.1-5.3,0.2-7.7-0.7s-3.7-4.8-6.1-5.5c-2.4-0.7-5.3,0.7-7.8,0.1c-2.5-0.6-4.1-5.4-6.7-5.8
					c-2.6-0.4-4.9-2.2-7.4-2.6c-2.5-0.4-5.5,2.8-8,2.5s-5.1-0.3-7.6-0.6"/>
				<path class="st5" d="M813,295.8c1.4-2.3,5.2-4.3,7.8-5s5.8,0.4,8.4,0.6c2.6,0.2,5.1,2.2,7.7,2.5c2.6,0.3,6.1,2.4,8.7,1.7
					c2.5-0.8,5-1.8,7.3-3c2.4-1.1,3.5-5.3,6-6s6,3.4,8.6,3s4.4-5.9,7-6.1s5.3,0.2,8,0c1.9-0.2,2.6,3.7,4.5,4.4
					c2.5,0.9,8.2-2.7,9.9-0.5c1.7,2.2,1,5.7,3.5,6.5"/>
				<path class="st5" d="M857.5,82.3c2.2-0.1,4.3,0.3,6.3,1.2c2.1,1,5,0.9,6.6,2.7s1.8,4.6,2.5,6.9c0.4-1.4,2.3-3.3,2.3-4.9
					c0-2.2-1.9-4.3-2.7-6.2c-0.8-2-1.9-3.8-3.4-5.4c-1.5-1.5-2.8-4.1-4.8-4.9s-4.6,0.3-6.8,0.3c-2.1,0-4.2,0.4-6.2,1.2
					c-2,0.8-4.7,1.1-6.2,2.6s-1.7,4.2-2.5,6.2c-0.8,2,0.2,4,0.2,6.2c0,1.6-2,2.2-1.6,3.7c0.6-2.2,1.7-4.3,3.2-6
					c1.6-1.9,3.6-3.5,5.8-4.7C852.2,80.2,855.1,82.3,857.5,82.3z"/>
				<path class="st5" d="M994.8,406.7c2.2-0.1,4.3,0.3,6.3,1.2c2.1,1,5,0.9,6.6,2.7s1.8,4.6,2.5,6.9c0.4-1.4,2.3-3.3,2.3-4.9
					c0-2.2-1.9-4.3-2.7-6.2c-0.8-2-1.9-3.8-3.4-5.4c-1.5-1.5-2.8-4.1-4.8-4.9s-4.6,0.3-6.8,0.3c-2.1,0-4.2,0.4-6.2,1.2
					c-2,0.8-4.7,1.1-6.2,2.6s-1.7,4.2-2.5,6.2c-0.8,2,0.2,4,0.2,6.2c0,1.6-2,2.2-1.6,3.7c0.6-2.2,1.7-4.3,3.2-6
					c1.6-1.9,3.6-3.5,5.8-4.7C989.6,404.7,992.5,406.7,994.8,406.7z"/>
				<path class="st5" d="M1135.8,406.7c2.2-0.1,4.3,0.3,6.3,1.2c2.1,1,5,0.9,6.6,2.7s1.8,4.6,2.5,6.9c0.4-1.4,2.3-3.3,2.3-4.9
					c0-2.2-1.9-4.3-2.7-6.2c-0.8-2-1.9-3.8-3.4-5.4c-1.5-1.5-2.8-4.1-4.8-4.9s-4.6,0.3-6.8,0.3c-2.1,0-4.2,0.4-6.2,1.2
					c-2,0.8-4.7,1.1-6.2,2.6s-1.7,4.2-2.5,6.2s0.2,4,0.2,6.2c0,1.6-2,2.2-1.6,3.7c0.6-2.2,1.7-4.3,3.1-6c1.6-1.9,3.6-3.5,5.8-4.7
					C1130.6,404.7,1133.5,406.7,1135.8,406.7z"/>
				<path class="st5" d="M715.6,284.7c1.8-1.2,3.9-2,6-2.2c2.3-0.2,4.8-1.8,7-1c2.2,0.8,4,3,5.7,4.6c-0.4-1.5,0.2-4-0.6-5.3
					c-1.1-1.9-3.8-2.7-5.4-4c-1.7-1.3-3.6-2.3-5.7-2.9c-2-0.5-4.5-2.1-6.6-1.7s-3.8,2.6-5.7,3.8c-1.8,1.1-3.5,2.5-4.8,4.2
					c-1.3,1.7-3.4,3.4-3.9,5.4s0.7,4.5,1,6.6c0.3,2.1,2.2,3.3,3.3,5.2c0.8,1.3-0.5,3,0.6,4c-0.6-2.2-0.7-4.5-0.4-6.7
					c0.4-2.5,1.2-4.9,2.6-7C710,285.7,713.5,285.9,715.6,284.7z"/>
				<path class="st5" d="M682.1,407.6c1.8-1.2,3.9-2,6-2.2c2.3-0.2,4.8-1.8,7-1c2.2,0.8,4,3,5.7,4.6c-0.4-1.5,0.2-4-0.6-5.3
					c-1.1-1.9-3.8-2.7-5.5-4c-1.7-1.3-3.6-2.3-5.7-2.9c-2.1-0.5-4.5-2.1-6.6-1.7s-3.8,2.6-5.7,3.8c-1.8,1.1-3.5,2.5-4.7,4.2
					c-1.3,1.7-3.4,3.4-3.9,5.4s0.7,4.5,1,6.6c0.3,2.1,2.2,3.3,3.3,5.2c0.8,1.3-0.5,3,0.6,4c-0.6-2.2-0.7-4.5-0.4-6.7
					c0.4-2.5,1.2-4.9,2.6-7C676.6,408.6,680.1,408.8,682.1,407.6z"/>
				<path class="st5" d="M580.9,217.8c1.8-1.2,3.9-2,6-2.2c2.3-0.2,4.8-1.8,7-1c2.2,0.8,4,3,5.7,4.6c-0.4-1.4,0.2-4-0.6-5.3
					c-1.1-1.9-3.8-2.7-5.4-4c-1.7-1.3-3.6-2.3-5.7-2.9c-2-0.5-4.5-2.1-6.6-1.7c-2.1,0.4-3.8,2.6-5.7,3.8c-1.8,1.1-3.5,2.5-4.8,4.2
					c-1.3,1.7-3.4,3.4-3.9,5.4s0.7,4.5,1,6.6c0.3,2.1,2.2,3.3,3.3,5.2c0.8,1.3-0.5,2.9,0.6,4c-0.6-2.2-0.7-4.5-0.4-6.7
					c0.4-2.5,1.2-4.9,2.6-7C575.4,218.8,578.9,219.1,580.9,217.8z"/>
				<path class="st5" d="M524.9,264.8c1.8-1.2,3.9-2,6-2.2c2.3-0.3,4.8-1.8,7-1c2.2,0.8,4,3,5.7,4.6c-0.4-1.4,0.2-4-0.6-5.3
					c-1.1-1.9-3.8-2.7-5.4-4c-1.7-1.3-3.6-2.3-5.7-2.9c-2.1-0.5-4.5-2.1-6.6-1.8s-3.8,2.6-5.7,3.8c-1.8,1.1-3.5,2.5-4.7,4.2
					c-1.3,1.7-3.4,3.4-3.9,5.4s0.7,4.5,1,6.6c0.3,2.1,2.2,3.3,3.4,5.2c0.8,1.4-0.5,3,0.5,4c-0.6-2.2-0.7-4.5-0.4-6.7
					c0.4-2.5,1.3-4.9,2.6-7C519.3,265.8,522.8,266.1,524.9,264.8z"/>
				<path class="st5" d="M499.6,360.6c1.8-1.2,3.9-2,6-2.2c2.3-0.2,4.8-1.8,7-1c2.2,0.8,4,3,5.7,4.6c-0.4-1.5,0.2-4-0.6-5.3
					c-1.1-1.9-3.8-2.7-5.5-4c-1.7-1.3-3.6-2.3-5.7-2.9c-2.1-0.5-4.5-2-6.6-1.7s-3.8,2.6-5.7,3.8c-1.8,1.1-3.5,2.5-4.7,4.2
					c-1.3,1.7-3.4,3.4-3.9,5.4s0.7,4.5,1,6.6s2.2,3.3,3.4,5.2c0.8,1.3-0.5,3,0.6,4c-0.6-2.2-0.7-4.5-0.4-6.7c0.4-2.5,1.3-4.9,2.6-7
					C494,361.6,497.5,361.8,499.6,360.6z"/>
				<path class="st5" d="M669.5,103.9c1.8-1.2,3.9-2,6-2.2c2.3-0.3,4.8-1.8,7-1c2.2,0.8,4,3,5.7,4.6c-0.4-1.4,0.2-4-0.6-5.3
					c-1.1-1.9-3.8-2.7-5.5-4c-1.7-1.3-3.6-2.3-5.7-2.9c-2.1-0.5-4.5-2.1-6.6-1.8c-2.1,0.3-3.8,2.6-5.7,3.8c-1.8,1.1-3.5,2.5-4.7,4.2
					c-1.3,1.7-3.4,3.4-3.9,5.4s0.7,4.5,1,6.6c0.3,2.1,2.2,3.3,3.4,5.2c0.8,1.4-0.5,3,0.6,4c-0.6-2.2-0.7-4.5-0.4-6.7
					c0.4-2.5,1.3-4.9,2.6-7C664,104.9,667.4,105.2,669.5,103.9z"/>
				<path class="st5" d="M739.1,64.2c1.8-1.2,3.9-2,6-2.2c2.3-0.2,4.8-1.8,7-1.1c2.2,0.7,4,3,5.7,4.6c-0.4-1.4,0.2-4-0.6-5.3
					c-1.1-1.9-3.8-2.7-5.5-4c-1.7-1.3-3.6-2.3-5.7-2.9c-2-0.5-4.5-2.1-6.6-1.7c-2.1,0.4-3.8,2.6-5.7,3.8c-1.8,1.1-3.5,2.5-4.7,4.2
					c-1.3,1.7-3.4,3.4-3.9,5.4s0.7,4.5,1,6.6c0.3,2.1,2.2,3.3,3.3,5.2c0.8,1.3-0.5,2.9,0.6,4c-0.6-2.2-0.7-4.5-0.4-6.7
					c0.4-2.5,1.2-4.9,2.6-7C733.5,65.2,737,65.4,739.1,64.2z"/>
				<path class="st5" d="M753.5-7.2c1.8-1.2,3.9-2,6-2.2c2.3-0.3,4.8-1.8,7-1.1c2.2,0.7,4,3,5.7,4.6c-0.4-1.4,0.2-4-0.6-5.3
					c-1.1-1.9-3.8-2.7-5.4-4c-1.7-1.3-3.6-2.3-5.7-2.9c-2-0.5-4.5-2.1-6.6-1.8s-3.8,2.6-5.7,3.8c-1.8,1.1-3.5,2.5-4.8,4.2
					c-1.3,1.7-3.4,3.4-3.9,5.4s0.7,4.5,1,6.6c0.3,2.1,2.2,3.3,3.3,5.2c0.8,1.4-0.5,2.9,0.6,4c-0.6-2.2-0.7-4.5-0.4-6.7
					c0.4-2.5,1.2-4.9,2.6-7C748-6.2,751.5-6,753.5-7.2z"/>
				<path class="st5" d="M863.8-30.7c2.2-0.1,4.3,0.3,6.3,1.2c2.1,1,5,0.9,6.6,2.7c1.5,1.8,1.8,4.6,2.5,6.9c0.4-1.4,2.3-3.3,2.3-4.9
					c0-2.2-1.9-4.3-2.7-6.2c-0.8-2-1.9-3.8-3.4-5.4c-1.5-1.5-2.8-4.1-4.8-4.9S866-41,863.8-41c-2.1,0-4.2,0.4-6.2,1.2
					s-4.7,1.1-6.2,2.6s-1.7,4.2-2.5,6.2c-0.8,2,0.2,4,0.2,6.2c0,1.6-2,2.2-1.6,3.7c0.6-2.2,1.7-4.3,3.1-6c1.6-1.9,3.6-3.5,5.8-4.7
					C858.5-32.7,861.4-30.7,863.8-30.7z"/>
				<path class="st5" d="M973.2-3.6c2,0.9,3.8,2.2,5.2,3.8c1.5,1.8,4.1,3,4.7,5.3c0.6,2.3-0.4,5-0.8,7.3c1-1.1,3.5-2,4.2-3.4
					c1-2,0.2-4.7,0.3-6.7c0.2-2.1,0-4.3-0.7-6.3c-0.7-2-0.7-4.9-2.2-6.5s-4.3-1.7-6.3-2.7c-1.9-1-4-1.5-6.1-1.7
					c-2.2-0.1-4.7-1-6.7-0.3s-3.4,3.1-5,4.5s-1.5,3.7-2.5,5.7c-0.7,1.4-2.8,1.1-3,2.6c1.5-1.7,3.3-3.1,5.4-4c2.3-1,4.8-1.6,7.3-1.7
					C969.3-7.7,971-4.7,973.2-3.6z"/>
				<path class="st5" d="M1046.4,66.9c2,0.8,3.8,2.2,5.2,3.8c1.5,1.8,4.1,3,4.7,5.3s-0.4,5-0.8,7.3c1-1.1,3.5-2,4.2-3.4
					c1-2,0.2-4.7,0.3-6.7c0.2-2.1,0-4.3-0.7-6.3s-0.7-4.9-2.2-6.5s-4.3-1.7-6.3-2.7c-1.9-0.9-4-1.5-6.1-1.6c-2.2-0.1-4.7-1-6.7-0.3
					s-3.4,3.1-5,4.5s-1.5,3.7-2.5,5.7c-0.7,1.4-2.8,1.1-3,2.6c1.5-1.7,3.3-3.1,5.4-4c2.3-1,4.8-1.6,7.3-1.7
					C1042.5,62.8,1044.2,65.8,1046.4,66.9z"/>
				<path class="st5" d="M1109.7,175.3c2,0.8,3.8,2.2,5.2,3.8c1.5,1.8,4.1,3,4.7,5.3s-0.4,5-0.8,7.3c1-1.1,3.5-2,4.1-3.4
					c1-2,0.2-4.7,0.3-6.7c0.2-2.1,0-4.3-0.7-6.3s-0.7-4.9-2.2-6.5s-4.3-1.7-6.3-2.7c-1.9-0.9-4-1.5-6.1-1.7c-2.2-0.1-4.7-1-6.7-0.3
					s-3.4,3.1-5,4.5s-1.5,3.7-2.5,5.7c-0.7,1.4-2.8,1.1-3,2.6c1.5-1.7,3.3-3.1,5.4-4c2.3-1,4.8-1.6,7.3-1.7
					C1105.8,171.3,1107.5,174.3,1109.7,175.3z"/>
				<path class="st5" d="M915.4,195.2c2,0.8,3.8,2.2,5.2,3.8c1.5,1.8,4.1,3,4.7,5.3c0.6,2.3-0.3,5-0.8,7.3c1-1.1,3.5-2,4.1-3.4
					c1-2,0.2-4.7,0.3-6.7c0.2-2.1,0-4.3-0.7-6.3c-0.7-2-0.7-4.9-2.2-6.5s-4.3-1.7-6.3-2.7c-1.9-1-4-1.5-6.1-1.7
					c-2.2-0.1-4.7-1-6.7-0.3s-3.4,3.1-5,4.5s-1.5,3.7-2.5,5.7c-0.7,1.4-2.8,1.2-3,2.6c1.5-1.7,3.3-3.1,5.4-4c2.3-1,4.7-1.6,7.2-1.7
					C911.5,191.1,913.2,194.2,915.4,195.2z"/>
				<path class="st5" d="M1171.1,291.9c2,0.9,3.8,2.2,5.2,3.8c1.5,1.8,4.1,3,4.7,5.3s-0.4,5-0.8,7.3c1-1.1,3.5-2,4.1-3.4
					c1-2,0.2-4.7,0.3-6.7c0.2-2.1,0-4.3-0.7-6.3s-0.7-4.9-2.2-6.5s-4.3-1.7-6.3-2.7c-1.9-1-4-1.5-6.1-1.7c-2.2-0.1-4.7-1-6.7-0.3
					s-3.4,3.1-5,4.5s-1.5,3.7-2.5,5.7c-0.7,1.4-2.8,1.1-3,2.6c1.5-1.7,3.3-3.1,5.4-4c2.3-1,4.8-1.6,7.3-1.7
					C1167.3,287.8,1169,290.9,1171.1,291.9z"/>
				<path class="st6" d="M869-108.3l3.2,6.5c1.1,2.2,3.2,3.7,5.6,4.1l7.2,1c4.1,0.6,6.9,4.4,6.3,8.5c-0.2,1.6-1,3.1-2.2,4.3l-5.2,5
					c-1.8,1.7-2.6,4.2-2.1,6.7l1.2,7.1c0.7,4.1-2,7.9-6.1,8.6c-1.6,0.3-3.3,0-4.7-0.7l-6.4-3.4c-2.2-1.1-4.8-1.1-6.9,0l-6.4,3.4
					c-3.6,1.9-8.2,0.5-10.1-3.1c-0.8-1.4-1-3.1-0.7-4.7l1.2-7.1c0.4-2.4-0.4-4.9-2.2-6.6l-5.2-5c-3-2.9-3-7.6-0.1-10.5
					c1.1-1.2,2.6-1.9,4.3-2.2l7.2-1c2.4-0.4,4.5-1.9,5.6-4.1l3.2-6.5c1.8-3.7,6.2-5.3,10-3.5C867.1-111,868.3-109.8,869-108.3z"/>
				<path class="st5" d="M1030,672.2c0,2.3-13.2,0.3-14.6,2.5c-1.2,1.8,6.1,11.1,4,12.7c-1.7,1.4-4.7,2.3-7,3.6
					c-2,1.1-5.3,0.1-7.7,1.1c-2.1,0.9-5.3-0.9-7.7-0.2c-2.2,0.7-5.3-2.5-7.8-1.8s-4.3,1-6.7,1.5s-3.4,7.3-5.8,7.7
					c-2.4,0.4-5.7-7.8-8.1-7.5c-2.4,0.3-3.8,9.6-6.2,9.8s-4.8-1-7.3-0.9s-4.8-7.5-7.2-7.5s-5,13.2-7.4,13.1s-4.7-4.8-7-5
					c-2.3-0.2-4.6-2.5-7-2.8s-4-6-6.3-6.3c-2.3-0.3-4.7,0.2-7-0.3c-2.3-0.5-6.6,7.5-8.8,6.9c-2.2-0.6-3.3-6.5-5.5-7.2
					c-2.4-0.8-2.9-5.5-5-6.4c-2.3-1-7.1,4.2-9,3.1c-2.3-1.2-3.7-3.3-5.4-4.7c-2.1-1.6,2.1-7,0.9-8.8c-1.4-2.2-8.9-0.2-8.9-2.5
					c0.2-2.5,1.1-4.8,2.6-6.8c1.2-1.8,6.5,1.1,8.6-0.5c1.7-1.3-0.2-7.8,2.1-9.1c2-1.1,1.7-8.4,4-9.3c2.1-0.9,5.6,0.4,8-0.3
					c2.2-0.7,4.8-1.5,7.2-2.1s4.6-2.3,7-2.8s5.9,5.8,8.4,5.5s3.9-7.8,6.3-8.1c2.4-0.3,5.6,8.9,8,8.7s4.8,3.5,7.2,3.4s4.5-6.5,7-6.5
					s4.8,0.7,7.2,0.8s5.2-5.6,7.5-5.4c2.3,0.2,4.4,6.1,6.7,6.3c2.3,0.2,5.1-1.4,7.4-1.1s3.6,7.1,5.9,7.5s4.8-0.2,7,0.4
					c2.4,0.6,5.1-0.8,7.3-0.2c2.4,0.8,3.4,4.1,5.5,5c2.3,1,7.3-4.3,9.3-3.3c2.3,1.1,4.5,2.3,6.6,3.8c2.1,1.6,6,2.8,7.2,4.7
					C1027,665,1030,669.8,1030,672.2z"/>
				<path class="st5" d="M1133,672.2c0,2.3-13.2,0.3-14.6,2.5c-1.2,1.8,6.1,11.1,4,12.7c-1.7,1.4-4.7,2.3-7,3.6
					c-2,1.1-5.3,0.1-7.7,1.1c-2.1,0.9-5.3-0.9-7.7-0.2c-2.2,0.7-5.3-2.5-7.8-1.8s-4.3,1-6.7,1.5s-3.4,7.3-5.8,7.7s-5.7-7.8-8.1-7.5
					s-3.8,9.6-6.2,9.8s-4.8-1-7.3-0.9s-4.8-7.5-7.2-7.5s-5,13.2-7.4,13.1s-4.7-4.8-7-5s-4.6-2.5-7-2.8s-4-6-6.3-6.3
					c-2.3-0.3-4.7,0.2-7-0.3c-2.3-0.5-6.6,7.5-8.8,6.9c-2.2-0.6-3.3-6.5-5.5-7.2c-2.4-0.8-2.9-5.5-5-6.4c-2.3-1-7.1,4.2-9,3.1
					c-2.3-1.2-3.7-3.3-5.4-4.7c-2.1-1.6,2.1-7,0.9-8.8c-1.4-2.2-8.9-0.2-8.9-2.5c0.2-2.5,1.1-4.8,2.6-6.8c1.2-1.8,6.5,1.1,8.6-0.5
					c1.7-1.3-0.2-7.8,2.1-9.1c2-1.1,1.7-8.4,4-9.3c2.1-0.9,5.6,0.4,8-0.3c2.2-0.7,4.8-1.5,7.2-2.1s4.6-2.3,7-2.8s5.9,5.8,8.4,5.5
					c2.5-0.3,3.9-7.8,6.3-8.1s5.6,8.9,8,8.7s4.8,3.5,7.2,3.4c2.4-0.1,4.5-6.5,7-6.5s4.8,0.7,7.2,0.8s5.2-5.6,7.5-5.4
					s4.4,6.1,6.7,6.3c2.3,0.2,5.1-1.4,7.4-1.1s3.6,7.1,5.9,7.5s4.8-0.2,7,0.4c2.4,0.6,5.1-0.8,7.3-0.2c2.4,0.8,3.4,4.1,5.5,5
					c2.3,1,7.3-4.3,9.3-3.3c2.3,1.1,4.5,2.3,6.6,3.8c2.1,1.6,6,2.8,7.2,4.7C1130,665,1133,669.8,1133,672.2z"/>
				<path class="st5" d="M859,668.2c0,2.3-13.2,0.3-14.6,2.5c-1.2,1.8,6.1,11.1,4,12.7c-1.7,1.4-4.7,2.3-7,3.6
					c-2,1.1-5.3,0.1-7.7,1.1c-2.1,0.9-5.3-0.9-7.7-0.2c-2.2,0.7-5.3-2.5-7.8-1.8s-4.3,1-6.7,1.5s-3.4,7.3-5.8,7.7
					c-2.4,0.4-5.7-7.8-8.1-7.5c-2.4,0.3-3.8,9.6-6.2,9.8s-4.8-1-7.3-0.9s-4.8-7.5-7.2-7.5s-5,13.2-7.4,13.1c-2.4-0.1-4.7-4.8-7-5
					c-2.3-0.2-4.6-2.5-7-2.8s-4-6-6.3-6.3c-2.3-0.3-4.7,0.2-7-0.3c-2.3-0.5-6.6,7.5-8.9,6.9c-2.4-0.6-3.3-6.5-5.5-7.2
					c-2.4-0.8-2.9-5.5-5-6.4c-2.4-1-7.1,4.2-9,3.1c-2.3-1.2-3.7-3.3-5.4-4.7c-2.1-1.6,2.1-7,0.9-8.8c-1.4-2.2-8.9-0.2-8.9-2.5
					c0.2-2.5,1.1-4.8,2.6-6.8c1.2-1.8,6.5,1.1,8.6-0.5c1.7-1.3-0.2-7.8,2.1-9.1c2-1.1,1.6-8.4,4-9.3c2.1-0.9,5.6,0.4,8-0.3
					c2.2-0.7,4.8-1.5,7.2-2.1s4.6-2.3,7-2.8s5.9,5.8,8.4,5.5s3.9-7.8,6.3-8.1c2.4-0.3,5.6,8.9,8,8.7s4.8,3.5,7.2,3.4s4.5-6.5,7-6.5
					s4.8,0.7,7.2,0.8s5.2-5.6,7.5-5.4c2.3,0.2,4.4,6.1,6.7,6.3c2.3,0.2,5.1-1.4,7.4-1.1s3.6,7.1,5.9,7.5s4.8-0.2,7,0.4
					c2.4,0.6,5.1-0.8,7.3-0.2c2.4,0.8,3.4,4.1,5.5,5c2.3,1,7.3-4.3,9.3-3.3c2.3,1.1,4.5,2.3,6.6,3.8c2.1,1.6,6,2.8,7.2,4.7
					C856,661,859,665.8,859,668.2z"/>
				<path class="st5" d="M772,666.2c0,2.3-13.2,0.3-14.6,2.5c-1.2,1.8,6.1,11.1,4,12.7c-1.7,1.4-4.7,2.3-7,3.6
					c-2,1.1-5.4,0.1-7.7,1.1c-2.1,0.9-5.3-0.9-7.7-0.2c-2.2,0.7-5.4-2.5-7.8-1.8s-4.3,1-6.7,1.5s-3.4,7.3-5.9,7.7s-5.6-7.8-8.1-7.5
					s-3.8,9.6-6.2,9.8s-4.9-1-7.3-0.9c-2.4,0.1-4.8-7.5-7.2-7.5s-5,13.2-7.4,13.1s-4.7-4.8-7-5c-2.3-0.2-4.6-2.5-7-2.8s-4-6-6.3-6.3
					c-2.3-0.3-4.7,0.2-7-0.3c-2.3-0.5-6.6,7.5-8.9,6.9c-2.4-0.6-3.3-6.5-5.5-7.2c-2.4-0.8-2.9-5.5-5-6.4c-2.4-1-7.1,4.2-9,3.1
					c-2.3-1.2-3.7-3.3-5.4-4.7c-2.1-1.6,2.1-7,0.9-8.8c-1.4-2.2-8.9-0.2-8.9-2.5c0.2-2.5,1.1-4.8,2.6-6.8c1.2-1.8,6.5,1.1,8.6-0.5
					c1.7-1.3-0.2-7.8,2.1-9.1c2-1.1,1.6-8.4,4-9.3c2.1-0.9,5.6,0.4,8-0.3c2.2-0.7,4.8-1.5,7.2-2.1s4.6-2.3,7-2.8s5.9,5.8,8.4,5.5
					s3.9-7.8,6.3-8.1c2.4-0.3,5.6,8.9,8,8.7s4.8,3.5,7.2,3.4s4.5-6.5,7-6.5s4.8,0.7,7.1,0.8c2.3,0.1,5.2-5.6,7.5-5.4
					c2.3,0.2,4.4,6.1,6.7,6.3c2.3,0.2,5.1-1.4,7.4-1.1s3.6,7.1,5.9,7.5c2.3,0.4,4.8-0.2,7,0.4c2.4,0.6,5.1-0.8,7.3-0.2
					c2.4,0.8,3.4,4.1,5.5,5c2.4,1,7.4-4.3,9.3-3.3c2.3,1.1,4.5,2.3,6.6,3.8c2.1,1.6,6,2.8,7.2,4.7C769,659,772,663.8,772,666.2z"/>
				<polygon class="st4" points="698.6,621.4 698.6,643.2 692.9,654.8 692.9,654.8 692.7,655.1 677.4,654.1 671.6,653.7 658,652.8 
					658,626.8 671.6,627.2 677.7,627.4 693,627.8 				"/>
				<polygon class="st2" points="698.6,622.7 698.6,643.2 697.2,646 697.2,646 695.8,648.9 695.8,648.9 692.9,654.8 693.2,633 
					693.2,628.6 696,625.6 696,625.6 697.2,624.2 				"/>
				<polygon class="st4" points="699.4,615.6 699.4,623.2 698.6,624.5 697.2,626.7 696,628.7 693.2,633 693.2,633 656.8,631.2 
					656.8,623.7 656.9,623.5 661.2,618.9 662.8,617.2 665.7,614.1 				"/>
				<polygon class="st2" points="693.2,625.5 693.2,633 656.8,631.2 656.8,623.7 656.9,623.5 				"/>
				<polygon class="st7" points="699.4,615.6 699.4,623.2 693.2,633 693.2,625.5 				"/>
				<polygon class="st1" points="697.2,619.1 697.2,624.2 697.2,626.7 697.2,646 697.2,646 695.8,648.9 696,628.7 696,625.6 
					696,625.6 696,621 661.2,618.9 662.8,617.2 				"/>
				<polygon class="st1" points="680.1,619.4 677.7,624.7 677.7,627.4 677.4,654.1 671.6,653.7 671.6,624.3 674.7,619.4 				"/>
				<path class="st1" d="M672.1,619.7c-1.4,0.5-2.9,0.5-4.4,0.2c-0.3-0.1-0.5-0.2-0.8-0.4c-0.2-0.3-0.4-0.6-0.5-0.9
					c-0.3-0.7-0.4-1.5-0.4-2.2c0-0.8,0.3-1.5,0.9-2c0.1-0.1,0.2-0.2,0.4-0.3c0.1-0.2,0.2-0.4,0.3-0.6c0.4-1.3,1.2-2.6,2.6-2.8
					s2.3,0.7,3.3,1.5l2.1,1.8c0.6-1.7,2.5-2.5,4.2-1.9c0.9,0.3,1.5,1,1.9,1.8c1.3-1.4,2.8-2.5,4.6-3.2c0.4-0.2,0.8-0.2,1.2,0
					c0.2,0.2,0.4,0.4,0.5,0.7c0.6,1.2,0.9,2.6,0.9,3.9c0.3-0.1,0.6,0,0.8,0.3c0.2,0.3,0.3,0.6,0.3,0.9c0.1,0.5,0.1,1,0.1,1.4
					c0,0.5-0.1,1-0.4,1.4c-0.5,0.4-1.1,0.6-1.8,0.6c0.3,0.3,0.2,0.8-0.1,1c0,0,0,0-0.1,0c-0.4,0.2-0.8,0.3-1.2,0.2
					c-1.6,0.1-3.2-0.2-4.7-1c-0.5-0.3-1-0.8-1.5-1.2c-1.4-0.7-2.9-1-4.4-0.8C674.5,618.2,673.4,619.3,672.1,619.7z"/>
				<path class="st1" d="M671.9,619.4c0,0-13.4,1.9-15.3,10l2.8-0.4l2,3.5c0,0,2.1-7.9,8.2-9.8c2.7-0.9,5.5-1.6,8.3-2.2
					c0,0,4.3,1,8.1,13.4l2.2-3l3.9,0.8c0,0-2.8-9.7-10.4-12.4L671.9,619.4z"/>
				<polygon class="st3" points="742.7,619.4 742.7,651.5 734.2,668.7 734.2,668.7 733.9,669.2 711.5,667.7 702.8,667.2 
					682.8,665.8 682.8,627.4 702.8,628 711.8,628.2 734.5,628.9 				"/>
				<polygon class="st2" points="742.7,621.3 742.7,651.5 740.6,655.7 740.6,655.7 738.5,660 738.5,660 734.2,668.7 734.7,636.6 
					734.8,630.1 738.9,625.6 738.9,625.6 740.6,623.6 				"/>
				<polygon class="st3" points="743.9,610.9 743.9,622.1 742.7,624 740.6,627.2 738.8,630.1 734.8,636.6 734.7,636.6 681,633.8 
					681,622.7 681.1,622.6 687.6,615.7 689.9,613.1 694.1,608.6 				"/>
				<polygon class="st2" points="734.8,625.5 734.8,636.6 681,633.8 681,622.7 681.1,622.6 				"/>
				<polygon class="st7" points="743.9,610.9 743.9,622.1 734.8,636.6 734.8,625.5 				"/>
				<polygon class="st1" points="740.6,616.1 740.6,623.6 740.6,627.2 740.6,655.7 740.6,655.7 738.5,660 738.8,630.1 738.9,625.6 
					738.9,625.6 738.9,618.8 687.6,615.7 689.9,613.1 				"/>
				<polygon class="st1" points="715.4,616.4 711.8,624.3 711.8,628.2 711.5,667.7 702.8,667.2 702.8,623.7 707.4,616.4 				"/>
				<path class="st1" d="M703.6,617c-2.1,0.7-4.3,0.8-6.4,0.2c-0.4-0.1-0.8-0.3-1.1-0.5c-0.3-0.4-0.6-0.9-0.7-1.4
					c-0.4-1.1-0.6-2.2-0.6-3.3c0-1.2,0.5-2.3,1.4-3c0.2-0.1,0.4-0.2,0.5-0.4c0.2-0.2,0.3-0.5,0.4-0.8c0.6-1.9,1.9-3.9,3.8-4.2
					s3.5,1,4.8,2.2l3,2.6c0.9-2.5,3.7-3.8,6.2-2.9c1.3,0.5,2.3,1.5,2.8,2.7c1.8-2.1,4.2-3.7,6.8-4.7c0.6-0.3,1.2-0.3,1.8-0.1
					c0.3,0.2,0.6,0.6,0.7,1c0.8,1.8,1.3,3.8,1.3,5.8c0.4-0.2,0.9,0,1.2,0.4c0.2,0.4,0.4,0.8,0.4,1.3c0.1,0.7,0.1,1.4,0.1,2.1
					c0.1,0.7-0.1,1.5-0.5,2.1c-0.7,0.6-1.7,0.9-2.7,0.8c0.4,0.5,0.3,1.1-0.2,1.5l-0.1,0.1c-0.5,0.3-1.2,0.4-1.8,0.3
					c-2.4,0-4.9-0.1-6.9-1.4c-0.8-0.5-1.4-1.2-2.2-1.7c-1.9-1.3-4.3-1.3-6.5-1.2C707.1,614.7,705.5,616.3,703.6,617z"/>
				<path class="st1" d="M703.1,616.4c0,0-19.8,2.8-22.6,14.8l4.1-0.6l2.9,5.2c0,0,3.1-11.7,12.1-14.5s12.3-3.2,12.3-3.2
					s6.3,1.5,12,19.8l3.2-4.5l5.7,1.2c0,0-4.1-14.3-15.4-18.3L703.1,616.4z"/>
				<path class="st5" d="M750.6,662.2c0,2-7.8-0.2-10.5,1.4c-1.8,1-0.8,8.5-3.4,9.4c-2.1,0.7-4.8,0.9-7.4,1.5
					c-2.2,0.5-5-0.5-7.5-0.1c-2.3,0.3-4.9-1.1-7.4-0.8c-2.4,0.2-4.8-2-7.3-1.9s-4.7,0.1-7.1,0.1s-4.9,4-7.3,3.9
					c-2.4-0.1-4.5-5.5-6.8-5.7c-2.5-0.2-5.5,5.2-7.8,4.8c-2.5-0.4-4.9-1.6-7.1-2c-2.6-0.6-3.5-5.7-5.6-6.4c-2.7-0.9-8.2,5.6-10,4.5
					c-2.8-1.7-3.3-6.8-3.3-8.7s2.7-3.4,5.5-5.1c1.8-1,5,1.2,7.6,0.4c2.1-0.7,4-1.8,6.5-2.3c2.2-0.5,3.6-6.2,6.2-6.6
					c2.3-0.3,5.1,2.7,7.6,2.5c2.4-0.2,4.8,2.3,7.3,2.2s4.6-4.3,7.1-4.3s4.9,0.7,7.3,0.8c2.4,0.1,4.5,4.5,6.9,4.7
					c2.5,0.2,5.4-4.4,7.7-4c2.5,0.4,4.9,1,7.1,1.5c2.6,0.6,3.8,4.7,5.9,5.4c2.6,0.9,6.2-1.9,8-0.9
					C745.5,658,750.6,660.2,750.6,662.2z"/>
				<path class="st5" d="M805.6,654.2c0,2-7.8-0.2-10.5,1.4c-1.8,1-0.8,8.5-3.4,9.4c-2.1,0.7-4.8,0.9-7.4,1.5
					c-2.2,0.5-5-0.5-7.5-0.1c-2.3,0.3-4.9-1.1-7.4-0.8c-2.3,0.2-4.8-2-7.3-1.9s-4.7,0.1-7.1,0.1c-2.4,0-4.9,4-7.3,3.9
					c-2.4-0.1-4.5-5.5-6.8-5.7c-2.5-0.2-5.5,5.2-7.8,4.8c-2.5-0.4-4.9-1.6-7.1-2c-2.6-0.6-3.5-5.7-5.6-6.4c-2.7-0.9-8.2,5.6-10,4.5
					c-2.8-1.7-3.3-6.8-3.3-8.7s2.7-3.4,5.5-5.1c1.8-1,5,1.2,7.6,0.4c2.1-0.7,4-1.8,6.5-2.3c2.2-0.5,3.6-6.2,6.2-6.6
					c2.3-0.3,5.1,2.7,7.6,2.5c2.4-0.2,4.8,2.3,7.3,2.2s4.6-4.3,7.1-4.3s4.9,0.7,7.3,0.8c2.4,0.1,4.5,4.5,6.9,4.7
					c2.5,0.2,5.4-4.4,7.7-4c2.5,0.4,4.9,1,7.1,1.5c2.6,0.6,3.8,4.7,5.9,5.4c2.7,0.9,6.2-1.9,8-0.9
					C800.5,650,805.6,652.2,805.6,654.2z"/>
				<path class="st5" d="M922,669.2c0,2.3-13.2,0.3-14.6,2.5c-1.2,1.8,6.1,11.1,4,12.7c-1.7,1.4-4.7,2.3-7,3.6
					c-2,1.1-5.3,0.1-7.7,1.1c-2.1,0.9-5.3-0.9-7.7-0.2c-2.2,0.7-5.3-2.5-7.8-1.8s-4.3,1-6.7,1.5s-3.4,7.3-5.8,7.7
					c-2.4,0.4-5.7-7.8-8.1-7.5c-2.4,0.3-3.8,9.6-6.2,9.8s-4.8-1-7.3-0.9s-4.8-7.5-7.2-7.5s-5,13.2-7.4,13.1s-4.7-4.8-7-5
					c-2.3-0.2-4.6-2.5-7-2.8s-4-6-6.3-6.3c-2.3-0.3-4.7,0.2-7-0.3c-2.3-0.5-6.6,7.5-8.8,6.9c-2.2-0.6-3.3-6.5-5.5-7.2
					c-2.4-0.8-2.9-5.5-5-6.4c-2.3-1-7.1,4.2-9,3.1c-2.3-1.2-3.7-3.3-5.4-4.7c-2.1-1.6,2.1-7,0.9-8.8c-1.4-2.2-8.9-0.2-8.9-2.5
					c0.2-2.5,1.1-4.8,2.6-6.8c1.2-1.8,6.5,1.1,8.6-0.5c1.7-1.3-0.2-7.8,2.1-9.1c2-1.1,1.7-8.4,4-9.3c2.1-0.9,5.6,0.4,8-0.3
					c2.2-0.7,4.8-1.5,7.2-2.1s4.6-2.3,7-2.8s5.9,5.8,8.4,5.5s3.9-7.8,6.3-8.1c2.4-0.3,5.6,8.9,8,8.7s4.8,3.5,7.2,3.4s4.5-6.5,7-6.5
					s4.8,0.7,7.2,0.8s5.2-5.6,7.5-5.4c2.3,0.2,4.4,6.1,6.7,6.3c2.3,0.2,5.1-1.4,7.4-1.1s3.6,7.1,5.9,7.5s4.8-0.2,7,0.4
					c2.4,0.6,5.1-0.8,7.3-0.2c2.4,0.8,3.4,4.1,5.5,5c2.3,1,7.3-4.3,9.3-3.3c2.3,1.1,4.5,2.3,6.6,3.8c2.1,1.6,6,2.8,7.2,4.7
					C919,662,922,666.8,922,669.2z"/>
				<polygon class="st4" points="1071.8,562.8 1071.8,609 1059.6,633.6 1059.6,633.6 1059.2,634.4 1026.9,632.3 1014.4,631.4 
					985.6,629.5 985.6,574.3 1014.4,575.1 1027.3,575.4 1060,576.4 				"/>
				<polygon class="st2" points="1071.8,565.5 1071.8,609 1068.8,615 1068.8,615 1065.8,621.2 1065.8,621.2 1059.6,633.6 
					1060.3,587.4 1060.4,578.1 1066.3,571.6 1066.3,571.6 1068.8,568.8 				"/>
				<polygon class="st4" points="1073.5,550.5 1073.5,566.6 1071.8,569.3 1068.8,574 1066.2,578.2 1060.4,587.4 1060.3,587.4 
					983,583.4 983,567.5 983.2,567.3 992.5,557.3 995.8,553.7 1001.8,547.2 				"/>
				<polygon class="st2" points="1060.4,571.5 1060.4,587.4 983,583.4 983,567.5 983.2,567.3 				"/>
				<polygon class="st7" points="1073.5,550.5 1073.5,566.6 1060.4,587.4 1060.4,571.5 				"/>
				<polygon class="st1" points="1068.8,557.9 1068.8,568.8 1068.8,574 1068.8,615 1068.8,615 1065.8,621.2 1066.2,578.2 
					1066.3,571.6 1066.3,571.6 1066.4,561.9 992.5,557.3 995.8,553.7 				"/>
				<polygon class="st1" points="1032.6,558.5 1027.4,569.7 1027.3,575.4 1026.9,632.3 1014.4,631.4 1014.4,569 1021.1,558.5 				
					"/>
				<path class="st1" d="M1015.5,559.2c-3,1-6.2,1.1-9.3,0.3c-0.6-0.1-1.2-0.4-1.6-0.8c-0.5-0.6-0.9-1.3-1-2
					c-0.5-1.5-0.8-3.1-0.9-4.8c0-1.6,0.7-3.2,2-4.2c0.3-0.2,0.5-0.4,0.8-0.6c0.3-0.3,0.5-0.7,0.6-1.2c0.9-2.7,2.7-5.5,5.5-6
					c2.6-0.4,5,1.4,7,3.1l4.4,3.7c1.3-3.6,5.3-5.4,8.9-4.1c1.8,0.7,3.3,2.1,4,3.9c2.7-3,6-5.3,9.8-6.7c0.8-0.4,1.7-0.5,2.6-0.1
					c0.5,0.3,0.8,0.8,1,1.4c1.2,2.6,1.8,5.5,1.9,8.3c0.6-0.2,1.3,0,1.7,0.6c0.3,0.6,0.5,1.2,0.6,1.8c0.1,1,0.2,2,0.2,3
					c0.1,1.1-0.2,2.1-0.8,3c-0.9,1-2.5,1.2-3.8,1.2c0.5,0.7,0.4,1.6-0.2,2.2c0,0-0.1,0.1-0.2,0.1c-0.8,0.4-1.7,0.6-2.6,0.5
					c-3.4,0-7-0.1-9.9-2c-1.1-0.8-2.1-1.7-3.2-2.5c-2.8-1.8-6.2-1.9-9.4-1.8C1020.5,555.9,1018.2,558.3,1015.5,559.2z"/>
				<path class="st1" d="M1014.8,558.5c0,0-28.5,4-32.5,21.2l6-0.9l4.2,7.5c0,0,4.4-16.8,17.5-20.8s17.7-4.6,17.7-4.6
					s9.1,2.2,17.2,28.5l4.6-6.4l8.2,1.8c0,0-6-20.6-22.1-26.3H1014.8L1014.8,558.5z"/>
				<polygon class="st3" points="1032,580.8 1032,643.2 1015.5,676.5 1015.5,676.5 1014.9,677.6 971.2,674.7 954.5,673.6 915.5,671 
					915.5,596.4 954.5,597.5 971.9,598 1016,599.2 				"/>
				<polygon class="st2" points="1032,584.5 1032,643.2 1027.9,651.4 1027.9,651.4 1023.8,659.7 1023.8,659.7 1015.5,676.5 
					1016.4,614.1 1016.6,601.5 1024.5,592.8 1024.5,592.7 1028,588.9 				"/>
				<polygon class="st3" points="1034.2,564.3 1034.2,586 1032,589.6 1028,596 1024.4,601.6 1016.6,614.1 1016.4,614.1 912.1,608.7 
					912.1,587.3 912.3,587 924.8,573.5 929.3,568.6 937.4,559.8 				"/>
				<polygon class="st2" points="1016.6,592.6 1016.6,614.1 912.1,608.7 912.1,587.3 912.3,587 				"/>
				<polygon class="st7" points="1034.2,564.3 1034.2,586 1016.6,614.1 1016.6,592.6 				"/>
				<polygon class="st1" points="1028,574.3 1028,588.9 1028,596 1027.9,651.4 1027.9,651.4 1023.8,659.7 1024.4,601.6 
					1024.5,592.8 1024.5,592.7 1024.6,579.6 924.8,573.5 929.3,568.6 				"/>
				<polygon class="st1" points="979,575 972,590.2 971.9,598 971.2,674.7 954.5,673.6 954.5,589.2 963.4,575 				"/>
				<path class="st1" d="M955.9,576c-4,1.3-8.4,1.5-12.5,0.4c-0.8-0.1-1.6-0.5-2.2-1c-0.7-0.8-1.2-1.7-1.4-2.7
					c-0.7-2.1-1.1-4.2-1.2-6.4c0-2.2,0.9-4.4,2.7-5.8c0.4-0.2,0.7-0.5,1-0.8c0.4-0.5,0.6-1,0.8-1.6c1.2-3.7,3.6-7.5,7.4-8.1
					c3.5-0.5,6.7,1.9,9.4,4.2l5.9,5c1.8-4.8,7.2-7.3,12-5.5c2.5,0.9,4.4,2.8,5.4,5.3c3.6-4.1,8.1-7.2,13.2-9.1
					c1.1-0.4,2.4-0.8,3.5-0.1c0.6,0.5,1.1,1.1,1.4,1.8c1.6,3.5,2.5,7.4,2.6,11.2c0.9-0.3,1.8,0,2.3,0.8c0.5,0.7,0.7,1.6,0.8,2.5
					c0.2,1.4,0.2,2.7,0.2,4.1c0.1,1.4-0.2,2.9-1.1,4.1c-1.2,1.4-3.3,1.6-5.2,1.6c0.9,0.8,0.5,2.4-0.5,3.1c-1.1,0.6-2.3,0.8-3.5,0.7
					c-4.6,0-9.5-0.2-13.4-2.7c-1.5-1-2.8-2.4-4.3-3.4c-3.7-2.5-8.4-2.6-12.7-2.4C962.7,571.5,959.6,574.8,955.9,576z"/>
				<path class="st1" d="M955.1,575c0,0-38.5,5.4-43.9,28.7l8.1-1.2l5.7,10.2c0,0,6-22.7,23.6-28.1c17.6-5.4,23.9-6.3,23.9-6.3
					s12.2,3,23.3,38.5l6.3-8.7l11,2.4c0,0-8.1-27.8-29.9-35.5L955.1,575L955.1,575z"/>
				<polygon class="st1" points="1094.5,611.8 1094.5,650.5 1084.2,671 1084.2,671 1083.9,671.7 1056.9,669.9 1046.5,669.2 
					1022.4,667.6 1022.4,621.4 1046.5,622.1 1057.3,622.4 1084.6,623.2 				"/>
				<polygon class="st2" points="1094.5,614.1 1094.5,650.5 1092,655.5 1092,655.5 1089.4,660.6 1089.4,660.7 1084.2,671 
					1084.8,632.4 1085,624.6 1089.8,619.2 1089.8,619.2 1092,616.8 				"/>
				<polygon class="st1" points="1095.8,601.6 1095.8,615.1 1094.5,617.3 1092,621.2 1089.8,624.7 1085,632.4 1084.8,632.4 
					1020.3,629.1 1020.3,615.8 1020.4,615.6 1028.1,607.3 1030.9,604.3 1036,598.8 				"/>
				<polygon class="st2" points="1085,619.1 1085,632.4 1020.3,629.1 1020.3,615.8 1020.4,615.6 				"/>
				<polygon class="st7" points="1095.8,601.6 1095.8,615.1 1085,632.4 1085,619.1 				"/>
				<polygon class="st3" points="1092,607.8 1092,616.8 1092,621.2 1092,655.5 1092,655.5 1089.4,660.6 1089.8,624.7 1089.8,619.2 
					1089.8,619.2 1089.9,611.1 1028.1,607.3 1030.9,604.3 				"/>
				<polygon class="st3" points="1061.7,608.2 1057.3,617.6 1057.3,622.4 1056.9,669.9 1046.5,669.2 1046.5,617 1052,608.2 				"/>
				<path class="st3" d="M1047.4,608.8c-2.5,0.8-5.2,0.9-7.8,0.3c-0.5-0.1-1-0.3-1.4-0.6c-0.4-0.5-0.7-1-0.8-1.7
					c-0.5-1.3-0.7-2.6-0.7-4s0.6-2.7,1.7-3.6c0.2-0.1,0.4-0.3,0.6-0.5c0.2-0.3,0.4-0.6,0.5-1c0.8-2.3,2.2-4.6,4.6-5
					c2.2-0.3,4.1,1.2,5.8,2.6l3.7,3.1c1.1-3,4.5-4.5,7.5-3.4c1.5,0.6,2.7,1.7,3.3,3.3c2.2-2.5,5-4.4,8.2-5.6
					c0.7-0.3,1.5-0.4,2.2-0.1c0.4,0.3,0.7,0.7,0.8,1.2c1,2.2,1.6,4.6,1.6,7c0.5-0.2,1.1,0,1.4,0.5s0.4,1,0.5,1.5
					c0.1,0.8,0.1,1.7,0.2,2.5c0.1,0.9-0.1,1.8-0.7,2.5c-0.8,0.9-2,1-3.2,1c0.4,0.6,0.4,1.4-0.2,1.8l-0.1,0.1
					c-0.7,0.3-1.4,0.5-2.2,0.4c-2.9,0-5.9-0.1-8.3-1.7c-0.9-0.6-1.7-1.5-2.7-2.1c-2.3-1.5-5.2-1.6-7.9-1.5
					C1051.6,606.1,1049.7,608.1,1047.4,608.8z"/>
				<path class="st3" d="M1046.8,608.2c0,0-23.8,3.3-27.2,17.8l5-0.7l3.5,6.3c0,0,3.7-14,14.6-17.4s14.8-3.9,14.8-3.9
					s7.6,1.8,14.4,23.8l3.9-5.4l6.8,1.5c0,0-5-17.2-18.5-22L1046.8,608.2L1046.8,608.2z"/>
				<path class="st5" d="M969.6,669.2c0,2-7.8-0.2-10.5,1.4c-1.8,1-0.8,8.5-3.4,9.4c-2.1,0.7-4.8,0.9-7.4,1.5
					c-2.2,0.5-5-0.5-7.5-0.1c-2.3,0.3-4.9-1.1-7.4-0.8c-2.3,0.2-4.8-2-7.3-1.9s-4.7,0.1-7.1,0.1c-2.4,0-4.9,4-7.3,3.9
					c-2.4-0.1-4.5-5.5-6.8-5.7c-2.5-0.2-5.5,5.2-7.8,4.8c-2.5-0.4-4.8-1.6-7.1-2c-2.6-0.6-3.5-5.7-5.6-6.4c-2.7-0.9-8.2,5.6-10,4.5
					c-2.8-1.7-3.3-6.8-3.3-8.7s2.7-3.4,5.5-5.1c1.8-1,5,1.2,7.6,0.4c2.1-0.7,4-1.8,6.5-2.3c2.2-0.5,3.6-6.2,6.2-6.6
					c2.3-0.3,5.1,2.7,7.7,2.5c2.3-0.2,4.8,2.3,7.3,2.2s4.6-4.3,7.1-4.3s4.9,0.7,7.3,0.8c2.4,0.1,4.5,4.5,6.9,4.7
					c2.5,0.2,5.4-4.4,7.7-4c2.5,0.4,4.9,1,7.1,1.5c2.6,0.6,3.8,4.7,5.9,5.4c2.7,0.9,6.2-1.9,8-0.9
					C964.5,665,969.6,667.2,969.6,669.2z"/>
				<path class="st5" d="M1033.6,669.2c0,2-7.8-0.2-10.5,1.4c-1.8,1-0.8,8.5-3.4,9.4c-2.1,0.7-4.8,0.9-7.4,1.5
					c-2.2,0.5-5-0.5-7.5-0.1c-2.3,0.3-4.9-1.1-7.4-0.8c-2.3,0.2-4.8-2-7.3-1.9s-4.7,0.1-7.1,0.1c-2.4,0-4.9,4-7.3,3.9
					c-2.4-0.1-4.5-5.5-6.8-5.7c-2.5-0.2-5.5,5.2-7.8,4.8c-2.5-0.4-4.8-1.6-7.1-2c-2.6-0.6-3.5-5.7-5.6-6.4c-2.7-0.9-8.2,5.6-10,4.5
					c-2.8-1.7-3.3-6.8-3.3-8.7s2.7-3.4,5.5-5.1c1.8-1,5,1.2,7.6,0.4c2.1-0.7,4-1.8,6.5-2.3c2.2-0.5,3.6-6.2,6.2-6.6
					c2.3-0.3,5.1,2.7,7.7,2.5c2.3-0.2,4.8,2.3,7.3,2.2s4.6-4.3,7.1-4.3s4.9,0.7,7.3,0.8c2.4,0.1,4.5,4.5,6.9,4.7
					c2.5,0.2,5.4-4.4,7.7-4c2.5,0.4,4.9,1,7.1,1.5c2.6,0.6,3.8,4.7,5.9,5.4c2.7,0.9,6.2-1.9,8-0.9
					C1028.5,665,1033.6,667.2,1033.6,669.2z"/>
				<path class="st5" d="M1108.6,662.2c0,2-7.8-0.2-10.5,1.4c-1.8,1-0.8,8.5-3.4,9.4c-2.1,0.7-4.8,0.9-7.4,1.5
					c-2.2,0.5-5-0.5-7.5-0.1c-2.3,0.3-4.9-1.1-7.4-0.8c-2.3,0.2-4.8-2-7.3-1.9s-4.7,0.1-7.1,0.1s-4.9,4-7.3,3.9s-4.5-5.5-6.8-5.7
					c-2.5-0.2-5.5,5.2-7.8,4.8c-2.5-0.4-4.8-1.6-7.1-2c-2.6-0.6-3.5-5.7-5.6-6.4c-2.7-0.9-8.2,5.6-10,4.5c-2.8-1.7-3.3-6.8-3.3-8.7
					s2.7-3.4,5.5-5.1c1.8-1,5,1.2,7.6,0.4c2.1-0.7,4-1.8,6.5-2.3c2.2-0.5,3.6-6.2,6.2-6.6c2.3-0.3,5.1,2.7,7.7,2.5
					c2.3-0.2,4.8,2.3,7.3,2.2s4.6-4.3,7.1-4.3s4.9,0.7,7.3,0.8s4.5,4.5,6.9,4.7c2.5,0.2,5.4-4.4,7.7-4c2.5,0.4,4.9,1,7.1,1.5
					c2.6,0.6,3.8,4.7,5.9,5.4c2.7,0.9,6.2-1.9,8-0.9C1103.5,658,1108.6,660.2,1108.6,662.2z"/>
			</g>
		</g>
	</g>
</g>
</svg>
