<?xml version="1.0" encoding="utf-8"?>
<!-- Generator: Adobe Illustrator 19.0.0, SVG Export Plug-In . SVG Version: 6.00 Build 0)  -->
<svg version="1.1" xmlns="http://www.w3.org/2000/svg" xmlns:xlink="http://www.w3.org/1999/xlink" x="0px" y="0px"
	 viewBox="0 0 1040.8 799.2" style="enable-background:new 0 0 1040.8 799.2;" xml:space="preserve">
<style type="text/css">
	.st0{opacity:0.1;fill:#6C63FF;enable-background:new    ;}
	.st1{opacity:0.1;}
	.st2{fill:#6C63FF;}
	.st3{opacity:0.1;enable-background:new    ;}
	.st4{fill:none;stroke:#535461;stroke-miterlimit:10;}
	.st5{fill:none;stroke:#535461;stroke-width:2;stroke-miterlimit:10;}
	.st6{fill:url(#SVGID_1_);}
	.st7{fill:#63667E;}
	.st8{fill:#33363D;}
	.st9{fill:#FFA2A2;}
	.st10{fill:#CED7E7;}
	.st11{fill:#896363;}
	.st12{fill:#4E5A86;}
	.st13{fill:none;stroke:#C1272D;stroke-miterlimit:10;}
</style>
<g id="A1">
	<title>young and happy</title>
	<g>
		<g>
			<g>
				<path class="st0" d="M617.8,131.8c-64.7-2.7-126.4-27.4-185.2-54.4S315.4,20.4,252.3,6c-40.6-9.2-87.1-10.5-119.9,15.2
					C100.9,46,90.7,88.8,85.3,128.5c-4.1,29.9-6.5,61.3,4.7,89.3c7.8,19.4,21.7,35.8,31.4,54.4c33.5,64.7,9.8,144.5-26.4,207.8
					c-17,29.6-36.8,57.9-49.9,89.5s-19.2,67.7-7.7,99.9c11.4,31.9,38.5,55.9,67.9,72.7c59.7,34.2,130,44,198.6,49.6
					c151.8,12.3,304.5,7,456.7,1.6c56.3-2,112.9-4,168.3-14.3c30.8-5.7,62.6-14.8,84.9-36.7c28.4-27.8,35.4-75,16.4-109.9
					c-31.9-58.5-120-73.1-142.3-135.9c-12.3-34.6,0.3-73.1,18.2-105.2c38.2-68.8,102.3-129.2,105.7-207.8
					c2.3-54-28.5-108.1-76.1-133.6c-49.9-26.8-119.2-23.4-156,20.9C741.6,116.6,675,134.1,617.8,131.8z"/>
			</g>
		</g>
	</g>
</g>
<g id="A2222">
	<g>
		<g>
			<g>
				<g class="st1">
					<path class="st2" d="M869.9,677.4C885.2,700,880.3,781,880.3,781s-77-25.5-92.4-48.1c-15.3-22.6-9.4-53.4,13.2-68.8
						S854.6,654.7,869.9,677.4L869.9,677.4L869.9,677.4z"/>
					<path class="st3" d="M869.9,677.4C885.2,700,880.3,781,880.3,781s-77-25.5-92.4-48.1c-15.3-22.6-9.4-53.4,13.2-68.8
						S854.6,654.7,869.9,677.4L869.9,677.4L869.9,677.4z"/>
					<path class="st4" d="M801.5,664.2c0,0,57.7,44.6,79.2,116.9"/>
					<path class="st2" d="M895.2,719.7c0,0-41-7-13,60.9c0,0,28.5-10.8,30.7-37.9c0.9-10.9-6.5-20.7-17.2-22.9L895.2,719.7z"/>
					<path class="st4" d="M895.8,719.6c0,0,7.8,37.6-13.6,61"/>
				</g>
				<g class="st1">
					<path class="st5" d="M446.5,609.6c0,0,61.6-157,179.3-216.4c49.4-24.9,90.1-64.4,114.7-114c11.6-23.5,21.1-48.1,28.2-73.4"/>
					<path class="st2" d="M842.6,168c-12.2,15.7-75.8,39.1-75.8,39.1s6.9-67.4,19.1-83.1c11.8-15.9,34.3-19.2,50.2-7.4
						s19.2,34.3,7.4,50.2C843.2,167.2,842.9,167.6,842.6,168L842.6,168z"/>
					<path class="st2" d="M822.1,291.2c-18.7,6.5-84.8-8.4-84.8-8.4s42.4-52.8,61.2-59.4c18.7-6.5,39.2,3.3,45.7,22.1
						C850.7,264.1,840.8,284.6,822.1,291.2z"/>
					<path class="st2" d="M705,437.8c-19.5-3.8-69-50.1-69-50.1s63.3-24.2,82.8-20.4c19.5,3.8,32.2,22.7,28.3,42.1
						C743.3,428.9,724.4,441.6,705,437.8L705,437.8z"/>
					<path class="st2" d="M591.3,528.8c-19.8-0.5-76.5-37.7-76.5-37.7s58.3-34.5,78.2-34.1c19.8,0.5,35.5,16.9,35.1,36.7
						C627.6,513.6,611.2,529.3,591.3,528.8L591.3,528.8z"/>
					<path class="st2" d="M675.4,239.6c2.8,19.6,46.3,71.6,46.3,71.6s27.6-61.9,24.8-81.6c-3.1-19.6-21.4-33-41-29.9
						C686.3,202.7,673,220.4,675.4,239.6z"/>
					<path class="st2" d="M543.8,347.7c8.5,17.9,65.6,54.4,65.6,54.4s7.8-67.3-0.8-85.3c-8.5-17.9-29.9-25.5-47.8-17
						C542.9,308.4,535.3,329.8,543.8,347.7L543.8,347.7z"/>
					<path class="st2" d="M430.4,470.3c5.4,19.1,55.5,64.8,55.5,64.8s19-65.1,13.7-84.2c-5.6-19-25.6-29.9-44.6-24.2
						C436.3,432.2,425.4,451.5,430.4,470.3z"/>
				</g>
				<g class="st1">
					<path class="st5" d="M436.3,326.8c0,0,22.2-56.7,64.8-78.2c17.9-8.9,32.4-23.3,41.4-41.2c4.2-8.5,7.6-17.4,10.2-26.5"/>
					<path class="st2" d="M579.4,167.3C575,173,552,181.4,552,181.4s2.5-24.4,6.9-30c4-6,12-7.6,18-3.6s7.6,12,3.6,18
						C580.2,166.3,579.8,166.8,579.4,167.3z"/>
					<path class="st2" d="M572,211.8c-6.8,2.4-30.7-3-30.7-3s15.3-19.1,22.1-21.5c6.6-2.8,14.2,0.3,17.1,6.9
						c2.8,6.6-0.3,14.2-6.9,17.1C573.1,211.5,572.5,211.7,572,211.8L572,211.8z"/>
					<path class="st2" d="M529.7,264.8c-7-1.4-24.9-18.1-24.9-18.1s22.9-8.7,29.9-7.4c7.1,0.9,12.1,7.5,11.2,14.6
						c-0.9,7.1-7.5,12.1-14.6,11.2C530.7,265,530.2,264.9,529.7,264.8L529.7,264.8z"/>
					<path class="st2" d="M488.6,297.7C481.5,297.5,461,284,461,284s21.1-12.5,28.2-12.3c7.2,0.6,12.4,6.9,11.8,14.1
						C500.5,292.3,495.1,297.4,488.6,297.7z"/>
					<path class="st2" d="M519,193.2c1,7.1,16.7,25.9,16.7,25.9s10-22.4,9-29.5c-0.5-7.2-6.8-12.5-13.9-12
						c-7.2,0.5-12.5,6.8-12,13.9C518.8,192,518.9,192.6,519,193.2L519,193.2z"/>
					<path class="st2" d="M471.4,232.2c3.1,6.5,23.7,19.7,23.7,19.7s2.8-24.3-0.3-30.8c-3.5-6.3-11.4-8.5-17.7-5
						C471.5,219.3,469,226.2,471.4,232.2z"/>
					<path class="st2" d="M430.5,276.5c1.9,6.9,20,23.4,20,23.4s6.9-23.5,4.9-30.4c-1.6-7-8.5-11.4-15.5-9.9
						c-7,1.6-11.4,8.5-9.9,15.5C430.1,275.6,430.3,276.1,430.5,276.5L430.5,276.5z"/>
				</g>
				<g class="st1">
					<path class="st5" d="M623.7,797.4c0,0,0.9-60.9,33.2-95.9c13.7-14.6,22.2-33.2,24.4-53.1c1-9.4,1-18.9,0.2-28.4"/>
					<path class="st2" d="M701.8,597.8c-2.1,6.8-20.7,22.8-20.7,22.8s-6.2-23.7-4.1-30.5c2.6-6.7,10.2-10,16.8-7.4
						C699.9,585.1,703.2,591.5,701.8,597.8L701.8,597.8z"/>
					<path class="st2" d="M710.4,642.1c-5.5,4.6-29.8,7.9-29.8,7.9s7.7-23.3,13.2-27.8c5.8-4.2,13.9-2.9,18.2,2.9
						C715.8,630.3,715.1,637.6,710.4,642.1z"/>
					<path class="st2" d="M689.4,706.5c-7.1,1.2-29.7-8.2-29.7-8.2s18.4-16.2,25.4-17.4c7.1-0.7,13.5,4.5,14.2,11.6
						C700,699.1,695.8,705,689.4,706.5z"/>
					<path class="st2" d="M662.4,751.7c-6.8,2.3-30.7-3.1-30.7-3.1s15.4-19,22.2-21.4c6.6-2.8,14.2,0.2,17.1,6.8
						c2.8,6.6-0.2,14.2-6.8,17.1C663.6,751.3,663,751.5,662.4,751.7z"/>
					<path class="st2" d="M654.2,643.2c3.4,6.3,24.7,18.3,24.7,18.3s1.5-24.4-2-30.7c-3.8-6.1-11.9-7.9-17.9-4
						C653.5,630.3,651.5,637.3,654.2,643.2L654.2,643.2z"/>
					<path class="st2" d="M623.4,696.4c5.2,5,29.1,10.1,29.1,10.1s-5.9-23.8-11.1-28.8c-5.5-4.6-13.7-3.8-18.3,1.8
						C619.1,684.5,619.2,691.7,623.4,696.4L623.4,696.4z"/>
					<path class="st2" d="M600.6,752.3c4.2,5.8,27,14.9,27,14.9s-1.8-24.4-6-30.2c-4.6-5.5-12.8-6.2-18.3-1.6
						C598.3,739.6,597.2,746.8,600.6,752.3L600.6,752.3z"/>
				</g>
				<g class="st1">
					<path class="st5" d="M473.7,787.8c0,0,0.9-60.9,33.2-95.9c13.7-14.6,22.2-33.2,24.4-53.1c1-9.4,1-18.9,0.2-28.4"/>
					<path class="st2" d="M551.8,588.2c-2.1,6.8-20.7,22.8-20.7,22.8s-6.2-23.7-4.1-30.5c1.6-7,8.6-11.3,15.6-9.7s11.3,8.6,9.7,15.6
						C552.2,587,552,587.6,551.8,588.2z"/>
					<path class="st2" d="M560.5,632.5c-5.5,4.6-29.8,7.9-29.8,7.9s7.7-23.3,13.2-27.8c5.8-4.2,13.9-2.9,18.1,2.9
						C565.8,620.7,565.2,628,560.5,632.5L560.5,632.5z"/>
					<path class="st2" d="M539.4,696.9c-7.1,1.2-29.7-8.2-29.7-8.2s18.4-16.2,25.4-17.4c7-1.6,14,2.7,15.6,9.7s-2.7,14-9.7,15.6
						C540.5,696.8,540,696.9,539.4,696.9z"/>
					<path class="st2" d="M512.5,742.1c-6.8,2.4-30.6-3.1-30.6-3.1s15.4-19.1,22.1-21.4c6.6-2.8,14.2,0.3,17,6.9
						c2.8,6.6-0.3,14.2-6.9,17C513.6,741.8,513.1,742,512.5,742.1L512.5,742.1z"/>
					<path class="st2" d="M504.3,633.6c3.4,6.3,24.7,18.3,24.7,18.3s1.5-24.4-2-30.7c-2.9-6.6-10.5-9.6-17.1-6.7
						c-6.6,2.9-9.6,10.5-6.7,17.1C503.5,632.3,503.9,633,504.3,633.6z"/>
					<path class="st2" d="M473.5,686.8c5.2,5,29.1,10.1,29.1,10.1s-5.9-23.8-11.1-28.8c-4.7-5.4-13-5.9-18.3-1.2
						c-5.4,4.7-5.9,13-1.2,18.3C472.5,685.9,473,686.4,473.5,686.8L473.5,686.8z"/>
					<path class="st2" d="M450.6,742.7c4.2,5.8,27,14.9,27,14.9s-1.8-24.4-6-30.2c-3.9-6.1-11.9-7.8-17.9-4s-7.8,11.9-4,17.9
						C450,741.8,450.3,742.3,450.6,742.7L450.6,742.7z"/>
				</g>
			</g>
		</g>
	</g>
</g>
<g id="A325">
	<g>
		<g>
			<g>
				
					<linearGradient id="SVGID_1_" gradientUnits="userSpaceOnUse" x1="293.9184" y1="635.7726" x2="293.9184" y2="7.07" gradientTransform="matrix(1 0 0 1 -79.59 156.33)">
					<stop  offset="0" style="stop-color:#808080;stop-opacity:0.25"/>
					<stop  offset="0.54" style="stop-color:#808080;stop-opacity:0.12"/>
					<stop  offset="1" style="stop-color:#808080;stop-opacity:0.1"/>
				</linearGradient>
				<path class="st6" d="M425.9,261.5l-53.3,8.4l-27.3,2.6l0,0l-7.3,0.7c0,0-13,2.1-14.3,0s-26.3,0-26.3,0s-15.2-18.1-51.4-8.6
					c-3.7,2.2-7.8,3.4-12,3.7c0-0.1,0-0.1,0-0.2c0.1-4.2-0.4-18.6-13.1-26.4c-3.6,0.4-7.1,1.4-10.3,3.2l-0.3,0.2l-0.9,0.5l-0.1,0.1
					c0.4-1.6,0.6-3.3,0.8-5c0-0.6,0-1.3,0.1-1.9c1.5-0.4,2.7-1.3,3.6-2.5c0.4-0.7,0.5-1.5,0.5-2.4c0-0.3,0-0.6,0-0.9
					c0-0.1,0-0.1,0-0.2c0,0,0,0,0,0.1c-0.2-3-0.6-5.9-1.3-8.8l3.9,2.6c0.9,0.6,2.1,1.3,3.2,0.9c0.7-0.3,1.3-0.8,1.5-1.6
					c0.7-1.9,0.2-4.2,1.7-5.7c0.4-0.4,0.8-0.7,1.1-1.1c0.4-0.5,0.6-1.2,0.5-1.9c0-0.4,0-0.8-0.1-1.2v0.1c-0.3-1-0.3-2-0.1-3
					c1.1,0.4,2.3,0.1,3-0.8c0.5-0.8,0.8-1.8,0.8-2.8c0.1-1.7,0.2-3.4,0.1-5.1v-0.1l0,0c-0.1-4.1-0.9-8.1-3.7-11.3
					c0.7-4.7-4.3-9.7-10-10.4c-1.4-0.1-3.1-0.2-3.7-1.3c-0.2-0.5-0.3-1-0.3-1.6c-0.1-1.8-1.4-3.3-2.5-4.8c-0.5-0.7-1-1.2-1.7-1.7
					c-1.9-1.2-4.5-0.9-6.8-0.5c-4.2,0.7-8.4,1.6-12.6,2.5c-0.5-2-0.5-4.1,0.1-6.1c0.4-1,0.6-2.1,0.7-3.1c0-0.3,0-0.7-0.1-1v0.1
					c-0.1-0.2-0.1-0.3-0.2-0.5c-0.4-0.7-1.2-1.2-2-1.3c-1.1,0-2.1,0.6-2.6,1.6c-2.4,3.5-4,7.4-4.9,11.5c-3.2-2.2-7.4-2.7-11-1.2
					c-0.9,0.5-1.9,0.8-2.9,1c-1.7,0-3.3-0.9-4.2-2.4c-1.1-1.7-1.7-3.8-3.9-4.9c-1-0.5-2.2-0.5-3.2,0c-0.5,0.3-0.9,0.8-1.1,1.3v-0.1
					c0,0.1,0,0.3,0,0.4c0,0.1,0,0.1,0,0.2s0,0.1,0,0.2c-0.1,1.9,1.3,4.4-0.3,5.9c-0.6,0.5-1.3,0.9-2.1,1.1l-5.4,1.9
					c-2.9,1.2-6,2-9.1,2.2c-2.9,0.1-5.7-0.5-8.5-0.5c-0.1-0.1-0.3-0.1-0.4-0.2c-0.6,0-1.3,0.1-1.9,0.2c0.1,0.1,0.1,0.2,0.2,0.2h-0.2
					c1.4,1.6,3.3,2.7,5.4,3.2c1.3,0.3,2.6,0.4,3.9,0.8s2.4,1.2,2.7,2.3c0,0.9-0.2,1.8-0.6,2.6l-0.1-0.1c-0.1,0.4-0.2,0.7-0.2,1.1
					c0,0.2,0,0.4,0,0.5c0.5,1.3,1.8,2.1,3.1,1.8l-6.4,4.1c-0.5,0.3-0.9,0.6-1.3,1l-0.2-0.1c-0.4,0.4-0.6,0.9-0.6,1.4
					c0,0.2,0,0.4,0.1,0.6l2.1,0.6l-5.7,7.8c-0.3,0.5-0.6,0.9-0.9,1.5l-0.1-0.1c-0.1,0.3-0.2,0.7-0.2,1c0,0.2,0,0.3,0,0.5
					c0.2,1.1,1.2,1.8,2.3,1.6c0.1,0,0.2,0,0.3-0.1c-1.2,1.2-2.2,2.7-2.9,4.3l-0.1-0.1l-0.1,0.2c-0.1,0.3-0.2,0.7-0.2,1
					s0,0.5,0.1,0.8c0.5,0.5,1.3,0.8,2,0.7c3,0,5.8-2,6.3-4.5c0.9,1-0.1,2.2-0.9,3.2c-3.5,4.1-7.1,8.4-9,13.2
					c-0.7,1.7-1.1,3.4-1.2,5.2v-0.1c0,0.1,0,0.3,0,0.4c-0.3,3.3,0.8,6.6,2.9,9.2c0.8,0.8,1.5,1.7,2.1,2.6c1.1,2.1,0.5,4.8,2.2,6.5
					c1.4-3.7,3.1-7.4,5.1-10.8c0,0.9-0.2,1.9-0.4,2.8v-0.1c0,0.2-0.1,0.5-0.1,0.7s0,0.3,0,0.5c-0.1,1.2,0.6,2.4,1.8,2.9
					c1.8,0.6,3.6-0.6,4.8-1.9c0.2,0.4,0.3,0.9,0.5,1.3c3.7,8.3,10.4,14.8,18.8,18.3l0.2,0.3l0,0c-6.8,4-22.4,13.7-23.5,17.5
					c-1.3,4.8-0.8,17.3,8.6,19.8c2,0.6,4.1,0.8,6.2,0.7c-0.4,0.6-0.8,1.3-1.2,1.9c-2.6,4.2-4.8,8.1-5.4,10.2
					c-1.9,6.1-19.7,13.5-19.7,13.5s-16.2,13-19.7,38c0,0-17.1,22.3-26.6,26.9s-26,33.1-26,33.1s-16.3,11.5-19.8,22.6
					c-3.5,11.2-12,13.9-12,13.9s0.8,0.4,2,1.1c-0.4,0.2-0.8,0.5-1.3,0.7c-7.8,4.6-24.9,17.3-21.1,37c3.7,19,25.2,0.5,35.6-9.8
					l0.9-0.9c-0.2,1.1-0.4,2.1-0.7,3.2c2.3-3.5,5.1-6.7,8.3-9.3c3.5-2.8,6.4-6.3,8.4-10.3c1.6-3,4.1-6,8-7
					c8.6-2.2,52-35.5,61.5-52.9s29.5-24,29.5-24L161,425c1.4,4.4,1.6,9,0.7,13.5c-2,9.8-4.5,28.6,1.6,43.3c0,0,0.3-0.3,0.8-0.7
					c0.8,3.7,1.9,8.6,2.9,13.4c0.2,1.2,0.4,2.4,0.7,3.5c0.6,3.3,1.1,6.3,1.4,8.8c1.3,10.5,4.8,34.6,7.6,37.1s19,52.6,19,52.6
					s14.3,32.8,12.1,47.3c-0.2,1.8-0.2,3.6,0.1,5.3c0.5,3.6,1.2,7.2,2.2,10.7c0.3,1.1,0.6,2.1,0.9,3.2c0.3,1,0.5,1.9,0.8,2.9
					c6.9,23.5,20.1,54.8,20.1,54.8s1.1,2.8,2.5,6.7c0.5,1.3,1,2.7,1.5,4.1c2.4,6.4,4.8,13.6,4.8,15.2c0,0.4,0.5,0.8,1.4,1.2
					c-2.3,3.8-4.3,7.7-6,11.7c-2.8,6.6-10.8,13.1-10.8,13.1s-9.5,2.7-9.5,11v6.3c0,0,20.2-0.4,26.9,1.5s15.5-1.3,15.5-1.3l1.9-2.5
					c0,0,23.1,1,24.5-4.7c0.4-1.7,0.4-5.3,0.1-9.5c-0.4-5.2-1.2-10.4-2.3-15.5c1.5-0.1,2.6-0.2,2.6-0.2s10.5,6.8,11.6,13.5
					c0.7,4,3.1,7.5,6.6,9.6c0,0,11,5,32,2.7c11-1.2,13.1-6.8,12.1-11.8c-0.9-4.6-4.4-8.6-6.1-8.3c-3.5,0.7-17.5-19.5-17.5-19.5
					l-7.1-15c0.6-8-1.2-11.8-3.9-13.4c1.8-16.9,2-39.5,2-39.5s1.6-27.2,0-51.6s-1.6-72.3-7-88.4c-2.5-7.5-6.1-28.4-9.3-48.7
					c-0.2-1.5-0.5-3-0.7-4.5c-0.8-4.9-1.5-9.8-2.1-14.3c0.3-0.2,0.6-0.3,0.9-0.5l-1.7-14.8l-0.2-2c0.1,0.1,0.1,0.1,0.2,0.2
					c5.7,5.2-1.9-23.8-1.9-23.8s-3.4-33.4-3.2-52.6c0-6.8-0.3-13.7-1.1-20.5c-0.6-5.7,0.8-13.2,9.4-18.4c2.3-1.4,4.4-3.1,6.4-4.9
					c2.4-2.2,7.7-5,19-5.3c19-0.6,38-10.5,38-10.5s21.9,1.2,32-11.8s35.5-16.1,35.5-16.1L425.9,261.5z M34.1,480.9l-2.8-3.9
					C32.3,478.2,33.3,479.5,34.1,480.9z M273.3,641.8c-0.2,2-0.3,4.3-0.3,7c-0.1,8.3,0.7,19.3,4.5,29.9l-1.6,41.5h-0.1
					c-1.3-0.1-2.6,4.1-3.6,9.7c-0.8-2.3-1.8-4.5-2.9-6.7c-1.9-2.8-0.3-18.2-0.3-18.2s-7.9-12.7-8.6-15.5s-10.2-47.9-10.2-47.9
					s-0.6-35.2-4.1-44.2s-4.4-47.9-4.4-47.9s17.4,28.1,18.7,42.4l13.6,43.6C274,635.4,273.6,637.8,273.3,641.8z"/>
				<path class="st7" d="M311.4,675.2c0,0-0.5,49.5-5.7,56.2s-32.5,0.3-32.5,0.3l2-54.4c-3.6-10.4-4.4-21.4-4.3-29.6
					c0-2.6,0.1-5,0.3-6.9c0.3-4,0.7-6.4,0.7-6.4l-13.2-43.2c-1.2-14.1-18.1-42-18.1-42s0.9,38.6,4.3,47.5s4,43.8,4,43.8
					s9.2,44.7,9.8,47.5s8.3,15.3,8.3,15.3s-1.5,15.3,0.3,18.1s9.5,24.2,7.6,28.2S240,748,240,745c0-1.6-2.4-8.7-4.7-15.1l-1.5-4.1
					c-1.4-3.8-2.5-6.6-2.5-6.6s-12.6-31-19.3-54.2c-0.3-1-0.5-1.9-0.8-2.8c-0.3-1.1-0.6-2.2-0.8-3.2c-0.9-3.5-1.6-7-2.1-10.6
					c-0.3-1.8-0.3-3.5-0.1-5.3c2.1-14.4-11.6-46.9-11.6-46.9s-15.6-49.6-18.4-52.1s-6.1-26.3-7.4-36.8c-0.3-2.4-0.8-5.5-1.4-8.7
					c-0.2-1.2-0.4-2.3-0.6-3.5c-1.9-9.7-4.2-19.6-4.2-19.6l34.3-22.7l90.4-9.8c0,0,2.5,19.4,5.7,40.7c0.2,1.5,0.5,3,0.7,4.5
					c3,20.1,6.5,40.8,8.9,48.2c5.2,15.9,5.2,63.4,6.7,87.6S311.4,675.2,311.4,675.2z"/>
				<polygon class="st3" points="222.5,471.3 233.9,529.3 239.3,529.3 228.5,469.3 				"/>
				<path class="st3" d="M169.5,498.6c-0.2-1.2-0.4-2.3-0.6-3.5c5.3-1.1,17.3-5.5,15.4-23.2h3.7
					C187.9,471.9,191.4,495.2,169.5,498.6z"/>
				<path class="st3" d="M295.8,488.2c-6.9,1.3-28.3,5-32.8,2.5c-5.4-2.9-10.6-18.7-10.6-18.7l4.9-0.8c0,0-4.3,23.1,37.9,12.5
					C295.3,485.2,295.5,486.7,295.8,488.2z"/>
				<path class="st8" d="M293.9,469.1c-6.2,3.6-20.7,5.3-37.6,6c-1.5,0.1-3.1,0.1-4.7,0.2c-27.4,0.9-59.4-0.7-72.1-1.4
					c-3.6-0.2-5.6-0.3-5.6-0.3l11.2-7.7l18.4-6.7l38.7-7.6l49.5-1.4l0.5,4.2L293.9,469.1z"/>
				<path class="st7" d="M256.3,475.2c-1.5,0.1-3.1,0.1-4.7,0.2c-1.9-8.2-8.1-21.4-8.1-21.4l5.2-0.7L256.3,475.2z"/>
				<path class="st9" d="M47.7,492.2c0,0-2.2,2.5-5.5,5.9c-10.1,10.2-30.8,28.6-34.4,9.7c-3.7-19.5,12.9-32,20.4-36.6
					c2.1-1.3,3.5-2,3.5-2L47.7,492.2z"/>
				<path class="st10" d="M233.3,271.8c0,0-11.7-7.4-13.9-6.7s0,10.5,0,10.5c-2.8,5.4-7.3,9.7-12.8,12.4
					c-6.3,3.3-12.3,6.9-18.1,10.9c-9.1-0.9-18.2,2.1-25,8.3c-4.8,3.2-10.6,4.2-16.2,2.8c-9.1-2.5-9.5-14.9-8.3-19.6
					c1-3.7,16.1-13.3,22.7-17.3l0,0c1.8-1.1,2.9-1.8,2.9-1.8s29.4-1,36.1-13.5c2-3.9,5.1-7.1,8.8-9.4l0,0l0.2-0.1l0.8-0.5l0.3-0.1
					c3.1-1.7,6.5-2.8,10-3.1C235.2,253.7,233.3,271.8,233.3,271.8z"/>
				<path class="st3" d="M233.3,271.8c0,0-11.7-7.4-13.9-6.7s0,10.5,0,10.5c-2.8,5.4-7.3,9.7-12.8,12.4c-6.3,3.3-12.3,6.9-18.1,10.9
					c-9.1-0.9-18.2,2.1-25,8.3c-4.8,3.2-10.6,4.2-16.2,2.8c-9.1-2.5-9.5-14.9-8.3-19.6c1-3.7,16.1-13.3,22.7-17.3l0,0
					c1.8-1.1,2.9-1.8,2.9-1.8s29.4-1,36.1-13.5c2-3.9,5.1-7.1,8.8-9.4l0,0l0.2-0.1l0.8-0.5l0.3-0.1c3.1-1.7,6.5-2.8,10-3.1
					C235.2,253.7,233.3,271.8,233.3,271.8z"/>
				<path class="st3" d="M292.2,454.4L292.2,454.4c-5.5-5.2-39.8,4.3-39.8,4.3s-23.6,6.8-41.6,7.9c-2.5,0.2-4.9,0.2-7.4,0.1
					c-7.6-0.4-15.5,2.7-22.1,6.3l-1.7,1c-3.6-0.2-5.6-0.3-5.6-0.3l11.2-7.7l18.4-6.7l38.7-7.6l49.5-1.4L292.2,454.4z"/>
				<path class="st3" d="M42.3,498.1c2.3-15.3-9.6-24.1-14-26.9c2.1-1.3,3.5-2,3.5-2l16,23C47.8,492.2,45.6,494.7,42.3,498.1z"/>
				<path class="st10" d="M421.7,290.2c0,0-24.5,3-34.3,15.9s-30.9,11.6-30.9,11.6s-18.4,9.8-36.8,10.4c-10.9,0.4-16,3.1-18.3,5.3
					c-1.9,1.8-3.9,3.4-6.1,4.9c-8.3,5.2-9.6,12.5-9.1,18.2c0.7,6.7,1.1,13.5,1,20.3c-0.2,19,3.1,52.1,3.1,52.1s7.4,28.8,1.8,23.6
					s-39.8,4.3-39.8,4.3s-23.6,6.8-41.6,7.9c-2.5,0.2-4.9,0.2-7.4,0.1c-7.6-0.4-15.5,2.7-22.1,6.3c-5.7,3.2-11,7-15.9,11.4
					c-5.9-14.5-3.4-33.2-1.5-42.9c0.9-4.5,0.7-9.1-0.7-13.4l-8.9-28.4c0,0-19.3,6.6-28.5,23.7s-51,50.3-59.3,52.5
					c-3.8,1-6.2,4-7.8,6.9c-2,3.9-4.7,7.4-8.1,10.2c-3.1,2.6-5.8,5.8-8,9.2c5.5-20.8-15-30.9-15-30.9s8.3-2.8,11.6-13.8
					s19-22.3,19-22.3s15.9-28.2,25.1-32.8c9.2-4.6,25.7-26.6,25.7-26.6c3.4-24.8,19-37.7,19-37.7s17.2-7.3,19-13.4
					c0.6-2.1,2.7-6,5.2-10.1c2.3-3.9,5-8.1,7.1-11.4s3.8-5.8,3.8-5.8l27.5-0.3h5l14.7-27.6c0,0,5.2-5.2,14.2,0.9
					c2.6,1.7,5.7,2.6,8.8,2.4c4.1-0.3,8.1-1.5,11.6-3.6c34.9-9.5,49.6,8.5,49.6,8.5s24.2-2,25.4,0s13.8,0,13.8,0l33.4-3.3l51.5-8.3
					L421.7,290.2z"/>
				<path class="st9" d="M220.8,281l-15.6,25.7c0,0-42.6,30.9-36.4,6.7c1-4.1,1.3-8.3,1.1-12.5c-0.1-1.6-0.3-3.3-0.5-4.9
					c-1.1-6.7-3.1-13.2-5.8-19.3c-0.3-0.7-0.6-1.5-1-2.1c-0.5-1-0.9-2-1.4-2.9c-2-4-4.2-7.8-6.7-11.5c0,0,46.2-37.7,47.8-14.1
					c0.3,5.3,1.6,10.6,3.6,15.5l0.4,0.8c2.6,5.8,6.3,11.1,10.9,15.4C218.1,279,219.4,280.1,220.8,281z"/>
				<path class="st10" d="M158.9,304.9l7.2,21.4l29.3,4.8l16.8-18.5c0,0,9.6-13.8,10.3-14.1s2.1-13.5,2.1-13.5l1.8-7.4l-11.3-3.8
					l-15.9,17.3l-6.5,4l-7.2,1.8l-24,7L158.9,304.9z"/>
				<path class="st3" d="M233.3,273.7c0,0-8-0.1-10.1,0.6s-3.8,3.3-3.8,3.3c-2.8,5.4-7.3,9.7-12.8,12.4c-6.3,3.3-12.3,6.9-18.1,10.9
					c-9.1-0.9-18.2,2.1-25,8.3c-3.4,2.2-7.3,3.5-11.3,3.5c2.3-3.9,5-8.1,7.1-11.4c9.9-1.1,30.8-4.9,30.8-4.9l0.5-1.1
					c1.9-4,8.5-17.5,10.9-21.6c2.8-4.8,11.7-19.6,11.9-20.1l-8.7,7.9l4.6-11.2l0,0l0.2-0.1l0.8-0.5l0.3-0.1c3.1-1.7,6.5-2.8,10-3.1
					c11,7,12.5,19.1,12.6,24.5C233.5,271.8,233.4,272.7,233.3,273.7z"/>
				<path class="st3" d="M161.7,271.3l2.3,5c0,0-0.2,0.2-0.6,0.5c-0.3-0.7-0.6-1.5-1-2.2c-0.5-1-0.9-2-1.4-2.9
					C161.2,271.5,161.4,271.4,161.7,271.3L161.7,271.3z"/>
				<path class="st3" d="M217,277.8c-2.8,3.5-6.3,6.4-10.2,8.5c-6.3,3.3-12.3,6.9-18.1,10.9c-6.5-0.6-13,0.7-18.8,3.8
					c-0.1-1.6-0.3-3.3-0.5-4.9c9.8-1.5,20.9-3.5,20.9-3.5s8.6-17.9,11.5-22.7c1-1.6,2.6-4.5,4.4-7.5
					C208.6,268.2,212.3,273.5,217,277.8z"/>
				<path class="st10" d="M233.3,271.8c0,0-8-0.1-10.1,0.6s-3.8,3.3-3.8,3.3c-2.8,5.4-7.3,9.7-12.8,12.4
					c-6.3,3.3-12.3,6.9-18.1,10.9c-9.1-0.9-18.2,2.1-25,8.3c-4.8,3.2-10.6,4.2-16.2,2.8c-9.1-2.5-9.5-14.9-8.3-19.6
					c1-3.7,16.1-13.3,22.7-17.3l0,0l2.3,5c-4.7,3.6-9.7,6.9-14.8,10c-9.8,5.8-4.8,12.2-4.8,12.2c3.5-0.6,7.1-0.8,10.7-0.7
					c5.1,0.3,35.1-5.2,35.1-5.2s8.6-17.9,11.5-22.7s11.7-19.6,11.9-20.1l-8.7,8l4.6-11.2l0,0l0.2-0.1l0.8-0.5l0.3-0.1
					c3.1-1.7,6.5-2.8,10-3.1C235.2,253.7,233.3,271.8,233.3,271.8z"/>
				<path class="st3" d="M205.7,261.6c-9.3,14.4-27.6,19.9-43.3,13c-2.3-5-5-9.9-8.1-14.5c0,0,46.2-37.7,47.8-14.1
					C202.4,251.4,203.6,256.7,205.7,261.6z"/>
				<path class="st9" d="M210.4,240.8c0,0.9,0,1.7-0.1,2.6c-1.4,19.3-18.1,33.8-37.4,32.4s-33.8-18.1-32.4-37.4
					c1.4-19.3,18.1-33.8,37.4-32.4C196.2,207.3,210.4,222.5,210.4,240.8z"/>
				<path class="st3" d="M119.7,353.3c0,0,7.7,14.4,17.2,22.3s15,20.2,15,20.2S149.1,372,119.7,353.3z"/>
				<path class="st3" d="M107.8,389.4c0,0,27-6.7,40.6,0H107.8z"/>
				<path class="st3" d="M98,429.6l29.1-10C127,419.6,108.4,432.9,98,429.6z"/>
				<path class="st3" d="M47.7,468.8c0,0,12.6-0.6,16.5,3.4C64.3,472.1,52,473,47.7,468.8z"/>
				<path class="st3" d="M340.8,275c0,0-28.2,16.7-29.4,43.7L340.8,275z"/>
				<path class="st3" d="M374.8,300.3c0,0-34.9,7-40.7,10.7c-5.8,3.7-18.4,5.5-18.4,5.5S366.3,309.8,374.8,300.3z"/>
				<path class="st3" d="M272.4,448.1c-2.5,2.6-33.9,10.1-61.9,16.3c-2.5,0.2-5.1,0.2-7.6,0.1c-7.9-0.4-16,2.8-22.9,6.5
					c-8.5,1.8-13.9,2.9-13.9,2.9s-9.2-7.3,3.5-23.6c12.7-16.4,14.9-42.2,14.9-42.2l56.5-14.5c0,0,15.2,21,22.5,24.4
					S277.1,443.3,272.4,448.1z"/>
				<path class="st10" d="M270.4,448.8c-2.5,2.6-32.7,9.8-59.7,15.8c-2.5,0.2-4.9,0.2-7.4,0.1c-7.6-0.4-15.5,2.7-22.1,6.3
					c-8.2,1.7-13.4,2.8-13.4,2.8s-8.9-7,3.4-23s14.4-41,14.4-41l54.5-14.1c0,0,14.7,20.4,21.7,23.7
					C268.9,422.8,274.9,444.1,270.4,448.8z"/>
				<path class="st3" d="M226.1,649.6l-15.7,9.3c-0.9-3.5-1.6-7-2.1-10.6C210.6,650.2,226.1,649.6,226.1,649.6z"/>
				<path class="st3" d="M211.3,662.1c5.6-1.1,18.8-3.7,26-6.2c-6.6,3.2-18.4,8.5-25.2,9C211.8,664,211.5,663.1,211.3,662.1z"/>
				<path class="st3" d="M241.9,653.6c-0.6,0.7-2.3,1.5-4.6,2.3C240.1,654.6,241.9,653.6,241.9,653.6z"/>
				<path class="st3" d="M251.4,730.6c-4.5,0.4-11.7-0.2-16-0.7l-1.5-4.1c4.6,0.5,13.7,1.3,17.5,0.1
					C256.5,724.5,258.1,730.1,251.4,730.6z"/>
				<path class="st3" d="M291.3,649.2c-0.7-0.1-12.6-1.4-20.3-1.5c0-2.6,0.1-5,0.3-6.9C276.5,643,290.5,649,291.3,649.2z"/>
				<path class="st10" d="M282.5,780.9c-1.4,5.7-23.7,4.7-23.7,4.7L257,788c0,0-8.6,3.1-15,1.3s-26-1.5-26-1.5v-6.3
					c0-8.2,9.2-10.9,9.2-10.9s7.7-6.4,10.4-12.9c1.7-4,3.6-7.9,5.8-11.7c0,0-7.2-8.7,12.1-11c19-2.2,11.5,15,11.3,15.5
					c0.3-0.3,7.4-6.7,11.4-4.7c2.9,1.5,5.5,15.4,6.3,25.5C282.9,775.7,282.9,779.2,282.5,780.9z"/>
				<path class="st3" d="M282.5,780.9c-1.4,5.7-23.7,4.7-23.7,4.7L257,788c0,0-8.6,3.1-15,1.3s-26-1.5-26-1.5v-6
					c11.8,0.6,35.4,1.4,40.7-1.4c0,0,6.4-1.6,7.8-2.7c1.2-0.9,14.2-5.1,18-6.4C282.9,775.7,282.9,779.2,282.5,780.9z"/>
				<path class="st10" d="M331.3,781.5c-20.3,2.2-30.9-2.7-30.9-2.7c-3.4-2.1-5.7-5.6-6.4-9.5c-1.1-6.7-11.3-13.4-11.3-13.4
					s-12.5,1.2-14.1-2.5c-0.4-1.6-0.5-3.2-0.4-4.8c0-9.9,2.5-30.6,5.3-30.3c3.4,0.4,13.8,14.1,14.8,15.5c-0.9-1.5-10-16.9,10.1-18.7
					c0,0,16.4-9.3,14.7,12.3l6.9,14.8c0,0,13.6,20,16.9,19.3c1.6-0.3,5,3.7,5.9,8.2C343.9,774.8,341.9,780.4,331.3,781.5z"/>
				<path class="st3" d="M210.4,240.8c0,0.9,0,1.7-0.1,2.6l-0.9,0.3l-3.3,1.2c-0.6,0.2-1.1,0.4-1.8,0.4c-1,0-1.8-0.5-2.4-1.3
					c-0.5-0.7-0.8-1.5-1-2.4l-2.5-9.6c-0.5-1.9-1.3-4.1-3.4-4.8c-0.6-0.1-1.2-0.3-1.8-0.5c-1.3-0.6-1.6-2.1-2.1-3.4
					c-1-2.9-3.7-5.2-6.6-7c-2-1.4-4.3-2.1-6.7-2.1c-1.3,0-2.5,0.5-3.5,1.3c-2.1,1.8-1.8,4.2-1.6,6.7s0.9,5.2,0.2,7.7
					c-0.5,1.6-1.6,3.2-1.8,4.9c-0.2,1.4,0.3,2.8,0.2,4.1c0,1.5-1.1,2.8-2.6,3.1c-0.1-0.8-1.3-1.1-2.1-1.5c-1.8-1-1.9-3.2-1.9-5
					c0.1-2.7,0.3-5.5,0.4-8.2c-0.8,6.1-2.1,12.1-3.8,18c-0.2,1-0.7,2-1.4,2.8c-0.8,0.8-2.1,1.1-3.2,0.6c-0.6-0.4-1.1-1-1.3-1.7
					c-1.3-3.2-1.7-6.6-1.3-10c-1.1,4.4-2.2,8.9-4.4,13.1c-0.9,1.6-2.1,3.4-4.2,3.8c-0.6,0-1.3,0.1-1.9,0.3c-0.2,0.1-0.5,0.3-0.6,0.5
					c-7.6-17.7,0.6-38.2,18.3-45.8s38.2,0.6,45.8,18.3C209.4,231.5,210.4,236.1,210.4,240.8L210.4,240.8z"/>
				<path class="st11" d="M174.5,213.7c1-0.8,2.2-1.2,3.5-1.3c2.4,0,4.7,0.8,6.7,2.1c2.9,1.8,5.5,4.1,6.6,7c0.5,1.2,0.7,2.7,2,3.4
					c0.6,0.2,1.2,0.4,1.8,0.5c2.1,0.7,2.9,2.9,3.4,4.8l2.5,9.6c0.2,0.8,0.5,1.6,1,2.4c0.6,0.8,1.4,1.3,2.4,1.3
					c0.6,0,1.2-0.2,1.8-0.4l3.3-1.2c1.7-0.6,3.6-1.4,4.4-2.8c0.4-0.9,0.6-2,0.4-3c-0.2-3.1-0.6-6.1-1.3-9.1l3.8,2.6
					c0.9,0.6,2,1.3,3.1,0.9c0.7-0.3,1.3-0.9,1.5-1.6c0.7-1.9,0.2-4.1,1.6-5.7c0.3-0.4,0.8-0.7,1.1-1c1.3-1.7-0.2-3.9,0.3-5.9
					c1,0.4,2.2,0.1,2.9-0.8c0.5-0.8,0.8-1.8,0.7-2.8c0.3-5.6,0.4-11.8-3.4-16.4c0.7-4.6-4.2-9.6-9.6-10.3c-1.4-0.2-3-0.2-3.6-1.3
					c-0.2-0.5-0.3-1-0.3-1.6c-0.1-1.8-1.3-3.3-2.4-4.8c-0.5-0.6-1-1.2-1.6-1.7c-1.8-1.2-4.3-0.9-6.6-0.5c-4.1,0.7-8.1,1.5-12.1,2.4
					c-0.5-2-0.4-4,0.1-6c0.4-1.5,1.1-3,0.4-4.5c-0.4-0.8-1.2-1.2-2-1.3c-1.1,0-2.1,0.6-2.5,1.6c-2.3,3.4-3.9,7.3-4.7,11.4
					c-3.1-2.2-7-2.6-10.5-1.2c-0.9,0.5-1.8,0.8-2.8,1c-1.7,0-3.2-0.9-4-2.4c-1.1-1.7-1.6-3.7-3.7-4.8c-1-0.5-2.1-0.5-3.1,0
					c-2.8,1.6,0.7,5.7-1.4,7.9c-0.6,0.5-1.3,0.9-2,1.1l-5.2,1.9c-2.8,1.2-5.8,1.9-8.8,2.2c-3.5,0.1-7-0.9-10.4-0.2
					c1.4,1.6,3.2,2.7,5.2,3.1c1.2,0.3,2.6,0.4,3.8,0.8c1.2,0.3,2.2,1.1,2.6,2.3c0.3,1.4-1.1,2.8-0.8,4.2c0.4,1.3,1.7,2,3,1.8l-6.2,4
					c-1.1,0.7-2.4,1.8-1.9,2.9l2,0.6l-5.4,7.7c-0.7,0.8-1.1,1.8-1.1,2.8c0.2,1.1,1.3,1.8,2.3,1.6h0.1c-1.3,1.3-2.3,2.9-3,4.7
					c-0.3,0.5-0.3,1-0.1,1.5c0.5,0.5,1.2,0.8,1.9,0.7c2.9,0,5.6-2,6-4.5c0.9,1-0.1,2.2-0.9,3.2c-3.4,4.1-6.9,8.3-8.7,13.1
					s-1.7,10.4,1.7,14.5c0.8,0.8,1.4,1.7,2,2.6c1.1,2.1,0.5,4.7,2.1,6.4c1.4-3.7,3-7.3,4.9-10.7c-0.1,1.2-0.3,2.4-0.5,3.6
					c-0.2,1.3,0.5,2.5,1.7,3.1c1.8,0.6,3.6-0.7,4.7-2c0.3-0.4,0.7-0.7,1.1-0.9c0.6-0.2,1.2-0.3,1.9-0.3c2.1-0.3,3.4-2.1,4.2-3.8
					c2.1-4.1,3.3-8.6,4.4-13.1c-0.4,3.4,0,6.8,1.3,10c0.2,0.7,0.7,1.3,1.3,1.7c1.1,0.5,2.4,0.2,3.2-0.6c0.7-0.8,1.2-1.7,1.4-2.8
					c1.7-5.9,2.9-11.9,3.8-18l-0.4,8.2c-0.1,1.8,0,4,1.8,5c0.8,0.5,2,0.7,2.2,1.5c1.5-0.3,2.6-1.6,2.6-3.1c0.1-1.4-0.4-2.8-0.2-4.1
					c0.2-1.7,1.3-3.2,1.8-4.9c0.7-2.5,0.1-5.1-0.2-7.7S172.4,215.5,174.5,213.7z"/>
				<path class="st3" d="M331.3,781.5c-20.3,2.2-30.9-2.7-30.9-2.7c-3.4-2.1-5.7-5.6-6.4-9.5c-1.1-6.7-11.3-13.4-11.3-13.4
					s-12.5,1.2-14.1-2.5c-0.4-1.6-0.5-3.2-0.4-4.8c4.6,1.1,15.3,3.7,18.6,4.6c4.3,1.2,16.9,21.6,16.9,21.6c12.1,6.4,32.1-1.8,39.1-5
					C343.9,774.8,341.9,780.4,331.3,781.5z"/>
				<path class="st3" d="M241.4,746.1c0,0-6.2,9.5,23.4,4.6"/>
				<path class="st3" d="M288.4,734c0,0,31.2,6.8,24.8-6.4"/>
				<g class="st1">
					<path d="M138.4,194.1c-0.2,0.4-0.2,0.9-0.2,1.4c0.1,0.5,0.5,1,0.9,1.3l2.1-1.4C140.2,195.7,139,195.2,138.4,194.1z"/>
					<path d="M132.7,188.3c1.2,0.3,2.6,0.4,3.8,0.8c1,0.3,1.9,0.9,2.4,1.8c0.2-0.4,0.2-0.9,0.2-1.4c-0.4-1.2-1.4-2-2.6-2.3
						c-1.2-0.4-2.5-0.5-3.8-0.8c-1.2-0.3-2.4-0.8-3.4-1.5c-0.6,0-1.2,0.1-1.8,0.2C128.8,186.7,130.7,187.8,132.7,188.3z"/>
					<path d="M137.1,246.5c-1.9,3.4-3.6,7-4.9,10.7c-1.7-1.7-1.1-4.4-2.1-6.4c-0.6-0.9-1.2-1.8-2-2.6c-1.7-2.1-2.7-4.7-2.8-7.4
						c-0.3,3.3,0.7,6.6,2.8,9.2c0.8,0.8,1.4,1.7,2,2.6c1.1,2.1,0.5,4.7,2.1,6.5c1.3-3.5,2.8-6.8,4.6-10.1
						C136.9,248.2,137,247.3,137.1,246.5z"/>
					<path d="M128.8,214.1c-0.2,0.4-0.2,0.8-0.2,1.3c0.1,0.6,0.5,1.2,1.1,1.4c0.4-0.6,0.9-1.2,1.4-1.7
						C130.2,215.4,129.2,215,128.8,214.1z"/>
					<path d="M188,174.7c0-0.8,0.2-1.6,0.4-2.3c0.4-1.3,0.9-2.6,0.6-3.9c-0.1,0.7-0.4,1.4-0.6,2C188,171.9,187.9,173.3,188,174.7z"
						/>
					<path d="M154.3,173.6c-0.1,1.2,0,2.3,0.3,3.5C154.7,175.9,154.6,174.7,154.3,173.6z"/>
					<path d="M135.9,217.5c-0.4,2.4-3.1,4.4-6,4.5c-0.6,0-1.3-0.1-1.8-0.5l-0.1,0.2c-0.3,0.5-0.3,1-0.1,1.5c0.5,0.5,1.2,0.8,1.9,0.7
						c1.2,0,2.3-0.3,3.4-1c0.6-0.7,1.2-1.5,1.8-2.2c0.3-0.4,0.6-0.7,0.9-1.1c0-0.1,0-0.1,0.1-0.2l0,0
						C136.4,218.8,136.4,218,135.9,217.5z"/>
					<path d="M133.6,202.5c-0.5,0.4-0.7,1.1-0.5,1.7l0.9,0.3l1.1-1.5L133.6,202.5z"/>
					<path d="M224,220.1c-0.3,0.4-0.7,0.7-1.1,1c-1.4,1.5-0.9,3.8-1.6,5.7c-0.2,0.7-0.8,1.3-1.5,1.6c-1.1,0.3-2.2-0.3-3.1-0.9
						l-3.8-2.6c0.1,0.7,0.3,1.4,0.4,2.1l3.4,2.3c0.9,0.6,2,1.3,3.1,0.9c0.7-0.3,1.3-0.9,1.5-1.6c0.7-1.9,0.2-4.1,1.6-5.7
						c0.3-0.4,0.8-0.7,1.1-1c0.5-0.8,0.7-1.8,0.4-2.8C224.4,219.5,224.2,219.8,224,220.1z"/>
					<path d="M214.2,235.6c0,0.5-0.2,0.9-0.4,1.3c-0.8,1.5-2.7,2.2-4.4,2.8l-3.3,1.2c-0.6,0.2-1.2,0.4-1.8,0.4c-1,0-1.8-0.5-2.4-1.3
						c-0.5-0.7-0.8-1.5-1-2.4l-2.5-9.6c-0.5-1.9-1.3-4.1-3.4-4.8c-0.6-0.1-1.2-0.3-1.8-0.5c-1.3-0.6-1.6-2.1-2-3.4
						c-1-2.9-3.7-5.2-6.6-7c-2-1.4-4.3-2.1-6.7-2.1c-1.3,0-2.5,0.5-3.5,1.3c-1.7,1.4-1.8,3.2-1.7,5.2c0.1-1.3,0.7-2.5,1.7-3.4
						c1-0.8,2.2-1.2,3.5-1.3c2.4,0,4.7,0.8,6.7,2.1c2.9,1.8,5.5,4.1,6.6,7c0.4,1.2,0.7,2.7,2,3.4c0.6,0.2,1.2,0.4,1.8,0.5
						c2.1,0.7,2.9,2.9,3.4,4.8l2.5,9.6c0.2,0.8,0.5,1.6,1,2.4c0.5,0.8,1.4,1.3,2.4,1.3c0.6,0,1.2-0.2,1.8-0.4l3.3-1.2
						c1.7-0.6,3.6-1.4,4.4-2.8c0.4-0.9,0.6-2,0.4-3C214.2,235.8,214.2,235.7,214.2,235.6z"/>
					<path d="M228,210.6c0,1-0.2,2-0.7,2.8c-0.7,0.9-1.9,1.2-2.9,0.8c-0.1,0.7-0.1,1.3,0,2v-0.1c1,0.4,2.2,0.1,2.9-0.8
						c0.5-0.8,0.8-1.8,0.7-2.8c0.1-1.6,0.2-3.3,0.1-5C228.1,208.5,228,209.6,228,210.6z"/>
					<path d="M154.5,233.1c-0.9,4.5-2.4,8.9-4.4,13.1c-0.9,1.7-2.1,3.4-4.2,3.8c-0.6,0-1.3,0.1-1.9,0.3c-0.4,0.2-0.8,0.5-1.1,0.9
						c-1.1,1.3-3,2.7-4.7,2c-0.8-0.3-1.4-1.1-1.6-2c0,0.2-0.1,0.5-0.1,0.7c-0.2,1.3,0.5,2.6,1.7,3.1c1.8,0.6,3.6-0.7,4.7-2
						c0.3-0.4,0.6-0.7,1.1-0.9c0.6-0.2,1.2-0.3,1.9-0.3c2.1-0.3,3.4-2.1,4.2-3.8c1.9-4,3.3-8.1,4.2-12.4
						C154.4,234.8,154.4,233.9,154.5,233.1z"/>
					<path d="M165.4,223.4c-0.8,6.1-2.1,12.1-3.8,18c-0.2,1-0.7,2-1.4,2.8c-0.8,0.8-2.1,1.1-3.2,0.6c-0.6-0.4-1.1-1-1.3-1.7
						c-0.8-2.1-1.3-4.3-1.4-6.5c-0.1,2.9,0.4,5.7,1.4,8.4c0.2,0.7,0.7,1.3,1.3,1.7c1.1,0.5,2.3,0.2,3.2-0.6c0.7-0.8,1.2-1.7,1.4-2.8
						c1.6-5.6,2.8-11.3,3.6-17.1L165.4,223.4z"/>
					<path d="M173.2,226c-0.5,1.6-1.6,3.2-1.8,4.9c-0.1,0.5-0.1,1.1,0,1.6c0.2-1.6,1.2-3.1,1.7-4.7c0.3-1.2,0.4-2.4,0.3-3.6
						C173.4,224.9,173.3,225.5,173.2,226z"/>
					<path d="M169,238.2c-0.1-0.8-1.3-1.1-2.2-1.5c-1.2-0.7-1.9-2-1.8-3.4v0.2c-0.1,1.8,0,4,1.8,5c0.8,0.5,2,0.7,2.2,1.5
						c1.5-0.3,2.6-1.6,2.6-3.1c0-0.5,0-0.9-0.1-1.4C171.4,236.8,170.4,237.9,169,238.2z"/>
				</g>
				<path class="st12" d="M480.7,799.2H364.2c-5.4,0-9.7-4.3-9.7-9.7c0-0.4,0-0.8,0.1-1.2l28.4-241l0.6-5.1c0.6-4.9,4.7-8.6,9.7-8.6
					h61.2c5,0,9.1,3.8,9.7,8.7l0.5,4.8l25.9,241.2c0.6,5.3-3.3,10.1-8.6,10.7C481.4,799.2,481.1,799.2,480.7,799.2z"/>
				<path class="st3" d="M390.9,562.5c0,0,4.3,109.3-12.2,151c0,0,1.7,8.9,6.4,0S405.6,612.1,398,564
					C398,564,396.4,558.8,390.9,562.5z"/>
				<path class="st3" d="M411.5,562.5c0,0,4.3,109.3-12.2,151c0,0,1.7,8.9,6.4,0s20.6-101.4,12.9-149.5
					C418.5,564,417,558.8,411.5,562.5z"/>
				<path class="st3" d="M461.4,562.5c0,0-4.3,109.3,12.2,151c0,0-1.7,8.9-6.4,0s-20.6-101.4-13-149.5
					C454.3,564,455.9,558.8,461.4,562.5z"/>
				<path class="st3" d="M440.9,562.5c0,0-4.3,109.3,12.2,151c0,0-1.7,8.9-6.4,0S426.2,612.1,433.8,564
					C433.8,564,435.4,558.8,440.9,562.5z"/>
				<rect x="395.6" y="19.4" class="st12" width="55.4" height="483"/>
				<polygon class="st13" points="356.9,385.8 356.9,385.8 356.9,385.8 				"/>
				<path class="st3" d="M464.5,547.2c-0.6,0.2-1.3,0.2-1.9,0.2h-78.5c-0.4,0-0.8,0-1.1-0.1l0.6-5.1c0.6-4.9,4.7-8.6,9.7-8.6h61.2
					c5,0,9.1,3.8,9.7,8.7L464.5,547.2z"/>
				<rect x="395.6" y="492.8" class="st3" width="55.9" height="9.6"/>
				<path class="st12" d="M384.7,494.6H462c4.4,0,8,3.6,8,8v35c0,4.4-3.6,8-8,8h-77.3c-4.4,0-8-3.6-8-8v-35
					C376.7,498.2,380.3,494.6,384.7,494.6z"/>
				<rect x="399.4" y="19.4" class="st3" width="8" height="460.1"/>
				<rect x="412.7" y="19.4" class="st3" width="8" height="460.1"/>
				<rect x="426" y="19.4" class="st3" width="8" height="460.1"/>
				<rect x="439.3" y="19.4" class="st3" width="8" height="460.1"/>
				<path class="st9" d="M454.5,250.1c0,0-18.2-5.7-15.5,14.4c2.8,20.1,9.8,21.3,9.8,21.3s6.1-1.4,6.9-9.3
					C456.5,268.4,454.5,250.1,454.5,250.1z"/>
			</g>
		</g>
	</g>
</g>
<g id="A4">
	<g>
		<g>
			<g>
				<path class="st2" d="M405.4,77.5c2,6.2-3.4,27.6-3.4,27.6s-16.9-14.3-18.9-20.5c-2.2-6.1,0.8-12.8,6.9-15.1s12.8,0.8,15.1,6.9
					C405.2,76.8,405.3,77.1,405.4,77.5z"/>
				<path class="st2" d="M322.4,214.6c2,6.2-3.4,27.6-3.4,27.6s-16.9-14.3-18.9-20.4c-2-6.2,1.4-12.8,7.6-14.7
					S320.4,208.5,322.4,214.6z"/>
				<path class="st2" d="M497.3,154.2c2,6.2-3.4,27.6-3.4,27.6S477,167.5,475,161.4c-2-6.2,1.4-12.8,7.6-14.7S495.3,148,497.3,154.2
					L497.3,154.2z"/>
				<path class="st2" d="M587.7,257.8c2,6.2-3.4,27.6-3.4,27.6s-16.9-14.3-18.9-20.4c-2.1-6.1,1.1-12.8,7.2-14.9
					c6.1-2.1,12.8,1.1,14.9,7.2C587.6,257.5,587.7,257.6,587.7,257.8L587.7,257.8z"/>
				<path class="st2" d="M526.7,87.6c-3.3,5.6-22.9,15.8-22.9,15.8s-0.5-22.1,2.7-27.7c3.3-5.6,10.5-7.4,16-4.1S530,82,526.7,87.6
					L526.7,87.6z"/>
				<path class="st2" d="M747.9,70.9c-3.3,5.6-22.9,15.8-22.9,15.8s-0.5-22.1,2.8-27.7c3.2-5.6,10.3-7.6,16-4.4
					c5.6,3.2,7.6,10.3,4.4,16C748.1,70.7,748,70.8,747.9,70.9z"/>
				<path class="st2" d="M302.4,113.8c-6.3,1.6-27.4-5-27.4-5s15.2-16.1,21.5-17.7s12.7,2.1,14.3,8.4
					C312.4,105.8,308.7,112.2,302.4,113.8z"/>
				<path class="st2" d="M505.1,366.9c-3.3,5.6-22.9,15.8-22.9,15.8s-0.5-22.1,2.7-27.7c3.3-5.6,10.5-7.4,16-4.1
					C506.6,354.2,508.4,361.3,505.1,366.9L505.1,366.9z"/>
			</g>
		</g>
	</g>
</g>
</svg>
