<?xml version="1.0" encoding="utf-8"?>
<!-- Generator: Adobe Illustrator 19.0.0, SVG Export Plug-In . SVG Version: 6.00 Build 0)  -->
<svg version="1.1" id="A2114" xmlns="http://www.w3.org/2000/svg" xmlns:xlink="http://www.w3.org/1999/xlink" x="0px" y="0px"
	 viewBox="0 0 783.8 812" style="enable-background:new 0 0 783.8 812;" xml:space="preserve">
<style type="text/css">
	.st0{fill:#373E46;}
	.st1{opacity:0.1;enable-background:new    ;}
	.st2{fill:#EEEFF0;}
	.st3{fill:#6C63FF;}
	.st4{fill:#975656;}
	.st5{fill:#FFFFFF;}
	.st6{opacity:5.000000e-02;enable-background:new    ;}
</style>
<title>xmas surprise</title>
<g>
	<g>
		<g>
			<polygon class="st0" points="728.7,0 721.4,7 641.9,83.7 507.1,213.6 513.4,769.7 0.7,643.4 0.7,275.4 194.1,52.4 			"/>
			<polygon class="st1" points="728.7,0 721.4,7 641.9,83.7 507.1,213.6 513.4,769.7 0.7,643.4 0.7,275.4 194.1,52.4 			"/>
			<polygon class="st0" points="783.8,353.3 769,730.7 239.8,811.3 0.7,643.4 0.7,280.7 507.1,213.6 			"/>
			<polygon class="st0" points="783.1,353.3 768.3,730.7 239.1,811.3 0,643.4 0,280.7 506.4,213.6 			"/>
			<polygon class="st1" points="239.8,421.8 239.8,811.3 0.7,643.4 0.7,281 			"/>
			<polygon class="st1" points="721.4,7 641.9,83.7 258.6,126.3 190.1,59.1 			"/>
			<polygon class="st1" points="507.1,213.6 512.5,773.7 769,730.7 783.8,353.3 			"/>
			<polygon class="st0" points="783.8,353.3 680.4,343.9 431.9,220.9 507.1,213.6 			"/>
			<polygon class="st0" points="194.1,52.4 262.6,119.6 722,68.5 728.7,0 			"/>
			<path class="st2" d="M347.9,259.9c0,3.2-0.3,6.4-1,9.5c-1.3,5.6-3.6,10.9-7,15.6c-1.1,1.6-2.4,3.1-3.7,4.5
				c-6.9,7.4-16.3,12-26.3,13.1c-1.6,0.2-3.3,0.3-4.9,0.3c-5.4,0-10.7-1-15.7-3c-1.4-0.6-2.8-1.2-4.2-1.9
				c-9.7-5.1-17.1-13.7-20.7-24.1c-0.5-1.5-1-3-1.3-4.5c-0.3-1.2-0.5-2.4-0.6-3.6c-0.3-1.9-0.4-3.9-0.4-5.9c0-4.3,0.6-8.5,1.9-12.6
				c0.2-0.8,0.5-1.6,0.8-2.4c8.3-22.3,33.1-33.6,55.3-25.3c8.3,3.1,15.5,8.7,20.5,16l0,0C345.3,242.8,347.9,251.3,347.9,259.9z"/>
			<ellipse class="st3" cx="344.5" cy="211.6" rx="57.1" ry="79.2"/>
			<ellipse class="st1" cx="344.5" cy="211.6" rx="57.1" ry="79.2"/>
			<path class="st3" d="M441.9,20.8c-66,0-119.5,53.5-119.5,119.6c0,28.6,10.3,56.3,28.9,77.9c2.3,2.7,4.8,5.3,7.3,7.7
				c13.6,13.3,30.1,23.1,48.2,28.6c3,0.9,6.1,1.8,9.2,2.4c15.9,3.5,32.4,3.7,48.3,0.7c3.2-0.6,6.3-1.3,9.4-2.2
				c18.8-5.2,36-14.9,50.2-28.3c2.8-2.6,5.4-5.3,7.9-8.2c43.5-49.7,38.4-125.2-11.3-168.7C498.8,31.3,470.9,20.8,441.9,20.8z
				 M441.9,43.7c-4.5,0-8.1-3.6-8.1-8.1s3.6-8.1,8.1-8.1s8.1,3.6,8.1,8.1l0,0C450,40.1,446.4,43.7,441.9,43.7z"/>
			<ellipse class="st4" cx="549.4" cy="229" rx="40.3" ry="61.8"/>
			<ellipse class="st1" cx="549.4" cy="229" rx="21.5" ry="33"/>
			<ellipse class="st4" cx="441.9" cy="435.9" rx="139.7" ry="154.5"/>
			<ellipse class="st1" cx="441.9" cy="435.9" rx="139.7" ry="154.5"/>
			<ellipse class="st4" cx="334.5" cy="229" rx="40.3" ry="61.8"/>
			<ellipse class="st1" cx="334.5" cy="229" rx="21.5" ry="33"/>
			<polygon class="st1" points="350.5,218 351.9,67.8 343.2,210.2 			"/>
			<path class="st1" d="M409.7,67.8L408,249c-3.1-0.7-6.2-1.5-9.2-2.4L409.7,67.8z"/>
			<path class="st1" d="M467.4,67.8l-1.7,179.7c-3.1,0.9-6.2,1.6-9.4,2.2L467.4,67.8z"/>
			<polygon class="st1" points="523.9,211 525.2,67.8 516,219.2 			"/>
			<path class="st1" d="M334.4,137.7h215.1c6.6,0,12,5.4,12,12v53.9c0,6.6-5.4,12-12,12H334.4c-6.6,0-12-5.4-12-12v-53.9
				C322.4,143.1,327.8,137.7,334.4,137.7z"/>
			<path class="st4" d="M552.1,250.5c-0.1,60.8-49.4,110-110.1,109.9S332,311,332.1,250.3s49.4-109.9,110.1-109.9
				c49.3,0.1,92.5,32.9,105.8,80.4C550.7,230.4,552.1,240.5,552.1,250.5z"/>
			<path class="st1" d="M548,220.8c-0.9,0.1-1.8,0.2-2.6,0.2H338.5c-0.9,0-1.8-0.1-2.7-0.2c11-38.9,42.4-68.8,81.8-77.7h48.5
				C505.6,152,537.1,181.8,548,220.8z"/>
			<path class="st2" d="M338.5,140.4h206.9c8.9,0,16.1,7.2,16.1,16.1v45.7c0,8.9-7.2,16.1-16.1,16.1H338.5
				c-8.9,0-16.1-7.2-16.1-16.1v-45.7C322.4,147.6,329.6,140.4,338.5,140.4z"/>
			<polygon class="st1" points="348.8,210.2 351.9,159.2 351.5,210.2 			"/>
			<polygon class="st1" points="409.2,210.2 409.7,159.2 406.6,210.2 			"/>
			<polygon class="st1" points="467.4,159.2 467,210.2 464.3,210.2 			"/>
			<polygon class="st1" points="522.1,210.2 525.2,159.2 524.7,210.2 			"/>
			<circle class="st1" cx="400.3" cy="237.1" r="14.8"/>
			<circle class="st2" cx="400.3" cy="235.7" r="14.8"/>
			<circle class="st0" cx="400.3" cy="235.7" r="6.7"/>
			<circle class="st5" cx="401.6" cy="233.1" r="1.3"/>
			<circle class="st1" cx="489" cy="237.1" r="14.8"/>
			<circle class="st2" cx="489" cy="235.7" r="14.8"/>
			<circle class="st0" cx="489" cy="235.7" r="6.7"/>
			<circle class="st5" cx="486.3" cy="233.1" r="1.3"/>
			<circle class="st1" cx="444.6" cy="281.4" r="44.3"/>
			<circle class="st3" cx="444.6" cy="278.7" r="44.3"/>
			<polygon class="st0" points="783.1,355.3 777,486.5 774.5,539.6 765.7,730.1 236.4,812 236.4,421.1 			"/>
			<polygon class="st0" points="0.7,280.7 102.7,267.2 317.7,382.8 239.8,421.8 			"/>
			<polygon class="st6" points="0.7,280.7 102.7,267.2 317.7,382.8 239.8,421.8 			"/>
			<path class="st1" d="M241.7,314.6l-13.5-7.2c-1.1-0.6-2.5-0.4-3.5,0.5l-11.1,10.6c-1.2,1.1-3.1,1-4.2-0.2
				c-0.6-0.7-0.9-1.6-0.8-2.5l2.7-15.1c0.2-1.3-0.4-2.5-1.5-3.1l-13.5-7.2c-1.4-0.8-1.9-2.7-1.1-4.1c0.4-0.8,1.2-1.3,2.1-1.5
				l15.2-2.1c1.3-0.2,2.3-1.2,2.5-2.4l2.7-15.1c0.3-1.6,1.9-2.7,3.5-2.3c0.9,0.2,1.6,0.8,2.1,1.6l6.7,13.8c0.6,1.1,1.8,1.8,3.1,1.6
				l15.2-2.1c1.6-0.2,3.1,1,3.3,2.7c0.1,0.9-0.2,1.8-0.8,2.4l-11.1,10.6c-0.9,0.9-1.2,2.3-0.6,3.4l6.7,13.8c0.7,1.5,0,3.3-1.5,4
				C243.4,315,242.5,315,241.7,314.6z"/>
			<path class="st2" d="M239.7,311.8l-12-6.4c-1-0.5-2.2-0.4-3.1,0.4l-9.8,9.4c-1,1-2.7,1-3.7-0.1c-0.6-0.6-0.8-1.5-0.7-2.3
				l2.4-13.4c0.2-1.1-0.3-2.3-1.4-2.8l-12-6.4c-1.3-0.7-1.8-2.3-1.1-3.6c0.4-0.7,1.1-1.3,2-1.4l13.5-1.9c1.1-0.2,2-1,2.2-2.1
				l2.4-13.4c0.2-1.4,1.6-2.4,3-2.2c0.9,0.1,1.6,0.7,2,1.5l5.9,12.2c0.5,1,1.6,1.6,2.7,1.5l13.5-1.9c1.4-0.2,2.8,0.8,3,2.2
				c0.1,0.8-0.2,1.7-0.8,2.3l-9.9,9.4c-0.8,0.8-1,2-0.5,3l5.9,12.3c0.7,1.3,0.2,2.9-1.1,3.5C241.4,312.2,240.5,312.2,239.7,311.8z"
				/>
			<path class="st1" d="M740,700.1l-8.4-4.5c-0.7-0.4-1.6-0.3-2.1,0.3l-6.8,6.6c-0.7,0.7-1.9,0.7-2.6,0c-0.4-0.4-0.6-1-0.5-1.6
				l1.7-9.3c0.1-0.8-0.2-1.6-0.9-1.9l-8.4-4.5c-0.9-0.5-1.2-1.6-0.7-2.5c0.3-0.5,0.8-0.9,1.4-0.9l9.4-1.3c0.8-0.1,1.4-0.7,1.6-1.5
				l1.7-9.3c0.2-1,1.1-1.7,2.1-1.5c0.6,0.1,1.1,0.5,1.3,1l4.1,8.5c0.4,0.7,1.1,1.1,1.9,1l9.4-1.3c1-0.1,1.9,0.5,2.1,1.5
				c0.1,0.6-0.1,1.2-0.6,1.6l-6.8,6.6c-0.6,0.6-0.7,1.4-0.4,2.1l4.1,8.5c0.4,0.9,0,2-0.9,2.4C741.1,700.4,740.5,700.3,740,700.1z"/>
			<path class="st3" d="M738.8,698.3l-7.4-4c-0.6-0.3-1.4-0.2-1.9,0.3l-6.1,5.8c-0.7,0.6-1.7,0.6-2.3-0.1c-0.4-0.4-0.5-0.9-0.4-1.4
				l1.5-8.3c0.1-0.7-0.2-1.4-0.8-1.7l-7.4-4c-0.8-0.5-1-1.5-0.6-2.2c0.2-0.4,0.6-0.7,1.1-0.8l8.3-1.2c0.7-0.1,1.3-0.6,1.4-1.3
				l1.5-8.3c0.2-0.9,1-1.5,1.9-1.3c0.5,0.1,0.9,0.4,1.2,0.9l3.7,7.6c0.3,0.6,1,1,1.7,0.9l8.3-1.2c0.9-0.1,1.7,0.5,1.8,1.4
				c0.1,0.5-0.1,1-0.5,1.4l-6.1,5.8c-0.5,0.5-0.6,1.2-0.3,1.9l3.7,7.6c0.4,0.8,0,1.8-0.8,2.2C739.8,698.6,739.2,698.6,738.8,698.3z"
				/>
			<path class="st1" d="M303.5,499.9l-8.4-4.5c-0.7-0.4-1.6-0.2-2.1,0.3l-6.9,6.6c-0.7,0.7-1.9,0.7-2.6,0c-0.4-0.4-0.6-1-0.5-1.6
				l1.7-9.3c0.1-0.8-0.2-1.6-0.9-1.9l-8.4-4.5c-0.9-0.5-1.2-1.6-0.8-2.5c0.3-0.5,0.8-0.9,1.4-1l9.4-1.3c0.8-0.1,1.4-0.7,1.6-1.5
				l1.7-9.3c0.2-1,1.2-1.7,2.1-1.5c0.6,0.1,1.1,0.5,1.3,1l4.1,8.5c0.3,0.7,1.1,1.1,1.9,1l9.4-1.3c1-0.1,1.9,0.6,2.1,1.6
				c0.1,0.6-0.1,1.2-0.5,1.6l-6.8,6.6c-0.6,0.6-0.7,1.5-0.3,2.2l4.1,8.5c0.4,0.9,0,2-0.9,2.5C304.6,500.2,304,500.2,303.5,499.9z"/>
			<path class="st3" d="M302.2,498.2l-7.4-4c-0.6-0.3-1.4-0.2-1.9,0.3l-6.1,5.8c-0.7,0.6-1.7,0.6-2.3-0.1c-0.4-0.4-0.5-0.9-0.4-1.4
				l1.5-8.3c0.1-0.7-0.2-1.4-0.8-1.7l-7.4-4c-0.8-0.4-1-1.4-0.6-2.2c0.2-0.4,0.7-0.7,1.1-0.8l8.3-1.2c0.7-0.1,1.3-0.6,1.4-1.3
				l1.5-8.3c0.2-0.9,1-1.5,1.9-1.3c0.5,0.1,0.9,0.4,1.2,0.9l3.7,7.6c0.3,0.6,1,1,1.7,0.9l8.4-1.1c0.9-0.1,1.7,0.5,1.8,1.4
				c0.1,0.5-0.1,1.1-0.5,1.4l-6.1,5.8c-0.5,0.5-0.6,1.3-0.3,1.9l3.7,7.6c0.4,0.8,0.1,1.8-0.7,2.2
				C303.3,498.5,302.7,498.5,302.2,498.2z"/>
			<path class="st1" d="M740,620.8l-8.4-4.5c-0.7-0.4-1.6-0.3-2.1,0.3l-6.8,6.6c-0.7,0.7-1.9,0.7-2.6-0.1c-0.4-0.4-0.6-1-0.5-1.6
				l1.7-9.3c0.2-0.8-0.2-1.6-0.9-2l-8.4-4.5c-0.9-0.5-1.2-1.6-0.7-2.5c0.3-0.5,0.8-0.9,1.4-0.9l9.4-1.3c0.8-0.1,1.4-0.7,1.6-1.5
				l1.7-9.3c0.2-1,1.1-1.7,2.1-1.5c0.6,0.1,1.1,0.5,1.3,1l4.1,8.5c0.4,0.7,1.1,1.1,1.9,1l9.4-1.3c1-0.1,1.9,0.5,2.1,1.5
				c0.1,0.6-0.1,1.2-0.6,1.6l-6.8,6.6c-0.6,0.6-0.7,1.4-0.4,2.1l4.1,8.5c0.5,0.9,0.2,2-0.7,2.5C741.3,621.2,740.6,621.1,740,620.8z"
				/>
			<path class="st3" d="M738.8,619.1l-7.4-4c-0.6-0.3-1.4-0.2-1.9,0.3l-6.1,5.8c-0.7,0.6-1.7,0.6-2.3-0.1c-0.4-0.4-0.5-0.9-0.4-1.4
				l1.5-8.3c0.1-0.7-0.2-1.4-0.8-1.7l-7.4-4c-0.8-0.5-1-1.5-0.6-2.2c0.2-0.4,0.6-0.7,1.1-0.8l8.3-1.2c0.7-0.1,1.3-0.6,1.4-1.3
				l1.5-8.3c0.2-0.9,1-1.5,1.9-1.3c0.5,0.1,0.9,0.4,1.2,0.9l3.7,7.6c0.3,0.6,1,1,1.7,0.9l8.3-1.2c0.9-0.1,1.7,0.5,1.8,1.4
				c0.1,0.5-0.1,1-0.5,1.4l-6.1,5.8c-0.5,0.5-0.7,1.2-0.3,1.9l3.7,7.6c0.4,0.8,0.1,1.8-0.7,2.2C739.8,619.4,739.3,619.3,738.8,619.1
				z"/>
			<ellipse class="st4" cx="371.4" cy="421.8" rx="27.5" ry="45"/>
			<ellipse class="st4" cx="523.2" cy="405.7" rx="27.5" ry="45"/>
			<polygon class="st3" points="777,486.5 774.5,539.6 236.4,594.9 0.7,487.5 0.7,435.9 236.4,538.8 			"/>
			<polygon class="st1" points="236.4,538.8 236.4,594.9 0.7,487.5 0.7,435.9 			"/>
		</g>
	</g>
</g>
</svg>
