<?xml version="1.0" encoding="utf-8"?>
<!-- Generator: Adobe Illustrator 19.0.0, SVG Export Plug-In . SVG Version: 6.00 Build 0)  -->
<svg version="1.1" xmlns="http://www.w3.org/2000/svg" xmlns:xlink="http://www.w3.org/1999/xlink" x="0px" y="0px"
	 viewBox="0 0 1000 1000" style="enable-background:new 0 0 1000 1000;" xml:space="preserve">
<style type="text/css">
	.st0{fill:#3F3D56;}
	.st1{fill:#E6E8EC;}
	.st2{fill:#FFFFFF;}
	.st3{opacity:0.2;fill:#6C63FF;enable-background:new    ;}
	.st4{fill:#736E9E;}
	.st5{opacity:0.1;enable-background:new    ;}
	.st6{fill:#6C63FF;}
	.st7{fill:#F2F2F2;}
	.st8{opacity:3.000000e-02;enable-background:new    ;}
	.st9{fill:#FBBEBE;}
	.st10{opacity:5.000000e-02;enable-background:new    ;}
	.st11{opacity:0.1;}
	.st12{fill:#FF6F61;}
</style>
<g id="_x23_office_x28_have_x5B_phone_x5D__x29_">
	<g>
		<path class="st0" d="M659.9,292.7h5.5c1.2,0,2.2,1,2.2,2.3v79.8c0,1.3-1,2.3-2.2,2.3h-5.5c-1.2,0-2.2-1-2.2-2.3V295
			C657.7,293.7,658.7,292.7,659.9,292.7z"/>
		<path class="st0" d="M332.6,226.7h2.7c0.8,0,1.4,0.7,1.4,1.5v24.8c0,0.8-0.6,1.5-1.4,1.5h-2.7c-0.8,0-1.4-0.7-1.4-1.5v-24.8
			C331.2,227.3,331.8,226.7,332.6,226.7z"/>
		<path class="st0" d="M332.6,277.5h3c0.9,0,1.6,0.8,1.6,1.7v45c0,0.9-0.7,1.7-1.6,1.7h-3c-0.9,0-1.6-0.8-1.6-1.7v-45
			C331,278.2,331.7,277.5,332.6,277.5z"/>
		<path class="st0" d="M332.6,342.7h2.8c0.8,0,1.5,0.7,1.5,1.6v45.5c0,0.9-0.7,1.6-1.5,1.6h-2.8c-0.8,0-1.5-0.7-1.5-1.6v-45.5
			C331.1,343.4,331.8,342.7,332.6,342.7z"/>
		<path class="st0" d="M368.3,135H629c18.8,0,34,15.8,34,35.4V795c0,19.5-15.2,35.4-34,35.4H368.3c-18.8,0-34-15.8-34-35.4V170.4
			C334.3,150.8,349.5,135,368.3,135z"/>
		<path class="st1" d="M469.4,155.7h41.1c1.3,0,2.4,1.1,2.4,2.5v4.7c0,1.4-1.1,2.5-2.4,2.5h-41.1c-1.3,0-2.4-1.1-2.4-2.5v-4.7
			C467,156.9,468,155.7,469.4,155.7z"/>
		<ellipse class="st1" cx="525.1" cy="160.6" rx="5.3" ry="5.5"/>
		<path class="st2" d="M642.7,180.3V785c0,15-11.7,27.2-26.1,27.2H380.7c-14.4,0-26.1-12.2-26.1-27.2V180.3
			c0-15,11.7-27.2,26.1-27.2l0,0H416v4.7c0,12.3,9.6,22.3,21.5,22.3h120c11.9,0,21.5-10,21.5-22.4l0,0v-4.7h37.6
			C631,153.1,642.7,165.3,642.7,180.3z"/>
		<path class="st3" d="M644.8,430v205.7h-2.1v0.2H354.6V384.6c1.8-2.2,3.7-4.5,5.6-6.8c40.5-50.3,95.4-63.5,138-64.9
			c29.2-1,58.2,5.3,85.9,17.7c14.6,6.6,35.6,13.8,58.5,14.5v77.7C644.1,427,644.8,430,644.8,430z"/>
		<path class="st3" d="M644.8,430v205.7H354.6V500.9c10.3-2.7,24.8-13.1,43.3-41.9c22.1-34.4,52.2-43.5,75.5-44.4
			c16-0.7,31.8,3.6,47,12.1c17.1,9.6,49.9,21.1,74.9-12.4c27.6-37.1,42.3-6.5,47.4,8.5C644.1,427,644.8,430,644.8,430z"/>
		<path class="st4" d="M395.2,598h207.6c6.3,0,11.4,5.3,11.4,11.9v51.6c0,6.6-5.1,11.9-11.4,11.9H395.2c-6.3,0-11.4-5.3-11.4-11.9
			v-51.6C383.8,603.3,388.9,598,395.2,598z"/>
		<rect x="344.8" y="717.9" class="st0" width="310.5" height="100.1"/>
		<path class="st2" d="M486.7,750.3v35.4l26.7-17.7L486.7,750.3z"/>
	</g>
</g>
<g id="_x23_wild_x28_have_x5B_plant_x2C_wind_x5D__x29_">
	<g>
		<path class="st0" d="M921.6,809.7c0,2.6-0.2,5.2-0.8,7.7c-0.1,0.5-0.2,1-0.3,1.4c-2.7,11.3-10.3,19.6-19.4,20.1c-0.3,0-0.6,0-1,0
			c-9.6,0-17.8-8.6-20.5-20.6c-0.1-0.3-0.1-0.6-0.2-1c-0.5-2.5-0.8-5.1-0.8-7.7c0-16.1,9.6-29.2,21.4-29.2S921.6,793.6,921.6,809.7z
			"/>
		<path class="st5" d="M921.6,809.7c0,2.6-0.2,5.2-0.8,7.7c-0.1,0.5-0.2,1-0.3,1.4c-0.3,0-0.6,0-1,0c-2.4-0.1-4.7-0.5-7-1
			c-2,0.7-4.1,1.2-6.2,1.5c-1.6,0.3-3.3,0.4-4.9,0.5h-1.7c-2,0-3.9-0.1-5.9-0.4c-3.1-0.4-6.2-1.2-9.2-2.4c-1.6,0.6-3.3,1-5,1.4
			c-0.1-0.3-0.1-0.6-0.2-1c-0.5-2.5-0.8-5.1-0.8-7.7c0-16.1,9.6-29.2,21.4-29.2S921.6,793.6,921.6,809.7z"/>
		<path class="st6" d="M967.3,755.3c0-7.1-1.6-14.1-4.7-20.4l-25.2,8.2l22.1-13.5c-7.5-11.3-19.6-18.5-32.7-19.4
			c-1-1.6-2.2-3.2-3.4-4.7l-36.2,11.7l29.7-18.2c-19.1-15.2-46.4-11.5-61.1,8.4c-3.5,4.7-6,10.1-7.5,15.8l31,37.2L845.7,735
			c-19.6,14.5-24.3,42.8-10.4,63.2c11.1,16.3,31.1,23.1,49.4,16.8c9,3.4,18.8,3.7,27.9,0.8c23.5,5.4,46.7-10,51.9-34.5
			c0.7-3.2,1-6.5,1-9.8c0-1,0-2-0.1-3C966.7,764.3,967.3,759.8,967.3,755.3z"/>
		<path class="st5" d="M966.5,763.7c-13.3-2.6-27-2.8-40.3-0.5c-15.1,2.6-30.6,8.3-45.4,4.1c-8.7-2.5-16.2-8.1-24.7-11.3
			c-8.2-3-17-3.5-25.5-1.6c-9.3,23.1,1.2,49.7,23.4,59.4c9.7,4.2,20.6,4.7,30.6,1.2c9,3.4,18.8,3.7,27.9,0.8
			c23.5,5.4,46.7-10,51.9-34.5c0.7-3.2,1-6.5,1-9.8c0-1,0-2-0.1-3C965.9,767,966.2,765.4,966.5,763.7z"/>
		<path class="st6" d="M127.7,800.1l18.2-11.2c-2.5-4.4-5.6-8.3-9.3-11.6l-34.4,11.2l27-16.5c-21.2-12.1-47.8-4-59.5,18.1
			c-3.5,6.7-5.4,14.3-5.4,21.9c0,25.2,19.6,26.1,43.8,26.1s43.8-0.9,43.8-26.1c0-6.4-1.3-12.7-3.8-18.5L127.7,800.1z"/>
		<path class="st5" d="M132.3,824.6c-1.9-2-4.1-3.8-6.5-5.3c-3.3-2.3-6.7-4.6-10.6-5.4c-3.4-0.7-7-0.1-10.5-0.3
			c-6.1-0.4-11.8-3.1-16-7.6c-2.5-2.7-4.4-5.9-7.4-8c-3.2-2.2-7.3-2.7-11.2-2.1c-1.1,0.2-2.2,0.4-3.3,0.7c-1.7,5-2.6,10.2-2.6,15.5
			c0,25.2,19.6,26.1,43.8,26.1c11.7,0,22.4-0.2,30.3-3.3l-1.3-2.6C135.8,829.4,134.2,826.9,132.3,824.6z"/>
		<path class="st7" d="M248.6,156.1l-14.8,9.8l9-17c-2.5-2.1-5.7-3.3-8.9-3.3h-0.2c-1,0-2.1-0.1-3.1-0.2l-5,3.3l2.2-4.1
			c-3.6-1.3-6.6-3.7-8.8-6.9l-9,5.9l5.7-10.7c-5.2-6.6-12.3-10.6-20.1-10.6c-9.3,0-17.6,5.8-23,14.8c-3.2,5.5-9.1,8.8-15.2,8.5h-0.5
			c-10.3,0-18.6,12.1-18.6,27.1c0,15,8.3,27.1,18.6,27.1c2.3,0,4.5-0.6,6.5-1.7c7.1-3.6,15.3-3.8,22.6-0.5c6.1,2.8,13.1,2.8,19.2,0
			c7.2-3.2,15.3-3.1,22.4,0.5c2,1.1,4.2,1.6,6.4,1.7c10.3,0,18.6-12.2,18.6-27.1C252.5,166.8,251.2,161.2,248.6,156.1z"/>
		<path class="st8" d="M220.7,195.8c-5.4-1.1-10.9-0.4-15.9,1.8c-6.1,2.8-13.1,2.8-19.2,0c-7.2-3.3-15.5-3.1-22.6,0.5
			c-2,1.1-4.2,1.7-6.5,1.7c-9.1,0-16.8-9.6-18.3-22.2c1.8-1.4,3.4-3.1,4.6-5.1c5.4-9,13.7-14.8,23-14.8s17.5,5.7,22.9,14.6
			c3.3,5.4,9,8.7,15.2,8.6h0.2C211.3,180.8,217.6,186.9,220.7,195.8z"/>
		<path class="st7" d="M754.3,377.2l-7.4,4.9l4.5-8.5c-1.3-1.1-2.8-1.6-4.5-1.7h-0.1c-0.5,0-1,0-1.5-0.1l-2.5,1.7l1.1-2
			c-1.8-0.6-3.3-1.8-4.4-3.5l-4.5,3l2.9-5.3c-2.4-3.2-6.1-5.2-10-5.3c-4.6,0-8.8,2.9-11.4,7.4c-1.6,2.7-4.5,4.4-7.6,4.3h-0.2
			c-5.1,0-9.3,6.1-9.3,13.5s4.2,13.5,9.3,13.5c1.1,0,2.2-0.3,3.2-0.8c3.5-1.8,7.6-1.9,11.2-0.2c1.5,0.7,3.1,1.1,4.8,1.1
			c1.6,0,3.3-0.4,4.8-1.1c3.6-1.6,7.6-1.5,11.2,0.2c1,0.5,2.1,0.8,3.2,0.8c5.1,0,9.3-6.1,9.3-13.5
			C756.2,382.6,755.6,379.7,754.3,377.2z"/>
		<path class="st8" d="M740.4,397c-2.7-0.5-5.5-0.2-8,0.9c-3,1.4-6.5,1.4-9.5,0c-3.6-1.6-7.7-1.6-11.2,0.2c-1,0.6-2.1,0.8-3.2,0.9
			c-4.6,0-8.4-4.8-9.1-11.1c0.9-0.7,1.7-1.6,2.3-2.6c2.7-4.5,6.8-7.4,11.4-7.4s8.7,2.8,11.4,7.3c1.6,2.7,4.5,4.4,7.6,4.3h0.1
			C735.7,389.5,738.8,392.6,740.4,397z"/>
		<path class="st7" d="M770.6,250.8l11.8,7.8l-7.2-13.6c2-1.7,4.6-2.6,7.2-2.7h0.2c0.8,0,1.6-0.1,2.5-0.2l4,2.6l-1.7-3.3
			c2.8-1,5.3-3,7-5.6l7.2,4.7l-4.5-8.6c4.2-5.3,9.9-8.5,16.1-8.5c7.5,0,14.1,4.6,18.4,11.8c2.6,4.4,7.2,7,12.2,6.8h0.4
			c8.2,0,14.9,9.7,14.9,21.7c0,12-6.7,21.7-14.9,21.7c-1.8,0-3.6-0.5-5.2-1.4c-5.7-2.9-12.3-3-18.1-0.4c-4.9,2.3-10.5,2.3-15.4,0
			c-5.7-2.6-12.3-2.5-17.9,0.4c-1.6,0.9-3.4,1.3-5.2,1.3c-8.2,0-14.9-9.7-14.9-21.7C767.4,259.4,768.5,254.8,770.6,250.8z"/>
		<path class="st8" d="M792.9,282.6c4.3-0.9,8.8-0.4,12.8,1.4c4.9,2.3,10.5,2.3,15.4,0c5.8-2.6,12.4-2.5,18.1,0.4
			c1.6,0.9,3.4,1.3,5.2,1.3c7.3,0,13.4-7.7,14.7-17.8c-1.5-1.1-2.7-2.5-3.7-4.1c-4.3-7.2-11-11.8-18.4-11.8s-14,4.6-18.3,11.7
			c-2.6,4.4-7.2,7-12.2,6.9h-0.2C800.4,270.6,795.4,275.5,792.9,282.6z"/>
	</g>
</g>
<g id="_x23_woman_x28_sport_x2C_run_x29_">
	<g>
	</g>
	<g>
		<path class="st0" d="M205.4,687.5c-1.4,1.3-2.5,2.9-3.1,4.7c-1.6,5.3,2.9,10.5,3.4,16c0.3,4.4-1.9,8.5-3.2,12.7
			c-2.9,10.7,0.6,22.3,9.1,29.1c0.9,0.8,1.9,1.3,3,1.6c1.9,0.2,3.7-0.3,5.2-1.6c2.2-1.7,3.9-4,4.8-6.7c0.8-2.6,1.2-5.4,1.3-8.1
			l0.7-10.6c0.7-11.1,1.3-22.5-1.2-33.4c-0.8-3.6-2.4-11.8-6.4-12.3C214.9,678.7,208,684.9,205.4,687.5z"/>
		<path class="st9" d="M271.8,642c-4.8,17.4-8.2,35.1-10.3,53.1c-0.3,2.5-0.6,5.2-2.1,7.2c-2.9,4.1-8.8,3.8-13.6,3.2
			c-1.2-0.1-2.3-0.4-3.3-1c-1.8-1.3-2.2-3.9-2.4-6.2c-3.3-33.8-5.5-67.6-6.7-101.6c0-1.3,40.7-1.4,44.1,2s0.8,16.1,0,20.5
			C276.2,626.9,273.9,634.4,271.8,642z"/>
		<path class="st10" d="M271.8,642c-4.8,17.4-8.2,35.1-10.3,53.1c-0.3,2.5-0.6,5.2-2.1,7.2c-2.9,4.1-8.8,3.8-13.6,3.2
			c-1.2-0.1-2.3-0.4-3.3-1c-1.8-1.3-2.2-3.9-2.4-6.2c-3.3-33.8-5.5-67.6-6.7-101.6c0-1.3,40.7-1.4,44.1,2s0.8,16.1,0,20.5
			C276.2,626.9,273.9,634.4,271.8,642z"/>
		<path class="st9" d="M187,591.9l16.5,37.7c5.5,12.6,11,25.2,13.6,38.8c1.1,5.6,1.7,11.4,2,17.1c0.4,4.9,0.3,9.9-0.4,14.8
			c-0.6,3.6-1.7,7.2-2.2,10.8c-1.9,14.5,6,28.2,11.4,41.8c4.7,11.6,7.7,23.9,8.8,36.5c0.5,5.3,0.8,11,3.7,15.4
			c5.4-1.7,10.6-3.1,16.2-2.5c1-8.5-4.2-16.4-6.1-24.8c-3.5-15.4,4.2-31.5,1.6-47.1c-1.4-8.4-5.9-16.4-5.5-24.9
			c0.7-15.6,3.5-31.3,0.6-46.6c-3.2-17.3-12.5-33-14.5-50.4c-1.6-13.4,1-28.2-6.2-39.5C210.9,568,194.7,577.7,187,591.9z"/>
		<path class="st0" d="M255.5,368.6c3.3-6.7,1.3-15.3-3.4-21c-4.8-5.7-11.7-8.9-18.8-10.6c-9.5-2.3-19.7-2.3-28.8,1.3
			c-7.3,2.9-13.5,7.9-20.2,12c-11.8,7.3-25.1,11.7-38.8,12.9c-15.2,1.3-32.3-0.7-44,9.4c-21.6,18.5-6.6,60.2-26.7,80.4
			c-5.4,5.4-12.7,8.4-18.9,12.8c-6.2,4.4-11.8,11.5-10.8,19.3c0.5,3.7,2.4,7.1,4.7,10.1c9.7,12.7,26.1,19.3,41.5,17.3
			c15.5-2,29.6-12.3,37.1-26.5c1.9-3.6,3.4-7.5,6.4-10c6-5.2,14.8-3.1,22.6-3.3c17.3-0.6,33.1-16,34.6-34c0.6-7.7-0.6-16.6,4.7-22
			c4.3-4.4,11-4.3,16.8-5.7c10.7-2.4,18.6-10.5,23.5-20.4c2.2-4.5,2-9.6,5.4-13.4C245.9,372.9,252.4,374.9,255.5,368.6z"/>
		<g class="st11">
			<path d="M131.2,366.4c6.3-0.6,12.6-1.8,18.6-3.7c-1.7,0.2-3.4,0.5-5.2,0.6c-11.9,1-25,0-35.8,4.4
				C116.2,366.9,123.9,367,131.2,366.4z"/>
			<path d="M120.6,479c-3,2.6-4.6,6.5-6.4,10c-5.8,10.8-15,19.2-26.1,23.7c0.8-0.1,1.7-0.1,2.5-0.2c15.5-2,29.6-12.3,37.1-26.5
				c1.9-3.6,3.4-7.5,6.4-10l0.5-0.4C129.4,475.4,124.4,475.7,120.6,479z"/>
			<path d="M251.4,347.6c-4.8-5.7-11.8-8.9-18.8-10.6c-9.5-2.3-19.7-2.3-28.9,1.4l-0.6,0.3c5.4-0.3,10.8,0.2,16,1.5
				c7.1,1.7,14.1,4.9,18.8,10.6c4.8,5.7,6.8,14.3,3.4,21c-3.2,6.4-9.6,4.4-13.2,8.5c-3.3,3.8-3.1,8.8-5.4,13.4
				c-4.2,8.5-10.6,15.7-19.1,19.1c3-0.7,6.2-1.1,9.2-1.7c10.7-2.5,18.6-10.5,23.5-20.4c2.3-4.5,2-9.6,5.4-13.4
				c3.6-4.1,10.1-2.1,13.2-8.5C258.1,361.9,256.1,353.3,251.4,347.6z"/>
			<path d="M199.3,414c-5.8,1.3-12.5,1.3-16.8,5.7c-5.3,5.4-4,14.3-4.7,22c-1.1,13.4-10.2,25.5-22,30.9h0.9c17.3-0.6,33-16,34.6-34
				c0.7-7.7-0.6-16.6,4.7-22c1.2-1.2,2.6-2.2,4.2-2.8L199.3,414z"/>
		</g>
		<path class="st9" d="M255.8,458.8c-0.8,1.5-2.4,2.1-3.9,2.7c-15.7,6-32.2,12.1-48.7,9.6c-0.6-2.7-1.2-5.4-1.8-8.1
			c-0.9-3.9-1.8-7.9-2.7-11.8c-0.4-1.9-0.8-3.8-1.2-5.7l0,0c-0.6-3-0.8-6.1-0.6-9.1c0.1-1.1,0.3-2.2,0.6-3.3c0.5-2,1.3-3.8,2.4-5.5
			c0.2-0.3,0.4-0.5,0.6-0.8l0,0c0.9-1.2,2.1-2.2,3.4-2.9c2.8-1.6,6.7-2.3,7.8-5.4c0.4-1.6,0.4-3.4-0.1-5c-1-4-2.7-7.7-3.7-11.6
			c-1.4-5,0.7-4.6,5.3-5.8c8.3-2.2,17-3.7,25.5-2c-0.4,4.4-0.8,8.9,0.3,13.1c1.1,4.3,3.9,8.3,8,9.5c0.6,0.2,1.2,0.3,1.9,0.4l0,0
			c0.9,0.1,1.7,0.5,2.4,1.1c0.5,0.4,0.9,1,1.2,1.6c0.4,1,0.7,2.1,0.8,3.3c1.5,10.4,2.6,20.9,3.2,31.4v0.4
			C256.5,456.2,256.3,457.5,255.8,458.8z"/>
		<path class="st9" d="M175.1,441.7c-3.6,5.6-4.8,12.5-5.8,19.2l-6.9,41.7c-1,5.7-1.8,12,1,17c1,1.7,2.3,3.2,3,5
			c0.5,1.8,0.9,3.7,1,5.5c1.6,9.6,10.7,16,19.7,18.3c3.3,0.8,7.1,1.2,9.7-1.1c2.9-2.5,2.9-7.2,1.2-10.6c-1.7-3.4-4.8-5.8-7.7-8.1
			l-9.9-7.6l5.7-45.6c0.4-3.3,1.9-7.6,5.1-7.2c2.9,0.3,5.2,4.8,7.8,3.3c0.8-0.6,1.4-1.5,1.6-2.5c1.1-3.7,0.8-7.8,0.5-11.7l-1.2-14.1
			c-0.4-4.6,0.7-8,1.3-12.3c0.6-5-2.6-3.5-6.6-2.4C187,430.7,179.5,434.7,175.1,441.7z"/>
		<path class="st9" d="M297.9,510.2c-0.7,1.3-1.8,2.3-3.1,2.9c-7.7,4.5-16.8,5.9-25.4,3.7c-2-0.6-4-1.1-6-1.5
			c-3.3-0.4-6.6,0.3-9.9,0c-6.7-0.5-12.5-4.9-17.1-9.9c-2.8-3-5.3-7.8-2.7-11c1.5-1.6,3.6-2.2,5.7-1.8c2,0.5,4,1.2,5.8,2.2
			c6.4,3.1,13.2,5,20.2,5.8c4.8,0.5,10.8-0.3,12.5-5c0.8-2.3,0.2-4.8-0.3-7.2c-1.5-6.5-3.1-13-4.6-19.5c-0.1-0.6-0.3-1.1-0.6-1.6
			c-0.1-0.1-0.2-0.3-0.3-0.4c-0.6-0.5-1.3-0.9-2.1-1c-3.6-0.9-7.1-2.4-9.6-5.1c-1.7-1.9-3-4.2-3.9-6.6c-0.3-0.6-0.5-1.2-0.8-1.8
			c-2-4.7-4-9.6-5.6-14.6c-1.1-3.4-1.9-6.8-2.4-10.3c-0.4-3-0.6-4.4,1-5.8c0.4-0.3,0.9-0.6,1.4-0.9c0.7-0.4,1.6-0.8,2.4-1.2l0.8-0.4
			c2.6-1.1,5.3-2,8-2.7c6.6-1.6,13.7,1.7,18.2,7c4.5,5.3,6.9,12.2,8.4,19s2.3,13.9,4.2,20.7c0.7,2.7,1.6,5.3,2.3,7.9
			c0.7,3.2,1.2,6.4,1.4,9.6c0.9,8.2,1.8,16.4,2.7,24.6C298.6,507.2,298.5,508.8,297.9,510.2z"/>
		<path class="st9" d="M200.1,506.7c1.9,12.7-3.6,25.1-8.9,36.7c3,2.3,6.7,3.4,10.2,4.4c24,6.6,48.9,8.5,73.5,5.8
			c0.6-4.3,1.1-8.8-0.5-12.8c-1-2.4-2.9-4.4-4-6.8c-1.9-4-1.7-8.6-1.5-13l1.7-37.5c-11.8-5.7-25.5-0.4-38.5,0.4
			c-6.7,0.4-13.6-0.5-20.2,0.8c-3.4,0.6-14.3,2.4-15.9,6.1C194.4,494.4,199.5,502.7,200.1,506.7z"/>
		<path class="st10" d="M200.1,506.7c1.9,12.7-3.6,25.1-8.9,36.7c3,2.3,6.7,3.4,10.2,4.4c24,6.6,48.9,8.5,73.5,5.8
			c0.6-4.3,1.1-8.8-0.5-12.8c-1-2.4-2.9-4.4-4-6.8c-1.9-4-1.7-8.6-1.5-13l1.7-37.5c-11.8-5.7-25.5-0.4-38.5,0.4
			c-6.7,0.4-13.6-0.5-20.2,0.8c-3.4,0.6-14.3,2.4-15.9,6.1C194.4,494.4,199.5,502.7,200.1,506.7z"/>
		<path class="st0" d="M231.4,543c-12.8-2.8-25.4-7.4-38.5-7.7c-0.7-0.1-1.3,0.1-1.9,0.4c-0.6,0.5-1.1,1.3-1.2,2.2
			c-1.4,4.9-2.6,9.8-3.6,14.7c-3.5,16.4-5.3,34.5,2.5,49.2c-0.1-4.8,2.8-9.2,6.7-11.9s8.5-3.7,13-4.2c4.6-0.4,9.5-0.3,13.7,1.7
			c6.1,2.9,10.2,8.9,10.8,15.8l45,1.5c0.9,0.3,1.8-0.3,2-1.2c0.1-0.2,0.1-0.5,0.1-0.7c1.7-15,1.6-30.2-0.2-45.2
			c-0.5-4.2-0.6-10-5.1-11.6c-5.4-1.9-14,0.3-19.7,0.1C247.1,545.7,239.2,544.7,231.4,543z"/>
		<path class="st12" d="M272.3,469.5l-0.1,20.8l-45.5,1.6c-8.4,0.3-16.8,0.6-24.9,2.5c-2.3,0.6-4.7,1.2-7,1.9
			c-2.4-9.2-4.8-18.7-4.1-28.1l0,0c0.2-2.5,0.6-5,1.3-7.4c1.4-5.2,4.2-10.2,5.6-15.3l0,0c0.6-2,0.9-4.1,1-6.2
			c-0.1-2.1-0.4-4.2-1-6.2c-0.4-1.7-0.6-3.4-0.6-5.1l3.6-1.2l0,0c0.1,0.4,0.2,0.9,0.3,1.3c0.2,0.9,0.3,1.9,0.4,2.9l0,0
			c0.2,2.4,0.3,4.8,0.2,7.2c-0.1,4.8-0.7,10.1,2.1,13.9c3.7,4.8,10.9,4.1,16.7,2.9l15.3-3.2c4.8-1,10.2-2.4,12.8-6.8
			c1.1-2.1,1.6-4.5,1.7-6.9v-0.5c0.2-5.3-0.3-10.5-1.5-15.7c-0.4-1.6-0.8-3.2-1.3-4.7h1.5c0.9,0.1,1.7,0.5,2.4,1.1
			c0.5,0.4,0.9,1,1.2,1.6l0.8-0.4c3.4,14.4,8.9,28.1,16.5,40.6c1,1.4,1.7,3,2.3,4.7c0.2,0.9,0.4,1.8,0.4,2.8
			C272.3,468.1,272.3,468.8,272.3,469.5z"/>
		<ellipse class="st9" cx="224.2" cy="377.8" rx="27.6" ry="28.8"/>
		<path class="st9" d="M175.1,441.7c-3.6,5.6-4.8,12.5-5.8,19.2l-6.9,41.7c-1,5.7-1.8,12,1,17c1,1.7,2.3,3.2,3,5
			c0.5,1.8,0.9,3.7,1,5.5c1.6,9.6,10.7,16,19.7,18.3c3.3,0.8,7.1,1.2,9.7-1.1c2.9-2.5,2.9-7.2,1.2-10.6c-1.7-3.4-4.8-5.8-7.7-8.1
			l-9.9-7.6l5.7-45.6C186.4,472.3,179.5,434.7,175.1,441.7z"/>
		<path class="st9" d="M287.7,442.8c1.5,6.9,2.3,13.9,4.2,20.7c0.7,2.7,1.6,5.3,2.3,7.9c0.7,3.2,1.2,6.4,1.4,9.6l2.7,24.6
			c0.3,1.5,0.2,3.1-0.3,4.6c-0.7,1.3-1.8,2.3-3.1,2.9c-7.7,4.5-16.8,5.8-25.4,3.7c-2-0.6-4-1.1-6-1.5c-3.3-0.4-6.6,0.3-9.9,0
			c-6.7-0.5-12.5-4.8-17.1-9.9c-2.8-3-5.3-7.9-2.7-11c1.5-1.6,3.6-2.2,5.7-1.8c2,0.5,4,1.2,5.8,2.3c6.4,3.1,13.2,5,20.2,5.8
			c4.8,0.5,10.8-0.3,12.5-5c0.8-2.3,0.2-4.8-0.3-7.2l-4.6-19.5C272.7,468.3,286.2,435.9,287.7,442.8z"/>
		<path class="st0" d="M207.1,386.6c-1.2-4.6-3-10.3,0.5-13.4c1.2-1,2.7-1.6,4.3-1.7c7.8-1,15.8,3.8,23.2,1.2
			c6.8-2.3,10.5-9.9,8.3-17c-1-3.1-3.1-5.8-5.8-7.5c-3.2-2-7.1-2.4-10.9-2.7c-9.9-0.9-20.1-1.8-29.4,2s-17,13.6-15.1,23.7
			c0.9,4.8,3.8,9,6.7,12.8c2.2,2.9,11.2,16.9,14.8,16.7C208.9,400.4,207.9,389.6,207.1,386.6z"/>
		<path class="st5" d="M237.6,348.3c-0.6-0.3-1.1-0.6-1.7-0.9c5.3,5,5.7,13.5,0.9,19c-1.5,1.7-3.4,3-5.6,3.7
			c-7.4,2.5-15.5-2.2-23.2-1.2c-1.6,0.1-3.1,0.7-4.3,1.7c-3.5,3.1-1.7,8.9-0.5,13.4c0.8,3,1.8,13.8-3.3,14.1h-0.1
			c1.6,1.6,3,2.6,4,2.6c5.1-0.3,4.1-11.1,3.3-14.1c-1.2-4.6-3-10.3,0.5-13.4c1.2-1,2.7-1.6,4.3-1.7c7.8-1,15.8,3.8,23.2,1.2
			c6.8-2.3,10.5-9.9,8.3-17C242.4,352.6,240.3,350,237.6,348.3L237.6,348.3z"/>
		<path class="st0" d="M241.2,829c-1.6,0.1-3.6,0-4.6-1.4c-0.5-0.8-0.8-1.7-0.8-2.6c-0.8-6-1.2-12-1.1-18c0-2.2,0.1-4.5,1.3-6.4
			c0.9-1.1,1.9-2.1,2.9-3c2.5-2.4,4.4-5.9,7.6-7.1c2.9-0.9,6,0,8.2,2.2c2.1,2.3,3.3,5.2,3.6,8.3c0.5,3.7,0.1,7.7,2,10.9
			c0.7,1.2,1.8,2.3,2.6,3.4c2.9,4,5.4,11.7-0.5,13.3C256.1,830.4,247.7,828.7,241.2,829z"/>
	</g>
</g>
</svg>
