<?xml version="1.0" encoding="utf-8"?>
<!-- Generator: Adobe Illustrator 19.0.0, SVG Export Plug-In . SVG Version: 6.00 Build 0)  -->
<svg version="1.1" id="图层_1" xmlns="http://www.w3.org/2000/svg" xmlns:xlink="http://www.w3.org/1999/xlink" x="0px" y="0px"
	 viewBox="-917 917.7 1000 1000" style="enable-background:new -917 917.7 1000 1000;" xml:space="preserve">
<style type="text/css">
	.st0{opacity:0.1;fill:#6C63FF;enable-background:new    ;}
	.st1{fill:url(#SVGID_1_);}
	.st2{fill:#6C63FF;}
	.st3{opacity:0.2;fill:#F5F5F5;enable-background:new    ;}
	.st4{opacity:0.25;enable-background:new    ;}
	.st5{fill:url(#SVGID_2_);}
	.st6{fill:#B96B6B;}
	.st7{opacity:0.1;enable-background:new    ;}
	.st8{fill:#E7E7EE;}
	.st9{fill:#FFB9B9;}
	.st10{fill:#777B9B;}
	.st11{fill:#CBCDDA;}
</style>
<path id="_x23_background" class="st0" d="M-744.6,1144.2c-5.3,6.5-7.4,15.6-9.7,24.2c-18.5,69.1-64.2,124.6-116.1,164.3
	c-22,16.8-48.8,39.3-44,69.5c2.6,16.2,14,28.1,22.4,41.3c17.7,27.6,23.5,65.1,15,98.1c-9.6,37.6-36.5,72.7-28.2,110.7
	c5.1,23.4,22.5,40,39.3,54.4c26.1,22.3,53.1,43.2,80.8,62.7c18.6,13.1,38.4,25.8,60.1,27.4c19.1,1.5,37.8-5.8,56-13
	c15.9-6.3,32.1-12.8,44.9-25.3c8.4-8.2,15-18.8,24.3-25.5c21.8-15.8,49.8-5.8,74.8,1c59,15.8,122.1,10.1,178.2-16.3
	c86.1-40.5,151.7-125.4,235.9-171c36.2-19.6,75.6-31.8,109.1-57c18.9-14.4,35.1-31.9,48-51.9c25.3-39.1,39.1-89,35.1-137.8
	c-4-48.8-26.1-95.8-61-123.4c-37.3-29.5-84.4-35-126.8-52.7c-43.8-18.3-82.8-49.7-126.2-69.3c-71.1-32.1-152.9-30.2-222.5,5
	c-47.2,23.8-95.1,79.6-147.7,83.8C-640.3,1146.2-715.3,1108.7-744.6,1144.2z"/>
<g id="_x23_other_x28_have_x5B_drone_x5D__x29_">
	
		<linearGradient id="SVGID_1_" gradientUnits="userSpaceOnUse" x1="-48.1299" y1="3184.8926" x2="-48.1299" y2="3070.1572" gradientTransform="matrix(1 0 0 1 -88.62 -1886.2799)">
		<stop  offset="0" style="stop-color:#808080;stop-opacity:0.25"/>
		<stop  offset="0.54" style="stop-color:#808080;stop-opacity:0.12"/>
		<stop  offset="1" style="stop-color:#808080;stop-opacity:0.1"/>
	</linearGradient>
	<path class="st1" d="M-12.9,1187.8c-6.9-0.1-13.9,0.4-20.8,1.3l0,0c0-2.8-2.2-5-5-5s-5,2.2-5,5l0,0c-6.9-0.9-13.8-1.4-20.8-1.3
		c-15.4,0-27.8,1.7-27.8,3.8s12.5,3.8,27.8,3.8c6.9,0.1,13.9-0.4,20.8-1.3l0,0c0,0.6,0.1,1.2,0.3,1.8c-1.6,1-2.1,3.2-1,4.8
		c0.2,0.3,0.4,0.6,0.7,0.8c-2.5,0.9-4.4,2.8-5.5,5.2c-1.4-1.1-3-1.7-4.8-1.8l-51.7-2.4c-3.8-5.2-9.8-8.3-16.2-8.3h-32.6
		c-6.5,0-12.5,3.2-16.3,8.4l-49.2,2.3c-1.6,0.1-3.2,0.6-4.5,1.5c-1-2.1-2.7-3.8-4.8-4.7c0.9-0.6,1.5-1.7,1.5-2.9
		c0-1.5-0.9-2.8-2.3-3.2c0.1-0.5,0.2-1,0.2-1.5l0,0c6.9,0.9,13.8,1.4,20.8,1.3c15.4,0,27.8-1.7,27.8-3.8s-12.5-3.8-27.8-3.8
		c-6.9-0.1-13.9,0.4-20.8,1.3l0,0c0-2.8-2.2-5.1-5-5.1l0,0c-2.8,0-5,2.3-5,5.1l0,0c-6.9-0.9-13.8-1.4-20.8-1.3
		c-15.4,0-27.8,1.7-27.8,3.8s12.5,3.8,27.8,3.8c6.9,0.1,13.9-0.4,20.8-1.3l0,0c0,0.6,0.1,1.2,0.3,1.8c-1.6,1-2.1,3.2-1,4.8
		c0.2,0.3,0.5,0.6,0.8,0.9c-3.6,1.4-5.9,4.9-5.9,8.8v6.3c-0.1,5.1,4,9.4,9.2,9.4l0,0h3.7c2.9,0,5.7-1.4,7.4-3.8
		c1.5,1.4,3.5,2.3,5.6,2.3l48.2,1.4c1.5,2.5,3.6,4.6,6,6.3c-4.6,4.8-22.6,26.2-19.7,63.8c0,0,2.9,5.5,10.4,0c0,0-4.8-41.9,22-59.2
		c0.9,2.7,3.4,4.6,6.3,4.6h3.4c-6.9,2.9-11.4,9.6-11.3,17.1c-0.3,9.9,7.4,18.1,17.3,18.4c9.9,0.3,18.1-7.4,18.4-17.3
		c0-0.4,0-0.8,0-1.2c0-7.4-4.5-14.1-11.3-17h3.4c2.9,0,5.4-1.9,6.3-4.6c26.8,17.3,22,59.2,22,59.2c7.5,5.5,10.4,0,10.4,0
		c3.3-43.1-20.8-64.9-20.8-64.9h-0.4c1.8-1.4,3.3-3.2,4.5-5.1l50.7-1.5c2.2-0.1,4.3-1,5.8-2.6c1.7,2.5,4.5,4,7.5,4h3.7
		c5.1-0.1,9.3-4.3,9.2-9.4l0,0v-6.3c0-3.7-2.1-7-5.4-8.6c1.6-1,2.2-3.1,1.2-4.7c-0.4-0.7-1-1.2-1.8-1.5c0.1-0.5,0.2-1,0.2-1.5l0,0
		c6.9,0.9,13.8,1.4,20.8,1.3c15.4,0,27.8-1.7,27.8-3.8S2.5,1187.8-12.9,1187.8z"/>
	<circle class="st2" cx="-138.1" cy="1257.7" r="17.3"/>
	<circle class="st2" cx="-138.1" cy="1257.7" r="11.7"/>
	<circle class="st3" cx="-138.1" cy="1257.7" r="11.7"/>
	<circle class="st2" cx="-138.1" cy="1257.7" r="7.7"/>
	<circle class="st4" cx="-138.1" cy="1257.7" r="7.7"/>
	<path class="st2" d="M-165.1,1231.9c0,0-23.4,20.5-20.1,61.2c0,0,2.8,5.2,10.1,0c0,0-6-51.5,34.2-61.2H-165.1z"/>
	<path class="st2" d="M-111.1,1231.9c0,0,23.4,20.5,20.1,61.2c0,0-2.8,5.2-10.1,0c0,0,6-51.5-34.2-61.2H-111.1z"/>
	<path class="st2" d="M-158.4,1196.9h37.8c9.1,0,16.5,7.4,16.5,16.5v6.2c0,9.1-7.4,16.5-16.5,16.5h-37.8c-9.1,0-16.5-7.4-16.5-16.5
		v-6.2C-174.9,1204.3-167.5,1196.9-158.4,1196.9z"/>
	<path class="st2" d="M-163.3,1227.2l-55.3-1.5c-4.5-0.1-8.1-3.8-8.1-8.3v-2.1c0-4.4,3.5-8.1,7.9-8.3l55.3-2.5
		c4.6-0.2,8.5,3.3,8.7,7.9c0,0.1,0,0.2,0,0.4v6.2c0,4.6-3.7,8.3-8.3,8.3C-163.2,1227.2-163.2,1227.2-163.3,1227.2z"/>
	<path class="st2" d="M-113.2,1227.2l55.2-1.5c4.5-0.1,8.1-3.8,8.1-8.3v-2.1c0-4.4-3.5-8.1-7.9-8.3l-55.3-2.5
		c-4.6-0.2-8.5,3.3-8.7,7.9c0,0.1,0,0.2,0,0.4v6.2c0,4.6,3.7,8.3,8.3,8.3C-113.4,1227.2-113.3,1227.2-113.2,1227.2z"/>
	<path class="st3" d="M-163.3,1227.2l-55.3-1.5c-4.5-0.1-8.1-3.8-8.1-8.3v-2.1c0-4.4,3.5-8.1,7.9-8.3l55.3-2.5
		c4.6-0.2,8.5,3.3,8.7,7.9c0,0.1,0,0.2,0,0.4v6.2c0,4.6-3.7,8.3-8.3,8.3C-163.2,1227.2-163.2,1227.2-163.3,1227.2z"/>
	<path class="st3" d="M-113.2,1227.2l55.2-1.5c4.5-0.1,8.1-3.8,8.1-8.3v-2.1c0-4.4-3.5-8.1-7.9-8.3l-55.3-2.5
		c-4.6-0.2-8.5,3.3-8.7,7.9c0,0.1,0,0.2,0,0.4v6.2c0,4.6,3.7,8.3,8.3,8.3C-113.4,1227.2-113.3,1227.2-113.2,1227.2z"/>
	<path class="st2" d="M-234.6,1203.3h3.4c5,0,9,4,9,9v5.8c0,5-4,9-9,9h-3.4c-5,0-9-4-9-9v-5.8
		C-243.6,1207.3-239.6,1203.3-234.6,1203.3z"/>
	<path class="st2" d="M-44.9,1203.3h3.4c5,0,9,4,9,9v5.8c0,5-4,9-9,9h-3.4c-5,0-9-4-9-9v-5.8C-53.9,1207.3-49.9,1203.3-44.9,1203.3z
		"/>
	<path class="st2" d="M-236.4,1198.1h7.5c1.5,0,2.7,1.2,2.7,2.7v1c0,1.5-1.2,2.7-2.7,2.7h-7.5c-1.5,0-2.7-1.2-2.7-2.7v-1
		C-239.1,1199.3-237.9,1198.1-236.4,1198.1z"/>
	<path class="st2" d="M-233.9,1187.2h1.5c2.2,0,4.1,1.8,4.1,4.1v6.4c0,2.2-1.8,4.1-4.1,4.1h-1.5c-2.2,0-4.1-1.8-4.1-4.1v-6.4
		C-237.9,1189-236.1,1187.2-233.9,1187.2z"/>
	<ellipse class="st2" cx="-258.1" cy="1194.4" rx="27" ry="3.6"/>
	<ellipse class="st2" cx="-208.1" cy="1194.4" rx="27" ry="3.6"/>
	<path class="st2" d="M-46.4,1198.1h7.5c1.5,0,2.7,1.2,2.7,2.7v1c0,1.5-1.2,2.7-2.7,2.7h-7.5c-1.5,0-2.7-1.2-2.7-2.7v-1
		C-49.1,1199.3-47.9,1198.1-46.4,1198.1z"/>
	<path class="st2" d="M-43.8,1187.2h1.5c2.2,0,4.1,1.8,4.1,4.1v6.4c0,2.2-1.8,4.1-4.1,4.1h-1.5c-2.2,0-4.1-1.8-4.1-4.1v-6.4
		C-47.9,1189-46.1,1187.2-43.8,1187.2z"/>
	<ellipse class="st2" cx="-68" cy="1194.4" rx="27" ry="3.6"/>
	<ellipse class="st2" cx="-18.1" cy="1194.4" rx="27" ry="3.6"/>
	<ellipse class="st3" cx="-258.1" cy="1194.4" rx="27" ry="3.6"/>
	<ellipse class="st3" cx="-208.1" cy="1194.4" rx="27" ry="3.6"/>
	<ellipse class="st3" cx="-68" cy="1194.4" rx="27" ry="3.6"/>
	<ellipse class="st3" cx="-18.1" cy="1194.4" rx="27" ry="3.6"/>
	<path class="st2" d="M-148.8,1228.7h21.4c3,0,5.4,2.4,5.4,5.4v2c0,3-2.4,5.4-5.4,5.4h-21.4c-3,0-5.4-2.4-5.4-5.4v-2
		C-154.2,1231.1-151.8,1228.7-148.8,1228.7z"/>
	<path class="st3" d="M-148.8,1228.7h21.4c3,0,5.4,2.4,5.4,5.4v2c0,3-2.4,5.4-5.4,5.4h-21.4c-3,0-5.4-2.4-5.4-5.4v-2
		C-154.2,1231.1-151.8,1228.7-148.8,1228.7z"/>
</g>
<g id="_x23_woman_x28_watch_x2C_have_x5B_head_x5F_shot_x5D__x29_">
	
		<linearGradient id="SVGID_2_" gradientUnits="userSpaceOnUse" x1="-510.63" y1="3690.6301" x2="-510.63" y2="3056.5891" gradientTransform="matrix(1 0 0 1 -88.62 -1886.2799)">
		<stop  offset="0" style="stop-color:#808080;stop-opacity:0.25"/>
		<stop  offset="0.54" style="stop-color:#808080;stop-opacity:0.12"/>
		<stop  offset="1" style="stop-color:#808080;stop-opacity:0.1"/>
	</linearGradient>
	<path class="st5" d="M-286.5,1591.2l-0.6,0.1l2.3-1.7c-24.8,4-48.4-10.9-68.7-25.6c-3.1-2.3-6.3-4.6-9.4-7l-43.1-48.1
		c-2-4.5-3.5-9.2-4.5-14c-2.8-14.1-1-29.6-7.8-42.3c-4.1-7.8-11-13.7-16.1-20.9c-21.8-31.4-2.6-75.7-13.7-112.3
		c-5.9-18.9-19.6-34.4-37.6-42.7c0.7-3.8,1-7.7,0.9-11.6c0.1-5.7-0.8-11.4-2.4-16.9l2.1-1.7c0,0-0.8,0.3-2.3,0.9
		c-0.1-0.2-0.1-0.4-0.2-0.5c-7.9-24.3-34.8-52.7-110.2-70.9c0,0-15.6-6.2-40.9-5.6c-53.2,1.3-101.5,31.9-126.2,79.1
		c-4.4,8.4-7,17.7-7.5,27.2c-0.6,10.8-1.7,26.1-3.5,39.5c-0.3,2.6-0.5,5.2-0.4,7.8c-0.3,21.4,11.4,45.6,12.7,48.1c0,0.3,0,0.7,0,1.1
		c-0.2,3.5,0.6,17.3,25.1,26.5c6.9,2.6,12.8,7.2,17,13.3c-8.3-0.1-16.4-0.1-21,0.2c-3.5,0.2-12.2,5.5-22.6,12.8
		c-9,6.3-17.4,13.4-25,21.2c-19.9,19.9-35.2,44-44.6,70.6c-0.6,1.6-1.3,3.2-2.2,4.7c-3.3,5.1-10.3,14.8-9.8,32.6
		c-0.2,7.7,1,17,4.7,28.4c-19,4.3-45.6,13.7-51.8,33.9c-9.9,31.9-19.9,187-19.9,187h616.4c0,0-12.4-98.2-35.4-165.6l10.8-13.4
		c9.3-3.6,14.7-5.8,14.7-5.8l-5.2-5.8l5.2-6.5c0,0-1.5,0.9-4.2,2.4l1.9-2.3C-301.5,1602.6-294,1596.9-286.5,1591.2z"/>
	<rect x="-746.7" y="1457.2" class="st6" width="117" height="151.9"/>
	<rect x="-746.7" y="1457.2" class="st7" width="117" height="151.9"/>
	<path class="st6" d="M-529,1357.2c-7.8,9.5-18.7,15.8-30.8,17.8c-12.2,1.9-24.8-0.7-37.1,0.9c-12.3,1.5-25.5,9.6-26.3,22
		c-0.6,10.6,8.2,20.9,4.8,31c-1.5,4.3-4.9,7.5-8.3,10.5c-16.9,14.6-36.4,26.6-50.3,44.1c-13.9,17.5-20.8,43.4-8.8,62.2
		c7,10.9,19.7,18.6,22.6,31.2c1.7,7.1-0.1,14.5-2,21.6c-6,22.5-16.3,48.2-38.9,53.6c25.4,24.5,64.7,26.1,100,24.7
		c14.4-0.6,29-1.5,42.6-6.1c13.7-4.6,26.5-13.5,32.8-26.4c7.5-15.2,5.1-33.1,5-50c-0.2-30.3,7.2-60.2,21.6-86.8
		c6.4-11.8,14.2-22.9,19.9-35.1c11.4-24,14.4-51.1,17-77.6c1.2-12.5,2.3-25.2-0.7-37.4c-3.1-12.4-15.8-31.4-30.1-32.9
		C-513.1,1322.7-520.4,1346.6-529,1357.2z"/>
	<path class="st7" d="M-529,1357.2c-7.8,9.5-18.7,15.8-30.8,17.8c-12.2,1.9-24.8-0.7-37.1,0.9c-12.3,1.5-25.5,9.6-26.3,22
		c-0.6,10.6,8.2,20.9,4.8,31c-1.5,4.3-4.9,7.5-8.3,10.5c-16.9,14.6-36.4,26.6-50.3,44.1c-13.9,17.5-20.8,43.4-8.8,62.2
		c7,10.9,19.7,18.6,22.6,31.2c1.7,7.1-0.1,14.5-2,21.6c-6,22.5-16.3,48.2-38.9,53.6c25.4,24.5,64.7,26.1,100,24.7
		c14.4-0.6,29-1.5,42.6-6.1c13.7-4.6,26.5-13.5,32.8-26.4c7.5-15.2,5.1-33.1,5-50c-0.2-30.3,7.2-60.2,21.6-86.8
		c6.4-11.8,14.2-22.9,19.9-35.1c11.4-24,14.4-51.1,17-77.6c1.2-12.5,2.3-25.2-0.7-37.4c-3.1-12.4-15.8-31.4-30.1-32.9
		C-513.1,1322.7-520.4,1346.6-529,1357.2z"/>
	<path class="st8" d="M-301.9,1799.6h-606.9c0,0,9.7-152.7,19.5-184.4c5.9-19.2,30.7-28.6,49.2-33c7.1-1.7,14.2-2.9,21.4-3.6
		c43.3,28.2,85.1,44.2,124.8,52.1c162.8,32.2,288.4-74.3,323.6-52.1c10.7,6.7,20.2,23.3,28.5,44.6c1.8,4.6,3.6,9.5,5.3,14.5
		C-314,1704-301.9,1799.6-301.9,1799.6z"/>
	<path class="st9" d="M-682.1,1399.1c0,0,64.2,167.3-50.4,254.3s231.5,62.5,231.5,62.5l60.9-161.7c0,0-162.5,58.5-91-114.5
		L-682.1,1399.1z"/>
	<path class="st7" d="M-438.8,1730.1c0,0,50.7,37.4,0.2,69.5"/>
	<path class="st10" d="M-492,1415.3l180.3,202.3c0,0-173,70.7-235.6,64.2c-33.3-3.5,0-91.8-1.7-167.7c-0.1-5.4,0.6-17.4,1.8-21
		c1-2.8,3.6,4.5,4.6,1.8l0.3-0.8C-522.9,1441-492,1415.3-492,1415.3z"/>
	<path class="st10" d="M-688.6,1390.1c0,0-73.9,54.4-67.4,195.8s158.4,102.4,158.4,102.4s-113.8-118.6-93.5-182.8
		C-670.8,1441.3-688.6,1390.1-688.6,1390.1z"/>
	<path class="st7" d="M-691.1,1414.5c0,0-37-1.2-49.2-0.4c-3.4,0.2-12,5.4-22.2,12.7c-31.1,21.8-54.2,53-67,88.7
		c-0.5,1.6-1.3,3.2-2.1,4.7c-5.7,8.9-22.7,31.7,8.9,87.7c14.5,25.6,23,44.1,28,56.6c8,20.2,20.5,38.3,36.6,52.9
		c28.5,25.7,75.6,57.9,133.6,57.9c96.7,0,137.3,42.2,197.4-30.9c60.1-73.1,117-143.8,117-143.8s-264.8,153.5-410.2-4.1
		C-720.3,1596.4-779.6,1480.3-691.1,1414.5z"/>
	<path class="st7" d="M-336.4,1637.7c-22.1,27.4-57.1,70.5-93.3,114.4c-60.1,73.1-100.7,30.9-197.4,30.9c-31.5,0-59.8-9.5-83.6-22.2
		c-40.6-21.7-72.3-56.8-91-98.9c-5.2-11.7-12.7-26.9-23.6-46.2c-7.2-12.8-11.9-23.9-14.8-33.4c7.1-1.7,14.2-2.9,21.4-3.6
		c43.3,28.2,85.1,44.2,124.8,52.1c117,88.2,285.3,24.1,352.2-7.5C-323.6,1614.7-342.4,1620.8-336.4,1637.7z"/>
	<path class="st11" d="M-692.7,1416.1c0,0-37-1.2-49.2-0.4c-3.4,0.2-12,5.4-22.2,12.7c-31.1,21.8-54.2,53-67,88.7
		c-0.5,1.6-1.3,3.2-2.1,4.7c-5.7,8.9-22.7,31.7,8.9,87.7c10.9,19.3,18.4,34.5,23.6,46.2c18.7,42.1,50.4,77.2,91,98.9
		c23.8,12.8,52.1,22.2,83.6,22.2c96.7,0,137.3,42.2,197.4-30.9c60.1-73.1,117-143.8,117-143.8s-264.8,153.6-410.2-4
		C-721.9,1598.1-781.2,1481.9-692.7,1416.1z"/>
	<path class="st7" d="M-510.6,1272.4c5,3.6,11.3,5,17.1,7.2c19.8,7.5,35.1,23.7,41.5,43.9c11,36.1-8,79.6,13.5,110.5
		c4.9,7.1,11.8,12.9,15.8,20.6c6.6,12.6,4.9,27.8,7.6,41.7c5.9,29.5,31.5,50.4,55.9,68.1c20.1,14.5,43.3,29.2,67.7,25.2
		c-11,8.3-22.1,16.8-34.9,21.9c-12.8,5.1-27.7,6.5-40.1,0.8c-5-2.3-9.4-5.7-14.5-7.9c-25.6-11.3-55.3,9.9-82.6,3.8
		c-17.7-3.9-31.3-19.1-37.7-36c-6.5-16.9-6.9-35.5-6.3-53.6c0.3-8.7,0.7-17.7-2.7-25.6c-4.1-9.3-13-15.8-17.7-24.8
		c-8.3-16-1.8-35.3,4.6-52.1c9.1-24,17.8-48.7,18.6-74.3c0.9-30.1-8.1-59.7-9.3-89.7C-520.1,1258.4-517.3,1267.6-510.6,1272.4z"/>
	<path class="st6" d="M-508.9,1270.8c5,3.6,11.3,5,17.1,7.2c19.8,7.5,35.1,23.7,41.5,43.9c11,36.1-8,79.6,13.5,110.5
		c4.9,7.1,11.8,12.9,15.8,20.6c6.6,12.6,4.9,27.8,7.6,41.7c5.9,29.5,31.5,50.4,55.9,68.1c20.1,14.5,43.3,29.2,67.7,25.2
		c-11,8.3-22.1,16.8-34.9,21.9c-12.8,5.1-27.7,6.5-40.1,0.8c-5-2.3-9.4-5.7-14.5-7.9c-25.6-11.3-55.3,9.9-82.6,3.8
		c-17.7-3.9-31.3-19.1-37.7-36c-6.5-16.9-6.9-35.5-6.3-53.6c0.3-8.7,0.7-17.7-2.7-25.6c-4.1-9.3-13-15.8-17.7-24.8
		c-8.3-16-1.8-35.3,4.6-52.1c9.1-24,17.8-48.7,18.6-74.3c0.9-30.1-8.1-59.7-9.3-89.7C-518.5,1256.8-515.6,1266-508.9,1270.8z"/>
	<path class="st7" d="M-548.7,1505.4c2.3-15.2,7.6-33.7,16.8-56l-151.1-40.6c0,0,10.9,28.3,15.7,67.7c21.9,20.9,45.5,1.9,78.2,1.9
		C-577.1,1478.5-559.6,1508.6-548.7,1505.4z"/>
	<path class="st7" d="M-460.4,1377.8c0,67.3-34.1,122.1-101.4,122.1c-60.4-72.1-142.3-54.9-142.3-122.1
		c0-67.3,54.6-121.9,121.9-121.9S-460.4,1310.5-460.4,1377.8z"/>
	<circle class="st9" cx="-582.2" cy="1378.8" r="121.9"/>
	<path class="st7" d="M-582.7,1337.7c-5.4,9.4-13.2,15.9-21.5,17.8c-8.6,1.9-17.4-0.7-26,0.9c-10.5,2.2-18.1,11.3-18.4,22
		c-0.4,10.6,5.7,20.9,3.3,31c-1,4.3-3.4,7.5-5.8,10.5c-11.8,14.6-25.5,26.6-35.2,44.1s-14.6,43.4-6.2,62.2
		c4.9,10.9,13.8,18.6,15.8,31.2c1.2,7.1-0.1,14.5-1.4,21.6c-4.2,22.5-11.4,48.2-27.2,53.6c17.8,24.5,45.3,26.1,70,24.7
		c10.1-0.6,20.3-1.5,29.9-6.1c10.9-5.4,19.2-14.9,23-26.4c5.3-15.2,3.6-33.1,3.5-50c-0.2-30.1,5.1-60.3,15.2-86.8
		c4.5-11.8,9.9-22.9,14-35.1c8-24,54.5-137,56.3-163.5c0.8-12.5-42.8,60.7-44.9,48.5c-2.2-12.5-11-31.4-21.1-32.9
		C-571.5,1303.2-576.6,1327.1-582.7,1337.7z"/>
	<path class="st6" d="M-584.3,1336.9c-5.4,9.4-13.2,15.9-21.5,17.8c-8.6,1.9-17.4-0.7-26,0.9c-10.5,2.2-18.1,11.3-18.4,22
		c-0.4,10.6,5.7,20.9,3.3,31c-1,4.3-3.4,7.5-5.8,10.5c-11.8,14.6-25.5,26.6-35.2,44.1s-14.6,43.4-6.2,62.2
		c4.9,10.9,13.8,18.6,15.8,31.2c1.2,7.1-0.1,14.5-1.4,21.6c-4.2,22.5-11.4,48.2-27.2,53.6c17.8,24.5,45.3,26.1,70,24.7
		c10.1-0.6,20.3-1.5,29.9-6.1c10.9-5.4,19.2-14.9,23-26.4c5.3-15.2,3.6-33.1,3.5-50c-0.2-30.1,5.1-60.3,15.2-86.8
		c4.5-11.8,9.9-22.9,14-35.1c8-24,60.1-137.2,61.8-163.7c0.8-12.5-48.4,60.9-50.5,48.7c-2.2-12.5-11-31.4-21.1-32.9
		C-573.1,1302.4-578.2,1326.3-584.3,1336.9z"/>
	<path class="st7" d="M-527.7,1363.3c36.2-29.9,73.2-66.2,73.2-66.2s53.2-78.4-118.8-115c0,0-17.5-6.1-45.8-5.5
		c-59.7,1.2-113.8,31.4-141.6,77.9c-2.5,4.1-4.4,8.5-5.8,13c-1.4,4.5-2.3,9.1-2.6,13.8c-0.7,10.6-1.9,25.7-3.9,38.9
		c-3.7,23.6,13.9,53.6,13.9,53.6s-3.8,16.6,28.1,26.9c7.8,2.5,14.7,7.3,19.6,13.8c1.8,2.4,3.2,4.9,4.3,7.7c1.1,2.7,1.8,5.5,2.1,8.4
		c1.3,12.5,6.4,35.3,26.4,38.3c0,0,8-7.6,20-17.8L-527.7,1363.3z"/>
	<path class="st2" d="M-455.4,1295.5c0,0-36.9,36.3-73,66.2l-130.7,87.8c-11.9,10.2-19.9,17.8-19.9,17.8
		c-20-2.9-25.1-25.8-26.3-38.3c-0.2-2-0.6-3.9-1.2-5.8c-0.3-0.8-0.6-1.7-0.9-2.5c-1.1-2.7-2.5-5.3-4.3-7.7
		c-4.9-6.5-11.8-11.4-19.6-13.8c-31.7-10.4-28-26.9-28-26.9s-17.5-30.1-13.8-53.6c2.1-13.2,3.3-28.3,3.9-38.9
		c0.3-4.7,1.2-9.3,2.6-13.7c1.4-4.6,3.4-8.9,5.8-13c27.6-46.5,81.6-76.7,141.1-77.9c28.3-0.6,45.7,5.5,45.7,5.5
		c84.2,17.9,114.3,46,123.1,69.8C-441.7,1275.2-455.4,1295.5-455.4,1295.5z"/>
	<path class="st7" d="M-806,1707.4c0,0-29.2,42.2,6.5,92.2"/>
	<path class="st7" d="M-704.1,1433.6c0,0,67-51.2,106-104c39-52.8,140.7-91.9,140.7-91.9"/>
</g>
</svg>
