<?xml version="1.0" encoding="utf-8"?>
<!-- Generator: Adobe Illustrator 19.0.0, SVG Export Plug-In . SVG Version: 6.00 Build 0)  -->
<svg version="1.1" id="图层_1" xmlns="http://www.w3.org/2000/svg" xmlns:xlink="http://www.w3.org/1999/xlink" x="0px" y="0px"
	 viewBox="0 0 1000 1000" style="enable-background:new 0 0 1000 1000;" xml:space="preserve">
<style type="text/css">
	.st0{fill:url(#SVGID_1_);}
	.st1{fill:#6C63FF;}
	.st2{fill:url(#SVGID_2_);}
	.st3{fill:#FF9800;}
	.st4{fill:url(#SVGID_3_);}
	.st5{fill:#00897B;}
	.st6{fill:url(#SVGID_4_);}
	.st7{fill:#795548;}
	.st8{fill:url(#SVGID_5_);}
	.st9{fill:#009688;}
	.st10{fill:none;}
	.st11{fill:url(#SVGID_6_);}
	.st12{fill:url(#SVGID_7_);}
	.st13{fill:#FFFFFF;}
	.st14{fill:url(#SVGID_8_);}
	.st15{fill:url(#SVGID_9_);}
	.st16{fill:url(#SVGID_10_);}
	.st17{fill:url(#SVGID_11_);}
	.st18{fill:url(#SVGID_12_);}
	.st19{opacity:0.2;fill:#6C63FF;enable-background:new    ;}
	.st20{opacity:0.2;enable-background:new    ;}
	.st21{fill:url(#SVGID_13_);}
	.st22{fill:#263238;}
	.st23{fill:url(#SVGID_14_);}
	.st24{fill:url(#SVGID_15_);}
	.st25{fill:url(#SVGID_16_);}
	.st26{fill:url(#SVGID_17_);}
	.st27{fill:url(#SVGID_18_);}
	.st28{fill:none;stroke:#37474F;stroke-miterlimit:10;}
	.st29{fill:url(#SVGID_19_);}
	.st30{fill:#F5F5F5;}
	.st31{fill:url(#SVGID_20_);}
	.st32{fill:url(#SVGID_21_);}
	.st33{fill:url(#SVGID_22_);}
	.st34{fill:#E6E6E6;}
	.st35{fill:url(#SVGID_23_);}
	.st36{fill:url(#SVGID_24_);}
	.st37{fill:url(#SVGID_25_);}
	.st38{fill:url(#SVGID_26_);}
	.st39{fill:url(#SVGID_27_);}
</style>
<g id="_x23_home_x28_have_x5B_house_x2C_sun_x2C_tree_x5D__x29_">
	
		<linearGradient id="SVGID_1_" gradientUnits="userSpaceOnUse" x1="776.2111" y1="664.2104" x2="838.4741" y2="664.2104" gradientTransform="matrix(1 0 0 -1 0 1002)">
		<stop  offset="0" style="stop-color:#808080;stop-opacity:0.25"/>
		<stop  offset="0.54" style="stop-color:#808080;stop-opacity:0.12"/>
		<stop  offset="1" style="stop-color:#808080;stop-opacity:0.1"/>
	</linearGradient>
	<polygon class="st0" points="776.2,342.9 776.2,272.9 838.5,272.9 838.5,402.7 	"/>
	<polygon class="st1" points="783.6,347.8 783.6,286.6 830,286.6 830,402.7 	"/>
	
		<linearGradient id="SVGID_2_" gradientUnits="userSpaceOnUse" x1="889.1287" y1="798.7987" x2="889.1287" y2="914.8822" gradientTransform="matrix(1 0 0 -1 0 1002)">
		<stop  offset="0" style="stop-color:#808080;stop-opacity:0.25"/>
		<stop  offset="0.54" style="stop-color:#808080;stop-opacity:0.12"/>
		<stop  offset="1" style="stop-color:#808080;stop-opacity:0.1"/>
	</linearGradient>
	<circle class="st2" cx="889.1" cy="145.2" r="58"/>
	<circle class="st3" cx="889.1" cy="145.2" r="46.4"/>
	<g id="f741385e-e577-4271-b030-1aa9bd75830a">
		
			<linearGradient id="SVGID_3_" gradientUnits="userSpaceOnUse" x1="386.1778" y1="327.5254" x2="386.1778" y2="751.0297" gradientTransform="matrix(1 0 0 -1 -157 942)">
			<stop  offset="0" style="stop-color:#808080;stop-opacity:0.25"/>
			<stop  offset="0.54" style="stop-color:#808080;stop-opacity:0.12"/>
			<stop  offset="1" style="stop-color:#808080;stop-opacity:0.1"/>
		</linearGradient>
		<path class="st4" d="M392.6,409.5c33.1-37.8,29.2-95.3-8.6-128.3c-3.2-2.8-6.6-5.4-10.2-7.7c5.6-8.7,8.6-18.9,8.6-29.3
			c0-29.4-23.3-53.2-52-53.2c-23.7,0-43.6,16.2-49.9,38.3c-13.6-23-38.2-38.3-66.4-38.3c-42.8,0-77.5,35.5-77.5,79.3
			c0,9.3,1.6,18.6,4.7,27.4c-1.6-0.1-3.2-0.2-4.7-0.2c-34.4,0-62.3,28.5-62.3,63.6c0,2.2,0.1,4.3,0.3,6.4
			C46.1,380.3,27.8,408.7,28,440c0,43.6,34.6,79,77.3,79c4.5,0,9-0.4,13.4-1.2c-0.2,2.6-0.4,5.3-0.4,8c0,49,38.8,88.6,86.7,88.6
			c17.7,0,35-5.5,49.4-15.8c11.6,10.2,26.5,15.8,41.9,15.8c35.8,0,64.8-29.7,64.8-66.2c0-1.6-0.1-3.2-0.2-4.7h0.2
			c38.3,0,69.4-31.8,69.4-70.9C430.5,446.2,415.9,421.9,392.6,409.5z"/>
	</g>
	<path id="aa86aca2-1def-4b5e-bdbf-3429bf39090e" class="st5" d="M382.6,409.1c31-35.5,27.4-89.4-8.1-120.5c-3-2.6-6.2-5.1-9.6-7.2
		c5.3-8.2,8.1-17.7,8.1-27.4c0-27.6-21.9-49.9-48.8-49.9c-22.2,0-40.9,15.2-46.8,35.9c-12.9-22.2-36.6-35.8-62.3-35.9
		c-40.2,0-72.8,33.3-72.8,74.4c0,8.8,1.5,17.4,4.5,25.7c-1.5-0.1-3-0.2-4.5-0.2c-32.3,0-58.4,26.7-58.4,59.8c0,2,0.1,4,0.3,6
		c-26.8,12-44,38.7-43.9,68.1c0,41,32.5,74.2,72.5,74.2c4.2,0,8.4-0.4,12.5-1.1c-0.2,2.5-0.3,5-0.3,7.5c0,46,36.4,83.2,81.4,83.2
		c16.6,0,32.8-5.1,46.3-14.8c10.9,9.5,24.9,14.8,39.3,14.8c33.6,0,60.8-27.8,60.8-62.2c0-1.5-0.1-2.9-0.2-4.4h0.2
		c36,0,65.1-29.8,65.1-66.6C418.2,443.5,404.5,420.7,382.6,409.1z"/>
	
		<linearGradient id="SVGID_4_" gradientUnits="userSpaceOnUse" x1="244.7544" y1="217.7691" x2="244.7544" y2="687.9178" gradientTransform="matrix(1 0 0 -1 0 1002)">
		<stop  offset="0" style="stop-color:#808080;stop-opacity:0.25"/>
		<stop  offset="0.54" style="stop-color:#808080;stop-opacity:0.12"/>
		<stop  offset="1" style="stop-color:#808080;stop-opacity:0.1"/>
	</linearGradient>
	<rect x="235.3" y="314.1" class="st6" width="18.9" height="470.1"/>
	<rect x="240.7" y="320.7" class="st7" width="9.5" height="463.5"/>
	
		<rect x="224.9" y="413.6" transform="matrix(-0.6794 0.7337 -0.7337 -0.6794 781.1066 495.5202)" class="st7" width="114.8" height="9.5"/>
	
		<rect x="198.1" y="452.5" transform="matrix(-0.5962 0.8028 -0.8028 -0.5962 727.5487 639.9198)" class="st7" width="9.5" height="100.8"/>
	<g id="b1e29bf6-85c6-472a-ba69-b630e8d8f49d">
		
			<linearGradient id="SVGID_5_" gradientUnits="userSpaceOnUse" x1="575.6105" y1="308.7407" x2="575.6105" y2="662.9976" gradientTransform="matrix(1 0 0 -1 -157 942)">
			<stop  offset="0" style="stop-color:#808080;stop-opacity:0.25"/>
			<stop  offset="0.54" style="stop-color:#808080;stop-opacity:0.12"/>
			<stop  offset="1" style="stop-color:#808080;stop-opacity:0.1"/>
		</linearGradient>
		<path class="st8" d="M273.9,461.8c-12.8-13.6-19.9-31.5-19.9-50.1c0-26.8,14.6-50.4,36.5-63.6c-4.9-7.2-7.6-15.7-7.6-24.5
			c0-24.6,20.6-44.5,46.1-44.5c21,0,38.6,13.5,44.2,32c12.8-20.1,35-32.2,58.8-32c37.9,0,68.6,29.7,68.6,66.3
			c0,7.8-1.4,15.6-4.2,22.9c1.4-0.1,2.8-0.2,4.2-0.2c30.4,0,55.1,23.8,55.1,53.2c0,1.8-0.1,3.6-0.3,5.4
			c24.3,10.1,41.4,33.5,41.4,60.7c0,36.5-30.6,66.1-68.4,66.1c-4,0-7.9-0.4-11.8-1.1c0.2,2.2,0.3,4.4,0.3,6.7
			c0,41-34.4,74.2-76.8,74.2c-15.5,0-30.7-4.6-43.7-13.2c-10.5,8.6-23.6,13.3-37.1,13.2c-31.7,0-57.4-24.8-57.4-55.4
			c0-1.3,0.1-2.6,0.2-3.9h-0.2c-33.9,0-61.4-26.6-61.4-59.3C240.5,491.5,254.1,471.6,273.9,461.8z"/>
	</g>
	<path id="da8ae254-7852-462b-b033-1b79dc847a6a" class="st9" d="M280.1,461.5c-12.2-13-19-30.2-19-48c0-25.7,14-48.2,35-60.9
		c-4.7-6.9-7.3-15.1-7.3-23.4c0-23.5,19.7-42.6,44.1-42.6c20.1,0,36.9,12.9,42.3,30.7c12.2-19.2,33.4-30.8,56.2-30.6
		c36.3,0,65.7,28.4,65.7,63.5c0,7.5-1.4,14.9-4,21.9c1.3-0.1,2.7-0.2,4-0.2c29.1,0,52.8,22.8,52.8,51c0,1.7-0.1,3.4-0.3,5.1
		c23.3,9.7,39.6,32.1,39.6,58.1c0,34.9-29.3,63.3-65.5,63.3c-3.8,0-7.6-0.4-11.3-1c0.2,2.1,0.3,4.2,0.3,6.4c0,39.2-32.9,71-73.5,71
		c-14.9,0-29.5-4.4-41.8-12.7c-10,8.2-22.6,12.7-35.5,12.7c-30.3,0-54.9-23.7-54.9-53c0-1.3,0.1-2.5,0.2-3.8H307
		c-32.5,0-58.8-25.4-58.8-56.8C248.1,490,261.1,470.9,280.1,461.5z"/>
	<line id="d827a518-3361-4086-b50f-c6b47e6818cd" class="st10" x1="404.7" y1="387.2" x2="404.7" y2="781.9"/>
	
		<linearGradient id="SVGID_6_" gradientUnits="userSpaceOnUse" x1="404.3375" y1="220.1541" x2="404.3375" y2="614.7536" gradientTransform="matrix(1 0 0 -1 0 1002)">
		<stop  offset="0" style="stop-color:#808080;stop-opacity:0.25"/>
		<stop  offset="0.54" style="stop-color:#808080;stop-opacity:0.12"/>
		<stop  offset="1" style="stop-color:#808080;stop-opacity:0.1"/>
	</linearGradient>
	<rect x="393.6" y="387.2" class="st11" width="21.5" height="394.6"/>
	<rect x="398.7" y="387.2" class="st7" width="11.9" height="394.6"/>
	<line id="_x34_a2b3956-f53f-4918-93e5-f7b78a79ae92" class="st10" x1="405.9" y1="505.4" x2="335.4" y2="433.6"/>
	
		<rect x="364.7" y="419.2" transform="matrix(-0.7141 0.7 -0.7 -0.7141 964.0077 545.2901)" class="st7" width="11.9" height="100.7"/>
	<line id="_x31_00a92bc-a3f1-4f9a-a93f-0d91ae55d71b" class="st10" x1="405.9" y1="567.2" x2="478.9" y2="516"/>
	
		<rect x="397.8" y="535.6" transform="matrix(-0.8186 0.5744 -0.5744 -0.8186 1115.6467 730.7175)" class="st7" width="89.2" height="11.9"/>
	
		<linearGradient id="SVGID_7_" gradientUnits="userSpaceOnUse" x1="778.2079" y1="84.2777" x2="778.2079" y2="485.5256" gradientTransform="matrix(1 0 0 -1 -157 942)">
		<stop  offset="0" style="stop-color:#808080;stop-opacity:0.25"/>
		<stop  offset="0.54" style="stop-color:#808080;stop-opacity:0.12"/>
		<stop  offset="1" style="stop-color:#808080;stop-opacity:0.1"/>
	</linearGradient>
	<path class="st12" d="M886.2,456.5h-530c-12.1,0-21.9,5.4-21.9,12.2v389.1h573.8V468.7C908.1,461.9,898.3,456.5,886.2,456.5z"/>
	<polygon class="st13" points="619.5,233.8 343,439.2 343,842.9 897.7,842.9 897.7,453.9 	"/>
	
		<linearGradient id="SVGID_8_" gradientUnits="userSpaceOnUse" x1="620.0682" y1="521.3486" x2="620.0682" y2="644.4815" gradientTransform="matrix(1 0 0 -1 0 1002)">
		<stop  offset="0" style="stop-color:#808080;stop-opacity:0.25"/>
		<stop  offset="0.54" style="stop-color:#808080;stop-opacity:0.12"/>
		<stop  offset="1" style="stop-color:#808080;stop-opacity:0.1"/>
	</linearGradient>
	<circle class="st14" cx="620.1" cy="419.1" r="61.6"/>
	
		<linearGradient id="SVGID_9_" gradientUnits="userSpaceOnUse" x1="450.2222" y1="355.3492" x2="450.2222" y2="464.1827" gradientTransform="matrix(1 0 0 -1 0 1002)">
		<stop  offset="0" style="stop-color:#808080;stop-opacity:0.25"/>
		<stop  offset="0.54" style="stop-color:#808080;stop-opacity:0.12"/>
		<stop  offset="1" style="stop-color:#808080;stop-opacity:0.1"/>
	</linearGradient>
	<rect x="395.8" y="537.8" class="st15" width="108.8" height="108.8"/>
	
		<linearGradient id="SVGID_10_" gradientUnits="userSpaceOnUse" x1="787.7192" y1="355.3492" x2="787.7192" y2="464.1827" gradientTransform="matrix(1 0 0 -1 0 1002)">
		<stop  offset="0" style="stop-color:#808080;stop-opacity:0.25"/>
		<stop  offset="0.54" style="stop-color:#808080;stop-opacity:0.12"/>
		<stop  offset="1" style="stop-color:#808080;stop-opacity:0.1"/>
	</linearGradient>
	<rect x="733.3" y="537.8" class="st16" width="108.8" height="108.8"/>
	
		<linearGradient id="SVGID_11_" gradientUnits="userSpaceOnUse" x1="618.9865" y1="460.3625" x2="618.9865" y2="808.5603" gradientTransform="matrix(1 0 0 -1 0 1002)">
		<stop  offset="0" style="stop-color:#808080;stop-opacity:0.25"/>
		<stop  offset="0.54" style="stop-color:#808080;stop-opacity:0.12"/>
		<stop  offset="1" style="stop-color:#808080;stop-opacity:0.1"/>
	</linearGradient>
	<polygon class="st17" points="289.7,541.6 275,459.2 620.7,193.4 963,464.5 953.5,538.5 620.7,287.3 	"/>
	<polygon class="st1" points="290.4,525.1 280.2,468.1 620.6,202.5 957.7,468.1 947.5,525 620.6,267.4 	"/>
	
		<linearGradient id="SVGID_12_" gradientUnits="userSpaceOnUse" x1="619.5247" y1="159.1152" x2="619.5247" y2="341.0603" gradientTransform="matrix(1 0 0 -1 0 1002)">
		<stop  offset="0" style="stop-color:#808080;stop-opacity:0.25"/>
		<stop  offset="0.54" style="stop-color:#808080;stop-opacity:0.12"/>
		<stop  offset="1" style="stop-color:#808080;stop-opacity:0.1"/>
	</linearGradient>
	<rect x="553" y="660.9" class="st18" width="133" height="181.9"/>
	<rect x="556.9" y="664.8" class="st1" width="125.3" height="178.1"/>
	<rect x="400.8" y="541.7" class="st1" width="101.1" height="35.7"/>
	<rect x="400.8" y="577.4" class="st19" width="101.1" height="65.4"/>
	<rect x="737.2" y="541.7" class="st1" width="101.1" height="35.7"/>
	<rect x="737.2" y="577.4" class="st19" width="101.1" height="65.4"/>
	<path class="st1" d="M619.5,474.6c31,0,56.1-25.1,56.1-56.1c0,0,0,0,0-0.1H563.5C563.4,449.4,588.5,474.6,619.5,474.6
		C619.5,474.6,619.5,474.6,619.5,474.6z"/>
	<path class="st20" d="M619.5,474.1c31,0,56.1-25.1,56.1-56.1l0,0H563.5C563.5,449,588.6,474.1,619.5,474.1L619.5,474.1z"/>
	<path class="st19" d="M619.5,362.5c-30.9,0-56,25.1-56.1,56h112.1C675.6,387.5,650.5,362.5,619.5,362.5z"/>
	<path class="st19" d="M619.5,362.5c-30.9,0-56,25.1-56.1,56h112.1C675.6,387.5,650.5,362.5,619.5,362.5z"/>
	
		<linearGradient id="SVGID_13_" gradientUnits="userSpaceOnUse" x1="653.0464" y1="235.5193" x2="653.0464" y2="261.9019" gradientTransform="matrix(1 0 0 -1 0 1002)">
		<stop  offset="0" style="stop-color:#808080;stop-opacity:0.25"/>
		<stop  offset="0.54" style="stop-color:#808080;stop-opacity:0.12"/>
		<stop  offset="1" style="stop-color:#808080;stop-opacity:0.1"/>
	</linearGradient>
	<circle class="st21" cx="653" cy="753.3" r="13.2"/>
	<circle class="st22" cx="653" cy="753.3" r="9.9"/>
	
		<linearGradient id="SVGID_14_" gradientUnits="userSpaceOnUse" x1="617.3192" y1="132.1839" x2="617.3192" y2="184.9491" gradientTransform="matrix(1 0 0 -1 0 1002)">
		<stop  offset="0" style="stop-color:#808080;stop-opacity:0.25"/>
		<stop  offset="0.54" style="stop-color:#808080;stop-opacity:0.12"/>
		<stop  offset="1" style="stop-color:#808080;stop-opacity:0.1"/>
	</linearGradient>
	<rect x="536.5" y="817.1" class="st23" width="161.6" height="52.8"/>
	<rect x="539.8" y="821.4" class="st13" width="155" height="45.1"/>
	<g id="_x30_6ed4a51-c0d7-4f18-ace3-f8895d5abf4f">
		
			<linearGradient id="SVGID_15_" gradientUnits="userSpaceOnUse" x1="466.9089" y1="152.0915" x2="466.9089" y2="347.3545" gradientTransform="matrix(1 0 0 -1 -157 942)">
			<stop  offset="0" style="stop-color:#808080;stop-opacity:0.25"/>
			<stop  offset="0.54" style="stop-color:#808080;stop-opacity:0.12"/>
			<stop  offset="1" style="stop-color:#808080;stop-opacity:0.1"/>
		</linearGradient>
		<path class="st24" d="M385.3,695.4c15.2-17.4,13.5-43.9-4-59.2c-1.5-1.3-3-2.5-4.7-3.5c2.6-4,4-8.7,4-13.5
			c0.3-13.2-10.1-24.2-23.3-24.5c-11-0.3-20.8,7-23.7,17.6c-6.3-10.9-18-17.6-30.6-17.7c-19.7,0-35.7,16.4-35.7,36.5
			c0,4.3,0.7,8.6,2.2,12.7c-0.7-0.1-1.4-0.1-2.2-0.1c-15.8,0-28.7,13.1-28.7,29.3c0,1,0,2,0.1,3c-13.2,5.9-21.6,19-21.5,33.5
			c0,20.1,15.9,36.4,35.6,36.4c2.1,0,4.1-0.2,6.2-0.6c-0.1,1.2-0.2,2.4-0.2,3.7c0,22.6,17.9,40.9,40,40.9c8.2,0,16.1-2.5,22.8-7.3
			c5.3,4.7,12.2,7.3,19.3,7.3c16.5,0,29.9-13.7,29.9-30.5c0-0.7-0.1-1.4-0.1-2.2h0.1c17.7,0,32-14.6,32-32.7
			C402.7,712.3,396,701.1,385.3,695.4z"/>
	</g>
	<path id="_x37_8683fa5-7813-42ce-9e3f-16828d09ffb2" class="st5" d="M380.6,695.2c14.3-16.4,12.6-41.2-3.7-55.5
		c-1.4-1.2-2.9-2.3-4.4-3.3c2.4-3.8,3.7-8.2,3.7-12.7c0.3-12.4-9.5-22.7-21.9-23c-10.3-0.3-19.5,6.6-22.2,16.6
		c-6-10.2-16.9-16.5-28.7-16.6c-18.5,0-33.5,15.4-33.5,34.3c0,4,0.7,8,2.1,11.8c-0.7,0-1.4-0.1-2.1-0.1c-14.9,0-26.9,12.3-26.9,27.5
		c0,0.9,0,1.9,0.1,2.8c-12.4,5.5-20.3,17.9-20.2,31.4c0,18.9,15,34.2,33.4,34.2c1.9,0,3.9-0.2,5.8-0.5c-0.1,1.1-0.2,2.3-0.2,3.5
		c0,21.2,16.8,38.4,37.5,38.4c7.7,0,15.1-2.4,21.4-6.8c5,4.4,11.5,6.8,18.1,6.8c15.5,0,28-12.8,28-28.7c0-0.7-0.1-1.4-0.1-2h0.1
		c16.6,0,30-13.7,30-30.7C397,711,390.7,700.5,380.6,695.2z"/>
	
		<linearGradient id="SVGID_16_" gradientUnits="userSpaceOnUse" x1="317.1008" y1="133.8829" x2="317.1008" y2="350.6003" gradientTransform="matrix(1 0 0 -1 0 1002)">
		<stop  offset="0" style="stop-color:#808080;stop-opacity:0.25"/>
		<stop  offset="0.54" style="stop-color:#808080;stop-opacity:0.12"/>
		<stop  offset="1" style="stop-color:#808080;stop-opacity:0.1"/>
	</linearGradient>
	<rect x="312.7" y="651.4" class="st25" width="8.7" height="216.7"/>
	<rect x="315.2" y="654.4" class="st7" width="4.4" height="213.7"/>
	
		<rect x="308" y="697.2" transform="matrix(-0.6794 0.7337 -0.7337 -0.6794 1074.839 929.2843)" class="st7" width="52.9" height="4.4"/>
	
		<rect x="295.6" y="715.2" transform="matrix(-0.5962 0.8028 -0.8028 -0.5962 1068.1766 939.6792)" class="st7" width="4.4" height="46.4"/>
	<g id="_x39_72b0d41-b6e5-4c12-bd64-332f8d6d9bc4">
		
			<linearGradient id="SVGID_17_" gradientUnits="userSpaceOnUse" x1="554.3093" y1="143.4379" x2="554.3093" y2="306.8006" gradientTransform="matrix(1 0 0 -1 -157 942)">
			<stop  offset="0" style="stop-color:#808080;stop-opacity:0.25"/>
			<stop  offset="0.54" style="stop-color:#808080;stop-opacity:0.12"/>
			<stop  offset="1" style="stop-color:#808080;stop-opacity:0.1"/>
		</linearGradient>
		<path class="st26" d="M330.5,719.5c-5.9-6.3-9.2-14.5-9.2-23.1c0.1-12.1,6.5-23.2,16.9-29.3c-2.3-3.3-3.5-7.3-3.5-11.3
			c0-11.3,9.5-20.5,21.2-20.5c9.3-0.1,17.6,5.9,20.4,14.8c5.9-9.3,16.1-14.8,27.1-14.8c17.5,0,31.7,13.7,31.7,30.6
			c0,3.6-0.7,7.2-1.9,10.6c0.6,0,1.3-0.1,1.9-0.1c14,0,25.4,11,25.4,24.5c0,0.8,0,1.7-0.1,2.5c11.4,4.6,19,15.7,19.1,28
			c0,16.8-14.1,30.5-31.5,30.5c-1.8,0-3.7-0.2-5.5-0.5c0.1,1.1,0.1,2,0.1,3.1c0,18.9-15.8,34.2-35.4,34.2c-7.2,0-14.2-2.1-20.2-6.1
			c-4.8,3.9-10.9,6.1-17.1,6c-14.6,0-26.4-11.4-26.4-25.5c0-0.6,0-1.2,0.1-1.8h-0.1c-15.6,0-28.3-12.3-28.3-27.4
			C315.2,733.4,321.2,724,330.5,719.5z"/>
	</g>
	<path id="b9cc99c1-468f-47c5-9d53-f370b6656f3a" class="st9" d="M333.4,719.4c-5.6-6-8.8-13.9-8.8-22.2
		c0.1-11.5,6.2-22.2,16.1-28.1c-2.2-3.2-3.4-6.9-3.4-10.8c0-10.8,9.1-19.6,20.3-19.6c8.9-0.1,16.8,5.6,19.5,14.1
		c5.6-8.9,15.4-14.2,25.9-14.1c16.7,0,30.3,13.1,30.3,29.3c0,3.5-0.6,6.9-1.9,10.1c0.6,0,1.2-0.1,1.9-0.1
		c13.4,0,24.3,10.6,24.3,23.5c0,0.8,0,1.6-0.1,2.4c10.9,4.4,18.2,15,18.3,26.8c0,16.1-13.5,29.2-30.2,29.2c-1.8,0-3.5-0.1-5.3-0.4
		c0.1,1,0.1,2,0.1,2.9c0,18.1-15.2,32.7-33.9,32.7c-6.9,0-13.6-2-19.3-5.8c-4.6,3.8-10.4,5.8-16.4,5.8c-14,0-25.3-10.9-25.3-24.5
		c0-0.6,0-1.2,0.1-1.7h-0.1c-15,0-27.1-11.7-27.1-26.2C318.6,732.7,324.4,723.6,333.4,719.4z"/>
	<line id="_x37_a451371-7fbb-4ddd-b5af-3dcf3eef4c8e" class="st10" x1="390.8" y1="685.1" x2="390.8" y2="867"/>
	
		<linearGradient id="SVGID_18_" gradientUnits="userSpaceOnUse" x1="390.6608" y1="134.991" x2="390.6608" y2="316.8833" gradientTransform="matrix(1 0 0 -1 0 1002)">
		<stop  offset="0" style="stop-color:#808080;stop-opacity:0.25"/>
		<stop  offset="0.54" style="stop-color:#808080;stop-opacity:0.12"/>
		<stop  offset="1" style="stop-color:#808080;stop-opacity:0.1"/>
	</linearGradient>
	<rect x="385.7" y="685.1" class="st27" width="9.9" height="181.9"/>
	<rect x="388.1" y="685.1" class="st7" width="5.5" height="181.9"/>
	<line id="f8907fab-e671-432b-8785-92f5b3540283" class="st10" x1="391.4" y1="739.6" x2="358.9" y2="706.5"/>
	
		<rect x="372.4" y="699.8" transform="matrix(-0.7141 0.7 -0.7 -0.7141 1149.1831 976.7512)" class="st7" width="5.5" height="46.4"/>
	<line id="_x38_3bfd14d-9fcf-4efd-aa6d-a51063723d88" class="st10" x1="391.4" y1="768.1" x2="425.1" y2="744.4"/>
	
		<rect x="387.7" y="753.5" transform="matrix(-0.8186 0.5744 -0.5744 -0.8186 1176.7878 1140.7644)" class="st7" width="41.1" height="5.5"/>
	<polyline class="st28" points="122.2,618.7 193.5,692.8 274.1,618.7 	"/>
	
		<linearGradient id="SVGID_19_" gradientUnits="userSpaceOnUse" x1="75.7262" y1="125.3033" x2="75.7262" y2="420.7886" gradientTransform="matrix(1 0 0 -1 0 1002)">
		<stop  offset="0" style="stop-color:#808080;stop-opacity:0.25"/>
		<stop  offset="0.54" style="stop-color:#808080;stop-opacity:0.12"/>
		<stop  offset="1" style="stop-color:#808080;stop-opacity:0.1"/>
	</linearGradient>
	<rect x="51.8" y="581.2" class="st29" width="47.8" height="295.5"/>
	<rect x="55.6" y="586.8" class="st30" width="40.3" height="279.5"/>
	
		<linearGradient id="SVGID_20_" gradientUnits="userSpaceOnUse" x1="183.1299" y1="356.9954" x2="183.1299" y2="408.5893" gradientTransform="matrix(1 0 0 -1 0 1002)">
		<stop  offset="0" style="stop-color:#808080;stop-opacity:0.25"/>
		<stop  offset="0.54" style="stop-color:#808080;stop-opacity:0.12"/>
		<stop  offset="1" style="stop-color:#808080;stop-opacity:0.1"/>
	</linearGradient>
	<rect x="39.6" y="593.4" class="st31" width="287" height="51.6"/>
	<rect x="43.4" y="599" class="st30" width="279.5" height="40.3"/>
	
		<linearGradient id="SVGID_21_" gradientUnits="userSpaceOnUse" x1="76.1958" y1="374.8195" x2="76.1958" y2="391.7044" gradientTransform="matrix(1 0 0 -1 0 1002)">
		<stop  offset="0" style="stop-color:#808080;stop-opacity:0.25"/>
		<stop  offset="0.54" style="stop-color:#808080;stop-opacity:0.12"/>
		<stop  offset="1" style="stop-color:#808080;stop-opacity:0.1"/>
	</linearGradient>
	<circle class="st32" cx="76.2" cy="618.7" r="8.4"/>
	
		<linearGradient id="SVGID_22_" gradientUnits="userSpaceOnUse" x1="302.2632" y1="374.8195" x2="302.2632" y2="391.7044" gradientTransform="matrix(1 0 0 -1 0 1002)">
		<stop  offset="0" style="stop-color:#808080;stop-opacity:0.25"/>
		<stop  offset="0.54" style="stop-color:#808080;stop-opacity:0.12"/>
		<stop  offset="1" style="stop-color:#808080;stop-opacity:0.1"/>
	</linearGradient>
	<circle class="st33" cx="302.3" cy="618.7" r="8.4"/>
	<circle class="st34" cx="76.2" cy="618.7" r="6.6"/>
	<circle class="st34" cx="302.3" cy="618.7" r="6.6"/>
	
		<linearGradient id="SVGID_23_" gradientUnits="userSpaceOnUse" x1="108.0871" y1="252.4147" x2="289.1352" y2="252.4147" gradientTransform="matrix(1 0 0 -1 0 1002)">
		<stop  offset="0" style="stop-color:#808080;stop-opacity:0.25"/>
		<stop  offset="0.54" style="stop-color:#808080;stop-opacity:0.12"/>
		<stop  offset="1" style="stop-color:#808080;stop-opacity:0.1"/>
	</linearGradient>
	<rect x="108.1" y="688.1" class="st35" width="181" height="122.9"/>
	<rect x="109.5" y="689.6" class="st1" width="178.2" height="118.2"/>
	<rect x="130.1" y="708.3" class="st13" width="125.7" height="11.3"/>
	<rect x="153.1" y="730.4" class="st13" width="89.1" height="11.3"/>
	<rect x="141.9" y="752.4" class="st13" width="107.9" height="11.3"/>
	<rect x="131.5" y="774.4" class="st13" width="125.7" height="11.3"/>
	<g id="_x36_3650477-b8a1-43d8-a2c1-7cd9fae56092">
		
			<linearGradient id="SVGID_24_" gradientUnits="userSpaceOnUse" x1="430.1606" y1="126.8381" x2="430.1606" y2="304.3385" gradientTransform="matrix(-1 0 0 -1 1303.08 942)">
			<stop  offset="0" style="stop-color:#808080;stop-opacity:0.25"/>
			<stop  offset="0.54" style="stop-color:#808080;stop-opacity:0.12"/>
			<stop  offset="1" style="stop-color:#808080;stop-opacity:0.1"/>
		</linearGradient>
		<path class="st36" d="M804.4,729.2c-13.8-15.9-12.2-39.9,3.6-53.8c1.3-1.2,2.7-2.2,4.2-3.2c-2.4-3.7-3.6-7.9-3.6-12.3
			c-0.3-12,9.2-22,21.2-22.3c10-0.3,18.9,6.4,21.6,16.1c5.8-9.9,16.4-16,27.8-16.1c17.9,0,32.5,14.9,32.5,33.2c0,3.9-0.7,7.8-2,11.5
			c0.7,0,1.3-0.1,2-0.1c14.4,0,26.1,11.9,26.1,26.7c0,0.9,0,1.8-0.1,2.7c12,5.4,19.7,17.3,19.6,30.4c0,18.3-14.5,33.1-32.4,33.1
			c-1.9,0-3.8-0.2-5.6-0.5c0.1,1.1,0.2,2.2,0.2,3.3c0,20.5-16.3,37.2-36.3,37.2c-7.4,0-14.7-2.3-20.7-6.6
			c-4.9,4.3-11.1,6.6-17.6,6.6c-15,0-27.1-12.4-27.1-27.8c0-0.7,0-1.3,0.1-2h-0.1c-16.1,0-29.1-13.3-29.1-29.7
			C788.6,744.6,794.6,734.4,804.4,729.2z"/>
	</g>
	<path id="d9fb3d72-af8e-4f1d-b977-47710d21b422" class="st5" d="M808.6,729.1c-13-14.9-11.5-37.5,3.4-50.5c1.3-1.1,2.6-2.1,4-3
		c-2.2-3.4-3.4-7.4-3.4-11.5c-0.3-11.3,8.6-20.6,19.9-20.9c9.4-0.2,17.8,6,20.2,15.1c5.4-9.3,15.3-15,26.1-15.1
		c16.9,0,30.5,14,30.5,31.2c0,3.7-0.6,7.3-1.9,10.8c0.6,0,1.2-0.1,1.9-0.1c13.5,0,24.5,11.2,24.5,25c0,0.9,0,1.7-0.1,2.5
		c11.2,5,18.5,16.2,18.4,28.6c0,17.2-13.6,31.1-30.4,31.1c-1.8,0-3.5-0.2-5.3-0.5c0.1,1.1,0.1,2.1,0.1,3.2
		c0,19.3-15.3,34.9-34.1,34.9c-7,0-13.8-2.2-19.4-6.2c-4.6,4-10.4,6.2-16.5,6.2c-14.1,0-25.5-11.7-25.5-26.1c0-0.6,0-1.2,0.1-1.8
		h-0.1c-15.1,0-27.3-12.5-27.3-27.9C793.7,743.5,799.4,733.9,808.6,729.1z"/>
	
		<linearGradient id="SVGID_25_" gradientUnits="userSpaceOnUse" x1="436.6984" y1="55.7" x2="436.6984" y2="252.7359" gradientTransform="matrix(-1 0 0 -1 1303.08 942)">
		<stop  offset="0" style="stop-color:#808080;stop-opacity:0.25"/>
		<stop  offset="0.54" style="stop-color:#808080;stop-opacity:0.12"/>
		<stop  offset="1" style="stop-color:#808080;stop-opacity:0.1"/>
	</linearGradient>
	<rect x="862.4" y="689.3" class="st37" width="7.9" height="197"/>
	<rect x="864.1" y="692" class="st7" width="4" height="194.3"/>
	
		<rect x="848.7" y="709" transform="matrix(-0.7337 0.6794 -0.6794 -0.7337 1972.8715 692.967)" class="st7" width="4" height="48.1"/>
	
		<rect x="862.8" y="766.4" transform="matrix(-0.8028 0.5962 -0.5962 -0.8028 2051.7319 858.2206)" class="st7" width="42.2" height="4"/>
	<g id="ea5e6e86-8f22-4c0d-a253-147f504d396e">
		
			<linearGradient id="SVGID_26_" gradientUnits="userSpaceOnUse" x1="509.5671" y1="118.9655" x2="509.5671" y2="267.5112" gradientTransform="matrix(-1 0 0 -1 1303.08 942)">
			<stop  offset="0" style="stop-color:#808080;stop-opacity:0.25"/>
			<stop  offset="0.54" style="stop-color:#808080;stop-opacity:0.12"/>
			<stop  offset="1" style="stop-color:#808080;stop-opacity:0.1"/>
		</linearGradient>
		<path class="st38" d="M854.2,751.1c5.3-5.7,8.3-13.2,8.3-21c0-11-5.9-21.1-15.3-26.7c2.1-3,3.2-6.6,3.2-10.3
			c0-10.3-8.6-18.7-19.3-18.7c-8.5-0.1-16,5.4-18.5,13.4c-5.4-8.4-14.7-13.5-24.6-13.4c-15.9,0-28.8,12.4-28.8,27.8
			c0,3.3,0.6,6.5,1.8,9.6c-0.6,0-1.2-0.1-1.8-0.1c-12.7,0-23.1,10-23.1,22.3c0,0.8,0,1.5,0.1,2.2c-10.4,4.2-17.2,14.2-17.3,25.5
			c0,15.3,12.8,27.7,28.7,27.7c1.7,0,3.3-0.1,5-0.4c-0.1,0.9-0.1,1.9-0.1,2.8c0,17.2,14.4,31.1,32.2,31.1c6.5,0,12.9-1.9,18.3-5.5
			c4.4,3.6,9.9,5.6,15.6,5.6c13.3,0,24-10.4,24-23.2c0-0.6,0-1.1-0.1-1.6h0.1c14.2,0,25.7-11.1,25.7-24.9
			C868.1,763.8,862.7,755.2,854.2,751.1z"/>
	</g>
	<path id="_x37_9f8c247-f548-4c1c-8f49-a16aaa215201" class="st9" d="M851.6,751.1c5.1-5.4,8-12.6,8-20.1
		c-0.1-10.5-5.6-20.2-14.6-25.5c2-2.9,3.1-6.3,3.1-9.8c0-9.9-8.3-17.9-18.5-17.9c-8.1-0.1-15.3,5.1-17.7,12.9
		c-5.1-8.1-14-12.9-23.6-12.9c-15.2,0-27.5,11.9-27.5,26.6c0,3.1,0.6,6.2,1.7,9.2c-0.6,0-1.1-0.1-1.7-0.1
		c-12.2,0-22.1,9.6-22.1,21.3c0,0.7,0,1.4,0.1,2.1c-10,4-16.5,13.6-16.6,24.4c0,14.6,12.3,26.5,27.4,26.5c1.6,0,3.2-0.1,4.7-0.4
		c-0.1,0.9-0.1,1.8-0.1,2.7c0,16.4,13.8,29.8,30.8,29.8c6.2,0,12.3-1.8,17.5-5.3c4.2,3.4,9.5,5.3,14.9,5.3c12.7,0,23-10,23-22.2
		c0-0.5,0-1.1-0.1-1.6h0.1c13.6,0,24.6-10.7,24.6-23.8C864.9,763.2,859.7,755,851.6,751.1z"/>
	<line id="_x38_6901f0c-b7b5-4ba8-942f-e54f281a8bcd" class="st10" x1="799.4" y1="719.9" x2="799.4" y2="885.3"/>
	
		<linearGradient id="SVGID_27_" gradientUnits="userSpaceOnUse" x1="503.5678" y1="56.6919" x2="503.5678" y2="222.0688" gradientTransform="matrix(-1 0 0 -1 1303.08 942)">
		<stop  offset="0" style="stop-color:#808080;stop-opacity:0.25"/>
		<stop  offset="0.54" style="stop-color:#808080;stop-opacity:0.12"/>
		<stop  offset="1" style="stop-color:#808080;stop-opacity:0.1"/>
	</linearGradient>
	<rect x="795" y="719.9" class="st39" width="9" height="165.4"/>
	<rect x="796.9" y="719.9" class="st7" width="5" height="165.4"/>
	<line id="_x36_3650f42-d3c3-489e-a647-f3904e46b7bd" class="st10" x1="798.9" y1="769.5" x2="828.4" y2="739.3"/>
	<rect x="792.5" y="751.9" transform="matrix(-0.7 0.7141 -0.7141 -0.7 1921.9077 701.5026)" class="st7" width="42.2" height="5"/>
	<line id="_x32_5077b7e-584e-4c29-8c8c-a60ca5d6c1ae" class="st10" x1="798.9" y1="795.3" x2="768.2" y2="773.9"/>
	
		<rect x="781.1" y="765.9" transform="matrix(-0.5744 0.8186 -0.8186 -0.5744 1875.8956 593.967)" class="st7" width="5" height="37.4"/>
</g>
</svg>
