<?xml version="1.0" encoding="utf-8"?>
<!-- Generator: Adobe Illustrator 19.0.0, SVG Export Plug-In . SVG Version: 6.00 Build 0)  -->
<svg version="1.1" id="图层_1" xmlns="http://www.w3.org/2000/svg" xmlns:xlink="http://www.w3.org/1999/xlink" x="0px" y="0px"
	 viewBox="-917 917.7 1000 1000" style="enable-background:new -917 917.7 1000 1000;" xml:space="preserve">
<style type="text/css">
	.st0{opacity:0.1;fill:#6C63FF;enable-background:new    ;}
	.st1{fill:#6C63FF;}
	.st2{fill:none;stroke:#535461;stroke-miterlimit:10;}
	.st3{fill:none;stroke:#535461;stroke-width:2;stroke-miterlimit:10;}
	.st4{opacity:0.25;enable-background:new    ;}
	.st5{opacity:5.000000e-02;}
	.st6{fill:url(#SVGID_1_);}
	.st7{fill:url(#SVGID_2_);}
	.st8{fill:url(#SVGID_3_);}
	.st9{fill:url(#SVGID_4_);}
	.st10{fill:url(#SVGID_5_);}
	.st11{fill:#EF91A3;}
	.st12{opacity:0.1;enable-background:new    ;}
	.st13{fill:#5D526E;}
	.st14{fill:#DFECFB;}
	.st15{fill:#572142;}
	.st16{fill:#FFC1CD;}
	.st17{fill:#5F5470;}
	.st18{opacity:5.000000e-02;enable-background:new    ;}
	.st19{fill:#FF808C;}
	.st20{fill:#B46D86;}
</style>
<path id="_x23_background" class="st0" d="M-747.5,1271.3c-0.9-32.3,4.3-70.2,29.1-85.5c12.3-7.6,27-7.7,40.3-12.6
	c29.8-11.1,48.4-44,66.4-73.4s41.7-59.9,73-61.7c43.1-2.4,72.5,49.4,112.2,68.7c75.4,36.6,163.8-50.9,240.3-17.3
	c11.1,4.9,21.7,12.6,27.9,24.2c6.1,11.4,7.5,25.5,13.5,37c18.9,36.4,69.6,28.2,96.5,57.3c9.3,10,14.8,23.5,20.2,36.8l18.7,46
	c3.5,8.6,7.1,17.5,7.5,27.1c0.7,16.7-8.4,32.7-6.7,49.3c2.5,26,28.8,40.2,37.1,64.5c3.9,11.5,3.5,24.2,2.6,36.5
	c-2,25.6-5.9,50.9-11.9,75.9c-6.1,25.2-15.2,51.3-33.8,66.4c-13.1,10.6-29.5,14.5-45.3,17.7c-90.6,18.4-182.6,24.5-274.5,29.3
	c-80.2,4.2-162.2,7.1-239-19.7c-34.4-12-69-31.5-88.9-65.8c-13.6-23.6-16.2-49.2-22.3-75.7c-4.7-20.5-18.8-36.4-26.7-55.6
	C-733.6,1386.8-745.8,1329.5-747.5,1271.3z"/>
<g id="_x23_wild_x28_have_x5B_plant_x2C_beach_x2C_sun_x5D__x29_">
	<path class="st1" d="M-761.5,1516.7c33.1-2.6,66.4,0.6,98.4,9.5c12.3,3.4,24.7,7.8,37.5,7.4c15.7-0.5,30.2-7.9,44.7-14
		c22.8-9.6,47.5-16.4,72.2-14.2c45.4,4.1,85.3,37.9,130.9,36.4c39-1.3,74.1-28.7,113.1-27.9c26.5,0.5,51.1,14.1,77.3,17.6
		c33.7,4.5,67.4-7.9,101.3-9.4c29.5-1.3,58.7,5.6,84.5,19.8c18.7,10.3,37.1,30.5,29.8,50.6c-2.2,6.1-6.8,11.6-7.1,18.1
		c-0.6,14.5,18.1,20.6,27.4,31.7c11.5,13.6,6.8,36.1-6.7,47.8c-13.5,11.7-33,14.1-50.6,11.2c-17.6-2.9-34-10.5-50.7-16.8
		c-31.7-12.1-64.8-20-98.6-23.4c-23.3-2.4-47.1-2.7-70.1,1.7c-17.2,3.3-33.9,9.1-51.2,12.3c-86.2,15.9-171.3-34.4-258.9-34
		c-24.6,0.1-49,4.2-73.4,7.1c-75.8,9-152.4,6.5-228.7,4c-7.7-0.3-16.1-0.7-22-5.7c-11.1-9.3-6.8-27.2,0-39.9
		c11.2-20.7,26.4-38.6,37.8-59.1C-812,1525.2-785.2,1518.6-761.5,1516.7z"/>
	<path class="st1" d="M-784.5,1607.1c33.1-2.6,66.4,0.6,98.4,9.5c12.3,3.4,24.7,7.8,37.5,7.4c15.7-0.5,30.2-7.9,44.7-14
		c22.8-9.6,47.5-16.4,72.2-14.2c45.4,4.1,85.3,37.9,130.9,36.4c39-1.3,74.1-28.7,113.1-27.9c26.5,0.5,51.1,14.1,77.3,17.6
		c33.7,4.5,67.4-7.9,101.3-9.4c29.5-1.3,58.7,5.6,84.5,19.8c18.7,10.3,37.1,30.5,29.8,50.6c-2.2,6.1-6.8,11.6-7.1,18.1
		c-0.6,14.5,18.1,20.6,27.4,31.7c11.5,13.6,6.8,36.1-6.7,47.8c-13.5,11.7-33,14.1-50.6,11.2c-17.6-2.9-34-10.5-50.7-16.8
		c-31.7-12.1-64.8-20-98.6-23.4c-23.3-2.4-47.1-2.7-70.1,1.7c-17.2,3.3-33.9,9.1-51.2,12.3c-86.2,15.9-171.3-34.4-258.9-34
		c-24.6,0.1-49,4.2-73.4,7.1c-75.8,9-152.4,6.5-228.7,4c-7.7-0.3-16.1-0.7-22-5.7c-11.1-9.3-6.8-27.2,0-39.9
		c11.2-20.7,26.4-38.6,37.8-59.1C-835.1,1615.6-808.2,1609-784.5,1607.1z"/>
	<circle class="st0" cx="-218.9" cy="1178.8" r="58.8"/>
	<path class="st1" d="M-196,1444.5c0,0-57.7,34.8,48.6,88.4c0,0,23.4-43.5-2.5-78.9c-10.4-14.3-29.8-18.6-45.3-9.9L-196,1444.5z"/>
	<path class="st2" d="M-195.4,1443.8c0,0,49.4,37.8,48,89.1"/>
	<path class="st3" d="M-150.6,1532.6c0,0-18.1-61.4,3.4-106.5c9.1-18.9,11.9-40.2,7.8-60.8c-2-9.8-4.9-19.3-8.6-28.5"/>
	<path class="st1" d="M-134.6,1308.3c0,7.5-13.6,29.3-13.6,29.3s-13.6-21.8-13.6-29.3c-0.5-7.5,5.2-14,12.7-14.5s14,5.2,14.5,12.7
		C-134.7,1307.1-134.7,1307.7-134.6,1308.3L-134.6,1308.3z"/>
	<path class="st1" d="M-112.1,1349.9c-4.1,6.3-27.4,17.2-27.4,17.2s0.4-25.7,4.5-32c4.5-6,13-7.3,19.1-2.8
		C-110.4,1336.4-108.8,1343.9-112.1,1349.9L-112.1,1349.9z"/>
	<path class="st1" d="M-113.1,1421.1c-6.7,3.4-32.3,1-32.3,1s13.3-22,20-25.4c6.9-2.9,14.9,0.3,17.9,7.2
		C-104.8,1410.3-107.2,1417.6-113.1,1421.1z"/>
	<path class="st1" d="M-126,1474.8c-6,4.5-31.7,6.5-31.7,6.5s9.4-23.9,15.5-28.4c6.3-4.1,14.8-2.3,18.9,4
		C-119.6,1462.7-120.7,1470.3-126,1474.8L-126,1474.8z"/>
	<path class="st1" d="M-168.1,1368.6c5.4,5.2,30.5,10.7,30.5,10.7s-6.2-25-11.5-30.2c-5-5.6-13.7-6-19.3-1s-6,13.7-1,19.3
		C-169,1367.8-168.5,1368.2-168.1,1368.6z"/>
	<path class="st1" d="M-182.3,1431.6c6.7,3.4,32.3,1,32.3,1s-13.3-22-20.1-25.4c-6.5-3.8-14.9-1.7-18.7,4.8s-1.7,14.9,4.8,18.7
		C-183.4,1431.1-182.9,1431.3-182.3,1431.6L-182.3,1431.6z"/>
	<path class="st1" d="M-187.8,1494.7c6,4.5,31.7,6.5,31.7,6.5s-9.4-23.9-15.5-28.4c-5.8-4.9-14.4-4.1-19.2,1.6
		c-4.9,5.8-4.1,14.4,1.6,19.2C-188.7,1494-188.3,1494.3-187.8,1494.7L-187.8,1494.7z"/>
	<path class="st4" d="M-134.6,1308.3c0,7.5-13.6,29.3-13.6,29.3s-13.6-21.8-13.6-29.3c-0.5-7.5,5.2-14,12.7-14.5s14,5.2,14.5,12.7
		C-134.7,1307.1-134.7,1307.7-134.6,1308.3L-134.6,1308.3z"/>
	<path class="st4" d="M-112.1,1349.9c-4.1,6.3-27.4,17.2-27.4,17.2s0.4-25.7,4.5-32c4.5-6,13-7.3,19.1-2.8
		C-110.4,1336.4-108.8,1343.9-112.1,1349.9L-112.1,1349.9z"/>
	<path class="st4" d="M-113.1,1421.1c-6.7,3.4-32.3,1-32.3,1s13.3-22,20-25.4c6.9-2.9,14.9,0.3,17.9,7.2
		C-104.8,1410.3-107.2,1417.6-113.1,1421.1z"/>
	<path class="st4" d="M-126,1474.8c-6,4.5-31.7,6.5-31.7,6.5s9.4-23.9,15.5-28.4c6.3-4.1,14.8-2.3,18.9,4
		C-119.6,1462.7-120.7,1470.3-126,1474.8L-126,1474.8z"/>
	<path class="st4" d="M-168.1,1368.6c5.4,5.2,30.5,10.7,30.5,10.7s-6.2-25-11.5-30.2c-5-5.6-13.7-6-19.3-1s-6,13.7-1,19.3
		C-169,1367.8-168.5,1368.2-168.1,1368.6z"/>
	<path class="st4" d="M-182.3,1431.6c6.7,3.4,32.3,1,32.3,1s-13.3-22-20.1-25.4c-6.5-3.8-14.9-1.7-18.7,4.8s-1.7,14.9,4.8,18.7
		C-183.4,1431.1-182.9,1431.3-182.3,1431.6L-182.3,1431.6z"/>
	<path class="st4" d="M-187.8,1494.7c6,4.5,31.7,6.5,31.7,6.5s-9.4-23.9-15.5-28.4c-5.8-4.9-14.4-4.1-19.2,1.6
		c-4.9,5.8-4.1,14.4,1.6,19.2C-188.7,1494-188.3,1494.3-187.8,1494.7L-187.8,1494.7z"/>
	<path class="st3" d="M-98.6,1553.4c0,0-18.1-61.4,3.4-106.5c9.1-18.9,11.9-40.2,7.8-60.8c-2-9.8-4.9-19.3-8.6-28.5"/>
	<path class="st1" d="M-82.6,1329c0,7.5-13.6,29.3-13.6,29.3s-13.6-21.8-13.6-29.3c0.5-7.5,7-13.2,14.5-12.7
		C-88.5,1316.8-83.1,1322.2-82.6,1329L-82.6,1329z"/>
	<path class="st1" d="M-60.1,1370.7c-4.1,6.3-27.4,17.2-27.4,17.2s0.4-25.7,4.5-32c3.7-6.6,12-8.9,18.6-5.3c6.6,3.7,8.9,12,5.3,18.6
		C-59.4,1369.7-59.7,1370.2-60.1,1370.7L-60.1,1370.7z"/>
	<path class="st1" d="M-61.1,1441.9c-6.7,3.4-32.3,1-32.3,1s13.3-22,20.1-25.4c6.5-3.8,14.9-1.7,18.7,4.8s1.7,14.9-4.8,18.7
		C-59.9,1441.3-60.5,1441.6-61.1,1441.9z"/>
	<path class="st1" d="M-73.9,1495.6c-6,4.5-31.7,6.5-31.7,6.5s9.4-23.9,15.5-28.4c6.3-4.1,14.8-2.3,18.9,4
		C-67.5,1483.5-68.7,1491.1-73.9,1495.6L-73.9,1495.6z"/>
	<path class="st1" d="M-116,1389.4c5.4,5.2,30.5,10.7,30.5,10.7s-6.2-25-11.5-30.2c-5-5.6-13.7-6-19.3-1s-6,13.7-1,19.3
		C-116.9,1388.5-116.5,1389-116,1389.4z"/>
	<path class="st1" d="M-130.3,1452.3c6.7,3.4,32.3,1,32.3,1s-13.3-22-20.1-25.4c-6.9-2.9-14.9,0.3-17.9,7.2
		C-138.6,1441.5-136.2,1448.9-130.3,1452.3L-130.3,1452.3z"/>
	<path class="st1" d="M-135.7,1515.4c6,4.5,31.7,6.5,31.7,6.5s-9.4-23.9-15.5-28.4c-5.8-4.9-14.4-4.1-19.2,1.6
		c-4.9,5.8-4.1,14.4,1.6,19.2C-136.7,1514.8-136.2,1515.1-135.7,1515.4L-135.7,1515.4z"/>
	<path class="st0" d="M-458.6,1148.6h-5c1.9,0,3.5-1.6,3.5-3.5c0-1.9-1.6-3.5-3.5-3.5l0,0h-40.8c-1.9,0-3.5,1.6-3.5,3.5
		c0,1.9,1.6,3.5,3.5,3.5l0,0h5c-1.9,0-3.5,1.6-3.5,3.5c0,1.9,1.6,3.5,3.5,3.5l0,0h-7.1c-1.9,0-3.5,1.6-3.5,3.5
		c0,1.9,1.6,3.5,3.5,3.5l0,0h40.8c1.9,0,3.5-1.6,3.5-3.5c0-1.9-1.6-3.5-3.5-3.5l0,0h7.1c1.9,0,3.5-1.6,3.5-3.5
		C-455.1,1150.2-456.6,1148.6-458.6,1148.6z"/>
	<path class="st0" d="M-145.7,1220.2h-5c1.9,0,3.5-1.6,3.5-3.5s-1.6-3.5-3.5-3.5l0,0h-40.8c-1.9,0-3.5,1.6-3.5,3.5s1.6,3.5,3.5,3.5
		l0,0h5c-1.9,0-3.5,1.6-3.5,3.5s1.6,3.5,3.5,3.5l0,0h-7.1c-1.9,0-3.5,1.6-3.5,3.5s1.6,3.5,3.5,3.5l0,0h40.8c1.9,0,3.5-1.6,3.5-3.5
		s-1.6-3.5-3.5-3.5l0,0h7.1c1.9,0,3.5-1.6,3.5-3.5C-142.1,1221.8-143.7,1220.2-145.7,1220.2z"/>
	<path class="st0" d="M-411.7,1241.5h-5c1.9,0,3.5-1.6,3.5-3.5c0-1.9-1.6-3.5-3.5-3.5l0,0h-40.8c-1.9,0-3.5,1.6-3.5,3.5
		c0,1.9,1.6,3.5,3.5,3.5l0,0h5c-1.9,0-3.5,1.6-3.5,3.5c0,1.9,1.6,3.5,3.5,3.5l0,0h-7.1c-1.9,0-3.5,1.6-3.5,3.5
		c0,1.9,1.6,3.5,3.5,3.5l0,0h40.8c1.9,0,3.5-1.6,3.5-3.5c0-1.9-1.6-3.5-3.5-3.5l0,0h7.1c1.9,0,3.5-1.6,3.5-3.5
		C-408.2,1243.1-409.8,1241.5-411.7,1241.5z"/>
</g>
<g id="_x23_group_x28_have_x5B_man_x28_sit_x2C_hold_x29__x2C_woman_x28_lie_x2C_talk_x29__x5D__x29_">
	<g class="st5">
		
			<linearGradient id="SVGID_1_" gradientUnits="userSpaceOnUse" x1="-574.407" y1="3036.98" x2="-574.407" y2="3035.249" gradientTransform="matrix(1 0 0 1 -40.58 -1840.1299)">
			<stop  offset="0" style="stop-color:#808080;stop-opacity:0.25"/>
			<stop  offset="0.54" style="stop-color:#808080;stop-opacity:0.12"/>
			<stop  offset="1" style="stop-color:#808080;stop-opacity:0.1"/>
		</linearGradient>
		<path class="st6" d="M-615.2,1196.9c0.3-0.5,0.5-1.1,0.4-1.7C-615,1195.8-615.1,1196.3-615.2,1196.9z"/>
	</g>
	<g class="st5">
		
			<linearGradient id="SVGID_2_" gradientUnits="userSpaceOnUse" x1="-574.407" y1="3036.1096" x2="-574.407" y2="3034.3701" gradientTransform="matrix(1 0 0 1 -40.58 -1840.1299)">
			<stop  offset="0" style="stop-color:#808080;stop-opacity:0.25"/>
			<stop  offset="0.54" style="stop-color:#808080;stop-opacity:0.12"/>
			<stop  offset="1" style="stop-color:#808080;stop-opacity:0.1"/>
		</linearGradient>
		<path class="st7" d="M-615.2,1196c0.3-0.5,0.5-1.1,0.4-1.7C-615,1194.9-615.1,1195.5-615.2,1196z"/>
	</g>
	
		<linearGradient id="SVGID_3_" gradientUnits="userSpaceOnUse" x1="-518.4192" y1="3486.8708" x2="-518.4192" y2="3018.8801" gradientTransform="matrix(1 0 0 1 -40.58 -1840.1299)">
		<stop  offset="0" style="stop-color:#808080;stop-opacity:0.25"/>
		<stop  offset="0.54" style="stop-color:#808080;stop-opacity:0.12"/>
		<stop  offset="1" style="stop-color:#808080;stop-opacity:0.1"/>
	</linearGradient>
	<path class="st8" d="M-233,1598.3c-2,1-18.2-1.4-31.9-3.6c7.4-1.7,12.8-3.9,15.3-6.8c14.7-16.9-50.1-7.1-70.6-3.7l-16.5-3.3
		l-18.5-4.3c-12.7-17.9-32.1-54.2-41.4-72.2c3.1-0.7,5-1,5-1c-0.1-0.6-0.3-1.1-0.5-1.7l0.5-0.1c-17.4-66.2-47-56.6-47-56.6
		c-3.5,0-8.7,1.5-14.9,4c-2-7-4.6-13.9-7.7-20.5l-0.7-1.6c2.1,0.4,3.3,0.6,3.3,0.6s-0.2-0.5-0.5-1.3l0.3,0.1l0.7,0.1h0.2l0.3,0.1
		l0.8,0.1c0,0-23.9-64.9-74.7-103.9c-13.5-10.5-29.6-17-46.5-18.8c-0.9-0.1-1.8-0.2-2.6-0.2l-0.8-0.1c-0.7,0-1.3-0.1-1.9-0.1h-1.4
		l0,0c-11.5-0.2-20,2.7-29.7,7.7c-1.8,0.9-3.6,1.8-5.5,2.8c-1.5-0.2-2.9-0.4-4.3-0.8c-0.8-0.2-1.5-0.4-2.3-0.6
		c23.9-10.9,34.9-38.7,24.9-63c3.4-6.1,8.7-10.9,15.1-13.8c0.8-0.3,1.5-0.7,2.1-1.4c0.5-0.8,0.7-1.7,0.6-2.6v-0.1c0-0.2,0-0.3,0-0.5
		c0-0.2,0-0.2,0-0.3v-0.1c0.1-8.4-6-15.7-14.4-16.9c-2.4-0.4-4.8-1-7-2c-5.4-2.4-9.8-7.9-10.1-13.6c0-0.5,0.1-1,0.1-1.5l-0.1,0.2
		c0-0.4,0.1-0.7,0.1-1.1c-1.2,2.1-4.8,2.8-6.9,1.2c-1.9-1.4-2.7-3.8-2.7-6.2c0-0.7,0.1-1.3,0.2-1.9c0.4-1.8,0.6-3.6,0.7-5.5
		c0.1-1.9-0.3-3.7-1.9-4.7c-3.3,4.1-8.7,6-14,6.5c-5.3,0.4-10.5-0.5-15.7-1.2c-12.9-1.7-27.4-1.5-37.2,7.2
		c-6.3,5.6-9.5,13.9-12.5,21.8c-4.2,11.2-8.4,23.4-8.2,35.1c-0.1,5.5,0.9,10.9,3,15.9c4.1,9.4,12.3,16.8,14.9,26.7
		c0.6,2.3,0.9,4.7,2,6.8c2.3,4.2,7.7,5.9,12.4,5.2c1.8,1.8,3.8,3.5,5.8,4.9c0,0.6-0.1,1.1-0.1,1.6c-0.3,3.4-0.8,6.8-1.4,10.1
		c-0.4-0.6-0.9-0.2-2.5-0.2h-0.5h-0.2l-0.6,0.1l0,0l-0.7,0.1h-0.1l-0.8,0.2l0,0l-0.9,0.2h-0.1l-1,0.3l0,0l-1.1,0.3h-0.1
		c-3,0.9-6.7,2.2-10.6,3.7c-1.5-9.7-6-18.6-12.8-25.6c1.4-1.9,2.5-3.9,3.3-6.1c1.3-3.5,0-6-2.3-8.1c-1.8-2-4.5-3.6-6.9-5.3
		c-10.7-7.9-22.8-13.6-35.7-16.8c-4.2-1-8.5-1.8-12.7-1.3c-4.1,0.4-7.9,2-11.6,3.7c-5.9,2.7-11.5,6-16.7,9.7
		c-3.6,2.5-7,5.2-11.2,6.7c-6.2,2.1-13.3,1.1-19,4.3c-7.9,4.5-9.7,15.3-8.5,24.3c1.2,9.1,4.4,18.1,3,27.1
		c-2.1,13.5-13.8,23.1-24.6,31.5c-3.4,2.7-7,5.8-7.5,10c-0.3,2.7,0.7,5.3,1.5,7.9c4.5,14.1,4.2,29.3-0.8,43.2
		c-5.1,13.9-15.2,25.4-28.2,32.4c-4.9,2.6-10.9,5.2-12.1,10.7c-0.8,3.7,1,6.9,3.7,9.5c2.8,2.7,6.1,4.8,9.8,6.1
		c5.4,2,11,3.5,16.7,4.4c5,0.8,10.4,1.1,15-1.1c5.3-2.6,8.6-8,11.4-13.2c7.2-13.3,15.5-22.1,22.3-32.8c0.9,3.9,1.6,6.6,1.7,6.8
		c-5.7,5.1-8.3,13.5-5.2,27c12.2,53.1,27.9,66.2,27.9,66.2c0.4-2.9,1.5-5.6,3.2-8l0.7,0.9l0,0c7.4,9,16,18.4,23.1,23.7
		c8.1,6,15.5,13,21.9,20.8c1.5,1.9,1.2,4.6-0.7,6.1c-0.3,0.2-0.5,0.4-0.8,0.5c-11.2,5.4-35.6,19.4-6.5,25.6
		c29.1,6.2,52.9-10.2,61.2-17.2c1.9-1.5,2.1-4.2,0.6-6.1l-26.5-33.1l-3.3-4c1.8,1.2,3.5,2.6,5.4,3.9l-4.8-7.7l15,1.6
		c0.4,0.9,0.9,1.8,1.3,2.7c3,6.1,6.1,10.9,9.4,13.6c-0.3,6.2,1.2,12.3,4.3,17.6c11.9,21.7,77.8,21.5,96.2,21.1
		c1.7,0.3,3.4,0.4,5.2,0.5c2.9,0.1,5.8-0.1,8.6-0.6l0.6-0.1c3.6-0.5,7-1.9,9.9-4.1l26.2-5.2l0.6,0.1c14.8,3,42.9,7.9,59.1,4.8
		c15.5-3,24.4,2.2,28.6,5.8c-0.4,1.6-1,3.2-1.6,4.7h0.2c-1,2.3-4.8,13.3,10.7,25.7c10.1,8.1,79.1,10.2,102.8,5.2
		c17.1-3.6-7.2-13.9-10.5-13.9c-7.4,0-30.5-15.6-32.9-17.3c-0.4-0.5-1.3-1.7-2.6-3.4c16,2.1,44.3,5.5,49.8,3.7
		c7.8-2.6,42.6,1.7,42.6,1.7s47,10.5,69.7,3.5S-229.5,1596.6-233,1598.3z"/>
	<g class="st5">
		
			<linearGradient id="SVGID_4_" gradientUnits="userSpaceOnUse" x1="-508.6396" y1="3270.8066" x2="-508.6396" y2="3227.7014" gradientTransform="matrix(1 0 0 1 -40.58 -1840.1299)">
			<stop  offset="0" style="stop-color:#808080;stop-opacity:0.25"/>
			<stop  offset="0.54" style="stop-color:#808080;stop-opacity:0.12"/>
			<stop  offset="1" style="stop-color:#808080;stop-opacity:0.1"/>
		</linearGradient>
		<path class="st9" d="M-540.4,1414.6c-2.7,1.2-9.3,7.3-17.7,16.2c-2.7-17.7-4.4-33.7-3.3-40.3c0.1-1,0.4-1.9,1-2.8
			c5.1-0.3,15.4,12.4,23.7,23.9C-539.1,1413.3-540.4,1414.6-540.4,1414.6z"/>
	</g>
	<g class="st5">
		
			<linearGradient id="SVGID_5_" gradientUnits="userSpaceOnUse" x1="-584.8" y1="3136.2" x2="-584.8" y2="3136.2" gradientTransform="matrix(1 0 0 1 0 -1832.6499)">
			<stop  offset="0" style="stop-color:#808080;stop-opacity:0.25"/>
			<stop  offset="0.54" style="stop-color:#808080;stop-opacity:0.12"/>
			<stop  offset="1" style="stop-color:#808080;stop-opacity:0.1"/>
		</linearGradient>
		<path class="st10" d="M-584.8,1303.6L-584.8,1303.6L-584.8,1303.6z"/>
	</g>
	<path class="st11" d="M-405.3,1492.2c0,0,44.3,87.8,55.4,91.2c11.1,3.4,18.8-1.7,18.8-1.7s92.1-17.1,75,2.6
		c-17.1,19.6-166.3,7.7-166.3,7.7l-37.5-84.4L-405.3,1492.2z"/>
	<path class="st12" d="M-532.3,1493.9c0,0,71.6-47.7,91.2-47.7c0,0,29-9.4,46,55.4c0,0-58.8,10.2-58,38.4l-11.1-23.9l-47.7,52.9
		l-58-39.2L-532.3,1493.9z"/>
	<path class="st13" d="M-532.3,1492.2c0,0,71.6-47.7,91.2-47.7c0,0,29-9.4,46,55.4c0,0-58.8,10.2-58,38.4l-11.1-23.9l-47.7,52.9
		l-58-39.2L-532.3,1492.2z"/>
	<path class="st11" d="M-453.9,1468.3c-4.3,20.5-26.4,23.9-26.4,23.9l-31.5-19.6c0,0-4.5-29.4-8.2-47.3c-1.4-6.9-2.8-12.1-3.7-13.3
		c-3.4-4.3,50.3-3.4,50.3-3.4c3.8,6.4,7.2,12.9,10.3,19.7C-457.3,1441.1-451.6,1457.3-453.9,1468.3z"/>
	<path class="st11" d="M-590.3,1314l-17.9,85.3l-43.5-11.1c0,0-40.1-31.5-28.1-51.2c3.9-6.4,5.9-15.7,6.8-25.4
		c1.9-19.9-0.9-41.1-0.9-41.1s47.7-12.8,38.4,22.2c-3.9,14.4,3.1,20.5,12.6,22.8C-609.2,1318.7-590.3,1314-590.3,1314z"/>
	<path class="st12" d="M-622.9,1315.4c-6.8,3.5-14.3,5.4-22,5.4c-10.5,0-20.7-6.6-28.6-12.4c1.1-12.6,1-25.3-0.4-37.9
		c0,0,47.7-12.8,38.4,22.2C-639.3,1307-632.4,1313.1-622.9,1315.4z"/>
	<circle class="st11" cx="-644.9" cy="1271.3" r="47.7"/>
	<path class="st12" d="M-648.4,1370.9l13,18.1l7.4-26.7c2.8-10.7,4.3-21.7,4.5-32.7c0.1-4.7,1.6-9.2,4.4-13
		c13.3-7.2,23.1-11.1,39.9-9.4c16.6,1.8,32.4,8.2,45.5,18.4c49.8,38.2,73.2,101.8,73.2,101.8s-68.2-13.6-64.8,1.7
		c0,0-29.8-47.7-36.7-40.1c-6.8,7.7,14.5,109.1,14.5,109.1l-139.8,10.2l-36.7-97.2l1.7-72.5c0,0,36.2-16.6,43.9-16.6
		c2.7,0,2.3-0.9,3.4,3.4C-670.7,1342.2-658.5,1356.8-648.4,1370.9z"/>
	<path class="st12" d="M-463.2,1428.3c-11.9-2.1-45.5-7.6-56.9-3c-1.4-6.9-2.8-12.1-3.7-13.3c-3.4-4.3,50.3-3.4,50.3-3.4
		C-469.7,1415-466.3,1421.5-463.2,1428.3z"/>
	<path class="st14" d="M-646.7,1370.1l13,18.1l7.4-26.7c2.8-10.7,4.3-21.7,4.5-32.7c0.1-4.7,1.6-9.2,4.4-13
		c13.3-7.2,23.1-11.1,39.9-9.4c16.6,1.8,32.4,8.2,45.5,18.4c49.8,38.2,73.2,101.8,73.2,101.8s-68.2-13.6-64.8,1.7
		c0,0-29.8-47.7-36.7-40.1c-6.9,7.6,14.5,109.1,14.5,109.1l-139.8,10.2l-36.7-97.2l1.7-72.5c0,0,36.2-16.6,43.9-16.6
		c2.7,0,2.3-0.9,3.4,3.4C-669,1341.3-656.8,1356-646.7,1370.1z"/>
	<path class="st12" d="M-678,1305c-4.8,0.9-10.4-0.8-12.7-5c-1.1-2-1.4-4.4-2-6.6c-2.5-9.7-10.6-17-14.6-26.2
		c-6.7-15.5-0.9-33.3,5.1-49.1c2.9-7.8,6-15.9,12.2-21.4c9.5-8.5,23.7-8.7,36.4-7c5.1,0.7,10.2,1.6,15.4,1.2s10.4-2.3,13.6-6.3
		c2.7,1.8,1.7,5.9,1.2,9.1c-0.5,3.2-0.1,6.9,2.5,8.9c2.6,2,7.4,0.3,7.1-2.9c-2.3,6.8,2.8,14.4,9.4,17.4c2.2,1,4.5,1.6,6.8,2
		c8.2,1.2,14.2,8.2,14.1,16.5v0.1c0.1,0.9-0.1,1.8-0.6,2.6c-0.5,0.6-1.2,1.1-2,1.3c-6.6,3-12,8.2-15.3,14.7
		c-1.8,3.5-3.1,7.5-6.4,9.6c-4,2.6-9.2,1.3-14,1.7c-8,0.8-14.8,6.3-17.1,14.1c-1.1,3.9-1,8.3-3.4,11.8c-1.1,1.6-2.8,2.7-4.7,2.9
		c-3.7,0.4-5.4-2.9-8-4.6c-6.2-4-10.2,1.3-12.2,6.3C-669.3,1301.4-670.8,1303.7-678,1305z"/>
	<path class="st15" d="M-678,1304.2c-4.8,0.9-10.4-0.8-12.7-5c-1.1-2-1.4-4.4-2-6.6c-2.5-9.7-10.6-17-14.6-26.2
		c-6.7-15.5-0.9-33.3,5.1-49.1c2.9-7.8,6-15.9,12.2-21.4c9.5-8.5,23.7-8.7,36.4-7c5.1,0.7,10.2,1.6,15.4,1.2
		c5.2-0.4,10.4-2.3,13.6-6.3c2.7,1.8,1.7,5.9,1.2,9.1c-0.5,3.2-0.1,6.9,2.5,8.9c2.6,2,7.4,0.3,7.1-2.9c-2.3,6.8,2.8,14.4,9.4,17.4
		c2.2,1,4.5,1.6,6.8,2c8.2,1.2,14.2,8.2,14.1,16.5v0.1c0.1,0.9-0.1,1.8-0.6,2.6c-0.5,0.6-1.2,1.1-2,1.3c-6.6,3-12,8.2-15.3,14.7
		c-1.8,3.5-3.1,7.5-6.4,9.6c-4,2.6-9.2,1.3-14,1.7c-8,0.8-14.8,6.3-17.1,14.1c-1.1,3.9-1,8.3-3.4,11.8c-1.1,1.6-2.8,2.7-4.7,2.9
		c-3.7,0.4-5.4-2.9-8-4.6c-6.2-4-10.2,1.3-12.2,6.3C-669.3,1300.5-670.8,1302.9-678,1304.2z"/>
	<g class="st5">
		<path d="M-542.4,1323.9c46,35.4,69.5,92.4,72.8,100.7c6.4,1,10.6,1.9,10.6,1.9s-23.4-63.5-73.2-101.8
			c-13.2-10.3-28.9-16.6-45.5-18.5c-2.3-0.2-4.5-0.4-6.6-0.4C-569,1308.2-554.6,1314.4-542.4,1323.9z"/>
		<path d="M-683.6,1323.7c4.4,16.7,16.6,31.4,26.7,45.5l13,18.1l2.7-9.7l-5.4-7.5c-10.1-14.1-22.3-28.7-26.7-45.5
			c-1.1-4.3-0.7-3.4-3.4-3.4c-2.4,0.2-4.8,0.8-7.1,1.6L-683.6,1323.7z"/>
		<path d="M-528.3,1421.2c2.8,4.2,4.5,7,4.5,7c-1.5-6.7,10.7-7.9,24.8-7.1C-510.1,1419.9-521.6,1419.4-528.3,1421.2z"/>
		<path d="M-561.4,1390.9c-4-3.8-7.4-5.6-9.2-3.6c-6.8,7.7,14.5,109.1,14.5,109.1l-130.2,9.5l0.6,1.6l139.8-10.2
			C-545.9,1497.3-564.5,1408.9-561.4,1390.9z"/>
	</g>
	<path class="st11" d="M-690.6,1593.9c-8.2,6.8-31.3,22.9-59.9,16.8c-28.6-6.1-4.6-19.8,6.3-25.1c2.1-1,3-3.6,2-5.7
		c-0.1-0.3-0.3-0.6-0.5-0.8c-6.3-7.7-13.5-14.5-21.4-20.4c-6.9-5.1-15.3-14.3-22.6-23.2l0,0c-3.8-4.6-7.3-9.1-10.2-12.9
		c-1.4-1.9-1.1-4.5,0.8-6c1.1-0.8,2.5-1.1,3.8-0.7l55.9,15.2c0.9,0.2,1.7,0.7,2.2,1.5l18.4,23l26,32.5
		C-688.6,1589.7-688.9,1592.4-690.6,1593.9z"/>
	<path class="st12" d="M-716,1555.4c-46.6-34-64.3-27.9-70.8-19.9c-3.8-4.6-7.3-9.1-10.2-12.9c-1.4-1.9-1.1-4.5,0.8-6
		c1.1-0.8,2.5-1.1,3.8-0.7l55.9,15.2c0.9,0.2,1.7,0.7,2.2,1.5L-716,1555.4z"/>
	<path class="st13" d="M-754.8,1450.4c0,0-75-24.7-63.1,27.3c11.9,52,27.3,64.8,27.3,64.8s4.3-40.9,76.7,12.8l-25.6-40.9l29.8-37.5
		L-754.8,1450.4z"/>
	<path class="st12" d="M-772.8,1403.5c0,0-6.8,35.8,17.9,79.3c19.6,34.5-3.7,50.2-14.1,55.2c-2.8,1.4-6.2,0.8-8.4-1.4
		c-6.9-6.8-20.1-24.2-12.4-51.3l5.1-13.6l-28.1-20.5c0,0-7.6-28.2-4.3-34.6c3.4-6.4,30.7-23.4,30.7-23.4L-772.8,1403.5z"/>
	<path class="st11" d="M-772.8,1401.8c0,0-6.8,35.8,17.9,79.3c19.6,34.5-3.7,50.2-14.1,55.2c-2.8,1.4-6.2,0.8-8.4-1.4
		c-6.9-6.8-20.1-24.2-12.4-51.3l5.1-13.6l-28.1-20.5c0,0-7.6-28.2-4.3-34.6c3.4-6.4,30.7-23.4,30.7-23.4L-772.8,1401.8z"/>
	<path class="st14" d="M-710.5,1333.6c0,0-61.4,35-87,58s-20.5,30.7-20.5,30.7s24.7-46,46-6c0,0,59.7-43.5,75.9-24.7
		C-679.9,1410.4-710.5,1333.6-710.5,1333.6z"/>
	<polygon class="st13" points="-733.5,1534.8 -682.4,1524.5 -688.3,1551 -725.4,1547.1 	"/>
	<path class="st16" d="M-644.9,1422.2l-1.7,18.8l-61.4-10.2l-18.8-11.9l-28.1-10.2c3.3-9.1,3.8-19.1,1.5-28.5
		c-1.1-4.1-2.7-8-4.9-11.6c-11.9-19.6,50.3-11.1,50.3-11.1c-0.7,4.4-1,8.9-0.9,13.4c0.1,14.2,4.2,34.3,26.5,31l18.8,11.1
		L-644.9,1422.2z"/>
	<path class="st16" d="M-705.4,1395.8c0,0,31.5-13.6,46.9,14.5c15.3,28.1,22.2,26.4,22.2,26.4l-30.7-19.6L-705.4,1395.8z"/>
	<path class="st17" d="M-679,1538.2c0,0-23.9,19.6-10.2,44.3c13.7,24.7,98.9,20.5,98.9,20.5s-54.1-20.3-40.7-88.6
		C-631,1514.4-669.6,1525.4-679,1538.2z"/>
	<path class="st17" d="M-565.6,1567.2l-8.5,32.4l29.8-6c0,0-12.8-27.3-11.1-35C-553.6,1551-565.6,1567.2-565.6,1567.2z"/>
	<path class="st16" d="M-541.7,1528c0,0,77.6,7.7,98.9,19.6l16.2,5.1c0,0,6-1.7,18.8,9.4l66.5,15.3l51.2,10.2c0,0,46.9,8.5,50.3,6.8
		c3.4-1.7,26.4,12.8,4.3,19.6c-22.1,6.8-68.2-3.4-68.2-3.4s-34.1-4.3-41.8-1.7s-59.7-5.1-59.7-5.1l-51.2,3.4c0,0-8.5-12.8-30.7-8.5
		c-15.8,3-43.4-1.7-57.8-4.7c-5.7-1.2-10.2-5.7-11.3-11.5l-5.1-27.3L-541.7,1528z"/>
	<path class="st18" d="M-541.7,1528c0,0,77.6,7.7,98.9,19.6l16.2,5.1c0,0,6-1.7,18.8,9.4l66.5,15.3l51.2,10.2c0,0,46.9,8.5,50.3,6.8
		c3.4-1.7,26.4,12.8,4.3,19.6c-22.1,6.8-68.2-3.4-68.2-3.4s-34.1-4.3-41.8-1.7s-59.7-5.1-59.7-5.1l-51.2,3.4c0,0-8.5-12.8-30.7-8.5
		c-15.8,3-43.4-1.7-57.8-4.7c-5.7-1.2-10.2-5.7-11.3-11.5l-5.1-27.3L-541.7,1528z"/>
	<path class="st12" d="M-708.9,1370.8c-12.2,10.5-29,14-44.5,9.3c-1.1-4.1-2.7-8-4.9-11.5c-11.9-19.6,50.3-11.1,50.3-11.1
		C-708.6,1361.9-708.9,1366.3-708.9,1370.8z"/>
	<circle class="st16" cx="-739.5" cy="1333.5" r="46.9"/>
	<path class="st12" d="M-759.1,1402.6c0,0,35.8,19.6,37.5,32.4c1.7,12.8-5.1,28.1-5.1,28.1s16.2,97.2,36.7,104l54.6-52.9l46-20.5
		c0,0-27.3-1.7-29.8-27.3c-2.6-25.6,3.4-34.1-27.3-46s-47.3-26-47.3-26l-7.9,2l40.8,21.4c0,0,23,13.6-36.7,3.4l-56.4-20.3
		L-759.1,1402.6z"/>
	<path class="st19" d="M-760,1400.9c0,0,35.8,19.6,37.5,32.4c1.7,12.8-5.1,28.1-5.1,28.1s16.2,97.2,36.7,104l54.6-52.9l46-20.5
		c0,0-27.3-1.7-29.8-27.3c-2.6-25.6,3.4-34.1-27.3-46c-30.7-11.9-47.3-26-47.3-26l-7.9,2l40.8,21.4c0,0,23,13.6-36.7,3.4l-56.3-20.5
		L-760,1400.9z"/>
	<path class="st12" d="M-747.2,1407.7c0,0-35-12.8-26.4,28.1c8.5,40.9,52.9,111.7,52.9,111.7l104-35.8c0,0,32.4-24.7,23.9-27.3
		s-53.7,13.6-53.7,13.6l-61.4,9.4l-14.5-40.9c0,0,13.6-9.4,9.4-21.3l-0.1-0.4c-5.8-15.9-17.5-28.9-32.6-36.5L-747.2,1407.7z"/>
	<path class="st16" d="M-748.9,1406c0,0-35-12.8-26.4,28.1c8.5,40.9,52.9,111.7,52.9,111.7l104-35.8c0,0,32.4-24.7,23.9-27.3
		s-53.7,13.6-53.7,13.6l-61.4,9.4l-14.5-40.9c0,0,13.6-9.4,9.4-21.3l-0.1-0.4c-5.8-15.9-17.5-28.9-32.6-36.5L-748.9,1406z"/>
	<path class="st12" d="M-745.6,1266.3c-4.1-1-8.3-1.8-12.5-1.3c-4,0.6-7.8,1.8-11.3,3.6c-5.7,2.7-11.2,5.8-16.4,9.5
		c-3.5,2.4-6.9,5.1-10.9,6.5c-6,2.1-13,1.1-18.6,4.3c-7.8,4.4-9.5,14.9-8.4,23.8c1.1,8.9,4.3,17.7,2.9,26.5
		c-2.1,13.2-13.6,22.6-24.1,30.9c-3.3,2.6-6.9,5.7-7.4,9.8c-0.3,2.6,0.6,5.2,1.4,7.7c4.4,13.7,4.2,28.6-0.7,42.2
		c-5,13.6-14.8,24.9-27.6,31.7c-4.8,2.6-10.7,5.1-11.8,10.5c-1.4,6.8,5.9,12,12.4,14.4c5.3,2,10.8,3.4,16.4,4.3
		c4.9,0.8,10.2,1.1,14.6-1.1c5.2-2.5,8.4-7.8,11.2-12.9c10.7-19.8,23.9-29.5,30.9-51c1.5-4.6,3.9-10.1,8.7-10.6
		c3-0.3,5.8,1.6,8.3,3.2c12.4,7.8,25.4-0.9,37-10c2.7-2.1,5-4.7,7.9-6.3c6.3-3.5,15.5-2.5,19.3-8.6c0.9-1.6,1.5-3.4,1.8-5.2
		c1.6-6.7,3.1-13.6,1.3-20.3c-1.7-6.1-6-11.1-8.5-16.9c-2.6-5.8-2.7-13.7,2.5-17.3c1.6-1.1,3.4-1.6,5-2.8c4.5-3.2,4.6-9.7,4.6-15.3
		c-0.1-1.4,0.1-2.7,0.7-4c0.8-1.2,1.9-2.2,3.2-2.9c4.7-3.3,9.1-8.3,11.1-13.8c2.3-6.1-3.5-8.9-8.2-12.3
		C-721.2,1275-733,1269.4-745.6,1266.3z"/>
	<path class="st20" d="M-746.5,1265.4c-4.1-1-8.3-1.8-12.5-1.3c-4,0.6-7.8,1.8-11.3,3.6c-5.7,2.7-11.2,5.8-16.4,9.5
		c-3.5,2.4-6.9,5.1-10.9,6.5c-6,2.1-13,1.1-18.6,4.3c-7.8,4.4-9.5,14.9-8.4,23.8c1.2,8.9,4.3,17.7,2.9,26.5
		c-2.1,13.2-13.6,22.6-24.1,30.9c-3.3,2.6-6.9,5.7-7.4,9.8c-0.3,2.6,0.6,5.2,1.4,7.7c4.4,13.7,4.2,28.6-0.7,42.2
		c-5,13.6-14.8,24.9-27.6,31.7c-4.8,2.6-10.7,5.1-11.8,10.5c-1.4,6.8,5.9,12,12.4,14.4c5.3,2,10.8,3.4,16.4,4.3
		c4.9,0.8,10.2,1.1,14.6-1.1c5.2-2.5,8.4-7.8,11.2-12.9c10.7-19.8,23.9-29.5,30.9-51c1.5-4.6,3.9-10.1,8.7-10.6
		c3-0.3,5.8,1.6,8.3,3.2c12.4,7.8,25.4-0.9,37-10c2.7-2.1,5-4.7,7.9-6.3c6.3-3.5,15.5-2.5,19.3-8.6c0.9-1.6,1.5-3.4,1.8-5.2
		c1.6-6.7,3.1-13.6,1.3-20.3c-1.7-6.1-6-11.1-8.5-16.9c-2.6-5.8-2.7-13.7,2.5-17.3c1.6-1.1,3.4-1.6,5-2.8c4.5-3.2,4.6-9.7,4.6-15.3
		c-0.1-1.4,0.1-2.7,0.7-4c0.8-1.2,1.9-2.2,3.2-2.9c4.7-3.3,9.1-8.3,11.1-13.8c2.3-6.1-3.5-8.9-8.2-12.3
		C-722,1274.2-733.9,1268.6-746.5,1265.4z"/>
	<path class="st16" d="M-349.4,1639.2c-23.1,4.9-90.7,2.8-100.6-5.1c-15.2-12.1-11.4-22.9-10.4-25.2h-0.2c0,0,8.5-20.5,0-35.8
		c0,0-0.9-18.8-18.8-33.3s-37.5-55.4-37.5-55.4l-10.2,21.3c0,0-15.3,46.8-31.3,67.6c-3.2,4.1-5.4,8.9-6.3,14.1
		c-1.1,5.6-4.7,12.7-16,14.7l-0.6,0.1c-16.2,2.7-32.5-4.2-41.8-17.7c-7.7-11-16.3-26.2-18.2-41.1c-1.3-10.1,1.8-20.3,8.4-28l0.1-0.1
		c18.3-21.7,82-96.3,92.2-100.7c0,0,46-44.3,64,15.3s23.9,77.6,23.9,77.6s21.4,38.2,27.3,51.2c6.1,13.4,31.3,46.7,33.9,50
		c2.3,1.6,24.9,16.9,32.2,16.9C-356.4,1625.6-332.7,1635.7-349.4,1639.2z"/>
	<g class="st5">
		<path d="M-457.2,1585.2c0.7-6.6,0.3-14.5-3.5-21.4c0,0-0.9-18.8-18.8-33.3s-37.5-55.4-37.5-55.4l-10.2,21.3
			c0,0-15.3,46.8-31.3,67.6c-3.2,4.1-5.4,8.9-6.3,14.1c-1.1,5.6-4.7,12.7-16,14.7l-0.6,0.1c-16.2,2.7-32.5-4.2-41.8-17.7
			c-7.5-10.9-16.1-25.9-18.2-40.6c-0.5,3.2-0.5,6.5-0.1,9.7c2,14.9,10.6,30.1,18.2,41.1c9.3,13.5,25.6,20.4,41.8,17.7l0.6-0.1
			c11.3-2,15-9.1,16-14.7c1-5.1,3.2-9.9,6.3-14.1c16-20.8,31.3-67.6,31.3-67.6l10.2-21.3c0,0,19.6,40.9,37.5,55.4
			s18.8,33.3,18.8,33.3C-458.8,1577.5-457.6,1581.3-457.2,1585.2z"/>
	</g>
	<path class="st18" d="M-679.4,1474.7c0,0,36.7-0.9,34.1-12.8"/>
</g>
</svg>
