<?xml version="1.0" encoding="utf-8"?>
<!-- Generator: Adobe Illustrator 19.0.0, SVG Export Plug-In . SVG Version: 6.00 Build 0)  -->
<svg version="1.1" id="图层_1" xmlns="http://www.w3.org/2000/svg" xmlns:xlink="http://www.w3.org/1999/xlink" x="0px" y="0px"
	 viewBox="0 0 1000 1000" style="enable-background:new 0 0 1000 1000;" xml:space="preserve">
<style type="text/css">
	.st0{opacity:0.1;fill:#6C63FF;enable-background:new    ;}
	.st1{fill:#6C63FF;}
	.st2{fill:none;stroke:#535461;stroke-width:2;stroke-miterlimit:10;}
	.st3{opacity:0.2;fill:#F5F5F5;enable-background:new    ;}
	.st4{opacity:0.1;fill:none;stroke:#6C63FF;stroke-miterlimit:10;enable-background:new    ;}
	.st5{opacity:0.2;enable-background:new    ;}
	.st6{opacity:0.1;}
	.st7{opacity:0.2;fill:#6C63FF;enable-background:new    ;}
	.st8{fill:#FFB9B9;}
	.st9{fill:#B96B6B;}
	.st10{opacity:0.1;enable-background:new    ;}
	.st11{fill:#777B9B;}
	.st12{fill:#CBCDDA;}
	.st13{opacity:5.000000e-02;}
	.st14{fill:#535461;}
	.st15{opacity:0.7;}
	.st16{fill:url(#SVGID_1_);}
	.st17{fill:#3E3F49;}
	.st18{fill:#E0E0E0;}
	.st19{opacity:0.1;fill:#FFFFFF;enable-background:new    ;}
	.st20{fill:none;stroke:#6C63FF;stroke-miterlimit:10;}
</style>
<path id="_x23_background" class="st0" d="M995.9,454.7c-6,29.6-37,44.4-54.4,66.5c-32.7,41.6-20,102.4,0.8,151
	c6.9,16.3,14.8,33.5,11.9,51c-3.6,21.4-22.7,37-42.7,45.3c-36.5,15.1-80.2,11.5-113.7-9.4c-29-18-49.7-47.4-79.2-64.6
	c-49.3-28.8-112.1-17.9-165.7,1.9c-37.9,14-79.3,32.3-117,17.6c-26.5-10.3-44.8-35.4-54.8-62.1c-4.8-12.9-8.3-26.8-17.5-37
	c-5.5-6.1-12.6-10.4-19.9-14c-66.8-33.1-151.1-15.4-216-52.1c-43.8-24.8-71.8-71.6-84.3-120.4s-11-99.9-7.8-150.2
	c2.2-35.7,6.3-73.8,29.1-101.4c24.1-29.1,65.5-40,103-34.4s71.4,25.3,101.2,48.5c37.4,29.1,71.9,65.3,117.7,77
	c31.2,8,64,3.6,96.2,2.1c53.8-2.5,107.6,3.1,161.1,9.3c26.1,3,52.2,6.2,78,10.8c5.8,1,11.6,2.1,17.4,3.3c2.9,0.6,5.8,1.2,8.7,1.9
	c2.3,0.5,4.5,1,6.8,1.5c3.5,0.8,7.1,1.7,10.6,2.6c10.1,2.6,20.2,5.6,30.1,9c34.5,11.8,62.2,33.2,94.8,48.1
	c21.2,9.7,44.4,12.4,64.5,24.8C979.6,397,1002.3,423.6,995.9,454.7z"/>
<g id="_x23_home_x28_have_x5B_bookcase_x2C_apple_x2C_wall_x5F_clock_x5D__x29_">
	<ellipse class="st0" cx="449.2" cy="740.6" rx="442.2" ry="104.7"/>
	<path class="st1" d="M115.2,455.2c0,0,41.2,41.2,17.9,102.3S173,720.3,173,720.3s-0.7-0.1-1.9-0.3C86.5,705,44.4,608.3,91.5,536.4
		C108.9,509.7,123.3,478.3,115.2,455.2z"/>
	<path class="st2" d="M115.2,455.2c0,0,23.2,50.5,0,91.7s-4,156.8,57.8,173.4"/>
	<path class="st1" d="M41.8,621.8c0,0,47-7.5,51.3,34.6c4.3,42.1,90.3,48,90.3,48s-0.6,0.4-1.6,1.1c-71,46.6-139,29.7-128.7-32.3
		C56.9,650.2,56.6,627,41.8,621.8z"/>
	<path class="st3" d="M41.8,621.8c0,0,47-7.5,51.3,34.6c4.3,42.1,90.3,48,90.3,48s-0.6,0.4-1.6,1.1c-71,46.6-139,29.7-128.7-32.3
		C56.9,650.2,56.6,627,41.8,621.8z"/>
	<path class="st2" d="M41.8,621.8c0,0,36.5,8,33.5,41.2c-3,33.2,54.2,73,108.2,41.4"/>
	<path class="st1" d="M398.9,807.7c1.6-1.3,2.8-3,3.3-5c0.4-2-0.4-4.4-2.3-5.1c-2.1-0.8-4.4,0.7-6.2,2.2c-1.7,1.5-3.7,3.2-6,2.9
		c2.4-2.1,3.4-5.4,2.8-8.5c-0.1-0.6-0.4-1.2-0.8-1.7c-1.2-1.3-3.3-0.7-4.8,0.3c-4.5,3.2-5.8,9.3-5.8,14.8c-0.5-2-0.1-4.1-0.1-6.1
		c0-2-0.6-4.3-2.3-5.4c-1.1-0.6-2.3-0.9-3.5-0.8c-2-0.1-4.3,0.1-5.7,1.6c-1.7,1.8-1.3,4.9,0.2,6.9c1.5,2,3.8,3.3,5.9,4.7
		c1.7,1,3.1,2.4,4.2,4c0.1,0.2,0.2,0.5,0.3,0.7h12.7C393.9,811.7,396.6,809.9,398.9,807.7z"/>
	<circle class="st0" cx="134.4" cy="281.8" r="32.4"/>
	<circle class="st0" cx="134.4" cy="281.8" r="27.5"/>
	<circle class="st0" cx="134.4" cy="281.8" r="2"/>
	<line class="st4" x1="146.2" y1="261.1" x2="135.4" y2="280.1"/>
	<line class="st4" x1="146.7" y1="288.2" x2="136.2" y2="282.6"/>
	<path class="st5" d="M193.2,772.8c0,0,5.1,4,17.5,0"/>
	<rect x="515.2" y="338.8" class="st0" width="276.2" height="19.1"/>
	<rect x="515.2" y="421.3" class="st0" width="276.2" height="19.1"/>
	<rect x="515.2" y="507.3" class="st0" width="276.2" height="19.1"/>
	<rect x="539.5" y="289.3" class="st0" width="17.4" height="49.5"/>
	<rect x="539.5" y="297.1" class="st0" width="17.4" height="3.5"/>
	<rect x="539.5" y="324" class="st0" width="17.4" height="3.5"/>
	<rect x="565.6" y="289.3" class="st0" width="17.4" height="49.5"/>
	<rect x="565.6" y="297.1" class="st0" width="17.4" height="3.5"/>
	<rect x="565.6" y="324" class="st0" width="17.4" height="3.5"/>
	<rect x="591.6" y="289.3" class="st0" width="17.4" height="49.5"/>
	<rect x="591.6" y="297.1" class="st0" width="17.4" height="3.5"/>
	<rect x="591.6" y="324" class="st0" width="17.4" height="3.5"/>
	<rect x="617.7" y="289.3" class="st0" width="17.4" height="49.5"/>
	<rect x="617.7" y="297.1" class="st0" width="17.4" height="3.5"/>
	<rect x="617.7" y="324" class="st0" width="17.4" height="3.5"/>
	<rect x="643.7" y="289.3" class="st0" width="17.4" height="49.5"/>
	<rect x="643.7" y="297.1" class="st0" width="17.4" height="3.5"/>
	<rect x="643.7" y="324" class="st0" width="17.4" height="3.5"/>
	<rect x="669.8" y="289.3" class="st0" width="17.4" height="49.5"/>
	<rect x="669.8" y="297.1" class="st0" width="17.4" height="3.5"/>
	<rect x="669.8" y="324" class="st0" width="17.4" height="3.5"/>
	<rect x="695.9" y="289.3" class="st0" width="17.4" height="49.5"/>
	<rect x="695.9" y="297.1" class="st0" width="17.4" height="3.5"/>
	<rect x="695.9" y="324" class="st0" width="17.4" height="3.5"/>
	
		<rect x="697.6" y="457.8" transform="matrix(-0.8939 0.4482 -0.4482 -0.8939 1553.9265 597.3251)" class="st0" width="17.4" height="49.5"/>
	
		<rect x="690.8" y="467.2" transform="matrix(-0.8939 0.4482 -0.4482 -0.8939 1534.9382 574.6351)" class="st0" width="17.4" height="3.5"/>
	
		<rect x="702.8" y="491.3" transform="matrix(-0.8939 0.4482 -0.4482 -0.8939 1568.5759 614.824)" class="st0" width="17.4" height="3.5"/>
	<rect x="539.5" y="372.7" class="st0" width="17.4" height="49.5"/>
	<rect x="539.5" y="380.5" class="st0" width="17.4" height="3.5"/>
	<rect x="539.5" y="407.4" class="st0" width="17.4" height="3.5"/>
	<rect x="565.6" y="372.7" class="st0" width="17.4" height="49.5"/>
	<rect x="565.6" y="380.5" class="st0" width="17.4" height="3.5"/>
	<rect x="565.6" y="407.4" class="st0" width="17.4" height="3.5"/>
	<rect x="591.6" y="372.7" class="st0" width="17.4" height="49.5"/>
	<rect x="591.6" y="380.5" class="st0" width="17.4" height="3.5"/>
	<rect x="591.6" y="407.4" class="st0" width="17.4" height="3.5"/>
	<rect x="700.2" y="372.7" class="st0" width="17.4" height="49.5"/>
	<rect x="700.2" y="380.5" class="st0" width="17.4" height="3.5"/>
	<rect x="700.2" y="407.4" class="st0" width="17.4" height="3.5"/>
	<rect x="726.3" y="372.7" class="st0" width="17.4" height="49.5"/>
	<rect x="726.3" y="380.5" class="st0" width="17.4" height="3.5"/>
	<rect x="726.3" y="407.4" class="st0" width="17.4" height="3.5"/>
	<rect x="752.3" y="372.7" class="st0" width="17.4" height="49.5"/>
	<rect x="752.3" y="380.5" class="st0" width="17.4" height="3.5"/>
	<rect x="752.3" y="407.4" class="st0" width="17.4" height="3.5"/>
	<rect x="539.5" y="457.8" class="st0" width="17.4" height="49.5"/>
	<rect x="539.5" y="465.6" class="st0" width="17.4" height="3.5"/>
	<rect x="539.5" y="492.6" class="st0" width="17.4" height="3.5"/>
	<rect x="565.6" y="457.8" class="st0" width="17.4" height="49.5"/>
	<rect x="565.6" y="465.6" class="st0" width="17.4" height="3.5"/>
	<rect x="565.6" y="492.6" class="st0" width="17.4" height="3.5"/>
	<rect x="591.6" y="457.8" class="st0" width="17.4" height="49.5"/>
	<rect x="591.6" y="465.6" class="st0" width="17.4" height="3.5"/>
	<rect x="591.6" y="492.6" class="st0" width="17.4" height="3.5"/>
	<rect x="617.7" y="457.8" class="st0" width="17.4" height="49.5"/>
	<rect x="617.7" y="465.6" class="st0" width="17.4" height="3.5"/>
	<rect x="617.7" y="492.6" class="st0" width="17.4" height="3.5"/>
	<rect x="643.7" y="457.8" class="st0" width="17.4" height="49.5"/>
	<rect x="643.7" y="465.6" class="st0" width="17.4" height="3.5"/>
	<rect x="643.7" y="492.6" class="st0" width="17.4" height="3.5"/>
	<rect x="669.8" y="457.8" class="st0" width="17.4" height="49.5"/>
	<rect x="669.8" y="465.6" class="st0" width="17.4" height="3.5"/>
	<rect x="669.8" y="492.6" class="st0" width="17.4" height="3.5"/>
	<path class="st0" d="M739.3,293.7v45.1h-17.4v-48.4C727.7,291.4,733.5,292.5,739.3,293.7z"/>
	<rect x="721.9" y="297.1" class="st0" width="17.4" height="3.5"/>
	<rect x="721.9" y="324" class="st0" width="17.4" height="3.5"/>
	<path class="st0" d="M765.3,299.7v39.1H748v-43.3c2.3,0.5,4.5,1,6.8,1.5C758.3,297.9,761.8,298.8,765.3,299.7z"/>
	<path class="st0" d="M765.3,299.7v0.9H748v-3.5h6.8C758.3,298,761.8,298.8,765.3,299.7z"/>
	<rect x="748" y="324" class="st0" width="17.4" height="3.5"/>
	<g class="st6">
		<path class="st1" d="M644.1,404.2c0,0-5.3-1.8-7.8,2.9c-1.4,2.6-1.3,5.6,0.1,8.1c1.7,3,5.1,6.9,11.6,6.6c5.5-0.3,7.3-4.5,7.8-8.4
			c0.6-4.8-2.8-9.1-7.6-9.7c-1.3-0.2-2.7,0-3.9,0.4L644.1,404.2z"/>
		<path class="st0" d="M637.5,415.6c-1.4-2.5-1.5-5.6-0.1-8.1c2.5-4.6,7.8-2.9,7.8-2.9l0.3-0.1c2-0.7,4.2-0.7,6.2,0.1
			c-2.2-1.3-4.9-1.6-7.3-0.7l-0.3,0.1c0,0-5.3-1.8-7.8,2.9c-1.4,2.6-1.3,5.6,0.1,8.1c1.3,2.5,3.4,4.5,6,5.6
			C640.3,419.5,638.6,417.7,637.5,415.6z"/>
		<path class="st7" d="M641.4,406.4c0,0,2,1.5,6.7,0"/>
		<path class="st1" d="M640.9,395.3c0,0,3.3,9.1,3.1,11.4l2.6-0.3c0,0-4.5-7.9-3.3-11.2H640.9z"/>
		<path class="st7" d="M640.9,395.3c0,0,3.3,9.1,3.1,11.4l2.6-0.3c0,0-4.5-7.9-3.3-11.2H640.9z"/>
		<path class="st1" d="M654.6,396c0,0-5.3-2.7-7.6-0.5c-2.4,2.2-2.7,7.9-2.7,7.9S652.8,404.6,654.6,396z"/>
		<path class="st0" d="M654.6,396c0,0-5.3-2.7-7.6-0.5c-2.4,2.2-2.7,7.9-2.7,7.9S652.8,404.6,654.6,396z"/>
		<path class="st1" d="M644.2,403.5c0,0,1.4-6.6,10.3-7.5"/>
	</g>
	<g class="st6">
		<path class="st1" d="M755.3,490.2c0,0-5.3-1.8-7.8,2.9c-1.4,2.6-1.3,5.6,0.1,8.1c1.7,3,5.1,6.9,11.6,6.6c5.5-0.3,7.3-4.5,7.8-8.4
			c0.6-4.8-2.8-9.1-7.6-9.7c-1.3-0.2-2.7,0-3.9,0.4L755.3,490.2z"/>
		<path class="st0" d="M748.7,501.6c-1.4-2.5-1.5-5.6-0.1-8.1c2.5-4.6,7.8-2.9,7.8-2.9l0.3-0.1c2-0.7,4.2-0.7,6.2,0.1
			c-2.2-1.3-4.9-1.6-7.3-0.7l-0.3,0.1c0,0-5.3-1.8-7.8,2.9c-1.4,2.6-1.3,5.6,0.1,8.1c1.3,2.5,3.4,4.5,6,5.6
			C751.5,505.5,749.8,503.7,748.7,501.6z"/>
		<path class="st7" d="M752.5,492.4c0,0,2,1.5,6.7,0"/>
		<path class="st1" d="M752.1,481.3c0,0,3.3,9.1,3.1,11.4l2.6-0.3c0,0-4.5-7.9-3.3-11.2H752.1z"/>
		<path class="st7" d="M752.1,481.3c0,0,3.3,9.1,3.1,11.4l2.6-0.3c0,0-4.5-7.9-3.3-11.2H752.1z"/>
		<path class="st1" d="M765.8,482c0,0-5.3-2.7-7.6-0.5c-2.4,2.2-2.7,7.9-2.7,7.9S764,490.6,765.8,482z"/>
		<path class="st0" d="M765.8,482c0,0-5.3-2.7-7.6-0.5c-2.4,2.2-2.7,7.9-2.7,7.9S764,490.6,765.8,482z"/>
		<path class="st1" d="M755.4,489.5c0,0,1.4-6.6,10.3-7.5"/>
	</g>
</g>
<g id="_x23_woman_x28_play_x5B_computer_x5D__x2C_work_x2C_sit_x29_">
	<path class="st8" d="M533.5,700.7c0,0,35.7-2.8,46,9.5c10.3,12.3,47,40.4,31.8,46.7s-96.4-18.8-96.4-18.8L533.5,700.7z"/>
	<path class="st9" d="M386.8,273.1c-0.6-8.4-6.9-15.4-15.2-16.9c-5.4-0.9-11.5,0.7-16.2-2.3c-2.1-1.3-3.6-3.4-5.3-5.2
		c-6.7-7.1-16.7-10.4-26.5-10.7s-19.4,2.1-28.8,4.8c-18.7,5.4-38.5,13.3-48.5,30.1c-15.1,25.5-1.2,59.9-13.2,87
		c-5.2,11.8-15.1,21.5-18.4,34.1c-4.3,16.8,4.2,33.8,10.8,49.8c5.9,14.4,10.4,29.2,13.4,44.5c2.6,13.4,4.1,27.4,1.1,40.8
		c-1.3,5.9-3.5,11.8-2.3,17.7c1.7,8.9,10.4,14.5,18.2,19.1l2,1.2c11.3,6.6,22.9,13.3,35.8,15c8,1,16.5-0.1,23.5-4.2
		c6.9-4.1,12.2-11.4,12.8-19.5c0.7-9.1-4.4-17.7-5.5-26.8c-0.3-1.4-0.1-2.8,0.3-4.1c0.7-1.7,2.4-2.9,3.9-3.9
		c22.3-15.5,34.2-44.6,29.3-71.3c-3.4-18.2-13.8-36.3-8.7-54.1c2.8-9.8,10-17.8,14-27.2c4.3-10,4.8-21.3,1.5-31.6
		c-2.3-7.2-6.5-14.3-5-21.7c2.5-13.1,20-17.3,26.6-28.9c4.9-8.6,2-20.8-6.3-26.3"/>
	<path class="st10" d="M386.8,273.1c-0.6-8.4-6.9-15.4-15.2-16.9c-5.4-0.9-11.5,0.7-16.2-2.3c-2.1-1.3-3.6-3.4-5.3-5.2
		c-6.7-7.1-16.7-10.4-26.5-10.7s-19.4,2.1-28.8,4.8c-18.7,5.4-38.5,13.3-48.5,30.1c-15.1,25.5-1.2,59.9-13.2,87
		c-5.2,11.8-15.1,21.5-18.4,34.1c-4.3,16.8,4.2,33.8,10.8,49.8c5.9,14.4,10.4,29.2,13.4,44.5c2.6,13.4,4.1,27.4,1.1,40.8
		c-1.3,5.9-3.5,11.8-2.3,17.7c1.7,8.9,10.4,14.5,18.2,19.1l2,1.2c11.3,6.6,22.9,13.3,35.8,15c8,1,16.5-0.1,23.5-4.2
		c6.9-4.1,12.2-11.4,12.8-19.5c0.7-9.1-4.4-17.7-5.5-26.8c-0.3-1.4-0.1-2.8,0.3-4.1c0.7-1.7,2.4-2.9,3.9-3.9
		c22.3-15.5,34.2-44.6,29.3-71.3c-3.4-18.2-13.8-36.3-8.7-54.1c2.8-9.8,10-17.8,14-27.2c4.3-10,4.8-21.3,1.5-31.6
		c-2.3-7.2-6.5-14.3-5-21.7c2.5-13.1,20-17.3,26.6-28.9c4.9-8.6,2-20.8-6.3-26.3"/>
	<polygon class="st11" points="422.7,728.4 235.9,728.4 235.9,628.5 340.1,668.5 422.7,628.5 	"/>
	<polygon class="st10" points="422.7,728.4 235.9,728.4 235.9,628.5 340.1,668.5 422.7,628.5 	"/>
	<path class="st8" d="M400.1,738c0,0-33.9,8.1-37.4,22.9c-3.5,14.8,20,13.5,20,13.5s33-6.7,37.4-33.7
		C424.4,713.7,400.1,738,400.1,738z"/>
	<path class="st10" d="M400.1,738c0,0-33.9,8.1-37.4,22.9c-3.5,14.8,20,13.5,20,13.5s33-6.7,37.4-33.7
		C424.4,713.7,400.1,738,400.1,738z"/>
	<path class="st12" d="M309.1,783.2c0,0-31.9,2.1-32.4,28c-0.1,3.5,33.3,4.5,72.8-16.8c39.6-21.3,42.3-23.5,42.3-23.5
		s-15.3-24.6-26.1-28C355,739.6,309.1,783.2,309.1,783.2z"/>
	<path class="st11" d="M122.1,684.1c0,0-36.5,30.4,31.3,73s132.9,34.7,132.9,34.7s70.7-8.4,81.4-41.5c10.7-33.2-52.7-61-52.7-61
		s-69.5,0-100.8-20C182.9,649.4,122.1,684.1,122.1,684.1z"/>
	<path class="st11" d="M319.3,632c0,0,31.3,18.2,73.8,0c32.7-14,104.6-8.5,136-5.2c14.7,1.5,27.3,11.7,31.3,25.9
		c3.3,11.6,0.9,25.9-18.8,39.3c-43.4,29.5-73.8,38.2-85.1,50.4s-43.4,18.2-43.4,18.2s-40.8-6.1-40.8-14.8s37.4-51.3,37.4-51.3
		s-54.7,50.4-111.2-17.4S319.3,632,319.3,632z"/>
	<path class="st8" d="M303.7,509.5l-110.3-75.6c0,0,52.9-35.9,57.5-68c1-6.3-0.2-12.7-3.6-18c-21.7-34.7,76.4,0,76.4,0
		c0.6,9,1.9,18,3.7,26.9c4.3,21.2,13.3,49.3,31.9,63.4C391.4,462.6,303.7,509.5,303.7,509.5z"/>
	<path class="st10" d="M327.3,374.8c-24.7,14.3-55.8,10.7-76.5-8.9c1-6.3-0.2-12.7-3.6-18c-21.7-34.7,76.4,0,76.4,0
		C324.3,357,325.5,365.9,327.3,374.8z"/>
	<circle class="st8" cx="295" cy="317.5" r="64.3"/>
	<path class="st10" d="M334.9,402.7c0,0-13,76.4-34.7,72.1c-21.7-4.3-89.5-80.8-89.5-80.8s-70.4,23.5-59.1,80.8s22.6,106-0.9,124.2
		c-23.5,18.2-38.2,103.4-38.2,103.4s74.7-31.3,113.8-19.1c39.1,12.2,79,6.1,88.6-5.2c9.6-11.3,23.5-35.6,23.5-35.6
		s-20-29.5-10.4-44.3c9.6-14.8,21.7-15.6,28.7-57.3s61.7-56.5,51.3-79.9C397.5,437.4,377.5,402.7,334.9,402.7z"/>
	<path class="st12" d="M334.9,399.2c0,0-13,76.4-34.7,72.1c-21.7-4.3-89.5-80.8-89.5-80.8s-70.4,23.5-59.1,80.8s22.6,106-0.9,124.2
		c-23.5,18.2-38.2,103.4-38.2,103.4s74.7-31.3,113.8-19.1c39.1,12.2,79,6.1,88.6-5.2c9.6-11.3,23.5-35.6,23.5-35.6
		s-20-29.5-10.4-44.3c9.6-14.8,21.7-15.6,28.7-57.3s61.7-56.5,51.3-79.9C397.5,433.9,377.5,399.2,334.9,399.2z"/>
	<path class="st8" d="M387,712.8c0,0,34.7-8.7,46.9,1.7c12.2,10.4,53,32.1,39.1,40.8s-98.2-2.6-98.2-2.6L387,712.8z"/>
	<g class="st13">
		<path d="M291.5,471.3c2,0.4,4.1,0.1,6-0.9c-24.1-9.3-86.8-79.9-86.8-79.9s-2.5,0.8-6.4,2.5C216.3,406.3,272.1,467.4,291.5,471.3z"
			/>
		<path d="M399.2,457.4c24-9.2-44.3,38.2-51.3,79.9s-19.1,42.6-28.7,57.3c-9.6,14.8,10.4,44.3,10.4,44.3s-13.9,24.3-23.5,35.6
			c-5.5,6.5-20.9,11.2-40.5,11.8c23.6,0.7,42.9-4.4,49.2-11.8c9.6-11.3,23.5-35.6,23.5-35.6s-20-29.5-10.4-44.3
			c9.6-14.8,21.7-15.6,28.7-57.3S393.6,459.6,399.2,457.4z"/>
		<path d="M113.2,695.2c-0.4,2.3-0.7,3.6-0.7,3.6s48.6-20.3,87.9-21.8C170.1,675.8,130.9,688.7,113.2,695.2z"/>
	</g>
	<path class="st12" d="M401.8,453c0,0,7.8,0.9,15.6,41.7c7.8,40.8,38.2,79.9,38.2,79.9c12,16.1,21.4,34,27.8,53
		c10.4,31.3,56.9,72.5,73.4,74.3c0,0-31.7,31.7-28.2,40.4s-3.5,0-3.5,0s-43.4-16.5-53-43.4c-9.6-26.9-51.3-70.4-51.3-70.4
		s-55.6-107.7-58.2-125.1C360.1,486,401.8,453,401.8,453z"/>
	<path class="st10" d="M162.5,599.4c0,0,66.9,7.8,81.7,28.7c14.8,20.8,83.2-12.1,83.2-12.1"/>
	<path class="st10" d="M228.1,480.8c0,0,28.7,105.1,39.1,118.1c10.4,13,91.2,119.9,129.4,112.9c0,0-11.3,48.6-19.1,50.4
		c0,0-79-78.2-106-77.3c0,0-49.5-40.8-54.7-60.8S169.9,539,169.9,539s-20.8-46-12.2-66C166.4,453,212.4,461.7,228.1,480.8z"/>
	<path class="st12" d="M228.9,479.1c0,0,28.7,105.1,39.1,118.1s91.2,119.9,129.4,112.9c0,0-11.3,48.6-19.1,50.4
		c0,0-79-78.2-106-77.3c0,0-49.5-40.8-54.7-60.8c-5.2-20-46.9-85.1-46.9-85.1s-20.8-46-12.2-66C167.3,451.3,213.3,460,228.9,479.1z"
		/>
	<path class="st10" d="M341.6,256.6c-0.6-8.4-6.9-15.4-15.2-16.9c-5.4-0.9-11.5,0.7-16.2-2.3c-2.1-1.3-3.6-3.4-5.3-5.2
		c-6.7-7.1-16.7-10.4-26.5-10.7c-9.8-0.3-19.4,2.1-28.8,4.8c-18.7,5.4-38.5,13.3-48.5,30.1c-15.1,25.5-1.2,59.9-13.2,87
		c-5.2,11.8-15.1,21.5-18.4,34.1c-4.3,16.8,4.2,33.8,10.8,49.8c5.9,14.4,10.4,29.2,13.4,44.5c2.6,13.4,4.1,27.4,1.1,40.8
		c-1.3,5.9-3.5,11.8-2.3,17.7c1.7,8.9,10.4,14.5,18.2,19.1l2,1.2c11.3,6.6,22.9,13.3,35.8,15c8,1,16.5-0.1,23.5-4.2
		c6.9-4.1,12.2-11.4,12.8-19.5c0.7-9.1-4.4-17.7-5.5-26.8c-0.3-1.4-0.1-2.8,0.3-4.1c0.7-1.7,2.4-2.9,3.9-3.9
		c22.3-15.5,34.2-44.6,29.3-71.3c-3.4-18.2-13.8-36.3-8.7-54.1c2.8-9.8,10-17.8,14-27.2c4.3-10,4.8-21.3,1.5-31.6
		c-2.3-7.2-6.5-14.3-5-21.7c2.5-13.1,20-17.3,26.6-28.9c4.9-8.6,2-20.8-6.3-26.3"/>
	<path class="st9" d="M339.8,255.7c-0.6-8.4-6.9-15.4-15.2-16.9c-5.4-0.9-11.5,0.7-16.2-2.3c-2.1-1.3-3.6-3.4-5.3-5.2
		c-6.7-7.1-16.7-10.4-26.5-10.7c-9.8-0.3-19.4,2.1-28.8,4.8c-18.7,5.4-38.5,13.3-48.5,30.1c-15.1,25.5-1.2,59.9-13.2,87
		c-5.2,11.8-15.1,21.5-18.4,34.1c-4.3,16.8,4.2,33.8,10.8,49.8c5.9,14.4,10.4,29.2,13.4,44.5c2.6,13.4,4.1,27.4,1.1,40.8
		c-1.3,5.9-3.5,11.8-2.3,17.7c1.7,8.9,10.4,14.5,18.2,19.1l2,1.2c11.3,6.6,22.9,13.3,35.8,15c8,1,16.5-0.1,23.5-4.2
		c6.9-4.1,12.2-11.4,12.8-19.5c0.7-9.1-4.4-17.7-5.5-26.8c-0.3-1.4-0.1-2.8,0.3-4.1c0.7-1.7,2.4-2.9,3.9-3.9
		c22.3-15.5,34.2-44.6,29.3-71.3c-3.4-18.2-13.8-36.3-8.7-54.1c2.8-9.8,10-17.8,14-27.2c4.3-10,4.8-21.3,1.5-31.6
		c-2.3-7.2-6.5-14.3-5-21.7c2.5-13.1,20-17.3,26.6-28.9c4.9-8.6,2-20.8-6.3-26.3"/>
	<path class="st14" d="M419.4,762.8h90.7c3.1,0,5.6,2.5,5.6,5.6v3.1c0,3.1-2.5,5.6-5.6,5.6h-90.7c-3.1,0-5.6-2.5-5.6-5.6v-3.1
		C413.8,765.3,416.3,762.8,419.4,762.8z"/>
	<g class="st15">
		
			<linearGradient id="SVGID_1_" gradientUnits="userSpaceOnUse" x1="602.6088" y1="224.626" x2="602.6088" y2="399.9239" gradientTransform="matrix(1 0 0 -1 0 1002)">
			<stop  offset="0" style="stop-color:#808080;stop-opacity:0.25"/>
			<stop  offset="0.54" style="stop-color:#808080;stop-opacity:0.12"/>
			<stop  offset="1" style="stop-color:#808080;stop-opacity:0.1"/>
		</linearGradient>
		<path class="st16" d="M500.4,602.1h204.5c13.5,0,24.5,11,24.5,24.5v126.3c0,13.5-11,24.5-24.5,24.5H500.4
			c-13.5,0-24.5-11-24.5-24.5V626.6C475.8,613.1,486.8,602.1,500.4,602.1z"/>
	</g>
	<path class="st17" d="M503.7,605.3h193.5c12.9,0,23.3,10.4,23.3,23.3v125.4c0,12.9-10.4,23.3-23.3,23.3H503.7
		c-12.9,0-23.3-10.4-23.3-23.3V628.6C480.4,615.7,490.8,605.3,503.7,605.3z"/>
	<path class="st14" d="M507,605.3h193.5c12.9,0,23.3,10.4,23.3,23.3v125.4c0,12.9-10.4,23.3-23.3,23.3H507
		c-12.9,0-23.3-10.4-23.3-23.3V628.6C483.7,615.7,494.1,605.3,507,605.3z"/>
	<circle class="st18" cx="615" cy="690.2" r="7.8"/>
	<path class="st1" d="M200.3,767c0,0-13.8-4.7-20.4,7.5c-3.6,6.7-3.4,14.7,0.3,21.3c4.3,7.9,13.3,18.1,30.4,17.2
		c14.4-0.8,19.2-11.8,20.5-22c1.6-12.4-7.1-23.8-19.5-25.4c-3.6-0.5-7.2-0.1-10.5,1.1L200.3,767z"/>
	<path class="st19" d="M183.1,796.9c-3.7-6.6-3.9-14.6-0.3-21.3c6.6-12.2,20.4-7.5,20.4-7.5l0.7-0.3c5.3-1.9,11-1.8,16.2,0.4
		c-5.8-3.4-12.8-4.1-19.1-1.8l-0.7,0.3c0,0-13.8-4.7-20.4,7.5c-3.6,6.7-3.4,14.7,0.3,21.3c2.9,5.2,7.7,11.4,15.6,14.8
		C190.5,807,186.1,802.4,183.1,796.9z"/>
	<path class="st1" d="M192.1,743.6c0,0,8.8,23.7,8,30l6.9-0.7c0,0-11.7-20.8-8.8-29.2L192.1,743.6z"/>
	<path class="st5" d="M192.1,743.6c0,0,8.8,23.7,8,30l6.9-0.7c0,0-11.7-20.8-8.8-29.2L192.1,743.6z"/>
	<path class="st1" d="M227.9,745.6c0,0-13.8-7.1-20-1.2c-6.2,5.8-7.1,20.7-7.1,20.7S223.3,768.2,227.9,745.6z"/>
	<path class="st19" d="M227.9,745.6c0,0-13.8-7.1-20-1.2c-6.2,5.8-7.1,20.7-7.1,20.7S223.3,768.2,227.9,745.6z"/>
	<path class="st20" d="M200.8,765.1c0,0,3.6-17.3,27.1-19.5"/>
</g>
</svg>
