<?xml version="1.0" encoding="utf-8"?>
<!-- Generator: Adobe Illustrator 19.0.0, SVG Export Plug-In . SVG Version: 6.00 Build 0)  -->
<svg version="1.1" id="_x23_alien_x28_have_x5B_snowman_x5D__x29_"
	 xmlns="http://www.w3.org/2000/svg" xmlns:xlink="http://www.w3.org/1999/xlink" x="0px" y="0px" viewBox="0 0 1000 1000"
	 style="enable-background:new 0 0 1000 1000;" xml:space="preserve">
<style type="text/css">
	.st0{fill:#EEEFF0;}
	.st1{opacity:0.1;enable-background:new    ;}
	.st2{fill:#6C63FF;}
	.st3{opacity:3.000000e-02;}
	.st4{opacity:0.1;}
	.st5{fill:#373E46;}
	.st6{fill:#FFFFFF;}
	.st7{opacity:0.3;}
	.st8{fill:#F75842;}
</style>
<g id="_x32_">
	<path class="st0" d="M535.3,100c-13.9,0-25.2,11.2-25.2,25.1c0,1.1,0.1,2.2,0.2,3.2c0.4,3,1.3,6,2.8,8.7c0.5,1,1.1,1.9,1.7,2.8
		c7.1,9.9,20.4,13.3,31.4,8c0.9-0.4,1.7-0.9,2.5-1.4c11.7-7.5,15.2-23,7.7-34.7C551.8,104.4,543.8,100,535.3,100z M535.3,121.4
		c-4.2,0-7.5-3.4-7.5-7.5c0-4.2,3.4-7.6,7.5-7.6c4.2,0,7.5,3.4,7.5,7.5v0C542.8,118,539.5,121.4,535.3,121.4z"/>
	<path class="st1" d="M515.2,111.3l-0.4,28.5c-0.6-0.9-1.2-1.8-1.7-2.8L515.2,111.3z"/>
	<path class="st1" d="M549.1,111.3l-0.4,35.1c-0.8,0.5-1.6,1-2.5,1.4L549.1,111.3z"/>
	<path class="st1" d="M560.3,128.3c-1.7,13.8-14.3,23.6-28.1,21.8c-11.4-1.4-20.4-10.4-21.8-21.8
		C526.2,120.8,544.5,120.8,560.3,128.3z"/>
	<path class="st0" d="M593.2,183.1c0,4.3-0.5,8.6-1.4,12.8c-1.7,7.6-4.9,14.7-9.5,21c-1.5,2.1-3.2,4.1-5,6
		c-7.9,8.3-18.1,14.1-29.3,16.7c-2,0.5-4.1,0.8-6.1,1c-2.2,0.3-4.4,0.4-6.6,0.4c-7.3,0-14.4-1.3-21.2-4c-1.9-0.7-3.8-1.6-5.7-2.6
		c-13.1-6.9-23.1-18.5-27.9-32.4c-0.7-2-1.3-4-1.7-6.1c-0.4-1.6-0.7-3.2-0.9-4.8c-0.4-2.6-0.5-5.3-0.5-7.9c0-5.7,0.8-11.4,2.5-16.9
		c0.3-1.1,0.7-2.2,1.1-3.3c11.2-30,44.5-45.2,74.5-34c11.2,4.2,20.9,11.8,27.6,21.7l0,0C589.7,160,593.2,171.4,593.2,183.1z"/>
	<path class="st1" d="M481,162.9l-0.5,39.1c-0.7-2-1.3-4-1.7-6.1c-0.4-1.6-0.7-3.2-0.9-4.8l2-24.8C480.3,165,480.6,163.9,481,162.9z
		"/>
	<path class="st1" d="M515.2,150.3l-1.1,86.6c-1.9-0.7-3.8-1.6-5.7-2.6L515.2,150.3z"/>
	<path class="st1" d="M549.1,150.3l-1.1,89.2c-2,0.5-4.1,0.8-6.1,1L549.1,150.3z"/>
	<path class="st1" d="M583.1,150.3L583.1,150.3l-0.8,66.5c-1.5,2.1-3.2,4.1-5,6L583.1,150.3L583.1,150.3z"/>
	<path class="st1" d="M591.8,195.8c-7,31.2-38,50.8-69.2,43.7c-21.8-4.9-38.8-21.9-43.7-43.7C513.7,175.4,556.9,175.4,591.8,195.8z"
		/>
	<path class="st2" d="M647.3,295c0,27.1-9.8,53.3-27.7,73.7c-2.4,2.7-4.8,5.2-7.4,7.7c-13.3,12.6-29.4,21.7-47,26.5
		c-2.9,0.8-5.8,1.5-8.8,2c-15,2.9-30.4,2.6-45.3-0.6c-2.9-0.6-5.8-1.4-8.6-2.3c-17-5.2-32.5-14.4-45.2-26.8
		c-2.4-2.3-4.7-4.7-6.8-7.2c-40.4-46.9-35.1-117.6,11.8-158c46.9-40.4,117.6-35.1,158,11.8C637.7,242.2,647.3,268.2,647.3,295z"/>
	<polygon class="st1" points="449.7,367.8 451,227.1 442.8,360.5 	"/>
	<path class="st1" d="M505.1,227.1l-1.6,169.8c-2.9-0.6-5.8-1.4-8.6-2.3L505.1,227.1z"/>
	<path class="st1" d="M559.2,227.1l-1.6,168.4c-2.9,0.8-5.8,1.5-8.8,2L559.2,227.1z"/>
	<polygon class="st1" points="612.1,361.2 613.3,227.1 604.6,368.9 	"/>
	<path class="st0" d="M731.6,697.7c0.1,48.8-18.1,95.9-51,132c-3.6,4-7.3,7.8-11.2,11.4c-1.1,1-2.2,2-3.3,3
		c-0.1,0.1-0.2,0.2-0.2,0.2c-0.6,0.6-1.2,1.1-1.8,1.6c-11.6,10.1-24.3,18.7-37.8,25.8c-1.8,0.9-3.6,1.8-5.4,2.7
		c-2.5,1.2-5.1,2.4-7.7,3.5c-1.7,0.8-3.5,1.5-5.3,2.2c-11.6,4.6-23.7,8.1-35.9,10.4c-1.8,0.3-3.6,0.7-5.4,0.9
		c-2.8,0.5-5.6,0.8-8.4,1.2c-1.7,0.2-3.4,0.4-5.2,0.5c-5.8,0.5-11.6,0.8-17.5,0.8s-11.8-0.3-17.6-0.8c-1.8-0.2-3.6-0.3-5.4-0.6
		c-2.8-0.3-5.6-0.7-8.3-1.1c-1.7-0.3-3.4-0.6-5.1-0.9c-12-2.3-23.8-5.6-35.2-10.1c-1.8-0.7-3.6-1.4-5.4-2.2c-2.5-1-5-2.2-7.4-3.3
		c-1.7-0.8-3.3-1.6-5-2.5c-12.8-6.6-24.9-14.5-36-23.8c-1.8-1.5-3.6-3-5.4-4.6s-3.8-3.4-5.6-5.2c-1.6-1.6-3.3-3.2-4.8-4.8
		c-35.4-36.6-55.2-85.5-55.1-136.4c0-5.9,0.3-11.8,0.8-17.6c8.9-100.2,93-178.7,195.5-178.7s186.6,78.5,195.5,178.7
		C731.3,685.9,731.6,691.8,731.6,697.7z"/>
	<g class="st3">
		<path d="M731.6,697.7c0.1,48.8-18.1,95.9-51,132c-3.6,4-7.3,7.8-11.2,11.4c-1.1,1-2.2,2-3.3,3c-0.1,0.1-0.2,0.2-0.2,0.2
			c-0.6,0.6-1.2,1.1-1.8,1.6c-11.6,10.1-24.3,18.7-37.8,25.8c-1.8,0.9-3.6,1.8-5.4,2.7c-2.5,1.2-5.1,2.4-7.7,3.5
			c-1.7,0.8-3.5,1.5-5.3,2.2c-11.6,4.6-23.7,8.1-35.9,10.4c-1.8,0.3-3.6,0.7-5.4,0.9c-2.8,0.5-5.6,0.8-8.4,1.2
			c-1.7,0.2-3.4,0.4-5.2,0.5c-5.8,0.5-11.6,0.8-17.5,0.8s-11.8-0.3-17.6-0.8c-1.8-0.2-3.6-0.3-5.4-0.6c-2.8-0.3-5.6-0.7-8.3-1.1
			c-1.7-0.3-3.4-0.6-5.1-0.9c-12-2.3-23.8-5.6-35.2-10.1c-1.8-0.7-3.6-1.4-5.4-2.2c-2.5-1-5-2.2-7.4-3.3c-1.7-0.8-3.3-1.6-5-2.5
			c-12.8-6.6-24.9-14.5-36-23.8c-1.8-1.5-3.6-3-5.4-4.6s-3.8-3.4-5.6-5.2c-1.6-1.6-3.3-3.2-4.8-4.8c-35.4-36.6-55.2-85.5-55.1-136.4
			c0-5.9,0.3-11.8,0.8-17.6c8.9-99.2,90.8-176,190.4-178.6c1.7,0,3.5-0.1,5.2-0.1c4.1,0,8.2,0.1,12.3,0.4
			c96.7,6.1,174.6,81.8,183.2,178.3C731.3,685.9,731.6,691.8,731.6,697.7z"/>
	</g>
	<path class="st1" d="M669.8,554.7c-12.1,5-28.3,9.1-47.2,12.1l-2.5,0.4c-17.1,2.5-34.4,4-51.7,4.5c-0.9,0-1.8,0.1-2.7,0.1
		c-4.2,0.1-8.4,0.2-12.7,0.2c-4.7,0-9.3-0.1-13.8-0.2l0,0c-4.5,0.1-9.2,0.2-13.8,0.2c-3.7,0-7.3,0-11-0.1l-2.7-0.1
		c-17.2-0.4-34.3-1.8-51.3-4.2l-2.5-0.4c-21-3.2-38.7-7.8-51.5-13.4l-1.8-0.8l-1.2-0.5c34.8-31.7,79.8-49.8,126.8-50.9
		c2.8,1.8,5.8,3.2,8.9,4.2l0,0c3-1,5.8-2.3,8.5-3.9C593.2,504.6,636.5,523.3,669.8,554.7z"/>
	<path class="st1" d="M406.5,631l-2,213.1c-1.9-1.7-3.8-3.4-5.6-5.2c-1.6-1.6-3.3-3.2-4.8-4.8L406.5,631z"/>
	<path class="st1" d="M460.6,631l-2.3,247.3c-2.5-1-5-2.2-7.4-3.3c-1.7-0.8-3.3-1.6-5-2.5L460.6,631z"/>
	<path class="st1" d="M514.8,631l-2.5,261.7c-2.8-0.3-5.6-0.7-8.3-1.1c-1.7-0.3-3.4-0.6-5.1-0.9L514.8,631z"/>
	<path class="st1" d="M568.9,631l-2.4,260.5c-2.8,0.5-5.6,0.8-8.4,1.2c-1.7,0.2-3.4,0.4-5.2,0.5L568.9,631z"/>
	<path class="st1" d="M623,631l-2.3,243.5c-2.5,1.2-5.1,2.4-7.7,3.5c-1.7,0.8-3.5,1.5-5.3,2.2L623,631z"/>
	<path class="st1" d="M677.1,631l-1.9,203.7c-3.6,3.9-7.3,7.7-11.2,11.4L677.1,631z"/>
	<path class="st2" d="M412,527.8c0,21.5,63.1,39,140.9,39s140.9-17.5,140.9-39c0-21.5-140.9-65.4-140.9-39S412,506.3,412,527.8z"/>
	<g class="st4">
		<path d="M693.8,527.8c0,6.7-6.2,13.1-17.1,18.6l-1.7,0.9c-12.5,6-30.7,11-52.5,14.4l-2.5,0.4c-17.1,2.5-34.4,4-51.7,4.5
			c-0.9,0-1.8,0.1-2.7,0.1c-4.2,0.1-8.4,0.2-12.7,0.2c-4.7,0-9.3-0.1-13.8-0.2l0,0c-8.5-0.2-16.8-0.7-24.8-1.3l-2.6-0.2
			c-17.3-1.4-34.5-4-51.4-7.9l-2.2-0.5c-28.3-7.2-46.1-17.4-46.1-28.9c0-17.4,91.6-14.9,127.1-27.1l0,0c8.5-3,13.8-6.8,13.8-11.9
			C552.9,462.4,693.8,506.3,693.8,527.8z"/>
	</g>
	<path class="st2" d="M666.2,527.8c0,11.1-16.7,21.1-43.6,28.2l-2.2,0.6c-17.1,4.1-34.5,6.9-52,8.4l-2.6,0.2
		c-8.6,0.7-17.5,1.2-26.7,1.5l0,0c-4.5,0.1-9.1,0.2-13.8,0.2c-3.7,0-7.3,0-11-0.1l-2.7-0.1c-17.2-0.4-34.3-1.8-51.3-4.2
		c-0.8-0.1-1.7-0.3-2.5-0.4c-21-3.2-38.7-7.8-51.5-13.3l-1.8-0.8c-12.8-5.9-20.2-12.8-20.2-20.1c0-21.5,140.9-65.4,140.9-39
		c0,5.1,5.3,8.9,13.8,11.9l0,0C574.6,512.9,666.2,510.5,666.2,527.8z"/>
	<path class="st0" d="M638.5,398.2c-0.1,56.9-46.2,102.9-103.1,102.9C478.5,501,432.4,454.9,432.5,398S478.7,295,535.6,295.1
		c46.1,0.1,86.6,30.8,99.1,75.2C637.2,379.4,638.5,388.8,638.5,398.2z"/>
	<g class="st3">
		<path d="M638.5,398.2c-0.1,56.9-46.2,102.9-103.1,102.9C478.5,501,432.4,454.9,432.5,398S478.7,295,535.6,295.1
			c46.1,0.1,86.6,30.8,99.1,75.2C637.2,379.4,638.5,388.8,638.5,398.2z"/>
	</g>
	<path class="st1" d="M435.3,292.5h200c6.6,0,12,5.4,12,12v49c0,6.6-5.4,12-12,12h-200c-6.6,0-12-5.4-12-12v-49
		C423.3,297.9,428.7,292.5,435.3,292.5z"/>
	<path class="st1" d="M634.7,370.3c-0.8,0.1-1.6,0.2-2.5,0.2H438.4c-0.8,0-1.7-0.1-2.5-0.2c10.3-36.5,39.7-64.4,76.7-72.8H558
		C595,305.9,624.4,333.9,634.7,370.3z"/>
	<path class="st0" d="M438.4,295h193.8c8.3,0,15.1,6.8,15.1,15.1v42.8c0,8.3-6.8,15.1-15.1,15.1H438.4c-8.3,0-15.1-6.8-15.1-15.1
		v-42.8C423.3,301.8,430.1,295,438.4,295z"/>
	<circle class="st1" cx="477.4" cy="388.2" r="13.8"/>
	<circle class="st0" cx="477.4" cy="386.9" r="13.8"/>
	<circle class="st1" cx="593.2" cy="388.2" r="13.8"/>
	<circle class="st0" cx="593.2" cy="386.9" r="13.8"/>
	<circle class="st5" cx="477.4" cy="386.9" r="6.3"/>
	<circle class="st5" cx="593.2" cy="386.9" r="6.3"/>
	<circle class="st6" cx="478.7" cy="384.4" r="1.3"/>
	<circle class="st6" cx="590.7" cy="384.4" r="1.3"/>
	<circle class="st1" cx="535.3" cy="605.8" r="25.2"/>
	<circle class="st1" cx="535.3" cy="667.5" r="25.2"/>
	<circle class="st1" cx="535.3" cy="729.2" r="25.2"/>
	<circle class="st1" cx="535.3" cy="790.8" r="25.2"/>
	<circle class="st1" cx="535.3" cy="852.5" r="25.2"/>
	<circle class="st5" cx="535.3" cy="605.8" r="22.6"/>
	<circle class="st5" cx="535.3" cy="667.5" r="22.7"/>
	<circle class="st5" cx="535.3" cy="729.2" r="22.7"/>
	<circle class="st5" cx="535.3" cy="790.8" r="22.7"/>
	<circle class="st5" cx="535.3" cy="852.5" r="22.7"/>
	<path class="st5" d="M589.4,452.3c0,6.2-24.2,26.4-54.1,26.4s-54.1-20.2-54.1-26.4c0-2.9,5.2-2.3,13.8-0.8
		c9.9,1.7,24.3,4.6,40.3,4.6s30.4-2.9,40.3-4.6C584.2,450,589.4,449.4,589.4,452.3z"/>
	<path class="st1" d="M535.3,482.5L535.3,482.5c-5.6,0-10.1-4.5-10.1-10.1v0l4.7-73c0.2-2.8,2.5-5,5.4-5l0,0c2.8,0,5.2,2.2,5.4,5
		l4.7,73C545.4,478,540.9,482.5,535.3,482.5L535.3,482.5z"/>
	<path class="st2" d="M535.3,480L535.3,480c-5.5,0-10-4.5-10.1-10l4.7-73c0.2-2.8,2.5-5,5.4-5l0,0c2.8,0,5.2,2.2,5.4,5l4.7,73
		C545.3,475.5,540.8,480,535.3,480z"/>
	<g class="st7">
		<circle class="st8" cx="459.8" cy="415.8" r="8.8"/>
	</g>
	<g class="st7">
		<circle class="st8" cx="610.8" cy="415.8" r="8.8"/>
	</g>
	<polygon class="st1" points="406.2,548.7 406.5,514 404.5,547.9 	"/>
	<path class="st1" d="M460.6,514l-0.4,43.2l0,5.2c-0.8-0.1-1.7-0.3-2.5-0.4l0.3-5.4L460.6,514z"/>
	<path class="st1" d="M514.8,514l-0.5,51.3v1.4l-2.7-0.1l0.1-1.5L514.8,514z"/>
	<path class="st1" d="M568.9,514l-0.5,51v1.6c-0.9,0-1.8,0.1-2.7,0.1l0.1-1.5L568.9,514z"/>
	<path class="st1" d="M623,514l-0.4,42v5.7l-2.5,0.4l0.3-5.5L623,514z"/>
	<polygon class="st1" points="676.8,546.5 677.1,514 675,547.3 	"/>
	<polygon class="st1" points="448.1,360.5 451,312.7 450.5,360.5 	"/>
	<polygon class="st1" points="504.6,360.5 505.1,312.7 502.2,360.5 	"/>
	<polygon class="st1" points="559.2,312.7 558.7,360.5 556.3,360.5 	"/>
	<polygon class="st1" points="610.4,360.5 613.3,312.7 612.9,360.5 	"/>
</g>
<title>frozen figure</title>
</svg>
