<?xml version="1.0" encoding="utf-8"?>
<!-- Generator: Adobe Illustrator 19.0.0, SVG Export Plug-In . SVG Version: 6.00 Build 0)  -->
<svg version="1.1" xmlns="http://www.w3.org/2000/svg" xmlns:xlink="http://www.w3.org/1999/xlink" x="0px" y="0px"
	 viewBox="0 0 1000 1000" style="enable-background:new 0 0 1000 1000;" xml:space="preserve">
<style type="text/css">
	.st0{opacity:0.1;}
	.st1{fill:#6C63FF;}
	.st2{opacity:0.1;fill:#6C63FF;enable-background:new    ;}
	.st3{fill:url(#SVGID_1_);}
	.st4{fill:#7FB72B;}
	.st5{opacity:5.000000e-02;enable-background:new    ;}
	.st6{opacity:0.1;enable-background:new    ;}
	.st7{fill:#936868;}
	.st8{fill:#FEEA59;}
	.st9{fill:url(#SVGID_2_);}
	.st10{fill:#CBCDDA;}
	.st11{fill:#FFB9B9;}
	.st12{fill:#4C4C78;}
	.st13{fill:#B96B6B;}
</style>
<g id="_x23_background" class="st0">
	<path class="st1" d="M54.1,207.8c10.4,14.9,7.7,35.8-0.3,52.1c-7.9,16.3-20.2,29.8-29.2,45.5c-17.9,31.3-18.6,77.8,10.4,99
		c6.2,4.6,13.7,7.9,17.9,14.5c5.8,9.1,3.5,21.1,0.9,31.6l-0.2,0.9c-9.7,39.8,14.8,80.1,53.8,88.3c21.6,4.5,41.5,13.3,57.3,29.3
		c13.8,14,22.7,32.1,32.6,49.2c17.9,30.9,39.8,60,68.2,80.9c28.3,20.9,63.8,33.1,98.1,28.2c78.5-11.1,127.6-103.1,205.9-115.7
		c5.6-0.9,11.7-1.3,16.8,1.4c7.2,3.9,10.2,12.6,13.8,20.1c19.2,39.7,66.1,54.1,107.7,64.4l78.4,19.3c42.6,10.5,87.2,21,129.4,9.7
		c42.2-11.3,80.3-52.1,73.8-96.8c-5.4-36.8-38.3-66.2-38.2-103.3c0-25.7,16.2-48.9,16.6-74.5c0.5-26.7-16.1-50.6-34.3-69.7
		c-52.3-55-122.1-87.6-190.2-118.9c-48-22.1-96.1-44.2-146.8-58.4C471.7,170,340.2,185.7,211.1,186c-22.2,0.1-45.4-0.2-66.6-8.1
		c-16.2-6.1-30.2-22.7-47.5-24.7c-13.2-1.5-31.7,6.4-42.3,14.1C35.3,181.3,42,190.6,54.1,207.8z"/>
</g>
<g id="_x23_wild_x28_have_x5B_sunflower_x5D__x29_">
	<path class="st2" d="M314.9,826c-6.9,1.7-14-0.3-21.1-0.4c-7.1-0.1-15.3,2.9-17.1,9.7c-2.3,9.2,8.4,16.2,17.7,18.4
		c35.8,8.9,73.6-2.6,110.2,2.1c15.4,2,30.4,6.8,45.9,8c35.5,2.6,70.1-14.2,105.6-12.3c17.8,0.9,35.1,6.6,52.9,7.5
		c42.6,2.2,84.6-22.8,126.2-13.9c11.8,2.5,22.8,7.7,34.5,10.7c29.5,7.6,60.5,0.9,90.2-5.9c5.9-1.3,13-3.9,13.7-9.9
		c0.8-6.6-6.8-10.8-13.1-12.9c-69.1-23.1-143.1-35.4-215.2-24.7c-16.4,2.4-32.8,6-49.4,5.8c-36.7-0.5-70.4-19.7-106.5-26.7
		C421,768.3,352.7,799.2,290,829.4"/>
	
		<linearGradient id="SVGID_1_" gradientUnits="userSpaceOnUse" x1="518.6103" y1="141.3844" x2="518.6103" y2="777.0425" gradientTransform="matrix(1 0 0 -1 -33.33 964.06)">
		<stop  offset="0" style="stop-color:#808080;stop-opacity:0.25"/>
		<stop  offset="0.54" style="stop-color:#808080;stop-opacity:0.12"/>
		<stop  offset="1" style="stop-color:#808080;stop-opacity:0.1"/>
	</linearGradient>
	<path class="st3" d="M748.8,730.1c-3.4-4-7.2-7.6-11.4-10.6c0.9-0.6,1.7-1.3,2.6-1.9c10.9-8.1,20.2-16.4,22.2-22.4
		c5.3-15.8,60.2-44.8,60.2-44.8s-56.2,10.5-85.6-6.6c-17.6-10.2-44.6-12-63.6-11.8l0.1-0.3l0.3-0.6c0.1-0.3,0.3-0.6,0.4-0.9
		s0.3-0.5,0.4-0.8l0.1-0.2c0.2-0.4,0.4-0.8,0.6-1.1c0.5-0.9,1.1-1.9,1.7-2.8v-0.1c1.5-2.4,3.2-4.6,5-6.8l0.1-0.1
		c1.4-1.7,2.9-3.5,4.4-5l0.1-0.1l1.1-1.1l0.2-0.2c1.4-1.5,2.8-2.9,4.2-4.2l0.3-0.3l0.9-0.8l0.4-0.4l0.8-0.7l0.4-0.4l1.1-1l0.6-0.6
		l0.5-0.4l0.7-0.6l0.3-0.3l0.9-0.8l0.1-0.1c2.8-2.4,4.6-3.8,4.6-3.8h0l0,0c-0.9,0.6-1.8,1.2-2.8,1.7l-0.1,0.1l-0.9,0.4l-0.2,0.1
		l-0.8,0.3l-0.4,0.2l-0.6,0.3l-0.6,0.2l-0.5,0.2l-0.7,0.3l-0.3,0.1l-0.9,0.3l-0.2,0l-1.1,0.3l0,0c-19.5,5-47.3-2.4-49.8-3.1l-0.2,0
		l0,0c0,0-11.1-2.3-25.6-4.4l0,0c6.7-13.7,13.4-26.6,19.6-38.1c5.4,11.7,14.5,21.4,25.9,27.4c0.4-0.5,0.9-1,1.2-1.5
		c1.3,0.7,2.1,1.1,2.1,1.1c3.6-4.1,6.1-9.1,7.3-14.5c3.7,3.5,7.9,6.5,12.5,8.8c0.4-0.4,0.7-0.8,1.1-1.3c0.5,0.3,0.8,0.4,0.8,0.4
		c7.2-8.1,9.1-18.6,8.3-29.3c13.4,5.1,28.3,5.2,41.7,0.2c0-0.1,0-0.1,0-0.2c1.2-0.4,1.9-0.7,1.9-0.7c-1.1-8-5.2-14.7-10.7-20.2
		c25.8,0.5,39.7-15.4,39.7-15.4l-0.1-0.2c1.1-1,1.6-1.6,1.6-1.6c-3.4-4.8-7.7-8.9-12.7-12.1c11.8-7,16.9-16,16.9-16
		c-0.3-0.3-0.6-0.5-0.9-0.8c0.6-0.9,1-1.5,1-1.5c-0.6-0.6-1.3-1.2-2-1.7c0.4-0.7,0.7-1,0.7-1c-10.4-9.7-24.1-13.3-37.7-13.7
		c8.2-9.1,13.3-20.7,14.5-33c-10.4-3.4-20.9-1-30.6,3.8c0.8-9-0.5-18-3.8-26.3c2.6,2,5.5,3.8,8.5,5.2c0.4-0.4,0.7-0.9,1.1-1.3
		c0.5,0.3,0.9,0.4,0.9,0.4c7.1-8.2,8.8-18.8,7.9-29.4c13.5,4.9,28.3,4.7,41.7-0.5v-0.2c1.2-0.4,1.9-0.7,1.9-0.7
		c-1.2-8-5.4-14.6-11.1-20c25.8,0.1,39.4-16.1,39.4-16.1l-0.2-0.2c1-1,1.6-1.6,1.6-1.6c-3.5-4.7-7.9-8.8-12.9-11.8
		c11.7-7.1,16.6-16.2,16.6-16.2c-0.3-0.3-0.6-0.5-0.9-0.8c0.6-0.9,0.9-1.5,0.9-1.5c-0.7-0.6-1.3-1.2-2-1.7c0.4-0.7,0.6-1.1,0.6-1.1
		c-10.5-9.6-24.3-12.9-38-13.1c8-9.3,12.9-20.9,13.8-33.2c-10.4-3.2-20.9-0.7-30.5,4.3c0.7-9.7-1-19.5-5.2-28.4
		c-0.7,0.1-1.4,0.3-2.1,0.5c-0.2-0.3-0.3-0.5-0.3-0.5l0,0c-0.3-0.6-0.4-0.9-0.4-0.9c-11.8,2.4-20.3,10.9-26.4,21.2
		c-0.4,0.8-0.9,1.5-1.3,2.3c-4.5-11.1-12.3-20.5-22.3-27c-8.8,8.3-11.4,20.2-10.9,32.1c0,0.8,0.1,1.6,0.1,2.4
		c-10.1-7.9-22.5-12.3-35.3-12.5c-1.8,7.1-1,14.1,1.5,20.7c-8.6-1.3-17.5-0.7-25.8,1.8c0,0.1,0,0.2,0,0.3c-1.2,0.3-1.9,0.6-1.9,0.6
		c0.7,10,6,18.3,13.4,25c-11.3,1.7-21.9,6.6-30.5,14.3c0.3,0.5,0.6,1,0.9,1.5c-0.6,0.5-0.9,0.9-0.9,0.9c5.3,9.3,14.5,14.6,24.8,17.5
		c-10.5,6.3-18.7,15.7-23.5,26.9c0.3,0.2,0.5,0.3,0.8,0.5c-0.5,1.1-0.8,1.8-0.8,1.8c8.8,6.3,19.5,7.2,30,5.5
		c-1.7,6.1-2.4,12.4-2.1,18.7c-6.5,9.1-13.1,18.7-19.6,28.3c-1.2-0.1-1.8-0.1-1.8-0.1c-0.4,1.3-0.6,2.6-0.8,4
		c-3.6,5.3-7.1,10.7-10.6,16c-4.5,0.1-8.9,0.9-13.2,2.1c0,0.1,0,0.2,0,0.3c-1.2,0.3-1.9,0.5-1.9,0.5c0,0.1,0,0.3,0,0.4
		c-5.8-7.8-13.9-13.7-22.6-18c11.4-4.8,21-13.2,27.3-23.8c-7.9-7.4-18.5-9.7-29.3-9.3c5-8.4,7.8-17.9,8-27.7
		c-0.7-0.2-1.4-0.3-2.1-0.4c0-0.4,0-0.6,0-0.6l0,0c0-0.7,0-1,0-1c-11.7-3-23.1,1-33.2,7.6c-0.7,0.5-1.5,1-2.2,1.5
		c0.9-11.9-1.9-23.7-8-33.9c-11.6,3.7-19.2,13.2-24.1,24.2c-0.3,0.7-0.6,1.5-1,2.3c-5.6-11.5-14.7-20.8-26.1-26.6
		c-4.8,5.6-7.1,12.3-7.9,19.3c-7.2-4.9-15.4-8.2-24-9.6l-0.1,0.3c-1.3-0.2-2-0.3-2-0.3c-3.9,9.3-2.7,19.1,0.9,28.3
		c-11-3.4-22.8-3.5-33.8-0.4c0,0.6,0.1,1.1,0.1,1.7c-0.8,0.2-1.2,0.4-1.2,0.4c0.6,10.6,6.5,19.4,14.5,26.4c-12.2,1.1-23.6,6-32.9,14
		c0.1,0.3,0.3,0.5,0.4,0.8c-1,0.8-1.5,1.3-1.5,1.3c5.1,9.4,14.3,14.9,24.5,18c-6,6.5-10.3,14.3-12.7,22.8c0.8,0.4,1.6,0.8,2.3,1.1
		c-0.2,0.6-0.3,0.9-0.3,0.9c11,5.9,23.6,4.5,35.3,0.2c-3.5,24.6,11.1,41.9,11.1,41.9c0.6-0.3,1.2-0.5,1.7-0.9
		c0.9,1.2,1.4,1.9,1.4,1.9c5.1-2.2,9.5-5.7,12.9-10.1c1.8,4.7,4.4,9.2,7.5,13.2c0.5-0.2,1-0.5,1.5-0.7c0.4,0.5,0.6,0.7,0.6,0.7
		c5.1-2.2,9.5-5.7,12.9-10c1.1,25.2,2.1,66.7-0.7,109.5c-1.7,26.1-4.9,52.7-10.4,76.4c-9.9-40.9-22.7-90.5-35.6-131.8
		c-14.1-45-41.2-87.9-66.4-127.9c-18-28.5-40.7-63.5-62-93c19.8,6.6,35.4-0.3,35.4-0.3s0-0.2-0.1-0.2c1.4-0.4,2.1-0.8,2.1-0.8
		c-1-5.8-3.2-11.3-6.3-16.2c13.7-1.4,22.2-7.4,22.2-7.4c-0.1-0.4-0.3-0.7-0.5-1.1c1-0.6,1.5-0.9,1.5-0.9c-0.3-0.9-0.7-1.6-1.1-2.4
		c0.7-0.4,1.1-0.7,1.1-0.7c-5.2-13.2-16.1-22.1-28.3-28.2c11.4-4.8,21-13.1,27.3-23.8c-7.9-7.4-18.5-9.7-29.3-9.3
		c5-8.4,7.8-17.9,8-27.7c-0.7-0.2-1.4-0.3-2.1-0.4c0-0.4,0-0.6,0-0.6l0,0c0-0.7,0-1,0-1c-11.7-3-23.1,1-33.2,7.6
		c-0.7,0.5-1.5,1-2.2,1.5c0.9-11.9-1.9-23.7-8-33.9c-11.6,3.7-19.2,13.2-24.1,24.2c-0.3,0.7-0.6,1.5-1,2.3
		c-5.6-11.5-14.7-20.8-26.1-26.6c-4.8,5.6-7.1,12.3-7.9,19.3c-7.2-4.9-15.4-8.2-24-9.6l-0.1,0.3c-1.3-0.2-2-0.3-2-0.3
		c-3.9,9.3-2.7,19.1,0.9,28.3c-11-3.4-22.8-3.5-33.8-0.4c0,0.6,0.1,1.1,0.1,1.7c-0.8,0.2-1.2,0.4-1.2,0.4
		c0.6,10.6,6.5,19.4,14.5,26.4c-12.2,1.1-23.7,6-33,14c0.1,0.3,0.3,0.5,0.4,0.8c-1,0.8-1.5,1.3-1.5,1.3c5.1,9.4,14.3,14.9,24.5,18
		c-6,6.5-10.3,14.3-12.7,22.8c0.8,0.4,1.6,0.8,2.3,1.1c-0.2,0.6-0.3,0.9-0.3,0.9c11,5.9,23.6,4.5,35.3,0.2
		c-3.5,24.6,11.1,41.9,11.1,41.9c0.6-0.3,1.2-0.5,1.7-0.9c0.9,1.2,1.4,1.9,1.4,1.9c5.1-2.2,9.5-5.7,12.9-10.1
		c1.8,4.7,4.4,9.2,7.5,13.2c0.5-0.2,1-0.5,1.5-0.7c0.4,0.5,0.6,0.7,0.6,0.7c10-4.3,16.3-13,20.2-23c14.1,14.8,32,17.2,36.6,17.6
		c26.2,37.1,58.1,85.2,78.3,126.8c0,0,41.6,80.4,68.2,164.8c-13.5-14.2-31.9-34.9-36.1-45.5c-6.7-17.1-89.6,0-89.6,0l0,0l-0.2,0
		c-2.6,0.7-30.3,8.1-49.8,3.1l0,0l-1.1-0.3l-0.2,0l-0.9-0.3l-0.3-0.1l-0.7-0.3l-0.5-0.2l-0.6-0.2l-0.6-0.3l-0.4-0.2l-0.8-0.3
		l-0.2-0.1l-0.9-0.4l-0.1-0.1c-1-0.5-1.9-1.1-2.8-1.7l0,0h0c7.5,5.9,14.5,12.5,20.7,19.7l0.2,0.2l1.1,1.3l0.3,0.4
		c0.4,0.4,0.7,0.9,1.1,1.3l0.2,0.3c0.4,0.5,0.8,1.1,1.2,1.6l0.3,0.4c0.3,0.4,0.5,0.8,0.8,1.1l0.4,0.7l0.6,0.9l0.5,0.8l0.5,0.9
		c0.2,0.3,0.3,0.5,0.5,0.8l0.1,0.1c0.3,0.5,0.5,0.9,0.7,1.4l0.2,0.5c0.2,0.4,0.4,0.8,0.6,1.2l0.2,0.4l0.2,0.4
		c-19-0.2-46.1,1.5-63.6,11.8c-29.4,17.1-85.6,6.6-85.6,6.6s54.9,29,60.2,44.8c2.1,6.3,12.6,15.4,24.4,23.9l2.5,1.8
		c-3.5,2.7-6.6,5.8-9.5,9.2c-26.8,31.6-91,63.2-91,63.2h0.2l0.6,0.1l0.9,0.1l1.7,0.2h0.3c13.7,1.3,62.1,6.3,89.7,14.6
		c1,0.3,2,0.6,2.9,0.9c8,2.6,53.5-1.3,84.3-10.5c0.9-0.3,1.7-0.5,2.6-0.7l0.8-0.2c0.6-0.2,1.3-0.3,1.9-0.4l0.8-0.2
		c0.9-0.2,1.7-0.3,2.6-0.5h0.1c0.9-0.1,1.7-0.3,2.6-0.4l0.8-0.1l1.9-0.2l0.8-0.1c0.8-0.1,1.6-0.1,2.3-0.2h0.3c0.9,0,1.7-0.1,2.5-0.1
		h0.9h2.6h1.8l1.2,0l1.7,0.1l1.2,0.1l1.1,0.1l1.4,0.1l0.6,0.1l1.5,0.2l1.1,0.1l0.8,0.1l1.2,0.2l0.6,0.1l0,0c0,0.2-0.1,0.4-0.1,0.6
		c0,0,1.1,6.2,8.4,12.3c-12.4,3.6-22.6,7.6-30.3,12.1c-0.5,0.3-0.9,0.5-1.3,0.8c0.3,0,0.6-0.1,0.9-0.1c0.3,0,0.6,0,0.9,0H642
		c0.3,0,0.6,0,0.9,0c0.3,0,0.6,0.1,0.9,0.1c0.3,0,0.5,0.1,0.8,0.1c0.3,0,0.5,0.1,0.8,0.2c-0.6-0.4-1.2-0.7-1.7-1.1
		c-9.6-5.6-23.2-10.6-39.9-14.7c5-2.6,7.8-5.5,9-8.6c1-0.2,2-0.4,3-0.6c4.1-0.8,8.2-1.4,12.4-1.8l1.7-0.1l0.9-0.1
		c9.6-0.7,19.2,0.2,28.5,2.9c30.8,9.2,76.3,13.2,84.3,10.5c0.9-0.3,1.9-0.6,2.9-0.9c27.6-8.3,75.9-13.3,89.7-14.6h0.3l1.7-0.2
		l0.9-0.1l0.6-0.1h0.2C839.8,793.3,775.6,761.7,748.8,730.1z M711.9,404.1l-0.4,0.1c0-0.1,0.1-0.3,0.1-0.4L711.9,404.1z M581.7,476
		c-1.9,1-3.6,2-5,3c-1.2-4.1-3-8.1-5.2-11.7c6.8-0.7,13.4-2.6,19.4-5.8C587.8,466.4,584.7,471.3,581.7,476z M587.5,500.3
		c2.6,1.2,5.4,2.3,8.2,3.1c-6.6,3.8-12.4,8.9-17.1,15C581.4,512.4,584.4,506.3,587.5,500.3L587.5,500.3z M502.3,609.5
		c2.4-40.2,3.9-83.7,1.8-114.3c8.3,5.5,17.9,8.7,27.9,9.5l0-0.2c1.3,0.1,2,0.2,2,0.2c2.5-7.7,1.7-15.4-1-22.8
		c11.9,5.9,25.5,7.4,38.3,4c0.6,1.1,1.3,2.2,2.1,3.2c-16.7,26.7-28.1,45.9-28.1,45.9c-11.6,17.4-30.6,78.3-48,139.4
		C499.1,656.2,500.9,633.4,502.3,609.5z M553.5,599c-3.2,8.2-14.9,22.4-26.3,35c14.9-37.6,29.9-69.5,38.3-86.7
		c2.4-4.9,4.7-9.8,6.9-14.7c8.6,6,19,7.1,29.3,5.6c-2.6,8.4-3.1,17.3-1.7,26c0.9,0.1,1.7,0.1,2.6,0c0.1,0.6,0.2,0.9,0.2,0.9
		c3.9,0.2,7.9-0.2,11.7-1.4c-4.6,9.3-9.2,19-13.8,28.8l0,0C579.2,590.4,556.8,590.4,553.5,599L553.5,599z M712.7,405.5
		c-0.2-0.3-0.3-0.5-0.3-0.5l0,0c-0.2-0.4-0.3-0.7-0.4-0.8c0.5,0.4,0.9,0.8,1.4,1.2L712.7,405.5z M653.1,399.3
		c7.4-2.5,13.9-7.4,19.5-13.3c3.9,11.4,11.2,21.2,21,28.2c-3.2,3.2-5.9,6.8-8.2,10.6c-0.5,0.8-0.9,1.5-1.3,2.3
		c-4.3-11.2-12-20.7-21.9-27.3c-9,8.2-11.7,20-11.4,31.9c0,0.8,0.1,1.6,0.1,2.4c-4.9-4-10.4-7.1-16.3-9.3
		C640.8,415.8,647.1,407.2,653.1,399.3L653.1,399.3z"/>
	<path class="st4" d="M464.5,662.2c0,0-42.9-42.9-49.4-59.8c-6.5-16.9-87.1,0-87.1,0s-40.3,11.7-58.5-1.3c0,0,28.6,22.1,31.2,40.3
		s104,65,104,65l59.8,55.9l20.8-11.7L464.5,662.2z"/>
	<path class="st5" d="M487,750.5l-20.8,11.7l-16.7-15.6l-43.1-40.3c0,0-101.3-46.8-103.9-65c-0.6-3.7-1.9-7.2-3.8-10.4
		c-8.2-14.9-26.4-29.2-27.4-29.9c18.2,12.9,58.4,1.3,58.4,1.3s80.6-16.9,87.1,0s49.4,59.8,49.4,59.8L487,750.5z"/>
	<path class="st6" d="M458,746.6h-10.2l-43.1-40.3c0,0-101.3-46.8-103.9-65c-0.6-3.7-1.9-7.2-3.8-10.4c8.2,0,16.4,0.4,24.6,1.2
		c28.6,28.6,68.9,42.9,68.9,42.9C430.7,649.2,458,746.6,458,746.6z"/>
	<path class="st4" d="M456.7,750.5h-49.4l-133.8-5.2c0,0-20.1-11.8-37.4-24.5c-11.5-8.5-21.6-17.4-23.7-23.6
		c-5.2-15.6-58.5-44.2-58.5-44.2s54.6,10.4,83.2-6.5c28.6-16.9,83.2-10.4,83.2-10.4c28.6,28.6,68.9,42.9,68.9,42.9
		c22.3-14.4,40.7,9.1,52.6,33C447.8,724.4,452.8,737.3,456.7,750.5z"/>
	<path class="st4" d="M502.2,662.2c0,0,42.9-42.9,49.4-59.8c6.5-16.9,87.1,0,87.1,0s40.3,11.7,58.5-1.3c0,0-28.6,22.1-31.2,40.3
		s-104,65-104,65l-59.8,55.9l-20.8-11.7L502.2,662.2z"/>
	<path class="st5" d="M699.6,601.1c-1,0.8-19.2,15.1-27.4,29.9c-1.9,3.2-3.2,6.7-3.8,10.4c-2.6,18.2-104,65-104,65l-43.1,40.3
		l-16.7,15.6L484,750.6l20.8-88.4c0,0,42.9-42.9,49.4-59.8c6.5-16.9,87.1,0,87.1,0S681.4,614.1,699.6,601.1z"/>
	<path class="st6" d="M459.8,734.6c-1.8,1.7-4.9,3.1-4.3,5.5c0.2,0.8,0.7,1.5,1.4,2c3.4,3,8.9,5.3,8.4,9.8c-0.3,2.6-2.5,4.4-3.6,6.8
		c-2.3,4.9,1.3,11.1,6.4,12.7c5.1,1.7,10.8-0.3,15.1-3.6c0.9-0.7,1.9-1.5,3-1.5c0.9,0.1,1.7,0.4,2.5,0.8c3.5,1.2,7.3-1.4,8.8-4.8
		s1.2-7.2,0.9-10.9c2,1.7,5.2,0.8,6.8-1.2c1.7-2,2.1-4.6,2.6-7.2l3.1-17.8c2.5-0.7,3.5-4,2.3-6.4c-1.1-2.3-3.8-3.6-6.3-3.8
		c-2.6-0.2-5.1,0.3-7.6,0.8c-6.6,1.3-13.3,1.8-20,1.7c-5.6-0.1-12.7-7-15.8-0.9C460.7,722.2,464.8,729.9,459.8,734.6z"/>
	<path class="st6" d="M669.7,631.1c-1.9,3.2-3.2,6.7-3.8,10.4c-2.6,18.2-104,65-104,65l-43.1,40.3h-11.5c0,0,27.2-97.5,67.6-71.5
		c0,0,40.3-14.3,68.9-42.9C652.4,631.4,661,631,669.7,631.1z"/>
	<path class="st4" d="M812.7,653.1c0,0-53.3,28.6-58.5,44.2c-2,5.9-11,14.1-21.6,22c-17.6,13.3-39.5,26-39.5,26l-133.8,5.2H510
		c3.5-11.7,7.8-23.2,12.9-34.3c11.8-25.1,31-52.4,54.6-37.2c0,0,40.3-14.3,68.9-42.9c0,0,54.6-6.5,83.2,10.4
		C758.1,663.4,812.7,653.1,812.7,653.1z"/>
	<path class="st7" d="M689.3,353.6c0,0-80.7,93.7-115,173.5c-3.5,8.2-7.2,16.4-11.1,24.4c-20.6,42.9-82.7,179.5-80.5,264.9l-23.4,5
		c0,0,59.8-244.3,84.5-281.9c0,0,109.2-187.1,145.5-205.3L689.3,353.6z"/>
	<path class="st7" d="M501.8,612.8c-1.4,23.6-3.1,46.1-4.7,64c-0.3,3.7-0.6,7.2-0.9,10.5c-1.6,18-2.8,29.4-2.8,29.4v0.1
		c-0.3,5.6-2.1,14.2-4.9,24.8c-0.9,3.5-2,7.3-3.2,11.2c-0.2,0.7-0.4,1.4-0.6,2.2c-1,3.3-2.1,6.8-3.2,10.4c-0.5,1.5-0.9,2.9-1.4,4.4
		c-2.6,8.1-5.5,16.7-8.6,25.7c-2.8,8.1-5.8,16.5-8.9,25.1l-0.5,1.4c-0.1,0.2-0.2,0.4-0.2,0.6h-16.3c0.1-0.2,0.1-0.4,0.2-0.6
		c2.5-8.8,4.8-17.4,6.9-25.8c2.1-8.4,4.1-16.6,6-24.5c0.7-3.2,1.5-6.3,2.1-9.3c0.2-1,0.4-2,0.6-2.9c0.1-0.4,0.2-0.9,0.3-1.3
		c0.5-2.1,0.9-4.1,1.3-6c0.2-0.7,0.3-1.5,0.5-2.2l0.4-1.8c1-4.5,1.9-8.9,2.7-12.9c0.7-3.3,1.3-6.4,1.9-9.3c0.8-4.1,1.5-7.9,2.1-11.1
		c1.7-9.2,2.6-14.5,2.6-14.5c0-0.1,0.1-0.2,0.1-0.4c1.1-3.8,2-7.8,2.9-11.8c5.3-23.4,8.4-49.6,10-75.4c4.4-67.6-0.7-132-0.7-132
		l11.5-15.7C506.9,484,505.4,552.2,501.8,612.8z"/>
	<path class="st7" d="M661.1,510.8c0,0-23.8,38.4-47.3,87.3c-2.3,4.8-4.6,9.7-6.9,14.7c-9,19.3-16.9,39.1-23.9,59.2
		c-0.7,1.9-1.3,3.9-1.9,5.8c-1.2,3.6-2.3,7.2-3.3,10.7c-0.4,1.4-0.8,2.8-1.2,4.2c-0.7,2.6-1.4,5.2-2.1,7.8c-1,3.8-1.8,7.5-2.6,11.2
		c0,0-4.9,15-11.5,38.8c-0.4,1.5-0.9,3.1-1.3,4.7c-0.3,1.1-0.6,2.2-0.9,3.4c-2.4,8.8-4.9,18.6-7.5,29c-0.9,3.6-1.7,7.2-2.6,11
		c-1.8,7.5-3.6,15.4-5.3,23.4c0,0.2-0.1,0.4-0.1,0.6h-16.3c0-0.2,0.1-0.4,0.1-0.6c1.1-8.6,2.3-17,3.5-25c0.8-5.8,1.7-11.4,2.5-16.8
		c1.5-9.5,3-18.4,4.5-26.5c0.2-1.1,0.4-2.1,0.6-3.1c0,0,0-0.1,0-0.1c1.7-9.2,3.9-18.3,6.5-27.2c0.7-2.1,1.4-4.2,2.3-6.2
		c0,0,2.2-5.6,6-15.1l2-4.9c2.6-6.3,5.6-13.8,9.1-22.3c0.5-1.2,1-2.4,1.5-3.6c7.1-17.1,15.8-37.5,25-58.3c2.5-5.6,5-11.2,7.6-16.7
		c21.9-47.8,45.8-94,60.5-104.6L661.1,510.8z"/>
	<path class="st7" d="M264.4,300.3c0,0,81.2,104.6,119.6,184.5c0,0,89.7,175.9,87.1,278.3l23.4,5c0,0-26-123.5-52.6-209.9
		c-13.7-44.4-40-86.7-64.5-126.1c-35.2-56.8-89.3-139.5-112.9-151.3V300.3z"/>
	<path class="st7" d="M640.8,823.1c-0.3-0.1-0.5-0.1-0.8-0.2c-0.2-0.1-0.5-0.1-0.7-0.1c-0.3,0-0.6-0.1-0.9-0.1c-0.3,0-0.6,0-0.9,0
		H332c-0.3,0-0.6,0-0.9,0s-0.6,0.1-0.9,0.1c0.4-0.3,0.9-0.5,1.3-0.8c7.4-4.4,17.4-8.4,29.4-11.9c23.9-7,55.9-12,91.9-13.8
		c4.2-0.2,8.5-0.4,12.9-0.5l5.9-0.2c3.9-0.1,7.8-0.1,11.7-0.1c0.7,0,1.3,0,2,0c15.4,0,30.3,0.6,44.5,1.6c6.2,0.5,12.3,1,18.2,1.6
		c17.6,1.8,35.2,4.8,52.4,8.9c16.2,4.1,29.5,9,38.8,14.5C639.6,822.4,640.2,822.7,640.8,823.1z"/>
	<path class="st6" d="M456.7,750.5h-49.4l-133.8-5.2c0,0-20.1-11.8-37.4-24.5c27.4-24.2,72.1-23.7,82.9-17.7
		c11.7,6.5,33.8,3.9,33.8,3.9c16.2-36.7,60.5-14.5,89,5C447.8,724.4,452.8,737.3,456.7,750.5z"/>
	<path class="st4" d="M467.1,735.6c0,0-89.7-80.6-114.4-24.7c0,0-22.1,2.6-33.8-3.9s-63.7-6.5-89.7,24.7s-88.4,62.4-88.4,62.4
		s63,5.4,93.6,15.6c7.8,2.6,52-1.3,81.9-10.4c29.9-9.1,62.4,5.2,62.4,5.2l92.3-37.7L467.1,735.6z"/>
	<path class="st5" d="M475.3,765.1L383,802.7c-9.4-3.8-19.3-6.4-29.4-7.5c-10.1-1.2-21.7-1.1-32.9,2.3c-29.9,9.1-74.1,13-81.9,10.4
		c-30.5-10.2-93.6-15.6-93.6-15.6s62.4-31.1,88.4-62.3s78-31.2,89.7-24.7s33.8,3.9,33.8,3.9c24.7-55.9,114.3,24.7,114.3,24.7l1.9,15
		L475.3,765.1z"/>
	<path class="st6" d="M732.7,719.3c-17.6,13.3-39.5,26-39.5,26l-133.8,5.2H510c3.5-11.7,7.8-23.2,12.9-34.3
		c27.8-20.2,77.5-48.6,94.9-9.2c0,0,22.1,2.6,33.8-3.9C662.1,697.3,705.2,696.7,732.7,719.3z"/>
	<path class="st4" d="M503.5,735.6c0,0,89.7-80.6,114.3-24.7c0,0,22.1,2.6,33.8-3.9c11.7-6.5,63.7-6.5,89.7,24.7
		c26,31.2,88.4,62.4,88.4,62.4s-63,5.4-93.6,15.6c-7.8,2.6-52-1.3-81.9-10.4c-29.9-9.1-62.4,5.2-62.4,5.2l-92.3-37.7L503.5,735.6z"
		/>
	<path class="st5" d="M828.8,794.1c0,0-63,5.4-93.6,15.6c-7.8,2.6-52-1.3-81.9-10.4c-14.9-4.5-30.4-3.3-42.3-0.9
		c-6.9,1.4-13.6,3.4-20.1,6l-92.2-37.7l2.4-18.8l1.5-12.4c0,0,89.7-80.6,114.3-24.7c0,0,22.1,2.6,33.8-3.9
		c11.7-6.5,63.7-6.5,89.7,24.7C766.4,762.9,828.8,794.1,828.8,794.1z"/>
	<path class="st6" d="M612,798.4c-6.9,1.4-13.6,3.4-20.1,6l-92.3-37.7l2.4-18.8c28.7-3.6,83.4,14.9,83.4,14.9S621.5,783.1,612,798.4
		z"/>
	<path class="st6" d="M471,766.8l-92.3,37.7c-9.4-3.8-19.3-6.4-29.4-7.5c-0.2-0.5-0.3-1-0.5-1.6c9.4-53.1,89-48.7,120.1-44.7
		L471,766.8z"/>
	<path class="st4" d="M609,799.1L609,799.1c-1.1,3-3.8,5.9-8.7,8.5c-2.7,1.4-5.5,2.6-8.5,3.5c-11.1,3.5-18.7,7.3-23.7,11
		c-0.3,0.2-0.6,0.4-0.9,0.6H399c-0.1-0.3-0.3-0.5-0.4-0.6c-0.3-0.4-0.4-0.6-0.4-0.6c-19.7-0.6-30.9-5.9-37.3-11.3
		c-7.1-6-8.2-12.1-8.2-12.1c0-0.2,0.1-0.4,0.1-0.6l0,0c8.1-43.4,63.6-47.9,100.1-45.9c3.6,0.2,7.1,0.4,10.2,0.7l2,0.2l4.1,0.4
		l1.7,0.2c2,0.2,3.9,0.5,5.5,0.7c0.9,0.1,1.7,0.3,2.6,0.4c2.9,0.4,4.9,0.8,5.8,0.9l0.5,0.1c0.6-0.5,1.2-0.9,1.9-1.3
		c0.8-0.5,1.7-0.9,2.6-1.3c0.4-0.2,0.8-0.3,1.2-0.4c3.5-1.1,7.1-1.7,10.7-1.9c1.2-0.1,2.4-0.1,3.6-0.1c1.5,0,3.1,0,4.8,0.1
		c1.6,0.1,3.1,0.2,4.7,0.3c0.3,0,0.6,0,0.9,0.1c7.1,0.7,14.1,1.7,21.1,3.1c7.5,1.5,14.8,3.2,21.3,4.9c13.6,3.6,23.4,6.9,23.4,6.9
		S614.7,784,609,799.1z"/>
	
		<ellipse transform="matrix(-0.2462 -0.9692 0.9692 -0.2462 188.1236 1007.415)" class="st1" cx="485.8" cy="430.5" rx="23.4" ry="36.4"/>
	<path class="st1" d="M513.4,414.8c0,0,52.1-29.7,77.3-5.9c0,0-22.8,43.9-78.9,21.5L513.4,414.8z"/>
	<path class="st5" d="M505.2,415c0,0,31.2-51.2,64.8-42.5c0,0,1.3,49.4-58.7,57L505.2,415z"/>
	<path class="st1" d="M503.2,413.9c0,0,31.2-51.2,64.8-42.5c0,0,1.3,49.4-58.7,57L503.2,413.9z"/>
	<path class="st5" d="M509.3,427.4l-0.9-2l-5.3-12.4c0,0,13.7-22.4,32.6-35c9.7-6.5,20.8-10.4,32.2-7.5
		C568,370.4,569.3,419.8,509.3,427.4z"/>
	<path class="st5" d="M535.8,377.9c-0.7,14-7.1,31-27.2,47.5l-0.1-0.1l-5.3-12.4C503.2,412.9,516.8,390.6,535.8,377.9z"/>
	<path class="st1" d="M506.5,425.4l-2.9-2l-10-6.9c0,0-0.4-25.9,8.8-46.7c4.8-10.8,12.1-20.2,23.4-23.8
		C525.8,345.9,553.3,387.1,506.5,425.4z"/>
	<path class="st5" d="M504,423.4h-0.4l-10-6.9c0,0-0.4-25.9,8.8-46.7C508.8,382,512,399.5,504,423.4z"/>
	<path class="st1" d="M486.3,422.6c0,0-32.5-50.3-10.2-76.8c0,0,45.1,20.3,25.9,77.6L486.3,422.6z"/>
	<path class="st5" d="M478.5,425.4c0,0-46.5-37.9-33.4-70c0,0,49.2,5.4,48.5,65.8L478.5,425.4z"/>
	<path class="st1" d="M476.5,425.4c0,0-46.5-37.9-33.3-70c0,0,49.2,5.4,48.5,65.8L476.5,425.4z"/>
	<path class="st5" d="M471.2,431.9c0,0-58.2-14.3-60.1-48.9c0,0,46.7-16.2,72,38.7L471.2,431.9z"/>
	<path class="st1" d="M470.2,433.9c0,0-58.2-14.3-60.1-48.9c0,0,46.7-16.2,72,38.7L470.2,433.9z"/>
	<path class="st5" d="M467.2,443.8c0,0-58.8,11.6-75.1-19c0,0,35.5-34.4,81.6,4.7L467.2,443.8z"/>
	<path class="st1" d="M466.2,445.8c0,0-58.8,11.6-75.1-19c0,0,35.5-34.4,81.6,4.7L466.2,445.8z"/>
	<path class="st5" d="M475.8,441.8c0,0-42.9,41.9-73.3,25.2c0,0,10.9-48.2,70.9-40.8L475.8,441.8z"/>
	<path class="st1" d="M477.8,443.8c0,0-42.9,41.9-73.3,25.2c0,0,10.9-48.2,70.9-40.8L477.8,443.8z"/>
	<path class="st5" d="M474.2,437.2c0,0,7.1,59.5-24.7,73.5c0,0-31.6-38.1,10.9-81.1L474.2,437.2z"/>
	<path class="st1" d="M477.3,438.2c0,0,7.1,59.5-24.7,73.5c0,0-31.6-38.1,10.9-81.1L477.3,438.2z"/>
	<path class="st5" d="M497.1,441.3c0,0,7.1,59.5-24.7,73.5c0,0-31.6-38.1,10.9-81.1L497.1,441.3z"/>
	<path class="st1" d="M499.2,441.3c0,0,7.1,59.5-24.7,73.5c0,0-31.6-38.1,10.9-81.1L499.2,441.3z"/>
	<path class="st5" d="M491.6,442.5c0,0,49.5,33.9,39,66.9c0,0-49.4-1.3-53.8-61.6L491.6,442.5z"/>
	<path class="st1" d="M493.7,442.5c0,0,49.5,33.9,39,66.9c0,0-49.4-1.3-53.8-61.6L493.7,442.5z"/>
	<path class="st5" d="M505.2,434.6c0,0,61.1,14.8,68,55c0,0-45.1,20.3-78.6-42.7L505.2,434.6z"/>
	<path class="st1" d="M507.2,433.6c0,0,61.1,14.8,68,54.9c0,0-45.1,20.3-78.6-42.7L507.2,433.6z"/>
	<path class="st1" d="M486.3,422.6c0,0-32.5-50.3-10.2-76.8c0,0,45.1,20.3,25.9,77.6L486.3,422.6z"/>
	<path class="st5" d="M486.3,422.6c0,0-32.5-50.3-10.2-76.8c0,0,45.1,20.3,25.9,77.6L486.3,422.6z"/>
	<path class="st1" d="M470.2,433.9c0,0-58.2-14.3-60.1-48.9c0,0,46.7-16.2,72,38.7L470.2,433.9z"/>
	<path class="st5" d="M470.2,433.9c0,0-58.2-14.3-60.1-48.9c0,0,46.7-16.2,72,38.7L470.2,433.9z"/>
	<path class="st1" d="M477.8,443.8c0,0-42.9,41.9-73.3,25.2c0,0,10.9-48.2,70.9-40.8L477.8,443.8z"/>
	<path class="st5" d="M477.8,443.8c0,0-42.9,41.9-73.3,25.2c0,0,10.9-48.2,70.9-40.8L477.8,443.8z"/>
	<path class="st1" d="M499.2,441.3c0,0,7.1,59.5-24.7,73.5c0,0-31.6-38.1,10.9-81.1L499.2,441.3z"/>
	<path class="st5" d="M499.2,441.3c0,0,7.1,59.5-24.7,73.5c0,0-31.6-38.1,10.9-81.1L499.2,441.3z"/>
	<path class="st1" d="M507.2,433.6c0,0,61.1,14.8,68,54.9c0,0-45.1,20.3-78.6-42.7L507.2,433.6z"/>
	<path class="st5" d="M507.2,433.6c0,0,61.1,14.8,68,54.9c0,0-45.1,20.3-78.6-42.7L507.2,433.6z"/>
	<path class="st5" d="M513,424.9c0,0,62.8,2.3,77.6,40.3c0,0-40.2,28.9-85.6-26.2L513,424.9z"/>
	<path class="st5" d="M514.1,419.9c0,0,62.8,2.3,77.6,40.3c0,0-40.2,28.9-85.6-26.2L514.1,419.9z"/>
	<path class="st1" d="M514.1,422.9c0,0,62.8,2.3,77.6,40.3c0,0-40.2,28.9-85.6-26.2L514.1,422.9z"/>
	<path class="st8" d="M529.6,439.2c-5,19.8-25,31.9-44.9,26.9c-19.8-5-31.9-25-26.9-44.9c5-19.8,25-31.9,44.8-26.9
		C522.5,399.2,534.6,419.3,529.6,439.2C529.6,439.1,529.6,439.2,529.6,439.2z"/>
	
		<ellipse transform="matrix(-0.2462 -0.9692 0.9692 -0.2462 56.7235 606.1167)" class="st1" cx="264.1" cy="281" rx="23.4" ry="36.4"/>
	<path class="st1" d="M291.6,265.3c0,0,52.1-29.7,77.3-5.9c0,0-22.8,43.9-78.9,21.5L291.6,265.3z"/>
	<path class="st5" d="M283.4,265.4c0,0,31.2-51.2,64.8-42.5c0,0,1.3,49.4-58.7,57L283.4,265.4z"/>
	<path class="st1" d="M281.4,264.4c0,0,31.2-51.2,64.8-42.5c0,0,1.3,49.4-58.7,57L281.4,264.4z"/>
	<path class="st5" d="M287.5,277.8l-0.9-2l-5.3-12.4c0,0,13.7-22.4,32.6-35c9.7-6.5,20.8-10.4,32.2-7.5
		C346.2,220.9,347.5,270.3,287.5,277.8z"/>
	<path class="st5" d="M314,228.4c-0.7,14-7.1,31-27.2,47.5l-0.1-0.1l-5.3-12.4C281.4,263.4,295.1,241,314,228.4z"/>
	<path class="st1" d="M284.7,275.9l-2.9-2l-10-6.9c0,0-0.4-25.9,8.8-46.7c4.8-10.8,12.1-20.2,23.4-23.8
		C304.1,196.4,331.5,237.5,284.7,275.9z"/>
	<path class="st5" d="M282.2,273.9h-0.4l-10-6.9c0,0-0.4-25.9,8.8-46.7C287.1,232.4,290.3,249.9,282.2,273.9z"/>
	<path class="st1" d="M264.5,273.1c0,0-32.5-50.3-10.2-76.8c0,0,45.1,20.3,25.9,77.6L264.5,273.1z"/>
	<path class="st5" d="M256.7,275.8c0,0-46.5-37.9-33.4-70c0,0,49.2,5.4,48.5,65.8L256.7,275.8z"/>
	<path class="st1" d="M254.7,275.8c0,0-46.5-37.9-33.4-70c0,0,49.2,5.4,48.5,65.8L254.7,275.8z"/>
	<path class="st5" d="M249.5,282.3c0,0-58.2-14.3-60.1-48.9c0,0,46.7-16.2,72,38.7L249.5,282.3z"/>
	<path class="st1" d="M248.4,284.4c0,0-58.2-14.3-60.1-48.9c0,0,46.7-16.2,72,38.7L248.4,284.4z"/>
	<path class="st5" d="M245.4,294.2c0,0-58.8,11.6-75.1-19c0,0,35.5-34.4,81.6,4.7L245.4,294.2z"/>
	<path class="st1" d="M244.4,296.3c0,0-58.8,11.6-75.1-19c0,0,35.5-34.4,81.6,4.7L244.4,296.3z"/>
	<path class="st5" d="M254,292.3c0,0-42.9,41.9-73.3,25.2c0,0,10.9-48.2,70.9-40.8L254,292.3z"/>
	<path class="st1" d="M256,294.3c0,0-42.9,41.9-73.3,25.3c0,0,10.9-48.2,70.9-40.8L256,294.3z"/>
	<path class="st5" d="M252.5,287.6c0,0,7.1,59.5-24.7,73.5c0,0-31.6-38.1,10.9-81.1L252.5,287.6z"/>
	<path class="st1" d="M255.5,288.6c0,0,7.1,59.5-24.7,73.5c0,0-31.6-38.1,10.9-81.1L255.5,288.6z"/>
	<path class="st5" d="M275.4,291.7c0,0,7.1,59.5-24.7,73.5c0,0-31.6-38.1,10.9-81.1L275.4,291.7z"/>
	<path class="st1" d="M277.4,291.7c0,0,7.1,59.5-24.7,73.5c0,0-31.6-38.1,10.9-81.1L277.4,291.7z"/>
	<path class="st5" d="M269.9,292.9c0,0,49.5,33.9,39,66.9c0,0-49.4-1.3-53.8-61.6L269.9,292.9z"/>
	<path class="st1" d="M271.9,292.9c0,0,49.5,33.9,39,66.9c0,0-49.4-1.3-53.8-61.6L271.9,292.9z"/>
	<path class="st5" d="M283.4,285.1c0,0,61.1,14.8,68,54.9c0,0-45.1,20.3-78.6-42.7L283.4,285.1z"/>
	<path class="st1" d="M285.4,284.1c0,0,61.1,14.8,68,54.9c0,0-45.1,20.3-78.6-42.7L285.4,284.1z"/>
	<path class="st1" d="M264.5,273.1c0,0-32.5-50.3-10.2-76.8c0,0,45.1,20.3,25.9,77.6L264.5,273.1z"/>
	<path class="st5" d="M264.5,273.1c0,0-32.5-50.3-10.2-76.8c0,0,45.1,20.3,25.9,77.6L264.5,273.1z"/>
	<path class="st1" d="M248.4,284.4c0,0-58.2-14.3-60.1-48.9c0,0,46.7-16.2,72,38.7L248.4,284.4z"/>
	<path class="st5" d="M248.4,284.4c0,0-58.2-14.3-60.1-48.9c0,0,46.7-16.2,72,38.7L248.4,284.4z"/>
	<path class="st1" d="M256,294.3c0,0-42.9,41.9-73.3,25.3c0,0,10.9-48.2,70.9-40.8L256,294.3z"/>
	<path class="st5" d="M256,294.3c0,0-42.9,41.9-73.3,25.3c0,0,10.9-48.2,70.9-40.8L256,294.3z"/>
	<path class="st1" d="M277.4,291.7c0,0,7.1,59.5-24.7,73.5c0,0-31.6-38.1,10.9-81.1L277.4,291.7z"/>
	<path class="st5" d="M277.4,291.7c0,0,7.1,59.5-24.7,73.5c0,0-31.6-38.1,10.9-81.1L277.4,291.7z"/>
	<path class="st1" d="M285.4,284.1c0,0,61.1,14.8,68,54.9c0,0-45.1,20.3-78.6-42.7L285.4,284.1z"/>
	<path class="st5" d="M285.4,284.1c0,0,61.1,14.8,68,54.9c0,0-45.1,20.3-78.6-42.7L285.4,284.1z"/>
	<path class="st5" d="M291.3,275.4c0,0,62.8,2.3,77.6,40.3c0,0-40.2,28.9-85.6-26.2L291.3,275.4z"/>
	<path class="st5" d="M292.3,270.3c0,0,62.8,2.3,77.5,40.3c0,0-40.2,28.9-85.6-26.2L292.3,270.3z"/>
	<path class="st1" d="M292.3,273.4c0,0,62.8,2.3,77.5,40.3c0,0-40.2,28.9-85.6-26.2L292.3,273.4z"/>
	<path class="st8" d="M307.9,289.6c-5,19.8-25,31.9-44.9,26.9c-19.8-5-31.9-25-26.9-44.9c5-19.8,25-31.9,44.8-26.9
		C300.7,249.7,312.8,269.8,307.9,289.6C307.9,289.6,307.9,289.6,307.9,289.6z"/>
	
		<ellipse transform="matrix(-0.6469 -0.7626 0.7626 -0.6469 883.3517 1082.8096)" class="st1" cx="692.4" cy="336.9" rx="23.4" ry="36.4"/>
	<path class="st1" d="M710.3,310.8c0,0,33.8-49.6,66.8-39.2c0,0-1.2,49.4-61.5,54L710.3,310.8z"/>
	<path class="st5" d="M702.9,314.4c0,0,5.6-59.7,39.5-66.7c0,0,22.9,43.8-27.7,77L702.9,314.4z"/>
	<path class="st1" d="M700.7,314.4c0,0,5.6-59.7,39.5-66.7c0,0,22.9,43.8-27.7,77L700.7,314.4z"/>
	<path class="st5" d="M712.1,323.8l-1.7-1.4l-10.2-8.8c0,0,2.4-26.1,13.9-45.8c5.9-10.1,14.1-18.5,25.6-20.9
		C739.8,246.9,762.7,290.7,712.1,323.8z"/>
	<path class="st5" d="M714.1,267.7c5.5,12.9,7.2,31-3.6,54.6h-0.1l-10.2-8.8C700.2,313.6,702.7,287.4,714.1,267.7z"/>
	<path class="st1" d="M708.7,323.3l-3.5-0.5l-12-1.9c0,0-11.7-23.1-12.6-45.8c-0.5-11.8,2-23.5,10.6-31.7
		C691.2,243.4,733.9,268.3,708.7,323.3z"/>
	<path class="st5" d="M705.5,322.6l-0.4,0.2l-12-1.9c0,0-11.7-23.1-12.6-45.8C691.7,283.3,702.3,297.6,705.5,322.6z"/>
	<path class="st1" d="M689.3,329.7c0,0-51.4-30.9-42.9-64.6c0,0,49.4-1.6,57.3,58.4L689.3,329.7z"/>
	<path class="st5" d="M683.5,335.5c0,0-58.4-13.6-60.7-48.2c0,0,46.5-16.7,72.5,37.9L683.5,335.5z"/>
	<path class="st1" d="M681.7,336.4c0,0-58.4-13.6-60.7-48.2c0,0,46.5-16.7,72.5,37.9L681.7,336.4z"/>
	<path class="st5" d="M679.8,344.6c0,0-58.6,12.7-75.5-17.6c0,0,34.9-35.1,81.7,3.1L679.8,344.6z"/>
	<path class="st1" d="M679.8,346.9c0,0-58.6,12.7-75.5-17.6c0,0,34.9-35.1,81.7,3.1L679.8,346.9z"/>
	<path class="st5" d="M681.4,357.1c0,0-47.7,36.2-75.8,15.9c0,0,16.8-46.5,75.4-31.6L681.4,357.1z"/>
	<path class="st1" d="M681.4,359.3c0,0-47.7,36.2-75.8,15.9c0,0,16.8-46.5,75.4-31.6L681.4,359.3z"/>
	<path class="st5" d="M688.3,351.5c0,0-20.1,56.5-54.7,54.9c0,0-11.4-48.1,45.8-67.8L688.3,351.5z"/>
	<path class="st1" d="M691,352.4c0,0-20.1,56.5-54.7,54.9c0,0-11.4-48.1,45.8-67.8L691,352.4z"/>
	<path class="st5" d="M684.9,348c0,0,32.5,50.4,10.1,76.8c0,0-45.1-20.3-25.8-77.6L684.9,348z"/>
	<path class="st1" d="M688.1,347.6c0,0,32.5,50.4,10.1,76.8c0,0-45.1-20.3-25.8-77.6L688.1,347.6z"/>
	<path class="st5" d="M707.2,341.7c0,0,32.5,50.4,10.1,76.8c0,0-45.1-20.3-25.8-77.6L707.2,341.7z"/>
	<path class="st1" d="M709.1,340.8c0,0,32.5,50.4,10.1,76.8c0,0-45.1-20.3-25.8-77.6L709.1,340.8z"/>
	<path class="st5" d="M702.9,345.1c0,0,59.3,8.7,64.5,43c0,0-45,20.6-75.4-31.7L702.9,345.1z"/>
	<path class="st1" d="M704.7,344.3c0,0,59.3,8.7,64.5,43c0,0-45,20.6-75.4-31.7L704.7,344.3z"/>
	<path class="st5" d="M711.5,332.1c0,0,61.4-13.6,85.2,19.5c0,0-31.6,38.1-89.4-3.8L711.5,332.1z"/>
	<path class="st1" d="M712.9,330.3c0,0,61.4-13.6,85.2,19.5c0,0-31.6,38.1-89.4-3.8L712.9,330.3z"/>
	<path class="st1" d="M689.3,329.7c0,0-51.4-30.9-42.9-64.6c0,0,49.4-1.6,57.3,58.4L689.3,329.7z"/>
	<path class="st5" d="M689.3,329.7c0,0-51.4-30.9-42.9-64.6c0,0,49.4-1.6,57.3,58.4L689.3,329.7z"/>
	<path class="st1" d="M679.8,346.9c0,0-58.6,12.7-75.5-17.6c0,0,34.9-35.1,81.7,3.1L679.8,346.9z"/>
	<path class="st5" d="M679.8,346.9c0,0-58.6,12.7-75.5-17.6c0,0,34.9-35.1,81.7,3.1L679.8,346.9z"/>
	<path class="st1" d="M691,352.4c0,0-20.1,56.5-54.7,54.9c0,0-11.4-48.1,45.8-67.8L691,352.4z"/>
	<path class="st5" d="M691,352.4c0,0-20.1,56.5-54.7,54.9c0,0-11.4-48.1,45.8-67.8L691,352.4z"/>
	<path class="st1" d="M709.1,340.8c0,0,32.5,50.4,10.1,76.8c0,0-45.1-20.3-25.8-77.6L709.1,340.8z"/>
	<path class="st5" d="M709.1,340.8c0,0,32.5,50.4,10.1,76.8c0,0-45.1-20.3-25.8-77.6L709.1,340.8z"/>
	<path class="st1" d="M712.9,330.3c0,0,61.4-13.6,85.2,19.5c0,0-31.6,38.1-89.4-3.8L712.9,330.3z"/>
	<path class="st5" d="M712.9,330.3c0,0,61.4-13.6,85.2,19.5c0,0-31.6,38.1-89.4-3.8L712.9,330.3z"/>
	<path class="st5" d="M714.4,320c0,0,57.5-25.5,87.4,2.2c0,0-23.4,43.6-88.4,14L714.4,320z"/>
	<path class="st5" d="M713,315c0,0,57.5-25.5,87.4,2.2c0,0-23.4,43.6-88.4,14L713,315z"/>
	<path class="st1" d="M714.4,317.7c0,0,57.5-25.5,87.4,2.2c0,0-23.4,43.6-88.4,14L714.4,317.7z"/>
	<path class="st8" d="M735.5,325.5c4.3,20-8.5,39.6-28.5,43.9c-20,4.3-39.6-8.5-43.9-28.5c-4.2-20,8.5-39.6,28.5-43.9
		C711.6,292.7,731.2,305.5,735.5,325.5C735.5,325.5,735.5,325.5,735.5,325.5z"/>
	
		<ellipse transform="matrix(-0.6347 -0.7727 0.7727 -0.6347 687.4525 1324.2646)" class="st1" cx="656.7" cy="499.7" rx="23.4" ry="36.4"/>
	<path class="st1" d="M675,473.7c0,0,34.5-49,67.5-38.2c0,0-1.9,49.4-62.3,53L675,473.7z"/>
	<path class="st5" d="M667.6,477.3c0,0,6.5-59.6,40.6-66c0,0,22.2,44.2-28.9,76.5L667.6,477.3z"/>
	<path class="st1" d="M665.3,477.2c0,0,6.5-59.6,40.6-66c0,0,22.2,44.2-28.9,76.5L665.3,477.2z"/>
	<path class="st5" d="M676.6,486.8l-1.6-1.5l-10-9c0,0,2.8-26.1,14.6-45.6c6-10,14.4-18.3,26-20.5
		C705.5,410.3,727.7,454.5,676.6,486.8z"/>
	<path class="st5" d="M679.5,430.7c5.3,13,6.7,31.1-4.5,54.6H675l-10-9C664.9,476.3,667.8,450.3,679.5,430.7z"/>
	<path class="st1" d="M673.2,486.2l-3.5-0.6l-12-2.1c0,0-11.3-23.3-11.9-46c-0.3-11.8,2.4-23.4,11.1-31.5
		C657,406.1,699.3,431.6,673.2,486.2z"/>
	<path class="st5" d="M670.1,485.4l-0.4,0.1l-12-2.1c0,0-11.3-23.3-11.9-46C656.9,445.9,667.2,460.4,670.1,485.4z"/>
	<path class="st1" d="M653.7,492.3c0,0-50.9-31.7-41.9-65.2c0,0,49.4-0.8,56.4,59.2L653.7,492.3z"/>
	<path class="st5" d="M647.9,498.1c0,0-58.2-14.5-59.9-49.2c0,0,46.8-16,71.9,39L647.9,498.1z"/>
	<path class="st1" d="M646,498.9c0,0-58.2-14.5-59.9-49.2c0,0,46.8-16,71.9,39L646,498.9z"/>
	<path class="st5" d="M644,507c0,0-58.8,11.8-75.2-18.8c0,0,35.4-34.5,81.7,4.4L644,507z"/>
	<path class="st1" d="M644,509.3c0,0-58.8,11.8-75.2-18.8c0,0,35.4-34.5,81.7,4.4L644,509.3z"/>
	<path class="st5" d="M645.5,519.5c0,0-48.3,35.5-76.1,14.7c0,0,17.5-46.2,75.9-30.5L645.5,519.5z"/>
	<path class="st1" d="M645.4,521.8c0,0-48.3,35.5-76.1,14.7c0,0,17.5-46.2,75.9-30.5L645.4,521.8z"/>
	<path class="st5" d="M652.4,514.1c0,0-21,56.2-55.6,54c0,0-10.6-48.3,46.9-67L652.4,514.1z"/>
	<path class="st1" d="M655.1,515.1c0,0-21,56.2-55.6,54c0,0-10.6-48.3,46.9-67L655.1,515.1z"/>
	<path class="st5" d="M649,510.5c0,0,31.7,50.9,8.9,77c0,0-44.8-21-24.5-78L649,510.5z"/>
	<path class="st1" d="M652.2,510.2c0,0,31.7,50.9,8.9,77c0,0-44.8-21-24.5-78L652.2,510.2z"/>
	<path class="st5" d="M671.5,504.5c0,0,31.7,50.9,8.9,77c0,0-44.8-21-24.5-78L671.5,504.5z"/>
	<path class="st1" d="M673.3,503.7c0,0,31.7,50.9,8.9,77c0,0-44.8-21-24.5-78L673.3,503.7z"/>
	<path class="st5" d="M667,508c0,0,59.2,9.6,63.8,44c0,0-45.3,19.8-74.9-32.9L667,508z"/>
	<path class="st1" d="M668.9,507.1c0,0,59.2,9.6,63.8,44c0,0-45.3,19.8-74.9-32.9L668.9,507.1z"/>
	<path class="st5" d="M675.9,495.1c0,0,61.6-12.6,84.9,20.8c0,0-32.2,37.6-89.3-5.2L675.9,495.1z"/>
	<path class="st1" d="M677.3,493.3c0,0,61.6-12.6,84.9,20.8c0,0-32.2,37.6-89.3-5.2L677.3,493.3z"/>
	<path class="st1" d="M653.7,492.3c0,0-50.9-31.7-41.9-65.2c0,0,49.4-0.8,56.4,59.2L653.7,492.3z"/>
	<path class="st5" d="M653.7,492.3c0,0-50.9-31.7-41.9-65.2c0,0,49.4-0.8,56.4,59.2L653.7,492.3z"/>
	<path class="st1" d="M644,509.3c0,0-58.8,11.8-75.2-18.8c0,0,35.4-34.5,81.7,4.4L644,509.3z"/>
	<path class="st5" d="M644,509.3c0,0-58.8,11.8-75.2-18.8c0,0,35.4-34.5,81.7,4.4L644,509.3z"/>
	<path class="st1" d="M655.1,515.1c0,0-21,56.2-55.6,54c0,0-10.6-48.3,46.9-67L655.1,515.1z"/>
	<path class="st5" d="M655.1,515.1c0,0-21,56.2-55.6,54c0,0-10.6-48.3,46.9-67L655.1,515.1z"/>
	<path class="st1" d="M673.3,503.7c0,0,31.7,50.9,8.9,77c0,0-44.8-21-24.5-78L673.3,503.7z"/>
	<path class="st5" d="M673.3,503.7c0,0,31.7,50.9,8.9,77c0,0-44.8-21-24.5-78L673.3,503.7z"/>
	<path class="st1" d="M677.3,493.3c0,0,61.6-12.6,84.9,20.8c0,0-32.2,37.6-89.3-5.2L677.3,493.3z"/>
	<path class="st5" d="M677.3,493.3c0,0,61.6-12.6,84.9,20.8c0,0-32.2,37.6-89.3-5.2L677.3,493.3z"/>
	<path class="st5" d="M679,483c0,0,57.9-24.6,87.3,3.5c0,0-24.1,43.2-88.6,12.6L679,483z"/>
	<path class="st5" d="M677.7,478c0,0,57.9-24.6,87.3,3.5c0,0-24.1,43.2-88.6,12.6L677.7,478z"/>
	<path class="st1" d="M679,480.7c0,0,57.9-24.6,87.3,3.5c0,0-24.1,43.2-88.6,12.6L679,480.7z"/>
	<path class="st8" d="M700,488.8c3.9,20-9.1,39.5-29.2,43.4c-20,3.9-39.5-9.1-43.4-29.2c-3.9-20,9.1-39.5,29.1-43.4
		C676.6,455.7,696,468.8,700,488.8z"/>
	<path class="st1" d="M271.3,469.7c3,10.8,13.3,17.3,13.3,17.3s5.5-10.9,2.5-21.7c-3-10.8-13.3-17.3-13.3-17.3
		S268.3,459,271.3,469.7z"/>
	<path class="st1" d="M326.8,529.7c-3.2,10.7,2.1,21.7,2.1,21.7s10.4-6.3,13.6-17c3.2-10.7-2.1-21.7-2.1-21.7S329.9,519,326.8,529.7
		z"/>
	<path class="st1" d="M727,598.4c-7.8,7.9-8.3,20.1-8.3,20.1s12.2-0.7,20-8.6c7.8-7.9,8.3-20.1,8.3-20.1S734.8,590.5,727,598.4z"/>
	<path class="st1" d="M228.1,573.3c3,10.8,13.3,17.3,13.3,17.3s5.5-10.9,2.5-21.7c-3-10.8-13.3-17.3-13.3-17.3
		S225.2,562.5,228.1,573.3z"/>
</g>
<g id="_x23_woman_x28_touch_x2C_stand_x2C_back_x5F_on_x29_">
	
		<linearGradient id="SVGID_2_" gradientUnits="userSpaceOnUse" x1="851.2766" y1="121.796" x2="851.2766" y2="650.1855" gradientTransform="matrix(1 0 0 -1 -33.33 964.06)">
		<stop  offset="0" style="stop-color:#808080;stop-opacity:0.25"/>
		<stop  offset="0.54" style="stop-color:#808080;stop-opacity:0.12"/>
		<stop  offset="1" style="stop-color:#808080;stop-opacity:0.1"/>
	</linearGradient>
	<path class="st9" d="M905,399.8c0-0.3,0-0.7,0-1c-0.3-4.2-4.3-7.3-8.3-8.9c-4-1.6-8.4-2.4-11.9-4.9c-5.9-4.2-7.8-11.9-8.3-19
		c-0.2-2.2-0.2-4.4-0.2-6.6c0-2.2,0.1-4.7,0.3-7c0.3-3.9,0.9-7.9,0.9-11.7c0.2-3.7-0.5-7.4-2.1-10.7c-3.5-7-11.4-10.5-18.7-13.5
		c-2.8-1.2-5.7-2.3-8.7-2.5c-3.2-0.1-6.4,0.9-9.4,1.9c-4.8,1.6-9.8,3.8-14.8,4.9c-2.8,0.6-5.9,0.2-8.6,1.1c-5.4,2-6.5,6.8-6.4,12.1
		c0,0.3,0,0.7,0,1c-0.5-0.5-1.1-1-1.6-1.4l-0.3-0.3c-0.6-0.5-1.2-0.9-1.8-1.3l-0.3-0.2c-1.3-0.9-2.7-1.6-4.1-2.3l-0.2-0.1
		c-0.7-0.3-1.4-0.6-2.2-0.9l-0.1-0.1c-1.5-0.5-3.1-1-4.7-1.2l0,0c-10.2-1.9-20.8,1.4-28.1,8.8l-5.9,6l0,0
		c-26.9-6-28.2,17.4-28.2,17.4l0.2,0l-0.1,0.2c0.9,4,32.2,65.7,32.2,65.7c14.5,10.3,29.5,24,29.5,24s-9.3,4.9-5.9,27.5
		c4.2,27.6-2.1,66.9-2.1,66.9v25.4l1.2-0.3c-0.1,0.9-0.3,1.7-0.4,2.7c-2,12.8-2.2,25.7-0.7,38.6c3.2,27,15.9,63.8,15.9,63.8
		s4.8,12.9,5.9,23.3c0.2,2.1,0.6,4.1,1.4,6c2.4,5.7,3.7,11.8,3.7,18c0,11.3,1.5,28.2,8.2,45.5c5.4,13.9,7.4,22,8,26.7
		c-3.8,5.1-8.8,10.6-12.8,11.1c-7.4,1-21.8,2.1-12.2,14.5c0.3,0.4,0.7,0.8,1.1,1.2c-7.3,1.2-15.3,3.8-7.5,13.9
		c9.6,12.5,65.9,6.7,65.9,6.7s0.4-6.9,0-14.5c4-0.3,6.4-0.5,6.4-0.5s1.6-30.1-5.3-33.7c-1.3,0.1-2.5,0.4-3.7,0.9
		c-0.7-4.2-1.3-9.3-1.7-13.2l2.7-0.2v-45.1c0,0-3.2-28-14.9-40.5c-1.5-1.6-2.8-3.3-3.8-5.2c0.1-3.6,0.1-8.6,0.1-14.4
		c0.5-0.8,1-1.5,1.6-2.2c0,0,6.4-7.8,28.2-57.1c12.9-29.1,10-45.9,5.5-54.7c-0.9-3.2-3.1-12.2-6-28.8c-3.7-21.3,0.5-42,0.5-42
		s13.8-35.8,20.2-50.3c1.5-3.5,2.1-7.3,1.8-11.1c1.7-1.2,2.5-3.2,3.2-5.2l6.5-17.5C904.4,403.8,905.1,401.9,905,399.8L905,399.8z
		 M816,368.4c0.7,1.1,1.5,2.2,2.4,3.2l0,0c0,0-1-1-2.6-2.7C815.9,368.8,815.9,368.6,816,368.4z M783.8,404.3l18-18.4
		c6.2,5.7,12.9,11.5,18.5,16.3c-0.5,2.5-1.2,4.9-2.1,7.2c-2.4,1.2-5.6,1.6-9.5-0.5C802.6,405.5,791.2,404.6,783.8,404.3L783.8,404.3
		z"/>
	<path class="st10" d="M777.1,333.8c0,0-13.4,7.7-9.3,18.5c0,0,13.9,4.1,19.5,14.4s49.4,47.3,49.4,47.3l31.8-15.9
		c0,0-11.1-14.8-46.2-25.1c0,0-20.7-22.2-27.9-26.3C787.3,342.5,777.1,333.8,777.1,333.8z"/>
	<path class="st5" d="M777.1,333.8c0,0-13.4,7.7-9.3,18.5c0,0,13.9,4.1,19.5,14.4s49.4,47.3,49.4,47.3l31.8-15.9
		c0,0-11.1-14.8-46.2-25.1c0,0-20.7-22.2-27.9-26.3C787.3,342.5,777.1,333.8,777.1,333.8z"/>
	<path class="st11" d="M860.4,772.3c0,0,1.5,22.6,4.1,25.2c2.6,2.6-23.1,4.1-23.1,4.1l3.6-29.3L860.4,772.3z"/>
	<path class="st5" d="M860.4,772.3c0,0,1.5,22.6,4.1,25.2c2.6,2.6-23.1,4.1-23.1,4.1l3.6-29.3L860.4,772.3z"/>
	<path class="st10" d="M866,789.9c0,0-3.6,0-16.5,6.7c0,0-8.7-1.5-12.3-13.9c0,0-10.8,18.5-18,19.5c-7.2,1-21.1,2-11.8,14.4
		c9.3,12.4,63.7,6.6,63.7,6.6S872.7,793.4,866,789.9z"/>
	<path class="st5" d="M866,789.9c0,0-3.6,0-16.5,6.7c0,0-8.7-1.5-12.3-13.9c0,0-10.8,18.5-18,19.5c-7.2,1-21.1,2-11.8,14.4
		c9.3,12.4,63.7,6.6,63.7,6.6S872.7,793.4,866,789.9z"/>
	<path class="st11" d="M858.3,807.3l-3.6,9.8l-23.7-6.7l1.3-9.7l0.3-2.3l0.9-6.5c0,0,20.1-5.2,20.1-2.6c0.3,2.1,0.7,4.2,1.3,6.3
		c0.9,3.2,1.9,6.8,2.6,9.1C858,806.3,858.3,807.3,858.3,807.3z"/>
	<path class="st12" d="M845.4,673.2c-1.6,2.7-3.5,7.9,0,14.3c1,1.9,2.2,3.6,3.7,5.1c11.3,12.3,14.4,40.1,14.4,40.1v44.7l-7.7,0.6
		l-12.3,0.9l-18.5-76.1c0,0-10.8-55.5-5.7-65.3c5.1-9.8,9.8-71,9.8-71l4.3-4.4l10.1-10.5h29.3c2.3,1.7,4.3,3.9,5.7,6.4
		c4.9,8.1,9.3,25.1-4.2,56.4c-21.1,48.8-27.2,56.6-27.2,56.6C846.4,671.7,845.9,672.4,845.4,673.2z"/>
	<path class="st5" d="M845.4,673.2c-1.6,2.7-3.5,7.9,0,14.3c1,1.9,2.2,3.6,3.7,5.1c11.3,12.3,14.4,40.1,14.4,40.1v44.7l-7.7,0.6
		l-12.3,0.9l-18.5-76.1c0,0-10.8-55.5-5.7-65.3c5.1-9.8,9.8-71,9.8-71l4.3-4.4l10.1-10.5h29.3c2.3,1.7,4.3,3.9,5.7,6.4
		c4.9,8.1,9.3,25.1-4.2,56.4c-21.1,48.8-27.2,56.6-27.2,56.6C846.4,671.7,845.9,672.4,845.4,673.2z"/>
	<path class="st6" d="M855,795.6l-22.3,2.8l0.9-6.5c0,0,20.1-5.2,20.1-2.6C853.9,791.4,854.4,793.5,855,795.6z"/>
	<path class="st12" d="M843.9,607.3c0,0,1.3,40.5,1.5,65.9c0,5.8,0,10.7,0,14.3c0,1.9-0.1,3.8-0.4,5.6c-1.5,4.6,1.5,14.9,1.5,14.9
		c12.9,33.9,9.3,63.8,9.3,63.8v22.6l-24.7,3.1c0,0,4.1-3.1-7.2-32.9c-6.5-17.1-7.9-33.9-7.9-45.1c-0.1-6.1-1.3-12.2-3.6-17.8
		c-0.7-1.9-1.2-3.9-1.3-5.9c-1-10.3-5.7-23.1-5.7-23.1s-12.3-36.5-15.4-63.2c-1.4-12.7-1.2-25.6,0.7-38.3c0.5-3.2,1.1-6.4,1.9-9.6
		c0,0,50.3-31.6,69.2-9.8c1.8,2.1,3.3,4.6,4.3,7.2c1,2.6,1.9,5.3,2.4,8C874.4,596,843.9,607.3,843.9,607.3z"/>
	<circle class="st11" cx="842.4" cy="355.9" r="26.2"/>
	<path class="st11" d="M828,372.3c0,0,10.8,30.3,0,46.3c-10.8,15.9,34.4,10.8,34.4,10.8l17.5-21.1c0,0-20.6,0-21.6-36
		C857.4,336.3,828,372.3,828,372.3z"/>
	<path class="st6" d="M879.9,564.1c-3.7,1.3-7.6,2.3-11.5,2.9c-6.4,1-14,1-18.4-2.9c-2.6-2.3-9.1-2.6-16.8-1.9
		c-16.3,1.6-38.4,7.7-42.6,8.9c0.5-3.2,1.1-6.4,1.9-9.6c0,0,50.3-31.6,69.2-9.8h11c2.3,1.7,4.3,3.9,5.7,6.4
		C879.3,562.2,879.9,564.1,879.9,564.1z"/>
	<path class="st6" d="M858.3,807.3l-3.6,9.8l-23.7-6.7l1.3-9.7c4.1,9,11,10.2,11,10.2c7.5-3.9,11.8-5.5,14.2-6.2
		C858,806.3,858.3,807.3,858.3,807.3z"/>
	<path class="st10" d="M859.8,804.7c0,0-3.6,0-16.5,6.7c0,0-8.7-1.5-12.3-13.9c0,0-10.8,18.5-18,19.5c-7.2,1-21.1,2.1-11.8,14.4
		c9.3,12.3,63.8,6.7,63.8,6.7S866.5,808.3,859.8,804.7z"/>
	<path class="st11" d="M737.9,360.9c0,0,1-20,22-18.1c2,0.2,3.4,1.9,3.2,3.9c0,0.5-0.2,0.9-0.4,1.3l-4.3,8.1L737.9,360.9z"/>
	<path class="st10" d="M859.3,414.5c0,0-25.2-4.1-31.9-9.3c0,0-5.2,9.8-14.4,4.6s-30.8-4.6-30.8-4.6s-18-9.8-21.6-31.9
		c0,0-3.6-13.4-2.6-17c0,0-13.4-13.9-20.1,4.6c2.6,12.9,4.6,11.8,4.1,22.1l8.2,22.6c0,0,0.5,7.7,15.4,18s31.9,26.2,31.9,26.2
		s-9,4.9-5.7,27.2c4.1,27.3-2.1,66.3-2.1,66.3v25.2c0,0,51.4-14.9,60.2-7.2c8.7,7.7,29.8,0,29.8,0s-2.6-8.7-6.2-29.8
		c-3.6-21.1,0.5-41.7,0.5-41.7s13.4-35.5,19.5-49.9c6.2-14.4-4.6-33.9-15.4-41.1c-10.8-7.2-14.8-2.9-14.8-2.9
		S882.5,409.8,859.3,414.5z"/>
	<path class="st6" d="M814,349.4c0,1.1,0.2,2.1,0.5,3.1c0.6,1.1,1.4,2.2,2.4,3c3.8,3.8,7.2,8.2,8.6,13.4c0.9,3.5,0.9,7.2,0.8,10.9
		c-0.2,14.8-0.9,30.7-10,42.3c-3.3,4.3-7.7,7.7-11.7,11.3c-0.6,0.4-1,1-1.2,1.6c-0.1,0.7,0,1.4,0.4,2c1.9,3.9,5.8,6.3,9.6,8.5
		c1.7,1,3.5,2,5.5,2.1c4.7,0.2,7.8-4.8,12-6.7c6.2-2.8,13.1,1.1,19.3,4c4.5,2.1,9.1,3.7,13.9,4.9c6.6,1.5,14,1.9,19.6-2
		c3.2-2.3,5.4-5.7,6.1-9.5c0.4-2.5,0.4-5.4,2.3-7.1c1-0.9,2.3-1.2,3.4-2c1.6-1.2,2.4-3.2,3.1-5.2l6.3-17.3c0.8-1.8,1.2-3.8,1.2-5.8
		c-0.3-4.2-4.2-7.2-8-8.8c-3.9-1.6-8.1-2.4-11.5-4.8c-5.7-4.1-7.5-11.8-8-18.9c-0.4-4.8-0.3-9.7,0.1-14.5c0.6-7.2,2-14.8-1.2-21.3
		c-3.4-6.9-11.1-10.4-18.1-13.4c-2.7-1.2-5.5-2.3-8.5-2.5c-3.1-0.1-6.2,0.9-9.1,1.9c-4.7,1.6-9.5,3.7-14.3,4.8
		c-2.7,0.6-5.7,0.2-8.3,1.1C809.6,328.3,814,341.7,814,349.4z"/>
	<path class="st13" d="M814,348.4c0,1.1,0.2,2.1,0.5,3.1c0.6,1.1,1.4,2.2,2.4,3c3.8,3.8,7.2,8.2,8.6,13.4c0.9,3.5,0.9,7.2,0.8,10.9
		c-0.2,14.8-0.9,30.7-10,42.3c-3.3,4.3-7.7,7.7-11.7,11.3c-0.6,0.4-1,1-1.2,1.6c-0.1,0.7,0,1.4,0.4,2c1.9,3.9,5.8,6.3,9.6,8.5
		c1.7,1,3.5,2,5.5,2.1c4.7,0.2,7.8-4.8,12-6.7c6.2-2.8,13.1,1.1,19.3,4c4.5,2.1,9.1,3.7,13.9,4.9c6.6,1.5,14,1.9,19.6-2
		c3.2-2.3,5.4-5.7,6.1-9.5c0.4-2.5,0.4-5.4,2.3-7.1c1-0.9,2.3-1.2,3.4-2c1.6-1.2,2.4-3.2,3.1-5.2l6.3-17.3c0.8-1.8,1.2-3.8,1.2-5.8
		c-0.3-4.2-4.2-7.2-8-8.8c-3.9-1.6-8.1-2.4-11.5-4.8c-5.7-4.1-7.5-11.8-8-18.9c-0.4-4.8-0.3-9.7,0.1-14.5c0.6-7.2,2-14.8-1.2-21.3
		c-3.4-6.9-11.1-10.4-18.1-13.4c-2.7-1.2-5.5-2.3-8.5-2.5c-3.1-0.1-6.2,0.9-9.1,1.9c-4.7,1.6-9.5,3.7-14.3,4.8
		c-2.7,0.6-5.7,0.2-8.3,1.1C809.6,327.2,814,340.7,814,348.4z"/>
	<path class="st5" d="M793.3,488.7c0,0,4.1-1,24.7-4.1c20.6-3.1,56.6,4.1,56.6,4.1"/>
</g>
</svg>
