<?xml version="1.0" encoding="utf-8"?>
<!-- Generator: Adobe Illustrator 19.0.0, SVG Export Plug-In . SVG Version: 6.00 Build 0)  -->
<svg version="1.1" xmlns="http://www.w3.org/2000/svg" xmlns:xlink="http://www.w3.org/1999/xlink" x="0px" y="0px"
	 viewBox="0 0 1000 1000" style="enable-background:new 0 0 1000 1000;" xml:space="preserve">
<style type="text/css">
	.st0{opacity:0.1;enable-background:new    ;}
	.st1{fill:#6C63FF;}
	.st2{opacity:0.1;fill:#6C63FF;enable-background:new    ;}
	.st3{opacity:0.1;}
	.st4{opacity:0.2;fill:#6C63FF;enable-background:new    ;}
	.st5{fill:none;stroke:#535461;stroke-width:2;stroke-miterlimit:10;}
	.st6{fill:url(#SVGID_1_);}
	.st7{fill:#DFE6F5;}
	.st8{fill:#535461;}
	.st9{fill:#865A61;}
	.st10{fill:#FDC2CC;}
	.st11{fill:#EC7580;}
	.st12{fill:#CBCDDA;}
	.st13{opacity:0.2;enable-background:new    ;}
	.st14{opacity:0.3;fill:#FFFFFF;enable-background:new    ;}
	.st15{opacity:5.000000e-02;enable-background:new    ;}
	.st16{fill:#54576B;}
	.st17{opacity:0.1;fill:#FFFFFF;enable-background:new    ;}
	.st18{fill:none;stroke:#6C63FF;stroke-miterlimit:10;}
</style>
<g id="_x23_background">
	<g class="st0">
		<g>
			<path class="st1" d="M410,849.3c65.5-36.2,140.2-47.8,213.3-32.3c103.5,22,233.6,13.4,258.8-156.4
				c43-289.9-137.3-366.5-137.3-366.5s-120-10-190.8-48.3c-100.8-54.3-215.9-61.3-317.1-15.3C172.1,260,118.8,300.9,109.7,357
				c-25.5,157.1,16.4,243.6-61.9,294.8C-30.5,703.1,36.4,843.9,96.4,839s195.5-58.3,248.3,3.6C363.5,864.6,387.2,861.9,410,849.3z"
				/>
		</g>
	</g>
</g>
<g id="_x23_accessory_x28_book_x29_">
	<g>
		<g>
			<g>
				<rect x="450.5" y="327.7" class="st2" width="270" height="18.7"/>
				<rect x="450.5" y="408.4" class="st2" width="270" height="18.7"/>
				<rect x="450.5" y="492.4" class="st2" width="270" height="18.7"/>
				<rect x="474.3" y="279.3" class="st2" width="17" height="48.4"/>
				<rect x="474.3" y="287" class="st2" width="17" height="3.4"/>
				<rect x="474.3" y="313.3" class="st2" width="17" height="3.4"/>
				<rect x="499.8" y="279.3" class="st2" width="17" height="48.4"/>
				<rect x="499.8" y="287" class="st2" width="17" height="3.4"/>
				<rect x="499.8" y="313.3" class="st2" width="17" height="3.4"/>
				<rect x="525.2" y="279.3" class="st2" width="17" height="48.4"/>
				<rect x="525.2" y="287" class="st2" width="17" height="3.4"/>
				<rect x="525.2" y="313.3" class="st2" width="17" height="3.4"/>
				<rect x="550.7" y="279.3" class="st2" width="17" height="48.4"/>
				<rect x="550.7" y="287" class="st2" width="17" height="3.4"/>
				<rect x="550.7" y="313.3" class="st2" width="17" height="3.4"/>
				<rect x="576.2" y="279.3" class="st2" width="17" height="48.4"/>
				<rect x="576.2" y="287" class="st2" width="17" height="3.4"/>
				<rect x="576.2" y="313.3" class="st2" width="17" height="3.4"/>
				<rect x="601.6" y="279.3" class="st2" width="17" height="48.4"/>
				<rect x="601.6" y="287" class="st2" width="17" height="3.4"/>
				<rect x="601.6" y="313.3" class="st2" width="17" height="3.4"/>
				<rect x="627.1" y="279.3" class="st2" width="17" height="48.4"/>
				<rect x="627.1" y="287" class="st2" width="17" height="3.4"/>
				<rect x="627.1" y="313.3" class="st2" width="17" height="3.4"/>
				
					<rect x="628.8" y="444" transform="matrix(-0.8939 0.4482 -0.4482 -0.8939 1416.8317 601.1031)" class="st2" width="17" height="48.4"/>
				
					<rect x="622.1" y="453.2" transform="matrix(-0.8939 0.4482 -0.4482 -0.8939 1398.1349 578.9294)" class="st2" width="17" height="3.4"/>
				<rect x="474.3" y="360.8" class="st2" width="17" height="48.4"/>
				<rect x="474.3" y="368.5" class="st2" width="17" height="3.4"/>
				<rect x="474.3" y="394.8" class="st2" width="17" height="3.4"/>
				<rect x="499.8" y="360.8" class="st2" width="17" height="48.4"/>
				<rect x="499.8" y="368.5" class="st2" width="17" height="3.4"/>
				<rect x="499.8" y="394.8" class="st2" width="17" height="3.4"/>
				<rect x="525.2" y="360.8" class="st2" width="17" height="48.4"/>
				<rect x="525.2" y="368.5" class="st2" width="17" height="3.4"/>
				<rect x="525.2" y="394.8" class="st2" width="17" height="3.4"/>
				<rect x="631.4" y="360.8" class="st2" width="17" height="48.4"/>
				<rect x="631.4" y="368.5" class="st2" width="17" height="3.4"/>
				<rect x="631.4" y="394.8" class="st2" width="17" height="3.4"/>
				<rect x="656.8" y="360.8" class="st2" width="17" height="48.4"/>
				<rect x="656.8" y="368.5" class="st2" width="17" height="3.4"/>
				<rect x="656.8" y="394.8" class="st2" width="17" height="3.4"/>
				<rect x="682.3" y="360.8" class="st2" width="17" height="48.4"/>
				<rect x="682.3" y="368.5" class="st2" width="17" height="3.4"/>
				<rect x="682.3" y="394.8" class="st2" width="17" height="3.4"/>
				<rect x="474.3" y="444" class="st2" width="17" height="48.4"/>
				<rect x="474.3" y="451.7" class="st2" width="17" height="3.4"/>
				<rect x="499.8" y="444" class="st2" width="17" height="48.4"/>
				<rect x="499.8" y="451.7" class="st2" width="17" height="3.4"/>
				<rect x="525.2" y="444" class="st2" width="17" height="48.4"/>
				<rect x="525.2" y="451.7" class="st2" width="17" height="3.4"/>
				<rect x="550.7" y="444" class="st2" width="17" height="48.4"/>
				<rect x="550.7" y="451.7" class="st2" width="17" height="3.4"/>
				<rect x="576.2" y="444" class="st2" width="17" height="48.4"/>
				<rect x="576.2" y="451.7" class="st2" width="17" height="3.4"/>
				<rect x="601.6" y="444" class="st2" width="17" height="48.4"/>
				<rect x="601.6" y="451.7" class="st2" width="17" height="3.4"/>
				<path class="st2" d="M669.6,283.6v44.1h-17v-47.3C658.3,281.4,663.9,282.5,669.6,283.6z"/>
				<rect x="652.6" y="287" class="st2" width="17" height="3.4"/>
				<rect x="652.6" y="313.3" class="st2" width="17" height="3.4"/>
				<path class="st2" d="M695,289.5v38.2h-17v-42.3c2.2,0.5,4.4,1,6.6,1.5C688.1,287.8,691.5,288.7,695,289.5z"/>
				<path class="st2" d="M695,289.5v0.8h-17V287h6.6C688.1,287.8,691.5,288.7,695,289.5z"/>
				<rect x="678" y="313.3" class="st2" width="17" height="3.4"/>
				<g class="st3">
					<path class="st1" d="M576.5,391.6c0,0-5.2-1.8-7.6,2.8c-1.4,2.5-1.3,5.5,0.1,8c1.6,3,5,6.8,11.3,6.5c5.3-0.3,7.2-4.4,7.6-8.2
						c0.6-4.7-2.7-8.9-7.4-9.4c-1.3-0.2-2.6,0-3.8,0.4H576.5z"/>
					<path class="st2" d="M570.1,402.8c-1.4-2.5-1.4-5.4-0.1-8c2.5-4.5,7.6-2.8,7.6-2.8l0.3-0.1c2-0.7,4.2-0.7,6,0.2
						c-2.1-1.3-4.8-1.5-7.1-0.7l-0.3,0.1c0,0-5.2-1.8-7.6,2.8c-1.4,2.5-1.3,5.5,0.1,8c1.3,2.5,3.3,4.3,5.9,5.5
						C572.8,406.6,571.2,404.9,570.1,402.8z"/>
					<path class="st4" d="M573.8,393.8c0,0,1.9,1.5,6.5,0"/>
					<path class="st1" d="M573.4,382.9c0,0,3.2,8.8,3,11.2l2.5-0.3c0,0-4.3-7.7-3.2-11H573.4z"/>
					<path class="st4" d="M573.4,382.9c0,0,3.2,8.8,3,11.2l2.5-0.3c0,0-4.3-7.7-3.2-11H573.4z"/>
					<path class="st1" d="M586.8,383.7c0,0-5.2-2.6-7.5-0.4s-2.6,7.7-2.6,7.7S585.1,392.1,586.8,383.7z"/>
					<path class="st2" d="M586.8,383.7c0,0-5.2-2.6-7.5-0.4s-2.6,7.7-2.6,7.7S585.1,392.1,586.8,383.7z"/>
					<path class="st1" d="M576.7,391c0,0,1.4-6.5,10.1-7.3"/>
				</g>
				<g class="st3">
					<path class="st1" d="M685.2,475.7c0,0-5.2-1.8-7.6,2.8c-1.4,2.5-1.3,5.5,0.1,8c1.6,3,5,6.8,11.3,6.5c5.3-0.3,7.2-4.4,7.6-8.2
						c0.6-4.7-2.7-8.9-7.4-9.4c-1.3-0.2-2.6,0-3.8,0.4L685.2,475.7z"/>
					<path class="st2" d="M678.7,486.8c-1.4-2.5-1.4-5.4-0.1-8c2.5-4.5,7.6-2.8,7.6-2.8l0.3-0.1c2-0.7,4.2-0.7,6,0.2
						c-2.1-1.3-4.8-1.5-7.1-0.7l-0.3,0.1c0,0-5.2-1.8-7.6,2.8c-1.4,2.5-1.3,5.5,0.1,8c1.3,2.5,3.3,4.3,5.9,5.5
						C681.4,490.6,679.8,488.9,678.7,486.8z"/>
					<path class="st4" d="M682.5,477.9c0,0,1.9,1.5,6.5,0"/>
					<path class="st1" d="M682,466.9c0,0,3.2,8.8,3,11.2l2.5-0.3c0,0-4.3-7.7-3.2-11L682,466.9L682,466.9z"/>
					<path class="st4" d="M682,466.9c0,0,3.2,8.8,3,11.2l2.5-0.3c0,0-4.3-7.7-3.2-11L682,466.9L682,466.9z"/>
					<path class="st1" d="M695.5,467.7c0,0-5.2-2.6-7.5-0.4s-2.6,7.7-2.6,7.7S693.8,476.1,695.5,467.7z"/>
					<path class="st2" d="M695.5,467.7c0,0-5.2-2.6-7.5-0.4s-2.6,7.7-2.6,7.7S693.8,476.1,695.5,467.7z"/>
					<path class="st1" d="M685.3,475c0,0,1.4-6.5,10.1-7.3"/>
				</g>
			</g>
		</g>
	</g>
</g>
<g id="_x23_woman_x28_listen_x5B_music_x5D__x29_">
	<g>
		<g>
			<g>
				
					<rect x="633.9" y="476.7" transform="matrix(-0.8939 0.4482 -0.4482 -0.8939 1431.0074 618.1734)" class="st2" width="17" height="3.4"/>
				<rect x="474.3" y="478" class="st2" width="17" height="3.4"/>
				<rect x="499.8" y="478" class="st2" width="17" height="3.4"/>
				<rect x="525.2" y="478" class="st2" width="17" height="3.4"/>
				<rect x="550.7" y="478" class="st2" width="17" height="3.4"/>
				<rect x="576.2" y="478" class="st2" width="17" height="3.4"/>
				<rect x="601.6" y="478" class="st2" width="17" height="3.4"/>
				<ellipse class="st0" cx="856.9" cy="718.7" rx="45.8" ry="16.3"/>
				<path class="st5" d="M857,718.9c0,0,26.1-88.8-4.9-154.2c-13-27.4-17.4-58.2-11.4-87.9c2.9-14.1,7-27.9,12.5-41.3"/>
				<path class="st1" d="M833.8,394.2c0,10.9,19.7,42.4,19.7,42.4s19.7-31.6,19.7-42.4c0-10.9-8.8-19.7-19.7-19.7
					C842.7,374.4,833.8,383.2,833.8,394.2C833.8,394.1,833.8,394.2,833.8,394.2L833.8,394.2z"/>
				<path class="st1" d="M801.3,454.5c5.9,9.2,39.6,25,39.6,25s-0.6-37.2-6.5-46.4c-5.9-9.2-18.1-11.8-27.3-5.9
					C797.9,433.1,795.4,445.3,801.3,454.5L801.3,454.5z"/>
				<path class="st1" d="M802.7,557.4c9.8,4.9,46.8,1.5,46.8,1.5s-19.3-31.8-29-36.7c-9.7-4.9-21.6-1-26.5,8.7
					C789.1,540.7,793,552.5,802.7,557.4L802.7,557.4z"/>
				<path class="st1" d="M821.3,635.1c8.7,6.5,45.8,9.4,45.8,9.4s-13.7-34.6-22.4-41.1c-8.7-6.5-21.1-4.7-27.6,4.2
					C810.7,616.3,812.6,628.7,821.3,635.1L821.3,635.1z"/>
				<path class="st1" d="M882.2,481.5c-7.8,7.6-44.1,15.5-44.1,15.5s8.9-36.1,16.7-43.7s20.2-7.5,27.8,0.3s7.5,20.2-0.3,27.8
					C882.4,481.4,882.3,481.4,882.2,481.5L882.2,481.5z"/>
				<path class="st1" d="M902.8,572.6c-9.7,4.9-46.8,1.5-46.8,1.5s19.3-31.8,29-36.7c9.7-4.9,21.6-1,26.5,8.7
					C916.5,556,912.6,567.7,902.8,572.6L902.8,572.6z"/>
				<path class="st1" d="M910.7,663.9c-8.7,6.5-45.8,9.4-45.8,9.4s13.7-34.6,22.4-41.1c8.7-6.5,21.1-4.8,27.6,3.8
					c6.5,8.7,4.8,21.1-3.8,27.6C911,663.7,910.9,663.8,910.7,663.9L910.7,663.9z"/>
				<ellipse class="st0" cx="742.8" cy="671.9" rx="45.8" ry="16.3"/>
				<path class="st5" d="M741,674.2c0,0,12.2-41.6-2.3-72.2c-6.2-12.8-8.1-27.3-5.3-41.3c1.4-6.6,3.3-13.1,5.9-19.4"/>
				<path class="st1" d="M730.2,522c0,5.1,9.3,19.9,9.3,19.9s9.3-14.8,9.3-19.9s-4.2-9.3-9.3-9.3S730.2,516.9,730.2,522L730.2,522z"
					/>
				<path class="st1" d="M714.9,550.3c2.8,4.2,18.6,11.7,18.6,11.7s-0.3-17.4-3.1-21.7c-2.8-4.2-8.5-5.5-12.7-2.7
					C713.4,540.3,712.1,546.1,714.9,550.3z"/>
				<path class="st1" d="M715.6,598.6c4.6,2.3,21.9,0.7,21.9,0.7s-9.1-14.9-13.6-17.2c-4.6-2.3-10.1-0.4-12.4,4.1
					C709.2,590.6,711,596.3,715.6,598.6L715.6,598.6z"/>
				<path class="st1" d="M724.3,634.9c4.1,3.1,21.5,4.4,21.5,4.4s-6.4-16.2-10.5-19.3c-4.1-3.1-9.8-2.1-12.9,2
					C719.3,626.2,720.2,632,724.3,634.9L724.3,634.9z"/>
				<path class="st1" d="M752.8,562.9c-3.7,3.6-20.7,7.2-20.7,7.2s4.2-16.9,7.8-20.5s9.5-3.5,13.1,0.2
					C756.6,553.6,756.5,559.4,752.8,562.9L752.8,562.9L752.8,562.9z"/>
				<path class="st1" d="M762.5,605.7c-4.6,2.3-21.9,0.7-21.9,0.7s9.1-14.9,13.6-17.2c4.6-2.3,10.1-0.4,12.4,4.1
					C768.9,597.7,767,603.4,762.5,605.7L762.5,605.7L762.5,605.7z"/>
				<path class="st1" d="M766.2,648.4c-4.1,3.1-21.5,4.4-21.5,4.4s6.4-16.2,10.5-19.3c4.1-3.1,9.8-2.2,12.9,2
					C771.2,639.6,770.2,645.4,766.2,648.4z"/>
				
					<linearGradient id="SVGID_1_" gradientUnits="userSpaceOnUse" x1="546.0876" y1="678.659" x2="546.0876" y2="135.5706" gradientTransform="matrix(1 0 0 1 -29.89 120.72)">
					<stop  offset="0" style="stop-color:#808080;stop-opacity:0.25"/>
					<stop  offset="0.54" style="stop-color:#808080;stop-opacity:0.12"/>
					<stop  offset="1" style="stop-color:#808080;stop-opacity:0.1"/>
				</linearGradient>
				<path class="st6" d="M978.6,756.9L715.7,617.5h-55.1l14.3-118.7c1.3-10.8-6.4-20.6-17.1-21.9c-0.2,0-0.3,0-0.4-0.1l-1.4,0.1
					h-0.2L455.2,480c-10.6-0.8-20.2,6.3-22.6,16.6l-9.3,68.3l-1.4-2l-0.7-1c4.9-3.2-4.8-22.2-13.1-36.5l-0.8-1.3
					c5.3-2.2,11-4.2,11-4.2l-12.9-8.1c0,0-11.8-17.1-24.4-31c8.5-53.1-9.4-114.6-9.7-115.5l-0.5,0.1c2.5-4,3.8-8.7,3.8-13.4l0,0
					c0-7.3-3.1-14.3-8.6-19.1c-0.5-4.6-1.2-9.3-2.3-14.2l0,0c-0.2-0.8-0.4-1.8-0.6-2.7c-0.9-4.2-2-8.5-3.2-12.6
					c-0.8-3-2-5.9-3.3-8.7c-6.6-14.1-20.4-24.2-35.5-27.8c-7.7-1.9-15.7,1-23-0.3c-3.7-0.7-6.9-4.2-10.4-5.6
					c-4.5-1.8-9.4-2.6-14.2-3.4c-5.9-1-12.1-2-18-0.7c-9.8,2.1-17.2,10-22.7,18.4c-5.4,8.3-9.8,17.6-16.5,25
					c-4.5,4.9-10.1,8.9-14.1,14.2c-5.9,7.8-8,17.8-9.9,27.5c-2.4,12-4.8,24-4.7,36.2c0,2.8,0.1,5.6,0.3,8.5
					c0.6,7.2,2.3,14.3,2.6,21.6c0,0.8,0.1,1.5,0.1,2.4c-0.1,13.2-4,26.3-7.9,39.1c-1.3,4.1-2.5,8.1-4,12.1c-7.8,0.7-15.3,2.2-21,5.3
					c-20.8,11.1-36.8,36-36.8,36l-30.5,28c0,0,12.1,5.6,17.7,15.2c0.2,0.3,0.4,0.7,0.7,0.9l-0.4,1l-17.9,41.3c0,0,11.2,8,28,6.4
					c2.7-0.3,5.5-0.2,8.1,0.6c0,0.5-0.1,1-0.1,1.5c-1,23.6-1.6,75.4,10.7,110.4l-27.6,32.3l-55.2,16.3l-2.4,42.4h928L978.6,756.9z
					 M182.7,598.7c2.4,0.5,4.7,1.2,6.9,2.2v29.5c-1.4-10.4-3.5-21.1-6.3-30C183.1,599.8,182.9,599.3,182.7,598.7z M342,655.5
					c0-0.1,0-0.2,0-0.3c0-1,0.2-2,0.4-3.1c0.3-1.5,1.1-3,2.2-4.2c2-2,4.2-4.2,6.3-6.6c1.3,3.4,3.1,6.5,5.5,9.2
					c2.7,3.1,8.7,5.8,17.3,8.2C363.3,657.1,352.7,656,342,655.5L342,655.5z M411.3,651.4l-27.8,8.2c-13.2-3-22.4-6.3-25.9-10.2
					c-2.4-2.8-4.3-6-5.5-9.5c9.9-11.5,19.5-26.9,21.7-48c0.1-0.6,0.1-1.1,0.2-1.7c3-1.7,5.9-3.7,8.5-5.9l0.5,1.2
					c7.5,17,18,32.3,31.2,45.5L411.3,651.4z M370.2,366.7c2.2,7.9,17,63.6,9.6,112.6c-4.6-5-9.3-9.4-13.5-12.3c-1-0.7-2-1.3-3.1-1.9
					c-0.9-9-1.4-18.3-1.4-27.5c0.1-11.5,0.8-22.8,1.7-33.5c1-11.5,2.2-22.3,3-33C367.8,369.6,369.1,368.2,370.2,366.7z"/>
				<path class="st7" d="M356.7,380.3h-7.2l0,0v-50.1l0,0h7.2c11.5,0,20.9,9.3,20.9,20.9v8.3C377.5,371,368.3,380.3,356.7,380.3
					L356.7,380.3z"/>
				<path class="st8" d="M350.4,380.3h-2c-2.8,0-5.1-2.3-5.1-5.1v-39.8c0-2.8,2.3-5.1,5.1-5.1h2c2.8,0,5.1,2.3,5.1,5.1v39.8
					C355.6,378.1,353.3,380.3,350.4,380.3z"/>
				<g class="st3">
					<path d="M356.7,380.3h-7.2l0,0v-50.1l0,0h7.2c11.5,0,20.9,9.3,20.9,20.9v8.3C377.5,371,368.3,380.3,356.7,380.3L356.7,380.3z"
						/>
					<path d="M350.4,380.3h-2c-2.8,0-5.1-2.3-5.1-5.1v-39.8c0-2.8,2.3-5.1,5.1-5.1h2c2.8,0,5.1,2.3,5.1,5.1v39.8
						C355.6,378.1,353.3,380.3,350.4,380.3z"/>
				</g>
				<rect x="233.5" y="356.7" class="st9" width="126.6" height="131.2"/>
				<rect x="233.5" y="338.7" class="st0" width="126.6" height="131.2"/>
				<path class="st10" d="M355.8,465.7l-7.6,55.5l-3.6,26.1l-1.4,9.6l-11.1,21.6l-20.4,39.7l-39.3,4.8l-69.1-97.5
					c0,0-36.2-69.2,18.8-62.9c30.9,3.6,38.2-24.1,38.8-49.1c0.2-12.6-1-25.1-3.4-37.4l55,26.7c-1.3,5.9-2.2,11.5-2.9,16.5
					c-2.7,20.5-0.4,33.2,4.2,40.8C326.2,480.6,355.8,465.7,355.8,465.7z"/>
				<path class="st0" d="M312.6,402.8c-1.3,5.9-2.2,11.5-2.9,16.5c-5.7,1.6-11.6,2.5-17.6,2.5c-11,0-21.6-2.8-31.2-8.1
					c0.2-12.6-1-25.1-3.4-37.4L312.6,402.8z"/>
				<circle class="st10" cx="292.1" cy="356.4" r="63.7"/>
				<path class="st11" d="M377,718.8l-261.7,20.5l42.4-49.5c45.6-27.8,45.2-66,39.1-89.8c-1.9-7.6-4.8-14.9-8.4-21.8l90.5,0.4h0.8
					l7.5,16.9l0.3,0.8l5.5,12.6l18.8-33.8l6.5-10.6l3.7-5.9c0,0,54.2-12.6,55,19.6c0.1,3.7-0.1,7.4-0.4,11.1
					c-2.7,26-16.9,43.2-28.7,54.9C334.6,657.5,377,718.8,377,718.8z"/>
				<path class="st11" d="M345.8,649.7c-2,7.6,2.9,20.8,9.3,33.7c-30.7,3.3-64.5,1.6-64.5,1.6l-34.6,9.4l-97.5,28.3
					c-4.2-5.5-7.6-12.4-10.4-20.2l9.7-11.3c30.4-18.6,40.3-41.8,41.8-62.2c0.6-9.3-0.3-18.6-2.7-27.6c-1.9-7.6-4.8-14.9-8.4-21.8
					l90.5,0.4h0.8l7.5,16.9l0.3,0.8l5.5,12.6l18.8-33.8l6.5-10.6l3.7-5.9c0,0,54.2-12.6,55,19.7c0.1,3.7-0.1,7.4-0.4,11.1
					c-2.7,26-16.9,43.2-28.7,54.9C346.9,646.8,346.1,648.3,345.8,649.7z"/>
				<path class="st10" d="M550,690.5c-1.5,18.8-47.2-6.3-47.2-6.3s-14.2-4.8-62.1-35.4c-24.4-15.5-43.6-37.9-55.2-64.4
					c-1.9-4.1-3.4-8.3-4.6-12.6l33-24.4l9.6,14.8l32,48.9l47.2,31.4C502.8,642.5,551.6,671.6,550,690.5z"/>
				<polygon class="st12" points="969.8,752.6 63.3,752.6 154.1,725.8 380.9,658.6 525.6,615.8 711.9,615.8 				"/>
				<polygon class="st12" points="63.3,752.6 61,794.3 971.4,794.3 969.8,752.6 				"/>
				<polygon class="st0" points="63.3,752.6 61,794.3 971.4,794.3 969.8,752.6 				"/>
				<path class="st8" d="M301,693.7L492.6,674l2.4,37.8l-87.6,8.7c-6,0.5-12.1,0-18-1.4l-88.5-22.8c-0.7-0.2-1.1-0.8-0.9-1.5
					C300.1,694.1,300.5,693.8,301,693.7z"/>
				<path class="st13" d="M301,693.7L492.6,674l2.4,37.8l-87.6,8.7c-6,0.5-12.1,0-18-1.4l-88.5-22.8c-0.7-0.2-1.1-0.8-0.9-1.5
					C300.1,694.1,300.5,693.8,301,693.7z"/>
				<path class="st8" d="M301,692.9l193.1-19.7l2.4,37.8l-87.6,7c-6,0.5-12.1,0-18-1.4l-90.1-21.3c-0.7-0.2-1.1-0.8-0.9-1.5
					C300,693.3,300.4,692.9,301,692.9z"/>
				<path class="st14" d="M346.8,694.3l102.1-10.4l1.3,20l-46.3,3.7c-3.2,0.3-6.4,0-9.5-0.8l-47.7-11.2c-0.3-0.1-0.6-0.4-0.5-0.8
					C346.3,694.5,346.5,694.3,346.8,694.3z"/>
				<path class="st0" d="M423.6,562.2c-0.6,0.8-1.7,1.3-3.3,1c-15.7-2.4-33.8,20.5-33.8,20.5s-0.3,0.3-0.9,0.8
					c-1.9-4.1-3.4-8.3-4.6-12.6l33-24.4L423.6,562.2z"/>
				<path class="st0" d="M376.6,590.7c-7.4,4.1-17.6,7-25.5-0.8c-13.7-13.7-37.8-11.9-39.2-11.8c2.5-0.3,4.7-5.3,6.5-12.1l3.7-5.9
					c0,0,54.2-12.6,55,19.7C377.1,583.3,377,587.1,376.6,590.7z"/>
				<path class="st0" d="M348.2,521.2l-4.9,35.7l-11.1,21.6c-6.9-1.8-14-2.5-21.1-2c7.8-1.1,12.9-49.9,12.9-49.9l0.4-0.1
					L348.2,521.2z"/>
				<path class="st11" d="M420.3,561.6c-15.7-2.4-33.8,20.5-33.8,20.5s-21.2,20.5-35.4,6.3c-13.7-13.7-37.8-11.9-39.2-11.8
					c7.8-1.1,12.9-49.9,12.9-49.9l0.4-0.1l75.5-16.8c0,0,4.5,6.9,9.6,15.7C419.4,541.2,430.4,563.1,420.3,561.6z"/>
				<path class="st0" d="M401.4,530.1c0.8,1.6-12.6,9.4-18.8,7c-6.3-2.4-22,10.2-23.6,11.8c-1.5,1.6-36.9-2.4-36.9-2.4
					c1.4-6.6,2.5-13.4,3.1-20.2l75.5-16.8c0,0,4.5,6.9,9.6,15.7C405.5,527.3,401,529.3,401.4,530.1z"/>
				<path class="st0" d="M355.8,465.7l-7.6,55.5l-3.6,26.1c-10.5-0.8-23.3-2.2-23.3-2.2s13.3-55.9-8.7-84.9c0,0,0.4,0,1.3-0.1
					C326.2,480.6,355.8,465.7,355.8,465.7z"/>
				<path class="st11" d="M313.3,460.1c0,0,40.1-3.1,55.9,7.9c15.7,11,38.5,44.1,38.5,44.1l12.6,7.9c0,0-19.6,7-18.8,8.7
					c0.8,1.6-12.6,9.4-18.8,7c-6.3-2.4-22,10.2-23.6,11.8s-36.9-2.4-36.9-2.4S335.4,489.3,313.3,460.1z"/>
				<path class="st7" d="M603,676.7c-9.1-0.3-223.1-5.8-243.5-28.5c-21.7-24.3-0.7-94.1,17.1-144.7c19.4-54.9-3.7-133.9-3.9-134.7
					l1.5-0.4c0.3,0.9,23.4,80.3,3.9,135.7c-27.7,78.5-33.4,125.3-17.5,143c20,22.2,240.2,28,242.4,28L603,676.7z"/>
				<path class="st8" d="M455.1,480.9l197.9-3c10.6,1.1,18.3,10.5,17.2,21.1c0,0.1,0,0.3,0,0.3l-22.5,186.9c-1.1,9.3-8.7,16.4-18,17
					l-202.3,12.6c-10.6,0.7-19.8-7.5-20.5-18.1c-0.1-1.4,0-2.6,0.2-4L434,497.3C435.6,487.1,444.8,479.8,455.1,480.9z"/>
				<path class="st13" d="M455.1,480.9l197.9-3c10.6,1.1,18.3,10.5,17.2,21.1c0,0.1,0,0.3,0,0.3l-22.5,186.9
					c-1.1,9.3-8.7,16.4-18,17l-202.3,12.6c-10.6,0.7-19.8-7.5-20.5-18.1c-0.1-1.4,0-2.6,0.2-4L434,497.3
					C435.6,487.1,444.8,479.8,455.1,480.9z"/>
				<path class="st8" d="M456.6,480.9l197.9-3c10.6,1.1,18.3,10.5,17.3,21.1c0,0.1,0,0.3,0,0.3l-22.5,186.9c-1.1,9.3-8.7,16.4-18,17
					l-202.3,12.6c-10.6,0.7-19.8-7.5-20.5-18.1c-0.1-1.4,0-2.6,0.2-4l26.8-196.4C437.2,487.1,446.5,479.8,456.6,480.9z"/>
				<circle class="st14" cx="553.5" cy="587.1" r="9.4"/>
				<path class="st0" d="M355.1,683.4c-30.7,3.3-64.5,1.6-64.5,1.6l-34.6,9.4l-97.5,28.3c-4.2-5.5-7.6-12.4-10.4-20.2l9.7-11.3
					c30.4-18.6,40.3-41.8,41.8-62.2c2.6,20.4,3.1,38.6,3.1,38.6l39.3-3.9l57.1-13.6c3.9-0.9,8-1.4,12-1.4c7.5,0,20.7,0.2,34.8,0.9
					C343.8,657.4,348.7,670.5,355.1,683.4z"/>
				<path class="st0" d="M398.2,673.2c-18.1,21.2-110.9,16.6-110.9,16.6l-34.6,9.4l-97.5,28.3c-0.4-0.6-0.8-1.1-1.3-1.7l226.9-67.2
					C395.4,661.5,404.4,666.1,398.2,673.2z"/>
				<path class="st10" d="M398.2,671.6c-18.1,21.2-110.9,16.6-110.9,16.6l-34.6,9.4l-97.5,28.3c-22.9-29.7-22.4-100.5-21.1-129.2
					c0.3-7.7,0.8-12.3,0.8-12.3s33-20.5,48,0c2.6,3.7,4.9,8.7,6.8,14.6c8.7,27.3,9.8,71.8,9.8,71.8l39.3-3.9l57.1-13.6
					c3.9-0.9,8-1.4,12-1.4C331.4,652,413.8,653.4,398.2,671.6z"/>
				<path class="st0" d="M189.7,599c-5-1.1-11.1-0.8-19.4,2.6c-16.5,7-29.1,5.5-29.1,5.5s1-8.1-7-10.4c0.3-7.7,0.8-12.3,0.8-12.3
					s33-20.5,48,0C185.5,588,187.8,593.1,189.7,599z"/>
				<path class="st0" d="M287.4,597.8L287.4,597.8c-0.5,0.1-7.6,1.4-21.2-1.6c-14.2-3.1-19.6,3.1-27.5,6.3s-28.3,4.8-36.2,1.6
					c-1.9-0.8-3.7-1.7-5.7-2.5c-1.9-7.6-4.7-14.9-8.4-21.8l90.5,0.4l8.2,16.9L287.4,597.8z"/>
				<path class="st11" d="M287.4,596.1c0,0-7,1.5-21.2-1.5c-14.2-3.1-19.6,3.1-27.5,6.3c-7.9,3.1-28.3,4.8-36.2,1.5
					c-7.9-3.2-15.7-9.4-32.3-2.4c-16.6,7-29.1,5.5-29.1,5.5s1.6-12.6-14.9-11s-27.5-6.3-27.5-6.3l17.6-40.5l5.3-12.1l131.5-9h0.6
					L287.4,596.1z"/>
				<path class="st0" d="M266.1,558.5c-8.7-14.2-54.2-1.6-54.2-1.6s-22,6.3-26.7-5.5s-38.5-4-38.5-4s-24.5,9.2-30.4,0.3l5.3-12.1
					l131.5-9L266.1,558.5z"/>
				<path class="st11" d="M228.5,465.7c0,0-43.2-8.7-63.7,2.4s-36.2,35.4-36.2,35.4l-29.9,27.5c0,0,11.8,5.5,17.3,14.9
					c5.5,9.4,30.6,0,30.6,0s33.8-7.9,38.5,3.9s26.7,5.5,26.7,5.5s45.6-12.6,54.2,1.6L228.5,465.7z"/>
				<path class="st0" d="M278.3,264.2c-5.9-1-11.9-2-17.7-0.7c-9.6,2-16.9,9.8-22.2,18c-5.3,8.1-9.5,17.2-16.2,24.4
					c-4.4,4.8-9.9,8.7-13.8,13.9c-5.9,7.7-7.8,17.5-9.8,27c-2.7,13.9-5.5,28-4.3,42.2c0.6,7.1,2.2,14.1,2.6,21.2
					c0.8,14.3-3.5,28.4-7.6,42.1c-2.9,9.5-5.9,19.2-11.6,27.3c-3.8,5.3-8.7,9.8-13.3,14.5c-1.1,0.9-2,2.2-2.5,3.6
					c-1,4.1,3.9,6.8,7.6,8.7c11.5,5.7,18.9,16.9,27.8,26.1c8.9,9.2,21.6,17.1,33.9,13.4c3.7-1.1,7-3.1,10.9-3.1c2.5,0,5,1.1,7.4,2
					c6,2.1,12.4,3.1,18.8,3.1c1.4,0.1,2.8-0.2,4.1-0.8c1.9-1.3,2.3-3.8,2.5-6.1c1.2-14.3,2.4-28.6,1.6-42.9
					c-1.9-32.4-31.8-69.9-20.4-100.3c4.9-13.2,14-24.7,19-37.9c5.3-13.9,23.9-25.3,27.6-39.7c0.4-1.6,1-3.4,2.4-4.2
					c2-1.2,4.5-0.2,6.4,1.2c10.7,7.4,14.2,21.3,18.1,33.7c3.1,10,7,19.8,11.6,29.1c2.5,5.1,8,11,12.8,7.9
					c-2.4,21.5-16.3,40.2-19.5,61.5c-3.1,20.8,4.3,42.1,1.5,62.9c-1.9,13.4-8,25.9-17.4,35.7c10.6,2.1,21.5,2.2,32.1,0.3
					c10.8-2,22.3-7,26.2-17.3c4.2-11.3-2.3-23.3-5.7-34.9c-8-27.8-7.4-60.8-4.8-89.6c2.6-29.7,6.5-55.7-0.1-84.7
					c-1.6-7.1-3.3-14.3-6.4-20.9c-6.5-13.9-20.1-23.9-34.9-27.3c-7.6-1.8-15.5,1-22.6-0.3c-3.6-0.7-6.8-4.1-10.3-5.5
					C287.8,265.8,283,265.1,278.3,264.2z"/>
				<path class="st9" d="M376.9,529.3c-3.9,10.3-15.5,15.4-26.2,17.3c-10.6,1.9-21.6,1.8-32.1-0.3c9.4-9.8,15.5-22.2,17.4-35.7
					c2.9-20.8-4.6-42.1-1.5-62.9c3.1-21.4,17.1-40.1,19.5-61.5c-4.8,3.1-10.3-2.8-12.8-7.9c-4.6-9.4-8.5-19.2-11.6-29.1
					c-3.9-12.4-7.4-26.3-18.1-33.7c-1.9-1.3-4.4-2.4-6.4-1.2c-1.4,0.8-2,2.6-2.4,4.2c-3.7,14.4-22.3,25.8-27.6,39.7
					c-5,13.2-14.1,24.6-19,37.9c-11.4,30.4,18.6,67.8,20.4,100.3c0.8,14.3-0.4,28.6-1.6,42.9c-0.2,2.3-0.6,4.8-2.5,6.1
					c-1.3,0.7-2.6,0.9-4.1,0.8c-6.4,0-12.6-1-18.7-3.1c-2.4-0.8-4.8-1.9-7.4-2c-3.8-0.1-7.2,2-10.9,3.1c-12.2,3.7-25-4.2-33.9-13.4
					s-16.5-20.3-27.8-26c-3.7-1.9-8.7-4.6-7.6-8.7c0.5-1.4,1.4-2.6,2.5-3.6c4.7-4.7,9.5-9.2,13.3-14.5c5.7-8.1,8.7-17.7,11.6-27.3
					c4.2-13.8,8.4-27.8,7.6-42.1c-0.3-7.1-2-14.1-2.6-21.2c-1.2-14.1,1.5-28.3,4.3-42.2c1.9-9.5,3.9-19.3,9.8-27
					c4-5.3,9.4-9.1,13.8-13.9c6.6-7.2,10.8-16.3,16.2-24.4c5.3-8.1,12.6-16,22.2-18c5.8-1.3,11.8-0.3,17.7,0.7
					c4.7,0.8,9.4,1.6,13.9,3.4c3.5,1.4,6.7,4.8,10.3,5.5c7.1,1.4,14.9-1.4,22.6,0.3c14.9,3.5,28.4,13.4,34.9,27.3
					c1.3,2.7,2.4,5.6,3.2,8.5c1.3,4.1,2.2,8.2,3.1,12.4c0.2,0.8,0.4,1.8,0.6,2.6l0,0c5.8,27.7,2,47.8-0.5,76.5s-3.1,67.2,4.8,95.1
					C374.6,505.9,381.2,518,376.9,529.3z"/>
				<path class="st15" d="M286.3,579.2c0,0,6.3,10.2,6.3,17.3c0,0,4.8-17.3,8.7-17.3"/>
				<path class="st7" d="M271.3,581.6v51.9c0,8.5-2.8,16.7-8.1,23.3c-0.9,1.1-1.9,2.2-2.9,3.2c-14.7,14.8-38.6,14.9-53.4,0.1
					l-0.1-0.1c-1-1-2-2.1-2.9-3.2c-5.3-6.6-8.1-14.9-8.1-23.3v-51.9c0-8.8,3.1-17.3,8.7-24.1c1-1.2,2.1-2.4,3.2-3.4
					c14.5-13.6,37.1-13.6,51.5,0c0.3,0.3,0.6,0.6,0.9,0.8c0.8,0.8,1.6,1.7,2.4,2.5C268.3,564.3,271.3,572.8,271.3,581.6z"/>
				<path class="st0" d="M271.3,581.6v51.9c0,8.5-2.8,16.7-8.1,23.3c-0.9,1.1-1.9,2.2-2.9,3.2c-14.7,14.8-38.6,14.9-53.4,0.1
					l-0.1-0.1c-1-1-2-2.1-2.9-3.2c-5.3-6.6-8.1-14.9-8.1-23.3v-51.9c0-8.8,3.1-17.3,8.7-24.1c1-1.2,2.1-2.4,3.2-3.4
					c14.5-13.6,37.1-13.6,51.5,0c0.3,0.3,0.6,0.6,0.9,0.8c0.8,0.8,1.6,1.7,2.4,2.5C268.3,564.3,271.3,572.8,271.3,581.6z"/>
				<path class="st7" d="M272.8,581.6v51.9c0,8.5-2.8,16.7-8.1,23.3c-0.9,1.1-1.9,2.2-2.9,3.2c-14.7,14.8-38.6,14.9-53.4,0.1
					l-0.1-0.1c-1-1-2-2.1-2.9-3.2c-5.3-6.6-8.1-14.9-8.1-23.3v-51.9c0-8.8,3.1-17.3,8.7-24.1c1-1.2,2.1-2.4,3.2-3.4
					c14.5-13.6,37.1-13.6,51.6,0c0.3,0.3,0.6,0.6,0.9,0.8c0.8,0.8,1.6,1.7,2.4,2.5C269.8,564.3,272.8,572.8,272.8,581.6z"/>
				<circle class="st0" cx="218.6" cy="555.6" r="2.4"/>
				<circle class="st0" cx="218.6" cy="563.5" r="2.4"/>
				<circle class="st0" cx="218.6" cy="571.4" r="2.4"/>
				<circle class="st0" cx="218.6" cy="579.2" r="2.4"/>
				<circle class="st0" cx="218.6" cy="587.1" r="2.4"/>
				<circle class="st0" cx="218.6" cy="595" r="2.4"/>
				<circle class="st0" cx="218.6" cy="602.8" r="2.4"/>
				<circle class="st0" cx="218.6" cy="610.7" r="2.4"/>
				<circle class="st0" cx="218.6" cy="618.6" r="2.4"/>
				<circle class="st0" cx="218.6" cy="626.5" r="2.4"/>
				<circle class="st0" cx="218.6" cy="634.3" r="2.4"/>
				<circle class="st0" cx="218.6" cy="642.2" r="2.4"/>
				<circle class="st0" cx="218.6" cy="650.1" r="2.4"/>
				<circle class="st0" cx="218.6" cy="657.9" r="2.4"/>
				<path class="st0" d="M209.9,555.6c0,1.3-1,2.4-2.4,2.4c-0.5,0-1.1-0.2-1.5-0.5c1-1.2,2.1-2.4,3.2-3.4
					C209.8,554.5,209.9,555.1,209.9,555.6z"/>
				<circle class="st0" cx="207.7" cy="563.5" r="2.4"/>
				<circle class="st0" cx="207.7" cy="571.4" r="2.4"/>
				<circle class="st0" cx="207.7" cy="579.2" r="2.4"/>
				<circle class="st0" cx="207.7" cy="587.1" r="2.4"/>
				<circle class="st0" cx="207.7" cy="595" r="2.4"/>
				<circle class="st0" cx="207.7" cy="602.8" r="2.4"/>
				<circle class="st0" cx="207.7" cy="610.7" r="2.4"/>
				<circle class="st0" cx="207.7" cy="618.6" r="2.4"/>
				<circle class="st0" cx="207.7" cy="626.5" r="2.4"/>
				<circle class="st0" cx="207.7" cy="634.3" r="2.4"/>
				<circle class="st0" cx="207.7" cy="642.2" r="2.4"/>
				<circle class="st0" cx="207.7" cy="650.1" r="2.4"/>
				<path class="st0" d="M209.9,657.9c0,1-0.7,2-1.6,2.2c-1-1-2-2.1-2.9-3.2c0.5-1.2,2-1.7,3.1-1.1
					C209.4,656.2,209.9,656.9,209.9,657.9L209.9,657.9z"/>
				<circle class="st0" cx="229.6" cy="555.6" r="2.4"/>
				<circle class="st0" cx="229.6" cy="563.5" r="2.4"/>
				<circle class="st0" cx="229.6" cy="571.4" r="2.4"/>
				<circle class="st0" cx="229.6" cy="579.2" r="2.4"/>
				<circle class="st0" cx="229.6" cy="587.1" r="2.4"/>
				<circle class="st0" cx="229.6" cy="595" r="2.4"/>
				<circle class="st0" cx="229.6" cy="602.8" r="2.4"/>
				<circle class="st0" cx="229.6" cy="610.7" r="2.4"/>
				<circle class="st0" cx="229.6" cy="618.6" r="2.4"/>
				<circle class="st0" cx="229.6" cy="626.5" r="2.4"/>
				<circle class="st0" cx="229.6" cy="634.3" r="2.4"/>
				<circle class="st0" cx="229.6" cy="642.2" r="2.4"/>
				<circle class="st0" cx="229.6" cy="650.1" r="2.4"/>
				<circle class="st0" cx="229.6" cy="657.9" r="2.4"/>
				<circle class="st0" cx="240.6" cy="555.6" r="2.4"/>
				<circle class="st0" cx="240.6" cy="563.5" r="2.4"/>
				<circle class="st0" cx="240.6" cy="571.4" r="2.4"/>
				<circle class="st0" cx="240.6" cy="579.2" r="2.4"/>
				<circle class="st0" cx="240.6" cy="587.1" r="2.4"/>
				<circle class="st0" cx="240.6" cy="595" r="2.4"/>
				<circle class="st0" cx="240.6" cy="602.8" r="2.4"/>
				<circle class="st0" cx="240.6" cy="610.7" r="2.4"/>
				<circle class="st0" cx="240.6" cy="618.6" r="2.4"/>
				<circle class="st0" cx="240.6" cy="626.5" r="2.4"/>
				<circle class="st0" cx="240.6" cy="634.3" r="2.4"/>
				<circle class="st0" cx="240.6" cy="642.2" r="2.4"/>
				<circle class="st0" cx="240.6" cy="650.1" r="2.4"/>
				<circle class="st0" cx="240.6" cy="657.9" r="2.4"/>
				<circle class="st0" cx="251.6" cy="555.6" r="2.4"/>
				<circle class="st0" cx="251.6" cy="563.5" r="2.4"/>
				<circle class="st0" cx="251.6" cy="571.4" r="2.4"/>
				<circle class="st0" cx="251.6" cy="579.2" r="2.4"/>
				<circle class="st0" cx="251.6" cy="587.1" r="2.4"/>
				<circle class="st0" cx="251.6" cy="595" r="2.4"/>
				<circle class="st0" cx="251.6" cy="602.8" r="2.4"/>
				<circle class="st0" cx="251.6" cy="610.7" r="2.4"/>
				<circle class="st0" cx="251.6" cy="618.6" r="2.4"/>
				<circle class="st0" cx="251.6" cy="626.5" r="2.4"/>
				<circle class="st0" cx="251.6" cy="634.3" r="2.4"/>
				<circle class="st0" cx="251.6" cy="642.2" r="2.4"/>
				<circle class="st0" cx="251.6" cy="650.1" r="2.4"/>
				<circle class="st0" cx="251.6" cy="657.9" r="2.4"/>
				<path class="st0" d="M264.2,557.5c-1,0.8-2.5,0.7-3.3-0.3c-0.3-0.4-0.5-0.9-0.5-1.5s0.3-1.2,0.6-1.6c0.3,0.3,0.6,0.6,0.9,0.8
					C262.7,555.7,263.4,556.6,264.2,557.5z"/>
				<circle class="st0" cx="262.7" cy="563.5" r="2.4"/>
				<circle class="st0" cx="262.7" cy="571.4" r="2.4"/>
				<circle class="st0" cx="262.7" cy="579.2" r="2.4"/>
				<circle class="st0" cx="262.7" cy="587.1" r="2.4"/>
				<circle class="st0" cx="262.7" cy="595" r="2.4"/>
				<circle class="st0" cx="262.7" cy="602.8" r="2.4"/>
				<circle class="st0" cx="262.7" cy="610.7" r="2.4"/>
				<circle class="st0" cx="262.7" cy="618.6" r="2.4"/>
				<circle class="st0" cx="262.7" cy="626.5" r="2.4"/>
				<circle class="st0" cx="262.7" cy="634.3" r="2.4"/>
				<circle class="st0" cx="262.7" cy="642.2" r="2.4"/>
				<circle class="st0" cx="262.7" cy="650.1" r="2.4"/>
				<path class="st0" d="M264.8,656.8c-0.9,1.1-1.9,2.2-2.9,3.2c-1.3-0.4-1.9-1.8-1.5-3c0.4-1.3,1.8-1.9,3-1.5
					C264,655.8,264.5,656.2,264.8,656.8z"/>
				<path class="st16" d="M232.6,629.6h1.9c2.5,0,4.6,2,4.6,4.6v96.2c0,2.5-2,4.6-4.6,4.6h-1.9c-2.5,0-4.6-2-4.6-4.6v-96.2
					C228,631.6,230.1,629.6,232.6,629.6z"/>
				<path class="st16" d="M201.7,720.8h63.7c3.2,0,5.9,2.6,5.9,5.9v2.4c0,3.2-2.6,5.9-5.9,5.9h-63.7c-3.2,0-5.9-2.6-5.9-5.9v-2.4
					C195.9,723.4,198.5,720.8,201.7,720.8z"/>
				<path class="st0" d="M232.6,629.6h1.9c2.5,0,4.6,2,4.6,4.6v96.2c0,2.5-2,4.6-4.6,4.6h-1.9c-2.5,0-4.6-2-4.6-4.6v-96.2
					C228,631.6,230.1,629.6,232.6,629.6z"/>
				<path class="st0" d="M201.7,720.8h63.7c3.2,0,5.9,2.6,5.9,5.9v2.4c0,3.2-2.6,5.9-5.9,5.9h-63.7c-3.2,0-5.9-2.6-5.9-5.9v-2.4
					C195.9,723.4,198.5,720.8,201.7,720.8z"/>
				<path class="st16" d="M234.2,629.6h1.9c2.5,0,4.6,2,4.6,4.6v96.2c0,2.5-2,4.6-4.6,4.6h-1.9c-2.5,0-4.6-2-4.6-4.6v-96.2
					C229.6,631.6,231.7,629.6,234.2,629.6z"/>
				<path class="st16" d="M203.3,720.8H267c3.2,0,5.9,2.6,5.9,5.9v2.4c0,3.2-2.6,5.9-5.9,5.9h-63.7c-3.2,0-5.9-2.6-5.9-5.9v-2.4
					C197.4,723.4,200,720.8,203.3,720.8z"/>
				<path class="st16" d="M300.7,638.5c-17.1,37.1-60.9,53.3-98,36.2c-16-7.4-28.9-20.2-36.2-36.2c-7.8-11.2-14.7-33.5-14.7-30.9
					c0,45.2,36.6,81.8,81.8,81.8s81.8-36.6,81.8-81.8c0,0,0,0,0-0.1C315.3,604.9,308.5,627.3,300.7,638.5z"/>
				<path class="st16" d="M233.5,525.8c-26.7,0-51.9,13.2-67.1,35.1c-4.5,9.7-6.8,20.2-6.8,30.9c0,2.6,0.2,5.3,0.4,7.9
					c4.2-40.6,40.3-70.1,80.9-66c34.9,3.6,62.5,31.2,66,66c0.3-2.6,0.4-5.3,0.4-7.9c0-10.7-2.3-21.2-6.8-30.9
					C285.4,538.9,260.3,525.9,233.5,525.8z"/>
				<circle class="st0" cx="235.2" cy="639.8" r="3.1"/>
				<circle class="st13" cx="382.5" cy="716.4" r="1.2"/>
				<path class="st7" d="M338,740.2c-4.7,0-9.3-1-13.6-3c-15.9-7.5-23.7-6.5-35.5-5.1c-11,1.5-22.2,2-33.4,1.2
					c-6.3-0.3-12.1-3.4-15.9-8.5c-17.5-22.8-5.8-82.7-5.3-85.1c0.1-0.4,0.5-0.7,0.9-0.6c0.3,0.1,0.6,0.5,0.6,0.8
					c-0.1,0.6-12.1,61.7,5,83.9c3.5,4.8,8.9,7.6,14.7,7.9c11,0.7,22.2,0.3,33.1-1.2c12.1-1.4,20.1-2.5,36.3,5.3
					c25.9,12.2,56.3-18.8,56.6-19.1c0.3-0.3,0.8-0.3,1.1,0.1c0.3,0.3,0.3,0.7,0,1C382.5,718.1,360.8,740.2,338,740.2z"/>
				<path class="st8" d="M366.9,322.7c-13-23.4-39.3-39.4-69.6-39.4c-43.1,0-78.2,32.4-78.2,72.3h-5.5c0-43,37.5-77.8,83.7-77.8
					c26.7,0,50.6,11.7,65.9,29.9c1.3,4.1,2.2,8.2,3.1,12.4C366.5,320.9,366.7,321.9,366.9,322.7z"/>
				<path class="st7" d="M225.2,332.6h7.2l0,0v50.1l0,0h-7.2c-11.5,0-20.9-9.3-20.9-20.9v-8.3C204.3,342.1,213.7,332.6,225.2,332.6
					C225.1,332.6,225.2,332.6,225.2,332.6z"/>
				<path class="st8" d="M231.4,332.7h2c2.8,0,5.1,2.3,5.1,5.1v39.8c0,2.8-2.3,5.1-5.1,5.1h-2c-2.8,0-5.1-2.3-5.1-5.1v-39.8
					C226.3,334.9,228.6,332.7,231.4,332.7z"/>
				<path class="st1" d="M692.9,692.5c0,0-13.5-4.6-20,7.3c-3.5,6.5-3.4,14.4,0.3,20.9c4.2,7.7,13.1,17.7,29.7,16.8
					c14.1-0.8,18.8-11.5,20.1-21.6c1.6-12.1-7-23.2-19.1-24.8c-3.5-0.4-7-0.1-10.3,1.1L692.9,692.5z"/>
				<path class="st17" d="M676.1,721.7c-3.7-6.5-3.7-14.3-0.3-20.9c6.5-11.9,20-7.3,20-7.3l0.7-0.3c5.2-1.9,10.8-1.7,15.9,0.3
					c-5.6-3.4-12.5-4-18.7-1.8l-0.7,0.3c0,0-13.5-4.6-20,7.3c-3.5,6.5-3.4,14.4,0.3,20.9c2.8,5.1,7.6,11.1,15.3,14.4
					C683.3,731.6,679,727.1,676.1,721.7z"/>
				<path class="st13" d="M685.9,698.2c0,0,5,3.9,17.1,0"/>
				<path class="st1" d="M684.9,669.7c0,0,8.6,23.2,7.8,29.3l6.8-0.7c0,0-11.5-20.4-8.6-28.5L684.9,669.7L684.9,669.7z"/>
				<path class="st13" d="M684.9,669.7c0,0,8.6,23.2,7.8,29.3l6.8-0.7c0,0-11.5-20.4-8.6-28.5L684.9,669.7L684.9,669.7z"/>
				<path class="st1" d="M719.9,671.6c0,0-13.5-6.9-19.5-1.2c-6,5.7-7,20.3-7,20.3S715.4,693.7,719.9,671.6z"/>
				<path class="st17" d="M719.9,671.6c0,0-13.5-6.9-19.5-1.2c-6,5.7-7,20.3-7,20.3S715.4,693.7,719.9,671.6z"/>
				<path class="st18" d="M693.4,690.6c0,0,3.6-16.9,26.5-19.1"/>
			</g>
		</g>
	</g>
</g>
</svg>
