<?xml version="1.0" encoding="utf-8"?>
<!-- Generator: Adobe Illustrator 19.0.0, SVG Export Plug-In . SVG Version: 6.00 Build 0)  -->
<svg version="1.1" id="图层_1" xmlns="http://www.w3.org/2000/svg" xmlns:xlink="http://www.w3.org/1999/xlink" x="0px" y="0px"
	 viewBox="-917 917.7 1000 1000" style="enable-background:new -917 917.7 1000 1000;" xml:space="preserve">
<style type="text/css">
	.st0{fill:#D0D2D5;}
	.st1{opacity:0.1;enable-background:new    ;}
	.st2{fill:#3F3D56;}
	.st3{fill:#FFFFFF;}
	.st4{fill:#6C63FF;}
	.st5{opacity:0.1;fill:#6C63FF;enable-background:new    ;}
	.st6{fill:#E6E8EC;}
	.st7{fill:#393859;}
	.st8{fill:#A0616A;}
	.st9{fill:#FF6F61;}
	.st10{opacity:0.3;fill:#6C63FF;enable-background:new    ;}
</style>
<g>
	<g id="_x23_chart_x28_have_x5B_computer_x5D__x29_">
		<polygon class="st0" points="-419.6,1647.6 -581.5,1645.5 -581.1,1641.2 -573.3,1572.8 -431,1572.8 -420.6,1641.2 -419.7,1646.5 
					"/>
		<polygon class="st1" points="-419.7,1646.5 -500.5,1646.5 -581.5,1645.5 -581.1,1641.2 -420.6,1641.2 		"/>
		<rect x="-608.5" y="1642.3" class="st0" width="215" height="5.2"/>
		<path class="st2" d="M-188.6,1161.2c0-7.5-6-13.5-13.5-13.5h-600.1c-7.5,0-13.5,6.1-13.5,13.5l0,0V1525h627.1L-188.6,1161.2
			L-188.6,1161.2z"/>
		<path class="st0" d="M-815.7,1521.5v42.6c0,7.5,6,13.5,13.5,13.5h600.1c7.5,0,13.5-6,13.5-13.5v-42.6H-815.7z"/>
		<rect x="-789.7" y="1170.5" class="st3" width="578.2" height="327"/>
		<path class="st4" d="M-499,1561.3c4.3,0,8.4-2,11-5.4l0,0c0.4-0.5,0.7-1,1.1-1.6l-7.7-1.4l8.3,0.1c1.6-3.5,1.7-7.5,0.3-11.1
			l-11.2,5.8l10.3-7.5c-3.9-6.7-12.5-9-19.2-5.1s-9,12.5-5.1,19.2c0.4,0.5,0.7,1.1,1.1,1.6l0,0
			C-507.4,1559.3-503.3,1561.3-499,1561.3z"/>
		<polygon class="st1" points="-485,1577.5 -420.4,1642.3 -430.3,1577.5 		"/>
		<path class="st5" d="M-294.3,1339.6c0-0.1,0-0.1,0-0.2c-0.2-4.5-1-9-2.5-13.3c-0.1-0.3-0.2-0.5-0.3-0.7
			c-3.5-10.4-10.4-19.3-19.4-25.4c-20.9-14.3-49.3-10.7-66.1,8.2c-0.8-4.8-2.2-9.5-4-14.1c-13.3,1.6-26.6,2.2-40,1.5
			c8.2,3.8,16.6,6.8,25.4,9.2l-0.3,1.2c-9.7-2.6-19.3-6.2-28.4-10.6l-2.7-1.4l3.1,0.2c14.2,0.9,28.4,0.5,42.5-1.3
			c-3.1-7.3-7.3-14-12.5-19.9c-22.9-2.3-45.6-7.1-66.8-16.6l0.5-1.1c20.6,9.3,42.7,14.1,65.1,16.4c-26.9-28.9-72.2-30.4-101-3.5
			c-4.9,4.5-9.2,9.8-12.6,15.6c-2.2-20.5-10.7-39.8-24.4-55.2c-12.2,4.9-24.8,8.7-37.7,11.5c-19.4,4.1-39.2,5.6-58.9,4.6
			c8.2,3.8,16.6,6.8,25.4,9.2l-0.3,1.2c-9.7-2.6-19.3-6.2-28.4-10.6l-2.7-1.4l3.1,0.2c33.6,2.2,67.3-3.1,98.7-15.6
			c-1.2-1.3-2.4-2.5-3.6-3.8c-39.2,0.8-81.8,0.4-120.3-13.6c-29.1,17.9-46.7,49.6-46.7,83.8c0,18.5,5.1,43.9,13.9,69.3
			c3.9,11.4,8.5,22.5,13.9,33.4c2.7,5.5,5.5,10.8,8.5,15.9l0,0c3.6,6.2,7.6,12.2,12,17.9c0.8,1,1.5,2,2.4,3
			c4.5,5.6,9.5,10.8,14.9,15.5l0,0c1.1,0.9,2.2,1.8,3.4,2.6c3,2.3,6.2,4.2,9.5,5.9c5.5,2.9,11.7,4.5,18,4.9c0.5,0,1,0,1.5,0v0.2
			h267.2v-0.2h0.2c1.5,0,3.1-0.3,4.5-0.8c9.5-3.4,18.2-16.8,25.4-33.8c1.6-3.7,3.1-7.7,4.5-11.8c1.3-3.5,2.5-7.3,3.6-10.9
			c3.4-10.8,6.2-21.7,8.4-32.8c2.5-12.6,3.9-23.6,3.9-30.6C-294.2,1341.1-294.2,1340.2-294.3,1339.6z"/>
		<path class="st5" d="M-544.3,1222.7c-31.8-30.4-80-35.8-117.8-13.3C-624.3,1223-582.6,1223.3-544.3,1222.7z"/>
		<path class="st5" d="M-325.4,1442.2l-41.3-71.4c-0.4-0.6-1.2-0.8-1.8-0.5c-0.2,0.1-0.4,0.3-0.5,0.5l-41.2,71.4
			c-0.4,0.6-0.2,1.5,0.5,1.8c0.2,0.1,0.5,0.2,0.6,0.2h12.3c0.7,0,1.3,0.5,1.4,1.3v15.3c0,0.7,0.5,1.3,1.3,1.3l0,0h16.1
			c0.7,0,1.4-0.5,1.4-1.4l0,0v-7.4c0-0.7,0.5-1.3,1.3-1.3l0,0h15.1c0.7,0,1.4,0.5,1.4,1.4l0,0v7.4c0,0.7,0.5,1.4,1.4,1.4l0,0h16
			c0.5,0,1.1-0.4,1.3-0.9c0.1-0.1,0.1-0.3,0.1-0.5v-15.3c0-0.7,0.6-1.3,1.4-1.3h12.3c0.7,0,1.4-0.5,1.4-1.3
			C-325.2,1442.7-325.2,1442.5-325.4,1442.2z M-382.8,1450.2c-0.3,0.3-0.5,0.4-0.9,0.4h-5.8c-0.7,0-1.4-0.5-1.4-1.4l0,0
			c0-0.7,0.6-1.3,1.4-1.4h5.8c0.7,0,1.4,0.5,1.4,1.3l0,0C-382.5,1449.6-382.7,1449.8-382.8,1450.2L-382.8,1450.2z M-345,1450.2
			c-0.3,0.3-0.5,0.4-0.9,0.4h-5.8c-0.7,0-1.3-0.6-1.3-1.4c0-0.4,0.2-0.6,0.4-0.9c0.3-0.3,0.5-0.4,0.9-0.4h5.8c0.7,0,1.4,0.5,1.4,1.4
			l0,0C-344.6,1449.6-344.8,1449.8-345,1450.2L-345,1450.2z"/>
		<path class="st5" d="M-580.2,1442.8l-41.3-71.4c-0.4-0.6-1.2-0.8-1.8-0.5c-0.2,0.1-0.4,0.3-0.5,0.5l-35.6,61.6
			c4.5,5.6,9.5,10.8,14.9,15.5h5.8c0.7,0,1.4,0.5,1.4,1.3l0,0c0,0.7-0.6,1.3-1.4,1.4h-2.5c3,2.3,6.2,4.3,9.5,5.9v-3.1
			c0-0.7,0.5-1.3,1.3-1.3l0,0h15.3c0.7,0,1.3,0.5,1.3,1.3v7.4c0,0.2,0,0.4,0.1,0.5c0.2,0.5,0.7,0.7,1.2,0.7h16.1
			c0.5,0,0.8-0.2,1-0.5s0.3-0.5,0.3-0.8v-15.2c0-0.7,0.5-1.4,1.3-1.4l0,0h12.5c0.7,0,1.4-0.5,1.4-1.3
			C-580.1,1443.2-580.2,1443.1-580.2,1442.8z M-607.5,1448.8c0.3-0.3,0.5-0.4,0.9-0.4h5.8c0.7,0,1.4,0.5,1.4,1.4l0,0
			c0,0.7-0.5,1.4-1.3,1.4l0,0h-5.8c-0.7,0-1.4-0.5-1.4-1.3l0,0C-608,1449.5-607.8,1449.2-607.5,1448.8L-607.5,1448.8z
			 M-633.4,1422.5c-0.7,0-1.3-0.5-1.3-1.3l0,0v-10c0-0.7,0.5-1.3,1.3-1.4l0,0h21.5c0.7,0,1.3,0.6,1.3,1.4v10c0,0.7-0.5,1.3-1.3,1.4
			L-633.4,1422.5L-633.4,1422.5z"/>
		<path class="st5" d="M-417.3,1314.6h-51.1v-11c0-1.5-1.2-2.6-2.6-2.6l0,0h-15v-11.7c0-0.9-0.7-1.6-1.6-1.6l0,0h-19.3
			c-0.9,0-1.6,0.7-1.6,1.6v11.7h-17.7c-1.5,0-2.6,1.2-2.6,2.6v11h-48.6c-0.3,0-0.5,0.2-0.5,0.5l0,0v146.5c0,0.3,0.2,0.5,0.5,0.5l0,0
			h32.4c0.3,0,0.5-0.2,0.5-0.5l0,0v-19.7c0-0.3,0.3-0.5,0.5-0.5h13.6c0.3,0,0.5,0.3,0.5,0.5v19.7c0,0.3,0.2,0.5,0.5,0.5l0,0h63.9
			c0.3,0,0.5-0.3,0.5-0.5l0,0v-19.7c0-0.3,0.3-0.5,0.5-0.5l0,0h13.6c0.3,0,0.5,0.3,0.5,0.5l0,0v19.7c0,0.3,0.3,0.5,0.5,0.5l0,0h32.7
			c0.3,0,0.5-0.3,0.5-0.5l0,0v-146.5C-416.7,1314.8-416.9,1314.6-417.3,1314.6z M-550.3,1434.6c0,0.3-0.2,0.5-0.5,0.5l0,0h-20
			c-0.3,0-0.5-0.2-0.5-0.5l0,0v-6.8c0-0.3,0.3-0.5,0.5-0.5l0,0h20c0.3,0,0.5,0.3,0.5,0.5l0,0V1434.6z M-550.3,1416.8
			c0,0.3-0.3,0.5-0.5,0.5h-20c-0.3,0-0.5-0.3-0.5-0.5v-6.8c0-0.3,0.3-0.5,0.5-0.5h20c0.3,0,0.5,0.3,0.5,0.5V1416.8z M-550.3,1399.2
			c0,0.3-0.2,0.5-0.5,0.5l0,0h-20c-0.3,0-0.5-0.2-0.5-0.5l0,0v-6.8c0-0.3,0.2-0.5,0.5-0.5l0,0h20c0.3,0,0.5,0.2,0.5,0.5l0,0V1399.2z
			 M-550.3,1381.7c0,0.3-0.2,0.5-0.5,0.5l0,0h-20c-0.3,0-0.5-0.2-0.5-0.5l0,0v-6.8c0-0.3,0.2-0.5,0.5-0.5l0,0h20
			c0.3,0,0.5,0.2,0.5,0.5l0,0V1381.7z M-550.3,1364c0,0.3-0.3,0.5-0.5,0.5h-20c-0.3,0-0.5-0.3-0.5-0.5v-6.8c0-0.3,0.3-0.5,0.5-0.5
			h20c0.3,0,0.5,0.3,0.5,0.5V1364z M-550.3,1346.3c0,0.3-0.2,0.5-0.5,0.5l0,0h-20c-0.3,0-0.5-0.2-0.5-0.5l0,0v-6.8
			c0-0.3,0.2-0.5,0.5-0.5l0,0h20c0.3,0,0.5,0.2,0.5,0.5l0,0V1346.3z M-550.3,1328.8c0,0.3-0.2,0.5-0.5,0.5l0,0h-20
			c-0.3,0-0.5-0.2-0.5-0.5l0,0v-6.8c0-0.3,0.2-0.5,0.5-0.5l0,0h20c0.3,0,0.5,0.2,0.5,0.5l0,0V1328.8z M-503,1434.6
			c0,0.3-0.2,0.5-0.5,0.5l0,0h-20c-0.3,0-0.5-0.2-0.5-0.5l0,0v-6.8c0-0.3,0.3-0.5,0.5-0.5l0,0h20c0.3,0,0.5,0.3,0.5,0.5l0,0V1434.6z
			 M-503,1416.8c0,0.3-0.3,0.5-0.5,0.5h-20c-0.3,0-0.5-0.3-0.5-0.5v-6.8c0-0.3,0.3-0.5,0.5-0.5h20c0.3,0,0.5,0.3,0.5,0.5V1416.8z
			 M-503,1399.2c0,0.3-0.2,0.5-0.5,0.5l0,0h-20c-0.3,0-0.5-0.2-0.5-0.5l0,0v-6.8c0-0.3,0.2-0.5,0.5-0.5l0,0h20
			c0.3,0,0.5,0.2,0.5,0.5l0,0V1399.2z M-503,1381.7c0,0.3-0.2,0.5-0.5,0.5l0,0h-20c-0.3,0-0.5-0.2-0.5-0.5l0,0v-6.8
			c0-0.3,0.2-0.5,0.5-0.5l0,0h20c0.3,0,0.5,0.2,0.5,0.5l0,0V1381.7z M-503,1364c0,0.3-0.3,0.5-0.5,0.5h-20c-0.3,0-0.5-0.3-0.5-0.5
			v-6.8c0-0.3,0.3-0.5,0.5-0.5h20c0.3,0,0.5,0.3,0.5,0.5V1364z M-503,1346.3c0,0.3-0.2,0.5-0.5,0.5l0,0h-20c-0.3,0-0.5-0.2-0.5-0.5
			l0,0v-6.8c0-0.3,0.2-0.5,0.5-0.5l0,0h20c0.3,0,0.5,0.2,0.5,0.5l0,0V1346.3z M-503,1328.8c0,0.3-0.2,0.5-0.5,0.5l0,0h-20
			c-0.3,0-0.5-0.2-0.5-0.5l0,0v-6.8c0-0.3,0.2-0.5,0.5-0.5l0,0h20c0.3,0,0.5,0.2,0.5,0.5l0,0V1328.8z M-470.6,1434.6
			c0,0.3-0.3,0.5-0.5,0.5l0,0h-20c-0.3,0-0.5-0.3-0.5-0.5v-6.8c0-0.3,0.3-0.5,0.5-0.5h20c0.3,0,0.5,0.3,0.5,0.5L-470.6,1434.6
			L-470.6,1434.6z M-470.6,1416.8c0,0.3-0.3,0.5-0.5,0.5h-20c-0.3,0-0.5-0.3-0.5-0.5v-6.8c0-0.3,0.3-0.5,0.5-0.5h20
			c0.3,0,0.5,0.3,0.5,0.5L-470.6,1416.8L-470.6,1416.8z M-470.6,1399.2c0,0.3-0.3,0.5-0.5,0.5l0,0h-20c-0.3,0-0.5-0.3-0.5-0.5v-6.8
			c0-0.3,0.3-0.5,0.5-0.5h20c0.3,0,0.5,0.3,0.5,0.5l0,0L-470.6,1399.2L-470.6,1399.2z M-470.6,1381.7c0,0.3-0.3,0.5-0.5,0.5l0,0h-20
			c-0.3,0-0.5-0.3-0.5-0.5v-6.8c0-0.3,0.3-0.5,0.5-0.5h20c0.3,0,0.5,0.3,0.5,0.5l0,0L-470.6,1381.7L-470.6,1381.7z M-470.6,1364
			c0,0.3-0.3,0.5-0.5,0.5h-20c-0.3,0-0.5-0.3-0.5-0.5v-6.8c0-0.3,0.3-0.5,0.5-0.5h20c0.3,0,0.5,0.3,0.5,0.5L-470.6,1364L-470.6,1364
			z M-470.6,1346.3c0,0.3-0.3,0.5-0.5,0.5l0,0h-20c-0.3,0-0.5-0.3-0.5-0.5v-6.8c0-0.3,0.3-0.5,0.5-0.5h20c0.3,0,0.5,0.3,0.5,0.5l0,0
			L-470.6,1346.3L-470.6,1346.3z M-470.6,1328.8c0,0.3-0.3,0.5-0.5,0.5l0,0h-20c-0.3,0-0.5-0.3-0.5-0.5v-6.8c0-0.3,0.3-0.5,0.5-0.5
			h20c0.3,0,0.5,0.3,0.5,0.5l0,0L-470.6,1328.8L-470.6,1328.8z M-423.3,1434.6c0,0.3-0.3,0.5-0.5,0.5l0,0h-20
			c-0.3,0-0.5-0.2-0.5-0.5l0,0v-6.8c0-0.3,0.3-0.5,0.5-0.5l0,0h20c0.3,0,0.5,0.3,0.5,0.5V1434.6z M-423.3,1416.8
			c0,0.3-0.3,0.5-0.5,0.5h-20c-0.3,0-0.5-0.3-0.5-0.5l0,0v-6.8c0-0.3,0.3-0.5,0.5-0.5l0,0h20c0.3,0,0.5,0.3,0.5,0.5V1416.8z
			 M-423.3,1399.2c0,0.3-0.3,0.5-0.5,0.5l0,0h-20c-0.3,0-0.5-0.2-0.5-0.5l0,0v-6.8c0-0.3,0.2-0.5,0.5-0.5l0,0h20
			c0.3,0,0.5,0.3,0.5,0.5l0,0V1399.2z M-423.3,1381.7c0,0.3-0.3,0.5-0.5,0.5l0,0h-20c-0.3,0-0.5-0.2-0.5-0.5l0,0v-6.8
			c0-0.3,0.2-0.5,0.5-0.5l0,0h20c0.3,0,0.5,0.3,0.5,0.5l0,0V1381.7z M-423.3,1364c0,0.3-0.3,0.5-0.5,0.5h-20c-0.3,0-0.5-0.3-0.5-0.5
			l0,0v-6.8c0-0.3,0.3-0.5,0.5-0.5l0,0h20c0.3,0,0.5,0.3,0.5,0.5V1364z M-423.3,1346.3c0,0.3-0.3,0.5-0.5,0.5l0,0h-20
			c-0.3,0-0.5-0.2-0.5-0.5l0,0v-6.8c0-0.3,0.2-0.5,0.5-0.5l0,0h20c0.3,0,0.5,0.3,0.5,0.5l0,0V1346.3z M-423.3,1328.8
			c0,0.3-0.3,0.5-0.5,0.5l0,0h-20c-0.3,0-0.5-0.2-0.5-0.5l0,0v-6.8c0-0.3,0.2-0.5,0.5-0.5l0,0h20c0.3,0,0.5,0.3,0.5,0.5l0,0V1328.8z
			"/>
		<path class="st5" d="M-562.6,1274.8c-2.3-0.5-4.5-0.2-6.6,0.7c-2.5,1.2-5.5,1.2-8,0c-3-1.4-6.5-1.3-9.5,0.2
			c-0.8,0.5-1.8,0.7-2.7,0.7c-3.8,0-7-3.8-7.6-8.9c0.7-0.5,1.4-1.3,1.9-2.1c2.3-3.6,5.7-5.9,9.6-5.9c3.9,0,7.4,2.3,9.5,5.8
			c1.4,2.2,3.8,3.5,6.4,3.5h0.1C-566.5,1268.8-563.9,1271.2-562.6,1274.8z"/>
		<path class="st5" d="M-551,1259l-6.2,3.9l3.7-6.8c-1.1-0.8-2.4-1.3-3.7-1.4h-0.1c-0.5,0-0.8,0-1.3-0.1l-2.1,1.4l0.9-1.6
			c-1.5-0.5-2.7-1.5-3.6-2.7l-3.7,2.4l2.4-4.3c-2-2.6-5.1-4.2-8.4-4.3c-3.9,0-7.4,2.3-9.6,5.9c-1.4,2.2-3.8,3.5-6.4,3.5h-0.1
			c-4.3,0-7.8,4.9-7.8,10.9s3.5,10.9,7.8,10.9c0.9,0,1.9-0.3,2.7-0.6c3-1.5,6.4-1.5,9.5-0.2c2.5,1.1,5.5,1.1,8,0
			c3-1.3,6.4-1.3,9.4,0.2c0.8,0.5,1.8,0.6,2.7,0.6c4.3,0,7.8-4.9,7.8-10.9C-549.3,1263.2-549.9,1261-551,1259z"/>
	</g>
	<g id="_x23_chart_x28_have_x5B_pad_x5D__x29_">
		<path class="st2" d="M-393.9,1241.2h301.7c9.9,0,18,8.1,18,18v370.6c0,9.9-8.1,18-18,18h-301.7c-9.9,0-18-8.1-18-18v-370.6
			C-411.9,1249.2-403.9,1241.2-393.9,1241.2z"/>
		<rect x="-396.9" y="1282.2" class="st3" width="305.4" height="324.7"/>
		<circle class="st3" cx="-243.1" cy="1628.2" r="11.9"/>
		<path class="st3" d="M-243.1,1270.6c-3,0-5.5-2.5-5.5-5.5s2.5-5.5,5.5-5.5s5.5,2.5,5.5,5.5
			C-237.7,1268.1-240.1,1270.6-243.1,1270.6z"/>
		<path class="st3" d="M-243.1,1260.1c2.8,0,5.1,2.3,5.1,5c0,2.8-2.3,5.1-5,5.1c-2.8,0-5.1-2.3-5.1-5l0,0
			C-248.1,1262.2-245.9,1260.1-243.1,1260.1 M-243.1,1259.1c-3.3,0-6,2.6-6,5.9s2.6,6,5.9,6s6-2.6,6-5.9l0,0
			C-237.1,1261.8-239.8,1259.1-243.1,1259.1L-243.1,1259.1z"/>
		<path class="st5" d="M-122.3,1450.7L-122.3,1450.7c-0.1-2.7-0.6-5.3-1.4-7.8l-0.2-0.5c-2.1-6-6-11.2-11.3-14.7
			c-12.2-8.3-28.6-6.3-38.4,4.7c-0.5-2.8-1.3-5.5-2.4-8.2c-7.7,1-15.5,1.3-23.3,0.9c4.7,2.2,9.7,3.9,14.7,5.3l-0.2,0.6
			c-5.6-1.5-11.2-3.5-16.5-6.1l-1.6-0.8l1.8,0.1c8.3,0.5,16.5,0.3,24.7-0.7c-1.8-4.3-4.3-8.2-7.3-11.5c-13.3-1.4-26.5-4.1-38.8-9.6
			l0.3-0.6c12,5.4,24.8,8.2,37.8,9.5c-15.6-16.8-41.9-17.7-58.7-2.1c-2.8,2.6-5.4,5.7-7.4,9.1c-1.3-11.9-6.2-23.2-14.2-32.1
			c-7.1,2.8-14.5,5.1-21.9,6.6c-11.3,2.4-22.7,3.3-34.3,2.7c4.7,2.2,9.7,4,14.7,5.4l-0.2,0.6c-5.6-1.5-11.2-3.6-16.5-6.2l-1.6-0.8
			l1.8,0.1c19.5,1.3,39.2-1.8,57.4-9.1c-0.7-0.7-1.4-1.5-2.1-2.2c-22.7,0.5-47.5,0.3-70-7.9c-16.9,10.5-27.2,28.9-27.2,48.7
			c0,10.7,2.9,25.5,8.1,40.4c2.3,6.6,4.9,13.1,8,19.4c1.5,3.2,3.2,6.3,5,9.3l0,0c2.1,3.6,4.5,7.1,7,10.5c0.5,0.6,0.9,1.2,1.4,1.7
			c2.5,3.3,5.5,6.3,8.6,9l0,0c0.6,0.5,1.3,1.1,1.9,1.5c1.7,1.3,3.6,2.5,5.5,3.5c3.3,1.7,6.8,2.7,10.5,2.9c0.3,0,0.5,0,0.9,0v0.1
			h155.3v-0.1h0.1c0.9,0,1.8-0.2,2.6-0.5c5.5-2,10.5-9.8,14.7-19.6c0.9-2.2,1.8-4.5,2.6-6.8c0.7-2.1,1.5-4.2,2.1-6.4
			c1.9-6.3,3.5-12.6,4.9-19.1c1.3-5.8,2.1-11.8,2.3-17.8C-122.3,1451.6-122.3,1451.1-122.3,1450.7z"/>
		<path class="st5" d="M-267.6,1382.7c-18.5-17.6-46.4-20.8-68.4-7.7C-314.1,1382.8-289.9,1383.1-267.6,1382.7z"/>
		<path class="st5" d="M-140.3,1510.3l-24-41.5c-0.2-0.4-0.6-0.5-1-0.3c-0.1,0.1-0.2,0.2-0.3,0.3l-24,41.5c-0.2,0.4-0.1,0.8,0.3,1
			c0.1,0.1,0.3,0.1,0.4,0.1h7.2c0.5,0,0.7,0.4,0.7,0.7v8.9c0,0.5,0.4,0.7,0.7,0.7h9.4c0.5,0,0.7-0.4,0.7-0.7v-4.3
			c0-0.5,0.4-0.7,0.7-0.7l0,0h8.9c0.5,0,0.7,0.4,0.7,0.7l0,0v4.3c0,0.5,0.4,0.7,0.7,0.7h9.5c0.4,0,0.6-0.2,0.7-0.5
			c0-0.1,0-0.2,0-0.3v-8.9c0-0.5,0.4-0.7,0.7-0.7l0,0h7.2c0.5,0,0.8-0.3,0.8-0.7C-140.3,1510.6-140.3,1510.5-140.3,1510.3z
			 M-173.8,1514.8c-0.2,0.2-0.4,0.2-0.5,0.2h-3.4c-0.5,0-0.7-0.4-0.7-0.7c0-0.2,0.1-0.4,0.2-0.5c0.2-0.2,0.4-0.2,0.5-0.2h3.4
			c0.5,0,0.7,0.4,0.7,0.7C-173.5,1514.5-173.6,1514.8-173.8,1514.8L-173.8,1514.8z M-151.7,1514.8c-0.2,0.2-0.4,0.2-0.5,0.2h-3.4
			c-0.5-0.1-0.7-0.5-0.7-0.8c0-0.4,0.4-0.6,0.7-0.7h3.4c0.5,0,0.7,0.4,0.7,0.7C-151.5,1514.5-151.6,1514.8-151.7,1514.8
			L-151.7,1514.8z"/>
		<path class="st5" d="M-288.5,1510.7l-24-41.5c-0.2-0.4-0.6-0.5-1-0.3c-0.1,0.1-0.2,0.2-0.3,0.3l-20.7,35.9c2.5,3.3,5.5,6.3,8.6,9
			h3.4c0.5,0,0.7,0.4,0.7,0.7c0,0.2-0.1,0.4-0.2,0.5c-0.2,0.2-0.4,0.3-0.5,0.2h-1.5c1.7,1.3,3.6,2.5,5.5,3.5v-1.8
			c0-0.5,0.4-0.7,0.7-0.7l0,0h8.9c0.5,0,0.7,0.4,0.7,0.7v4.3c0,0.1,0,0.2,0.1,0.3c0.1,0.3,0.4,0.5,0.7,0.5h9.4
			c0.3,0,0.5-0.1,0.6-0.3c0.1-0.1,0.2-0.3,0.2-0.5v-8.9c0-0.5,0.4-0.7,0.7-0.7l0,0h7.2c0.5,0,0.7-0.4,0.7-0.8
			C-288.4,1510.8-288.5,1510.8-288.5,1510.7z M-304.4,1514.2c0.2-0.2,0.4-0.2,0.5-0.2h3.4c0.5,0,0.7,0.4,0.7,0.7
			c0,0.2-0.1,0.5-0.3,0.5c-0.2,0.2-0.4,0.3-0.5,0.2h-3.4c-0.5,0-0.7-0.4-0.7-0.7C-304.6,1514.5-304.5,1514.3-304.4,1514.2z
			 M-319.4,1498.8c-0.5,0-0.7-0.4-0.7-0.7l0,0v-5.8c0-0.5,0.4-0.7,0.7-0.7l0,0h12.5c0.5,0,0.7,0.4,0.7,0.7v5.8
			c0,0.5-0.4,0.7-0.7,0.7H-319.4z"/>
		<path class="st5" d="M-193.8,1436.1h-29.6v-6.4c0-0.8-0.7-1.5-1.5-1.5l0,0h-8.7v-6.9c0-0.5-0.5-1-1-1h-11.2c-0.5,0-1,0.5-1,0.9
			l0,0v6.8h-10.3c-0.8,0-1.5,0.7-1.5,1.5l0,0v6.4h-28.3c-0.2,0-0.3,0.2-0.3,0.3v85.2c0,0.2,0.2,0.3,0.3,0.3h18.8
			c0.2,0,0.3-0.2,0.3-0.3l0,0v-11.5c0-0.2,0.2-0.3,0.3-0.3h7.9c0.2,0,0.3,0.2,0.3,0.3v11.5c0,0.2,0.2,0.3,0.3,0.3l0,0h37.2
			c0.2,0,0.3-0.2,0.3-0.3l0,0v-11.5c0-0.2,0.2-0.3,0.3-0.3l0,0h7.9c0.2,0,0.3,0.2,0.3,0.3l0,0v11.5c0,0.2,0.2,0.3,0.3,0.3h18.8
			c0.2,0,0.3-0.2,0.3-0.3l0,0L-193.8,1436.1C-193.4,1436.2-193.6,1436.1-193.8,1436.1L-193.8,1436.1z M-271.1,1505.8
			c0,0.2-0.2,0.3-0.3,0.3l0,0H-283c-0.2,0-0.3-0.2-0.3-0.3l0,0v-4c0-0.2,0.2-0.3,0.3-0.3l0,0h11.6c0.2,0,0.3,0.2,0.3,0.3l0,0V1505.8
			z M-271.1,1495.6c0,0.2-0.2,0.3-0.3,0.3l0,0H-283c-0.2,0-0.3-0.2-0.3-0.3l0,0v-4c0-0.2,0.2-0.3,0.3-0.3l0,0h11.6
			c0.2,0,0.3,0.2,0.3,0.3l0,0V1495.6z M-271.1,1485.3c0,0.2-0.2,0.3-0.3,0.3l0,0H-283c-0.2,0-0.3-0.2-0.3-0.3l0,0v-4
			c0-0.2,0.2-0.3,0.3-0.3l0,0h11.6c0.2,0,0.3,0.2,0.3,0.3l0,0V1485.3z M-271.1,1475.1c0,0.2-0.2,0.3-0.3,0.3H-283
			c-0.2,0-0.3-0.2-0.3-0.3v-4c0-0.2,0.2-0.3,0.3-0.3l0,0h11.6c0.2,0,0.3,0.2,0.3,0.3l0,0V1475.1z M-271.1,1464.8
			c0,0.2-0.2,0.3-0.3,0.3l0,0H-283c-0.2,0-0.3-0.2-0.3-0.3l0,0v-4c0-0.2,0.2-0.3,0.3-0.3l0,0h11.6c0.2,0,0.3,0.2,0.3,0.3l0,0V1464.8
			z M-271.1,1454.6c0,0.2-0.2,0.3-0.3,0.3l0,0H-283c-0.2,0-0.3-0.2-0.3-0.3l0,0v-4c0-0.2,0.2-0.3,0.3-0.3l0,0h11.6
			c0.2,0,0.3,0.2,0.3,0.3l0,0V1454.6z M-271.1,1444.3c0,0.2-0.2,0.3-0.3,0.3l0,0H-283c-0.2,0-0.3-0.2-0.3-0.3l0,0v-4
			c0-0.2,0.2-0.3,0.3-0.3l0,0h11.6c0.2,0,0.3,0.2,0.3,0.3l0,0V1444.3z M-243.6,1505.8c0,0.2-0.2,0.3-0.3,0.3l0,0h-11.6
			c-0.2,0-0.3-0.2-0.3-0.3l0,0v-4c0-0.2,0.2-0.3,0.3-0.3l0,0h11.6c0.2,0,0.3,0.2,0.3,0.3l0,0V1505.8z M-243.6,1495.6
			c0,0.2-0.2,0.3-0.3,0.3l0,0h-11.6c-0.2,0-0.3-0.2-0.3-0.3l0,0v-4c0-0.2,0.2-0.3,0.3-0.3l0,0h11.6c0.2,0,0.3,0.2,0.3,0.3l0,0
			V1495.6z M-243.6,1485.3c0,0.2-0.2,0.3-0.3,0.3l0,0h-11.6c-0.2,0-0.3-0.2-0.3-0.3l0,0v-4c0-0.2,0.2-0.3,0.3-0.3l0,0h11.6
			c0.2,0,0.3,0.2,0.3,0.3l0,0V1485.3z M-243.6,1475.1c0,0.2-0.2,0.3-0.3,0.3h-11.6c-0.2,0-0.3-0.2-0.3-0.3v-4c0-0.2,0.2-0.3,0.3-0.3
			l0,0h11.6c0.2,0,0.3,0.2,0.3,0.3l0,0V1475.1z M-243.6,1464.8c0,0.2-0.2,0.3-0.3,0.3l0,0h-11.6c-0.2,0-0.3-0.2-0.3-0.3l0,0v-4
			c0-0.2,0.2-0.3,0.3-0.3l0,0h11.6c0.2,0,0.3,0.2,0.3,0.3l0,0V1464.8z M-243.6,1454.6c0,0.2-0.2,0.3-0.3,0.3l0,0h-11.6
			c-0.2,0-0.3-0.2-0.3-0.3l0,0v-4c0-0.2,0.2-0.3,0.3-0.3l0,0h11.6c0.2,0,0.3,0.2,0.3,0.3l0,0V1454.6z M-243.6,1444.3
			c0,0.2-0.2,0.3-0.3,0.3l0,0h-11.6c-0.2,0-0.3-0.2-0.3-0.3l0,0v-4c0-0.2,0.2-0.3,0.3-0.3l0,0h11.6c0.2,0,0.3,0.2,0.3,0.3l0,0
			V1444.3z M-224.8,1505.8c0,0.2-0.2,0.3-0.3,0.3l0,0h-11.6c-0.2,0-0.3-0.2-0.3-0.3l0,0v-4c0-0.2,0.2-0.3,0.3-0.3l0,0h11.5
			c0.2,0,0.3,0.2,0.3,0.3l0,0L-224.8,1505.8z M-224.8,1495.6c0,0.2-0.2,0.3-0.3,0.3l0,0h-11.6c-0.2,0-0.3-0.2-0.3-0.3l0,0v-4
			c0-0.2,0.2-0.3,0.3-0.3l0,0h11.5c0.2,0,0.3,0.2,0.3,0.3l0,0L-224.8,1495.6z M-224.8,1485.3c0,0.2-0.2,0.3-0.3,0.3l0,0h-11.6
			c-0.2,0-0.3-0.2-0.3-0.3l0,0v-4c0-0.2,0.2-0.3,0.3-0.3l0,0h11.5c0.2,0,0.3,0.2,0.3,0.3l0,0L-224.8,1485.3z M-224.8,1475.1
			c0,0.2-0.2,0.3-0.3,0.3h-11.6c-0.2,0-0.3-0.2-0.3-0.3v-4c0-0.2,0.2-0.3,0.3-0.3l0,0h11.5c0.2,0,0.3,0.2,0.3,0.3l0,0L-224.8,1475.1
			z M-224.8,1464.8c0,0.2-0.2,0.3-0.3,0.3l0,0h-11.6c-0.2,0-0.3-0.2-0.3-0.3l0,0v-4c0-0.2,0.2-0.3,0.3-0.3l0,0h11.5
			c0.2,0,0.3,0.2,0.3,0.3l0,0L-224.8,1464.8z M-224.8,1454.6c0,0.2-0.2,0.3-0.3,0.3l0,0h-11.6c-0.2,0-0.3-0.2-0.3-0.3l0,0v-4
			c0-0.2,0.2-0.3,0.3-0.3l0,0h11.5c0.2,0,0.3,0.2,0.3,0.3l0,0L-224.8,1454.6z M-224.8,1444.3c0,0.2-0.2,0.3-0.3,0.3l0,0h-11.6
			c-0.2,0-0.3-0.2-0.3-0.3l0,0v-4c0-0.2,0.2-0.3,0.3-0.3l0,0h11.5c0.2,0,0.3,0.2,0.3,0.3l0,0L-224.8,1444.3z M-197.2,1505.8
			c0,0.2-0.2,0.3-0.3,0.3h-11.6c-0.2,0-0.3-0.2-0.3-0.3l0,0v-4c0-0.2,0.2-0.3,0.3-0.3l0,0h11.6c0.2,0,0.3,0.2,0.3,0.3l0,0V1505.8z
			 M-197.2,1495.6c0,0.2-0.2,0.3-0.3,0.3l0,0h-11.6c-0.2,0-0.3-0.2-0.3-0.3l0,0v-4c0-0.2,0.2-0.3,0.3-0.3l0,0h11.6
			c0.2,0,0.3,0.2,0.3,0.3l0,0V1495.6z M-197.2,1485.3c0,0.2-0.2,0.3-0.3,0.3l0,0h-11.6c-0.2,0-0.3-0.2-0.3-0.3l0,0v-4
			c0-0.2,0.2-0.3,0.3-0.3l0,0h11.6c0.2,0,0.3,0.2,0.3,0.3V1485.3z M-197.2,1475.1c0,0.2-0.2,0.3-0.3,0.3h-11.6
			c-0.2,0-0.3-0.2-0.3-0.3v-4c0-0.2,0.2-0.3,0.3-0.3l0,0h11.6c0.2,0,0.3,0.2,0.3,0.3l0,0V1475.1z M-197.2,1464.8
			c0,0.2-0.2,0.3-0.3,0.3l0,0h-11.6c-0.2,0-0.3-0.2-0.3-0.3l0,0v-4c0-0.2,0.2-0.3,0.3-0.3l0,0h11.6c0.2,0,0.3,0.2,0.3,0.3V1464.8z
			 M-197.2,1454.6c0,0.2-0.2,0.3-0.3,0.3h-11.6c-0.2,0-0.3-0.2-0.3-0.3l0,0v-4c0-0.2,0.2-0.3,0.3-0.3l0,0h11.6
			c0.2,0,0.3,0.2,0.3,0.3l0,0V1454.6z M-197.2,1444.3c0,0.2-0.2,0.3-0.3,0.3l0,0h-11.6c-0.2,0-0.3-0.2-0.3-0.3l0,0v-4
			c0-0.2,0.2-0.3,0.3-0.3l0,0h11.6c0.2,0,0.3,0.2,0.3,0.3l0,0V1444.3z"/>
		<path class="st5" d="M-278.2,1413c-1.3-0.3-2.6-0.1-3.9,0.5c-0.7,0.4-1.5,0.5-2.3,0.5s-1.6-0.2-2.4-0.5c-1.7-0.7-3.7-0.7-5.5,0.1
			c-0.5,0.3-1,0.4-1.5,0.4c-2.2,0-4.1-2.3-4.5-5.2c0.5-0.4,0.8-0.7,1.1-1.2c1.5-3.1,5.3-4.3,8.4-2.7c1.2,0.6,2.2,1.5,2.7,2.7
			c0.8,1.3,2.2,2,3.6,2h0.1C-280.5,1409.6-279,1410.8-278.2,1413z"/>
		<path class="st5" d="M-271.5,1403.8l-3.6,2.3l2.2-4c-0.6-0.5-1.4-0.7-2.2-0.7l0,0c-0.3,0-0.5,0-0.7-0.1l-1.2,0.7l0.5-0.9
			c-0.8-0.3-1.6-0.8-2.1-1.6l-2.2,1.4l1.4-2.5c-1.2-1.5-3-2.5-4.9-2.5c-2.4,0.1-4.5,1.4-5.5,3.5c-0.8,1.3-2.2,2-3.7,2h-0.1
			c-2.5,0-4.5,2.8-4.5,6.4s2,6.4,4.5,6.4c0.5,0,1.1-0.2,1.5-0.4c1.7-0.8,3.7-0.9,5.5-0.1c0.7,0.4,1.5,0.5,2.4,0.5
			c0.8,0,1.5-0.2,2.3-0.5c1.7-0.7,3.7-0.7,5.5,0.1c0.5,0.3,1,0.4,1.5,0.4c2.5,0,4.5-2.8,4.5-6.4
			C-270.5,1406.2-270.9,1405-271.5,1403.8z"/>
	</g>
	<g id="_x23_chart_x28_have_x5B_phone_x5D__x29_">
		<path class="st2" d="M29.3,1392.3H30c1.2,0,2.1,0.9,2.1,2.1v36c0,1.2-0.9,2.1-2.1,2.1h-0.7c-1.2,0-2.1-0.9-2.1-2.1v-36
			C27.2,1393.2,28.2,1392.3,29.3,1392.3z"/>
		<path class="st2" d="M-133.3,1360.8L-133.3,1360.8c0.7,0,1.4,0.6,1.4,1.4v10.5c0,0.7-0.6,1.4-1.4,1.4l0,0c-0.7,0-1.4-0.6-1.4-1.4
			v-10.5C-134.7,1361.5-134.1,1360.8-133.3,1360.8z"/>
		<path class="st2" d="M-133.3,1385.1L-133.3,1385.1c0.8,0,1.5,0.7,1.5,1.5v19.9c0,0.8-0.7,1.5-1.5,1.5l0,0c-0.8,0-1.5-0.7-1.5-1.5
			v-19.9C-134.8,1385.8-134.1,1385.1-133.3,1385.1z"/>
		<path class="st2" d="M-133.3,1416.2L-133.3,1416.2c0.8,0,1.5,0.6,1.5,1.5v20.3c0,0.8-0.6,1.5-1.5,1.5l0,0c-0.8,0-1.5-0.6-1.5-1.5
			v-20.3C-134.7,1416.8-134.1,1416.2-133.3,1416.2z"/>
		<path class="st2" d="M-116.3,1317.2H12.9c9.3,0,16.8,7.5,16.8,16.8v297.5c0,9.3-7.5,16.8-16.8,16.8h-129.2
			c-9.3,0-16.8-7.5-16.8-16.8V1334C-133.2,1324.8-125.5,1317.2-116.3,1317.2z"/>
		<path class="st6" d="M-65.1,1327.1h18.2c1.3,0,2.3,1,2.3,2.3l0,0c0,1.3-1,2.3-2.3,2.3h-18.2c-1.3,0-2.3-1-2.3-2.3l0,0
			C-67.4,1328.1-66.4,1327.1-65.1,1327.1z"/>
		<circle class="st6" cx="-38.5" cy="1329.3" r="2.6"/>
		<path class="st3" d="M6.8,1325.8h-18.6v2.3c0,5.9-4.7,10.6-10.6,10.6h-59.5c-5.9,0-10.6-4.8-10.6-10.6v-2.3H-110
			c-7.2,0-12.9,5.8-12.9,12.9v288c0,7.2,5.8,12.9,12.9,12.9H7c7.2,0,12.9-5.8,12.9-12.9l0,0v-288C19.8,1331.7,14,1325.8,6.8,1325.8z
			"/>
		<path class="st5" d="M3.2,1485.6L3.2,1485.6c-0.1-1.2-0.3-2.4-0.6-3.5c0-0.1,0-0.1-0.1-0.2c-2.4-6.9-9.9-10.6-16.8-8.3
			c-2.2,0.7-4.1,2-5.6,3.7c-0.2-1.3-0.5-2.5-1.1-3.7c-3.5,0.5-7,0.5-10.5,0.4c2.2,1,4.4,1.8,6.6,2.5l-0.1,0.3
			c-2.5-0.7-5.1-1.6-7.5-2.8l-0.7-0.4l0.8,0.1c3.7,0.3,7.5,0.2,11.2-0.4c-0.8-1.9-1.9-3.6-3.3-5.3c-6-0.5-11.9-2-17.5-4.4l0.1-0.3
			c5.5,2.4,11.2,3.8,17.1,4.3c-7.1-7.5-18.9-8-26.5-0.9c-1.3,1.2-2.4,2.5-3.3,4.1c-0.5-5.4-2.8-10.5-6.4-14.5
			c-8,3.2-16.7,4.6-25.4,4.2c2.2,1,4.4,1.8,6.6,2.5l-0.1,0.3c-2.5-0.7-5.1-1.6-7.5-2.8l-0.7-0.4l0.8,0.1c8.8,0.5,17.6-0.8,25.9-4.1
			c-0.3-0.4-0.6-0.6-0.9-1c-10.3,0.2-21.5,0.1-31.5-3.5c-7.6,4.7-12.3,13-12.3,22c0,4.8,1.4,11.5,3.6,18.2c1,3,2.3,5.9,3.6,8.7
			c0.7,1.5,1.5,2.8,2.3,4.2l0,0c0.9,1.6,2,3.2,3.2,4.7l0.6,0.8c1.2,1.5,2.5,2.8,3.9,4.1l0,0c0.3,0.3,0.5,0.5,0.9,0.7
			c0.8,0.6,1.6,1.1,2.5,1.5c1.5,0.7,3.1,1.2,4.7,1.3h0.4l0,0h70.1l0,0h0.1c0.4,0,0.8-0.1,1.2-0.2c2.5-0.9,4.7-4.4,6.6-8.9
			c0.5-1,0.8-2,1.2-3.1s0.6-1.9,1-2.9c0.9-2.9,1.6-5.9,2.2-8.6c0.5-2.6,0.9-5.4,1-8C3.2,1485.8,3.2,1485.7,3.2,1485.6z"/>
		<path class="st5" d="M-62.4,1454.8c-8.4-8-21-9.4-30.9-3.5C-83.4,1454.8-72.4,1455.1-62.4,1454.8z"/>
		<path class="st5" d="M-5,1512.5l-10.8-18.7c-0.1-0.2-0.3-0.2-0.5-0.1c-0.1,0-0.1,0.1-0.1,0.1l-10.8,18.7c-0.1,0.2,0,0.4,0.1,0.5
			c0.1,0,0.1,0.1,0.2,0.1h3.2c0.2,0,0.4,0.2,0.4,0.4l0,0v4c0,0.2,0.2,0.4,0.4,0.4l0,0h4.2c0.2,0,0.4-0.2,0.4-0.4l0,0v-1.9
			c0-0.2,0.2-0.4,0.4-0.4l0,0h4c0.2,0,0.4,0.2,0.4,0.4l0,0v1.9c0,0.2,0.2,0.4,0.4,0.4l0,0h4.2c0.2,0,0.3-0.1,0.4-0.3v-0.2v-4
			c0-0.2,0.2-0.4,0.4-0.4l0,0h3.3c0.2,0,0.4-0.1,0.4-0.3C-4.9,1512.6-4.9,1512.5-5,1512.5z M-20.1,1514.5c-0.1,0.1-0.2,0.1-0.3,0.1
			h-1.5c-0.2,0-0.4-0.2-0.4-0.4l0,0c0-0.1,0-0.2,0.1-0.3s0.2-0.1,0.3-0.1h1.5c0.2,0,0.4,0.2,0.4,0.4l0,0
			C-19.9,1514.3-20,1514.5-20.1,1514.5L-20.1,1514.5z M-10.1,1514.5c-0.1,0.1-0.2,0.1-0.3,0.1h-1.5c-0.2,0-0.4-0.2-0.4-0.4l0,0
			c0-0.1,0-0.2,0.1-0.3s0.2-0.1,0.3-0.1h1.5c0.2,0,0.4,0.2,0.4,0.4l0,0C-10,1514.3-10.1,1514.5-10.1,1514.5L-10.1,1514.5z"/>
		<path class="st5" d="M-71.8,1512.6l-10.8-18.7c-0.1-0.2-0.3-0.2-0.5-0.1c-0.1,0-0.1,0.1-0.1,0.1l-9.4,16.2
			c1.2,1.5,2.5,2.8,3.9,4.1h1.5c0.2,0,0.4,0.1,0.4,0.3c0,0.2-0.1,0.4-0.3,0.4h-0.1h-0.6c0.8,0.6,1.6,1.1,2.5,1.5v-0.8
			c0-0.2,0.2-0.4,0.4-0.4l0,0h4c0.2,0,0.4,0.2,0.4,0.4v1.9c0,0.2,0.2,0.4,0.4,0.4h4.2c0.1,0,0.2-0.1,0.3-0.2c0-0.1,0.1-0.1,0.1-0.2
			v-4c0-0.2,0.2-0.4,0.4-0.4l0,0h3.2c0.2,0,0.4-0.2,0.4-0.4C-71.8,1512.7-71.8,1512.6-71.8,1512.6z M-79,1514.2
			c0.1-0.1,0.2-0.1,0.3-0.1h1.5c0.2,0,0.4,0.1,0.4,0.3c0,0.2-0.1,0.4-0.3,0.4h-0.1h-1.5c-0.2,0-0.4-0.2-0.4-0.4l0,0
			C-79.1,1514.3-79.1,1514.2-79,1514.2z M-85.8,1507.2c-0.2,0-0.4-0.2-0.4-0.4l0,0v-2.6c0-0.2,0.2-0.4,0.4-0.4l0,0h5.6
			c0.2,0,0.4,0.2,0.4,0.4l0,0v2.6c0,0.2-0.2,0.4-0.4,0.4l0,0H-85.8z"/>
		<path class="st5" d="M-29.1,1479h-13.4v-2.9c0-0.4-0.3-0.7-0.7-0.7l0,0h-3.9v-3.1c0-0.3-0.2-0.5-0.5-0.5h-5.1
			c-0.3,0-0.5,0.2-0.5,0.5v3.1h-4.6c-0.4,0-0.7,0.3-0.7,0.7l0,0v2.9h-12.7c-0.1,0-0.2,0.1-0.2,0.1l0,0v38.4c0,0.1,0.1,0.2,0.2,0.2
			h8.5c0.1,0,0.2-0.1,0.2-0.2v-5.1c0-0.1,0.1-0.2,0.1-0.2l0,0h3.5c0.1,0,0.2,0.1,0.2,0.2v5.2c0,0.1,0.1,0.2,0.2,0.2h16.7
			c0.1,0,0.2-0.1,0.2-0.2v-5.2c0-0.1,0.1-0.2,0.1-0.2l0,0h3.5c0.1,0,0.2,0.1,0.2,0.2v5.2c0,0.1,0.1,0.2,0.2,0.2h8.5
			c0.1,0,0.2-0.1,0.2-0.2L-29.1,1479C-28.9,1479-29,1479-29.1,1479C-29,1479-29.1,1479-29.1,1479z M-64,1510.5
			c0,0.1-0.1,0.2-0.2,0.2h-5.3c-0.1,0-0.2-0.1-0.2-0.2v-1.8c0-0.1,0.1-0.2,0.2-0.2h5.3c0.1,0,0.2,0.1,0.2,0.2V1510.5z M-64,1505.8
			c0,0.1-0.1,0.2-0.2,0.2h-5.3c-0.1,0-0.2-0.1-0.2-0.2v-1.8c0-0.1,0.1-0.2,0.2-0.2h5.3c0.1,0,0.2,0.1,0.2,0.2V1505.8z M-64,1501.2
			c0,0.1-0.1,0.2-0.2,0.2h-5.3c-0.1,0-0.2-0.1-0.2-0.2v-1.8c0-0.1,0.1-0.2,0.2-0.2h5.3c0.1,0,0.2,0.1,0.2,0.2V1501.2z M-64,1496.6
			c0,0.1-0.1,0.2-0.2,0.2h-5.3c-0.1,0-0.2-0.1-0.2-0.2v-1.8c0-0.1,0.1-0.2,0.2-0.2h5.3c0.1,0,0.2,0.1,0.2,0.2V1496.6z M-64,1491.8
			c0,0.1-0.1,0.2-0.2,0.2h-5.3c-0.1,0-0.2-0.1-0.2-0.2v-1.8c0-0.1,0.1-0.2,0.2-0.2h5.3c0.1,0,0.2,0.1,0.2,0.2V1491.8z M-64,1487.2
			c0,0.1-0.1,0.2-0.2,0.2h-5.3c-0.1,0-0.2-0.1-0.2-0.2v-1.8c0-0.1,0.1-0.2,0.2-0.2h5.3c0.1,0,0.2,0.1,0.2,0.2V1487.2z M-64,1482.7
			c0,0.1-0.1,0.2-0.2,0.2h-5.3c-0.1,0-0.2-0.1-0.2-0.2v-1.8c0-0.1,0.1-0.2,0.2-0.2h5.3c0.1,0,0.2,0.1,0.2,0.2V1482.7z M-51.5,1510.5
			c0,0.1-0.1,0.2-0.2,0.2H-57c-0.1,0-0.2-0.1-0.2-0.2v-1.8c0-0.1,0.1-0.2,0.1-0.2l0,0h5.3c0.1,0,0.2,0.1,0.2,0.1l0,0L-51.5,1510.5
			L-51.5,1510.5z M-51.5,1505.8c0,0.1-0.1,0.2-0.1,0.2l0,0h-5.3c-0.1,0-0.2-0.1-0.2-0.1l0,0v-1.8c0-0.1,0.1-0.2,0.2-0.2h5.3
			c0.1,0,0.2,0.1,0.2,0.2L-51.5,1505.8L-51.5,1505.8z M-51.5,1501.2c0,0.1-0.1,0.2-0.2,0.2H-57c-0.1,0-0.2-0.1-0.2-0.2v-1.8
			c0-0.1,0.1-0.2,0.1-0.2l0,0h5.3c0.1,0,0.2,0.1,0.2,0.1l0,0L-51.5,1501.2L-51.5,1501.2z M-51.5,1496.6c0,0.1-0.1,0.2-0.2,0.2H-57
			c-0.1,0-0.2-0.1-0.2-0.2v-1.8c0-0.1,0.1-0.2,0.2-0.2h5.3c0.1,0,0.2,0.1,0.2,0.2V1496.6z M-51.5,1491.8c0,0.1-0.1,0.2-0.1,0.2l0,0
			h-5.3c-0.1,0-0.2-0.1-0.2-0.1l0,0v-1.8c0-0.1,0.1-0.2,0.1-0.2l0,0h5.3c0.1,0,0.2,0.1,0.2,0.1l0,0V1491.8z M-51.5,1487.2
			c0,0.1-0.1,0.2-0.2,0.2H-57c-0.1,0-0.2-0.1-0.2-0.2v-1.8c0-0.1,0.1-0.2,0.1-0.2l0,0h5.3c0.1,0,0.2,0.1,0.2,0.1l0,0L-51.5,1487.2
			L-51.5,1487.2z M-51.5,1482.7c0,0.1-0.1,0.2-0.1,0.2l0,0h-5.3c-0.1,0-0.2-0.1-0.2-0.1l0,0v-1.8c0-0.1,0.1-0.2,0.2-0.2h5.3
			c0.1,0,0.2,0.1,0.2,0.2L-51.5,1482.7L-51.5,1482.7z M-43.1,1510.5c0,0.1-0.1,0.2-0.2,0.2h-5.3c-0.1,0-0.2-0.1-0.2-0.2v-1.8
			c0-0.1,0.1-0.2,0.2-0.2h5.3c0.1,0,0.2,0.1,0.2,0.2V1510.5z M-43.1,1505.8c0,0.1-0.1,0.2-0.2,0.2h-5.3c-0.1,0-0.2-0.1-0.2-0.2v-1.8
			c0-0.1,0.1-0.2,0.2-0.2h5.3c0.1,0,0.2,0.1,0.2,0.2V1505.8z M-43.1,1501.2c0,0.1-0.1,0.2-0.2,0.2h-5.3c-0.1,0-0.2-0.1-0.2-0.2v-1.8
			c0-0.1,0.1-0.2,0.2-0.2h5.3c0.1,0,0.2,0.1,0.2,0.2V1501.2z M-43.1,1496.6c0,0.1-0.1,0.2-0.2,0.2h-5.3c-0.1,0-0.2-0.1-0.2-0.2v-1.8
			c0-0.1,0.1-0.2,0.2-0.2h5.3c0.1,0,0.2,0.1,0.2,0.2V1496.6z M-43.1,1491.8c0,0.1-0.1,0.2-0.2,0.2h-5.3c-0.1,0-0.2-0.1-0.2-0.2v-1.8
			c0-0.1,0.1-0.2,0.2-0.2h5.3c0.1,0,0.2,0.1,0.2,0.2V1491.8z M-43.1,1487.2c0,0.1-0.1,0.2-0.2,0.2h-5.3c-0.1,0-0.2-0.1-0.2-0.2v-1.8
			c0-0.1,0.1-0.2,0.2-0.2h5.3c0.1,0,0.2,0.1,0.2,0.2V1487.2z M-43.1,1482.7c0,0.1-0.1,0.2-0.2,0.2h-5.3c-0.1,0-0.2-0.1-0.2-0.2v-1.8
			c0-0.1,0.1-0.2,0.2-0.2h5.3c0.1,0,0.2,0.1,0.2,0.2V1482.7z M-30.6,1510.5c0,0.1-0.1,0.2-0.2,0.2h-5.3c-0.1,0-0.2-0.1-0.2-0.2v-1.8
			c0-0.1,0.1-0.2,0.1-0.2l0,0h5.3c0.1,0,0.2,0.1,0.2,0.1l0,0L-30.6,1510.5L-30.6,1510.5z M-30.6,1505.8c0,0.1-0.1,0.2-0.1,0.2l0,0
			H-36c-0.1,0-0.2-0.1-0.2-0.1l0,0v-1.8c0-0.1,0.1-0.2,0.2-0.2h5.3c0.1,0,0.2,0.1,0.2,0.2L-30.6,1505.8L-30.6,1505.8z M-30.6,1501.2
			c0,0.1-0.1,0.2-0.2,0.2h-5.3c-0.1,0-0.2-0.1-0.2-0.2v-1.8c0-0.1,0.1-0.2,0.1-0.2l0,0h5.3c0.1,0,0.2,0.1,0.2,0.1l0,0L-30.6,1501.2
			L-30.6,1501.2z M-30.6,1496.6c0,0.1-0.1,0.2-0.2,0.2h-5.3c-0.1,0-0.2-0.1-0.2-0.2v-1.8c0-0.1,0.1-0.2,0.2-0.2h5.3
			c0.1,0,0.2,0.1,0.2,0.2V1496.6z M-30.6,1491.8c0,0.1-0.1,0.2-0.1,0.2l0,0H-36c-0.1,0-0.2-0.1-0.2-0.1l0,0v-1.8
			c0-0.1,0.1-0.2,0.1-0.2l0,0h5.3c0.1,0,0.2,0.1,0.2,0.1l0,0V1491.8z M-30.6,1487.2c0,0.1-0.1,0.2-0.2,0.2h-5.3
			c-0.1,0-0.2-0.1-0.2-0.2v-1.8c0-0.1,0.1-0.2,0.1-0.2l0,0h5.3c0.1,0,0.2,0.1,0.2,0.1l0,0L-30.6,1487.2L-30.6,1487.2z M-30.6,1482.7
			c0,0.1-0.1,0.2-0.1,0.2l0,0H-36c-0.1,0-0.2-0.1-0.2-0.1l0,0v-1.8c0-0.1,0.1-0.2,0.2-0.2h5.3c0.1,0,0.2,0.1,0.2,0.2L-30.6,1482.7
			L-30.6,1482.7z"/>
		<path class="st5" d="M-67.2,1468.6c-0.5-0.1-1.2,0-1.7,0.2c-0.4,0.2-0.7,0.2-1.1,0.2s-0.7-0.1-1.1-0.2c-0.8-0.4-1.7-0.4-2.5,0.1
			c-0.2,0.1-0.5,0.2-0.7,0.2c-1,0-1.8-1-2-2.4c0.2-0.2,0.4-0.4,0.5-0.5c0.7-1.4,2.4-1.9,3.8-1.3c0.5,0.3,1,0.7,1.3,1.3
			c0.4,0.5,1,0.9,1.6,0.9l0,0C-68.2,1467.1-67.4,1467.7-67.2,1468.6z"/>
		<path class="st5" d="M-64.2,1464.3l-1.6,1l1-1.8c-0.3-0.2-0.6-0.4-1-0.4l0,0c-0.1,0-0.2,0-0.4,0l-0.5,0.4l0.3-0.5
			c-0.4-0.2-0.7-0.4-0.9-0.7l-1,0.6l0.6-1.1c-0.5-0.6-1.4-1.1-2.2-1.1c-1.1,0.1-2,0.6-2.5,1.5c-0.4,0.5-1,0.9-1.6,0.9h-0.2
			c-1.1,0-2,1.3-2,2.8s0.9,2.8,2,2.8c0.3,0,0.5-0.1,0.7-0.2c0.8-0.4,1.7-0.4,2.5,0c0.6,0.3,1.5,0.3,2.1,0c0.8-0.4,1.6-0.4,2.5,0
			c0.2,0.1,0.5,0.2,0.7,0.2c1.1,0,2-1.3,2-2.8C-63.7,1465.6-63.8,1464.8-64.2,1464.3z"/>
	</g>
	<g id="_x23_wild_x28_have_x5B_tree_x5D__x29_">
		<ellipse class="st5" cx="-394.2" cy="1657.6" rx="477.2" ry="30"/>
		<path class="st2" d="M-780.8,1639.1c0,2.4-0.3,4.7-0.7,7.1c-0.1,0.5-0.2,0.9-0.3,1.3c-2.5,10.4-9.9,17.9-18.5,18.4
			c-0.3,0-0.5,0-0.9,0c-9.2,0-17-7.9-19.5-18.8c-0.1-0.3-0.1-0.5-0.2-0.9c-0.5-2.4-0.7-4.7-0.7-7.1c0-14.8,9.2-26.8,20.5-26.8
			C-789.8,1612.2-780.8,1624.2-780.8,1639.1z"/>
		<path class="st1" d="M-780.8,1639.1c0,2.4-0.3,4.7-0.7,7.1c-0.1,0.5-0.2,0.9-0.3,1.3c-0.3,0-0.6,0-0.9,0c-2.3-0.1-4.5-0.5-6.7-0.9
			c-1.9,0.6-3.9,1.1-6,1.4c-1.5,0.3-3.1,0.4-4.6,0.5h-1.5c-1.9,0-3.7-0.1-5.6-0.4c-3-0.4-5.9-1.1-8.8-2.2c-1.5,0.5-3.2,0.9-4.7,1.3
			c-0.1-0.3-0.1-0.5-0.2-0.9c-0.5-2.4-0.7-4.7-0.7-7.1c0-14.8,9.2-26.8,20.5-26.8S-780.8,1624.2-780.8,1639.1z"/>
		<path class="st4" d="M-737.2,1589.2c0-6.5-1.5-12.9-4.5-18.7l-24.1,7.5l21.1-12.5c-7.2-10.4-18.6-16.9-31.3-17.8
			c-1-1.5-2.1-2.9-3.3-4.3l-34.5,10.7l28.4-16.6c-18.2-14-44.3-10.5-58.3,7.6c-3.3,4.4-5.7,9.3-7.2,14.5l29.7,34.1l-32-23.2
			c-18.7,13.3-23.2,39.3-9.8,58c10.6,14.9,29.7,21.2,47.1,15.4c8.5,3.2,17.9,3.4,26.6,0.7c22.4,5,44.6-9.2,49.5-31.6
			c0.6-2.9,1-6,1-9c0-0.9,0-1.8-0.1-2.7C-737.8,1597.2-737.1,1593.2-737.2,1589.2z"/>
		<path class="st1" d="M-737.9,1596.8c-12.7-2.4-25.7-2.5-38.4-0.5c-14.5,2.4-29.2,7.6-43.4,3.8c-8.3-2.3-15.5-7.5-23.5-10.4
			c-7.8-2.7-16.3-3.3-24.4-1.5c-8.8,21.2,1.2,45.5,22.4,54.4c9.3,3.9,19.6,4.3,29.2,1.1c8.5,3.2,17.9,3.4,26.6,0.7
			c22.4,5,44.6-9.2,49.5-31.6c0.6-2.9,1-6,1-9c0-0.9,0-1.8-0.1-2.7C-738.5,1599.8-738.1,1598.2-737.9,1596.8z"/>
	</g>
</g>
<g id="_x23_woman_x28_stand_x2C_hold_x5B_computer_x5D__x29_">
	<g>
		<g>
			<g>
				<path class="st7" d="M-422.6,1335l-17.3-0.7c-3.9-0.2-8.5-0.1-11.1,2.8c-2.8,3.2-2.1,8.1-0.5,11.9s4.1,7.6,4.2,11.8
					c0.2,6.6-5.3,11.9-10.2,16.4s-10.2,10-9.5,16.6c0.5,5.2,4.6,9.1,8.7,12.4c6.2,4.9,12.8,9.2,19.8,12.7c4,2,8.4,3.9,12.8,3.9
					c4,0,7.8-1.3,11.5-2.6c6.5-2.4,13.2-4.8,18.1-9.6c2.5-2.5,4.6-5.5,6.3-8.6c8.5-15.5,10.7-34.8,3.8-51c-1.5-3.6-3.6-6.9-6.4-9.7
					c-7.4-7-18.6-7.3-28.7-7.2c-1.8-0.1-3.7,0.2-5.4,0.9c-1.6,0.9-2.7,2.9-2,4.6"/>
				<path class="st8" d="M-444.7,1548.8c-0.6,18.3,0,36.6,2,54.8c0.3,2.1,0.5,4.2,0.9,6.2c1.2,6.4,3.5,12.5,5.5,18.6
					c1.9,6.2,3.3,12.7,2.4,19.2c4-0.5,8-0.7,12-1l0.1-3.1c0.1-5.9-2.2-11.7-1.6-17.6c0.5-5.5,2.4-11,2.3-16.6
					c-0.1-5.3-1.8-10.5-2.6-15.6c-0.5-3.5-0.7-7-0.7-10.5c-0.3-4.8-0.2-9.7,0.1-14.5c0.7-9.8,3.7-19.6,2.4-29.4
					C-429.7,1542.6-437.4,1545.5-444.7,1548.8z"/>
				<path class="st2" d="M-426.6,1668.8c0.5,0,0.9,0,1.4-0.2c0.6-0.5,1-1.2,1.1-2c0.6-2.5,1.6-4.7,3.1-6.8c1-1.5,2.3-3.2,2.3-5
					c0-3-3.2-5.2-3.8-8.1c-0.1-0.9-0.3-1.9-0.5-2.8c-0.7-1.6-2.7-2.1-4.5-2.5c-2.4-0.5-5.4-0.7-6.5,1.4c-1,1.7,0.1,3.9,0.3,5.9
					c0.2,2.7-1.5,5.3-3.2,7.4c-2,2.5-7.5,8.4-4.2,11.8c1.2,1.3,3.9,0.8,5.5,0.9L-426.6,1668.8z"/>
				<path class="st8" d="M-391.5,1548.8c0.6,18.3,0,36.6-2,54.8c-0.2,2.1-0.5,4.2-0.8,6.2c-1.2,6.4-3.5,12.5-5.5,18.6
					c-1.9,6.2-3.3,12.7-2.3,19.2c-4-0.5-8-0.7-12-1l-0.1-3.1c-0.1-5.9,2.2-11.7,1.6-17.6c-0.5-5.5-2.4-11-2.3-16.6
					c0.1-5.3,1.8-10.5,2.6-15.6c0.5-3.5,0.7-7,0.7-10.5c0.3-4.8,0.2-9.7-0.1-14.5c-0.7-9.8-3.7-19.6-2.4-29.4
					C-406.5,1542.6-398.8,1545.5-391.5,1548.8z"/>
				<path class="st2" d="M-409.6,1668.8c-0.5,0-0.9,0-1.4-0.2c-0.6-0.5-1-1.2-1.1-2c-0.6-2.5-1.6-4.7-3.1-6.8c-1-1.5-2.3-3.2-2.3-5
					c0-3,3.2-5.2,3.8-8.1c0.1-0.9,0.3-1.9,0.5-2.8c0.7-1.6,2.7-2.1,4.5-2.5c2.4-0.5,5.4-0.7,6.5,1.4c1,1.7-0.1,3.9-0.3,5.9
					c-0.2,2.7,1.5,5.3,3.2,7.4c2,2.5,7.5,8.4,4.2,11.8c-1.2,1.3-3.9,0.8-5.5,0.9L-409.6,1668.8z"/>
				<circle class="st8" cx="-423.9" cy="1369.1" r="18.6"/>
				<path class="st8" d="M-434.5,1385.8c0.3,0.9,0.4,1.8,0.3,2.7c-0.3,0.9-0.8,1.8-1.5,2.5c-2.6,2.6-5.7,4.7-9.3,6.2
					c-0.4,1.2,0.3,2.4,1,3.4c2.3,3.5,4.6,6.8,7,10.2c4.3,6.5,9.6,12.4,15.8,17.1l5.5-6.8c1.2-1.4,2.2-2.8,3.2-4.3
					c1.1-1.8,2-3.8,2.8-5.8l6.6-15.5c-4,0.8-8.1-1-11.5-3.3c-0.7-0.4-1.3-0.9-1.6-1.6c-0.3-0.6-0.4-1.3-0.4-2
					c-0.1-3.2-0.2-6.5-0.2-9.6c-4.8-0.6-9.6-1-14.5-1.1c-1.9,0-3.2-0.4-3.6,1.6C-435.4,1381.2-434.9,1383.8-434.5,1385.8z"/>
				<path class="st9" d="M-426.2,1420.8c-3-5.3-6.6-10.2-10.9-14.5c-0.9-0.8-1.7-1.8-2.3-3c-0.4-0.9-0.5-1.9-0.5-2.9l-0.4-4.8
					c0-0.3-0.1-0.5-0.3-0.7c-0.2-0.2-0.5-0.3-0.7-0.2c-1.2-0.2-2.3,0-3.4,0.5c-0.6,0.5-1.3,1-1.8,1.6c-2.1,2.2-5,3.2-7.7,4.3
					c-2,0.8-4,1.8-6,2.9c-1.5,0.8-3.1,1.8-3.8,3.5c-0.4,1-0.5,2.2-0.5,3.3l-0.6,38.7c0.2,1-0.5,2-1.5,2.3c-0.8,0.4-1.5,0.9-2.1,1.6
					c-0.5,0.7-0.5,1.7-0.1,2.5c0.3,0.4,0.7,0.5,1,0.9c0.9,1.1,0.1,2.6-0.5,3.9c-0.9,1.6-1.2,3.5-0.9,5.3c0.4,1.8,1.7,3.3,3.5,3.6
					c0.7-2.3-0.9-4.9,0-7.2c0.6-1.3,1.7-2.2,3.1-2.5c1.8-0.7,3.7-0.9,5.6-0.6l1.1,4c3.9,14.3,1.2,29.7-2.4,44.1
					c-0.8,3.4-1.9,6.6-2.5,10.1c-0.9,5.1-0.9,10.4-0.9,15.5v14.2c0,1.7,0.1,3.6,1.5,4.8c1.4,1.2,3.7,1,4.7,2.5c0.5,0.9,0.5,2.1,1,3
					c0.4,0.6,0.9,1.1,1.5,1.4c4.7,2.5,10.5,1.1,13.5-3.4c1-1.5,1.5-3.5,3-4.5c1.6-1.3,4-1.3,6.1-1.2l12.4,0.6c2.1,0,4.3,0.3,6.3,0.8
					c1.8,0.6,3.6,1.5,5.4,2.3c3.9,1.7,8.2,2.5,12.5,2.3c1.2,0,2.4-0.3,3.4-0.8c1.2-0.7,2-2,3.3-2.5c1.5-0.5,3.4,0,4.5-1.1
					c0.6-0.8,1-1.8,0.9-2.9l0.5-12.2c0.5-12.5,1-25.4-3.1-37.3c-1-2.9-2.3-5.6-3.1-8.6c-0.6-3.1-1.2-6.2-1.5-9.3
					c-1.3-8.6-4.2-17.2-3.6-25.9c0-0.6,0.5-0.8,1.3-0.9c2.3-0.2,4.8,0.2,6.5,1.8c1.5,1.5,2,3.6,2.2,5.6c0.3,1.5,0,3-0.8,4.3l3.5-2.5
					c1.1-0.8,2.3-1.9,2.1-3.3c-0.6-4-0.5-8.5-0.9-12.5c-0.7-6.7-1.8-13.5-3.3-20.2c-0.5-1.9-1-3.8-1.3-5.7c-0.4-2.6-0.2-5.4-0.3-8
					c-0.3-3.8-1.2-7.5-2.8-10.9c-0.5-1.1-1.1-2-1.8-2.9c-1-1-2.2-1.8-3.5-2.5c-5.6-2.9-11.6-5.1-17.8-6.5c-1.2-0.3-2.6-0.5-3.6,0.3
					c-1.3,1-1.1,2.9-0.5,4.5c0.5,1.5,1.5,3,1.2,4.6s-1.6,2.8-2.7,4.1c-2.9,3.4-4.2,7.9-7.3,11.1
					C-424,1417.6-425.9,1418.8-426.2,1420.8z"/>
				<path class="st7" d="M-437.7,1359.8c1.5,1.3,2.9,3.1,4.9,3.5c4.8,1,8.5-6.8,13.2-5.1c1.7,0.6,2.7,2.3,4,3.5
					c3.3,2.6,8.1,2.4,10.9-0.8c2.5-2.8,2.5-6.9,2.4-10.7c0.1-1.4-0.2-2.7-0.8-4c-0.5-0.6-1-1.3-1.6-1.7c-5.5-4.3-12.9-4.9-19.9-5.4
					c-1.5-0.2-3.1-0.1-4.5,0.2c-2.1,0.5-3.8,1.9-5.5,3.3c-3.1,2.6-10.7,7.5-11.7,11.7C-447.5,1358.6-440.8,1357.3-437.7,1359.8z"/>
				<path class="st4" d="M-457.2,1415.8h62.8c1.3,0,2.4,1.1,2.4,2.4v68.3c0,1.3-1.1,2.4-2.4,2.4h-62.8c-1.3,0-2.4-1.1-2.4-2.4v-68.3
					C-459.5,1416.8-458.5,1415.8-457.2,1415.8z"/>
				<path class="st3" d="M-451.4,1422.2h51.2c1.3,0,2.4,1.1,2.4,2.4v39.4c0,1.3-1.1,2.4-2.4,2.4h-51.2c-1.3,0-2.4-1.1-2.4-2.4v-39.4
					C-453.7,1423.2-452.6,1422.2-451.4,1422.2z"/>
				<path class="st10" d="M-405.1,1445.3L-405.1,1445.3c0-0.5-0.1-0.9-0.3-1.4v-0.1c-0.9-2.6-3.7-4-6.4-3.2
					c-0.8,0.3-1.5,0.7-2.1,1.5c-0.1-0.5-0.2-0.9-0.4-1.4c-1.4,0.2-2.6,0.2-4,0.2c0.8,0.4,1.6,0.7,2.5,0.9v0.1
					c-1-0.3-1.9-0.6-2.8-1.1l-0.3-0.2h0.3c1.5,0.1,2.8,0.1,4.3-0.1c-0.3-0.7-0.7-1.4-1.3-2c-2.3-0.2-4.5-0.7-6.6-1.6l0.1-0.1
					c2.1,0.9,4.3,1.5,6.5,1.6c-2.6-2.9-7.2-3-10.1-0.4c-0.5,0.5-0.9,1-1.3,1.5c-0.2-2-1.1-4-2.5-5.5c-3.1,1.2-6.4,1.7-9.6,1.6
					c0.8,0.4,1.6,0.6,2.5,0.9v0.1c-1-0.3-1.9-0.6-2.8-1.1l-0.3-0.1h0.3c3.4,0.2,6.7-0.3,9.8-1.5c-0.1-0.1-0.3-0.3-0.4-0.4
					c-3.9,0.1-8.2,0-12-1.4c-2.9,1.8-4.6,4.9-4.6,8.4c0.1,2.4,0.5,4.7,1.4,6.9c0.4,1.1,0.8,2.3,1.4,3.4c0.3,0.5,0.5,1.1,0.8,1.5l0,0
					c0.4,0.6,0.7,1.3,1.2,1.8l0.3,0.3c0.5,0.5,0.9,1.1,1.5,1.5l0,0c0.1,0.1,0.2,0.2,0.4,0.3c0.3,0.2,0.6,0.5,0.9,0.6
					c0.5,0.3,1.2,0.5,1.8,0.5h0.2l0,0h26.6l0,0l0,0c0.2,0,0.3,0,0.5-0.1c0.9-0.4,1.8-1.6,2.5-3.4c0.2-0.4,0.3-0.7,0.5-1.2
					s0.3-0.7,0.4-1.1c0.4-1.1,0.6-2.3,0.8-3.3c0.2-1,0.4-2,0.4-3.1L-405.1,1445.3L-405.1,1445.3z"/>
				<path class="st10" d="M-429.9,1433.7c-3.2-3-8-3.5-11.7-1.4C-437.9,1433.7-433.8,1433.7-429.9,1433.7z"/>
				<path class="st10" d="M-408.2,1455.6l-4.1-7.1c0-0.1-0.1-0.1-0.2-0.1c0,0,0,0-0.1,0.1l-4.1,7.1c0,0.1,0,0.2,0.1,0.2
					c0,0,0,0,0.1,0h1.2c0.1,0,0.1,0.1,0.1,0.1l0,0v1.5c0,0.1,0.1,0.1,0.1,0.1l0,0h1.6c0.1,0,0.1-0.1,0.2-0.1v-0.7
					c0-0.1,0.1-0.1,0.1-0.1h1.5c0.1,0,0.2,0.1,0.2,0.1l0,0v0.7c0,0.1,0.1,0.1,0.1,0.1l0,0h1.6c0.1,0,0.1,0,0.1-0.1l0,0v-1.5
					c0-0.1,0.1-0.1,0.2-0.1h1.2C-408.2,1455.7-408.1,1455.7-408.2,1455.6C-408.1,1455.7-408.1,1455.6-408.2,1455.6z M-413.9,1456.3
					L-413.9,1456.3h-0.6c-0.1,0-0.1-0.1-0.1-0.1l0,0v-0.1h0.1h0.5C-413.9,1456.2-413.9,1456.2-413.9,1456.3
					C-413.8,1456.2-413.8,1456.2-413.9,1456.3z M-410.1,1456.3C-410.2,1456.3-410.2,1456.3-410.1,1456.3h-0.6
					c-0.1,0-0.1-0.1-0.1-0.1l0,0v-0.1h0.1h0.5C-410.1,1456.2-410.1,1456.2-410.1,1456.3C-410.1,1456.2-410.1,1456.2-410.1,1456.3
					L-410.1,1456.3z"/>
				<path class="st10" d="M-433.6,1455.7l-4.1-7.1c0-0.1-0.1-0.1-0.2-0.1c0,0,0,0-0.1,0.1l-3.5,6.1c0.5,0.5,0.9,1.1,1.5,1.5h0.5
					c0.1,0,0.2,0.1,0.2,0.1l0,0v0.1h-0.1h-0.3c0.3,0.2,0.6,0.5,0.9,0.6v-0.3c0-0.1,0.1-0.1,0.1-0.2h1.5c0.1,0,0.1,0.1,0.1,0.2v0.7
					c0,0,0,0,0,0.1l0.1,0.1h1.6c0,0,0.1,0,0.1-0.1v-0.1v-1.5c0-0.1,0.1-0.1,0.1-0.1l0,0h1.2c0.1,0.1,0.2,0,0.2,0
					C-433.5,1455.7-433.5,1455.7-433.6,1455.7z M-436.3,1456.2C-436.3,1456.2-436.2,1456.2-436.3,1456.2h0.6c0.1,0,0.2,0.1,0.2,0.1
					l0,0v0.1h-0.1h-0.5C-436.2,1456.3-436.2,1456.2-436.3,1456.2L-436.3,1456.2L-436.3,1456.2z M-438.8,1453.6
					c-0.1,0-0.2-0.1-0.2-0.1l0,0v-1c0-0.1,0.1-0.1,0.2-0.1h2.2c0.1,0,0.1,0.1,0.2,0.1v1c0,0.1-0.1,0.2-0.2,0.2l0,0L-438.8,1453.6
					L-438.8,1453.6z"/>
				<path class="st10" d="M-417.3,1442.8h-5.1v-1.1c0-0.2-0.1-0.3-0.3-0.3h-1.5v-1.2c0-0.1-0.1-0.2-0.2-0.2h-1.9
					c-0.1,0-0.2,0.1-0.2,0.2v1.2h-1.7c-0.2,0-0.3,0.1-0.3,0.3v1.1h-4.8c0,0-0.1,0-0.1,0.1v14.6c0,0,0,0.1,0.1,0h3.2h0.1v-2
					c0,0,0-0.1,0.1-0.1h1.4c0,0,0.1,0,0.1,0.1v2c0,0,0,0,0.1,0h6.4h0.1v-2v-0.1h1.4c0,0,0.1,0,0.1,0.1v2c0,0,0,0.1,0.1,0h3.2h0.1
					L-417.3,1442.8L-417.3,1442.8z M-430.6,1454.8L-430.6,1454.8l-2,0.1c0,0-0.1,0-0.1-0.1v-0.7c0,0,0-0.1,0.1-0.1h2
					c0,0,0.1,0,0.1,0.1L-430.6,1454.8L-430.6,1454.8z M-430.6,1453C-430.6,1453.1-430.6,1453.1-430.6,1453l-2,0.1c0,0-0.1,0-0.1-0.1
					v-0.7c0,0,0-0.1,0.1-0.1h2c0,0,0.1,0,0.1,0.1L-430.6,1453L-430.6,1453z M-430.6,1451.2C-430.6,1451.2-430.6,1451.3-430.6,1451.2
					h-2h-0.1v-0.7c0,0,0-0.1,0.1-0.1h2c0,0,0.1,0,0.1,0.1L-430.6,1451.2L-430.6,1451.2z M-430.6,1449.6L-430.6,1449.6l-2,0.1
					c0,0-0.1,0-0.1-0.1v-0.6c0,0,0-0.1,0.1-0.1h2c0,0,0.1,0,0.1,0.1L-430.6,1449.6L-430.6,1449.6z M-430.6,1447.7
					C-430.6,1447.8-430.6,1447.8-430.6,1447.7l-2,0.1c0,0-0.1,0-0.1-0.1v-0.6c0,0,0-0.1,0.1-0.1h2c0,0,0.1,0,0.1,0.1L-430.6,1447.7
					L-430.6,1447.7z M-430.6,1446C-430.6,1446-430.6,1446.1-430.6,1446l-2,0.1c0,0-0.1,0-0.1-0.1v-0.7c0,0,0-0.1,0.1,0h2h0.1
					L-430.6,1446L-430.6,1446z M-430.6,1444.2L-430.6,1444.2l-2,0.1c0,0-0.1,0-0.1-0.1v-0.7c0,0,0-0.1,0.1-0.1h2c0,0,0.1,0,0.1,0.1
					L-430.6,1444.2L-430.6,1444.2z M-425.8,1454.8L-425.8,1454.8l-2,0.1c0,0-0.1,0-0.1-0.1v-0.7c0,0,0-0.1,0.1-0.1h2
					c0,0,0.1,0,0.1,0.1L-425.8,1454.8L-425.8,1454.8z M-425.8,1453C-425.8,1453.1-425.8,1453.1-425.8,1453l-2,0.1c0,0-0.1,0-0.1-0.1
					v-0.7c0,0,0-0.1,0.1-0.1h2c0,0,0.1,0,0.1,0.1L-425.8,1453L-425.8,1453z M-425.8,1451.2C-425.8,1451.2-425.8,1451.3-425.8,1451.2
					h-2h-0.1v-0.7c0,0,0-0.1,0.1-0.1h2c0,0,0.1,0,0.1,0.1L-425.8,1451.2L-425.8,1451.2z M-425.8,1449.6L-425.8,1449.6l-2,0.1
					c0,0-0.1,0-0.1-0.1v-0.6c0,0,0-0.1,0.1-0.1h2c0,0,0.1,0,0.1,0.1L-425.8,1449.6L-425.8,1449.6z M-425.8,1447.7
					C-425.8,1447.8-425.8,1447.8-425.8,1447.7l-2,0.1c0,0-0.1,0-0.1-0.1v-0.6c0,0,0-0.1,0.1-0.1h2c0,0,0.1,0,0.1,0.1L-425.8,1447.7
					L-425.8,1447.7z M-425.8,1446C-425.8,1446-425.8,1446.1-425.8,1446l-2,0.1c0,0-0.1,0-0.1-0.1v-0.7c0,0,0-0.1,0.1,0h2h0.1
					L-425.8,1446L-425.8,1446z M-425.8,1444.2L-425.8,1444.2l-2,0.1c0,0-0.1,0-0.1-0.1v-0.7c0,0,0-0.1,0.1-0.1h2c0,0,0.1,0,0.1,0.1
					L-425.8,1444.2L-425.8,1444.2z M-422.6,1454.8L-422.6,1454.8l-2,0.1c0,0-0.1,0,0-0.1v-0.7v-0.1h2c0,0,0.1,0,0.1,0.1
					L-422.6,1454.8L-422.6,1454.8z M-422.6,1453C-422.6,1453.1-422.6,1453.1-422.6,1453l-2,0.1c0,0-0.1,0,0-0.1v-0.7v-0.1h2
					c0,0,0.1,0,0.1,0.1L-422.6,1453L-422.6,1453z M-422.6,1451.2C-422.6,1451.2-422.6,1451.3-422.6,1451.2h-2v-0.7v-0.1h2
					c0,0,0.1,0,0.1,0.1L-422.6,1451.2z M-422.6,1449.6L-422.6,1449.6L-422.6,1449.6l-2,0.1c0,0,0,0,0-0.1v-0.6v-0.1h2h0.1l0,0
					L-422.6,1449.6L-422.6,1449.6z M-422.6,1447.7C-422.6,1447.8-422.6,1447.8-422.6,1447.7
					C-422.6,1447.8-422.6,1447.8-422.6,1447.7l-2,0.1c0,0,0,0,0-0.1v-0.6v-0.1h2h0.1l0,0L-422.6,1447.7L-422.6,1447.7z M-422.6,1446
					C-422.6,1446-422.6,1446.1-422.6,1446l-2,0.1c0,0-0.1,0,0-0.1v-0.7h2h0.1L-422.6,1446z M-422.6,1444.2L-422.6,1444.2l-2,0.1
					c0,0-0.1,0,0-0.1v-0.7v-0.1h2c0,0,0.1,0,0.1,0.1L-422.6,1444.2L-422.6,1444.2z M-417.9,1454.8L-417.9,1454.8l-2,0.1
					c0,0-0.1,0-0.1-0.1v-0.7c0,0,0-0.1,0.1-0.1h2c0,0,0.1,0,0.1,0.1L-417.9,1454.8L-417.9,1454.8z M-417.9,1453
					C-417.9,1453.1-417.9,1453.1-417.9,1453l-2,0.1c0,0-0.1,0-0.1-0.1v-0.7c0,0,0-0.1,0.1-0.1h2c0,0,0.1,0,0.1,0.1L-417.9,1453
					L-417.9,1453z M-417.9,1451.2C-417.9,1451.2-417.9,1451.3-417.9,1451.2h-2h-0.1v-0.7c0,0,0-0.1,0.1-0.1h2c0,0,0.1,0,0.1,0.1
					L-417.9,1451.2L-417.9,1451.2z M-417.9,1449.6L-417.9,1449.6l-2,0.1c0,0-0.1,0-0.1-0.1v-0.6c0,0,0-0.1,0.1-0.1h2
					c0,0,0.1,0,0.1,0.1L-417.9,1449.6L-417.9,1449.6z M-417.9,1447.7C-417.9,1447.8-417.9,1447.8-417.9,1447.7l-2,0.1
					c0,0-0.1,0-0.1-0.1v-0.6c0,0,0-0.1,0.1-0.1h2c0,0,0.1,0,0.1,0.1L-417.9,1447.7L-417.9,1447.7z M-417.9,1446
					C-417.9,1446-417.9,1446.1-417.9,1446l-2,0.1c0,0-0.1,0-0.1-0.1v-0.7c0,0,0-0.1,0.1,0h2h0.1L-417.9,1446L-417.9,1446z
					 M-417.9,1444.2L-417.9,1444.2l-2,0.1c0,0-0.1,0-0.1-0.1v-0.7c0,0,0-0.1,0.1-0.1h2c0,0,0.1,0,0.1,0.1L-417.9,1444.2
					L-417.9,1444.2z"/>
				<path class="st5" d="M-431.8,1438.8c-0.2,0-0.5,0-0.6,0.1c-0.3,0.1-0.5,0.1-0.8,0s-0.6-0.1-0.9,0c-0.1,0.1-0.2,0.1-0.3,0.1
					c-0.4,0-0.7-0.4-0.7-0.9c0.1-0.1,0.2-0.1,0.2-0.2c0.2-0.4,0.5-0.5,0.9-0.5s0.7,0.3,0.9,0.5c0.1,0.2,0.4,0.4,0.6,0.4l0,0
					C-432.2,1438.2-431.8,1438.6-431.8,1438.8z"/>
				<path class="st5" d="M-430.6,1437.2l-0.6,0.4l0.4-0.7c-0.1-0.1-0.3-0.1-0.4-0.1h-0.2l-0.2,0.1l0.1-0.2c-0.2-0.1-0.3-0.2-0.4-0.3
					l-0.4,0.3l0.3-0.5c-0.2-0.3-0.5-0.5-0.8-0.5c-0.4,0-0.7,0.3-0.9,0.5c-0.1,0.2-0.4,0.4-0.6,0.4l0,0c-0.5,0-0.7,0.5-0.7,1.1
					s0.4,1.1,0.7,1.1c0.1,0,0.2,0,0.3-0.1c0.3-0.1,0.6-0.1,0.9,0c0.1,0.1,0.3,0.1,0.4,0.1c0.2,0,0.3,0,0.4-0.1
					c0.3-0.1,0.6-0.1,0.9,0c0.1,0,0.2,0.1,0.3,0.1c0.5,0,0.7-0.5,0.7-1.1C-430.5,1437.7-430.6,1437.6-430.6,1437.2z"/>
				<ellipse class="st8" cx="-461.6" cy="1466.5" rx="5.5" ry="9.3"/>
				<ellipse class="st8" cx="-388" cy="1461.7" rx="5.6" ry="9.3"/>
			</g>
		</g>
	</g>
</g>
</svg>
