<?xml version="1.0" encoding="utf-8"?>
<!-- Generator: Adobe Illustrator 19.0.0, SVG Export Plug-In . SVG Version: 6.00 Build 0)  -->
<svg version="1.1" id="图层_1" xmlns="http://www.w3.org/2000/svg" xmlns:xlink="http://www.w3.org/1999/xlink" x="0px" y="0px"
	 viewBox="-917 917.7 1000 1000" style="enable-background:new -917 917.7 1000 1000;" xml:space="preserve">
<style type="text/css">
	.st0{opacity:0.1;enable-background:new    ;}
	.st1{fill:#6C63FF;}
	.st2{fill:#535461;}
	.st3{fill:#3F3D56;}
	.st4{fill:#9D9CB5;}
	.st5{fill:none;stroke:#535461;stroke-width:2;stroke-miterlimit:10;}
	.st6{fill:#D4DFEC;}
	.st7{opacity:0.5;fill:#D4DFEC;enable-background:new    ;}
	.st8{opacity:0.5;fill:#6C63FF;enable-background:new    ;}
	.st9{opacity:0.5;fill:#3F3D56;enable-background:new    ;}
	.st10{opacity:0.5;fill:#FFFFFF;enable-background:new    ;}
	.st11{opacity:0.25;enable-background:new    ;}
	.st12{opacity:0.3;fill:#6C63FF;enable-background:new    ;}
	.st13{fill:url(#SVGID_1_);}
	.st14{opacity:0.3;enable-background:new    ;}
	.st15{fill:#C37098;}
	.st16{opacity:0.4;enable-background:new    ;}
	.st17{opacity:0.1;}
	.st18{opacity:0.2;enable-background:new    ;}
</style>
<g id="_x23_background">
	<g class="st0">
		<g>
			<path class="st1" d="M-563.3,1019.6c31.1-27.7,80-33.4,124.5-31.1c139.7,7,265.8,74.4,374.8,150.6c39.5,27.6,78.4,57.3,104,95.4
				c52.2,77.4,36.7,184.7-35.9,248.4c-24.6,21.7-54.6,38.3-85.4,53.1c-54.6,26.2-113.6,47.2-175.6,53.3c-44.2,4.3-89,0.8-132.9-5.1
				c-122.8-16.7-243.3-53.4-344.4-116.5c-44.3-27.6-86-62-104.4-106.7c-18.4-44.7-6.4-101.3,38.8-127.8c18.7-11,41.1-15.9,63-20.6
				c32.2-6.8,65-13.6,94.1-27.5c30.1-14.4,65.7-42.1,59.7-73.8C-589.3,1077.2-594.4,1047.4-563.3,1019.6z"/>
		</g>
	</g>
</g>
<g id="_x23_home_x28_have_x5B_bonsai_x2C_cocktail_x5D__x29_">
	<g>
		<g>
			<g>
				<ellipse class="st1" cx="-381.2" cy="1741.7" rx="461.2" ry="70.8"/>
				<rect x="-780.8" y="1493.6" class="st2" width="5.5" height="124.1"/>
				<path class="st3" d="M-740.7,1617.4l-0.4,5.6l-0.5,7.9l-0.2,3.3l-0.5,7.9l-0.2,3.3l-0.5,7.9l-5.5,89.7
					c-0.5,8.1-7.2,14.3-15.1,14.3h-28.9c-8.1,0-14.6-6.2-15.1-14.3l-5.6-89.7l-0.5-7.9l-0.2-3.3l-0.5-7.9l-0.2-3.3l-0.5-7.9
					l-0.4-5.6c-0.3-4.4,3-8.1,7.4-8.3c0.2,0,0.3,0,0.5,0h59.1c4.4,0,7.9,3.5,7.9,7.9C-740.6,1617-740.6,1617.2-740.7,1617.4z"/>
				<polygon class="st4" points="-741,1622.9 -741.5,1630.8 -814.7,1630.8 -815.1,1622.9 				"/>
				<polygon class="st4" points="-741.7,1634 -742.2,1642 -814,1642 -814.5,1634 				"/>
				<polygon class="st4" points="-742.4,1645.3 -742.9,1653.2 -813.2,1653.2 -813.8,1645.3 				"/>
				<path class="st1" d="M-823.6,1540.1c32.1,23.2,45.5,59.6,45.5,59.6s-38.7-1.4-70.7-24.5c-32-23.2-45.5-59.6-45.5-59.6
					S-855.6,1517-823.6,1540.1z"/>
				<path class="st5" d="M-894.3,1515.6c0,0,40.2,22.3,53.1,40.7c12.9,18.4,63.2,43.4,63.2,43.4"/>
				<path class="st1" d="M-802.8,1493.4c17.5,12.6,24.7,32.4,24.7,32.4s-21-0.7-38.5-13.4c-17.5-12.7-24.7-32.4-24.7-32.4
					S-820.3,1480.8-802.8,1493.4z"/>
				<path class="st5" d="M-841.3,1480c0,0,21.8,12.1,28.9,22.1c7.1,10,34.4,23.6,34.4,23.6"/>
				<path class="st1" d="M-752.7,1524.7c-20.1,22-24.3,50.8-24.3,50.8s28.3-7,48.3-29s24.3-50.8,24.3-50.8
					S-732.7,1502.7-752.7,1524.7z"/>
				<path class="st5" d="M-704.4,1495.8c0,0-26.2,22.6-32.8,38.2c-6.5,15.7-39.8,41.7-39.8,41.7"/>
				<path class="st0" d="M-54.7,1610.9c0,0,5.6,7.3-2.6,18.4c-8.2,11.1-14.9,20.4-12.2,27.4c0,0,12.3-20.6,22.4-20.9
					C-37.1,1635.5-43.7,1623.2-54.7,1610.9z"/>
				<path class="st0" d="M-54.7,1610.9c0.5,0.7,0.9,1.5,1.2,2.3c9.8,11.5,15,22.3,5.6,22.6c-8.8,0.3-19.3,16-21.8,19.9
					c0.1,0.3,0.2,0.6,0.3,0.9c0,0,12.3-20.6,22.4-20.9C-37,1635.4-43.7,1623.2-54.7,1610.9z"/>
				<path class="st3" d="M-44.4,1620.2c0,2.6-0.3,4.7-0.7,4.7s-0.7-2.1-0.7-4.7c0-2.5,0.4-1.4,0.7-1.4S-44.4,1617.7-44.4,1620.2z"/>
				<path class="st3" d="M-40.8,1623.3c-2.2,1.3-4.3,1.9-4.4,1.6c-0.1-0.3,1.6-1.6,3.8-2.8c2.2-1.3,1.4-0.3,1.6,0
					C-39.6,1622.4-38.4,1622-40.8,1623.3z"/>
				<path class="st3" d="M-84.3,1610.9c0,0-5.6,7.3,2.6,18.4c8.2,11.1,14.9,20.4,12.2,27.4c0,0-12.3-20.6-22.4-20.9
					C-102,1635.5-95.4,1623.2-84.3,1610.9z"/>
				<path class="st6" d="M-54.7,1610.9c0,0,5.6,7.3-2.6,18.4c-8.2,11.1-14.9,20.4-12.2,27.4c0,0,12.3-20.6,22.4-20.9
					C-37.1,1635.5-43.7,1623.2-54.7,1610.9z"/>
				<path class="st0" d="M-84.3,1610.9c0,0-5.6,7.3,2.6,18.4c8.2,11.1,14.9,20.4,12.2,27.4c0,0-12.3-20.6-22.4-20.9
					C-102,1635.5-95.4,1623.2-84.3,1610.9z"/>
				<path class="st0" d="M-84.3,1610.9c-0.5,0.7-0.9,1.5-1.2,2.3c-9.8,11.5-15,22.3-5.6,22.6c8.8,0.3,19.3,16,21.8,19.9
					c-0.1,0.3-0.2,0.6-0.3,0.9c0,0-12.3-20.6-22.4-20.9C-102.1,1635.4-95.4,1623.2-84.3,1610.9z"/>
				<path class="st6" d="M-94.8,1620.2c0,2.6,0.3,4.7,0.7,4.7s0.7-2.1,0.7-4.7c0-2.5-0.4-1.4-0.7-1.4
					C-94.4,1618.8-94.8,1617.7-94.8,1620.2z"/>
				<path class="st6" d="M-98.4,1623.3c2.2,1.3,4.3,1.9,4.4,1.6c0.1-0.3-1.6-1.6-3.8-2.8c-2.2-1.3-1.4-0.3-1.6,0
					C-99.6,1622.4-100.6,1622-98.4,1623.3z"/>
				<path class="st3" d="M-39.4,1646.7l-0.3,2.3l-0.4,3.2l-0.2,1.4l-0.4,3.2l-0.2,1.4l-0.4,3.2l-4.5,36.8c-0.4,3.3-5.7,5.8-12.2,5.8
					h-23.4c-6.5,0-11.8-2.5-12.2-5.8l-4.5-36.8l-0.4-3.2l-0.2-1.4l-0.4-3.2l-0.2-1.4l-0.4-3.2l-0.2-2.3c-0.2-1.8,2.7-3.4,6.3-3.4
					H-46C-42,1643.3-39.1,1644.8-39.4,1646.7z"/>
				<polygon class="st4" points="-39.7,1649 -40.1,1652.2 -99.1,1652.2 -99.5,1649 				"/>
				<polygon class="st4" points="-40.2,1653.5 -40.6,1656.8 -98.5,1656.8 -98.9,1653.5 				"/>
				<polygon class="st4" points="-40.8,1658.1 -41.2,1661.4 -97.9,1661.4 -98.3,1658.1 				"/>
				<g>
					<path class="st7" d="M-579.2,1756.4l2-25.8l20.5-23.7c0,0-22.4,6-49.8-1.5l21.5,25.3l0.9,25.7c-6.6,0.8-11.5,4.3-11.5,8.4
						c0,4.8,6.3,8.6,14.1,8.6c7.8,0,14.1-3.9,14.1-8.6C-567.5,1760.5-572.5,1757-579.2,1756.4z"/>
					<path class="st8" d="M-603.9,1706.2l17.3,19.1c1.5,1.6,3.6,2.6,5.8,2.6l0,0c2.2,0,4.4-1,5.8-2.6l16.4-18.4
						C-558.6,1706.8-578.9,1712.8-603.9,1706.2z"/>
					<ellipse class="st7" cx="-580.8" cy="1701.2" rx="28.4" ry="10.9"/>
					<ellipse class="st1" cx="-581.2" cy="1701.9" rx="25.2" ry="8.6"/>
					<polyline class="st8" points="-574,1711.7 -578.3,1723 -574.3,1711.7 					"/>
					<path class="st9" d="M-573.8,1710.2l11.3-32.1c0.1-0.3,0.5-0.5,0.8-0.4l0,0l0,0c0.3,0.1,0.5,0.5,0.4,0.8l-12,31.6"/>
					<path class="st3" d="M-568.9,1696.6l6.5-18.5c0.1-0.3,0.5-0.5,0.8-0.4l0,0l0,0c0.3,0.1,0.5,0.5,0.4,0.8l-6.9,18.2"/>
					<circle class="st1" cx="-567.1" cy="1692.9" r="5.5"/>
					<circle class="st10" cx="-567.1" cy="1692.9" r="5.5"/>
					<circle class="st1" cx="-566.5" cy="1692.1" r="2.3"/>
					<circle class="st11" cx="-566.5" cy="1692.1" r="2.3"/>
					<path class="st12" d="M-572.5,1694c0.5,3,3.3,5,6.3,4.6c1.5-0.2,2.7-1.1,3.6-2.2C-565.7,1695.2-569.1,1694.4-572.5,1694z"/>
				</g>
			</g>
		</g>
	</g>
</g>
<g id="_x23_woman_x28_sit_x5F_on_x5B_chair_x5D__x29_">
	<g>
		<g>
			<g>
				
					<linearGradient id="SVGID_1_" gradientUnits="userSpaceOnUse" x1="-267.7897" y1="1272.4089" x2="-267.7897" y2="1832.5416" gradientTransform="matrix(1 0 0 -1 -97.31 3067.6702)">
					<stop  offset="0" style="stop-color:#808080;stop-opacity:0.25"/>
					<stop  offset="0.54" style="stop-color:#808080;stop-opacity:0.12"/>
					<stop  offset="1" style="stop-color:#808080;stop-opacity:0.1"/>
				</linearGradient>
				<path class="st13" d="M-134,1504.5c0,0-5.9-1.7-13.8-4.1c-3.4-1.8-7.2-2.9-11.1-3.1c-9.3-2.5-18.8-4.9-24-5.7
					c-12.2-1.7-33.8-8.6-33.8-8.6c-8.2,0.7-16.9-5.3-16.9-5.3s-8.9-16.1-14.1-19.7c-0.2-0.2-0.4-0.3-0.7-0.4c-0.8-0.4-1.5-0.9-2-1.5
					c-5.3-17.4-17-18.4-17.6-18.5l0,0c-2.2-2.5-4.3-4.9-5.8-6.7c6-32.4,24-68.6,65.2-99.2c0,0,24.4-28.6,10.3-61.8
					c-14.1-33.2-18.2-33.8-42.7-27.5l-55.1,26.3c0,0-15.6,3.7-45.9,5.4c-2.5-5-6.4-9.2-11.8-10.6c-11.3-2.7-21.2,9.1-32.1,5.9
					c-8.3-2.5-18.3-12.3-26.5-2.8c-1.2,1.4-1.9,3-3,4.4c-0.8,1-1.6,1.7-2.7,2.4c-18.5-1.3-39.2-3.3-61.8-6.4l-49-29.2
					c0,0-30.2-14.1-31.3,23.1c-1.2,37.2-4,54.5,9.1,64.6c9.5,7.3,40.5,57.4,52.1,100.5c-1.7,2.4-2.8,4-2.8,4s-33.1,44.8-35.6,45.9
					c-0.2,0.1-0.2,0.3-0.2,0.7c-0.5,1.1-1.9,3.1-6.6,4.4c-6.5,1.7-35.2,10.4-39.2,10.4s-21.9,1.1-23.8,8.2c1.2-0.1,2.2,0,3.4,0.1
					l-0.9,1.1c-4.9,6.3-13.2,18-13.7,26.1c-0.8,11.4,2.5,46.9,21.2,46.7c18.7-0.3,10.1-53.1,10.1-53.1l2.2-6.4l0.1-0.2l1.6,10.6
					c0.3-0.2,0.7-0.4,1-0.5c1.7,5.1,7.9,10.2,25.3,10.6c0,0,27,2.5,47,42.7c18.2,36.5,78.9,70.3,123.3,70v59.1l-6.1,1.7l-79.3,1.4
					c-2.7,0-4.9,2.2-5.1,4.9l-0.5,10.2l23,2.1l-71.7,17.2c0,0-12.6-1.1-10.5,16.9h17.8l0.4-3.6l143-10l8.2,2c-1.2,6-2.3,11-2.6,12.2
					l-0.1,0.3c0,0,0,0.2-0.1,0.7c-0.9-0.3-1.4-0.5-1.4-0.5c-1.9,2.2-3.1,25.3-3.2,27.6c-0.1,2.3,9,5.1,9,5.1c4.2,1.6,20.3,0,20.3,0
					l0,0c5.3-0.3,19.6-5.3,19.6-5.3l-1.3-25.3c-0.6,0.2-1.3,0.4-1.8,0.6c0-0.4,0.1-0.7,0.1-1.1c0.1-1.5,0.2-3.1,0.3-4.8l63.9,15.8
					h1.7v3.2h19.8c0,0,1.7-13.6-5.4-17.9c-7.2-4.4-44.8-18.9-44.8-18.9l9-0.9l0,0l36.1-3.4c0,0.7,0,1,0,1h5.3l-0.1-1.5l10-1
					l11.8,0.4c0,0-0.4-15-9.3-16.1c-1.6-0.2-6.7-0.7-14-1.5l-2.3-28.4c5.7-9.7,20.5,19.7,20.5,19.7s0.1,0.2,0.2,0.6
					c0.7,3,4,16.5,6.3,18h0.1c1.3,0.7,2.5,1.3,3.9,1.7c5.8,2.1,11.8,3.6,18,4.4c11.5,1.5,36.7-6.1,41.4-8.6c0.8-0.4,1.5-1,2-1.6
					c1.6-2.2-0.3-4.8-0.3-4.8l-5-0.5c4.5-2,5.3-9.5-3-10.9c-0.3-0.1-0.7-0.1-1-0.1c0.4-0.8,1-1.5,1.5-2c-4.4,0.8-15.8-4.4-15.8-4.4
					c-1.6-0.7-3.4-1.3-5.1-1.6l-0.1-0.2c-0.2-0.3-0.3-0.7-0.5-1c-2.5-5.2-3.4-11.6-4.3-16.5c-1.7-10.4-22.8-50.5-22.8-50.5
					s-7.3-16.7-13.6-34.4c7.5-6.3,13.2-13.5,16.5-21.3l0,0l6.2-9.5c4.1-5.2,7.8-10.9,10.9-16.8l6.3-9.6l0,0
					c11.7-0.9,30.9-2.2,40.8-2.5c2.8,15.3,6.3,33.2,7.9,38c2.9,8.9,17.7-1.5,23.4-24.3C-106.7,1527.9-134,1504.5-134,1504.5z
					 M-355.4,1693.8v-50.4c3.1-0.5,6.5-1.1,10.1-1.7c-2.1,12.9-4.9,24.6-4.9,24.6C-350,1672.6-353.5,1686.6-355.4,1693.8z
					 M-240.4,1677.9l1.8,0.6c3,1.1,5.7,2.8,8,5C-233.7,1681.5-237,1679.5-240.4,1677.9L-240.4,1677.9z M-251.8,1631.5
					c0,0,4.4,8.2-4.3,21.9c-6.5,10.2-2.6,16.2,6.7,20.9c-3.1-1.1-6.2-1.9-9.4-2.5l0.5,0.3c-7.6-1.6-3.9,5.1-3.9,5.1
					c7.6,7.3,11.1,25.8,12.6,40.5c-19.8-1.9-50.9-4.9-76.1-7.4c0.4-2.5,0.7-5,0.9-7.6c0-4.3,4.7-21.1,4.7-21.1s13.4-31.2,20.9-50.2
					c14.1-3.8,27.7-8.6,41-14.5C-254.8,1624.4-251.8,1631.5-251.8,1631.5L-251.8,1631.5z"/>
				<rect x="-385.9" y="1634.6" class="st1" width="30.8" height="88.5"/>
				<rect x="-385.9" y="1634.6" class="st14" width="30.8" height="88.5"/>
				<path class="st1" d="M-475.2,1713l-0.5,10.1l22.7,2.1l-70.7,17.1c0,0-12.4-1.1-10.3,16.7h17.4l0.4-3.6l141.3-10l109.7,27.4h1.7
					v3.2h19.5c0,0,1.7-13.5-5.3-17.8c-7.1-4.3-44.4-18.8-44.4-18.8l59.7-5.7l11.7,0.4c0,0-0.4-14.9-9.2-16s-134.3-13.1-134.3-13.1
					H-386l-6,1.8l-78.3,1.3C-472.9,1708.2-475.1,1710.3-475.2,1713z"/>
				<path class="st0" d="M-355.1,1634.6v10.3c-11.2,1.7-18.1,2.5-18.1,2.5c-4.2,0.8-8.5,1.2-12.8,1.2v-14H-355.1L-355.1,1634.6z"/>
				<path class="st15" d="M-115.1,1550.8c-5.7,22.7-20.3,33-23.1,24.2c-2.6-8.1-10.5-52.9-11.8-60.6c-0.1-0.8-0.2-1.2-0.2-1.2
					l-1.5-9.2l12,1.1l3.6,0.3C-136,1505.3-109.4,1528-115.1,1550.8z"/>
				<path class="st1" d="M-577.7,1513.2c0,0-12.4,21,23.5,21.6c0,0,26.7,2.5,46.6,42.3c19.9,39.8,90.6,76.3,134.6,68.2
					c0,0,147.4-15.9,165.1-73.5l12.1-31.2c0,0,50.4-3.9,55.8-3.2c5.3,0.7,1.7-14.6,1.7-14.6l-13.1-9.6l-31.2,5.3l-35.5,32.7
					l-110.9,52.2l-107-15.2c0,0-84.5-54.3-85.3-56.8s-34-25.2-34-25.2L-577.7,1513.2z"/>
				<path class="st15" d="M-578.9,1501.1v5.3l-2.8,8.1l-2.1,6.4c0,0,8.5,52.2-9.9,52.6c-18.4,0.4-21.6-34.8-21-46.2
					c0.5-8,8.6-19.6,13.5-25.8c2-2.7,3.5-4.4,3.5-4.4L-578.9,1501.1z"/>
				<path class="st14" d="M-475.2,1713l-0.5,10.1l22.7,2.1l-70.7,17.1c0,0-12.4-1.1-10.3,16.7h17.4l0.4-3.6l141.3-10l109.7,27.4h1.7
					v3.2h19.5c0,0,1.7-13.5-5.3-17.8c-7.1-4.3-44.4-18.8-44.4-18.8l59.7-5.7l11.7,0.4c0,0-0.4-14.9-9.2-16s-134.3-13.1-134.3-13.1
					H-386l-6,1.8l-78.3,1.3C-472.9,1708.2-475.1,1710.3-475.2,1713z"/>
				<path class="st16" d="M-577.7,1513.2c0,0-12.4,21,23.5,21.6c0,0,26.7,2.5,46.6,42.3c19.9,39.8,90.6,76.3,134.6,68.2
					c0,0,147.4-15.9,165.1-73.5l12.1-31.2c0,0,50.4-3.9,55.8-3.2c5.3,0.7,1.7-14.6,1.7-14.6l-13.1-9.6l-31.2,5.3l-35.5,32.7
					l-110.9,52.2l-107-15.2c0,0-84.5-54.3-85.3-56.8s-34-25.2-34-25.2L-577.7,1513.2z"/>
				<path class="st1" d="M-172.1,1507.7l-30.4,34c-72.6,84-209.3,52.9-257.1,46.2c-47.8-6.7-72.2-79.5-72.2-79.5
					c1.8,0.2,3.7,0.1,5.4-0.2c8.1-1.4,23.1-8.1,31.9-37.6c12.4-41.7-41-132.4-54-142.4s-10.1-27.3-9-64
					c1.1-36.8,30.9-22.8,30.9-22.8l48.4,28.9c118.7,16.7,181.7,1.6,181.7,1.6l54.5-26.2c24.2-6.1,28.1-5.5,42.2,27.3
					c14.1,32.8-10.1,61.2-10.1,61.2c-81.4,60.5-70.8,143.5-57.8,174c8.7,20.6,49.1,13.2,74.5,6.2
					C-180.9,1511-172.1,1507.7-172.1,1507.7z"/>
				<path class="st0" d="M-172.1,1507.7l-30.4,34c-72.6,84-209.3,52.9-257.1,46.2c-47.8-6.7-72.2-79.5-72.2-79.5
					c1.8,0.2,3.7,0.1,5.4-0.2c8.1-1.4,23.1-8.1,31.9-37.6c12.4-41.7-41-132.4-54-142.4s-10.1-27.3-9-64
					c1.1-36.8,30.9-22.8,30.9-22.8l48.4,28.9c118.7,16.7,181.7,1.6,181.7,1.6l54.5-26.2c24.2-6.1,28.1-5.5,42.2,27.3
					c14.1,32.8-10.1,61.2-10.1,61.2c-81.4,60.5-70.8,143.5-57.8,174c8.7,20.6,49.1,13.2,74.5,6.2
					C-180.9,1511-172.1,1507.7-172.1,1507.7z"/>
				<path class="st1" d="M-182.8,1505.5l-28.7,32.5c-68.7,80.4-198.2,50.6-243.5,44.2c-45.3-6.4-68.4-76.2-68.4-76.2
					c1.7,0.2,3.4,0.1,5.1-0.2c7.7-1.4,21.9-7.7,30.2-36c11.7-40-38.9-126.8-51.1-136.4c-12.2-9.6-9.6-26.1-8.5-61.2
					c1.1-35.1,29.3-21.8,29.3-21.8l45.8,27.6c112.4,16,172.1,1.6,172.1,1.6l51.7-25c22.9-5.8,26.7-5.3,40,26.1s-9.6,58.6-9.6,58.6
					c-77.2,58.1-67.1,137.6-54.8,166.8c8.2,19.7,46.5,12.6,70.5,5.9C-191.1,1508.7-182.8,1505.5-182.8,1505.5z"/>
				<path class="st3" d="M-136,1505.3c0,0-12.8-1.1-14.2,7.8l-88.5,7.5l-22,1.8l-23.3-81.7l-4.5-15.6l11,3.6c0,0,4.1,4.9,9.2,10.6
					c7.2,8.1,16.3,18.1,19.2,19.6c0.2,0.1,0.5,0.3,0.7,0.4c5.1,3.5,13.9,19.5,13.9,19.5s8.5,6,16.7,5.3c0,0,21.3,6.8,33.4,8.5
					C-172.3,1494.3-136,1505.3-136,1505.3z"/>
				<path class="st0" d="M-182.8,1505.5l-28.7,32.5c-68.7,80.4-198.2,50.6-243.5,44.2c-45.3-6.4-68.4-76.2-68.4-76.2
					c1.7,0.2,3.4,0.1,5.1-0.2c6.3,5.2,12,11,17.3,17.3c50.1,59.4,126.1,55.4,126.1,55.4s110.1,13.1,150.5-48.7
					c6.7-6.5,13.9-12.5,21.5-17.8C-191.1,1508.7-182.8,1505.5-182.8,1505.5z"/>
				<path class="st0" d="M-136,1505.3c0,0-12.8-1.1-14.2,7.8l-88.5,7.5l-22,1.8l-23.3-81.7l-4.5-15.6l11,3.6c0,0,4.1,4.9,9.2,10.6
					c7.2,8.1,16.3,18.1,19.2,19.6c0.2,0.1,0.5,0.3,0.7,0.4c5.1,3.5,13.9,19.5,13.9,19.5s8.5,6,16.7,5.3c0,0,21.3,6.8,33.4,8.5
					C-172.3,1494.3-136,1505.3-136,1505.3z"/>
				<path class="st0" d="M-135,1506.4c0,0-12.8-1.1-14.2,7.8l-0.9,0.1c-0.1-0.8-0.2-1.2-0.2-1.2l-1.5-9.2l12,1.1L-135,1506.4z"/>
				<path class="st0" d="M-209.4,1575.4c-21.3,23.6-62,50.7-135.4,48.3c0,0-132.1,16.7-180.8-83.8c0,0-18.8-34.5-53.7-15.4l-1,0.5
					l-2.1-14.9c0,0,31.2-41.9,81.3,17.4c50,59.1,126.1,55.2,126.1,55.2s110.1,13.1,150.5-48.7c0,0,57.2-57.9,84.2-22.4l1.5,10.8
					l0.3,2.3c0,0-28-9.2-47.9,14.9L-209.4,1575.4z"/>
				<path class="st1" d="M-582.3,1507.8c0,0,31.2-41.9,81.4,17.4c5.7,6.8,12,13,18.8,18.6c48.3,39.8,107.3,36.8,107.3,36.8
					s110.1,13.1,150.5-48.7c0,0,57.2-57.9,84.2-22.4l1.7,13.1c0,0-30.2-10-50.1,17.8c0,0-28.8,85.3-156.3,81
					c0,0-132.1,16.7-180.8-83.8c0,0-19.2-35.1-54.7-14.9L-582.3,1507.8z"/>
				<path class="st0" d="M-294.4,1331l-2.5,0.2c-2.7-5.3-3.4-29.1-2.4-51.5l-2.1-0.1c-0.5,10.6-1.5,41.9,2.5,51.8
					c-25.1,1.8-136.5,9.4-176.3-0.1c13.8-29,3.9-53.4,3.7-53.6l-1.9,0.9c0.1,0.2,9.5,23.4-3.4,51.4c-6.5-10.1-40.6-60.9-71.1-54.3
					l0.5,2c28.1-6.1,61.2,41.6,68.4,52.7l-1.3-0.3l2.8,2.7l1,1.6l0.2-0.4c5.1,5.5,27.9,32.4,26.7,72.4c-0.4,11.3,7.1,21.4,21.6,29.3
					c16.3,8.8,38.4,13.5,58.3,13.5c16,0,30.5-3,39.4-9.1c7.2-4.9,10.4-11.7,9.3-19.7c-5.9-43.4,27.6-86.8,28.2-87.6
					c45.9-54.9,83.7-50.9,84.1-50.9l0.3-2.1C-210.3,1279.5-247.9,1275.4-294.4,1331z M-323.4,1420.5c1,7.2-1.8,13.1-8.4,17.7
					c-19.1,13.1-67.2,10.9-95.5-4.5c-9.6-5.2-20.9-14.2-20.5-27.4c1.2-37.9-18.9-64.4-26-72.5c42.4,8.9,153.1,1.3,175.8-0.5
					c0.3,0.4,0.7,0.7,1.1,0.9C-304.3,1344.8-328.6,1382.7-323.4,1420.5L-323.4,1420.5z"/>
				<polygon class="st0" points="-329.4,1725.6 -284.6,1738.6 -293.6,1739.4 				"/>
				<polygon class="st0" points="-453,1725.2 -420.7,1717.4 -462,1724.4 				"/>
				<path class="st0" d="M-578.9,1501.1v5.3l-2.8,8.1c-3.8-10.3-14.1-12.6-19.6-13.1c2-2.7,3.5-4.4,3.5-4.4L-578.9,1501.1z"/>
				<path class="st3" d="M-527.1,1478.6l-7.8-1.7c0,0-0.4,3.2-6.8,4.9c-6.4,1.7-34.8,10.3-38.7,10.3c-3.9,0-21.6,1.1-23.5,8.1
					c0,0,21-1.5,24.2,17.1l60.7-2.8L-527.1,1478.6z"/>
				<path class="st0" d="M-527.1,1478.6l-7.8-1.7c0,0-0.4,3.2-6.8,4.9c-6.4,1.7-34.8,10.3-38.7,10.3c-3.9,0-21.6,1.1-23.5,8.1
					c0,0,21-1.5,24.2,17.1l60.7-2.8L-527.1,1478.6z"/>
				<path class="st3" d="M-259.4,1670.8c0,0,17.8,10.2,24.6,20.1c4.7,7.1,8.9,14.5,12.6,22.1c0,0,13.3,5.8,3.6-15.3
					C-228.3,1676.5-259.4,1670.8-259.4,1670.8z"/>
				<path class="st3" d="M-259.4,1670.8c0,0,17.8,10.2,24.6,20.1c4.7,7.1,8.9,14.5,12.6,22.1c0,0,13.3,5.8,3.6-15.3
					C-228.3,1676.5-259.4,1670.8-259.4,1670.8z"/>
				<path class="st0" d="M-259.4,1670.8c0,0,17.8,10.2,24.6,20.1c4.7,7.1,8.9,14.5,12.6,22.1c0,0,13.3,5.8,3.6-15.3
					C-228.3,1676.5-259.4,1670.8-259.4,1670.8z"/>
				<path class="st3" d="M-411.4,1269.8c-1.2,1.4-1.9,2.9-3,4.3c-4.6,5.6-13,5.3-19.5,8.5c-8.8,4.4-13.2,15-12.9,24.8
					c0.3,9.8,4.2,19.2,7.9,28.3c3.7,9.1,7.2,18.7,6.7,28.6c-0.3,5.8-2,11.4-3.8,17.1c-1.2,3.6-2.4,7.6-5.7,9.5
					c9.7,1.7,19.5,2.7,29.4,2.8c28.3,0.5,56.6-5.7,84.7-2.9c-6.9-6.2-10-15.7-8.1-24.8c0.8-3.5,2.3-6.9,3.5-10.3
					c3.9-11.5,4-24,0.1-35.5c-1.2-3.4-2.6-6.7-3.6-10.2c-2.2-8.1-1.6-16.6-3.2-24.7c-1.6-8.1-6.4-16.7-14.5-18.7
					c-11.3-2.7-21,9-31.8,5.8C-393.5,1270.1-403.4,1260.4-411.4,1269.8z"/>
				<g class="st17">
					<path d="M-332,1356c2-6.1,3-12.5,2.9-18.9c-0.1,5.7-1.1,11.4-2.9,16.9c-1.2,3.4-2.7,6.8-3.5,10.3c-0.5,2.1-0.7,4.3-0.5,6.4
						c0.1-1.5,0.2-2.9,0.5-4.3C-334.7,1362.7-333.1,1359.4-332,1356z"/>
					<path d="M-432.1,1361.5c0.3-9.5-3.2-18.8-6.7-27.6c-3.7-9.1-7.5-18.4-7.8-28.1c0,0.7,0,1.3,0,1.9c0.3,9.9,4.2,19.2,7.9,28.3
						C-435.5,1344.2-432.3,1352.7-432.1,1361.5z"/>
					<path d="M-329.6,1388.7c-27.4-2.3-54.9,3.5-82.5,3c-9.1-0.2-18.2-1-27.4-2.5c-0.6,0.7-1.3,1.3-2.1,1.7
						c9.7,1.7,19.5,2.7,29.4,2.8c28.3,0.5,56.6-5.7,84.7-2.9C-328.2,1390.3-329,1389.6-329.6,1388.7z"/>
				</g>
				<path class="st3" d="M-366.9,1785.5l23.4,4.4l-1.6,2.8c0,0-15.9,1.6-20.1,0C-369.4,1791.1-366.9,1785.5-366.9,1785.5z"/>
				<path class="st3" d="M-342.7,1586.8c0,0,97.1-30.7,93.5-50.2s-89.7-24.3-93.5-19.2S-342.7,1586.8-342.7,1586.8z"/>
				<path class="st18" d="M-342.7,1586.8c0,0,97.1-30.7,93.5-50.2s-89.7-24.3-93.5-19.2S-342.7,1586.8-342.7,1586.8z"/>
				<path class="st15" d="M-342.7,1397l-18.4,16.4l-23.5,4.3l-42.3-5.3l-23.8-16.4c0,0,4.2-1,16-3.6l9.6-2.1
					c19.2-4.3,11.3-35.9,11.3-35.9s52.6-28,45.8,7.5c-3.7,19.4,4.2,28,12,32C-351.8,1395.8-347.3,1396.9-342.7,1397z"/>
				<circle class="st0" cx="-387.9" cy="1335" r="40.8"/>
				<circle class="st15" cx="-387.9" cy="1333.9" r="40.8"/>
				<path class="st0" d="M-342.7,1397l-18.4,16.4l-23.5,4.3l-42.3-5.3l-23.8-16.4c0,0,4.2-1,16-3.6l2.5,1.5h76.3
					C-351.9,1395.8-347.3,1396.9-342.7,1397z"/>
				<path class="st3" d="M-395.3,1394.8h41.8c0,0,14.4-5.3,18.9-2.1c4.6,3.2,17.8,3.6,19.5,2.1s28,13.2,37.6,33.8l-34,27l-148.1,59
					c0,0-6.8-11.7-4.3-15.6c2.5-3.9-4.7-11.3-4.7-11.3s-2.5-13.1,0-17.1l-31.2-39.1c0,0,21.6-31.6,26.7-34.8c0,0,1.7-5.2,3.6-4.9
					c1.8,0.3,33.5,1,33.5,1l3.9,2.2h36.8V1394.8z"/>
				<path class="st0" d="M-395.3,1394.8h41.8c0,0,14.4-5.3,18.9-2.1c4.6,3.2,17.8,3.6,19.5,2.1s28,13.2,37.6,33.8l-3.6,2.8
					l-30.5,24.2l-148.1,59c0,0-6.8-11.7-4.3-15.6c2.5-3.9-4.7-11.3-4.7-11.3s-2.5-13.1,0-17.1l-31.2-39.1c0,0,21.6-31.6,26.7-34.8
					c0,0,1.7-5.2,3.6-4.9c1.8,0.3,33.5,1,33.5,1l3.9,2.2h36.9V1394.8z"/>
				<path class="st3" d="M-486.6,1427.5l-13.1,3.9c0,0-32.7,44.4-35.1,45.5c-2.4,1.1,16,37.6,16,37.6s6.4-4.9,9.6-8.1
					s40.8-35.9,40.8-35.9L-486.6,1427.5z"/>
				<path class="st0" d="M-486.6,1427.5l-13.1,3.9c0,0-32.7,44.4-35.1,45.5c-2.4,1.1,16,37.6,16,37.6s6.4-4.9,9.6-8.1
					s40.8-35.9,40.8-35.9L-486.6,1427.5z"/>
				<path class="st0" d="M-238.7,1520.6l-22,1.8l-23.3-81.7l15.7-1.5c7.2,8.1,16.3,18.1,19.2,19.6c0.2,0.1,0.5,0.3,0.7,0.4
					c1,3.9,1.6,7.9,1.8,11.9c2.1,31,4.9,37.2,4.9,37.2S-240.3,1513.2-238.7,1520.6z"/>
				<path class="st15" d="M-164.8,1717.7c-0.6-0.1-1.5-0.2-2.4-0.3l-1-0.1c-12.9-1.2-48.4-2.8-48.4-2.8c-0.7-3.1-1.6-6.2-2.5-9.3
					c-0.1-0.5-0.3-0.9-0.5-1.4c-3.3-9.7-9.6-23-19.7-26.3c-16.3-5.3-25.9-11.3-17.4-24.8s4.3-21.6,4.3-21.6s-11.8-28.8-15.8-32.3
					c-2.4-2.1-8.2-13.9-12.8-24.9c-0.5-1.1-0.9-2.1-1.3-3.2c-2.5-6.5-4.4-12.3-4.6-15.2c-0.3-7.5-13.8-69.6-16-80.2
					c-0.2-1-0.3-1.6-0.3-1.6s0-0.2-0.1-0.5c-0.6-3.8-4-28.9,13.2-32.2l21.8-2l0,0c0.8,0.1,17.7,1.6,19.7,32
					c2.1,31,4.9,37.2,4.9,37.2s8.9,35.9,9.6,55.1c0.7,19.2,21.8,67.5,21.8,67.5s20.8,39.8,22.6,50.1c0.9,4.9,1.7,11.3,4.2,16.4
					c0.2,0.3,0.3,0.7,0.5,1c2.7,5.1,7.3,8.9,15.2,8.2c1.2-0.1,2.4-0.1,3.6,0c0.5,0,1.1,0.1,1.6,0.2
					C-154.6,1708.2-157.9,1718.6-164.8,1717.7z"/>
				<path class="st0" d="M-275.2,1502.4c-0.4,29.9-1.7,55.8-1.7,55.8s-1.7,6.6-4.2,15.5c-3.2-7.8-5.6-15-5.8-18.4
					c-0.4-8.1-16.4-81.6-16.4-81.6s0-0.2-0.1-0.5l2.2,0.5C-301.2,1473.7-274.9,1472.5-275.2,1502.4z"/>
				<path class="st15" d="M-277.4,1502.4c-0.4,29.9-1.7,55.8-1.7,55.8s-1.4,5.1-3.3,12.3c-4.2,15.8-11.2,41.9-12.3,47.3
					c-1.7,7.8-25.2,62.5-25.2,62.5s-4.7,16.7-4.7,21c0,4.3-3.2,21.3-3.2,21.3v15.2c0,0,0,14.3-0.9,23.8c-0.1,0.8-0.2,1.5-0.2,2.2
					c-0.4,3-0.8,5.3-1.5,6c-2.4,2.8-13.1,19.9-13.1,19.9s-1.4,0-3.5,0l0,0c-4.9-0.2-13.7-0.8-18.7-3.1c-1.5-0.6-2.8-1.6-3.6-2.9
					c-2.6-5.1-1-17.7-0.3-22.1c0.2-1.1,0.3-1.6,0.3-1.6s0-0.1,0.1-0.3c0.8-3.5,7.9-33.5,4.2-40.2c-3.9-7.1,8.9-22.4,8.9-22.4
					s6.8-23.1,6.4-31.6c0,0,9.6-41.9,7.1-53.6c-0.8-3.6-0.2-12.8,1.1-24c1.6-14.3,4.1-31.7,6-44.5c1.6-10.5,2.8-17.8,2.8-17.8
					s-0.6-0.2-1.6-0.4c-2.4-0.6-7.4-1.3-10.2,0.8c-3.9,2.8-2.5-30.2-2.5-30.2l31.5-24.7l12,2.6c0.8,0,1.6,0,2.4,0.1
					C-294.3,1474.4-277.1,1478.2-277.4,1502.4z"/>
				<path class="st3" d="M-156.4,1722.4c-0.5,0.7-1.3,1.3-2,1.6c-4.7,2.5-29.6,10-40.9,8.5c-6.1-0.7-12-2.1-17.8-4.3
					c-1.4-0.5-2.6-1.1-3.9-1.7h-0.1c-2.2-1.5-5.5-14.8-6.2-17.8c-0.1-0.4-0.1-0.6-0.1-0.6s-14.6-29-20.3-19.4l3.9,47.6h-5.3
					c0,0-0.7-47.2-13.9-60c0,0-3.8-7,4.3-4.9c8.1,2,27.4,14.9,29.5,22.4c1.5,4.6,3.4,8.9,5.8,13.1c1.6,2.7,2.7,4.7,2.7,4.7l52.2,5.2
					l11.7,1.2C-156.7,1717.8-154.7,1720.2-156.4,1722.4z"/>
				<path class="st0" d="M-156.4,1722.4c-0.5,0.7-1.3,1.3-2,1.6c-4.7,2.5-29.6,10-40.9,8.5c-6.1-0.7-12-2.1-17.8-4.3
					c-1.4-0.5-2.6-1.1-3.9-1.7h-0.1c11.4-2,36.7-6.1,52.9-5.8C-163.2,1720.8-159,1721.3-156.4,1722.4z"/>
				<path class="st0" d="M-168.3,1715.5c0,0.6,0,1.2,0.1,1.8c-12.9-1.2-48.4-2.8-48.4-2.8c-0.8-3.6-1.7-7.2-3-10.7
					c9.3-4.3,22.7-8.9,34.2-6.7c2.7,5.7,7.3,9.9,15.7,9.2c1.2-0.1,2.4-0.1,3.6,0C-167.6,1709.1-168.3,1712.3-168.3,1715.5z"/>
				<path class="st0" d="M-167.3,1716.6c0,0.3,0,0.6,0,0.9l-1-0.1c-12.9-1.2-48.4-2.8-48.4-2.8c-0.7-3.1-1.6-6.2-2.5-9.3
					c9.2-4.3,22.6-9,34.2-7.1c2.7,5.1,7.3,8.9,15.2,8.2c1.2-0.1,2.4-0.1,3.6,0c0.5,0,1.1,0.1,1.6,0.2
					C-166.4,1709.6-167.3,1713-167.3,1716.6z"/>
				<path class="st3" d="M-168.3,1716.6c0,1.4,0.1,2.7,0.3,4.1h-0.1l-48.9,7.7c-1.4-0.5-2.6-1.1-3.9-1.7h-0.1
					c-2.2-1.5-5.5-14.8-6.2-17.8c1.2-0.6,2.4-1.3,3.9-2c10.6-5.3,29.5-12.8,43.6-6.7c0,0,11.3,5.1,15.6,4.4
					C-164.2,1704.3-168.3,1708.6-168.3,1716.6z"/>
				<path class="st0" d="M-328.9,1763.9c-0.4,3-0.8,5.3-1.5,6c-2.4,2.8-13.1,19.9-13.1,19.9s-1.4,0-3.6,0c-0.3-4.6-2-12.1-10.3-12.3
					c-6.6-0.1-8.2,4.9-8.4,9.2c-1.5-0.6-2.8-1.6-3.6-2.9c-2.6-5.1-1-17.7-0.3-22.1C-365,1763.3-346.8,1768.9-328.9,1763.9z"/>
				<path class="st0" d="M-328.7,1761.7c-0.1,0.8-0.2,1.5-0.2,2.2c-0.4,3-0.8,5.3-1.5,6c-2.4,2.8-13.1,19.9-13.1,19.9s-1.4,0-3.5,0
					c0.1-3.8-0.6-14.3-10.4-14.5c-7.7-0.2-8.7,6.6-8.4,11.4c-1.5-0.6-2.8-1.6-3.6-2.9c-2.6-5.1-1-17.7-0.3-22.1
					c0.2-1.1,0.3-1.6,0.3-1.6s0-0.1,0.1-0.3C-364.1,1761.4-346.2,1766.7-328.7,1761.7z"/>
				<path class="st3" d="M-370.8,1760.1c0,0,22.5,9,43.8,2.1l1.3,25c0,0-20.5,7.2-21.3,4.9c0,0,1.6-15.5-10.3-15.7
					c-11.8-0.2-7.9,16.2-7.9,16.2s-9-2.8-8.9-5.1C-374,1785.2-372.7,1762.3-370.8,1760.1z"/>
				<path class="st0" d="M-266.3,1440c-20.2-6-32.5,27.5-34.6,33.8c-0.2,0.6-0.3,1-0.3,1c-0.6,0.1-1.3,0.3-1.8,0.5
					c-34.8,9.1-32.7,40.7-31.3,50c-2.4-0.6-7.4-1.3-10.2,0.8c-3.9,2.8-2.5-30.2-2.5-30.2l31.6-24.6l12,2.6c0,0,0-0.2-0.1-0.5
					c-0.6-3.8-4-28.9,13.2-32.2l21.8-2l0,0L-266.3,1440z"/>
				<path class="st3" d="M-452.5,1497.2l-7.1,17.4c0,0-29.5,40.8-2.5,59c27,18.1,119.3,13.3,119.3,13.3l6.8-60.2
					c0,0-10.3-43,32.6-53c0,0,12.7-41.3,34.9-34.7l-42.3-21.3l-58.2,21.6l-49.4,26.7L-452.5,1497.2z"/>
				<path class="st0" d="M-452.5,1497.2l-7.1,17.4c0,0-29.5,40.8-2.5,59c27,18.1,119.3,13.3,119.3,13.3l6.8-60.2
					c0,0-10.3-43,32.6-53c0,0,12.7-41.3,34.9-34.7l-42.3-21.3l-58.2,21.6l-49.4,26.7L-452.5,1497.2z"/>
				<path class="st0" d="M-450.7,1529.5c0,0,8.9-21,19.9-27.1C-419.9,1496.4-450.7,1529.5-450.7,1529.5z"/>
				<path class="st0" d="M-412.7,1491.5c0,0,79.3-51.5,108-50.4L-412.7,1491.5z"/>
				<path class="st0" d="M-387.6,1310.9c14.7,1.5,25.3,15.9,40,18.2c1.3,0.3,2.5,0.2,3.7-0.2c3.7-1.6,2.5-7.2,0.7-10.8
					c-2.7-5.4-5.5-10.9-8.2-16.3c-2-4-4.2-8.1-7.6-11.1c-2.9-2.4-6.5-3.9-10-4.9c-14.1-4.6-29.9-5.7-43.2,0.6
					c-7.5,3.6-27.6,21.8-17.1,30.6C-420,1324.9-398.7,1309.8-387.6,1310.9z"/>
				<path class="st3" d="M-387.6,1309.9c14.7,1.5,25.3,15.9,40,18.2c1.3,0.3,2.5,0.2,3.7-0.2c3.7-1.6,2.5-7.2,0.7-10.8
					c-2.7-5.4-5.5-10.9-8.2-16.3c-2-4-4.2-8.1-7.6-11.1c-2.9-2.4-6.5-3.9-10-4.9c-14.1-4.6-29.9-5.7-43.2,0.6
					c-7.5,3.6-27.6,21.8-17.1,30.6C-420,1323.8-398.7,1308.7-387.6,1309.9z"/>
				<path class="st0" d="M-456.2,1492.4c9,1,18.1,0,26.7-2.9"/>
				<path class="st0" d="M-540.4,1485.8c0,0,6.8,1,6.8,5.6S-540.4,1485.8-540.4,1485.8z"/>
				<path class="st0" d="M-537,1503.9c0,0,1.3-2.1,3.4,1.9C-531.5,1509.9-537,1503.9-537,1503.9z"/>
				<path class="st0" d="M-343.9,1325.8c-1.2,0.4-2.5,0.5-3.7,0.2c-14.6-2.3-25.2-16.8-40-18.2c-11.2-1.1-32.4,14-41.9,6.1
					c-1.6-1.3-2.6-3.1-2.9-5.1c-0.4,2.8,0.7,5.5,2.9,7.3c9.5,7.9,30.7-7.2,41.9-6.1c14.7,1.5,25.3,15.9,40,18.2
					c1.3,0.3,2.5,0.2,3.7-0.2c2.1-1,2.6-3.1,2.3-5.5C-341.7,1323.8-342.6,1325.2-343.9,1325.8z"/>
				<path class="st0" d="M-358.5,1482.5c0,0,43.4-11.3,55.2-8.8L-358.5,1482.5z"/>
			</g>
		</g>
	</g>
</g>
</svg>
