<?xml version="1.0" encoding="utf-8"?>
<!-- Generator: Adobe Illustrator 19.0.0, SVG Export Plug-In . SVG Version: 6.00 Build 0)  -->
<svg version="1.1" xmlns="http://www.w3.org/2000/svg" xmlns:xlink="http://www.w3.org/1999/xlink" x="0px" y="0px"
	 viewBox="0 0 1000 1000" style="enable-background:new 0 0 1000 1000;" xml:space="preserve">
<style type="text/css">
	.st0{fill:#F1F1F1;}
	.st1{fill:none;stroke:#3F3D56;stroke-width:2;stroke-miterlimit:10;}
	.st2{fill:#3F3D56;}
	.st3{fill:#FF6584;}
	.st4{fill:#6C63FF;}
	.st5{opacity:0.3;fill:#6C63FF;enable-background:new    ;}
	.st6{fill:#2F2E41;}
	.st7{fill:#9F616A;}
	.st8{fill:#A0616A;}
</style>
<g id="_x23_background">
	<g>
		<g>
			<g>
				<circle class="st0" cx="792.6" cy="136.4" r="15.2"/>
				<circle class="st0" cx="703" cy="724" r="15.2"/>
				<circle class="st0" cx="325.4" cy="282.5" r="15.2"/>
				
					<rect x="419.6" y="123.4" transform="matrix(-0.2876 0.9578 -0.9578 -0.2876 1205.8314 -100.5497)" class="st0" width="441.5" height="549.5"/>
			</g>
		</g>
	</g>
</g>
<g id="_x23_chart_x28_have_x5B_diagram_x2C_arrow_x5D__x29_">
	<g>
		<g>
			<g>
				<line class="st1" x1="651.6" y1="231.5" x2="776.2" y2="281.9"/>
				<polygon class="st2" points="654.7,241.9 656.6,241 652.3,231.8 661.8,228.2 661,226.3 649.5,230.7 				"/>
				<polygon class="st2" points="766.7,287.2 766,285.2 775.5,281.6 771.2,272.4 773,271.5 778.3,282.7 				"/>
				<circle class="st2" cx="713.8" cy="256.7" r="11.3"/>
				<line class="st1" x1="642" y1="580.8" x2="756.8" y2="510.9"/>
				<polygon class="st2" points="652.2,584.4 652.7,582.4 642.7,580.4 645.5,570.7 643.5,570 640.2,582 				"/>
				<polygon class="st2" points="755.4,521.6 753.5,521.1 756.2,511.3 746.2,509.2 746.7,507.3 758.8,509.7 				"/>
				<circle class="st2" cx="699.4" cy="545.9" r="11.3"/>
				<line class="st1" x1="497.7" y1="359.2" x2="497.9" y2="493.7"/>
				<polygon class="st2" points="489.3,366.1 490.9,367.4 497.7,360 504.6,367.4 506.2,366.1 497.7,357 				"/>
				<polygon class="st2" points="489.4,486.9 490.9,485.5 497.9,492.9 504.7,485.5 506.2,486.9 497.9,496 				"/>
				<circle class="st2" cx="497.7" cy="426.5" r="11.3"/>
				<rect x="402.4" y="85.5" class="st2" width="187.3" height="232.6"/>
				<path class="st3" d="M484.3,172h-42.5c-2.9-16.8-2.9-34,0-50.6h42.5C479.5,138,479.5,155.5,484.3,172z"/>
				<path class="st4" d="M507.7,197.8h42.5c2.9-16.8,2.9-34,0-50.6h-42.5C512.5,163.7,512.5,181.2,507.7,197.8z"/>
				<path class="st4" d="M467.6,282.1h42.5c2.9-16.8,2.9-34,0-50.6h-42.5C472.3,248.1,472.3,265.6,467.6,282.1z"/>
				<rect x="792.3" y="306.7" class="st2" width="187.3" height="232.6"/>
				<rect x="819.1" y="356.1" class="st4" width="133.8" height="6.2"/>
				<rect x="819.1" y="377.7" class="st4" width="133.8" height="6.2"/>
				<rect x="819.1" y="399.3" class="st4" width="133.8" height="6.2"/>
				<rect x="819.1" y="420.9" class="st4" width="133.8" height="6.2"/>
				<rect x="819.1" y="442.6" class="st4" width="133.8" height="6.2"/>
				<rect x="851" y="465.2" class="st4" width="70" height="24.7"/>
				<rect x="418.8" y="545.4" class="st2" width="187.3" height="232.6"/>
				<rect x="445.9" y="674.9" class="st4" width="133.8" height="6.2"/>
				<rect x="445.9" y="696.5" class="st4" width="133.8" height="6.2"/>
				<rect x="445.9" y="718.1" class="st4" width="133.8" height="6.2"/>
				<rect x="445.9" y="739.7" class="st4" width="133.8" height="6.2"/>
				<path class="st5" d="M486.8,628.2h-42.5c-2.9-16.8-2.9-34,0-50.6h42.5C482.1,594.1,482.1,611.7,486.8,628.2z"/>
				<rect x="504.5" y="582.3" class="st5" width="78.2" height="5.1"/>
				<rect x="504.5" y="600.8" class="st5" width="78.2" height="5.1"/>
				<rect x="504.5" y="619.3" class="st5" width="78.2" height="5.1"/>
				<rect x="504.5" y="637.9" class="st5" width="78.2" height="5.1"/>
			</g>
		</g>
	</g>
</g>
<g id="_x23_woman_x28_stand_x2C_watch_x29_">
	<g>
		<circle class="st6" cx="172.1" cy="359.6" r="37.9"/>
		<polygon class="st7" points="131.2,834.1 124,864.9 141.5,864.9 148.7,830 		"/>
		<polygon class="st7" points="215.6,834.1 215.6,862.9 233.1,864.9 233.1,834.1 		"/>
		<path class="st7" d="M126.1,506.9c0,0,2.1,44.2,4.1,47.3c2.1,3.1,20.6,47.3,20.6,47.3l9.3-28.8c0,0-14.4-23.7-12.3-37
			c2.1-13.4,0.7-29.8,0.7-29.8L126.1,506.9z"/>
		<circle class="st7" cx="184.7" cy="371" r="28.8"/>
		<path class="st7" d="M161.1,374.1c0,0,1,41.2-6.2,47.3c-7.2,6.2,41.2,1,41.2,1s-10.3-28.8-2.1-35S161.1,374.1,161.1,374.1z"/>
		<path class="st6" d="M199.1,420.4c0,0-6.2-11.3-14.4-10.3c-8.2,1-35,3.1-36,5.1c-1,2.1-4.1,9.3-6.2,11.3
			c-2.1,2.1-17.5,5.1-18.5,17.5c-1,12.3,37,87.5,37,87.5s-5.1,17.5-4.1,21.6c1,4.1-5.1,16.5-4.1,21.6c1,5.1-15.4,36-7.2,76.1v64.8
			c0,0-27.8,112.2-19.6,120.4s36,3.1,41.2,0c5.1-3.1,26.8-158.5,26.8-158.5l10.3-52.5l1,115.2c0,0-2.1,96.7,5.1,99.8s35,4.1,37-2.1
			c1.6-4.8,9.5-132.9,12.9-189.1c1.1-19.3-0.3-38.8-4.5-57.8c-4.3-19.4-10.5-42.3-17.6-51.6c-13.4-17.5-21.6-73.1-21.6-73.1
			l17.5-31.9c0,0-10.3-10.3-16.5-10.3C211.5,424.4,199.1,420.4,199.1,420.4z"/>
		<path class="st6" d="M130.2,436.9l-5.5,3.7c0,0-3.8,66.3-0.7,70.4c3.1,4.1,24.6,2.1,26.1-1.5S130.2,436.9,130.2,436.9z"/>
		<path class="st7" d="M214.6,498.6c0,0,1,43.2,7.2,55.6c6.2,12.3,28.8,63.8,28.8,63.8s-1.3,56.6,10.2,42.7
			c11.5-13.9,4.2-46.8,4.2-46.8l-19.6-76.1c0,0-10.3-34-9.3-44.2C237.2,483.2,214.6,498.6,214.6,498.6z"/>
		<path class="st6" d="M233.1,846.2c0,0,1-0.8,4.1,2.3s11.3,7.2,10.3,18.5c-1,11.3-7.2,13.4-7.2,13.4v-3.1h-3.1v5.1
			c0,0-5.1,16.5-28.8,6.2c0,0-1-8.2,0-13.4c1-5.1,1-29.8,4.1-28.8s11.3,2.1,13.4,6.2C227.9,856.7,234.1,855.3,233.1,846.2z"/>
		<path class="st6" d="M127.1,847.3c0,0-1-0.8-4.1,2.3c-3.1,3.1-11.3,7.2-10.3,18.5c1,11.3,7.2,13.4,7.2,13.4v-3.1h3.1v5.1
			c0,0,5.1,16.5,28.8,6.2c0,0,1-8.2,0-13.4c-1-5.1-1-29.8-4.1-28.8c-3.1,1-11.3,2.1-13.4,6.2C132.3,857.7,126.1,856.3,127.1,847.3z"
			/>
		<path class="st6" d="M219.7,431.7l14.4,3.1c0,0,0,22.6,4.1,31.9c4.1,9.3,11.3,30.9,8.2,31.9c-3.1,1-31.9,15.4-34,7.2
			C210.5,497.6,205.3,431.7,219.7,431.7z"/>
		<circle class="st6" cx="131" cy="309.7" r="37.9"/>
		<path class="st6" d="M98.4,341.1c17,12.2,40.6,8.4,52.9-8.5c2.5-3.5,4.4-7.3,5.6-11.4c-2.6,20.8-21.5,35.5-42.3,32.8
			c-20.8-2.6-35.5-21.5-32.8-42.3c0.3-2.1,0.7-4.1,1.2-6.1C81.3,319.4,87.2,333,98.4,341.1z"/>
		<circle class="st6" cx="162" cy="365.9" r="27.8"/>
		<ellipse class="st6" cx="185.3" cy="355.5" rx="24.6" ry="19.2"/>
		<ellipse class="st8" cx="191.9" cy="375.2" rx="4.6" ry="8.2"/>
	</g>
</g>
</svg>
