<?xml version="1.0" encoding="utf-8"?>
<!-- Generator: Adobe Illustrator 19.0.0, SVG Export Plug-In . SVG Version: 6.00 Build 0)  -->
<svg version="1.1" id="图层_1" xmlns="http://www.w3.org/2000/svg" xmlns:xlink="http://www.w3.org/1999/xlink" x="0px" y="0px"
	 viewBox="-917 917.7 1000 1000" style="enable-background:new -917 917.7 1000 1000;" xml:space="preserve">
<style type="text/css">
	.st0{fill:#F2F2F2;}
	.st1{fill:none;stroke:#3F3D56;stroke-width:4;stroke-miterlimit:10;}
	.st2{fill:#57B894;}
	.st3{opacity:0.1;enable-background:new    ;}
	.st4{fill:#656380;}
	.st5{opacity:0.2;enable-background:new    ;}
	.st6{fill:#FFFFFF;}
	.st7{fill:#6C63FF;}
	.st8{fill:#3F3D56;}
	.st9{fill:#302F45;}
	.st10{opacity:0.3;fill:#6C63FF;enable-background:new    ;}
	.st11{fill:none;stroke:#3F3D56;stroke-miterlimit:10;}
	.st12{fill:#A0616A;}
	.st13{fill:#E6E6F0;}
	.st14{fill:#3C354C;}
	.st15{fill:#575A89;}
</style>
<g id="_x23_background">
	<g>
		<g>
			<g>
				<g>
					<path class="st0" d="M-223.4,1527.2l7.3-1.4l2.1-0.4c-28.4-16.9-37.7-53.6-20.8-82c11.8-19.9,34-31.1,57-29l-9.1,22.9
						l22.3-20.2h0.2c31.4,10.4,48.4,44.3,38,75.7c-0.4,1.1-0.8,2.1-1.2,3.2c6.3-3.3,12.4-7.2,17.3-12.1c9.9-9.9,15.2-23.4,21.1-40
						c11.7-32.9,22.9-66.3,33.6-99.7c-26.1-13.5-38.6-44-29.3-71.9c0.6-1.7,1.2-3.4,2-5.1c0.2-0.4,0.3-0.8,0.5-1.2
						c0.7-1.6,1.5-3.1,2.4-4.6c0.1-0.2,0.3-0.5,0.4-0.7c0.8-1.3,1.5-2.5,2.4-3.7c0.3-0.5,0.6-0.9,0.9-1.3c0.9-1.3,1.9-2.5,2.9-3.7
						c0.3-0.4,0.7-0.8,1.1-1.2c0.8-0.9,1.6-1.7,2.5-2.5c0.4-0.4,0.9-0.9,1.3-1.3c0.1-0.1,0.2-0.2,0.3-0.3l0,0
						c21.4-19.4,53.6-20.7,76.5-3.2l-11.9,29.8l22-20c16.5,20.2,17.9,48.7,3.5,70.5H22c-0.2,0.4-0.5,0.7-0.8,1.1
						c-0.5,0.7-0.9,1.3-1.4,2c-0.6,0.8-1.3,1.6-1.9,2.4c-0.5,0.6-1,1.2-1.5,1.8c-0.8,0.8-1.6,1.6-2.3,2.4c-0.5,0.5-0.9,1-1.4,1.4
						c-1.3,1.2-2.6,2.3-3.9,3.4c-0.5,0.4-1,0.7-1.5,1c-1,0.7-1.9,1.4-2.9,2c-0.6,0.4-1.2,0.8-1.9,1.1c-0.9,0.5-1.8,1.1-2.8,1.5
						c-0.7,0.4-1.3,0.7-2,1c-1,0.5-1.9,0.9-2.9,1.3c-0.7,0.3-1.3,0.5-2,0.8c-1.1,0.4-2.2,0.8-3.4,1.1c-0.6,0.2-1.1,0.4-1.7,0.5
						c-1.7,0.5-3.4,0.9-5.2,1.2c-0.3,0.1-0.7,0.1-1,0.1c-1.5,0.2-2.9,0.4-4.4,0.6c-0.6,0.1-1.3,0.1-1.9,0.1
						c-1.2,0.1-2.4,0.1-3.6,0.1c-0.7,0-1.4,0-2.1,0c-1.2,0-2.3-0.1-3.5-0.2c-0.7-0.1-1.4-0.1-2.1-0.2c-1.2-0.2-2.5-0.4-3.8-0.6h-0.2
						c-4.5,14.1-9.1,28.2-13.8,42.2c24.1-22.5,62-21.3,84.5,2.9c0.8,0.9,1.6,1.7,2.3,2.6l-20.3,23.4l27.8-11.7
						c7.1,14.1,8.2,30.5,3.2,45.5c-1.7,5.3-4.2,10.3-7.3,14.9c-18.6,27.3-55.8,34.5-83.1,15.9c-13.7-9.3-22.9-23.8-25.5-40.1
						c-0.5,1.4-1,2.9-1.5,4.3c-5.2,14.7-11.7,32.9-25.1,46.2c-9.1,9-20.4,14.9-31.2,19.9c-7.1,3.2-14.2,6.2-21.5,9
						c-8,5.1-17.2,8.2-26.6,9c-11.5,3.4-23.1,6.3-34.8,8.6l-7.3,1.4c-6.6,1.2-13.3,2.5-20,4c1,0.3,2,0.5,2.9,0.8
						c24.8,8.2,41.3,31.5,41,57.6l-45.8,15l41.8,5.8c-11.9,30.9-46.5,46.3-77.4,34.4c-8.4-3.2-15.9-8.3-22-14.8l1.3,4.2
						c0.9,2.8,1.8,5.6,2.7,8.3c11.7,37.5,7.5,67.2-11.7,83.8l-10.8-12.6c18.7-16.1,12.2-48.3,6.7-66.2c-0.9-2.7-1.7-5.4-2.6-8.2
						c-7.6-23.6-16.2-50.4-6.2-75.3C-305.4,1542.8-259.9,1534.1-223.4,1527.2z"/>
					<path class="st0" d="M-643.9,1396.3l-6.3-3.9l-1.8-1.1c32.6-5.6,54.5-36.5,48.9-69.1c-3.9-22.8-20.6-41.3-42.8-47.5l0.3,24.7
						l-13.5-26.9h-0.2c-33-1.5-61,24-62.6,57l0,0c0,1.1,0,2.3,0,3.4c-4.7-5.4-9-11.1-11.8-17.5c-5.7-12.8-5.9-27.3-5.4-44.9
						c0.9-34.9,2.4-70.1,4.4-105.1c29.2-3.3,51.8-27.3,53.1-56.6c0.1-1.8,0.1-3.6,0-5.4c0-0.4,0-0.9-0.1-1.3
						c-0.1-1.7-0.3-3.5-0.5-5.2c0-0.3-0.1-0.6-0.1-0.8c-0.2-1.4-0.5-2.9-0.9-4.3c-0.1-0.5-0.2-1.1-0.4-1.6c-0.4-1.5-0.9-3-1.4-4.5
						c-0.2-0.5-0.4-1-0.6-1.5c-0.4-1.1-0.9-2.2-1.4-3.2c-0.2-0.6-0.5-1.1-0.8-1.7c-0.1-0.1-0.1-0.3-0.2-0.4l0,0
						c-13-25.8-42.7-38.6-70.4-30.3l0.4,32.1l-13.4-26.5c-22.6,12.8-34.1,39-28.5,64.4h-0.1c0.1,0.4,0.2,0.8,0.3,1.2
						c0.2,0.8,0.4,1.6,0.6,2.4c0.3,1,0.6,2,0.9,3c0.2,0.7,0.5,1.5,0.8,2.2c0.4,1.1,0.9,2.1,1.3,3.1c0.3,0.6,0.5,1.2,0.8,1.8
						c0.8,1.6,1.6,3.1,2.5,4.5c0.3,0.5,0.7,1,1,1.5c0.6,1,1.3,2,2,2.9c0.4,0.6,0.9,1.1,1.4,1.7c0.6,0.8,1.3,1.6,2,2.4
						c0.5,0.6,1,1.1,1.5,1.7c0.7,0.8,1.5,1.5,2.3,2.3c0.5,0.5,1,1,1.6,1.5c0.9,0.8,1.8,1.5,2.7,2.3c0.5,0.4,0.9,0.8,1.4,1.1
						c1.4,1,2.9,2,4.4,2.9c0.3,0.2,0.6,0.3,0.9,0.5c1.3,0.7,2.6,1.4,3.9,2.1c0.6,0.3,1.1,0.5,1.7,0.8c1.1,0.5,2.2,1,3.3,1.4
						c0.6,0.2,1.3,0.5,2,0.7c1.1,0.4,2.2,0.7,3.4,1c0.7,0.2,1.3,0.4,2,0.5c1.2,0.3,2.5,0.5,3.7,0.8h0.2c-0.8,14.8-1.6,29.6-2.2,44.4
						c-14.4-29.7-50.2-42.1-79.9-27.6c-1.1,0.5-2.1,1.1-3.1,1.6l10.6,29l-21.8-20.9c-11.7,10.7-18.7,25.6-19.4,41.3
						c-0.3,5.5,0.2,11.1,1.5,16.5c7.5,32.2,39.7,52.2,71.9,44.6c16.1-3.8,29.9-14,38.2-28.3c0,1.5-0.1,3-0.1,4.5
						c-0.4,15.5-0.9,34.9,6.9,52.1c5.2,11.7,13.7,21.2,22,29.7c5.4,5.5,11.1,10.9,16.8,16.1c5.7,7.6,13.1,13.8,21.6,18
						c9.5,7.3,19.3,14.2,29.5,20.5l6.3,3.9c5.7,3.5,11.5,7.1,17.3,10.9c-1-0.1-2-0.2-3-0.3c-26-1.2-49.9,14.6-58.9,39l37.4,30.4
						l-41.1-9.5c0.1,33.1,26.9,59.8,60,59.8c8.9,0,17.8-2,25.8-5.9l-2.8,3.5c-1.8,2.3-3.7,4.6-5.5,6.8
						c-24.3,30.8-31.1,60.1-19.1,82.4l14.7-7.9c-11.7-21.7,5.9-49.5,17.5-64.2c1.8-2.2,3.5-4.5,5.4-6.7
						c15.5-19.3,33.2-41.2,32.7-68.1C-573,1440.3-612.3,1415.9-643.9,1396.3z"/>
				</g>
			</g>
			<ellipse class="st0" cx="-409" cy="1746" rx="437" ry="50"/>
		</g>
	</g>
</g>
<g id="_x23_accessory_x28_have_x5B_tree_x5D__x29_">
	<path class="st1" d="M-786.6,1712.7c-3-5.5,0.4-12.3,4.3-17.2c3.9-4.9,8.6-10,8.5-16.3c-0.1-9-9.7-14.3-17.3-19.1
		c-5.7-3.5-10.9-7.7-15.6-12.5c-2-1.8-3.6-4-4.8-6.4c-1.6-3.5-1.5-7.5-1.4-11.4c0.3-12.8,1-25.7,1.9-38.5"/>
	<path class="st2" d="M-825.5,1590.7c0.2-4.8,2.9-9.1,7-11.5l3.1,6.2l-0.1-7.5c7.4-2.2,15.2,2,17.4,9.4c2.2,7.4-2,15.2-9.4,17.4
		c-7.4,2.2-15.2-2-17.4-9.4C-825.3,1593.8-825.5,1592.3-825.5,1590.7L-825.5,1590.7z"/>
	<path class="st2" d="M-800.5,1685.7c3.5,6.9,12,9.6,18.9,6c6.9-3.5,9.6-12,6-18.9c-3.6-6.9-12-9.6-18.9-6c-3.1,1.6-5.5,4.3-6.7,7.6
		l8.8,7.1l-9.6-2.2C-802,1681.5-801.5,1683.7-800.5,1685.7z"/>
	<path class="st2" d="M-793.6,1658.4c7.7,0.4,14.3-5.6,14.7-13.3v-0.1c0.1-2.2-0.3-4.4-1.2-6.4c-1.7-3.8-5-6.6-9-7.8l0.1,5.8
		l-3.2-6.3l0,0c-7.7-0.4-14.3,5.6-14.7,13.3C-807.2,1651.5-801.2,1658-793.6,1658.4L-793.6,1658.4z"/>
	<path class="st2" d="M-827.6,1635.8c7.7,0.4,14.3-5.6,14.7-13.3v-0.1c0.4-7.7-5.6-14.3-13.3-14.7c0,0,0,0-0.1,0
		c-2.6-0.1-5.2,0.5-7.5,1.8l2.5,6.8l-5.1-4.9c-2.7,2.5-4.4,6-4.5,9.7c-0.1,1.3,0.1,2.6,0.4,3.9
		C-839.2,1631.1-833.9,1635.5-827.6,1635.8z"/>
	<path class="st3" d="M-823.6,1594.4c3.2,0.3,6.4,1.4,9.6,1.6c3.2,0.2,6.8-0.6,8.9-3.1c1.1-1.4,1.7-3.1,2.6-4.6
		c0.9-1.4,2.1-2.5,3.5-3.3c3.3,7,0.4,15.3-6.6,18.7c-7,3.3-15.3,0.4-18.7-6.6c-0.4-0.9-0.8-1.8-1-2.8
		C-824.6,1594.3-824.1,1594.4-823.6,1594.4z"/>
	<path class="st3" d="M-827.6,1635.8c7.7,0.4,14.3-5.6,14.7-13.3v-0.1c0.1-2.3-0.3-4.6-1.3-6.7c-1.1,0.8-2.1,1.7-2.8,2.8
		c-1,1.5-1.6,3.2-2.8,4.6c-2.2,2.6-5.9,3.4-9.3,3.2c-3.4-0.2-6.6-1.1-10-1.4c-0.5,0-0.9-0.1-1.4-0.1
		C-839.2,1631.1-833.9,1635.5-827.6,1635.8z"/>
	<path class="st3" d="M-793.6,1658.4c7.7,0.4,14.3-5.6,14.7-13.3v-0.1c0.1-2.2-0.3-4.4-1.2-6.4c-1.2,0.8-2.2,1.7-3,2.8
		c-1.1,1.5-1.8,3.3-3,4.7c-2.4,2.6-6.4,3.6-9.9,3.5c-3.6-0.1-6.8-0.9-10.3-1.2C-804.6,1654.2-799.5,1658.2-793.6,1658.4z"/>
	<path class="st3" d="M-800.5,1685.7c3.2,7.1,11.5,10.2,18.5,7.1c7.1-3.2,10.2-11.5,7.1-18.5l0,0c-1.2,0.8-2.2,1.7-3.1,2.7
		c-1.3,1.6-2.2,3.5-3.8,5c-2.9,2.8-7.5,4-11.6,4.1C-795.7,1686.1-798.1,1686-800.5,1685.7z"/>
	<path class="st4" d="M-765.4,1706.4c0,0-11.1-0.3-14.4-2.7s-17-5.2-17.9-1.4c-0.9,3.8-16.6,19-4.1,19.1s29.1-1.9,32.4-4
		C-766.1,1715.3-765.4,1706.4-765.4,1706.4z"/>
	<path class="st5" d="M-802.1,1720c12.5,0.1,29.1-2,32.4-4c2.5-1.5,3.6-7.1,3.9-9.7h0.4c0,0-0.7,8.9-4,11c-3.3,2.1-19.9,4.1-32.4,4
		c-3.6,0-4.9-1.3-4.8-3.2C-806.1,1719.3-804.8,1720-802.1,1720z"/>
</g>
<g id="chart_x28_have_x5B_digram_x5D__x29_">
	<path class="st6" d="M-407,1093.2c-5.3,0-9.6-4.3-9.6-9.6c0-5.3,4.3-9.6,9.6-9.6c5.3,0,9.6,4.3,9.6,9.6l0,0
		C-397.3,1088.9-401.7,1093.2-407,1093.2z"/>
	<path class="st6" d="M-407,1074.5c5,0,9.1,4.1,9.1,9.1s-4.1,9.1-9.1,9.1s-9.1-4.1-9.1-9.1l0,0C-416.1,1078.6-412,1074.5-407,1074.5
		 M-407,1073.5c-5.6,0-10.1,4.6-10.1,10.1s4.6,10.1,10.1,10.1s10.1-4.6,10.1-10.1C-396.8,1078-401.3,1073.5-407,1073.5L-407,1073.5
		L-407,1073.5z"/>
	<circle class="st6" cx="-407" cy="1701.2" r="20.2"/>
	<rect x="-412.2" y="1342.3" class="st7" width="23" height="143.9"/>
	<rect x="-359.7" y="1307.2" class="st7" width="23" height="179"/>
	<rect x="-307.2" y="1342.3" class="st7" width="23" height="143.9"/>
	<rect x="-254.7" y="1271" class="st7" width="23" height="215.2"/>
	<path class="st8" d="M-674.1,1043.2h534.5c10.9,0,19.7,8.9,19.7,19.8v651.7c0,10.9-8.9,19.8-19.8,19.8h-534.4
		c-10.9,0-19.8-8.9-19.8-19.8V1063C-694.1,1052.1-685.1,1043.2-674.1,1043.2z"/>
	<rect x="-668.5" y="1112.9" class="st9" width="519.2" height="551.9"/>
	<rect x="-473.7" y="1380.5" class="st10" width="23" height="109.8"/>
	<rect x="-639.1" y="1268.2" class="st8" width="31" height="5"/>
	<rect x="-639.1" y="1304.2" class="st8" width="31" height="5"/>
	<rect x="-639.1" y="1340.2" class="st8" width="31" height="5"/>
	<rect x="-639.1" y="1376.2" class="st8" width="31" height="5"/>
	<rect x="-639.1" y="1412.2" class="st8" width="31" height="5"/>
	<rect x="-639.1" y="1448.2" class="st8" width="31" height="5"/>
	<rect x="-639.1" y="1484.2" class="st8" width="31" height="5"/>
	<line class="st11" x1="-598.1" y1="1486.2" x2="-598.1" y2="1271.2"/>
	<line class="st11" x1="-598.6" y1="1270.7" x2="-179.2" y2="1270.7"/>
	<line class="st11" x1="-597.6" y1="1306.7" x2="-179.2" y2="1306.7"/>
	<line class="st11" x1="-597.6" y1="1342.7" x2="-179.2" y2="1342.7"/>
	<line class="st11" x1="-597.6" y1="1378.7" x2="-179.2" y2="1378.7"/>
	<line class="st11" x1="-597.6" y1="1414.7" x2="-179.2" y2="1414.7"/>
	<line class="st11" x1="-597.6" y1="1450.7" x2="-179.2" y2="1450.7"/>
	<line class="st11" x1="-598.6" y1="1486.7" x2="-179.2" y2="1486.7"/>
	<rect x="-569.7" y="1451.2" class="st7" width="23" height="35"/>
	<rect x="-517.2" y="1411.6" class="st7" width="23" height="74.6"/>
</g>
<g id="_x23_man_x28_stand_x2C_show_x29_">
	<g>
		<path class="st12" d="M-417.8,1373.9c-10.6-2.8-21.5-5.5-32.4-3.9c-1.3,0.1-2.6,0.6-3.6,1.5c-1.3,1.4-1.2,3.8-0.1,5.3
			c1.2,1.5,2.9,2.6,4.7,3.2c5.1,1.8,10.6,2,15.9,2.1s10.5,0.2,15.6-1c1.2-0.2,2.3-0.7,3.2-1.5
			C-411.5,1376.6-415.4,1374.5-417.8,1373.9z"/>
		<path class="st13" d="M-338,1399.7c-3.5,0.1-7.1-0.1-10.6-0.7c-3.1-0.6-6.2-1.5-9.2-2.5l-10.9-3.5c-5.9-1.8-11.7-3.9-17.3-6.5
			c-9.6-4.5-18.4-11.3-28.8-13.4c-1.9-0.4-4.3-0.4-5.2,1.3c-0.4,0.8-0.5,1.7-0.5,2.5l-0.1,7.7c0,0.5,0,1,0.2,1.5
			c0.3,0.4,0.7,0.8,1.1,1c9.9,6.4,21.1,10.7,30.1,18.3c2.7,2.3,5.2,4.9,8.1,7c3.7,2.8,8,4.7,12.6,5.7c6.4,1.4,13.3,0.9,19,3.9
			c2.6,1.4,5,3.5,7.9,4c2.5,0.4,5-0.3,7.5-1.1c4-1.3,8.1-2.7,10.8-5.8c3.5-4,3.7-9.8,3.8-15.1c0-1.5,1-7.7,0.1-8.8
			c-1.3-1.6-3.4,0.8-4.7,1.5C-328.2,1399-333.2,1399.7-338,1399.7z"/>
		<path class="st12" d="M-305.2,1360.5c0,0,6.7,28.5,11.6,32.9s-34.7,14.2-34.7,14.2s8.4-31.1,4.4-36.5
			C-327.9,1365.7-305.2,1360.5-305.2,1360.5z"/>
		<path class="st3" d="M-305.2,1360.5c0,0,6.7,28.5,11.6,32.9s-34.7,14.2-34.7,14.2s8.4-31.1,4.4-36.5
			C-327.9,1365.7-305.2,1360.5-305.2,1360.5z"/>
		<path class="st14" d="M-369.2,1732.1c-2.2,0.3-4.4,0-6.6,0.3c-3.1,0.4-5.9,1.8-8,4.1c-0.7,0.6-1.1,1.6-1.2,2.5
			c0.1,0.7,0.4,1.3,0.9,1.8c2,2.2,4.9,3.4,7.8,4c4.3,0.8,8.7,1.1,13.2,1c11,0.1,21.9,0.1,32.9,0.2c0.8-3.9,0.7-8-0.3-11.9
			c-0.2-1.1-0.7-2.1-1.4-2.9c-0.7-0.7-1.6-1.2-2.5-1.6l-6.8-3.2c-5.4-2.6-9.6-4.5-15-1.3C-360.5,1727.4-364.2,1731.3-369.2,1732.1z"
			/>
		<path class="st3" d="M-369.2,1732.1c-2.2,0.3-4.4,0-6.6,0.3c-3.1,0.4-5.9,1.8-8,4.1c-0.7,0.6-1.1,1.6-1.2,2.5
			c0.1,0.7,0.4,1.3,0.9,1.8c2,2.2,4.9,3.4,7.8,4c4.3,0.8,8.7,1.1,13.2,1c11,0.1,21.9,0.1,32.9,0.2c0.8-3.9,0.7-8-0.3-11.9
			c-0.2-1.1-0.7-2.1-1.4-2.9c-0.7-0.7-1.6-1.2-2.5-1.6l-6.8-3.2c-5.4-2.6-9.6-4.5-15-1.3C-360.5,1727.4-364.2,1731.3-369.2,1732.1z"
			/>
		<path class="st14" d="M-299.2,1759.5c0.1,1.2,0,2.4-0.3,3.6c-0.9,2.4-3.6,3.4-6,4.1c-11,3.1-22.6,3.3-34,3.6
			c-8.6,0.2-17.4,0.3-25.4-2.7c-1.7-0.5-3.2-1.4-4.4-2.6c-1.3-1.2-1.8-3-1.4-4.8c0.6-2.1,2.9-3.3,4.9-4.2l11-4.9l21.1-9.5
			c2.6-1.2,5.4-2.4,8.2-2.3c3.5,0.1,6.6,2.1,9.7,3.7c2.3,1.1,4.6,2.1,7,2.8c2.1,0.7,5.1,0.7,7,1.9
			C-298.5,1750.2-299.4,1756.1-299.2,1759.5z"/>
		<path class="st15" d="M-365,1550.4c-5.5,15.6-11.1,31.4-13.8,47.7c-1,5.8-1.6,11.8-2.6,17.6c-1,5.5-2.4,11.1-1.4,16.6
			c0.7,3.6,2.3,6.9,3.5,10.3c1.7,4.6,2.6,9.3,4.2,13.9c2.4,7.1,6.3,13.6,8.8,20.7c2.4,6.9,3.5,14.2,6.8,20.7c2,3.8,4.7,7.3,6,11.4
			c1.8,6.2,0.1,12.9-4.4,17.5c0.6,2.7,3.7,4,6.3,5l9.3,3.5c3.6,1.3,7.6,2.6,11,1.1c5.1-2.2,6-8.9,5.8-14.4
			c-0.5-13.4-3.7-26.6-6.9-39.6c-3-12-5.9-24-9.5-35.9c-1.5-4.9-3-9.8-4.2-14.8c-4.3-18.6-2.9-38.1,4.1-55.9c4-10,0.4-22.3,0.9-33.1
			l-13.4-2.5c-2.6-0.5-5.8-0.8-7.5,1.3S-364,1547.7-365,1550.4z"/>
		<path class="st3" d="M-365,1550.4c-5.5,15.6-11.1,31.4-13.8,47.7c-1,5.8-1.6,11.8-2.6,17.6c-1,5.5-2.4,11.1-1.4,16.6
			c0.7,3.6,2.3,6.9,3.5,10.3c1.7,4.6,2.6,9.3,4.2,13.9c2.4,7.1,6.3,13.6,8.8,20.7c2.4,6.9,3.5,14.2,6.8,20.7c2,3.8,4.7,7.3,6,11.4
			c1.8,6.2,0.1,12.9-4.4,17.5c0.6,2.7,3.7,4,6.3,5l9.3,3.5c3.6,1.3,7.6,2.6,11,1.1c5.1-2.2,6-8.9,5.8-14.4
			c-0.5-13.4-3.7-26.6-6.9-39.6c-3-12-5.9-24-9.5-35.9c-1.5-4.9-3-9.8-4.2-14.8c-4.3-18.6-2.9-38.1,4.1-55.9c4-10,0.4-22.3,0.9-33.1
			l-13.4-2.5c-2.6-0.5-5.8-0.8-7.5,1.3S-364,1547.7-365,1550.4z"/>
		<path class="st15" d="M-301.5,1543.2c-0.3,4.8-0.7,9.8-2.9,14c-1.3,2.6-3.3,4.9-4.8,7.4c-4,6.8-4.7,15-4.9,22.9
			c-0.2,8.2,0.1,16.4,0.4,24.5c0,2.5,0.3,5,0.8,7.5c0.5,2.1,1.3,4.1,1.8,6.1c1.2,5,0.1,10.3,0.8,15.4c0.5,3.9,2,7.5,3.2,11.3
			c1.7,5.8,2.5,11.7,2.4,17.8c-0.4,16.3,4.8,31.8,4.9,48c0,5.6-0.2,11.2,0.3,16.8c0.5,6.1,1.8,12.1,2.5,18.1c0.2,1.4,0.2,3-0.9,3.9
			c-0.8,0.5-1.8,0.8-2.7,0.7c-3.5,0.2-6.9-0.1-10.3-1c-3-0.9-5.7-2.5-8.6-3.6c-5.4-2-12.2-2.4-15.3-7.3c-0.3-0.4-0.5-0.9-0.5-1.4
			c0-1.4,1.5-2.2,2.2-3.4c0.4-0.8,0.6-1.7,0.6-2.5c0.3-6.4-2.6-12.4-4.5-18.5c-1.7-6-3-12-3.8-18.2c-2-12.7-4-25.7-1.9-38.3
			c0.5-3.1,1.2-6.7-0.8-9.2c-0.9-1-1.8-1.8-2.9-2.6c-2.3-2.1-3.7-5.1-3.7-8.2c0-10-4.6-20-5-30c-0.3-5.8,0.1-11.6-0.2-17.3
			c-0.7-15.3-5.7-29.9-10.2-44.5c-0.8-2.1-1.2-4.3-1.3-6.5c-0.1-2.3,0.8-4.5,2.5-6c7.6-6.1,18.9-8.2,27.3-3.2c1.7,1,3.2,2.2,5,3
			C-322.9,1543.7-310.9,1538.6-301.5,1543.2z"/>
		<circle class="st12" cx="-317.2" cy="1364.5" r="21.8"/>
		<path class="st13" d="M-365.8,1544.3c0.9,0.9,2,1.6,3.2,2.1l6.6,3c1,0.6,2.2,1,3.3,1.2c1.5,0.1,3,0,4.4-0.3
			c15.3-2.8,31-2.5,46.2,0.9c4.9-7.3,5.3-16.8,4-25.5c-0.7-4.6-1.9-9.4-0.6-13.9c0.5-1.9,1.5-3.7,2.1-5.6c1.5-5.3-0.3-10.9,0.5-16.3
			c1-6.6,5.8-12,8.5-18.1c1.5-3.8,2.6-7.8,3.2-11.8c1-4.9,2-9.8,3-14.7c1.1-5.4,2.2-10.9,2-16.4c-0.2-8.4-3.3-16.4-6.3-24.3
			c-1.3-3.3-2.8-6.9-5.8-8.6c-3.8-2.1-8.5-0.9-12.5,0.8c-5.2,2.1-10.4,4.6-15.9,5.7c-2.4,0.5-5.7-0.4-7.9,0.3
			c-1.9,0.5-3.1,3.1-4.2,4.6c-6.2,8.5-10.6,18.1-13.1,28.2c-2.5,10.3-3.1,21.2-7.8,30.7c-1.1,2.1-2.3,4.1-3.6,6.1
			c-2.7,4.2-5.6,8.2-7.5,12.8c-2.8,7.1-2.8,14.9-2.6,22.6c0,1.3,0.1,2.5,0.1,3.8c0.2,8.7,0,17.4-0.6,26.1
			C-367.2,1539.9-367.2,1542.5-365.8,1544.3z"/>
		<path class="st12" d="M-424.6,1490.4c-10.9,0.4-22.2,0.7-32.4-3.3c-1.3-0.4-2.4-1.1-3.2-2.2c-1-1.6-0.3-3.9,1.1-5.2
			c1.5-1.2,3.4-1.9,5.3-2.1c5.3-0.7,10.7,0.4,16,1.4s10.3,2.1,15,4.4c1.1,0.5,2.1,1.2,2.8,2.2
			C-417.9,1489.1-422.1,1490.3-424.6,1490.4z"/>
		<path class="st3" d="M-366.5,1507.7c2.4,0,4.8-0.1,7.2-0.3c2.8-0.1,5.6-0.5,8.4-1.3c4.1-1.3,7.6-4,11-6.7
			c10.5-8.5,20.2-17.9,29.1-28.1c2.9-3.4,5.8-6.9,7.4-11.1c1.9-5.1,1.7-10.8,1.3-16.2c-0.3-3.6-0.6-7.2-2.3-10.4
			c-1.4-2.8-4-4.8-7-5.4l3.8,0.1c-3.6-2.2-8.2-1.9-12.5-1.6c-2.9,0.3-5.9,0.5-8.5,2c-3.2,1.7-5.3,5-7,8.2
			c-5.7,10.4-9.4,22.1-16.8,31.3c-1,1.3-2.1,2.4-3.4,3.4c-0.2,0.1-0.4,0.3-0.6,0.4c-2.7,4.2-5.6,8.2-7.5,12.8
			C-366.7,1492.2-366.7,1500-366.5,1507.7z"/>
		<path class="st13" d="M-313,1424.2c3.6-0.3,6.9,2.3,8.6,5.5c1.7,3.2,2,6.8,2.3,10.4c0.4,5.5,0.6,11.1-1.3,16.2
			c-1.6,4.2-4.5,7.7-7.4,11.1c-8.9,10.2-18.6,19.6-29.1,28.1c-3.3,2.7-6.8,5.4-11,6.7c-2.7,0.8-5.5,1.2-8.4,1.3
			c-10.7,0.6-21.7,0.3-31.8-3.3c-8-2.9-15.4-7.8-23.8-8.3c-2.1-0.1-4.3,0-6.1-1c-3.4-1.8-4-6.4-3.7-10.2c-0.3-1.5,0.7-2.9,2.2-3.2
			c0.2,0,0.4-0.1,0.6,0c16.9-2.1,34.5,2.2,50.7-2.8c3.7-1.2,7.3-2.7,10.8-4.3c1.6-0.7,3.1-1.5,4.5-2.5c1.3-1,2.4-2.2,3.4-3.4
			c7.4-9.3,11.1-20.9,16.8-31.3c1.8-3.2,3.8-6.4,7-8.2c2.6-1.4,5.6-1.7,8.5-2c4.2-0.4,8.8-0.7,12.5,1.6"/>
		<path class="st8" d="M-301,1369c-1,1.2-1.6,2.7-2.7,3.9s-3,1.8-4.3,0.9c-2-1.4-0.9-4.7-2.4-6.5c-0.8-1-2.3-1.3-3.3-2.2
			c-2.5-2-1.8-6.2-4-8.5c-2.2-2.3-5.7-1.8-8.5-0.8s-5.8,2.5-8.7,1.9c-4.2-0.9-6.4-5.4-7.6-9.5c-1.2-4.1-2-8.6,0-12.3
			c1.7-3.1,5-5,8.3-6s6.9-1.2,10.4-1.8c4.6-0.8,9-2.4,13.7-2.9s9.7,0.4,13,3.7c4.8,4.9,4,12.9,6.4,19.3c1.4,3.6,3.8,6.8,5.3,10.4
			c2.6,6.4,1.3,14.8-4.4,18.6c-0.9,0.7-2,1.1-3.1,1c-2.4-0.3-3.2-3.3-3.1-5.7C-295.7,1368.2-296.8,1363.7-301,1369z"/>
	</g>
</g>
</svg>
