<?xml version="1.0" encoding="utf-8"?>
<!-- Generator: Adobe Illustrator 19.0.0, SVG Export Plug-In . SVG Version: 6.00 Build 0)  -->
<svg version="1.1" xmlns="http://www.w3.org/2000/svg" xmlns:xlink="http://www.w3.org/1999/xlink" x="0px" y="0px"
	 viewBox="0 0 1000 1000" style="enable-background:new 0 0 1000 1000;" xml:space="preserve">
<style type="text/css">
	.st0{fill:#FF6584;}
	.st1{fill:#F2F2F2;}
	.st2{fill:#3F3D56;}
	.st3{fill:#2F2E41;}
	.st4{opacity:0.1;enable-background:new    ;}
	.st5{fill:#6C63FF;}
	.st6{fill:#575A89;}
	.st7{fill:#A0616A;}
</style>
<g id="_x23_wild_x28_have_x5B_tree_x2C_sign_x2C_sun_x5D__x29_">
	<g>
		<g>
			<g>
				<circle class="st0" cx="538.5" cy="201.4" r="64"/>
				<path class="st1" d="M345.8,509.4c0,123.6-73.5,166.8-164.1,166.8S17.5,633,17.5,509.4s164.1-280.9,164.1-280.9
					S345.8,385.8,345.8,509.4z"/>
				<polygon class="st2" points="175.7,657.2 177.3,553.8 247.3,425.8 177.6,537.6 178.4,491 226.6,398.4 178.6,478.7 178.6,478.7 
					179.9,395.1 231.5,321.4 180.1,381.9 181,228.5 175.6,431.6 176.1,423.2 123.6,342.9 175.2,439.3 170.3,532.7 170.2,530.2 
					109.7,445.7 170,539 169.4,550.7 169.3,550.9 169.3,551.8 156.9,788.9 173.5,788.9 175.5,666.4 235.7,573.4 				"/>
				<path class="st1" d="M832.1,444.5c0,151-89.8,203.7-200.5,203.7s-200.5-52.7-200.5-203.7s200.5-343.1,200.5-343.1
					S832.1,293.5,832.1,444.5z"/>
				<polygon class="st2" points="624.3,625.2 626.4,498.8 711.8,342.4 626.7,479 627.6,422.1 686.5,309 627.9,407.1 627.9,407.1 
					629.5,304.9 692.6,214.8 629.8,288.8 630.8,101.4 624.3,349.5 624.8,339.3 560.7,241.1 623.8,358.9 617.8,473.1 617.7,470 
					543.7,366.7 617.4,480.7 616.7,495 616.6,495.2 616.6,496.4 601.5,786 621.7,786 624.1,636.4 697.7,522.7 				"/>
				<ellipse class="st2" cx="417.5" cy="786.4" rx="308" ry="11"/>
				<rect x="399.5" y="448.4" class="st3" width="36" height="338"/>
				<polygon class="st2" points="582.5,525.4 361.5,525.4 361.5,463.4 582.5,463.4 646.5,494.4 				"/>
				<polygon class="st4" points="582.5,520.4 361.5,520.4 361.5,525.4 582.5,525.4 646.5,494.4 641.3,491.9 				"/>
				<polygon class="st2" points="253.5,607.4 474.5,607.4 474.5,545.4 253.5,545.4 189.5,576.4 				"/>
				<polygon class="st4" points="194.6,573.9 189.5,576.4 253.5,607.4 474.5,607.4 474.5,602.4 253.5,602.4 				"/>
				<rect x="485.5" y="475.4" class="st5" width="38" height="38"/>
				<circle class="st5" cx="332.5" cy="576.4" r="19"/>
				<circle class="st3" cx="417.5" cy="492.4" r="11"/>
				<circle class="st3" cx="417.5" cy="574.4" r="11"/>
				<path class="st5" d="M343.5,748.7c0,22.5-13.4,30.3-29.8,30.3c-0.4,0-0.8,0-1.1,0c-0.8,0-1.5-0.1-2.3-0.1
					c-14.9-1.1-26.4-9.3-26.4-30.2c0-21.6,27.6-48.9,29.7-50.9l0,0c0.1-0.1,0.1-0.1,0.1-0.1S343.5,726.2,343.5,748.7z"/>
				<path class="st2" d="M312.5,775.6l10.9-15.2l-10.9,16.8v1.8c-0.8,0-1.5-0.1-2.3-0.1l1.2-22.5v-0.2l0,0l0.1-2.1l-11-17l11,15.4
					v0.5l0.9-17l-9.4-17.5l9.5,14.5l0.9-35.2v-0.1v0.1l-0.2,27.8l9.3-11l-9.4,13.4l-0.2,15.2l8.7-14.6l-8.8,16.8l-0.1,8.5l12.7-20.3
					l-12.7,23.3L312.5,775.6z"/>
			</g>
		</g>
	</g>
</g>
<g id="_x23_man_x28_stand_x29_">
	<g>
		<g>
			<g>
				<ellipse class="st2" cx="850.5" cy="861.9" rx="142" ry="13.5"/>
				<path class="st6" d="M804.5,837.3c0,0-14.2,11.9-21.6,11.2s-21.6-0.7-15.6,7.5s30.6,12.7,41,13.4s33.5,1.5,32-3
					s-3-25.3-8.9-26.8C825.4,838,804.5,837.3,804.5,837.3z"/>
				<path class="st6" d="M885.8,825.6c0,0-10.4,15.3-17.8,16.6c-7.4,1.3-21,5.1-13.1,11.4c7.9,6.3,32.8,4,43.1,1.9
					s32.7-7.6,30.1-11.5s-9.7-23.6-15.8-23.4S885.8,825.6,885.8,825.6z"/>
				<path class="st3" d="M796.2,606.9c0,0-9.6,65.7-7.4,77.6c2.2,11.9,3.7,30.6,3.7,30.6s-1.5,15.6,0,23.1s10.4,78.2,10.4,79.7
					s-1.5,6,0,9.7s4.5,0.7,0,6.7s-1.5,7.5-0.7,7.5c0.7,0,29.8,3,31.3,0s-0.7-3.7,0-7.5s1.5-4.5,3-5.2s4.5,0.7,2.2-3s-7.5-8.2-6-10.4
					s-0.7-18.6-0.7-18.6s-1.5-36.5-2.2-58.9s6.7-45.5,6.7-45.5c0.9,18.3,7.7,35.8,19.4,49.9c19.4,23.1,29.1,66.3,29.1,66.3
					s4.5,6.7,2.2,12.7s-8.9,2.2-2.2,6s29.8-1.5,32-3.7s-3-5.2-1.5-11.2s7.5-4.5,2.2-7.5c-5.2-3-6.7-2.2-6.7-5.2
					s-13.4-67.8-34.3-86.4l-1.5-67.8c0,0,18.6-47.7-0.7-52.2C855.2,589.1,796.2,606.9,796.2,606.9z"/>
				<path class="st7" d="M809.7,430.4c0,0,12.7,31.3,9.7,35.8s36.5-14.9,36.5-14.9s-12.7-31.3-12.7-35
					C843.3,412.5,809.7,430.4,809.7,430.4z"/>
				<circle class="st7" cx="819" cy="410.6" r="27.6"/>
				<path class="st5" d="M855.9,438.6c0,0-19.4-2.2-29.1,9.7c-9.7,11.9-11.2,14.9-11.2,14.9s-23.1,37.3-18.6,55.9
					c1.1,1.7,2.1,3.4,3,5.2c1.5,3,1.5,44.7,0,51.4s-3,8.9-1.5,18.6s-11.9,25.3,3.7,28.3c15.6,3,27.6,0.7,32.8-6s0.7-11.2,17.1-11.2
					s26.8-11.2,26.8-11.2s-8.2-8.9-5.2-10.4s0-5.2-1.5-8.9s-1.5-6.7,0.7-6.7s0.7-1.5-0.7-5.2s26.1-67.8,9.7-86.4
					c-16.4-18.6-24.6-29.1-24.6-29.1S860.4,436.3,855.9,438.6z"/>
				<path class="st7" d="M813.4,509.4v32.8l-23.8,79c0,0-15.6,41,0,41s14.8-39.1,14.8-39.1l33.6-59.2c0,0,13.4-46.9,11.9-50.7
					C848.5,509.4,813.4,509.4,813.4,509.4z"/>
				<path class="st5" d="M826.1,460.9c0,0-22.4,8.9-16.4,32.8c6,23.8,0,23.1,0,23.1s30.6-3,40.2,3.7l2.2-8.9
					C852.2,511.6,861.1,460.2,826.1,460.9z"/>
				<path class="st3" d="M809.6,389.9c-3.5,1.2-7.4,0.6-10.3-1.6c-2.8-2.3-4-6.6-2.3-9.8c1.4-2.8,4.5-4.3,7.4-5.5
					c6.5-2.5,13.3-4.1,20.2-4.6c3.3-0.2,6.8-0.2,9.7,1.3c1.5,0.7,2.7,1.8,4.2,2.6c2.7,1.4,5.7,1.7,8.6,2.6
					c5.9,1.9,10.7,6.3,13.2,12.1c0.8,1.9,1.3,3.9,1.6,6c0.9,5.6,0.3,11.4-1.7,16.7c-3.2,8.5-9.8,15.9-10.2,24.9
					c-4.1-3-5.6-8.3-8.9-12.1c-2.4-2.8-5.8-4.8-9.4-5.5c-1-0.1-2-0.4-2.8-1c-0.6-0.7-0.9-1.5-1-2.4l-2.8-13.2
					c-0.6-2.7-1.3-5.6-3.5-7.2c-1.4-0.9-2.9-1.4-4.5-1.6c-3.8-0.7-7.7-1-11.7-1.1"/>
			</g>
		</g>
	</g>
</g>
</svg>
