<?xml version="1.0" encoding="utf-8"?>
<!-- Generator: Adobe Illustrator 19.0.0, SVG Export Plug-In . SVG Version: 6.00 Build 0)  -->
<svg version="1.1" xmlns="http://www.w3.org/2000/svg" xmlns:xlink="http://www.w3.org/1999/xlink" x="0px" y="0px"
	 viewBox="0 0 1000 1000" style="enable-background:new 0 0 1000 1000;" xml:space="preserve">
<style type="text/css">
	.st0{opacity:0.1;fill:#6C63FF;enable-background:new    ;}
	.st1{opacity:0.6;}
	.st2{fill:#6C63FF;}
	.st3{opacity:0.25;enable-background:new    ;}
	.st4{fill:none;stroke:#535461;stroke-width:2;stroke-miterlimit:10;}
	.st5{fill:#FFFFFF;stroke:#33313F;stroke-width:3;stroke-miterlimit:10;}
	.st6{fill:#FFFFFF;stroke:#33313F;stroke-width:2;stroke-miterlimit:10;}
	.st7{fill:none;stroke:#33313F;stroke-width:3;stroke-miterlimit:10;}
	.st8{fill:url(#SVGID_1_);}
	.st9{fill:#33313F;}
	.st10{fill:#65617D;}
	.st11{fill:#FBBEBE;}
	.st12{fill:#3F3D56;}
	.st13{opacity:0.1;enable-background:new    ;}
	.st14{opacity:0.1;}
	.st15{fill:#FFD037;}
</style>
<g id="_x23_background">
	<g>
		<g>
			<path class="st0" d="M573.4,299.7c-60.1-2-117.4-21.5-172-42.7s-108.9-44.8-167.5-56c-37.7-7.2-80.9-8.3-111.3,12
				c-29.3,19.5-38.7,53-43.8,84.2c-3.8,23.5-6,48.1,4.5,70.1c7.2,15.2,20.2,28.1,29.2,42.7c31.1,50.8,9.1,113.5-24.6,163.1
				c-15.8,23.3-34.1,45.5-46.3,70.3c-12.3,24.8-17.8,53.1-7.2,78.5C44.9,747,70.1,765.7,97.4,779c55.5,26.9,120.7,34.6,184.5,38.9
				c141,9.7,282.8,5.5,424.2,1.3c52.3-1.6,104.9-3.2,156.3-11.2c28.6-4.5,58.1-11.6,78.9-28.8c26.4-21.8,32.9-58.9,15.2-86.3
				c-29.6-46-111.5-57.4-132.2-106.7c-11.4-27.1,0.3-57.4,16.9-82.6c35.5-54.1,95-101.4,98.2-163.2c2.1-42.4-26.5-84.9-70.7-105
				c-46.3-21-110.7-18.4-144.9,16.4C688.4,287.7,626.4,301.5,573.4,299.7z"/>
			<circle class="st0" cx="364.7" cy="196.2" r="20.1"/>
			<circle class="st0" cx="670.4" cy="224" r="20.1"/>
			<circle class="st0" cx="885.1" cy="521.6" r="20.1"/>
			<circle class="st0" cx="957" cy="432" r="33.6"/>
			<circle class="st0" cx="912.4" cy="595.4" r="33.6"/>
			<circle class="st0" cx="47.9" cy="490.2" r="33.6"/>
		</g>
	</g>
</g>
<g>
	<g id="_x23_accessory_x28_have_x5B_plant_x5D__x29_" class="st1">
		<path class="st2" d="M168,363.1c5.8-2,18.9-18.2,18.9-18.2s-20.3-4.6-26.1-2.7c-5.8,2-8.8,8.3-6.9,14
			C155.9,362.1,162.2,365.1,168,363.1L168,363.1L168,363.1z"/>
		<path class="st2" d="M206.5,385.9c6-1,21.7-14.8,21.7-14.8s-19.2-8-25.3-7.1c-6,1-10.1,6.7-9.1,12.7S200.6,387,206.5,385.9
			L206.5,385.9L206.5,385.9z"/>
		<path class="st2" d="M253.1,361.2c-0.8,6-14.1,22.1-14.1,22.1s-8.6-19-7.8-25.1c0.8-6,6.4-10.3,12.4-9.5S253.9,355.1,253.1,361.2z
			"/>
		<path class="st3" d="M168,363.1c5.8-2,18.9-18.2,18.9-18.2s-20.3-4.6-26.1-2.7c-5.8,2-8.8,8.3-6.9,14
			C155.9,362.1,162.2,365.1,168,363.1L168,363.1L168,363.1z"/>
		<path class="st3" d="M206.5,385.9c6-1,21.7-14.8,21.7-14.8s-19.2-8-25.3-7.1c-6,1-10.1,6.7-9.1,12.7S200.6,387,206.5,385.9
			L206.5,385.9L206.5,385.9z"/>
		<path class="st3" d="M253.1,361.2c-0.8,6-14.1,22.1-14.1,22.1s-8.6-19-7.8-25.1c0.8-6,6.4-10.3,12.4-9.5S253.9,355.1,253.1,361.2z
			"/>
		<path class="st2" d="M216.6,367.4c5.9,1.5,25.8-4.7,25.8-4.7s-14.4-15.1-20.2-16.7c-5.9-1.9-12.1,1.4-13.8,7.2
			c-1.9,5.9,1.4,12.1,7.2,13.8C215.9,367.1,216.3,367.2,216.6,367.4L216.6,367.4z"/>
		<g>
			<path class="st4" d="M254.2,404.3c0,0-25.5-45.2-64-58.2c-16.2-5.4-30.1-15.8-39.8-29.8c-4.6-6.7-8.5-13.7-11.8-21.2"/>
			<path class="st2" d="M114.5,286.7c4.4,4.3,24.8,8.6,24.8,8.6s-5-20.2-9.4-24.5c-4.3-4.4-11.3-4.4-15.6,0
				c-4.4,4.3-4.4,11.3,0,15.6C114.3,286.6,114.4,286.7,114.5,286.7L114.5,286.7z"/>
			<path class="st2" d="M126,323.4c5.9,1.2,25.5-6.2,25.5-6.2s-15.2-14.3-21.2-15.5c-5.9-1.2-11.8,2.7-13,8.7
				C116,316.5,119.9,322.2,126,323.4L126,323.4z"/>
			<path class="st2" d="M168.5,301.4c0,6.1-11.1,23.8-11.1,23.8s-11.1-17.6-11.1-23.8s4.9-11.1,11.1-11.1S168.5,295.3,168.5,301.4
				L168.5,301.4z"/>
			<path class="st2" d="M213.2,328.7c-1.9,5.9-17.6,19.4-17.6,19.4s-5.3-20.2-3.4-26c1.9-5.9,8-9.1,13.8-7.2
				C211.8,316.7,215,322.9,213.2,328.7L213.2,328.7L213.2,328.7z"/>
			<path class="st3" d="M114.5,286.7c4.4,4.3,24.8,8.6,24.8,8.6s-5-20.2-9.4-24.5c-4.3-4.4-11.3-4.4-15.6,0
				c-4.4,4.3-4.4,11.3,0,15.6C114.3,286.6,114.4,286.7,114.5,286.7L114.5,286.7z"/>
			<path class="st3" d="M126,323.4c5.9,1.2,25.5-6.2,25.5-6.2s-15.2-14.3-21.2-15.5c-5.9-1.2-11.8,2.7-13,8.7
				C116,316.5,119.9,322.2,126,323.4L126,323.4z"/>
			<path class="st3" d="M168.5,301.4c0,6.1-11.1,23.8-11.1,23.8s-11.1-17.6-11.1-23.8s4.9-11.1,11.1-11.1S168.5,295.3,168.5,301.4
				L168.5,301.4z"/>
			<path class="st3" d="M213.2,328.7c-1.9,5.9-17.6,19.4-17.6,19.4s-5.3-20.2-3.4-26c1.9-5.9,8-9.1,13.8-7.2
				C211.8,316.7,215,322.9,213.2,328.7L213.2,328.7L213.2,328.7z"/>
			<path class="st4" d="M252.8,403.5c0,0-5-51.7-34.9-79.2c-12.6-11.4-21.2-26.7-24.3-43.4c-1.5-8-2.2-16-2.2-24.1"/>
			<path class="st2" d="M172.6,239.3c2.3,5.7,19.1,17.9,19.1,17.9s3.6-20.5,1.4-26.2c-2.3-5.7-8.7-8.4-14.4-6.1
				C173.1,227.2,170.3,233.6,172.6,239.3L172.6,239.3L172.6,239.3z"/>
			<path class="st2" d="M168.3,277.5c5,3.5,25.8,4.6,25.8,4.6s-8.1-19.2-13.1-22.8c-5-3.5-11.9-2.3-15.4,2.7
				C162.1,267.1,163.3,274,168.3,277.5L168.3,277.5z"/>
			<path class="st2" d="M190.6,330.8c6,0.5,24.6-9,24.6-9s-16.7-12.4-22.8-13c-6.1-0.6-11.4,4-12,10.1
				C180,324.9,184.5,330.3,190.6,330.8L190.6,330.8z"/>
			<path class="st2" d="M216.1,274.6c-2.5,5.6-19.8,17.3-19.8,17.3s-3-20.6-0.5-26.2c2.5-5.6,9-8.1,14.6-5.7
				C216.1,262.5,218.6,269,216.1,274.6L216.1,274.6z"/>
			<path class="st2" d="M246,317.7c-4,4.6-24.1,10.6-24.1,10.6s3.3-20.6,7.4-25.2c4-4.6,11.1-5,15.6-1
				C249.5,306.2,250,313.1,246,317.7L246,317.7L246,317.7z"/>
		</g>
		<path class="st2" d="M269.2,363.6c-3.2,5.2-21.8,14.5-21.8,14.5s-0.2-20.9,3.1-26.1c3.2-5.2,10-6.9,15.2-3.6
			C270.9,351.6,272.4,358.4,269.2,363.6z"/>
	</g>
	<g id="_x23_chart_x28_have_x5B_paper_x5D__x29_">
		<path class="st5" d="M151.1,330.2c0,0,136.5,5.6,155.1,0c0,0-10.2,228.5-6.5,235.9c0,0-151.4,8.4-162.5,0
			C126.1,557.8,151.1,330.2,151.1,330.2z"/>
		<path class="st5" d="M171.6,372.9c0,0,63.2,100.3,84.5,109.6"/>
		<path class="st5" d="M256.1,372.9c0,0-60.4,79-69.7,105.9"/>
		<path class="st5" d="M171.6,520.6"/>
		<path class="st5" d="M250.5,520.6h-73.4c-5.6,0-5.6,26-5.6,26h79V520.6z"/>
		<path class="st5" d="M407.5,330.2c0,0,131-6.5,155.1,0c0,0-10.2,228.5-6.5,235.9c0,0-167.4,13.1-162.5,0
			C403.8,538.3,407.5,330.2,407.5,330.2z"/>
		<path class="st5" d="M458.5,347.6c0,0,29.2,46.3,39,50.6"/>
		<path class="st5" d="M497.5,347.6c0,0-27.9,36.4-32.1,48.9"/>
		<path class="st5" d="M530.8,427.7h-98.5c-7.4,0-7.4,26-7.4,26h105.9V427.7z"/>
		<path class="st5" d="M517.3,510.4h-73.4c-5.6,0-5.6,26-5.6,26h79V510.4z"/>
		<path class="st5" d="M530.8,465.8c7.4,0-89.7,8.4-98.5,0c-4.6-4.4-7.4,26-7.4,26h105.9V465.8z"/>
		<polyline class="st5" points="468.3,522.9 473.9,528.5 484.1,514.6 		"/>
		<path class="st5" d="M657.4,332.1c0,0,130,15.8,155.1,0c0,0-10.2,228.5-6.5,235.9c0,0-172.6,9.7-162.5,0
			C668.5,543.8,657.4,332.1,657.4,332.1z"/>
		<path class="st5" d="M675.4,372.5c0,0,18.8,29.7,25.1,32.5"/>
		<path class="st5" d="M700.5,372.5c0,0-17.9,23.5-20.6,31.4"/>
		<path class="st5" d="M782.5,433.8H684c-7.4,0-7.4,13.7-7.4,13.7h105.9V433.8z"/>
		<path class="st5" d="M728.8,474.6h51.3c7.4,0,7.4,13.7,7.4,13.7h0.2"/>
		<path class="st5" d="M782.5,453.8c7.4,0-89.7,4.5-98.5,0c-4.6-2.3-7.4,13.7-7.4,13.7h105.9V453.8z"/>
		<path class="st5" d="M658.1,349.4c0,0,144.2,10.7,153.4,3.6"/>
		<path class="st6" d="M793.3,342.8c2-0.5,4,0.2,6,0.5s4.3,0.3,5.8-1.1"/>
		<path class="st6" d="M792.4,346.6c4.2,0.7,8.4,0.9,12.6,0.7"/>
		<path class="st6" d="M792.4,351.8c3.5-0.7,7.2-1,10.8-1.2"/>
		<path class="st6" d="M666.2,344.8c1.8,0.8,3.6,1.2,5.6,1.1c1.2,0.2,2.4-0.1,3.4-0.7c1.2-1,1.3-2.8,1.3-4.4c0-0.5,0-0.9-0.2-1.4
			c-0.3-0.5-0.6-0.7-1-1c-2.3-1.6-6.6-2.2-9.3-1.1C662.5,338.7,663,343.1,666.2,344.8z"/>
		<path class="st5" d="M707.3,366.6c-0.6,6.9,1.1,13.7,2.2,20.5c1.4,8.6,2,17.3,1.7,26c-14.7,0.9-29.4,1.1-44,0.7
			c1.4,0,1-31,1.1-33.9c0.2-3.6-0.7-9.9,3.6-11.3c4.5-1.5,10.8-0.6,15.4-0.7C694,367.5,700.6,367.1,707.3,366.6z"/>
		<path class="st7" d="M327.6,437c0,0,36.2-1.9,42.7,0"/>
		<path class="st7" d="M370.4,417.5c0,0,15.8,15.8,15.8,19.5s-20.4,16.7-20.4,16.7"/>
		<path class="st7" d="M578.4,437c0,0,36.2-1.9,42.7,0"/>
		<path class="st7" d="M621.1,417.5c0,0,15.8,15.8,15.8,19.5s-20.4,16.7-20.4,16.7"/>
	</g>
</g>
<g id="_x23_woman_x28_hold_x5B_pen_x5D__x2C_point_x5F_to_x29_">
	
		<linearGradient id="SVGID_1_" gradientUnits="userSpaceOnUse" x1="753.9894" y1="632.6405" x2="896.1016" y2="632.6405" gradientTransform="matrix(1 0 0 1 -74.4 3.34)">
		<stop  offset="0" style="stop-color:#808080;stop-opacity:0.25"/>
		<stop  offset="0.54" style="stop-color:#808080;stop-opacity:0.12"/>
		<stop  offset="1" style="stop-color:#808080;stop-opacity:0.1"/>
	</linearGradient>
	<path class="st8" d="M820.6,535.4c0-1.1-0.2-2.2-0.5-3.3c-0.8-3.2-2.7-7-5.9-7.9c-3.2-1-6.3-2.3-9.2-3.9
		c-0.6-9.9,1.8-20.2-0.7-29.8c-0.9-3.5-2.4-6.9-2.9-10.5c-0.5-4.5,0.7-9.3-1.1-13.5c-1.4-3.3-4.6-5.6-7.9-6.8
		c-3.3-1.2-7-1.5-10.5-1.9c-4.5-0.4-18.9-2-24,2l0,0c-0.4,0.3-0.7,0.6-0.9,0.9l0,0c-0.1,0.2-0.2,0.3-0.3,0.5v0.1
		c-0.1,0.2-0.2,0.4-0.3,0.6l0,0c-0.1,0.2-0.1,0.5-0.2,0.7c0,0.1,0,0.2,0,0.2c0,0.2,0,0.4,0,0.5v0.3c0,0.2,0,0.4,0,0.5s0,0.1,0,0.2
		c0.1,0.8,0.2,1.7,0.2,2.5c0,0.4,0,0.8-0.1,1.2c-0.3,1.1-0.8,2.1-1.6,3l0,0l-0.2,0.3l-0.3,0.5l-0.3,0.4l-0.2,0.4
		c-0.1,0.2-0.2,0.3-0.3,0.5l-0.2,0.3c-0.1,0.3-0.2,0.6-0.3,0.8c-0.2,0.8-0.2,1.7,0,2.4c0.3,1,0.7,2,1.3,3c0.2,0.4,0.5,0.7,0.7,1.1
		c0.3,0.4,0.5,0.6,0.7,0.8c-0.1,0.8-0.2,1.8-0.2,2.6c0,5.9,2.7,11.4,7.3,15c0.4,3.9,0.3,7.9-0.1,11.8c-0.1,0.8-0.2,1.7-0.3,2.4
		c-0.1,0.7-0.2,1.4-0.3,2c-1.4,0.2-2.8,0.1-4.1-0.3c-0.7-0.3-1.2-0.5-1.9-0.7c-2.7-0.7-5.5,2-8.2,1.2c0,0.1-0.1,0.3-0.1,0.4
		c-0.6-0.4-1.2-0.6-1.9-0.6c-1.6-0.1-2.9-1.2-4-2.3l-3.5-3.3c-0.3-0.2-0.5-0.5-0.7-0.7c-0.2-0.4-0.4-0.7-0.5-1.1
		c-0.7-1.9-2-3.5-3.4-4.9c-0.3-0.4-0.7-0.6-1-0.7c-0.2,0-0.3,0-0.5,0c-0.1-0.1-0.2-0.3-0.3-0.4c-0.3-0.3-0.5-0.6-0.7-0.7
		c-1.7-1.6-1.9-2.9-3.3-4.6c-1.3-1.7-2.4-3.4-3.4-5.2c-0.1-0.9-0.3-2-0.5-3c-0.5-2.3-1.1-4.6-2-6.8l1.3-1.4v-1.4l2.2-2.7l-0.2-0.1
		l2.8-2.6l-2.8-0.1l-1.3,1.8l-0.1-0.1L722,477l-1.7,0.2l-0.2,0.2c-1.4-2-2.8-3.1-4.1-2.9c-2.1,0.5-3.3,4.6-2.9,10.1l-6.4,6.7
		L706,492l-3.3,4.3l2.6,2.5l4-3.7l0.7-0.7l4-4.3c0,0.1,0.1,0.3,0.1,0.5c-0.1,0.7-0.2,1.3-0.2,2c0,0.8,0.7,1.4,1.1,2
		c0.7,0.9,0.9,2,0.9,3.2c0,0.4-0.2,0.7-0.2,1.2c0,0.8,0.4,1.7,0.8,2.4c1.6,2.6,3.1,5.2,4.6,7.8c0.3,0.6,0.7,1.1,0.9,1.7v0.1
		c0.3,0.6,0.7,1,1.2,1.4c0.2,2,0.7,3.9,1.6,5.7c0.2,0.4,0.4,0.7,0.6,1c1.2,2,2.7,4,4.4,5.7l2.2,2.5c2.1,2.4,4.4,4.8,6.7,7.2
		c0.8,0.9,1.9,1.6,3,2.1c1.1,0.5,2.4,0.3,3.3-0.5c0,1.1,0,2.3,0,3.4c0.7,0.1,1.2,0.5,1.7,1c0.3,0.7,0.2,1.4-0.2,2
		c-2,5-3.9,10-6.9,14.6c2,1.2,4,2.7,5.8,4.4c1.1,1.2,2.1,2.6,3,4.1c0.1,0.7,0.2,1.4,0.2,2c0.7,11.1-3.6,22.1-7.4,32.6
		c-1.1,3-2.3,6.1-2.2,9.2c-0.7,0.5-1.4,0.9-2,1.5c0.7,2,0.5,3.7,0.4,5.9c0,1.3-0.3,2.5-0.7,3.7c-0.4,0.8-0.9,1.6-1.3,2.4
		c-2.4,4.3-3,9.3-3.4,14.1c-0.3,3,0.8,6.5-0.5,9.1c-2.3,4.5-4.4,9.3-4.6,14.3c0,1.1-0.2,2.2-0.5,3.3c-0.3,0.9-0.8,1.7-1.1,2.6
		c-0.3,1.2-0.4,2.5-0.2,3.7c0.2,4.5-0.5,8.9-2,13.1c-1.1,3.3-2.4,6.9-1.5,10.3c-2.2,2.3-3.6,5.4-3.9,8.6c0,0.8-0.1,1.7-0.3,2.5
		c-0.3,0.8-0.7,1.7-1.1,2.4c-1.9,3.4-2.8,7.2-2.5,11.1c-2.8,3.8-4.2,8.5-5,13.1c-0.8,4.6-1.2,9.4-2.2,13.9c-1.4,6-4,12.2-4.5,18.4
		c-3,2-4.3,5.7-4.9,9.2c-0.7,3.5-0.7,7.2-2.1,10.5c-0.7,1.7-1.9,3.3-2.6,4.9c-0.6,1.4-0.9,2.8-1.1,4.3c-0.5,2.3-0.8,4.8-0.3,7
		c-0.7,0.8-1.7,1.6-2.7,2c0.2-0.6,0.3-1.1,0.4-1.8c-2.4,2.1-6.7,1.4-8.6,4c-1.2,1.8-0.7,4.1,0.9,5.4c0.6,0.4,1.2,0.7,2,0.8
		c4.6,1.5,9.4,3,14.2,2.2c0.6-0.1,1.1-0.3,1.6-0.6c0.7-0.5,1.1-1,1.5-1.8l2.1-3.4c1.7,0.6,3.4,0.9,5.2,1.2c0.2,1.5,0.3,3,0.4,4.5
		c0.9,0.2,2.1,0.2,2.6-0.7c0.1-0.4,0.2-0.7,0.2-1c0-0.7,0.1-1.6,0.2-2.4h0.2c2.9,0.1,5.7-0.5,8.2-1.7c-1-8.2,2.3-16.3,5.1-24.1
		c3-8.2,5.6-16.5,8.2-24.9c1.9-5.9,3.9-11.5,5.8-17.5c2.3-7.4,4.6-14.9,6.9-22.3c1-3.3,2-6.5,3.2-9.8c2.4-6.6,5.3-13,8.6-19.1
		c0.9-1.8,1.9-3.5,2.6-5.3c0.9-2.2,1.6-4.6,2.3-6.8c1.6-4.7,3.6-9.3,5.9-13.7l0.2-0.4c0.7,3.1,1.5,6.2,2,9.3
		c0.7,3.8,0.7,7.7,0.2,11.5c-0.5,2.6-1.3,5.1-1.2,7.8c0.2,3.6,2,7,3.1,10.4c0.7,2.6,0.9,5.3,1,8c0.3,4.2,2.5,8.8,0.9,12.7
		c-4.9,12.3-2.6,26.1-5.4,39c-1.5,6.6-5.9,12.8-5.6,19.6c0.3,4.8,0.7,9.6,1.3,14.4c0.1,1.5,0.5,2.9,1,4.3c0.4,0.7,0.8,1.4,1.3,2
		c-0.4,0.2-0.7,0.6-1,1.5c-0.8,2.4,0,5,2,6.5c0.8,0.5,1.8,0.7,2.7,0.9c1.3,0.4,2.6,0.6,3.9,0.6c0.4,0,0.8-0.1,1.2-0.2
		c1.4,0.7,2.9,1.1,4.4,1.6c0,0.4,0,0.7,0.1,1.1c0,0.4,0.2,0.8,0.5,1c0.2,0.1,0.5,0.2,0.7,0.2h5c0-0.5,0-0.8,0-1.3
		c1.2,0.1,2.3-0.3,3.3-1c0.5-0.6,0.7-1.2,0.9-2c1.4-4.6,2.8-9.3,4.1-14c0.7-2,1.1-4,1.4-6c0.6-3.3,0.7-6.6,0.6-9.9
		c-1.8-17.1,2.1-34.3,0.8-51.5c-0.7-10.3-0.3-20.7,1.6-30.8c0.5-2.3,0.9-4.6,1.1-7c0.4-4.4-0.1-8.7,0.2-13c0.1-1.5,0.3-3,0.5-4.5
		c1.3-9.3,2-18.7,2.1-28.1c0-3.1-0.2-6.2-0.6-9.3c0.9-0.3,1.9-0.7,2.5-1.5c0.8-1.1,0.7-2.6,0.7-4c0-3.3,1.4-6.4,2.5-9.5
		c1.4-4.3,2.6-8.6,3.5-13c0.9-3.5,1.5-7.2,1.6-11c0-0.4,0-0.7-0.1-1.1c0.4-0.3,0.7-0.6,0.8-0.9c0.3-0.6,0.4-1.1,0.5-1.7
		c0.4-2.4,0.7-4.7,1-7.2c0.3-1.7,0.5-3.4,0.7-5.1c1-6.9,2-13.7,3-20.6c0.3-1.8,0.5-3.6,0.7-5.4l0.7-5.3c0.1-0.7,0.2-1.3,0.3-1.9
		C823,544.8,820.7,539.7,820.6,535.4z M795.9,612.5c-1.1-2.6-2.1-5.3-1.9-8.1H794c0.3-0.8,0.2-1.8-0.1-2.6c-0.3-0.7-0.7-1.3-1.1-2
		c-0.4-0.8-0.5-1.7-0.5-2.6c-0.2-5.7,0.2-11.3,1.3-16.8c0.1-0.7,0.3-1.3,0.4-2c0.4-0.2,0.7-0.5,1-0.8c0.5-0.6,0.9-1.2,1.2-1.9
		c1-2.1,2-4.3,2.9-6.4c0.3-0.7,0.7-1.5,1.4-1.7c-0.2,5.4,0.4,11-1.9,15.9c-0.5,0.8-0.7,1.7-0.9,2.5c-0.2,1.4,0.4,2.8,0.2,4.2
		c-0.1,0.7-0.4,1.4-0.6,2c-0.2,0.7,0,1.5,0.6,2c0.1,0.1,0.3,0.2,0.4,0.2c-0.1,0.4-0.1,0.7-0.1,1.1c-0.1,0.7-0.1,1.5-0.2,2
		c-0.2,2.2-0.3,4.6-0.3,6.8c0,2.5,0.1,4.9,0.1,7.4c0,0.7-0.1,1.5-0.4,2.1c-0.2,0.4-0.5,0.7-0.7,0.9
		C796.5,614,796.2,613.2,795.9,612.5z"/>
	<polygon class="st9" points="725.7,477.2 728.9,474.3 726.1,474.2 724.6,476.4 	"/>
	<polygon class="st10" points="703.2,497.6 706.6,493.3 707.3,492.6 717.5,482 720.9,478.4 722.5,478.2 724.8,475.9 726.2,477.1 
		724,479.7 724,481.1 720.4,484.9 710.5,495.6 709.8,496.4 705.8,500.1 	"/>
	<polygon class="st9" points="707.3,492.6 717.5,482 720.4,484.9 710.5,495.6 	"/>
	
		<ellipse transform="matrix(-0.2007 -0.9797 0.9797 -0.2007 383.6908 1293.5828)" class="st11" cx="719.6" cy="490.3" rx="14.9" ry="5.2"/>
	<path class="st12" d="M765.9,803.3c-0.8,2.3,0,5,2,6.4c0.8,0.5,1.8,0.7,2.7,0.9c1.3,0.4,2.6,0.6,3.9,0.6c1.6-0.1,3.2-0.7,4.7-0.9
		c0.2,0,0.4,0,0.6,0.1c0.2,0.2,0.3,0.4,0.2,0.7c0,0.9,0.1,1.9,0.2,2.8c-0.1,0.6,0.3,1.1,0.9,1.2c0.1,0,0.2,0,0.4,0h5
		c0.1-4.5-0.4-8.8-1.5-13.1c-0.1-0.4-0.2-0.7-0.4-0.9c-0.5-0.5-1-0.8-1.6-0.9c-1.2-0.6-2.6-0.7-3.9-0.7c-1.6,0.2-3,1.3-4.4,2.1
		c-1.4,0.8-3.3,1.7-4.9,1.2S766.7,800.8,765.9,803.3z"/>
	<path class="st11" d="M691.9,799.2c-1.4,1.5-3.2,2.7-5.1,3.4l-0.8,0.5c-0.1,0-0.2,0.1-0.3,0.2c0,0.2,0,0.3,0.1,0.5
		c1.5,2.2,4.3,3.3,6.8,2.5c0.6-0.1,1.1-0.4,1.5-0.7c0.7-0.8,1.1-1.9,1.1-3c0.3-1.1,0.2-2.3-0.2-3.4
		C693.9,796.1,693.4,797.4,691.9,799.2z"/>
	<path class="st12" d="M711.2,810.7c0,0.4,0,0.7-0.2,1c-0.5,0.8-1.7,0.8-2.6,0.7c-0.2-3.2-0.6-6.3-1.1-9.4c-1.8-0.1-3.1,1.7-4.1,3.2
		l-2.5,4c-0.4,0.7-0.8,1.3-1.5,1.7c-0.5,0.3-1,0.5-1.6,0.6c-4.7,0.7-9.6-0.7-14.1-2.2c-0.7-0.2-1.3-0.5-2-0.8
		c-1.7-1.2-2.1-3.6-0.9-5.4c2-2.6,6.2-1.9,8.6-4c-0.3,1.5-0.7,3-1.2,4.5c3.3-0.5,5.4-3.4,8-5.4c0.7-0.6,1.4-0.9,2.2-1.1
		c0.7-0.1,1.3,0,1.9,0.2c3,0.7,5.8,2.1,8.2,4c0.9,0.7,2.5,1.9,3,3.1C711.7,806.5,711.2,809.1,711.2,810.7z"/>
	<circle class="st11" cx="775.1" cy="485.1" r="19.2"/>
	<path class="st12" d="M812.9,598.3c-0.1,3.7-0.6,7.3-1.6,10.9c-0.9,4.4-2,8.7-3.5,13c-1.1,3.1-2.5,6.2-2.5,9.5c0,1.4,0.2,2.9-0.7,4
		c-0.7,0.7-1.7,1.3-2.7,1.6c-1,0.3-1.9,1-2.3,2c-0.8-1.3-1.5-2.7-2-4.3c-1.7-5.1-3.3-10.2-4.6-15.4c-0.3-0.6-0.2-1.3,0.1-1.9
		c0.3-0.2,0.6-0.4,0.8-0.5c0.9-0.4,1.9-0.9,2.6-1.7c0.4-0.3,0.7-0.7,0.8-1.1c0.3-0.7,0.4-1.4,0.4-2.1c0-2.4,0-4.9-0.1-7.3
		c0-2.2,0-4.6,0.3-6.8c0-0.5,0.1-1.1,0.2-2c0.2-1.5,0.5-3.2,1.2-3.7c1.2-0.8,4.7,0.3,6,0.5c2.3,0.3,4.6,0.7,6.9,1.1
		C812.8,595.5,812.9,596.9,812.9,598.3z"/>
	<path class="st12" d="M735.5,506.5c-0.7,1.5-2.5,2.2-3.9,3.2l-4.7,3.3c-0.7,0.6-1.5,0.8-2.3,0.8c-0.7-0.3-1.4-0.8-1.8-1.7l-0.1-0.1
		l-0.9-1.7l-4.6-7.8c-0.6-0.7-0.8-1.6-0.8-2.4c0-0.4,0.2-0.7,0.2-1.1c0-1.1-0.3-2.2-0.9-3.2c-0.4-0.7-1.1-1.3-1.1-2c0-1,0.1-2,0.6-3
		c0.5-0.8,1.2-1.7,2-2.1c0.5-0.3,0.9-0.7,1.4-0.9c0.3-0.2,0.6-0.3,0.8-0.4c0.7-0.2,1.5,0.5,2.3,0.5c3.3,2.2,4.6,6.5,7.2,9.6
		c1.5,1.8,1.7,3.1,3.3,4.6c0.3,0.3,0.6,0.5,0.7,0.7c0.4,0.4,0.7,0.7,0.8,1.2C734,504.8,735.8,505.8,735.5,506.5z"/>
	<path class="st11" d="M768.4,504.3c1.4,2.9,2.5,6.1,2,9.4c-0.1,0.8-0.4,1.7-0.8,2.4c-1.3,2-4.2,2.4-6.6,2.5c-1-0.1-2,0.3-2.9,0.9
		c-0.7,0.9-0.7,2.3,0.2,3.2c0.7,0.8,1.8,1.5,2.9,1.9c3.9,1.7,8,3.2,12.3,2.7c2-0.2,3.8-0.7,5.8-1c2.1-0.2,4.2-0.4,6.3-0.4
		c2.5-0.1,5-0.4,7.5-0.6l6.7-0.7c0.4,0,0.7-0.1,1-0.4c0.5-0.6-0.2-1.4-0.7-1.9c-3.5-2.6-8.1-4.5-10-8.4c-0.9-1.9-1.2-4.1-2-6
		c-0.7-2-1.8-3.8-2.2-5.9c-0.2-1.8-0.4-3.6-0.3-5.4c0-1.9-0.7-3.6-1.9-4.9c-1.3-1.2-3.3-1.6-5-1.7c-4.5-0.2-9.2,0.8-12.4,4
		c-0.8,0.8-1.6,1.9-2.4,2.6c-0.8,0.7-2,1-1.5,2c0.6,0.9,1.7,1.6,2.3,2.5C767.3,502.2,767.9,503.3,768.4,504.3z"/>
	<path class="st12" d="M806.3,531.2c-1.2,7.2-3.1,14.1-5.7,20.9c-1.3,3.1-2.4,6.2-3.3,9.4c-0.7,2.9-0.6,5.9-1.2,8.8
		c-0.8,3.6-1.7,7.2-2.3,10.9c-1.1,5.5-1.6,11.1-1.3,16.8c0,0.9,0.2,1.8,0.5,2.6c0.3,0.7,0.8,1.2,1.1,2c0.5,1.2,0.4,2.6-0.3,3.7
		c-0.5,1-1.1,2-2,2.9c-8.6,2.6-17.9,1.8-26.9,2.3c-8.4,0.5-16.7,2.2-24.9,0.7c-0.9-3.7,0.7-7.6,2-11.2c3.8-10.5,8.1-21.5,7.4-32.5
		c-0.1-1.3-0.2-2.6-0.5-3.8c-1.3-7.8,0.1-15.9,2.5-23.5c1.5-4.7,1.4-9.8,1-14.7c-0.2-1.6-0.2-3.2-0.1-4.8c0.2-1.7,0.7-3.2,1.8-4.5
		l0.2-0.2c0.1-0.2,0.4-0.1,0.7,0l0,0c0.2,0.1,0.3,0.1,0.5,0l0.1-0.1c0.1-0.1,0.2-0.1,0.3,0c0.2,0.1,0.3,0.6,0.7,0.7
		c0.7,0.1,1.4,0.2,2,0.2c0.8,0,1.7,0.2,2.5,0.4h0.1c1.2,0.2,2.4,0.1,3.6-0.3c0.7-0.2,1.5-0.5,2.2-0.8c0.6-0.2,1.1-0.5,1.8-0.6
		c0.8-0.6,0.7-2.9,0.8-3.9c0.1-1,0.4-2,0.7-2.9c0.8-1.4,2.3-2.2,4-2.3c1.6-0.1,3.3,0.1,4.7,0.5c3.4,0.5,7,0.4,10.4,1.2
		c1.7,0.4,3.5,1,5.1,0.2c0.5,0.1,0.5,0.5,0.5,0.9s-0.1,0.8-0.3,1.3c-0.6,2.6,1.4,4.9,3.3,6.8c0.8,0.8,1.8,1.6,2.8,2.2
		c0.9,0.5,1.9,0.6,2.8,1c0.7,0.4,1.4,1,1.9,1.7c0.6,0.8,0.9,1.8,1,2.7C806.8,527.7,806.6,529.4,806.3,531.2z"/>
	<path class="st13" d="M806.3,531.2c-1.2,7.2-3.1,14.1-5.7,20.9c-1.3,3.1-2.4,6.2-3.3,9.4c-0.7,2.9-0.6,5.9-1.2,8.8
		c-0.8,3.6-1.7,7.2-2.3,10.9c-0.2,0.1-0.4,0.2-0.6,0.3c-1.1,0.6-2.4,0.9-3.6,1.2c-2.2,0.3-4.6,0.2-6.8-0.2l-13.3-1.8
		c-5.3-0.7-11-1.6-14.9-5.1c-2.1-2-3.6-4.6-5.2-7.1c-0.1-1.3-0.2-2.6-0.5-3.8c-1.3-7.8,0.1-15.9,2.5-23.5c1.5-4.7,1.4-9.8,1-14.7
		c-0.2-1.6-0.2-3.2-0.1-4.8c0.2-1.7,0.7-3.2,1.8-4.5c0.3-0.1,0.6-0.2,0.8-0.2l0,0c0.2,0,0.4-0.1,0.6-0.1h0.3c0.3,0,0.7,0,0.9,0.1
		c0.7,0.2,1.2,0.5,1.9,0.7h0.1c0.8,0.3,1.7,0.4,2.5,0.4c1.2,0,2.5-0.2,3.7-0.3c1.5-0.3,3.1,0,4.4,0.7c0.8,0.7,1.7,1.5,2.4,2.2
		c0.9,0.7,2,1.3,3.1,1.7c8,3.1,16.9,2.9,24.7-0.6c0.7-0.5,1.6-0.7,2.5-0.7c0.7,0.1,1.2,0.4,1.8,0.7s1.1,0.7,1.7,0.9
		c0.6,0.8,0.9,1.8,1,2.7C806.7,527.6,806.6,529.4,806.3,531.2z"/>
	<path class="st2" d="M814.3,525.1c-3.7-1.1-7.2-2.7-10.6-4.6c-0.6-0.4-1.1-0.7-1.8-0.7c-0.8,0-1.8,0.2-2.5,0.7
		c-7.9,3.3-16.7,3.5-24.7,0.6c-1.1-0.4-2.1-0.9-3.1-1.7c-0.7-0.8-1.6-1.6-2.4-2.2c-3.1-2-7.2,0.4-10.7-0.9c-0.6-0.3-1.2-0.5-1.9-0.7
		c-2.7-0.7-5.5,2-8.1,1.2c-1,2.7-1.8,5.5-2.1,8.3c-0.4,3.3-0.6,6.5-0.7,9.8c-0.1,2-0.1,3.9,0,5.9c0.7,0.1,1.2,0.5,1.7,1
		c0.3,0.7,0.2,1.4-0.2,2c-2,5-3.9,10-6.9,14.5c2,1.2,4,2.7,5.8,4.4c3.3,3.4,4.8,8.3,8.4,11.4c4,3.6,9.6,4.5,14.9,5.2l13.3,1.9
		c2.2,0.4,4.6,0.5,6.8,0.2c1.3-0.2,2.5-0.7,3.6-1.2c0.7-0.3,1.5-0.7,2-1.3c0.5-0.6,0.9-1.2,1.2-1.9c1-2.1,2-4.3,2.9-6.4
		c0.3-0.7,0.7-1.7,1.6-1.8c4.9-4.5,9.6-9,14.5-13.5c2-1.7,3.7-3.5,5.3-5.6c2.4-3.6,0.2-8.7,0-13.1c0-1.1-0.2-2.2-0.4-3.3
		C819.3,529.8,817.4,526,814.3,525.1z"/>
	<path class="st13" d="M735.5,506.5c-0.7,1.5-2.5,2.2-3.9,3.2l-4.7,3.3c-0.7,0.6-1.5,0.8-2.3,0.8c-0.7-0.3-1.4-0.8-1.8-1.7
		c0-0.2,0-0.5,0-0.7c0-0.7,0.1-1.5,0.3-2.2c0.5-1,1.2-2,2-2.7c1.8-1.7,3.8-3,6.1-3.7c0.4-0.2,0.7-0.2,1.1-0.1c0.2,0,0.3,0.1,0.4,0.2
		c0.4,0.4,0.7,0.7,0.8,1.2C734,504.8,735.8,505.8,735.5,506.5z"/>
	<path class="st2" d="M746.5,516.4c-1.6-0.1-2.9-1.2-4-2.3l-3.5-3.3c-0.3-0.2-0.5-0.5-0.7-0.7c-0.2-0.4-0.4-0.7-0.5-1.1
		c-0.7-1.9-2-3.5-3.4-4.9c-0.3-0.4-0.7-0.6-1-0.7c-0.4-0.1-0.7,0-1.1,0.1c-2.3,0.7-4.4,2-6.1,3.7c-0.9,0.7-1.6,1.6-2,2.7
		c-0.3,0.7-0.4,1.5-0.3,2.2c0,2.5,0.6,4.9,1.7,7.2c0.2,0.4,0.4,0.7,0.6,1c1.2,2,2.7,3.9,4.4,5.7l2.2,2.5c2.1,2.4,4.4,4.8,6.7,7.1
		c0.8,0.9,1.9,1.6,3,2.1c1.2,0.5,2.5,0.3,3.4-0.6c0.5-0.6,0.7-1.1,1-1.8c1.4-3.7,2.8-7.5,2.9-11.6c0-1.6,0-3.3-0.2-4.8
		C749.3,517.1,748.1,516.4,746.5,516.4z"/>
	<path class="st9" d="M802.8,646.4c-0.1,9.4-0.7,18.7-2,28c-0.2,1.5-0.4,3-0.5,4.5c-0.3,4.4,0.2,8.7-0.2,13c-0.2,2.3-0.7,4.6-1.1,7
		c-1.9,10.1-2.3,20.5-1.6,30.7c1.3,17.1-2.6,34.3-0.8,51.3c0.2,3.3,0,6.7-0.6,9.9c-0.4,2-0.8,4.1-1.4,6c-1.4,4.6-2.7,9.3-4.1,13.9
		c-0.2,0.7-0.5,1.4-0.9,2c-0.9,0.8-2.2,1.2-3.5,1c-5.4-0.2-10.4-2.5-15.2-4.7c-0.6-0.2-1.1-0.6-1.6-0.9c-1-1-0.9-2.7-1.4-4.1
		s-1.7-2.7-2.3-4.1c-0.6-1.3-0.9-2.8-1-4.2c-0.7-4.7-1-9.6-1.3-14.3c-0.4-6.8,4.1-12.9,5.6-19.5c2.8-12.9,0.5-26.8,5.4-38.9
		c1.6-3.9-0.7-8.5-0.9-12.7c-0.1-2.7-0.5-5.4-1-8c-0.9-3.5-2.9-6.8-3-10.4c-0.1-2.6,0.7-5.2,1.2-7.8c0.6-3.8,0.6-7.6-0.2-11.4
		c-0.5-3.2-1.2-6.2-2-9.3l-0.2,0.4c-2.2,4.5-4.2,9-5.9,13.7c-0.7,2.3-1.4,4.6-2.3,6.8c-0.7,1.9-1.7,3.5-2.6,5.3
		c-3.3,6.1-6.1,12.5-8.5,19.1c-1.1,3.3-2.1,6.5-3.2,9.8c-2.3,7.4-4.6,14.9-6.9,22.3c-1.9,5.9-3.9,11.5-5.8,17.4
		c-2.6,8.4-5.1,16.6-8.2,24.8c-2.9,7.8-6.1,15.8-5.1,24c-2.6,1.2-5.4,1.8-8.2,1.7c-4.8-0.5-9.5-1.6-13.9-3.4
		c-1.9-0.5-3.5-1.5-4.8-2.9c-2-2.5-1.6-6.2-0.9-9.4c0.2-1.5,0.7-2.9,1.1-4.3c0.7-1.7,1.9-3.3,2.6-4.9c1.5-3.3,1.6-7,2.1-10.4
		c0.6-3.4,1.9-7.2,4.8-9.1c0.5-6.2,3.1-12.3,4.5-18.3c1-4.6,1.4-9.3,2.2-13.9c0.8-4.6,2.2-9.3,5-13c-0.2-3.9,0.7-7.7,2.5-11.1
		c0.5-0.7,0.8-1.6,1.1-2.3c0.2-0.8,0.3-1.7,0.3-2.4c0.3-3.3,1.7-6.2,3.9-8.6c-0.9-3.4,0.4-7,1.5-10.2c1.5-4.2,2.1-8.6,2-13.1
		c-0.2-1.2-0.1-2.5,0.2-3.7c0.3-0.9,0.7-1.7,1-2.6c0.3-1.1,0.4-2.2,0.5-3.3c0.4-5,2.4-9.8,4.6-14.2c1.3-2.6,0.2-6.2,0.5-9.1
		c0.5-4.8,1-9.8,3.4-14.1c0.5-0.7,0.9-1.6,1.3-2.4c0.5-1.2,0.7-2.4,0.7-3.7c0.1-2.1,0.4-3.9-0.4-5.9c4.9-4.2,11.8-5.3,18.2-5.6
		c6.4-0.3,13,0.3,19.3-1.1c1.9-0.4,3.7-1,5.7-1.3c4.5-0.7,9,0.4,13.4,1.4c-0.3,2.8,0.7,5.5,1.9,8.1
		C800.4,623.7,802.7,635,802.8,646.4z"/>
	<path class="st13" d="M781,648.4l-10.7,24.1c-0.5-3.2-1.2-6.2-2-9.3l-0.2,0.4v-0.5l5.9-12.8L781,648.4z"/>
	<path class="st13" d="M812.9,598.3c-0.7,0.5-1.4,0.7-2.1,0.7c-1.2,0-2.3-0.1-3.5-0.5l-8.3-2.1c-0.3-0.1-0.6-0.2-0.7-0.3
		c0.2-1.5,0.5-3.2,1.2-3.7c1.2-0.8,4.7,0.3,6,0.5c2.3,0.3,4.6,0.7,6.9,1.1C812.8,595.5,812.9,596.9,812.9,598.3z"/>
	<path class="st2" d="M820,543c0.2,0.7,0.5,1.5,0.6,2.3c0.3,2,0.2,3.8-0.2,5.8l-0.7,5.3l-0.7,5.4l-3,20.5l-0.7,5.1l-1,7.2
		c-0.1,0.6-0.2,1.2-0.5,1.7c-0.7,1-1.7,1.7-2.9,1.7c-1.2,0-2.3-0.1-3.4-0.5l-8.4-2.1c-0.4-0.1-0.7-0.2-1-0.5c-0.6-0.5-0.7-1.3-0.6-2
		c0.1-0.7,0.5-1.4,0.6-2c0.2-1.4-0.4-2.8-0.2-4.2c0.2-0.8,0.5-1.8,0.9-2.5c2.8-6.1,1.2-13.4,2.1-20.1c0.8-5.3,3-10.2,6.3-14.4
		c2-2.6,4.5-4.9,7.2-7c1-0.8,2.7-2.5,4-2.8C820.1,539.8,819.7,541.9,820,543z"/>
	<path class="st9" d="M756.7,463c-0.7,2,0.4,4.1-0.1,6c-0.5,2.2-2.5,3.7-3.2,5.9c-0.9,3.3,2,6.4,4,9.2c7.7,10.3,6.7,24.6,4.1,37.2
		c-2.1,10.1-5,20.1-8.8,29.7c-1.1,3-2.4,6-4.7,8.3c4.3-1.2,8.8-2.4,13.1-1.3c5.4,1.5,10.1,6.8,15.6,5.6c3.3-0.7,5.7-3.7,8.6-5.3
		c5.6-3,12.3-1.1,18.5-0.2c1.3,0.3,2.8,0.3,4-0.2c1-0.6,1.9-1.3,2.4-2.2c2.8-3.5,4.5-7.9,4.7-12.4c0.3-4.6-1.4-9-4.6-12.2
		c-1.3-1.2-2.9-2.2-3.9-3.7c-1-1.7-1.5-3.6-1.6-5.7c-0.7-10.2,1.8-20.6-0.8-30.6c-0.9-3.5-2.4-6.9-2.9-10.5
		c-0.5-4.5,0.7-9.3-1.1-13.4c-1.4-3.3-4.5-5.6-7.8-6.8c-3.3-1.1-6.9-1.7-10.4-1.9C777.1,458.6,758.9,456.4,756.7,463z"/>
	<g class="st14">
		<path d="M761.6,521.6c-2.1,10.1-5,20-8.7,29.6c0.7-1.3,1.2-2.6,1.7-3.9c3.7-9.7,6.7-19.6,8.8-29.7c2.6-12.6,3.6-26.9-4.1-37.2
			c-1.9-2.4-4.3-5.1-4.2-8.1c-0.7,0.8-1.2,1.9-1.6,2.9c-0.9,3.3,2,6.4,4,9.2C765.2,494.6,764.2,508.9,761.6,521.6z"/>
		<path d="M756.7,468.1c0.7-0.9,1.3-2,1.7-3.2c0.2-1.4,0.1-2.8-0.1-4.2c-0.7,0.6-1.2,1.3-1.6,2.1
			C756.2,464.7,756.8,466.5,756.7,468.1z"/>
		<path d="M812.1,551.8c-0.7,0.9-1.5,1.8-2.5,2.2c-1.3,0.5-2.7,0.6-4,0.2c-6.2-0.9-13-2.9-18.5,0.2c-3,1.6-5.3,4.6-8.6,5.3
			c-5.5,1.2-10.2-4-15.6-5.6c-3.8-1-7.9-0.2-11.8,0.9c-0.7,1.7-1.8,3.2-3.1,4.5c4.3-1.2,8.8-2.4,13.1-1.3c5.4,1.5,10.1,6.8,15.6,5.6
			c3.3-0.7,5.7-3.7,8.6-5.3c5.6-3,12.3-1.1,18.5-0.2c1.3,0.3,2.8,0.3,4-0.2c1-0.6,1.9-1.3,2.4-2.2c1.7-2.2,3-4.7,3.8-7.3
			C813.6,549.7,812.9,550.8,812.1,551.8z"/>
	</g>
	<path class="st15" d="M826.6,719.9c0,2.5,0.3,4.6,0.7,4.6c0.4,0,0.7-2,0.7-4.6s-0.4-1.4-0.7-1.4S826.6,717.4,826.6,719.9z"/>
	<path class="st15" d="M823.1,722.9c2.2,1.2,4.2,2,4.4,1.7c0.2-0.3-1.5-1.6-3.7-2.8c-2.2-1.2-1.4-0.3-1.5,0
		C822.1,722.1,820.8,721.7,823.1,722.9z"/>
</g>
</svg>
