<?xml version="1.0" encoding="utf-8"?>
<!-- Generator: Adobe Illustrator 19.0.0, SVG Export Plug-In . SVG Version: 6.00 Build 0)  -->
<svg version="1.1" xmlns="http://www.w3.org/2000/svg" xmlns:xlink="http://www.w3.org/1999/xlink" x="0px" y="0px"
	 viewBox="0 0 1000 1000" style="enable-background:new 0 0 1000 1000;" xml:space="preserve">
<style type="text/css">
	.st0{opacity:0.1;fill:#6C63FF;enable-background:new    ;}
	.st1{fill:#DC9BA3;}
	.st2{opacity:5.000000e-02;enable-background:new    ;}
	.st3{fill:#6C63FF;}
	.st4{opacity:0.1;enable-background:new    ;}
	.st5{fill:#FFD2D9;}
	.st6{fill:#E9E9EF;}
	.st7{fill:#CEDAD5;}
	.st8{fill:#844F6E;}
	.st9{opacity:5.000000e-02;}
	.st10{opacity:0.2;fill:#FFFFFF;enable-background:new    ;}
	.st11{opacity:5.000000e-02;fill:#00FF00;enable-background:new    ;}
	.st12{fill:#7679B4;}
	.st13{fill:#565388;}
	.st14{opacity:0.2;fill:#6C63FF;enable-background:new    ;}
	.st15{opacity:0.2;}
	.st16{opacity:0.1;fill:#252223;enable-background:new    ;}
	.st17{opacity:0.3;fill:#6C63FF;enable-background:new    ;}
	.st18{fill:url(#SVGID_1_);}
	.st19{fill:#535461;}
	.st20{fill:url(#SVGID_2_);}
	.st21{fill:#F9D5C6;}
	.st22{fill:#353535;}
	.st23{fill:#409CD6;}
	.st24{fill:#2F302F;}
	.st25{fill:none;stroke:#535461;stroke-miterlimit:10;}
	.st26{fill:none;stroke:#535461;stroke-width:2;stroke-miterlimit:10;}
	.st27{opacity:0.25;enable-background:new    ;}
</style>
<g id="_x23_background">
	<path class="st0" d="M293.3,489.9c-23.1,10.6-44.4,25.4-68.4,33.6c-29.3,10-60.9,9.9-91.8,9.6L8.2,532.2
		c25.3,45.4,69.9,79.6,120.4,92.2c19.8,4.9,40.9,6.9,58.3,17.4c21.8,13.2,34.7,38,56.7,50.6c24.4,13.9,54.7,10.1,81.8,17
		c35.4,8.9,65,35.6,101.1,40.9c35,5.1,69-10.6,102.8-20.6c120.9-35.6,251.5,2.5,376.3-15.2c4.8-0.7,9.9-1.6,13.4-5
		c4.4-4.3,4.8-11.3,4-17.5c-4.4-30.8-32.2-53.5-61.3-64.7c-62-23.8-131.7-8.9-197.5-17.4c-45.2-5.9-88.3-22.9-130.7-39.8
		c-44.5-17.6-89.6-35-131.8-57.8C359.2,489,345.2,465.9,293.3,489.9z"/>
</g>
<g id="_x23_man_x28_lie_x2C_watch_x5B_movie_x5D__x29_">
	<g>
		<path class="st1" d="M684.2,653.7c0,0,1.9,28.3-1.9,33c0,0,82.9,15.1,93.3,10.4c10.4-4.7,5.7-12.3,0-15.1
			c-5.7-2.8-33.9-13.2-37.7-33c0,0,12.3-5.7-27.3,1.9C671,658.4,684.2,653.7,684.2,653.7z"/>
		<path class="st2" d="M684.2,653.7c0,0,1.9,28.3-1.9,33c0,0,82.9,15.1,93.3,10.4c10.4-4.7,5.7-12.3,0-15.1
			c-5.7-2.8-33.9-13.2-37.7-33c0,0,12.3-5.7-27.3,1.9C671,658.4,684.2,653.7,684.2,653.7z"/>
		<path class="st3" d="M360.7,259.9l-0.4,0.2c-17.2,8.1-31.9,20.2-43.4,35.3c-6.4,8.5-14.3,16.6-21.9,17.9
			c-16.7,2.9-139.3,130.5-109.9,249.3s201.3,123.6,201.3,123.6s36.6,6.2,57.5,18.6c9.9,5.8,21.9,7,32.8,3.1
			c25-8.9,66-21.8,84.4-17.8c27.5,5.8,263-92.3,263-92.3s-98.1-94.2-242.4-92.3c0,0-227.6-159-219.8-224.7L360.7,259.9z"/>
		<path class="st4" d="M360.7,259.9l-0.4,0.2c-17.2,8.1-31.9,20.2-43.4,35.3c-6.4,8.5-14.3,16.6-21.9,17.9
			c-16.7,2.9-139.3,130.5-109.9,249.3s201.3,123.6,201.3,123.6s36.6,6.2,57.5,18.6c9.9,5.8,21.9,7,32.8,3.1
			c25-8.9,66-21.8,84.4-17.8c27.5,5.8,263-92.3,263-92.3s-98.1-94.2-242.4-92.3c0,0-227.6-159-219.8-224.7L360.7,259.9z"/>
		<path class="st3" d="M360.9,259.7l-23.6,22.6c0,0-17.9,34.9-33.9,37.7c-16,2.8-133.8,125.3-105.6,239.4s193.2,118.8,193.2,118.8
			s34.3,5.8,54.5,17.4c9.9,5.8,21.9,7,32.7,3.2c24-8.5,63-20.6,80.5-16.9c26.4,5.7,252.6-88.6,252.6-88.6s-94.2-90.5-232.8-88.6
			c0,0-218.7-152.7-211.1-215.8L360.9,259.7z"/>
		
			<ellipse transform="matrix(-0.7071 -0.7071 0.7071 -0.7071 350.1458 1196.6102)" class="st4" cx="422.9" cy="525.8" rx="135.3" ry="74.4"/>
		<path class="st5" d="M360.9,379.4c0,0,10.4,17,3.8,50c-6.6,33,17,33,17,33h47.1l16-41.5l-22.6,1.9c0,0-15.1-3.8-8.5-38.6
			L360.9,379.4z"/>
		<path class="st5" d="M502.3,339.8c-7.3,23-16.2,50.9-21.1,65.8l-3.4,10.6l-31.1-32c0,0,1.4-3.2,3.4-7.6
			c4.5-9.9,12.4-25.9,16.4-27.2c0,0-43.4-2.8-56.5,7.5c-13.2,10.4-9.4-28.3-9.4-28.3s25.4-1.9,34.9-7.5c9.4-5.7,60.3-11.3,60.3-11.3
			S512.6,306.9,502.3,339.8z"/>
		<path class="st4" d="M331.7,624.5c0,0,80.1-36.8,108.4-31.1"/>
		<path class="st4" d="M249.7,537.8c0,0,97.1-3.8,149.9,30.2"/>
		<path class="st4" d="M297.7,576.4c0,0,76.3-18.8,116.9-12.3"/>
		<path class="st5" d="M785,616.9l-6.6,48.1l-17-1.9c0,0-1-0.9-2.7-2.5c-4.5-4.1-14-11.9-23.2-16.2c-3.1-1.6-6.4-2.5-9.9-2.9
			l18.8-28.3c4.6,1.7,9.3,3.1,14,4.1c5,1.1,10.1,1.8,15.2,1.8C777.6,619.2,781.4,618.4,785,616.9z"/>
		<path class="st6" d="M737.9,650.9c-8.5,7.5-47.1-8.5-53.7,16l-6-23.3l-18.8-71.4l-2.5-9.9l-15.6-0.7L462.6,554l-10.2-0.4l-5.4-0.2
			l7.1-3.5l47.1-23.4c0,0,17-1.2,40.3-4.4l0,0c35.5-4.9,85.8-14.3,114.1-31.4c47.1-28.3,65,66.9,65,66.9s7.2,24.1,12.6,48
			c2.6,11.3,4.8,22.6,5.7,31.2C740,644,739.8,649.3,737.9,650.9z"/>
		<path class="st2" d="M737.9,650.9c-8.5,7.5-47.1-8.5-53.7,16l-6-23.3l-18.8-71.4l-2.5-9.9l-16-0.9l-172.7-10.6l-10.6-0.7l-3.3-0.2
			l-4.2-0.3l51.4-23.1c0,0,17-1.2,40.3-4.4l0,0c35.5-4.9,85.8-14.3,114.1-31.4c47.1-28.3,65,66.9,65,66.9s7.2,24.1,12.6,48
			c2.6,11.3,4.8,22.6,5.7,31.2C740,644,739.8,649.3,737.9,650.9z"/>
		<path class="st4" d="M758.5,617.3L742,636.6l-6.6,7.7c-3.1-1.6-6.4-2.5-9.9-2.9l18.8-28.3C749.1,614.9,753.8,616.3,758.5,617.3z"
			/>
		<path class="st6" d="M757.7,615l-18.5,21.6l-8.9,10.5v2.8c-10.8,2.5-44.8-4.6-52.2-6.3c-0.9-0.2-1.5-0.3-1.5-0.3
			c-21.7,0.9-101.8-46.2-101.8-46.2s-87.7,15.1-130.1,11.3c-23.7-2.1-30.3-10.6-31.6-17.8c-0.6-3.6-0.1-7.2,1.4-10.5l37.8-26.6
			l5-3.6l8-5.7c0,0,13.9-3.2,31.7-7.1l0,0c27.6-6.1,64.6-14,72-14.6c12.3-0.9,43.4,9.4,61.3,30.2c3.1,3.3,6.6,6.1,10.4,8.5l0.5,0.3
			c5,3.3,11.2,6.9,18.1,10.6c22.8,12.1,53.2,24.9,74.2,33.4C747.9,611.3,757.7,615,757.7,615z"/>
		<path class="st4" d="M785,616.9l-6.6,48.1l-17-1.9c0,0-1-0.9-2.7-2.5c3.8,0.1,10-1,11.2-8.8c0,0-6.5-22.8,3.8-32.7
			C777.6,619.2,781.4,618.4,785,616.9z"/>
		<path class="st1" d="M771.8,651.8c0,0-9.4-33,12.3-36.8l35.8,14.1l41.5,2.8c0,0,10.8,17.7-6.5,37.5c-9.6,10.8-23.2,17.3-37.7,17.9
			l-45.3,2.1l-14.1-29.2C757.7,660.3,769.9,663.1,771.8,651.8z"/>
		<path class="st4" d="M541.8,522c-4.7,1.4-24.4,7.3-44.5,15.3l0,0c-10,3.9-19.6,8.3-29,13.4c-2,1.1-3.8,2.2-5.6,3.3
			c-5.3,3.4-9.5,6.8-12.2,10.2c-11.6,15.1-28.7,23.2-37.2,26.5c-0.6-3.6-0.1-7.2,1.4-10.5l37.8-26.6l-5.4-0.2l7.1-3.5l-4.2-0.3
			l51.4-23.1C501.3,526.5,518.3,525.3,541.8,522z"/>
		<path class="st4" d="M481.2,405.6l-3.4,10.6l-31.1-32c0,0,1.4-3.2,3.4-7.6C454,384.9,472.8,399.4,481.2,405.6z"/>
		<path class="st7" d="M369,421.3c-1.1-3.2-1.9-6.5-2.5-9.8L326,425.6c0,0-27.8,21.2-25,67.4c0,0,34.4-12.7,49.5,2.4l0.3,2.6
			c3.2,26.4,14.9,51,33.2,70.1c7.5,7.8,14.6,16.8,18.3,25.3c0,0,26.4-7.5,42.4-28.3c16-20.7,92.4-42.4,92.4-42.4
			s-40.5,0.9-46.2-13.2c-5.7-14.1-24.5-44.3-17.9-67.9s10.4-31.1,10.4-31.1s-38.6-27.3-35.8-35.8L423,403l-11.3,3.8
			c0.8,2.2,1.3,4.5,1.3,6.9C413.8,439.3,377.6,445.4,369,421.3z"/>
		<path class="st3" d="M402.8,614.6c0,0,91.4-37.7,165.9-1.9l-17.9,37.7l-85.8,1.9L402.8,614.6z"/>
		<path class="st4" d="M412.3,396.5c0.3-3.5,0.8-7.1,1.4-10.5l-52.8-4.7c0,0,3.7,3.2,5.3,15c6.2,3.7,13.4,8.6,21.1,8.6
			C396.3,404.9,405.1,402,412.3,396.5z"/>
		<circle class="st5" cx="387.8" cy="362" r="41.5"/>
		<path class="st8" d="M357.1,372.8h5.7v-16l5.7-17c0,0,28.3-13.2,41.5-10.4l10.4,9.4c0,0,2.8-22.6-14.1-31.1
			c-17-8.5-47.1-4.7-54.7,1.9c-7.5,6.6-19.8,17.9-10.4,49l2.8,7.5C343.9,366.2,355.2,362.5,357.1,372.8z"/>
		<g class="st9">
			<path d="M430.4,394.6l3.1-1l14.2-16.4c-0.3-0.8-0.3-1.6-0.1-2.5L430.4,394.6z"/>
			<path d="M410.6,424.9c7.4-3.3,13.2-10.5,12.9-20.7c0-0.6,0-1-0.1-1.6l-0.3,0.4l-11.3,3.8c0.8,2.2,1.3,4.5,1.3,6.9
				C413.3,417.6,412.3,421.6,410.6,424.9z"/>
			<path d="M520.5,521.9c-23.7,8.2-55.6,21.2-65.3,33.7c-0.2,0.3-0.5,0.6-0.8,0.9c25.9-17.7,82.7-33.9,82.7-33.9
				C531.6,522.8,526,522.5,520.5,521.9z"/>
			<path d="M412.7,583.9c-3.8-8.5-10.8-17.4-18.3-25.3c-18.4-19.1-30.1-43.7-33.2-70.1l-0.3-2.6c-15.1-15.1-49.5-2.4-49.5-2.4
				c-1.8-29.3,8.8-48.5,16.7-58.7l-2.1,0.8c0,0-27.8,21.2-25,67.4c0,0,34.4-12.7,49.5,2.4l0.3,2.6c3.2,26.4,14.9,51,33.2,70.1
				c7.5,7.8,14.6,16.8,18.3,25.3c0,0,23-6.6,39-24.3C432.8,575.6,423.1,580.6,412.7,583.9z"/>
		</g>
		<path class="st5" d="M402.4,473.7c0,0-45.2,65-68.8,83.9c-23.6,18.8-30.2-8.5-30.2-8.5v-60.3l41.5-4.7l0.5,5.7l0.5,6.5l38.6-41.5
			c0,0,38.6-34.9,46.2-14.1S402.4,473.7,402.4,473.7z"/>
		<path class="st4" d="M345.3,489.8c-5.7,3.3-11.7,5.9-17.9,7.9c-9,2.7-19.1-0.2-24-1.9v-7.1l41.5-4.7L345.3,489.8z"/>
		<path class="st7" d="M302.9,482.6l-2.5,10.1c0,0,14.7,6.9,27,3.1c12.3-3.8,21.7-10.4,23.6-11.3c1.9-0.9-7.5-11.3-7.5-11.3
			L302.9,482.6z"/>
		<path class="st4" d="M574.4,597.6c6.3-4.8,13.3-8.7,20.7-11.3c7.1-2.5,13.8-5.9,19.8-10.4"/>
		<path class="st10" d="M861.3,632l-1.5-0.1c2.3,5.7,5.5,19.6-7.8,34.8c-9.6,10.8-23.2,17.3-37.7,17.9l-43.9,2.1l1.4,2.9l45.3-2.2
			c14.5-0.6,28.1-7.1,37.7-17.9C872.2,649.7,861.3,632,861.3,632z"/>
		<path class="st11" d="M647.7,680.5h-0.2c0.1,2.3,0.4,6.8,0.4,11.9C648,688,647.8,683.7,647.7,680.5z"/>
		<path class="st11" d="M701.3,672.4c0.1,0.6,0.3,1.1,0.5,1.7C702.7,673.6,704,672.5,701.3,672.4z"/>
		<path class="st10" d="M775.6,694.2c-9.6,4.4-82.3-8.4-92.2-10.2c-0.2,0.9-0.6,1.8-1.1,2.6c0,0,82.9,15.1,93.3,10.4
			c5.4-2.5,6.7-5.6,5.9-8.5C781,690.5,779.3,692.6,775.6,694.2z"/>
		<path class="st11" d="M647.5,680.5c0-0.9-0.1-1.4-0.1-1.4S642.6,680.8,647.5,680.5z"/>
		<path class="st4" d="M367.1,341.3h57.3c2.2,0,3.9,1.7,3.9,3.9v24.3c0,2.2-1.7,3.9-3.9,3.9h-57.3c-2.2,0-3.9-1.7-3.9-3.9v-24.3
			C363.2,343,364.9,341.3,367.1,341.3z"/>
		<path class="st4" d="M341.1,351.6h22.7c1.2,0,2.3,1,2.3,2.3v7.6c0,1.2-1,2.3-2.3,2.3h-22.7c-1.2,0-2.3-1-2.3-2.3v-7.6
			C338.7,352.7,339.8,351.6,341.1,351.6z"/>
		<path class="st12" d="M367.1,340.3h57.3c2.2,0,3.9,1.7,3.9,3.9v24.3c0,2.2-1.7,3.9-3.9,3.9h-57.3c-2.2,0-3.9-1.7-3.9-3.9v-24.3
			C363.2,342,364.9,340.3,367.1,340.3z"/>
		<path class="st13" d="M374.7,342.2h49.7c2.2,0,3.9,1.7,3.9,3.9v20.5c0,2.2-1.7,3.9-3.9,3.9h-49.7c-2.2,0-3.9-1.7-3.9-3.9v-20.5
			C370.9,343.9,372.6,342.2,374.7,342.2z"/>
		<path class="st13" d="M341.1,350.7h22.7c1.2,0,2.3,1,2.3,2.3v7.6c0,1.2-1,2.3-2.3,2.3h-22.7c-1.2,0-2.3-1-2.3-2.3v-7.6
			C338.7,351.7,339.8,350.7,341.1,350.7z"/>
		<path class="st4" d="M414.1,342.2c10.2-6.1,18.5-15.1,23.9-25.6c0.7-1.2,1.2-2.6,0.8-4c-0.7-2.5-4.1-3-6.4-4.1
			c-4.5-2.1-6.4-7.3-9.3-11.2c-5.2-6.8-13.7-10-22-8.5c-4.3,0.8-8.3,3-12.6,3.7c-9.3,1.3-19.5-4.3-28,0c-3.9,2-6.4,5.7-8.7,9.3
			c-5.7,9.1-12.9,18.8-7.7,29.6c3,6.1,7.7,11.2,14.4,13c6.7,1.8,14.4,0.3,21.3-0.5c5.7-0.6,11.5-1.9,17.2-1.3
			C403.7,343.2,407.8,346,414.1,342.2z"/>
		<path class="st8" d="M414.1,340.3c10.2-6.1,18.5-15.1,23.9-25.6c0.7-1.2,1.2-2.6,0.8-4c-0.7-2.5-4.1-3-6.4-4.1
			c-4.5-2.1-6.4-7.3-9.3-11.2c-5.2-6.8-13.7-10-22-8.5c-4.3,0.8-8.3,3-12.6,3.7c-9.3,1.3-19.5-4.3-28,0c-3.9,2-6.4,5.7-8.7,9.3
			c-5.7,9.1-12.9,18.8-7.7,29.6c3,6.1,7.7,11.2,14.4,13c6.7,1.8,14.4,0.3,21.3-0.5c5.7-0.6,11.5-1.9,17.2-1.3
			C403.7,341.4,407.8,344.1,414.1,340.3z"/>
		<polygon class="st14" points="987.2,448.9 577.2,522.2 577.2,302.4 987.2,229.1 		"/>
		<polygon class="st14" points="902.2,254.5 978,241.4 979.2,275.4 901.3,288.4 		"/>
		<g class="st15">
			<path class="st16" d="M754.8,444.2c2.5-0.6,5.2-0.8,7.8-0.7c15.6,0.3,31.6,1.8,46.8-2.8c8.1-2.5,15.4-6.4,23.7-8.2
				c14.1-2.9,28.3,1.3,42.2-2.2c2.8-0.8,6.3-1.8,8.3-0.7c2.4,1.2,0.7,4.5,3.5,5.4c0.9,0.1,1.8,0.3,2.6,0.6c1,0.6,0.4,1.9-0.7,2.7
				c-6.3,5.1-19.1,1.7-27,5.8c-1.8,0.9-3.1,2.2-4.7,3.1c-2.6,1.3-5.4,2.4-8.2,3l-43.8,12.3c-10.5,2.9-21.1,5.9-32,7.2
				c-10.8,1.3-22.1,0.8-30.1-2.9c-1.7-0.8-3.3-1.8-4-3.1C736.2,457.6,743.8,447.1,754.8,444.2z"/>
			<polygon class="st17" points="716.1,357.4 752.8,386.3 789.4,415.3 729.2,426.7 668.9,438.1 692.5,397.7 			"/>
			<polygon class="st17" points="754.2,350.6 790.9,379.6 827.6,408.6 767.4,420 707.1,431.5 730.6,391 			"/>
			<polygon class="st3" points="811,290.3 740.1,425.1 874.4,399 924.1,389.7 			"/>
			<polygon class="st4" points="924.1,389.7 874.4,399 811,290.3 			"/>
			
				<linearGradient id="SVGID_1_" gradientUnits="userSpaceOnUse" x1="810.3235" y1="634.7095" x2="810.3235" y2="527.2527" gradientTransform="matrix(0.9826 -0.1857 0.1857 0.9826 -103.4783 -20.5824)">
				<stop  offset="0" style="stop-color:#808080;stop-opacity:0.25"/>
				<stop  offset="0.54" style="stop-color:#808080;stop-opacity:0.12"/>
				<stop  offset="1" style="stop-color:#808080;stop-opacity:0.1"/>
			</linearGradient>
			<path class="st18" d="M848.3,352.8c-0.5-1.8-2.3-3-4.1-2.8c0,0,0.9-7.4-14.3-4.4c-0.9-1.9-3.3-2.7-5.2-1.8
				c-0.3,0.2-0.6,0.4-0.8,0.6l-0.7-3.4c0,0-8.4,4.8,0.5,11.7l1,5.7c0,0.2,0.1,0.3,0.1,0.4c0.1,0.1,0.1,0.2,0.1,0.3
				c0.4,1.7,3.4,14.7-3.4,19.2c-7.3,4.8-11.4-10.1-11.4-10.1c-4.7-19.5-13.7-19.4-15.8-19.1c-0.3,0-0.5,0.1-0.8,0.1
				c-1,0.1-4.1,1.1-5.3,12.4c-1.4,13.5-6.6,10.2-6.6,10.2c-11.6-6.3-19.8-0.8-19.8-0.8c-20.2,11.9-3,34,0.5,38.3
				c-1.3,6.7-4.1,18.5-6.6,19c-3.7,0.7-10.5,13.6,8,33.5l4.9-0.9c0,0-15.3-19.9-3.2-29.8c-0.3,0.8-0.6,1.4-0.9,2.1
				c-6.7,11.5,16.1,25.4,16.1,25.4l5.5-1l-12.5-16.2c-5-6.6,4.3-12,4.3-12c11.1-9.3,5.4-20.5,5.4-20.5l25.9-4.9
				c-3.2,7.1-7.9,24.5,7.7,47.4l3.7-0.7l-3-27.8c0,0,0.9-6,7.3-15c2.5,11.3,7.9,30.8,15.9,39l5.3-1c0,0-6.4-18.5-6.6-25.4
				c-0.1-2.8-0.2-5.7-0.5-8.4l-1.3-14.6c4.3-2.7,6.6-8,5.6-13.1l-4.9-25.4c-0.3-1.4,0.7-2.8,2.1-3.1c0.1,0,0.1,0,0.2,0l6.2-0.8
				c0.8-0.2,1.4-0.9,1.2-1.8C848.3,352.9,848.3,352.9,848.3,352.8z"/>
			<path class="st19" d="M822.9,399.3c0,0,5.8,35,17.3,46.5l5.2-0.9c0,0-6.3-18.2-6.5-25c-0.1-2.7-0.2-5.5-0.5-8.3l-2.2-23.6
				L822.9,399.3z"/>
			<path class="st2" d="M822.9,399.3c0,0,5.8,35,17.3,46.5l5.2-0.9c0,0-6.3-18.2-6.5-25c-0.1-2.7-0.2-5.5-0.5-8.3l-2.2-23.6
				L822.9,399.3z"/>
			<path class="st19" d="M764,404.3c0,0-3.8,22.4-7.4,23.1c-3.6,0.7-10.3,13.3,7.9,32.9l4.8-0.9c0,0-16.8-21.9-0.8-30.9
				C768.5,428.5,771.3,409.8,764,404.3z"/>
			<path class="st2" d="M764,404.3c0,0-3.8,22.4-7.4,23.1c-3.6,0.7-10.3,13.3,7.9,32.9l4.8-0.9c0,0-16.8-21.9-0.8-30.9
				C768.5,428.5,771.3,409.8,764,404.3z"/>
			<path class="st19" d="M824.3,359l-1-5.6c-8.7-6.7-0.5-11.4-0.5-11.4l1.1,5.9c20.6-5.9,19.5,3,19.5,3c1.8-0.2,3.5,0.9,4.1,2.7
				c0.3,0.8-0.1,1.7-0.9,2c-0.1,0-0.2,0.1-0.3,0.1l-6.1,0.8c-1.4,0.2-2.5,1.5-2.3,2.9c0,0.1,0,0.1,0,0.2l4.8,24.9
				c0.7,3.6-0.2,7.4-2.5,10.2c-1.8,2.2-4.6,4.1-9.1,4.8l-47.3,9c0,0,5.7,11-5.3,20.2c0,0-9.2,5.3-4.2,11.8l12.4,15.6l-5.4,1
				c0,0-22.4-13.6-15.8-24.9c3.7-7.3,3.1-16-1.5-22.7c0,0-23-25.4-1.1-38.3c0,0,8.1-5.5,19.5,0.8c0,0,5.1,3.3,6.5-10
				c1.1-11,4.2-12.2,5.2-12.3c0.3,0,0.5,0,0.8-0.1c2.1-0.3,10.9-0.4,15.6,18.8c0,0,4.1,14.6,11.1,10c6.6-4.3,3.8-17.2,3.3-18.8
				c0-0.1-0.1-0.2-0.1-0.3l0,0C824.3,359.3,824.3,359.2,824.3,359z"/>
			<path class="st19" d="M810.9,400.3c0,0-14.6,20.3,5.7,50l3.6-0.7l-2.9-27.3c0,0,1.7-11.5,17.4-26.5L810.9,400.3z"/>
			<ellipse class="st19" cx="825.9" cy="348.4" rx="3.9" ry="3.9"/>
			
				<linearGradient id="SVGID_2_" gradientUnits="userSpaceOnUse" x1="799.9288" y1="583.0634" x2="799.9288" y2="496.8054" gradientTransform="matrix(0.9826 -0.1857 0.1857 0.9826 -103.4783 -20.5824)">
				<stop  offset="0" style="stop-color:#808080;stop-opacity:0.25"/>
				<stop  offset="0.54" style="stop-color:#808080;stop-opacity:0.12"/>
				<stop  offset="1" style="stop-color:#808080;stop-opacity:0.1"/>
			</linearGradient>
			<path class="st20" d="M809.8,373.5c4.4-6.7,1.8-7.2,0.1-9c-1.1-1.2-11-1.7-17.2-1.9c-0.1-0.5-0.4-1.2-0.6-2.3c0,0-0.5-1.8-0.8-3
				l0,0h0.4l-0.1-0.4l7.5-0.4c6.4-0.3,6.8-2.8,6.8-2.8c0.2-4.4-7.1-0.2-7.1-0.2c-1.4,0.8-5.3,0.2-8.3-0.4c-0.1-0.7-0.1-1.2-0.2-1.9
				c0-0.9,0-2-0.2-2.9c-0.1-0.8-0.5-1.6-0.9-2.3c-2.2-2.6-4.8-5-7.6-7c-0.2-1.7,0-3.3,0.5-4.9c2.4-1.2,3.7-3.8,3.2-6.4
				c-0.1-0.6-0.3-1.1-0.6-1.7c1.3-1.8,0.8-4.8-1.1-6.5c-0.2-0.2-0.4-0.4-0.7-0.5c-1.2-0.8-2.6-1.1-4.1-0.9c-1.6,0.3-3.1,0.8-4.4,1.8
				c-1.6,1-3.1,2.4-5,2.6c-1.4,0.2-2.8-0.3-4.1,0.1c-1.7,0.6-2.5,2.4-3.1,4.1c-0.6,1.7-1,3.5-2.5,4.5c-1.3,0.8-2.9,0.8-4.5,1.2
				c-2.2,0.5-4,2-4.7,4c-0.7,1.9,0.1,3.9,1.7,5c0.3,0.2,0.6,0.4,0.8,0.5c0.3,0.1,0.7,0.2,0.9,0.4c0.2,0.1,0.3,0.3,0.3,0.5
				c0,0.3-0.1,0.5-0.2,0.8c-0.4,1-0.3,2.2,0.3,3.2c0.2,0.4,0.5,0.7,0.8,0.8c0.1,0.1,0.2,0.2,0.3,0.2c1.1,0.5,2.5-0.6,3.6-0.1h0.1
				c0.5,0.5,0.8,0.9,1.1,1.5c0.3,0.3,0.6,0.6,0.9,0.8c0.9,0.7,2.1,0.8,3.3,0.7c1.4-0.3,2.8-0.8,4.1-1.6c1.7-0.9,3.5-2.3,3.6-4.1
				c0.1-1.1-0.5-2.3-0.4-3.4c0.1-0.6,0.3-1,0.7-1.5c-0.2,0.9-0.3,1.9-0.2,2.9c0,0.8,0.1,1.6,0.3,2.4c0.4,2,1.1,4,2.2,5.7
				c1.4,2.3,2.5,4.8,3.1,7.4c0.2,1.1,0.3,2.4,0.1,3.5c-0.6,3.4-0.6,4.8-0.4,5.5c0.1,0.8,0.4,0.8,0.4,0.8h0.1c0.1,1.1,0.6,2.3,1.5,3
				c8.5,3.5,25.9-1.5,25.9-1.5c-3.5,1.2-6,10.8-6,10.8c-0.4,2.1-1.2,4.1-2.5,5.7l0,0c-1.9-0.3-4.1,1.8-5.7,3l-0.2,0.1
				c-0.7,0.5-0.8,1.3-0.4,1.9c0,0.1,0.1,0.1,0.1,0.2l6.7,7.4c3.9,2.7,6,2.9,6.7,2.2c0.4-0.5,0.1-1.4-0.8-2.3c-2.3-2.1-2-9-1.9-9.6
				C802,386.9,806,379.1,809.8,373.5z"/>
			<path class="st21" d="M782.7,333.4c0,0-2,4.4-0.7,8.3l-7.3-3.9c0,0,2.3-0.7,1.8-6.1L782.7,333.4z"/>
			<path class="st22" d="M787.6,363c0,0,19.1,0.3,20.8,2c1.7,1.7,4.1,2.2,0,8.8s-8.7,15.9-8.7,15.9l-4.9-2.3
				c1.8-1.9,2.9-4.2,3.4-6.8c0,0,2.4-9.3,5.7-10.6c0,0-16.4,4.8-24.5,1.3c0,0-2.2-1.6-1.1-5.2C779.3,362.7,787.6,363,787.6,363z"/>
			<path class="st4" d="M777,338.1c0,0-4.8-1.1-4.4,6.1c0.1,2.6,0.9,5.3,2.3,7.5c1.6,2.6,3.8,7.3,3.1,11c-0.9,5.7,0,5.7,0,5.7
				l2.5-1.5c3.3-2,7.1-3.1,10.9-3.1h1.1c0,0-2.3-8.3-2.4-11.9c0-1.7,0-3.3-1-4.7C785.9,343.1,779.3,338.1,777,338.1z"/>
			<path class="st23" d="M776.9,337.8c0,0-4.8-1.1-4.4,6.1c0.1,2.6,0.9,5.3,2.3,7.5c1.6,2.6,3.8,7.3,3.1,11c-0.9,5.7,0,5.7,0,5.7
				l2.5-1.5c3.3-2,7.1-3.1,10.9-3.1h1.1c0,0-2.3-8.3-2.4-11.9c0-1.7,0-3.3-1-4.7C785.8,342.8,779.2,337.8,776.9,337.8z"/>
			<path class="st4" d="M775.1,343.6c0.7-1.8,2.6-2.7,4.4-2.1c0.5,0.2,0.8,0.5,1.2,0.8c0.8,0.8,1.3,1.7,1.7,2.6c2.3,5.2,4,8.4,4,8.4
				c1.4,0.2,2.9,0.6,4.3,1c0.2,1.8,0.5,3.6,0.5,3.6l-6.1,0.3l-8.4-9.9C776.8,348.3,774.3,346.3,775.1,343.6z"/>
			<path class="st21" d="M775,343.2c0.7-1.8,2.6-2.7,4.4-2.1c0.5,0.2,0.8,0.5,1.2,0.8c0.8,0.8,1.3,1.7,1.7,2.6c2.3,5.2,4,8.4,4,8.4
				s9.2,2.5,11.6,1.3c0,0,6.9-4.1,6.7,0.2c0,0-0.3,2.5-6.4,2.7l-13.3,0.7l-8.4-9.9C776.8,347.9,774.2,345.8,775,343.2z"/>
			<path class="st4" d="M776.1,334.2c0.2-0.8,0.6-0.6,0.5-2.1l6,1.6c-0.3,0.7-0.5,1.2-0.7,1.9c-0.6,0.2-1.2,0.3-1.9,0.4
				C778.8,336.4,777.3,334.8,776.1,334.2z"/>
			<ellipse class="st21" cx="779.3" cy="330.2" rx="5.8" ry="5.8"/>
			<path class="st4" d="M781.8,328.8c-1,0.1-2.2-0.3-3,0.3c-0.8,0.6-1.1,2.1-0.9,3.2c0.2,1.1,0.7,2.4,0.4,3.5
				c-0.4,1.5-1.9,2.5-3.2,3.3c-1.3,0.8-2.8,1.9-3,3.4c-0.1,1.1,0.5,2.2,0.4,3.3c-0.1,1.8-1.8,3.1-3.4,4c-1.1,0.8-2.5,1.3-3.8,1.5
				c-1.4,0.3-2.8-0.3-3.7-1.3c-0.5-0.6-0.7-1.4-1.3-1.7c-1-0.5-2.4,0.6-3.4,0.1c-0.4-0.2-0.7-0.5-0.8-0.8c-0.5-0.9-0.6-2.1-0.3-3.1
				c0.1-0.2,0.2-0.5,0.2-0.8c-0.1-0.6-0.8-0.8-1.4-1c-1.9-0.9-2.8-3.1-2.2-5.2c0.8-2,2.5-3.4,4.5-3.9c1.4-0.4,3-0.4,4.2-1.1
				c1.4-0.9,1.9-2.7,2.4-4.3s1.3-3.4,2.9-3.9c1.2-0.4,2.6,0.1,3.9-0.1c1.8-0.2,3.3-1.5,4.7-2.5c1.2-0.9,2.7-1.5,4.2-1.8
				c1.5-0.3,3.1,0.2,4.3,1.2C785.9,323.4,786.1,328.6,781.8,328.8z"/>
			<path class="st24" d="M781.5,328.7c-1,0.1-2.2-0.3-3,0.3s-1.1,2.1-0.9,3.2c0.2,1.1,0.7,2.4,0.4,3.5c-0.4,1.5-1.9,2.5-3.2,3.3
				c-1.3,0.8-2.8,1.9-3,3.4c-0.1,1.1,0.5,2.2,0.4,3.3c-0.1,1.8-1.8,3.1-3.4,4c-1.1,0.8-2.5,1.3-3.8,1.5c-1.4,0.3-2.8-0.3-3.7-1.3
				c-0.5-0.6-0.7-1.4-1.3-1.7c-1-0.5-2.4,0.6-3.4,0.1c-0.4-0.2-0.7-0.5-0.8-0.8c-0.5-0.9-0.6-2.1-0.3-3.1c0.1-0.2,0.2-0.5,0.2-0.8
				c-0.1-0.6-0.8-0.8-1.4-1c-1.9-0.9-2.8-3.1-2.2-5.2c0.8-2,2.5-3.4,4.5-3.9c1.4-0.4,3-0.4,4.2-1.1c1.4-0.9,1.9-2.7,2.4-4.3
				c0.5-1.6,1.3-3.4,2.9-3.9c1.2-0.4,2.6,0.1,3.9-0.1c1.8-0.2,3.3-1.5,4.7-2.5c1.2-0.9,2.7-1.5,4.2-1.8s3.1,0.2,4.3,1.2
				C785.8,323.3,785.9,328.4,781.5,328.7z"/>
			<path class="st4" d="M783.3,343.4c0,0-7.5,0.5-6.9,5.7c0.7,5.3-2.6-6-2.6-6l2.9-3.2l4.1,0.5L783.3,343.4z"/>
			<path class="st23" d="M783,343.3c0,0-7.5,0.5-6.9,5.7c0.7,5.3-2.6-6-2.6-6l2.9-3.2l4.1,0.5L783,343.3z"/>
			<path class="st23" d="M790,391.3l6.3,7.2c3.7,2.6,5.7,2.8,6.3,2.1c0.4-0.5,0.1-1.4-0.8-2.3c-2.3-2.2-1.9-9.4-1.9-9.4
				c-1.9,0.1-3.5-1-4.2-2.7c-1.8-0.3-3.9,1.8-5.5,2.9l-0.1,0.1c-0.7,0.5-0.8,1.3-0.3,1.9C789.9,391.2,790,391.3,790,391.3z"/>
			<path class="st4" d="M800.1,388.9c0,0-3.6,0.5-4.2-2.7C796.6,387.9,798.2,388.9,800.1,388.9z"/>
			<path class="st4" d="M790,391.3l6.3,7.2c3.7,2.6,5.7,2.8,6.3,2.1c-1.8-0.6-7-2.8-12.3-11.4l-0.1,0.1c-0.7,0.5-0.8,1.3-0.3,1.9
				C790,391.2,790,391.3,790,391.3z"/>
			<path class="st3" d="M686,447.5c0,0-16.8,15,21.5,26c0,0,5-15.7-5.7-25.8c-4.3-4.1-10.9-4.2-15.6-0.5L686,447.5z"/>
			<path class="st25" d="M686.2,447.2c0,0,18.6,9.3,21.3,26.3"/>
			<path class="st26" d="M706.5,473.6c0,0-9.7-19-5.5-35.2c1.8-6.8,1.4-14-1.2-20.5c-1.2-3.1-2.8-6-4.6-8.9"/>
			<path class="st3" d="M697.7,398.8c0.5,2.5-2.6,10.5-2.6,10.5s-5.8-6.3-6.3-8.8c-0.5-2.5,1.1-4.9,3.6-5.3
				C694.9,394.7,697.3,396.4,697.7,398.8L697.7,398.8z"/>
			<path class="st3" d="M707.7,411.1c-0.9,2.4-7.9,7.4-7.9,7.4s-1.4-8.5-0.5-10.8c0.9-2.4,3.6-3.5,5.9-2.5
				C707.6,406.1,708.8,408.7,707.7,411.1L707.7,411.1z"/>
			<path class="st3" d="M711.9,434.6c-2,1.5-10.6,2.4-10.6,2.4s3-8,5-9.6c2-1.5,4.9-1.1,6.4,0.8
				C714.2,430.2,713.8,433.1,711.9,434.6L711.9,434.6z"/>
			<path class="st3" d="M710.9,453c-1.7,1.9-10,4.1-10,4.1s1.6-8.5,3.3-10.3c1.7-1.9,4.6-2,6.4-0.3
				C712.4,448.3,712.7,451.2,710.9,453L710.9,453z"/>
			<path class="st3" d="M690.6,420.7c2.1,1.4,10.6,1.6,10.6,1.6s-3.6-7.8-5.7-9.2c-2.1-1.4-4.9-0.8-6.3,1.3
				C687.8,416.6,688.4,419.4,690.6,420.7L690.6,420.7L690.6,420.7z"/>
			<path class="st3" d="M689.7,442.4c2.5,0.7,10.6-1.7,10.6-1.7s-5.7-6.4-8.2-7.1s-4.9,0.7-5.7,3.1
				C686,439.1,687.4,441.6,689.7,442.4L689.7,442.4L689.7,442.4z"/>
			<path class="st3" d="M691.9,463.4c2.3,1.1,10.8,0.2,10.8,0.2s-4.6-7.3-6.9-8.4c-2.3-1.1-5-0.2-6.1,2.1
				C688.6,459.6,689.6,462.4,691.9,463.4L691.9,463.4z"/>
			<path class="st27" d="M697.7,398.8c0.5,2.5-2.6,10.5-2.6,10.5s-5.8-6.3-6.3-8.8c-0.5-2.5,1.1-4.9,3.6-5.3
				C694.9,394.7,697.3,396.4,697.7,398.8L697.7,398.8z"/>
			<path class="st27" d="M707.7,411.1c-0.9,2.4-7.9,7.4-7.9,7.4s-1.4-8.5-0.5-10.8c0.9-2.4,3.6-3.5,5.9-2.5
				C707.6,406.1,708.8,408.7,707.7,411.1L707.7,411.1z"/>
			<path class="st27" d="M711.9,434.6c-2,1.5-10.6,2.4-10.6,2.4s3-8,5-9.6c2-1.5,4.9-1.1,6.4,0.8
				C714.2,430.2,713.8,433.1,711.9,434.6L711.9,434.6z"/>
			<path class="st27" d="M710.9,453c-1.7,1.9-10,4.1-10,4.1s1.6-8.5,3.3-10.3c1.7-1.9,4.6-2,6.4-0.3
				C712.4,448.3,712.7,451.2,710.9,453L710.9,453z"/>
			<path class="st27" d="M690.6,420.7c2.1,1.4,10.6,1.6,10.6,1.6s-3.6-7.8-5.7-9.2c-2.1-1.4-4.9-0.8-6.3,1.3
				C687.8,416.6,688.4,419.4,690.6,420.7L690.6,420.7L690.6,420.7z"/>
			<path class="st27" d="M689.7,442.4c2.5,0.7,10.6-1.7,10.6-1.7s-5.7-6.4-8.2-7.1s-4.9,0.7-5.7,3.1
				C686,439.1,687.4,441.6,689.7,442.4L689.7,442.4L689.7,442.4z"/>
			<path class="st27" d="M691.9,463.4c2.3,1.1,10.8,0.2,10.8,0.2s-4.6-7.3-6.9-8.4c-2.3-1.1-5-0.2-6.1,2.1
				C688.6,459.6,689.6,462.4,691.9,463.4L691.9,463.4z"/>
			<path class="st26" d="M724.9,477.3c0,0-9.7-19-5.5-35.2c1.8-6.8,1.4-13.9-1.2-20.5c-1.2-3.1-2.8-6-4.6-8.9"/>
			<path class="st3" d="M716.2,402.4c0.5,2.5-2.6,10.5-2.6,10.5s-5.8-6.3-6.3-8.8s1.1-4.9,3.6-5.3
				C713.3,398.4,715.7,400,716.2,402.4L716.2,402.4z"/>
			<path class="st3" d="M726.2,414.7c-0.9,2.4-7.9,7.4-7.9,7.4s-1.4-8.5-0.5-10.8c0.9-2.4,3.6-3.5,5.9-2.5
				C726,409.7,727.1,412.4,726.2,414.7L726.2,414.7z"/>
			<path class="st3" d="M730.2,438.1c-2,1.5-10.6,2.4-10.6,2.4s3-8,5-9.6c2-1.5,4.9-1.1,6.4,0.8
				C732.6,433.8,732.2,436.6,730.2,438.1L730.2,438.1L730.2,438.1z"/>
			<path class="st3" d="M729.4,456.6c-1.7,1.9-10,4.1-10,4.1s1.6-8.5,3.3-10.3c1.7-1.9,4.6-2,6.4-0.3
				C730.9,451.9,731.1,454.8,729.4,456.6L729.4,456.6L729.4,456.6z"/>
			<path class="st3" d="M708.9,424.4c2.1,1.4,10.6,1.6,10.6,1.6s-3.6-7.8-5.7-9.2c-2.1-1.4-4.9-0.8-6.3,1.3
				C706.2,420.2,706.9,423,708.9,424.4L708.9,424.4z"/>
			<path class="st3" d="M708.2,446c2.5,0.7,10.6-1.7,10.6-1.7s-5.7-6.4-8.2-7.1s-4.9,0.7-5.7,3.1C704.3,442.7,705.7,445.2,708.2,446
				L708.2,446L708.2,446z"/>
			<path class="st3" d="M710.3,467c2.3,1.1,10.8,0.2,10.8,0.2s-4.6-7.3-6.9-8.4c-2.3-1.1-5-0.2-6.1,2.1
				C707.1,463.2,708,465.9,710.3,467L710.3,467L710.3,467z"/>
			<path class="st16" d="M763.8,303.1l-1.7,0.3c0.7-0.1,1-0.8,0.9-1.4c-0.1-0.7-0.8-1-1.4-0.9l0,0l-13.4,2.5c-0.7,0.1-1,0.8-0.9,1.4
				c0.1,0.7,0.8,1,1.4,0.9l0,0l1.7-0.3c-0.7,0.1-1,0.8-0.9,1.4c0.1,0.7,0.8,1,1.4,0.9l-2.4,0.5c-0.7,0.1-1,0.8-0.9,1.4
				c0.1,0.7,0.8,1,1.4,0.9l0,0l13.4-2.5c0.7-0.1,1-0.8,0.9-1.4s-0.8-1-1.4-0.9l2.4-0.5c0.7-0.1,1-0.8,0.9-1.4
				C765,303.4,764.5,302.9,763.8,303.1z"/>
			<path class="st16" d="M739.5,326.1l-1.7,0.3c0.7-0.1,1-0.8,0.9-1.4s-0.8-1-1.4-0.9l-13.5,2.5c-0.7,0.1-1,0.8-0.9,1.4
				c0.1,0.7,0.8,1,1.4,0.9l1.7-0.3c-0.7,0.1-1,0.8-0.9,1.4s0.8,1,1.4,0.9l0,0l-2.4,0.5c-0.7,0.1-1,0.8-0.9,1.4s0.8,1,1.4,0.9
				l13.5-2.5c0.7-0.1,1-0.8,0.9-1.4s-0.8-1-1.4-0.9l0,0l2.4-0.5c0.7-0.1,1-0.8,0.9-1.4C740.7,326.4,740.1,326,739.5,326.1
				L739.5,326.1L739.5,326.1z"/>
			<path class="st16" d="M876.8,296.7l-1.7,0.3c0.7-0.1,1-0.8,0.9-1.4s-0.8-1-1.4-0.9l0,0l-13.4,2.5c-0.7,0.1-1,0.8-0.9,1.4
				c0.1,0.7,0.8,1,1.4,0.9l1.7-0.3c-0.7,0.1-1,0.8-0.9,1.4s0.8,1,1.4,0.9l0,0l-2.4,0.4c-0.7,0.1-1,0.8-0.9,1.4s0.8,1,1.4,0.9
				l13.4-2.5c0.7-0.1,1-0.8,0.9-1.4c-0.1-0.7-0.8-1-1.4-0.9l2.4-0.5c0.7-0.1,1-0.8,0.9-1.4C878,297,877.5,296.5,876.8,296.7
				L876.8,296.7z"/>
			<ellipse class="st17" cx="697.4" cy="326" rx="12.5" ry="12.5"/>
			<path class="st2" d="M772.1,390.6c0,0,6.3,5.6,9.2,10.5c2.9,4.9,2,6.6,2,6.6"/>
		</g>
	</g>
</g>
</svg>
