<?xml version="1.0" encoding="utf-8"?>
<!-- Generator: Adobe Illustrator 19.0.0, SVG Export Plug-In . SVG Version: 6.00 Build 0)  -->
<svg version="1.1" id="图层_1" xmlns="http://www.w3.org/2000/svg" xmlns:xlink="http://www.w3.org/1999/xlink" x="0px" y="0px"
	 viewBox="-917 917.7 1000 1000" style="enable-background:new -917 917.7 1000 1000;" xml:space="preserve">
<style type="text/css">
	.st0{opacity:0.1;fill:#6C63FF;enable-background:new    ;}
	.st1{fill:#DC9BA3;}
	.st2{opacity:5.000000e-02;enable-background:new    ;}
	.st3{fill:#6C63FF;}
	.st4{opacity:0.1;enable-background:new    ;}
	.st5{fill:#FFD2D9;}
	.st6{fill:#E9E9EF;}
	.st7{fill:#CEDAD5;}
	.st8{fill:#844F6E;}
	.st9{opacity:5.000000e-02;}
	.st10{opacity:0.2;fill:#FFFFFF;enable-background:new    ;}
	.st11{opacity:5.000000e-02;fill:#00FF00;enable-background:new    ;}
	.st12{fill:#7679B4;}
	.st13{fill:#565388;}
	.st14{opacity:0.2;fill:#6C63FF;enable-background:new    ;}
	.st15{opacity:0.2;}
	.st16{opacity:0.1;fill:#252223;enable-background:new    ;}
	.st17{opacity:0.3;fill:#6C63FF;enable-background:new    ;}
	.st18{fill:url(#SVGID_1_);}
	.st19{fill:#535461;}
	.st20{fill:url(#SVGID_2_);}
	.st21{fill:#F9D5C6;}
	.st22{fill:#353535;}
	.st23{fill:#409CD6;}
	.st24{fill:#2F302F;}
	.st25{fill:none;stroke:#535461;stroke-miterlimit:10;}
	.st26{fill:none;stroke:#535461;stroke-width:2;stroke-miterlimit:10;}
	.st27{opacity:0.25;enable-background:new    ;}
</style>
<g id="_x23_background">
	<path class="st0" d="M-623.7,1407.6c-23.1,10.6-44.4,25.4-68.4,33.6c-29.3,10-60.9,9.9-91.8,9.6l-124.9-0.9
		c25.3,45.4,69.9,79.6,120.4,92.2c19.8,4.9,40.9,6.9,58.3,17.4c21.8,13.2,34.7,38,56.7,50.6c24.4,13.9,54.7,10.1,81.8,17
		c35.4,8.9,65,35.6,101.1,40.9c35,5.1,69-10.6,102.8-20.6c120.9-35.6,251.5,2.5,376.3-15.2c4.8-0.7,9.9-1.6,13.4-5
		c4.4-4.3,4.8-11.3,4-17.5c-4.4-30.8-32.2-53.5-61.3-64.7c-62-23.8-131.7-8.9-197.5-17.4c-45.2-5.9-88.3-22.9-130.7-39.8
		c-44.5-17.6-89.6-35-131.8-57.8C-557.8,1406.7-571.8,1383.6-623.7,1407.6z"/>
</g>
<g id="_x23_man_x28_lie_x5F_on_x5B_sofa_x5D__x2C_watch_x5B_movie_x5D__x29_">
	<g>
		<path class="st1" d="M-232.8,1571.4c0,0,1.9,28.3-1.9,33c0,0,82.9,15.1,93.3,10.4c10.4-4.7,5.7-12.3,0-15.1
			c-5.7-2.8-33.9-13.2-37.7-33c0,0,12.3-5.7-27.3,1.9C-246,1576.1-232.8,1571.4-232.8,1571.4z"/>
		<path class="st2" d="M-232.8,1571.4c0,0,1.9,28.3-1.9,33c0,0,82.9,15.1,93.3,10.4c10.4-4.7,5.7-12.3,0-15.1
			c-5.7-2.8-33.9-13.2-37.7-33c0,0,12.3-5.7-27.3,1.9C-246,1576.1-232.8,1571.4-232.8,1571.4z"/>
		<path class="st3" d="M-556.3,1177.6l-0.4,0.2c-17.2,8.1-31.9,20.2-43.4,35.3c-6.4,8.5-14.3,16.6-21.9,17.9
			c-16.7,2.9-139.3,130.5-109.9,249.3c29.4,118.8,201.3,123.6,201.3,123.6s36.6,6.2,57.5,18.6c9.9,5.8,21.9,7,32.8,3.1
			c25-8.9,66-21.8,84.4-17.8c27.5,5.8,263-92.3,263-92.3s-98.1-94.2-242.4-92.3c0,0-227.6-159-219.8-224.7L-556.3,1177.6z"/>
		<path class="st4" d="M-556.3,1177.6l-0.4,0.2c-17.2,8.1-31.9,20.2-43.4,35.3c-6.4,8.5-14.3,16.6-21.9,17.9
			c-16.7,2.9-139.3,130.5-109.9,249.3c29.4,118.8,201.3,123.6,201.3,123.6s36.6,6.2,57.5,18.6c9.9,5.8,21.9,7,32.8,3.1
			c25-8.9,66-21.8,84.4-17.8c27.5,5.8,263-92.3,263-92.3s-98.1-94.2-242.4-92.3c0,0-227.6-159-219.8-224.7L-556.3,1177.6z"/>
		<path class="st3" d="M-556.1,1177.4l-23.6,22.6c0,0-17.9,34.9-33.9,37.7s-133.8,125.3-105.6,239.4S-526,1595.9-526,1595.9
			s34.3,5.8,54.5,17.4c9.9,5.8,21.9,7,32.7,3.2c24-8.5,63-20.6,80.5-16.9c26.4,5.7,252.6-88.6,252.6-88.6s-94.2-90.5-232.8-88.6
			c0,0-218.7-152.7-211.1-215.8L-556.1,1177.4z"/>
		
			<ellipse transform="matrix(-0.7071 0.7071 -0.7071 -0.7071 177.1919 2813.4739)" class="st4" cx="-494.1" cy="1443.4" rx="74.4" ry="135.3"/>
		<path class="st5" d="M-556.1,1297.1c0,0,10.4,17,3.8,50c-6.6,33,17,33,17,33h47.1l16-41.5l-22.6,1.9c0,0-15.1-3.8-8.5-38.6
			L-556.1,1297.1z"/>
		<path class="st5" d="M-414.7,1257.5c-7.3,23-16.2,50.9-21.1,65.8l-3.4,10.6l-31.1-32c0,0,1.4-3.2,3.4-7.6
			c4.5-9.9,12.4-25.9,16.4-27.2c0,0-43.4-2.8-56.5,7.5c-13.2,10.4-9.4-28.3-9.4-28.3s25.4-1.9,34.9-7.5c9.4-5.7,60.3-11.3,60.3-11.3
			S-404.4,1224.6-414.7,1257.5z"/>
		<path class="st4" d="M-585.3,1542.2c0,0,80.1-36.8,108.4-31.1"/>
		<path class="st4" d="M-667.3,1455.5c0,0,97.1-3.8,149.9,30.2"/>
		<path class="st4" d="M-619.3,1494.1c0,0,76.3-18.8,116.9-12.3"/>
		<path class="st5" d="M-132,1534.6l-6.6,48.1l-17-1.9c0,0-1-0.9-2.7-2.5c-4.5-4.1-14-11.9-23.2-16.2c-3.1-1.6-6.4-2.5-9.9-2.9
			l18.8-28.3c4.6,1.7,9.3,3.1,14,4.1c5,1.1,10.1,1.8,15.2,1.8C-139.4,1536.9-135.6,1536.1-132,1534.6z"/>
		<path class="st6" d="M-179.1,1568.6c-8.5,7.5-47.1-8.5-53.7,16l-6-23.3l-18.8-71.4l-2.5-9.9l-15.6-0.7l-178.7-7.6l-10.2-0.4
			l-5.4-0.2l7.1-3.5l47.1-23.4c0,0,17-1.2,40.3-4.4l0,0c35.5-4.9,85.8-14.3,114.1-31.4c47.1-28.3,65,66.9,65,66.9s7.2,24.1,12.6,48
			c2.6,11.3,4.8,22.6,5.7,31.2C-177,1561.7-177.2,1567-179.1,1568.6z"/>
		<path class="st2" d="M-179.1,1568.6c-8.5,7.5-47.1-8.5-53.7,16l-6-23.3l-18.8-71.4l-2.5-9.9l-16-0.9l-172.7-10.6l-10.6-0.7
			l-3.3-0.2l-4.2-0.3l51.4-23.1c0,0,17-1.2,40.3-4.4l0,0c35.5-4.9,85.8-14.3,114.1-31.4c47.1-28.3,65,66.9,65,66.9s7.2,24.1,12.6,48
			c2.6,11.3,4.8,22.6,5.7,31.2C-177,1561.7-177.2,1567-179.1,1568.6z"/>
		<path class="st4" d="M-158.5,1535l-16.5,19.3l-6.6,7.7c-3.1-1.6-6.4-2.5-9.9-2.9l18.8-28.3C-167.9,1532.6-163.2,1534-158.5,1535z"
			/>
		<path class="st6" d="M-159.3,1532.7l-18.5,21.6l-8.9,10.5v2.8c-10.8,2.5-44.8-4.6-52.2-6.3c-0.9-0.2-1.5-0.3-1.5-0.3
			c-21.7,0.9-101.8-46.2-101.8-46.2s-87.7,15.1-130.1,11.3c-23.7-2.1-30.3-10.6-31.6-17.8c-0.6-3.6-0.1-7.2,1.4-10.5l37.8-26.6
			l5-3.6l8-5.7c0,0,13.9-3.2,31.7-7.1l0,0c27.6-6.1,64.6-14,72-14.6c12.3-0.9,43.4,9.4,61.3,30.2c3.1,3.3,6.6,6.1,10.4,8.5l0.5,0.3
			c5,3.3,11.2,6.9,18.1,10.6c22.8,12.1,53.2,24.9,74.2,33.4C-169.1,1529-159.3,1532.7-159.3,1532.7z"/>
		<path class="st4" d="M-132,1534.6l-6.6,48.1l-17-1.9c0,0-1-0.9-2.7-2.5c3.8,0.1,10-1,11.2-8.8c0,0-6.5-22.8,3.8-32.7
			C-139.4,1536.9-135.6,1536.1-132,1534.6z"/>
		<path class="st1" d="M-145.2,1569.5c0,0-9.4-33,12.3-36.8l35.8,14.1l41.5,2.8c0,0,10.8,17.7-6.5,37.5
			c-9.6,10.8-23.2,17.3-37.7,17.9l-45.3,2.1l-14.1-29.2C-159.3,1578-147.1,1580.8-145.2,1569.5z"/>
		<path class="st4" d="M-375.2,1439.7c-4.7,1.4-24.4,7.3-44.5,15.3l0,0c-10,3.9-19.6,8.3-29,13.4c-2,1.1-3.8,2.2-5.6,3.3
			c-5.3,3.4-9.5,6.8-12.2,10.2c-11.6,15.1-28.7,23.2-37.2,26.5c-0.6-3.6-0.1-7.2,1.4-10.5l37.8-26.6l-5.4-0.2l7.1-3.5l-4.2-0.3
			l51.4-23.1C-415.7,1444.2-398.7,1443-375.2,1439.7z"/>
		<path class="st4" d="M-435.8,1323.3l-3.4,10.6l-31.1-32c0,0,1.4-3.2,3.4-7.6C-463,1302.6-444.2,1317.1-435.8,1323.3z"/>
		<path class="st7" d="M-548,1339c-1.1-3.2-1.9-6.5-2.5-9.8l-40.5,14.1c0,0-27.8,21.2-25,67.4c0,0,34.4-12.7,49.5,2.4l0.3,2.6
			c3.2,26.4,14.9,51,33.2,70.1c7.5,7.8,14.6,16.8,18.3,25.3c0,0,26.4-7.5,42.4-28.3c16-20.7,92.4-42.4,92.4-42.4
			s-40.5,0.9-46.2-13.2c-5.7-14.1-24.5-44.3-17.9-67.9c6.6-23.6,10.4-31.1,10.4-31.1s-38.6-27.3-35.8-35.8l-24.6,28.3l-11.3,3.8
			c0.8,2.2,1.3,4.5,1.3,6.9C-503.2,1357-539.4,1363.1-548,1339z"/>
		<path class="st3" d="M-514.2,1532.3c0,0,91.4-37.7,165.9-1.9l-17.9,37.7l-85.8,1.9L-514.2,1532.3z"/>
		<path class="st4" d="M-504.7,1314.2c0.3-3.5,0.8-7.1,1.4-10.5l-52.8-4.7c0,0,3.7,3.2,5.3,15c6.2,3.7,13.4,8.6,21.1,8.6
			C-520.7,1322.6-511.9,1319.7-504.7,1314.2z"/>
		<circle class="st5" cx="-529.2" cy="1279.7" r="41.5"/>
		<path class="st8" d="M-559.9,1290.5h5.7v-16l5.7-17c0,0,28.3-13.2,41.5-10.4l10.4,9.4c0,0,2.8-22.6-14.1-31.1
			c-17-8.5-47.1-4.7-54.7,1.9c-7.5,6.6-19.8,17.9-10.4,49l2.8,7.5C-573.1,1283.9-561.8,1280.2-559.9,1290.5z"/>
		<g class="st9">
			<path d="M-486.6,1312.3l3.1-1l14.2-16.4c-0.3-0.8-0.3-1.6-0.1-2.5L-486.6,1312.3z"/>
			<path d="M-506.4,1342.6c7.4-3.3,13.2-10.5,12.9-20.7c0-0.6,0-1-0.1-1.6l-0.3,0.4l-11.3,3.8c0.8,2.2,1.3,4.5,1.3,6.9
				C-503.7,1335.3-504.7,1339.3-506.4,1342.6z"/>
			<path d="M-396.5,1439.6c-23.7,8.2-55.6,21.2-65.3,33.7c-0.2,0.3-0.5,0.6-0.8,0.9c25.9-17.7,82.7-33.9,82.7-33.9
				C-385.4,1440.5-391,1440.2-396.5,1439.6z"/>
			<path d="M-504.3,1501.6c-3.8-8.5-10.8-17.4-18.3-25.3c-18.4-19.1-30.1-43.7-33.2-70.1l-0.3-2.6c-15.1-15.1-49.5-2.4-49.5-2.4
				c-1.8-29.3,8.8-48.5,16.7-58.7l-2.1,0.8c0,0-27.8,21.2-25,67.4c0,0,34.4-12.7,49.5,2.4l0.3,2.6c3.2,26.4,14.9,51,33.2,70.1
				c7.5,7.8,14.6,16.8,18.3,25.3c0,0,23-6.6,39-24.3C-484.2,1493.3-493.9,1498.3-504.3,1501.6z"/>
		</g>
		<path class="st5" d="M-514.6,1391.4c0,0-45.2,65-68.8,83.9c-23.6,18.8-30.2-8.5-30.2-8.5v-60.3l41.5-4.7l0.5,5.7l0.5,6.5
			l38.6-41.5c0,0,38.6-34.9,46.2-14.1C-478.7,1379.2-514.6,1391.4-514.6,1391.4z"/>
		<path class="st4" d="M-571.7,1407.5c-5.7,3.3-11.7,5.9-17.9,7.9c-9,2.7-19.1-0.2-24-1.9v-7.1l41.5-4.7L-571.7,1407.5z"/>
		<path class="st7" d="M-614.1,1400.3l-2.5,10.1c0,0,14.7,6.9,27,3.1c12.3-3.8,21.7-10.4,23.6-11.3s-7.5-11.3-7.5-11.3
			L-614.1,1400.3z"/>
		<path class="st4" d="M-342.6,1515.3c6.3-4.8,13.3-8.7,20.7-11.3c7.1-2.5,13.8-5.9,19.8-10.4"/>
		<path class="st10" d="M-55.7,1549.7l-1.5-0.1c2.3,5.7,5.5,19.6-7.8,34.8c-9.6,10.8-23.2,17.3-37.7,17.9l-43.9,2.1l1.4,2.9
			l45.3-2.2c14.5-0.6,28.1-7.1,37.7-17.9C-44.8,1567.4-55.7,1549.7-55.7,1549.7z"/>
		<path class="st11" d="M-269.3,1598.2h-0.2c0.1,2.3,0.4,6.8,0.4,11.9C-269,1605.7-269.2,1601.4-269.3,1598.2z"/>
		<path class="st11" d="M-215.7,1590.1c0.1,0.6,0.3,1.1,0.5,1.7C-214.3,1591.3-213,1590.2-215.7,1590.1z"/>
		<path class="st10" d="M-141.4,1611.9c-9.6,4.4-82.3-8.4-92.2-10.2c-0.2,0.9-0.6,1.8-1.1,2.6c0,0,82.9,15.1,93.3,10.4
			c5.4-2.5,6.7-5.6,5.9-8.5C-136,1608.2-137.7,1610.3-141.4,1611.9z"/>
		<path class="st11" d="M-269.5,1598.2c0-0.9-0.1-1.4-0.1-1.4S-274.4,1598.5-269.5,1598.2z"/>
		<path class="st4" d="M-549.9,1259h57.3c2.2,0,3.9,1.7,3.9,3.9v24.3c0,2.2-1.7,3.9-3.9,3.9h-57.3c-2.2,0-3.9-1.7-3.9-3.9v-24.3
			C-553.8,1260.7-552.1,1259-549.9,1259z"/>
		<path class="st4" d="M-575.9,1269.3h22.7c1.2,0,2.3,1,2.3,2.3v7.6c0,1.2-1,2.3-2.3,2.3h-22.7c-1.2,0-2.3-1-2.3-2.3v-7.6
			C-578.3,1270.4-577.2,1269.3-575.9,1269.3z"/>
		<path class="st12" d="M-549.9,1258h57.3c2.2,0,3.9,1.7,3.9,3.9v24.3c0,2.2-1.7,3.9-3.9,3.9h-57.3c-2.2,0-3.9-1.7-3.9-3.9v-24.3
			C-553.8,1259.7-552.1,1258-549.9,1258z"/>
		<path class="st13" d="M-542.3,1259.9h49.7c2.2,0,3.9,1.7,3.9,3.9v20.5c0,2.2-1.7,3.9-3.9,3.9h-49.7c-2.2,0-3.9-1.7-3.9-3.9v-20.5
			C-546.1,1261.6-544.4,1259.9-542.3,1259.9z"/>
		<path class="st13" d="M-575.9,1268.4h22.7c1.2,0,2.3,1,2.3,2.3v7.6c0,1.2-1,2.3-2.3,2.3h-22.7c-1.2,0-2.3-1-2.3-2.3v-7.6
			C-578.3,1269.4-577.2,1268.4-575.9,1268.4z"/>
		<path class="st4" d="M-502.9,1259.9c10.2-6.1,18.5-15.1,23.9-25.6c0.7-1.2,1.2-2.6,0.8-4c-0.7-2.5-4.1-3-6.4-4.1
			c-4.5-2.1-6.4-7.3-9.3-11.2c-5.2-6.8-13.7-10-22-8.5c-4.3,0.8-8.3,3-12.6,3.7c-9.3,1.3-19.5-4.3-28,0c-3.9,2-6.4,5.7-8.7,9.3
			c-5.7,9.1-12.9,18.8-7.7,29.6c3,6.1,7.7,11.2,14.4,13c6.7,1.8,14.4,0.3,21.3-0.5c5.7-0.6,11.5-1.9,17.2-1.3
			C-513.3,1260.9-509.2,1263.7-502.9,1259.9z"/>
		<path class="st8" d="M-502.9,1258c10.2-6.1,18.5-15.1,23.9-25.6c0.7-1.2,1.2-2.6,0.8-4c-0.7-2.5-4.1-3-6.4-4.1
			c-4.5-2.1-6.4-7.3-9.3-11.2c-5.2-6.8-13.7-10-22-8.5c-4.3,0.8-8.3,3-12.6,3.7c-9.3,1.3-19.5-4.3-28,0c-3.9,2-6.4,5.7-8.7,9.3
			c-5.7,9.1-12.9,18.8-7.7,29.6c3,6.1,7.7,11.2,14.4,13c6.7,1.8,14.4,0.3,21.3-0.5c5.7-0.6,11.5-1.9,17.2-1.3
			C-513.3,1259.1-509.2,1261.8-502.9,1258z"/>
		<polygon class="st14" points="70.2,1366.6 -339.8,1439.9 -339.8,1220.1 70.2,1146.8 		"/>
		<polygon class="st14" points="-14.8,1172.2 61,1159.1 62.2,1193.1 -15.7,1206.1 		"/>
		<g class="st15">
			<path class="st16" d="M-162.2,1361.9c2.5-0.6,5.2-0.8,7.8-0.7c15.6,0.3,31.6,1.8,46.8-2.8c8.1-2.5,15.4-6.4,23.7-8.2
				c14.1-2.9,28.3,1.3,42.2-2.2c2.8-0.8,6.3-1.8,8.3-0.7c2.4,1.2,0.7,4.5,3.5,5.4c0.9,0.1,1.8,0.3,2.6,0.6c1,0.6,0.4,1.9-0.7,2.7
				c-6.3,5.1-19.1,1.7-27,5.8c-1.8,0.9-3.1,2.2-4.7,3.1c-2.6,1.3-5.4,2.4-8.2,3l-43.8,12.3c-10.5,2.9-21.1,5.9-32,7.2
				c-10.8,1.3-22.1,0.8-30.1-2.9c-1.7-0.8-3.3-1.8-4-3.1C-180.8,1375.3-173.2,1364.8-162.2,1361.9z"/>
			<polygon class="st17" points="-200.9,1275.1 -164.2,1304 -127.6,1333 -187.8,1344.4 -248.1,1355.8 -224.5,1315.4 			"/>
			<polygon class="st17" points="-162.8,1268.3 -126.1,1297.3 -89.4,1326.3 -149.6,1337.7 -209.9,1349.2 -186.4,1308.7 			"/>
			<polygon class="st3" points="-106,1208 -176.9,1342.8 -42.6,1316.7 7.1,1307.4 			"/>
			<polygon class="st4" points="7.1,1307.4 -42.6,1316.7 -106,1208 			"/>
			
				<linearGradient id="SVGID_1_" gradientUnits="userSpaceOnUse" x1="-292.9886" y1="1129.2457" x2="-292.9886" y2="1236.7025" gradientTransform="matrix(0.9826 -0.1857 -0.1857 -0.9826 391.1253 2425.4597)">
				<stop  offset="0" style="stop-color:#808080;stop-opacity:0.25"/>
				<stop  offset="0.54" style="stop-color:#808080;stop-opacity:0.12"/>
				<stop  offset="1" style="stop-color:#808080;stop-opacity:0.1"/>
			</linearGradient>
			<path class="st18" d="M-68.7,1270.5c-0.5-1.8-2.3-3-4.1-2.8c0,0,0.9-7.4-14.3-4.4c-0.9-1.9-3.3-2.7-5.2-1.8
				c-0.3,0.2-0.6,0.4-0.8,0.6l-0.7-3.4c0,0-8.4,4.8,0.5,11.7l1,5.7c0,0.2,0.1,0.3,0.1,0.4c0.1,0.1,0.1,0.2,0.1,0.3
				c0.4,1.7,3.4,14.7-3.4,19.2c-7.3,4.8-11.4-10.1-11.4-10.1c-4.7-19.5-13.7-19.4-15.8-19.1c-0.3,0-0.5,0.1-0.8,0.1
				c-1,0.1-4.1,1.1-5.3,12.4c-1.4,13.5-6.6,10.2-6.6,10.2c-11.6-6.3-19.8-0.8-19.8-0.8c-20.2,11.9-3,34,0.5,38.3
				c-1.3,6.7-4.1,18.5-6.6,19c-3.7,0.7-10.5,13.6,8,33.5l4.9-0.9c0,0-15.3-19.9-3.2-29.8c-0.3,0.8-0.6,1.4-0.9,2.1
				c-6.7,11.5,16.1,25.4,16.1,25.4l5.5-1l-12.5-16.2c-5-6.6,4.3-12,4.3-12c11.1-9.3,5.4-20.5,5.4-20.5l25.9-4.9
				c-3.2,7.1-7.9,24.5,7.7,47.4l3.7-0.7l-3-27.8c0,0,0.9-6,7.3-15c2.5,11.3,7.9,30.8,15.9,39l5.3-1c0,0-6.4-18.5-6.6-25.4
				c-0.1-2.8-0.2-5.7-0.5-8.4l-1.3-14.6c4.3-2.7,6.6-8,5.6-13.1l-4.9-25.4c-0.3-1.4,0.7-2.8,2.1-3.1c0.1,0,0.1,0,0.2,0l6.2-0.8
				c0.8-0.2,1.4-0.9,1.2-1.8C-68.7,1270.6-68.7,1270.6-68.7,1270.5z"/>
			<path class="st19" d="M-94.1,1317c0,0,5.8,35,17.3,46.5l5.2-0.9c0,0-6.3-18.2-6.5-25c-0.1-2.7-0.2-5.5-0.5-8.3l-2.2-23.6
				L-94.1,1317z"/>
			<path class="st2" d="M-94.1,1317c0,0,5.8,35,17.3,46.5l5.2-0.9c0,0-6.3-18.2-6.5-25c-0.1-2.7-0.2-5.5-0.5-8.3l-2.2-23.6
				L-94.1,1317z"/>
			<path class="st19" d="M-153,1322c0,0-3.8,22.4-7.4,23.1c-3.6,0.7-10.3,13.3,7.9,32.9l4.8-0.9c0,0-16.8-21.9-0.8-30.9
				C-148.5,1346.2-145.7,1327.5-153,1322z"/>
			<path class="st2" d="M-153,1322c0,0-3.8,22.4-7.4,23.1c-3.6,0.7-10.3,13.3,7.9,32.9l4.8-0.9c0,0-16.8-21.9-0.8-30.9
				C-148.5,1346.2-145.7,1327.5-153,1322z"/>
			<path class="st19" d="M-92.7,1276.7l-1-5.6c-8.7-6.7-0.5-11.4-0.5-11.4l1.1,5.9c20.6-5.9,19.5,3,19.5,3c1.8-0.2,3.5,0.9,4.1,2.7
				c0.3,0.8-0.1,1.7-0.9,2c-0.1,0-0.2,0.1-0.3,0.1l-6.1,0.8c-1.4,0.2-2.5,1.5-2.3,2.9c0,0.1,0,0.1,0,0.2l4.8,24.9
				c0.7,3.6-0.2,7.4-2.5,10.2c-1.8,2.2-4.6,4.1-9.1,4.8l-47.3,9c0,0,5.7,11-5.3,20.2c0,0-9.2,5.3-4.2,11.8l12.4,15.6l-5.4,1
				c0,0-22.4-13.6-15.8-24.9c3.7-7.3,3.1-16-1.5-22.7c0,0-23-25.4-1.1-38.3c0,0,8.1-5.5,19.5,0.8c0,0,5.1,3.3,6.5-10
				c1.1-11,4.2-12.2,5.2-12.3c0.3,0,0.5,0,0.8-0.1c2.1-0.3,10.9-0.4,15.6,18.8c0,0,4.1,14.6,11.1,10c6.6-4.3,3.8-17.2,3.3-18.8
				c0-0.1-0.1-0.2-0.1-0.3l0,0C-92.7,1277-92.7,1276.9-92.7,1276.7z"/>
			<path class="st19" d="M-106.1,1318c0,0-14.6,20.3,5.7,50l3.6-0.7l-2.9-27.3c0,0,1.7-11.5,17.4-26.5L-106.1,1318z"/>
			<ellipse class="st19" cx="-91.1" cy="1266.1" rx="3.9" ry="3.9"/>
			
				<linearGradient id="SVGID_2_" gradientUnits="userSpaceOnUse" x1="-303.258" y1="1180.8805" x2="-303.258" y2="1267.1385" gradientTransform="matrix(0.9826 -0.1857 -0.1857 -0.9826 391.1253 2425.4597)">
				<stop  offset="0" style="stop-color:#808080;stop-opacity:0.25"/>
				<stop  offset="0.54" style="stop-color:#808080;stop-opacity:0.12"/>
				<stop  offset="1" style="stop-color:#808080;stop-opacity:0.1"/>
			</linearGradient>
			<path class="st20" d="M-107.2,1291.2c4.4-6.7,1.8-7.2,0.1-9c-1.1-1.2-11-1.7-17.2-1.9c-0.1-0.5-0.4-1.2-0.6-2.3
				c0,0-0.5-1.8-0.8-3l0,0h0.4l-0.1-0.4l7.5-0.4c6.4-0.3,6.8-2.8,6.8-2.8c0.2-4.4-7.1-0.2-7.1-0.2c-1.4,0.8-5.3,0.2-8.3-0.4
				c-0.1-0.7-0.1-1.2-0.2-1.9c0-0.9,0-2-0.2-2.9c-0.1-0.8-0.5-1.6-0.9-2.3c-2.2-2.6-4.8-5-7.6-7c-0.2-1.7,0-3.3,0.5-4.9
				c2.4-1.2,3.7-3.8,3.2-6.4c-0.1-0.6-0.3-1.1-0.6-1.7c1.3-1.8,0.8-4.8-1.1-6.5c-0.2-0.2-0.4-0.4-0.7-0.5c-1.2-0.8-2.6-1.1-4.1-0.9
				c-1.6,0.3-3.1,0.8-4.4,1.8c-1.6,1-3.1,2.4-5,2.6c-1.4,0.2-2.8-0.3-4.1,0.1c-1.7,0.6-2.5,2.4-3.1,4.1c-0.6,1.7-1,3.5-2.5,4.5
				c-1.3,0.8-2.9,0.8-4.5,1.2c-2.2,0.5-4,2-4.7,4c-0.7,1.9,0.1,3.9,1.7,5c0.3,0.2,0.6,0.4,0.8,0.5c0.3,0.1,0.7,0.2,0.9,0.4
				c0.2,0.1,0.3,0.3,0.3,0.5c0,0.3-0.1,0.5-0.2,0.8c-0.4,1-0.3,2.2,0.3,3.2c0.2,0.4,0.5,0.7,0.8,0.8c0.1,0.1,0.2,0.2,0.3,0.2
				c1.1,0.5,2.5-0.6,3.6-0.1h0.1c0.5,0.5,0.8,0.9,1.1,1.5c0.3,0.3,0.6,0.6,0.9,0.8c0.9,0.7,2.1,0.8,3.3,0.7c1.4-0.3,2.8-0.8,4.1-1.6
				c1.7-0.9,3.5-2.3,3.6-4.1c0.1-1.1-0.5-2.3-0.4-3.4c0.1-0.6,0.3-1,0.7-1.5c-0.2,0.9-0.3,1.9-0.2,2.9c0,0.8,0.1,1.6,0.3,2.4
				c0.4,2,1.1,4,2.2,5.7c1.4,2.3,2.5,4.8,3.1,7.4c0.2,1.1,0.3,2.4,0.1,3.5c-0.6,3.4-0.6,4.8-0.4,5.5c0.1,0.8,0.4,0.8,0.4,0.8h0.1
				c0.1,1.1,0.6,2.3,1.5,3c8.5,3.5,25.9-1.5,25.9-1.5c-3.5,1.2-6,10.8-6,10.8c-0.4,2.1-1.2,4.1-2.5,5.7l0,0c-1.9-0.3-4.1,1.8-5.7,3
				l-0.2,0.1c-0.7,0.5-0.8,1.3-0.4,1.9c0,0.1,0.1,0.1,0.1,0.2l6.7,7.4c3.9,2.7,6,2.9,6.7,2.2c0.4-0.5,0.1-1.4-0.8-2.3
				c-2.3-2.1-2-9-1.9-9.6C-115,1304.6-111,1296.8-107.2,1291.2z"/>
			<path class="st21" d="M-134.3,1251.1c0,0-2,4.4-0.7,8.3l-7.3-3.9c0,0,2.3-0.7,1.8-6.1L-134.3,1251.1z"/>
			<path class="st22" d="M-129.4,1280.7c0,0,19.1,0.3,20.8,2c1.7,1.7,4.1,2.2,0,8.8s-8.7,15.9-8.7,15.9l-4.9-2.3
				c1.8-1.9,2.9-4.2,3.4-6.8c0,0,2.4-9.3,5.7-10.6c0,0-16.4,4.8-24.5,1.3c0,0-2.2-1.6-1.1-5.2
				C-137.7,1280.4-129.4,1280.7-129.4,1280.7z"/>
			<path class="st4" d="M-140,1255.8c0,0-4.8-1.1-4.4,6.1c0.1,2.6,0.9,5.3,2.3,7.5c1.6,2.6,3.8,7.3,3.1,11c-0.9,5.7,0,5.7,0,5.7
				l2.5-1.5c3.3-2,7.1-3.1,10.9-3.1h1.1c0,0-2.3-8.3-2.4-11.9c0-1.7,0-3.3-1-4.7C-131.1,1260.8-137.7,1255.8-140,1255.8z"/>
			<path class="st23" d="M-140.1,1255.5c0,0-4.8-1.1-4.4,6.1c0.1,2.6,0.9,5.3,2.3,7.5c1.6,2.6,3.8,7.3,3.1,11c-0.9,5.7,0,5.7,0,5.7
				l2.5-1.5c3.3-2,7.1-3.1,10.9-3.1h1.1c0,0-2.3-8.3-2.4-11.9c0-1.7,0-3.3-1-4.7C-131.2,1260.5-137.8,1255.5-140.1,1255.5z"/>
			<path class="st4" d="M-141.9,1261.3c0.7-1.8,2.6-2.7,4.4-2.1c0.5,0.2,0.8,0.5,1.2,0.8c0.8,0.8,1.3,1.7,1.7,2.6
				c2.3,5.2,4,8.4,4,8.4c1.4,0.2,2.9,0.6,4.3,1c0.2,1.8,0.5,3.6,0.5,3.6l-6.1,0.3l-8.4-9.9C-140.2,1266-142.7,1264-141.9,1261.3z"/>
			<path class="st21" d="M-142,1260.9c0.7-1.8,2.6-2.7,4.4-2.1c0.5,0.2,0.8,0.5,1.2,0.8c0.8,0.8,1.3,1.7,1.7,2.6
				c2.3,5.2,4,8.4,4,8.4s9.2,2.5,11.6,1.3c0,0,6.9-4.1,6.7,0.2c0,0-0.3,2.5-6.4,2.7l-13.3,0.7l-8.4-9.9
				C-140.2,1265.6-142.8,1263.5-142,1260.9z"/>
			<path class="st4" d="M-140.9,1251.9c0.2-0.8,0.6-0.6,0.5-2.1l6,1.6c-0.3,0.7-0.5,1.2-0.7,1.9c-0.6,0.2-1.2,0.3-1.9,0.4
				C-138.2,1254.1-139.7,1252.5-140.9,1251.9z"/>
			<ellipse class="st21" cx="-137.7" cy="1247.9" rx="5.8" ry="5.8"/>
			<path class="st4" d="M-135.2,1246.5c-1,0.1-2.2-0.3-3,0.3s-1.1,2.1-0.9,3.2c0.2,1.1,0.7,2.4,0.4,3.5c-0.4,1.5-1.9,2.5-3.2,3.3
				c-1.3,0.8-2.8,1.9-3,3.4c-0.1,1.1,0.5,2.2,0.4,3.3c-0.1,1.8-1.8,3.1-3.4,4c-1.1,0.8-2.5,1.3-3.8,1.5c-1.4,0.3-2.8-0.3-3.7-1.3
				c-0.5-0.6-0.7-1.4-1.3-1.7c-1-0.5-2.4,0.6-3.4,0.1c-0.4-0.2-0.7-0.5-0.8-0.8c-0.5-0.9-0.6-2.1-0.3-3.1c0.1-0.2,0.2-0.5,0.2-0.8
				c-0.1-0.6-0.8-0.8-1.4-1c-1.9-0.9-2.8-3.1-2.2-5.2c0.8-2,2.5-3.4,4.5-3.9c1.4-0.4,3-0.4,4.2-1.1c1.4-0.9,1.9-2.7,2.4-4.3
				s1.3-3.4,2.9-3.9c1.2-0.4,2.6,0.1,3.9-0.1c1.8-0.2,3.3-1.5,4.7-2.5c1.2-0.9,2.7-1.5,4.2-1.8c1.5-0.3,3.1,0.2,4.3,1.2
				C-131.1,1241.1-130.9,1246.3-135.2,1246.5z"/>
			<path class="st24" d="M-135.5,1246.4c-1,0.1-2.2-0.3-3,0.3s-1.1,2.1-0.9,3.2c0.2,1.1,0.7,2.4,0.4,3.5c-0.4,1.5-1.9,2.5-3.2,3.3
				c-1.3,0.8-2.8,1.9-3,3.4c-0.1,1.1,0.5,2.2,0.4,3.3c-0.1,1.8-1.8,3.1-3.4,4c-1.1,0.8-2.5,1.3-3.8,1.5c-1.4,0.3-2.8-0.3-3.7-1.3
				c-0.5-0.6-0.7-1.4-1.3-1.7c-1-0.5-2.4,0.6-3.4,0.1c-0.4-0.2-0.7-0.5-0.8-0.8c-0.5-0.9-0.6-2.1-0.3-3.1c0.1-0.2,0.2-0.5,0.2-0.8
				c-0.1-0.6-0.8-0.8-1.4-1c-1.9-0.9-2.8-3.1-2.2-5.2c0.8-2,2.5-3.4,4.5-3.9c1.4-0.4,3-0.4,4.2-1.1c1.4-0.9,1.9-2.7,2.4-4.3
				s1.3-3.4,2.9-3.9c1.2-0.4,2.6,0.1,3.9-0.1c1.8-0.2,3.3-1.5,4.7-2.5c1.2-0.9,2.7-1.5,4.2-1.8c1.5-0.3,3.1,0.2,4.3,1.2
				C-131.2,1241-131.1,1246.1-135.5,1246.4z"/>
			<path class="st4" d="M-133.7,1261.1c0,0-7.5,0.5-6.9,5.7c0.7,5.3-2.6-6-2.6-6l2.9-3.2l4.1,0.5L-133.7,1261.1z"/>
			<path class="st23" d="M-134,1261c0,0-7.5,0.5-6.9,5.7c0.7,5.3-2.6-6-2.6-6l2.9-3.2l4.1,0.5L-134,1261z"/>
			<path class="st23" d="M-127,1309l6.3,7.2c3.7,2.6,5.7,2.8,6.3,2.1c0.4-0.5,0.1-1.4-0.8-2.3c-2.3-2.2-1.9-9.4-1.9-9.4
				c-1.9,0.1-3.5-1-4.2-2.7c-1.8-0.3-3.9,1.8-5.5,2.9l-0.1,0.1c-0.7,0.5-0.8,1.3-0.3,1.9C-127.1,1308.9-127,1309-127,1309z"/>
			<path class="st4" d="M-116.9,1306.6c0,0-3.6,0.5-4.2-2.7C-120.4,1305.6-118.8,1306.6-116.9,1306.6z"/>
			<path class="st4" d="M-127,1309l6.3,7.2c3.7,2.6,5.7,2.8,6.3,2.1c-1.8-0.6-7-2.8-12.3-11.4l-0.1,0.1
				C-127.5,1307.5-127.6,1308.3-127,1309C-127,1308.9-127,1309-127,1309z"/>
			<path class="st3" d="M-231,1365.2c0,0-16.8,15,21.5,26c0,0,5-15.7-5.7-25.8c-4.3-4.1-10.9-4.2-15.6-0.5L-231,1365.2z"/>
			<path class="st25" d="M-230.8,1364.9c0,0,18.6,9.3,21.3,26.3"/>
			<path class="st26" d="M-210.5,1391.3c0,0-9.7-19-5.5-35.2c1.8-6.8,1.4-14-1.2-20.5c-1.2-3.1-2.8-6-4.6-8.9"/>
			<path class="st3" d="M-219.3,1316.5c0.5,2.5-2.6,10.5-2.6,10.5s-5.8-6.3-6.3-8.8s1.1-4.9,3.6-5.3
				C-222.1,1312.4-219.7,1314.1-219.3,1316.5L-219.3,1316.5z"/>
			<path class="st3" d="M-209.3,1328.8c-0.9,2.4-7.9,7.4-7.9,7.4s-1.4-8.5-0.5-10.8c0.9-2.4,3.6-3.5,5.9-2.5
				C-209.4,1323.8-208.2,1326.4-209.3,1328.8L-209.3,1328.8z"/>
			<path class="st3" d="M-205.1,1352.3c-2,1.5-10.6,2.4-10.6,2.4s3-8,5-9.6c2-1.5,4.9-1.1,6.4,0.8
				C-202.8,1347.9-203.2,1350.8-205.1,1352.3L-205.1,1352.3z"/>
			<path class="st3" d="M-206.1,1370.7c-1.7,1.9-10,4.1-10,4.1s1.6-8.5,3.3-10.3c1.7-1.9,4.6-2,6.4-0.3
				C-204.6,1366-204.3,1368.9-206.1,1370.7L-206.1,1370.7z"/>
			<path class="st3" d="M-226.4,1338.4c2.1,1.4,10.6,1.6,10.6,1.6s-3.6-7.8-5.7-9.2c-2.1-1.4-4.9-0.8-6.3,1.3
				C-229.2,1334.3-228.6,1337.1-226.4,1338.4L-226.4,1338.4L-226.4,1338.4z"/>
			<path class="st3" d="M-227.3,1360.1c2.5,0.7,10.6-1.7,10.6-1.7s-5.7-6.4-8.2-7.1c-2.5-0.7-4.9,0.7-5.7,3.1
				C-231,1356.8-229.6,1359.3-227.3,1360.1L-227.3,1360.1L-227.3,1360.1z"/>
			<path class="st3" d="M-225.1,1381.1c2.3,1.1,10.8,0.2,10.8,0.2s-4.6-7.3-6.9-8.4c-2.3-1.1-5-0.2-6.1,2.1
				C-228.4,1377.3-227.4,1380.1-225.1,1381.1L-225.1,1381.1z"/>
			<path class="st27" d="M-219.3,1316.5c0.5,2.5-2.6,10.5-2.6,10.5s-5.8-6.3-6.3-8.8s1.1-4.9,3.6-5.3
				C-222.1,1312.4-219.7,1314.1-219.3,1316.5L-219.3,1316.5z"/>
			<path class="st27" d="M-209.3,1328.8c-0.9,2.4-7.9,7.4-7.9,7.4s-1.4-8.5-0.5-10.8c0.9-2.4,3.6-3.5,5.9-2.5
				C-209.4,1323.8-208.2,1326.4-209.3,1328.8L-209.3,1328.8z"/>
			<path class="st27" d="M-205.1,1352.3c-2,1.5-10.6,2.4-10.6,2.4s3-8,5-9.6c2-1.5,4.9-1.1,6.4,0.8
				C-202.8,1347.9-203.2,1350.8-205.1,1352.3L-205.1,1352.3z"/>
			<path class="st27" d="M-206.1,1370.7c-1.7,1.9-10,4.1-10,4.1s1.6-8.5,3.3-10.3c1.7-1.9,4.6-2,6.4-0.3
				C-204.6,1366-204.3,1368.9-206.1,1370.7L-206.1,1370.7z"/>
			<path class="st27" d="M-226.4,1338.4c2.1,1.4,10.6,1.6,10.6,1.6s-3.6-7.8-5.7-9.2c-2.1-1.4-4.9-0.8-6.3,1.3
				C-229.2,1334.3-228.6,1337.1-226.4,1338.4L-226.4,1338.4L-226.4,1338.4z"/>
			<path class="st27" d="M-227.3,1360.1c2.5,0.7,10.6-1.7,10.6-1.7s-5.7-6.4-8.2-7.1c-2.5-0.7-4.9,0.7-5.7,3.1
				C-231,1356.8-229.6,1359.3-227.3,1360.1L-227.3,1360.1L-227.3,1360.1z"/>
			<path class="st27" d="M-225.1,1381.1c2.3,1.1,10.8,0.2,10.8,0.2s-4.6-7.3-6.9-8.4c-2.3-1.1-5-0.2-6.1,2.1
				C-228.4,1377.3-227.4,1380.1-225.1,1381.1L-225.1,1381.1z"/>
			<path class="st26" d="M-192.1,1395c0,0-9.7-19-5.5-35.2c1.8-6.8,1.4-13.9-1.2-20.5c-1.2-3.1-2.8-6-4.6-8.9"/>
			<path class="st3" d="M-200.8,1320.1c0.5,2.5-2.6,10.5-2.6,10.5s-5.8-6.3-6.3-8.8s1.1-4.9,3.6-5.3
				C-203.7,1316.1-201.3,1317.7-200.8,1320.1L-200.8,1320.1z"/>
			<path class="st3" d="M-190.8,1332.4c-0.9,2.4-7.9,7.4-7.9,7.4s-1.4-8.5-0.5-10.8c0.9-2.4,3.6-3.5,5.9-2.5
				C-191,1327.4-189.9,1330.1-190.8,1332.4L-190.8,1332.4z"/>
			<path class="st3" d="M-186.8,1355.8c-2,1.5-10.6,2.4-10.6,2.4s3-8,5-9.6c2-1.5,4.9-1.1,6.4,0.8
				C-184.4,1351.5-184.8,1354.3-186.8,1355.8L-186.8,1355.8L-186.8,1355.8z"/>
			<path class="st3" d="M-187.6,1374.3c-1.7,1.9-10,4.1-10,4.1s1.6-8.5,3.3-10.3c1.7-1.9,4.6-2,6.4-0.3
				C-186.1,1369.6-185.9,1372.5-187.6,1374.3L-187.6,1374.3L-187.6,1374.3z"/>
			<path class="st3" d="M-208.1,1342.1c2.1,1.4,10.6,1.6,10.6,1.6s-3.6-7.8-5.7-9.2c-2.1-1.4-4.9-0.8-6.3,1.3
				C-210.8,1337.9-210.1,1340.7-208.1,1342.1L-208.1,1342.1z"/>
			<path class="st3" d="M-208.8,1363.7c2.5,0.7,10.6-1.7,10.6-1.7s-5.7-6.4-8.2-7.1c-2.5-0.7-4.9,0.7-5.7,3.1
				C-212.7,1360.4-211.3,1362.9-208.8,1363.7L-208.8,1363.7L-208.8,1363.7z"/>
			<path class="st3" d="M-206.7,1384.7c2.3,1.1,10.8,0.2,10.8,0.2s-4.6-7.3-6.9-8.4c-2.3-1.1-5-0.2-6.1,2.1
				C-209.9,1380.9-209,1383.6-206.7,1384.7L-206.7,1384.7L-206.7,1384.7z"/>
			<path class="st16" d="M-153.2,1220.8l-1.7,0.3c0.7-0.1,1-0.8,0.9-1.4c-0.1-0.7-0.8-1-1.4-0.9l0,0l-13.4,2.5
				c-0.7,0.1-1,0.8-0.9,1.4c0.1,0.7,0.8,1,1.4,0.9l0,0l1.7-0.3c-0.7,0.1-1,0.8-0.9,1.4c0.1,0.7,0.8,1,1.4,0.9l-2.4,0.5
				c-0.7,0.1-1,0.8-0.9,1.4c0.1,0.7,0.8,1,1.4,0.9l0,0l13.4-2.5c0.7-0.1,1-0.8,0.9-1.4c-0.1-0.6-0.8-1-1.4-0.9l2.4-0.5
				c0.7-0.1,1-0.8,0.9-1.4C-152,1221.1-152.5,1220.6-153.2,1220.8z"/>
			<path class="st16" d="M-177.5,1243.8l-1.7,0.3c0.7-0.1,1-0.8,0.9-1.4s-0.8-1-1.4-0.9l-13.5,2.5c-0.7,0.1-1,0.8-0.9,1.4
				c0.1,0.7,0.8,1,1.4,0.9l1.7-0.3c-0.7,0.1-1,0.8-0.9,1.4s0.8,1,1.4,0.9l0,0l-2.4,0.5c-0.7,0.1-1,0.8-0.9,1.4
				c0.1,0.6,0.8,1,1.4,0.9l13.5-2.5c0.7-0.1,1-0.8,0.9-1.4c-0.1-0.6-0.8-1-1.4-0.9l0,0l2.4-0.5c0.7-0.1,1-0.8,0.9-1.4
				C-176.3,1244.1-176.9,1243.7-177.5,1243.8L-177.5,1243.8L-177.5,1243.8z"/>
			<path class="st16" d="M-40.2,1214.4l-1.7,0.3c0.7-0.1,1-0.8,0.9-1.4s-0.8-1-1.4-0.9l0,0l-13.4,2.5c-0.7,0.1-1,0.8-0.9,1.4
				c0.1,0.7,0.8,1,1.4,0.9l1.7-0.3c-0.7,0.1-1,0.8-0.9,1.4s0.8,1,1.4,0.9l0,0l-2.4,0.4c-0.7,0.1-1,0.8-0.9,1.4
				c0.1,0.6,0.8,1,1.4,0.9l13.4-2.5c0.7-0.1,1-0.8,0.9-1.4c-0.1-0.7-0.8-1-1.4-0.9l2.4-0.5c0.7-0.1,1-0.8,0.9-1.4
				C-39,1214.7-39.5,1214.2-40.2,1214.4L-40.2,1214.4z"/>
			<ellipse class="st17" cx="-219.6" cy="1243.7" rx="12.5" ry="12.5"/>
			<path class="st2" d="M-144.9,1308.3c0,0,6.3,5.6,9.2,10.5s2,6.6,2,6.6"/>
		</g>
	</g>
</g>
</svg>
