<?xml version="1.0" encoding="utf-8"?>
<!-- Generator: Adobe Illustrator 19.0.0, SVG Export Plug-In . SVG Version: 6.00 Build 0)  -->
<svg version="1.1" id="图层_1" xmlns="http://www.w3.org/2000/svg" xmlns:xlink="http://www.w3.org/1999/xlink" x="0px" y="0px"
	 viewBox="-917 917.7 1000 1000" style="enable-background:new -917 917.7 1000 1000;" xml:space="preserve">
<style type="text/css">
	.st0{opacity:0.1;enable-background:new    ;}
	.st1{fill:#6C63FF;}
	.st2{opacity:0.1;fill:#6C63FF;enable-background:new    ;}
	.st3{fill:#FFD037;}
	.st4{fill:#65617D;}
	.st5{fill:#9D9CB5;}
	.st6{opacity:0.2;}
	.st7{opacity:0.2;fill:#FFFFFF;enable-background:new    ;}
	.st8{opacity:0.2;fill:#6C63FF;enable-background:new    ;}
	.st9{fill:#FFFFFF;}
	.st10{opacity:0.5;}
	.st11{fill:#F6F7F9;}
	.st12{fill:#B07473;}
	.st13{fill:#EFB7B9;}
	.st14{fill:#444053;}
	.st15{fill:#E1E7EF;}
	.st16{fill:#67647E;}
	.st17{fill:#585268;}
	.st18{opacity:0.1;}
</style>
<g id="_x23_background">
	<g class="st0">
		<g>
			<path class="st1" d="M-278.3,1190.9c-40.7,28.3-93.5,26.5-139.7,11.7s-88.7-41-133.8-59.7c-37.5-15.6-77.1-25.8-117.6-30.5
				c-57.4-6.5-121.6,1.4-161.6,47.2c-44.5,51-41.2,142.9,7.1,189.8c24.5,23.8,56.6,35.5,84.6,54.1s53.9,49.4,51.6,85.3
				c-2.2,33.2-27.9,58.7-54.5,74.7c-20.5,12.4-45.8,25.8-48.3,51.5c-2.4,24.8,18.9,44.1,39.1,55.2c66.2,36.1,147.8,35.7,213.7-0.9
				c23.5-13,45.2-30.4,69.8-40.6c64.8-26.7,136.2,0.2,204.8,10c58.3,8.3,117.7,4,174.2-12.6c34-9.9,68.1-25.3,92-53.6
				c17.2-20.4,28-46.5,38-72c10.7-27.3,21-54.8,30.9-82.5c5.9-16.6,11.8-33.5,13.3-51.4c2.8-32.2-8.9-64.1-24.9-91.3
				c-37.7-64.5-101.5-109.9-170.6-121.4s-142.3,11-195.9,60.3"/>
		</g>
	</g>
</g>
<g id="_x23_accessory_x28_have_x5B_plant_x5D__x29_">
	<g>
		<g>
			<ellipse class="st2" cx="-185.9" cy="1724.7" rx="74.2" ry="11.3"/>
			<ellipse class="st2" cx="-575.5" cy="1839.5" rx="36.7" ry="5.7"/>
			<ellipse class="st2" cx="-341.6" cy="1810.4" rx="36.7" ry="5.7"/>
			<ellipse class="st2" cx="-510.5" cy="1769.8" rx="36.7" ry="5.7"/>
			<ellipse class="st2" cx="-400.7" cy="1736.1" rx="36.7" ry="5.7"/>
			<path class="st1" d="M3.2,1672.1c0,0,6.1,8.1-2.9,20.3c-9,12.2-16.4,22.4-13.4,29.9c0,0,13.6-22.6,24.7-23
				C22.7,1699.1,15.4,1685.6,3.2,1672.1z"/>
			<path class="st0" d="M3.2,1672.1c0.6,0.7,0.9,1.7,1.3,2.5c10.8,12.7,16.5,24.5,6.1,24.8c-9.7,0.3-21.3,17.6-24.1,21.9
				c0.1,0.4,0.2,0.7,0.4,1c0,0,13.6-22.6,24.7-23C22.6,1699.2,15.4,1685.6,3.2,1672.1z"/>
			<path class="st3" d="M14.6,1682.3c0,2.9-0.3,5.1-0.7,5.1s-0.7-2.3-0.7-5.1c0-2.8,0.4-1.5,0.8-1.5
				C14.5,1680.8,14.6,1679.5,14.6,1682.3z"/>
			<path class="st3" d="M18.5,1685.7c-2.5,1.4-4.6,2.1-4.8,1.9c-0.2-0.3,1.7-1.8,4.2-3.1c2.5-1.3,1.5-0.4,1.7,0
				C19.8,1684.9,21.1,1684.4,18.5,1685.7z"/>
			<path class="st1" d="M-29.4,1672.1c0,0-6.1,8.1,2.9,20.3c9,12.2,16.4,22.5,13.5,30c0,0-13.7-22.6-24.7-23
				C-48.8,1699-41.6,1685.6-29.4,1672.1z"/>
			<path class="st0" d="M-29.4,1672.1c-0.6,0.7-0.9,1.7-1.2,2.5c-10.8,12.7-16.5,24.5-6.2,24.8c9.7,0.3,21.3,17.6,24.1,21.9
				c-0.1,0.4-0.2,0.7-0.3,1c0,0-13.7-22.6-24.7-23C-48.8,1699-41.6,1685.6-29.4,1672.1z"/>
			<path class="st3" d="M-40.9,1682.3c0,2.9,0.3,5.1,0.7,5.1s0.7-2.3,0.7-5.1c0-2.8-0.4-1.5-0.7-1.5
				C-40.6,1680.8-40.9,1679.5-40.9,1682.3z"/>
			<path class="st3" d="M-44.8,1685.7c2.5,1.4,4.6,2.1,4.8,1.9c0.2-0.3-1.7-1.8-4.2-3.1c-2.5-1.3-1.5-0.4-1.7,0
				C-46,1684.9-47.3,1684.4-44.8,1685.7z"/>
			<ellipse class="st2" cx="-13.1" cy="1774.3" rx="64.5" ry="9.9"/>
			<path class="st4" d="M20.1,1711.5l-0.3,2.5l-0.5,3.5l-0.2,1.5l-0.5,3.5l-0.2,1.5l-0.5,3.5L13,1768c-0.5,3.6-6.3,6.4-13.5,6.4
				h-25.6c-7.2,0-13-2.8-13.5-6.4l-4.9-40.5l-0.5-3.5l-0.2-1.5l-0.5-3.5l-0.2-1.5l-0.5-3.5l-0.3-2.5c-0.3-2,3-3.8,7-3.8h52.5
				C17.1,1707.7,20.4,1709.5,20.1,1711.5z"/>
			<polygon class="st5" points="19.8,1714.1 19.4,1717.6 -45.6,1717.6 -46,1714.1 			"/>
			<polygon class="st5" points="19.2,1719.1 18.7,1722.6 -45,1722.6 -45.4,1719.1 			"/>
			<polygon class="st5" points="18.5,1724.1 18.2,1727.6 -44.4,1727.6 -44.7,1724.1 			"/>
		</g>
	</g>
</g>
<g id="_x23_other_x28_have_x5B_bulletin_x5D__x29_">
	<path class="st1" d="M-698.7,1281.6h683.8c15.6,0,28.2,12.6,28.2,28.2v294.5c0,15.6-12.6,28.2-28.2,28.2h-683.8
		c-15.6,0-28.2-12.6-28.2-28.2v-294.6C-727,1294.2-714.3,1281.6-698.7,1281.6z"/>
	<g class="st6">
		<path class="st7" d="M-575.2,1568.6h-119.7c-14.3,0-25.9-11.6-25.9-25.9l0,0v-171.4c0-14.3,11.6-25.9,25.9-25.9l0,0h119.7V1568.6z
			"/>
	</g>
	<g class="st6">
		<path class="st7" d="M-18.8,1568.6h-119.7v-223.3h119.7c14.3,0,25.9,11.6,25.9,25.9l0,0v171.5C7.2,1557-4.4,1568.6-18.8,1568.6z"
			/>
	</g>
	<g class="st6">
		<rect x="-284.1" y="1345.3" class="st7" width="145.6" height="223.3"/>
	</g>
	<g class="st6">
		<rect x="-429.8" y="1345.3" class="st7" width="145.6" height="223.3"/>
	</g>
	<g class="st6">
		<rect x="-575.5" y="1345.3" class="st8" width="145.6" height="223.3"/>
	</g>
	<path class="st9" d="M-492.7,1444.3c-1.2,0-2.1-0.9-2.1-2.1l0,0v-6.1c0-1.2,0.9-2.1,2.1-2.1s2.1,0.9,2.1,2.1l0,0v6.1
		C-490.5,1443.3-491.5,1444.3-492.7,1444.3z"/>
	<path class="st9" d="M-503.4,1448.6c-0.6,0-1.1-0.2-1.5-0.7l-4.3-4.3c-0.8-0.7-0.9-2.1-0.2-3c0.7-0.8,2.1-0.9,3-0.2
		c0.1,0.1,0.1,0.1,0.2,0.2l4.4,4.3c0.8,0.8,0.8,2.1,0,3C-502.2,1448.5-502.8,1448.6-503.4,1448.6L-503.4,1448.6z"/>
	<path class="st9" d="M-477.6,1474.4c-0.6,0-1.1-0.2-1.5-0.7l-4.3-4.3c-0.8-0.7-0.9-2.1-0.2-3c0.7-0.8,2.1-0.9,3-0.2
		c0.1,0.1,0.1,0.1,0.2,0.2l4.3,4.3c0.8,0.8,0.8,2.1,0,3C-476.6,1474.1-477.1,1474.3-477.6,1474.4L-477.6,1474.4z"/>
	<path class="st9" d="M-471.5,1459.3h-6.1c-1.2,0-2.1-0.9-2.1-2.1s0.9-2.1,2.1-2.1h6.1c1.2,0,2.1,0.9,2.1,2.1
		C-469.3,1458.4-470.3,1459.3-471.5,1459.3L-471.5,1459.3z"/>
	<path class="st9" d="M-482,1448.6c-1.2,0-2.1-0.9-2.1-2.1c0-0.6,0.2-1.1,0.7-1.5l4.3-4.3c0.8-0.8,2.1-0.8,3,0c0.8,0.8,0.8,2.1,0,3
		l0,0l-4.3,4.3C-480.9,1448.5-481.4,1448.6-482,1448.6z"/>
	<path class="st9" d="M-481.4,1457.2c0-6.1-4.9-11.2-11.2-11.2c-3.6,0-7,1.8-9.1,4.6c-7.5-4.3-17.1-1.6-21.4,5.9
		c-0.5,0.8-0.8,1.7-1.1,2.5c-1.2-0.1-2.4-0.1-3.6,0.2c-5.7,1.3-9.1,7-7.8,12.6c1.1,4.7,5.4,8.1,10.2,8.1h28.2c0.9,0,1.9-0.1,2.8-0.4
		c6.3-1.5,10.3-7.7,9.1-14.1C-482.9,1463.5-481.5,1460.4-481.4,1457.2z M-495.4,1475.7c-0.7,0.2-1.2,0.2-1.9,0.2h-28.2
		c-3.4,0-6.2-2.9-6.2-6.3c0-2.9,2-5.4,4.8-6c0.5-0.1,0.9-0.2,1.5-0.2c0.7,0,1.4,0.1,2,0.4c0.6,0.2,1.2,0.1,1.8-0.2
		c0.6-0.3,0.9-0.8,1-1.4c1.3-6.2,7.3-10.2,13.6-8.9c3.3,0.7,6.1,2.8,7.7,5.7v0.1c0.4,0.7,1.1,1.1,2,1.1h0.2c2.7,0,5.3,1.4,6.7,3.7
		c0.5,0.7,0.7,1.5,0.9,2.3c0.1,0.6,0.2,1.1,0.2,1.8C-489.3,1471.5-491.8,1474.8-495.4,1475.7z M-489.7,1458.4
		c-1.9-1.5-4.2-2.3-6.5-2.5c-0.6-0.9-1.3-1.8-2-2.6c2.1-3.2,6.5-4,9.7-1.9s4,6.5,1.9,9.7c-0.1,0.1-0.1,0.2-0.2,0.3
		C-487.7,1460.3-488.7,1459.2-489.7,1458.4z"/>
	<g class="st10">
		<path class="st9" d="M-325.9,1454.6c-1.2-5.1-5.6-8.9-10.9-9.3c-4.7-7.2-14.4-9.4-21.7-4.6c-1.6,1-2.9,2.2-4,3.7
			c-6.4,0.3-11.9,4.5-14,10.5c-5.8-0.7-11,3.5-11.6,9.3c-0.7,5.8,3.5,11,9.3,11.6c0.4,0,0.7,0.1,1.1,0.1h28.2c0.9,0,1.9-0.1,2.8-0.4
			c3.3-0.7,6.1-2.9,7.8-5.9h1.2c0.9,0,1.9-0.1,2.8-0.4C-328.4,1467.7-324.3,1461.2-325.9,1454.6L-325.9,1454.6z M-344.3,1469.5
			c-0.9,0.9-2.1,1.5-3.4,1.9c-0.7,0.2-1.2,0.2-1.9,0.2h-28.2c-3.4,0-6.3-2.8-6.3-6.2c0-2.9,2-5.5,4.8-6.1c0.9-0.2,1.9-0.2,2.8,0
			c0.2,0.1,0.5,0.1,0.7,0.2c1.1,0.4,2.3-0.2,2.7-1.3c0-0.1,0.1-0.2,0.1-0.3c1.1-5.3,5.8-9.1,11.2-9.1c0.6,0,1,0,1.6,0.1
			c3.6,0.5,6.8,2.7,8.5,5.9c0.4,0.7,1.1,1.1,2,1.1h0.2c4.4,0,7.9,3.5,7.9,7.9C-341.6,1465.9-342.5,1468.1-344.3,1469.5
			L-344.3,1469.5z M-335.9,1465.1c-0.6,0.1-1.1,0.2-1.7,0.2c0.2-1.5,0.1-3-0.2-4.5c-1.2-5.1-5.6-8.9-10.9-9.3
			c-2-3.2-5.1-5.4-8.6-6.5c4.8-4.1,12.1-3.4,16.2,1.5c0.5,0.6,0.9,1.2,1.3,2c0.4,0.7,1.1,1.1,2,1.1h0.2c4.4,0,7.9,3.5,7.9,7.9
			C-329.8,1461-332.3,1464.2-335.9,1465.1L-335.9,1465.1z"/>
	</g>
	<g class="st10">
		<path class="st9" d="M-55.8,1474.6l-1.4-0.8l1.4-0.7c0.6-0.3,0.7-0.9,0.4-1.5c-0.3-0.6-0.9-0.7-1.5-0.4l0,0l-1.4,0.8v-1.5
			c0.1-0.6-0.4-1.1-0.9-1.1c-0.6-0.1-1.1,0.4-1.1,0.9c0,0.1,0,0.1,0,0.2v1.6l-1.4-0.7c-0.6-0.3-1.2-0.1-1.5,0.4
			c-0.3,0.6-0.1,1.2,0.4,1.5l1.4,0.7l-1.4,0.7c-0.5,0.3-0.7,0.9-0.4,1.4l0,0c0.2,0.4,0.6,0.6,0.9,0.6c0.2,0,0.4-0.1,0.6-0.2l1.4-0.7
			v1.6c0.1,0.6,0.6,1,1.1,0.9s0.9-0.5,0.9-0.9v-1.6l1.4,0.7c0.2,0.1,0.4,0.2,0.6,0.2c0.4,0,0.7-0.2,0.9-0.6
			C-55.2,1475.6-55.2,1474.9-55.8,1474.6L-55.8,1474.6z"/>
		<path class="st9" d="M-62.2,1465.7l-1.4-0.7l1.4-0.8c0.5-0.3,0.7-0.9,0.4-1.4l0,0c-0.3-0.5-0.9-0.7-1.4-0.4l0,0l-1.4,0.8v-1.6
			c-0.1-0.6-0.6-1-1.1-0.9s-0.9,0.5-0.9,0.9v1.6l-1.4-0.7c-0.6-0.3-1.2-0.1-1.5,0.4c-0.3,0.6-0.1,1.2,0.4,1.5l1.4,0.7l-1.4,0.7
			c-0.5,0.3-0.7,0.9-0.4,1.4c0.2,0.4,0.6,0.6,0.9,0.6c0.2,0,0.4-0.1,0.6-0.1l1.4-0.7v1.6c0.1,0.6,0.6,1,1.1,0.9s0.9-0.5,0.9-0.9
			v-1.6l1.3,0.7c0.2,0.1,0.4,0.1,0.6,0.1c0.6,0,1-0.5,1-1.1C-61.7,1466.3-61.8,1466-62.2,1465.7L-62.2,1465.7z"/>
		<path class="st9" d="M-68.5,1474.6l-1.4-0.8l1.4-0.7c0.6-0.3,0.7-0.9,0.4-1.5c-0.3-0.6-0.9-0.7-1.5-0.4l-1.4,0.8v-1.5
			c0.1-0.6-0.4-1.1-0.9-1.1c-0.6-0.1-1.1,0.4-1.1,0.9c0,0.1,0,0.1,0,0.2v1.6l-1.3-0.7c-0.6-0.3-1.2-0.1-1.5,0.4s-0.1,1.2,0.4,1.5
			l0,0l1.4,0.7l-1.4,0.7c-0.5,0.3-0.7,0.9-0.4,1.4l0,0c0.2,0.4,0.6,0.6,0.9,0.6c0.2,0,0.4-0.1,0.6-0.2l1.3-0.7v1.6
			c0.1,0.6,0.6,1,1.1,0.9s0.9-0.5,0.9-0.9v-1.6l1.4,0.7c0.2,0.1,0.4,0.2,0.6,0.2c0.6,0,1-0.5,1-1.1
			C-68,1475.1-68.2,1474.8-68.5,1474.6L-68.5,1474.6z"/>
		<path class="st9" d="M-40.6,1452.2c-1.2-5.1-5.6-8.9-10.9-9.3c-4.7-7.2-14.4-9.4-21.7-4.6c-2.9,1.9-5.1,4.6-6.2,7.9
			c-5.8-0.7-11,3.5-11.6,9.3c-0.7,5.8,3.5,11,9.3,11.6c0.4,0,0.7,0.1,1.1,0.1h3.3c1.2,0,2.1-0.9,2.1-2.1s-0.9-2.1-2.1-2.1l0,0h-3.4
			c-2.9,0-5.5-2-6.1-4.8c-0.7-3.3,1.3-6.7,4.6-7.5c1.1-0.3,2.3-0.2,3.4,0.2s2.3-0.2,2.7-1.3c0-0.1,0.1-0.2,0.1-0.3
			c1.3-6.2,7.3-10.2,13.6-8.9c3.3,0.7,6.1,2.8,7.7,5.8c0.4,0.7,1.1,1.1,2,1.1h0.3c4.4,0,7.9,3.5,7.9,7.9c0,3.7-2.5,6.9-6,7.7
			c-0.7,0.2-1.2,0.2-1.9,0.2h-1.7c-1.2,0-2.1,0.9-2.1,2.1s0.9,2.1,2.1,2.1h1.8c6.7,0,12.1-5.4,12.2-12
			C-40.2,1454.1-40.3,1453.1-40.6,1452.2L-40.6,1452.2z"/>
	</g>
	<g class="st10">
		<path class="st9" d="M-195.2,1464.9c-0.9,0.2-1.9,0.3-2.8,0.4h-4.8c-1.2,0-2.1-0.9-2.1-2.1s0.9-2.1,2.1-2.1h4.8
			c0.7,0,1.2-0.1,1.9-0.2c4.3-1,6.9-5.3,5.9-9.5c-0.8-3.5-4.1-6.1-7.7-6h-0.3c-0.8,0-1.6-0.4-2-1.1c-3-5.6-9.9-7.7-15.5-4.7
			c-3.1,1.6-5.2,4.5-5.9,7.8c-0.2,1.1-1.3,1.9-2.4,1.7c-0.1,0-0.2-0.1-0.4-0.1c-2.8-0.9-5.8,0.2-7.3,2.7c-1.9,3-0.9,6.8,2,8.6
			c1,0.7,2.1,0.9,3.3,0.9h7.1c1.2,0,2.1,0.9,2.1,2.1s-0.9,2.1-2.1,2.1l0,0h-7.1c-5.8,0-10.5-4.7-10.5-10.5c0-2,0.6-3.8,1.6-5.5
			c2.1-3.4,6-5.4,10.1-4.9c2.8-8.2,11.7-12.5,20-9.7c3.3,1.1,6.2,3.4,8.1,6.4c6.7,0.4,11.8,6,11.4,12.7
			C-186,1459.2-189.9,1463.8-195.2,1464.9z"/>
		<polygon class="st9" points="-210.4,1464.7 -207.5,1464.7 -213.8,1480.1 -212.3,1469 -215.1,1469 -212.9,1456.7 -207.1,1456.7 		
			"/>
	</g>
	<g class="st10">
		<path class="st9" d="M-648.1,1444c-1.1,0-2.1-0.9-2.1-2.1v-6c-0.1-1.2,0.8-2.1,2-2.2c1.1-0.1,2.1,0.8,2.2,2c0,0.1,0,0.2,0,0.3v6.1
			C-645.9,1443.1-646.9,1444-648.1,1444z"/>
		<path class="st9" d="M-663.2,1459.1h-6.1c-1.2,0-2.1-0.9-2.1-2.1s0.9-2.1,2.1-2.1h6.1c1.2,0,2.1,0.9,2.1,2.1
			C-661.1,1458.1-662,1459.1-663.2,1459.1z"/>
		<path class="st9" d="M-648.1,1480.3c-1.1,0-2.1-0.9-2.1-2.1v-6.1c0.1-1.2,1.1-2,2.2-2c1,0.1,1.9,0.9,2,2v6.1
			C-645.9,1479.4-646.9,1480.3-648.1,1480.3z"/>
		<path class="st9" d="M-626.9,1459.1h-6c-1.2,0-2.1-0.9-2.1-2.1s0.9-2.1,2.1-2.1h6.1c1.2,0,2.1,0.9,2.1,2.1
			C-624.7,1458.1-625.7,1459.1-626.9,1459.1L-626.9,1459.1z"/>
		<path class="st9" d="M-648.1,1468.2c-6.1,0-11.2-5-11.2-11.2s5-11.2,11.2-11.2s11.2,5,11.2,11.2S-641.9,1468.2-648.1,1468.2z
			 M-648.1,1450c-3.8,0-7,3.2-7,7s3.2,7,7,7s7-3.1,7-7C-641.1,1453.2-644.2,1450-648.1,1450z"/>
		<path class="st9" d="M-658.7,1448.5c-0.6,0-1.1-0.2-1.5-0.7l-2.1-2.1c-0.8-0.8-0.8-2.1,0-3s2.1-0.8,3,0l2.1,2.1
			c0.8,0.8,0.8,2.1,0,3C-657.6,1448.2-658.2,1448.4-658.7,1448.5z"/>
		<path class="st9" d="M-660.9,1472c-1.2,0-2.1-0.9-2.1-2.1c0-0.6,0.2-1.1,0.7-1.5l2.1-2.1c0.8-0.8,2.1-0.8,3,0c0.8,0.8,0.8,2.1,0,3
			l0,0l-2.1,2.1C-659.9,1471.7-660.3,1472-660.9,1472z"/>
		<path class="st9" d="M-635.2,1472c-0.6,0-1.1-0.2-1.5-0.7l-2.1-2.1c-0.8-0.8-0.8-2.1,0-3c0.8-0.8,2.1-0.8,3,0l2.1,2.1
			c0.8,0.8,0.8,2.1,0,3C-634.1,1471.7-634.7,1472-635.2,1472z"/>
		<path class="st9" d="M-637.4,1448.5c-1.2,0-2.1-0.9-2.1-2.1c0-0.6,0.2-1.1,0.7-1.5l2.1-2.1c0.8-0.8,2.1-0.8,3,0
			c0.8,0.8,0.8,2.1,0,3l-2.1,2.1C-636.3,1448.2-636.8,1448.5-637.4,1448.5z"/>
	</g>
	<path class="st11" d="M-677.6,1355.1h59c7.2,0,13,5.9,13,13l0,0c0,7.2-5.9,13-13,13h-59c-7.2,0-13-5.9-13-13l0,0
		C-690.6,1360.9-684.8,1355.1-677.6,1355.1z"/>
	<path class="st11" d="M-532.1,1355.1h59c7.2,0,13,5.9,13,13l0,0c0,7.2-5.9,13-13,13h-59c-7.2,0-13-5.9-13-13l0,0
		C-545.1,1360.9-539.2,1355.1-532.1,1355.1z"/>
	<path class="st11" d="M-386.5,1355.1h59c7.2,0,13,5.9,13,13l0,0c0,7.2-5.9,13-13,13h-59c-7.2,0-13-5.9-13-13l0,0
		C-399.5,1360.9-393.7,1355.1-386.5,1355.1z"/>
	<path class="st11" d="M-240.9,1355.1h59c7.2,0,13,5.9,13,13l0,0c0,7.2-5.9,13-13,13h-59c-7.2,0-13-5.9-13-13l0,0
		C-253.9,1360.9-248.2,1355.1-240.9,1355.1z"/>
	<path class="st11" d="M-95.4,1355.1h59c7.2,0,13,5.9,13,13l0,0c0,7.2-5.9,13-13,13h-59c-7.2,0-13-5.9-13-13l0,0
		C-108.4,1360.9-102.5,1355.1-95.4,1355.1z"/>
</g>
<g id="_x23_man_x28_stand_x2C_point_x5F_to_x29_">
	<path class="st12" d="M-765.5,1733.4c0,0,2,2.8,10.8,6.1c8.7,3.3,6.8,9.2,8.1,12.8c1.3,3.7,10.2,7,27.8,6.1s6.4-14,6.4-14
		s-9.2-13.5-12.3-15.3c-1.1-0.7-2.2-2.7-3.3-5.2c-1.4-3.5-2.6-7.2-3.5-10.8c0,0-28.9,3.9-31,6.8c-0.8,1.5-1.5,3.3-1.8,4.9
		C-765,1727.8-765.3,1730.6-765.5,1733.4z"/>
	<path class="st12" d="M-843.4,1756.4c0,0,0.3,10.9,19.1,13.1s18-11.5,16.4-16.7c-0.9-3.2-0.3-13.1,0.5-20.4
		c0.5-4.6,0.8-8.2,0.8-8.2s-31.7,0.7-31.4,2.3c0,2-0.3,4-0.8,5.9c-0.9,3.6-2,7.2-3.4,10.7C-845.4,1751-843.4,1756.4-843.4,1756.4z"
		/>
	<path class="st13" d="M-619.9,1432.5c0.6,1.1,1.9,3,5.1,6.1c3.9,3.7,7.9,7.2,12.1,10.5c19.5,15.6,29.7-1.9,29.7-1.9
		s9.9,8.9,14.7,10.9s4.6-4.3,4.6-4.3s-26.3-27.6-34.6-28c-4.7-0.2-10.2-2.7-14-4.7c-2.8-1.5-4.7-2.8-4.7-2.8l-7.1,6.9l-6.1,5.9
		C-620.2,1431.1-620.5,1431.4-619.9,1432.5z"/>
	<path class="st0" d="M-762.6,1720.1c-0.8,1.5-1.5,3.3-1.8,4.9c4.8,7.1,33.8-0.4,36.2-0.9c-1.4-3.5-2.6-7.2-3.5-10.8
		C-731.7,1713.3-760.6,1717.2-762.6,1720.1z"/>
	<path class="st0" d="M-838.8,1732.6c0.2,0.2,0.4,0.3,0.6,0.4c4.7,2.1,28.8-0.1,28.8-0.1c0.7,0.1,1.5,0,2-0.5
		c0.5-4.6,0.8-8.2,0.8-8.2s-31.7,0.7-31.4,2.3C-837.9,1728.6-838.2,1730.7-838.8,1732.6z"/>
	<path class="st14" d="M-847.5,1525.1c1.3,6.6,1.6,13.5,0.7,20.2c-1.6,10.2,0.1,44,0.1,44l-0.1,59.2c0,0,2,37.9,3.9,46.1
		s-3.9,11.5-3.9,11.5s3.9,23.3,8.6,25.5c4.7,2.1,28.8-0.1,28.8-0.1s2.9,1,6.5-6.5s0-25.9-2.6-32s-0.3-12.5-0.3-12.5
		s-2.9-33.7,0-36.6s2.3-15.7,2.3-15.7l4.7-26.5l5.6-11.2l1.6-24.6l4.5-21.7c0,0,1.9-1.9,3.4-19.1s3.6-11.8,3.6-11.8
		c-0.7,11.5,5.2,17.3,5.2,17.3l1.7,30.1c0,0,2,22.5,5.4,28c3.3,5.5,0,12.3,0,12.3s1.1,21.5,0.1,27.8s3.8,20.6,3.8,20.6l1.3,25.9
		c0,0-7.8,23.3-4.2,30.9c3.7,7.6,1.9,16.4,1.9,16.4c2.9,9.2,37,0,37,0s4.6-38.8,1.3-42.4s1.1-28.8,1.1-28.8s2.3-8.4,1.2-10.7
		c-1.1-2.3,1-11.5,1-11.5s1.6-24.9-1.3-30.7c-2.9-5.8,1.6-39.2,1.6-39.2s1.9-31.4,6.5-42.7c0.8-2,1.4-6.4,1.7-12.2
		c1.4-25.6-1.7-78.9-1.7-78.9l-12.8-17.6l-13.4-0.7l-12.9-0.7l-24.3-1.3l-23.9-1.3l-29.2-1.6c0,0-6,53.9-14.5,77.2
		c-1.2,3.3-2,6.6-2.7,10C-852.2,1501.4-851.3,1513.7-847.5,1525.1z"/>
	<path class="st13" d="M-776.3,1226.9l10.4,25.6l22.6,3.7c0,0,12,4.1,11.3-6.1c-0.3-5.4,1.4-11.2,3-15.3c0.8-2.1,1.8-4.2,2.9-6.2
		c0,0-46.4-26.1-43.8-17.3c0.6,2,0.6,4,0.1,5.9C-771.1,1223-776.3,1226.9-776.3,1226.9z"/>
	<polygon class="st12" points="-749.2,1412.8 -800,1412.8 -797.4,1430.6 -748.1,1430.6 	"/>
	<polygon class="st0" points="-749.2,1412.8 -800,1412.8 -797.4,1430.6 -748.1,1430.6 	"/>
	<path class="st0" d="M-619.9,1432.5c0.6,1.1,1.9,3,5.1,6.1c1.8-5,5.6-12.4,9.5-14.9c1.2-0.7,2.2-1.6,3.1-2.6
		c-2.8-1.5-4.7-2.8-4.7-2.8l-7.1,6.9L-619.9,1432.5z"/>
	<path class="st15" d="M-626.7,1439.3c0,0,1.8,0.7,3.8,1.4c3.4,1.3,7.7,2.9,6.7,2.2c-1.7-1,4.2-16.1,10.1-19.9
		c4.4-2.8,3.6-4.1,2.9-4.6c-0.2-0.1-0.3-0.2-0.5-0.2l-4.7-1.7L-626.7,1439.3z"/>
	<path class="st0" d="M-769.8,1211.3c0.6,2,0.6,4,0.1,5.9c7.8,14.7,24.7,22,40.8,17.6c0.8-2.1,1.8-4.2,2.9-6.2
		C-726,1228.5-772.3,1202.4-769.8,1211.3z"/>
	<path class="st13" d="M-773.8,1199c0,19.5,15.8,35.4,35.4,35.4s35.4-15.8,35.4-35.4s-15.8-35.4-35.4-35.4l0,0
		c-19.4-0.1-35.3,15.5-35.4,34.9C-773.8,1198.7-773.8,1198.9-773.8,1199z"/>
	<path class="st15" d="M-804.9,1412.9l22.6,1l26,1.1l12.7,0.6l0.9-8.5l10-87.9l3.3-66.5h-9l-24.9-4.1l-8.8-3.3l0,0l-11.5-4.4
		l-9.4,19.2l-3.2,88.1l-7.4,55.6L-804.9,1412.9z"/>
	<path class="st0" d="M-774.2,1315.3c0,0,9-39.5,15.3-47.1c0,0-2.3-13.6-7.5-15.3s8-4.3,8-4.3l8.1,2.8l8.1,3.3c0,0-7.1,6.3-5.9,14.5
		c-0.7,3.7-0.3,7.5,0.9,11c2.1,5.5,2.5,50.1,0,55.9c-2.5,5.9-2.1,18.9-2.1,18.9l-5.3,25.3l-1.8,30.4l-19.1,14.2l-13.4-16.7
		L-774.2,1315.3z"/>
	<path class="st12" d="M-774.9,1314.5c0,0,9-39.5,15.3-47.1c0,0-2.3-13.6-7.5-15.3c-5.2-1.8,8-4.3,8-4.3l8.1,2.8l8.1,3.3
		c0,0-7.1,6.3-5.9,14.5c-0.7,3.7-0.4,7.4,0.9,11c2.1,5.5,2.6,50.1,0,55.9s-2.1,18.9-2.1,18.9l-5.3,25.3l-1.8,30.4l-19,14l-13.4-16.7
		L-774.9,1314.5z"/>
	<path class="st0" d="M-731.5,1244.8l-19.6,6.5c0,0,9.9,5,9.9,20C-741.4,1271.3-731.4,1259.2-731.5,1244.8z"/>
	<path class="st15" d="M-731.5,1244l-19.6,6.5c0,0,9.9,5,9.9,20C-741.4,1270.5-731.4,1258.4-731.5,1244z"/>
	<path class="st0" d="M-774.2,1225.7c0,0,9.7,16.6,23,25.6c0,0-8.1-3-23,8.4C-774.2,1259.7-783.4,1226.5-774.2,1225.7z"/>
	<path class="st15" d="M-774.2,1225c0,0,9.7,16.6,23,25.6c0,0-8.1-3-23,8.4C-774.2,1259-783.4,1225.7-774.2,1225z"/>
	<path class="st0" d="M-626.7,1439.3c0,0,1.8,0.7,3.8,1.4c5.9-11.2,17.7-20.7,19.6-22.3c-0.2-0.1-0.3-0.2-0.5-0.2l-4.7-1.7
		L-626.7,1439.3z"/>
	<path class="st0" d="M-759.2,1467.2c0.6,13.1,7.8,37.5,7.8,37.5c9.1,12.6,29.4,3.3,36.5-0.5c1.4-25.6-1.7-78.9-1.7-78.9l-12.8-17.6
		l-13.4-0.7l10-87.9l3.3-66.5h-5c-1.6,6.8-4.2,18.2-3.7,21c0.7,4.1-6.1,44.5-6.1,44.5l-8.5,51.5l-2.3,14c0.7,2.3,0.2,12.4-0.7,22.7
		c-0.3,2.9-0.5,5.9-0.7,8.6c-0.9,9.6-1.9,17.6-1.9,17.6C-759.4,1441.6-759.2,1467.2-759.2,1467.2z"/>
	<path class="st16" d="M-757.6,1466.5c0.6,13.2,7.8,37.5,7.8,37.5c11.2,15.5,39-2,39-2s5.3-74.6,2.1-83.8c-2-5.9-2.9-12.1-2.8-18.2
		l6-22.6c0,0,3.9,11.2,6.5,12.5s5.7,6.9,5.7,6.9l26.9,22.4l20.8,15.9l18.5,15.9c1.5-16.6,23.3-32.9,23.3-32.9l-62.8-51.8
		c0.6-1-2.8-12-2.8-12l-3.3-11.4l-7.1-9.6c0,0,2-6.7,0-10s-1.6-11.2-3-30.2c-1.4-19.1-8.8-20.3-8.8-20.3s-28.8-20.1-32.2-19.4
		c-3.2,0.6-7.2-5.8-7.8-6.6l-0.1-0.1c0,0-5.6,22-4.9,26.1c0.7,4.1-6.1,44.5-6.1,44.5l-8.5,51.5l-2.3,14c1.7,5.3-3.3,48.8-3.3,48.8
		C-757.8,1440.8-757.6,1466.5-757.6,1466.5z"/>
	<path class="st0" d="M-850.2,1489.5c11.2,5.8,21.7,11.3,21.7,11.3s17.4,5.8,24.4-27l20.3-55.7c0,0,0.6-1.7,1.4-4.5
		c0.7-2.2,1.6-5.3,2.5-8.7c4-14.1,9.3-35.8,7.3-44.3v-0.7l-0.4-76c0,0,2.1-35.8,0.8-38.7c0-0.1-0.1-0.2-0.1-0.2l0,0l-11.5-4.4
		l-9.4,19.2l-3.2,88.1l-7.4,55.6l-29.2-1.6c0,0-6,53.9-14.5,77.2C-848.7,1482.7-849.6,1486.2-850.2,1489.5z"/>
	<path class="st16" d="M-876.9,1476.4c9.8,4.1,46.8,23.7,46.8,23.7s17.4,5.8,24.4-27l20.3-55.7c0,0,14.3-44.4,11.2-57.4v-0.7
		l-0.4-76c0,0,2.1-35.7,0.8-38.7c-1.3-2.8-2.8-11.1-2.1-18.1c0-0.4,0.1-0.7,0.1-1.1l-0.5,0.3l-14.3,7.5h-1.5
		c-4.6-0.1-17.9-0.2-20,0.7c-2.5,1-26.6,3.1-26.6,3.1s-12.8,0.7-12.2,20.4c0,0-4.8,16.5-6.3,19.2s-9.9,29.6-9.9,29.6l-9.9,51.3
		l-1.2,56.8c0,0-0.1,36.2-2,39.2l7.1,2.8C-873.1,1456.4-886.8,1472.3-876.9,1476.4z"/>
	<path class="st13" d="M-842.1,1444.2l4.5,5.9c0,0,27.2,49.3-3.2,42.2c-30.4-7.2-25.9-32.1-25.9-32.1l1.9-17.3L-842.1,1444.2z"/>
	<path class="st0" d="M-803.8,1710.5c-0.7-0.1-11.2-4.6-18.6-4.6c-7.3,0-17.1-0.7-16,1.2c1.1,2,15.3,2.2,19.3,4.2
		c4.1,2,12.7,7.3,13.5,7.6C-804.6,1719.2-803.8,1710.5-803.8,1710.5z"/>
	<path class="st0" d="M-730.8,1688.3c-0.1,0.7-15.7,18.3-24.3,17.5C-763.8,1704.9-730.8,1688.3-730.8,1688.3z"/>
	<path class="st0" d="M-735.3,1646.6c0,0-16.7,42.6-22.1,44.8c-5.4,2.2-6.1-5.2-3.3-7.3C-757.8,1681.9-748.9,1668.1-735.3,1646.6z"
		/>
	<path class="st0" d="M-821.5,1632.6c0,0-2.8,15.7,4.2,25.9C-810.3,1668.7-821.5,1632.6-821.5,1632.6z"/>
	<path class="st0" d="M-777.5,1490.2c0.3-0.3-25-1.3-25-1.3S-791.1,1501.2-777.5,1490.2z"/>
	<path class="st0" d="M-780.6,1501.1l-15.3,1.4C-795.9,1502.5-790.5,1509-780.6,1501.1z"/>
	<path class="st0" d="M-690.1,1337.8c0,0,13.8,1.9,15.1,5.9C-673.7,1347.6-690.1,1337.8-690.1,1337.8z"/>
	<path class="st0" d="M-665.7,1371.4c-1-0.4-9.6-2.9-15.6-1.3s-14.5-2.9-14.5-2.9s-8.6-0.3-7,0.9c1.7,1.2,6.8,0.7,9.7,2.3
		c2.9,1.7,10.4,3.2,12.4,2.3C-678.8,1372-665.7,1371.4-665.7,1371.4z"/>
	<path class="st16" d="M-751.1,1368.9l0.3,7.1c0,0,24.1-59.2,30.1-71.8s2.7-40.2,2.7-40.2l-3.4-0.8l-9.9-16.2l-0.1-0.1
		c0,0-5.6,22-4.9,26.1c0.7,4.1-6.1,44.5-6.1,44.5L-751.1,1368.9z"/>
	<path class="st16" d="M-799.3,1245c0,0,9.9,101.8,25.2,114.4l-0.4-76c0,0,2.1-35.7,0.8-38.7c-1.3-2.8-2.8-11.1-2.1-18.1l-0.3-0.8
		l-14.3,7.5h-1.6l-0.9,13.6L-799.3,1245z"/>
	<path class="st0" d="M-751.1,1368.9l0.3,7.1c0,0,24.1-59.2,30.1-71.8s2.7-40.2,2.7-40.2l-3.4-0.8l-9.9-16.2l-0.1-0.1
		c0,0-5.6,22-4.9,26.1c0.7,4.1-6.1,44.5-6.1,44.5L-751.1,1368.9z"/>
	<path class="st0" d="M-799.3,1245c0,0,9.9,101.8,25.2,114.4l-0.4-76c0,0,2.1-35.7,0.8-38.7c-1.3-2.8-2.8-11.1-2.1-18.1l-0.3-0.8
		l-14.3,7.5h-1.6l-0.9,13.6L-799.3,1245z"/>
	<circle class="st14" cx="-748.1" cy="1385.7" r="2.9"/>
	<circle class="st14" cx="-751.1" cy="1429" r="2.9"/>
	<path class="st0" d="M-773.8,1199c0,5.1,1.1,10.1,3.3,14.8l0.5-0.6c5.7-7.2,7-17.1,12.1-24.7c1.9-2.7,4.3-5.2,7.3-6.1
		c3.1-0.9,6.8-0.2,8.7,2.4c1.2,1.7,1.6,3.9,2.8,5.6c2.4,3.2,7,3.1,10.9,2.5s8.3-1.2,11.2,1.3c3,2.5,3.2,7,5.6,9.9
		c1.9,2.2,4.6,3.3,7.4,3.8c4.8-19-6.6-38.2-25.6-43s-38.2,6.6-43,25.6C-773.4,1193.4-773.8,1196.2-773.8,1199L-773.8,1199z"/>
	<path class="st17" d="M-753.9,1153.7c-7.3,3.1-14.5,7-20.1,12.8c-5.6,5.9-9.3,13.8-8.9,21.9c0.1,2.6,0.7,5.1,2,7.3
		c1.2,2,3,3.5,3.5,5.7c0.7,2.5-0.3,5.2-0.3,7.8c0,2.6,2,5.8,4.4,5c0.9-0.4,1.7-0.9,2.2-1.8c5.7-7.2,7-17.1,12-24.6
		c1.9-2.7,4.3-5.2,7.3-6.1s6.8-0.3,8.7,2.4c1.2,1.7,1.5,3.9,2.8,5.6c2.4,3.2,7,3.1,10.9,2.5s8.3-1.2,11.2,1.3c3,2.5,3.2,7,5.6,9.9
		c2.9,3.6,8.1,4.1,12.6,4.3c-1.9-4.2-1.2-9.1,0.4-13.4c1.6-4.3,4.1-8.2,5.9-12.5c1.3-2.9,2-5.9,1.9-9.1c-0.3-3.1-1.9-6.2-4.6-7.6
		c-1.6-0.8-3.4-1-4.9-2c-4.4-3-4.1-7.9-9.9-9.5c-4.6-1.3-9.6-1.2-14.3-2.6C-735.5,1148.3-744.1,1150.1-753.9,1153.7z"/>
	<path class="st0" d="M-857.2,1448.4c0,0-8,7.9-9,7.7c-1-0.2-2.6-7.1-2.6-7.1L-857.2,1448.4z"/>
	<path class="st15" d="M-858,1447.6c0,0-8,7.9-9,7.7c-1-0.2-2.6-7.1-2.6-7.1L-858,1447.6z"/>
	<path class="st0" d="M-879.5,1454.3c0,0,34-7.9,42.6-4.2c0,0-3.2-19.2-2.6-22.8c0.6-3.6-0.1-15.8-0.1-15.8s-2-22.9,0.7-29.3
		s1.2-23.4,1.2-23.4l-38.8,18.5C-876.6,1377.2-877,1449.2-879.5,1454.3z"/>
	<path class="st16" d="M-880.2,1453.5c0,0,34-7.9,42.6-4.2c0,0-3.2-19.2-2.6-22.8c0.6-3.5-0.1-15.8-0.1-15.8s-2-22.9,0.7-29.3
		s1.2-23.4,1.2-23.4l-38.8,18.4C-877.3,1376.4-877.9,1448.4-880.2,1453.5z"/>
	<g class="st18">
		<path d="M-700.5,1204c-1.6-4.1-0.9-8.7,0.7-12.8c1.6-4.3,4.1-8.2,5.9-12.5c1.3-2.9,2-5.9,1.9-9.1c0-0.1,0-0.1,0-0.2
			c0.5,1,0.7,2.1,0.8,3.3c0.1,3.2-0.6,6.2-1.9,9.1c-1.8,4.2-4.3,8.1-5.9,12.5C-700.3,1197.4-700.7,1200.7-700.5,1204z"/>
		<path d="M-773.7,1211.1c0.9-0.4,1.8-0.9,2.3-1.8c5.7-7.2,6.9-17.1,12-24.6c1.9-2.7,4.3-5.2,7.3-6.1c3.1-1,6.8-0.3,8.7,2.4
			c1.2,1.7,1.5,3.9,2.8,5.6c2.4,3.2,7,3.1,10.9,2.5s8.3-1.2,11.2,1.3c3,2.5,3.2,7,5.6,9.9c2.9,3.6,8,4.1,12.5,4.3
			c0.2,1.1,0.5,2.1,0.9,3.2c-4.6-0.2-9.8-0.7-12.6-4.3c-2.4-3-2.7-7.5-5.6-9.9c-2.9-2.4-7.3-2-11.2-1.3s-8.5,0.7-10.9-2.5
			c-1.2-1.7-1.6-3.8-2.8-5.6c-1.9-2.7-5.7-3.4-8.7-2.4c-3.1,1-5.5,3.4-7.3,6.1c-5.1,7.6-6.3,17.6-12,24.6c-0.6,0.8-1.3,1.5-2.2,1.8
			c-2.4,0.7-4.4-2.4-4.4-5v-0.1C-776.5,1210.6-775.2,1211.6-773.7,1211.1z"/>
		<path d="M-781.3,1192.6c1.2,2,3,3.5,3.5,5.7c0.2,0.7,0.3,1.2,0.3,1.9c-0.8-1.6-2-2.9-3-4.4c-0.9-1.7-1.6-3.4-1.9-5.4
			C-782.2,1191.2-781.8,1192-781.3,1192.6z"/>
	</g>
</g>
</svg>
