<?xml version="1.0" encoding="utf-8"?>
<!-- Generator: Adobe Illustrator 19.0.0, SVG Export Plug-In . SVG Version: 6.00 Build 0)  -->
<svg version="1.1" id="图层_1" xmlns="http://www.w3.org/2000/svg" xmlns:xlink="http://www.w3.org/1999/xlink" x="0px" y="0px"
	 viewBox="-917 917.7 1000 1000" style="enable-background:new -917 917.7 1000 1000;" xml:space="preserve">
<style type="text/css">
	.st0{opacity:0.1;fill:#6C63FF;enable-background:new    ;}
	.st1{fill:url(#SVGID_1_);}
	.st2{fill:#6C63FF;}
	.st3{opacity:0.2;fill:#F5F5F5;enable-background:new    ;}
	.st4{opacity:0.25;enable-background:new    ;}
	.st5{fill:url(#SVGID_2_);}
	.st6{fill:#B96B6B;}
	.st7{opacity:0.1;enable-background:new    ;}
	.st8{fill:#E7E7EE;}
	.st9{fill:#FFB9B9;}
	.st10{fill:#777B9B;}
	.st11{fill:#CBCDDA;}
	.st12{fill:none;stroke:#000000;stroke-width:5;stroke-miterlimit:10;}
	.st13{fill:none;stroke:#000000;stroke-width:5;stroke-miterlimit:10;stroke-dasharray:11.8636,11.8636;}
	.st14{fill:none;stroke:#000000;stroke-width:5;stroke-miterlimit:10;stroke-dasharray:11.8844,11.8844;}
	.st15{fill:none;}
	.st16{font-family:'SimHei';}
	.st17{font-size:35px;}
	.st18{fill:none;stroke:#000000;stroke-width:5;stroke-miterlimit:10;stroke-dasharray:11.8136,11.8136;}
	.st19{fill:none;stroke:#000000;stroke-width:5;stroke-miterlimit:10;stroke-dasharray:12.706,12.706;}
	.st20{fill:none;stroke:#000000;stroke-width:5;stroke-miterlimit:10;stroke-dasharray:12.0837,12.0837;}
	.st21{fill:none;stroke:#000000;stroke-width:5;stroke-miterlimit:10;stroke-dasharray:12.1271,12.1271;}
</style>
<path id="_x23_background" class="st0" d="M-746.6,1163.5c-5.3,6.5-7.4,15.6-9.7,24.2c-18.5,69.1-64.2,124.6-116.1,164.3
	c-22,16.8-48.8,39.3-44,69.5c2.6,16.2,14,28.1,22.4,41.3c17.7,27.6,23.5,65.1,15,98.1c-9.6,37.6-36.5,72.7-28.2,110.7
	c5.1,23.4,22.5,40,39.3,54.4c26.1,22.3,53.1,43.2,80.8,62.7c18.6,13.1,38.4,25.8,60.1,27.4c19.1,1.5,37.8-5.8,56-13
	c15.9-6.3,32.1-12.8,44.9-25.3c8.4-8.2,15-18.8,24.3-25.5c21.8-15.8,49.8-5.8,74.8,1c59,15.8,122.1,10.1,178.2-16.3
	c86.1-40.5,151.7-125.4,235.9-171c36.2-19.6,75.6-31.8,109.1-57c18.9-14.4,35.1-31.9,48-51.9c25.3-39.1,39.1-89,35.1-137.8
	s-26.1-95.8-61-123.4c-37.3-29.5-84.4-35-126.8-52.7c-43.8-18.3-82.8-49.7-126.2-69.3c-71.1-32.1-152.9-30.2-222.5,5
	c-47.2,23.8-95.1,79.6-147.7,83.8C-642.3,1165.5-717.3,1128-746.6,1163.5z"/>
<g id="_x23_other_x28_have_x5B_drone_x5D__x29_">
	
		<linearGradient id="SVGID_1_" gradientUnits="userSpaceOnUse" x1="-50.1661" y1="-368.1931" x2="-50.1661" y2="-253.4577" gradientTransform="matrix(1 0 0 -1 -88.62 949.6702)">
		<stop  offset="0" style="stop-color:#808080;stop-opacity:0.25"/>
		<stop  offset="0.54" style="stop-color:#808080;stop-opacity:0.12"/>
		<stop  offset="1" style="stop-color:#808080;stop-opacity:0.1"/>
	</linearGradient>
	<path class="st1" d="M-14.9,1207.1c-6.9-0.1-13.9,0.4-20.8,1.3l0,0c0-2.8-2.2-5-5-5s-5,2.2-5,5l0,0c-6.9-0.9-13.8-1.4-20.8-1.3
		c-15.4,0-27.8,1.7-27.8,3.8s12.5,3.8,27.8,3.8c6.9,0.1,13.9-0.4,20.8-1.3l0,0c0,0.6,0.1,1.2,0.3,1.8c-1.6,1-2.1,3.2-1,4.8
		c0.2,0.3,0.4,0.6,0.7,0.8c-2.5,0.9-4.4,2.8-5.5,5.2c-1.4-1.1-3-1.7-4.8-1.8l-51.7-2.4c-3.8-5.2-9.8-8.3-16.2-8.3h-32.6
		c-6.5,0-12.5,3.2-16.3,8.4l-49.2,2.3c-1.6,0.1-3.2,0.6-4.5,1.5c-1-2.1-2.7-3.8-4.8-4.7c0.9-0.6,1.5-1.7,1.5-2.9
		c0-1.5-0.9-2.8-2.3-3.2c0.1-0.5,0.2-1,0.2-1.5l0,0c6.9,0.9,13.8,1.4,20.8,1.3c15.4,0,27.8-1.7,27.8-3.8s-12.5-3.8-27.8-3.8
		c-6.9-0.1-13.9,0.4-20.8,1.3l0,0c0-2.8-2.2-5.1-5-5.1l0,0c-2.8,0-5,2.3-5,5.1l0,0c-6.9-0.9-13.8-1.4-20.8-1.3
		c-15.4,0-27.8,1.7-27.8,3.8s12.5,3.8,27.8,3.8c6.9,0.1,13.9-0.4,20.8-1.3l0,0c0,0.6,0.1,1.2,0.3,1.8c-1.6,1-2.1,3.2-1,4.8
		c0.2,0.3,0.5,0.6,0.8,0.9c-3.6,1.4-5.9,4.9-5.9,8.8v6.3c-0.1,5.1,4,9.4,9.2,9.4l0,0h3.7c2.9,0,5.7-1.4,7.4-3.8
		c1.5,1.4,3.5,2.3,5.6,2.3l48.2,1.4c1.5,2.5,3.6,4.6,6,6.3c-4.6,4.8-22.6,26.2-19.7,63.8c0,0,2.9,5.5,10.4,0c0,0-4.8-41.9,22-59.2
		c0.9,2.7,3.4,4.6,6.3,4.6h3.4c-6.9,2.9-11.4,9.6-11.3,17.1c-0.3,9.9,7.4,18.1,17.3,18.4c9.9,0.3,18.1-7.4,18.4-17.3
		c0-0.4,0-0.8,0-1.2c0-7.4-4.5-14.1-11.3-17h3.4c2.9,0,5.4-1.9,6.3-4.6c26.8,17.3,22,59.2,22,59.2c7.5,5.5,10.4,0,10.4,0
		c3.3-43.1-20.8-64.9-20.8-64.9h-0.4c1.8-1.4,3.3-3.2,4.5-5.1l50.7-1.5c2.2-0.1,4.3-1,5.8-2.6c1.7,2.5,4.5,4,7.5,4h3.7
		c5.1-0.1,9.3-4.3,9.2-9.4l0,0v-6.3c0-3.7-2.1-7-5.4-8.6c1.6-1,2.2-3.1,1.2-4.7c-0.4-0.7-1-1.2-1.8-1.5c0.1-0.5,0.2-1,0.2-1.5l0,0
		c6.9,0.9,13.8,1.4,20.8,1.3c15.4,0,27.8-1.7,27.8-3.8S0.5,1207.1-14.9,1207.1z"/>
	<circle class="st2" cx="-140.1" cy="1277" r="17.3"/>
	<circle class="st2" cx="-140.1" cy="1277" r="11.7"/>
	<circle class="st3" cx="-140.1" cy="1277" r="11.7"/>
	<circle class="st2" cx="-140.1" cy="1277" r="7.7"/>
	<circle class="st4" cx="-140.1" cy="1277" r="7.7"/>
	<path class="st2" d="M-167.1,1251.2c0,0-23.4,20.5-20.1,61.2c0,0,2.8,5.2,10.1,0c0,0-6-51.5,34.2-61.2H-167.1z"/>
	<path class="st2" d="M-113.1,1251.2c0,0,23.4,20.5,20.1,61.2c0,0-2.8,5.2-10.1,0c0,0,6-51.5-34.2-61.2H-113.1z"/>
	<path class="st2" d="M-160.4,1216.2h37.8c9.1,0,16.5,7.4,16.5,16.5v6.2c0,9.1-7.4,16.5-16.5,16.5h-37.8c-9.1,0-16.5-7.4-16.5-16.5
		v-6.2C-176.9,1223.6-169.5,1216.2-160.4,1216.2z"/>
	<path class="st2" d="M-165.3,1246.5l-55.3-1.5c-4.5-0.1-8.1-3.8-8.1-8.3v-2.1c0-4.4,3.5-8.1,7.9-8.3l55.3-2.5
		c4.6-0.2,8.5,3.3,8.7,7.9c0,0.1,0,0.2,0,0.4v6.2c0,4.6-3.7,8.3-8.3,8.3C-165.2,1246.5-165.2,1246.5-165.3,1246.5z"/>
	<path class="st2" d="M-115.2,1246.5l55.2-1.5c4.5-0.1,8.1-3.8,8.1-8.3v-2.1c0-4.4-3.5-8.1-7.9-8.3l-55.3-2.5
		c-4.6-0.2-8.5,3.3-8.7,7.9c0,0.1,0,0.2,0,0.4v6.2c0,4.6,3.7,8.3,8.3,8.3C-115.4,1246.5-115.3,1246.5-115.2,1246.5z"/>
	<path class="st3" d="M-165.3,1246.5l-55.3-1.5c-4.5-0.1-8.1-3.8-8.1-8.3v-2.1c0-4.4,3.5-8.1,7.9-8.3l55.3-2.5
		c4.6-0.2,8.5,3.3,8.7,7.9c0,0.1,0,0.2,0,0.4v6.2c0,4.6-3.7,8.3-8.3,8.3C-165.2,1246.5-165.2,1246.5-165.3,1246.5z"/>
	<path class="st3" d="M-115.2,1246.5l55.2-1.5c4.5-0.1,8.1-3.8,8.1-8.3v-2.1c0-4.4-3.5-8.1-7.9-8.3l-55.3-2.5
		c-4.6-0.2-8.5,3.3-8.7,7.9c0,0.1,0,0.2,0,0.4v6.2c0,4.6,3.7,8.3,8.3,8.3C-115.4,1246.5-115.3,1246.5-115.2,1246.5z"/>
	<path class="st2" d="M-236.6,1222.6h3.4c5,0,9,4,9,9v5.8c0,5-4,9-9,9h-3.4c-5,0-9-4-9-9v-5.8
		C-245.6,1226.6-241.6,1222.6-236.6,1222.6z"/>
	<path class="st2" d="M-46.9,1222.6h3.4c5,0,9,4,9,9v5.8c0,5-4,9-9,9h-3.4c-5,0-9-4-9-9v-5.8C-55.9,1226.6-51.9,1222.6-46.9,1222.6z
		"/>
	<path class="st2" d="M-238.4,1217.4h7.5c1.5,0,2.7,1.2,2.7,2.7v1c0,1.5-1.2,2.7-2.7,2.7h-7.5c-1.5,0-2.7-1.2-2.7-2.7v-1
		C-241.1,1218.6-239.9,1217.4-238.4,1217.4z"/>
	<path class="st2" d="M-235.9,1206.5h1.5c2.2,0,4.1,1.8,4.1,4.1v6.4c0,2.2-1.8,4.1-4.1,4.1h-1.5c-2.2,0-4.1-1.8-4.1-4.1v-6.4
		C-239.9,1208.3-238.1,1206.5-235.9,1206.5z"/>
	<ellipse class="st2" cx="-260.1" cy="1213.7" rx="27" ry="3.6"/>
	<ellipse class="st2" cx="-210.1" cy="1213.7" rx="27" ry="3.6"/>
	<path class="st2" d="M-48.4,1217.4h7.5c1.5,0,2.7,1.2,2.7,2.7v1c0,1.5-1.2,2.7-2.7,2.7h-7.5c-1.5,0-2.7-1.2-2.7-2.7v-1
		C-51.1,1218.6-49.9,1217.4-48.4,1217.4z"/>
	<path class="st2" d="M-45.8,1206.5h1.5c2.2,0,4.1,1.8,4.1,4.1v6.4c0,2.2-1.8,4.1-4.1,4.1h-1.5c-2.2,0-4.1-1.8-4.1-4.1v-6.4
		C-49.9,1208.3-48.1,1206.5-45.8,1206.5z"/>
	<ellipse class="st2" cx="-70" cy="1213.7" rx="27" ry="3.6"/>
	<ellipse class="st2" cx="-20.1" cy="1213.7" rx="27" ry="3.6"/>
	<ellipse class="st3" cx="-260.1" cy="1213.7" rx="27" ry="3.6"/>
	<ellipse class="st3" cx="-210.1" cy="1213.7" rx="27" ry="3.6"/>
	<ellipse class="st3" cx="-70" cy="1213.7" rx="27" ry="3.6"/>
	<ellipse class="st3" cx="-20.1" cy="1213.7" rx="27" ry="3.6"/>
	<path class="st2" d="M-150.8,1248h21.4c3,0,5.4,2.4,5.4,5.4v2c0,3-2.4,5.4-5.4,5.4h-21.4c-3,0-5.4-2.4-5.4-5.4v-2
		C-156.2,1250.4-153.8,1248-150.8,1248z"/>
	<path class="st3" d="M-150.8,1248h21.4c3,0,5.4,2.4,5.4,5.4v2c0,3-2.4,5.4-5.4,5.4h-21.4c-3,0-5.4-2.4-5.4-5.4v-2
		C-156.2,1250.4-153.8,1248-150.8,1248z"/>
</g>
<g id="_x23_woman_x28_watch_x2C_have_x5B_head_x5F_shot_x5D__x29_">
	
		<linearGradient id="SVGID_2_" gradientUnits="userSpaceOnUse" x1="-512.6661" y1="-874.0479" x2="-512.6661" y2="-240.0072" gradientTransform="matrix(1 0 0 -1 -88.62 949.6702)">
		<stop  offset="0" style="stop-color:#808080;stop-opacity:0.25"/>
		<stop  offset="0.54" style="stop-color:#808080;stop-opacity:0.12"/>
		<stop  offset="1" style="stop-color:#808080;stop-opacity:0.1"/>
	</linearGradient>
	<path class="st5" d="M-288.5,1610.5l-0.6,0.1l2.3-1.7c-24.8,4-48.4-10.9-68.7-25.6c-3.1-2.3-6.3-4.6-9.4-7l-43.1-48.1
		c-2-4.5-3.5-9.2-4.5-14c-2.8-14.1-1-29.6-7.8-42.3c-4.1-7.8-11-13.7-16.1-20.9c-21.8-31.4-2.6-75.7-13.7-112.3
		c-5.9-18.9-19.6-34.4-37.6-42.7c0.7-3.8,1-7.7,0.9-11.6c0.1-5.7-0.8-11.4-2.4-16.9l2.1-1.7c0,0-0.8,0.3-2.3,0.9
		c-0.1-0.2-0.1-0.4-0.2-0.5c-7.9-24.3-34.8-52.7-110.2-70.9c0,0-15.6-6.2-40.9-5.6c-53.2,1.3-101.5,31.9-126.2,79.1
		c-4.4,8.4-7,17.7-7.5,27.2c-0.6,10.8-1.7,26.1-3.5,39.5c-0.3,2.6-0.5,5.2-0.4,7.8c-0.3,21.4,11.4,45.6,12.7,48.1c0,0.3,0,0.7,0,1.1
		c-0.2,3.5,0.6,17.3,25.1,26.5c6.9,2.6,12.8,7.2,17,13.3c-8.3-0.1-16.4-0.1-21,0.2c-3.5,0.2-12.2,5.5-22.6,12.8
		c-9,6.3-17.4,13.4-25,21.2c-19.9,19.9-35.2,44-44.6,70.6c-0.6,1.6-1.3,3.2-2.2,4.7c-3.3,5.1-10.3,14.8-9.8,32.6
		c-0.2,7.7,1,17,4.7,28.4c-19,4.3-45.6,13.7-51.8,33.9c-9.9,31.9-19.9,187-19.9,187h616.4c0,0-12.4-98.2-35.4-165.6l10.8-13.4
		c9.3-3.6,14.7-5.8,14.7-5.8l-5.2-5.8l5.2-6.5c0,0-1.5,0.9-4.2,2.4l1.9-2.3C-303.5,1621.9-296,1616.2-288.5,1610.5z"/>
	<rect x="-748.7" y="1476.5" class="st6" width="117" height="151.9"/>
	<rect x="-748.7" y="1476.5" class="st7" width="117" height="151.9"/>
	<path class="st6" d="M-531,1376.5c-7.8,9.5-18.7,15.8-30.8,17.8c-12.2,1.9-24.8-0.7-37.1,0.9c-12.3,1.5-25.5,9.6-26.3,22
		c-0.6,10.6,8.2,20.9,4.8,31c-1.5,4.3-4.9,7.5-8.3,10.5c-16.9,14.6-36.4,26.6-50.3,44.1c-13.9,17.5-20.8,43.4-8.8,62.2
		c7,10.9,19.7,18.6,22.6,31.2c1.7,7.1-0.1,14.5-2,21.6c-6,22.5-16.3,48.2-38.9,53.6c25.4,24.5,64.7,26.1,100,24.7
		c14.4-0.6,29-1.5,42.6-6.1c13.7-4.6,26.5-13.5,32.8-26.4c7.5-15.2,5.1-33.1,5-50c-0.2-30.3,7.2-60.2,21.6-86.8
		c6.4-11.8,14.2-22.9,19.9-35.1c11.4-24,14.4-51.1,17-77.6c1.2-12.5,2.3-25.2-0.7-37.4c-3.1-12.4-15.8-31.4-30.1-32.9
		C-515.1,1342-522.4,1365.9-531,1376.5z"/>
	<path class="st7" d="M-531,1376.5c-7.8,9.5-18.7,15.8-30.8,17.8c-12.2,1.9-24.8-0.7-37.1,0.9c-12.3,1.5-25.5,9.6-26.3,22
		c-0.6,10.6,8.2,20.9,4.8,31c-1.5,4.3-4.9,7.5-8.3,10.5c-16.9,14.6-36.4,26.6-50.3,44.1c-13.9,17.5-20.8,43.4-8.8,62.2
		c7,10.9,19.7,18.6,22.6,31.2c1.7,7.1-0.1,14.5-2,21.6c-6,22.5-16.3,48.2-38.9,53.6c25.4,24.5,64.7,26.1,100,24.7
		c14.4-0.6,29-1.5,42.6-6.1c13.7-4.6,26.5-13.5,32.8-26.4c7.5-15.2,5.1-33.1,5-50c-0.2-30.3,7.2-60.2,21.6-86.8
		c6.4-11.8,14.2-22.9,19.9-35.1c11.4-24,14.4-51.1,17-77.6c1.2-12.5,2.3-25.2-0.7-37.4c-3.1-12.4-15.8-31.4-30.1-32.9
		C-515.1,1342-522.4,1365.9-531,1376.5z"/>
	<path class="st8" d="M-303.9,1818.9h-606.9c0,0,9.7-152.7,19.5-184.4c5.9-19.2,30.7-28.6,49.2-33c7.1-1.7,14.2-2.9,21.4-3.6
		c43.3,28.2,85.1,44.2,124.8,52.1c162.8,32.2,288.4-74.3,323.6-52.1c10.7,6.7,20.2,23.3,28.5,44.6c1.8,4.6,3.6,9.5,5.3,14.5
		C-316,1723.3-303.9,1818.9-303.9,1818.9z"/>
	<path class="st9" d="M-684.1,1418.4c0,0,64.2,167.3-50.4,254.3s231.5,62.5,231.5,62.5l60.9-161.7c0,0-162.5,58.5-91-114.5
		L-684.1,1418.4z"/>
	<path class="st7" d="M-440.8,1749.4c0,0,50.7,37.4,0.2,69.5"/>
	<path class="st10" d="M-494,1434.6l180.3,202.3c0,0-173,70.7-235.6,64.2c-33.3-3.5,0-91.8-1.7-167.7c-0.1-5.4,0.6-17.4,1.8-21
		c1-2.8,3.6,4.5,4.6,1.8l0.3-0.8C-524.9,1460.3-494,1434.6-494,1434.6z"/>
	<path class="st10" d="M-690.6,1409.4c0,0-73.9,54.4-67.4,195.8s158.4,102.4,158.4,102.4s-113.8-118.6-93.5-182.8
		C-672.8,1460.6-690.6,1409.4-690.6,1409.4z"/>
	<path class="st7" d="M-693.1,1433.8c0,0-37-1.2-49.2-0.4c-3.4,0.2-12,5.4-22.2,12.7c-31.1,21.8-54.2,53-67,88.7
		c-0.5,1.6-1.3,3.2-2.1,4.7c-5.7,8.9-22.7,31.7,8.9,87.7c14.5,25.6,23,44.1,28,56.6c8,20.2,20.5,38.3,36.6,52.9
		c28.5,25.7,75.6,57.9,133.6,57.9c96.7,0,137.3,42.2,197.4-30.9s117-143.8,117-143.8s-264.8,153.5-410.2-4.1
		C-722.3,1615.7-781.6,1499.6-693.1,1433.8z"/>
	<path class="st7" d="M-338.4,1657c-22.1,27.4-57.1,70.5-93.3,114.4c-60.1,73.1-100.7,30.9-197.4,30.9c-31.5,0-59.8-9.5-83.6-22.2
		c-40.6-21.7-72.3-56.8-91-98.9c-5.2-11.7-12.7-26.9-23.6-46.2c-7.2-12.8-11.9-23.9-14.8-33.4c7.1-1.7,14.2-2.9,21.4-3.6
		c43.3,28.2,85.1,44.2,124.8,52.1c117,88.2,285.3,24.1,352.2-7.5C-325.6,1634-344.4,1640.1-338.4,1657z"/>
	<path class="st11" d="M-694.7,1435.4c0,0-37-1.2-49.2-0.4c-3.4,0.2-12,5.4-22.2,12.7c-31.1,21.8-54.2,53-67,88.7
		c-0.5,1.6-1.3,3.2-2.1,4.7c-5.7,8.9-22.7,31.7,8.9,87.7c10.9,19.3,18.4,34.5,23.6,46.2c18.7,42.1,50.4,77.2,91,98.9
		c23.8,12.8,52.1,22.2,83.6,22.2c96.7,0,137.3,42.2,197.4-30.9s117-143.8,117-143.8s-264.8,153.6-410.2-4
		C-723.9,1617.4-783.2,1501.2-694.7,1435.4z"/>
	<path class="st7" d="M-512.6,1291.7c5,3.6,11.3,5,17.1,7.2c19.8,7.5,35.1,23.7,41.5,43.9c11,36.1-8,79.6,13.5,110.5
		c4.9,7.1,11.8,12.9,15.8,20.6c6.6,12.6,4.9,27.8,7.6,41.7c5.9,29.5,31.5,50.4,55.9,68.1c20.1,14.5,43.3,29.2,67.7,25.2
		c-11,8.3-22.1,16.8-34.9,21.9s-27.7,6.5-40.1,0.8c-5-2.3-9.4-5.7-14.5-7.9c-25.6-11.3-55.3,9.9-82.6,3.8
		c-17.7-3.9-31.3-19.1-37.7-36c-6.5-16.9-6.9-35.5-6.3-53.6c0.3-8.7,0.7-17.7-2.7-25.6c-4.1-9.3-13-15.8-17.7-24.8
		c-8.3-16-1.8-35.3,4.6-52.1c9.1-24,17.8-48.7,18.6-74.3c0.9-30.1-8.1-59.7-9.3-89.7C-522.1,1277.7-519.3,1286.9-512.6,1291.7z"/>
	<path class="st6" d="M-510.9,1290.1c5,3.6,11.3,5,17.1,7.2c19.8,7.5,35.1,23.7,41.5,43.9c11,36.1-8,79.6,13.5,110.5
		c4.9,7.1,11.8,12.9,15.8,20.6c6.6,12.6,4.9,27.8,7.6,41.7c5.9,29.5,31.5,50.4,55.9,68.1c20.1,14.5,43.3,29.2,67.7,25.2
		c-11,8.3-22.1,16.8-34.9,21.9s-27.7,6.5-40.1,0.8c-5-2.3-9.4-5.7-14.5-7.9c-25.6-11.3-55.3,9.9-82.6,3.8
		c-17.7-3.9-31.3-19.1-37.7-36c-6.5-16.9-6.9-35.5-6.3-53.6c0.3-8.7,0.7-17.7-2.7-25.6c-4.1-9.3-13-15.8-17.7-24.8
		c-8.3-16-1.8-35.3,4.6-52.1c9.1-24,17.8-48.7,18.6-74.3c0.9-30.1-8.1-59.7-9.3-89.7C-520.5,1276.1-517.6,1285.3-510.9,1290.1z"/>
	<path class="st7" d="M-550.7,1524.7c2.3-15.2,7.6-33.7,16.8-56l-151.1-40.6c0,0,10.9,28.3,15.7,67.7c21.9,20.9,45.5,1.9,78.2,1.9
		C-579.1,1497.8-561.6,1527.9-550.7,1524.7z"/>
	<path class="st7" d="M-462.4,1397.1c0,67.3-34.1,122.1-101.4,122.1c-60.4-72.1-142.3-54.9-142.3-122.1
		c0-67.3,54.6-121.9,121.9-121.9S-462.4,1329.8-462.4,1397.1z"/>
	<circle class="st9" cx="-584.2" cy="1398.1" r="121.9"/>
	<path class="st7" d="M-584.7,1357c-5.4,9.4-13.2,15.9-21.5,17.8c-8.6,1.9-17.4-0.7-26,0.9c-10.5,2.2-18.1,11.3-18.4,22
		c-0.4,10.6,5.7,20.9,3.3,31c-1,4.3-3.4,7.5-5.8,10.5c-11.8,14.6-25.5,26.6-35.2,44.1s-14.6,43.4-6.2,62.2
		c4.9,10.9,13.8,18.6,15.8,31.2c1.2,7.1-0.1,14.5-1.4,21.6c-4.2,22.5-11.4,48.2-27.2,53.6c17.8,24.5,45.3,26.1,70,24.7
		c10.1-0.6,20.3-1.5,29.9-6.1c10.9-5.4,19.2-14.9,23-26.4c5.3-15.2,3.6-33.1,3.5-50c-0.2-30.1,5.1-60.3,15.2-86.8
		c4.5-11.8,9.9-22.9,14-35.1c8-24,54.5-137,56.3-163.5c0.8-12.5-42.8,60.7-44.9,48.5c-2.2-12.5-11-31.4-21.1-32.9
		C-573.5,1322.5-578.6,1346.4-584.7,1357z"/>
	<path class="st6" d="M-586.3,1356.2c-5.4,9.4-13.2,15.9-21.5,17.8c-8.6,1.9-17.4-0.7-26,0.9c-10.5,2.2-18.1,11.3-18.4,22
		c-0.4,10.6,5.7,20.9,3.3,31c-1,4.3-3.4,7.5-5.8,10.5c-11.8,14.6-25.5,26.6-35.2,44.1s-14.6,43.4-6.2,62.2
		c4.9,10.9,13.8,18.6,15.8,31.2c1.2,7.1-0.1,14.5-1.4,21.6c-4.2,22.5-11.4,48.2-27.2,53.6c17.8,24.5,45.3,26.1,70,24.7
		c10.1-0.6,20.3-1.5,29.9-6.1c10.9-5.4,19.2-14.9,23-26.4c5.3-15.2,3.6-33.1,3.5-50c-0.2-30.1,5.1-60.3,15.2-86.8
		c4.5-11.8,9.9-22.9,14-35.1c8-24,60.1-137.2,61.8-163.7c0.8-12.5-48.4,60.9-50.5,48.7c-2.2-12.5-11-31.4-21.1-32.9
		C-575.1,1321.7-580.2,1345.6-586.3,1356.2z"/>
	<path class="st7" d="M-529.7,1382.6c36.2-29.9,73.2-66.2,73.2-66.2s53.2-78.4-118.8-115c0,0-17.5-6.1-45.8-5.5
		c-59.7,1.2-113.8,31.4-141.6,77.9c-2.5,4.1-4.4,8.5-5.8,13c-1.4,4.5-2.3,9.1-2.6,13.8c-0.7,10.6-1.9,25.7-3.9,38.9
		c-3.7,23.6,13.9,53.6,13.9,53.6s-3.8,16.6,28.1,26.9c7.8,2.5,14.7,7.3,19.6,13.8c1.8,2.4,3.2,4.9,4.3,7.7c1.1,2.7,1.8,5.5,2.1,8.4
		c1.3,12.5,6.4,35.3,26.4,38.3c0,0,8-7.6,20-17.8L-529.7,1382.6z"/>
	<path class="st2" d="M-457.4,1314.8c0,0-36.9,36.3-73,66.2l-130.7,87.8c-11.9,10.2-19.9,17.8-19.9,17.8
		c-20-2.9-25.1-25.8-26.3-38.3c-0.2-2-0.6-3.9-1.2-5.8c-0.3-0.8-0.6-1.7-0.9-2.5c-1.1-2.7-2.5-5.3-4.3-7.7
		c-4.9-6.5-11.8-11.4-19.6-13.8c-31.7-10.4-28-26.9-28-26.9s-17.5-30.1-13.8-53.6c2.1-13.2,3.3-28.3,3.9-38.9
		c0.3-4.7,1.2-9.3,2.6-13.7c1.4-4.6,3.4-8.9,5.8-13c27.6-46.5,81.6-76.7,141.1-77.9c28.3-0.6,45.7,5.5,45.7,5.5
		c84.2,17.9,114.3,46,123.1,69.8C-443.7,1294.5-457.4,1314.8-457.4,1314.8z"/>
	<path class="st7" d="M-808,1726.7c0,0-29.2,42.2,6.5,92.2"/>
	<path class="st7" d="M-706.1,1452.9c0,0,67-51.2,106-104s140.7-91.9,140.7-91.9"/>
</g>
<g>
	<g>
		<polyline class="st12" points="-327.8,1814.1 -327.8,1820.1 -333.8,1820.1 		"/>
		<line class="st13" x1="-345.7" y1="1820.1" x2="-838" y2="1820.1"/>
		<polyline class="st12" points="-844,1820.1 -850,1820.1 -850,1814.1 		"/>
		<line class="st14" x1="-850" y1="1802.2" x2="-850" y2="1190.1"/>
		<polyline class="st12" points="-850,1184.2 -850,1178.2 -844,1178.2 		"/>
		<line class="st13" x1="-832.1" y1="1178.2" x2="-339.8" y2="1178.2"/>
		<polyline class="st12" points="-333.8,1178.2 -327.8,1178.2 -327.8,1184.2 		"/>
		<line class="st14" x1="-327.8" y1="1196.1" x2="-327.8" y2="1808.1"/>
	</g>
</g>
<rect x="-826.3" y="1132.9" class="st15" width="528.1" height="90.6"/>
<text transform="matrix(1 0 0 1 -826.2626 1162.9565)" class="st16 st17">#woman(watch,have[head_shot])</text>
<g>
	<g>
		<polyline class="st12" points="32.8,1324 32.8,1330 26.8,1330 		"/>
		<line class="st18" x1="15" y1="1330" x2="-286.2" y2="1330"/>
		<polyline class="st12" points="-292.1,1330 -298.1,1330 -298.1,1324 		"/>
		<line class="st19" x1="-298.1" y1="1311.3" x2="-298.1" y2="1190.5"/>
		<polyline class="st12" points="-298.1,1184.2 -298.1,1178.2 -292.1,1178.2 		"/>
		<line class="st18" x1="-280.3" y1="1178.2" x2="20.9" y2="1178.2"/>
		<polyline class="st12" points="26.8,1178.2 32.8,1178.2 32.8,1184.2 		"/>
		<line class="st19" x1="32.8" y1="1196.9" x2="32.8" y2="1317.6"/>
	</g>
</g>
<rect x="-287.1" y="1340.3" class="st15" width="354" height="56.7"/>
<text transform="matrix(1 0 0 1 -287.1126 1370.3737)" class="st16 st17">#other(have[drone])</text>
<g>
	<g>
		<polyline class="st12" points="79.9,1817.7 79.9,1823.7 73.9,1823.7 		"/>
		<line class="st20" x1="61.9" y1="1823.7" x2="-898.8" y2="1823.7"/>
		<polyline class="st12" points="-904.8,1823.7 -910.8,1823.7 -910.8,1817.7 		"/>
		<line class="st21" x1="-910.8" y1="1805.6" x2="-910.8" y2="1059.8"/>
		<polyline class="st12" points="-910.8,1053.7 -910.8,1047.7 -904.8,1047.7 		"/>
		<line class="st20" x1="-892.8" y1="1047.7" x2="67.9" y2="1047.7"/>
		<polyline class="st12" points="73.9,1047.7 79.9,1047.7 79.9,1053.7 		"/>
		<line class="st21" x1="79.9" y1="1065.8" x2="79.9" y2="1811.7"/>
	</g>
</g>
<rect x="-137.5" y="1005.4" class="st15" width="236.6" height="45.3"/>
<text transform="matrix(1 0 0 1 -137.4584 1035.4751)" class="st16 st17">#background</text>
</svg>
