<?xml version="1.0" encoding="utf-8"?>
<!-- Generator: Adobe Illustrator 19.0.0, SVG Export Plug-In . SVG Version: 6.00 Build 0)  -->
<svg version="1.1" id="图层_1" xmlns="http://www.w3.org/2000/svg" xmlns:xlink="http://www.w3.org/1999/xlink" x="0px" y="0px"
	 viewBox="-917 917.7 1000 1000" style="enable-background:new -917 917.7 1000 1000;" xml:space="preserve">
<style type="text/css">
	.st0{opacity:0.1;fill:#6C63FF;enable-background:new    ;}
	.st1{fill:url(#SVGID_1_);}
	.st2{fill:#FDC2CC;}
	.st3{opacity:3.000000e-02;enable-background:new    ;}
	.st4{opacity:0.1;enable-background:new    ;}
	.st5{fill:#6C63FF;}
	.st6{opacity:0.15;fill:#FFFFFF;enable-background:new    ;}
	.st7{fill:#865A61;}
</style>
<g id="_x23_background">
	<path class="st0" d="M-898.4,1471.7c15.6,66.6,48.6,124.2,100.7,152.1c108.4,58,352.8,28.1,535.2-6.3
		c92.2-17.3,175.8-65.1,237.5-135.8L-898.4,1471.7z"/>
	<path class="st0" d="M58.1,1158.1h-100c-4.8,0-8.7-3.9-8.7-8.7c0-4.8,3.9-8.7,8.7-8.7h17.3c-4.8,0-8.7-3.9-8.7-8.7
		c0-4.8,3.9-8.7,8.7-8.7H-37c-4.8,0-8.7-3.9-8.7-8.7c0-4.8,3.9-8.7,8.7-8.7h52.2c-11.6-5.4-25.1-9.2-40.7-11.2
		c-142.4-18.3-193.3-6.2-211.2,6.3c-22.1,15.4-46.8,26.6-73.2,32.1c-87.9,18.1-252.2,39.9-401.2-7c-74-23.3-129.1,16.1-162,82H75.6
		c-1.2-19.1-4.9-36.8-11.8-52.3C62.2,1157.4,60.2,1158.1,58.1,1158.1z"/>
	<path class="st0" d="M-906.9,1332.6c-3.8,38.7-2.5,77.8,3.9,116.2l878.7,32.1c24.5-28.1,45-59.5,61.1-93.1L-906.9,1332.6z
		 M-559.3,1415.6h-17.3c4.8,0,8.7,3.9,8.7,8.7s-3.9,8.7-8.7,8.7h-100.1c-4.8,0-8.7-3.9-8.7-8.7s3.9-8.7,8.7-8.7h17.3
		c-4.8,0-8.7-3.9-8.7-8.7s3.9-8.7,8.7-8.7l0,0h-12.4c-4.8,0-8.7-3.9-8.7-8.7s3.9-8.7,8.7-8.7l0,0h100.1c4.8,0,8.7,3.9,8.7,8.7
		c0,4.8-3.9,8.7-8.7,8.7h12.4c4.8,0,8.7,3.9,8.7,8.7C-550.7,1411.7-554.5,1415.6-559.3,1415.6L-559.3,1415.6z"/>
	<path class="st0" d="M75.6,1208.9l-959.4,23.3c-11.7,30-19.4,63.9-22.9,99.1H58.8c6.3-20.6,11-41.8,13.9-63.1
		C75.6,1247.5,76.7,1227.5,75.6,1208.9z M-712,1285.4h-17.3c4.8,0,8.7,3.9,8.7,8.7c0,4.8-3.9,8.7-8.7,8.7h-100
		c-4.8,0-8.7-3.9-8.7-8.7s3.9-8.7,8.7-8.7h17.3c-4.8,0-8.7-3.9-8.7-8.7s3.9-8.7,8.7-8.7h-12.4c-4.8,0-8.7-3.9-8.7-8.7
		s3.9-8.7,8.7-8.7h100.1c4.8,0,8.7,3.9,8.7,8.7s-3.9,8.7-8.7,8.7h12.3c4.8,0,8.7,3.9,8.7,8.7S-707.2,1285.4-712,1285.4z"/>
</g>
<g id="_x23_man_x28_think_x29_">
	
		<linearGradient id="SVGID_1_" gradientUnits="userSpaceOnUse" x1="-371.0699" y1="3691.2002" x2="-371.0699" y2="2983.6304" gradientTransform="matrix(1 0 0 1 -51.45 -1876.7499)">
		<stop  offset="0" style="stop-color:#808080;stop-opacity:0.25"/>
		<stop  offset="0.54" style="stop-color:#808080;stop-opacity:0.12"/>
		<stop  offset="1" style="stop-color:#808080;stop-opacity:0.1"/>
	</linearGradient>
	<path class="st1" d="M-66.2,1814.1c0,0-40-219.4-116.3-255c-64.6-30.2-134.5-50.5-154.4-56.1c-3-4.8-6.4-9.3-10.2-13.4
		c-27.2-28.4-43.5-27.8-46.1-27.5c-1.3-5.6-2.2-11.3-2.7-17.1c-0.1-0.9-0.2-1.7-0.2-2.6l0.2-0.1c-0.2-1.7-0.3-3.4-0.4-5.3
		c11.1-5.9,21.3-13.4,30.3-22.1c0.1,0.4,0.2,0.8,0.3,1.2c19.6-16.5,38.8-33.5,57.5-51c5.4-5,11-10.5,12.9-17.6
		c0.6-2.4,0.8-5,0.7-7.5c0.2-5.4-1-10.9-1.2-16.3c0-0.9,0.1-1.7,0.2-2.6c1.3-8.9,7.5-16.3,12.6-23.8c12.7-18.9,19.4-41.3,19.1-64.2
		c0.1-10.9-1.4-21.8-4.5-32.3c-4-13.3-12.3-27.3-26-30.2c-5.3-1.1-10.9-0.4-16.3-0.8c-22.5-1.4-39.4-19.8-57.4-33.2
		c-21.9-16.3-47.9-26.4-75-29.1c-8.5-0.9-17.2-1-25.3,1.7c-18.1,6-29.1,24.7-46.6,32.3c-12.9,5.7-27.8,4.8-41.3,9
		c-20,6.4-37.1,26.9-37.5,48.1c0,0.8,0,1.6,0,2.3c0,0.1,0,0.3,0,0.4c-0.2,10.7,3.6,21.5,3.9,32.5c0,1,0,2,0,3
		c-0.1,11.8-1.5,23.6-5.8,34.7c-2.3,6-5.3,12.9-4.8,18.9c-0.3,3.7,0.4,7.1,3,9.9l4.3-3.8c-1.5,7.9-2.2,15.9-2.2,23.9
		c0,40.3,18.4,76.5,47.3,100.8c0.2,2.7,0.3,5.6,0.5,8.6c0.7,13.3,1.2,30,1.1,48.2l-42.3,38.9l-108.9,49.4c0,0-99.6,21-78.1,160.9
		l10.2,86.8h90.9l-0.2,0.5H-540l0.1-0.5h321l-0.1,0.5h12.6v-0.5L-66.2,1814.1z M-392.5,1464.3c2.8,5.7,4.9,11.6,6.5,17.8
		c-3.2-5.9-5.5-12.2-7-18.7l0.1,0.2L-392.5,1464.3z M-546.8,1482.3c0,1.7,0,3.4-0.1,5.2l-0.2,0.3
		C-547.1,1485.9-547,1484.1-546.8,1482.3L-546.8,1482.3z"/>
	<path class="st2" d="M-357,1504.3l-18,171.5l-96,30.5c0,0-124.8-23.3-92.5-90.7c23-47.9,22.4-133.5,20.1-178.9
		c-0.9-18.4-2.1-30.3-2.1-30.3s163.3-142.7,149.9-14.3c-2.6,24.9-2.8,44.3-1.3,59.5C-390.9,1514.8-357,1504.3-357,1504.3z"/>
	<path class="st3" d="M-357,1504.3l-18,171.5l-96,30.5c0,0-124.8-23.3-92.5-90.7c23-47.9,22.4-133.5,20.1-178.9
		c-0.9-18.4-2.1-30.3-2.1-30.3s163.3-142.7,149.9-14.3c-2.6,24.9-2.8,44.3-1.3,59.5C-390.9,1514.8-357,1504.3-357,1504.3z"/>
	<path class="st4" d="M-395.6,1389.4c-2.6,24.9-2.8,44.3-1.3,59.5c-47.3,25.8-105.5,19.8-146.5-14.9c-0.9-18.4-2.1-30.3-2.1-30.3
		S-382.2,1261-395.6,1389.4z"/>
	<circle class="st2" cx="-459.4" cy="1329.2" r="130.2"/>
	<circle class="st3" cx="-459.4" cy="1329.2" r="130.2"/>
	<path class="st5" d="M-78.7,1814.1h-675.2l-9.9-85.3c-20.6-137.4,75.4-158,75.4-158l105-48.5l41.7-39.1
		c-13.5,51.2,88.4,157.6,88.4,157.6l0,0c0.7-0.6,1.3-1.3,1.9-1.9c2.7-3,9.3-10.5,24.7-29.1c5.5-6.7,12.1-14.8,20.1-24.6
		c38.4-47.2,18.7-103,12.8-114.6l-0.4-0.7c-0.2-0.4-0.4-0.7-0.5-1l0,0c0-0.1-0.1-0.2-0.1-0.2c0-0.1-0.1-0.1-0.1-0.2l49.4,38.6
		c0,0,1.9,0.5,5.4,1.5c19.2,5.4,86.7,25.4,149,55.1C-117.3,1598.6-78.7,1814.1-78.7,1814.1z"/>
	<path class="st5" d="M-308.5,1608.5c-8.1-8.1-62.8-18-62.8-18c1.8,21.5-64.6,54.8-64.6,54.8l4.9,168.8h-31.9l-5.4-151.7l15.3-21.5
		l0,0l1.9-1.9c8.8-9.2,17.1-18.9,24.7-29.1c5.5-6.7,12.1-14.8,20.1-24.6c38.4-47.2,18.7-103,12.8-114.6l-0.4-0.7
		c-0.2-0.4-0.4-0.7-0.5-1l0,0c0-0.1-0.1-0.2-0.1-0.2c0-0.1-0.1-0.1-0.1-0.2l0,0c0,0,16.2-3.6,44.9,26.9c3.7,4.1,7,8.5,9.9,13.2
		C-316.6,1546-301.4,1615.6-308.5,1608.5z"/>
	<path class="st4" d="M-308.5,1608.5c-8.1-8.1-62.8-18-62.8-18c1.8,21.5-64.6,54.8-64.6,54.8l4.9,168.8h-31.9l-5.4-151.7l15.3-21.5
		l0,0l1.9-1.9c8.8-9.2,17.1-18.9,24.7-29.1c5.5-6.7,12.1-14.8,20.1-24.6c38.4-47.2,18.7-103,12.8-114.6l-0.4-0.7
		c-0.2-0.4-0.4-0.7-0.5-1l0,0c0-0.1-0.1-0.2-0.1-0.2c0-0.1-0.1-0.1-0.1-0.2l0,0c0,0,16.2-3.6,44.9,26.9c3.7,4.1,7,8.5,9.9,13.2
		C-316.6,1546-301.4,1615.6-308.5,1608.5z"/>
	<path class="st4" d="M-674,1677.6c0,0,42.2,86.2,44.4,136.9"/>
	<polygon class="st4" points="-214.3,1727 -226.4,1814.5 -214.3,1814.5 	"/>
	<path class="st4" d="M-664.5,1814.5l66.9-152.2c0,0,18.9-35.9,23.3-71.8c4.5-35.9,28.7-92.5,28.7-92.5s60.2-76.3,88-65.5
		c27.8,10.8-24.2,51.2-24.2,51.2s76.3,29.6,24.2,117.6s-53,71.8-53,71.8l-25.6,141.4H-664.5L-664.5,1814.5z"/>
	<path class="st2" d="M-666.3,1814.5l66.9-152.2c0,0,18.9-35.9,23.3-71.8c2.9-22.8,13.7-54,21.2-73.7c4.9-12.9,12.1-24.7,21.3-35
		c19.4-21.8,54.8-56.9,74.2-49.3c27.8,10.8-24.2,51.2-24.2,51.2s76.3,29.6,24.2,117.6s-53,71.8-53,71.8l-25.6,141.4H-666.3z"/>
	<circle class="st6" cx="-419.4" cy="1256.1" r="2.7"/>
	<circle class="st6" cx="-432" cy="1261.5" r="2.7"/>
	<path class="st4" d="M-551.9,1165.2c13-4.2,27.4-3.3,39.9-8.9c16.9-7.6,27.5-25.9,45-31.8c7.8-2.6,16.3-2.5,24.4-1.7
		c26.3,2.7,51.3,12.6,72.4,28.6c17.3,13.2,33.6,31.2,55.3,32.6c5.3,0.3,10.6-0.4,15.7,0.8c13.3,2.9,21.3,16.6,25.1,29.6
		c9,31.3,3.8,64.9-14.1,92.1c-4.9,7.4-10.9,14.6-12.1,23.3c-1.2,8.6,2.5,17.5,0.3,25.9c-1.8,7-7.2,12.3-12.4,17.3
		c-18.1,17.1-36.6,33.8-55.5,50.1c-9.8-31.2,4.6-64.8,2.3-97.4c-0.9-12.7-5.4-26.6-16.6-32.6c-10.5-5.6-23.9-2.7-34.5-8.1
		c-11.9-6-16.7-20.1-25.7-29.9c-15.3-16.7-41.8-18.9-63.1-11.3c-21.3,7.5-38.8,23.1-55.7,38.2l-30.7,27.5c-6-6.8-1.4-17.1,1.8-25.6
		c4.8-12.7,5.9-26.3,5.6-39.7c-0.3-10.8-4-21.4-3.8-31.9C-587.6,1191.7-571.2,1171.4-551.9,1165.2z"/>
	<path class="st7" d="M-551.9,1162.5c13-4.2,27.4-3.3,39.9-8.9c16.9-7.6,27.5-25.9,45-31.8c7.8-2.6,16.3-2.5,24.4-1.7
		c26.3,2.7,51.3,12.6,72.4,28.6c17.3,13.2,33.6,31.2,55.3,32.6c5.3,0.3,10.6-0.4,15.7,0.8c13.3,2.9,21.3,16.6,25.1,29.6
		c9,31.3,3.8,64.9-14.1,92.1c-4.9,7.4-10.9,14.6-12.1,23.3c-1.2,8.6,2.5,17.5,0.3,25.9c-1.8,7-7.2,12.3-12.4,17.3
		c-18.1,17.1-36.6,33.8-55.5,50.1c-9.8-31.2,4.6-64.8,2.3-97.4c-0.9-12.7-5.4-26.6-16.6-32.6c-10.5-5.6-23.9-2.7-34.5-8.1
		c-11.9-6-16.7-20.1-25.7-29.9c-15.3-16.7-41.8-18.9-63.1-11.3c-21.3,7.5-38.8,23.1-55.7,38.2l-30.7,27.5c-6-6.8-1.4-17.1,1.8-25.6
		c4.8-12.7,5.9-26.3,5.6-39.7c-0.3-10.8-4-21.4-3.8-31.9C-587.6,1189-571.2,1168.7-551.9,1162.5z"/>
</g>
</svg>
