<?xml version="1.0" encoding="utf-8"?>
<!-- Generator: Adobe Illustrator 19.0.0, SVG Export Plug-In . SVG Version: 6.00 Build 0)  -->
<svg version="1.1" id="图层_1" xmlns="http://www.w3.org/2000/svg" xmlns:xlink="http://www.w3.org/1999/xlink" x="0px" y="0px"
	 viewBox="-917 917.7 1000 1000" style="enable-background:new -917 917.7 1000 1000;" xml:space="preserve">
<style type="text/css">
	.st0{fill:#F2F2F2;}
	.st1{opacity:0.1;enable-background:new    ;}
	.st2{fill:#3F3D56;}
	.st3{opacity:0.1;fill:#FFFFFF;enable-background:new    ;}
	.st4{fill:#605D82;}
	.st5{fill:#FBBEBE;}
	.st6{fill:#6C63FF;}
	.st7{fill:#2F2E41;}
	.st8{fill:#FFE09C;}
	.st9{fill:#E7C4C3;}
	.st10{fill:#FF7F8E;}
	.st11{fill:#94CC79;}
	.st12{opacity:0.2;fill:#FFFFFF;enable-background:new    ;}
	.st13{fill:#E8E8F0;}
	.st14{fill:#A0616A;}
	.st15{fill:#DADAE5;}
	.st16{fill:none;}
	.st17{opacity:3.000000e-02;enable-background:new    ;}
	.st18{fill:#EFF0F4;}
	.st19{fill:#CCCAD6;}
	.st20{opacity:0.1;}
	.st21{fill:#FFFFFF;}
</style>
<g id="_x23_background">
	<g>
		<path class="st0" d="M-3.8,1579.4c-1.1,2.3-2.2,4.7-3.3,6.9c-1.7,3.6-3.4,7-5,10.4c-0.7,1.5-1.5,3-2.2,4.5
			c-8.1,16.5-15.6,31-22,43c-11.8,22.1-34.8,36-59.8,36.3l-142.2,1.6h-1.5l-12.2,0.1l-10.4,0.1l-32,0.4h-1.3l-16.3,0.2h-0.5
			l-100.3,1.1l-89.5,0.9l-10.4,0.1l-64.7,0.7h-0.1l-42,0.5h-0.5l-132.6,1.4l-39.7,0.5c-3.4,0-6.7-0.1-10.1-0.5l0,0
			c-1.1-0.1-2.2-0.3-3.4-0.5c-18.5-2.8-35.4-12-48.1-25.8c-17.1-18.8-29.5-40.7-37.9-64.5c-1.2-3.5-2.3-6.9-3.4-10.4
			c-28.6-97.6,6.6-223.4,70-307.7c2.6-3.6,5.3-6.9,8.1-10.3l0.1-0.1c19.5-23.9,41.3-43.9,64.6-58.1c41.2-25.2,87-32.3,131.9-11.2
			c38.1,17.9,73.6,26.3,108,28.7c3.5,0.2,6.9,0.4,10.4,0.5c78.9,2.4,153-26,239.9-44.3c3.5-0.7,6.9-1.5,10.4-2.2
			c62-12.4,130.8-18.8,212.5-5.2c8.5,1.4,16.9,3.4,25.1,6c3.6,1.1,7.1,2.4,10.4,3.7c39,15.8,60.3,45.2,69.4,82
			c0.8,3.4,1.6,6.8,2.2,10.4C83.8,1366.9,36.7,1492.4-3.8,1579.4z"/>
		<path class="st1" d="M-439.3,1586.3c-0.4,3.5-0.9,7-1.8,10.4h87.8v-10.4H-439.3z M-512.6,1645.3l10.4-0.1v-25.8
			c-3.6-0.2-7-0.3-10.4-0.5V1645.3z M-730.9,1586.3v10.4h186.1v-10.4H-730.9z M65.5,1268.1H-3.9v-82c-3.4-1.4-6.8-2.6-10.4-3.7v85.8
			h-237.6v-86.6c-3.5,0.7-6.9,1.4-10.4,2.2v84.5h-239.9v-40.1c-3.5-0.1-6.9-0.3-10.4-0.5v40.7h-239.9v-58.1
			c-23.2,14.2-45.1,34.2-64.6,58.1h-0.1v0.1c-2.7,3.4-5.4,6.8-8.1,10.3h8.1v307.9H-895c1,3.6,2.2,7,3.4,10.4h74.4v87.7
			c3.7,1.1,7.6,2.1,11.4,2.6c1.1,0.2,2.2,0.3,3.4,0.5l0,0c3.4,0.4,6.7,0.6,10.1,0.5l39.7-0.6v-91h239.9v88.3l10.4-0.1v-88.2h239.9
			v85.6l10.4-0.1v-85.5h237.6v4.5c0.7-1.5,1.4-3,2.2-4.5c1.7-3.4,3.3-6.8,5-10.4c1.1-2.2,2.2-4.6,3.3-6.9v-300.9h71.6
			C67.1,1274.9,66.4,1271.5,65.5,1268.1z M-752.5,1586.3v-307.8h239.9v307.8H-752.5z M-502.2,1586.3v-307.8h239.9v307.8H-502.2z
			 M-14.3,1586.3h-237.6v-307.8h237.6L-14.3,1586.3L-14.3,1586.3z"/>
	</g>
</g>
<g id="_x23_home_x28_have_x5B_sofa_x5D__x29_">
	<polygon class="st2" points="-612.9,1523.2 -213.7,1520.9 -209.3,1565.2 -611.4,1564 	"/>
	<path class="st2" d="M-118.7,1477.8c-13-24-31.4-44.6-53.7-60.2c-1.6-1.1-3.5-1.8-5.3-2.1c2.6-17.3,2.1-36.5-7.7-50.9
		c-23.2-34.2-141.4,1.1-141.4,1.1c-82.9-28.7-154.7,7.7-154.7,7.7s-91.7-14.3-133.7-3.3c-19.8,5.2-24.6,25.4-24.2,45.3h-0.1
		c-3.6,0-6.9,1.6-9.2,4.4c-11.2,14-44.9,56.9-44,65.2c1.1,9.9,37.6,139.2,35.9,201.6l509.3-5.6c0,0,8.4-125.6,29.5-194.4
		C-116.9,1483.7-117.2,1480.5-118.7,1477.8z"/>
	<polygon class="st1" points="-650,1485.6 -629,1443.6 -611.4,1525.3 -611.2,1563.3 	"/>
	<polygon class="st1" points="-168.4,1485.6 -189.4,1443.6 -213.8,1521.1 -209.1,1565.2 	"/>
	<polygon class="st1" points="-612.9,1523.2 -213.7,1520.9 -209.3,1565.2 -611.4,1564 	"/>
	<path class="st3" d="M-603.3,1560.8H-217c5.4,0,9.8,4.4,9.8,9.8v27.8c0,5.4-4.4,9.8-9.8,9.8h-386.3c-5.4,0-9.8-4.4-9.8-9.8v-27.8
		C-613.1,1565.2-608.7,1560.8-603.3,1560.8z"/>
</g>
<g id="_x23_woman_x28_sit_x2C_hold_x5B_pizza_x5D__x29__2_">
	<circle class="st2" cx="-496.4" cy="1168.3" r="15.3"/>
	<ellipse class="st2" cx="-463.3" cy="1202.3" rx="42.8" ry="55.5"/>
	<path class="st1" d="M-463.3,1241c-21.5,0-39.3-20.4-42.4-47.2c-0.3,2.8-0.5,5.6-0.5,8.3c0,30.7,19.2,55.5,42.8,55.5
		c23.6,0,42.8-24.8,42.8-55.5c0-2.8-0.2-5.6-0.5-8.3C-424,1220.7-441.8,1241-463.3,1241z"/>
	<path class="st2" d="M-372,1364.8c-0.9,3.7-4.9,6.8-9.3,8.9c-9.3,4.5-20.6,5.8-31.7,6.2c-2.8,0.2-5.6,0.1-8.4-0.2
		c-5.8-0.7-11.2-3.2-14.5-6.7c-0.5-0.4-0.8-0.9-0.9-1.5c0.1-0.7,0.4-1.4,0.9-1.9c5.9-6.5,15.7-10.4,25.6-13.2
		c7.5-2.2,20.5-7.8,28.8-7C-373.6,1350.2-370.8,1360-372,1364.8z"/>
	<path class="st1" d="M-372,1364.8c-0.9,3.7-4.9,6.8-9.3,8.9c-9.3,4.5-20.6,5.8-31.7,6.2c-2.8,0.2-5.6,0.1-8.4-0.2
		c-5.8-0.7-11.2-3.2-14.5-6.7c-0.5-0.4-0.8-0.9-0.9-1.5c0.1-0.7,0.4-1.4,0.9-1.9c5.9-6.5,15.7-10.4,25.6-13.2
		c7.5-2.2,20.5-7.8,28.8-7C-373.6,1350.2-370.8,1360-372,1364.8z"/>
	<path class="st4" d="M-489.4,1336.5c-2.8,5.5-3.3,11.9-1.4,17.8c2,5.8,5.6,11,10.5,14.8c12,9.6,28.4,11,43.7,10.8
		c13.4-0.1,26.8-1,40.1-2.7c4.4-0.6,8.9-1.2,13-3c5-2.2,9.4-6.1,11.2-11.2s0.6-11.4-3.7-14.9c-3.7-3-8.8-3.5-13.6-3.7l-27.4-1.7
		c2.7-2.7,6.3-4.3,9.6-6.3c4.4-2.6,7.2-7,10.4-11.1c4.7-6,10.3-11.2,15.9-16.4c0.9,5.1,4.1,9.3,7.9,12.8c3.8,3.6,8.2,6.4,12.1,9.7
		c9.6,8.2,16.4,19.1,26.5,26.6c6.9-1.8,13.4-5.1,19-9.5l-3.9-7c-0.3-0.7-0.8-1.4-1.5-1.9c-1.1-0.7-2.5-0.4-3.8-0.5
		c-3.5-0.5-5-4.5-6.3-7.7c-3.7-8.8-10.8-15.6-16.9-23c-4.4-5.4-8.3-11.2-11.7-17.4c-2.1-3.7-3.9-7.5-6.7-10.7
		c-2.8-3.2-6.7-5.6-10.8-5.6c-3.7,0-7.1,1.9-10.3,3.7c-9.7,5.8-19,12.1-27.9,19c-4.7,3.7-9.3,7.5-14.8,9.7c-2.3,0.9-4.7,1.6-6.9,2.7
		c-3.8,2-6.8,5.3-10,8.3C-458.4,1329.1-473.9,1336.1-489.4,1336.5z"/>
	<path class="st5" d="M-432.3,1260.5c-0.1,3.3-0.8,6.5-2.1,9.5c-1.2,3-3.7,5.4-6.8,6.6c-2.2,0.6-4.4,0.7-6.7,0.2
		c-2-0.2-3.7-0.8-5.4-1.9c-2.5-1.8-3.8-4.9-4.3-8s-0.3-6.2-0.6-9.3c-0.3-2.5-0.7-5-1.4-7.4c-0.2-0.8-0.4-1.6-0.7-2.4
		c-0.3-0.8-0.4-1.6-0.6-2.4s-0.3-1.5-0.5-2.2s-0.2-1.3-0.3-2c-0.1-2-0.4-3.8-0.9-5.7c-0.6-1.2-1.2-2.3-2-3.4
		c-0.4-0.5-0.7-0.9-0.9-1.5c-0.8-1.3-1.3-2.9-1.1-4.4c0-0.3,0.1-0.5,0.2-0.7c0-0.1,0.1-0.2,0.1-0.3c0.7-0.2,1.2-0.7,1.4-1.3
		c0.1-0.7,0.1-1.4-0.2-2.1c-0.3-0.9-0.7-1.9-1.1-2.7c-0.3-0.6-1.4-1.6-1.4-2.2c0-1.3,2.5-2.3,3.6-2.9c3.2-1.6,6.7-2.2,10.2-2.1
		c2.2,0.2,4.7,0.8,5.9,2.7c1.1,1.7,0.9,3.9,1.4,5.9c0,0.3,0.2,0.6,0.4,0.7c0.3,0.2,0.6,0.4,0.8,0.4c0.6,0.1,1.1,0.1,1.7,0.1l0,0
		c0.2,0,0.3,0,0.5-0.1c0.8-0.2,1.7-0.5,2.4-1c0.5-0.1,0.9-0.2,1.4-0.3h0.1c1.9,5.9,2.1,12.2,3.7,18.2c0.7,3,1.9,5.9,2,9
		c0,0.1,0,0.3,0,0.4c0,1-0.1,2,0,3c0,0.5,0.1,0.8,0.2,1.3c0.2,0.7,0.4,1.4,0.7,2.1l0,0c0.1,0.2,0.1,0.5,0.2,0.7
		c0,0.2,0.1,0.3,0.1,0.5l0,0C-432.1,1257.1-432.1,1258.8-432.3,1260.5z"/>
	<circle class="st5" cx="-458.4" cy="1200" r="21.9"/>
	<path class="st5" d="M-318.8,1319.7c-0.7-6-2.8-11.7-6.2-16.7l1.7,10.2c-1.5,0.4-3-0.1-3.9-1.2s-1.6-2.4-2.1-3.8
		c-2.5-6.2-5.7-12.1-9.7-17.4c-14-1.1-27.8-6.9-40.1-13.7c-12.3-6.7-23.8-14.9-36-21.9c-2.1-1.3-4.3-2.4-6.6-3.4
		c-3.7-1.5-8.1-2.3-11.6-4.1l-0.7-0.4c-0.8-0.5-1.6-0.9-2.3-1.5c-0.4-0.3-0.7-0.7-1.1-1c-1.8-2.1-3.2-4.5-4.2-7
		c-2-4.3-2.6-9.5-4.5-13.7c0.8-0.8,1.9-1.5,3-2.1l0,0l0.5-0.2c0.7-0.4,1.6-0.7,2.3-0.8c0.5-0.1,0.9-0.2,1.4-0.3h0.1
		c2.2-0.4,4.4-0.2,6.5,0.6c3.1,1,5.6,3.1,8.2,5.1c4,3.1,8.3,6,12,9.6c2.2,2.1,4,4.2,6.4,6.1c1.9,1.5,3.9,2.8,6,3.9l37,22
		c4.2,2.4,8.3,5,12.5,7.6c6.2,4,12.2,8.3,18.2,12.7l10.6,7.7c1.1,0.7,2.2,1.7,3,2.8c0.7,1.2,1.2,2.6,1.3,4
		C-316.6,1308.3-317.1,1314.2-318.8,1319.7z"/>
	<path class="st6" d="M-426.8,1277.1c-1.5,6.7-8.2,10.7-11.7,16.5c-4.4,7.2-2.6,15.7-0.9,24l-9,7.8c-1.7,1.4-3.3,2.8-5.1,4.1
		c-2.6,1.8-5.3,3.3-8.2,4.7l-8,4.1c-2.4,1.4-5.1,2.5-7.8,3.3c-5.2,1.3-10.8,0.4-15.9-1.1c-0.7-0.2-1.2-0.4-1.8-0.7
		c-0.3-0.2-0.6-0.5-0.8-0.7c-0.5-0.9-0.7-2-0.6-3c0.6-8.7,2.6-17.2,4.8-25.7c1.1-5.1,2.6-10,4.5-14.9c1.9-4.1,4-8.2,6.4-12
		c2.8-4.8,5.6-9.6,9.4-13.6c1.6-1.8,3.4-3.5,4.3-5.6c1.3-3,0.8-6.5,1.1-9.7c0.2-2.4,0.8-4.9,2-7.1l0,0c0.6-1.2,1.2-2.3,2.1-3.4
		c0.4,0.8,0.7,1.7,1.1,2.5l0.7,1.7c0.3,0.7,0.7,1.4,0.9,2.2c0.8,2,1.8,4,2.6,6.1c0.9,2.5,2.2,4.9,3.9,7c1.8,2.1,4.4,3.5,7.1,3.2
		c2.5-0.5,4.8-2,6.1-4.2c1.2-2.2,2.2-4.6,2.7-7.1c0.7-3,0.8-6.2,0.3-9.3c-0.9-5.9-3.5-12-5.2-17.5c-0.7-1.9-1.2-3.7-1.3-5.7
		c0-0.2,0-0.5,0.1-0.7v-0.2c0.7-0.4,1.6-0.7,2.3-0.8c0.5-0.1,0.9-0.2,1.4-0.3c1.6,8.7,3.2,17.4,4.9,26.2c0,0.2,0.1,0.4,0.1,0.7
		c0.2,1.2,0.5,2.5,0.7,3.7s0.5,2.2,0.7,3.4l0,0c0.1,0.4,0.2,0.7,0.3,1.1l0,0c0.3,1,0.7,2.1,0.9,3.1
		C-429.3,1264.7-425.4,1270.8-426.8,1277.1z"/>
	<path class="st7" d="M-337.6,1370.5c-0.1,1.3,0.2,2.6,0.7,3.7c1.4,2.5,4.7,3.1,7.5,3.3c16.7,1.4,33.5,0.8,50.1-1.5
		c0.9-0.1,1.8-0.4,2.5-0.8c2.3-1.7,0.9-5.6-1.7-6.9s-5.6-0.9-8.4-1.5c-2.8-0.7-5.4-1.9-7.9-3.5c-5.7-3.3-11.3-6.7-16.9-10.3
		c-3.3-2.2-7.2-4.4-11-3.1C-332.8,1353.3-337.7,1359.6-337.6,1370.5z"/>
	<path class="st5" d="M-460.6,1245L-460.6,1245l-0.1,0.5l-0.2,0.7c-0.5,2.3-1,4.7-1.7,7c-1.8,6.5-4.2,12.8-6.6,19.1l-19,50.5
		c-1.6,4.2-3.2,8.4-5.1,12.7c-0.7,1.4-1.2,2.8-1.9,4.2c-2.2,5.1-4.4,10.2-5.2,15.6c-0.5,3.6-0.9,7.2-0.2,10.7s2.8,6.9,6.2,8.2
		c1.6,0.7,3.9,1.5,3.6,3.2c-0.2,0.9-1.3,1.4-2.2,1.5c-2.5,0.4-5.2-0.4-7-2.1c-1.8-1.6-3.2-4-5.5-4.3c-1.7-0.2-3.2,0.8-4.7,1.5
		c-6.1,2.8-13.3,0.8-19.7-1.1c0.5-2.6,3.1-4.3,5.7-4.9s5.2-0.2,8-0.2c0.8,0,1.7-0.2,2.4-0.7c0.7-0.6,1.1-1.3,1.3-2.2
		c1.7-5.1,3-10.3,3.7-15.6c0.8-5.5,1.2-11.2,2.4-16.6c0.9-4.2,2.4-8.3,3.7-12.6c2.4-8.6,4.4-17.3,6-26.2c0.7-3.7,1.3-7.3,1.7-11.1
		c0.2-3.1,0.1-6.2,0.4-9.3c0.5-4,1.3-8,2.5-11.8c1.1-4.2,2.2-8.4,3.5-12.7c1.7-6.3,3.5-12.7,7.8-17.5c3-3.5,7.3-5.5,11.9-5.7
		c0.8,0,1.7,0.1,2.5,0.3l0.4,0.1c0.9,0.2,1.8,0.6,2.6,1c1.3-0.8,2-0.6,2.9,0.7c0.7,1.4,1.1,2.9,1,4.5
		C-459.6,1236.9-459.8,1240.9-460.6,1245z"/>
	<path class="st6" d="M-459.2,1250L-459.2,1250l-0.4,0.4l-3,3l-1.5-6.2l-5-21.2c0.8,0,1.7,0.1,2.5,0.3c0-0.3,0.1-0.5,0.2-0.7
		l0.2,0.8l1.7,5.8l3.3,11.1l0.6,1.8l0,0L-459.2,1250z"/>
	<path class="st2" d="M-467.5,1167.6h25.2c6.2,0,11.2,5.1,11.2,11.2v7.3c0,6.2-5.1,11.2-11.2,11.2h-25.2c-6.2,0-11.2-5.1-11.2-11.2
		v-7.3C-478.8,1172.7-473.7,1167.6-467.5,1167.6z"/>
	<circle class="st2" cx="-428.3" cy="1168.3" r="15.3"/>
	<path class="st1" d="M-428.7,1153.2h-0.6c8.4,0.4,15,7.5,14.6,15.9c-0.4,7.9-6.7,14.2-14.6,14.6h0.6c8.4,0,15.3-6.8,15.3-15.3
		C-413.4,1159.9-420.3,1153.1-428.7,1153.2L-428.7,1153.2z"/>
	<path class="st1" d="M-496.4,1153.2h0.6c-8.4,0.4-15,7.5-14.6,15.9c0.4,7.9,6.7,14.2,14.6,14.6h-0.6c-8.4,0-15.3-6.8-15.3-15.3
		C-511.7,1160-504.8,1153.1-496.4,1153.2C-496.4,1153.1-496.4,1153.1-496.4,1153.2L-496.4,1153.2z"/>
	<path class="st1" d="M-430.7,1194.5h-38.7c-2.4,0-4.5-2-4.5-4.5v3c0,2.4,2,4.5,4.5,4.5h38.8c2.4,0,4.5-2,4.5-4.5v-3
		C-426.2,1192.4-428.2,1194.5-430.7,1194.5L-430.7,1194.5z"/>
	<path class="st8" d="M-299.4,1350.8c0,0,2.4,0.5,2.8-1.5c0.2-0.9-0.5-6.9-1.2-12.9c-0.4-3-0.7-5.9-1.1-8.2
		c-0.4-2.9-0.7-4.9-0.7-4.9l-0.5-1.5l-2.6-8.7l-2.4-8.2l-1.8-3.3l-13,6.4l-8.1,14l2.5,1.6l0.5,0.3l4.6,4.9l12.9,13.6l5.8,6.1
		l0.7,0.7L-299.4,1350.8z"/>
	<path class="st9" d="M-309.6,1295.8c0,0-14.2,6.7-17.7,14c0,0-3.2,6.1-3.6,9.4c0,0-0.9,3,5,3.7c0,0,2.7-10.9,10.8-15.7l8.1-4.7
		L-309.6,1295.8z"/>
	
		<ellipse transform="matrix(0.9659 0.2589 -0.2589 0.9659 328.9889 124.9337)" class="st10" cx="-309.8" cy="1311.5" rx="4.1" ry="4.9"/>
	
		<ellipse transform="matrix(0.9663 0.2575 -0.2575 0.9663 331.5916 124.98)" class="st10" cx="-311.4" cy="1328.5" rx="4.1" ry="4.9"/>
	<path class="st10" d="M-320.3,1328.5c1.5-0.7,2.6-2,3-3.6c0.7-2.6-0.6-5.2-2.7-5.7c-2.2-0.6-4.5,1-5.2,3.7
		c-0.1,0.2-0.1,0.4-0.1,0.6l0.5,0.3L-320.3,1328.5z"/>
	<path class="st10" d="M-302.9,1322.2c1,0.3,2.2,0.1,3-0.6l-2.6-8.7c-1.6,0.6-2.7,1.9-3.2,3.6
		C-306.4,1319.1-305.2,1321.6-302.9,1322.2z"/>
	<path class="st10" d="M-301.4,1337.3c1.3,0.3,2.7-0.1,3.7-1c-0.4-3-0.7-5.9-1.1-8.2h-0.1c-2.2-0.6-4.5,1-5.2,3.7
		C-305,1334.3-303.7,1336.7-301.4,1337.3z"/>
	<path class="st10" d="M-301.6,1348.1c0.3-0.5,0.5-0.9,0.7-1.4c0.7-2.6-0.6-5.2-2.7-5.7c-1.3-0.3-2.8,0.1-3.7,1L-301.6,1348.1z"/>
	<path class="st11" d="M-308.1,1308.9l1.5,0.4c-0.6,1.1-0.9,2.2-1,3.6c0,0.1,0,0.2,0,0.3c0.2,1.5-1.5-0.4-1.5-0.4
		S-308.8,1309.4-308.1,1308.9z"/>
	<path class="st11" d="M-314.9,1318.5l1.5,0.4c-0.6,1.1-0.9,2.2-1,3.5c0,0.1,0,0.2,0,0.3c0.2,1.5-1.5-0.4-1.5-0.4
		S-315.6,1319.2-314.9,1318.5z"/>
	<path class="st11" d="M-310.2,1321.8l1.5,0.4c-0.6,1.1-0.9,2.2-1,3.6c0,0.1,0,0.2,0,0.3c0.2,1.5-1.5-0.4-1.5-0.4
		S-310.9,1322.4-310.2,1321.8z"/>
	<path class="st11" d="M-304.2,1329.9l1.5,0.4c-0.6,1.1-0.9,2.2-1,3.6c0,0.1,0,0.2,0,0.3c0.2,1.5-1.5-0.4-1.5-0.4
		S-304.9,1330.4-304.2,1329.9z"/>
	<path class="st11" d="M-300.5,1343.1l1.5,0.4c-0.6,1.1-0.9,2.2-1,3.5c0,0.1,0,0.2,0,0.3c0.2,1.5-1.5-0.4-1.5-0.4
		S-301.2,1343.6-300.5,1343.1z"/>
	<path class="st11" d="M-308.6,1333.8l1.5,0.4c-0.6,1.1-0.9,2.3-1,3.6c0,0.1,0,0.2,0,0.3c0.2,1.5-1.5-0.4-1.5-0.4
		S-309.3,1334.4-308.6,1333.8z"/>
	<path class="st9" d="M-305,1297.1c0,0-2.2-4.9-4.7-1.2c0.2,2.9,1.2,5.8,2.8,8.2c0,0,7.8,21.1,7.1,24.4c0,0,3.1,20.4,2.3,21.6
		c0,0,0.8,1.4,1.4-3.9c0.6-5.4-2.1-21.4-2.1-21.4l-3.8-16.6l-2.6-5.6L-305,1297.1z"/>
	<path class="st12" d="M-305,1297.1c0,0-2.2-4.9-4.7-1.2c0.2,2.9,1.2,5.8,2.8,8.2c0,0,7.8,21.1,7.1,24.4c0,0,3.1,20.4,2.3,21.6
		c0,0,0.8,1.4,1.4-3.9c0.6-5.4-2.1-21.4-2.1-21.4l-3.8-16.6l-2.6-5.6L-305,1297.1z"/>
	<path class="st5" d="M-330.8,1305.1c0,0,3.8,11.1,7.4,8.2l-2.8-14.5L-330.8,1305.1z"/>
</g>
<g id="_x23_woman_x28_sit_x2C_hold_x5B_pizza_x5D__x29__1_">
	<g>
		<path class="st8" d="M-290.3,1401.9c0,0-1.3-1.9-2.9-0.8c-0.7,0.5-4.3,5-7.9,9.6c-1.7,2.2-3.5,4.5-4.8,6.3
			c-1.7,2.2-2.8,3.7-2.8,3.7l-0.7,1.3l-4.1,7.7l-3.8,7.2l-0.9,3.4l13,4.4l14.8-4l-0.7-2.7l-0.1-0.5l0.1-6.3l0.4-17.8l0.2-8v-0.9
			L-290.3,1401.9z"/>
		<path class="st9" d="M-320.1,1445.8c0,0,14.1,5.1,21.3,2.3c0,0,6.3-2,8.7-3.9c0,0,2.6-1.4-0.9-5.8c0,0-9.1,5.6-17.7,3.4l-8.6-2.2
			L-320.1,1445.8z"/>
		
			<ellipse transform="matrix(0.5056 0.8628 -0.8628 0.5056 1087.504 974.2343)" class="st10" cx="-306.3" cy="1436" rx="3.9" ry="4.6"/>
		
			<ellipse transform="matrix(0.5056 0.8628 -0.8628 0.5056 1082.5448 960.5485)" class="st10" cx="-296.8" cy="1424.8" rx="3.9" ry="4.6"/>
		<path class="st10" d="M-291,1431c-1.4-0.6-3.1-0.5-4.4,0.4c-2.2,1.3-3.1,3.8-2,5.7c1.1,1.9,3.7,2.3,5.9,1c0.2-0.1,0.3-0.2,0.5-0.3
			l-0.1-0.5L-291,1431z"/>
		<path class="st10" d="M-306.9,1423.6c-0.6-0.8-1.4-1.5-2.4-1.7l-4.1,7.7c1.5,0.7,3.2,0.6,4.5-0.3
			C-306.7,1428-305.8,1425.5-306.9,1423.6z"/>
		<path class="st10" d="M-297.8,1412.4c-0.7-1.1-1.9-1.8-3.2-1.8c-1.7,2.2-3.5,4.5-4.8,6.3l0.1,0.1c1.1,1.9,3.7,2.3,5.9,1
			C-297.6,1416.8-296.7,1414.2-297.8,1412.4z"/>
		<path class="st10" d="M-290.5,1405.1c-0.5,0.1-0.9,0.3-1.4,0.6c-2.2,1.3-3.1,3.8-2,5.7c0.7,1.1,1.9,1.8,3.2,1.8L-290.5,1405.1z"/>
		<path class="st11" d="M-312.3,1435.9l-0.7-1.3c1.1-0.4,2.2-0.9,3-1.7c0.1-0.1,0.1-0.1,0.2-0.2c0.9-1.2,0.7,1.3,0.7,1.3
			S-311.4,1436-312.3,1435.9z"/>
		<path class="st11" d="M-301.3,1434l-0.7-1.3c1.1-0.4,2.2-0.9,3-1.7c0-0.1,0.1-0.1,0.2-0.2c0.9-1.1,0.7,1.3,0.7,1.3
			S-300.4,1434.1-301.3,1434z"/>
		<path class="st11" d="M-302.3,1428.8l-0.7-1.3c1.1-0.4,2.2-0.9,3-1.7c0-0.1,0.1-0.1,0.2-0.2c0.9-1.2,0.7,1.3,0.7,1.3
			S-301.4,1428.8-302.3,1428.8z"/>
		<path class="st11" d="M-300.9,1419.2l-0.7-1.3c1.1-0.4,2.2-0.9,3-1.7c0-0.1,0.1-0.1,0.2-0.2c0.9-1.2,0.7,1.3,0.7,1.3
			S-300.1,1419.4-300.9,1419.2z"/>
		<path class="st11" d="M-294.6,1407.8l-0.7-1.3c1.1-0.4,2.2-0.9,3-1.7c0.1-0.1,0.1-0.1,0.2-0.2c0.9-1.1,0.7,1.3,0.7,1.3
			S-293.7,1407.9-294.6,1407.8z"/>
		<path class="st11" d="M-295.3,1419.5l-0.7-1.3c1.1-0.4,2.2-0.9,3-1.7c0-0.1,0.1-0.1,0.2-0.2c0.9-1.2,0.7,1.3,0.7,1.3
			S-294.5,1419.6-295.3,1419.5z"/>
		<path class="st9" d="M-322.3,1441.9c0,0-1.8,4.7,2.3,3.9c1.8-2.2,3.1-4.7,3.7-7.4c0,0,8.9-19.5,11.5-21.2c0,0,11.5-15.8,12.8-16
			c0,0,0.4-1.5-3.7,1.7c-4,3.3-12.9,15.7-12.9,15.7l-8.4,13.8l-2,5.5L-322.3,1441.9z"/>
		<path class="st12" d="M-322.3,1441.9c0,0-1.8,4.7,2.3,3.9c1.8-2.2,3.1-4.7,3.7-7.4c0,0,8.9-19.5,11.5-21.2c0,0,11.5-15.8,12.8-16
			c0,0,0.4-1.5-3.7,1.7c-4,3.3-12.9,15.7-12.9,15.7l-8.4,13.8l-2,5.5L-322.3,1441.9z"/>
		<path class="st7" d="M-446.3,1544.7c-3.2-1-5.2-4.2-6.5-7.4c-1.3-3.2-2.3-6.6-4.9-8.8c-0.9,0.2-1.8,0.7-2.2,1.7
			c-0.4,0.8-0.8,1.8-1.3,2.5c-1,1.5-2.8,2.2-4.2,3.5c-1.4,1.2-2.2,3.2-3.6,4.5c-1.8,1.6-4.3,2.1-6.7,2.5c-3.7,0.8-7.1,2.2-10.4,3.8
			c-1.2,0.7-2.5,1.3-3.8,1.7c-1.5,0.3-3,0.4-4.5,0.2l-10.3-0.7c-0.9-0.1-1.9-0.1-2.7,0.1c-2.2,0.7-3.5,2.9-3.3,5.2
			c0.3,2.2,1.4,4.2,3.3,5.5c1.8,1.3,3.7,2.2,5.9,3c9,3.4,18.3,6.1,27.7,7.9v2.1c6.6,3.2,13.8,4.9,21.1,4.9c0.6,0,1.1-0.1,1.6-0.3
			c0.7-0.5,1.1-1.2,1.3-2.1c2.4-7.2,3.9-14.8,4.3-22.5c0.2-2,0-3.9-0.5-5.8c-0.6-1.9,1.4-1.1-0.5-1.8"/>
		<path class="st7" d="M-248.3,1505.8c-30.7,1.9-60.9-7.1-91.6-8.1c-3.8-0.3-7.6,0-11.4,0.7c-3.9,0.8-7.6,2.6-11.2,4.4
			c-16.5,7.7-33.5,14-50.4,20.3l-19.5,7.3c-3.9,1.4-8,2.9-12.1,2.6c-1.9-0.1-4.1-0.4-5.2,1.1c-3.2,4.7-1.7,11.6,0.5,16.9
			c0.7,1.7,1.9,3.6,3.7,3.7c1.3,0.1,2.5-0.7,3.7-0.9c3.6-0.9,7.1,1.4,10.8,1.9c4.5,0.5,8.7-2.1,12.9-3.7c7-2.6,14.8-2.5,22.2-3.7
			c12.5-2.1,24-7.9,34.8-14.4c4.1-2.5,8.2-5.2,13-6.1c5.4-1,11,0.4,16.3,1.9c12.7,3.6,25.2,7.9,37.4,12.7c6.5,2.6,12.8,5.3,19.6,7.1
			c14.5,3.8,29.9,2.9,43.9-2.5c4.9-2,10.2-5.3,10.5-10.7c0.2-3-2.2-5.6-3.7-8.2c-1-1.7-2-3.3-3.1-4.9
			C-232.5,1515.4-239,1505.3-248.3,1505.8z"/>
		<path class="st1" d="M-248.3,1505.8c-30.7,1.9-60.9-7.1-91.6-8.1c-3.8-0.3-7.6,0-11.4,0.7c-3.9,0.8-7.6,2.6-11.2,4.4
			c-16.5,7.7-33.5,14-50.4,20.3l-19.5,7.3c-3.9,1.4-8,2.9-12.1,2.6c-1.9-0.1-4.1-0.4-5.2,1.1c-3.2,4.7-1.7,11.6,0.5,16.9
			c0.7,1.7,1.9,3.6,3.7,3.7c1.3,0.1,2.5-0.7,3.7-0.9c3.6-0.9,7.1,1.4,10.8,1.9c4.5,0.5,8.7-2.1,12.9-3.7c7-2.6,14.8-2.5,22.2-3.7
			c12.5-2.1,24-7.9,34.8-14.4c4.1-2.5,8.2-5.2,13-6.1c5.4-1,11,0.4,16.3,1.9c12.7,3.6,25.2,7.9,37.4,12.7c6.5,2.6,12.8,5.3,19.6,7.1
			c14.5,3.8,29.9,2.9,43.9-2.5c4.9-2,10.2-5.3,10.5-10.7c0.2-3-2.2-5.6-3.7-8.2c-1-1.7-2-3.3-3.1-4.9
			C-232.5,1515.4-239,1505.3-248.3,1505.8z"/>
		<path class="st7" d="M-396.2,1535.3c-2.9-0.5-5.4-2.2-7-4.6c-0.7-1.2-1.4-2.8-2.7-2.7c-1.3,0.1-1.9,1.6-2.2,2.8
			c-0.9,4.7-2.2,9.2-3.9,13.6c-1.7,4.4-4.7,8.2-8.4,11.2c-1.8,1.2-3.7,2.2-5.5,3.5c-1.6,1.1-2.9,2.6-4.7,3.5
			c-1.1,0.6-2.3,0.9-3.6,1.3c-1.8,0.7-3.5,1.5-5.1,2.5c-1.4,0.8-2.6,2-3.5,3.3c-0.9,1.4-1,3.2-0.3,4.7c0.7,1.2,2,2.1,3.4,2.3
			c1.4,0.3,2.8,0.3,4.2,0.1c5.6-0.4,11.2-0.9,16.8-1.4c2.3-0.2,4.7-0.5,7-0.9c1.2-0.3,2.4-0.7,3.7-1c2.1-0.6,4.2-0.8,6.4-0.9
			c0.7-0.1,1.2,0,1.9,0.2c1.3,0.5,2.2,1.7,3.6,2c0.8,0.1,1.7,0,2.5-0.4c4-1.1,8.2-1,12.4-1.3c1.9-0.1,3.9-0.5,4.8-2.1
			c1-2.1-0.7-4.3-1.4-6.6c-0.4-1.4-0.6-2.8-0.6-4.3c-0.3-3.6-1.4-7-3.1-10.1c-1.4-2.6-3.4-5.5-2.3-8.2c0.4-0.9,1-1.9,0.9-2.8
			C-383.3,1534.2-393.7,1535.8-396.2,1535.3z"/>
		<path class="st5" d="M-294.2,1456.7c-5.4-2.4-9.7-6.7-12.2-12.1c-0.6-1.1-0.9-2.3-1.4-3.6c-1.6-3.9-4.1-7.4-7.3-10.1
			c-0.7-0.7-1.7-1.2-2.7-1.1c-1,0.3-1.8,1.1-2,2.2c-0.3,1-0.4,2.2-0.2,3.3c0.3,2.5,0.7,5.2,1.3,7.7l1.5,6.7c0.2,1,0.5,2.1,0.9,3
			c0.7,1.1,1.5,2.2,2.5,3c1.3,1.2,2.7,2.4,4.1,3.7c2,1.9,4.5,3,7.2,3.2c6.1,1.1,12.3,2.7,17.4,6.7c-0.1,0,0-4.5-0.1-5.1
			c-0.2-1.4-0.5-2.7-1.3-3.7C-288.5,1458.4-291.8,1457.8-294.2,1456.7z"/>
		<path class="st1" d="M-294.2,1456.7c-5.4-2.4-9.7-6.7-12.2-12.1c-0.6-1.1-0.9-2.3-1.4-3.6c-1.6-3.9-4.1-7.4-7.3-10.1
			c-0.7-0.7-1.7-1.2-2.7-1.1c-1,0.3-1.8,1.1-2,2.2c-0.3,1-0.4,2.2-0.2,3.3c0.3,2.5,0.7,5.2,1.3,7.7l1.5,6.7c0.2,1,0.5,2.1,0.9,3
			c0.7,1.1,1.5,2.2,2.5,3c1.3,1.2,2.7,2.4,4.1,3.7c2,1.9,4.5,3,7.2,3.2c6.1,1.1,12.3,2.7,17.4,6.7c-0.1,0,0-4.5-0.1-5.1
			c-0.2-1.4-0.5-2.7-1.3-3.7C-288.5,1458.4-291.8,1457.8-294.2,1456.7z"/>
		<ellipse class="st7" cx="-231.9" cy="1397.5" rx="7.5" ry="7.5"/>
		<path class="st7" d="M-236.5,1392.9c-2.1-0.2-4.3-0.4-5.9,0.8c-0.8,0.7-1.6,1.7-2.1,2.7c-1.7,2.9-3,5.9-3.8,9.1
			c-0.7,2.7-0.7,5.6-1.6,8.2c-1.5,5-5.4,9.2-5.9,14.4c-0.2,2.3,0.2,5.1-1.5,6.7c-0.4,0.4-0.8,0.7-1.3,0.9c-1.2,0.7-2.2,1.8-2.9,3
			c-0.5,1.1-1.2,2.1-2.1,2.9c-1.5,1.1-4,1-4.8,2.7c-0.7,1.8,1.2,3.7,0.7,5.6c-0.4,1.5-2.1,2.2-3.3,3.3c-1.5,1.3-2.2,3.4-2.8,5.2
			c-5.1,0.9-10.2-0.4-14.2-3.6c2.1,5.2,2.2,10.8,2.2,16.3c0,1.8,0,3.8-1.3,5.1c5.9,0.1,11.7,1.7,17.5,3c2.5,0.6,5.2,1,7.6,0
			c1.3-0.7,2.5-1.7,3.5-2.8c3.2-3.2,6.5-6.7,7.2-11.2c0.5-2.4,0-5.1,0.1-7.5c0.3-3.1,0.9-6.2,1.9-9.2c1.7-6.2,2.8-12.5,3.4-18.8
			c0.4-3.9,3.7-7,5.5-10.6c3.4-6.7,6.8-13.5,7-21C-233.1,1396.1-233.9,1393.1-236.5,1392.9z"/>
		<path class="st1" d="M-236.5,1392.9c-2.1-0.2-4.3-0.4-5.9,0.8c-0.8,0.7-1.6,1.7-2.1,2.7c-1.7,2.9-3,5.9-3.8,9.1
			c-0.7,2.7-0.7,5.6-1.6,8.2c-1.5,5-5.4,9.2-5.9,14.4c-0.2,2.3,0.2,5.1-1.5,6.7c-0.4,0.4-0.8,0.7-1.3,0.9c-1.2,0.7-2.2,1.8-2.9,3
			c-0.5,1.1-1.2,2.1-2.1,2.9c-1.5,1.1-4,1-4.8,2.7c-0.7,1.8,1.2,3.7,0.7,5.6c-0.4,1.5-2.1,2.2-3.3,3.3c-1.5,1.3-2.2,3.4-2.8,5.2
			c-5.1,0.9-10.2-0.4-14.2-3.6c2.1,5.2,2.2,10.8,2.2,16.3c0,1.8,0,3.8-1.3,5.1c5.9,0.1,11.7,1.7,17.5,3c2.5,0.6,5.2,1,7.6,0
			c1.3-0.7,2.5-1.7,3.5-2.8c3.2-3.2,6.5-6.7,7.2-11.2c0.5-2.4,0-5.1,0.1-7.5c0.3-3.1,0.9-6.2,1.9-9.2c1.7-6.2,2.8-12.5,3.4-18.8
			c0.4-3.9,3.7-7,5.5-10.6c3.4-6.7,6.8-13.5,7-21C-233.1,1396.1-233.9,1393.1-236.5,1392.9z"/>
		<path class="st7" d="M-243.4,1512.3c-6.4-3-11.1-8.7-16.2-13.5c-9.8-9.3-21.8-15.7-32.2-24.5c-6.8-5.7-13-12.5-20.5-17.2
			c-6.7-4.2-14.2-6.8-21.9-7.7c-0.9-0.2-1.8-0.1-2.7,0.1c-1,0.5-1.9,1.1-2.5,2c-3.4,3.7-6.3,7.9-8.9,12.2
			c-13.1,22.3-31.8,41.1-47.2,61.7c-1,1-1.1,2.6-0.2,3.7l3.1,6.2c1.8,3.5,4.6,7.5,8.3,6.7c1.7-0.3,3.1-1.6,4.4-2.8l14.1-13.5
			l14.8-14.2c8.6-8.2,17.4-16.8,23.2-27.4c4.4,7.7,12.3,12.7,17.6,19.7c2.1,2.6,3.7,5.6,5.5,8.4c2.9,4.5,6.3,8.7,9.6,13l17,21.7
			c2.3,2.9,4.7,6,7.9,8c4,2.5,8.9,3.2,13.6,3.7c6.4,0.6,12.7,0.8,19.1,0.7c4.9-0.1,9.9-0.4,14.2-2.5c4.4-2.2,8-6.6,7.8-11.5
			c-0.3-2.5-1.1-5-2.4-7.2C-224.1,1526.9-232,1517.7-243.4,1512.3z"/>
		<ellipse class="st13" cx="-227.3" cy="1402.6" rx="5.7" ry="5.7"/>
		<path class="st5" d="M-228.5,1398.3c1.3,2.5,1.5,5.5,0.7,8.2s-2.2,5.2-3.7,7.6c-1.3,2.4-2.9,4.8-4.8,6.8c8.8,0.5,17.4-3,25.2-7.2
			c6.3-3.4,12.6-7.6,15.9-13.9c-2.1,0.5-4.1,0.1-5.8-1c-1.7-1.2-3.2-2.6-4.5-4.2l-4.4-5c-1-1.1-2-2.2-2.7-3.6
			c-0.9-1.8-1.4-3.7-1.1-5.8c-1.8,1.9-3.7,3.5-5.9,4.9c-3.2,2.1-6.7,3.6-9.8,5.6c-1.1,0.7-3.7,1.9-3,3.4
			C-232,1395.7-229.3,1396.7-228.5,1398.3z"/>
		<path class="st1" d="M-228.5,1398.3c1.3,2.5,1.5,5.5,0.7,8.2s-2.2,5.2-3.7,7.6c-1.3,2.4-2.9,4.8-4.8,6.8c8.8,0.5,17.4-3,25.2-7.2
			c6.3-3.4,12.6-7.6,15.9-13.9c-2.1,0.5-4.1,0.1-5.8-1c-1.7-1.2-3.2-2.6-4.5-4.2l-4.4-5c-1-1.1-2-2.2-2.7-3.6
			c-0.9-1.8-1.4-3.7-1.1-5.8c-1.8,1.9-3.7,3.5-5.9,4.9c-3.2,2.1-6.7,3.6-9.8,5.6c-1.1,0.7-3.7,1.9-3,3.4
			C-232,1395.7-229.3,1396.7-228.5,1398.3z"/>
		<path class="st6" d="M-228.4,1399.1c-1.7,2.8-2.1,6.1,0,8.6c0.3,0.3,1.2,2.2,1.6,2.3c0.4,0,0.7-0.2,1-0.5c2.2-2,3.7-4.5,5.6-6.7
			c1.9-2.2,4.3-4.2,7.1-4.7c3.5-0.6,6.8,1.3,9.8,3.1c1.3,0.7,2.4,1.6,3.4,2.7c0.7,1.1,1,2.4,1.1,3.7c1,7.9,1,15.8,1,23.8
			c0,5.7,0,11.5-1.1,17.2c-0.6,2.9-1.4,5.8-1.8,8.7c-0.3,2.6-0.4,5.2-0.4,7.9v11c-0.1,2,0.1,4,0.4,6c0.6,2.4,1.7,4.6,2.4,6.9
			c0.7,2.7,1.3,5.4,1.6,8.2l1.5,11.3c0.5,3.6,0.8,7.5-1.3,10.3c-0.9,1.3-2.2,2.3-3.3,3.7c-3.7,4.8-2.5,11.7-4,17.6
			c-1.2,4.3-3.7,8.2-7.2,11.1c-2.6,2.2-6.1,4-9.5,3.4c-4.6-0.8-7.4-5.6-8.6-10.2c-1.2-4.6-1.7-9.5-4.4-13.3
			c-2.2-3.1-5.6-5.1-8.8-7.3c-3.2-2.2-6.2-5.2-6.8-8.9c-0.3-1.7-0.1-3.4-0.3-5c-0.5-4.3-3.3-8-7.3-9.7c-2.3-0.9-5.2-1.2-6.6-3.4
			c3.5-2,5.7-5.5,6.9-9.3c1.2-3.7,1.4-7.8,1.7-11.7l0.7-13.1c0.4-5.9,0.5-11.7,3.1-17c1.1-2.3,2.6-4.6,3.8-6.9c1.6-3.3,3-6.7,4-10.1
			c1.9-5.4,3.7-10.8,5.4-16.3c0.7-2.6,1.7-5.2,3-7.6C-233.1,1402.6-231,1399.7-228.4,1399.1z"/>
		<path class="st7" d="M-257.6,1484.7l3.5,0.1l0.7-5.2c0.1-1,0.4-2.1,0.7-3.1c0.6-1,1.2-2.1,2-2.9c3.5-4.9,3.2-11.2,4-17.2
			c1.1-7.9,4.4-15.2,7.7-22.4l6.7-15.1c1.3-2.5,2-5.4,1.9-8.3c0.1-2.3,0.7-10.8,0.8-13.1c0-0.8-1.9-0.4-2.3-1.1
			c-0.8-1.7-2,2.9-3.6,3.8c-1.6,1-2.4,2.8-3.1,4.6c-1.5,3.7-2.3,7.8-3.7,11.6s-3.3,7.6-6.3,10.3c-1.4,1.2-3,2.2-4.3,3.5
			c-4.2,4.1-4.6,10.8-4.8,16.7C-257.7,1450.3-258.4,1484.7-257.6,1484.7z"/>
		<path class="st7" d="M-207.5,1392.9c-3.4,1.3-5.2,5-6.2,8.5c-0.9,3.6-1.3,7.3-3.2,10.4c-4.2,7.4-15.1,9.6-18.1,17.5
			c-0.9,2.6-0.9,5.5-1.2,8.2c-0.6,5.7-2.4,11.2-3,17c-0.3,4.4-0.2,8.9,0.3,13.3l3.7,45.2c0.6,6.6,0.6,13.5-1.1,19.9
			c3.8,0.7,7.8-0.3,11.3-1.9s6.8-3.8,10.2-5.7c5.9-3.3,12.4-5.5,17.5-9.8c0.9-0.7,1.7-1.6,2.3-2.6c1-1.8,1.1-3.9,1.6-5.9
			c0.5-1.6,1-3.2,1.7-4.7c1.9-4.6,3.6-9.2,5-14c0.9-3.1,1.7-6.4,2.2-9.6c0.4-2.5,0.7-5.2,0.8-7.8c0.3-4,1.1-8.1,2.4-11.9
			c3.3-9.2,5.2-18.8,5.5-28.6c0.1-1.4,0-2.8-0.3-4.2c-0.6-1.7-1.3-3.3-2.2-4.8c-1.6-3-2.5-6.2-4-9.3c-3.4-6.7-9.3-12-15.5-16.3
			C-200.5,1393.9-204,1391.5-207.5,1392.9z"/>
		<path class="st5" d="M-286.6,1466.5c-2.7-1.4-5.2-3.3-7.2-5.5c-0.9-1.1-1.7-2.3-2.7-3.5c-2.4-2.6-5.6-4.4-9.1-5.2
			c-3.5-0.7-6.9-1.1-10.5-1c-2.3-0.2-4.7,0.1-7,0.8c-2.3,0.7-4,2.6-4.6,5c-0.6,2.8,1.3,5.5,3.6,7.3c2.1,1.7,4.5,2.8,7,3.4
			c2.1,0.4,4.2,0.7,6.4,0.7c12.6,1.3,23.7,8.2,34.7,14.3c9.7,5.4,19.5,10.6,29.5,15.3c0.4-3,0.6-6,0.5-9.1c-0.1-2.2-0.2-5.7-2.3-7
			c-2.5-1.6-6.6-1.9-9.4-2.8c-6.5-2.2-12.7-4.7-18.9-7.6C-280,1470.2-283.4,1468.4-286.6,1466.5z"/>
		
			<ellipse transform="matrix(0.9671 0.2543 -0.2543 0.9671 341.7576 103.9667)" class="st5" cx="-231.2" cy="1373.8" rx="22.3" ry="22.5"/>
		<path class="st7" d="M-201,1418.4c-2,2.3-3,5.3-4.3,8.1c-2.7,5.7-7.1,10.6-9.3,16.5c-2.2,6.3-2.2,13.7-6.7,18.7
			c-0.7,0.8-1.7,1.7-2,2.8c0,0.7-0.1,1.4-0.2,2.1c-0.7,1.8-3.6,1.9-4.1,3.7c-0.2,0.6-0.1,1.1-0.3,1.7c-0.5,1.1-2,1.3-3,2.1
			c-2.2,1.5-1.7,4.9-3.3,7c-1.4,1.6-3.6,2.3-5.6,2s-4-1.1-5.8-2.2c-0.7-0.4-1.3-0.6-2.1-0.7c-0.8,0-1.7,0.3-2.4,0.8
			c-4.1,2.6-6.1,7.8-6,12.7c0,4.9,1.7,9.7,3.5,14.2c0.3,0.7,0.7,1.5,1.1,2.2c1.4,1.4,3.7,1.2,5.5,0.4c1.8-0.8,3.5-2.1,5.4-2.4
			c3.5-0.7,6.8,1.8,10.3,1.6c2.5-0.2,4.9-1.7,6.9-3.1c3.4-2.3,6.8-4.7,9.4-8c1.5-2,2.6-4.3,4-6.5c1.7-2.6,3.6-5.2,5.6-7.5l12.8-15.7
			c1.3-1.5,2.4-3.1,3.5-4.8c1.2-2.2,2.1-4.7,2.7-7.2c1.2-4.2,2.4-8.4,2.6-12.8c0.1-3.6-0.3-7.2-0.9-10.8c-0.5-3.6-1.4-6.9-2.8-10.2
			C-189,1417-195.8,1412.2-201,1418.4z"/>
		<path class="st2" d="M-162.1,1408.3c2.1-7.8,0.3-16.1-4.8-22.4c3.5-14.6-4-29.2-17.2-34.6c0.5-13.7-8.2-26.2-21.6-29.8
			c-13.9-3.7-28.1,3.7-34.1,16.7c-8.4-4.4-17.3-3.9-20.3,1.2c-3.1,5.3,1.6,13.9,10.3,18.9c2.7,1.6,5.8,2.7,8.9,3.3
			c2.7,7.7,8.6,14,16.1,17.2c-0.5,11.2,5.4,21.8,15.4,27.3c0.6,3.8,2,7.5,4.1,10.7c-0.3,0.7-0.5,1.3-0.7,2.1
			c-2.7,10.4,3.2,21.1,13.3,23.7s20.5-3.7,23.2-14.2c0.7-2.8,0.8-5.7,0.4-8.5C-165.6,1416.8-163.2,1412.7-162.1,1408.3z"/>
		<path class="st1" d="M-254.3,1342.2c2.9-5.2,11.9-5.6,20.3-1.2c6-13,20.2-20.3,34.1-16.7c0.7,0.2,1.2,0.4,1.9,0.6
			c-2.3-1.5-5-2.5-7.7-3.3c-13.9-3.7-28.1,3.7-34.1,16.7c-8.4-4.4-17.3-3.9-20.3,1.2c-3.1,5.3,1.6,13.9,10.3,18.9
			c1.7,0.9,3.4,1.7,5.2,2.3C-252.9,1355.6-257.3,1347.4-254.3,1342.2z"/>
		<path class="st1" d="M-200,1421.6c0.2-0.7,0.4-1.4,0.7-2.1c-2.2-3.2-3.7-6.8-4.1-10.7c-9.9-5.4-15.8-16-15.4-27.3
			c-7.6-3.2-13.4-9.4-16.1-17.2c-1.9-0.3-3.7-0.8-5.3-1.6c2.9,7.2,8.5,12.9,15.7,15.9c-0.5,11.2,5.4,21.8,15.4,27.3
			c0.6,3.8,2,7.5,4.1,10.7c-0.3,0.7-0.5,1.3-0.7,2.1c-2.7,10.4,3.2,21,13.2,23.7C-199.1,1437.8-202,1429.4-200,1421.6z"/>
		
			<ellipse transform="matrix(0.6049 0.7963 -0.7963 0.6049 1008.6012 723.0738)" class="st5" cx="-224.4" cy="1377.9" rx="4.6" ry="3.5"/>
	</g>
</g>
<g id="_x23_woman_x28_sit_x2C_hold_x5B_pizza_x5D__x29_">
	<g>
		<path class="st14" d="M-594.3,1350.7c0,0,33.9,57.3,41.9,64.9c0,0,33.9,35.2,16.7,32.8c-1.3-0.2-26.2-21.2-27.6-24.7
			s-48.5-64.5-48.5-64.5l6.7-6.2L-594.3,1350.7z"/>
		<path class="st1" d="M-594.3,1350.7c0,0,33.9,57.3,41.9,64.9c0,0,33.9,35.2,16.7,32.8c-1.3-0.2-26.2-21.2-27.6-24.7
			s-48.5-64.5-48.5-64.5l6.7-6.2L-594.3,1350.7z"/>
		<path class="st7" d="M-563.1,1537.7c0,0-10.9,13.6-6.4,19s27.2,15.8,34.4,15.4c7.7-0.5,33.6,0.9,34.4-10.9c0,0,1.8-5.4-21.7-6.4
			c-23.5-0.9-16.3-25.4-16.3-25.4L-563.1,1537.7z"/>
		<path class="st4" d="M-692.8,1422.6c0,0-10.9,37.1,21.7,43.5l35.3-1.8c0,0,49.9-9.9,63.5-2.7c0,0,5.4,0.9,3.7,8.2
			c-1.8,7.2,2.7,56.2,2.7,56.2v16.3c0,0,30.8,0,34.4-3.7c0,0-2.7-14.5,0-26.2s-4.5-48.9-4.5-48.9l-0.7-22.3
			c-0.1-5.6-3.3-10.8-8.2-13.4c-1.7-0.9-3.7-1.4-5.5-1.4c0,0-61.6-9.9-83.3-8.2C-655.6,1419.9-692.8,1422.6-692.8,1422.6z"/>
		<path class="st6" d="M-632,1303.8c0,0,16.3,19,18.1,25.4s21.7,22.6,21.7,22.6s-14.5,10.9-11.8,16.3s-19-18.1-19-18.1l-25.4-37.1
			L-632,1303.8z"/>
		<path class="st1" d="M-632,1303.8c0,0,16.3,19,18.1,25.4s21.7,22.6,21.7,22.6s-14.5,10.9-11.8,16.3s-19-18.1-19-18.1l-25.4-37.1
			L-632,1303.8z"/>
		<path class="st14" d="M-621.2,1282.1c0,0-8.2,26.2-8.2,36.3c0,10-34.4-2.7-33.6-8.2c0.8-5.4,20-25.4,20.8-33.6
			C-641.2,1268.5-621.2,1282.1-621.2,1282.1z"/>
		<path class="st1" d="M-648.3,1300.2c0,0-31.7-8.2-36.3,38.1c-4.6,46.2,3.7,51.7-9.9,79.8s92.4,3.7,92.4,3.7s-5.4-6.4-22.7-3.7
			l-8.2-24.5c0,0-2.7-10.9,12.7-10.9s8.2-31.7,8.2-31.7s-8.2-27.2-12.7-29.9C-629.3,1318.4-637.5,1302-648.3,1300.2z"/>
		<path class="st6" d="M-648.3,1298.5c0,0-31.7-8.2-36.3,38.1c-4.6,46.2,3.7,51.7-9.9,79.8c-13.6,28.1,92.4,3.7,92.4,3.7
			s-5.4-6.4-22.7-3.7l-8.2-24.5c0,0-2.7-10.9,12.7-10.9c15.5,0,8.2-31.7,8.2-31.7s-8.2-27.2-12.7-29.9
			C-629.2,1316.6-637.5,1300.2-648.3,1298.5z"/>
		<circle class="st14" cx="-629.3" cy="1268.5" r="29.9"/>
		<polygon class="st15" points="-635.1,1421.6 -560,1466.5 -490,1401.4 -573.4,1372.3 -633.4,1413.2 		"/>
		<polygon class="st16" points="-552.7,1290.1 -575.8,1360.8 -492.3,1387.7 -457.1,1288 		"/>
		<polygon class="st15" points="-546.5,1295.8 -569.8,1365.4 -492.3,1387.7 -459.2,1293.7 		"/>
		<polygon class="st17" points="-552.6,1290.8 -546.4,1296.6 -459.1,1294.3 -457,1288.6 		"/>
		<polygon class="st17" points="-575.7,1361.5 -552.6,1290.8 -546.4,1296.6 -569.1,1364.4 		"/>
		<polygon class="st18" points="-552.7,1290.1 -546.5,1295.8 -459.2,1293.7 -457.1,1288 		"/>
		<polygon class="st18" points="-575.8,1360.8 -552.7,1290.1 -546.5,1295.8 -569.2,1363.7 		"/>
		<polygon class="st17" points="-552.7,1290.1 -543.1,1299.1 -455.8,1297 -457.1,1288 		"/>
		<polygon class="st17" points="-575.8,1360.8 -552.7,1290.1 -543.1,1299.1 -565.9,1367 		"/>
		<polygon class="st17" points="-575.6,1361.7 -573.5,1375.2 -489.6,1404.3 -492.1,1388.7 		"/>
		<polygon class="st17" points="-637.7,1406 -575.6,1361.7 -573,1375.2 -633.8,1420.5 		"/>
		<polygon class="st18" points="-575.8,1360.8 -574,1372.3 -490.1,1401.5 -492.3,1387.7 		"/>
		<polygon class="st18" points="-637.8,1405 -575.8,1360.8 -573.4,1372.3 -634.3,1417.7 		"/>
		<polygon class="st17" points="-575.8,1360.8 -574,1372.3 -490.1,1401.5 -492.3,1387.7 		"/>
		<polygon class="st17" points="-637.8,1405 -575.8,1360.8 -573.4,1372.3 -634.3,1417.7 		"/>
		<polygon class="st19" points="-637.8,1405 -635,1421.6 -560,1466.4 -561.9,1449.3 		"/>
		<path class="st8" d="M-603.6,1402.3c0,0-1.3,2.4,0.7,3.7c0.9,0.6,7.7,1.9,14.5,3.2c3.4,0.7,6.7,1.2,9.4,1.7
			c3.3,0.6,5.5,0.9,5.5,0.9h1.7l10.4,0.2l9.8,0.2l4.1-0.8l-2.3-16.3l-12.4-13.6l-2.6,2.2l-0.5,0.4l-6.8,3.3l-19.2,9.4l-8.6,4.2
			l-1,0.5L-603.6,1402.3z"/>
		<path class="st9" d="M-540.4,1410.2c0,0-2.3-17.8-9.1-24.1c0,0-5.5-5.6-8.9-7.1c0,0-2.9-2.1-5.7,4.1c0,0,11,6.7,13.3,17.1
			l2.3,10.4L-540.4,1410.2z"/>
		
			<ellipse transform="matrix(0.8427 0.5383 -0.5383 0.8427 666.3721 520.7931)" class="st10" cx="-558.2" cy="1400.9" rx="5.5" ry="4.7"/>
		
			<ellipse transform="matrix(0.8427 0.5383 -0.5383 0.8427 661.5778 529.3994)" class="st10" cx="-575.3" cy="1397" rx="5.5" ry="4.7"/>
		<path class="st10" d="M-572,1387.2c0.2,1.9,1.2,3.6,2.8,4.5c2.5,1.7,5.8,1.2,7.1-0.9c1.3-2.2,0.5-5.2-2.2-6.9
			c-0.2-0.1-0.4-0.2-0.6-0.3l-0.5,0.4L-572,1387.2z"/>
		<path class="st10" d="M-571.3,1408.3c-0.7,1-0.8,2.3-0.5,3.5l10.4,0.2c-0.1-2-1.1-3.7-2.8-4.7
			C-566.7,1405.7-570,1406.2-571.3,1408.3z"/>
		<path class="st10" d="M-588.4,1404.7c-0.8,1.3-0.8,3-0.1,4.4c3.4,0.7,6.7,1.2,9.4,1.7l0.1-0.1c1.4-2.2,0.5-5.2-2.2-6.9
			C-583.8,1402-586.9,1402.5-588.4,1404.7z"/>
		<path class="st10" d="M-600,1400.8c0.4,0.5,0.8,0.8,1.4,1.1c2.5,1.7,5.8,1.2,7.1-0.9c0.8-1.3,0.8-3,0.1-4.4L-600,1400.8z"/>
		<path class="st11" d="M-555.2,1407.4l-0.9,1.5c-0.9-1-2.2-1.8-3.5-2.3l-0.3-0.1c-1.8-0.3,0.9-1.5,0.9-1.5
			S-555.5,1406.4-555.2,1407.4z"/>
		<path class="st11" d="M-563.3,1396.6l-0.9,1.5c-0.9-1-2.2-1.8-3.5-2.3l-0.3-0.1c-1.8-0.3,0.9-1.5,0.9-1.5
			S-563.7,1395.7-563.3,1396.6z"/>
		<path class="st11" d="M-568.4,1400.6l-0.9,1.5c-0.9-1-2.2-1.8-3.5-2.3l-0.3-0.1c-1.8-0.3,0.9-1.5,0.9-1.5
			S-568.8,1399.6-568.4,1400.6z"/>
		<path class="st11" d="M-579.3,1404.4l-0.9,1.5c-0.9-1-2.2-1.8-3.5-2.3l-0.3-0.1c-1.8-0.3,0.9-1.5,0.9-1.5
			S-579.6,1403.4-579.3,1404.4z"/>
		<path class="st11" d="M-594.9,1403.7l-0.9,1.5c-0.9-1-2.2-1.8-3.5-2.3l-0.3-0.1c-1.8-0.3,0.9-1.5,0.9-1.5
			S-595.4,1402.8-594.9,1403.7z"/>
		<path class="st11" d="M-582.1,1398.1l-0.9,1.5c-0.9-1-2.2-1.8-3.5-2.3l-0.3-0.1c-1.8-0.3,0.9-1.5,0.9-1.5
			S-582.4,1397.2-582.1,1398.1z"/>
		<path class="st9" d="M-543.4,1414.8c0,0,6-0.7,2.9-4.6c-3.3-0.8-6.7-0.7-9.9,0.2c0,0-25.7,1.1-29-0.7c0,0-23.2-3.7-24.2-5
			c0,0-1.9,0.4,3.8,2.9s23.9,5.2,23.9,5.2l19.3,1.5l6.9-0.8L-543.4,1414.8z"/>
		<path class="st12" d="M-543.4,1414.8c0,0,6-0.7,2.9-4.6c-3.3-0.8-6.7-0.7-9.9,0.2c0,0-25.7,1.1-29-0.7c0,0-23.2-3.7-24.2-5
			c0,0-1.9,0.4,3.8,2.9s23.9,5.2,23.9,5.2l19.3,1.5l6.9-0.8L-543.4,1414.8z"/>
		<path class="st10" d="M-561.6,1405.6c-0.6,1.8-0.3,3.7,0.8,5.2c1.8,2.4,4.9,3.3,7,1.8c2.2-1.5,2.3-4.7,0.7-7.2
			c-0.1-0.2-0.3-0.4-0.4-0.5l-0.6,0.2L-561.6,1405.6z"/>
		<polygon class="st19" points="-561.9,1449.3 -492.3,1387.7 -490.1,1401.3 -560,1466.4 		"/>
		<polygon class="st19" points="-483.2,1391.3 -492.3,1387.7 -457.1,1288 -450.5,1292.6 		"/>
		<g class="st20">
			<path class="st21" d="M-539.7,1536.7c0.1-2.4,0.4-4.8,1-7.1l-0.5,0.2C-539.6,1532-539.8,1534.3-539.7,1536.7z"/>
			<path class="st21" d="M-535.1,1570.3c-7.3,0.5-29.9-9.9-34.4-15.4c-0.6-0.7-0.9-1.6-1-2.5c-0.3,1.5,0.1,3.1,1,4.4
				c4.5,5.4,27.2,15.8,34.4,15.4c7.7-0.5,33.6,0.9,34.4-10.9c0.1-0.3,0-0.7-0.1-0.9C-502.9,1571.2-527.6,1569.8-535.1,1570.3z"/>
		</g>
		<path class="st8" d="M-508.6,1350.3c0,0,1.6-1.9,0.2-3.2c-0.7-0.7-6.2-3.2-11.7-5.6c-2.7-1.2-5.4-2.3-7.7-3.3l-4.6-2l-1.5-0.4
			l-8.9-2.2l-8.3-2.2l-3.7-0.1l-1.2,14.4l7.9,14.2l2.6-1.3l0.5-0.2l6.5-1.5l18.4-4.1l8.2-1.9l0.9-0.2L-508.6,1350.3z"/>
		<path class="st9" d="M-561,1330.9c0,0-1.6,15.7,2.9,22.4c0,0,3.6,5.9,6.2,7.9c0,0,2.1,2.3,5.7-2.3c0,0-8-7.9-8-17.2l0.1-9.4
			L-561,1330.9z"/>
		
			<ellipse transform="matrix(0.697 0.717 -0.717 0.697 796.7881 799.5093)" class="st10" cx="-547.7" cy="1342.6" rx="4.9" ry="4.1"/>
		
			<ellipse transform="matrix(0.697 0.717 -0.717 0.697 805.7982 791.6298)" class="st10" cx="-533.9" cy="1349.4" rx="4.9" ry="4.1"/>
		<path class="st10" d="M-538.6,1356.9c0.3-1.6-0.3-3.3-1.5-4.4c-1.9-1.9-4.7-2.2-6.4-0.6s-1.4,4.4,0.5,6.4c0.1,0.1,0.3,0.3,0.4,0.4
			l0.5-0.2L-538.6,1356.9z"/>
		<path class="st10" d="M-534.9,1338.8c0.7-0.7,1.1-1.8,1.1-2.9l-8.9-2.2c-0.3,1.7,0.2,3.4,1.4,4.5
			C-539.4,1340.1-536.6,1340.4-534.9,1338.8z"/>
		<path class="st10" d="M-521.2,1345.2c0.9-1,1.3-2.4,1-3.7c-2.7-1.2-5.4-2.3-7.7-3.3l-0.1,0.1c-1.6,1.6-1.4,4.4,0.5,6.4
			S-522.8,1346.8-521.2,1345.2z"/>
		<path class="st10" d="M-512,1351c-0.3-0.5-0.6-0.9-0.9-1.3c-1.9-1.9-4.7-2.2-6.3-0.6c-0.9,1-1.3,2.4-1,3.7L-512,1351z"/>
		<path class="st11" d="M-549,1336.2l1.1-1c0.7,1,1.5,2,2.5,2.7l0.2,0.1c1.4,0.7-1.1,1-1.1,1S-548.9,1337.2-549,1336.2z"/>
		<path class="st11" d="M-544.2,1347.2l1.1-1.1c0.7,1,1.5,2,2.5,2.7l0.2,0.1c1.4,0.7-1.1,1.1-1.1,1.1S-544.1,1348-544.2,1347.2z"/>
		<path class="st11" d="M-539,1344.8l1.1-1.1c0.7,1,1.5,2,2.5,2.7l0.2,0.1c1.4,0.7-1.1,1.1-1.1,1.1S-539,1345.7-539,1344.8z"/>
		<path class="st11" d="M-529,1343.7l1.1-1.1c0.7,1,1.5,2,2.4,2.7l0.2,0.1c1.4,0.7-1.1,1-1.1,1S-528.9,1344.7-529,1343.7z"/>
		<path class="st11" d="M-515.7,1347.4l1.1-1.1c0.7,1,1.5,2,2.4,2.7l0.2,0.1c1.4,0.7-1.1,1.1-1.1,1.1S-515.6,1348.2-515.7,1347.4z"
			/>
		<path class="st11" d="M-527.9,1349.5l1.1-1c0.7,1,1.5,2,2.5,2.7c0.1,0,0.1,0.1,0.2,0.1c1.4,0.7-1.1,1.1-1.1,1.1
			S-527.7,1350.5-527.9,1349.5z"/>
		<path class="st9" d="M-557.6,1327.5c0,0-5.2-0.7-3.5,3.4c2.6,1.3,5.5,2,8.5,1.9c0,0,22.1,4.2,24.6,6.4c0,0,19.1,7.9,19.7,9.1
			c0,0,1.7,0-2.7-3.3s-19.4-9.3-19.4-9.3l-16.2-5.2l-6.1-0.7L-557.6,1327.5z"/>
		<path class="st12" d="M-557.6,1327.5c0,0-5.2-0.7-3.5,3.4c2.6,1.3,5.5,2,8.5,1.9c0,0,22.1,4.2,24.6,6.4c0,0,19.1,7.9,19.7,9.1
			c0,0,1.7,0-2.7-3.3s-19.4-9.3-19.4-9.3l-16.2-5.2l-6.1-0.7L-557.6,1327.5z"/>
		<path class="st14" d="M-584.5,1349.4c2.7-1.4,5.2-3.3,7.2-5.5c0.9-1.1,1.7-2.3,2.7-3.5c2.4-2.6,5.6-4.4,9.1-5.2
			c3.5-0.7,6.9-1.1,10.5-1c2.3-0.2,4.7,0.1,7,0.8c2.3,0.7,4,2.6,4.6,5c0.5,2.8-1.3,5.5-3.6,7.3c-2.1,1.7-4.5,2.8-7,3.4
			c-2.1,0.4-4.2,0.7-6.4,0.7c-12.6,1.3-23.7,8.2-34.7,14.3c-9.7,5.4-15.1,5.2-25.1,9.9c-0.4-3-5-0.7-4.9-3.7c0.1-2.2,0.2-5.7,2.3-7
			c2.4-1.5,6.6-1.9,9.4-2.8c6.5-2.2,12.7-4.7,18.8-7.6C-591.2,1353-587.8,1351.2-584.5,1349.4z"/>
		<path class="st1" d="M-667.4,1341l48.1,43.5c0,0,9.1-18.1,11.8-18.1s-32.6-53.4-32.6-53.4s-9.1-10.9-14.5-5.4
			C-660.1,1313-676.5,1309.2-667.4,1341z"/>
		<path class="st6" d="M-668.3,1339.1l48,43.5c0,0,9.1-18.1,11.8-18.1s-32.6-53.4-32.6-53.4s-9.1-10.9-14.5-5.4
			C-661.1,1311.1-677.3,1307.5-668.3,1339.1z"/>
		<path class="st2" d="M-589.2,1262.6c1-1.1,1.9-2.5,2.5-3.9c4.1-9.4-2.4-21.2-13.7-24.4c-5.6-1.7-11.9-1.3-17.5-3.1
			c-4.5-1.4-8.3-4-12.5-6.1c-7.8-3.8-16.4-5.7-25.1-5.3c-8.4,0.3-17.7,3.3-21.2,9.8c-5.1,9.6,4.2,21.6-1.4,30.8
			c-4.1,6.8-14.2,8.8-22.6,11.8c-8.6,3-16.6,7.9-23.1,14.3c-6.6,6.6-11.2,15.6-8,23.7c1.9,4.8,6.3,8.5,9.7,12.7
			c11.8,13.9,12.8,34,2.5,49c-1.6,2.3-3.5,4.6-4.1,7.2c-1.6,6.3,4.9,12.6,12.3,13.8s15.2-1.6,20.9-5.6c5.3-3.7,9.7-8.7,12.5-14.5
			c6.8-14.5,2.1-30.9,1.4-46.6c-0.1-1.9,0-3.8,1.3-5.2c2-2.2,5.7-2.1,8.9-2.3c8.3-0.7,15.9-5.3,19.5-11.8
			c6.7-12.4-1.1-29.5,10.7-38.9C-621.4,1256-600.2,1274.5-589.2,1262.6z"/>
		<path class="st1" d="M-600.4,1234.2L-600.4,1234.2c4.3,5.1,5.9,11.9,3.4,17.9c-0.7,1.4-1.5,2.8-2.5,3.9c-11,12-32.2-6.5-47.1,5.2
			c-11.7,9.3-3.9,26.5-10.7,38.9c-3.5,6.4-11.2,11.1-19.5,11.8c-3.2,0.3-6.9,0.2-8.9,2.3c-1.3,1.4-1.4,3.4-1.3,5.2
			c0.7,15.7,5.5,32.1-1.4,46.6c-2.8,5.8-7.1,10.9-12.5,14.5c-5.8,4-13.5,6.8-20.9,5.6l-0.5-0.1c2.5,3.6,6.5,6,10.8,6.7
			c7.4,1.2,15.1-1.6,20.9-5.7c5.3-3.7,9.7-8.7,12.5-14.5c6.8-14.5,2.1-30.9,1.4-46.6c-0.1-1.9,0-3.8,1.3-5.2c2-2.2,5.7-2.1,8.9-2.3
			c8.3-0.7,15.9-5.3,19.5-11.8c6.7-12.4-1.1-29.5,10.7-38.9c14.8-11.7,36.1,6.7,47.1-5.2c1-1.1,1.9-2.5,2.5-3.9
			C-582.5,1249.2-589.1,1237.5-600.4,1234.2z"/>
	</g>
</g>
</svg>
