<?xml version="1.0" encoding="utf-8"?>
<!-- Generator: Adobe Illustrator 19.0.0, SVG Export Plug-In . SVG Version: 6.00 Build 0)  -->
<svg version="1.1" xmlns="http://www.w3.org/2000/svg" xmlns:xlink="http://www.w3.org/1999/xlink" x="0px" y="0px"
	 viewBox="0 0 1000 1000" style="enable-background:new 0 0 1000 1000;" xml:space="preserve">
<style type="text/css">
	.st0{opacity:0.1;enable-background:new    ;}
	.st1{fill:#6C63FF;}
	.st2{opacity:0.1;fill:#6C63FF;enable-background:new    ;}
	.st3{fill:#A8A8A8;}
	.st4{opacity:0.2;enable-background:new    ;}
	.st5{fill:#FEC2BE;}
	.st6{opacity:0.1;}
	.st7{fill:#3A3768;}
	.st8{fill:#E6E8EC;}
	.st9{fill:url(#SVGID_1_);}
	.st10{fill:url(#SVGID_2_);}
	.st11{fill:#4C4981;}
	.st12{opacity:5.000000e-02;enable-background:new    ;}
	.st13{fill:#CA8496;}
	.st14{fill:#CEDDF9;}
	.st15{fill:#FFFFFF;}
	.st16{fill:#FF718D;}
	.st17{fill:#9A5E7F;}
</style>
<g id="_x23_background">
	<g class="st0">
		<g>
			<path class="st1" d="M323.4,96.9c32.6-29.1,83.8-35,130.4-32.7c146.3,7.2,278.4,77.9,392.8,157.8c41.4,29,82.1,60.1,109,100
				c54.6,81.1,38.5,193.5-37.6,260.2c-25.9,22.8-57.2,40.1-89.4,55.6c-57.2,27.4-119,49.6-183.9,55.8c-46.4,4.4-93.2,0.8-139.3-5.4
				c-128.6-17.5-254.8-56.1-360.7-122c-46.5-29-90.1-65-109.3-111.7s-6.9-106.1,40.5-133.8c19.7-11.5,43-16.7,66-21.5
				c33.7-7.1,68.1-14.2,98.6-28.8c31.5-15,68.7-44.1,62.5-77.4C296.2,157.2,290.8,125.9,323.4,96.9z"/>
		</g>
	</g>
</g>
<g id="_x23_accessory_x28_have_x5B_leaf_x2C_rock_x5D__x29_">
	<g>
		<g>
			<g>
				<path class="st1" d="M129.1,815.6c0,0-43.8-2.6-38.6,28c0,0-1,5.4,3.9,7.9c0,0,0.1-2.3,4.4-1.6c1.6,0.3,3.2,0.3,4.8,0.2
					c2.2-0.1,4.1-1,5.8-2.4l0,0c0,0,12.3-5.1,17.1-25.1c0,0,3.5-4.3,3.4-5.5l-7.3,3.1c0,0,2.5,5.4,0.5,9.7c0,0-0.2-9.5-1.7-9.3
					c-0.3,0-3.8,1.9-3.8,1.9s4.3,9.3,1,16c0,0,1.2-11.4-2.4-15.3l-5.2,3c0,0,5.1,9.6,1.7,17.4c0,0,0.9-12-2.7-16.7l-4.8,3.6
					c0,0,4.8,9.4,1.9,15.9c0,0-0.4-14-2.9-15c0,0-4.1,3.6-4.8,5.2c0,0,3.2,6.8,1.2,10.5c0,0-1.2-9.3-2.3-9.3c0,0-4.1,6.2-4.6,10.3
					c0,0,0.2-6.3,3.5-11c-2.4,0.4-4.6,1.6-6.3,3.3c0,0,0.6-4.3,7.3-4.8c0,0,3.4-4.7,4.2-5c0,0-6.6-0.5-10.7,1.2
					c0,0,3.5-4.1,11.9-2.3l4.7-3.8c0,0-8.7-1.2-12.4,0.1c0,0,4.2-3.6,13.7-1l5.1-3c0,0-7.4-1.6-11.9-1c0,0,4.7-2.5,13.3,0.2l3.6-1.7
					c0,0-5.5-1-7-1.2c-1.6-0.2-1.7-0.6-1.7-0.6c3.4-0.6,7-0.2,10.2,1.1C121.5,818.9,129.2,816,129.1,815.6z"/>
				<ellipse class="st2" cx="98.9" cy="854.1" rx="30.9" ry="5.3"/>
				<path class="st1" d="M212.9,734.8c0,0-24.6-1.4-21.7,15.8c-0.3,1.8,0.6,3.6,2.2,4.4c0,0,0-1.2,2.6-0.8c0.9,0.1,1.8,0.2,2.7,0.1
					c1.2-0.1,2.4-0.5,3.3-1.3l0,0c0,0,6.9-2.8,9.6-14.2c0,0,2-2.5,2-3.1l-4.1,1.8c0,0,1.4,3,0.3,5.5c0,0-0.1-5.4-0.9-5.3
					c-0.2,0-2.2,1-2.2,1s2.5,5.2,0.6,9c0,0,0.7-6.4-1.3-8.7l-3,1.8c0,0,2.9,5.4,0.9,9.8c0,0,0.5-6.7-1.6-9.4l-2.7,2.1
					c0,0,2.7,5.4,1,9c0,0-0.2-7.9-1.7-8.5c-1,0.8-1.9,1.9-2.7,2.9c0,0,1.9,3.8,0.7,5.9c0,0-0.7-5.3-1.2-5.3c0,0-2.3,3.4-2.6,5.9
					c0.1-2.2,0.8-4.3,2-6.2c-1.3,0.2-2.6,0.9-3.5,1.9c0,0,0.4-2.5,4.1-2.7c0,0,1.9-2.6,2.4-2.8c0,0-3.7-0.3-6,0.7c0,0,2-2.3,6.7-1.2
					l2.6-2.2c0,0-5-0.7-7,0.1c0,0,2.4-2.1,7.8-0.5l2.9-1.7c-2.2-0.5-4.4-0.7-6.7-0.6c0,0,2.6-1.4,7.6,0.1l2.1-0.9
					c0,0-3.1-0.6-3.9-0.7s-0.9-0.3-0.9-0.3c2-0.3,3.9-0.1,5.8,0.6C208.7,736.6,213,735.1,212.9,734.8z"/>
				<ellipse class="st2" cx="196" cy="756.5" rx="17.5" ry="2.9"/>
				<path class="st1" d="M67.4,749.8c0,0-29.8-1.8-26.3,19c-0.4,2.2,0.7,4.3,2.7,5.4c0,0,0-1.6,3-1c1,0.2,2.2,0.2,3.2,0.2
					c1.4-0.1,2.9-0.6,3.9-1.7l0,0c0,0,8.4-3.4,11.6-17.2c0,0,2.4-3,2.3-3.7l-5.1,2.2c0,0,1.7,3.6,0.4,6.6c0,0-0.2-6.5-1.1-6.3
					c-0.2,0-2.6,1.2-2.6,1.2s3,6.3,0.7,10.9c0,0,0.8-7.8-1.7-10.5L55,757c0,0,3.4,6.5,1.1,11.8c0,0,0.6-8.2-1.9-11.4l-3.2,2.5
					c0,0,3.2,6.4,1.2,10.9c0,0-0.2-9.5-2-10.2c0,0-2.8,2.5-3.2,3.5c0,0,2.2,4.7,0.8,7.1c0,0-0.8-6.3-1.6-6.4c0,0-2.8,4.2-3.1,7
					c0.1-2.7,0.9-5.3,2.4-7.4c-1.7,0.3-3.1,1-4.2,2.2c0,0,0.4-3,5-3.2c0,0,2.3-3.2,2.9-3.4c0,0-4.6-0.4-7.2,0.8c0,0,2.4-2.8,8.1-1.6
					l3.2-2.6c0,0-5.9-0.8-8.5,0.1c0,0,2.9-2.5,9.3-0.7l3.4-2.1c0,0-5.1-1.1-8.1-0.7c0,0,3.2-1.8,9.1,0.1l2.5-1.1
					c0,0-3.7-0.7-4.8-0.8c-1-0.1-1.1-0.4-1.1-0.4c2.4-0.4,4.8-0.1,6.9,0.7C62.2,752,67.5,750.1,67.4,749.8z"/>
				<ellipse class="st2" cx="46.9" cy="776" rx="21.1" ry="3.5"/>
				<ellipse class="st2" cx="654.6" cy="905.6" rx="30.9" ry="5.3"/>
				<path class="st3" d="M633.8,881.3c0,0,17.7-0.5,23-4.3c5.3-3.8,27.1-8.3,28.5-2.3c1.3,6,26.6,30.2,6.6,30.4
					c-20,0.2-46.4-3.1-51.6-6.3C634.9,895.5,633.8,881.3,633.8,881.3z"/>
				<path class="st4" d="M692.2,903c-20,0.2-46.4-3.1-51.6-6.3c-4-2.5-5.7-11.3-6.2-15.4h-0.6c0,0,1.1,14.3,6.4,17.5
					c5.3,3.2,31.7,6.5,51.6,6.3c5.8,0,7.8-2.1,7.7-5.2C698.8,901.9,696.5,903,692.2,903z"/>
			</g>
		</g>
	</g>
</g>
<g id="_x23_man_x28_stand_x2C_hold_x5B_puzzle_x5D__x29_">
	<g>
		<g>
			<g>
				<path class="st5" d="M673.5,462.3c8.5,3.2,28.4,3.6,37.1,3.6c2.7,0,4.3,0,4.3,0l5.6-11.5l-5.6-9.5c0,0-5.2-1.4-12-2.7
					c-10.1-1.9-24-3.2-30.6,0.8C661.2,449.9,662.4,458.2,673.5,462.3z"/>
				<path class="st0" d="M710.6,465.9c2.7,0,4.3,0,4.3,0l5.6-11.5l-5.6-9.5c0,0-5.2-1.4-12-2.7C708.5,446.3,721.8,455.2,710.6,465.9
					z"/>
				<polygon class="st1" points="657.2,547.1 661.1,548.1 660.3,552.1 656.5,551.2 				"/>
				<polygon class="st0" points="657.2,547.1 661.1,548.1 660.3,552.1 656.5,551.2 				"/>
				<g>
					<ellipse class="st2" cx="433.2" cy="823.5" rx="182.1" ry="12.9"/>
					<g class="st6">
						<path d="M446.5,732.5c3.9,6.7,10.2,11.1,17.2,11.1c12,0,21.7-12.7,21.7-28.4s-9.8-28.2-21.7-28.2c-5.7,0-10.8,2.8-14.7,7.4
							c-1.4,1.8-2.7,3.7-3.7,5.8l-0.2,1.2c0,0-4.7,3.9-11,0.3v-91.9h-89.7c-1.4-2-1.9-4.4-1-6.7c0.6-2.1,2.1-3.8,4-5
							c6.7-3.9,11.2-10.2,11.2-17.2c0-12-12.7-21.7-28.4-21.7c-15.6,0-28.4,9.7-28.4,21.7c0,5.7,2.8,10.8,7.4,14.7
							c1.8,1.4,3.7,2.7,5.8,3.7l0.1,0.2c2.8,2.7,3.5,6.9,1.8,10.3h-40.5v170.2c0,22.2,18.1,40.4,40.4,40.4l0,0h117.4v-90.4
							c2-1.9,4.8-2.5,7.3-1.6C443.7,729.2,445.5,730.6,446.5,732.5z"/>
						<path d="M295.5,606.2h14.1c-6.9-5.3-11-13.6-11.1-22.2c0-16.1,14.1-29.2,31.5-29.2s31.5,13,31.5,29.2
							c-0.1,8.7-4.1,17-11.1,22.2h84.1v-90.6c2-1.9,4.8-2.4,7.3-1.6c2.1,0.6,3.8,2.1,5,4c3.9,6.7,10.1,11.1,17.2,11.1
							c12,0,21.7-12.7,21.7-28.4c0-15.6-9.7-28.4-21.7-28.4c-5.7,0-10.8,2.8-14.7,7.4c-1.4,1.8-2.7,3.7-3.7,5.8l-0.2,0.1
							c-2.9,3-7.4,3.6-11,1.4v-91.9H348c-1.4-2-1.9-4.4-1-6.7c0.6-2.1,2.1-3.8,4-5c6.7-3.9,11.1-10.2,11.1-17.2
							c0-12-12.7-21.7-28.4-21.7s-28.4,9.7-28.4,21.7c0,5.7,2.8,10.8,7.4,14.7c1.8,1.4,3.7,2.7,5.8,3.7l0.1,0.2
							c2.8,2.7,3.5,6.9,1.8,10.3h-25v-4.8h18.4c-6.9-5.3-11-13.5-11.1-22.2c0-16.1,14.1-29.2,31.5-29.2c17.4,0,31.5,13,31.5,29.2
							c-0.1,8.7-4.1,17-11.2,22.2h79.8v-91.8c2-1.9,4.8-2.5,7.3-1.6c2.1,0.6,3.8,2.1,5,4c3.9,6.7,10.2,11.1,17.2,11.1
							c12,0,21.7-12.7,21.7-28.4s-9.7-28.4-21.7-28.4c-5.7,0-10.8,2.8-14.7,7.4c-1.4,1.8-2.7,3.7-3.7,5.8l-0.2,1.2
							c0,0-4.7,3.9-11,0.3V185H317.1c-22.2,0-40.4,18.1-40.4,40.4V269h-0.6c-1.3,0-2.4,1-2.4,2.4l0,0v20.7c0,1.3,1,2.4,2.4,2.4h0.6
							v21.1h-0.8c-1.3,0-2.4,1-2.4,2.4v39.5c0,1.3,1,2.4,2.4,2.4h0.8v15.5h-0.6c-1.3,0-2.4,1-2.4,2.4l0,0v12.7h-0.6v26.8
							c0,1.3,1,2.4,2.4,2.4l0,0h0.7v186.6H295.5z"/>
						<path d="M602.5,331.5c0-1.3-1-2.4-2.4-2.4h-1.4v-2.6H598V223.3c0-21.4-17.4-38.8-38.8-38.8l0,0H442.8v78.6
							c5.4-7.1,13.8-11.4,22.8-11.5c16.2,0,29.5,14.1,29.5,31.5c0,17.4-13.1,31.5-29.5,31.5c-9,0-17.4-4.2-22.8-11.4v87.2h94.2
							c-6.9-5.4-11-13.6-11.1-22.2c0-16.1,14.1-29.3,31.4-29.3c7.7,0,15.2,2.7,21.1,7.6c11.9,9.5,13.9,26.9,4.3,38.9
							c-1.2,1.7-2.7,3.1-4.3,4.3v0.7h20.5v-0.1h3.8L602.5,331.5z"/>
						<path d="M571.3,601.7v-10.3l0,0c0.4-0.6,0.8-1.2,1.1-2c1.3-2.5,2.1-5.4,2.2-8.3c0-2-0.3-3.8-0.9-5.6c-0.5-1.7-1.3-3.1-2.3-4.6
							l0,0c-4.8-6.8-14.2-11.6-25-11.6c-15.7,0-28.4,9.7-28.4,21.7c0,5.7,2.8,10.8,7.4,14.7c1.8,1.4,3.7,2.7,5.8,3.7l0.1,0.2
							c2.8,2.7,3.5,6.9,1.8,10.3h-91.3v84.8c5.3-7.1,13.7-11.3,22.6-11.4c16.1,0,29.2,14.1,29.2,31.5s-13,31.5-29.2,31.5
							c-8.9-0.1-17.2-4.2-22.6-11.4v68.5h104.7c13.8,0,24.8-11.1,24.9-24.8V610.1l0,0v168.4c0,13.8-11.2,24.9-24.9,24.9H441.6V820
							h108.6c22.2,0,40.4-18.1,40.4-40.4l0,0V610.1l0,0v-4.4h-19.3V601.7z"/>
					</g>
					<path class="st7" d="M321.8,799.6c-13.8,0-24.9-11.2-24.9-24.9v-169h-19.3v170.1c0,22.2,18.1,40.4,40.4,40.4l0,0h117.4v-16.6
						L321.8,799.6z"/>
					<path class="st1" d="M442.6,724.4c2.1,0.6,3.8,2.1,5,4c3.9,6.7,10.2,11.1,17.2,11.1c12,0,21.7-12.7,21.7-28.4
						c0-15.6-9.7-28.4-21.7-28.4c-5.7,0-10.8,2.8-14.7,7.4c-1.4,1.8-2.7,3.7-3.7,5.8l-0.2,1.2c0,0-4.7,3.9-11,0.3v-91.9h-89.7
						c-1.4-2-1.9-4.4-1-6.7c0.6-2.1,2.1-3.8,4-5c6.7-3.9,11.2-10.2,11.2-17.2c0-12-12.7-21.7-28.4-21.7c-15.6,0-28.4,9.7-28.4,21.7
						c0,5.7,2.8,10.8,7.4,14.7c1.8,1.4,3.7,2.7,5.8,3.7l0.1,0.2c2.8,2.7,3.5,6.9,1.8,10.3h-21.1v169.1c0,13.8,11.2,24.9,24.9,24.9
						h113.6V726C437.3,724.1,440.1,723.5,442.6,724.4z"/>
					<rect x="274.1" y="386.3" class="st7" width="3.1" height="5"/>
					<rect x="279.8" y="386.3" class="st7" width="16.8" height="5"/>
					<rect x="277.2" y="386.3" class="st7" width="2.6" height="5"/>
					<path class="st1" d="M441.6,607.7"/>
					<path class="st7" d="M276.5,415.4h0.7v-24.2h-3.1v21.8C274.1,414.4,275.2,415.4,276.5,415.4L276.5,415.4z"/>
					<path class="st7" d="M296.6,391.2h-16.8v21.8c0,1.3-1,2.4-2.4,2.4l0,0h-0.2v186.7h19.3V391.2z"/>
					<path class="st7" d="M277.2,415.4h0.2c1.3,0,2.4-1,2.4-2.4l0,0v-21.8h-2.6V415.4z"/>
					<path class="st1" d="M299.6,579.9c0-16.1,14.1-29.2,31.5-29.2s31.5,13,31.5,29.2c-0.1,8.8-4.1,17-11.1,22.3h84.1v-90.6
						c2-1.9,4.8-2.4,7.3-1.6c2.1,0.6,3.8,2.1,5,4c3.9,6.7,10.1,11.1,17.2,11.1c12,0,21.7-12.7,21.7-28.4c0-15.6-9.7-28.4-21.7-28.4
						c-5.7,0-10.8,2.8-14.7,7.4c-1.4,1.8-2.7,3.7-3.7,5.8l-0.2,0.1c-2.9,3-7.4,3.6-11,1.4v-91.9H349c-1.4-2-1.9-4.4-1-6.7
						c0.6-2.1,2.1-3.8,4-5c6.7-3.9,11.1-10.2,11.1-17.2c0-12-12.7-21.7-28.4-21.7s-28.4,9.7-28.4,21.7c0,5.7,2.8,10.8,7.4,14.7
						c1.8,1.4,3.7,2.7,5.8,3.7l0.1,0.2c2.8,2.7,3.5,6.9,1.8,10.3h-25v210.9h14.1C303.7,596.8,299.6,588.5,299.6,579.9z"/>
					<path class="st7" d="M280.3,373.2c0-1.3-1-2.4-2.4-2.4l0,0h-0.2v15.4h2.6V373.2z"/>
					<path class="st7" d="M277.6,264.9h-0.5c-1.3,0-2.4,1-2.4,2.4l0,0V288c0,1.3,1,2.4,2.4,2.4h0.6L277.6,264.9L277.6,264.9z"/>
					<path class="st7" d="M276.9,311.5c-1.3,0-2.4,1-2.4,2.4v39.5c0,1.3,1,2.4,2.4,2.4h0.8v-44.3H276.9L276.9,311.5z"/>
					<path class="st7" d="M277.7,371.2h-0.6c-1.3,0-2.4,1-2.4,2.4l0,0v13h3.1L277.7,371.2z"/>
					<path class="st7" d="M277.7,221.2v43.7c1.2,0,2.3,1.1,2.3,2.4V288c0,1.2-1,2.3-2.3,2.4v21.1h0.4c1.3,0,2.4,1,2.4,2.4l0,0v39.5
						c0,1.3-1,2.4-2.4,2.4l0,0h-0.4v15.5h0.2c1.3,0,2.4,1,2.4,2.4v12.9h16.8V222.4c0-13.8,11.2-24.9,24.8-24.9h33.7v4.3
						c0,11.3,9.2,20.5,20.5,20.5h59.4v-13.6h-27.3c-2.2,0-3.9-1.8-4-4v-0.8c0-2.2,1.8-4,4-4h27.3v-19H318.1
						C295.7,180.9,277.7,199,277.7,221.2z"/>
					<path class="st7" d="M280,288v-20.7c0-1.2-1-2.3-2.3-2.4v25.5C279,290.2,280,289.2,280,288z"/>
					<path class="st7" d="M280.4,353.4v-39.5c0-1.3-1-2.4-2.4-2.4l0,0h-0.4v44.3h0.4C279.4,355.7,280.4,354.7,280.4,353.4
						L280.4,353.4z"/>
					<path class="st1" d="M303.9,364.3c0-16.1,14.1-29.2,31.5-29.2c17.4,0,31.5,13,31.5,29.2c-0.1,8.7-4.1,17-11.2,22.2h79.8v-91.8
						c2-1.9,4.8-2.5,7.3-1.6c2.1,0.6,3.8,2.1,5,4c3.9,6.7,10.2,11.1,17.2,11.1c12,0,21.7-12.7,21.7-28.4s-9.7-28.4-21.7-28.4
						c-5.7,0-10.8,2.8-14.7,7.4c-1.4,1.8-2.7,3.7-3.7,5.8l-0.2,1.2c0,0-4.7,3.9-11,0.3v-44.2H376c-11.3,0-20.5-9.2-20.5-20.5v-4.3
						h-33.7c-13.8,0-24.9,11.2-24.9,24.9l0,0v164.2h17.9C308.2,381.3,304,373.1,303.9,364.3z"/>
					<path class="st8" d="M408.2,199.9c-2.2,0-4,1.8-4,4v0.9c0,2.2,1.8,4,4,4h27.3V200L408.2,199.9z"/>
					<path class="st7" d="M592.8,324.9v61.5h7v-63.9H596C594.3,322.4,592.8,323.6,592.8,324.9z"/>
					<rect x="443.8" y="180.5" class="st7" width="8.3" height="18.6"/>
					<rect x="443.8" y="208.4" class="st7" width="8.3" height="13.5"/>
					<rect x="443.8" y="199.1" class="st8" width="8.3" height="9.3"/>
					<path class="st7" d="M601.2,325h-2v61.3h4.3v-58.9C603.6,326.1,602.5,325,601.2,325z"/>
					<path class="st7" d="M452.1,199.1c2.2,0.5,4.1,4.6,4.1,4.6v0.8c0,0-2,4-4.1,3.9l0,0v13.5h46.8c11.3,0,20.5-9.2,20.5-20.5V197
						h35.2c13.8,0,24.8,11.2,24.8,24.9v120.5c11.9,9.5,13.9,26.9,4.3,38.9c-1.2,1.7-2.7,3.1-4.3,4.3v0.7h14.5v-60.7
						c0-0.2,0.1-0.3,0.3-0.3l0,0h4.9V219.3c0-21.4-17.4-38.8-38.8-38.8l0,0H451.1v18.6H452.1z M467.7,199c2.8,0,5.1,2.3,5.1,5.1
						s-2.3,5.1-5.1,5.1c-2.8,0-5.1-2.3-5.1-5.1l0,0C462.7,201.3,465,199,467.7,199z"/>
					<path class="st1" d="M466.6,247.6c16.2,0,29.5,14.1,29.5,31.5c0,17.4-13.1,31.5-29.5,31.5c-9,0-17.4-4.2-22.8-11.4v87.2H538
						c-6.9-5.4-11-13.6-11.1-22.2c0-16.1,14.1-29.3,31.4-29.3c7.8-0.1,15.2,2.7,21.1,7.7V221.9c0-13.8-11.1-24.8-24.8-24.9h-35.2
						v4.3c0,11.3-9.2,20.5-20.5,20.5h-55V259C449.2,252,457.6,247.7,466.6,247.6z"/>
					<path class="st8" d="M452.1,208.4c2.2,0,4-1.8,4.1-3.9v-0.8c-0.2-2.3-2-4-4.1-4.6h-1v9.3H452.1z"/>
					<ellipse class="st8" cx="467.7" cy="204" rx="5.1" ry="5.1"/>
					<path class="st7" d="M572.3,597.6v-10.3c4.4-6.1,4.4-14.3,0-20.3V597.6z"/>
					<rect x="572.3" y="601.5" class="st7" width="19.3" height="4.4"/>
					<path class="st1" d="M564.6,594.2c-2,1-3.4,2.8-4,5c-0.8,2.3-0.4,4.9,1.1,6.7h10.8v-4.4h-4.1c1.4-1.2,2.9-2.6,4.1-4v-10.3
						C570.3,590.1,567.7,592.5,564.6,594.2z"/>
					<path class="st1" d="M568.2,601.5h4.1v-4C571.1,599,569.6,600.2,568.2,601.5z"/>
					<path class="st7" d="M575.6,577.1c0-3.6-1.1-7.2-3.3-10.1v20.3C574.5,584.2,575.6,580.7,575.6,577.1z"/>
					<path class="st7" d="M591.7,605.9v169.6c0,22.2-18.1,40.4-40.4,40.4l0,0H442.7v-16.6h104.7c13.8,0,24.9-11.2,24.9-24.9V605.9
						H591.7z"/>
					<path class="st1" d="M560.5,599.2c0.6-2.1,2.1-3.8,4-5c3.1-1.8,5.8-4.1,7.9-7v-20.3c-4.8-6.8-14.2-11.6-25-11.6
						c-15.7,0-28.4,9.7-28.4,21.7c0,5.7,2.8,10.8,7.4,14.7c1.8,1.4,3.7,2.7,5.8,3.7l0.1,0.2c2.8,2.7,3.5,6.9,1.8,10.3h-91.3v84.8
						c5.3-7.1,13.7-11.3,22.6-11.4c16.1,0,29.2,14.1,29.2,31.5s-13,31.5-29.2,31.5c-8.9-0.1-17.2-4.2-22.6-11.4v68.5h104.7
						c13.8,0,24.8-11.1,24.9-24.8V605.9h-10.8C560.1,604,559.7,601.5,560.5,599.2z"/>
					
						<linearGradient id="SVGID_1_" gradientUnits="userSpaceOnUse" x1="889.2965" y1="672.8116" x2="889.2965" y2="15.3472" gradientTransform="matrix(1 0 0 1 -135.16 184.06)">
						<stop  offset="0" style="stop-color:#808080;stop-opacity:0.25"/>
						<stop  offset="0.54" style="stop-color:#808080;stop-opacity:0.12"/>
						<stop  offset="1" style="stop-color:#808080;stop-opacity:0.1"/>
					</linearGradient>
					<path class="st9" d="M932,331.3c-1.1-6.9-23.1-21.9-23.1-21.9s-9.6-5.2-14.8-11.2c-3.3-3.8-4.3-3.7-4.7-3.2
						c-0.2-0.1-0.4-0.2-0.7-0.2c-0.2-0.1-0.4-0.3-0.6-0.4l0,0c0.1-0.6-0.3-1.1-0.8-1.4c-0.2-0.1-0.5-0.3-0.7-0.5
						c-1.7-2.8-2.3-6.7-2.5-10.1c-0.2-4.3-5.2-3.2-6.8-2.8c-1.1-2.2-2.3-4.4-3.3-6.7c0.5-0.7,0.8-1.6,1.1-2.3
						c3-6.6,2.4-14.2,3.7-21.2c0.9-5.1,2.9-10.3,2.6-15.3c0-0.1,0-0.2,0-0.4v0.1c-0.1-1.2-0.4-2.5-0.8-3.6c-0.8-2.2-2.4-4.1-3.1-6.4
						c-1.1-3.3-0.4-7-1.3-10.5c-1.1-4.2-4.8-7.6-8.9-9.5c-4.1-1.9-8.7-2.6-13.1-3.1c-11.2-1.4-23.2-2.3-33.4,2.5
						c-0.9,0.5-2,0.8-3.1,0.8c-1-0.3-2-0.7-2.8-1.3c-2.8-1.3-6.2-0.5-8.7,1.3c-2.5,1.9-4.1,4.4-5.8,7c-1.7,2.6-3.4,5.2-6,6.8
						c-3,2-6.9,2.7-9.3,5.4c-1,1.2-1.8,2.8-2,4.4v-0.1c0,0.2,0,0.4,0,0.6c0,0.1,0,0.3,0,0.5s0,0.2,0,0.4c0,0.4,0,0.9,0,1.3
						c0.3,2.5,1,5,2,7.3c0.5,1.8,1.4,3.3,2.7,4.7c3.6,2.9,9.3,0.2,13.7,1.8c0.4,0.1,0.7,0.3,1.1,0.5c0,0.2-0.1,0.3-0.2,0.5
						c-0.9,3.2-1.4,6.4-1.3,9.7c0,19.5,16.1,35.2,36,35.2c0.7,0,1.4,0,2.2-0.1c0.1,0.4,0.2,0.8,0.3,1.1c1.1,4.2,1.4,8.8,1,13.1
						l-0.2-2c-0.5-0.2-1-0.4-1.4-0.5c-1.4-0.5-3-0.7-4.4-0.7c-4.9-0.1-12.2,1.9-20.1,11.5c0,0-10,5.6-13,6.9
						c-0.2,0.1-0.4,0.4-0.5,0.6l0,0c0,0-13.5,20.3-14.8,27.9c-1.3,7.8-3.1,16.6-3.1,16.6s-3.3,10-5.5,14.4
						c-2.2,4.4-4.1,8.7-4.3,10.6c-0.2,2,0.8,6.1-3.3,8.8s-5.2,10-5.2,10s-2.1,2-5,4.4h-0.1l10.9-41.5l2,0.5c0.9,0.2,2-0.1,2.6-0.8
						c0.2-0.2,0.3-0.5,0.4-0.8l2.2-8.4l0.8-3.3l0.2-0.7l1.2-4.9l-4.3-1l-5.1-1.2l-14.3-3.6l1.2-4.8l0,0l1-4l0,0l6.5-24.9l0,0l1-4
						c-4.1-5.4-10.8-9.7-18.8-11.7c-15.6-3.9-30.7,2.5-33.8,14.1c-0.2,0.7-0.3,1.3-0.4,2.1c-0.3,0.6-0.5,1.3-0.6,2
						c-0.5,2.1-0.6,4.1-0.4,6.2c0,0.3,0.1,0.7,0.2,1c0.6,3.2,2,6.2,3.9,8.9c1.4,1.9,3,3.5,4.9,5.1l0.1,0.2c0.7,1.2,1.2,2.7,1.3,4.1
						c0,0.2,0,0.4,0,0.6c-0.3,0.6-0.7,1.2-1.2,1.8l-95.5-23.7l-1,4l0,0l-21.5,82.6l0,0c2.8-2.2,6-3.8,9.3-5c1.3-0.4,2.7-0.8,4-1
						l0.5-0.1c3.8-0.6,7.8-0.4,11.6,0.5c12.1,3,20.4,13.2,21.9,25.4c0.2,1.6,0.3,3.1,0.2,4.7c0,2-0.2,3.9-0.6,5.8
						c-5.2,15.7-21.1,25.2-36.5,21.3c-8.8-2.2-16-8.4-19.6-16.7l-1,4l0,0l-22.1,84.8l84.5,21l0,0l0.9-4h0.1
						c-5.1-6.3-7.1-14.4-5.8-22.3c0-0.1,0.1-0.2,0.1-0.4c0.1-0.3,0.2-0.6,0.3-0.9c0.6-1.4,1.2-2.8,2.1-4.1c0.4-0.6,0.8-1.3,1.3-2
						c0.3-0.4,0.6-0.8,0.9-1.1c1.4-1.8,3.2-3.4,5.1-4.9l0.6-0.4c0.7-0.5,1.3-0.9,2.1-1.3c0.4-0.2,0.8-0.5,1.2-0.7
						c5-2.7,10.6-3.9,16.2-3.9c2.7,0,5.4,0.4,8.1,1c8.2,2,15.3,6.9,20,13.9c0.6,0.9,1.1,1.9,1.7,2.9c1.6,3,2.5,6.2,2.9,9.4
						c0.3,2.6,0.2,5.3-0.2,7.9c-2,5.8-5.9,10.8-11,14.2l-1,3.9h0.1l-0.2,0.1l-1,3.9l19.3,4.8l27.3-104.5c7.3-0.8,11.2-4.1,11.2-4.7
						c0-0.5,8.9-5.4,13.8-6.7c2.5-0.6,5.3-1.1,7.6-1.7c-2.7,13.1-5.2,25.9-5,26.6c0.1,0.3,0.5-0.2,1.2-1.1c-0.1,0.4-0.1,0.7-0.1,1.1
						c0,0.2,0.3,0,0.6-0.3v0.2c0,0-15.3,29.7-16.6,33.1s0.3,12.1,5,15c0.9,0.6,1.8,1.3,2.4,2.2l-0.5,1.1c-1.8,3.6-3.3,7.6-3,10
						c0.4,3.1-0.3,6.3-2.1,8.9c0,0-13.2,41.1-13,52.9c0.3,11.8-4.8,37.8-4.8,37.8s-5.5,16.8-2.2,21.5s6.9,25.6,6.9,25.6
						s2.5,4.8,2.4,8.8c-0.2,4,2.4,11.4,2.4,11.4l8.3,29.8c0,0-0.9,8,2.2,13.6c3.1,5.6,2.8,3.9,1.3,13.7c-1.4,9.8,1.8,18.8,7,21.7
						c2.1,1.1,2.2,2.8,1.6,4.4l0,0c-1.3-0.5-2.5,2.3-3.1,4.6l-0.7,0.6l0.4,0.1c-0.3,1-0.4,1.9-0.4,1.9s-13.9,11.6-14.8,15.7
						c-0.9,4.1-10.7,6.3-10.7,6.3s-14.8,4-18.6,6c-2.3,1-3.8,3.1-4,5.6c-0.2,1.9,0,3.8,0.5,5.7c1.4,5.9,22.1,6.5,32.1,4.9
						c9.9-1.7,30.4-7.3,30.4-7.3s21.5-2.1,27.9-4.7c6.4-2.6,1.3-9.2,1.3-9.2s0-0.2,0-0.6c0.2-2.4,0.6-11.2-0.9-13.5
						c-1.1-1.8-1.1-6.2-0.9-9c4.3-7.8-5-31-5-31s1.8-22.8,0.6-26.1s-6.2-31.6-6.2-31.6s-3.1-12.8-1.9-15c1.2-2.2-0.7-8.4-0.7-8.4
						s-5.1-6.9-4.7-9.1c0.4-2.2-1.4-6-1.4-6s15.1-22.5,13.8-26.7c-1.3-4.1,0.6-11,0.6-11s1.9-3.2,4.1-7c2.8-4.7,6.2-10.2,7.3-12
						c1.4-2.3,5-11.7,6.9-17.2c0.8-2.3,1.3-3.9,1.3-3.9s2.4,42.4,4.4,46.8c2.1,4.3,5.2,38.5,5.2,38.5c1.1,3,1.7,6.3,1.4,9.5
						c-0.3,5.4,4.8,28.6,4.8,28.6s2.2,16.5,0.7,20.8c-1.4,4.3-0.3,36.2-0.3,36.2s-8.1,6.2-10.1,11s0.3,17.7,0.3,17.7l0.9,0.4
						c-0.7,1.8-1.3,3.7-1.7,5.6c-0.3,2.8-4.8,15.1-4.2,16.9c0.4,1.8-1.9,7-2.2,9.8c-0.3,2.8-3.9,6.7-4.2,8.3c-0.5,1.3-1,2.6-1.7,3.8
						c-0.8,1.9-1.4,3.8-1.9,5.9c-1.4,6.1,16.1,7,16.1,7c26,4.8,30.7-14.7,30.7-14.7s3.2-17.3,4.4-18.6c0.3-0.5,0.4-1.1,0.2-1.7l0,0
						c-0.7-2.9-2-5.7-3.7-8.2c-0.8-0.9-0.8-3.4-0.7-5.7c0.7-0.1,1.4-0.2,2.3-0.4c10.5-3,6.2-20.5,6.2-20.5s7-11.5,7-16
						s2.5-18.2,2.5-18.2c9-16.1,5.5-55.4,6.9-58.6c1.4-3.2-3.1-15-6.8-20.4s-2.2-19.8,0-23.9s-2.2-18.6-2.2-18.6s4.2-27.9,4.1-32.3
						c-0.1-4.3,3.7-17.2,3.7-17.2s3.8-6.6,2.9-8.7c-0.9-2.1,2.9-7.2,2-9.5c-0.9-2.3,0.8-9.4,2.8-13.6c1-2.2,2.2-8.1,3.1-13.2
						c0.1-0.6,0.2-1.1,0.3-1.8c4.3,2.7,8.3,4.8,9.7,4.2c2.6-1-1.6-14.5-4.4-22.9c0.5-0.4,0.7-0.6,0.5-0.8c-1.8-1.1,0.2-6.3,0.2-6.3
						c10.5-6.1,6.9-10.8,3.5-13.5s-1.1-10.3-2.2-13.5c-1-3.1,1.2-17.1,3-27.3c0.4-2.2,0.3-4.4,0-6.7c1.9-2.9,3.8-5.9,5.6-8.7
						c5.9-9.6,18.5-55.4,18.5-55.4l-0.1-0.2c1.2-2.5,2.2-4.4,2.7-5.7C940.3,368.3,933.1,338.3,932,331.3z M840.2,305l0.3-0.1
						c0,0.1,0,0.1,0,0.2L840.2,305z M652,546.1L652,546.1L652,546.1z M782.9,795.8c-0.6,0-1.2-0.1-1.9-0.4L782.9,795.8z"/>
					<path class="st1" d="M750.5,349.4c1.1-1.9,3-3.2,5.2-3.8c1.3-0.4,2.6-0.8,3.8-1.4l7.3-28.9c-4.7-5.9-11.1-9.9-18.3-11.7
						c-15.2-3.8-29.9,2.4-32.8,14c-1.3,5.5,0.1,11.2,3.6,16c1.3,1.9,2.9,3.5,4.7,5l0.1,0.2c2.1,3.3,1.7,7.6-0.9,10.5l-92.8-23.6
						l-20.9,82.3c6.9-5.6,15.9-7.7,24.6-5.5c15.6,4,24.8,20.8,20.6,37.7s-20.4,27.2-36,23.3c-8.6-2.3-15.6-8.4-19-16.7l-21.5,84.4
						l82.2,20.9c-5.4-6.8-7.3-15.8-5.3-24.3c3.9-15.6,20.8-24.8,37.7-20.6c9.1,2.3,16.8,8.3,21,16.6L756,357.6l-6.1-1.6
						C748.9,354,749.2,351.5,750.5,349.4z"/>
					<g class="st6">
						<path d="M776,357.7l-4.9-1.2l-13.9-3.5l0,0l0.2-0.6l0,0l2.1-8.1c-1.2,0.6-2.5,1-3.8,1.4c-2.2,0.5-4,1.9-5.2,3.8
							c-0.3,0.5-0.5,1-0.7,1.7c0.2-0.5,0.4-1.1,0.7-1.7c1.1-1.9,3-3.2,5.2-3.8c1.3-0.4,2.6-0.8,3.8-1.4l7.3-28.9
							c-4.7-5.9-11.1-9.9-18.3-11.7c-15.2-3.8-29.9,2.4-32.8,14c-1.3,5.5,0.1,11.2,3.6,16c1.3,1.9,2.9,3.5,4.7,5l0.1,0.2
							c2.1,3.3,1.7,7.6-0.9,10.5l-92.8-23.6L609.5,408c6.9-5.6,15.9-7.7,24.6-5.5c15.6,4,24.8,20.8,20.6,37.7s-20.4,27.2-36,23.3
							c-8.6-2.3-15.6-8.4-19-16.7l-21.5,84.4l82.2,20.9c-5.4-6.8-7.3-15.8-5.3-24.3c3.9-15.6,20.8-24.8,37.7-20.6
							c9.1,2.3,16.8,8.3,21,16.6c6.3,12.4,2.5,27.5-9,35.4l-1,3.8l18.7,4.9l49.6-194.7l1.9,0.5c1.2,0.3,2.6-0.4,2.9-1.7l0,0l2.1-8.4
							l1.2-4.9L776,357.7z M756.9,352.5c-0.2,0.1-0.3,0.1-0.4,0.2l0,0L756.9,352.5z M749.9,356.3L749.9,356.3l6.1,1.6l0,0
							L749.9,356.3z"/>
						<path d="M770.6,331.6c1.4-5.6-0.1-11.4-3.8-16.3l-7.3,28.9C765.1,341.7,769.2,337.2,770.6,331.6z"/>
					</g>
					<path class="st1" d="M751.5,345.4c1.1-1.9,3-3.2,5.2-3.8c1.3-0.4,2.6-0.8,3.8-1.4l7.3-28.9c-4.6-5.9-11.1-9.9-18.3-11.7
						c-15.2-3.8-29.9,2.4-32.9,14.1c-1.3,5.5,0.1,11.2,3.6,16c1.3,1.9,2.9,3.5,4.7,5l0.1,0.2c2.1,3.3,1.7,7.6-0.9,10.5l-92.8-23.6
						l-20.9,82.4c6.9-5.6,16-7.7,24.6-5.5c15.6,3.9,24.8,20.8,20.6,37.7s-20.4,27.2-36.1,23.3c-8.6-2.3-15.6-8.5-18.9-16.7
						L579,527.3l82.2,20.9c-5.4-6.8-7.3-15.8-5.3-24.3c3.9-15.6,20.8-24.8,37.7-20.6c9.1,2.3,16.8,8.3,21.1,16.7L757,353.9l-6.1-1.6
						C749.9,350.1,750.2,347.5,751.5,345.4z"/>
				</g>
				<g>
					<ellipse class="st2" cx="805.5" cy="844.2" rx="123" ry="21.2"/>
					
						<linearGradient id="SVGID_2_" gradientUnits="userSpaceOnUse" x1="899.0143" y1="158.1682" x2="899.0143" y2="125.1096" gradientTransform="matrix(1 0 0 1 -135.16 184.06)">
						<stop  offset="0" style="stop-color:#808080;stop-opacity:0.25"/>
						<stop  offset="0.54" style="stop-color:#808080;stop-opacity:0.12"/>
						<stop  offset="1" style="stop-color:#808080;stop-opacity:0.1"/>
					</linearGradient>
					<path class="st10" d="M757.3,342.2c5.8-2.6,10-6.9,11.5-12.6c0.2-0.7,0.3-1.3,0.4-2.1c0.2-0.6,0.5-1.3,0.6-2
						c1.4-5.6-0.1-11.5-3.9-16.5l-7.6,29l0,0L757.3,342.2z"/>
					<path class="st11" d="M804,325l-2.5-2.9c0,0-12.8,20.3-14.2,27.9c-1.3,7.7-3.1,16.5-3.1,16.5s-3.2,9.9-5.4,14.4
						c-2.1,4.3-4,8.6-4.2,10.6c-0.2,2,0.7,6.1-3.3,8.8c-4,2.7-5,9.9-5,9.9s-14.6,14.2-22.2,14.5s-29.7,4.2-28.9,8.1s-9.2,6.1-13.2,7
						c-4,0.9,25.9,12.4,8.4,27.2c0,0,11.1,2.3,12.2,5c1.1,2.7,12.8-1.6,12.8-1.6s2.5-5.9,11.1-6.3c8.6-0.4,13-4.2,13-4.8
						c0-0.5,8.6-5.4,13.5-6.7c4.9-1.3,11.1-2,11.3-3.2c0.2-1.3,28.7-124.4,28.7-124.4L804,325z"/>
					<path class="st12" d="M804,325l-2.5-2.9c0,0-12.8,20.3-14.2,27.9c-1.3,7.7-3.1,16.5-3.1,16.5s-3.2,9.9-5.4,14.4
						c-2.1,4.3-4,8.6-4.2,10.6c-0.2,2,0.7,6.1-3.3,8.8c-4,2.7-5,9.9-5,9.9s-14.6,14.2-22.2,14.5s-29.7,4.2-28.9,8.1s-9.2,6.1-13.2,7
						c-4,0.9,25.9,12.4,8.4,27.2c0,0,11.1,2.3,12.2,5c1.1,2.7,12.8-1.6,12.8-1.6s2.5-5.9,11.1-6.3c8.6-0.4,13-4.2,13-4.8
						c0-0.5,8.6-5.4,13.5-6.7c4.9-1.3,11.1-2,11.3-3.2c0.2-1.3,28.7-124.4,28.7-124.4L804,325z"/>
					<path class="st13" d="M833.8,855.9c25.2,4.8,29.8-14.7,29.8-14.7s3.1-17.2,4.3-18.5c0.3-0.5,0.3-1,0.2-1.7l0,0
						c-0.6-2.9-1.9-5.7-3.6-8.1c-1.6-1.9-0.3-9.6-0.3-9.6l-29.3-7.4c0,0-2.6,5.9-2.9,8.6c-0.3,2.7-4.6,15.1-4.1,16.8
						c0.4,1.8-1.9,7-2.2,9.7c-0.3,2.7-3.8,6.7-4.1,8.2c-0.4,1.2-0.9,2.6-1.6,3.8c-0.8,1.9-1.4,3.8-1.9,5.8
						C816.7,854.9,833.8,855.9,833.8,855.9z"/>
					<path class="st0" d="M833.8,855.9c25.2,4.8,29.8-14.7,29.8-14.7s3.1-17.2,4.3-18.5c0.3-0.5,0.3-1,0.2-1.7l-6.1,17.4
						c0,0-5,10.5-23.7,8.9c-10.7-0.9-15.8-2.9-18.4-4.3c-0.8,1.9-1.4,3.8-1.9,5.8C816.7,854.9,833.8,855.9,833.8,855.9z"/>
					<path class="st0" d="M853.5,828.7c0,0-6.3,0.1-6.7-5L853.5,828.7z"/>
					
						<rect x="775" y="358.5" transform="matrix(-0.2467 0.9691 -0.9691 -0.2467 1318.8728 -303.7739)" class="st7" width="5" height="4.3"/>
					
						<rect x="761" y="350" transform="matrix(-0.2467 0.9691 -0.9691 -0.2467 1297.9886 -294.5999)" class="st7" width="5" height="14.3"/>
					
						<rect x="770.4" y="357" transform="matrix(-0.2467 0.9691 -0.9691 -0.2467 1312.0281 -300.7702)" class="st7" width="5" height="5.1"/>
					<path class="st1" d="M757.4,352.3c-0.3,0.1-0.6,0.3-0.9,0.4l0.8,0.2l-1.2,4.9l-6.1-1.6c-0.9-2.3-0.7-4.8,0.6-6.8
						c1.1-1.9,3-3.2,5.2-3.8c1.3-0.4,2.6-0.8,3.8-1.4L757.4,352.3z"/>
					<path class="st7" d="M772,373.2l1.9,0.5c1.2,0.3,2.6-0.4,2.9-1.7l0,0l2.1-8.4l-4.1-1L772,373.2z"/>
					<path class="st7" d="M770.6,331.6c-1.4,5.6-5.6,9.9-11.2,12.5l7.3-28.9C770.5,320.3,772,326,770.6,331.6z"/>
					<path class="st7" d="M769.4,372.6c-1.2-0.3-2.1-1.7-1.8-2.9l2.2-8.4l-13.9-3.5l-42.3,166.1c6.3,12.4,2.5,27.5-9,35.4l-1,3.8
						l18.7,4.9l49.6-194.7L769.4,372.6z"/>
					<path class="st7" d="M767.8,369.7c-0.3,1.2,0.4,2.6,1.8,2.9l2.6,0.6l2.7-10.7l-4.9-1.2L767.8,369.7z"/>
					<path class="st1" d="M757.2,352.9l0.2-0.6c-0.3,0.1-0.6,0.3-0.9,0.5L757.2,352.9z"/>
					
						<rect x="776" y="354.5" transform="matrix(-0.2467 0.9691 -0.9691 -0.2467 1316.1998 -309.752)" class="st7" width="5" height="4.3"/>
					
						<rect x="762" y="346" transform="matrix(-0.2467 0.9691 -0.9691 -0.2467 1295.316 -300.578)" class="st7" width="5" height="14.3"/>
					
						<rect x="771.4" y="353" transform="matrix(-0.2467 0.9691 -0.9691 -0.2467 1309.3698 -306.7857)" class="st7" width="5" height="5.1"/>
					<path class="st1" d="M758.5,348.3l-0.9,0.5l0.8,0.2l-1.2,4.9l-6.1-1.6c-0.9-2.3-0.7-4.8,0.6-6.8c1.1-1.9,3-3.2,5.2-3.8
						c1.3-0.4,2.6-0.8,3.8-1.4L758.5,348.3z"/>
					<path class="st7" d="M773.1,369.2l1.9,0.5c1.2,0.3,2.6-0.4,2.9-1.7l0,0l2.2-8.4l-4.1-1L773.1,369.2z"/>
					<path class="st7" d="M771.6,327.7c-1.4,5.6-5.6,9.9-11.2,12.5l7.3-28.9C771.5,316.3,773.1,322.1,771.6,327.7z"/>
					<path class="st7" d="M770.5,368.6c-1.2-0.3-2.1-1.7-1.8-2.9l0,0l2.1-8.4l-13.8-3.5l-42.3,166.1c6.4,12.4,2.5,27.5-9,35.4
						l-1,3.8l18.7,4.8L773,369.1L770.5,368.6z"/>
					<path class="st7" d="M768.7,365.7c-0.3,1.2,0.4,2.6,1.7,2.9l0,0l2.6,0.6l2.7-10.7l-4.9-1.2L768.7,365.7z"/>
					<path class="st1" d="M758.3,348.9l0.2-0.6c-0.3,0.1-0.6,0.3-0.9,0.5L758.3,348.9z"/>
					<path class="st14" d="M743.7,659c3.1,4.8,6.7,25.4,6.7,25.4s2.5,4.8,2.3,8.8s2.3,11.4,2.3,11.4l8.1,29.7c0,0-0.8,7.9,2.2,13.5
						c3,5.6,2.7,3.8,1.2,13.7s1.8,18.8,6.9,21.7c5.2,2.9-2.3,9.6-2.3,9.6s33,8.9,39.9,3.4c6.9-5.5-3.6-32.4-3.6-32.4
						s1.8-22.7,0.6-26c-1.1-3.3-6-31.5-6-31.5s-3-12.7-1.9-14.9c1.1-2.2-0.7-8.3-0.7-8.3s-4.9-6.9-4.4-9c0.4-2.2-1.4-6-1.4-6
						s14.6-22.5,13.3-26.7s0.6-10.9,0.6-10.9l4-6.9c2.7-4.7,6-10.2,7.1-12c1.4-2.2,4.8-11.6,6.7-17.1l1.3-3.9c0,0,2.3,42.2,4.3,46.5
						c2,4.3,5,38.3,5,38.3c1.1,3,1.7,6.2,1.4,9.5c-0.3,5.3,4.6,28.5,4.6,28.5s2.2,16.3,0.7,20.7c-1.4,4.3-0.3,36-0.3,36
						s-7.9,6.2-9.9,10.9c-2,4.7,0.3,17.6,0.3,17.6s23,11.5,33.1,8.5c10.1-3,6-20.4,6-20.4s6.9-11.5,6.9-15.9c0-4.4,2.5-18,2.5-18
						c8.8-16,5.3-55,6.7-58.3c1.4-3.2-3-14.9-6.6-20.3c-3.6-5.3-2.2-19.7,0-23.8s-2.2-18.5-2.2-18.5s4.1-27.8,4-32.2
						c-0.1-4.3,3.6-17.1,3.6-17.1s3.7-6.6,2.9-8.6c-0.8-2,2.9-7.1,1.9-9.5c-1-2.3,0.8-9.3,2.7-13.5c0.9-2.2,2.2-8,3.1-13.2
						c0.8-5,1.6-9.3,1.6-9.3l-23.8-19l-59.1-15.5l-22.2-7.1l-21.7,34.1c-1.6,2.5-2.9,5.1-4.2,7.7c-1.8,3.5-3.2,7.4-3,9.9
						c0.3,3.1-0.3,6.2-2,8.9c0,0-12.9,40.9-12.6,52.7c0.3,11.8-4.6,37.6-4.6,37.6S740.6,654.4,743.7,659z"/>
					<path class="st5" d="M831.1,326.4c0.9-0.4,63.3-26.2,54.7-31.2c-5.1-3-11.4-15.9-15.7-26c-3-7-5.1-12.7-5.1-12.7
						s-50.1-8.9-32.2,21.8c2.8,4.8,5,9.8,6.3,15.1C844.3,314.2,831.5,326,831.1,326.4z"/>
					<path class="st0" d="M833,278.1c2.8,4.8,5,9.8,6.3,15.1c12.9-0.9,24.3-8.9,29.6-20.8c0.5-1.1,0.9-2.3,1.3-3.4
						c-3-7-5.1-12.7-5.1-12.7S815.1,247.5,833,278.1z"/>
					<path class="st5" d="M801.8,257.2c0,19.3,15.7,35,35,35c19.3,0,35-15.7,35-35c0-19.2-15.7-35-35-35
						c-15.6,0-29.3,10.3-33.6,25.4C802.2,250.7,801.8,253.9,801.8,257.2z"/>
					<path class="st0" d="M768,528.5c3.6,3.3,5.1,9.7,5.1,9.7s17.3,11.8,16,4.3C788,535.2,798,505,798,505l-1.1,41.1
						c0,0,55-2.6,59.1-6.6c4-4,27.5-11.7,27.5-11.7s7.2,5.8,13.9,10.1c0.8-5,1.6-9.3,1.6-9.3l-23.6-19.2l-59.1-15.5l-22.2-7.1
						l-21.7,34.1C770.7,523.4,769.3,525.9,768,528.5z"/>
					<path class="st15" d="M766.2,525.3c4.6,2.9,6.3,10.7,6.3,10.7s17.2,11.8,16,4.3s8.9-37.6,8.9-37.6l-1.1,41.1
						c0,0,55.1-2.6,59.1-6.6s27.5-11.8,27.5-11.8s20.4,16.3,24.1,14.9c3.7-1.4-6.6-29.3-6.6-29.3L889.9,348c0,0,2.9-48.5-1.4-50.2
						c-0.6-0.3-1.2-0.6-1.9-1.1c-2.8-2.6-3.7-7.8-3.9-12.1c-0.3-5.2-7.1-2.6-7.1-2.6l4,5.2l-35.6,21.6l-0.3,0.2
						c-1.3-0.7-2.8-1.3-4.2-2c-3.1-1.2-7.3-2.4-10-1.2c-1.6,0.8-2.8,2-3.7,3.4c-2.1,3-3.6,6.3-4.9,9.8l-12.9,21.8
						c0,0-6.6,29-6.6,30.1c0,1.1-2,27.5-4.3,30.4c-2.4,2.9-4.6,17.2-3.7,21.5c0.8,4.3-1.4,20.4-1.4,20.4
						c-9.5,7.8-14.4,34.1-14.4,34.1s-15,29.6-16.1,33C760,513.8,761.7,522.4,766.2,525.3z"/>
					<path class="st0" d="M844,309.9c3.5,5.2,13.6,12.4,13.6,12.4l29.1-24.6c-2.8-2.6-3.7-7.8-3.9-12.1c-0.3-5.2-7.1-2.6-7.1-2.6
						l0.8,1c1.6,2.1,1.2,5-0.8,6.5c-0.1,0.1-0.3,0.2-0.4,0.3L844,309.9z"/>
					<path class="st15" d="M844,308.7c3.5,5.2,13.6,12.4,13.6,12.4l29.1-24.5c-2.8-2.6-3.7-7.8-3.9-12.1c-0.3-5.2-7.1-2.6-7.1-2.6
						l0.8,1c1.6,2.1,1.2,5-0.8,6.5c-0.1,0.1-0.3,0.2-0.4,0.3L844,308.7z"/>
					<path class="st0" d="M830.6,312.6c3.7,4.4,9.1,9.6,8.8,7c-0.2-2.6,3.2-8.2,5.4-10.8c-3.4-1-7-0.9-10.5,0.3
						C832.8,309.9,831.5,311.1,830.6,312.6z"/>
					<path class="st15" d="M830,310.8c3.7,4.6,9.1,9.6,8.8,7c-0.3-2.6,2.8-6.7,5-9.2c-3.1-1.2-7.3-2.4-10-1.2
						C832.2,308.2,830.9,309.4,830,310.8z"/>
					<circle class="st16" cx="839.4" cy="332.5" r="2.3"/>
					<circle class="st16" cx="822" cy="394.4" r="2.3"/>
					<circle class="st16" cx="802.3" cy="457.1" r="2.3"/>
					<circle class="st16" cx="801.7" cy="525.4" r="2.3"/>
					<circle class="st16" cx="829.2" cy="361.7" r="2.3"/>
					<circle class="st16" cx="813.7" cy="425.4" r="2.3"/>
					<circle class="st16" cx="798.6" cy="488" r="2.3"/>
					<circle class="st16" cx="802.1" cy="533.1" r="2.3"/>
					<path class="st0" d="M886.7,297.9c0,0-0.4-3.4,4.6,2.5c5,5.9,14.4,11.1,14.4,11.1s21.2,14.9,22.3,21.8
						c1.1,6.9,8.1,36.7,4.3,46.7c-3.7,9.9-31.4,57.6-31.4,57.6s7.2,8.6,5.6,18.7c-1.7,10.1-3.8,24.1-2.9,27.2s-1.1,10.8,2.1,13.3
						c3.2,2.6,6.7,7.2-3.4,13.3c0,0-1.9,5.2-0.2,6.3c1.8,1.1-25.5,13-36.2,6.7c-10.8-6.3-30-56.8-30.4-68.1s5.9-48.6,9.4-57.4
						c3.4-8.8,13.8-43,18.2-50.7C867.5,339.4,886.7,297.9,886.7,297.9z"/>
					<path class="st11" d="M887.8,297.9c0,0-0.4-3.4,4.6,2.5c5,5.9,14.4,11.1,14.4,11.1s21.2,14.9,22.3,21.8s8.1,36.7,4.3,46.7
						c-3.7,9.9-31.2,57.6-31.2,57.6s7.2,8.6,5.6,18.7c-1.7,10.1-3.8,24.1-2.9,27.2c0.9,3.1-1.1,10.8,2.1,13.3
						c3.2,2.6,6.7,7.2-3.4,13.3c0,0-1.9,5.2-0.2,6.3c1.8,1.1-25.5,13-36.2,6.7c-10.8-6.3-30-56.8-30.4-68.1
						c-0.4-11.3,5.9-48.6,9.4-57.4c3.4-8.8,13.8-43,18.2-50.7S887.8,297.9,887.8,297.9z"/>
					<path class="st0" d="M895.5,330.5c0,0-16.5,18.2-15.8,30.2C879.6,360.7,879.4,341.3,895.5,330.5z"/>
					<path class="st0" d="M872.7,360.4c0,0.5-11.1,41.9-10.6,47.1c0.6,5.2-3.3,20.5-3.3,20.5l-5.2-1.3c0,0,4-21.2,4.8-29.1
						C859.1,389.7,872.7,360.4,872.7,360.4z"/>
					<path class="st0" d="M868.2,478.2c0.4,0.5,26.2,29.8,18.9,32C879.9,512.4,868.2,478.2,868.2,478.2z"/>
					<path class="st0" d="M889.6,470.7c0.5,0.4,10.3,21,11.5,15.5c1.1-5.5-8.4,15.1-9.9-0.2L889.6,470.7z"/>
					<path class="st0" d="M839.9,304.5c0,0-10.7-6.5-24.1,10.1c0,0-9.7,5.6-12.6,6.9c-2.9,1.3-6.1,36.9-6.1,36.9s-6.3,15.3-4.6,24.1
						c1.8,8.8-5,39-5,39s-11.1,54.3-10.8,55.9c0.3,1.6,11.3-17.1,11.1-26.2c-0.2-9.2,9.2-37.9,10.6-39.6
						c1.3-1.8,10.6-50.9,10.6-50.9s7.4-20.9,12.2-27.7c4.8-6.8,10.8-19.9,13.2-22.2c1.8-1.6,3.8-2.8,5.9-3.8L839.9,304.5z"/>
					<path class="st11" d="M840.1,304.5c0,0-12-6.5-25.4,10.1c0,0-9.7,5.6-12.6,6.9c-2.9,1.3-6.1,36.9-6.1,36.9s-6.3,15.3-4.6,24.1
						c1.8,8.8-5,39-5,39s-11.1,54.3-10.8,55.9c0.3,1.6,11.3-17.1,11.1-26.2c-0.2-9.2,9.2-37.9,10.6-39.6
						c1.3-1.8,10.6-50.9,10.6-50.9s7.4-20.9,12.2-27.7c4.8-6.8,10.8-19.9,13.2-22.2c2.5-2.4,7-3.8,7-3.8L840.1,304.5z"/>
					<path class="st5" d="M787.5,424c0,0-22.8-14.9-33.7-7.6c-11,7.3-29,17.8-11.3,25.4c17.7,7.6,42.2,6.1,42.2,6.1L787.5,424z"/>
					<path class="st0" d="M803.4,568.1c3.4,7.2,6.2,43.9,8.1,55.5c2.7-4.7,6-10.2,7.1-12c1.4-2.2,4.8-11.6,6.7-17.1
						c-2.2-5.3-8.2-20.3-8.2-25.9c0-6.7-10.9-15.2-10.9-15.2S799.3,559.5,803.4,568.1z"/>
					<path class="st0" d="M876.5,680.4c0,0-25.2-10.8-32.7-3.1C836.4,685,876.5,680.4,876.5,680.4z"/>
					<path class="st0" d="M862.3,684.8c0,0,25.6,14.4,16.8,16.8C870.3,703.9,862.3,684.8,862.3,684.8z"/>
					<path class="st0" d="M786,672.3c0,0,10.9,0.7,6.7,2.9C788.6,677.2,786,672.3,786,672.3z"/>
					<path class="st0" d="M772.4,675.6c0.1,0.7,31.8,10.9,25.6,15.5C791.8,695.6,772.4,675.6,772.4,675.6z"/>
					<path class="st0" d="M872.8,763.4c-4.8-0.7-31.1-12.9-20.8-4.1S872.8,763.4,872.8,763.4z"/>
					<path class="st0" d="M859.8,773c0,0-2.3,8.9-11.1,7.8C840,779.6,859.8,773,859.8,773z"/>
					<path class="st0" d="M867.1,791c-1.6-0.4-20.4-9-20.8-5s17.9,11.1,19.3,8.9C866.5,793.8,867,792.5,867.1,791z"/>
					<path class="st0" d="M806.3,780.7c-2.3-0.1-23.8-7-28.1-0.8L806.3,780.7z"/>
					<path class="st0" d="M786.7,784.7c0,0-3.7-3.3-7.4-1.6C775.5,784.8,786.7,784.7,786.7,784.7z"/>
					<path class="st0" d="M834.4,820.3c-0.5,2.5-2.4,4.4-4.9,5L834.4,820.3z"/>
					<path class="st13" d="M724.8,833.8c1.4,5.9,21.5,6.4,31.1,4.9s29.6-7.3,29.6-7.3s20.9-2,27.1-4.6s1.2-9.2,1.2-9.2s0-0.2,0-0.6
						c0.1-2.4,0.6-11.1-0.9-13.5c-1.8-2.7-0.7-11.6-0.7-11.6s-29.7,5.7-30.3,3c-0.6-2.7-5.2-6.6-7.3-7.4s-3.7,7.1-3.7,7.1
						s-13.5,11.5-14.4,15.6c-0.9,4.1-10.3,6.3-10.3,6.3s-14.4,4-18.1,6c-2.2,1-3.7,3.1-3.9,5.6C724.1,830,724.3,832,724.8,833.8z"/>
					<path class="st0" d="M724.8,833.8c1.4,5.9,21.5,6.4,31.1,4.9s29.6-7.3,29.6-7.3s20.9-2,27.1-4.6s1.2-9.2,1.2-9.2s0-0.2,0-0.6
						l-30,6.6c0,0-14.8,6.3-24.2,6.3c-8.3,0-26.8,3.4-35.4-1.8C724.2,830,724.3,832,724.8,833.8z"/>
					<path class="st0" d="M765.5,811.1c0,0,1.4,9.5,7.1,12.6L765.5,811.1z"/>
					<path class="st0" d="M803.2,247.5c0.5,0.3,1.1,0.5,1.8,0.7c2.7,0.7,5.3-1.1,7.7-2.6c2.4-1.4,5.7-2.5,7.8-0.6
						c2.7,2.5,0.7,7.7,3.5,10c1.8,1.4,4.6,0.9,6.5,2.2c2,1.2,2.6,3.9,3,6.3s1.4,5,3.7,5.7c2.3,0.7,4.3-0.8,6.6-0.7
						c0.5,0,1,0.1,1.3-0.2c0.2-0.3,0.3-0.7,0.2-1c-0.3-2.8,0-5.6,0.7-8.3c0.9-2.7,3.1-5.1,5.8-5.5c4-0.6,7.4,2.9,9.8,6.2
						c2.5,3.5,4.8,7.1,6.8,11c0.1,0.2,0.2,0.5,0.3,0.7c7.9-17.7-0.2-38.4-17.8-46.1c-17.6-7.8-38.4,0.2-46.1,17.8
						C804.2,244.5,803.6,246.1,803.2,247.5L803.2,247.5z"/>
					<path class="st17" d="M861.7,259.1c-2.4-3.3-5.8-6.8-9.8-6.2c-2.8,0.4-4.9,2.8-5.8,5.5c-0.7,2.7-1,5.5-0.7,8.3
						c0.1,0.3,0,0.7-0.2,1c-0.3,0.3-0.8,0.3-1.3,0.3c-2.3-0.1-4.4,1.3-6.6,0.7s-3.3-3.3-3.7-5.7c-0.5-2.3-1-5-3-6.3
						c-2-1.2-4.8-0.7-6.5-2.2c-2.8-2.4-0.8-7.7-3.5-10c-2.1-1.9-5.4-0.8-7.8,0.6c-2.4,1.4-5,3.2-7.8,2.5c-0.9-0.2-1.8-0.7-2.6-1.1
						c-4.2-1.7-9.7,1.1-13.2-1.8c-1.2-1.2-2.2-2.9-2.7-4.6c-0.9-2.4-1.7-4.8-2-7.3s0.4-5.1,2-7.1c2.3-2.7,6.1-3.3,9-5.3
						c2.5-1.7,4.1-4.2,5.8-6.8c1.7-2.5,3.2-5.2,5.6-6.9s5.8-2.7,8.4-1.3c0.8,0.6,1.8,1,2.8,1.3c1,0,2.2-0.3,3-0.8
						c9.9-4.7,21.5-3.8,32.5-2.5c4.3,0.5,8.8,1.2,12.7,3.1c3.9,1.9,7.4,5.2,8.6,9.4c0.9,3.4,0.2,7,1.2,10.3c0.7,2.3,2.2,4.1,3.1,6.4
						c2.3,6.1-0.4,12.7-1.7,19c-1.2,6.9-0.6,14.5-3.6,21.1c-0.6,1.2-1.2,3.5-2.7,2.7c-1-0.6-2.2-4.3-2.8-5.5
						C866.5,266.2,864.2,262.6,861.7,259.1z"/>
					<path class="st0" d="M924.7,371.3l5.2,14.7c0,0-12.2,45.5-18,55c-5.7,9.5-14.2,21.8-14.2,21.8s-14.2,7.1-30.6,3.8
						s-64.5-11.8-64.5-11.8s-4,0.7-6.1-2.3c-2.1-3.1-13-4.7-13-4.7s-12.6-18.4,2.9-26c0,0,1.9,4.2,10.1,1.3
						c8.2-2.9,10.7,2.3,10.7,2.3s13.5,2.7,20.9,1.8c7.4-0.9,26.1-1.3,27.9-2.9c1-0.9,2.6-0.8,3.4,0.2c0,0,4.6-1.8,6.1-3.4
						c1.6-1.7,3.6,2,3.6,2s2.7-1.6,1.9-3.4c-0.7-1.9,2.5-9.2,2.5-9.2s1.6-4.8,0.6-8.6c-0.9-3.8,4.8-17.6,4.8-17.6
						c0.1-2.3-0.2-4.7-0.7-6.9c-0.9-3.4,7.2-10.3,7.2-10.3s8.1-39,25-26.2C927.4,353.8,924.7,371.3,924.7,371.3z"/>
					<path class="st11" d="M925.9,371.3l5.2,14.7c0,0-12.2,45.5-18,55c-5.8,9.5-14.2,21.8-14.2,21.8s-14.2,7.1-30.6,3.8
						s-64.5-11.8-64.5-11.8s-4,0.7-6.1-2.3c-2.1-3.1-13-4.7-13-4.7s-12.6-18.4,2.9-26c0,0,1.9,4.2,10.1,1.3s10.7,2.3,10.7,2.3
						s13.5,2.7,20.9,1.8s26.1-1.3,27.9-2.9c1-0.9,2.6-0.8,3.4,0.2c0,0,4.6-1.8,6.1-3.4c1.6-1.7,3.6,2,3.6,2s2.7-1.6,1.9-3.4
						c-0.7-1.9,2.5-9.2,2.5-9.2s1.6-4.8,0.5-8.6c-0.9-3.8,4.8-17.6,4.8-17.6c0.1-2.3-0.2-4.7-0.7-6.9c-0.9-3.4,7.2-10.3,7.2-10.3
						s8.1-39,25-26.2C928.5,353.8,925.9,371.3,925.9,371.3z"/>
					<path class="st0" d="M801.5,432.9c0.2,1.3,4.3,6.7,2.9,7.7c-1.4,0.9-4,0.4-1.8,3.4c2.3,3.1,2.1,7.7,0.5,7
						c-1.4-0.6-4-7.4-4-10.1C799.1,438.2,801.5,432.9,801.5,432.9z"/>
					<path class="st0" d="M858.3,429.8c0,0,1.1,13.3,10.6,17.2C878.3,450.8,858.3,429.8,858.3,429.8z"/>
					<path class="st0" d="M877.9,425.2c0.6,0.2,13.3,7.1,7.7,11.1C879.8,440.4,877.9,425.2,877.9,425.2z"/>
					<path class="st0" d="M878.6,415.7c0,0,18.7,3.8,12.4,7C884.7,425.9,878.6,415.7,878.6,415.7z"/>
					<g class="st6">
						<path d="M846.1,255.1c0.9-2.7,3.1-5.1,5.8-5.5c4-0.6,7.4,2.9,9.8,6.2c2.5,3.5,4.8,7.1,6.8,11c0.6,1.1,1.7,4.8,2.8,5.5
							c1.4,0.8,2.1-1.4,2.7-2.7c3-6.6,2.3-14.1,3.6-21.1c0.7-4,2.2-8.3,2.5-12.3c0.4,5-1.6,10.2-2.5,15.4
							c-1.2,6.9-0.6,14.5-3.6,21.1c-0.6,1.2-1.2,3.5-2.7,2.7c-1-0.6-2.2-4.2-2.8-5.5c-2.1-3.8-4.3-7.4-6.8-11
							c-2.4-3.3-5.8-6.8-9.8-6.2c-2.8,0.4-4.9,2.8-5.8,5.5c-0.4,1.3-0.7,2.8-0.7,4.3C845.2,259.9,845.5,257.4,846.1,255.1z"/>
						<path d="M786.3,236.9c0.4,1.8,1.3,3.3,2.7,4.6c3.5,2.9,9,0.2,13.2,1.8c0.9,0.3,1.8,0.8,2.6,1.1c2.7,0.7,5.4-1.1,7.8-2.6
							c2.4-1.4,5.7-2.5,7.8-0.6c2.7,2.5,0.7,7.7,3.5,10c1.8,1.4,4.6,1,6.5,2.2c2,1.1,2.6,3.9,3,6.2c0.4,2.3,1.4,5,3.7,5.7
							c2.3,0.7,4.3-0.8,6.6-0.7c0.5,0,1,0.1,1.3-0.3c0.1-0.1,0.1-0.2,0.2-0.3c0,0.8,0,1.6,0.1,2.3c0.1,0.3,0,0.7-0.2,1
							c-0.3,0.3-0.8,0.3-1.3,0.2c-2.3-0.1-4.4,1.3-6.6,0.7c-2.2-0.6-3.3-3.3-3.7-5.7c-0.5-2.4-1-5-3-6.2s-4.8-0.7-6.5-2.2
							c-2.8-2.4-0.8-7.7-3.5-10c-2.1-1.9-5.4-0.8-7.8,0.6c-2.4,1.4-5,3.2-7.8,2.6c-0.9-0.2-1.8-0.8-2.6-1.1
							c-4.2-1.7-9.7,1.1-13.2-1.8c-1.2-1.2-2.2-2.9-2.7-4.6c-0.9-2.4-1.7-4.8-2-7.3c-0.1-0.8,0-1.8,0.1-2.6
							C784.8,232.4,785.5,234.7,786.3,236.9z"/>
					</g>
				</g>
			</g>
		</g>
	</g>
</g>
</svg>
