<?xml version="1.0" encoding="utf-8"?>
<!-- Generator: Adobe Illustrator 19.0.0, SVG Export Plug-In . SVG Version: 6.00 Build 0)  -->
<svg version="1.1" id="图层_1" xmlns="http://www.w3.org/2000/svg" xmlns:xlink="http://www.w3.org/1999/xlink" x="0px" y="0px"
	 viewBox="-917 917.7 1000 1000" style="enable-background:new -917 917.7 1000 1000;" xml:space="preserve">
<style type="text/css">
	.st0{opacity:0.3;}
	.st1{fill:#47E6B1;}
	.st2{opacity:0.3;fill:#4D8AF0;enable-background:new    ;}
	.st3{opacity:0.3;fill:#FDD835;enable-background:new    ;}
	.st4{opacity:0.3;fill:#F55F44;enable-background:new    ;}
	.st5{opacity:0.3;fill:#47E6B1;enable-background:new    ;}
	.st6{fill:url(#SVGID_1_);}
	.st7{fill:url(#SVGID_2_);}
	.st8{fill:url(#SVGID_3_);}
	.st9{fill:url(#SVGID_4_);}
	.st10{fill:url(#SVGID_5_);}
	.st11{fill:#F9D075;}
	.st12{fill:#FFE9A1;}
	.st13{fill:#2B1F0E;}
	.st14{fill:#F25F1D;}
	.st15{fill:#535461;}
	.st16{opacity:0.2;fill:#535461;enable-background:new    ;}
	.st17{fill:none;stroke:#2B1F0E;stroke-width:2;stroke-linecap:round;stroke-miterlimit:10;}
	.st18{fill:#CFD8DC;}
	.st19{opacity:0.1;}
	.st20{fill:#FFFFFF;}
	.st21{opacity:5.000000e-02;enable-background:new    ;}
	.st22{opacity:0.1;enable-background:new    ;}
	.st23{opacity:0.1;fill:#FFFFFF;enable-background:new    ;}
	.st24{fill:#DA552F;}
	.st25{opacity:0.7;}
	.st26{fill:url(#SVGID_6_);}
	.st27{fill:#FDB797;}
	.st28{fill:#F55F44;}
	.st29{fill:#6C63FF;}
</style>
<g id="_x23_accessory_x28_have_x5B_dot_x5D__x29_">
	<g>
		<g>
			<g>
				<g class="st0">
					<rect x="-195.3" y="1231.5" class="st1" width="2.4" height="13.3"/>
					<rect x="-200.7" y="1237.1" class="st1" width="13.3" height="2.4"/>
				</g>
				<g class="st0">
					<rect x="-64.4" y="1337.6" class="st1" width="2.4" height="13.3"/>
					<rect x="-69.8" y="1343.1" class="st1" width="13.3" height="2.4"/>
				</g>
				<path class="st2" d="M-113.1,1117.5c-1.4-0.6-2-2-1.6-3.5c0-0.1,0.1-0.2,0.1-0.3l0,0c0-0.8-0.6-1.5-1.4-1.5
					c-0.5,0-0.9,0.2-1.2,0.6l0,0c-0.1,0.1-0.1,0.2-0.1,0.2c-0.6,1.4-2,2-3.5,1.6c-0.1,0-0.2-0.1-0.3-0.1l0,0c-0.8,0-1.5,0.6-1.5,1.4
					c0,0.5,0.2,0.9,0.6,1.2l0,0c0.1,0.1,0.2,0.1,0.2,0.1c1.4,0.6,2,2,1.6,3.5c0,0.1-0.1,0.2-0.1,0.3l0,0c0,0.8,0.6,1.5,1.4,1.5
					c0.5,0,0.9-0.2,1.2-0.6l0,0c0.1-0.1,0.1-0.2,0.1-0.2c0.6-1.4,2-2,3.5-1.6c0.1,0,0.2,0.1,0.3,0.1l0,0c0.8,0,1.5-0.6,1.5-1.4
					c0-0.5-0.2-0.9-0.6-1.2l0,0C-113,1117.6-113,1117.6-113.1,1117.5z"/>
				<path class="st2" d="M-362.5,1350c-1.4-0.6-2-2-1.6-3.5c0-0.1,0.1-0.2,0.1-0.3l0,0c0-0.8-0.6-1.5-1.4-1.5
					c-0.5,0-0.9,0.2-1.2,0.6l0,0c-0.1,0.1-0.1,0.2-0.1,0.2c-0.6,1.4-2,2-3.5,1.6c-0.1,0-0.2-0.1-0.3-0.1l0,0c-0.8,0-1.5,0.6-1.5,1.4
					c0,0.5,0.2,0.9,0.6,1.2l0,0c0.1,0.1,0.2,0.1,0.2,0.1c1.4,0.6,2,2,1.6,3.5c0,0.1-0.1,0.2-0.1,0.3l0,0c0,0.8,0.6,1.5,1.4,1.5
					c0.5,0,0.9-0.2,1.2-0.6l0,0c0.1-0.1,0.1-0.2,0.1-0.2c0.6-1.4,2-2,3.5-1.6c0.1,0,0.2,0.1,0.3,0.1l0,0c0.8,0,1.5-0.6,1.5-1.4
					c0-0.5-0.2-0.9-0.6-1.2l0,0C-362.4,1350-362.4,1350-362.5,1350z"/>
				<path class="st3" d="M-660.9,1393.8c-1.4-0.6-2-2-1.6-3.5c0-0.1,0.1-0.2,0.1-0.3l0,0c0-0.8-0.6-1.5-1.4-1.5
					c-0.5,0-0.9,0.2-1.2,0.6l0,0c-0.1,0.1-0.1,0.2-0.1,0.2c-0.6,1.4-2,2-3.5,1.6c-0.1,0-0.2-0.1-0.3-0.1l0,0c-0.8,0-1.5,0.6-1.5,1.4
					c0,0.5,0.2,0.9,0.6,1.2l0,0c0.1,0.1,0.2,0.1,0.2,0.1c1.4,0.6,2,2,1.6,3.5c0,0.1-0.1,0.2-0.1,0.3l0,0c0,0.8,0.6,1.5,1.4,1.5
					c0.5,0,0.9-0.2,1.2-0.6l0,0c0.1-0.1,0.1-0.2,0.1-0.2c0.6-1.4,2-2,3.5-1.6c0.1,0,0.2,0.1,0.3,0.1l0,0c0.8,0,1.5-0.6,1.5-1.4
					c0-0.5-0.2-0.9-0.6-1.2l0,0C-660.8,1393.9-660.9,1393.8-660.9,1393.8z"/>
				<path class="st3" d="M-870.6,1531c-1.4-0.6-2-2-1.6-3.5c0-0.1,0.1-0.2,0.1-0.3l0,0c0-0.8-0.6-1.5-1.4-1.5
					c-0.5,0-0.9,0.2-1.2,0.6l0,0c-0.1,0.1-0.1,0.2-0.1,0.2c-0.6,1.4-2,2-3.5,1.6c-0.1,0-0.2-0.1-0.3-0.1l0,0c-0.8,0-1.5,0.6-1.5,1.4
					c0,0.5,0.2,0.9,0.6,1.2l0,0c0.1,0.1,0.2,0.1,0.2,0.1c1.4,0.6,2,2,1.6,3.5c0,0.1-0.1,0.2-0.1,0.3l0,0c0,0.8,0.6,1.5,1.4,1.5
					c0.5,0,0.9-0.2,1.2-0.6l0,0c0.1-0.1,0.1-0.2,0.1-0.2c0.6-1.4,2-2,3.5-1.6c0.1,0,0.2,0.1,0.3,0.1l0,0c0.8,0,1.5-0.6,1.5-1.4
					c0-0.5-0.2-0.9-0.6-1.2l0,0C-870.4,1531.1-870.5,1531-870.6,1531z"/>
				<circle class="st4" cx="-665" cy="1267" r="4.7"/>
				<circle class="st4" cx="-272.9" cy="1022.1" r="4.7"/>
				<circle class="st4" cx="-726.5" cy="1080.8" r="4.7"/>
				<circle class="st4" cx="-869.8" cy="1349.3" r="4.7"/>
				<circle class="st4" cx="-0.2" cy="1245.6" r="4.7"/>
				<circle class="st2" cx="52.3" cy="1398.8" r="4.7"/>
				<circle class="st2" cx="52.3" cy="1632.3" r="4.7"/>
				<circle class="st2" cx="-701.4" cy="1621" r="4.7"/>
				<circle class="st5" cx="-812.6" cy="1516" r="4.7"/>
				<circle class="st5" cx="-807.4" cy="1262.5" r="4.7"/>
				<circle class="st5" cx="-853.2" cy="1150.4" r="4.7"/>
			</g>
		</g>
	</g>
</g>
<g id="_x23_other_x28_have_x5B_dot_x2C_cup_x5D__x29_">
	<g>
		<g>
			
				<linearGradient id="SVGID_1_" gradientUnits="userSpaceOnUse" x1="-29.3951" y1="1065.8738" x2="-29.3951" y2="1166.6738" gradientTransform="matrix(1 -3.490658e-04 -3.490658e-04 -1 -184.3152 2865.4136)">
				<stop  offset="0" style="stop-color:#808080;stop-opacity:0.25"/>
				<stop  offset="0.54" style="stop-color:#808080;stop-opacity:0.12"/>
				<stop  offset="1" style="stop-color:#808080;stop-opacity:0.1"/>
			</linearGradient>
			<ellipse class="st6" cx="-214.1" cy="1749.2" rx="20.5" ry="50.4"/>
			
				<linearGradient id="SVGID_2_" gradientUnits="userSpaceOnUse" x1="-29.3666" y1="1054.3307" x2="-29.3666" y2="1090.0204" gradientTransform="matrix(1 -3.490658e-04 -3.490658e-04 -1 -184.3152 2865.4136)">
				<stop  offset="0" style="stop-color:#808080;stop-opacity:0.25"/>
				<stop  offset="0.54" style="stop-color:#808080;stop-opacity:0.12"/>
				<stop  offset="1" style="stop-color:#808080;stop-opacity:0.1"/>
			</linearGradient>
			<path class="st7" d="M-139.4,1811l-149.3-0.9v-2.4c0-26.9,21.7-32.2,48.5-32.3h52.2c26.9,0,48.5,5.4,48.5,32.2L-139.4,1811
				L-139.4,1811z"/>
			
				<linearGradient id="SVGID_3_" gradientUnits="userSpaceOnUse" x1="-147.9787" y1="1219.8044" x2="-147.9787" y2="1333.3247" gradientTransform="matrix(1 -3.490658e-04 -3.490658e-04 -1 -184.3152 2865.4136)">
				<stop  offset="0" style="stop-color:#808080;stop-opacity:0.25"/>
				<stop  offset="0.54" style="stop-color:#808080;stop-opacity:0.12"/>
				<stop  offset="1" style="stop-color:#808080;stop-opacity:0.1"/>
			</linearGradient>
			<path class="st8" d="M-301.8,1645.7l-6.1-0.5c-27.1-1.9-45.8-11.5-56-28.4c-19.3-32.3,1.4-79,2.3-81l1.6-3.6h66.6L-301.8,1645.7z
				 M-351.8,1544.5c-4.2,10.8-14.7,43.8-1.4,66c7.2,12.1,20.6,19.4,40.2,21.9l6.4-87.9H-351.8z"/>
			
				<linearGradient id="SVGID_4_" gradientUnits="userSpaceOnUse" x1="87.2219" y1="1219.8439" x2="87.2219" y2="1333.2468" gradientTransform="matrix(1 -3.490658e-04 -3.490658e-04 -1 -184.3152 2865.4136)">
				<stop  offset="0" style="stop-color:#808080;stop-opacity:0.25"/>
				<stop  offset="0.54" style="stop-color:#808080;stop-opacity:0.12"/>
				<stop  offset="1" style="stop-color:#808080;stop-opacity:0.1"/>
			</linearGradient>
			<path class="st9" d="M-128.4,1645.6l-8.5-113.4h66.6l1.6,3.6c0.9,2,21.6,48.6,2.3,80.9c-10,16.9-28.9,26.5-55.9,28.4
				L-128.4,1645.6z M-123.6,1544.4l6.5,87.9c19.5-2.5,32.9-9.8,40.2-21.9c13.3-22.2,2.7-55.2-1.5-66H-123.6z"/>
			
				<linearGradient id="SVGID_5_" gradientUnits="userSpaceOnUse" x1="-30.3341" y1="1125.6741" x2="-30.3341" y2="1364.5419" gradientTransform="matrix(1 -3.490658e-04 -3.490658e-04 -1 -184.3152 2865.4136)">
				<stop  offset="0" style="stop-color:#808080;stop-opacity:0.25"/>
				<stop  offset="0.54" style="stop-color:#808080;stop-opacity:0.12"/>
				<stop  offset="1" style="stop-color:#808080;stop-opacity:0.1"/>
			</linearGradient>
			<path class="st10" d="M-215,1739.8L-215,1739.8c-51,0-92.4-41.3-92.4-92.3l-0.1-146.5l184.7-0.1l0.1,146.5
				C-122.7,1698.4-164,1739.8-215,1739.8z"/>
			<path class="st11" d="M-225.2,1452.7h17.5c15.6,0,28.2,12.6,28.2,28.2v45c0,15.6-12.6,28.2-28.2,28.2h-17.5
				c-15.6,0-28.2-12.6-28.2-28.2v-45C-253.4,1465.3-240.8,1452.7-225.2,1452.7z"/>
			<path class="st11" d="M-254.7,1439.8c0,0-8.3-15.2-4.3-29.8c0,0,17.7-4.7,29.8,9.1L-254.7,1439.8z"/>
			<path class="st12" d="M-252.3,1435.9c0,0-6.2-11.3-3.2-22.1c0,0,13.2-3.5,22.1,6.9L-252.3,1435.9z"/>
			<path class="st12" d="M-176,1435.9c0,0,6.2-11.3,3.2-22.1c0,0-13.2-3.5-22.1,6.9L-176,1435.9z"/>
			<path class="st11" d="M-173.4,1439.8c0,0,8.3-15.2,4.3-29.8c0,0-17.7-4.7-29.8,9.1L-173.4,1439.8z"/>
			<path class="st12" d="M-176,1435.9c0,0,6.2-11.3,3.2-22.1c0,0-13.2-3.5-22.1,6.9L-176,1435.9z"/>
			<path class="st11" d="M-169.1,1458.1c0,1.2,0,2.4-0.1,3.6c-1.9,22.1-21.2,39.5-44.8,39.5c-21.1,0-38.8-13.9-43.7-32.7
				c-0.9-3.4-1.4-6.9-1.4-10.4c0-23.8,20.1-43.1,45-43.1C-189.1,1415-169.1,1434.3-169.1,1458.1z"/>
			<path class="st12" d="M-252.4,1478.8l-3.4-7.3h-14l7.9,7l-5.6,1.9c0,0,47.2,50.7,104.5,0l-4.4-1.6l7-6l-5.1-1.2l1.9-3.8l-7.7,0.3
				l-8.8,16.5l-29.4,13L-252.4,1478.8z"/>
			<circle class="st13" cx="-197.9" cy="1462.5" r="4.2"/>
			<circle class="st13" cx="-231.5" cy="1462.5" r="4.2"/>
			<path class="st12" d="M-169.2,1461.7c-1.9,22.1-21.2,39.5-44.8,39.5c-21.1,0-38.8-13.9-43.7-32.7c2.3,2,4.3,5.1,6.1,7
				c1.4,1.6,2.8,2.9,4.5,4.1c2.8,1.7,6.1,2.1,9.4,2.3c2.9,0.1,6.2-0.1,8.2-2.1s2.4-5.1,3.5-7.6c1.9-3.7,5.4-6.3,9.6-7
				c4.1-0.6,8.2,0.5,11.6,2.8c0.9,0.6,1.7,1.4,2.4,2.3c0.7,1.2,1.1,2.5,1.6,3.8c2.6,6.3,11.1,8.9,17.4,6.3
				c6.3-2.6,10.6-8.9,12.2-15.6C-171.1,1463.5-170.5,1461.8-169.2,1461.7z"/>
			<path class="st14" d="M-214.7,1482.8l-1.9,1.9c1.1,0.6,2.4,0.6,3.5,0L-214.7,1482.8z"/>
			<rect x="-259" y="1453.4" class="st15" width="89.9" height="3.2"/>
			<rect x="-259" y="1456.5" class="st15" width="18.1" height="16.8"/>
			<path class="st16" d="M-241.2,1456.4h20.9l0,0v3.5c0,6.3-5.1,11.4-11.4,11.4h-9.6l0,0L-241.2,1456.4L-241.2,1456.4z"/>
			<path class="st15" d="M-260.6,1453.4h2.1l0,0v20l0,0h-2.1c-3.8,0-7-3.2-7-7l0,0v-6C-267.6,1456.5-264.6,1453.4-260.6,1453.4
				L-260.6,1453.4L-260.6,1453.4z"/>
			<path class="st17" d="M-223.7,1483.9c0,0,8.9,4.1,8.9-6.3"/>
			<path class="st17" d="M-206,1483.9c0,0-8.9,4.1-8.9-6.3"/>
			<ellipse class="st14" cx="-214.7" cy="1473.3" rx="3.5" ry="4.4"/>
			<ellipse class="st18" cx="-214.1" cy="1746.4" rx="19.9" ry="48.7"/>
			<path class="st18" d="M-299,1646.3l-5.9-0.5c-26.2-1.9-44.3-11.2-54.2-27.5c-18.6-31.3,1.2-76.4,2.1-78.3l1.6-3.5h64.4
				L-299,1646.3z M-347.4,1548.4c-3.9,10.5-14.2,42.4-1.4,63.9c7,11.6,20,18.7,38.8,21.1l6.3-85.1h-43.8v0.1H-347.4z"/>
			<path class="st18" d="M-131.2,1646.2l-8.1-109.8H-75l1.6,3.5c0.9,1.9,20.9,47.1,2.3,78.3c-9.7,16.4-28,25.6-54,27.5
				L-131.2,1646.2z M-126.6,1548.3l6.3,85.1c18.8-2.4,31.9-9.5,38.8-21.2c12.9-21.6,2.6-53.4-1.4-63.9L-126.6,1548.3z"/>
			<g class="st19">
				<path class="st20" d="M-355.8,1621c-18.6-31.3,1.2-76.4,2.1-78.3l1.6-3.5h44.9l0.2-2.5h-48.1l-1.6,3.5
					c-0.9,1.9-20.8,47.1-2.1,78.3c3.2,5.3,7.3,9.9,12.2,13.8C-350.3,1628.9-353.5,1625.2-355.8,1621z"/>
			</g>
			<polygon class="st21" points="-125.8,1536.4 -123,1536.5 -123.2,1548.1 -125.8,1548.3 			"/>
			<rect x="-307.4" y="1536.5" class="st21" width="3" height="11.8"/>
			<path class="st22" d="M-214.1,1701.3c-9.5,0-17.3,16.1-19.3,37.8c6.1,1.2,12.3,1.9,18.4,1.9l0,0c6.8,0,13.5-0.8,20.2-2.3
				C-196.9,1717.2-204.8,1701.1-214.1,1701.3z"/>
			<path class="st18" d="M-304.4,1506.3h178.7l0,0V1648c0,49.3-40.1,89.4-89.4,89.4l0,0l0,0c-49.3,0-89.4-40.1-89.4-89.4l0,0
				L-304.4,1506.3L-304.4,1506.3z"/>
			<path class="st23" d="M-297.3,1648.8v-141.7h-7.1v141.7c0,49.3,40.1,89.4,89.4,89.4l0,0c1.2,0,2.4,0,3.6-0.1
				C-259.4,1736.2-297.2,1696.9-297.3,1648.8z"/>
			<path class="st22" d="M-197.1,1774.6h-34c3.5,14.1,9.8,23.5,17,23.5C-206.8,1798.1-200.6,1788.7-197.1,1774.6z"/>
			<path class="st18" d="M-141.9,1807.3h-144.4l0,0c0-23.6,19.2-31.5,42.8-31.5h58.9C-161.1,1775.8-141.9,1783.7-141.9,1807.3
				L-141.9,1807.3z"/>
			<path class="st23" d="M-233.8,1771.7h-5.6c-26,0-46.9,9.7-46.9,35.7h5.6C-280.7,1781.4-259.7,1771.7-233.8,1771.7z"/>
			<circle class="st24" cx="-215.8" cy="1611" r="35.8"/>
			<path class="st20" d="M-211.1,1593.2h-17.3v35.8h7.1v-10.7h10.2c6.9,0,12.5-5.6,12.5-12.5
				C-198.4,1598.7-204.1,1593.2-211.1,1593.2L-211.1,1593.2z M-211.1,1611h-10.2v-10.7h10.2c2.9,0,5.4,2.4,5.4,5.4
				S-208,1611-211.1,1611L-211.1,1611z"/>
			<ellipse class="st12" cx="-170.2" cy="1511.3" rx="14.8" ry="17.9"/>
			<ellipse class="st12" cx="-267.2" cy="1506.8" rx="14.8" ry="17.9"/>
		</g>
	</g>
</g>
<g id="_x23_woman_x28_stand_x29_">
	<g>
		<g>
			<g>
				<g class="st25">
					
						<linearGradient id="SVGID_6_" gradientUnits="userSpaceOnUse" x1="-305.41" y1="1047.407" x2="-305.41" y2="1826.9362" gradientTransform="matrix(1 0 0 -1 -184.74 2865.27)">
						<stop  offset="0" style="stop-color:#808080;stop-opacity:0.25"/>
						<stop  offset="0.54" style="stop-color:#808080;stop-opacity:0.12"/>
						<stop  offset="1" style="stop-color:#808080;stop-opacity:0.1"/>
					</linearGradient>
					<path class="st26" d="M-437.8,1386.7c0-1.6-0.1-3.3-0.1-4.9c-0.1-10.4,0.8-20.9,2.9-31c0.3-1.5,0.7-2.9,1.1-4.3
						c6-9.5,13.2-26.5,13.8-43l82.8-126.7l-42.7-101.9l-0.6-0.9c-2.1-9.7-10.4-38.9-32-35.3c-23,3.8-2.5,38.9,2.4,46.7l0,0
						c0.6,1,1,1.6,1,1.6l0.2-0.1v0.1h-0.3l23.5,85.9c-2.1,5.5-24.6,61.8-48.7,80.8c-0.2-29.4,2.9-67.1,4.3-81.1
						c0.5-5,0.1-9.9-1.1-14.8c-6.7-25.6-30.5-44.5-58.8-44.5c-7.7,0-15.2,1.4-22.3,4.2c-24.3,9.5-39.5,33.8-37.1,59.8
						c1.5,16.5,4.2,49.4,4.3,75.7c-25.6-19.4-49.4-81.6-49.4-81.6l23.8-84.5c0,0,29.2-43.8,3.4-48.2c-21.8-3.7-30,26.1-32,35.5l0,0
						l-0.6,1.7l-43,99.8l84.5,129.3c0.2,13.3,4.5,27.9,13.3,41.6c0.8,1.4,1.4,2.8,1.7,4.3c0.1,0.6,0.1,1,0.2,1.6
						c-0.5,7.9-5.9,17.7-12,28.4l0,0c-4.3,7.6-8.9,15.6-12.3,23.7c-7.9,18.7-11.6,29.3-11.4,45.1c-0.2,19.1,5.6,45.5,17,104.9
						c6-2.5,12.2-4.5,18.5-6.1c3,27.3,6.5,64.4,3.4,72.7c-4.2,11.1-6.8,64.8-4.7,93.3c-13.5,17.5-19.4,16.9-19.4,16.9
						c-14.7,4.4-13.9,13.2-10.7,19.1c1,2.4,2.5,4.5,4.4,6.3c0.5,0.3,0.8,0.8,1.1,1.2c1,3.6-1.7,9.3-6.1,22.6
						c-2.1,6.4-0.8,12.5,1.8,17.5c4.1,9.1,12.4,15.2,12.4,15.2c9.1,2.7,12.2-0.1,12.2-5c3,5.8,10.4,10.4,27,9.5
						c0,0,11.4,0.8,5.6-12.6s-2.8-67.8-2.8-67.8s0.6-6.8,1.5-17l78.3-88.7l10.2-83.2c6.5,9.1,10.9,11.8,26.2,12.6
						c0,0-0.2-0.8-0.7-2.3h0.7C-403.6,1559.1-435.7,1458.3-437.8,1386.7z M-496.4,1545.8c5,0.9,9.8,2.3,14.4,4.2l1,5.9l-4.3,73
						c-9.6,6.4-18.1,14.3-25.3,23.4c1.7-11.8,3.6-20.9,5.3-23.5C-500.9,1622.4-498,1576.2-496.4,1545.8L-496.4,1545.8z
						 M-549.2,1791.1c-1.1,2.9-1.7,6.2-1.8,9.4c-0.3-0.9-0.7-1.8-1.1-2.6c-2.6-6,5-27.2,11.3-42.7c-0.3,5.5-1,11.1-2,16.6
						L-549.2,1791.1z"/>
				</g>
				<path class="st27" d="M-381.1,1081.6c0,0-6.4-42.1-31.3-37.8c-24.8,4.3,3.3,47.5,3.3,47.5L-381.1,1081.6z"/>
				<path class="st27" d="M-592.7,1081.6c0,0,6.4-42.1,31.3-37.8c24.8,4.3-3.3,47.5-3.3,47.5L-592.7,1081.6z"/>
				<rect x="-502.1" y="1463.5" class="st15" width="53.9" height="42.1"/>
				<path class="st28" d="M-429.4,1175.6c0.5-4.9,0.1-9.8-1-14.6c-8-31.1-39.7-50-71-42c-2.4,0.6-4.7,1.4-7,2.3
					c-23.6,9.4-37.8,33.6-35.5,58.9c2.5,28.5,8.6,108.3-1.1,111.8c51.8-18.3,77.6-19.4,116.4,0C-438,1278-431.4,1197.5-429.4,1175.6
					z"/>
				<g class="st19">
					<path d="M-438,1196.8c0.5-3.8,0.1-7.8-0.9-11.5c-5.5-19.9-24.9-34.6-48.1-34.6c-6.2,0-12.4,1.1-18.3,3.3
						c-20.1,7.4-32.2,26.5-30.4,46.5c2.1,22.6,7.3,85.5-1,88.3c44.1-14.4,66.1-15.3,99.3,0C-445.2,1277.7-439.7,1214.1-438,1196.8z"
						/>
				</g>
				<path class="st27" d="M-541.8,1516.3c0,0,11.6,88,6.8,101.2c-4.8,13.2-7.4,87.2-2.7,105.6c4.7,18.4,0,42.5,0,42.5l-6.1,19.1
					c0,0-11.6,28.5,26,26.4c0,0,10.9,0.8,5.4-12.4c-5.4-13.2-2.7-66.7-2.7-66.7s7.6-97.5,13.7-107.1s9.6-108.5,9.6-108.5
					L-541.8,1516.3z"/>
				<path class="st22" d="M-556,1805.2c0,0-18.4-13.9-13-30.8c5.4-16.8,8.2-21.2,4.1-24.9c-4.2-3.7-12.3-17.6,6.8-23.5
					c0,0,6.8,0.8,22.6-22c15.8-22.8,14.3-51.3,53.3-79.2l4.1-71.9l-8.9-52l62.1,5.1l-14.3,120.3l-90.2,104.8
					c0,0-21.9,49.1-17.7,58.7C-543.1,1799.4-541.8,1809.6-556,1805.2z"/>
				<path class="st27" d="M-555.4,1806.6c0,0-18.4-13.9-13-30.8c5.4-16.8,8.2-21.2,4.1-24.9c-4.2-3.7-12.3-17.6,6.8-23.5
					c0,0,6.8,0.8,22.6-22c15.8-22.8,14.3-51.3,53.3-79.2l4.1-71.9l-8.9-52l62.1,5.1l-14.1,120.4l-90,104.8c0,0-21.9,49.1-17.7,58.7
					C-542.2,1800.9-541.1,1811-555.4,1806.6z"/>
				<path class="st22" d="M-403.8,1558.4c-19.4-1.1-20.5-5.4-32.4-23.7c-11.8-18.3-33.4-2.1-33.4-2.1l-7.6-59.3l1.2,75.4
					c-34.5-17.3-79.9,3.3-79.9,3.3c-19.4-103.6-22-105.2-5.4-145.7c3.5-8,7.4-15.8,11.8-23.4l0,0c6.9-12.3,12.9-23.5,11.3-31.7
					c-0.2-1.5-0.8-2.9-1.6-4.3c-26.5-43-10.7-94.1,39.2-86c2.5,0.5,3.9,0.8,3.9,0.8h19.4c78.8-4.3,58.2,62.6,44.2,85.2
					c-0.3,1.4-0.7,2.8-1,4.3c-2.4,10.7-3.2,23.6-2.7,37.5C-434.8,1459.1-403.8,1558.4-403.8,1558.4z"/>
				<path class="st29" d="M-403.8,1556.3c-19.4-1.1-20.5-5.4-32.4-23.7c-11.9-18.3-32.4-2.3-32.4-2.3l-8.7-59.3v75.5
					c-34.5-17.3-78.7,3.2-78.7,3.2c-19.4-103.6-22-105-5.4-145.7c3.5-8,7.4-15.8,11.8-23.4l0,0c6.9-12.3,12.9-23.5,11.3-31.7
					c-0.2-1.5-0.8-2.9-1.6-4.3c-26.5-43-10.7-94.1,39.2-86c2.5,0.5,3.9,0.8,3.9,0.8h19.4c78.8-4.3,58.2,62.6,44.2,85.2
					c-0.3,1.4-0.7,2.8-1,4.3c-2.4,10.7-3.2,23.6-2.7,37.5C-434.8,1457-403.8,1556.3-403.8,1556.3z"/>
				<path class="st27" d="M-502.1,1220.7h30.2l0,0v46.9c0,5.6-4.5,10.2-10.2,10.2l0,0h-9.8c-5.6,0-10.2-4.5-10.2-10.2l0,0V1220.7
					L-502.1,1220.7z"/>
				<path class="st29" d="M-421.4,1307.1l81.2-127.4l-41-100.3l-28.1,10.8l22.7,85.2c0,0-32.4,86.8-61.5,86L-421.4,1307.1z"/>
				<path class="st22" d="M-502,1240c9.8,3.2,20.4,3.2,30.2,0v-17H-502V1240z"/>
				<circle class="st27" cx="-487" cy="1190.6" r="49.6"/>
				<g class="st19">
					<path d="M-525.8,1148.5c0,0,7.6,47.5,88.5,39.9l-3.3-28.1l-25.8-22.6h-30.2L-525.8,1148.5z"/>
				</g>
				<path class="st28" d="M-525.8,1147.4c0,0,7.6,47.5,88.5,39.9l-3.3-28.1l-26-22.7h-30.2L-525.8,1147.4z"/>
				<ellipse class="st27" cx="-436.2" cy="1191" rx="3.3" ry="7"/>
				<ellipse class="st27" cx="-536.6" cy="1191" rx="3.3" ry="7"/>
				<path class="st29" d="M-552.4,1306.1l-81.2-127.4l41-98.2l28.1,10.8l-22.7,83c0,0,32.4,86.8,61.5,86L-552.4,1306.1z"/>
				<g class="st19">
					<path d="M-440.6,1344.8c-0.3,1.4,4.6,2.8,4.4,4.3c-2.4,10.7-3.2,23.6-2.7,37.5c1.9,68.9,31.6,165.5,32.8,169.6l2.3,0.1
						c0,0-30.9-99.3-32.8-169.7c-0.3-14,0.3-26.7,2.7-37.5c0.3-1.5,0.7-2.8,1-4.3H-440.6L-440.6,1344.8z"/>
				</g>
				<path class="st22" d="M-436.7,1387.6l-112.8-5.8l0,0c6.9-12.3,12.9-23.5,11.3-31.7c0,0,32.9,22.6,104.1,0
					C-436.4,1360.8-437.1,1373.7-436.7,1387.6z"/>
				<g class="st19">
					<path d="M-558,1404.2c3.5-8,7.4-15.8,11.8-23.4l0,0c6.9-12.3,12.9-23.5,11.3-31.7c-0.2-1.5,8.6-2,7-2c-3.3,0-8.6-2.1-11.8-2.1
						c-1.6,0,1.4,2.7,1.6,4.3c1.5,8.2-4.5,19.4-11.3,31.7l0,0c-4.4,7.6-8.3,15.3-11.8,23.4c-16.6,40.5-14,42.1,5.4,145.7
						c0,0,1.1-0.5,3-1.2C-572.1,1446.3-574.6,1444.6-558,1404.2z"/>
				</g>
				<path class="st15" d="M-436.7,1386.6l-112.8-5.8l0,0c6.9-12.3,12.9-23.5,11.3-31.7c0,0,16.7,12,48.1,3.3
					c17.3,8.6,32.8,4.1,56.2-3.3C-436.4,1359.7-437.1,1372.6-436.7,1386.6z"/>
				<path class="st22" d="M-552.2,1306.5l4.9-6l10.3,0.6C-542.7,1300.7-548.1,1302.6-552.2,1306.5z"/>
				<path class="st22" d="M-420.6,1306.5l-6.4-6.4l-8.7,1.1C-430.1,1300.7-424.7,1302.6-420.6,1306.5z"/>
				<polygon class="st22" points="-477.3,1504.3 -472.9,1504.5 -472.4,1503.2 -477.3,1503.1 				"/>
				<polygon class="st22" points="-592.7,1080.6 -592.1,1078.8 -563.9,1090.3 -564.6,1091.3 				"/>
				<polygon class="st22" points="-381.8,1078.5 -410.2,1089.8 -409.2,1090.3 -381.2,1079.4 				"/>
				<path class="st22" d="M-587.3,1174.3l22.7-83h-3.3l-22.7,83c0,0,32.4,86.8,61.5,86h3.3C-554.9,1261.1-587.3,1174.3-587.3,1174.3
					z"/>
				<path class="st22" d="M-386.5,1176.5l-22.7-85.2h3.3l22.7,85.2c0,0-32.4,86.8-61.5,86h-3.3
					C-418.9,1263.2-386.5,1176.5-386.5,1176.5z"/>
			</g>
		</g>
	</g>
</g>
</svg>
