<?xml version="1.0" encoding="utf-8"?>
<!-- Generator: Adobe Illustrator 19.0.0, SVG Export Plug-In . SVG Version: 6.00 Build 0)  -->
<svg version="1.1" id="图层_1" xmlns="http://www.w3.org/2000/svg" xmlns:xlink="http://www.w3.org/1999/xlink" x="0px" y="0px"
	 viewBox="-917 917.7 1000 1000" style="enable-background:new -917 917.7 1000 1000;" xml:space="preserve">
<style type="text/css">
	.st0{fill:#F2F2F2;}
	.st1{fill:none;stroke:#3F3D56;stroke-width:4;stroke-miterlimit:10;}
	.st2{fill:#57B894;}
	.st3{opacity:0.1;enable-background:new    ;}
	.st4{fill:#656380;}
	.st5{opacity:0.2;enable-background:new    ;}
	.st6{fill:#FFFFFF;}
	.st7{fill:#6C63FF;}
	.st8{fill:#3F3D56;}
	.st9{fill:#302F45;}
	.st10{opacity:0.3;fill:#6C63FF;enable-background:new    ;}
	.st11{fill:none;stroke:#3F3D56;stroke-miterlimit:10;}
	.st12{fill:#A0616A;}
	.st13{fill:#E6E6F0;}
	.st14{fill:#3C354C;}
	.st15{fill:#575A89;}
	.st16{display:none;}
	.st17{display:inline;fill:none;}
	.st18{display:inline;fill:#FFFFFF;}
	.st19{font-family:'SimHei';}
	.st20{font-size:35px;}
	.st21{display:inline;}
	.st22{fill:none;stroke:#FFFFFF;stroke-width:4;stroke-miterlimit:10;}
	.st23{fill:none;stroke:#FFFFFF;stroke-width:4;stroke-miterlimit:10;stroke-dasharray:12.5367,12.5367;}
	.st24{fill:none;stroke:#FFFFFF;stroke-width:4;stroke-miterlimit:10;stroke-dasharray:12.0547,12.0547;}
	.st25{fill:none;stroke:#000000;stroke-width:4;stroke-miterlimit:10;}
	.st26{fill:none;stroke:#000000;stroke-width:4;stroke-miterlimit:10;stroke-dasharray:11.8931,11.8931;}
	.st27{fill:none;stroke:#000000;stroke-width:4;stroke-miterlimit:10;stroke-dasharray:11.8598,11.8598;}
	.st28{fill:none;stroke:#000000;stroke-width:4;stroke-miterlimit:10;stroke-dasharray:11.8107,11.8107;}
	.st29{fill:none;stroke:#000000;stroke-width:4;stroke-miterlimit:10;stroke-dasharray:11.8586,11.8586;}
	.st30{fill:none;stroke:#000000;stroke-width:4;stroke-miterlimit:10;stroke-dasharray:12.0392,12.0392;}
	.st31{fill:none;stroke:#000000;stroke-width:4;stroke-miterlimit:10;stroke-dasharray:11.9229,11.9229;}
</style>
<g id="图层_1_1_">
	<g id="_x23_background">
		<g>
			<g>
				<g>
					<g>
						<path class="st0" d="M-226.1,1515.2l7.3-1.4l2.1-0.4c-28.4-16.9-37.7-53.6-20.8-82c11.8-19.9,34-31.1,57-29l-9.1,22.9
							l22.3-20.2h0.2c31.4,10.4,48.4,44.3,38,75.7c-0.4,1.1-0.8,2.1-1.2,3.2c6.3-3.3,12.4-7.2,17.3-12.1c9.9-9.9,15.2-23.4,21.1-40
							c11.7-32.9,22.9-66.3,33.6-99.7c-26.1-13.5-38.6-44-29.3-71.9c0.6-1.7,1.2-3.4,2-5.1c0.2-0.4,0.3-0.8,0.5-1.2
							c0.7-1.6,1.5-3.1,2.4-4.6c0.1-0.2,0.3-0.5,0.4-0.7c0.8-1.3,1.5-2.5,2.4-3.7c0.3-0.5,0.6-0.9,0.9-1.3c0.9-1.3,1.9-2.5,2.9-3.7
							c0.3-0.4,0.7-0.8,1.1-1.2c0.8-0.9,1.6-1.7,2.5-2.5c0.4-0.4,0.9-0.9,1.3-1.3c0.1-0.1,0.2-0.2,0.3-0.3l0,0
							c21.4-19.4,53.6-20.7,76.5-3.2l-11.9,29.8l22-20c16.5,20.2,17.9,48.7,3.5,70.5h0.1c-0.2,0.4-0.5,0.7-0.8,1.1
							c-0.5,0.7-0.9,1.3-1.4,2c-0.6,0.8-1.3,1.6-1.9,2.4c-0.5,0.6-1,1.2-1.5,1.8c-0.8,0.8-1.6,1.6-2.3,2.4c-0.5,0.5-0.9,1-1.4,1.4
							c-1.3,1.2-2.6,2.3-3.9,3.4c-0.5,0.4-1,0.7-1.5,1c-1,0.7-1.9,1.4-2.9,2c-0.6,0.4-1.2,0.8-1.9,1.1c-0.9,0.5-1.8,1.1-2.8,1.5
							c-0.7,0.4-1.3,0.7-2,1c-1,0.5-1.9,0.9-2.9,1.3c-0.7,0.3-1.3,0.5-2,0.8c-1.1,0.4-2.2,0.8-3.4,1.1c-0.6,0.2-1.1,0.4-1.7,0.5
							c-1.7,0.5-3.4,0.9-5.2,1.2c-0.3,0.1-0.7,0.1-1,0.1c-1.5,0.2-2.9,0.4-4.4,0.6c-0.6,0.1-1.3,0.1-1.9,0.1
							c-1.2,0.1-2.4,0.1-3.6,0.1c-0.7,0-1.4,0-2.1,0c-1.2,0-2.3-0.1-3.5-0.2c-0.7-0.1-1.4-0.1-2.1-0.2c-1.2-0.2-2.5-0.4-3.8-0.6
							h-0.2c-4.5,14.1-9.1,28.2-13.8,42.2c24.1-22.5,62-21.3,84.5,2.9c0.8,0.9,1.6,1.7,2.3,2.6l-20.3,23.4l27.8-11.7
							c7.1,14.1,8.2,30.5,3.2,45.5c-1.7,5.3-4.2,10.3-7.3,14.9c-18.6,27.3-55.8,34.5-83.1,15.9c-13.7-9.3-22.9-23.8-25.5-40.1
							c-0.5,1.4-1,2.9-1.5,4.3c-5.2,14.7-11.7,32.9-25.1,46.2c-9.1,9-20.4,14.9-31.2,19.9c-7.1,3.2-14.2,6.2-21.5,9
							c-8,5.1-17.2,8.2-26.6,9c-11.5,3.4-23.1,6.3-34.8,8.6l-7.3,1.4c-6.6,1.2-13.3,2.5-20,4c1,0.3,2,0.5,2.9,0.8
							c24.8,8.2,41.3,31.5,41,57.6l-45.8,15l41.8,5.8c-11.9,30.9-46.5,46.3-77.4,34.4c-8.4-3.2-15.9-8.3-22-14.8l1.3,4.2
							c0.9,2.8,1.8,5.6,2.7,8.3c11.7,37.5,7.5,67.2-11.7,83.8l-10.8-12.6c18.7-16.1,12.2-48.3,6.7-66.2c-0.9-2.7-1.7-5.4-2.6-8.2
							c-7.6-23.6-16.2-50.4-6.2-75.3C-308.1,1530.8-262.6,1522.1-226.1,1515.2z"/>
						<path class="st0" d="M-646.6,1384.3l-6.3-3.9l-1.8-1.1c32.6-5.6,54.5-36.5,48.9-69.1c-3.9-22.8-20.6-41.3-42.8-47.5l0.3,24.7
							l-13.5-26.9h-0.2c-33-1.5-61,24-62.6,57l0,0c0,1.1,0,2.3,0,3.4c-4.7-5.4-9-11.1-11.8-17.5c-5.7-12.8-5.9-27.3-5.4-44.9
							c0.9-34.9,2.4-70.1,4.4-105.1c29.2-3.3,51.8-27.3,53.1-56.6c0.1-1.8,0.1-3.6,0-5.4c0-0.4,0-0.9-0.1-1.3
							c-0.1-1.7-0.3-3.5-0.5-5.2c0-0.3-0.1-0.6-0.1-0.8c-0.2-1.4-0.5-2.9-0.9-4.3c-0.1-0.5-0.2-1.1-0.4-1.6c-0.4-1.5-0.9-3-1.4-4.5
							c-0.2-0.5-0.4-1-0.6-1.5c-0.4-1.1-0.9-2.2-1.4-3.2c-0.2-0.6-0.5-1.1-0.8-1.7c-0.1-0.1-0.1-0.3-0.2-0.4l0,0
							c-13-25.8-42.7-38.6-70.4-30.3l0.4,32.1l-13.4-26.5c-22.6,12.8-34.1,39-28.5,64.4h-0.1c0.1,0.4,0.2,0.8,0.3,1.2
							c0.2,0.8,0.4,1.6,0.6,2.4c0.3,1,0.6,2,0.9,3c0.2,0.7,0.5,1.5,0.8,2.2c0.4,1.1,0.9,2.1,1.3,3.1c0.3,0.6,0.5,1.2,0.8,1.8
							c0.8,1.6,1.6,3.1,2.5,4.5c0.3,0.5,0.7,1,1,1.5c0.6,1,1.3,2,2,2.9c0.4,0.6,0.9,1.1,1.4,1.7c0.6,0.8,1.3,1.6,2,2.4
							c0.5,0.6,1,1.1,1.5,1.7c0.7,0.8,1.5,1.5,2.3,2.3c0.5,0.5,1,1,1.6,1.5c0.9,0.8,1.8,1.5,2.7,2.3c0.5,0.4,0.9,0.8,1.4,1.1
							c1.4,1,2.9,2,4.4,2.9c0.3,0.2,0.6,0.3,0.9,0.5c1.3,0.7,2.6,1.4,3.9,2.1c0.6,0.3,1.1,0.5,1.7,0.8c1.1,0.5,2.2,1,3.3,1.4
							c0.6,0.2,1.3,0.5,2,0.7c1.1,0.4,2.2,0.7,3.4,1c0.7,0.2,1.3,0.4,2,0.5c1.2,0.3,2.5,0.5,3.7,0.8h0.2
							c-0.8,14.8-1.6,29.6-2.2,44.4c-14.4-29.7-50.2-42.1-79.9-27.6c-1.1,0.5-2.1,1.1-3.1,1.6l10.6,29l-21.8-20.9
							c-11.7,10.7-18.7,25.6-19.4,41.3c-0.3,5.5,0.2,11.1,1.5,16.5c7.5,32.2,39.7,52.2,71.9,44.6c16.1-3.8,29.9-14,38.2-28.3
							c0,1.5-0.1,3-0.1,4.5c-0.4,15.5-0.9,34.9,6.9,52.1c5.2,11.7,13.7,21.2,22,29.7c5.4,5.5,11.1,10.9,16.8,16.1
							c5.7,7.6,13.1,13.8,21.6,18c9.5,7.3,19.3,14.2,29.5,20.5l6.3,3.9c5.7,3.5,11.5,7.1,17.3,10.9c-1-0.1-2-0.2-3-0.3
							c-26-1.2-49.9,14.6-58.9,39l37.4,30.4l-41.1-9.5c0.1,33.1,26.9,59.8,60,59.8c8.9,0,17.8-2,25.8-5.9l-2.8,3.5
							c-1.8,2.3-3.7,4.6-5.5,6.8c-24.3,30.8-31.1,60.1-19.1,82.4l14.7-7.9c-11.7-21.7,5.9-49.5,17.5-64.2c1.8-2.2,3.5-4.5,5.4-6.7
							c15.5-19.3,33.2-41.2,32.7-68.1C-575.7,1428.3-615,1403.9-646.6,1384.3z"/>
					</g>
				</g>
				<ellipse class="st0" cx="-411.7" cy="1734" rx="437" ry="50"/>
			</g>
		</g>
	</g>
	<g id="_x23_accessory_x28_have_x5B_tree_x5D__x29_">
		<path class="st1" d="M-789.3,1700.7c-3-5.5,0.4-12.3,4.3-17.2c3.9-4.9,8.6-10,8.5-16.3c-0.1-9-9.7-14.3-17.3-19.1
			c-5.7-3.5-10.9-7.7-15.6-12.5c-2-1.8-3.6-4-4.8-6.4c-1.6-3.5-1.5-7.5-1.4-11.4c0.3-12.8,1-25.7,1.9-38.5"/>
		<path class="st2" d="M-828.2,1578.7c0.2-4.8,2.9-9.1,7-11.5l3.1,6.2l-0.1-7.5c7.4-2.2,15.2,2,17.4,9.4s-2,15.2-9.4,17.4
			c-7.4,2.2-15.2-2-17.4-9.4C-828,1581.8-828.2,1580.3-828.2,1578.7L-828.2,1578.7z"/>
		<path class="st2" d="M-803.2,1673.7c3.5,6.9,12,9.6,18.9,6c6.9-3.5,9.6-12,6-18.9s-12-9.6-18.9-6c-3.1,1.6-5.5,4.3-6.7,7.6
			l8.8,7.1l-9.6-2.2C-804.7,1669.5-804.2,1671.7-803.2,1673.7z"/>
		<path class="st2" d="M-796.3,1646.4c7.7,0.4,14.3-5.6,14.7-13.3v-0.1c0.1-2.2-0.3-4.4-1.2-6.4c-1.7-3.8-5-6.6-9-7.8l0.1,5.8
			l-3.2-6.3l0,0c-7.7-0.4-14.3,5.6-14.7,13.3C-809.9,1639.5-803.9,1646-796.3,1646.4L-796.3,1646.4z"/>
		<path class="st2" d="M-830.3,1623.8c7.7,0.4,14.3-5.6,14.7-13.3v-0.1c0.4-7.7-5.6-14.3-13.3-14.7c0,0,0,0-0.1,0
			c-2.6-0.1-5.2,0.5-7.5,1.8l2.5,6.8l-5.1-4.9c-2.7,2.5-4.4,6-4.5,9.7c-0.1,1.3,0.1,2.6,0.4,3.9
			C-841.9,1619.1-836.6,1623.5-830.3,1623.8z"/>
		<path class="st3" d="M-826.3,1582.4c3.2,0.3,6.4,1.4,9.6,1.6c3.2,0.2,6.8-0.6,8.9-3.1c1.1-1.4,1.7-3.1,2.6-4.6
			c0.9-1.4,2.1-2.5,3.5-3.3c3.3,7,0.4,15.3-6.6,18.7c-7,3.3-15.3,0.4-18.7-6.6c-0.4-0.9-0.8-1.8-1-2.8
			C-827.3,1582.3-826.8,1582.4-826.3,1582.4z"/>
		<path class="st3" d="M-830.3,1623.8c7.7,0.4,14.3-5.6,14.7-13.3v-0.1c0.1-2.3-0.3-4.6-1.3-6.7c-1.1,0.8-2.1,1.7-2.8,2.8
			c-1,1.5-1.6,3.2-2.8,4.6c-2.2,2.6-5.9,3.4-9.3,3.2c-3.4-0.2-6.6-1.1-10-1.4c-0.5,0-0.9-0.1-1.4-0.1
			C-841.9,1619.1-836.6,1623.5-830.3,1623.8z"/>
		<path class="st3" d="M-796.3,1646.4c7.7,0.4,14.3-5.6,14.7-13.3v-0.1c0.1-2.2-0.3-4.4-1.2-6.4c-1.2,0.8-2.2,1.7-3,2.8
			c-1.1,1.5-1.8,3.3-3,4.7c-2.4,2.6-6.4,3.6-9.9,3.5c-3.6-0.1-6.8-0.9-10.3-1.2C-807.3,1642.2-802.2,1646.2-796.3,1646.4z"/>
		<path class="st3" d="M-803.2,1673.7c3.2,7.1,11.5,10.2,18.5,7.1c7.1-3.2,10.2-11.5,7.1-18.5l0,0c-1.2,0.8-2.2,1.7-3.1,2.7
			c-1.3,1.6-2.2,3.5-3.8,5c-2.9,2.8-7.5,4-11.6,4.1C-798.4,1674.1-800.8,1674-803.2,1673.7z"/>
		<path class="st4" d="M-768.1,1694.4c0,0-11.1-0.3-14.4-2.7s-17-5.2-17.9-1.4c-0.9,3.8-16.6,19-4.1,19.1s29.1-1.9,32.4-4
			S-768.1,1694.4-768.1,1694.4z"/>
		<path class="st5" d="M-804.8,1708c12.5,0.1,29.1-2,32.4-4c2.5-1.5,3.6-7.1,3.9-9.7h0.4c0,0-0.7,8.9-4,11s-19.9,4.1-32.4,4
			c-3.6,0-4.9-1.3-4.8-3.2C-808.8,1707.3-807.5,1708-804.8,1708z"/>
	</g>
	<g id="_x23_chart_x28_have_x5B_diagram_x5D__x29_">
		<path class="st6" d="M-409.7,1081.2c-5.3,0-9.6-4.3-9.6-9.6c0-5.3,4.3-9.6,9.6-9.6c5.3,0,9.6,4.3,9.6,9.6l0,0
			C-400,1076.9-404.4,1081.2-409.7,1081.2z"/>
		<path class="st6" d="M-409.7,1062.5c5,0,9.1,4.1,9.1,9.1s-4.1,9.1-9.1,9.1s-9.1-4.1-9.1-9.1l0,0
			C-418.8,1066.6-414.7,1062.5-409.7,1062.5 M-409.7,1061.5c-5.6,0-10.1,4.6-10.1,10.1s4.6,10.1,10.1,10.1s10.1-4.6,10.1-10.1
			C-399.5,1066-404,1061.5-409.7,1061.5L-409.7,1061.5L-409.7,1061.5z"/>
		<circle class="st6" cx="-409.7" cy="1689.2" r="20.2"/>
		<rect x="-414.9" y="1330.3" class="st7" width="23" height="143.9"/>
		<rect x="-362.4" y="1295.2" class="st7" width="23" height="179"/>
		<rect x="-309.9" y="1330.3" class="st7" width="23" height="143.9"/>
		<rect x="-257.4" y="1259" class="st7" width="23" height="215.2"/>
		<path class="st8" d="M-676.8,1031.2h534.5c10.9,0,19.7,8.9,19.7,19.8v651.7c0,10.9-8.9,19.8-19.8,19.8h-534.4
			c-10.9,0-19.8-8.9-19.8-19.8V1051C-696.8,1040.1-687.8,1031.2-676.8,1031.2z"/>
		<rect x="-671.2" y="1100.9" class="st9" width="519.2" height="551.9"/>
		<rect x="-476.4" y="1368.5" class="st10" width="23" height="109.8"/>
		<rect x="-641.8" y="1256.2" class="st8" width="31" height="5"/>
		<rect x="-641.8" y="1292.2" class="st8" width="31" height="5"/>
		<rect x="-641.8" y="1328.2" class="st8" width="31" height="5"/>
		<rect x="-641.8" y="1364.2" class="st8" width="31" height="5"/>
		<rect x="-641.8" y="1400.2" class="st8" width="31" height="5"/>
		<rect x="-641.8" y="1436.2" class="st8" width="31" height="5"/>
		<rect x="-641.8" y="1472.2" class="st8" width="31" height="5"/>
		<line class="st11" x1="-600.8" y1="1474.2" x2="-600.8" y2="1259.2"/>
		<line class="st11" x1="-601.3" y1="1258.7" x2="-181.9" y2="1258.7"/>
		<line class="st11" x1="-600.3" y1="1294.7" x2="-181.9" y2="1294.7"/>
		<line class="st11" x1="-600.3" y1="1330.7" x2="-181.9" y2="1330.7"/>
		<line class="st11" x1="-600.3" y1="1366.7" x2="-181.9" y2="1366.7"/>
		<line class="st11" x1="-600.3" y1="1402.7" x2="-181.9" y2="1402.7"/>
		<line class="st11" x1="-600.3" y1="1438.7" x2="-181.9" y2="1438.7"/>
		<line class="st11" x1="-601.3" y1="1474.7" x2="-181.9" y2="1474.7"/>
		<rect x="-572.4" y="1439.2" class="st7" width="23" height="35"/>
		<rect x="-519.9" y="1399.6" class="st7" width="23" height="74.6"/>
	</g>
	<g id="_x23_man_x28_stand_x2C_show_x29_">
		<g>
			<path class="st12" d="M-420.5,1361.9c-10.6-2.8-21.5-5.5-32.4-3.9c-1.3,0.1-2.6,0.6-3.6,1.5c-1.3,1.4-1.2,3.8-0.1,5.3
				c1.2,1.5,2.9,2.6,4.7,3.2c5.1,1.8,10.6,2,15.9,2.1s10.5,0.2,15.6-1c1.2-0.2,2.3-0.7,3.2-1.5
				C-414.2,1364.6-418.1,1362.5-420.5,1361.9z"/>
			<path class="st13" d="M-340.7,1387.7c-3.5,0.1-7.1-0.1-10.6-0.7c-3.1-0.6-6.2-1.5-9.2-2.5l-10.9-3.5c-5.9-1.8-11.7-3.9-17.3-6.5
				c-9.6-4.5-18.4-11.3-28.8-13.4c-1.9-0.4-4.3-0.4-5.2,1.3c-0.4,0.8-0.5,1.7-0.5,2.5l-0.1,7.7c0,0.5,0,1,0.2,1.5
				c0.3,0.4,0.7,0.8,1.1,1c9.9,6.4,21.1,10.7,30.1,18.3c2.7,2.3,5.2,4.9,8.1,7c3.7,2.8,8,4.7,12.6,5.7c6.4,1.4,13.3,0.9,19,3.9
				c2.6,1.4,5,3.5,7.9,4c2.5,0.4,5-0.3,7.5-1.1c4-1.3,8.1-2.7,10.8-5.8c3.5-4,3.7-9.8,3.8-15.1c0-1.5,1-7.7,0.1-8.8
				c-1.3-1.6-3.4,0.8-4.7,1.5C-330.9,1387-335.9,1387.7-340.7,1387.7z"/>
			<path class="st12" d="M-307.9,1348.5c0,0,6.7,28.5,11.6,32.9s-34.7,14.2-34.7,14.2s8.4-31.1,4.4-36.5S-307.9,1348.5-307.9,1348.5
				z"/>
			<path class="st3" d="M-307.9,1348.5c0,0,6.7,28.5,11.6,32.9s-34.7,14.2-34.7,14.2s8.4-31.1,4.4-36.5S-307.9,1348.5-307.9,1348.5z
				"/>
			<path class="st14" d="M-371.9,1720.1c-2.2,0.3-4.4,0-6.6,0.3c-3.1,0.4-5.9,1.8-8,4.1c-0.7,0.6-1.1,1.6-1.2,2.5
				c0.1,0.7,0.4,1.3,0.9,1.8c2,2.2,4.9,3.4,7.8,4c4.3,0.8,8.7,1.1,13.2,1c11,0.1,21.9,0.1,32.9,0.2c0.8-3.9,0.7-8-0.3-11.9
				c-0.2-1.1-0.7-2.1-1.4-2.9c-0.7-0.7-1.6-1.2-2.5-1.6l-6.8-3.2c-5.4-2.6-9.6-4.5-15-1.3C-363.2,1715.4-366.9,1719.3-371.9,1720.1z
				"/>
			<path class="st3" d="M-371.9,1720.1c-2.2,0.3-4.4,0-6.6,0.3c-3.1,0.4-5.9,1.8-8,4.1c-0.7,0.6-1.1,1.6-1.2,2.5
				c0.1,0.7,0.4,1.3,0.9,1.8c2,2.2,4.9,3.4,7.8,4c4.3,0.8,8.7,1.1,13.2,1c11,0.1,21.9,0.1,32.9,0.2c0.8-3.9,0.7-8-0.3-11.9
				c-0.2-1.1-0.7-2.1-1.4-2.9c-0.7-0.7-1.6-1.2-2.5-1.6l-6.8-3.2c-5.4-2.6-9.6-4.5-15-1.3C-363.2,1715.4-366.9,1719.3-371.9,1720.1z
				"/>
			<path class="st14" d="M-301.9,1747.5c0.1,1.2,0,2.4-0.3,3.6c-0.9,2.4-3.6,3.4-6,4.1c-11,3.1-22.6,3.3-34,3.6
				c-8.6,0.2-17.4,0.3-25.4-2.7c-1.7-0.5-3.2-1.4-4.4-2.6c-1.3-1.2-1.8-3-1.4-4.8c0.6-2.1,2.9-3.3,4.9-4.2l11-4.9l21.1-9.5
				c2.6-1.2,5.4-2.4,8.2-2.3c3.5,0.1,6.6,2.1,9.7,3.7c2.3,1.1,4.6,2.1,7,2.8c2.1,0.7,5.1,0.7,7,1.9
				C-301.2,1738.2-302.1,1744.1-301.9,1747.5z"/>
			<path class="st15" d="M-367.7,1538.4c-5.5,15.6-11.1,31.4-13.8,47.7c-1,5.8-1.6,11.8-2.6,17.6c-1,5.5-2.4,11.1-1.4,16.6
				c0.7,3.6,2.3,6.9,3.5,10.3c1.7,4.6,2.6,9.3,4.2,13.9c2.4,7.1,6.3,13.6,8.8,20.7c2.4,6.9,3.5,14.2,6.8,20.7c2,3.8,4.7,7.3,6,11.4
				c1.8,6.2,0.1,12.9-4.4,17.5c0.6,2.7,3.7,4,6.3,5l9.3,3.5c3.6,1.3,7.6,2.6,11,1.1c5.1-2.2,6-8.9,5.8-14.4
				c-0.5-13.4-3.7-26.6-6.9-39.6c-3-12-5.9-24-9.5-35.9c-1.5-4.9-3-9.8-4.2-14.8c-4.3-18.6-2.9-38.1,4.1-55.9
				c4-10,0.4-22.3,0.9-33.1l-13.4-2.5c-2.6-0.5-5.8-0.8-7.5,1.3S-366.7,1535.7-367.7,1538.4z"/>
			<path class="st3" d="M-367.7,1538.4c-5.5,15.6-11.1,31.4-13.8,47.7c-1,5.8-1.6,11.8-2.6,17.6c-1,5.5-2.4,11.1-1.4,16.6
				c0.7,3.6,2.3,6.9,3.5,10.3c1.7,4.6,2.6,9.3,4.2,13.9c2.4,7.1,6.3,13.6,8.8,20.7c2.4,6.9,3.5,14.2,6.8,20.7c2,3.8,4.7,7.3,6,11.4
				c1.8,6.2,0.1,12.9-4.4,17.5c0.6,2.7,3.7,4,6.3,5l9.3,3.5c3.6,1.3,7.6,2.6,11,1.1c5.1-2.2,6-8.9,5.8-14.4
				c-0.5-13.4-3.7-26.6-6.9-39.6c-3-12-5.9-24-9.5-35.9c-1.5-4.9-3-9.8-4.2-14.8c-4.3-18.6-2.9-38.1,4.1-55.9
				c4-10,0.4-22.3,0.9-33.1l-13.4-2.5c-2.6-0.5-5.8-0.8-7.5,1.3S-366.7,1535.7-367.7,1538.4z"/>
			<path class="st15" d="M-304.2,1531.2c-0.3,4.8-0.7,9.8-2.9,14c-1.3,2.6-3.3,4.9-4.8,7.4c-4,6.8-4.7,15-4.9,22.9
				c-0.2,8.2,0.1,16.4,0.4,24.5c0,2.5,0.3,5,0.8,7.5c0.5,2.1,1.3,4.1,1.8,6.1c1.2,5,0.1,10.3,0.8,15.4c0.5,3.9,2,7.5,3.2,11.3
				c1.7,5.8,2.5,11.7,2.4,17.8c-0.4,16.3,4.8,31.8,4.9,48c0,5.6-0.2,11.2,0.3,16.8c0.5,6.1,1.8,12.1,2.5,18.1c0.2,1.4,0.2,3-0.9,3.9
				c-0.8,0.5-1.8,0.8-2.7,0.7c-3.5,0.2-6.9-0.1-10.3-1c-3-0.9-5.7-2.5-8.6-3.6c-5.4-2-12.2-2.4-15.3-7.3c-0.3-0.4-0.5-0.9-0.5-1.4
				c0-1.4,1.5-2.2,2.2-3.4c0.4-0.8,0.6-1.7,0.6-2.5c0.3-6.4-2.6-12.4-4.5-18.5c-1.7-6-3-12-3.8-18.2c-2-12.7-4-25.7-1.9-38.3
				c0.5-3.1,1.2-6.7-0.8-9.2c-0.9-1-1.8-1.8-2.9-2.6c-2.3-2.1-3.7-5.1-3.7-8.2c0-10-4.6-20-5-30c-0.3-5.8,0.1-11.6-0.2-17.3
				c-0.7-15.3-5.7-29.9-10.2-44.5c-0.8-2.1-1.2-4.3-1.3-6.5c-0.1-2.3,0.8-4.5,2.5-6c7.6-6.1,18.9-8.2,27.3-3.2c1.7,1,3.2,2.2,5,3
				C-325.6,1531.7-313.6,1526.6-304.2,1531.2z"/>
			<circle class="st12" cx="-319.9" cy="1352.5" r="21.8"/>
			<path class="st13" d="M-368.5,1532.3c0.9,0.9,2,1.6,3.2,2.1l6.6,3c1,0.6,2.2,1,3.3,1.2c1.5,0.1,3,0,4.4-0.3
				c15.3-2.8,31-2.5,46.2,0.9c4.9-7.3,5.3-16.8,4-25.5c-0.7-4.6-1.9-9.4-0.6-13.9c0.5-1.9,1.5-3.7,2.1-5.6
				c1.5-5.3-0.3-10.9,0.5-16.3c1-6.6,5.8-12,8.5-18.1c1.5-3.8,2.6-7.8,3.2-11.8c1-4.9,2-9.8,3-14.7c1.1-5.4,2.2-10.9,2-16.4
				c-0.2-8.4-3.3-16.4-6.3-24.3c-1.3-3.3-2.8-6.9-5.8-8.6c-3.8-2.1-8.5-0.9-12.5,0.8c-5.2,2.1-10.4,4.6-15.9,5.7
				c-2.4,0.5-5.7-0.4-7.9,0.3c-1.9,0.5-3.1,3.1-4.2,4.6c-6.2,8.5-10.6,18.1-13.1,28.2c-2.5,10.3-3.1,21.2-7.8,30.7
				c-1.1,2.1-2.3,4.1-3.6,6.1c-2.7,4.2-5.6,8.2-7.5,12.8c-2.8,7.1-2.8,14.9-2.6,22.6c0,1.3,0.1,2.5,0.1,3.8c0.2,8.7,0,17.4-0.6,26.1
				C-369.9,1527.9-369.9,1530.5-368.5,1532.3z"/>
			<path class="st12" d="M-427.3,1478.4c-10.9,0.4-22.2,0.7-32.4-3.3c-1.3-0.4-2.4-1.1-3.2-2.2c-1-1.6-0.3-3.9,1.1-5.2
				c1.5-1.2,3.4-1.9,5.3-2.1c5.3-0.7,10.7,0.4,16,1.4s10.3,2.1,15,4.4c1.1,0.5,2.1,1.2,2.8,2.2
				C-420.6,1477.1-424.8,1478.3-427.3,1478.4z"/>
			<path class="st3" d="M-369.2,1495.7c2.4,0,4.8-0.1,7.2-0.3c2.8-0.1,5.6-0.5,8.4-1.3c4.1-1.3,7.6-4,11-6.7
				c10.5-8.5,20.2-17.9,29.1-28.1c2.9-3.4,5.8-6.9,7.4-11.1c1.9-5.1,1.7-10.8,1.3-16.2c-0.3-3.6-0.6-7.2-2.3-10.4
				c-1.4-2.8-4-4.8-7-5.4l3.8,0.1c-3.6-2.2-8.2-1.9-12.5-1.6c-2.9,0.3-5.9,0.5-8.5,2c-3.2,1.7-5.3,5-7,8.2
				c-5.7,10.4-9.4,22.1-16.8,31.3c-1,1.3-2.1,2.4-3.4,3.4c-0.2,0.1-0.4,0.3-0.6,0.4c-2.7,4.2-5.6,8.2-7.5,12.8
				C-369.4,1480.2-369.4,1488-369.2,1495.7z"/>
			<path class="st13" d="M-315.7,1412.2c3.6-0.3,6.9,2.3,8.6,5.5s2,6.8,2.3,10.4c0.4,5.5,0.6,11.1-1.3,16.2
				c-1.6,4.2-4.5,7.7-7.4,11.1c-8.9,10.2-18.6,19.6-29.1,28.1c-3.3,2.7-6.8,5.4-11,6.7c-2.7,0.8-5.5,1.2-8.4,1.3
				c-10.7,0.6-21.7,0.3-31.8-3.3c-8-2.9-15.4-7.8-23.8-8.3c-2.1-0.1-4.3,0-6.1-1c-3.4-1.8-4-6.4-3.7-10.2c-0.3-1.5,0.7-2.9,2.2-3.2
				c0.2,0,0.4-0.1,0.6,0c16.9-2.1,34.5,2.2,50.7-2.8c3.7-1.2,7.3-2.7,10.8-4.3c1.6-0.7,3.1-1.5,4.5-2.5c1.3-1,2.4-2.2,3.4-3.4
				c7.4-9.3,11.1-20.9,16.8-31.3c1.8-3.2,3.8-6.4,7-8.2c2.6-1.4,5.6-1.7,8.5-2c4.2-0.4,8.8-0.7,12.5,1.6"/>
			<path class="st8" d="M-303.7,1357c-1,1.2-1.6,2.7-2.7,3.9s-3,1.8-4.3,0.9c-2-1.4-0.9-4.7-2.4-6.5c-0.8-1-2.3-1.3-3.3-2.2
				c-2.5-2-1.8-6.2-4-8.5s-5.7-1.8-8.5-0.8s-5.8,2.5-8.7,1.9c-4.2-0.9-6.4-5.4-7.6-9.5s-2-8.6,0-12.3c1.7-3.1,5-5,8.3-6
				s6.9-1.2,10.4-1.8c4.6-0.8,9-2.4,13.7-2.9s9.7,0.4,13,3.7c4.8,4.9,4,12.9,6.4,19.3c1.4,3.6,3.8,6.8,5.3,10.4
				c2.6,6.4,1.3,14.8-4.4,18.6c-0.9,0.7-2,1.1-3.1,1c-2.4-0.3-3.2-3.3-3.1-5.7C-298.4,1356.2-299.5,1351.7-303.7,1357z"/>
		</g>
	</g>
</g>
<g id="图层_2" class="st16">
	<rect x="-521.6" y="1270.9" class="st17" width="298.1" height="46.5"/>
	<text id="text_2_" transform="matrix(1 0 0 1 -521.5513 1301.0323)" class="st18 st19 st20">#man(stand,show)</text>
	<g class="st21">
		<g>
			<polyline class="st22" points="-257.4,1765.1 -257.4,1771.1 -263.4,1771.1 			"/>
			<line class="st23" x1="-275.9" y1="1771.1" x2="-445.2" y2="1771.1"/>
			<polyline class="st22" points="-451.4,1771.1 -457.4,1771.1 -457.4,1765.1 			"/>
			<line class="st24" x1="-457.4" y1="1753" x2="-457.4" y2="1325.1"/>
			<polyline class="st22" points="-457.4,1319.1 -457.4,1313.1 -451.4,1313.1 			"/>
			<line class="st23" x1="-438.9" y1="1313.1" x2="-269.7" y2="1313.1"/>
			<polyline class="st22" points="-263.4,1313.1 -257.4,1313.1 -257.4,1319.1 			"/>
			<line class="st24" x1="-257.4" y1="1331.1" x2="-257.4" y2="1759.1"/>
		</g>
	</g>
	<g class="st21">
		<g>
			<polyline class="st25" points="-749.1,1726 -749.1,1732 -755.1,1732 			"/>
			<line class="st26" x1="-767" y1="1732" x2="-856.2" y2="1732"/>
			<polyline class="st25" points="-862.1,1732 -868.1,1732 -868.1,1726 			"/>
			<line class="st27" x1="-868.1" y1="1714.1" x2="-868.1" y2="1554"/>
			<polyline class="st25" points="-868.1,1548.1 -868.1,1542.1 -862.1,1542.1 			"/>
			<line class="st26" x1="-850.2" y1="1542.1" x2="-761" y2="1542.1"/>
			<polyline class="st25" points="-755.1,1542.1 -749.1,1542.1 -749.1,1548.1 			"/>
			<line class="st27" x1="-749.1" y1="1559.9" x2="-749.1" y2="1720"/>
		</g>
	</g>
	<g class="st21">
		<g>
			<polyline class="st25" points="-113.9,1726.7 -113.9,1732.7 -119.9,1732.7 			"/>
			<line class="st28" x1="-131.7" y1="1732.7" x2="-692.7" y2="1732.7"/>
			<polyline class="st25" points="-698.6,1732.7 -704.6,1732.7 -704.6,1726.7 			"/>
			<line class="st29" x1="-704.6" y1="1714.8" x2="-704.6" y2="1033"/>
			<polyline class="st25" points="-704.6,1027 -704.6,1021 -698.6,1021 			"/>
			<line class="st28" x1="-686.8" y1="1021" x2="-125.8" y2="1021"/>
			<polyline class="st25" points="-119.9,1021 -113.9,1021 -113.9,1027 			"/>
			<line class="st29" x1="-113.9" y1="1038.9" x2="-113.9" y2="1720.8"/>
		</g>
	</g>
	<rect x="-467.4" y="1039.2" class="st17" width="376" height="46.5"/>
	<text id="text_1_" transform="matrix(1 0 0 1 -467.3979 1069.3329)" class="st18 st19 st20">#chart(have[digram])</text>
	<rect x="-870" y="1741.8" class="st17" width="416.6" height="46.5"/>
	<text id="text_3_" transform="matrix(1 0 0 1 -869.9823 1771.9293)" class="st21 st19 st20">#accessory(have[tree])</text>
	<g class="st21">
		<g>
			<polyline class="st25" points="53,1788.3 53,1794.3 47,1794.3 			"/>
			<line class="st30" x1="35" y1="1794.3" x2="-874" y2="1794.3"/>
			<polyline class="st25" points="-880,1794.3 -886,1794.3 -886,1788.3 			"/>
			<line class="st31" x1="-886" y1="1776.4" x2="-886" y2="1043.2"/>
			<polyline class="st25" points="-886,1037.2 -886,1031.2 -880,1031.2 			"/>
			<line class="st30" x1="-868" y1="1031.2" x2="41" y2="1031.2"/>
			<polyline class="st25" points="47,1031.2 53,1031.2 53,1037.2 			"/>
			<line class="st31" x1="53" y1="1049.1" x2="53" y2="1782.4"/>
		</g>
	</g>
	<rect x="-141.8" y="1808.2" class="st17" width="235.5" height="46.5"/>
	<text id="text_4_" transform="matrix(1 0 0 1 -141.8223 1838.3013)" class="st21 st19 st20">#background</text>
</g>
</svg>
