<?xml version="1.0" encoding="utf-8"?>
<!-- Generator: Adobe Illustrator 19.0.0, SVG Export Plug-In . SVG Version: 6.00 Build 0)  -->
<svg version="1.1" xmlns="http://www.w3.org/2000/svg" xmlns:xlink="http://www.w3.org/1999/xlink" x="0px" y="0px"
	 viewBox="0 0 1000 1000" style="enable-background:new 0 0 1000 1000;" xml:space="preserve">
<style type="text/css">
	.st0{opacity:0.1;enable-background:new    ;}
	.st1{fill:#6C63FF;}
	.st2{fill:#464353;}
	.st3{opacity:0.1;fill:#6C63FF;enable-background:new    ;}
	.st4{fill:#FFFFFF;}
	.st5{fill:#FFFFFF;stroke:#FFFFFF;stroke-miterlimit:10;}
	.st6{opacity:0.5;fill:#6C63FF;enable-background:new    ;}
	.st7{fill:#504F60;}
	.st8{fill:#3F3D56;}
	.st9{fill:#FFFFFF;stroke:#33313F;stroke-width:3;stroke-miterlimit:10;}
	.st10{fill:none;stroke:#33313F;stroke-width:2;stroke-linecap:round;stroke-miterlimit:10;}
	.st11{fill:#FFFFFF;stroke:#33313F;stroke-width:2;stroke-linecap:round;stroke-miterlimit:10;}
	.st12{fill:none;stroke:#33313F;stroke-width:3;stroke-miterlimit:10;}
	.st13{fill:#FFFFFF;stroke:#33313F;stroke-width:3;stroke-linecap:round;stroke-miterlimit:10;}
	.st14{fill:#33313F;}
	.st15{fill:#65617D;}
	.st16{fill:url(#SVGID_1_);}
	.st17{fill:#DB8B8B;}
	.st18{fill:#2E3037;}
	.st19{fill:#35323E;}
</style>
<g id="_x23_background">
	<g class="st0">
		<g>
			<path class="st1" d="M319.7,128.8c32.8-28.9,84.3-34.8,131.1-32.5c147.2,7.2,280.1,77.5,395.1,157
				c41.6,28.8,82.6,59.7,109.6,99.4c55,80.6,38.7,192.4-37.8,258.8c-26,22.6-57.6,40-90,55.3c-57.5,27.3-119.6,49.2-185,55.5
				c-46.6,4.4-93.8,0.9-140.1-5.4c-129.4-17.3-256.4-55.7-362.9-121.4C93,566.8,49,531,29.8,484.4s-7-105.6,40.8-133.1
				c19.7-11.4,43.3-16.5,66.4-21.4c34-7.1,68.5-14.1,99.2-28.6c31.7-15,69.1-43.9,62.9-76.9C292.3,188.9,286.8,157.7,319.7,128.8z"
				/>
		</g>
	</g>
</g>
<g>
	<g id="_x23_accessory_x28_have_x5B_leaf_x5D__x29_">
		<path class="st1" d="M822.9,172.9c5.9,38.8-10.4,73.5-10.4,73.5s-25.9-28.2-31.8-67.1c-3.3-21.8,0.4-42.2,4.3-56
			c1.4-5.1,6.7-8.1,11.8-6.7c2.3,0.6,4.3,2.1,5.6,4.1C810,132.7,819.6,151.2,822.9,172.9z"/>
		<path class="st1" d="M932.3,234.7c5.8,0,11.7,0.7,17.2,2.2c9.5,2.4,9.7,15.8,0.2,18.5c-5.6,1.6-11.4,2.4-17.2,2.5
			c-21.3,0.3-38.8-11.2-38.8-11.2S911,235,932.3,234.7z"/>
		<path class="st1" d="M872.3,175.7c-19.9,21.9-24.1,50.4-24.1,50.4s28-6.9,47.9-28.7c9.2-10.1,15.1-21.7,18.7-31.2
			c1.9-5-0.6-10.4-5.6-12.4c-2.5-1-5.2-0.8-7.7,0.3C892.5,158.7,881.5,165.6,872.3,175.7z"/>
	</g>
	<g id="_x23_chart_x28_have_x5B_pad_x2C_diagram_x5D__x29_">
		<g>
			<path class="st2" d="M483.7,171.6h413.1c9.5,0,17.2,7.7,17.2,17.2v504.5c0,9.5-7.8,17.2-17.2,17.2H483.7
				c-9.5,0-17.2-7.8-17.2-17.2V188.9C466.5,179.4,474.1,171.6,483.7,171.6z"/>
			<rect x="505.1" y="226" class="st3" width="370.3" height="430.3"/>
			<circle class="st4" cx="690.3" cy="684.6" r="15.8"/>
			<path class="st4" d="M690.3,210.6c-4.1,0-7.4-3.3-7.4-7.4s3.3-7.5,7.4-7.5c4.1,0,7.4,3.3,7.4,7.4l0,0
				C697.7,207.2,694.4,210.5,690.3,210.6z"/>
			<path class="st4" d="M690.3,196.2c3.8,0,7,3.1,7,7s-3.1,7.1-7,7.1c-3.8,0-7-3.1-7-7l0,0C683.2,199.3,686.3,196.2,690.3,196.2
				 M690.3,195.3c-4.4,0-7.9,3.5-7.9,7.8s3.5,7.9,7.8,7.9s7.9-3.5,7.9-7.8l0,0C698.1,198.8,694.6,195.3,690.3,195.3L690.3,195.3z"/>
			<path class="st5" d="M526,359.3h69.3c2.1,0,3.7,1.7,3.7,3.7v96.9c0,2.1-1.7,3.7-3.7,3.7H526c-2.1,0-3.7-1.7-3.7-3.7V363
				C522.3,360.9,523.9,359.3,526,359.3z"/>
			<path class="st6" d="M535.7,385.6h50c3.4,0,6.2,2.8,6.2,6.2v20.7c0,3.4-2.8,6.2-6.2,6.2h-50c-3.4,0-6.2-2.8-6.2-6.2v-20.7
				C529.4,388.4,532.2,385.6,535.7,385.6z"/>
			<path class="st1" d="M544,432.2h33.4c0.8,0,1.5,0.7,1.5,1.5v2.2c0,0.8-0.7,1.5-1.5,1.5H544c-0.8,0-1.5-0.7-1.5-1.5v-2.2
				C542.5,432.9,543.1,432.2,544,432.2z"/>
			<path class="st5" d="M655.9,359.3h69.3c2.1,0,3.7,1.7,3.7,3.7v96.9c0,2.1-1.7,3.7-3.7,3.7h-69.3c-2.1,0-3.7-1.7-3.7-3.7V363
				C652.1,360.9,653.8,359.3,655.9,359.3z"/>
			<path class="st6" d="M673.6,375.6h34.2c0.7,0,1.3,0.6,1.3,1.3v17c0,0.7-0.6,1.3-1.3,1.3h-34.2c-0.7,0-1.3-0.6-1.3-1.3v-17
				C672.3,376.2,672.9,375.6,673.6,375.6z"/>
			<path class="st1" d="M668.4,413.4h44.1c0.8,0,1.5,0.7,1.5,1.5v2.2c0,0.8-0.7,1.5-1.5,1.5h-44.1c-0.8,0-1.5-0.7-1.5-1.5v-2.2
				C666.9,414.1,667.6,413.4,668.4,413.4z"/>
			<path class="st1" d="M668.4,423h44.1c0.8,0,1.5,0.7,1.5,1.5v2.2c0,0.8-0.7,1.5-1.5,1.5h-44.1c-0.8,0-1.5-0.7-1.5-1.5v-2.2
				C666.9,423.7,667.6,423,668.4,423z"/>
			<path class="st5" d="M785.2,285.1h69.3c2.1,0,3.7,1.7,3.7,3.7v96.9c0,2.1-1.7,3.7-3.7,3.7h-69.3c-2.1,0-3.7-1.7-3.7-3.7v-96.9
				C781.4,286.7,783.1,285.1,785.2,285.1z"/>
			<path class="st6" d="M796.1,301.3h47.5c0.7,0,1.3,0.6,1.3,1.3v20.8c0,0.7-0.6,1.3-1.3,1.3h-47.5c-0.7,0-1.3-0.6-1.3-1.3v-20.8
				C794.8,301.9,795.4,301.3,796.1,301.3z"/>
			<path class="st6" d="M796.1,335.2h47.5c0.7,0,1.3,0.6,1.3,1.3v20.8c0,0.7-0.6,1.3-1.3,1.3h-47.5c-0.7,0-1.3-0.6-1.3-1.3v-20.8
				C794.8,335.8,795.4,335.2,796.1,335.2z"/>
			<path class="st1" d="M794.2,377.4h9.8c1.8,0,3.3,1.5,3.3,3.3v0.5c0,1.8-1.5,3.3-3.3,3.3h-9.8c-1.8,0-3.3-1.5-3.3-3.3v-0.5
				C790.8,378.9,792.3,377.4,794.2,377.4z"/>
			<path class="st1" d="M815,377.4h9.8c1.8,0,3.3,1.5,3.3,3.3v0.5c0,1.8-1.5,3.3-3.3,3.3H815c-1.8,0-3.3-1.5-3.3-3.3v-0.5
				C811.6,378.9,813.1,377.4,815,377.4z"/>
			<path class="st1" d="M835.8,377.4h9.8c1.8,0,3.3,1.5,3.3,3.3v0.5c0,1.8-1.5,3.3-3.3,3.3h-9.8c-1.8,0-3.3-1.5-3.3-3.3v-0.5
				C832.4,378.9,833.9,377.4,835.8,377.4z"/>
			<path class="st5" d="M784.9,433.5h69.3c2.1,0,3.7,1.7,3.7,3.7v96.9c0,2.1-1.7,3.7-3.7,3.7h-69.3c-2.1,0-3.7-1.7-3.7-3.7v-96.9
				C781.2,435.1,782.9,433.5,784.9,433.5z"/>
			<path class="st6" d="M788.4,445.6h20.4c0.7,0,1.3,0.6,1.3,1.3v20.8c0,0.7-0.6,1.3-1.3,1.3h-20.4c-0.7,0-1.3-0.6-1.3-1.3V447
				C787.2,446.3,787.7,445.6,788.4,445.6z"/>
			<path class="st1" d="M797.6,483.2h44.1c0.8,0,1.5,0.7,1.5,1.5v2.2c0,0.8-0.7,1.5-1.5,1.5h-44.1c-0.8,0-1.5-0.7-1.5-1.5v-2.2
				C796.2,483.9,796.8,483.2,797.6,483.2z"/>
			<path class="st1" d="M797.6,493.6h44.1c0.8,0,1.5,0.7,1.5,1.5v2.2c0,0.8-0.7,1.5-1.5,1.5h-44.1c-0.8,0-1.5-0.7-1.5-1.5v-2.2
				C796.2,494.2,796.8,493.6,797.6,493.6z"/>
			<path class="st1" d="M797.6,504h44.1c0.8,0,1.5,0.7,1.5,1.5v2.2c0,0.8-0.7,1.5-1.5,1.5h-44.1c-0.8,0-1.5-0.7-1.5-1.5v-2.2
				C796.2,504.7,796.8,504,797.6,504z"/>
			<path class="st5" d="M643.2,409l-1.1,0.5l-9.5,4.6l-0.9,0.4c-0.3,0.1-0.5,0-0.6-0.3l0,0c0-0.1,0-0.1,0-0.2v-2.7
				c0-0.3-0.2-0.4-0.4-0.4l0,0h-23.2c-0.3,0-0.4-0.2-0.4-0.4v-3.8c0-0.3,0.2-0.4,0.4-0.4h23.1c0.3,0,0.4-0.2,0.4-0.4v-2.8
				c0-0.1,0-0.1,0-0.2c0.1-0.3,0.3-0.3,0.6-0.3l0,0l0.9,0.4l9.5,4.6l1.1,0.6c0.3,0.1,0.3,0.3,0.3,0.6
				C643.4,408.9,643.3,409,643.2,409z"/>
			<path class="st5" d="M772.1,385.5l-0.8,1l-6.3,8.5l-0.5,0.8c-0.2,0.2-0.4,0.3-0.7,0.1l0,0c-0.1,0-0.1-0.1-0.1-0.2l-1.3-2.4
				c-0.1-0.3-0.4-0.3-0.6-0.2l-20.5,10.9c-0.3,0.1-0.5,0-0.6-0.2l0,0l-1.8-3.4c-0.1-0.3,0-0.5,0.2-0.6l0,0l20.5-10.9
				c0.3-0.1,0.3-0.4,0.2-0.6l0,0l-1.3-2.4c0-0.1-0.1-0.1-0.1-0.2c0-0.3,0.2-0.4,0.3-0.5c0,0,0,0,0.1,0h1l10.5-0.3h1.3
				C771.9,385,772,385.1,772.1,385.5C772.2,385.4,772.2,385.5,772.1,385.5z"/>
			<path class="st5" d="M772.1,430.1h-1.3h-10.5h-1c-0.3,0-0.4-0.2-0.4-0.4l0,0c0-0.1,0-0.1,0-0.2l1.1-2.4c0.1-0.3,0-0.5-0.2-0.6
				l0,0l-20.9-10c-0.3-0.1-0.3-0.4-0.2-0.6l1.7-3.5c0.1-0.3,0.3-0.3,0.6-0.3l0,0l20.9,10c0.3,0.1,0.5,0,0.6-0.2l1.2-2.5
				c0.1-0.3,0.3-0.3,0.6-0.3c0.1,0,0.1,0.1,0.2,0.2l0.6,0.7l6.5,8.3l0.8,1c0.2,0.2,0.2,0.5,0,0.6
				C772.3,430.1,772.2,430.1,772.1,430.1z"/>
		</g>
	</g>
	<g id="_x23_other_x28_have_x5B_drawing_x5F_board_x5D__x29_">
		<polygon class="st7" points="390.5,624.2 390.4,626.7 385.9,783.5 378.4,783.5 382.1,626.7 382.2,623.7 		"/>
		<polygon class="st0" points="390.5,624.2 390.4,626.7 385.9,783.5 378.4,783.5 382.1,626.7 382.2,623.7 		"/>
		<polygon class="st7" points="433.6,757 428.1,757 345,756.8 340.6,756.8 342.9,749.5 433.1,749.5 		"/>
		<polygon class="st0" points="390.5,624.2 390.4,626.7 382.1,626.7 382.2,623.7 		"/>
		<rect x="379.7" y="620.2" class="st7" width="13.8" height="5.2"/>
		<polygon class="st0" points="345.7,749.5 345,756.8 340.6,756.8 342.9,749.5 		"/>
		<polygon class="st7" points="357.6,620.2 357.4,622.4 339,804.3 330.5,803.9 350,622.4 350.1,620.4 		"/>
		<polygon class="st0" points="433.6,757 428.1,757 427.3,749.5 433.1,749.5 		"/>
		<polygon class="st7" points="442.5,803.9 434.1,804.3 415.6,622.4 415.4,620.2 422.8,620.4 423.1,622.4 		"/>
		<rect x="292.2" y="440.9" class="st4" width="186.3" height="178.6"/>
		<path class="st4" d="M255,440.9h261c2,0,3.6,1.6,3.6,3.6v171.5c0,2-1.6,3.6-3.6,3.6H255c-2,0-3.6-1.6-3.6-3.6V444.5
			C251.4,442.5,253,440.9,255,440.9z"/>
		<path class="st7" d="M389,381.1v43.1h-7.2v-43.1c0-2,1.7-3.7,3.7-3.7C387.3,377.6,389,379.1,389,381.1L389,381.1z"/>
		<rect x="381.7" y="420.4" class="st0" width="7.3" height="3.9"/>
		<path class="st7" d="M391.8,423.3v14.3h-13v-14.3c0-1,0.8-1.7,1.7-1.7h9.4C391,421.5,391.8,422.3,391.8,423.3L391.8,423.3z"/>
		<circle class="st0" cx="385.3" cy="430.6" r="2.8"/>
		<circle class="st8" cx="385.3" cy="430" r="2.8"/>
		<rect x="378.9" y="435.8" class="st0" width="13" height="1.7"/>
		<rect x="373.6" y="438.2" class="st0" width="23.6" height="3.9"/>
		<rect x="373.6" y="436.9" class="st7" width="23.6" height="3.9"/>
		<path class="st0" d="M338.6,614.8h97.2c2.9,0,5.2,2.4,5.2,5.2l0,0l0,0H333.3l0,0l0,0C333.3,617.2,335.7,614.8,338.6,614.8z"/>
		<polygon class="st0" points="350.1,620.4 357.6,620.2 357.4,622.4 350,622.4 		"/>
		<rect x="379.7" y="620.2" class="st0" width="13.8" height="2.2"/>
		<polygon class="st0" points="423.1,622.4 415.6,622.4 415.4,620.2 422.8,620.4 		"/>
		<path class="st7" d="M338.6,616.1h97.2c2.9,0,5.2,2.4,5.2,5.2l0,0l0,0H333.3l0,0l0,0C333.3,618.4,335.7,616.1,338.6,616.1
			L338.6,616.1z"/>
		<path class="st9" d="M472,461.8c0.7-0.1,1.4,0.3,1.5,1c0,0.1,0,0.3,0,0.3c-1.3,12.2-0.4,24.6,0.9,36.8c0.6,5.6,1.5,11.4,3.9,15.6
			c0.3,0.5,0.3,1.2-0.2,1.7c-0.7,0.5-1.6,0.8-2.4,0.7l-38.8,0.2c-0.7,0-1.3-0.6-1.3-1.3c0-0.1,0-0.2,0-0.3
			c3.1-13.3,2.4-27.9,1.2-41.7c-0.6-6.8-1-10.4,4.1-10.9c5.2-0.4,10.4-0.7,15.7-1.1C457.9,462.8,467.9,462.5,472,461.8z"/>
		<path class="st9" d="M442.3,541.7c-0.7-0.1-1.4,0.3-1.5,1c0,0.1,0,0.3,0,0.3c1.3,12.2,0.4,24.6-1,36.8c-0.6,5.6-1.5,11.5-3.9,15.6
			c-0.3,0.5-0.3,1.2,0.2,1.6c0.7,0.5,1.6,0.8,2.4,0.7l38.8,0.3c0.7,0,1.3-0.6,1.3-1.3c0-0.1,0-0.2,0-0.3
			c-3.1-13.3-2.4-27.9-1.2-41.7c0.6-6.8,1-10.4-4.1-10.9c-5.1-0.4-10.4-0.7-15.7-1.1C456.4,542.7,446.4,542.4,442.3,541.7z"/>
		<path class="st10" d="M453.7,564.2c4.5-0.2,9.1-0.2,13.6,0.2c0.6,0.1,1,0.5,1.1,1.1l0.4,3.6c0.1,0.2,0,0.3-0.1,0.4
			c-0.1,0.1-0.2,0.1-0.3,0.1c-1.9,0.1-3.8-0.2-5.7,0c-1.1,0.1-2.4,0.3-3.5,0.4c-1.9,0.2-3.8,0.2-5.8,0.1c-2.7,0.1-5.4-0.3-8.1-1
			c0,0,0.2-3,0.2-3.2c0-1.4,0-1.5,1.4-1.6L453.7,564.2z"/>
		<path class="st10" d="M453.7,580.2c4.5,0.2,9.1,0.2,13.6-0.2c0.6-0.1,1-0.5,1.1-1.1l0.4-3.6c0.1-0.2,0-0.3-0.1-0.4
			c-0.1-0.1-0.2-0.1-0.3-0.1c-1.9-0.1-3.8,0.2-5.7,0c-1.1-0.1-2.4-0.3-3.5-0.4c-1.9-0.2-3.8-0.2-5.8-0.1c-2.7-0.1-5.4,0.3-8.1,1
			c0,0,0.2,3,0.2,3.2c0,1.4,0,1.5,1.4,1.6L453.7,580.2z"/>
		<path class="st10" d="M453.7,586.5c4.5-0.2,9.1-0.2,13.6,0.2c0.6,0.1,1,0.5,1.1,1.1l0.4,3.6c0.1,0.2,0,0.3-0.1,0.4
			c-0.1,0.1-0.2,0.1-0.3,0.1c-1.9,0.1-3.8-0.2-5.7,0c-1.1,0.1-2.4,0.3-3.5,0.4c-1.9,0.2-3.8,0.2-5.8,0.1c-2.7,0.1-5.4-0.3-8.1-1
			c0,0,0.2-3,0.2-3.2c0-1.4,0-1.5,1.4-1.6L453.7,586.5z"/>
		<path class="st11" d="M459.4,511.9c0.4,1,0.5,2,0.3,3c0,0.1,0,0.2-0.1,0.3c-0.1,0.1-0.3,0.2-0.3,0.1l-8.3,0.3c0,0,0.4-2.4,0.5-2.6
			c0.3-1,1-0.7,1.9-0.8L459.4,511.9z"/>
		<path class="st11" d="M471.9,511.9c0.4,1,0.5,2,0.3,3c0,0.1,0,0.2-0.1,0.3c-0.1,0.1-0.3,0.2-0.3,0.1l-8.3,0.3c0,0,0.4-2.4,0.5-2.6
			c0.3-1,1-0.7,1.9-0.8L471.9,511.9z"/>
		<path class="st12" d="M466.9,470.4l1.1,9.6c0.2,1.4-0.9,2.7-2.4,2.9c0,0,0,0-0.1,0c-7.1,0.5-14.2,0.5-21.2-0.2
			c-1.3-0.1-2.3-1.2-2.4-2.5c-0.2-1.7-0.3-3.4-0.8-5.1c-0.3-1.7-0.6-3.4,1.5-3.9c2.1-0.5,4.9-0.2,7.1-0.2c2.7-0.1,5.4-0.1,8-0.3
			C458.6,470.8,466.9,470.3,466.9,470.4z"/>
		<path class="st12" d="M466.9,504.9l1.1-9.6c0.2-1.4-0.9-2.7-2.4-2.9c0,0,0,0-0.1,0c-7.1-0.5-14.2-0.5-21.2,0.1
			c-1.3,0.1-2.4,1.2-2.4,2.5c-0.2,1.7-0.3,3.4-0.8,5.1c-0.3,1.7-0.6,3.4,1.5,3.9c2.1,0.5,4.9,0.2,7.1,0.2c2.7,0.1,5.4,0.1,8,0.3
			C458.6,504.6,466.9,505,466.9,504.9z"/>
		<path class="st10" d="M455.7,548.1c-0.3,3.2-0.4,6.4-0.5,9.6c-3.2,0-6.4-0.3-9.5-1c-1-0.1-1.7-0.9-1.6-1.7c0-0.1,0-0.2,0-0.3
			c-0.1-2-1.1-6.4,1.7-6.7C446.6,547.8,455.7,548.3,455.7,548.1z"/>
		<path class="st13" d="M302,504.6c1.6-0.2,2.9,1,3,2.4c0,0.2,0,0.3,0,0.5c-1,11.6-0.2,23.4,1.1,35c0.6,5.1,1.4,10.5,3.4,14.6
			c0.6,1.1,0.2,2.5-1,3c-0.3,0.2-0.7,0.3-1,0.3l0,0l-38.6,0.3c-0.9,0-1.6-0.7-1.6-1.5c0-0.1,0-0.3,0-0.3c3-13.2,2.4-27.7,1.1-41.4
			c-0.6-6.8-1-10.4,4.1-10.9c5.2-0.4,10.4-0.7,15.7-1.1C289.4,505.4,297.3,505.1,302,504.6z"/>
		<path class="st9" d="M355.6,504.4c-0.8-0.1-1.5,0.4-1.6,1.1c0,0.1,0,0.3,0,0.3c1.2,12.1,0.4,24.6-1,36.7
			c-0.6,5.6-1.5,11.4-3.9,15.6c-0.3,0.6-0.2,1.4,0.3,1.8c0.7,0.4,1.4,0.6,2.2,0.5l38.7,0.3c0.8,0,1.4-0.6,1.4-1.4
			c0-0.1,0-0.3-0.1-0.3c-3-13.3-2.4-27.9-1.2-41.6c0.6-6.8,1-10.4-4.1-10.9c-5.2-0.4-10.4-0.7-15.7-1.1
			C369.6,505.4,359.7,505.1,355.6,504.4z"/>
		<line class="st10" x1="278.8" y1="512.4" x2="298.6" y2="538.6"/>
		<line class="st10" x1="298.6" y1="510.3" x2="279.5" y2="540"/>
		<line class="st10" x1="366.9" y1="513.6" x2="377.6" y2="527.9"/>
		<line class="st10" x1="377.6" y1="512.5" x2="367.2" y2="528.6"/>
		<path class="st10" d="M285.4,547c4.5-0.2,9.1-0.2,13.6,0.2c0.6,0.1,1,0.5,1.1,1.1l0.4,3.6c0,0.2,0,0.3-0.1,0.4
			c-0.1,0.1-0.2,0.1-0.3,0.1c-1.9,0.1-3.8-0.2-5.7,0c-1.2,0.1-2.4,0.3-3.5,0.4c-1.9,0.2-3.8,0.2-5.8,0.1c-2.7,0.1-5.4-0.3-8.1-1
			c-0.1,0,0.2-3,0.2-3.2c0-1.4-0.1-1.5,1.4-1.6L285.4,547z"/>
		<path class="st10" d="M368.2,533.9c4.5-0.2,9.1-0.2,13.6,0.2c0.6,0.1,1,0.5,1.1,1.1l0.4,3.6c0,0.2,0,0.3-0.1,0.4
			c-0.1,0.1-0.2,0.1-0.3,0.1c-1.9,0.1-3.8-0.2-5.7,0c-1.2,0.1-2.4,0.3-3.5,0.4c-1.9,0.2-3.8,0.2-5.8,0.1c-2.7,0.1-5.4-0.3-8.1-1
			c0,0,0.2-3,0.2-3.2c0-1.4,0-1.5,1.4-1.6L368.2,533.9z"/>
		<path class="st10" d="M375.1,543.8c-4.5-0.2-9.1-0.2-13.6,0.2c-0.6,0.1-1,0.5-1.1,1.1l-0.4,3.6c-0.1,0.2,0,0.3,0.1,0.4
			c0.1,0.1,0.2,0.1,0.3,0.1c1.9,0.1,3.8-0.2,5.7,0c1.2,0.1,2.4,0.3,3.5,0.4c1.9,0.2,3.8,0.2,5.8,0.1c2.7,0.1,5.4-0.3,8.1-1
			c0,0-0.2-3-0.2-3.2c0-1.4,0.1-1.5-1.4-1.6L375.1,543.8z"/>
		<path class="st12" d="M318.8,537.3c0,0,12.8-0.7,15.2,0"/>
		<path class="st12" d="M333.9,530.5c0,0,5.6,5.6,5.6,6.9c0,1.3-7.2,5.9-7.2,5.9"/>
		<path class="st12" d="M402.6,525.4c0,0,11.6-5.4,14-5.7"/>
		<path class="st12" d="M414,513.3c0,0,7.3,3,7.7,4.3s-4.4,8.2-4.4,8.2"/>
		<path class="st12" d="M402.4,539.3c0,0,11.8,5.1,13.6,6.6"/>
		<path class="st12" d="M419,539.7c0,0,2.6,7.5,2,8.6c-0.6,1.1-9.1,2.2-9.1,2.2"/>
		<path class="st11" d="M448.2,511.9c0.4,1,0.5,2,0.3,3c0,0.1,0,0.2-0.1,0.3c-0.1,0.1-0.3,0.2-0.3,0.1l-8.3,0.3c0,0,0.4-2.4,0.5-2.6
			c0.3-1,1-0.7,1.9-0.8L448.2,511.9z"/>
	</g>
</g>
<g id="_x23_woman_x28_stand_x2C_hold_x5B_pen_x5D__x29_">
	<g>
		<polygon class="st14" points="291.8,587 294.7,584.3 292.1,584.2 290.8,586.3 		"/>
		<polygon class="st15" points="270.7,606 273.9,602.1 274.5,601.3 284,591.4 287.3,588 288.7,587.8 290.9,585.8 292.2,586.8 
			290.1,589.3 290.1,590.6 286.8,594.2 277.5,604.3 276.9,605 273.2,608.4 		"/>
		<polygon class="st14" points="274.5,601.3 284,591.4 286.8,594.2 277.5,604.3 		"/>
		
			<linearGradient id="SVGID_1_" gradientUnits="userSpaceOnUse" x1="2266.8623" y1="595.0164" x2="2266.8623" y2="122.6099" gradientTransform="matrix(1 0 0 1 -2036.77 243.56)">
			<stop  offset="0" style="stop-color:#808080;stop-opacity:0.25"/>
			<stop  offset="0.54" style="stop-color:#808080;stop-opacity:0.12"/>
			<stop  offset="1" style="stop-color:#808080;stop-opacity:0.1"/>
		</linearGradient>
		<path class="st16" d="M288.8,605.3c-2.8-2.5-5.1-5.5-7.1-8.7c-4.2-6.5-11.1-10-15.9-11.8v-2.2l0.3-0.1l-0.1-2h0.1l-0.3-5.2l0,0
			l0,0l-1.7-25.9c0,0-6.1-17.3,4.8-33.3c10.9-15.9,0.7-31.3-9.6-37.2c0,0-4.8-25.3-0.7-31.3c-5.6-3.2-11.2-6.1-17.2-8.7
			c-0.1-0.3-0.2-0.6-0.3-1c-0.1-2.4-0.3-4.7-0.4-7.1c0.2-1.2,0.3-2.4,0.7-3.7c0.1-0.5,0.3-1,0.4-1.5c10-3.8,16.6-13.3,16.7-24
			c0-3-0.5-6.1-1.7-8.9c0.5-0.9,1-1.9,1.2-2.9c0.7-2.7-0.1-5.6-1.7-8.3c-2.7-5.9-9.6-11.4-14.5-13.5c-7.1-2.9-17.8-2.2-25.2-1.3
			c-4.2,0.5-8.9,1.9-10.4,5.7c-0.5,1.4-0.5,3-1,4.4c-1.6,5.8-8.3,8.5-12.4,13c-3.7,3.9-5.2,9.2-6.4,14.4c-3.4,14.8-4.2,30-2.4,45.2
			c0.4,3.5,1,7,1.6,10.4c-2.5,3.5-4.7,9.7-3.7,20.4l-8.2,38.6l-3.4,22.6c0,0-2.1,9.3,6.1,17.2c5.2,5.1,11.5,13.7,15.4,19.2
			c-1.7,5-2.5,10.1-2.5,15.3c0.1,2.4,0.2,4.6,0.3,6.8c0.3,4.6,1.2,9.2,2.6,13.6c1,9.3,2.9,21.2,6.5,28.7l1.4,40.5
			c0,0-2.1,37.2-6.1,44.5s8.9,69.1,8.9,69.1v8.6l-2.2,6.4l-0.5-0.4c-10.2,12.6,0,17.2,0,17.2s2.8,0.2,7.2,0.3c-0.8,3.7,1,7.3,4.4,9
			c0,0,57.9,2.6,68.2,0c10.3-2.6,7.5-11.9,2-11.3c-2.1,0.3-5.1-0.3-8.2-1c3.1-3.7,0.6-8.7-3.4-8.3c-5.5,0.7-17.8-4.2-17.8-4.2
			l-0.1,0.1c-0.3-0.2-0.8-0.3-1.2-0.3c-4.5-1-9.1-2.3-13.5-3.7c-2.6-5.6-8.7-20.6-4.4-32.3c2-5.3,2.6-12.3,2.6-19.1
			c0.1-20.6,3.1-40.9,9-60.7l8.2-27.9c0,0,11.6-33.9,12.3-43.2l-0.1-13.5c9.6,6.1,17.2,4.3,22,1.4c2.5-1.5,3.3-4.7,1.8-7.1
			C289.6,606,289.3,605.6,288.8,605.3z M197.8,534.6c0.3-1,0.4-2,0.6-3.1c1.6,0,3.2,0,4.8-0.1c2,4,2.9,8.5,2.4,13.1
			C202,543.4,196.4,540.6,197.8,534.6L197.8,534.6z"/>
		<path class="st17" d="M204.4,801.9l-2.6,7.8l8.5,8.5l28.2,6.5l20.4-2l-1.3-7.2l0,0c-0.8-3.1-3.3-5.6-6.4-6.4
			c-8.4-2-24.3-6.4-27.7-12.6L204.4,801.9z"/>
		<path class="st0" d="M204.4,801.9l-2.6,7.8l8.5,8.5l28.2,6.5l20.4-2l-1.3-7.2l0,0c-0.8-3.1-3.3-5.6-6.4-6.4
			c-8.4-2-24.3-6.4-27.7-12.6L204.4,801.9z"/>
		<path class="st18" d="M252.3,820.9l-3.9-5.2l3.9-6.1c0,0,11.8,4.8,17.1,4.1s7.8,8.5-2,11.1c-9.8,2.6-65.6,0-65.6,0
			s-9.8-4.6,0-17.1l8.5,6.5c0,0,14.5,7.8,21.7,6.5L252.3,820.9L252.3,820.9z"/>
		<path class="st17" d="M269.9,832.1l-20.4,2l-28.2-6.5l-8.5-8.5l0.7-2.1l1-3l1-2.9l19-5.2c1,1.6,2.3,2.9,3.8,3.8
			c6.2,4.2,17.2,7.3,23.8,8.8c0.3,0.1,0.5,0.2,0.8,0.3c2.8,1,5,3.2,5.7,6.1L269.9,832.1z"/>
		<path class="st0" d="M269.9,832.1l-20.4,2l-28.2-6.5l-8.5-8.5l0.7-2.1l7.8,6c0,0,14.5,7.8,21.7,6.5h20.3l-3.9-5.2l3.6-5.5
			c2.8,1,5,3.2,5.7,6.1L269.9,832.1z"/>
		<path class="st18" d="M263.3,830.1l-3.9-5.2l3.9-6.1c0,0,11.8,4.8,17.1,4.1c5.2-0.7,7.8,8.5-1.9,11.1c-9.8,2.6-65.6,0-65.6,0
			s-9.8-4.6,0-17.1l8.5,6.5c0,0,14.5,7.8,21.7,6.5L263.3,830.1z"/>
		<path class="st17" d="M246.9,449.7c0,0-31.5,3.3-26.9-9.8c1.3-3.7,1.7-7.7,1-11.6c-0.8-4.8-2.7-9.4-5.6-13.3l29.5,4.6
			c-1.7,3-3.1,6.2-4,9.5C237.5,442.9,246.9,449.7,246.9,449.7z"/>
		<path class="st19" d="M193.2,599.3c0,0,0.7,28.2,7.2,42l1.3,40c0,0-2,36.7-5.9,44c-3.9,7.2,8.5,68.2,8.5,68.2v10.4
			c0,0,21,7.8,26.9-1.3l-5.9-78l2.6-108.2L193.2,599.3z"/>
		<path class="st0" d="M193.2,599.3c0,0,0.7,28.2,7.2,42l1.3,40c0,0-2,36.7-5.9,44c-3.9,7.2,8.5,68.2,8.5,68.2v10.4
			c0,0,21,7.8,26.9-1.3l-5.9-78l2.6-108.2L193.2,599.3z"/>
		<path class="st1" d="M180.1,508.7l-3.9,10.4l-3.3,22.3c-0.9,6.3,1.3,12.6,5.9,17.1c7.8,7.8,18.4,24.3,18.4,24.3l12.5-37.4
			c0,0-12.5-2-10.4-10.5s1.3-24.3,1.3-24.3L180.1,508.7z"/>
		<path class="st0" d="M238.4,809.7c-8.4,13.2-21.5,5.7-23.9,4.3l1-2.9l19-5.2C235.5,807.4,236.8,808.7,238.4,809.7z"/>
		<path class="st19" d="M264.7,624.8c-0.7,9.1-11.8,42.7-11.8,42.7L245,695c-5.7,19.4-8.5,39.6-8.7,59.8c0,6.7-0.6,13.7-2.5,18.9
			c-5.2,14.5,5.2,34.1,5.2,34.1c-9.1,16.4-24.9,5.2-24.9,5.2v-10.4c0,0-12.5-57.1-9.1-68.3s4.6-41.4,4.6-41.4v-54.4
			c-10.5-10.4-16.9-24.4-18-39.2c-0.2-2.2-0.3-4.4-0.3-6.8c-0.5-14.8,9.6-32.1,13.5-38.3c1-1.5,1.6-2.4,1.6-2.4l57.9,23l0.1,0.1v2.3
			v5L264.7,624.8z"/>
		<path class="st0" d="M245,419.5c-1.7,3-3.1,6.2-4,9.5c-6.4,2.4-13.7,2.2-19.9-0.7c-0.8-4.8-2.7-9.4-5.6-13.3L245,419.5z"/>
		<circle class="st17" cx="231.9" cy="403.8" r="25.6"/>
		<path class="st0" d="M264.7,582.2l-0.3,0.1c-27.5,5.7-62-23-62-23c1-1.6,1.7-3.2,2.4-4.9c1-1.5,1.6-2.4,1.6-2.4l57.9,23l0.2,2.3
			L264.7,582.2z"/>
		<path class="st1" d="M257.5,449c0,0-36.7-22.3-48.5-13.1l-16.4,21c0,0-10.5,3.3-8.5,24.3l-7.8,38.1l23.6,5.9
			c0,0,13.8,13.1,2.6,32.1c0,0,34.7,28.8,62.3,23l-2-30.8c0,0-5.9-17.1,4.6-32.8c10.5-15.8,0.7-30.8-9.1-36.7
			C258.1,479.9,253.6,454.9,257.5,449z"/>
		<path class="st17" d="M259.4,582.8c0,0,13.8,2.6,20.4,13.1c1.9,3.1,4.2,6,6.9,8.5c2.1,2,2.3,5.2,0.3,7.4c-0.3,0.3-0.7,0.7-1.1,0.9
			c-5.2,3.1-13.7,5.1-24.4-3.7C243,593.9,259.4,582.8,259.4,582.8z"/>
		<path class="st0" d="M239.1,461.4c0,0-13.1-1.3-16.4,32.8c-3.2,34.1-8.5,42-8.5,42s-3.3,17.7,4.5,28.2c7.8,10.5,23,32.9,23,32.9
			s16.4,4.6,19.7-11.8L241,547.4c0,0-3.3-13.1,4.6-22.3C253.6,516,259.4,454.9,239.1,461.4z"/>
		<path class="st1" d="M240.4,459.5c0,0-13.1-1.3-16.4,32.8s-8.5,42-8.5,42s-3.3,17.8,4.6,28.2c7.9,10.4,23,32.8,23,32.8
			s16.4,4.6,19.7-11.8l-20.4-38.1c0,0-3.3-13.1,4.6-22.3C254.9,513.9,260.7,453,240.4,459.5z"/>
		<path class="st0" d="M251.2,484.1c0,0,1.3,20.4-4.6,31.5c-5.9,11.1-5.9,25.6,0,33.4"/>
		<path class="st0" d="M254.5,459.1c0,0-5.2-5.2-20.4-5.9s-21.7-5.2-21.7-5.2"/>
		<path class="st0" d="M218,370.7c-4,0.5-8.5,1.8-10,5.6c-0.5,1.4-0.5,2.9-0.9,4.4c-1.5,5.7-7.9,8.4-11.9,12.8
			c-3.5,3.8-5.1,9.1-6.2,14.2c-3.3,14.6-4.1,29.7-2.4,44.5c1.3,10.9,3.9,21.6,4.6,32.5c0.7,10.9-0.6,22.5-6.6,31.6
			c-2.6,3.9-5.9,7.4-7.7,11.8c3.7,3,9,3.5,13.8,3.7c5.7,0.2,11.3,0.2,16.9,0c3-0.1,6.1-0.3,8.6-1.8c1.9-1.2,3.5-2.9,4.5-4.9
			c3.2-5.5,4-12.1,3.9-18.4c-0.1-6.3-1.1-12.6-1.3-19.1c-0.1-3.5,0.2-7.1,2.2-10c1.4-2.1,3.7-3.4,5.5-5.1c7.1-6.2,9.4-16.2,9.7-25.6
			c0.3-9.4-1.3-18.8-0.5-28.1c0.3-3.7,1.7-8,5.3-8.8c1.1-0.3,2.4,0,3.4-0.4c2.9-1.1,2.6-5.2,3.4-8.2c1-3.4,3.8-5.9,4.6-9.3
			c1.9-7.9-8.2-17.4-14.8-20.2C235.4,369.1,225.1,369.8,218,370.7z"/>
		<path class="st19" d="M217.3,369.4c-4,0.5-8.5,1.8-10,5.6c-0.3,1.4-0.7,2.9-0.9,4.4c-1.5,5.7-7.9,8.4-11.9,12.8
			c-3.5,3.8-5.1,9.1-6.2,14.2c-3.2,14.6-4,29.7-2.3,44.6c1.3,10.9,3.9,21.6,4.6,32.5c0.7,10.9-0.6,22.5-6.6,31.6
			c-2.6,3.9-5.9,7.4-7.7,11.8c3.7,3,9,3.5,13.8,3.7c5.7,0.2,11.3,0.2,16.9,0c3-0.1,6.1-0.3,8.6-1.8c1.9-1.2,3.5-2.9,4.5-4.9
			c3.2-5.5,4-12.1,3.9-18.4c-0.1-6.3-1.1-12.6-1.3-19.1c-0.1-3.5,0.2-7.1,2.2-10c1.5-2.1,3.7-3.4,5.5-5.1c7.1-6.2,9.4-16.2,9.7-25.6
			c0.3-9.4-1.3-18.8-0.5-28.1c0.3-3.7,1.7-8,5.3-8.8c1.1-0.3,2.4,0,3.4-0.4c2.9-1.1,2.6-5.1,3.4-8.2c1-3.4,3.7-5.9,4.6-9.3
			c1.9-7.9-8.2-17.4-14.8-20.2C234.8,367.9,224.5,368.5,217.3,369.4z"/>
	</g>
</g>
</svg>
