<?xml version="1.0" encoding="utf-8"?>
<!-- Generator: Adobe Illustrator 19.0.0, SVG Export Plug-In . SVG Version: 6.00 Build 0)  -->
<svg version="1.1" xmlns="http://www.w3.org/2000/svg" xmlns:xlink="http://www.w3.org/1999/xlink" x="0px" y="0px"
	 viewBox="0 0 1000 1000" style="enable-background:new 0 0 1000 1000;" xml:space="preserve">
<style type="text/css">
	.st0{fill:#F2F2F2;}
	.st1{fill:#2F2E41;}
	.st2{fill:#6C63FF;}
	.st3{fill:#3F3D56;}
	.st4{opacity:0.4;fill:#FFFFFF;enable-background:new    ;}
	.st5{fill:#FFB8B8;}
	.st6{opacity:0.1;enable-background:new    ;}
	.st7{fill:#FF6584;}
	.st8{fill:#9F616A;}
	.st9{fill:#575A88;}
	.st10{fill:none;}
	.st11{font-family:'SimHei';}
	.st12{font-size:35px;}
	.st13{fill:none;stroke:#231815;stroke-width:4;stroke-miterlimit:10;}
	.st14{fill:none;stroke:#231815;stroke-width:4;stroke-miterlimit:10;stroke-dasharray:11.8335,11.8335;}
	.st15{fill:none;stroke:#231815;stroke-width:4;stroke-miterlimit:10;stroke-dasharray:12.2785,12.2785;}
	.st16{fill:none;stroke:#231815;stroke-width:4;stroke-miterlimit:10;stroke-dasharray:12.0465,12.0465;}
	.st17{fill:none;stroke:#231815;stroke-width:4;stroke-miterlimit:10;stroke-dasharray:11.576,11.576;}
	.st18{fill:none;stroke:#231815;stroke-width:4;stroke-miterlimit:10;stroke-dasharray:12.1072,12.1072;}
	.st19{fill:none;stroke:#231815;stroke-width:4;stroke-miterlimit:10;stroke-dasharray:11.9899,11.9899;}
</style>
<g id="_x23_background">
	<g>
		<g>
			<g>
				<path class="st0" d="M901.1,518.5l-91.4,43.3l80.9-60.5c-13.1-20.5-27.9-40-44.2-58.1l-396.3,98.5l357.9-136.5
					c-16.3-14.4-33.8-27.7-52-39.6l-603.8,97.3c-64.2,80.1-99.1,179.8-99.1,282.4h909C962.1,665.6,941.1,587.3,901.1,518.5z"/>
				<path class="st0" d="M706.7,337.4c-62-30.2-130.1-45.9-199-45.8c-140.4,0-265.9,63.7-349.3,163.6
					C301.2,424,549.7,369.9,706.7,337.4z"/>
			</g>
		</g>
	</g>
</g>
<g id="_x23_wild_x28_have_x5B_chair_x2C_leaf_x5D__x29_">
	<g>
		<g>
			<g>
				<path class="st1" d="M145.9,650.2c36,66.9,112.7,95.6,112.7,95.6s18.1-79.8-18-146.7s-112.8-95.6-112.8-95.6
					S109.8,583.3,145.9,650.2z"/>
				<path class="st2" d="M170.6,628.2c65.2,39.2,90.3,117.1,90.3,117.1s-80.5,14.3-145.7-24.9S25,603.3,25,603.3
					S105.5,589.1,170.6,628.2z"/>
				<rect x="180" y="478.7" class="st3" width="479.6" height="10.3"/>
				<rect x="180" y="530.1" class="st3" width="479.6" height="10.3"/>
				<rect x="180" y="578.9" class="st3" width="479.6" height="15.4"/>
				
					<rect x="111.2" y="591" transform="matrix(-2.437981e-03 1 -1 -2.437981e-03 857.0218 337.8416)" class="st3" width="297.6" height="10.7"/>
				
					<rect x="425.5" y="591.8" transform="matrix(-2.437981e-03 1 -1 -2.437981e-03 1172.879 24.241)" class="st3" width="297.6" height="10.7"/>
				<polygon class="st1" points="964,747 53.2,747 53.2,745.1 963.1,745.1 				"/>
			</g>
		</g>
	</g>
</g>
<g id="_x23_group_x28_have_x5B_woman_x28_stand_x2C_hold_x5B_balloon_x5D__x29__x2C_man_x28_sit_x29__x5D__x29_">
	<g>
		<g>
			<g>
				<path class="st2" d="M978.8,409.7c-14.3,14.5-49,26-63.5,11.6c-14.5-14.4-3.3-49.1,11-63.6c14.3-14.5,37.8-14.6,52.2-0.2
					C993.1,371.8,993.2,395.1,978.8,409.7L978.8,409.7z"/>
				<path class="st2" d="M915.4,426.3c-0.5-2.6-2.5-4.6-5-5l5-5l5,5L915.4,426.3z"/>
				<path class="st1" d="M917.8,424.2c-2.6-0.8-4.6-2.8-5.5-5.4l1-0.4c0.7,2.2,2.5,3.9,4.7,4.7L917.8,424.2z"/>
				<polygon class="st1" points="807.9,530.1 807.1,529.4 914,422.2 914.7,422.9 				"/>
				
					<ellipse transform="matrix(-0.7102 -0.704 0.704 -0.7102 1396.6781 1341.6755)" class="st4" cx="974.5" cy="383.4" rx="7.8" ry="9.3"/>
				<path class="st2" d="M932,370.1c-9.6,18-39.5,39-57.5,29.4c-18-9.6-17.2-46.1-7.7-64.2c9.6-18,31.9-24.8,50-15.2
					C934.7,329.7,941.6,352.1,932,370.1L932,370.1z"/>
				<path class="st2" d="M875.9,404.4c-1.2-2.4-3.7-3.7-6.3-3.4l3.4-6.3l6.3,3.4L875.9,404.4z"/>
				<path class="st1" d="M877.7,401.5c-2.6,0-5.2-1.4-6.8-3.6l0.9-0.6c1.4,1.9,3.6,3.1,5.8,3.1V401.5z"/>
				<polygon class="st1" points="802.7,534.7 801.8,534.1 873.4,400.7 874.3,401.2 				"/>
				
					<ellipse transform="matrix(-0.8824 -0.4705 0.4705 -0.8824 1569.3478 1084.8246)" class="st4" cx="920.2" cy="346.3" rx="7.8" ry="9.3"/>
				<path class="st2" d="M908.4,470.5c-14.3,14.5-49,26-63.5,11.6s-3.3-49.1,11-63.6c14.3-14.5,37.8-14.6,52.2-0.3
					C922.7,432.6,922.8,456,908.4,470.5L908.4,470.5z"/>
				<path class="st2" d="M844.9,487.1c-0.5-2.6-2.5-4.6-5-5l5-5l5,5L844.9,487.1z"/>
				<path class="st1" d="M847.4,485c-2.6-0.8-4.6-2.8-5.5-5.4l1-0.4c0.7,2.2,2.5,3.9,4.7,4.7L847.4,485z"/>
				
					<rect x="786.3" y="506.9" transform="matrix(-0.7042 0.71 -0.71 -0.7042 1757.8866 282.5189)" class="st1" width="67.6" height="1.1"/>
				
					<ellipse transform="matrix(-0.7102 -0.704 0.704 -0.7102 1233.365 1396.1815)" class="st4" cx="904" cy="444.2" rx="7.8" ry="9.3"/>
				<path class="st1" d="M758.2,314.3c-10.9-18.3-32.3-19.2-32.3-19.2s-20.9-2.6-34.4,25.3c-12.5,26-29.8,51.2-2.7,57.3l4.8-15.1
					l3,16.3c3.8,0.3,7.7,0.4,11.6,0.2c28.9-0.9,56.5,0.3,55.6-10.1C762.6,355.1,768.6,331.9,758.2,314.3z"/>
				<path class="st1" d="M733.3,716.8c-0.9,4.2-2.6,8.2-2.7,12.5s2,9,6.1,10.3c1.9,0.5,4,0.5,5.9,0.1c2.2-0.3,4.5-0.6,6.1-2.1
					c2.3-2,2.6-5.5,2.6-8.6c0.1-15.3-1.7-30.6-3.7-45.7c0-0.3-9.9-0.5-11,0c-2.9,1.4-2.6,4.6-2.6,7.4
					C734,699.3,735.2,708.2,733.3,716.8z"/>
				<path class="st1" d="M665.8,716.8c0.9,4.2,2.6,8.2,2.7,12.5c0.1,4.3-2,9-6.1,10.3c-1.9,0.5-4,0.5-5.9,0.1
					c-2.2-0.3-4.5-0.6-6.1-2.1c-2.3-2-2.6-5.5-2.6-8.6c-0.1-15.3,1.7-30.6,3.7-45.7c0-0.3,9.9-0.5,11,0c2.9,1.4,2.6,4.6,2.6,7.4
					C665.2,699.3,663.9,708.2,665.8,716.8z"/>
				<path class="st5" d="M699.2,481.7c4.8,2.3,10.3,2.6,15.7,2.6c11.9-0.1,23.6-1.8,35-5c2.2-0.5,4.3-1.4,6.2-2.6
					c0.5-0.3,0.9-0.6,1.1-1.2c0.1-0.4,0.1-0.8,0-1.3l-1.8-12.3c0.1-0.8-0.5-1.6-1.4-1.6c-0.2,0-0.4,0-0.5,0c-10,0-20.1,0.6-30.1,1.7
					c-5.1,0.5-10.1,1.3-15.1,2.1c-2.6,0.5-10.4,0.5-11.8,3.4c-0.8,1.7,0.8,4.7,1.2,6.3C698,474.9,698.6,481.4,699.2,481.7z"/>
				<path class="st3" d="M721.7,478.6c-8.5-0.3-16.9-2-24.8-5c-0.4-0.1-0.8-0.3-1,0c-0.1,0.2-0.2,0.3-0.2,0.5l-2,15.4
					c-2.1,16-7.7,31.8-11.3,47.5c-2.3,9.7-4.5,19.3-6.8,28.8c-2.4,9.8-4.8,19.5-8,29.1c-8.6,26.2-22,50.6-39.6,71.8
					c-2,2.5-4.2,5.3-3.8,8.4c0.5,4.1,5,6.2,8.9,7.7c-3.6,1.6-3.4,7.2-0.5,9.9s7.1,3.2,11,3.6l13.3,1.3c3.4,0.4,7,0.6,10.1-0.7
					c2-0.9,3.7-2.5,5.7-3.5c6.9-3.7,15.2-0.1,22.7,2.5c10.3,3.6,21.3,5.3,32.2,5c4.6-0.1,9.9-1.1,12-5.1c0.8-1.6,1-3.4,1.6-5
					c2.1-4.6,7.5-6.5,12-4.4h0.1c3.7,2,5.6,6.6,9.2,8.9c2.9,1.9,6.5,2.2,9.9,2.4l19.6,1.1c1.6-2.8,1.4-6.2-0.5-8.9
					c10.8,0.2,19.7-8.4,19.9-19.2c0.1-4.9-1.6-9.7-4.9-13.3c-2.7-3.1-4.8-6.8-5.9-10.9c-6.4-23.9-6.9-49-12.8-73
					c-1.2-4.8-2.6-9.6-3.3-14.5c-0.9-6.2-0.8-12.5-1.1-18.8c-0.5-14.8-3-29.4-7.4-43.4c-2.9-9.5-6.8-19-13.1-26.6
					c-1.6-2.1-3.6-3.7-5.9-4.9c-2.4-1-5.3-1-7.4,0.5c-1.2,0.9-1.9,2.3-3,3.4c-2.2,2.4-5.5,3.3-8.6,4.2
					C731.7,475.3,728.2,478.8,721.7,478.6z"/>
				<path class="st5" d="M667,475.7c-0.4,2-0.8,4-1.4,6c-2.7,12-5.7,24.1-8.6,36.1c-0.5,2.5-1.3,4.8-2.3,7.1
					c-1.8,3.8-5,6.8-7.1,10.5s-3,8.7-0.3,11.9c1.7,2.1,4.5,2.9,7.1,3.6c2.5,0.6,5.3,1.1,7.5-0.3c2.3-1.5,2.9-4.6,3.2-7.2
					c1.5-11.5,1.8-23.2,4.9-34.3c1.1-3.7,2.5-7.3,3.7-11l8-21.4c2-5.3,4-10.9,4-16.5c0.1-1.1-0.2-2.2-0.9-3
					c-0.5-0.4-0.9-0.5-1.5-0.7c-3.4-1.1-12.1-2-14.4,1.7c-1.1,1.8-0.5,6.1-0.8,8.2C668.1,469.6,667.6,472.7,667,475.7z"/>
				<path class="st5" d="M767.7,462.7c5.3,15.1,11.2,29.9,17.7,44.6c0.8,1.7,1.5,3.6,2,5.4c0.5,1.6,0.6,3.3,0.9,5
					c1.5,8.7,5.7,17.4,13.4,21.8c1.4,0.9,2.9,1.4,4.5,1.4c3.2-0.2,5.4-3.3,6.3-6.3c0.6-2.1,0.7-4.4,0.5-6.6c0-0.5-0.2-1.1-0.5-1.6
					c-0.4-0.4-0.8-0.6-1.4-0.8c-4.7-1.8-9.4-4.5-11.8-8.9c-1-2.2-1.7-4.6-2.1-6.9l-4.6-23.2c-0.5-2.7-1.1-5.5-1.8-8.2
					c-0.6-2.2-1.4-4.4-2.1-6.6l-5-14.4l-3.7-10.6c-0.1-0.8-0.8-1.5-1.7-1.4h-0.1H768C761,445.4,766.4,459.1,767.7,462.7z"/>
				<circle class="st5" cx="719.9" cy="337.3" r="23.5"/>
				<path class="st5" d="M707.6,365.8c-1.4,2.1-3.6,3.4-5.7,4.7c-4,2.6-8.1,4.7-12.5,6.5c-3.9,1.5-8.1,2.4-11.6,4.8
					c-3.6,2.6-5.9,6.6-7.1,10.8c-1.2,4.2-1.6,8.7-1.9,13.1c-0.1,0.9-0.1,1.8,0.2,2.7c0.5,1.3,1.8,2.1,3.2,2.6
					c6.6,2.9,13.9,3.3,21,3.7c14.3,0.5,28.7,0.6,43,0.7c5.6,0.4,11.1-0.5,16.3-2.7l9.9-3.6c1.4-0.5,2.7-1,3.9-1.8
					c4.2-3,4.3-9.1,3-14.1c-1-3.7-2.7-7.6-6-9.7c-1.9-1.1-3.9-1.8-6-2.4c-7-2.2-13.6-5.7-19.3-10.2c-1.4-1-2.6-2.3-3.6-3.7
					c-1.7-2.9-1.6-6.6-1.6-9.9c0.1-1.1-0.2-2.2-0.9-3c-0.7-0.5-1.6-0.7-2.4-0.7c-5.6-0.5-11.3-1-16.8,0.5c-3.4,0.8-3.7,1.1-3.7,4.4
					C709.2,360.8,709,363.6,707.6,365.8z"/>
				<polygon class="st1" points="753.4,312.5 732.1,301.3 702.8,305.9 696.8,332.7 711.8,332.2 716,322.3 716,332 723.1,331.7 
					727.1,316 729.6,332.7 754.4,332.2 				"/>
				<path class="st6" d="M728,413.1c-0.9-14.2-18.3-15.5-18.5-15.5v-0.5c0.2,0,15.7,1.1,18.6,13.1c0.4-4.5,2.2-12.8,9.7-13.1v0.5
					c-9.8,0.5-9.2,15.3-9.2,15.5H728z"/>
				<path class="st7" d="M722.9,408.9L670,398.5c-1-0.4-2.2,0.1-2.6,1.1c0,0.1-0.1,0.3-0.1,0.4l-1.9,4c-1.6,3.1-2.7,6.5-3,9.9
					l-1.2,8.9c-0.1,1.5-0.5,2.9-1.4,4.2c-0.5,0.6-1.3,1.1-2,1.5c-1.8,0.9-3.4,2.1-4.7,3.5c-1.3,1.6-1.9,3.7-0.9,5.6
					c1.5,2.8,5.7,2.7,8,5c2,2.1,1.6,5.7,0.5,8.3c-0.7,1.7-1.8,3.5-1.7,5.4c0.3,2.2,1.6,4,3.6,5c1.9,0.9,4,1.5,6.2,1.6
					c4.6,0.5,9.1,0.5,13.7,0.4c2.3,0,4.6-0.4,6.7-1.3c2.1-1,3.7-3,3.8-5.3c0.1-3.7-4.2-6.8-3.7-10.5c0-0.4,0.2-0.7,0.4-1
					c0.7-0.9,2.2-0.5,3.3-0.8c1.8-0.5,2.6-2.7,2.1-4.6c-0.5-1.8-1.6-3.3-2.5-4.9c-1.6-2.9-2.3-6.2-2-9.5c4.1,1-1.2,4.7-0.6,8.9
					c1.5,10.2,6,21.8,4.2,31.9c-0.3,0.9-0.2,1.9,0.3,2.7c0.4,0.4,0.8,0.6,1.4,0.7c6.8,2.1,13.9-0.7,20.8-2c4.8-0.8,9.8-1.2,14.7-1.1
					c7.2-0.1,14.5,0.2,21.7,0.6c1.8,0.1,3.7,0.3,5.4-0.5c1.6-0.8,2.8-2.8,2.1-4.5c5.7-0.1,11,3.5,16.7,3c6.1-0.5,10.8-5.5,14.8-10.1
					c1.1-1.1,1.9-2.5,2.3-3.9c0.3-1.7-0.5-3.4-1-5c-0.6-1.8-1.1-3.7-1.4-5.7c-0.3-1.2-0.1-2.5,0.4-3.6c0.7-1.3,2.3-1.8,3.1-3
					c1.7-2.4,0.1-5.8-2.2-7.6s-5.3-2.7-7.3-4.9c-2.8-3-3.2-7.4-3.9-11.4c-0.6-3.6-1.6-7.2-4-9.9c-2.4-2.7-6.4-4.3-9.8-2.9
					c-1,0.5-2,1-3,1.6c-2,0.9-4.1,1.6-6.3,2C746.8,403.4,735,411.4,722.9,408.9z"/>
				<path class="st8" d="M644.6,529.6c0,0,27.7,11.5,18.9,18.3c-8.9,6.8-27-8.1-26.4-10.1c0.6-2-2.7-6.8-2.7-6.8L644.6,529.6z"/>
				<path class="st9" d="M620.2,438.9l8.8,8.1l2,23.6l6.8,25c0,0,11.5,23.6,9.5,28.4c-2,4.7,2,6.1,2,6.1l-15.5,6.1
					c0,0-16.9-18.9-16.9-23S620.2,438.9,620.2,438.9z"/>
				<path class="st6" d="M620.2,438.9l8.8,8.1l2,23.6l6.8,25c0,0,11.5,23.6,9.5,28.4c-2,4.7,2,6.1,2,6.1l-15.5,6.1
					c0,0-16.9-18.9-16.9-23S620.2,438.9,620.2,438.9z"/>
				<path class="st9" d="M703.4,702.1c0,0-3.4,15.5-4,16.9s12.9,6.1,12.9,6.1l16.2-11.5c0,0-6.8-14.9-6.8-17.6L703.4,702.1z"/>
				<path class="st1" d="M614.8,530.9l4.7,5.4c0,0,98,12.1,100,31.1s16.2,127.9,8.1,130.6c-8.1,2.7-29,12.9-29,7.4
					c0-5.5-13.5-99.5-10.8-113c0,0-116.9-14.9-119.6-31.8c-2.7-16.9,2.7-24.4,2.7-24.4L614.8,530.9z"/>
				<path class="st6" d="M614.8,530.9l4.7,5.4c0,0,98,12.1,100,31.1s16.2,127.9,8.1,130.6c-8.1,2.7-29,12.9-29,7.4
					c0-5.5-13.5-99.5-10.8-113c0,0-116.9-14.9-119.6-31.8c-2.7-16.9,2.7-24.4,2.7-24.4L614.8,530.9z"/>
				<path class="st1" d="M702,717.6c0,0-2.7-6.1-4-4c-1.3,2.1-6.1,25.6-1.4,25.6c4.7,0,48,10.8,54,9.5c6.1-1.4,17.6,0.6,16.2-6.1
					c-1.4-6.8-8.1-7.4-8.1-7.4s-25-14.9-26.4-22.3s-8.8-3.4-8.8-3.4v4.7C723.6,714.2,709.5,725,702,717.6z"/>
				<path class="st8" d="M573.6,387.6c0,0,4.7,23-5.4,25c-10.1,2,12.9,15.5,12.9,15.5l14.9,8.1l10.8-10.8c0,0-9.8-19.9-2.4-34.8
					C611.7,375.8,573.6,387.6,573.6,387.6z"/>
				<path class="st8" d="M606.7,425.4l-10.8,10.9l-14.9-8.1c0,0-23-13.5-12.9-15.5c6.5-1.3,6.8-11.3,6.3-18.3
					c-0.2-2.3-0.5-4.6-0.9-6.8c0,0,38.1-11.9,30.8,3c-1.1,2.3-1.9,4.7-2.3,7.3C599.8,411.3,606.7,425.4,606.7,425.4z"/>
				<polygon class="st9" points="644.6,701.9 644.6,717.4 670.2,717.4 672.3,711.4 669.6,695.1 				"/>
				<path class="st1" d="M538.4,544.4c0,0,0,39.9,16.2,41.3c16.2,1.4,74.4,8.8,74.4,8.8s3.4,66.3,9.5,87.9c6.1,21.6,0.6,23,6.1,24.4
					s28.4-3.4,27.7-8.1S669,574.1,669,574.1s6.1-25.6-75-37.9L538.4,544.4z"/>
				<path class="st1" d="M646.6,712.7c0,0-4-8.8-4.7-6.1s-8.8,26.4-0.6,28.4c8.1,2,33.8,12.9,50.7,12.1s18.9-1.4,18.9-1.4
					s4.7-6.8-1.4-10.8c-6.1-4-31.1-27.7-32.4-30.4s-11.5-4.7-11.5,0C665.5,709.4,651.3,718.8,646.6,712.7z"/>
				<path class="st6" d="M604.3,396.1c-1.1,2.3-1.9,4.7-2.3,7.3c-3.4,2-5.7,1.6-9.9,1.6c-6.3,0-8.8-8-12.9-12.1
					c-0.3-3.8-5.7,0.4-5.7,0.4S611.8,381.3,604.3,396.1z"/>
				<circle class="st8" cx="591.3" cy="377.7" r="25.9"/>
				<path class="st9" d="M629.1,447.1c0,0-3.4,24.4-5.4,33.1c-2,8.8-4.7,49.4-6.1,54.8s-9.5,6.8-25.6,4.7c-1-0.1-2-0.2-3.1-0.3
					c-9.9-0.3-21.4,3.4-32,6.4c-6.1,1.7-11.9,3.1-17,3.4c-7.7,0.4-9.9-8.2-9.7-17.4c0.3-8.6,2.6-17.8,4.9-21.1
					c4.1-5.8,0.1-58.5,1.6-75.9l0,0c0.3-2.6,0.5-4.5,1.1-5.2c4-5.4,30.4-18.9,33.4-18.3c2.9,0.5,28.1,16.3,28.1,16.3
					c6.1,0,5.9-6.6,5.9-6.6s4.3,7.9,12.3,9.9S629.1,447.1,629.1,447.1z"/>
				<path class="st8" d="M583.9,534.7c0,0,43.5,1.4,35.9,6.6c-7.7,5.2-41.4,9.9-42.1,3.1C577,537.5,583.9,534.7,583.9,534.7z"/>
				<path class="st6" d="M588.8,539.4c0.2,2.6-6.8,8.4-9.1,12.4c-1.3,2.2-11-0.7-22.9-6c-9.2-4.1-18.1-8.9-26.6-14.1
					c0.3-8.6,2.6-17.8,4.9-21.1c4.1-5.8,0.1-58.5,1.6-75.9l0,0c0.4-0.2,0.7-0.4,1.1-0.5h8.1c27.7,12.9-4,68.3-4,68.3
					s41.9,34.5,46,35.8C588.4,538.4,588.7,538.9,588.8,539.4z"/>
				<path class="st9" d="M545.9,430.2h-8.1c0,0-7.4,2-13.5,15.5c-6.1,13.5-28.4,55.4-8.8,71.6c19.6,16.2,61.5,35.1,64.2,30.4
					c2.7-4.7,12.1-12.1,8.1-13.5c-4-1.4-46-35.8-46-35.8S573.6,443.1,545.9,430.2z"/>
				<path class="st1" d="M587.4,365.7c0,0,1.1-15.7,15.1-9.3c14.1,6.4,13.1-11.2,8.9-14.4s-4.1-3.9-19.6-1.8
					c-15.5,2.1-45.5,5.7-35.9,36.8c9.7,31.1,18.5,23.1,18.5,23.1s-7.8-28,0.1-22.7l7.8,5.3l4.1-0.9L587.4,365.7z"/>
			</g>
		</g>
	</g>
</g>
<g id="图层_4">
	<rect x="134.1" y="214.8" class="st10" width="912.5" height="64.3"/>
	<text id="text" transform="matrix(1 0 0 1 134.0819 244.8598)" class="st11 st12">#group(have[woman(stand,hold[balloon]),man(sit)])</text>
	<g>
		<g>
			<polyline class="st13" points="983,742.8 983,748.8 977,748.8 			"/>
			<line class="st14" x1="965.2" y1="748.8" x2="497.8" y2="748.8"/>
			<polyline class="st13" points="491.9,748.8 485.9,748.8 485.9,742.8 			"/>
			<line class="st15" x1="485.9" y1="730.5" x2="485.9" y2="270.1"/>
			<polyline class="st13" points="485.9,263.9 485.9,257.9 491.9,257.9 			"/>
			<line class="st14" x1="503.7" y1="257.9" x2="971.1" y2="257.9"/>
			<polyline class="st13" points="977,257.9 983,257.9 983,263.9 			"/>
			<line class="st15" x1="983" y1="276.2" x2="983" y2="736.7"/>
		</g>
	</g>
	<g>
		<g>
			<polyline class="st13" points="728.5,753.8 728.5,759.8 722.5,759.8 			"/>
			<line class="st16" x1="710.4" y1="759.8" x2="17.7" y2="759.8"/>
			<polyline class="st13" points="11.7,759.8 5.7,759.8 5.7,753.8 			"/>
			<line class="st17" x1="5.7" y1="742.2" x2="5.7" y2="447"/>
			<polyline class="st13" points="5.7,441.2 5.7,435.2 11.7,435.2 			"/>
			<line class="st16" x1="23.8" y1="435.2" x2="716.4" y2="435.2"/>
			<polyline class="st13" points="722.5,435.2 728.5,435.2 728.5,441.2 			"/>
			<line class="st17" x1="728.5" y1="452.8" x2="728.5" y2="748"/>
		</g>
	</g>
	<rect x="332.5" y="769.8" class="st10" width="912.5" height="64.3"/>
	<text id="text_1_" transform="matrix(1 0 0 1 332.5389 799.8489)" class="st11 st12">#wild(have[chair,leaf])</text>
	<g>
		<g>
			<polyline class="st13" points="949,741.2 949,747.2 943,747.2 			"/>
			<line class="st18" x1="930.9" y1="747.2" x2="65.2" y2="747.2"/>
			<polyline class="st13" points="59.2,747.2 53.2,747.2 53.2,741.2 			"/>
			<line class="st19" x1="53.2" y1="729.2" x2="53.2" y2="303.5"/>
			<polyline class="st13" points="53.2,297.6 53.2,291.6 59.2,291.6 			"/>
			<line class="st18" x1="71.3" y1="291.6" x2="937" y2="291.6"/>
			<polyline class="st13" points="943,291.6 949,291.6 949,297.6 			"/>
			<line class="st19" x1="949" y1="309.5" x2="949" y2="735.2"/>
		</g>
	</g>
	<rect x="61.6" y="300.6" class="st10" width="219.9" height="51.2"/>
	<text id="text_2_" transform="matrix(1 0 0 1 61.6045 330.6324)" class="st11 st12">#background</text>
</g>
</svg>
