<?xml version="1.0" encoding="utf-8"?>
<!-- Generator: Adobe Illustrator 19.0.0, SVG Export Plug-In . SVG Version: 6.00 Build 0)  -->
<svg version="1.1" xmlns="http://www.w3.org/2000/svg" xmlns:xlink="http://www.w3.org/1999/xlink" x="0px" y="0px"
	 viewBox="0 0 1000 1000" style="enable-background:new 0 0 1000 1000;" xml:space="preserve">
<style type="text/css">
	.st0{opacity:0.1;enable-background:new    ;}
	.st1{fill:#6C63FF;}
	.st2{opacity:0.1;fill:#6C63FF;enable-background:new    ;}
	.st3{fill:url(#SVGID_1_);}
	.st4{fill:#4C4981;}
	.st5{fill:#AE6E79;}
	.st6{fill:#444053;}
	.st7{fill:#FFFFFF;}
</style>
<g id="_x23_background_1_">
	<g class="st0">
		<g>
			<path class="st1" d="M435.1,74c43.7-16.2,96.9-2.2,142.2,18.1C720,156.1,824,277.6,906.5,401.3c29.9,44.8,58.3,91.6,69.5,141.6
				C999,644.7,939.2,750,837.8,787c-34.5,12.6-72.4,17.7-110.4,20.6c-67.5,5.1-137.4,3.1-204.4-15.9
				c-47.8-13.5-92.9-35.3-136.3-59.4c-121-67.2-231.5-154.5-311.2-261.2c-35-46.6-64.5-99.4-65.4-153.4s34.3-108.2,92.2-117.4
				c23.9-3.8,49.2,0.2,73.9,4.3c36.4,6,73.2,12.3,109.2,9.7c37.1-2.7,85.4-17.2,92.2-52.7C384.7,123.5,391.5,90.3,435.1,74z"/>
		</g>
	</g>
</g>
<g id="_x23_accessory_x28_have_x5B_sign_x2C_leaf_x5D__x29_">
	<g>
		<g>
			<g>
				<g>
					<path class="st1" d="M246.1,805.6c0,0,46.7-2.8,41.2,29.9c0,0,1.1,5.8-4.2,8.4c0,0-0.1-2.4-4.8-1.6c-1.6,0.3-3.4,0.4-5,0.3
						c-2.3-0.2-4.4-1.1-6.2-2.6l0,0c0,0-13.2-5.4-18.2-26.9c0,0-3.8-4.6-3.7-5.9l7.8,3.4c0,0-2.7,5.7-0.6,10.4c0,0,0.3-10.2,1.7-10
						c0.3,0,4.1,1.9,4.1,1.9s-4.6,9.9-1.2,17.1c0,0-1.4-12.2,2.6-16.3l5.5,3.2c0,0-5.4,10.3-1.7,18.6c0,0-1-12.8,2.9-17.8l5,3.9
						c0,0-5.1,10.1-1.9,17c0,0,0.4-14.9,3.1-16.1c0,0,4.4,3.9,5,5.5c0,0-3.5,7.3-1.4,11.1c0,0,1.4-10,2.4-10c0,0,4.4,6.6,4.8,11.1
						c0,0-0.2-6.7-3.8-11.7c0,0,4.3,0.8,6.7,3.5c0,0-0.7-4.6-7.7-5c0,0-3.6-5-4.6-5.3c0,0,7.1-0.6,11.3,1.4c0,0-3.8-4.4-12.7-2.4
						l-4.9-4.1c0,0,9.3-1.3,13.2,0.1c0,0-4.5-3.9-14.6-1.1l-5.4-3.2c0,0,7.9-1.7,12.7-1.1c0,0-5-2.7-14.2,0.2l-3.9-1.7
						c0,0,5.8-1.2,7.5-1.4s1.8-0.7,1.8-0.7c-3.7-0.6-7.4-0.2-10.9,1.2C254.1,809.1,246,806.2,246.1,805.6z"/>
					<ellipse class="st2" cx="278.3" cy="846.8" rx="33.1" ry="5.6"/>
					<path class="st1" d="M183.6,783.7c0,0,26.3-1.5,23.2,16.8c0.3,1.9-0.6,3.9-2.3,4.7c0,0,0-1.4-2.7-0.9c-1,0.2-1.9,0.2-2.9,0.1
						c-1.3-0.1-2.5-0.6-3.5-1.5l0,0c0,0-7.3-3.1-10.3-15.2c0,0-2.1-2.6-2-3.3l4.4,1.9c0,0-1.5,3.2-0.3,5.9c0,0,0.1-5.8,1-5.6
						c0.2,0,2.3,1.2,2.3,1.2s-2.6,5.6-0.7,9.7c0,0-0.8-6.9,1.5-9.2l3.1,1.8c0,0-3,5.8-1,10.4c0,0-0.5-7.3,1.6-10.1l2.8,2.2
						c0,0-2.9,5.7-1.1,9.6c0,0,0.2-8.4,1.7-9c0,0,2.5,2.2,2.9,3.1c0,0-1.9,4.2-0.8,6.3c0,0,0.8-5.6,1.4-5.6c0,0,2.4,3.7,2.7,6.3
						c-0.1-2.3-0.9-4.6-2.1-6.6c1.5,0.3,2.7,1,3.8,1.9c0,0-0.4-2.6-4.4-2.9c0,0-2-2.8-2.6-3c0,0,4-0.3,6.4,0.8c0,0-2.1-2.5-7.2-1.4
						l-2.8-2.3c0,0,5.2-0.7,7.4,0.1c0,0-2.5-2.2-8.2-0.6l-3-1.8c2.3-0.5,4.7-0.7,7.2-0.6c0,0-2.8-1.5-8,0.1l-2.1-1
						c0,0,3.3-0.7,4.3-0.8s1-0.4,1-0.4c-2-0.4-4.3-0.1-6.2,0.7C188,785.7,183.5,784,183.6,783.7z"/>
					<ellipse class="st2" cx="201.7" cy="806.8" rx="18.7" ry="3.2"/>
					<path class="st1" d="M830.9,801.4c0,0,31.7-1.9,28,20.3c0.4,2.3-0.8,4.6-2.8,5.7c0,0-0.1-1.6-3.3-1.1c-1.2,0.2-2.3,0.3-3.5,0.2
						c-1.5-0.1-3-0.7-4.3-1.7l0,0c0,0-8.9-3.7-12.4-18.3c0,0-2.6-3.2-2.4-4l5.3,2.3c0,0-1.8,3.9-0.4,7.1c0,0,0.2-7,1.2-6.8
						c0.2,0,2.8,1.4,2.8,1.4s-3.2,6.8-0.8,11.6c0,0-0.9-8.3,1.7-11.1l3.8,2.2c0,0-3.7,7-1.2,12.7c0,0-0.7-8.7,1.9-12.1l3.4,2.7
						c0,0-3.5,6.9-1.4,11.6c0,0,0.3-10.2,2.1-10.9c0,0,3,2.6,3.5,3.7c0,0-2.4,5-0.9,7.6c0,0,0.9-6.8,1.6-6.8c0,0,3,4.4,3.3,7.5
						c-0.1-2.8-1.1-5.6-2.6-7.9c1.7,0.3,3.3,1.2,4.5,2.3c0,0-0.5-3.2-5.3-3.5c0,0-2.4-3.4-3.1-3.6c0,0,4.8-0.4,7.7,0.9
						c0,0-2.6-3-8.6-1.6l-3.4-2.7c0,0,6.3-0.9,9,0.1c0,0-3.1-2.6-10-0.7l-3.7-2.2c0,0,5.4-1.2,8.6-0.8c0,0-3.4-1.8-9.7,0.2l-2.6-1.2
						c0,0,4-0.8,5.1-0.9c1.2-0.1,1.3-0.5,1.3-0.5c-2.5-0.4-5-0.1-7.4,0.8C836.4,803.8,830.8,801.8,830.9,801.4z"/>
					<ellipse class="st2" cx="852.8" cy="829.4" rx="22.4" ry="3.8"/>
				</g>
			</g>
		</g>
		<g>
			<g>
				<g>
					<path class="st2" d="M281.9,432h-17.2v-17h17.2V432z M281.8,406.4H265c0-26.4,25.1-24.9,25.1-41.6c0-9.2-7.5-16.6-16.7-16.6
						l0,0c-9.2,0.2-16.5,7.6-16.7,16.8H240c0.2-18.5,15.4-33.3,33.8-33.1c18.1,0.2,32.7,14.7,33.1,32.8
						C306.8,385.7,281.8,388,281.8,406.4L281.8,406.4z"/>
					<path class="st2" d="M412.6,550.4h-17.2v-17h17.2V550.4z M412.4,524.7h-16.7c0-26.4,25.1-24.9,25.1-41.6
						c0-9.2-7.5-16.6-16.7-16.5l0,0c-9.2,0.2-16.6,7.6-16.8,16.8h-16.7c0.2-18.5,15.4-33.3,33.8-33.1c18.1,0.2,32.7,14.7,33.1,32.8
						C437.4,504,412.4,506.5,412.4,524.7z"/>
					<path class="st2" d="M492.1,340.8h-12.5v-12.3h12.5V340.8z M491.9,322.2h-12.1c0-19.1,18.2-18,18.2-30.2
						c0-6.7-5.4-12.1-12.1-12l0,0c-6.7,0.1-12,5.5-12.1,12.2h-12.1c-0.1-13.4,10.7-24.3,24.2-24.4c13.4-0.1,24.3,10.7,24.4,24.2
						C510.1,307.2,491.9,309,491.9,322.2z"/>
					<path class="st2" d="M705.6,358.1h-7.1v-7h7.1V358.1z M705.5,347.7h-6.9c0-10.8,10.3-10.2,10.3-17c0-3.8-3-6.8-6.8-6.8H702
						c-3.8,0.1-6.8,3.1-6.9,6.9h-6.9c0.2-7.5,6.5-13.5,14-13.4c7.3,0.2,13.2,6,13.4,13.2C715.7,339.2,705.5,340.1,705.5,347.7z"/>
					<path class="st2" d="M813.7,674.8h-7.1v-7h7.1V674.8z M813.6,664.4h-6.9c0-10.8,10.3-10.2,10.3-17c0-3.8-3.1-6.8-6.9-6.8
						c-3.8,0.1-6.8,3.1-6.9,6.9h-6.9c0.2-7.5,6.5-13.5,14-13.4c7.3,0.2,13.2,6,13.4,13.2C823.9,655.9,813.6,656.8,813.6,664.4
						L813.6,664.4z"/>
				</g>
			</g>
		</g>
	</g>
</g>
<g id="_x23_woman_x28_stand_x2C_hold_x5B_sign_x5D__x29__1_">
	<g>
		<g>
			<g>
				<ellipse class="st2" cx="700.1" cy="861.6" rx="99.2" ry="9.8"/>
				
					<linearGradient id="SVGID_1_" gradientUnits="userSpaceOnUse" x1="782.2323" y1="1259.0122" x2="782.2323" y2="806.0024" gradientTransform="matrix(1 0 0 1 -98.04 -392.89)">
					<stop  offset="0" style="stop-color:#808080;stop-opacity:0.25"/>
					<stop  offset="0.54" style="stop-color:#808080;stop-opacity:0.12"/>
					<stop  offset="1" style="stop-color:#808080;stop-opacity:0.1"/>
				</linearGradient>
				<path class="st3" d="M799.3,566.6c-0.6-3.4-1-6.9-1.1-10.3c0-4.2-5.6-7.8-5.6-7.8s-3.5-8-5.8-9.3s-9.5-11.7-9.5-11.7
					c-0.1-2.1-0.9-4.1-2.1-5.7c-2.1-2.8-4.1-5.8-5.9-8.9l0,0c-1-1.2-0.5-2-1.9-8.9c-0.1-0.4-0.2-0.7-0.3-1.1c0-0.2-0.1-0.3-0.2-0.5
					c3.1-3.2,4.2-7.8,2.7-12c-0.3-0.8-0.8-1.5-1.4-2.1c-1.6-1.4-4.3-0.8-5.9-2l1.7-7.9c0.4-1.9,0.7-4.4-1.1-5.4
					c-0.7-0.3-1.3-0.5-2-0.7c-2.9-1-4.5-4.1-5.3-7c-0.7-2.8-1-5.8-0.6-8.7c0.3-2.8,1.2-5.5,1.5-8.3c0.6-5.2-0.7-10.4-3.6-14.8
					c-1.1-1.9-2.7-3.5-4.6-4.4c-1.7-0.8-3.9-1-5.5-1.9c-3.6-2.3-3.4-7.7-6.3-10.8c-2.9-3.1-7.9-3.1-12.2-2
					c-4.2,1.1-8.3,2.9-12.7,2.4c-2.8-0.3-5.3-1.5-8.1-1.8c-0.8-0.1-1.5,0-2.4,0.1V415c-2,0.4-4,1.5-4.4,3.5c-0.1,0.5-0.2,1-0.1,1.5
					c0,1.2,0.3,2.3,0.3,3.4c0.1,0.9-0.2,1.7-0.8,2.4c-0.6,0.6-1.4,0.9-1.9,1.5c-0.5,0.5-0.8,1.2-0.7,1.7c0,1.7,2.1,3.2,3.6,4h0.1
					c-0.4,0.4-0.8,0.8-1.2,1.2c-4.2,4.6-6.4,10.6-6.4,16.9c0.1,10.3,6.3,19.5,15.7,23.6l-0.2,0.7c-0.4,1.3-0.9,2.4-1.5,3.7
					c-2-0.7-4.3-0.4-6.1,0.7c-2.8,1.9-8.2,1.7-9.6,1.5c-1.4-0.3-16.4-2.2-17.6-1.7c-1.2,0.5-3.6-1.6-5.1,1.2
					c-1.5,2.8-2.3,4.4-3.9,5.1c-1.5,0.8-4.4,3-4,3.4s-4,3.3-4,3.3s-3.7,3.9-5.9,4.4c-2.1,0.5-6.8,3.5-6.8,3.5l-5.3,4.2
					c0,0-4,0.6-2.7-2.1s-2.1-6.2-2.1-6.2s-6.8-13.6-6.8-16.4s-5.5-14.8-5.5-14.8l-0.7-0.1l-0.3-1c-1-2.9-2.3-6.4-3.4-8.4
					c-1.9-3.9-3.1-4.4-3.1-4.4s-23.3-17.5-38.4-12.2c-15.1,5.3,27.6,21.2,31.4,22.9c1.4,0.6,2.3,2.4,3,4.6c-3.4,1.6-6.3,4.3-8.2,7.4
					c0,0,9.3,20.5,9.5,25.6s6.4,19.3,6.4,19.3s2.3,10.5,14.6,10c0,0,17,3.1,20.8,0s7.1-5.6,8.9-6c1.4-0.5,2.5-1.3,3.4-2.4
					c0,0-5.6,35.6-8.4,38.6s-27.2,43-18.5,50.1c7,5.4,14.3,10.3,22,14.5c0.8,0.4,3-3.4,6.2-6c0,0.7,0,1.4,0,2
					c0.1,14.2,1.9,35.8,4.5,40.6c3.9,7.1,2.3,20.9,2.3,20.9c2,1,4.3,1.5,6.5,1.5c0.1,0.5,0.3,1,0.4,1.5c2.1,8,5.5,20.4,7.3,23.7
					c2.6,5,4.5,20.8,4.5,20.8s1.5,15.5,1,17.6c-0.2,0.8,0.8,7.3,2.4,15.5l0,0c-1,11.1-2.8,32.5-3.1,40.3l0,0c0,0.2,0,0.3,0,0.4v0.1
					c0,0.1,0,0.2,0,0.3c0,0.2,0,0.3,0,0.5l0,0c0,0.5,0,1,0.1,1.5c0.1,0.8,0.1,1.5-0.2,2.2c-0.7,2.1-1.5,4.3-2.6,6.2
					c-0.5,1-0.9,1.9-1.2,3c-1,0.4-2.1,1.5-2.8,4c-1.2,4.6-3,17.4-3,17.4s-0.8,7.8-2.1,9.6c-1.4,1.7-2.9,12.9,7.3,14.3
					c10.3,1.5,14.6-5.4,14.6-5.4l-0.4-31v-0.1c0.2-0.3,0.4-0.6,0.5-0.9v-0.1c0.1-0.2,0.2-0.3,0.2-0.5l0.1-0.2l0.2-0.4v-0.1
					c1-3,1.3-6.1,0.9-9.2V813v-0.2c0-0.1,0-0.2,0-0.2v-0.5c0-0.1,0-0.1,0-0.2c0-0.2,0-0.4,0.1-0.7s0-0.1,0-0.1l0.1-0.4v-0.2
					c0-0.1,0-0.3,0.1-0.4V810c0.1-0.5,0.2-1,0.3-1.4v-0.1l0.2-0.5l0,0c0.2-0.5,0.3-1,0.5-1.5v0.1c0-0.2,0.1-0.3,0.2-0.5V806
					c0.2-0.5,0.4-1,0.5-1.4v-0.1l0.2-0.4V804l0.4-0.9l0,0l2.8,8.7c0,0,1.5,6.5,0.8,8s1,7.9,2.1,8l-1.2,8c-0.6,4.4-1,8.9-1.1,13.3
					c-0.1,0.5-0.2,1-0.2,1.3c-0.8,4.2,1.1,10.5,1.1,10.5c9.5,11.2,20.8,0.9,20.8,0.9s1.4-5.9,0-7.1c-1.4-1.2-0.8-5.4-0.8-5.4
					s0.6-10.5,0.7-18.3c0.1-7.7-6.3-14.5-6.3-14.5l-0.4,0.3c-1.2-3-2.5-6.6-2.2-8.1c0.5-2.7-1.4-31.5-1.4-31.5
					c0.7-7.7,0.8-15.5,0.4-23.2l0,0c0.2-1.3,0.3-2.6,0.5-3.9c0.8-6.2,1.4-11.5,1.5-14.2l0,0v0.1c0.1-0.8,0.1-1.3,0.1-1.5
					c0-1,0-2,0.1-3.3c0.2-3.3,0.8-7.1,0.8-7.1l2.5-15.3c0,0,1.9-7.4,4.6-11.6l0.3-0.5l0,0c0.1-0.2,0.2-0.4,0.3-0.6V696
					c0.1-0.2,0.2-0.4,0.3-0.7v-0.1c0.4-0.8,0.8-1.6,1.3-2.6c0-0.1,0.1-0.2,0.1-0.2l0.3-0.8c0-0.1,0.1-0.2,0.1-0.3s0.2-0.5,0.3-0.8
					c0-0.1,0.1-0.2,0.1-0.3c0.1-0.3,0.3-0.6,0.4-0.9l0.2-0.5c0.1-0.2,0.2-0.5,0.3-0.7l0.2-0.6c0.1-0.2,0.1-0.3,0.2-0.5l0.3-0.7
					c0-0.1,0.1-0.2,0.1-0.3c0.7-1.7,1.4-3.4,1.9-4.9l0,0c0.2-0.5,0.4-1,0.5-1.4c6.2,0.4,10.3,0.7,10.3,0.7s1.9-13.8,1.4-23
					c-0.4-6.2,0.8-14,1.5-18.4c0.1-0.5,0.2-0.9,0.2-1.3l0.2,0.1c3,2.4,5.1-5.4,5.1-5.4s-0.8-7.3-1.9-16.1l-0.1-0.9
					c1.7,0.4,3.5,0.7,5.2,0.8c0,0,1-0.1,2.3-0.3c3.7,2.1,7.5,3.9,11.5,5.2l6.4-11.8c1.2-2.4,2.6-4.7,4.2-7c1.9-2.4,8.8-10,8.6-11.4
					c-0.2-1.5,2.3-9.6,4.6-13.2C797.8,574.3,799.4,567.2,799.3,566.6z M772.6,575.6c-2.5,1.1-4.9,7-5,8.8s-2.8,9.6-5.5,10.5
					c-2.5,0.9-7.4,5.3-8.2,6.1c-0.8,0.1-1.7,0.2-2.6,0.3c-1.1-7.4-2.1-13.6-2.8-14.9c-1.9-3.6,2.1-14.9,2.1-14.9s0.4-11.5,2.9-14.2
					s1.9-9.6,1.9-9.6s0.6-2.8,0.9-4.2s3.6,0,3.6,0l0,0c0,0,6.5,3.6,7.4,8.9c1,5.3,8,14.6,8,14.6s-1.1,3.2,0,4.8
					C776.4,573.6,775.1,574.5,772.6,575.6z"/>
				<path class="st4" d="M599,474.4c4.1-6.7,11.6-10.3,19.3-9.1v13.8H610l-6.6-1.6L599,474.4z"/>
				<path class="st0" d="M599,474.4c4.1-6.7,11.6-10.3,19.3-9.1v13.8H610l-6.6-1.6L599,474.4z"/>
				<path class="st5" d="M619,468.9l-10.3,7.2c0,0-0.1-1.5-0.4-3.4c-0.5-3.8-1.6-9.4-4.2-10.4c-3.8-1.6-45.8-17.5-30.9-22.8
					c14.9-5.3,37.8,12.1,37.8,12.1s1.2,0.4,3.1,4.4c1,2,2.3,5.5,3.3,8.4C618.4,466.9,619,468.9,619,468.9z"/>
				<polygon class="st4" points="701.2,480.1 702.4,479.5 705.7,483.2 703,489 698.4,487.1 699.5,482.6 				"/>
				<path class="st6" d="M685.7,815.9c0,0-3-0.4-4.2,4.3c-1.2,4.6-3,17.4-3,17.4s-0.7,7.8-2.1,9.6c-1.5,1.7-2.8,12.9,7.3,14.3
					c10.1,1.5,14.4-5.4,14.4-5.4l-0.4-31L685.7,815.9z"/>
				<path class="st6" d="M720.7,817.3c0,0,6.3,6.8,6.2,14.4c-0.1,7.6-0.7,18.2-0.7,18.2s-0.6,4.3,0.7,5.4c1.3,1.2,0,7.1,0,7.1
					s-11.1,10.3-20.5-0.9c0,0-1.8-6.4-1.1-10.5c0.8-4.2,2.9-22.6,2.9-22.6L720.7,817.3z"/>
				<path class="st5" d="M736.3,675.9c0,0-6.4,17.9-9.1,22s-4.6,11.6-4.6,11.6l-2.5,15.3c-0.5,3.4-0.8,6.9-0.9,10.3
					c0.1,3.4-6.2,53.5-6.2,53.5l-10,12.7c0,0-4.4,8.9-3.7,12.6c0.7,3.7-0.5,9.6-1.9,11.3c0,0-0.2,11.6-0.6,14.2
					c-0.4,2.6,1.3,10,0,11.2c-1.3,1.3-18.7,0.7-19.1-1.5s2.1-12.4,2.1-12.4l1.5-10c0,0,3.1-5.4,2.4-7.3c-0.7-1.8,1.3-5.9,1.5-6.3
					s3.3-6.2,2.7-8.4s3.7-50,3.7-50l12.2-85.5L736.3,675.9z"/>
				<path class="st0" d="M736.3,675.9c0,0-1,2.7-2.3,6.2c-2.1,5.6-5.1,13.2-6.8,15.8c-2.7,4.2-4.6,11.6-4.6,11.6l-2.5,15.3
					c-0.5,3.4-0.8,6.9-0.8,10.3c0,1.4-0.9,10-2,19.9c-1.7,15.2-4.1,33.6-4.1,33.6l-10,12.7c0,0-0.5,1-1.2,2.5
					c-1.3,2.9-3,7.6-2.5,10.1c0.7,3.7-0.5,9.6-1.9,11.3c0,0-0.2,11.6-0.6,14.2c-0.4,2.6,1.3,10,0,11.2c-1.3,1.3-18.7,0.7-19.1-1.5
					s2.1-12.4,2.1-12.4l1.5-10c0,0,3.1-5.4,2.3-7.3c-0.8-1.8,1.3-5.9,1.5-6.3s3.3-6.2,2.7-8.4c-0.5-1.7,1.9-29.7,3.1-43
					c0.4-4.2,0.6-6.9,0.6-6.9l10.4-73.6l0.9-5.9l0.9-6L736.3,675.9z"/>
				<path class="st5" d="M725.7,853.7c0.1,1.3-16.6,3.2-19.1,1.7c-2.4-1.5,0-19.1,0-19.1l1.1-8c-1.2-0.1-2.9-6.5-2.1-8
					c0.8-1.5-0.7-8-0.7-8l-2.8-8.7l-1.7-5.3c-2.8-6.1-6.8-23.5-9.3-36.6c-1.5-8.1-2.6-14.6-2.3-15.4c0.6-2.1-1-17.6-1-17.6
					s-1.9-15.8-4.4-20.7c-1.7-3.3-5.1-15.7-7.2-23.6c-1.1-4.1-1.8-7.1-1.8-7.1s17.9-1.5,28.7-2c5-0.2,8.5-0.3,8,0.1
					s-0.5,2.6-0.5,5.7c0,8.1,1.2,22.4,2.4,26.2c1.6,5.3,3.3,21.3,2.6,22.8s-0.5,11.8-0.5,11.8c1.3,4.2,1.9,8.5,2.1,12.9
					c0.4,7.7,0.3,15.4-0.4,23.1c0,0,1.7,28.7,1.3,31.4c-0.5,2.7,3.8,11.2,3.8,12.9c0,1.6,1.2,12.9,1.2,12.9S725.7,852.5,725.7,853.7
					z"/>
				<path class="st5" d="M735.1,508.3l-2,2.2l-1.4,1.5l-7.7,8.3l-20,2.2l-10.6-2.8l-2.6-0.7c0,0,0-5.3,0.5-11.7
					c0.7-8.2,2.3-18.2,6.2-20.9c1.9-1.5,3.5-3.5,4.5-5.7c0.8-1.5,1.5-3.1,1.9-4.7c0.1-0.2,0.1-0.4,0.2-0.7c0.9-2.9,1.5-5.8,1.8-8.8
					c0,0,2.5-1.5,6.1-3.1c9.3-4.4,25.2-10.3,19.6,3.1c-0.8,1.9-1.5,4-2.1,6c-0.1,0.3-0.2,0.6-0.2,0.9c-1.8,7.4-0.7,11.9,0.8,14.4
					l0,0c0.2,0.4,0.5,0.9,0.8,1.3c0.4,0.5,0.9,1,1.4,1.4l2.3,14.6l0.2,1.2L735.1,508.3z"/>
				<path class="st0" d="M731.7,467.2C730.6,469.7,732.2,465.1,731.7,467.2c-4.3,3-14.1,11.5-19.7,11.5c-3.8,0-4.9-0.7-8.1-2.1
					c1-3.1,1.6-6.2,2.1-9.4C705.9,467.2,739.3,448.7,731.7,467.2z"/>
				<path class="st5" d="M740.2,451.6c0,13.2-10,24.3-23.1,25.6c-0.9,0.1-1.7,0.1-2.7,0.1c-14.2,0-25.8-11.5-25.8-25.8
					c0-14.2,11.5-25.8,25.8-25.8C728.6,425.8,740.2,437.4,740.2,451.6L740.2,451.6z"/>
				<path class="st0" d="M743.9,565.9l-3.7,9.6c0,0-3,0.1-7.6,0.3c-15.8,0.5-50.4,1.2-51.9-2.9c-0.4-1.1-0.5-2.1-0.6-3.2
					c-0.2-6.2,2.7-15.7,2.7-15.7s1.6-19,1.6-19.7c0-0.8-1.5-14.1-1.5-14.1l2.8-10.6l7.9-5.6c0,0,3.6,5.4,5.7,5.9
					c2.1,0.5,4.9,3.1,4.9,3.1s7,4.3,9.2,1.9c2.2-2.4,19.7-12.8,19.7-12.8l9.2,10.2L743.9,565.9z"/>
				<path class="st7" d="M743.9,567.4l-3.7,9.6c0,0-3,0.1-7.6,0.3h-0.5c-2,0.1-4.4,0.1-6.8,0.2c-12.5,0.3-29.7,0.4-38.7-1
					c-3.4-0.5-5.6-1.2-6-2.1c-0.2-0.6-0.4-1.2-0.4-1.7c-0.1-0.5-0.1-1-0.1-1.5c-0.2-6.2,2.7-15.7,2.7-15.7s1.6-19,1.6-19.7
					c0-0.8-1.5-14.1-1.5-14.1l2.8-10.6l5.4-3.8l2.5-1.7c0.9,1.3,1.7,2.4,2.7,3.6c0.8,1.1,1.7,1.8,3,2.3c2.1,0.5,4.9,3.1,4.9,3.1
					s7,4.3,9.2,1.9c1.7-1.8,12.4-8.3,17.2-11.3c1.5-1,2.5-1.5,2.5-1.5l1.3,1.4l8,8.8L743.9,567.4z"/>
				<path class="st0" d="M619,468.9l-10.3,7.2c0,0-0.1-1.5-0.4-3.4c5.1-2.1,8.2-6.9,9.1-8.4C618.4,466.9,619,468.9,619,468.9z"/>
				<path class="st4" d="M655.1,493.4l-2.2-0.6c0,0-3.7,3.9-5.8,4.4s-6.6,3.4-6.6,3.4l-5.2,4.2c0,0-3.9,0.6-2.7-2.1
					s-2.1-6.2-2.1-6.2s-6.6-13.6-6.6-16.4s-5.5-14.8-5.5-14.8s-6.9,13.3-19.4,9.1c0,0,9.1,20.4,9.4,25.5c0.3,5.1,6.3,19.2,6.3,19.2
					s2.2,10.5,14.4,10c0,0,16.8,3.1,20.5,0s7-5.6,8.7-5.9c1.7-0.4,3.3-2.3,3.3-2.3v-14L655.1,493.4z"/>
				<path class="st0" d="M634.1,506.7c0,0,3,11,1.1,12.2L634.1,506.7z"/>
				<path class="st0" d="M732.5,577.1c-15.8,0.5-50.4,1.2-51.9-2.9c-0.4-1.1-0.5-2.1-0.6-3.2l51.4,2.7L732.5,577.1z"/>
				<path class="st0" d="M736.3,675.9c0,0-1,2.7-2.3,6.2c-6.6-0.4-15.2-0.8-23.4-0.9c-2.9,0-5.7,0-8.4,0.1
					c-5.7,0.2-10.6,0.7-13.7,1.5c-4,1.3-8.1,1.7-12.3,1.5c-1.1-4.1-1.8-7.1-1.8-7.1s17.9-1.5,28.7-2l0.9-6L736.3,675.9z"/>
				<path class="st6" d="M750.3,632.6l-2,4.3c0,0-0.3,1.3-0.7,3.3c-0.8,4.4-1.9,12.2-1.5,18.4c0.6,9.1-1.3,22.9-1.3,22.9
					s-43.5-3.7-56.3,0s-19.1,0-19.1,0s1.5-13.7-2.2-20.8c-2.6-4.8-4.4-26.4-4.4-40.6c0-6.6,0.3-11.5,1.2-12.5
					c2.6-3.2,13.7-35.1,13.7-35.1l2.5,0.1l6.8,0.4l38.5,2l6,0.3l0.7,1.9L750.3,632.6z"/>
				<path class="st4" d="M769.4,618.4l0.4,3.8c0,0-19.1-6.2-18.1-13.8s0-6.8,0-6.8l15.3,1.3L769.4,618.4z"/>
				<path class="st0" d="M769.4,618.4l0.4,3.8c0,0-19.1-6.2-18.1-13.8s0-6.8,0-6.8l15.3,1.3L769.4,618.4z"/>
				<path class="st0" d="M646.8,509.8c1.9,1.6,4.3,2.8,6.7,3.5c-0.7-0.2-1.4-0.5-1.9-1c-1.4-1-2.7-2-4-3.1c-1.1-0.9-2.4-2.2-3.7-2.5
					C644.8,507.9,645.7,508.9,646.8,509.8z"/>
				<path class="st0" d="M647.1,514.8c0.6,0.7,1.1,1.5,1.5,2.3c0.6,2.4,0.6,4.9-0.1,7.3l-3.1-7.3c-0.5-1.3-1.1-2.5-1.7-3.7
					c-0.3-0.5-2-2.6-1.8-3.1C642.4,509,646.5,514.1,647.1,514.8z"/>
				<path class="st0" d="M732.4,555.6c2.1-0.3,4.1-1.2,5.6-2.6c-3.1,0.4-6.1,1.6-9.2,2.3c-2.9,0.7-5.9,0.4-8.6-0.8
					C723.7,556.3,728.6,556.3,732.4,555.6z"/>
				<path class="st0" d="M723.5,533.9c-0.6,0.1-1.2-0.1-1.6-0.4c-2.3-1.4-4.6-2.8-7-4.3c-2.2-1.5-4.9-2.9-6.9-4.7
					C712.8,528.8,717.1,532.4,723.5,533.9z"/>
				<path class="st0" d="M730.1,559.1c1.3,0.1,2.5,0,3.7-0.3c1.3-0.3,2.3-1,3-2c-0.5-0.1-0.9,0-1.3,0.2c-3.8,1.5-7.8,2-11.9,1.5
					C725.5,559.2,728,559.1,730.1,559.1z"/>
				<path class="st0" d="M707.6,614c-2.4,0.8-5,1.3-7.5,1.5c-2,0.1-4,0.1-6-0.1l-9.7-0.6l-4.8-0.3c-0.6,0-2.9,0-1.7-1.2
					c0.6-0.6,3.8-0.2,4.6-0.2c1.6-0.1,3.2-0.1,4.8-0.1c3.2,0,6.4,0,9.6,0.2C700.6,613.3,704,613.6,707.6,614z"/>
				<path class="st0" d="M696.4,618.7c-1.6-0.1-3.8,0.9-5.4,1.2c-1.9,0.2-3.8,0.3-5.7,0.2c-3.8-0.1-7.4-0.9-11-2.2
					C681.6,618.2,689.1,618.4,696.4,618.7z"/>
				<path class="st0" d="M675.7,623.9c0.7,0.1,1.5,0.3,2.1,0.6c4.1,1.2,8.4,0.1,12.6-0.9c-1.1,1.5-2.9,2.2-4.7,2.6
					c-3,0.8-6.2,0.9-9.3,0.3c-1-0.2-3.4-0.6-3.9-1.5C671.7,623.5,674.8,623.7,675.7,623.9z"/>
				<path class="st0" d="M698.6,631.4c1.3,0.3,2.4,0.6,3.6,1c4.6,1.2,9.4-0.4,14-1.5c5.5-1.3,11.2-1.7,16.9-1.5
					c-1,0-2.6,0.9-3.7,1.2c-1.3,0.4-2.6,0.8-4,1.1c-2.6,0.7-5.2,1.2-7.9,1.5c-5.4,0.8-10.8,1-16.2,0.7c-2.5-0.1-6.8,0.1-8.9-1.2
					C694.4,631.7,696.5,631.2,698.6,631.4z"/>
				<path class="st0" d="M700.4,485.6c0,0,0.2,10.9-1.5,15.9c-0.6,1.5-1.5,4.4-2.4,7.6c-1.1,3.6-2.1,7.5-3,10.6
					c-0.9,3.1-1.5,5.2-1.5,5.2s-4,32.5-5,48.1c0,0.3,0,0.6-0.1,0.8c-0.1,0.9-0.2,1.7-0.3,2.7c-2.3,15.4-15.6,39.2-20,41
					c-1.4,0.7-2.7,1.5-3.8,2.6c0-6.6,0.3-11.5,1.2-12.5c2.6-3.2,13.7-35.1,13.7-35.1l2.5,0.1c-0.1-0.5-0.1-1-0.1-1.5
					c-0.2-6.2,2.7-15.7,2.7-15.7s1.6-19,1.6-19.7c0-0.8-1.5-14.1-1.5-14.1l2.8-10.6l5.4-3.8c0.7-8.2,2.3-18.2,6.2-20.9
					c1.9-1.5,3.5-3.5,4.5-5.7c0.8,0.1-0.7-0.6-0.7-0.6L700.4,485.6z"/>
				<path class="st4" d="M702.4,479.5c-2-0.7-4.2-0.4-6,0.7c-2.7,1.9-8,1.7-9.5,1.5c-1.5-0.3-16.2-2.2-17.4-1.7s-3.6-1.6-5.1,1.2
					c-1.5,2.8-2.2,4.4-3.8,5c-1.5,0.7-4.3,3-3.9,3.4c0.4,0.4-3.9,3.3-3.9,3.3l8.6,28c0,0-5.6,35.5-8.3,38.6s-26.9,42.9-18.2,50
					c6.9,5.4,14.1,10.3,21.7,14.5c1,0.5,4.4-5.9,9.1-7.9c4.7-2,19.4-28.6,20.3-43.7c0.9-15.1,5.1-48.8,5.1-48.8s5.1-18.5,6.9-23.4
					c1.7-4.9,1.5-15.9,1.5-15.9L702.4,479.5z"/>
				<path class="st0" d="M750.3,632.6l-2,4.3c0,0-0.3,1.3-0.7,3.3c-0.4,0-0.7-0.2-1-0.5c-3-2.4-20.3-20.2-21.2-36.1
					c-0.6-11.7-0.3-21.8-0.1-26.3c0.1-1.5,0.1-2.2,0.1-2.4l0,0c0,0,13.4-16.3,11.9-22.1s-5.1-36.7-5.1-36.7l-0.5-4.1l-0.9-6.9
					l-2.1-16.6l2.2,0.5c0.4,0.5,0.9,1,1.4,1.4l2.3,14.6l8,8.8l1.3,53.6l-3.7,9.6c0,0-3,0.1-7.6,0.3h-0.5L750.3,632.6z"/>
				<path class="st4" d="M757.7,544.2c0,0-3.3-1.3-3.6,0s-0.9,4.2-0.9,4.2s0.6,6.9-1.9,9.6s-2.9,14.2-2.9,14.2s-4,11.3-2.1,14.9
					c0.7,1.3,1.7,7.7,2.8,15.5c0.7,4.8,1.4,10.2,1.9,15c1.1,8.8,1.8,16.1,1.8,16.1s-2.1,7.8-5.1,5.4c-3-2.4-20.3-20.2-21.2-36.1
					c-0.6-11.1-0.4-20.8-0.2-25.5c0.1-2,0.2-3.2,0.2-3.2s13.4-16.3,11.9-22.1s-5.1-36.7-5.1-36.7l-0.6-4.8l-0.7-5.1l-0.2-1.2
					l-2.1-16.4l0,0c0.4,0.1,13.6,3.1,15.4,4.8c1.7,1.7,12.6,4.3,12.6,4.3c3.3,0.9,5.9,3.6,6.7,6.9c0.1,0.3,0.2,0.7,0.3,1.1
					c1.5,6.9,1,7.7,1.9,8.9C767.6,514.9,757.7,544.2,757.7,544.2z"/>
				<path class="st0" d="M751.2,617.5c-4.8-1-12-3.2-11.8-8.1c0.2-4.6,5.7-6.3,9.9-6.9C749.9,607.2,750.6,612.5,751.2,617.5z"/>
				<path class="st5" d="M766.2,615c-0.2,0.4-1,0.8-2,1.1c-2.6,0.6-5.2,1.1-7.8,1.3c0,0-16.4-1.3-16.2-8.8c0.2-5.3,7.6-6.8,11.8-7.1
					c1-0.1,1.8-0.1,2.8-0.1C754.6,601.4,766.9,613.4,766.2,615z"/>
				<path class="st0" d="M766.2,615c-0.2,0.4-1,0.8-2,1.1c-4.3-5.7-10.3-13.1-13.2-13.7l0.9-0.8c1-0.1,1.8-0.1,2.8-0.1
					C754.6,601.4,766.9,613.4,766.2,615z"/>
				<path class="st4" d="M762.1,512.9l4.8,0.7c1.7,3.1,3.7,6,5.8,8.9c1.3,1.6,2,3.6,2.1,5.7c0,0,7.1,10.5,9.4,11.7
					c2.3,1.2,5.7,9.2,5.7,9.2s5.6,3.7,5.6,7.8c0.1,3.5,0.5,6.9,1.1,10.3c0.1,0.6-0.8,7.9-3.2,11.6c-2.4,3.7-4.7,11.8-4.6,13.2
					c0.1,1.5-6.6,9-8.5,11.3c-1.5,2.2-3,4.5-4.2,7l-6.3,11.8c0,0-13.2-19.5-18.1-20.6c0,0,5.4-5.2,8.1-6.2c2.7-1,5.3-8.7,5.4-10.5
					s2.5-7.7,4.9-8.7s3.8-2.1,2.7-3.8c-1.1-1.6,0-4.8,0-4.8s-7-9.2-7.9-14.5c-1-5.3-7.3-8.9-7.3-8.9l-3.7-9L762.1,512.9z"/>
				<path class="st0" d="M779.7,557c2.7-2.2,6-3.6,9.6-3.6c-2.2,0.4-4.6,0.9-6.3,2.4c-0.7,0.7-1.3,1.5-1.7,2.2
					c-0.6,0.8-5.1,6.6-5.8,5.7C774.3,562.4,778.7,557.8,779.7,557z"/>
				<path class="st0" d="M768.9,551.4c1.5-0.1,2.8-1.1,3.4-2.4c0.6-1.4,1-2.7,1.1-4.2c0.4-2.4,0.9-4.8,1.5-7.2c0.4-1,0.3-2-0.2-2.9
					c-0.3-0.8-0.6-1.5-1.1-2.1c-0.9,1-1.2,3.2-1.5,4.5c-0.5,1.6-0.9,3.2-1.3,4.8C770.7,542.8,769,551.4,768.9,551.4z"/>
				<path class="st0" d="M764.8,503.7c-0.5,0.6-1.1,1.2-1.6,1.6c-1.9,1.5-4.5,2.8-4.7,5.2c0.1,0.8,0,1.5-0.3,2.3
					c-0.6,1.1-2.1,1-3.4,0.8c-1.1-0.1-2-0.5-2.8-1.1c-1.3-1.1-1.4-3-2.3-4.4c-1.2-1.5-3-2.2-4.8-2.1c-1.8-0.1-3.6,0.4-5.4,0.4
					c-1.2,0.1-2.3,0-3.5-0.2c-0.4-0.1-0.8-0.1-1.2-0.2c-0.8-0.2-1.6-0.5-2.3-0.8c-0.4-0.2-0.8-0.3-1.2-0.6c-1.3-0.6-2.3-1.4-3.4-2.3
					c-1.7-1.6-3.2-3.9-3.1-6.3c0.1-1.5,0.8-2.8,1-4.4c0.8-4.2-2-8.1-5-11.1c-1.2-1.2-2.5-2.3-3.7-3.6c-1.8-1.7-3.4-3.9-4.4-6.2
					c-0.8-2.5-1.1-5.1-0.8-7.7s0.4-5.3,0.2-7.9c-0.9-9.4-8.9-16.6-16.9-20.5l-0.4-0.2c9.4-10.7,25.6-11.9,36.4-2.5
					c10.7,9.4,11.9,25.6,2.5,36.4c-1.3,1.5-2.6,2.7-4.2,3.9c-0.1,0.3-0.2,0.6-0.2,0.9c-1.8,7.4-0.7,11.9,0.8,14.4l0,0
					c0.4,0.1,13.6,3.1,15.4,4.8c1.7,1.7,12.6,4.3,12.6,4.3C761.3,497.7,763.9,500.4,764.8,503.7z"/>
				<path class="st6" d="M693.1,427.8c0.5-0.6,1.4-1,1.8-1.5c1.6-1.8,0-4.8,0.6-7.2c0.7-2.7,4-3.9,6.7-3.6s5.3,1.5,8,1.8
					c4.3,0.5,8.3-1.4,12.5-2.4c4.2-1.1,9.1-1.2,12,2s2.6,8.5,6.2,10.8c1.6,1.1,3.7,1.2,5.5,1.9c1.9,1,3.6,2.5,4.6,4.4
					c2.8,4.4,4.1,9.6,3.5,14.8c-0.3,2.8-1.2,5.5-1.5,8.3c-0.3,2.9-0.1,5.9,0.6,8.7c0.8,2.9,2.3,6,5.2,7c0.7,0.2,1.4,0.4,1.9,0.7
					c1.6,1.1,1.5,3.5,1.1,5.4l-1.7,7.9c1.6,1.3,4.3,0.7,5.8,2c0.7,0.6,1.1,1.4,1.4,2.1c1.5,4.5,0.2,9.6-3.5,12.7
					c-1.9,1.5-4.5,2.8-4.7,5.2c0.1,0.8,0,1.5-0.3,2.3c-0.6,1.1-2.1,1-3.4,0.8c-1.1-0.1-2-0.5-2.8-1.1c-1.3-1.1-1.4-3-2.3-4.4
					c-1.2-1.5-3-2.2-4.8-2.1c-1.8-0.1-3.6,0.4-5.4,0.5c-4.2,0.2-8.3-1.4-11.4-4.2c-1.7-1.6-3.2-3.9-3.1-6.3c0.1-1.5,0.8-2.8,1-4.4
					c0.7-4.2-2-8.1-5-11.1s-6.6-5.7-8-9.7c-1.8-4.9-0.1-10.4-0.6-15.7c-0.9-9.4-8.9-16.6-16.9-20.5
					C694.1,432.6,691.1,430.3,693.1,427.8z"/>
				<path class="st0" d="M756.4,509.1c-1.3-1.1-1.4-3-2.3-4.4c-1.2-1.5-3-2.2-4.8-2.1c-1.8-0.1-3.6,0.4-5.4,0.5
					c-4.3,0.2-8.3-1.3-11.4-4.2c-1.7-1.6-3.2-3.9-3.1-6.3c0.1-1.5,0.8-2.9,1-4.4c0.8-4.2-2-8.1-5-11.1s-6.6-5.7-8-9.7
					c-1.8-4.9,0-10.4-0.6-15.7c-0.9-9.4-8.9-16.6-16.9-20.5c-1.8-1-4.9-3.3-2.8-5.6c0.5-0.6,1.4-1,1.8-1.5c1.6-1.8,0-4.8,0.6-7.2
					c0.1-0.5,0.3-1,0.6-1.4c-2,0.4-3.9,1.5-4.4,3.5c-0.6,2.4,1.1,5.3-0.6,7.2c-0.6,0.6-1.4,0.9-1.8,1.5c-2.1,2.4,1,4.7,2.8,5.6
					c8,4,16.1,11.1,16.9,20.5c0.5,5.2-1.3,10.7,0.6,15.7c1.5,4,5,6.8,8,9.7c3,2.9,5.8,7,5,11.1c-0.4,1.5-0.8,2.8-1,4.4
					c-0.1,2.4,1.4,4.6,3.1,6.3c3.1,2.8,7.3,4.4,11.4,4.2c1.8-0.1,3.6-0.5,5.4-0.5c1.8-0.1,3.7,0.7,4.8,2.1c1,1.4,1.1,3.3,2.3,4.4
					c0.9,0.6,1.8,1,2.8,1.1c1.2,0.2,2.7,0.3,3.4-0.8c0.2-0.4,0.3-0.9,0.3-1.4C758.1,510,757.1,509.6,756.4,509.1z"/>
				<path class="st1" d="M615.6,451.6h-66.8v-66h66.9L615.6,451.6z M614.6,352.2h-64.9c0-102.4,97.4-96.4,97.4-161.2
					c0-35.7-29.2-64.3-64.9-64.3s-64.9,30.8-64.9,65.3h-64.9c-0.2-71.6,57.7-129.7,129.3-129.8c0.2,0,0.3,0,0.5,0
					C653.9,62.2,712,119.5,712,191C712,272.1,614.6,281.2,614.6,352.2L614.6,352.2z"/>
			</g>
		</g>
	</g>
</g>
</svg>
