<?xml version="1.0" encoding="utf-8"?>
<!-- Generator: Adobe Illustrator 19.0.0, SVG Export Plug-In . SVG Version: 6.00 Build 0)  -->
<svg version="1.1" xmlns="http://www.w3.org/2000/svg" xmlns:xlink="http://www.w3.org/1999/xlink" x="0px" y="0px"
	 viewBox="0 0 1000 1000" style="enable-background:new 0 0 1000 1000;" xml:space="preserve">
<style type="text/css">
	.st0{fill:#F4F4F4;}
	.st1{fill:url(#SVGID_1_);}
	.st2{fill:#6C63FF;}
	.st3{fill:url(#SVGID_2_);}
	.st4{fill:url(#SVGID_3_);}
	.st5{fill:none;stroke:#333333;stroke-width:3;stroke-miterlimit:10;}
	.st6{opacity:0.2;enable-background:new    ;}
	.st7{fill:#F0E4E4;}
	.st8{opacity:0.7;}
	.st9{fill:url(#SVGID_4_);}
	.st10{fill:url(#SVGID_5_);}
	.st11{fill:#333333;}
	.st12{fill:#FDB797;}
	.st13{fill:#3AD29F;}
	.st14{opacity:0.1;}
	.st15{fill:#535461;}
	.st16{fill:#FDA57D;}
	.st17{opacity:0.1;enable-background:new    ;}
	.st18{fill:#E0E0E0;}
	.st19{fill:#4D8AF0;}
	.st20{fill:#252A62;}
	.st21{fill:#3A68B4;}
	.st22{fill:#3E3F49;}
	.st23{fill:#FFFFFF;}
	.st24{fill:#72351C;}
	.st25{fill:#F55F44;}
	.st26{fill:none;stroke:#000000;stroke-width:4;stroke-miterlimit:10;}
	.st27{fill:none;stroke:#000000;stroke-width:4;stroke-miterlimit:10;stroke-dasharray:12.0343,12.0343;}
	.st28{fill:none;stroke:#000000;stroke-width:4;stroke-miterlimit:10;stroke-dasharray:11.9475,11.9475;}
	.st29{fill:none;}
	.st30{font-family:'SimHei';}
	.st31{font-size:35px;}
	.st32{fill:none;stroke:#000000;stroke-width:4;stroke-miterlimit:10;stroke-dasharray:12.1221,12.1221;}
	.st33{fill:none;stroke:#000000;stroke-width:4;stroke-miterlimit:10;stroke-dasharray:11.8338,11.8338;}
</style>
<g id="_x23_park_x28_have_x5B_cloud_x2C_tree_x2C_hill_x5D__x29_">
	<g>
		<g>
			<path class="st0" d="M483.4,179.8c-3.9,0-8.2,0-11.2,0.2c-1.3,0.1-2.6,0.3-3.9,0.8l-20,7.3c16.1,0.5,32.9,0.2,49.5,0.1l92.8-0.7
				c9.4-0.1,19.4-0.1,27.3-0.7c5.3-0.3,9.2-0.9,14.1-1.4c17.5-1.6,43.2-1.3,66-1.2c22.8,0.1,50.4-0.5,58.5-2.8h-49.1
				c-5.3,0-10.8,0-15.5-0.2c-5.4-0.3-8.8-0.9-13.6-1.4c-7.9-0.7-18.9-0.8-29.1-0.8C593.4,178.8,538.1,180.1,483.4,179.8z"/>
			
				<linearGradient id="SVGID_1_" gradientUnits="userSpaceOnUse" x1="652.0251" y1="539.95" x2="652.0251" y2="366.3997" gradientTransform="matrix(1 0 0 1 -176.17 147.58)">
				<stop  offset="0" style="stop-color:#808080;stop-opacity:0.25"/>
				<stop  offset="0.54" style="stop-color:#808080;stop-opacity:0.12"/>
				<stop  offset="1" style="stop-color:#808080;stop-opacity:0.1"/>
			</linearGradient>
			<path class="st1" d="M68.3,687.4c0,0,41.3-187.7,164.1-138.2s289.3,23.6,307.1,13s236.2-101.6,301.2-2.3s36.6,127.6,36.6,127.6
				L68.3,687.4z"/>
			<path class="st2" d="M78.5,685.2c0,0,40.3-183.1,160.1-134.8s282.2,23,299.5,12.7c17.3-10.4,230.4-99.1,293.7-2.3
				s35.7,124.4,35.7,124.4H78.5z"/>
			
				<linearGradient id="SVGID_2_" gradientUnits="userSpaceOnUse" x1="1030.0508" y1="335.5234" x2="1030.0508" y2="-72.1201" gradientTransform="matrix(1 0 0 1 -176.17 147.58)">
				<stop  offset="0" style="stop-color:#808080;stop-opacity:0.25"/>
				<stop  offset="0.54" style="stop-color:#808080;stop-opacity:0.12"/>
				<stop  offset="1" style="stop-color:#808080;stop-opacity:0.1"/>
			</linearGradient>
			<path class="st3" d="M983.1,312.2c9.6-24.2,8.4-51.3-3.1-74.6c-8.5-17-22.2-31.1-29.7-48.6c-4.4-10.1-6.5-21.1-9.9-31.6
				c-11.1-32.6-35.2-59.1-66.6-73.1c-15.3-6.8-32.3-10.4-48.8-8.1c-26.8,3.7-49.3,22.1-67.1,42.4c-26,29.5-46.4,68.9-37.5,107.1
				c6,25.8,24.5,47.5,30.8,73.3c8.1,33.4-5.5,68.5-1.2,102.6c4,31.6,24.6,59.7,52.5,74.5c31.8,17,76-0.8,107.8-12
				c13.6-4.7,28-11.2,35-23.8c9.2-16.7,2.1-37.5,4.4-56.6C952.6,357.4,973.2,336.8,983.1,312.2z"/>
			
				<linearGradient id="SVGID_3_" gradientUnits="userSpaceOnUse" x1="325.0389" y1="330.8011" x2="325.0389" y2="-76.8425" gradientTransform="matrix(1 0 0 1 -176.17 147.58)">
				<stop  offset="0" style="stop-color:#808080;stop-opacity:0.25"/>
				<stop  offset="0.54" style="stop-color:#808080;stop-opacity:0.12"/>
				<stop  offset="1" style="stop-color:#808080;stop-opacity:0.1"/>
			</linearGradient>
			<path class="st4" d="M245.4,184.2c-4.4-10.1-6.5-21.1-9.9-31.6c-11.1-32.6-35.2-59.1-66.6-73.1c-15.3-6.8-32.3-10.4-48.8-8.1
				c-26.8,3.7-49.3,22.1-67.3,42.4c-26,29.5-46.4,68.8-37.5,107.1c6,25.8,24.5,47.5,30.8,73.3c8.1,33.4-5.5,68.5-1.3,102.6
				c4,31.6,24.6,59.7,52.5,74.5c31.8,17,76-0.8,107.8-12c13.6-4.7,28-11.2,35-23.8c9.2-16.7,2.2-37.5,4.4-56.6
				c3.1-26.4,23.7-47,33.6-71.6c9.6-24.2,8.4-51.3-3.1-74.6C266.6,215.9,252.9,201.7,245.4,184.2z"/>
			<path class="st2" d="M744.6,398.9c-4.3-33.4,9.1-67.7,1.2-100.4c-6.1-25.2-24.2-46.3-30.2-71.6c-8.8-37.5,11.3-76,36.7-104.8
				c17.5-19.8,39.5-37.9,65.8-41.5c16.2-2.3,32.8,1.3,47.8,7.8c30.8,13.8,54.4,39.7,65.2,71.6c3.5,10.3,5.4,21,9.7,30.9
				c7.3,17.2,20.7,31,29,47.6c11.3,22.8,12.3,49.3,3,73c-9.7,24.1-29.9,44.3-32.9,70.1c-2.2,18.7,4.8,38.9-4.3,55.4
				c-6.8,12.3-21,18.7-34.3,23.3c-31,10.8-74.4,28.3-105.5,11.7C768.7,457.3,748.5,429.8,744.6,398.9z"/>
			<path class="st5" d="M831.6,422.6c0,0,45.7-18.4,51.5-28.8c5.8-10.4,13.8-71.4,13.8-71.4"/>
			<line class="st5" x1="831.2" y1="704.8" x2="831.2" y2="307.6"/>
			<path class="st2" d="M54.6,394.3c-4.3-33.4,9.1-67.7,1.2-100.4c-6.1-25.2-24.2-46.3-30.2-71.6c-8.8-37.5,11.3-76,36.7-104.8
				c17.6-19.9,39.6-37.9,65.9-41.5c16.2-2.3,32.8,1.3,47.8,7.8c30.8,13.8,54.4,39.7,65.2,71.6c3.5,10.3,5.4,21,9.7,30.9
				c7.4,17.2,20.7,31,29,47.6c11.3,22.8,12.3,49.3,3,73c-9.7,24.1-29.9,44.3-32.9,70.1c-2.2,18.5,4.8,38.9-4.3,55.4
				c-6.8,12.3-21,18.7-34.3,23.3c-31,10.8-74.4,28.3-105.5,11.7C78.8,452.7,58.6,425.2,54.6,394.3z"/>
			<path class="st6" d="M54.6,394.3c-4.3-33.4,9.1-67.7,1.2-100.4c-6.1-25.2-24.2-46.3-30.2-71.6c-8.8-37.5,11.3-76,36.7-104.8
				c17.6-19.9,39.6-37.9,65.9-41.5c16.2-2.3,32.8,1.3,47.8,7.8c30.8,13.8,54.4,39.7,65.2,71.6c3.5,10.3,5.4,21,9.7,30.9
				c7.4,17.2,20.7,31,29,47.6c11.3,22.8,12.3,49.3,3,73c-9.7,24.1-29.9,44.3-32.9,70.1c-2.2,18.5,4.8,38.9-4.3,55.4
				c-6.8,12.3-21,18.7-34.3,23.3c-31,10.8-74.4,28.3-105.5,11.7C78.8,452.7,58.6,425.2,54.6,394.3z"/>
			<path class="st5" d="M141.6,418c0,0,45.7-18.4,51.5-28.8c5.8-10.4,13.8-71.4,13.8-71.4"/>
			<line class="st5" x1="141.3" y1="700.2" x2="141.3" y2="302.9"/>
			<path class="st0" d="M303.5,128.9c-2.3,0-4.8,0-6.7,0.1c-0.8,0-1.6,0.2-2.3,0.3l-12,3.6c9.7,0.2,19.7,0.1,29.5,0.1l55.4-0.3
				c5.6,0,11.5-0.1,16.2-0.3c3.1-0.2,5.5-0.5,8.4-0.7c10.5-0.8,25.8-0.7,39.4-0.6c13.6,0.1,30.2-0.2,34.9-1.4h-29.3
				c-3.1,0-6.5,0-9.2-0.1c-3.2-0.1-5.2-0.5-8.1-0.7c-4.7-0.3-11.3-0.3-17.4-0.3C369,128.5,336.1,129,303.5,128.9z"/>
			<path class="st0" d="M328.8,234.9c-2.3,0-4.8,0-6.7,0.1c-0.8,0-1.6,0.2-2.3,0.5l-12,3.6c9.7,0.2,19.7,0.1,29.5,0.1l55.4-0.3
				c5.6,0,11.6-0.1,16.2-0.3c3.1-0.2,5.5-0.5,8.4-0.7c10.5-0.8,25.8-0.7,39.4-0.6s30.2-0.2,34.9-1.4h-29.3c-3.1,0-6.5,0-9.2-0.1
				c-3.2-0.1-5.2-0.5-8.1-0.7c-4.7-0.3-11.3-0.3-17.4-0.5C394.3,234.4,361.4,235,328.8,234.9z"/>
			<path class="st7" d="M167.2,696.7c0,0,47.2-153.9,86.4-104.1s175.1,27.2,200.4,24.9c25.3-2.3,350.1,79.2,350.1,79.2H167.2z"/>
		</g>
	</g>
</g>
<g id="_x23_group_x28_have_x5B_woman_x28_stand_x29__x2C_man_x28_stand_x29__x5D__x29_">
	<g>
		<g>
			<path class="st7" d="M200.6,839.6c14.2,0.9,29.1,5.9,42-0.1c3.3-1.5,6.3-3.7,9.8-5c7.9-2.9,16.7-0.1,24.6,2.5
				c62.5,20.7,126.9,35.7,192.2,44.8c13.5,1.8,27.5,3.5,40.3-0.9c9.3-3.2,17.5-9.3,26.7-12.8c15.2-5.6,31.9-3.6,48.1-2.6
				c42.3,2.3,84.7-4.1,124.4-19l2.1-0.8c20-7.7,42.7-4.7,60,8.1c6.8,5,13.9,9.3,21.4,13c25.2,12.7,35.7,43.2,23.7,68.8l-0.2,0.6
				c-6.6,14.4-12.1,30.4-25,39.5c-12.2,8.6-28.1,9-43.1,9l-91.5,0.2c-9.4,0-19.1,0-28.3-2.2c-8.3-2.1-16-5.9-23.6-9.7l-40.9-20.4
				c-16.5-8.2-34.6-16.6-52.6-12.9c-18.4,3.8-31.7,19.4-47.8,29.1c-24.9,15.2-58.1,15.8-83.5,1.5c-12.2-6.8-22.8-16.8-36.1-21.1
				c-22-7.1-45.3,2.8-67.8,7.5c-43.9,9.2-95.7-3.3-129.5-33.7C102.8,884,153.8,836.5,200.6,839.6z"/>
			<g class="st8">
				
					<linearGradient id="SVGID_4_" gradientUnits="userSpaceOnUse" x1="421.0103" y1="397.8764" x2="421.0103" y2="397.7497" gradientTransform="matrix(1 0 0 1 -176.17 147.58)">
					<stop  offset="0" style="stop-color:#808080;stop-opacity:0.25"/>
					<stop  offset="0.54" style="stop-color:#808080;stop-opacity:0.12"/>
					<stop  offset="1" style="stop-color:#808080;stop-opacity:0.1"/>
				</linearGradient>
				<path class="st9" d="M244.8,545.5v-0.2C244.8,545.4,244.8,545.4,244.8,545.5z"/>
				
					<linearGradient id="SVGID_5_" gradientUnits="userSpaceOnUse" x1="693.1014" y1="784.7494" x2="693.1014" y2="115.054" gradientTransform="matrix(1 0 0 1 -176.17 147.58)">
					<stop  offset="0" style="stop-color:#808080;stop-opacity:0.25"/>
					<stop  offset="0.54" style="stop-color:#808080;stop-opacity:0.12"/>
					<stop  offset="1" style="stop-color:#808080;stop-opacity:0.1"/>
				</linearGradient>
				<path class="st10" d="M789.4,423.9c-1.6-2.6-5.5-3.6-8.9-5c-7.4-3-12.7-9.3-13.5-16.2c-0.6-4.6,0.7-9.8-2.4-13.7
					c-1.4-1.6-3.5-2.9-5.1-4.3c-3.7-3.1-5.5-7.3-7.3-11.4c-4.7-11.6-8.2-23.6-10.3-35.9c-0.9-5.5-1.6-11.2-4.4-16.2
					c-6.3-11.6-22-17.4-36.9-19.5c-5.9-0.8-12-1.3-17.7,0.1c-5.1,1.4-9.8,3.6-14.1,6.5c-4.5,2.8-8.5,6-12.3,9.6
					c-2.9,2.5-5.1,5.8-6.5,9.3c-1.2,3.5,0.7,5.5,3.8,6.8c-5.5,6.9-8.5,15.7-8.5,24.5c-0.1,16.9,10.8,31.9,26.8,37.2
					c-0.1,1.7-0.6,3.5-1.4,5c-3.7,2.2-17.4,9.1-32.9,5.9c-3.2-0.7-6.3,0.9-9.3,4.1c-14.4,13.8-25.7,63.8-25.7,63.8l-41.9,60.2
					l0.6,0.6l-0.6,0.9l1,1l-34.3,32c-0.1-0.3-0.2-0.7-0.2-0.9l-9.8-14.3v-0.1l0.6-0.2l4.6-21.3l-9.9,2.3l-0.1-0.1l0,0l-0.6-0.8l0,0
					l-38.2-57l-34.8-67.3l0,0l-1-2.1c0,0,0.5,0.8,0.9,1.7v0.1l0.1,0.1v0.1l0.1,0.2l0.1,0.1l0.1,0.1l0.1,0.1v0.1l0.1,0.2v0.1l0.1,0.1
					v0.1l0.1,0.1l0,0l0.1,0.1l0,0l0.1,0.1l0,0l0.1,0.1l0,0l0,0l0,0v-0.1l0,0V411l0,0l-0.1-0.2l0,0l-0.1-0.3v-0.1l-0.1-0.3v-0.1
					l-0.2-0.5v-0.1l-0.2-0.5l-0.1-0.1l-0.2-0.6V408l-0.3-0.7l-0.1-0.2l-0.2-0.7l-0.1-0.2l-0.5-0.9c-5.3-12.2-12.9-18.3-12.9-18.3
					c-15-2.5-29.4-7.4-42.7-14.5v-0.8l-9.9-4.6c-1.6-4.3-3-8.8-4-13.2c17.3-4.4,29.3-20,29.1-37.8c0-0.8,0-1.7-0.1-2.5
					c0.7-0.2,1.4-0.5,2.1-0.9c4-2.8,3-9.4,6.6-12.8c1.6-1.5,4-2.1,5.3-3.9c0.7-1.2,1.2-2.5,1.3-3.8c0.9-5.6,1.2-12.2-3-16
					c-0.3-0.5-0.7-0.8-1.2-1.2c-5.4-4.3-13.5-0.7-20.2-2.3c-2.9-0.7-5.4-2.3-8.1-3.7c-10.6-5.4-23-6.2-34.9-6.2
					c-6,0-12.1,0.2-17.9,1.8c-5.8,1.6-11.3,4.8-14.5,9.9c-1.7,2.9-3,5.9-3.8,9.1c-3.6,12.7-4.7,25.9-3.3,39c0.6,5,1.6,10.3,5.3,13.5
					c0.2,0.2,0.5,0.6,0.8,0.8c2.4,2.1,5.4,3.2,8.6,3.6c2.8,0.3,5.5-0.1,8.1-1.4c0,6.7-0.6,13.5-1.6,20.2c-2.1,1-16.1,8.1-18.3,17.9
					c-7.1,2.9-15.3,6-21.8,8.4c-1.4-0.3-2.8-0.5-4.3-0.1c-25.2,4.6-26.7,31.2-26.7,31.2s-4.6,76.2-10.7,100.7
					c-1.8,8.3-2.2,16.8-1,25.2l0,0v0.2c0.1,0.9,0.2,1.8,0.5,2.8l0,0l0,0c1.4,7.8,3.6,15.5,6.8,22.9c0.2-2.3,1.6-4.3,3.6-5.4l0.1,0.7
					h0.1l3.1,26.8c0,0,9.1,29,15.2,30.5c0.2,0.1,0.6,0.1,0.8,0.1l1.8,7.9l0.2-0.1l6.3,31l11.4,49.5l12.2,144.1h4.4l-2.9,18.3
					c0,0-38.9,48.8-27.5,55.6s29,9.9,45.7-16c2.3-6.1,5.9-11.5,10.7-16c3.8-3.3,5.8-8.3,5.3-13.4l-2.9-28.6h3.7l-0.1-0.3h0.1
					c-2.9-10-4.4-20.4-4.5-30.9c0-4.6,0.5-9.2,1.5-13.7c2.8-12.3,3.3-33.4,3.3-48.3c0-9-0.2-15.9-0.2-17.4l9.1-82.2
					c0,0,13.7,82.4,19.8,89.3l16,99.9l6.5,0.7l-3.3,21.4c0,0-38.9,48.8-27.4,55.6s29,9.9,45.7-16c2.3-6.1,5.9-11.5,10.7-16
					c3.8-3.3,5.8-8.3,5.3-13.4l-2.9-28.8l2.9,0.3c0,0,0.3-10.8,0.3-25.7c0-26.3-1.2-65.5-8.1-80.7c0,0-2.1-19.1-2.1-40
					c-0.1-10,0.6-19.9,2.1-29.8c2.1-12.4,2.9-34.1,3.2-53.9l1-4.4l-0.9-0.6c0-4.5,0-8.9,0-12.9c0-5.8,0-11.1-0.1-15.3l0.3-0.3
					c1.4-1.2,2.4-2.5,3.2-4c0.8-3.1,1.5-26.7-3.8-43.4c-2.3-7.6-3.7-15.4-4-23.4c0.1-0.2,0.2-0.6,0.2-0.8l-0.2,0.2
					c-0.1-3.1-0.2-6.3-0.1-9.7c0.1-0.5,0.3-0.8,0.5-1.3l-0.5,0.5c0.1-6.9,0.6-14.1,1.2-22c0-0.6,0.1-1.3,0.1-1.8v-0.6
					c0-0.5,0.1-0.8,0.1-1.3v-0.6c0-0.3,0.1-0.8,0.1-1.2v-0.5c0.1-0.6,0.1-1,0.2-1.5v-0.3c0.1-0.5,0.1-0.8,0.2-1.3l0.1-0.5
					c0-0.3,0.1-0.7,0.2-0.9l0.1-0.3c0.1-0.3,0.1-0.7,0.2-1v-0.2c0.1-0.3,0.1-0.8,0.2-1.2v-0.2c0.1-0.3,0.1-0.6,0.2-0.9l0.1-0.2
					l0.2-0.7l0.1-0.2c0.1-0.3,0.2-0.6,0.2-0.9l0,0c0.1-0.2,0.2-0.6,0.3-0.8v-0.1l0.2-0.6l0.1-0.2l0.2-0.6l0.1-0.1
					c0.2-0.5,0.3-0.8,0.6-1.2l0.1-0.1l0.2-0.3l0.1-0.1l0.2-0.3l0.1-0.1l0.2-0.3v-0.1l0.2-0.2c0.3-0.3,0.8-0.6,1.4-0.7
					c1.5,14.5,25.9,38.9,25.9,38.9c2.2,10.4,26.5,42,28.1,44.1l-9.1,6.9l0.1,0.1l-0.9,0.7l22.9,14.5c0.2-0.3,0.3-0.6,0.6-0.8
					l0.1,0.1c0.5-0.8,1-1.5,1.7-2.2c1.8-1.7,3.9-3.2,6.2-4.5c3.7,4.7,5.4,10.6,5.1,16.6c-0.8,16,2.3,38.9,2.3,38.9s4.6,4.6,7.6-10.7
					c0,0,4.1,8.1,8.1,9.6c3.9,1.5,25.1,0,20.6-15.2c0,0-0.5-0.7-1.3-1.8c4-2.9,6.7-7.4,7.3-12.2l29.7-32.8l2.3,2.3
					c0,0,15.2-7.6,30.5-32.8c10.1-16.6,15.5-27.3,18-32.6L619.4,525l-2.3,29.7c0,0-8.5,7.7-8.2,21.8c0,2.1,0.1,4.1,0.5,6.2
					c-4,11.9-7.8,36.3,0.9,81.1l3.8,71L605,845.3l2.5-0.2l1.3,24.6l-1.5,22.9c0,0-7.6,29,10.7,31.2c18.3,2.2,15.3-29.8,15.3-29.8
					v-31.2l-2.3-9.1l-1.5-10.9l18.2-95.1c0,0,6.9-20.6,9.1-29l0.1-0.6v-0.2l0.1-0.5v-0.2l0.1-0.7v-0.1l0.2-0.9v-0.2l0.1-0.8l0.1-0.3
					l0.2-0.9V713l0.2-1.3l0.1-0.3l0.2-1l0.1-0.5l0.2-1.2v-0.3l0.2-1.5l0.1-0.3l0.2-1.3l0.1-0.5l0.2-1.4l0.1-0.3l0.3-1.7l0.1-0.3
					l0.2-1.4l0.1-0.6l0.2-1.3l0.1-0.6l0.3-1.8V695l0.2-1.6l0.1-0.6l0.2-1.4l0.1-0.7l0.3-2v-0.2l0.3-1.8l0.1-0.6l0.2-1.5l0.1-0.6
					l0.7-4l0.1-0.7l0.2-1.5l0.1-0.5l0.3-2.1l0,0l0.3-2.1l0.1-0.6l0.2-1.3l0.1-0.9l0.2-1.5l0.1-0.3l0.3-2l0.1-0.6l0.2-1.3l0.1-0.7
					l0.2-1.5v-0.2l0.3-1.8v-0.1l0,0c1.8-10.8,3.1-18.8,3.1-18.8l6.1,80.9c0,0,0.8,17.5,4.6,22.9l4.6,93.8h0.8l-1.4,11.4l-2.3,9.2v31
					c0,0-3.1,32,15.2,29.7s10.7-31.2,10.7-31.2l-1.5-22.8l1.4-25.9h0.1c0,0,9.1-60.2,9.1-106.8c0-28.7,9-55.1,15.9-71.1
					c3.3,1.6,7.9-0.8,12.4-4.6c9.9-8.3,15.7-20.6,15.8-33.5v-8.3l4.3-35.7c3.7-1.6,6.7-3.9,7.3-6.9c0-0.1,0.1-0.3,0.1-0.6
					c0.3-0.6,0.5-1.2,0.7-1.7c1.6-7-2.9-74.8-5.6-114c4.3,0.1,8.5-0.6,12.4-2.1l-0.6-0.2c0.5-0.1,0.9-0.3,1.4-0.5
					c-5-2.1-8.8-6.2-10.3-11.3c5.4-1.5,10.4-4.4,14.4-8.4c0.7-0.6,1.3-1.3,1.8-2C789.5,430.2,791.1,426.8,789.4,423.9z M278.6,558.3
					c-0.6,10.7-1.4,18.9-2.1,24.8l-1.5-1.8l-2.6-22.7C275.4,558.3,277.8,558.3,278.6,558.3z M275.8,518l3.1-25
					c0.6,17.4,0.7,32.6,0.5,45.4l-3.5-0.6L275.8,518z M746,608.6c-0.9,0.5-1.7,0.9-2.4,1.6c-0.6-5.2-1.6-10.4-3.2-15.3
					c0.2-0.5,0.5-1,0.7-1.6c0.2-0.5,0.3-1,0.5-1.5c0.1-0.2,0.2-0.5,0.3-0.8c4-10.7-1.4-54.4-2.8-64.8h3.5l2.3,58.7
					c0,0,1.5-0.1,3.8-0.3L746,608.6z"/>
			</g>
			<path class="st11" d="M604.1,833.2l1.5,28.1l-1.5,22.2c0,0-7.4,28.1,10.4,30.3s14.7-28.8,14.7-28.8v-30.4l-2.2-8.9l-2.2-16.2
				L604.1,833.2z"/>
			<path class="st11" d="M702.4,830.2l-1.5,28.1l1.5,22.2c0,0,7.4,28.1-10.4,30.3s-14.7-28.8-14.7-28.8v-30.4l2.2-8.9l2.2-16.2
				L702.4,830.2z"/>
			<path class="st12" d="M759,574.3l-5,41.5v7.9c-0.1,12.6-5.6,24.4-15.2,32.5c-5.2,4.4-10.5,7-13.8,3.1c-8.3-9.6,4.1-46.6,14.2-51
				l4.1-37L759,574.3z"/>
			<path class="st13" d="M610.8,573.6c0,0-17,19.2-3.7,88l3.7,68.8l-8.9,107.3l23.7-2.3l17.7-92.5c0,0,6.7-19.9,8.9-28.1
				c2.2-8.2,13.4-74.8,13.4-74.8l5.9,78.4c0,0,0.7,17,4.4,22.2l4.4,91l22.2,1.5c0,0,8.9-58.4,8.9-103.5c0-45.2,22.9-84.3,22.9-84.3
				s9.6-32.5-5.2-61.4C714.3,555.1,610.8,573.6,610.8,573.6z"/>
			<g class="st14">
				<path d="M661,640.2c0,0-11.1,66.6-13.4,74.8c-2.3,8.2-8.9,28.1-8.9,28.1L621,835.4l-19.2,1.8v0.5l23.6-2.2l17.7-92.5
					c0,0,6.7-19.9,8.9-28.1c1.5-5.4,6.8-36.2,10.3-56.6L661,640.2z"/>
				<path d="M729.1,584c-6.7-13-31.6-16.4-56.8-16.1c23.6,0.2,46,3.9,52.3,16.1c14.7,28.8,5.2,61.4,5.2,61.4s-22.9,39.2-22.9,84.3
					c0,43.3-8.2,98.8-8.9,103.3l4.4,0.2c0,0,8.9-58.4,8.9-103.5c0-45.2,22.9-84.3,22.9-84.3S743.9,612.8,729.1,584z"/>
			</g>
			<path class="st11" d="M317.9,839.8l-3.7,23.6c0,0-37.7,47.3-26.6,54c11.1,6.7,28.1,9.6,44.3-15.5c2.2-5.9,5.8-11.3,10.4-15.5l0,0
				c3.7-3.2,5.6-8.1,5.2-13l-3.7-36.5L317.9,839.8z"/>
			<path class="st11" d="M398.5,839.8l-3.7,23.6c0,0-37.8,47.3-26.6,54c11.2,6.7,28.1,9.6,44.3-15.5c2.2-5.9,5.8-11.3,10.4-15.5l0,0
				c3.7-3.2,5.6-8.1,5.2-13l-3.7-36.5L398.5,839.8z"/>
			<path class="st15" d="M276.4,592l13.4,65.9l11.1,48l11.9,139.8h35.6c0,0-7.4-23.6-3-43.7c4.4-19.9,3-63.6,3-63.6l8.9-79.8
				c0,0,13.4,79.8,19.2,86.5l15.5,96.9l36.2,3.7c0,0,3-79.8-7.4-102.9c0,0-4.4-41.5,0-68.1c4.4-26.6,3-96.2,3-96.2L276.4,592z"/>
			<g class="st14">
				<path d="M348.2,738.2l7.5-66.8c-1.4-7.8-2.3-13-2.3-13l-8.9,79.8c0,0,1.5,43.7-3,63.6c-4.4,19.9,3,43.7,3,43.7h3.8
					c0,0-7.4-23.6-3-43.7C349.7,781.9,348.2,738.2,348.2,738.2z"/>
				<path d="M420.6,742.6c0,0-4.4-41.5,0-68.1s3-96.2,3-96.2l-3.7,0.3c0.1,5.2,1.3,70.3-3,95.8c-4.4,26.6,0,68.1,0,68.1
					c9.9,22,7.6,96.6,7.4,102.4l3.7,0.3C428.1,845.4,431,765.5,420.6,742.6z"/>
			</g>
			<path class="st16" d="M334.1,337.6c0,0,3,45.8-14.1,51c0,0-4.4,31.8,22.2,38.5c26.6,6.7,42.2-47.3,42.2-47.3l-5.9-2.2
				c0,0-8.9-20.7-5.9-28.8L334.1,337.6z"/>
			<path class="st12" d="M563.4,536.6l-42.2,39.2l18.4,24.4c0,0,8.2-4.4,8.9-13.4l35.5-39.2L563.4,536.6z"/>
			<path class="st16" d="M494.7,557.3c0,0,11.9,5.9,11.1,21.4c-0.8,15.5,2.2,37.8,2.2,37.8s4.4,4.4,7.4-10.4c0,0,4,7.7,7.7,9.2
				s24.4,0,19.9-14.7c0,0-12.9-18.9-15.9-31.4l-14.7-21.4L494.7,557.3z"/>
			<path class="st17" d="M315.6,390.1l25.1,28.1l51.8-31.1l29.6,202c2.2,2.3,2.2,5.9,0,8.2c0,0-82.8,28.8-132.3,1.5L315.6,390.1z"/>
			<path class="st17" d="M315.6,392.3l25.1,28.1l51.8-31.1l29.7,202c2.2,2.3,2.2,5.9,0,8.2c0,0-82.8,28.8-132.3,1.5L315.6,392.3z"/>
			<path class="st18" d="M315.6,390.9l25.1,28.1l51.8-31.1l29.6,201.9c2.2,2.3,2.2,5.9,0,8.2c0,0-82.8,28.8-132.3,1.5L315.6,390.9z"
				/>
			<path class="st17" d="M283.1,396.8c0,0,34-12.6,45.2-17.7c0,0-16.2,207.8-8.2,227.8c0,0-32.6-6.7-37-12.6c0,0,9.7-50.3,0-154.6
				L283.1,396.8z"/>
			<path class="st19" d="M282.4,396.1c0,0,34-12.6,45.2-17.7c0,0-16.2,207.8-8.2,227.8c0,0-32.6-6.7-37-12.6c0,0,9.7-50.3,0-154.6
				V396.1L282.4,396.1z"/>
			<path class="st16" d="M262.3,558.8l3.7,31.8c0,0,8.9,28.1,14.7,29.6c5.9,1.5,22.2-12.6,22.2-12.6l-20.7-25.9l-4.4-37.8
				L262.3,558.8z"/>
			<path class="st17" d="M517.5,555.9c0,0-19.2,5.2-25.1,14.1l-22.2-14.1l9.6-7.4c0,0-25.1-32.5-27.4-42.8c0,0-23.6-23.6-25.1-37.8
				c0,0-5.9,0.7-7.4,22.2s-2.2,38.5,3,54.7c5.2,16.2,4.4,39.2,3.7,42.2c-0.7,3-23.6,25.1-59.9,28.1l-4.4-217.6l18.1-21.1
				c0,0,17.4,12.2,47,17.4c0,0,7.4,5.9,12.6,17.7c5.2,11.9,0,2.2,0,2.2l34.8,67.3l37.8,56.2l9.6-2.2L517.5,555.9z"/>
			<path class="st17" d="M277.9,544.7l-15.5,14.7l0.6,5.1c4.3-2.8,11.5-3.8,16.8-4.1L277.9,544.7z"/>
			<path class="st19" d="M518.3,555.1c0,0-19.2,5.2-25.1,14.1l-22.2-14.1l9.6-7.4c0,0-25.1-32.5-27.4-42.8c0,0-23.6-23.6-25.1-37.8
				c0,0-5.9,0.7-7.4,22.2s-2.2,38.5,3,54.7c5.2,16.2,4.4,39.2,3.7,42.2c-0.7,3-23.6,25.1-59.9,28.1l-4.5-217.5l18.1-21.1
				c0,0,17.4,12.2,47,17.4c0,0,7.4,5.9,12.6,17.7c5.2,11.9,0,2.2,0,2.2l34.8,67.3l37.8,56.2l9.6-2.2L518.3,555.1z"/>
			<path class="st12" d="M666.2,392.3c0,0,7.4,18.4-10.4,19.9s22.9,49.5,22.9,49.5s37.8-8.2,43.7-24.4c5.9-16.2,4.4-22.9-4.4-30.3
				s-22.9-3.7-22.9-3.7s-9.6-5.2-6.7-13.4C691.3,381.8,666.2,392.3,666.2,392.3z"/>
			<path class="st17" d="M681,414.6c0,0-14.1,2.2-18.4-5.9c0,0-11.1,9.6-28.8,5.9s-33.3,65.1-33.3,65.1L559.9,538l19.9,19.2
				c0,0,14.7-7.4,29.6-31.8c14.9-24.4,19.2-35.5,19.2-35.5l-12.6,38.5l-2.2,28.8c0,0-16.2,14.7-2.2,40.7c0,0,12.6,12.6,36.3-5.9
				l28.8-5.2c0,0,19.9,23.6,31.1,22.9c11.2-0.7,22.2-4.4,26.6-16.2c4.4-11.9-3-65.1-3-65.1h4.4l2.2,57c0,0,25.1-1.5,27.4-11.1
				c2.2-9.6-7.4-137.5-7.4-137.5s-20.7-25.1-34-31.8c-13.2-6.7-24.4,31.8-24.4,31.8l-17.3,15.4L681,414.6z"/>
			<path class="st17" d="M681.7,412.4c0,0-10,1.8-14.4-6.3c0,0-15.2,10-32.9,6.3c-17.7-3.7-33.3,65.1-33.3,65.1L560.4,536l19.9,19.2
				c0,0,14.7-7.4,29.6-31.8c14.7-24.4,19.2-35.6,19.2-35.6l-12.6,38.5l-2.2,28.8c0,0-16.4,14.9-2.2,40.8c0,0,12.6,12.6,36.3-5.9
				l28.8-5.2c0,0,19.9,23.6,31.1,22.9c11.2-0.7,22.2-4.4,26.6-16.2c4.4-11.9-3-65.1-3-65.1h4.4l2.2,56.9c0,0,25.1-1.5,27.4-11.1
				c2.2-9.6-7.4-137.5-7.4-137.5s-20.7-25.1-34-31.8c-13.2-6.7-24.4,31.8-24.4,31.8l-17,15.5L681.7,412.4z"/>
			<path class="st20" d="M681,413.1c0,0-10,1.8-14.4-6.3c0,0-15.2,10-32.9,6.3c-17.7-3.7-33.3,65.1-33.3,65.1l-40.7,58.4l20,19.2
				c0,0,14.7-7.4,29.6-31.8c14.7-24.4,19.2-35.5,19.2-35.5L616.1,527l-2.2,28.8c0,0-16.2,14.7-2.2,40.7c0,0,12.6,12.6,36.3-5.9
				l28.8-5.2c0,0,19.9,23.6,31.1,22.9c11.2-0.7,22.2-4.4,26.6-16.2c4.4-11.9-3-65.1-3-65.1h4.4l2.2,57c0,0,25.1-1.5,27.4-11.1
				c2.2-9.6-7.4-137.5-7.4-137.5s-20.7-25.1-34-31.8c-13.2-6.7-24.4,31.9-24.4,31.9l-17.2,15.3L681,413.1z"/>
			<path class="st17" d="M333,366.9c0,0-20.4,9.2-18.1,21.8l11.5,3.5L333,366.9z"/>
			<path class="st21" d="M333,366.2c0,0-20.4,9.2-18.1,21.8l11.5,3.5L333,366.2z"/>
			<polygon class="st17" points="370.7,389.1 386.6,397.5 386.6,379.1 377,374.6 			"/>
			<polygon class="st21" points="370.7,388.3 386.6,396.8 386.6,378.3 377,373.8 			"/>
			<path class="st19" d="M286,559.6c0,0-25.9-0.7-26.6,9.7c0,0-11.9-25.9-5.9-49.5c5.9-23.6,10.4-97.7,10.4-97.7s1.5-25.9,25.9-30.3
				c24.4-4.4,0,74.8,0,74.8l-6.7,54v19.2l4.5,0.7L286,559.6z"/>
			<polygon class="st17" points="281.9,619.1 304.2,607.2 310.8,611.6 284.2,628.7 			"/>
			<polygon class="st22" points="281.2,618.3 303.5,606.4 310,610.9 283.4,628 			"/>
			<polygon class="st17" points="423.9,619.1 401.8,607.2 395.1,611.6 421.8,628.7 			"/>
			<polygon class="st22" points="424.8,618.3 402.5,606.4 395.8,610.9 422.4,628 			"/>
			<path class="st17" d="M334.1,338.4c0,0,0.2,3.6,0.2,8.8c6.8,9.8,18,15.5,29.9,15.5c3,0,5.9-0.3,8.8-1c-1-4.6-1.5-9.2-0.5-12.2
				L334.1,338.4z"/>
			<ellipse class="st16" cx="364.3" cy="324.4" rx="37" ry="37.8"/>
			<polygon class="st17" points="480.2,547.4 512.5,535.6 512.7,536.2 481,548 			"/>
			<path class="st17" d="M252.6,544l30.5-5.4l-0.3,0.6c0,0-30.6,5.3-29.7,7.8L252.6,544z"/>
			<path class="st19" d="M286.4,441.6c0,0-2.2,36.3,3,46.6"/>
			<g class="st14">
				<path d="M439.8,413.1l34.8,67.3l37.8,56.2l0.7-0.1l-37.7-56.1l-33.7-65.2C443.5,419.7,439.8,413.1,439.8,413.1z"/>
				<path d="M522,534.6l-4.4,20.5c0,0-18.8,5.1-24.9,13.7l0.5,0.3c5.9-8.9,25.1-14.1,25.1-14.1l4.4-20.7L522,534.6z"/>
				<path d="M427.3,393.1c0,0,7.4,5.9,12.6,17.7c0.7,1.6,1.3,2.9,1.6,3.8c1.2,2.1,2.9,4.8-0.8-3.8c-5.2-11.9-12.6-17.7-12.6-17.7
					c-29.6-5.2-47-17.4-47-17.4l-0.2,0.3C383.7,377.9,400.6,388.5,427.3,393.1z"/>
				<path d="M420.6,489.3c1.2-16.9,5.1-21,6.7-21.9c0-0.1,0-0.2,0-0.2c0-0.1-5.9,0.7-7.4,22.2c-1.5,21.5-2.2,38.5,3,54.7
					c5.2,16.2,4.4,39.2,3.7,42.2s-23.4,24.8-59.2,28.1l0,0c36.3-3,59.2-25.1,59.9-28.1c0.7-3,1.5-25.9-3.7-42.2
					C418.4,527.9,419.2,510.7,420.6,489.3z"/>
			</g>
			<path class="st17" d="M409.9,427.6c0,0,15.5,33.3,14.7,34.8"/>
			<path class="st17" d="M399.5,531.1c2.2-0.7,18-11.5,20.4-21"/>
			<path class="st17" d="M399.5,541.4c2.2-0.7,18-11.5,20.4-21"/>
			<circle class="st23" cx="370.7" cy="427.5" r="2.2"/>
			<circle class="st23" cx="370.7" cy="460.7" r="2.2"/>
			<circle class="st23" cx="370.7" cy="440.8" r="2.2"/>
			<circle class="st23" cx="371.4" cy="480.8" r="2.2"/>
			<circle class="st23" cx="371.4" cy="514.1" r="2.2"/>
			<circle class="st23" cx="371.4" cy="494" r="2.2"/>
			<circle class="st23" cx="372.2" cy="534" r="2.2"/>
			<circle class="st23" cx="372.2" cy="567.3" r="2.2"/>
			<circle class="st23" cx="372.2" cy="547.4" r="2.2"/>
			<path class="st17" d="M634.7,466.7c0,0-2.2,30.3,4.4,40"/>
			<path class="st17" d="M725.7,470.4c0,0,9.6,29.6,3.7,50.3"/>
			<path class="st17" d="M600.4,479.6c0,0,11.5,24.8,15.9,24.8"/>
			<path class="st17" d="M385,320.6c4.4,2,9.2,2.5,13.9,1.7c1.5-0.1,2.9-0.6,4.3-1.4c3.9-2.6,2.9-9.2,6.3-12.3
				c1.6-1.5,3.9-2.1,5.2-3.8c0.7-1.2,1.2-2.4,1.2-3.7c0.9-5.6,1.2-12.3-3.3-15.8c-5.3-4.1-13-0.7-19.6-2.3c-2.8-0.7-5.2-2.3-7.8-3.6
				c-10.4-5.3-22.3-6.1-33.9-6.1c-5.8,0-11.7,0.2-17.3,1.8c-5.5,1.6-10.9,4.7-14.2,9.6c-1.6,2.8-2.9,5.8-3.7,8.9
				c-3.5,12.3-4.6,25.2-3.2,37.9c0.5,4.7,1.6,9.9,5.2,13.1c2.4,2,5.3,3.2,8.3,3.5c4.3,0.6,9.4-0.7,10.8-4.8c1.2-3.3-0.6-8.1,2.4-9.9
				c1.3-0.6,2.6-0.8,4-0.6l11.4,0.8c1.6,0.1,3.3,0.1,4.6-0.8c1.2-1,1.7-2.5,1.7-4.1c0.5-4.7-2.1-20.3,4.5-21
				C372.5,307,379.6,317.9,385,320.6z"/>
			<path class="st24" d="M384.2,319.8c4.4,2,9.2,2.5,13.9,1.7c1.5-0.1,2.9-0.6,4.3-1.4c3.9-2.6,2.9-9.2,6.3-12.3
				c1.6-1.5,3.9-2.1,5.2-3.8c0.7-1.2,1.2-2.4,1.2-3.7c0.9-5.6,1.2-12.3-3.3-15.8c-5.3-4.1-13-0.7-19.6-2.3c-2.8-0.7-5.2-2.3-7.8-3.6
				c-10.4-5.3-22.3-6.1-33.9-6.1c-5.8,0-11.7,0.2-17.3,1.8c-5.5,1.6-10.9,4.7-14.2,9.6c-1.6,2.8-2.9,5.8-3.7,8.9
				c-3.5,12.3-4.6,25.2-3.2,37.9c0.5,4.7,1.6,9.9,5.2,13.1c2.4,2,5.3,3.2,8.3,3.5c4.3,0.6,9.4-0.7,10.8-4.8c1.2-3.3-0.6-8.1,2.4-9.9
				c1.3-0.6,2.6-0.8,4-0.6l11.4,0.8c1.6,0.1,3.3,0.1,4.6-0.8c1.2-1,1.7-2.5,1.7-4.1c0.5-4.7-2.1-20.3,4.5-21
				C371.7,306.2,378.8,317.1,384.2,319.8z"/>
			<path class="st17" d="M689.1,390.9c3-8.2-22.2,2.2-22.2,2.2c1.2,3.2,1.7,6.6,1.4,10c7.8,2,16,1.3,23.5-2
				C689.5,398.8,687.6,395.3,689.1,390.9z"/>
			<ellipse class="st12" cx="678.6" cy="365.7" rx="37" ry="37.8"/>
			<path class="st17" d="M664.2,344.9c6.6,1.3,13.5,4.3,15.3,9.7c0.8,2.6,0.3,5.5,2,7.8c1,1.4,2.4,2.4,3.8,3.3
				c6.1,4.5,10.7,11.3,8.9,18c-1.4,5-6,8.9-7.1,13.8c-1.4,5.9,2.5,11.6,5.8,16.9c3.3,5.3,6.2,11.7,3.2,17.2c-1.5,2.5-4.1,4.6-5,7.4
				c-1.6,5.4,4.5,10,10.1,12.8c6.8,3.3,14.1,5.9,21.4,7.6c3.8,0.9,7.8,1.7,11.3,3.5c2.2,1.2,4,2.5,6.2,3.8c5.8,3,12.4,3.7,18.7,2
				l-5.9-8.3c6.6,2,13.5,1.7,19.8-0.7c-5-2.1-8.8-6.3-10.1-11.5c6.1-1.5,11.6-4.8,15.9-9.6c2.2-2.5,3.8-6,2.1-8.8
				c-1.7-2.8-5.4-3.5-8.5-4.7c-7.1-2.9-12.3-9.1-13-15.8c-0.6-4.5,0.7-9.6-2.4-13.2c-1.4-1.6-3.3-2.8-5-4.1c-3.5-3-5.4-7-7-11.1
				c-4.6-11.3-7.9-22.9-10-34.9c-0.9-5.3-1.6-10.8-4.3-15.8c-6.1-11.3-21.3-16.9-35.8-18.9c-5.8-0.8-11.6-1.2-17.2,0.1
				c-4.8,1.3-9.4,3.5-13.6,6.3c-6.7,4.3-15.1,10.5-17.5,17.6C643.5,343.5,657.9,343.6,664.2,344.9z"/>
			<path class="st25" d="M665,344.1c6.6,1.3,13.5,4.3,15.3,9.7c0.8,2.6,0.3,5.5,2,7.8c1,1.4,2.4,2.4,3.8,3.3
				c6.1,4.5,10.7,11.3,8.9,18c-1.4,5-6,8.9-7.1,13.8c-1.4,5.9,2.5,11.6,5.8,16.9c3.3,5.3,6.2,11.7,3.2,17.2c-1.5,2.5-4.1,4.6-5,7.4
				c-1.6,5.4,4.5,10,10.1,12.8c6.8,3.3,14.1,5.9,21.4,7.6c3.8,0.9,7.8,1.7,11.3,3.5c2.2,1.2,4,2.5,6.2,3.8c5.8,3,12.4,3.7,18.7,2
				l-5.9-8.3c6.6,2,13.5,1.7,19.8-0.7c-5-2.1-8.8-6.3-10.1-11.5c6.1-1.5,11.6-4.8,15.9-9.6c2.2-2.5,3.8-6,2.1-8.8
				c-1.7-2.8-5.4-3.5-8.5-4.7c-7.1-2.9-12.3-9.1-13-15.8c-0.6-4.5,0.7-9.6-2.4-13.2c-1.4-1.6-3.3-2.8-5-4.1c-3.5-3-5.4-7-7-11.1
				c-4.6-11.3-7.9-22.9-10-34.9c-0.9-5.3-1.6-10.8-4.3-15.8c-6.1-11.3-21.3-16.9-35.8-18.9c-5.8-0.8-11.6-1.2-17.2,0.1
				c-4.8,1.3-9.4,3.5-13.6,6.3c-6.7,4.3-15.1,10.5-17.5,17.6C644.2,342.7,658.6,342.8,665,344.1z"/>
		</g>
	</g>
</g>
<g id="图层_3">
	<g>
		<g>
			<polyline class="st26" points="781.3,911.8 781.3,917.8 775.3,917.8 			"/>
			<line class="st27" x1="763.2" y1="917.8" x2="263.8" y2="917.8"/>
			<polyline class="st26" points="257.8,917.8 251.8,917.8 251.8,911.8 			"/>
			<line class="st28" x1="251.8" y1="899.8" x2="251.8" y2="284.5"/>
			<polyline class="st26" points="251.8,278.5 251.8,272.5 257.8,272.5 			"/>
			<line class="st27" x1="269.8" y1="272.5" x2="769.2" y2="272.5"/>
			<polyline class="st26" points="775.3,272.5 781.3,272.5 781.3,278.5 			"/>
			<line class="st28" x1="781.3" y1="290.5" x2="781.3" y2="905.8"/>
		</g>
	</g>
	<rect x="261.3" y="224.9" class="st29" width="676.2" height="46.5"/>
	<text id="text_4_" transform="matrix(1 0 0 1 261.3476 255.0001)" class="st30 st31">#group(have[woman(stand),man(stand)])</text>
	<g>
		<g>
			<polyline class="st26" points="968.9,685 968.9,691 962.9,691 			"/>
			<line class="st32" x1="950.7" y1="691" x2="35.5" y2="691"/>
			<polyline class="st26" points="29.5,691 23.5,691 23.5,685 			"/>
			<line class="st33" x1="23.5" y1="673.1" x2="23.5" y2="87.4"/>
			<polyline class="st26" points="23.5,81.5 23.5,75.5 29.5,75.5 			"/>
			<line class="st32" x1="41.6" y1="75.5" x2="956.8" y2="75.5"/>
			<polyline class="st26" points="962.9,75.5 968.9,75.5 968.9,81.5 			"/>
			<line class="st33" x1="968.9" y1="93.3" x2="968.9" y2="679.1"/>
		</g>
	</g>
	<rect x="480.2" y="33.3" class="st29" width="522.7" height="46.5"/>
	<text id="text_1_" transform="matrix(1 0 0 1 480.1515 63.4236)" class="st30 st31">#park(have[cloud,tree,hill])</text>
</g>
</svg>
