<?xml version="1.0" encoding="utf-8"?>
<!-- Generator: Adobe Illustrator 19.0.0, SVG Export Plug-In . SVG Version: 6.00 Build 0)  -->
<svg version="1.1" xmlns="http://www.w3.org/2000/svg" xmlns:xlink="http://www.w3.org/1999/xlink" x="0px" y="0px"
	 viewBox="-917 917.7 1000 1000" style="enable-background:new -917 917.7 1000 1000;" xml:space="preserve">
<style type="text/css">
	.st0{opacity:0.1;fill:#6C63FF;enable-background:new    ;}
	.st1{opacity:0.6;}
	.st2{fill:#6C63FF;}
	.st3{opacity:0.25;enable-background:new    ;}
	.st4{fill:none;stroke:#535461;stroke-width:2;stroke-miterlimit:10;}
	.st5{fill:#FFFFFF;stroke:#33313F;stroke-width:3;stroke-miterlimit:10;}
	.st6{fill:#FFFFFF;stroke:#33313F;stroke-width:2;stroke-miterlimit:10;}
	.st7{fill:none;stroke:#33313F;stroke-width:3;stroke-miterlimit:10;}
	.st8{fill:url(#SVGID_1_);}
	.st9{fill:#33313F;}
	.st10{fill:#65617D;}
	.st11{fill:#FBBEBE;}
	.st12{fill:#3F3D56;}
	.st13{opacity:0.1;enable-background:new    ;}
	.st14{opacity:0.1;}
	.st15{fill:#FFD037;}
	.st16{fill:none;stroke:#000000;stroke-width:4;stroke-miterlimit:10;}
	.st17{fill:none;stroke:#000000;stroke-width:4;stroke-miterlimit:10;stroke-dasharray:12,12;}
	.st18{fill:none;stroke:#000000;stroke-width:4;stroke-miterlimit:10;stroke-dasharray:12.3454,12.3454;}
	.st19{fill:none;}
	.st20{font-family:'SimHei';}
	.st21{font-size:35px;}
	.st22{fill:none;stroke:#000000;stroke-width:4;stroke-miterlimit:10;stroke-dasharray:12.1769,12.1769;}
	.st23{fill:none;stroke:#000000;stroke-width:4;stroke-miterlimit:10;stroke-dasharray:12.4036,12.4036;}
	.st24{fill:none;stroke:#000000;stroke-width:4;stroke-miterlimit:10;stroke-dasharray:11.7623,11.7623;}
	.st25{fill:none;stroke:#000000;stroke-width:4;stroke-miterlimit:10;stroke-dasharray:11.484,11.484;}
	.st26{fill:none;stroke:#000000;stroke-width:4;stroke-miterlimit:10;stroke-dasharray:12.087,12.087;}
	.st27{fill:none;stroke:#000000;stroke-width:4;stroke-miterlimit:10;stroke-dasharray:11.8596,11.8596;}
</style>
<g id="图层_1">
	<g id="_x23_background">
		<g>
			<g>
				<path class="st0" d="M-328.9,1280.8c-60.1-2-117.4-21.5-172-42.7s-108.9-44.8-167.5-56c-37.7-7.2-80.9-8.3-111.3,12
					c-29.3,19.5-38.7,53-43.8,84.2c-3.8,23.5-6,48.1,4.5,70.1c7.2,15.2,20.2,28.1,29.2,42.7c31.1,50.8,9.1,113.5-24.6,163.1
					c-15.8,23.3-34.1,45.5-46.3,70.3c-12.3,24.8-17.8,53.1-7.2,78.5c10.5,25.1,35.7,43.8,63,57.1c55.5,26.9,120.7,34.6,184.5,38.9
					c141,9.7,282.8,5.5,424.2,1.3c52.3-1.6,104.9-3.2,156.3-11.2c28.6-4.5,58.1-11.6,78.9-28.8c26.4-21.8,32.9-58.9,15.2-86.3
					c-29.6-46-111.5-57.4-132.2-106.7c-11.4-27.1,0.3-57.4,16.9-82.6c35.5-54.1,95-101.4,98.2-163.2c2.1-42.4-26.5-84.9-70.7-105
					c-46.3-21-110.7-18.4-144.9,16.4C-213.9,1268.8-275.9,1282.6-328.9,1280.8z"/>
				<circle class="st0" cx="-537.6" cy="1177.3" r="20.1"/>
				<circle class="st0" cx="-231.9" cy="1205.1" r="20.1"/>
				<circle class="st0" cx="-17.2" cy="1502.7" r="20.1"/>
				<circle class="st0" cx="54.7" cy="1413.1" r="33.6"/>
				<circle class="st0" cx="10.1" cy="1576.5" r="33.6"/>
				<circle class="st0" cx="-854.4" cy="1471.3" r="33.6"/>
			</g>
		</g>
	</g>
	<g>
		<g id="_x23_accessory_x28_have_x5B_plant_x5D__x29_" class="st1">
			<path class="st2" d="M-734.3,1344.2c5.8-2,18.9-18.2,18.9-18.2s-20.3-4.6-26.1-2.7c-5.8,2-8.8,8.3-6.9,14
				C-746.4,1343.2-740.1,1346.2-734.3,1344.2L-734.3,1344.2L-734.3,1344.2z"/>
			<path class="st2" d="M-695.8,1367c6-1,21.7-14.8,21.7-14.8s-19.2-8-25.3-7.1c-6,1-10.1,6.7-9.1,12.7S-701.7,1368.1-695.8,1367
				L-695.8,1367L-695.8,1367z"/>
			<path class="st2" d="M-649.2,1342.3c-0.8,6-14.1,22.1-14.1,22.1s-8.6-19-7.8-25.1c0.8-6,6.4-10.3,12.4-9.5
				C-652.7,1330.6-648.4,1336.2-649.2,1342.3z"/>
			<path class="st3" d="M-734.3,1344.2c5.8-2,18.9-18.2,18.9-18.2s-20.3-4.6-26.1-2.7c-5.8,2-8.8,8.3-6.9,14
				C-746.4,1343.2-740.1,1346.2-734.3,1344.2L-734.3,1344.2L-734.3,1344.2z"/>
			<path class="st3" d="M-695.8,1367c6-1,21.7-14.8,21.7-14.8s-19.2-8-25.3-7.1c-6,1-10.1,6.7-9.1,12.7S-701.7,1368.1-695.8,1367
				L-695.8,1367L-695.8,1367z"/>
			<path class="st3" d="M-649.2,1342.3c-0.8,6-14.1,22.1-14.1,22.1s-8.6-19-7.8-25.1c0.8-6,6.4-10.3,12.4-9.5
				C-652.7,1330.6-648.4,1336.2-649.2,1342.3z"/>
			<path class="st2" d="M-685.7,1348.5c5.9,1.5,25.8-4.7,25.8-4.7s-14.4-15.1-20.2-16.7c-5.9-1.9-12.1,1.4-13.8,7.2
				c-1.9,5.9,1.4,12.1,7.2,13.8C-686.4,1348.2-686,1348.3-685.7,1348.5L-685.7,1348.5z"/>
			<g>
				<path class="st4" d="M-648.1,1385.4c0,0-25.5-45.2-64-58.2c-16.2-5.4-30.1-15.8-39.8-29.8c-4.6-6.7-8.5-13.7-11.8-21.2"/>
				<path class="st2" d="M-787.8,1267.8c4.4,4.3,24.8,8.6,24.8,8.6s-5-20.2-9.4-24.5c-4.3-4.4-11.3-4.4-15.6,0
					c-4.4,4.3-4.4,11.3,0,15.6C-788,1267.7-787.9,1267.8-787.8,1267.8L-787.8,1267.8z"/>
				<path class="st2" d="M-776.3,1304.5c5.9,1.2,25.5-6.2,25.5-6.2s-15.2-14.3-21.2-15.5c-5.9-1.2-11.8,2.7-13,8.7
					C-786.3,1297.6-782.4,1303.3-776.3,1304.5L-776.3,1304.5z"/>
				<path class="st2" d="M-733.8,1282.5c0,6.1-11.1,23.8-11.1,23.8s-11.1-17.6-11.1-23.8c0-6.2,4.9-11.1,11.1-11.1
					S-733.8,1276.4-733.8,1282.5L-733.8,1282.5z"/>
				<path class="st2" d="M-689.1,1309.8c-1.9,5.9-17.6,19.4-17.6,19.4s-5.3-20.2-3.4-26c1.9-5.9,8-9.1,13.8-7.2
					C-690.5,1297.8-687.3,1304-689.1,1309.8L-689.1,1309.8L-689.1,1309.8z"/>
				<path class="st3" d="M-787.8,1267.8c4.4,4.3,24.8,8.6,24.8,8.6s-5-20.2-9.4-24.5c-4.3-4.4-11.3-4.4-15.6,0
					c-4.4,4.3-4.4,11.3,0,15.6C-788,1267.7-787.9,1267.8-787.8,1267.8L-787.8,1267.8z"/>
				<path class="st3" d="M-776.3,1304.5c5.9,1.2,25.5-6.2,25.5-6.2s-15.2-14.3-21.2-15.5c-5.9-1.2-11.8,2.7-13,8.7
					C-786.3,1297.6-782.4,1303.3-776.3,1304.5L-776.3,1304.5z"/>
				<path class="st3" d="M-733.8,1282.5c0,6.1-11.1,23.8-11.1,23.8s-11.1-17.6-11.1-23.8c0-6.2,4.9-11.1,11.1-11.1
					S-733.8,1276.4-733.8,1282.5L-733.8,1282.5z"/>
				<path class="st3" d="M-689.1,1309.8c-1.9,5.9-17.6,19.4-17.6,19.4s-5.3-20.2-3.4-26c1.9-5.9,8-9.1,13.8-7.2
					C-690.5,1297.8-687.3,1304-689.1,1309.8L-689.1,1309.8L-689.1,1309.8z"/>
				<path class="st4" d="M-649.5,1384.6c0,0-5-51.7-34.9-79.2c-12.6-11.4-21.2-26.7-24.3-43.4c-1.5-8-2.2-16-2.2-24.1"/>
				<path class="st2" d="M-729.7,1220.4c2.3,5.7,19.1,17.9,19.1,17.9s3.6-20.5,1.4-26.2c-2.3-5.7-8.7-8.4-14.4-6.1
					C-729.2,1208.3-732,1214.7-729.7,1220.4L-729.7,1220.4L-729.7,1220.4z"/>
				<path class="st2" d="M-734,1258.6c5,3.5,25.8,4.6,25.8,4.6s-8.1-19.2-13.1-22.8c-5-3.5-11.9-2.3-15.4,2.7
					C-740.2,1248.2-739,1255.1-734,1258.6L-734,1258.6z"/>
				<path class="st2" d="M-711.7,1311.9c6,0.5,24.6-9,24.6-9s-16.7-12.4-22.8-13s-11.4,4-12,10.1
					C-722.3,1306-717.8,1311.4-711.7,1311.9L-711.7,1311.9z"/>
				<path class="st2" d="M-686.2,1255.7c-2.5,5.6-19.8,17.3-19.8,17.3s-3-20.6-0.5-26.2s9-8.1,14.6-5.7
					C-686.2,1243.6-683.7,1250.1-686.2,1255.7L-686.2,1255.7z"/>
				<path class="st2" d="M-656.3,1298.8c-4,4.6-24.1,10.6-24.1,10.6s3.3-20.6,7.4-25.2c4-4.6,11.1-5,15.6-1
					C-652.8,1287.3-652.3,1294.2-656.3,1298.8L-656.3,1298.8L-656.3,1298.8z"/>
			</g>
			<path class="st2" d="M-633.1,1344.7c-3.2,5.2-21.8,14.5-21.8,14.5s-0.2-20.9,3.1-26.1c3.2-5.2,10-6.9,15.2-3.6
				C-631.4,1332.7-629.9,1339.5-633.1,1344.7z"/>
		</g>
		<g id="_x23_chart_x28_have_x5B_paper_x5D__x29_">
			<path class="st5" d="M-751.2,1311.3c0,0,136.5,5.6,155.1,0c0,0-10.2,228.5-6.5,235.9c0,0-151.4,8.4-162.5,0
				C-776.2,1538.9-751.2,1311.3-751.2,1311.3z"/>
			<path class="st5" d="M-730.7,1354c0,0,63.2,100.3,84.5,109.6"/>
			<path class="st5" d="M-646.2,1354c0,0-60.4,79-69.7,105.9"/>
			<path class="st5" d="M-730.7,1501.7"/>
			<path class="st5" d="M-651.8,1501.7h-73.4c-5.6,0-5.6,26-5.6,26h79V1501.7z"/>
			<path class="st5" d="M-494.8,1311.3c0,0,131-6.5,155.1,0c0,0-10.2,228.5-6.5,235.9c0,0-167.4,13.1-162.5,0
				C-498.5,1519.4-494.8,1311.3-494.8,1311.3z"/>
			<path class="st5" d="M-443.8,1328.7c0,0,29.2,46.3,39,50.6"/>
			<path class="st5" d="M-404.8,1328.7c0,0-27.9,36.4-32.1,48.9"/>
			<path class="st5" d="M-371.5,1408.8H-470c-7.4,0-7.4,26-7.4,26h105.9V1408.8z"/>
			<path class="st5" d="M-385,1491.5h-73.4c-5.6,0-5.6,26-5.6,26h79V1491.5z"/>
			<path class="st5" d="M-371.5,1446.9c7.4,0-89.7,8.4-98.5,0c-4.6-4.4-7.4,26-7.4,26h105.9V1446.9z"/>
			<polyline class="st5" points="-434,1504 -428.4,1509.6 -418.2,1495.7 			"/>
			<path class="st5" d="M-244.9,1313.2c0,0,130,15.8,155.1,0c0,0-10.2,228.5-6.5,235.9c0,0-172.6,9.7-162.5,0
				C-233.8,1524.9-244.9,1313.2-244.9,1313.2z"/>
			<path class="st5" d="M-226.9,1353.6c0,0,18.8,29.7,25.1,32.5"/>
			<path class="st5" d="M-201.8,1353.6c0,0-17.9,23.5-20.6,31.4"/>
			<path class="st5" d="M-119.8,1414.9h-98.5c-7.4,0-7.4,13.7-7.4,13.7h105.9V1414.9z"/>
			<path class="st5" d="M-173.5,1455.7h51.3c7.4,0,7.4,13.7,7.4,13.7h0.2"/>
			<path class="st5" d="M-119.8,1434.9c7.4,0-89.7,4.5-98.5,0c-4.6-2.3-7.4,13.7-7.4,13.7h105.9V1434.9z"/>
			<path class="st5" d="M-244.2,1330.5c0,0,144.2,10.7,153.4,3.6"/>
			<path class="st6" d="M-109,1323.9c2-0.5,4,0.2,6,0.5s4.3,0.3,5.8-1.1"/>
			<path class="st6" d="M-109.9,1327.7c4.2,0.7,8.4,0.9,12.6,0.7"/>
			<path class="st6" d="M-109.9,1332.9c3.5-0.7,7.2-1,10.8-1.2"/>
			<path class="st6" d="M-236.1,1325.9c1.8,0.8,3.6,1.2,5.6,1.1c1.2,0.2,2.4-0.1,3.4-0.7c1.2-1,1.3-2.8,1.3-4.4c0-0.5,0-0.9-0.2-1.4
				c-0.3-0.5-0.6-0.7-1-1c-2.3-1.6-6.6-2.2-9.3-1.1C-239.8,1319.8-239.3,1324.2-236.1,1325.9z"/>
			<path class="st5" d="M-195,1347.7c-0.6,6.9,1.1,13.7,2.2,20.5c1.4,8.6,2,17.3,1.7,26c-14.7,0.9-29.4,1.1-44,0.7
				c1.4,0,1-31,1.1-33.9c0.2-3.6-0.7-9.9,3.6-11.3c4.5-1.5,10.8-0.6,15.4-0.7C-208.3,1348.6-201.7,1348.2-195,1347.7z"/>
			<path class="st7" d="M-574.7,1418.1c0,0,36.2-1.9,42.7,0"/>
			<path class="st7" d="M-531.9,1398.6c0,0,15.8,15.8,15.8,19.5s-20.4,16.7-20.4,16.7"/>
			<path class="st7" d="M-323.9,1418.1c0,0,36.2-1.9,42.7,0"/>
			<path class="st7" d="M-281.2,1398.6c0,0,15.8,15.8,15.8,19.5s-20.4,16.7-20.4,16.7"/>
		</g>
	</g>
	<g id="_x23_woman_x28_hold_x5B_pen_x5D__x2C_point_x5F_to_x29_">
		
			<linearGradient id="SVGID_1_" gradientUnits="userSpaceOnUse" x1="-148.3645" y1="1612.2139" x2="-6.1509" y2="1612.2139" gradientTransform="matrix(1 0 0 1 -74.4 4.6401)">
			<stop  offset="0" style="stop-color:#808080;stop-opacity:0.25"/>
			<stop  offset="0.54" style="stop-color:#808080;stop-opacity:0.12"/>
			<stop  offset="1" style="stop-color:#808080;stop-opacity:0.1"/>
		</linearGradient>
		<path class="st8" d="M-81.7,1516.5c0-1.1-0.2-2.2-0.5-3.3c-0.8-3.2-2.7-7-5.9-7.9c-3.2-1-6.3-2.3-9.2-3.9
			c-0.6-9.9,1.8-20.2-0.7-29.8c-0.9-3.5-2.4-6.9-2.9-10.5c-0.5-4.5,0.7-9.3-1.1-13.5c-1.4-3.3-4.6-5.6-7.9-6.8
			c-3.3-1.2-7-1.5-10.5-1.9c-4.5-0.4-18.9-2-24,2l0,0c-0.4,0.3-0.7,0.6-0.9,0.9l0,0c-0.1,0.2-0.2,0.3-0.3,0.5v0.1
			c-0.1,0.2-0.2,0.4-0.3,0.6l0,0c-0.1,0.2-0.1,0.5-0.2,0.7c0,0.1,0,0.2,0,0.2c0,0.2,0,0.4,0,0.5v0.3c0,0.2,0,0.4,0,0.5s0,0.1,0,0.2
			c0.1,0.8,0.2,1.7,0.2,2.5c0,0.4,0,0.8-0.1,1.2c-0.3,1.1-0.8,2.1-1.6,3l0,0l-0.2,0.3l-0.3,0.5l-0.3,0.4l-0.2,0.4
			c-0.1,0.2-0.2,0.3-0.3,0.5l-0.2,0.3c-0.1,0.3-0.2,0.6-0.3,0.8c-0.2,0.8-0.2,1.7,0,2.4c0.3,1,0.7,2,1.3,3c0.2,0.4,0.5,0.7,0.7,1.1
			c0.3,0.4,0.5,0.6,0.7,0.8c-0.1,0.8-0.2,1.8-0.2,2.6c0,5.9,2.7,11.4,7.3,15c0.4,3.9,0.3,7.9-0.1,11.8c-0.1,0.8-0.2,1.7-0.3,2.4
			c-0.1,0.7-0.2,1.4-0.3,2c-1.4,0.2-2.8,0.1-4.1-0.3c-0.7-0.3-1.2-0.5-1.9-0.7c-2.7-0.7-5.5,2-8.2,1.2c0,0.1-0.1,0.3-0.1,0.4
			c-0.6-0.4-1.2-0.6-1.9-0.6c-1.6-0.1-2.9-1.2-4-2.3l-3.5-3.3c-0.3-0.2-0.5-0.5-0.7-0.7c-0.2-0.4-0.4-0.7-0.5-1.1
			c-0.7-1.9-2-3.5-3.4-4.9c-0.3-0.4-0.7-0.6-1-0.7c-0.2,0-0.3,0-0.5,0c-0.1-0.1-0.2-0.3-0.3-0.4c-0.3-0.3-0.5-0.6-0.7-0.7
			c-1.7-1.6-1.9-2.9-3.3-4.6c-1.3-1.7-2.4-3.4-3.4-5.2c-0.1-0.9-0.3-2-0.5-3c-0.5-2.3-1.1-4.6-2-6.8l1.3-1.4v-1.4l2.2-2.7l-0.2-0.1
			l2.8-2.6l-2.8-0.1l-1.3,1.8l-0.1-0.1l-1.9,2l-1.7,0.2l-0.2,0.2c-1.4-2-2.8-3.1-4.1-2.9c-2.1,0.5-3.3,4.6-2.9,10.1l-6.4,6.7
			l-0.7,0.7l-3.3,4.3l2.6,2.5l4-3.7l0.7-0.7l4-4.3c0,0.1,0.1,0.3,0.1,0.5c-0.1,0.7-0.2,1.3-0.2,2c0,0.8,0.7,1.4,1.1,2
			c0.7,0.9,0.9,2,0.9,3.2c0,0.4-0.2,0.7-0.2,1.2c0,0.8,0.4,1.7,0.8,2.4c1.6,2.6,3.1,5.2,4.6,7.8c0.3,0.6,0.7,1.1,0.9,1.7v0.1
			c0.3,0.6,0.7,1,1.2,1.4c0.2,2,0.7,3.9,1.6,5.7c0.2,0.4,0.4,0.7,0.6,1c1.2,2,2.7,4,4.4,5.7l2.2,2.5c2.1,2.4,4.4,4.8,6.7,7.2
			c0.8,0.9,1.9,1.6,3,2.1s2.4,0.3,3.3-0.5c0,1.1,0,2.3,0,3.4c0.7,0.1,1.2,0.5,1.7,1c0.3,0.7,0.2,1.4-0.2,2c-2,5-3.9,10-6.9,14.6
			c2,1.2,4,2.7,5.8,4.4c1.1,1.2,2.1,2.6,3,4.1c0.1,0.7,0.2,1.4,0.2,2c0.7,11.1-3.6,22.1-7.4,32.6c-1.1,3-2.3,6.1-2.2,9.2
			c-0.7,0.5-1.4,0.9-2,1.5c0.7,2,0.5,3.7,0.4,5.9c0,1.3-0.3,2.5-0.7,3.7c-0.4,0.8-0.9,1.6-1.3,2.4c-2.4,4.3-3,9.3-3.4,14.1
			c-0.3,3,0.8,6.5-0.5,9.1c-2.3,4.5-4.4,9.3-4.6,14.3c0,1.1-0.2,2.2-0.5,3.3c-0.3,0.9-0.8,1.7-1.1,2.6c-0.3,1.2-0.4,2.5-0.2,3.7
			c0.2,4.5-0.5,8.9-2,13.1c-1.1,3.3-2.4,6.9-1.5,10.3c-2.2,2.3-3.6,5.4-3.9,8.6c0,0.8-0.1,1.7-0.3,2.5c-0.3,0.8-0.7,1.7-1.1,2.4
			c-1.9,3.4-2.8,7.2-2.5,11.1c-2.8,3.8-4.2,8.5-5,13.1s-1.2,9.4-2.2,13.9c-1.4,6-4,12.2-4.5,18.4c-3,2-4.3,5.7-4.9,9.2
			c-0.7,3.5-0.7,7.2-2.1,10.5c-0.7,1.7-1.9,3.3-2.6,4.9c-0.6,1.4-0.9,2.8-1.1,4.3c-0.5,2.3-0.8,4.8-0.3,7c-0.7,0.8-1.7,1.6-2.7,2
			c0.2-0.6,0.3-1.1,0.4-1.8c-2.4,2.1-6.7,1.4-8.6,4c-1.2,1.8-0.7,4.1,0.9,5.4c0.6,0.4,1.2,0.7,2,0.8c4.6,1.5,9.4,3,14.2,2.2
			c0.6-0.1,1.1-0.3,1.6-0.6c0.7-0.5,1.1-1,1.5-1.8l2.1-3.4c1.7,0.6,3.4,0.9,5.2,1.2c0.2,1.5,0.3,3,0.4,4.5c0.9,0.2,2.1,0.2,2.6-0.7
			c0.1-0.4,0.2-0.7,0.2-1c0-0.7,0.1-1.6,0.2-2.4h0.2c2.9,0.1,5.7-0.5,8.2-1.7c-1-8.2,2.3-16.3,5.1-24.1c3-8.2,5.6-16.5,8.2-24.9
			c1.9-5.9,3.9-11.5,5.8-17.5c2.3-7.4,4.6-14.9,6.9-22.3c1-3.3,2-6.5,3.2-9.8c2.4-6.6,5.3-13,8.6-19.1c0.9-1.8,1.9-3.5,2.6-5.3
			c0.9-2.2,1.6-4.6,2.3-6.8c1.6-4.7,3.6-9.3,5.9-13.7l0.2-0.4c0.7,3.1,1.5,6.2,2,9.3c0.7,3.8,0.7,7.7,0.2,11.5
			c-0.5,2.6-1.3,5.1-1.2,7.8c0.2,3.6,2,7,3.1,10.4c0.7,2.6,0.9,5.3,1,8c0.3,4.2,2.5,8.8,0.9,12.7c-4.9,12.3-2.6,26.1-5.4,39
			c-1.5,6.6-5.9,12.8-5.6,19.6c0.3,4.8,0.7,9.6,1.3,14.4c0.1,1.5,0.5,2.9,1,4.3c0.4,0.7,0.8,1.4,1.3,2c-0.4,0.2-0.7,0.6-1,1.5
			c-0.8,2.4,0,5,2,6.5c0.8,0.5,1.8,0.7,2.7,0.9c1.3,0.4,2.6,0.6,3.9,0.6c0.4,0,0.8-0.1,1.2-0.2c1.4,0.7,2.9,1.1,4.4,1.6
			c0,0.4,0,0.7,0.1,1.1c0,0.4,0.2,0.8,0.5,1c0.2,0.1,0.5,0.2,0.7,0.2h5c0-0.5,0-0.8,0-1.3c1.2,0.1,2.3-0.3,3.3-1
			c0.5-0.6,0.7-1.2,0.9-2c1.4-4.6,2.8-9.3,4.1-14c0.7-2,1.1-4,1.4-6c0.6-3.3,0.7-6.6,0.6-9.9c-1.8-17.1,2.1-34.3,0.8-51.5
			c-0.7-10.3-0.3-20.7,1.6-30.8c0.5-2.3,0.9-4.6,1.1-7c0.4-4.4-0.1-8.7,0.2-13c0.1-1.5,0.3-3,0.5-4.5c1.3-9.3,2-18.7,2.1-28.1
			c0-3.1-0.2-6.2-0.6-9.3c0.9-0.3,1.9-0.7,2.5-1.5c0.8-1.1,0.7-2.6,0.7-4c0-3.3,1.4-6.4,2.5-9.5c1.4-4.3,2.6-8.6,3.5-13
			c0.9-3.5,1.5-7.2,1.6-11c0-0.4,0-0.7-0.1-1.1c0.4-0.3,0.7-0.6,0.8-0.9c0.3-0.6,0.4-1.1,0.5-1.7c0.4-2.4,0.7-4.7,1-7.2
			c0.3-1.7,0.5-3.4,0.7-5.1c1-6.9,2-13.7,3-20.6c0.3-1.8,0.5-3.6,0.7-5.4l0.7-5.3c0.1-0.7,0.2-1.3,0.3-1.9
			C-79.3,1525.9-81.6,1520.8-81.7,1516.5z M-106.4,1593.6c-1.1-2.6-2.1-5.3-1.9-8.1l0,0c0.3-0.8,0.2-1.8-0.1-2.6
			c-0.3-0.7-0.7-1.3-1.1-2c-0.4-0.8-0.5-1.7-0.5-2.6c-0.2-5.7,0.2-11.3,1.3-16.8c0.1-0.7,0.3-1.3,0.4-2c0.4-0.2,0.7-0.5,1-0.8
			c0.5-0.6,0.9-1.2,1.2-1.9c1-2.1,2-4.3,2.9-6.4c0.3-0.7,0.7-1.5,1.4-1.7c-0.2,5.4,0.4,11-1.9,15.9c-0.5,0.8-0.7,1.7-0.9,2.5
			c-0.2,1.4,0.4,2.8,0.2,4.2c-0.1,0.7-0.4,1.4-0.6,2c-0.2,0.7,0,1.5,0.6,2c0.1,0.1,0.3,0.2,0.4,0.2c-0.1,0.4-0.1,0.7-0.1,1.1
			c-0.1,0.7-0.1,1.5-0.2,2c-0.2,2.2-0.3,4.6-0.3,6.8c0,2.5,0.1,4.9,0.1,7.4c0,0.7-0.1,1.5-0.4,2.1c-0.2,0.4-0.5,0.7-0.7,0.9
			C-105.8,1595.1-106.1,1594.3-106.4,1593.6z"/>
		<polygon class="st9" points="-176.6,1458.3 -173.4,1455.4 -176.2,1455.3 -177.7,1457.5 		"/>
		<polygon class="st10" points="-199.1,1478.7 -195.7,1474.4 -195,1473.7 -184.8,1463.1 -181.4,1459.5 -179.8,1459.3 -177.5,1457 
			-176.1,1458.2 -178.3,1460.8 -178.3,1462.2 -181.9,1466 -191.8,1476.7 -192.5,1477.5 -196.5,1481.2 		"/>
		<polygon class="st9" points="-195,1473.7 -184.8,1463.1 -181.9,1466 -191.8,1476.7 		"/>
		
			<ellipse transform="matrix(0.2007 0.9797 -0.9797 0.2007 1295.295 1354.9258)" class="st11" cx="-182.7" cy="1471.2" rx="14.9" ry="5.2"/>
		<path class="st12" d="M-136.4,1784.4c-0.8,2.3,0,5,2,6.4c0.8,0.5,1.8,0.7,2.7,0.9c1.3,0.4,2.6,0.6,3.9,0.6
			c1.6-0.1,3.2-0.7,4.7-0.9c0.2,0,0.4,0,0.6,0.1c0.2,0.2,0.3,0.4,0.2,0.7c0,0.9,0.1,1.9,0.2,2.8c-0.1,0.6,0.3,1.1,0.9,1.2
			c0.1,0,0.2,0,0.4,0h5c0.1-4.5-0.4-8.8-1.5-13.1c-0.1-0.4-0.2-0.7-0.4-0.9c-0.5-0.5-1-0.8-1.6-0.9c-1.2-0.6-2.6-0.7-3.9-0.7
			c-1.6,0.2-3,1.3-4.4,2.1c-1.4,0.8-3.3,1.7-4.9,1.2S-135.6,1781.9-136.4,1784.4z"/>
		<path class="st11" d="M-210.4,1780.3c-1.4,1.5-3.2,2.7-5.1,3.4l-0.8,0.5c-0.1,0-0.2,0.1-0.3,0.2c0,0.2,0,0.3,0.1,0.5
			c1.5,2.2,4.3,3.3,6.8,2.5c0.6-0.1,1.1-0.4,1.5-0.7c0.7-0.8,1.1-1.9,1.1-3c0.3-1.1,0.2-2.3-0.2-3.4
			C-208.4,1777.2-208.9,1778.5-210.4,1780.3z"/>
		<path class="st12" d="M-191.1,1791.8c0,0.4,0,0.7-0.2,1c-0.5,0.8-1.7,0.8-2.6,0.7c-0.2-3.2-0.6-6.3-1.1-9.4
			c-1.8-0.1-3.1,1.7-4.1,3.2l-2.5,4c-0.4,0.7-0.8,1.3-1.5,1.7c-0.5,0.3-1,0.5-1.6,0.6c-4.7,0.7-9.6-0.7-14.1-2.2
			c-0.7-0.2-1.3-0.5-2-0.8c-1.7-1.2-2.1-3.6-0.9-5.4c2-2.6,6.2-1.9,8.6-4c-0.3,1.5-0.7,3-1.2,4.5c3.3-0.5,5.4-3.4,8-5.4
			c0.7-0.6,1.4-0.9,2.2-1.1c0.7-0.1,1.3,0,1.9,0.2c3,0.7,5.8,2.1,8.2,4c0.9,0.7,2.5,1.9,3,3.1
			C-190.6,1787.6-191.1,1790.2-191.1,1791.8z"/>
		<circle class="st11" cx="-127.2" cy="1466.2" r="19.2"/>
		<path class="st12" d="M-89.4,1579.4c-0.1,3.7-0.6,7.3-1.6,10.9c-0.9,4.4-2,8.7-3.5,13c-1.1,3.1-2.5,6.2-2.5,9.5
			c0,1.4,0.2,2.9-0.7,4c-0.7,0.7-1.7,1.3-2.7,1.6c-1,0.3-1.9,1-2.3,2c-0.8-1.3-1.5-2.7-2-4.3c-1.7-5.1-3.3-10.2-4.6-15.4
			c-0.3-0.6-0.2-1.3,0.1-1.9c0.3-0.2,0.6-0.4,0.8-0.5c0.9-0.4,1.9-0.9,2.6-1.7c0.4-0.3,0.7-0.7,0.8-1.1c0.3-0.7,0.4-1.4,0.4-2.1
			c0-2.4,0-4.9-0.1-7.3c0-2.2,0-4.6,0.3-6.8c0-0.5,0.1-1.1,0.2-2c0.2-1.5,0.5-3.2,1.2-3.7c1.2-0.8,4.7,0.3,6,0.5
			c2.3,0.3,4.6,0.7,6.9,1.1C-89.5,1576.6-89.4,1578-89.4,1579.4z"/>
		<path class="st12" d="M-166.8,1487.6c-0.7,1.5-2.5,2.2-3.9,3.2l-4.7,3.3c-0.7,0.6-1.5,0.8-2.3,0.8c-0.7-0.3-1.4-0.8-1.8-1.7
			l-0.1-0.1l-0.9-1.7l-4.6-7.8c-0.6-0.7-0.8-1.6-0.8-2.4c0-0.4,0.2-0.7,0.2-1.1c0-1.1-0.3-2.2-0.9-3.2c-0.4-0.7-1.1-1.3-1.1-2
			c0-1,0.1-2,0.6-3c0.5-0.8,1.2-1.7,2-2.1c0.5-0.3,0.9-0.7,1.4-0.9c0.3-0.2,0.6-0.3,0.8-0.4c0.7-0.2,1.5,0.5,2.3,0.5
			c3.3,2.2,4.6,6.5,7.2,9.6c1.5,1.8,1.7,3.1,3.3,4.6c0.3,0.3,0.6,0.5,0.7,0.7c0.4,0.4,0.7,0.7,0.8,1.2
			C-168.3,1485.9-166.5,1486.9-166.8,1487.6z"/>
		<path class="st11" d="M-133.9,1485.4c1.4,2.9,2.5,6.1,2,9.4c-0.1,0.8-0.4,1.7-0.8,2.4c-1.3,2-4.2,2.4-6.6,2.5
			c-1-0.1-2,0.3-2.9,0.9c-0.7,0.9-0.7,2.3,0.2,3.2c0.7,0.8,1.8,1.5,2.9,1.9c3.9,1.7,8,3.2,12.3,2.7c2-0.2,3.8-0.7,5.8-1
			c2.1-0.2,4.2-0.4,6.3-0.4c2.5-0.1,5-0.4,7.5-0.6l6.7-0.7c0.4,0,0.7-0.1,1-0.4c0.5-0.6-0.2-1.4-0.7-1.9c-3.5-2.6-8.1-4.5-10-8.4
			c-0.9-1.9-1.2-4.1-2-6c-0.7-2-1.8-3.8-2.2-5.9c-0.2-1.8-0.4-3.6-0.3-5.4c0-1.9-0.7-3.6-1.9-4.9c-1.3-1.2-3.3-1.6-5-1.7
			c-4.5-0.2-9.2,0.8-12.4,4c-0.8,0.8-1.6,1.9-2.4,2.6c-0.8,0.7-2,1-1.5,2c0.6,0.9,1.7,1.6,2.3,2.5
			C-135,1483.3-134.4,1484.4-133.9,1485.4z"/>
		<path class="st12" d="M-96,1512.3c-1.2,7.2-3.1,14.1-5.7,20.9c-1.3,3.1-2.4,6.2-3.3,9.4c-0.7,2.9-0.6,5.9-1.2,8.8
			c-0.8,3.6-1.7,7.2-2.3,10.9c-1.1,5.5-1.6,11.1-1.3,16.8c0,0.9,0.2,1.8,0.5,2.6c0.3,0.7,0.8,1.2,1.1,2c0.5,1.2,0.4,2.6-0.3,3.7
			c-0.5,1-1.1,2-2,2.9c-8.6,2.6-17.9,1.8-26.9,2.3c-8.4,0.5-16.7,2.2-24.9,0.7c-0.9-3.7,0.7-7.6,2-11.2c3.8-10.5,8.1-21.5,7.4-32.5
			c-0.1-1.3-0.2-2.6-0.5-3.8c-1.3-7.8,0.1-15.9,2.5-23.5c1.5-4.7,1.4-9.8,1-14.7c-0.2-1.6-0.2-3.2-0.1-4.8c0.2-1.7,0.7-3.2,1.8-4.5
			l0.2-0.2c0.1-0.2,0.4-0.1,0.7,0l0,0c0.2,0.1,0.3,0.1,0.5,0l0.1-0.1c0.1-0.1,0.2-0.1,0.3,0c0.2,0.1,0.3,0.6,0.7,0.7
			c0.7,0.1,1.4,0.2,2,0.2c0.8,0,1.7,0.2,2.5,0.4h0.1c1.2,0.2,2.4,0.1,3.6-0.3c0.7-0.2,1.5-0.5,2.2-0.8c0.6-0.2,1.1-0.5,1.8-0.6
			c0.8-0.6,0.7-2.9,0.8-3.9s0.4-2,0.7-2.9c0.8-1.4,2.3-2.2,4-2.3c1.6-0.1,3.3,0.1,4.7,0.5c3.4,0.5,7,0.4,10.4,1.2
			c1.7,0.4,3.5,1,5.1,0.2c0.5,0.1,0.5,0.5,0.5,0.9s-0.1,0.8-0.3,1.3c-0.6,2.6,1.4,4.9,3.3,6.8c0.8,0.8,1.8,1.6,2.8,2.2
			c0.9,0.5,1.9,0.6,2.8,1c0.7,0.4,1.4,1,1.9,1.7c0.6,0.8,0.9,1.8,1,2.7C-95.5,1508.8-95.7,1510.5-96,1512.3z"/>
		<path class="st13" d="M-96,1512.3c-1.2,7.2-3.1,14.1-5.7,20.9c-1.3,3.1-2.4,6.2-3.3,9.4c-0.7,2.9-0.6,5.9-1.2,8.8
			c-0.8,3.6-1.7,7.2-2.3,10.9c-0.2,0.1-0.4,0.2-0.6,0.3c-1.1,0.6-2.4,0.9-3.6,1.2c-2.2,0.3-4.6,0.2-6.8-0.2l-13.3-1.8
			c-5.3-0.7-11-1.6-14.9-5.1c-2.1-2-3.6-4.6-5.2-7.1c-0.1-1.3-0.2-2.6-0.5-3.8c-1.3-7.8,0.1-15.9,2.5-23.5c1.5-4.7,1.4-9.8,1-14.7
			c-0.2-1.6-0.2-3.2-0.1-4.8c0.2-1.7,0.7-3.2,1.8-4.5c0.3-0.1,0.6-0.2,0.8-0.2l0,0c0.2,0,0.4-0.1,0.6-0.1h0.3c0.3,0,0.7,0,0.9,0.1
			c0.7,0.2,1.2,0.5,1.9,0.7h0.1c0.8,0.3,1.7,0.4,2.5,0.4c1.2,0,2.5-0.2,3.7-0.3c1.5-0.3,3.1,0,4.4,0.7c0.8,0.7,1.7,1.5,2.4,2.2
			c0.9,0.7,2,1.3,3.1,1.7c8,3.1,16.9,2.9,24.7-0.6c0.7-0.5,1.6-0.7,2.5-0.7c0.7,0.1,1.2,0.4,1.8,0.7c0.6,0.3,1.1,0.7,1.7,0.9
			c0.6,0.8,0.9,1.8,1,2.7C-95.6,1508.7-95.7,1510.5-96,1512.3z"/>
		<path class="st2" d="M-88,1506.2c-3.7-1.1-7.2-2.7-10.6-4.6c-0.6-0.4-1.1-0.7-1.8-0.7c-0.8,0-1.8,0.2-2.5,0.7
			c-7.9,3.3-16.7,3.5-24.7,0.6c-1.1-0.4-2.1-0.9-3.1-1.7c-0.7-0.8-1.6-1.6-2.4-2.2c-3.1-2-7.2,0.4-10.7-0.9
			c-0.6-0.3-1.2-0.5-1.9-0.7c-2.7-0.7-5.5,2-8.1,1.2c-1,2.7-1.8,5.5-2.1,8.3c-0.4,3.3-0.6,6.5-0.7,9.8c-0.1,2-0.1,3.9,0,5.9
			c0.7,0.1,1.2,0.5,1.7,1c0.3,0.7,0.2,1.4-0.2,2c-2,5-3.9,10-6.9,14.5c2,1.2,4,2.7,5.8,4.4c3.3,3.4,4.8,8.3,8.4,11.4
			c4,3.6,9.6,4.5,14.9,5.2l13.3,1.9c2.2,0.4,4.6,0.5,6.8,0.2c1.3-0.2,2.5-0.7,3.6-1.2c0.7-0.3,1.5-0.7,2-1.3s0.9-1.2,1.2-1.9
			c1-2.1,2-4.3,2.9-6.4c0.3-0.7,0.7-1.7,1.6-1.8c4.9-4.5,9.6-9,14.5-13.5c2-1.7,3.7-3.5,5.3-5.6c2.4-3.6,0.2-8.7,0-13.1
			c0-1.1-0.2-2.2-0.4-3.3C-83,1510.9-84.9,1507.1-88,1506.2z"/>
		<path class="st13" d="M-166.8,1487.6c-0.7,1.5-2.5,2.2-3.9,3.2l-4.7,3.3c-0.7,0.6-1.5,0.8-2.3,0.8c-0.7-0.3-1.4-0.8-1.8-1.7
			c0-0.2,0-0.5,0-0.7c0-0.7,0.1-1.5,0.3-2.2c0.5-1,1.2-2,2-2.7c1.8-1.7,3.8-3,6.1-3.7c0.4-0.2,0.7-0.2,1.1-0.1
			c0.2,0,0.3,0.1,0.4,0.2c0.4,0.4,0.7,0.7,0.8,1.2C-168.3,1485.9-166.5,1486.9-166.8,1487.6z"/>
		<path class="st2" d="M-155.8,1497.5c-1.6-0.1-2.9-1.2-4-2.3l-3.5-3.3c-0.3-0.2-0.5-0.5-0.7-0.7c-0.2-0.4-0.4-0.7-0.5-1.1
			c-0.7-1.9-2-3.5-3.4-4.9c-0.3-0.4-0.7-0.6-1-0.7c-0.4-0.1-0.7,0-1.1,0.1c-2.3,0.7-4.4,2-6.1,3.7c-0.9,0.7-1.6,1.6-2,2.7
			c-0.3,0.7-0.4,1.5-0.3,2.2c0,2.5,0.6,4.9,1.7,7.2c0.2,0.4,0.4,0.7,0.6,1c1.2,2,2.7,3.9,4.4,5.7l2.2,2.5c2.1,2.4,4.4,4.8,6.7,7.1
			c0.8,0.9,1.9,1.6,3,2.1c1.2,0.5,2.5,0.3,3.4-0.6c0.5-0.6,0.7-1.1,1-1.8c1.4-3.7,2.8-7.5,2.9-11.6c0-1.6,0-3.3-0.2-4.8
			C-153,1498.2-154.2,1497.5-155.8,1497.5z"/>
		<path class="st9" d="M-99.5,1627.5c-0.1,9.4-0.7,18.7-2,28c-0.2,1.5-0.4,3-0.5,4.5c-0.3,4.4,0.2,8.7-0.2,13
			c-0.2,2.3-0.7,4.6-1.1,7c-1.9,10.1-2.3,20.5-1.6,30.7c1.3,17.1-2.6,34.3-0.8,51.3c0.2,3.3,0,6.7-0.6,9.9c-0.4,2-0.8,4.1-1.4,6
			c-1.4,4.6-2.7,9.3-4.1,13.9c-0.2,0.7-0.5,1.4-0.9,2c-0.9,0.8-2.2,1.2-3.5,1c-5.4-0.2-10.4-2.5-15.2-4.7c-0.6-0.2-1.1-0.6-1.6-0.9
			c-1-1-0.9-2.7-1.4-4.1s-1.7-2.7-2.3-4.1c-0.6-1.3-0.9-2.8-1-4.2c-0.7-4.7-1-9.6-1.3-14.3c-0.4-6.8,4.1-12.9,5.6-19.5
			c2.8-12.9,0.5-26.8,5.4-38.9c1.6-3.9-0.7-8.5-0.9-12.7c-0.1-2.7-0.5-5.4-1-8c-0.9-3.5-2.9-6.8-3-10.4c-0.1-2.6,0.7-5.2,1.2-7.8
			c0.6-3.8,0.6-7.6-0.2-11.4c-0.5-3.2-1.2-6.2-2-9.3l-0.2,0.4c-2.2,4.5-4.2,9-5.9,13.7c-0.7,2.3-1.4,4.6-2.3,6.8
			c-0.7,1.9-1.7,3.5-2.6,5.3c-3.3,6.1-6.1,12.5-8.5,19.1c-1.1,3.3-2.1,6.5-3.2,9.8c-2.3,7.4-4.6,14.9-6.9,22.3
			c-1.9,5.9-3.9,11.5-5.8,17.4c-2.6,8.4-5.1,16.6-8.2,24.8c-2.9,7.8-6.1,15.8-5.1,24c-2.6,1.2-5.4,1.8-8.2,1.7
			c-4.8-0.5-9.5-1.6-13.9-3.4c-1.9-0.5-3.5-1.5-4.8-2.9c-2-2.5-1.6-6.2-0.9-9.4c0.2-1.5,0.7-2.9,1.1-4.3c0.7-1.7,1.9-3.3,2.6-4.9
			c1.5-3.3,1.6-7,2.1-10.4c0.6-3.4,1.9-7.2,4.8-9.1c0.5-6.2,3.1-12.3,4.5-18.3c1-4.6,1.4-9.3,2.2-13.9s2.2-9.3,5-13
			c-0.2-3.9,0.7-7.7,2.5-11.1c0.5-0.7,0.8-1.6,1.1-2.3c0.2-0.8,0.3-1.7,0.3-2.4c0.3-3.3,1.7-6.2,3.9-8.6c-0.9-3.4,0.4-7,1.5-10.2
			c1.5-4.2,2.1-8.6,2-13.1c-0.2-1.2-0.1-2.5,0.2-3.7c0.3-0.9,0.7-1.7,1-2.6c0.3-1.1,0.4-2.2,0.5-3.3c0.4-5,2.4-9.8,4.6-14.2
			c1.3-2.6,0.2-6.2,0.5-9.1c0.5-4.8,1-9.8,3.4-14.1c0.5-0.7,0.9-1.6,1.3-2.4c0.5-1.2,0.7-2.4,0.7-3.7c0.1-2.1,0.4-3.9-0.4-5.9
			c4.9-4.2,11.8-5.3,18.2-5.6c6.4-0.3,13,0.3,19.3-1.1c1.9-0.4,3.7-1,5.7-1.3c4.5-0.7,9,0.4,13.4,1.4c-0.3,2.8,0.7,5.5,1.9,8.1
			C-101.9,1604.8-99.6,1616.1-99.5,1627.5z"/>
		<path class="st13" d="M-121.3,1629.5l-10.7,24.1c-0.5-3.2-1.2-6.2-2-9.3l-0.2,0.4v-0.5l5.9-12.8L-121.3,1629.5z"/>
		<path class="st13" d="M-89.4,1579.4c-0.7,0.5-1.4,0.7-2.1,0.7c-1.2,0-2.3-0.1-3.5-0.5l-8.3-2.1c-0.3-0.1-0.6-0.2-0.7-0.3
			c0.2-1.5,0.5-3.2,1.2-3.7c1.2-0.8,4.7,0.3,6,0.5c2.3,0.3,4.6,0.7,6.9,1.1C-89.5,1576.6-89.4,1578-89.4,1579.4z"/>
		<path class="st2" d="M-82.3,1524.1c0.2,0.7,0.5,1.5,0.6,2.3c0.3,2,0.2,3.8-0.2,5.8l-0.7,5.3l-0.7,5.4l-3,20.5l-0.7,5.1l-1,7.2
			c-0.1,0.6-0.2,1.2-0.5,1.7c-0.7,1-1.7,1.7-2.9,1.7s-2.3-0.1-3.4-0.5l-8.4-2.1c-0.4-0.1-0.7-0.2-1-0.5c-0.6-0.5-0.7-1.3-0.6-2
			s0.5-1.4,0.6-2c0.2-1.4-0.4-2.8-0.2-4.2c0.2-0.8,0.5-1.8,0.9-2.5c2.8-6.1,1.2-13.4,2.1-20.1c0.8-5.3,3-10.2,6.3-14.4
			c2-2.6,4.5-4.9,7.2-7c1-0.8,2.7-2.5,4-2.8C-82.2,1520.9-82.6,1523-82.3,1524.1z"/>
		<path class="st9" d="M-145.6,1444.1c-0.7,2,0.4,4.1-0.1,6c-0.5,2.2-2.5,3.7-3.2,5.9c-0.9,3.3,2,6.4,4,9.2
			c7.7,10.3,6.7,24.6,4.1,37.2c-2.1,10.1-5,20.1-8.8,29.7c-1.1,3-2.4,6-4.7,8.3c4.3-1.2,8.8-2.4,13.1-1.3c5.4,1.5,10.1,6.8,15.6,5.6
			c3.3-0.7,5.7-3.7,8.6-5.3c5.6-3,12.3-1.1,18.5-0.2c1.3,0.3,2.8,0.3,4-0.2c1-0.6,1.9-1.3,2.4-2.2c2.8-3.5,4.5-7.9,4.7-12.4
			c0.3-4.6-1.4-9-4.6-12.2c-1.3-1.2-2.9-2.2-3.9-3.7c-1-1.7-1.5-3.6-1.6-5.7c-0.7-10.2,1.8-20.6-0.8-30.6c-0.9-3.5-2.4-6.9-2.9-10.5
			c-0.5-4.5,0.7-9.3-1.1-13.4c-1.4-3.3-4.5-5.6-7.8-6.8c-3.3-1.1-6.9-1.7-10.4-1.9C-125.2,1439.7-143.4,1437.5-145.6,1444.1z"/>
		<g class="st14">
			<path d="M-140.7,1502.7c-2.1,10.1-5,20-8.7,29.6c0.7-1.3,1.2-2.6,1.7-3.9c3.7-9.7,6.7-19.6,8.8-29.7c2.6-12.6,3.6-26.9-4.1-37.2
				c-1.9-2.4-4.3-5.1-4.2-8.1c-0.7,0.8-1.2,1.9-1.6,2.9c-0.9,3.3,2,6.4,4,9.2C-137.1,1475.7-138.1,1490-140.7,1502.7z"/>
			<path d="M-145.6,1449.2c0.7-0.9,1.3-2,1.7-3.2c0.2-1.4,0.1-2.8-0.1-4.2c-0.7,0.6-1.2,1.3-1.6,2.1
				C-146.1,1445.8-145.5,1447.6-145.6,1449.2z"/>
			<path d="M-90.2,1532.9c-0.7,0.9-1.5,1.8-2.5,2.2c-1.3,0.5-2.7,0.6-4,0.2c-6.2-0.9-13-2.9-18.5,0.2c-3,1.6-5.3,4.6-8.6,5.3
				c-5.5,1.2-10.2-4-15.6-5.6c-3.8-1-7.9-0.2-11.8,0.9c-0.7,1.7-1.8,3.2-3.1,4.5c4.3-1.2,8.8-2.4,13.1-1.3
				c5.4,1.5,10.1,6.8,15.6,5.6c3.3-0.7,5.7-3.7,8.6-5.3c5.6-3,12.3-1.1,18.5-0.2c1.3,0.3,2.8,0.3,4-0.2c1-0.6,1.9-1.3,2.4-2.2
				c1.7-2.2,3-4.7,3.8-7.3C-88.7,1530.8-89.4,1531.9-90.2,1532.9z"/>
		</g>
		<path class="st15" d="M-75.7,1701c0,2.5,0.3,4.6,0.7,4.6s0.7-2,0.7-4.6s-0.4-1.4-0.7-1.4S-75.7,1698.5-75.7,1701z"/>
		<path class="st15" d="M-79.2,1704c2.2,1.2,4.2,2,4.4,1.7c0.2-0.3-1.5-1.6-3.7-2.8c-2.2-1.2-1.4-0.3-1.5,0
			C-80.2,1703.2-81.5,1702.8-79.2,1704z"/>
	</g>
</g>
<g id="图层_2_1_">
	<g>
		<g>
			<polyline class="st16" points="-74.3,1798.9 -74.3,1804.9 -80.3,1804.9 			"/>
			<line class="st17" x1="-92.3" y1="1804.9" x2="-206.3" y2="1804.9"/>
			<polyline class="st16" points="-212.3,1804.9 -218.3,1804.9 -218.3,1798.9 			"/>
			<line class="st18" x1="-218.3" y1="1786.6" x2="-218.3" y2="1447.1"/>
			<polyline class="st16" points="-218.3,1440.9 -218.3,1434.9 -212.3,1434.9 			"/>
			<line class="st17" x1="-200.3" y1="1434.9" x2="-86.3" y2="1434.9"/>
			<polyline class="st16" points="-80.3,1434.9 -74.3,1434.9 -74.3,1440.9 			"/>
			<line class="st18" x1="-74.3" y1="1453.3" x2="-74.3" y2="1792.8"/>
		</g>
	</g>
	<rect x="-419.3" y="1816.3" class="st19" width="473.3" height="46.5"/>
	<text id="text_1_" transform="matrix(1 0 0 1 -419.3418 1846.3499)" class="st20 st21">#woman(hold[pen],point_to)</text>
	<g>
		<g>
			<polyline class="st16" points="-54.6,1558 -54.6,1564 -60.6,1564 			"/>
			<line class="st22" x1="-72.7" y1="1564" x2="-772.9" y2="1564"/>
			<polyline class="st16" points="-779,1564 -785,1564 -785,1558 			"/>
			<line class="st23" x1="-785" y1="1545.6" x2="-785" y2="1303.7"/>
			<polyline class="st16" points="-785,1297.5 -785,1291.5 -779,1291.5 			"/>
			<line class="st22" x1="-766.8" y1="1291.5" x2="-66.7" y2="1291.5"/>
			<polyline class="st16" points="-60.6,1291.5 -54.6,1291.5 -54.6,1297.5 			"/>
			<line class="st23" x1="-54.6" y1="1309.9" x2="-54.6" y2="1551.8"/>
		</g>
	</g>
	<rect x="-385" y="1240.2" class="st19" width="344.3" height="46.3"/>
	<text id="text_2_" transform="matrix(1 0 0 1 -385 1270.2993)" class="st20 st21">#chart(have[paper])</text>
	<g>
		<g>
			<polyline class="st16" points="-617.6,1337.5 -617.6,1343.5 -623.6,1343.5 			"/>
			<line class="st24" x1="-635.4" y1="1343.5" x2="-794.2" y2="1343.5"/>
			<polyline class="st16" points="-800,1343.5 -806,1343.5 -806,1337.5 			"/>
			<line class="st25" x1="-806" y1="1326.1" x2="-806" y2="1217"/>
			<polyline class="st16" points="-806,1211.2 -806,1205.2 -800,1205.2 			"/>
			<line class="st24" x1="-788.3" y1="1205.2" x2="-629.5" y2="1205.2"/>
			<polyline class="st16" points="-623.6,1205.2 -617.6,1205.2 -617.6,1211.2 			"/>
			<line class="st25" x1="-617.6" y1="1222.7" x2="-617.6" y2="1331.8"/>
		</g>
	</g>
	<rect x="-810.4" y="1158.2" class="st19" width="473.3" height="46.5"/>
	<text id="text_3_" transform="matrix(1 0 0 1 -810.3729 1188.2308)" class="st20 st21">#accessory(have[plant])</text>
	<g>
		<g>
			<polyline class="st16" points="54.7,1808.3 54.7,1814.3 48.7,1814.3 			"/>
			<line class="st26" x1="36.6" y1="1814.3" x2="-876" y2="1814.3"/>
			<polyline class="st16" points="-882,1814.3 -888,1814.3 -888,1808.3 			"/>
			<line class="st27" x1="-888" y1="1796.4" x2="-888" y2="1209.4"/>
			<polyline class="st16" points="-888,1203.4 -888,1197.4 -882,1197.4 			"/>
			<line class="st26" x1="-869.9" y1="1197.4" x2="42.7" y2="1197.4"/>
			<polyline class="st16" points="48.7,1197.4 54.7,1197.4 54.7,1203.4 			"/>
			<line class="st27" x1="54.7" y1="1215.3" x2="54.7" y2="1802.3"/>
		</g>
	</g>
	<rect x="-881.3" y="1816.3" class="st19" width="236.7" height="46.5"/>
	<text id="text_4_" transform="matrix(1 0 0 1 -881.3364 1846.3499)" class="st20 st21">#background</text>
</g>
</svg>
