<?xml version="1.0" encoding="utf-8"?>
<!-- Generator: Adobe Illustrator 19.0.0, SVG Export Plug-In . SVG Version: 6.00 Build 0)  -->
<svg version="1.1" xmlns="http://www.w3.org/2000/svg" xmlns:xlink="http://www.w3.org/1999/xlink" x="0px" y="0px"
	 viewBox="0 0 1000 1000" style="enable-background:new 0 0 1000 1000;" xml:space="preserve">
<style type="text/css">
	.st0{opacity:0.1;enable-background:new    ;}
	.st1{fill:#6C63FF;}
	.st2{fill:#464353;}
	.st3{fill:#514E7F;}
	.st4{opacity:0.5;fill:#6C63FF;enable-background:new    ;}
	.st5{opacity:0.1;fill:#6C63FF;enable-background:new    ;}
	.st6{fill:none;stroke:#535461;stroke-width:2;stroke-miterlimit:10;}
	.st7{opacity:0.25;enable-background:new    ;}
	.st8{fill:url(#SVGID_1_);}
	.st9{fill:#3F3D56;}
	.st10{fill:#A1616A;}
	.st11{opacity:5.000000e-02;enable-background:new    ;}
	.st12{opacity:0.1;}
</style>
<g id="_x23_background">
	<g class="st0">
		<g>
			<path class="st1" d="M955.8,712.8c-0.9,0.7-1.8,1.3-2.8,1.9c-3.4,2.4-7.1,4.5-10.8,6.3c-19.8,9.8-44,14.6-67.7,17.9
				c-53.1,7.3-107.3,8.7-161.2,10.2c-145.8,3.8-292,7.6-437.5-1.2c-57.5-3.4-116.2-9.2-168.3-26.9c-7.5-2.5-14.8-5.3-21.9-8.3
				C71,706.4,57,698.9,45.5,690c-10.9-8.4-19.8-18.1-25-29.1c-11-22.9-5.2-48.6,7.4-71c5.2-9.1,11.2-17.8,17.7-26.1
				c9.7-12.6,20.3-24.9,30.2-37.5c34.7-44.9,57.4-101.6,25.3-147.6c-9.2-13.2-22.5-24.8-30-38.6c-9.6-17.7-8.8-37.2-5.8-56.3
				c0.4-2.4,0.8-4.8,1.3-7.1c5.1-28.2,14.9-58.6,45.1-76.2c31.4-18.3,75.8-17.4,114.8-10.8c60.5,10.2,116.3,31.4,172.7,50.7
				S514.6,277,576.6,279c54.7,1.7,118.6-10.8,154.9-43.3c35.3-31.5,101.6-33.9,149.5-14.9c32.8,13,57.3,36.6,67.6,63
				c2.1,5.3,3.6,10.8,4.5,16.4c0.8,5.1,1.1,10.3,0.8,15.5c-0.2,2.5-0.4,5-0.8,7.6c-8,52.2-65.5,93.4-100.5,140
				c-17.1,22.8-29.2,50.2-17.4,74.7c17.9,37.4,80.2,50.8,117.9,78.6c7.1,5,13.3,11.1,18.5,17.9C989.8,659.5,983.1,693.1,955.8,712.8
				z"/>
		</g>
	</g>
</g>
<g id="_x23_other_x28_have_x5B_camera_x5D__x29_">
	<g>
		<polygon class="st2" points="653.3,729.7 645.8,729.7 591.3,448.2 584.3,729.7 576.4,729.7 567.5,448.7 514.3,729.7 506,729.7 
			542.1,440.4 543.3,431 614.1,423.1 616.3,440.4 		"/>
		<rect x="457.7" y="366.6" class="st2" width="45.1" height="28"/>
		<path class="st2" d="M719.4,354.4l27.2-11h6c1.8,0,3.3,1.5,3.3,3.3v76.8c0,1.8-1.5,3.3-3.3,3.3h-6l-27.2-11.3V354.4z"/>
		<rect x="663.5" y="357.8" class="st2" width="55.7" height="54"/>
		<rect x="566.8" y="256.4" class="st3" width="35.9" height="6.6"/>
		<rect x="525.9" y="264.9" class="st3" width="101" height="73.8"/>
		<rect x="525.9" y="329.9" class="st0" width="101" height="8.7"/>
		<rect x="662.7" y="357.8" class="st0" width="2.3" height="54"/>
		<path class="st3" d="M497.8,331.3h156.8c5,0,9,4,9,9V430c0,5-4,9-9,9H497.8c-5,0-9-4-9-9v-89.7
			C488.8,335.3,492.8,331.3,497.8,331.3z"/>
		<path class="st3" d="M718.8,354.4h0.5l0,0v61l0,0h-0.5c-2.4,0-4.4-1.9-4.4-4.4l0,0v-52.3C714.5,356.3,716.4,354.4,718.8,354.4z"/>
		<path class="st3" d="M746.6,343.4h5.6c2,0,3.6,1.6,3.6,3.6v76.2c0,2-1.6,3.6-3.6,3.6h-5.6l0,0V343.4L746.6,343.4z"/>
		<rect x="457.7" y="366.6" class="st0" width="8.1" height="28"/>
		<path class="st3" d="M454.7,357.8h3.6c3.4,0,6.1,2.7,6.1,6.1v35.5c0,3.4-2.7,6.1-6.1,6.1h-3.6c-3.4,0-6.1-2.7-6.1-6.1v-35.5
			C448.6,360.6,451.3,357.8,454.7,357.8z"/>
		<circle class="st2" cx="525.9" cy="264.9" r="50.4"/>
		<circle class="st1" cx="525.9" cy="264.9" r="37.7"/>
		<circle class="st2" cx="619.2" cy="265.9" r="36.7"/>
		<circle class="st1" cx="619.2" cy="265.9" r="27.6"/>
		<circle class="st1" cx="616.3" cy="347.3" r="4.9"/>
		<circle class="st4" cx="631.7" cy="347.3" r="4.9"/>
	</g>
</g>
<g id="_x23_wild_x28_have_x5B_plant_x5D__x29_">
	<g>
		<ellipse class="st5" cx="466.7" cy="732.3" rx="226.6" ry="7.7"/>
		<g id="_x35_5bfdb31-36b5-4718-97dd-773b4157bdc7_9_">
			<path class="st6" d="M646.7,727.2c0,0,48.8-61.8,45-123.1c-1.6-25.8,4.8-51.4,18.9-73c6.7-10.3,14.4-19.8,22.9-28.7"/>
			<path class="st1" d="M731.4,463.7c-3.4,8.6,2.1,39.8,2.1,39.8s25.6-18.7,29-27.2s-0.8-18.3-9.3-21.8
				C744.6,451,734.8,455.1,731.4,463.7L731.4,463.7L731.4,463.7z"/>
			<path class="st1" d="M686.7,500.9c1.8,9.1,23.4,32.2,23.4,32.2s11.3-29.5,9.5-38.6c-1.8-9.1-10.8-14.9-19.8-13
				C690.8,483.3,685,492,686.7,500.9L686.7,500.9z"/>
			<path class="st1" d="M655.1,582.6c6.1,7,36.4,16,36.4,16s-5.1-31.2-11.3-38.2c-6.1-7-16.7-7.6-23.6-1.5S649,575.6,655.1,582.6
				L655.1,582.6L655.1,582.6z"/>
			<path class="st1" d="M645.1,649.9c4.9,7.9,33.2,21.9,33.2,21.9s0.2-31.6-4.6-39.5c-4.8-7.9-15.1-10.4-23-5.6
				c-7.9,4.8-10.4,15.1-5.6,23C645,649.7,645.1,649.8,645.1,649.9z"/>
			<path class="st1" d="M742,547.9c-8.6,3.5-39.8-1.8-39.8-1.8s18.5-25.6,27.1-29.2c8.6-3.4,18.3,0.8,21.7,9.5
				C754.3,534.9,750.3,544.4,742,547.9z"/>
			<path class="st1" d="M729.4,626.3c-9.2,0.8-37.4-13.6-37.4-13.6s25.3-19,34.5-19.8c9.2-0.9,17.4,5.8,18.4,15
				c0.9,9.2-5.8,17.4-15,18.4C729.8,626.3,729.5,626.3,729.4,626.3z"/>
			<path class="st1" d="M706.6,700.9c-9,2.4-39.1-7.1-39.1-7.1s21.8-22.9,30.7-25.3c9-2.1,18,3.5,20.1,12.5
				C720.3,689.7,715.2,698.4,706.6,700.9L706.6,700.9z"/>
			<path class="st7" d="M731.4,463.7c-3.4,8.6,2.1,39.8,2.1,39.8s25.6-18.7,29-27.2s-0.8-18.3-9.3-21.8
				C744.6,451,734.8,455.1,731.4,463.7L731.4,463.7L731.4,463.7z"/>
			<path class="st7" d="M686.7,500.9c1.8,9.1,23.4,32.2,23.4,32.2s11.3-29.5,9.5-38.6c-1.8-9.1-10.8-14.9-19.8-13
				C690.8,483.3,685,492,686.7,500.9L686.7,500.9z"/>
			<path class="st7" d="M655.1,582.6c6.1,7,36.4,16,36.4,16s-5.1-31.2-11.3-38.2c-6.1-7-16.7-7.6-23.6-1.5S649,575.6,655.1,582.6
				L655.1,582.6L655.1,582.6z"/>
			<path class="st7" d="M645.1,649.9c4.9,7.9,33.2,21.9,33.2,21.9s0.2-31.6-4.6-39.5c-4.8-7.9-15.1-10.4-23-5.6
				c-7.9,4.8-10.4,15.1-5.6,23C645,649.7,645.1,649.8,645.1,649.9z"/>
			<path class="st7" d="M742,547.9c-8.6,3.5-39.8-1.8-39.8-1.8s18.5-25.6,27.1-29.2c8.6-3.4,18.3,0.8,21.7,9.5
				C754.3,534.9,750.3,544.4,742,547.9z"/>
			<path class="st7" d="M729.4,626.3c-9.2,0.8-37.4-13.6-37.4-13.6s25.3-19,34.5-19.8c9.2-0.9,17.4,5.8,18.4,15
				c0.9,9.2-5.8,17.4-15,18.4C729.8,626.3,729.5,626.3,729.4,626.3z"/>
			<path class="st7" d="M706.6,700.9c-9,2.4-39.1-7.1-39.1-7.1s21.8-22.9,30.7-25.3c9-2.1,18,3.5,20.1,12.5
				C720.3,689.7,715.2,698.4,706.6,700.9L706.6,700.9z"/>
			<path class="st6" d="M647.2,724.6c0,0,69.6-36.7,91-94.3c9-24.2,25.2-45.1,46.9-59.1c10.3-6.6,21.2-12.3,32.5-16.9"/>
			<path class="st1" d="M831.3,518c-6.6,6.5-14.2,37.2-14.2,37.2s30.9-6.7,37.6-13.1c6.6-6.6,6.6-17.1,0-23.7
				C848.3,511.9,838,511.8,831.3,518z"/>
			<path class="st1" d="M775.3,533.9c-2.1,9,8.3,38.9,8.3,38.9s22.3-22.4,24.4-31.4c2.3-9-3.2-18.1-12.2-20.3s-18.1,3.2-20.3,12.2
				C775.4,533.5,775.3,533.7,775.3,533.9L775.3,533.9z"/>
			<path class="st1" d="M713.4,595.9c2.8,8.8,26.8,29.4,26.8,29.4s7.9-30.6,5.1-39.4c-2.6-8.9-11.9-14-20.8-11.4
				c-8.9,2.6-14,11.9-11.4,20.8C713.3,595.5,713.3,595.7,713.4,595.9L713.4,595.9z"/>
			<path class="st1" d="M677.1,653.3c1.3,9.2,21.4,33.5,21.4,33.5s13-28.8,11.8-38s-9.7-15.6-18.8-14.4S675.8,644.1,677.1,653.3
				L677.1,653.3z"/>
			<path class="st1" d="M806.9,599.2c-9.2-0.3-35.6-17.7-35.6-17.7s27.3-16,36.6-15.7c9.2,0.4,16.4,8.2,16.1,17.5
				C823.4,592.3,815.9,599.4,806.9,599.2z"/>
			<path class="st1" d="M763.5,665.9c-8.7-3-28.7-27.6-28.7-27.6s30.9-7.1,39.6-4c8.7,3.2,13.1,12.9,9.9,21.5
				C781.2,664.1,772.1,668.6,763.5,665.9L763.5,665.9z"/>
			<path class="st1" d="M712.5,724.8c-9.2-1.5-32.9-22.4-32.9-22.4s29.2-12.2,38.3-10.7c9.1,1.7,15.1,10.3,13.4,19.5
				C729.9,720.1,721.5,726.1,712.5,724.8z"/>
		</g>
	</g>
</g>
<g id="_x23_man_x28_stand_x29_">
	<g>
		
			<linearGradient id="SVGID_1_" gradientUnits="userSpaceOnUse" x1="440.4697" y1="765.098" x2="440.4697" y2="223.5041" gradientTransform="matrix(1 0 0 1 -24.78 -29.5)">
			<stop  offset="0" style="stop-color:#808080;stop-opacity:0.25"/>
			<stop  offset="0.54" style="stop-color:#808080;stop-opacity:0.12"/>
			<stop  offset="1" style="stop-color:#808080;stop-opacity:0.1"/>
		</linearGradient>
		<path class="st8" d="M570.8,364l-0.3-0.7c2.1,0.7,4.2,1.7,6.1,2.8c-0.8-7.3-28.8-27.8-33.9-27.8s-10.7-8.7-10.7-8.7
			s-14.5-2.3-16.8-4.6s-17.4-1-21-0.2s-9.2-2.3-9.2-2.3s-3.1-5-7-5c-3.9,0-8.2-5.6-8.2-5.6s-3.6-3.4-7-4c-3.4-0.6-7.6-4.2-9.5-7.1
			s-11.8-4.2-17.4-3.4s-20.8-1.2-20.8-1.2c6.1-2.8,7.6-9.6,7.6-9.6c-5.5-0.3-20-12.4-20-12.4s0.6,4,1.3,9.4l-0.9-1.2l-0.1,0.1
			c-0.3-4-0.3-7.8-0.1-11.8c0-0.3,0.1-0.6,0.1-0.9c7.3-6.4,10.5-16.3,8.2-25.8c-0.2-0.7-0.3-1.3-0.5-1.8c1.1,0.4,2.2,0.8,3.4,0.8
			h0.6c1.4,0,2.8-0.6,3.7-1.6l0,0c0.2-0.2,0.3-0.4,0.4-0.7c0-0.1,0.1-0.1,0.1-0.2c0.1-0.2,0.2-0.4,0.3-0.7c0-0.1,0.1-0.2,0.1-0.3
			c0.1-0.2,0.1-0.3,0.1-0.5s0-0.3,0-0.4s0-0.3,0-0.3c0-1.3-0.3-2.6-0.8-3.8c-0.8-2.2-2.2-4.3-2.1-6.6c0-0.2,0-0.3,0.1-0.6
			c0.3-1.8,1.2-3.5,1.8-5.3v0.3c0.1-0.3,0.2-0.5,0.2-0.8c0-0.1,0.1-0.2,0.1-0.3c0.1-0.3,0.1-0.6,0.1-0.9v-0.1c0.3-3.5-2.6-6.6-5.8-8
			c-2.9-1.3-6.1-1.6-8.8-3.4c-3-2-4.6-5.4-6.9-8.2c-3.2-4.1-8.3-7.2-13.4-6.6c-3.2,0.3-6.1,2-9.2,2.7c-4.8,1-9.9-0.4-14.7,0.7
			c-1.2,0.2-2.2,0.8-3,1.7c-0.3,0.4-0.5,1-0.6,1.5l0,0c-0.1,0.5-0.1,1,0,1.5v0.1c0.1,0.5,0.2,0.9,0.3,1.4l0.1,0.3
			c0,0.1,0,0.2,0.1,0.3s0.1,0.4,0.2,0.6c0.1,0.3,0.2,0.7,0.3,1v0.1c0.1,0.3,0.2,0.7,0.2,1l0,0c0.2,0.8,0.3,1.4,0.3,2.2l0,0
			c0.2,2.1-0.3,4.2-1.3,6c-2.1,3.4-6.6,4.9-8.5,8.3c-0.4,0.8-0.8,1.8-0.8,2.7l0,0c0,0.3-0.1,0.7,0,0.9v0.3c0,0.3,0,0.6,0.1,0.8
			c0,0.1,0,0.2,0,0.2c0.1,0.3,0.1,0.5,0.2,0.8c0,0.1,0,0.2,0.1,0.3c0.1,0.3,0.2,0.6,0.3,0.8l0,0c0.9,1.8,2.6,3.4,2.9,5.5l0,0
			c0,0.1,0,0.1,0,0.2c0.2,1.5-0.4,3-0.8,4.5c-0.1,0.2-0.1,0.3-0.1,0.6l0,0c0,0.1,0,0.1,0,0.2s0,0.3,0,0.4s0,0.2,0,0.3
			c0,0.1,0,0.3,0,0.3s0,0.2,0,0.3c0,0.1,0,0.3,0,0.3s0,0.2,0,0.3s0.1,0.2,0.1,0.3l0.1,0.2c0,0.1,0.1,0.2,0.2,0.3l0.1,0.2
			c0.1,0.1,0.2,0.2,0.2,0.3c0,0.1,0.1,0.1,0.1,0.2c0.1,0.2,0.3,0.3,0.4,0.3c1.2,0.8,2.9,0.6,4,1.7c0.1,0.2,0.2,0.3,0.3,0.4l0.1,0.1
			c0.1,0.2,0.1,0.3,0.2,0.5l0,0c0.2,0.7,0.2,1.3,0,1.9c-0.3,1.7-1,3.2-1.4,4.9c-0.1,0.3-0.1,0.7-0.2,1l0,0c0,0.2,0,0.3,0,0.5v0.1
			c0,0.2,0,0.3,0,0.4c0,0.1,0,0.1,0,0.1c0,0.2,0,0.4,0.1,0.7s0,0.2,0.1,0.3l0.1,0.3c0,0.1,0.1,0.3,0.1,0.3l0.1,0.2
			c0,0.1,0.1,0.3,0.2,0.3c0,0.1,0.1,0.1,0.1,0.2c0.1,0.2,0.2,0.3,0.3,0.5c1,1.3,2.7,1.8,4.5,1.8c1,0,2-0.1,2.9-0.3
			c0.3,0.5,0.4,1,0.7,1.5c1.2,2.4,2.8,4.7,4.7,6.6c0,0.3-0.1,0.5-0.1,0.8c-0.2,1.9-0.4,4-0.7,6.1c-2.2-1-3.9-1.3-4.5-0.7
			c-2.9,3.1,0,13.8,0,13.8s-13.8,0-17.1,3.1c-3.4,3.1-9.5,0-9.5,0s-12.6,1.4-11.8,4s-6.7,0-6.7,0s-5.3,0.6-5,4.2
			c0.3,3.6-8.2,5.3-7,7.8c1.1,2.5-5,4.2-5,4.2s-6.1-0.3-4,3.4l0,0c0,0-3.4,7.9-6.1,8.4c-2.8,0.5-6.5,7.1-6.5,7.1s-10.8,1.9-10.3,5.4
			c0.4,3.4-16.6,27.5-16.6,27.5s-5.6,11.6-1.7,20c4,8.4,6.7,14,7.6,17.1c0.8,3.1,11,16.6,10.9,19.2c0,0.8,2.5,5,6,10.4l-1,1
			l-2.2,2.3c0,0-7,17.4,1.4,18.2c7.1,0.7,12.2,1.3,14.8,0.5c0.4-0.1,0.8-0.3,1.2-0.5l0.1-0.1c3,4.5,5.2,7.6,5.2,7.6s0.3-0.4,0.8-1.2
			l0.8,1.2c0,0,0.7-0.9,1.8-2.5c-0.3,7.6-0.4,15.1-0.4,15.1s3.6-0.6,1.9,16.3c-1.7,16.9,10.1,30.6,10.1,30.6v25.1l0,0
			c0,0,0,0.7,0.1,1.7c0.3,3.6,1.3,12,4.4,17.7c4,7.3,0,26.4,0,26.4s-0.3,15.6,0.7,35.1c0,0.5,0.1,1.1,0.1,1.6
			c-17,14.2-35.2,33-35.2,33c0.9,0.3,1.8,0.7,2.5,1.1l-1,1.3l-4.6,5.7l0,0l-3.6,4.5l0,0l5.7,17.5l6.2-2.4c0,0,3.4,5.8,2.7,9.8
			c-0.1,0.7-0.4,1.4-0.8,1.9c-0.3,0.3-0.3,0.6-0.4,1c-1.6,6.3,5.1,33.6,15.9,34.8c0,0,3.6,1.2,4.8-2.1c0.6-1.6,0.6-4.2-0.7-8.5
			c0,0-5.7-6.8-2-14.2c2.2-4.3,5.7-10.1,8.3-14.1l1.1-1.7c2.4,2.9,3.7,4.8,3.7,4.8l8.2-8.9c0.2,0.3,0.3,0.8,0.5,1.1
			c0.6,1.3,1.3,2.4,2.1,3.5l5.6,22.2l2.3-0.5c-0.1,0.5-0.1,1.1-0.1,1.7c-0.2,4,0,9.2,1.8,12.9c1.3,2.9,3.7,4.8,7.5,4.7
			c13-0.3,16.8-7.4,16.8-7.4v-17.7l4.5-1c0,0-0.3-38.8-1.5-60.4c0-0.5-0.1-0.9-0.1-1.4c0-0.1,0-0.2,0-0.2l28.7-30.9l2.2-0.9
			c18.5-7.3,18.7-26.1,18.7-26.1s0-10.4,2.3-19.1s0.3-54-4-65.1c-4.2-11.2-5.6-23.9-5.6-23.9s4.2-5.9,0-10.8
			c-1.2-1.4-2.2-3.1-2.9-4.8l5.5-0.9l3.2-0.5l1.7-0.3c-0.8,7.4-1,13.1,1,14.5c6.1,4.2,26.9-9.8,26.9-9.8c-7.6,0-11.8-56.5-10.3-57.8
			c1.5-1.3,3.9-29.7,1.8-34.7c-2-5,7.1-27.6,7.1-27.6l1.4-2.1l0,0c0,0,33,14.5,36.7,17.2c3.7,2.8,15.1-6.7,17.1-3
			c1.9,3.7,14.3,9.2,14.3,9.2s18.2-1.8,20.2,2.7s13.7,15,13.7,15c0-2.4,0.2-5,0.4-7.4c0.3,0.6,0.5,1.2,0.8,1.8
			c5.5,13.2,14.9,29.9,23.5,20.9C583,392.4,575.6,373.5,570.8,364z M321.7,423.6v0.2V423.6L321.7,423.6z M315.1,358.8l-3.5,37.6
			l-7,7.2l-0.8,0.9l-7.2-7.9c0,0-3.6-1.7,0-4.8c3.6-3.1-6.1-10.1-6.1-10.1s-0.3-5,3.4-6.5c3.6-1.4,8.4-10.7,8.4-10.7l13.2-6.7l0,0
			l0,0L315.1,358.8z M362,551.2c0.3-0.3,0.5-0.4,0.8-0.6c1.6-0.9,2.6,0.1,3.1,1.8c0.7,2.9,0.5,5.9-0.6,8.7
			c-1.9,4.5,2.8,22.4,2.8,22.4s-6.1,2.8-7.3,8.2c-0.2,0.7-0.4,1.3-0.8,1.8c-0.1-0.5-0.2-0.9-0.2-1.3c-0.5-3.4-0.8-5.5-0.8-5.5
			c-1-4.3-1.2-8.8-0.6-13.2c0.9-5.4,2.7-16.4,3.4-20.5C361.9,551.8,362,551.2,362,551.2L362,551.2z"/>
		<path class="st2" d="M401,277.5l1.8-1.2l5.1,10.8l-1.9,2.4h-6c0,0,0.2-5.9,0.3-6.1C400.6,283.3,401,277.5,401,277.5z"/>
		<path class="st9" d="M365.9,705.8v23.1c0,0-3.8,7.1-16.8,7.4c-3.3,0.2-6.2-1.7-7.5-4.7c-1.8-3.7-2-8.8-1.8-12.8c0.1-2,0.3-4,0.7-6
			L365.9,705.8z"/>
		<path class="st0" d="M365.9,705.8v7.1l-26.1,5.8c0.1-2,0.3-4,0.7-6L365.9,705.8z"/>
		<path class="st3" d="M370.4,710.2l-32.8,7.3l-5.6-22.1c-0.8-1.1-1.5-2.3-2.1-3.5c-0.3-0.7-0.8-1.4-1-2.3c-6.1-14-8.8-39.2-10-60.6
			c-0.1-1.1-0.1-2.2-0.2-3.2c-0.9-19.4-0.7-35-0.7-35s4-19.1,0-26.3c-3-5.6-4-14-4.4-17.7c-0.1-1.1-0.1-1.7-0.1-1.7l0.6-1.6l2.4-6.6
			h27.2l15.8,13.4l2.4,2l-0.3,1.7c-0.7,4.1-2.5,15.1-3.4,20.5c-0.7,4.4-0.4,8.8,0.6,13.2c0,0,0.3,2.1,0.8,5.5
			c0.1,0.8,0.3,1.8,0.4,2.7c2,12.4,5.8,35.1,7.4,40.5c0.4,1.5,0.8,5.2,1.2,10.3c0.1,1,0.1,2,0.2,3.2
			C370.1,671.5,370.4,710.2,370.4,710.2z"/>
		<path class="st0" d="M365.9,728.6v0.3c0,0-3.8,7.1-16.8,7.4c-3.3,0.2-6.2-1.7-7.5-4.7C347.5,732.9,356.9,733.8,365.9,728.6z"/>
		<path class="st10" d="M573.3,404.2c-8.7,9-17.9-7.7-23.5-20.8c-3.1-7.4-5.1-13.7-5.1-13.7l23-9.8c0,0,1.4,2.3,3.2,5.8
			C575.6,375.1,583,394,573.3,404.2z"/>
		<path class="st10" d="M403,272.9c-0.3,8.3,0.3,16.6,1.8,24.8c0,0-46.8,5-42.6-2.3c2.4-4.3,4-15.6,5-24.1
			c0.7-6.1,0.9-10.8,0.9-10.8s44.8-18,38.1-2.9C404.2,262.2,403.3,267.5,403,272.9z"/>
		<polygon class="st2" points="406.9,393.3 400.7,468.4 429.5,463.6 424.5,401.7 426.2,385.1 		"/>
		<polygon class="st0" points="429.5,463.7 417,465.8 400.7,468.5 401.8,454.7 406.9,393.4 413.5,390.6 418.2,388.7 426.2,385.3 
			424.5,401.8 		"/>
		<path class="st9" d="M308,710.5c-3.7,7.4,2,14.2,2,14.2c1.3,4.3,1.3,6.9,0.7,8.4c-1.2,3.3-4.8,2.1-4.8,2.1
			c-11.4-1.3-18.4-32.1-15.5-35.6c2.9-3.5-1.8-11.7-1.8-11.7l-6.2,2.4l-5.7-17.4l3.6-4.4l4.6-5.7l3.1-3.9l31.3,32.7
			c0,0-1.3,2-3.2,4.9C313.7,700.5,310.2,706.3,308,710.5z"/>
		<path class="st0" d="M368.9,649.9l-39,41.9c-6.8-13.4-9.8-40.2-11-62.8c7.2-6.1,14.3-11.3,19.6-13.8c0,0,18-13,21.8-19.2
			c2,12.4,5.8,35.1,7.4,40.5C368.2,638.3,368.6,643.3,368.9,649.9z"/>
		<polygon class="st0" points="359.6,550.4 314.1,543.6 316.6,537 343.8,537 		"/>
		<path class="st0" d="M368.7,646.7l-39.9,42.8c-6.1-14-8.8-39.2-10-60.6c-0.1-1.1-0.1-2.2-0.2-3.2c7.3-6.1,14.5-11.3,19.8-14
			c0,0,16.8-12.1,21.4-18.6c0.1,0.8,0.3,1.8,0.4,2.7c2,12.4,5.8,35.1,7.4,40.5C368.1,638,368.4,641.7,368.7,646.7z"/>
		<path class="st0" d="M319.5,691.5c0,0-1.3,2-3.2,4.9c-6.7-8.4-22.5-27.9-31.3-33.7l3.1-3.9L319.5,691.5z"/>
		<path class="st3" d="M420.9,571.5c-2.3,8.7-2.3,19.1-2.3,19.1s-0.3,18.7-18.7,26.1l-2.2,0.8l-76.5,82c0,0-28.3-37-37.6-39.3
			c0,0,37.2-38.4,54.9-46.8c0,0,21.3-15.4,22.4-20.8c1.2-5.4,7.3-8.2,7.3-8.2s-4.8-17.9-2.8-22.4c1.1-2.8,1.3-5.7,0.6-8.6
			c-0.5-1.7-1.5-2.7-3.1-1.8c-0.3,0.2-0.6,0.3-0.8,0.6l-48.5-7.3v-24.9c0,0-11.8-13.7-10.1-30.5c1.7-16.8-1.9-16.2-1.9-16.2
			s0.2-28.4,2.6-30.8c2.4-2.4,25.4-13.2,25.4-13.2l72.1,12.8l2.9,13.8c0,0,2.5,11,6.7,15.9s0,10.8,0,10.8s1.4,12.6,5.6,23.9
			C421.2,517.8,423,562.8,420.9,571.5z"/>
		<path class="st0" d="M406.2,257.7c-2,4.5-2.9,9.9-3.3,15.2c-10.4,9.1-26.1,8.4-35.8-1.6c0.7-6.1,0.9-10.8,0.9-10.8
			S413,242.6,406.2,257.7z"/>
		<path class="st10" d="M411.9,252.4c0,14.4-11.7,26.1-26.1,26.1c-14.4,0-26.1-11.7-26.1-26.1c0-14.4,11.7-26.1,26.1-26.1
			c12,0,22.5,8.2,25.3,19.9C411.8,248.3,412,250.3,411.9,252.4z"/>
		<path class="st0" d="M390.8,297.7c0,0-18.7-8.7-19.9-9.8c-1.2-1.2-40,98.6-40,98.6L320,436.1c0,0,58.3,25,70.9,21.6
			c12.6-3.4,13.7,0,13.7,0s12.9-72.3,17.1-78.8c4.2-6.5-4-72-4-72l-14.5-19L390.8,297.7z"/>
		<path class="st0" d="M390.8,294.4c0,0-18.7-8.7-19.9-9.8s-40,98.6-40,98.6L320,432.7c0,0,58.3,25,70.9,21.6
			c12.6-3.4,13.7,0,13.7,0s12.9-72.3,17.1-78.8c4.2-6.5-4-72-4-72l-14.5-19L390.8,294.4z"/>
		<path class="st1" d="M421.7,377.3c-0.8,1.3-2.1,5.5-3.5,11.3c-1,4-2.1,8.7-3.2,13.9c-5,23.1-10.4,53.6-10.4,53.6s-0.3-1-2.8-1.3
			c-1.9-0.3-5.3-0.1-10.9,1.3c-12.6,3.4-70.9-21.6-70.9-21.6l1.7-7.6l9.2-42c0,0,38.9-99.8,40.1-98.6c0.7,0.7,8,4.2,13.5,6.8
			c3.5,1.7,6.4,3,6.4,3l11.8-9.3l0.7-0.5l14.5,19.1C417.8,305.3,425.9,370.9,421.7,377.3z"/>
		<path class="st0" d="M377.1,305.9c1.7,6.5-2.3,17.1-2.3,17.1s-13.4,33-17.4,48.3c-4,15.3-26.4,46.1-26.4,46.1s-3.3,3.3-7.9,7.9
			c-0.5,0.5-1,1-1.6,1.6l9.2-42c0,0,38.9-99.8,40.1-98.6c0.7,0.7,8,4.2,13.5,6.8C381,296.2,376,301.6,377.1,305.9z"/>
		<path class="st2" d="M375.5,305.9c1.7,6.5-2.3,17.1-2.3,17.1s-13.4,33-17.4,48.3c-4,15.3-26.4,46.1-26.4,46.1s-3.3,3.3-7.9,7.9
			c-0.5,0.5-1.1,1.1-1.7,1.7c-9,9-21.7,21.5-25.6,25.2c-0.6,0.5-1,0.9-1.2,1c-0.3,0.3-0.8,0.4-1.2,0.5c-2.6,0.7-7.6,0.2-14.8-0.5
			c-8.4-0.8-1.4-18.2-1.4-18.2l2.2-2.3l2-2.1l22.9-23.5l1.7-1.8l7-7.2l3.5-37.5l0.1-0.9c0,0-1-2.4-2.6-6
			c-4.3-9.8-12.7-28.7-15.8-34.9c-0.3-0.8-0.7-1.3-0.8-1.6c0,0,0-0.1-0.1-0.1c-2.3-3.6,4-3.4,4-3.4s6.1-1.7,5-4.2
			c-1.1-2.5,7.3-4.2,7-7.8c-0.3-3.6,5-4.2,5-4.2s7.6,2.5,6.7,0c-0.8-2.5,11.8-4,11.8-4s6.1,3.1,9.5,0c3.4-3.1,17.1-3.1,17.1-3.1
			s-2.9-10.7,0-13.7s24,13.7,24,13.7S373.8,299.4,375.5,305.9z"/>
		<path class="st0" d="M305.4,449.3c0,0,23.3,32.8,39.5,22.1C361.1,460.7,323,433,323,433L305.4,449.3z"/>
		<path class="st10" d="M305.4,447.6c0,0,23.3,32.8,39.5,22.1S323,431.3,323,431.3L305.4,447.6z"/>
		<path class="st0" d="M417,465.7c1.8-15.5,6.9-38.8,2.7-45.8c-2.1-3.5-3.6-10.2-4.7-17.5c-0.6-4-1.1-8.1-1.5-11.9
			c-1-10.3-1.3-19.2-1.3-19.2s-10.1-45-8.2-54.2c1.3-5.8-0.2-20.3-1.4-30.3l0.7-0.5l14.5,19.1c0,0,8.2,65.6,4,72
			c-0.8,1.3-2.1,5.5-3.5,11.3l8-3.4l-1.7,16.6l5,62L417,465.7z"/>
		<path class="st2" d="M402.9,276.4c0,0,14.5,12.1,20,12.4c0,0-1.5,6.7-7.6,9.5c0,0,15.1,2,20.8,1.2s15.4,0.5,17.4,3.4
			s6.2,6.5,9.6,7s7,4,7,4l-24.7,36.3c0,0-9,22.4-7,27.5s-0.3,33.4-1.8,34.7c-1.6,1.3,2.7,57.7,10.3,57.7c0,0-20.8,14-26.9,9.8
			c-6.1-4.2,7.8-49.6,1.7-59.9s-7.6-48.6-7.6-48.6s-10.1-45-8.2-54.2C407.7,307.9,402.9,276.4,402.9,276.4z"/>
		<path class="st0" d="M570.8,365.6c-7.5-2.4-19-2.4-21.1,17.7c-3.1-7.4-5.1-13.7-5.1-13.7l23-9.8
			C567.7,359.8,569.1,362.1,570.8,365.6z"/>
		<path class="st2" d="M456.2,312l13.7,1.7c0,0,4.2,5.6,8.2,5.6s7,5,7,5s5.6,3.1,9.2,2.3c3.6-0.8,18.7-2.2,21,0.2
			c2.3,2.4,16.8,4.6,16.8,4.6s5.6,8.7,10.7,8.7s33,20.4,33.9,27.7c0,0-27.7-17.7-28,21.2c0,0-11.8-10.5-13.7-15
			c-1.9-4.5-20.2-2.7-20.2-2.7s-12.4-5.5-14.3-9.1c-1.9-3.6-13.4,5.8-17.1,3c-3.6-2.8-36.7-17.1-36.7-17.1l-10.3-19.2L456.2,312z"/>
		<circle class="st9" cx="392.8" cy="343.7" r="2.4"/>
		<circle class="st9" cx="390.4" cy="393.4" r="2.4"/>
		<circle class="st9" cx="392.8" cy="367.2" r="2.4"/>
		<circle class="st9" cx="386" cy="419.5" r="2.4"/>
		<path class="st0" d="M310.7,733.2c-1.2,3.3-4.8,2.1-4.8,2.1c-11.4-1.3-18.4-32.1-15.5-35.7c2.9-3.5-1.8-11.7-1.8-11.7l-6.2,2.4
			l-5.7-17.4l3.6-4.4c3.5,6.1,8.7,15,9.8,17.3c2.3,4.7,3.4,9.9,3.2,15.1C293.3,706.3,299.6,732.5,310.7,733.2z"/>
		<path class="st0" d="M411.3,246.3c-0.6-0.2-1.2-0.4-1.7-0.7c-1.9-0.8-4-1.7-5.1-3.4c-1.1-1.6-1.4-3.8-3.1-4.6
			c-1.9-1-4.2,0.3-6.3,0.8c-2.4,0.6-5-0.1-7.5-1c-3.6-1.3-8.6-3.8-12.3-1.3c-2.9,1.9-1.8,6.1-2.5,9.1c-1.2,4.5-6,7.6-6.9,12.2
			c-0.4,2-0.2,4.5-1.8,5.8c-0.5,0.3-1,0.6-1.6,0.7c-6.4-12.9-1.1-28.5,11.9-34.9c12.9-6.4,28.5-1.1,34.9,11.9
			C410.2,242.6,410.9,244.4,411.3,246.3L411.3,246.3z"/>
		<path class="st2" d="M387.7,235.7c2.4,0.9,5,1.6,7.5,1c2.1-0.5,4.4-1.8,6.3-0.8c1.7,0.9,2,3.1,3.1,4.6c1.2,1.7,3.2,2.6,5.1,3.4
			c1.4,0.7,2.9,1.1,4.5,1.3c1.6,0.2,3.2-0.4,4.3-1.6c1.5-1.8,1-4.5,0.2-6.6s-2.2-4.3-2.1-6.6c0.1-2.8,2.1-5.2,2.3-8
			c0.3-3.5-2.6-6.6-5.8-8c-2.9-1.3-6.1-1.6-8.8-3.4c-3-1.9-4.6-5.4-6.9-8.2c-3.2-4.1-8.3-7.1-13.4-6.6c-3.2,0.3-6.1,2-9.2,2.7
			c-4.8,1-9.9-0.4-14.7,0.7c-1.2,0.2-2.2,0.8-3,1.6c-1.2,1.6-0.6,3.8-0.1,5.7c0.9,3.4,1.3,7.3-0.5,10.3c-2.1,3.4-6.6,4.9-8.5,8.3
			c-1.2,2.1-1.2,4.6-0.2,6.7c0.9,1.9,2.7,3.5,3,5.6c0.2,1.5-0.4,3-0.8,4.5s-0.3,3.4,1,4.2c1.3,0.8,2.9,0.7,4,1.7
			c0.6,0.8,0.8,1.9,0.4,2.9c-0.3,1.7-1,3.2-1.4,4.9c-0.5,1.6-0.3,3.4,0.7,4.9c1.6,2.2,5,2.1,7.6,1.5c0.8-0.1,1.5-0.4,2.1-0.8
			c1.7-1.3,1.3-3.8,1.8-5.8c0.9-4.6,5.8-7.6,6.9-12.2c0.8-2.9-0.4-7.1,2.5-9.1C379.1,232,384,234.4,387.7,235.7z"/>
		<path class="st0" d="M383.5,539.8c0,0,26.4,16.8,27.2,23.3L383.5,539.8z"/>
		<path class="st0" d="M382.2,553.3c0,0,30.3,14.5,28.6,19.6L382.2,553.3z"/>
		<path class="st0" d="M380.2,566.1c0,0,17.1,9,18.2,14.3L380.2,566.1z"/>
		<path class="st0" d="M387.5,586.3c0,0,11.2,9.8,13.4,7.3C403.2,591.1,387.5,586.3,387.5,586.3z"/>
		<path class="st0" d="M371.8,592.5c0,0,8.7,14,4.5,14.9C372.1,608.2,371.8,592.5,371.8,592.5z"/>
		<path class="st0" d="M333.4,343.7c0,0-14.9,9-10.3,11.2S333.4,343.7,333.4,343.7z"/>
		<path class="st0" d="M333.4,310.6c0,0-15.1,27.7-8.2,25.8C332.3,334.5,333.4,310.6,333.4,310.6z"/>
		<path class="st0" d="M494.2,338.3c0,0-9.2,10.8-7.6,16.8L494.2,338.3z"/>
		<path class="st0" d="M518.4,343.7c0,0-13.9,12.4-11.9,13.7L518.4,343.7z"/>
		<path class="st0" d="M527,358.8c0,0-1.4,8.1,0.8,8.4L527,358.8z"/>
		<path class="st11" d="M375.6,529.8c-3.5,4.6-3.5,12.8-5.2,16.1c-0.8,1.8-2.9,5-4.5,7.6c-0.5-1.7-1.5-2.7-3.1-1.8
			c-1-7.7-2.9-21-3.4-23.7c-0.8-3.8,8.4-13.9,8.4-13.9s9.1,1.8,11.3,6.6C381.4,525.5,379.2,525.2,375.6,529.8z"/>
		<path class="st0" d="M328.9,432.5c-10.1,1.4-28.8,28.3-28.8,28.3s-2.4-3.6-5.9-8.6c-4.3-6.3-10.1-15-14.3-21.5l24.6-25.4l4.5,4.8
			c0,0,8.7,8.7,8.7,10.3c0,0.7,1.7,2.6,3.8,4.8C324.8,428.7,328.9,432.5,328.9,432.5z"/>
		<path class="st0" d="M296.8,318.7c-0.3-0.8-0.7-1.3-0.8-1.6l10.8,0.8l5.8,35.7C308.2,343.9,299.8,324.9,296.8,318.7z"/>
		<path class="st0" d="M319.8,427c-9,9-21.7,21.5-25.6,25.2c-0.6,0.5-1,0.9-1.2,1c-0.3,0.3-0.8,0.4-1.2,0.5c-4-5.8-9.6-14.2-14-21
			l2-2.1l22.9-23.5l2.9,3c0,0,8.7,8.7,8.7,10.3C314.4,421.3,317,424.2,319.8,427z"/>
		<path class="st2" d="M308.5,317.9l-12.6-0.8c0,0-3.4,7.8-6.1,8.4c-2.8,0.6-6.5,7-6.5,7s-10.8,1.9-10.3,5.3
			c0.4,3.4-16.6,27.5-16.6,27.5s-5.6,11.5-1.7,19.9c4,8.4,6.7,14,7.6,17.1c0.8,3,10.8,16.6,10.7,19.1c-0.1,2.5,25.5,39.5,25.5,39.5
			s18.7-26.9,28.8-28.3c0,0-11.2-10.3-11.2-12c0-1.7-8.7-10.3-8.7-10.3l-10.9-11.8c0,0-3.6-1.7,0-4.8c3.6-3.1-6.1-10.1-6.1-10.1
			s-0.3-5,3.4-6.5c3.6-1.4,8.4-10.7,8.4-10.7l13.2-6.7L308.5,317.9z"/>
		<path class="st0" d="M260.3,373.6c0,0,15.1-3.1,15.4-1.1C275.9,374.6,260.3,373.6,260.3,373.6z"/>
		<path class="st0" d="M272.9,388.9c0,0,12.9,1.7,12.3,4.5S272.9,388.9,272.9,388.9z"/>
		<path class="st0" d="M283.5,341.3c0,0,12.4,17.5,14,13.9L283.5,341.3z"/>
		<g class="st12">
			<path d="M357.6,211.2c0.1-2-0.2-4-0.8-6.1c-0.3-0.8-0.4-1.7-0.6-2.5c-0.1,1.4,0.1,2.9,0.6,4.2
				C357.3,208.3,357.6,209.7,357.6,211.2z"/>
			<path d="M416.6,229.7c0.3-2.5,2.1-4.8,2.2-7.4c0-0.4,0-0.8-0.1-1.3c-0.3,2.6-2.1,5-2.3,7.6C416.5,229,416.5,229.3,416.6,229.7z"
				/>
			<path d="M418.4,241.9c-1.1,1.2-2.7,1.8-4.3,1.6s-3.1-0.6-4.5-1.3c-1.9-0.8-4-1.7-5.1-3.4c-1.1-1.6-1.4-3.8-3.1-4.6
				c-1.9-1-4.2,0.3-6.3,0.8c-2.4,0.6-5-0.1-7.5-1c-3.6-1.3-8.6-3.8-12.3-1.3c-2.9,1.9-1.8,6.1-2.5,9.1c-1.2,4.5-6,7.6-6.9,12.2
				c-0.4,2-0.2,4.5-1.8,5.8c-0.7,0.4-1.3,0.8-2.1,0.8c-2.7,0.6-6,0.8-7.6-1.5c-0.4-0.6-0.8-1.3-0.8-2.2c-0.3,1.3,0.1,2.7,0.8,3.9
				c1.6,2.2,5,2.1,7.6,1.5c0.8-0.1,1.5-0.4,2.1-0.8c1.7-1.3,1.3-3.8,1.8-5.8c0.9-4.6,5.8-7.6,6.9-12.2c0.8-2.9-0.4-7.1,2.5-9.1
				c3.7-2.5,8.7-0.1,12.3,1.3c2.4,0.9,5,1.6,7.5,1c2.1-0.5,4.4-1.8,6.3-0.8c1.7,0.9,2,3.1,3.1,4.6c1.2,1.7,3.2,2.6,5.1,3.4
				c1.4,0.7,2.9,1.1,4.5,1.3s3.2-0.4,4.3-1.6c0.8-1.1,1.2-2.5,0.9-3.9C419.3,240.5,418.9,241.2,418.4,241.9z"/>
			<path d="M350.7,236.1c-0.3-2.1-2.1-3.7-3-5.6c-0.3-0.8-0.6-1.5-0.7-2.4c-0.2,1.3,0.1,2.8,0.7,4c0.9,1.8,2.6,3.4,2.9,5.5
				C350.7,237.1,350.7,236.6,350.7,236.1z"/>
			<path d="M355.3,249.3c0.3-0.9,0.1-1.9-0.5-2.7c-0.9-1.1-2.8-0.8-4-1.7c-0.6-0.5-1-1.2-1.1-2c-0.2,1.3,0,2.9,1.1,3.7
				s2.9,0.7,4,1.7C355,248.5,355.2,248.9,355.3,249.3z"/>
		</g>
	</g>
</g>
</svg>
