<?xml version="1.0" encoding="utf-8"?>
<!-- Generator: Adobe Illustrator 19.0.0, SVG Export Plug-In . SVG Version: 6.00 Build 0)  -->
<svg version="1.1" xmlns="http://www.w3.org/2000/svg" xmlns:xlink="http://www.w3.org/1999/xlink" x="0px" y="0px"
	 viewBox="0 0 1000 1000" style="enable-background:new 0 0 1000 1000;" xml:space="preserve">
<style type="text/css">
	.st0{fill:#E6E6E6;}
	.st1{fill:#F2F2F2;}
	.st2{fill:#6C63FF;}
	.st3{fill:#3F3D56;}
	.st4{opacity:0.2;enable-background:new    ;}
	.st5{fill:#1DA1F3;}
	.st6{fill:#2F2E41;}
	.st7{fill:#FFB8B8;}
	.st8{opacity:0.1;enable-background:new    ;}
</style>
<g id="_x23_wild_x28_have_x5B_hill_x2C_cloud_x5D__x29_">
	<g>
		<g>
			<path class="st0" d="M267,808c-132.8,0.6-240.9,3.2-240.9,3.2s128.1-248.7,240.2-156.2s240.7,154,240.7,154S399.7,807.5,267,808z
				"/>
			<path class="st0" d="M571.9,773.1c-176.5,0.8-320.2,3.4-320.2,3.4s170.7-226.2,319.6-142.4S891,773.6,891,773.6
				S748.4,772.4,571.9,773.1z"/>
			<path class="st1" d="M259.9,810.4C127.1,811,19,813.1,19,813.1s128.4-175.7,240.4-110.6S500,810.9,500,810.9
				S392.8,809.8,259.9,810.4z"/>
			<path class="st1" d="M532.1,468.8c-39.3,0.2-71.3,0.8-71.3,0.8s38.1-50.4,71.2-31.7c33.1,18.7,71.2,31.1,71.2,31.1
				S571.4,468.6,532.1,468.8z"/>
			<path class="st1" d="M208.4,542.7c-39.3,0.2-71.3,0.8-71.3,0.8s38.1-50.4,71.2-31.7s71.2,31.1,71.2,31.1S247.8,542.5,208.4,542.7
				z"/>
			<path class="st1" d="M702,592.8c-39.3,0.2-71.3,0.8-71.3,0.8s38.1-50.4,71.2-31.7c33.1,18.7,71.2,31.1,71.2,31.1
				S741.3,592.6,702,592.8z"/>
			<path class="st1" d="M532.6,809.1c-132.8,0.6-240.9,2.5-240.9,2.5s128.5-170.2,240.4-107.1s240.5,104.9,240.5,104.9
				S665.3,808.5,532.6,809.1z"/>
			<path class="st1" d="M740.8,807.6c-132.8,0.6-240.9,2.9-240.9,2.9s128.4-205.7,240.3-129.4s240.6,127.1,240.6,127.1
				S873.6,806.9,740.8,807.6z"/>
		</g>
	</g>
</g>
<g id="_x23_accessory_x28_have_x5B_leaf_x5D__x29_">
	<g>
		<g>
			<path class="st2" d="M166.6,600.7c6.4,6.2,7.1,15.7,7.1,15.7s-9.5-0.5-15.9-6.7c-6.4-6.2-7.1-15.7-7.1-15.7
				S160.3,594.5,166.6,600.7z"/>
			<path class="st2" d="M413.7,594.7c-6.7,5.9-16.2,5.9-16.2,5.9s1.3-9.5,7.9-15.4c6.6-5.9,16.2-5.9,16.2-5.9
				S420.3,588.8,413.7,594.7z"/>
			<path class="st2" d="M456.1,696.6c-6.7,5.9-16.2,5.9-16.2,5.9s1.3-9.5,7.9-15.4c6.7-5.9,16.2-5.9,16.2-5.9
				S462.8,690.7,456.1,696.6z"/>
			<path class="st2" d="M530.9,700.8c-6.7,5.9-16.2,5.9-16.2,5.9s1.3-9.5,7.9-15.4c6.6-5.9,16.2-5.9,16.2-5.9S537.5,695,530.9,700.8
				z"/>
			<path class="st2" d="M111,695.8c-7.9-4-11.6-12.9-11.6-12.9s9.3-2.4,17.2,1.6s11.6,12.9,11.6,12.9S119,699.8,111,695.8z"/>
		</g>
	</g>
</g>
<g id="_x23_wild_x28_have_x5B_balloon_x5D__x29_">
	<g>
		<path class="st3" d="M220.8,443.6v-4.8c0-2.1,1.7-3.8,3.7-3.8c0.4,0,0.9,0.1,1.4,0.3c15.5,5.9,65.6,20.5,136.6,0.7
			c3.9-1.1,8.1,1.2,9.2,5.1c0.2,0.7,0.3,1.4,0.3,2l0,0c0,2.8-1.7,5.4-4.2,6.5c-15.5,6.6-72.1,26.4-143.1-0.4
			C222.4,448.2,220.8,446,220.8,443.6z"/>
		<path class="st4" d="M220.8,443.6v-4.8c0-2.1,1.7-3.8,3.7-3.8c0.4,0,0.9,0.1,1.4,0.3c15.5,5.9,65.6,20.5,136.6,0.7
			c3.9-1.1,8.1,1.2,9.2,5.1c0.2,0.7,0.3,1.4,0.3,2l0,0c0,2.8-1.7,5.4-4.2,6.5c-15.5,6.6-72.1,26.4-143.1-0.4
			C222.4,448.2,220.8,446,220.8,443.6z"/>
		<path class="st3" d="M220.8,435.6v7.7c0,1.5,1.2,2.7,2.7,2.7c0.3,0,0.7-0.1,1-0.2c14.1-5.5,67.3-22.4,143.6,0.4
			c1.6,0.5,3.3-0.4,3.7-2c0.1-0.3,0.1-0.6,0.1-0.8v-5.5c0-3-1.8-5.7-4.5-6.8c-16.1-6.8-73.1-26.4-144.2,1.1
			C221.8,432.6,220.8,434,220.8,435.6z"/>
		<path class="st5" d="M526.3,199.1c-14,4.4-28.6,6.8-43.4,7c16.3-7.5,29.4-20.6,36.7-37c-15.3,7-31.8,11.3-48.5,12.7
			c-24.3-32.6-70.5-39.3-103.1-15c-16.4,12.2-27,30.7-29.2,51.1c-0.7,5.6-0.6,11.3,0.1,16.9c-58.7-9.4-110.6-43.4-142.7-93.4
			c-23.2,31.4-17.9,75.4,12,100.5c-11.6-1.6-22.8-5.9-32.3-12.8l-0.1,0.9c-3.8,34.9,17.4,67.7,50.9,78.4c-6.5,1-13.1,1.2-19.6,0.4
			c-4.6-0.5-9.2-1.4-13.6-2.9c6.3,30.9,31.6,54.4,62.9,58.5c-28.2,17.6-61.5,25.1-94.5,21.4c-5.9-0.7-11.6-1.6-17.4-3
			c20.5,16.7,43.9,29.4,69.1,37.3c19-16.7,61.8-25.4,110.1-20c15.3,1.6,30.5,4.8,45.2,9.2c67.4-33.2,108.7-101.5,115.9-166.7
			c0.3-3.1,0.6-6.4,0.8-9.5C501.1,224.2,514.8,212.8,526.3,199.1z"/>
		
			<rect x="105.9" y="565" transform="matrix(-8.397203e-02 0.9965 -0.9965 -8.397203e-02 815.0743 382.3373)" class="st6" width="251.9" height="1.7"/>
		
			<rect x="368.1" y="438" transform="matrix(-0.9824 0.187 -0.187 -0.9824 837.2715 1052.6189)" class="st6" width="1.7" height="255.5"/>
		
			<rect x="144" y="574.7" transform="matrix(-3.222497e-02 0.9995 -0.9995 -3.222497e-02 843.4648 334.4034)" class="st6" width="231.6" height="1.7"/>
		
			<rect x="335.7" y="460.2" transform="matrix(-0.9971 7.567699e-02 -7.567699e-02 -0.9971 715.6501 1124.6414)" class="st6" width="1.7" height="231.4"/>
		<ellipse class="st6" cx="307.1" cy="691.2" rx="90.9" ry="15.3"/>
	</g>
</g>
<g id="_x23_woman_x28_sit_x2C_hold_x5B_phone_x5D__x29_">
	<path class="st7" d="M342.6,734.1l-6.2,12.7c0,0-11.3-1.4-6.7,13.4c0,0-1.2,11.3-3.6,13.7s2,18.2,10.5,13.7
		c4.8-2.5,5.2-5.5,4.5-7.6c-1-3.1-1.2-6.5-0.6-9.6c0.9-4.8,2.7-9.4,5.2-13.7c5.5-8.8,10.8-17.5,10.8-17.5L342.6,734.1z"/>
	<path class="st3" d="M327.1,655.9c0,0-13.7-3.4-18.2-0.9c-4.5,2.5-18,2.6-18,2.6s-11.3,18.2-8.7,27.6s13.7,15.1,13.7,15.1l37.1,0.3
		l6-24.5c0,0-2.9-16.8-5.3-17.8C331.4,657.4,327.1,655.9,327.1,655.9z"/>
	<circle class="st6" cx="314.9" cy="572.2" r="20.4"/>
	<path class="st7" d="M302.1,589.7c0,0,2.4,10.1-1.2,11.3c-3.6,1.2-6.7,6-6.7,6l5.3,8.8l18,4.6l5.5-5.3l4.1-11.3L323,601
		c0,0-3.8,1.2-4.1-2.6c-0.1-2.9,0-5.8,0.3-8.7H302.1z"/>
	<path class="st8" d="M302.1,589.7c0,0,2.4,10.1-1.2,11.3c-3.6,1.2-6.7,6-6.7,6l5.3,8.8l18,4.6l5.5-5.3l4.1-11.3L323,601
		c0,0-3.8,1.2-4.1-2.6c-0.1-2.9,0-5.8,0.3-8.7H302.1z"/>
	<circle class="st7" cx="311.4" cy="581.7" r="14.6"/>
	<path class="st2" d="M310.5,615.1l-13.9-12.7c0,0-6.2,5.3-7,5.3c-0.8,0-10.1,2.9-10.3,4.1c-0.2,1.2,8.2,13.9,8.2,13.9
		s-2,9.3,0,13.4c2,4.1,0.5,21.6,0.5,21.6s12.7-4.6,19.5-2.4s26.3,0,26.3,0s2.9-18.4,1.7-20.9c-1.2-2.5-1.4-16.1-1.4-16.1l10.3-11.3
		c0,0-2.1-8.7-10.3-9.1c-8.2-0.4-13.2-0.9-13.2-0.9L310.5,615.1z"/>
	<path class="st3" d="M294.2,674.1c0,0-26.8-12.2-37.6-18c-10.8-5.8-27.4-1.2-22.1,11.7c5.3,12.9,34.7,25.7,34.7,25.7
		s9.6,7.2,15.4,7c5.8-0.3,14-0.1,14-0.1L294.2,674.1z"/>
	<path class="st3" d="M335.8,675.8c0,0,48.2,0.5,45.1,18.4c-3.1,17.9-21.6,47.9-25,48.7s-15.5-4.6-15.5-6.2s11.7-32.6,11.7-32.6
		l-28.8-8.8L335.8,675.8z"/>
	<path class="st7" d="M344.9,622.1c0,0,2.9,27.6,1.4,31.9s-6.5,16.1-12.9,21.8c-6.5,5.8-15.5,34.7-20.6,20.9
		c-5.1-13.8,8.2-21.6,8.2-21.6l13.3-18.6l0.1-30.2L344.9,622.1z"/>
	<path class="st7" d="M290.9,679.9c0,0,23.7,8.4,26.3,7.2c2.6-1.2,8.4,3.1,8.4,3.1c5.4-1.2,11-0.1,15.5,2.9c7.6,5,9.3,10.8,7.6,11
		c-1.7,0.3-7.6-2.4-7.6-2.4s-9.1-2-14.6-0.3c-5.5,1.7-12.7-1.9-12.7-1.9l-29.2-6.5L290.9,679.9z"/>
	<path class="st8" d="M290.9,679.9c0,0,23.7,8.4,26.3,7.2c2.6-1.2,8.4,3.1,8.4,3.1c5.4-1.2,11-0.1,15.5,2.9c7.6,5,9.3,10.8,7.6,11
		c-1.7,0.3-7.6-2.4-7.6-2.4s-9.1-2-14.6-0.3c-5.5,1.7-12.7-1.9-12.7-1.9l-29.2-6.5L290.9,679.9z"/>
	<path class="st2" d="M339.3,607.2l5,2.9c0,0,2,12.7,2.9,14.4s-11.7,6-13.7,4.8s-2.9-12.9-2.9-12.9L339.3,607.2z"/>
	<path class="st8" d="M258.4,660.7c0,0,14.6,6.2,18.7,7.2c4.1,1,17.2,12.1,17.2,12.1l-9,13.7c0,0-9.2-1.1-14.3-2.1
		c-5.1-1-35-20.9-30-24.2C246.1,664.1,258.4,660.7,258.4,660.7z"/>
	<path class="st3" d="M255.4,660.7c0,0,14.6,6.2,18.7,7.2c4.1,1,20.1,12,20.1,12l-7.9,15.4c0,0-13.2-2.6-18.2-3.6
		c-5-0.9-35-20.9-30-24.2C243.2,664.2,255.4,660.7,255.4,660.7z"/>
	<circle class="st6" cx="318.9" cy="558.5" r="20.4"/>
	<circle class="st6" cx="324.6" cy="538.1" r="9.6"/>
	<path class="st6" d="M316.9,642.9h9.2c0.8,0,1.4,0.6,1.4,1.4v20.1c0,0.8-0.6,1.4-1.4,1.4h-9.2c-0.8,0-1.4-0.6-1.4-1.4v-20.1
		C315.5,643.5,316.1,642.9,316.9,642.9z"/>
	<circle class="st2" cx="321.5" cy="647.9" r="2"/>
	<path class="st7" d="M279.4,632.4c0,0,0.3,29.7,3.8,33.3c3.6,3.6,26.3,1.8,26.3,1.8s14.4,2.3,20.4-5.9c6.8-9.3-17.8-1.7-17.8-1.7
		s-17.6,0.8-18.6,0.1c-3.1-2.4-3.8-28.8-3.8-28.8L279.4,632.4z"/>
	<path class="st2" d="M282.5,611.6h-3.1c0,0-3.4,3.6-3.1,11.3c0.3,7.7-2.9,12.5-0.9,13.2s11.5-3.1,11.4-2c-0.1,1,4.9-0.8,4.9-0.8
		l-3.4-12.7L282.5,611.6z"/>
</g>
</svg>
