<?xml version="1.0" encoding="utf-8"?>
<!-- Generator: Adobe Illustrator 19.0.0, SVG Export Plug-In . SVG Version: 6.00 Build 0)  -->
<svg version="1.1" id="图层_1" xmlns="http://www.w3.org/2000/svg" xmlns:xlink="http://www.w3.org/1999/xlink" x="0px" y="0px"
	 viewBox="-917 917.7 1000 1000" style="enable-background:new -917 917.7 1000 1000;" xml:space="preserve">
<style type="text/css">
	.st0{opacity:0.1;enable-background:new    ;}
	.st1{fill:#6C63FF;}
	.st2{opacity:0.1;fill:#6C63FF;enable-background:new    ;}
	.st3{fill:#FFD037;}
	.st4{fill:#65617D;}
	.st5{fill:#9D9CB5;}
	.st6{opacity:0.2;}
	.st7{opacity:0.2;fill:#FFFFFF;enable-background:new    ;}
	.st8{opacity:0.2;fill:#6C63FF;enable-background:new    ;}
	.st9{fill:#FFFFFF;}
	.st10{opacity:0.5;}
	.st11{fill:#F6F7F9;}
	.st12{fill:#B07473;}
	.st13{fill:#EFB7B9;}
	.st14{fill:#444053;}
	.st15{fill:#E1E7EF;}
	.st16{fill:#67647E;}
	.st17{fill:#585268;}
	.st18{opacity:0.1;}
</style>
<g id="_x23_background">
	<g class="st0">
		<g>
			<path class="st1" d="M-294.9,1167c-40.7,28.3-93.5,26.5-139.7,11.7s-88.7-41-133.8-59.7c-37.5-15.6-77.1-25.8-117.6-30.5
				c-57.4-6.5-121.6,1.4-161.6,47.2c-44.5,51-41.2,142.9,7.1,189.8c24.5,23.8,56.6,35.5,84.6,54.1s53.9,49.4,51.6,85.3
				c-2.2,33.2-27.9,58.7-54.5,74.7c-20.5,12.4-45.8,25.8-48.3,51.5c-2.4,24.8,18.9,44.1,39.1,55.2c66.2,36.1,147.8,35.7,213.7-0.9
				c23.5-13,45.2-30.4,69.8-40.6c64.8-26.7,136.2,0.2,204.8,10c58.3,8.3,117.7,4,174.2-12.6c34-9.9,68.1-25.3,92-53.6
				c17.2-20.4,28-46.5,38-72c10.7-27.3,21-54.8,30.9-82.5c5.9-16.6,11.8-33.5,13.3-51.4c2.8-32.2-8.9-64.1-24.9-91.3
				C6.1,1186.9-57.7,1141.5-126.8,1130s-142.3,11-195.9,60.3"/>
		</g>
	</g>
</g>
<g id="_x23_accessory_x28_have_x5B_plant_x5D__x29_">
	<g>
		<g>
			<ellipse class="st2" cx="-202.5" cy="1700.8" rx="74.2" ry="11.3"/>
			<ellipse class="st2" cx="-592.1" cy="1815.6" rx="36.7" ry="5.7"/>
			<ellipse class="st2" cx="-358.2" cy="1786.5" rx="36.7" ry="5.7"/>
			<ellipse class="st2" cx="-527.1" cy="1745.9" rx="36.7" ry="5.7"/>
			<ellipse class="st2" cx="-417.3" cy="1712.2" rx="36.7" ry="5.7"/>
			<path class="st1" d="M-13.4,1648.2c0,0,6.1,8.1-2.9,20.3c-9,12.2-16.4,22.4-13.4,29.9c0,0,13.6-22.6,24.7-23
				C6.1,1675.2-1.2,1661.7-13.4,1648.2z"/>
			<path class="st0" d="M-13.4,1648.2c0.6,0.7,0.9,1.7,1.3,2.5c10.8,12.7,16.5,24.5,6.1,24.8c-9.7,0.3-21.3,17.6-24.1,21.9
				c0.1,0.4,0.2,0.7,0.4,1c0,0,13.6-22.6,24.7-23C6,1675.3-1.2,1661.7-13.4,1648.2z"/>
			<path class="st3" d="M-2,1658.4c0,2.9-0.3,5.1-0.7,5.1s-0.7-2.3-0.7-5.1c0-2.8,0.4-1.5,0.8-1.5C-2.1,1656.9-2,1655.6-2,1658.4z"
				/>
			<path class="st3" d="M1.9,1661.8c-2.5,1.4-4.6,2.1-4.8,1.9c-0.2-0.3,1.7-1.8,4.2-3.1c2.5-1.3,1.5-0.4,1.7,0
				C3.2,1661,4.5,1660.5,1.9,1661.8z"/>
			<path class="st1" d="M-46,1648.2c0,0-6.1,8.1,2.9,20.3c9,12.2,16.4,22.5,13.5,30c0,0-13.7-22.6-24.7-23
				C-65.4,1675.1-58.2,1661.7-46,1648.2z"/>
			<path class="st0" d="M-46,1648.2c-0.6,0.7-0.9,1.7-1.2,2.5c-10.8,12.7-16.5,24.5-6.2,24.8c9.7,0.3,21.3,17.6,24.1,21.9
				c-0.1,0.4-0.2,0.7-0.3,1c0,0-13.7-22.6-24.7-23C-65.4,1675.1-58.2,1661.7-46,1648.2z"/>
			<path class="st3" d="M-57.5,1658.4c0,2.9,0.3,5.1,0.7,5.1s0.7-2.3,0.7-5.1c0-2.8-0.4-1.5-0.7-1.5
				C-57.2,1656.9-57.5,1655.6-57.5,1658.4z"/>
			<path class="st3" d="M-61.4,1661.8c2.5,1.4,4.6,2.1,4.8,1.9c0.2-0.3-1.7-1.8-4.2-3.1c-2.5-1.3-1.5-0.4-1.7,0
				C-62.6,1661-63.9,1660.5-61.4,1661.8z"/>
			<ellipse class="st2" cx="-29.7" cy="1750.4" rx="64.5" ry="9.9"/>
			<path class="st4" d="M3.5,1687.6l-0.3,2.5l-0.5,3.5l-0.2,1.5l-0.5,3.5l-0.2,1.5l-0.5,3.5l-4.9,40.5c-0.5,3.6-6.3,6.4-13.5,6.4
				h-25.6c-7.2,0-13-2.8-13.5-6.4l-4.9-40.5l-0.5-3.5l-0.2-1.5l-0.5-3.5l-0.2-1.5l-0.5-3.5l-0.3-2.5c-0.3-2,3-3.8,7-3.8h52.5
				C0.5,1683.8,3.8,1685.6,3.5,1687.6z"/>
			<polygon class="st5" points="3.2,1690.2 2.8,1693.7 -62.2,1693.7 -62.6,1690.2 			"/>
			<polygon class="st5" points="2.6,1695.2 2.1,1698.7 -61.6,1698.7 -62,1695.2 			"/>
			<polygon class="st5" points="1.9,1700.2 1.6,1703.7 -61,1703.7 -61.3,1700.2 			"/>
		</g>
	</g>
</g>
<g id="_x23_other_x28_have_x5B_bulletin_x5D__x29_">
	<path class="st1" d="M-715.3,1257.7h683.8c15.6,0,28.2,12.6,28.2,28.2v294.5c0,15.6-12.6,28.2-28.2,28.2h-683.8
		c-15.6,0-28.2-12.6-28.2-28.2v-294.6C-743.6,1270.3-730.9,1257.7-715.3,1257.7z"/>
	<g class="st6">
		<path class="st7" d="M-591.8,1544.7h-119.7c-14.3,0-25.9-11.6-25.9-25.9l0,0v-171.4c0-14.3,11.6-25.9,25.9-25.9l0,0h119.7V1544.7z
			"/>
	</g>
	<g class="st6">
		<path class="st7" d="M-35.4,1544.7h-119.7v-223.3h119.7c14.3,0,25.9,11.6,25.9,25.9l0,0v171.5C-9.4,1533.1-21,1544.7-35.4,1544.7z
			"/>
	</g>
	<g class="st6">
		<rect x="-300.7" y="1321.4" class="st7" width="145.6" height="223.3"/>
	</g>
	<g class="st6">
		<rect x="-446.4" y="1321.4" class="st7" width="145.6" height="223.3"/>
	</g>
	<g class="st6">
		<rect x="-592.1" y="1321.4" class="st8" width="145.6" height="223.3"/>
	</g>
	<path class="st9" d="M-509.3,1420.4c-1.2,0-2.1-0.9-2.1-2.1l0,0v-6.1c0-1.2,0.9-2.1,2.1-2.1s2.1,0.9,2.1,2.1l0,0v6.1
		C-507.1,1419.4-508.1,1420.4-509.3,1420.4z"/>
	<path class="st9" d="M-520,1424.7c-0.6,0-1.1-0.2-1.5-0.7l-4.3-4.3c-0.8-0.7-0.9-2.1-0.2-3c0.7-0.8,2.1-0.9,3-0.2
		c0.1,0.1,0.1,0.1,0.2,0.2l4.4,4.3c0.8,0.8,0.8,2.1,0,3C-518.8,1424.6-519.4,1424.7-520,1424.7L-520,1424.7z"/>
	<path class="st9" d="M-494.2,1450.5c-0.6,0-1.1-0.2-1.5-0.7l-4.3-4.3c-0.8-0.7-0.9-2.1-0.2-3c0.7-0.8,2.1-0.9,3-0.2
		c0.1,0.1,0.1,0.1,0.2,0.2l4.3,4.3c0.8,0.8,0.8,2.1,0,3C-493.2,1450.2-493.7,1450.4-494.2,1450.5L-494.2,1450.5z"/>
	<path class="st9" d="M-488.1,1435.4h-6.1c-1.2,0-2.1-0.9-2.1-2.1s0.9-2.1,2.1-2.1h6.1c1.2,0,2.1,0.9,2.1,2.1
		C-485.9,1434.5-486.9,1435.4-488.1,1435.4L-488.1,1435.4z"/>
	<path class="st9" d="M-498.6,1424.7c-1.2,0-2.1-0.9-2.1-2.1c0-0.6,0.2-1.1,0.7-1.5l4.3-4.3c0.8-0.8,2.1-0.8,3,0
		c0.8,0.8,0.8,2.1,0,3l0,0l-4.3,4.3C-497.5,1424.6-498,1424.7-498.6,1424.7z"/>
	<path class="st9" d="M-498,1433.3c0-6.1-4.9-11.2-11.2-11.2c-3.6,0-7,1.8-9.1,4.6c-7.5-4.3-17.1-1.6-21.4,5.9
		c-0.5,0.8-0.8,1.7-1.1,2.5c-1.2-0.1-2.4-0.1-3.6,0.2c-5.7,1.3-9.1,7-7.8,12.6c1.1,4.7,5.4,8.1,10.2,8.1h28.2c0.9,0,1.9-0.1,2.8-0.4
		c6.3-1.5,10.3-7.7,9.1-14.1C-499.5,1439.6-498.1,1436.5-498,1433.3z M-512,1451.8c-0.7,0.2-1.2,0.2-1.9,0.2h-28.2
		c-3.4,0-6.2-2.9-6.2-6.3c0-2.9,2-5.4,4.8-6c0.5-0.1,0.9-0.2,1.5-0.2c0.7,0,1.4,0.1,2,0.4c0.6,0.2,1.2,0.1,1.8-0.2
		c0.6-0.3,0.9-0.8,1-1.4c1.3-6.2,7.3-10.2,13.6-8.9c3.3,0.7,6.1,2.8,7.7,5.7v0.1c0.4,0.7,1.1,1.1,2,1.1h0.2c2.7,0,5.3,1.4,6.7,3.7
		c0.5,0.7,0.7,1.5,0.9,2.3c0.1,0.6,0.2,1.1,0.2,1.8C-505.9,1447.6-508.4,1450.9-512,1451.8z M-506.3,1434.5
		c-1.9-1.5-4.2-2.3-6.5-2.5c-0.6-0.9-1.3-1.8-2-2.6c2.1-3.2,6.5-4,9.7-1.9s4,6.5,1.9,9.7c-0.1,0.1-0.1,0.2-0.2,0.3
		C-504.3,1436.4-505.3,1435.3-506.3,1434.5z"/>
	<g class="st10">
		<path class="st9" d="M-342.5,1430.7c-1.2-5.1-5.6-8.9-10.9-9.3c-4.7-7.2-14.4-9.4-21.7-4.6c-1.6,1-2.9,2.2-4,3.7
			c-6.4,0.3-11.9,4.5-14,10.5c-5.8-0.7-11,3.5-11.6,9.3c-0.7,5.8,3.5,11,9.3,11.6c0.4,0,0.7,0.1,1.1,0.1h28.2c0.9,0,1.9-0.1,2.8-0.4
			c3.3-0.7,6.1-2.9,7.8-5.9h1.2c0.9,0,1.9-0.1,2.8-0.4C-345,1443.8-340.9,1437.3-342.5,1430.7L-342.5,1430.7z M-360.9,1445.6
			c-0.9,0.9-2.1,1.5-3.4,1.9c-0.7,0.2-1.2,0.2-1.9,0.2h-28.2c-3.4,0-6.3-2.8-6.3-6.2c0-2.9,2-5.5,4.8-6.1c0.9-0.2,1.9-0.2,2.8,0
			c0.2,0.1,0.5,0.1,0.7,0.2c1.1,0.4,2.3-0.2,2.7-1.3c0-0.1,0.1-0.2,0.1-0.3c1.1-5.3,5.8-9.1,11.2-9.1c0.6,0,1,0,1.6,0.1
			c3.6,0.5,6.8,2.7,8.5,5.9c0.4,0.7,1.1,1.1,2,1.1h0.2c4.4,0,7.9,3.5,7.9,7.9C-358.2,1442-359.1,1444.2-360.9,1445.6L-360.9,1445.6z
			 M-352.5,1441.2c-0.6,0.1-1.1,0.2-1.7,0.2c0.2-1.5,0.1-3-0.2-4.5c-1.2-5.1-5.6-8.9-10.9-9.3c-2-3.2-5.1-5.4-8.6-6.5
			c4.8-4.1,12.1-3.4,16.2,1.5c0.5,0.6,0.9,1.2,1.3,2c0.4,0.7,1.1,1.1,2,1.1h0.2c4.4,0,7.9,3.5,7.9,7.9
			C-346.4,1437.1-348.9,1440.3-352.5,1441.2L-352.5,1441.2z"/>
	</g>
	<g class="st10">
		<path class="st9" d="M-72.4,1450.7l-1.4-0.8l1.4-0.7c0.6-0.3,0.7-0.9,0.4-1.5c-0.3-0.6-0.9-0.7-1.5-0.4l0,0l-1.4,0.8v-1.5
			c0.1-0.6-0.4-1.1-0.9-1.1c-0.6-0.1-1.1,0.4-1.1,0.9c0,0.1,0,0.1,0,0.2v1.6l-1.4-0.7c-0.6-0.3-1.2-0.1-1.5,0.4
			c-0.3,0.6-0.1,1.2,0.4,1.5l1.4,0.7l-1.4,0.7c-0.5,0.3-0.7,0.9-0.4,1.4l0,0c0.2,0.4,0.6,0.6,0.9,0.6c0.2,0,0.4-0.1,0.6-0.2l1.4-0.7
			v1.6c0.1,0.6,0.6,1,1.1,0.9s0.9-0.5,0.9-0.9v-1.6l1.4,0.7c0.2,0.1,0.4,0.2,0.6,0.2c0.4,0,0.7-0.2,0.9-0.6
			C-71.8,1451.7-71.8,1451-72.4,1450.7L-72.4,1450.7z"/>
		<path class="st9" d="M-78.8,1441.8l-1.4-0.7l1.4-0.8c0.5-0.3,0.7-0.9,0.4-1.4l0,0c-0.3-0.5-0.9-0.7-1.4-0.4l0,0l-1.4,0.8v-1.6
			c-0.1-0.6-0.6-1-1.1-0.9s-0.9,0.5-0.9,0.9v1.6l-1.4-0.7c-0.6-0.3-1.2-0.1-1.5,0.4c-0.3,0.6-0.1,1.2,0.4,1.5l1.4,0.7l-1.4,0.7
			c-0.5,0.3-0.7,0.9-0.4,1.4c0.2,0.4,0.6,0.6,0.9,0.6c0.2,0,0.4-0.1,0.6-0.1l1.4-0.7v1.6c0.1,0.6,0.6,1,1.1,0.9s0.9-0.5,0.9-0.9
			v-1.6l1.3,0.7c0.2,0.1,0.4,0.1,0.6,0.1c0.6,0,1-0.5,1-1.1C-78.3,1442.4-78.4,1442.1-78.8,1441.8L-78.8,1441.8z"/>
		<path class="st9" d="M-85.1,1450.7l-1.4-0.8l1.4-0.7c0.6-0.3,0.7-0.9,0.4-1.5c-0.3-0.6-0.9-0.7-1.5-0.4l-1.4,0.8v-1.5
			c0.1-0.6-0.4-1.1-0.9-1.1c-0.6-0.1-1.1,0.4-1.1,0.9c0,0.1,0,0.1,0,0.2v1.6l-1.3-0.7c-0.6-0.3-1.2-0.1-1.5,0.4s-0.1,1.2,0.4,1.5
			l0,0l1.4,0.7l-1.4,0.7c-0.5,0.3-0.7,0.9-0.4,1.4l0,0c0.2,0.4,0.6,0.6,0.9,0.6c0.2,0,0.4-0.1,0.6-0.2l1.3-0.7v1.6
			c0.1,0.6,0.6,1,1.1,0.9s0.9-0.5,0.9-0.9v-1.6l1.4,0.7c0.2,0.1,0.4,0.2,0.6,0.2c0.6,0,1-0.5,1-1.1
			C-84.6,1451.2-84.8,1450.9-85.1,1450.7L-85.1,1450.7z"/>
		<path class="st9" d="M-57.2,1428.3c-1.2-5.1-5.6-8.9-10.9-9.3c-4.7-7.2-14.4-9.4-21.7-4.6c-2.9,1.9-5.1,4.6-6.2,7.9
			c-5.8-0.7-11,3.5-11.6,9.3c-0.7,5.8,3.5,11,9.3,11.6c0.4,0,0.7,0.1,1.1,0.1h3.3c1.2,0,2.1-0.9,2.1-2.1s-0.9-2.1-2.1-2.1l0,0h-3.4
			c-2.9,0-5.5-2-6.1-4.8c-0.7-3.3,1.3-6.7,4.6-7.5c1.1-0.3,2.3-0.2,3.4,0.2s2.3-0.2,2.7-1.3c0-0.1,0.1-0.2,0.1-0.3
			c1.3-6.2,7.3-10.2,13.6-8.9c3.3,0.7,6.1,2.8,7.7,5.8c0.4,0.7,1.1,1.1,2,1.1h0.3c4.4,0,7.9,3.5,7.9,7.9c0,3.7-2.5,6.9-6,7.7
			c-0.7,0.2-1.2,0.2-1.9,0.2h-1.7c-1.2,0-2.1,0.9-2.1,2.1s0.9,2.1,2.1,2.1h1.8c6.7,0,12.1-5.4,12.2-12
			C-56.8,1430.2-56.9,1429.2-57.2,1428.3L-57.2,1428.3z"/>
	</g>
	<g class="st10">
		<path class="st9" d="M-211.8,1441c-0.9,0.2-1.9,0.3-2.8,0.4h-4.8c-1.2,0-2.1-0.9-2.1-2.1s0.9-2.1,2.1-2.1h4.8
			c0.7,0,1.2-0.1,1.9-0.2c4.3-1,6.9-5.3,5.9-9.5c-0.8-3.5-4.1-6.1-7.7-6h-0.3c-0.8,0-1.6-0.4-2-1.1c-3-5.6-9.9-7.7-15.5-4.7
			c-3.1,1.6-5.2,4.5-5.9,7.8c-0.2,1.1-1.3,1.9-2.4,1.7c-0.1,0-0.2-0.1-0.4-0.1c-2.8-0.9-5.8,0.2-7.3,2.7c-1.9,3-0.9,6.8,2,8.6
			c1,0.7,2.1,0.9,3.3,0.9h7.1c1.2,0,2.1,0.9,2.1,2.1s-0.9,2.1-2.1,2.1l0,0h-7.1c-5.8,0-10.5-4.7-10.5-10.5c0-2,0.6-3.8,1.6-5.5
			c2.1-3.4,6-5.4,10.1-4.9c2.8-8.2,11.7-12.5,20-9.7c3.3,1.1,6.2,3.4,8.1,6.4c6.7,0.4,11.8,6,11.4,12.7
			C-202.6,1435.3-206.5,1439.9-211.8,1441z"/>
		<polygon class="st9" points="-227,1440.8 -224.1,1440.8 -230.4,1456.2 -228.9,1445.1 -231.7,1445.1 -229.5,1432.8 -223.7,1432.8 
					"/>
	</g>
	<g class="st10">
		<path class="st9" d="M-664.7,1420.1c-1.1,0-2.1-0.9-2.1-2.1v-6c-0.1-1.2,0.8-2.1,2-2.2c1.1-0.1,2.1,0.8,2.2,2c0,0.1,0,0.2,0,0.3
			v6.1C-662.5,1419.2-663.5,1420.1-664.7,1420.1z"/>
		<path class="st9" d="M-679.8,1435.2h-6.1c-1.2,0-2.1-0.9-2.1-2.1s0.9-2.1,2.1-2.1h6.1c1.2,0,2.1,0.9,2.1,2.1
			C-677.7,1434.2-678.6,1435.2-679.8,1435.2z"/>
		<path class="st9" d="M-664.7,1456.4c-1.1,0-2.1-0.9-2.1-2.1v-6.1c0.1-1.2,1.1-2,2.2-2c1,0.1,1.9,0.9,2,2v6.1
			C-662.5,1455.5-663.5,1456.4-664.7,1456.4z"/>
		<path class="st9" d="M-643.5,1435.2h-6c-1.2,0-2.1-0.9-2.1-2.1s0.9-2.1,2.1-2.1h6.1c1.2,0,2.1,0.9,2.1,2.1
			C-641.3,1434.2-642.3,1435.2-643.5,1435.2L-643.5,1435.2z"/>
		<path class="st9" d="M-664.7,1444.3c-6.1,0-11.2-5-11.2-11.2s5-11.2,11.2-11.2s11.2,5,11.2,11.2S-658.5,1444.3-664.7,1444.3z
			 M-664.7,1426.1c-3.8,0-7,3.2-7,7s3.2,7,7,7s7-3.1,7-7C-657.7,1429.3-660.8,1426.1-664.7,1426.1z"/>
		<path class="st9" d="M-675.3,1424.6c-0.6,0-1.1-0.2-1.5-0.7l-2.1-2.1c-0.8-0.8-0.8-2.1,0-3s2.1-0.8,3,0l2.1,2.1
			c0.8,0.8,0.8,2.1,0,3C-674.2,1424.3-674.8,1424.5-675.3,1424.6z"/>
		<path class="st9" d="M-677.5,1448.1c-1.2,0-2.1-0.9-2.1-2.1c0-0.6,0.2-1.1,0.7-1.5l2.1-2.1c0.8-0.8,2.1-0.8,3,0
			c0.8,0.8,0.8,2.1,0,3l0,0l-2.1,2.1C-676.5,1447.8-676.9,1448.1-677.5,1448.1z"/>
		<path class="st9" d="M-651.8,1448.1c-0.6,0-1.1-0.2-1.5-0.7l-2.1-2.1c-0.8-0.8-0.8-2.1,0-3c0.8-0.8,2.1-0.8,3,0l2.1,2.1
			c0.8,0.8,0.8,2.1,0,3C-650.7,1447.8-651.3,1448.1-651.8,1448.1z"/>
		<path class="st9" d="M-654,1424.6c-1.2,0-2.1-0.9-2.1-2.1c0-0.6,0.2-1.1,0.7-1.5l2.1-2.1c0.8-0.8,2.1-0.8,3,0c0.8,0.8,0.8,2.1,0,3
			l-2.1,2.1C-652.9,1424.3-653.4,1424.6-654,1424.6z"/>
	</g>
	<path class="st11" d="M-694.2,1331.2h59c7.2,0,13,5.9,13,13l0,0c0,7.2-5.9,13-13,13h-59c-7.2,0-13-5.9-13-13l0,0
		C-707.2,1337-701.4,1331.2-694.2,1331.2z"/>
	<path class="st11" d="M-548.7,1331.2h59c7.2,0,13,5.9,13,13l0,0c0,7.2-5.9,13-13,13h-59c-7.2,0-13-5.9-13-13l0,0
		C-561.7,1337-555.8,1331.2-548.7,1331.2z"/>
	<path class="st11" d="M-403.1,1331.2h59c7.2,0,13,5.9,13,13l0,0c0,7.2-5.9,13-13,13h-59c-7.2,0-13-5.9-13-13l0,0
		C-416.1,1337-410.3,1331.2-403.1,1331.2z"/>
	<path class="st11" d="M-257.5,1331.2h59c7.2,0,13,5.9,13,13l0,0c0,7.2-5.9,13-13,13h-59c-7.2,0-13-5.9-13-13l0,0
		C-270.5,1337-264.8,1331.2-257.5,1331.2z"/>
	<path class="st11" d="M-112,1331.2h59c7.2,0,13,5.9,13,13l0,0c0,7.2-5.9,13-13,13h-59c-7.2,0-13-5.9-13-13l0,0
		C-125,1337-119.1,1331.2-112,1331.2z"/>
</g>
<g id="_x23_man_x28_stand_x2C_point_x5F_to_x29_">
	<path class="st12" d="M-782.1,1709.5c0,0,2,2.8,10.8,6.1c8.7,3.3,6.8,9.2,8.1,12.8c1.3,3.7,10.2,7,27.8,6.1s6.4-14,6.4-14
		s-9.2-13.5-12.3-15.3c-1.1-0.7-2.2-2.7-3.3-5.2c-1.4-3.5-2.6-7.2-3.5-10.8c0,0-28.9,3.9-31,6.8c-0.8,1.5-1.5,3.3-1.8,4.9
		C-781.6,1703.9-781.9,1706.7-782.1,1709.5z"/>
	<path class="st12" d="M-860,1732.5c0,0,0.3,10.9,19.1,13.1s18-11.5,16.4-16.7c-0.9-3.2-0.3-13.1,0.5-20.4c0.5-4.6,0.8-8.2,0.8-8.2
		s-31.7,0.7-31.4,2.3c0,2-0.3,4-0.8,5.9c-0.9,3.6-2,7.2-3.4,10.7C-862,1727.1-860,1732.5-860,1732.5z"/>
	<path class="st13" d="M-636.5,1408.6c0.6,1.1,1.9,3,5.1,6.1c3.9,3.7,7.9,7.2,12.1,10.5c19.5,15.6,29.7-1.9,29.7-1.9
		s9.9,8.9,14.7,10.9s4.6-4.3,4.6-4.3s-26.3-27.6-34.6-28c-4.7-0.2-10.2-2.7-14-4.7c-2.8-1.5-4.7-2.8-4.7-2.8l-7.1,6.9l-6.1,5.9
		C-636.8,1407.2-637.1,1407.5-636.5,1408.6z"/>
	<path class="st0" d="M-779.2,1696.2c-0.8,1.5-1.5,3.3-1.8,4.9c4.8,7.1,33.8-0.4,36.2-0.9c-1.4-3.5-2.6-7.2-3.5-10.8
		C-748.3,1689.4-777.2,1693.3-779.2,1696.2z"/>
	<path class="st0" d="M-855.4,1708.7c0.2,0.2,0.4,0.3,0.6,0.4c4.7,2.1,28.8-0.1,28.8-0.1c0.7,0.1,1.5,0,2-0.5
		c0.5-4.6,0.8-8.2,0.8-8.2s-31.7,0.7-31.4,2.3C-854.5,1704.7-854.8,1706.8-855.4,1708.7z"/>
	<path class="st14" d="M-864.1,1501.2c1.3,6.6,1.6,13.5,0.7,20.2c-1.6,10.2,0.1,44,0.1,44l-0.1,59.2c0,0,2,37.9,3.9,46.1
		s-3.9,11.5-3.9,11.5s3.9,23.3,8.6,25.5c4.7,2.1,28.8-0.1,28.8-0.1s2.9,1,6.5-6.5s0-25.9-2.6-32s-0.3-12.5-0.3-12.5
		s-2.9-33.7,0-36.6s2.3-15.7,2.3-15.7l4.7-26.5l5.6-11.2l1.6-24.6l4.5-21.7c0,0,1.9-1.9,3.4-19.1s3.6-11.8,3.6-11.8
		c-0.7,11.5,5.2,17.3,5.2,17.3l1.7,30.1c0,0,2,22.5,5.4,28c3.3,5.5,0,12.3,0,12.3s1.1,21.5,0.1,27.8s3.8,20.6,3.8,20.6l1.3,25.9
		c0,0-7.8,23.3-4.2,30.9c3.7,7.6,1.9,16.4,1.9,16.4c2.9,9.2,37,0,37,0s4.6-38.8,1.3-42.4s1.1-28.8,1.1-28.8s2.3-8.4,1.2-10.7
		c-1.1-2.3,1-11.5,1-11.5s1.6-24.9-1.3-30.7c-2.9-5.8,1.6-39.2,1.6-39.2s1.9-31.4,6.5-42.7c0.8-2,1.4-6.4,1.7-12.2
		c1.4-25.6-1.7-78.9-1.7-78.9l-12.8-17.6l-13.4-0.7l-12.9-0.7l-24.3-1.3l-23.9-1.3l-29.2-1.6c0,0-6,53.9-14.5,77.2
		c-1.2,3.3-2,6.6-2.7,10C-868.8,1477.5-867.9,1489.8-864.1,1501.2z"/>
	<path class="st13" d="M-792.9,1203l10.4,25.6l22.6,3.7c0,0,12,4.1,11.3-6.1c-0.3-5.4,1.4-11.2,3-15.3c0.8-2.1,1.8-4.2,2.9-6.2
		c0,0-46.4-26.1-43.8-17.3c0.6,2,0.6,4,0.1,5.9C-787.7,1199.1-792.9,1203-792.9,1203z"/>
	<polygon class="st12" points="-765.8,1388.9 -816.6,1388.9 -814,1406.7 -764.7,1406.7 	"/>
	<polygon class="st0" points="-765.8,1388.9 -816.6,1388.9 -814,1406.7 -764.7,1406.7 	"/>
	<path class="st0" d="M-636.5,1408.6c0.6,1.1,1.9,3,5.1,6.1c1.8-5,5.6-12.4,9.5-14.9c1.2-0.7,2.2-1.6,3.1-2.6
		c-2.8-1.5-4.7-2.8-4.7-2.8l-7.1,6.9L-636.5,1408.6z"/>
	<path class="st15" d="M-643.3,1415.4c0,0,1.8,0.7,3.8,1.4c3.4,1.3,7.7,2.9,6.7,2.2c-1.7-1,4.2-16.1,10.1-19.9
		c4.4-2.8,3.6-4.1,2.9-4.6c-0.2-0.1-0.3-0.2-0.5-0.2l-4.7-1.7L-643.3,1415.4z"/>
	<path class="st0" d="M-786.4,1187.4c0.6,2,0.6,4,0.1,5.9c7.8,14.7,24.7,22,40.8,17.6c0.8-2.1,1.8-4.2,2.9-6.2
		C-742.6,1204.6-788.9,1178.5-786.4,1187.4z"/>
	<path class="st13" d="M-790.4,1175.1c0,19.5,15.8,35.4,35.4,35.4s35.4-15.8,35.4-35.4s-15.8-35.4-35.4-35.4l0,0
		c-19.4-0.1-35.3,15.5-35.4,34.9C-790.4,1174.8-790.4,1175-790.4,1175.1z"/>
	<path class="st15" d="M-821.5,1389l22.6,1l26,1.1l12.7,0.6l0.9-8.5l10-87.9l3.3-66.5h-9l-24.9-4.1l-8.8-3.3l0,0l-11.5-4.4
		l-9.4,19.2l-3.2,88.1l-7.4,55.6L-821.5,1389z"/>
	<path class="st0" d="M-790.8,1291.4c0,0,9-39.5,15.3-47.1c0,0-2.3-13.6-7.5-15.3s8-4.3,8-4.3l8.1,2.8l8.1,3.3c0,0-7.1,6.3-5.9,14.5
		c-0.7,3.7-0.3,7.5,0.9,11c2.1,5.5,2.5,50.1,0,55.9c-2.5,5.9-2.1,18.9-2.1,18.9l-5.3,25.3l-1.8,30.4l-19.1,14.2l-13.4-16.7
		L-790.8,1291.4z"/>
	<path class="st12" d="M-791.5,1290.6c0,0,9-39.5,15.3-47.1c0,0-2.3-13.6-7.5-15.3c-5.2-1.8,8-4.3,8-4.3l8.1,2.8l8.1,3.3
		c0,0-7.1,6.3-5.9,14.5c-0.7,3.7-0.4,7.4,0.9,11c2.1,5.5,2.6,50.1,0,55.9s-2.1,18.9-2.1,18.9l-5.3,25.3l-1.8,30.4l-19,14l-13.4-16.7
		L-791.5,1290.6z"/>
	<path class="st0" d="M-748.1,1220.9l-19.6,6.5c0,0,9.9,5,9.9,20C-758,1247.4-748,1235.3-748.1,1220.9z"/>
	<path class="st15" d="M-748.1,1220.1l-19.6,6.5c0,0,9.9,5,9.9,20C-758,1246.6-748,1234.5-748.1,1220.1z"/>
	<path class="st0" d="M-790.8,1201.8c0,0,9.7,16.6,23,25.6c0,0-8.1-3-23,8.4C-790.8,1235.8-800,1202.6-790.8,1201.8z"/>
	<path class="st15" d="M-790.8,1201.1c0,0,9.7,16.6,23,25.6c0,0-8.1-3-23,8.4C-790.8,1235.1-800,1201.8-790.8,1201.1z"/>
	<path class="st0" d="M-643.3,1415.4c0,0,1.8,0.7,3.8,1.4c5.9-11.2,17.7-20.7,19.6-22.3c-0.2-0.1-0.3-0.2-0.5-0.2l-4.7-1.7
		L-643.3,1415.4z"/>
	<path class="st0" d="M-775.8,1443.3c0.6,13.1,7.8,37.5,7.8,37.5c9.1,12.6,29.4,3.3,36.5-0.5c1.4-25.6-1.7-78.9-1.7-78.9l-12.8-17.6
		l-13.4-0.7l10-87.9l3.3-66.5h-5c-1.6,6.8-4.2,18.2-3.7,21c0.7,4.1-6.1,44.5-6.1,44.5l-8.5,51.5l-2.3,14c0.7,2.3,0.2,12.4-0.7,22.7
		c-0.3,2.9-0.5,5.9-0.7,8.6c-0.9,9.6-1.9,17.6-1.9,17.6C-776,1417.7-775.8,1443.3-775.8,1443.3z"/>
	<path class="st16" d="M-774.2,1442.6c0.6,13.2,7.8,37.5,7.8,37.5c11.2,15.5,39-2,39-2s5.3-74.6,2.1-83.8c-2-5.9-2.9-12.1-2.8-18.2
		l6-22.6c0,0,3.9,11.2,6.5,12.5s5.7,6.9,5.7,6.9l26.9,22.4l20.8,15.9l18.5,15.9c1.5-16.6,23.3-32.9,23.3-32.9l-62.8-51.8
		c0.6-1-2.8-12-2.8-12l-3.3-11.4l-7.1-9.6c0,0,2-6.7,0-10s-1.6-11.2-3-30.2c-1.4-19.1-8.8-20.3-8.8-20.3s-28.8-20.1-32.2-19.4
		c-3.2,0.6-7.2-5.8-7.8-6.6l-0.1-0.1c0,0-5.6,22-4.9,26.1c0.7,4.1-6.1,44.5-6.1,44.5l-8.5,51.5l-2.3,14c1.7,5.3-3.3,48.8-3.3,48.8
		C-774.4,1416.9-774.2,1442.6-774.2,1442.6z"/>
	<path class="st0" d="M-866.8,1465.6c11.2,5.8,21.7,11.3,21.7,11.3s17.4,5.8,24.4-27l20.3-55.7c0,0,0.6-1.7,1.4-4.5
		c0.7-2.2,1.6-5.3,2.5-8.7c4-14.1,9.3-35.8,7.3-44.3v-0.7l-0.4-76c0,0,2.1-35.8,0.8-38.7c0-0.1-0.1-0.2-0.1-0.2l0,0l-11.5-4.4
		l-9.4,19.2l-3.2,88.1l-7.4,55.6l-29.2-1.6c0,0-6,53.9-14.5,77.2C-865.3,1458.8-866.2,1462.3-866.8,1465.6z"/>
	<path class="st16" d="M-893.5,1452.5c9.8,4.1,46.8,23.7,46.8,23.7s17.4,5.8,24.4-27l20.3-55.7c0,0,14.3-44.4,11.2-57.4v-0.7
		l-0.4-76c0,0,2.1-35.7,0.8-38.7c-1.3-2.8-2.8-11.1-2.1-18.1c0-0.4,0.1-0.7,0.1-1.1l-0.5,0.3l-14.3,7.5h-1.5
		c-4.6-0.1-17.9-0.2-20,0.7c-2.5,1-26.6,3.1-26.6,3.1s-12.8,0.7-12.2,20.4c0,0-4.8,16.5-6.3,19.2s-9.9,29.6-9.9,29.6l-9.9,51.3
		l-1.2,56.8c0,0-0.1,36.2-2,39.2l7.1,2.8C-889.7,1432.5-903.4,1448.4-893.5,1452.5z"/>
	<path class="st13" d="M-858.7,1420.3l4.5,5.9c0,0,27.2,49.3-3.2,42.2c-30.4-7.2-25.9-32.1-25.9-32.1l1.9-17.3L-858.7,1420.3z"/>
	<path class="st0" d="M-820.4,1686.6c-0.7-0.1-11.2-4.6-18.6-4.6c-7.3,0-17.1-0.7-16,1.2c1.1,2,15.3,2.2,19.3,4.2
		c4.1,2,12.7,7.3,13.5,7.6C-821.2,1695.3-820.4,1686.6-820.4,1686.6z"/>
	<path class="st0" d="M-747.4,1664.4c-0.1,0.7-15.7,18.3-24.3,17.5C-780.4,1681-747.4,1664.4-747.4,1664.4z"/>
	<path class="st0" d="M-751.9,1622.7c0,0-16.7,42.6-22.1,44.8c-5.4,2.2-6.1-5.2-3.3-7.3C-774.4,1658-765.5,1644.2-751.9,1622.7z"/>
	<path class="st0" d="M-838.1,1608.7c0,0-2.8,15.7,4.2,25.9C-826.9,1644.8-838.1,1608.7-838.1,1608.7z"/>
	<path class="st0" d="M-794.1,1466.3c0.3-0.3-25-1.3-25-1.3S-807.7,1477.3-794.1,1466.3z"/>
	<path class="st0" d="M-797.2,1477.2l-15.3,1.4C-812.5,1478.6-807.1,1485.1-797.2,1477.2z"/>
	<path class="st0" d="M-706.7,1313.9c0,0,13.8,1.9,15.1,5.9C-690.3,1323.7-706.7,1313.9-706.7,1313.9z"/>
	<path class="st0" d="M-682.3,1347.5c-1-0.4-9.6-2.9-15.6-1.3s-14.5-2.9-14.5-2.9s-8.6-0.3-7,0.9c1.7,1.2,6.8,0.7,9.7,2.3
		c2.9,1.7,10.4,3.2,12.4,2.3C-695.4,1348.1-682.3,1347.5-682.3,1347.5z"/>
	<path class="st16" d="M-767.7,1345l0.3,7.1c0,0,24.1-59.2,30.1-71.8s2.7-40.2,2.7-40.2l-3.4-0.8l-9.9-16.2l-0.1-0.1
		c0,0-5.6,22-4.9,26.1c0.7,4.1-6.1,44.5-6.1,44.5L-767.7,1345z"/>
	<path class="st16" d="M-815.9,1221.1c0,0,9.9,101.8,25.2,114.4l-0.4-76c0,0,2.1-35.7,0.8-38.7c-1.3-2.8-2.8-11.1-2.1-18.1l-0.3-0.8
		l-14.3,7.5h-1.6l-0.9,13.6L-815.9,1221.1z"/>
	<path class="st0" d="M-767.7,1345l0.3,7.1c0,0,24.1-59.2,30.1-71.8s2.7-40.2,2.7-40.2l-3.4-0.8l-9.9-16.2l-0.1-0.1
		c0,0-5.6,22-4.9,26.1c0.7,4.1-6.1,44.5-6.1,44.5L-767.7,1345z"/>
	<path class="st0" d="M-815.9,1221.1c0,0,9.9,101.8,25.2,114.4l-0.4-76c0,0,2.1-35.7,0.8-38.7c-1.3-2.8-2.8-11.1-2.1-18.1l-0.3-0.8
		l-14.3,7.5h-1.6l-0.9,13.6L-815.9,1221.1z"/>
	<circle class="st14" cx="-764.7" cy="1361.8" r="2.9"/>
	<circle class="st14" cx="-767.7" cy="1405.1" r="2.9"/>
	<path class="st0" d="M-790.4,1175.1c0,5.1,1.1,10.1,3.3,14.8l0.5-0.6c5.7-7.2,7-17.1,12.1-24.7c1.9-2.7,4.3-5.2,7.3-6.1
		c3.1-0.9,6.8-0.2,8.7,2.4c1.2,1.7,1.6,3.9,2.8,5.6c2.4,3.2,7,3.1,10.9,2.5s8.3-1.2,11.2,1.3c3,2.5,3.2,7,5.6,9.9
		c1.9,2.2,4.6,3.3,7.4,3.8c4.8-19-6.6-38.2-25.6-43s-38.2,6.6-43,25.6C-790,1169.5-790.4,1172.3-790.4,1175.1L-790.4,1175.1z"/>
	<path class="st17" d="M-770.5,1129.8c-7.3,3.1-14.5,7-20.1,12.8c-5.6,5.9-9.3,13.8-8.9,21.9c0.1,2.6,0.7,5.1,2,7.3
		c1.2,2,3,3.5,3.5,5.7c0.7,2.5-0.3,5.2-0.3,7.8c0,2.6,2,5.8,4.4,5c0.9-0.4,1.7-0.9,2.2-1.8c5.7-7.2,7-17.1,12-24.6
		c1.9-2.7,4.3-5.2,7.3-6.1s6.8-0.3,8.7,2.4c1.2,1.7,1.5,3.9,2.8,5.6c2.4,3.2,7,3.1,10.9,2.5s8.3-1.2,11.2,1.3c3,2.5,3.2,7,5.6,9.9
		c2.9,3.6,8.1,4.1,12.6,4.3c-1.9-4.2-1.2-9.1,0.4-13.4c1.6-4.3,4.1-8.2,5.9-12.5c1.3-2.9,2-5.9,1.9-9.1c-0.3-3.1-1.9-6.2-4.6-7.6
		c-1.6-0.8-3.4-1-4.9-2c-4.4-3-4.1-7.9-9.9-9.5c-4.6-1.3-9.6-1.2-14.3-2.6C-752.1,1124.4-760.7,1126.2-770.5,1129.8z"/>
	<path class="st0" d="M-873.8,1424.5c0,0-8,7.9-9,7.7c-1-0.2-2.6-7.1-2.6-7.1L-873.8,1424.5z"/>
	<path class="st15" d="M-874.6,1423.7c0,0-8,7.9-9,7.7c-1-0.2-2.6-7.1-2.6-7.1L-874.6,1423.7z"/>
	<path class="st0" d="M-896.1,1430.4c0,0,34-7.9,42.6-4.2c0,0-3.2-19.2-2.6-22.8c0.6-3.6-0.1-15.8-0.1-15.8s-2-22.9,0.7-29.3
		s1.2-23.4,1.2-23.4l-38.8,18.5C-893.2,1353.3-893.6,1425.3-896.1,1430.4z"/>
	<path class="st16" d="M-896.8,1429.6c0,0,34-7.9,42.6-4.2c0,0-3.2-19.2-2.6-22.8c0.6-3.5-0.1-15.8-0.1-15.8s-2-22.9,0.7-29.3
		s1.2-23.4,1.2-23.4l-38.8,18.4C-893.9,1352.5-894.5,1424.5-896.8,1429.6z"/>
	<g class="st18">
		<path d="M-717.1,1180.1c-1.6-4.1-0.9-8.7,0.7-12.8c1.6-4.3,4.1-8.2,5.9-12.5c1.3-2.9,2-5.9,1.9-9.1c0-0.1,0-0.1,0-0.2
			c0.5,1,0.7,2.1,0.8,3.3c0.1,3.2-0.6,6.2-1.9,9.1c-1.8,4.2-4.3,8.1-5.9,12.5C-716.9,1173.5-717.3,1176.8-717.1,1180.1z"/>
		<path d="M-790.3,1187.2c0.9-0.4,1.8-0.9,2.3-1.8c5.7-7.2,6.9-17.1,12-24.6c1.9-2.7,4.3-5.2,7.3-6.1c3.1-1,6.8-0.3,8.7,2.4
			c1.2,1.7,1.5,3.9,2.8,5.6c2.4,3.2,7,3.1,10.9,2.5s8.3-1.2,11.2,1.3c3,2.5,3.2,7,5.6,9.9c2.9,3.6,8,4.1,12.5,4.3
			c0.2,1.1,0.5,2.1,0.9,3.2c-4.6-0.2-9.8-0.7-12.6-4.3c-2.4-3-2.7-7.5-5.6-9.9c-2.9-2.4-7.3-2-11.2-1.3s-8.5,0.7-10.9-2.5
			c-1.2-1.7-1.6-3.8-2.8-5.6c-1.9-2.7-5.7-3.4-8.7-2.4c-3.1,1-5.5,3.4-7.3,6.1c-5.1,7.6-6.3,17.6-12,24.6c-0.6,0.8-1.3,1.5-2.2,1.8
			c-2.4,0.7-4.4-2.4-4.4-5v-0.1C-793.1,1186.7-791.8,1187.7-790.3,1187.2z"/>
		<path d="M-797.9,1168.7c1.2,2,3,3.5,3.5,5.7c0.2,0.7,0.3,1.2,0.3,1.9c-0.8-1.6-2-2.9-3-4.4c-0.9-1.7-1.6-3.4-1.9-5.4
			C-798.8,1167.3-798.4,1168.1-797.9,1168.7z"/>
	</g>
</g>
</svg>
