<?xml version="1.0" encoding="utf-8"?>
<!-- Generator: Adobe Illustrator 19.0.0, SVG Export Plug-In . SVG Version: 6.00 Build 0)  -->
<svg version="1.1" xmlns="http://www.w3.org/2000/svg" xmlns:xlink="http://www.w3.org/1999/xlink" x="0px" y="0px"
	 viewBox="0 0 1000 1000" style="enable-background:new 0 0 1000 1000;" xml:space="preserve">
<style type="text/css">
	.st0{opacity:0.1;enable-background:new    ;}
	.st1{fill:#6C63FF;}
	.st2{opacity:0.1;fill:#FFFFFF;enable-background:new    ;}
	.st3{fill:#3F3D56;}
	.st4{fill:url(#SVGID_1_);}
	.st5{fill:#F86D70;}
	.st6{fill:#FBBEBE;}
	.st7{fill:#444053;}
	.st8{fill:#E8E8F0;}
	.st9{opacity:0.1;}
	.st10{fill:url(#SVGID_2_);}
	.st11{fill:#BE6F72;}
	.st12{fill:#65617D;}
	.st13{fill:#E3E8F4;}
</style>
<g id="_x23_background">
	<g class="st0">
		<g>
			<path class="st1" d="M988.3,528.1c0.2-49.6-23.9-96.1-64.3-124.7c0.6-5.2,0.8-10.6,0.8-15.9c0-83.9-67.1-151.9-149.8-151.9
				c-25.5,0-50.5,6.5-72.7,19c-58.6-38.5-135-61.9-218.6-61.9c-136,0-253.1,61.7-305,150.3c-2.9-0.2-5.8-0.3-8.7-0.3
				c-82.7,0-149.8,68-149.8,151.9c-0.1,29.6,8.5,58.6,24.6,83.5l0,0c0,75.5,71.2,136.7,159.1,136.7h637.2
				c69,0,124.9-48.1,124.9-107.3l0,0C980.7,583.6,988.3,556.1,988.3,528.1z"/>
		</g>
	</g>
</g>
<g id="_x23_other_x28_have_x5B_trophy_x5D__x29_">
	<g>
		<path class="st1" d="M652.7,376.8l-0.6,7.7c-0.1,1-2.1,26.1-16.9,55.3c-12.7,25-37.4,57.6-84,76c-3.6,1.4-7.4,2.8-11.3,4.1
			l-4.4-13.7c11-3.5,21.5-8,31.5-13.8c23.8-13.7,42.2-33.3,55.2-58.6c6.9-13.5,11.7-27.8,14.5-42.6h-53.1v-14.4H652.7L652.7,376.8z"
			/>
		<path class="st2" d="M545.5,515.7c46.6-18.4,71.3-50.9,84-76c14.8-29.2,16.8-54.2,16.9-55.3l0.6-7.7h5.9l-0.6,7.7
			c-0.1,1-2.1,26.1-16.9,55.3c-12.7,25-37.4,57.6-84,76c-3.6,1.4-7.4,2.8-11.3,4.1l-0.6-1.8C541.6,517.2,543.6,516.5,545.5,515.7z"
			/>
		<path class="st1" d="M452.2,506l-4.4,13.7c-3.9-1.3-7.7-2.6-11.3-4.1c-46.6-18.4-71.3-50.9-84-76c-14.8-29.2-16.8-54.2-16.9-55.3
			l-0.6-7.7H404v14.4H351c2.8,14.8,7.7,29.1,14.5,42.6c12.9,25.2,31.4,44.8,55.1,58.5C430.7,498,441.2,502.5,452.2,506z"/>
		<path class="st2" d="M442.2,515.7c-46.6-18.4-71.3-50.9-84-76c-14.8-29.2-16.8-54.2-16.9-55.3l-0.6-7.7h-5.9l0.6,7.7
			c0.1,1,2.1,26.1,16.9,55.3c12.7,25,37.4,57.6,84,76c3.6,1.4,7.4,2.8,11.3,4.1l0.6-1.8C446.2,517.2,444.2,516.5,442.2,515.7z"/>
		<path class="st1" d="M573.7,638.5v77.6H414v-77.6l5.1-6.8c51.7-18.4,62.2-66.3,64.3-85.2c0.3-2.6,0.5-5.2,0.5-7.9h19.7
			c0.1,2.6,0.3,5.2,0.5,7.9c2.1,19,12.6,66.8,64.3,85.2L573.7,638.5z"/>
		<rect x="414" y="638.5" class="st0" width="159.7" height="9.7"/>
		<path class="st2" d="M427.6,631.8c51.7-18.4,62.2-66.3,64.3-85.2c0.3-2.6,0.5-5.2,0.5-7.9h-8.5c-0.1,2.6-0.3,5.2-0.5,7.9
			c-2.1,19-12.6,66.8-64.3,85.2l-5.1,6.8v77.6h8.5v-77.6L427.6,631.8z"/>
		<path class="st0" d="M389.8,376.8h14.3v14.4h-13C390.6,386.5,390.2,381.6,389.8,376.8z"/>
		<path class="st0" d="M452.2,506l-4.4,13.7c-3.9-1.3-7.7-2.6-11.3-4.1c-6-7.3-11.3-15.1-15.8-23.4C430.7,498,441.2,502.5,452.2,506
			z"/>
		<path class="st0" d="M535.5,506c11-3.5,21.5-8,31.5-13.8c-4.5,8.3-9.8,16.2-15.8,23.4c-3.6,1.4-7.4,2.8-11.3,4.1L535.5,506z"/>
		<path class="st0" d="M597.9,376.8c-0.3,4.8-0.8,9.6-1.3,14.4h-13v-14.4H597.9z"/>
		<path class="st0" d="M504.2,546.5c-6.9,1.4-14,1.4-20.8,0c0.3-2.6,0.5-5.2,0.5-7.9h19.7C503.8,541.3,504,543.9,504.2,546.5z"/>
		<path class="st1" d="M391.5,352.9c0.3,106.7,46,192.9,102.4,192.9s102-86.2,102.4-192.9H391.5z"/>
		<path class="st2" d="M409.7,352.9h-18.2c0.3,106.7,46,192.9,102.4,192.9c3,0,6.1-0.3,9.1-0.8C450.9,536.4,410.1,453.8,409.7,352.9
			z"/>
		<rect x="439.6" y="668.2" class="st3" width="108.6" height="27.9"/>
		<polygon class="st2" points="444.7,672 548.1,672 548.1,668.2 439.6,668.2 439.6,696.1 444.7,696.1 		"/>
	</g>
</g>
<g id="_x23_woman_x28_dance_x2C_cheers_x2C_hold_x5F_up_x5B_hands_x5D__x29_">
	<g>
		
			<linearGradient id="SVGID_1_" gradientUnits="userSpaceOnUse" x1="174.4055" y1="579.4846" x2="362.4702" y2="579.4846" gradientTransform="matrix(1 0 0 1 -28 -65.02)">
			<stop  offset="0" style="stop-color:#808080;stop-opacity:0.25"/>
			<stop  offset="0.54" style="stop-color:#808080;stop-opacity:0.12"/>
			<stop  offset="1" style="stop-color:#808080;stop-opacity:0.1"/>
		</linearGradient>
		<path class="st4" d="M333.6,455.9c-1.9-0.7-13.5-9.7-14.3-13.9c-0.8-4.1,6.1-42.5,6.1-42.5s-0.7,0-1.7-0.1v-0.6l1.4-50.4
			c0,0,5.8-33.8-5.2-31.9c-11.1,1.9-4.1,31.9-4.1,31.9s-1.3,15.1-2.1,19.7c-0.8,4.4-4.7,22.3-2.1,27.8c0.1,0.2,0.2,0.4,0.3,0.6l0,0
			c0,0,0.4,19-4.3,21.7c-4.6,2.5-6.4,15-6.6,16.1l-0.3-0.1l0,0c-1.4-0.8-2.5-1.9-3.6-3.2c-0.1-0.1-0.2-0.3-0.3-0.4
			c6.4-7.3,6.3-18.3-0.5-25.3c-1.5-1.6-3.3-2.9-5.2-3.8c-0.1-1.6-0.4-3.2-1.1-4.7c-2.2-4.7-14.4-10.8-23-11c-4-0.1-7.3,1-8.5,4.1
			c-0.6,1.6-0.4,3.4-0.7,5c-0.5,3.4-2.7,6-5.5,8.1c-1.1-1.3-2.4-2.5-3.6-3.5c-2.8-2.2-8.5-9.3-8.5-9.3s-17.6-18.2-18.9-23.2
			c-1.3-5-18.9-34.9-22.8-29.8c-3.9,5.2,13.5,28,13.5,28s3.3,8.3,5.8,11.1c2.5,2.8,22,31.1,22,31.1l0.9,1.9
			c-4.1,2.2-7.9,4.9-9.2,9.2c-1.9,6.3,2.3,12.7,5.2,18.6c5.8,11.6,6.6,26.3-0.8,36.9c-6.6,9.3-18.1,13.8-28.9,17.6
			c5.2,4.1,11.7,6.3,18.3,6.1c-2.5,7.2-11.3,9.6-18.8,10.9c4,3.8,9.6,5.2,15,6c2.6,0.4,5.3,0.7,8,0.7h0.7l0.7-0.1
			c0.9-0.1,1.9-0.2,2.7-0.3c3.9-0.8,7.7-3,9.7-6.3c1.7-3,2.3-6.9,5.3-8.5c0.8-0.3,1.7-0.6,2.5-0.6h-0.1c0.6,0,1.2,0,1.8,0l12.8,0.2
			c0.5,0,1.1,0,1.6,0c3.6-0.1,7.4-0.7,9.3-3.7c0.8-1.4,1.2-3,1.2-4.7c0.3-4.1,0-8.2,0.1-12.3c1.1,7.4,2.2,19-0.5,23.3
			c-2.2,3.2-4.9,6.2-8,8.6c-0.8,0.7-1.4,1.4-2.1,2.1c-0.4,0.3-0.7,0.4-0.7,0.4l-0.3,0.8c-0.9,1.4-1.7,3-2,4.8
			c-0.2,0.4-0.2,0.9-0.2,1.4c0.3,0.6-2.1,3-1.4,4.1c-6,7-7.2,17.8-7.2,17.8l-11,16.7c-5.7,14.8-14.1,16.3-14.1,16.3
			s-19.9-13.4-20.4-14c-0.5-0.6-8.1-3.9-8.1-3.9c-0.9-1.6-2.3-2.8-3.9-3.6c-2.6-1.1-2.8-5.1-2.8-5.1c-0.3-9.5-5.8-10.2-5.8-10.2
			c-4.5-0.4-7.9,0.4-10.5,1.9l-0.8,0.1c-3.8,0.3-8.5,0.7-13.5,1c-14.1,0.9-17.5,10.1-17.5,10.1s-1.8,1.9,0.5,4.1
			c2.3,2.1,16.8,0,17.4-0.1c-1.1,0.1-2.2,0.1-3.3-0.3c2.3-0.1,5.4-0.2,8.1-0.2h0.7c-0.2,1.4-0.3,2.9-0.3,4.3c0,2.7,7.5,4.4,7.5,4.4
			l22.8,20.3c0,0,14.3,6.4,23.4,15.7c9.1,9.2,17.2,1.3,17.2,1.3c9.6-2.4,37.4-36,37.5-36l0,0c0,1,0.6,33.7,1.7,40.2l0,0
			c0.1,0.3,0.1,0.7,0.3,1c1.3,2.8-0.4,10.5-1.2,13.8c-0.5,2.7-0.7,5.5-0.5,8.2c0,0-10.4,39.8-9.6,43.2s-5.7,19.7-5.7,19.7v13.5
			l1.1-0.1c-0.2,0.3-0.3,0.4-0.4,0.7l-0.1,0.2c0,0,6.9,1.5,11.6,1.1c4.7-0.4,12.7,3.6,12.7,3.6s2.7,1.3,11.1,1.9
			c8.4,0.6,8.4-3.7,8.4-3.7c-0.9-5.8-14.1-7.7-14.6-7.8c-1.1-0.7-2-1.4-2.9-2l-0.2-0.2c0.1-0.1,0.1-0.3,0.2-0.4
			c1.4-5.8-6.4-8.3-6.4-8.3v-1.4c5.1-2.6,6.1-20.5,6.1-20.5s7.6-22.1,8.7-25.8s0-9.2,0-9.2l0.8-4.7c0,0,1.6-3.2,1.6-3.9
			c0.2-1.7,0.8-3.2,1.9-4.6c1.2-1.4-1.3-4.7-1.3-4.7l2.2-5.7v-6.2l5.1-22.4c0,0,5.3-26.1,3.5-34.7c-1.9-8.5,2.2-12.9,2.2-12.9
			c-0.3,0.2-0.8,0.3-1.1,0.5c0.5-1.2,0.9-2.4,1.3-3.6l11.4,1.4v0.2h4.1c0,0-1.3-16.1-1.3-22.6c0-6.5,4.4-29.8,4.4-29.8
			S335.5,456.6,333.6,455.9z M282.9,437.1c0,0.7-0.1,1.3-0.1,1.9l-0.3,0.3l-0.4-0.3l-0.5,0.8l-0.2,0.1c-1.1-0.6-1.7-3.9-2.5-3.1
			l-0.1,0.1c-0.2-0.2-0.3-0.3-0.5-0.1l-0.2,0.2c0-0.3,0-0.5,0-0.8c1.5,0.4,3.1,0.6,4.7,0.6C282.9,437,282.9,437.1,282.9,437.1z
			 M320.9,512h0.3l-0.4,1.1C320.8,512.8,320.8,512.4,320.9,512z M279.2,703.9l-1.5-0.4l0.8-0.2L279.2,703.9l0.2,0.1L279.2,703.9z
			 M295.1,701.6c-0.5-0.3-1-0.6-1.5-0.9C293.7,700.8,294.4,701.2,295.1,701.6z"/>
		<polygon class="st5" points="326.5,496 316.2,522.8 318.8,522.8 309.1,530.5 326.5,532.6 		"/>
		<polygon class="st0" points="326.5,496 316.2,522.8 313.7,522.1 309.1,530.5 326.5,532.6 		"/>
		<polygon class="st5" points="310.4,513.1 326.5,513.1 332.4,464.6 310.4,464.6 		"/>
		<polygon class="st0" points="310.4,513.1 326.5,513.1 332.4,464.6 310.4,464.6 		"/>
		<path class="st6" d="M279.1,476.1l3.5-0.6l8-1.4c0,0,23.9-5.4,28.9-5.8c3-0.4,5.9-1.3,8.6-2.5c1.3-0.6,2.1-1,2.1-1l-8.6-15.7
			l-13.4-9.9c0,0-8.5-1.8-12-6.8c-1.6-2.1-2-5-1.1-7.5c2.2-6.8-13,6.4-13,6.4s0.2,3.2,0,7.2c0,0.8-0.1,1.6-0.2,2.5
			c0,0.6-0.1,1.1-0.2,1.7c-0.3,4.1-1.1,8.1-2.6,10.7C275.3,459.5,279.1,476.1,279.1,476.1z"/>
		<path class="st0" d="M281.9,439h0.3c0.6,0,1.1-1.3,1.7-1.4c4.7-0.4,9.1-1.4,12.1-4.8c-1.6-2.1-2-5-1.1-7.5c2.2-6.8-13,6.4-13,6.4
			S282.1,434.9,281.9,439z"/>
		<path class="st6" d="M263.4,419.8c0,10.2,8.3,18.5,18.5,18.5l0,0c0.6,0,1.2,0,1.8-0.1c10.2-1,17.7-10.1,16.7-20.3
			s-10.1-17.7-20.3-16.7C270.6,402.3,263.4,410.2,263.4,419.8L263.4,419.8z"/>
		<path class="st3" d="M257.7,391.7c-0.6,1.6-0.4,3.3-0.7,5c-0.9,6-7,9.6-12.5,12.2c-5.5,2.5-11.8,5.5-13.5,11.3
			c-1.9,6.3,2.3,12.6,5.2,18.5c5.7,11.5,6.5,26.1-0.8,36.6c-6.5,9.3-17.9,13.7-28.7,17.6c5.2,4.1,11.6,6.2,18.2,6
			c-2.5,7.2-11.3,9.6-18.7,10.8c3.9,3.8,9.6,5.2,14.9,6c3.9,0.6,8,1,11.8,0.3c3.9-0.8,7.6-2.9,9.6-6.3c1.7-3,2.3-6.9,5.3-8.5
			c1.4-0.5,2.9-0.8,4.3-0.7l12.7,0.2c4,0,8.6-0.3,10.7-3.6c0.8-1.4,1.2-3,1.2-4.7c0.5-8.3-1-17.1,2.4-24.7c1-2.3-5.6-5.9-4.9-8.4
			c2.4-8.4,3-14.9,3-23.6c0-6.8,4.4-12.5,8-18.2c3.6-5.7,6.6-12.9,3.8-19C285.7,391.7,261.5,381.9,257.7,391.7z"/>
		<path class="st6" d="M274.6,701.5l3.2,2.1l0.5,0.3l0.1,0.1l3.8,2.5l9,1.5l7.9-0.5c0,0,2.3-4.7-1.3-4.7c-1.1-0.1-2.3-0.3-3.2-0.9
			l-0.5-0.3l0,0c-0.5-0.3-1-0.6-1.5-0.9l0,0c-1-0.7-2-1.4-2.9-2c-1.2-0.9-1.9-1.6-1.9-1.6L274.6,701.5z"/>
		<path class="st0" d="M277.9,703.6l0.5,0.3l0.1,0.1l3.8,2.5l9,1.5l7.9-0.5c0,0,2.3-4.7-1.3-4.7c-1.1-0.1-2.3-0.3-3.2-0.9
			c0.6,0.5,1.2,1,1.2,1.4c0.2,1.2-5.8,3.4-5.8,3.4l-8.4-2.2c0,0-1.4-0.4-3.4-0.9l-0.2-0.1L277.9,703.6z"/>
		<path class="st3" d="M263.5,705.7c0,0,6.9,1.5,11.5,1.1c4.7-0.4,12.6,3.6,12.6,3.6s2.7,1.3,11,1.8s8.3-3.6,8.3-3.6
			c-0.9-5.8-14-7.6-14.5-7.7l0,0l0,0l0,0c0.2,0.1,0.8,0.4,1.5,0.9l0,0c0.9,0.6,1.9,1.4,2,2c0.2,1.2-5.8,3.4-5.8,3.4l-8.4-2.2
			c0,0-1.4-0.4-3.4-0.9h-0.2c-2.9-0.8-5.8-1.4-8.8-1.8C265.8,701.8,263.9,704.9,263.5,705.7C263.5,705.5,263.5,705.6,263.5,705.7z"
			/>
		<path class="st6" d="M154.8,553.6l3.6,2.8c0,0,1.1-0.1,2.6-0.1h0.5c2.3-0.1,5.4-0.2,8.1-0.2c1.7-0.1,3.5,0,5.2,0.3
			c1.9,0.7,5.1-10.5,5.1-10.5l-3.6-0.8l-1.2-0.3l-0.8-0.2l-3-0.7l-9.1,1l-6.3,4.1L154.8,553.6z"/>
		<path class="st0" d="M154.8,553.6l3.6,2.8c0,0,1.1-0.1,2.6-0.1c-0.8-0.3-1.4-0.8-1.7-1.5c-2.4-6.6,9.4-9.4,9.4-9.4l5.5-0.3
			l1.1-0.1h0.8l-1.2-0.3l-0.8-0.2l-3-0.7l-9.1,1l-6.3,4.1L154.8,553.6z"/>
		<path class="st3" d="M147.6,556.5c2.2,2,16.8,0,17.3-0.1c-1.1,0.1-2.2,0.1-3.3-0.3c-1.1-0.2-2-0.8-2.5-1.9
			c-2.4-6.6,9.4-9.4,9.4-9.4l5.5-0.3l1-0.1l13.3-0.6l0.7-3.6c0,0-4.3,0.4-11.1,0.9c-3.8,0.3-8.5,0.7-13.5,1c-14,0.9-17.3,10-17.3,10
			S145.3,554.4,147.6,556.5z"/>
		<path class="st6" d="M310.5,397.7c0.1,0.2,0.2,0.4,0.3,0.6l3.2,4.7l8.4,0.8l0.1-3.3l1.4-50.2c0,0,5.8-33.7-5.2-31.7
			c-11,1.9-4.1,31.7-4.1,31.7s-1.3,15.1-2.1,19.6C311.6,374.4,307.8,392.2,310.5,397.7z"/>
		<path class="st6" d="M291.5,522.3l2.4,4.1l5.3,9.1c0,0,9.7,3.6,12.2,0.8c1.4-1.5,2.9-6.7,3.9-11c0.8-3.6,1.4-6.5,1.4-6.5
			L291.5,522.3z"/>
		<path class="st0" d="M291.5,522.3l2.4,4.1c0.2-0.2,0.3-0.3,0.4-0.4c2.7-3.5,14.6-0.8,21-0.5c0.8-3.6,1.4-6.5,1.4-6.5L291.5,522.3z
			"/>
		<path class="st0" d="M169.7,556c1.7-0.1,3.5,0,5.2,0.3c1.9,0.7,5.1-10.5,5.1-10.5l-4.9-1.2l13.3-0.6l0.7-3.6c0,0-4.3,0.4-11.1,0.9
			c-1.4,0.8-2.6,1.9-3.7,3.1l-0.2,0.3C171.2,548.2,170.1,552.7,169.7,556z"/>
		<path class="st0" d="M274.6,701.5l3.7,2.5c5.6-1,10.7-2.6,11.3-5.1v-0.1c-1.2-0.9-1.9-1.6-1.9-1.6L274.6,701.5z"/>
		<path class="st0" d="M263.6,705.5c4.9-0.3,9.8-0.8,14.6-1.6c-2.9-0.8-5.8-1.4-8.8-1.9C265.8,701.7,263.9,704.9,263.6,705.5z"/>
		<path class="st3" d="M170.1,560.3c0,2.7,7.4,4.4,7.4,4.4l22.7,20.1c0,0,14.2,6.3,23.3,15.5c9.1,9.1,17,1.3,17,1.3
			c9.6-2.4,37.2-35.8,37.2-35.8s0.7,38.2,1.9,41c1.3,2.8-0.4,10.5-1.2,13.7c-0.5,2.7-0.7,5.4-0.5,8.2c0,0-10.3,39.6-9.5,43
			s-5.6,19.6-5.6,19.6v13.5c0,0,25.4-1,26.7-6.7c1.4-5.7-6.3-8.2-6.3-8.2v-1.4c5.1-2.6,6-20.4,6-20.4s7.5-22,8.6-25.6s0-9.1,0-9.1
			l0.8-4.7c0,0,1.6-3.2,1.6-3.9c0.2-1.6,0.8-3.2,1.9-4.5c1.2-1.4-1.3-4.7-1.3-4.7l2.1-5.6v-6.2l5.1-22.3c0,0,5.2-26,3.5-34.5
			c-1.8-8.5,2.1-12.9,2.1-12.9c-8.6,4.6-13-5.6-14.5-9.9c-0.3-1.1-0.5-1.9-0.5-1.9s-11.8-4.4-22.9-3.3c-2.3,0.2-4.5,0.7-6.6,1.4
			c-12.3,4.4-14.2,22.8-14.2,22.8L244,559.7c-5.6,14.8-14,16.2-14,16.2s-19.7-13.3-20.3-13.9s-8.1-3.9-8.1-3.9
			c-0.8-1.5-2.3-2.8-3.9-3.6c-2.6-1.1-2.8-5.1-2.8-5.1c-0.3-9.4-5.8-10.2-5.8-10.2C170,537.9,170.1,557.6,170.1,560.3z"/>
		<rect x="279.9" y="471.5" class="st5" width="11.7" height="36.1"/>
		<rect x="279.9" y="471.5" class="st0" width="11.7" height="36.1"/>
		<path class="st0" d="M310.4,397.6L310.4,397.6c0.1,0.3,0.2,0.5,0.3,0.7l3.2,4.7l8.4,0.8l0.1-3.3
			C319.9,400.3,313.8,399.6,310.4,397.6z"/>
		<path class="st5" d="M310.7,398.2c0,0,0.4,19-4.3,21.6c-4.7,2.6-6.6,16.1-6.6,16.1s14.4,9.5,17.6,13.6s10.6,14,9.1,16.4
			c-1.5,2.4,3.6,13.1,3.6,13.1s-9.5,19.4-7.4,26.7c2.1,7.4,2.4,26.7,2.4,26.7h4.1c0,0-1.3-16-1.3-22.4s4.3-29.5,4.3-29.5
			s1.9-22.7,0-23.3c-1.9-0.6-13.4-9.7-14.2-13.8c-0.8-4.1,6-42.3,6-42.3S315.3,400.8,310.7,398.2z"/>
		<path class="st0" d="M279.7,468.1c0.4,2.6,1.4,5.2,2.8,7.4l8-1.4c0,0,23.9-5.4,28.9-5.8c3-0.4,5.9-1.3,8.6-2.5
			c-1.9-6.7-5.6-12.8-10.7-17.6l-3-2.8c-4.5-4.1-9.6-7.4-15.3-9.8c0.3,0.3,25.5,21.7,20,26s-20.3-6-20.3-6l-16.8-14.5l-0.6-0.5
			l-0.9,1.5c0.5,0.2,1,0.4,1.4,0.7c5.8,3.1,10,8.5,11.8,14.7C296.9,469.2,279.7,468.1,279.7,468.1z"/>
		<path class="st7" d="M274.5,522c0,0,16,8.9,19.8,3.9c0.8-1.1,2.6-1.5,4.8-1.7c-0.3-1.1-0.5-1.9-0.5-1.9s-11.8-4.4-22.9-3.3
			C274.9,520.9,274.5,522,274.5,522z"/>
		<path class="st8" d="M281.9,440.6l17.4,15c0,0,14.7,10.2,20.3,6s-20-26-20-26l0,0c5.7,2.3,10.8,5.7,15.3,9.7l3,2.8
			c8,7.4,9.8,7.4,10.1,18.3c0.1,2.7-0.8,6.5-1.5,7.2c-2.6,2.5-4.4,21-4,23.1c0.4,2.1-4.8,20.8-3.1,26c1.7,5.2-21.2-2.6-25,2.4
			s-19.9-3.6-19.9-3.6s8.9-22.7,11-24.1c2.1-1.4,4.7-13.1,0-18.5c-4.7-5.4-5.2-10.6-5.2-10.6s17.3,1.1,13.8-10.6
			c-1.9-6.9-6.9-12.4-13.3-15.4L281.9,440.6z"/>
		<path class="st0" d="M305.1,478.8c0,0-6.7,12.6-15.3,15.9c-0.3,0.1-0.5,0.2-0.8,0.3C279.9,497.7,305.8,482.7,305.1,478.8z"/>
		<path class="st6" d="M211.5,367.2c0,0,3.2,8.2,5.8,11c2.6,2.8,21.7,30.9,21.7,30.9l1.6,3.4l1.4,2.9l12.3-1.3l0.8-5l-0.5-0.6
			c-1.3-1.5-4.6-5.5-6.9-7.2c-2.8-2.1-8.4-9.3-8.4-9.3s-17.4-18.1-18.8-23.1c-1.4-5-18.8-34.7-22.7-29.5
			C194.1,344.5,211.5,367.2,211.5,367.2z"/>
		<g class="st9">
			<path d="M247.2,500.6c-1.4-0.2-3,0.1-4.3,0.6c-3,1.5-3.6,5.5-5.3,8.5c-1.9,3.5-5.8,5.6-9.6,6.3c-0.8,0.2-1.5,0.3-2.4,0.3
				c2.5,0.3,5,0.2,7.4-0.3c3.9-0.8,7.6-2.9,9.6-6.3c1.7-3,2.3-6.9,5.3-8.5c0.8-0.3,1.7-0.6,2.5-0.6H247.2z"/>
			<path d="M277.3,435.7c0-6.8,4.4-12.5,8-18.2c3.6-5.7,6.6-12.9,3.8-19c-2.5-5.2-17.1-12.2-25.6-10.8c8.3,1.1,18.5,6.5,20.6,10.8
				c2.9,6.1-0.2,13.3-3.8,19c-3.6,5.7-8,11.5-8,18.2c0,8.7-0.6,15.2-3,23.6c-0.7,2.5,5.9,6.1,4.9,8.4c-3.5,7.6-1.9,16.4-2.4,24.7
				c0,1.6-0.4,3.2-1.2,4.7c-1.7,2.8-5.2,3.5-8.5,3.6h3c4,0,8.6-0.3,10.7-3.6c0.8-1.4,1.2-3,1.2-4.7c0.5-8.3-1-17.1,2.4-24.7
				c1-2.3-5.6-5.9-4.9-8.4C276.7,450.9,277.3,444.3,277.3,435.7z"/>
		</g>
		<path class="st0" d="M240.7,412.4l1.4,2.9l12.3-1.3l0.8-5l-0.5-0.6C253.5,409.1,243.7,413.9,240.7,412.4z"/>
		<path class="st0" d="M286.2,444.8c0,0-3-4.7-4.7-3.5c-1.7,1.3-2.4-3.9-3.4-3s-3.9,3.3-5.1-0.1c-0.9-2.7-11.2-19.5-15.3-26.4
			c-1.1-1.8-1.7-2.9-1.7-2.9s-11.7,5.8-14.5,3.9v4.1l2.4,0.3l12.7,23.7c0,0,4,6.3,3.7,8.5s5.1,11.9,6,12.6
			c0.9,0.7,10.2,11.4,10.2,11.4s4.7,23.3,0.7,29.8S266,514.4,266,514.4s-2.1,6.3-1.9,6.9c0.3,0.7-2.5,3.5-1.2,4.3
			c1.3,0.8,3,6.9,3,6.9s6-9.7,9.3-11.2c3.3-1.4,7.4-21.3,7.4-21.3s1.2-11.7,1.3-19.2C284.1,473.4,283.6,444.8,286.2,444.8z"/>
		<path class="st5" d="M285.5,444.8c0,0-3-4.7-4.7-3.5c-1.7,1.3-2.4-3.9-3.4-3s-3.9,3.3-5.1-0.1c-0.9-2.7-11.2-19.5-15.3-26.4
			l-1.7-2.9c0,0-11.7,5.8-14.5,3.9v4.1l2.4,0.3l12.7,23.7c0,0,4,6.3,3.7,8.5c-0.3,2.2,5.1,11.9,6,12.6c0.9,0.7,10.2,11.4,10.2,11.4
			s4.7,23.3,0.7,29.8c-2.2,3.2-4.8,6.2-7.8,8.6c-2.5,2.1-4.3,4.9-5.1,8.1c-0.2,0.4-0.2,0.9-0.2,1.4c0.3,0.7-2.5,3.5-1.2,4.3
			c1.3,0.8,3,6.9,3,6.9s6-9.7,9.3-11.2c3.3-1.4,7.4-21.3,7.4-21.3s1.2-11.7,1.3-19.2C283.4,473.4,283,444.8,285.5,444.8z"/>
		<path class="st0" d="M256,543c0,0,9.1,1.7,12.7,4.3c3.6,2.6-13.8-4.1-13.8-4.1L256,543z"/>
		<path class="st0" d="M277.7,565.9c0,0,9.5,7.9,7.8,15c-1.7,7.1-6.1,25-6.1,25L277.7,565.9z"/>
		<path class="st0" d="M195,550.8c0,0-13.3,1.4-12.4,3.2c0.8,1.8,12.4-1.6,12.4-1.6V550.8z"/>
		<path class="st0" d="M297.3,616.3c0,0,0.8,1.1-4.1,0c-4.9-1.1-1.3-4.4-1.3-4.4L297.3,616.3z"/>
		<path class="st0" d="M295.7,631.2c0,0-6.8,1.1-10.4,0C281.6,630.1,295.7,631.2,295.7,631.2z"/>
		<path class="st0" d="M281.7,689.4c0,0-1.2-1.3-7.1,1.1s-8.3,2.5-10.1,1.7C262.7,691.4,281.7,689.4,281.7,689.4z"/>
		<path class="st0" d="M288.3,548.9l-8.4,11.7C279.9,560.7,284.4,550.4,288.3,548.9z"/>
		<path class="st0" d="M272,441.4c0,0-0.3,3.9-5.8,5.4c-5.4,1.5-6.4,2.7-6.4,2.7"/>
		<path class="st0" d="M257.8,413.2c0,0-7.2,5.1-14.6,4"/>
		<path class="st0" d="M263.3,521.9c0,0,2.1,1.3,7.1-4.4"/>
		<path class="st0" d="M315.5,461.1c0.2-1-0.5-2-1.2-2.9l-1.4-1.7c-0.3-0.3-0.6-0.7-0.9-0.9c-0.8-0.7-1.9-0.8-2.8-1.4"/>
	</g>
</g>
<g id="_x23_man_x28_jump_x29_">
	<g>
		
			<linearGradient id="SVGID_2_" gradientUnits="userSpaceOnUse" x1="731.2493" y1="658.4445" x2="731.2493" y2="317.6886" gradientTransform="matrix(1 0 0 1 -28 -65.02)">
			<stop  offset="0" style="stop-color:#808080;stop-opacity:0.25"/>
			<stop  offset="0.54" style="stop-color:#808080;stop-opacity:0.12"/>
			<stop  offset="1" style="stop-color:#808080;stop-opacity:0.1"/>
		</linearGradient>
		<path class="st10" d="M809.5,436.8c-1.2-0.9-2.6-1.5-4.1-1.8c-1.6-0.3-3.2-0.6-4.8-0.8l-20.8-3c-2.1-0.4-4.2-0.5-6.3-0.3
			c-2.2,0.2-4.1,1.2-5.6,2.9c-0.6,0.8-0.9,1.7-0.9,2.7c0.1,1,0.4,1.9,0.9,2.8c0.2,0.4,0.3,0.8,0.5,1.3c0.2,0.9,0.4,1.9,0.8,2.9
			c0.1,0.2,0.3,0.4,0.3,0.6c0,0.1,0,0.1,0,0.2c-0.3,1.2,0.5,2.4,0.2,3.5c-0.3,0.9-1.3,1.5-1.9,2.4c-0.8,1.2-0.8,2.7-0.1,3.9
			c0.7,1,1.8,1.7,2.1,2.8c0.4,1.5-0.8,2.9-1.8,4.1c-1.9,2.1-3.7,4.3-5.3,6.7c-0.4,0.6-0.8,1.3-0.8,2c-0.1,1.4,1.4,2.8,1.1,4.2
			c-0.2,1.2-1.4,1.9-2.3,2.5c-3.6,2.4-6.5,6.2-6.8,10.5c-0.9-6.9-3.7-13.3-8.2-18.6c-1.2-1.4-2.5-3-3-4.7c-0.2-0.8-0.3-1.5-0.5-2.2
			c-0.8-2.2-3.6-3.2-4.7-5.2c-0.8-1.4-0.8-3.3-1.9-4.6c-1-1.3-2.7-1.6-3.6-2.8c-0.4-0.8-0.8-1.7-1.2-2.6c-0.3-0.8-0.9-1.4-1.5-1.9
			c-0.1-0.1-0.3-0.2-0.4-0.3c0.3-0.3,0.4-0.6,0.4-1c0-1-1-1.6-1.9-2.1c-1.1-0.6-2.2-1.3-3.2-2c1.2-0.5,2.1-1.4,2.9-2.4
			c0.9-1.5,1.4-3.3,1.1-5.1c-0.1-1.4-0.6-2.8-1.5-3.9c-0.5-0.6-1.2-0.9-1.8-1.5c-1.4-1.4-1.9-3.5-2.5-5.4c-0.8-2.5-2-5.2-4.4-6.5
			c-1.1-0.7-2.5-0.9-3.6-1.6c-1.1-0.7-2-1.9-1.6-3.2c0.3-0.8,1-1.4,1.6-2.1c1.4-1.9,0.8-4.6-1.1-5.9c-0.6-0.4-1.4-0.8-1.5-1.4
			c-1-0.3-1.8-1.1-1.9-2.1c-0.2-1-0.2-2,0-3c0.3-1.6,0.4-3.1,0.7-4.7c0.8,0.3,1.6,0.3,2.4,0c0.8,1.2,1.6,2.3,2.5,3.3
			c2.5,3,4.6,6.5,5.9,10.2c0.5,1.4,1,2.9,2.2,3.6c0.4,0.3,0.9,0.3,1.4,0.7c0.5,0.3,0.9,0.8,1.4,1.4c1,1.4,2,2.7,3,4.1l0.1,0.2
			c0,0.1,0.1,0.3,0.2,0.3c0.2,0.2,0.4,0.3,0.8,0.3c3.1,0.8,6.6,1.4,9.3-0.3c2.5-1.5,3.5-4.6,5.6-6.5c1.4-1.4,3.6-2.5,4-4.6
			c-0.5-0.2-1-0.3-1.4-0.5c0.4-0.4,0.8-0.9,1.4-1.4c0.8-0.8,1.6-1.7,2.3-2.7c0.7-1.2,1.3-2.5,1.7-3.8c1.6-4.7,3.3-9.3,4.9-14
			c0.8-2.2,1.5-4.4,2.5-6.6c1-2.3,2.2-4.6,3.3-6.9c2.9-5.9,5.1-12.1,6.6-18.5c0.3-0.8,0.3-1.8,0.3-2.7c-0.3-1.4-1.4-2.6-2.4-3.6
			c-1.1-1.2-2.3-2.1-3.6-3c-1.4-0.8-3-1.1-4.5-0.8c-2.2,0.7-3.6,2.9-4.1,5.1c-0.5,2.2-0.3,4.5-0.5,6.8c-0.3,3.3-1.4,6.4-1.7,9.6
			c-0.2,1.9,0,3.8-0.3,5.7c-0.4,2.5-1.3,4.8-2.5,7c-2.7,5.2-6.4,9.7-10.9,13.5c-0.5,0.4-1,0.8-1.5,1.3c0-0.3,0.1-0.8,0.1-1.1
			c-0.3,0.1-0.8,0.3-1.1,0.4c0.1-0.4,0-0.8-0.2-1.3c-0.7-2-3.7-2.5-4.2-4.6c-0.1-0.5-0.2-1-0.2-1.5c-0.2-1.8-1.4-3.3-1.9-5.1
			c-0.4-1.6-0.1-3.4-0.8-4.9c-0.7-0.9-1.4-1.8-2.3-2.5c-1-1.2-1.8-2.5-2.1-4.1c-0.1-0.4-0.2-0.8-0.3-1.3c0.2-0.9,0-1.9-0.3-2.8
			c-0.8-1.9-2.8-3.1-3.5-5.1c-0.6-1.5-0.3-3.4-1.4-4.6c-0.6-0.6-1.3-0.9-2-1.2c-3.9-1.5-8-2.5-12.1-2.9c-2.3-0.2-4.9-0.3-6.5-1.9
			c-1.9-1.9-2-5.3-4.3-6.8c-2-1.3-4.8-0.3-6.3,1.5c-0.3,0.3-0.4,0.6-0.7,0.8c-0.3-1.1-0.3-2.3-0.2-3.5c0-0.3,0.1-0.6,0.1-0.8
			c3.8-1.3,7.1-3.8,9.1-7.3c0,0,0,0,0,0.1l0.1,0.3c0.3,0.6,0.7,1.2,1.2,1.3l0,0c0.4,0,0.8-0.2,1-0.4c0.5-0.3,1-0.8,1.4-1.2
			c0.3-0.3,0.4-0.5,0.6-0.8c0.4-0.5,0.8-1.1,1-1.7c0.4-0.9,0.7-1.9,0.8-2.9c0.2-1,0.2-2,0.3-3c0.2-0.8,0.3-1.5,0.6-2.2
			c0.1-0.3,0.2-0.5,0.3-0.8s0.2-0.6,0.3-0.8c0.5-1.8,0.8-3.6,0.8-5.3c0-0.3,0-0.6,0-0.9c-0.1-2.4-1.1-4.7-2.9-6.3
			c-1.4-1.2-3.4-1.7-4.5-3.3c-0.7-1.1-0.8-2.5-1.3-3.7c-0.9-3.1-3.5-5.4-6.7-6c-1.9-0.2-3.7,0.3-5.2,1.4l0,0l-0.1,0.1l0,0
			c-0.8,0.7-1.5,1.4-2.1,2.4c-1.1-0.3-2.1-0.9-3-1.7c-0.8-0.8-1.5-1.8-2.4-2.5c-1.6-1.5-4-1.9-6-1.3c-2.1,0.8-3.7,2.7-4.3,4.9
			c-0.4,1.8-0.4,3.7-1.4,5.2c-0.8,1.1-1.9,1.7-2.9,2.7c-0.5,0.7-0.9,1.4-1.1,2.3l0,0c-0.1,0.4-0.2,0.9-0.2,1.4l0,0
			c0,0.2,0,0.4,0.1,0.6v0.1c0,0.3,0.1,0.4,0.2,0.7l0,0c0.3,0.8,0.7,1.7,1.3,2.3c0.6,0.7,1.3,1.2,2,1.4c0.3,0.1,0.7,0.3,1,0.3l1,0.3
			l0.3,0.1c-2.5,4.7-2.6,10.2-0.5,14.9c0,0.3-0.1,0.5-0.1,0.7c-0.2,3.3,0,6.7,0.4,10c0.1,1.3,0.2,2.8-0.6,3.8
			c-0.3,0.4-0.8,0.8-1.3,1.1c0.4-0.6,0.9-1.2,1.4-1.8c-1.2-1.2-3-1.4-4.7-1.3c-3.3,0.3-6.4,1.2-9.3,2.9c-1.9,1.1-3.8,2.5-6,2.3
			c-1.3-0.2-2.5-0.8-3.8-0.5c-0.7,0.3-1.4,0.7-1.9,1.2c-0.4,0.3-1,0.5-1.6,0.5c-1.4-1.6-3.4-2.7-5-4.1c-1.8-1.6-3.5-3.4-4.9-5.3
			c-2.7-3.3-5.5-6.6-8.2-10c-2.3-2.8-4.6-5.8-5-9.5c0-0.3-0.1-0.7-0.1-1.1c0.1-1.7,0.3-3.4,0.7-5.1c0.1-0.4,0.1-0.8,0-1.3
			c-0.3-0.8-1.3-1.2-2-1.4l0,0c0.1-0.7,0.2-1.4,0.3-1.9c0.5-7.3,0-14.6,1.5-21.8c0.6-2.7,1.5-5.5,3.6-7.5c3.1-3.1,8.3-3.9,10.7-7.5
			c1.9-3,1.2-7.4-1.3-10.2c-2.5-2.7-6.3-3.8-10-3.7c-1,0-2,0.3-2.9,0.8c-0.8,0.8-1.4,1.6-1.8,2.7l-3.4,8.9c-1,2.3-1.9,4.7-2.6,7.1
			c-1,3.7-1.3,7.6-2,11.3c0,2.9-1.9,6.4-2.9,9.1c-1.1,3-2.4,5.9-3.4,9c-0.3,0.8-1.1,3-1.7,5.1c-0.2,0.1-0.4,0.3-0.6,0.4
			c-0.4,0.6-0.8,1.2-1.2,1.8c-0.8,1-2,1.5-2.9,2.5c-0.8,1-1,2.8,0.2,3.3c0.3,0.1,0.5,0.2,0.8,0.2c0.2,0,0.3,0,0.4,0.1
			c1.3,0.3,1.8,1.9,1.6,3.3c-0.2,1.4-0.8,2.5-0.9,3.9c-0.3,2.4,1.1,4.5,2.5,6.4c1.4,2.1,2.9,4.1,4.5,6.1c1.2,1.4,2.5,2.5,3.7,3.8
			c4.6,4.7,8.2,10.2,12.4,15.3c1.4,1.9,3.1,3.7,5,5.2c1.2,0.9,2.5,1.9,3.8,2.6l7.1,4.5c0.8,0.6,1.7,1,2.7,1.3c0.3,0,0.6,0,0.9,0
			c0,0.2,0.1,0.4,0.2,0.6c0.6,2.2,1.8,4.2,1.9,6.5c0.1,2.3-0.1,4.6,0.1,6.9c0.2,2.1,0.6,4.2,0.8,6.3c0.3,4-0.8,8-1.7,11.8
			c-1.4,5.8-2.3,11.6-5.1,16.8c-0.8,1.4-1.7,2.9-1.7,4.5c0,0.2,0,0.4,0.1,0.6l0,0l-1.3,0.8c-0.3,0.2-0.8,0.4-1.1,0.7
			c-1.6,1-3.3,2.2-4,4.1c-0.5,1.4-0.3,3.1-0.9,4.6c0,0.1-0.1,0.1-0.1,0.2c-0.7,1.4-2,2.3-2.4,3.7l0,0c-0.3,1.1,0.2,2.3,0,3.4l0,0
			c-0.2,0.6-0.3,1.1-0.4,1.7c0,0.2,0,0.3,0.1,0.6c0.2,0.7,0.5,1.2,1,1.7c0.3,0.3,0.7,0.6,1,0.8c0.3,0.3,0.8,0.4,1.1,0.7l0.3,0.1
			c0.3,0.2,0.7,0.3,1,0.5l0.3,0.1c0.4,0.2,0.8,0.3,1.2,0.4l0.3,0.1c0.3,0.1,0.6,0.2,0.9,0.3l0.2,0.1h0.2l0.8,0.2l0.3,0.1
			c0.3,0.1,0.8,0.1,1.1,0.2h0.3c0.3,0,0.6,0,0.8,0.1h0.4c0.3,0,0.6,0,0.8,0h0.3c0.4,0,0.8-0.1,1.2-0.1h0.2c0.3-0.1,0.7-0.1,1.1-0.2
			l0.3-0.1c0.3-0.1,0.7-0.2,1-0.3l0.2-0.1c0.4-0.1,0.8-0.3,1.2-0.4c1.4-0.6,2.6-1.2,3.9-1.9c0.8-0.4,1.7-0.9,2.5-1.4
			c0.6-0.3,1.3-0.6,1.9-0.8c1.6-0.7,3.3-1,5.1-0.8c0.8,0.1,1.7,0.3,2.5,0.5c0,0.1,0,0.2,0,0.3c0.7,4.1,1.4,8.1,2,12.2
			c1.1-0.8,2.3-1.5,3.5-2.1c-0.3,0.6-0.3,1.3-0.4,1.9c-0.1,0.5-0.1,1,0,1.5c0.1,0.8,0.3,1.7-0.3,2.4c-0.3,0.4-0.8,0.6-1,1
			c-0.1,0.4-0.2,0.9-0.1,1.4c-0.1,1.1-0.9,1.9-2,2c0.5,1.4,0,3-1.3,3.8c-0.3,0.2-0.7,0.4-1,0.7c-0.3,0.3-0.5,0.8-0.6,1.3
			c-1.1,4.2-3.4,8-6.6,10.9c-1.2,0.9-2.3,2-3.3,3.2c-0.6,0.9-1.1,1.9-1.5,3c-2.3,5.5-4.6,11-6.9,16.6c-1.3,3.1-2.5,6.3-3,9.6
			c-1,9.1-9.1,16.8-7.6,25.9c0.3,2.3,1.2,4.4,2.6,6.2c1.7,2,4.2,3.2,6.8,4.1c6.5,2.5,13.4,3.9,20.2,5.3l10.7,2.2
			c2.1,0.5,4.2,0.8,6.4,1c2.6,0.2,5.2-0.1,7.8,0.6c1.5,0.4,3,1.2,4.7,1.3c1.4,0.1,3.1-0.3,3.9,0.9c0.8,1.2,0.2,2.6,0.9,3.6
			c1.3,1.6,4.3,0,5.7,1.5c0.3,0.6,0.7,1.2,0.8,1.9c0.2,0.4,0.5,0.8,0.8,1.1c0.1,0.5,0.1,0.9,0.1,1.4c-0.2,1.9-0.6,3.9-1.2,5.8
			c-1,3.5-2,6.9-3,10.3c-0.4,1.2-0.7,2.5-0.8,3.7c-0.1,0.6-0.1,1.3,0,1.9c0.2,1.9,1.3,3.8,3,4.4c1.4,0.3,2.9,0.2,4.1-0.5
			c1.2-0.6,2.4-1.4,3.4-2.3c1.9-1.4,3.6-3.1,4.9-5c4.2-6.3,2.9-14.9,5.8-21.9c1.9-4.7,5.8-8.5,7.1-13.4c0.3-0.9,0.3-1.9,0.1-2.9
			c-0.5-1.7-2.4-2.6-4.1-3.3h-0.1c-1.4-0.5-2.8-0.9-4.2-1.2c-0.3-0.1-0.7-0.2-1.1-0.2c-0.8-0.7-1.4-1.5-1.9-2.5
			c-0.1-0.5-0.2-1-0.4-1.4c-0.3-0.4-0.8-0.7-1.2-0.7c-0.8-0.1-1.9,0.3-2.9,0.2c-1.9-0.2-3.1-1.9-4.8-2.9c-1.7-0.9-3.6-0.7-5.3-0.5
			c-0.7,0.1-1.3,0.1-1.9-0.1c-0.8-0.3-1.4-0.8-2-1.4c-2.1-1.6-4.9-2.2-7.4-1.5c-0.8,0.3-1.7,0.5-2.5,0.6c-1.7-0.1-2.8-1.5-4.1-2.7
			c-3.3-3-8-3.9-12.1-5.8c-0.6-0.3-1.1-0.7-1.4-1.3c-0.4-1.2,0.6-2.3,1.5-3.1l6.9-5.8c7.6-6.3,17.1-11.1,20.6-20.4
			c0.3-1.3,0.9-2.5,1.7-3.5c0.3-0.3,0.6-0.6,0.9-0.8c1.5-1,3.4-1.4,5.2-1c2.2,0.5,4.3,1.4,6.1,2.7c3,1.9,6,3.8,8.9,5.9
			c2.9,2,5.5,4.2,8.1,6.6c4.4,4.2,8.1,9.2,12.3,13.8s8.9,8.8,14.6,11c5.8,2.2,12.7,2.1,17.6-1.6c5.7-4.2,7.5-11.8,9-18.7
			c3.2-3,4.1-7.7,5.7-11.8c1-2.6,2.2-5.1,3.3-7.7c1.3-3,2.2-6.3,3.2-9.4c1.1-3.1,1.9-6.4,2.3-9.8c0.4-5.2-1-10.9,0.5-15.8
			c1.9-0.4,3.7-1.5,5.7-2.2c2.9-0.9,5.9-0.8,9-0.8h0.2c1,0.1,2.1-0.2,3-0.7c1-0.8,1.2-2.3,1.3-3.6
			C812.2,442.5,812,438.8,809.5,436.8z M686.9,292.4c-0.7,0.2-1.4,0.3-2.1,0.2L686.9,292.4z"/>
		<path class="st11" d="M690.2,345.9c-1,0.8-2.2,1.5-3.6,1.9l-6,2.1c-3.2,1.2-6.7,2.4-10.1,1.9c-1.9-0.3-10.2-1.4-11.4-3
			c-1.9-2.3,4.7-5.8,7-7.7c0.5-0.3,1-0.8,1.4-1.3c0.8-1,0.8-2.5,0.6-3.8c-0.4-3.3-0.6-6.6-0.4-10c0.1-0.8,0.2-1.6,0.3-2.4
			c0.8-3.9,4.5-2.5,7.4-1.4c3.5,1.1,6.8,2.5,10,4.3c0.9,0.5,1.8,1.2,2.5,2.1c1.3,1.9,0.8,4.4,0.6,6.8c-0.2,1.9-0.2,3.6,1,5
			c0.6,0.5,1.1,1.1,1.6,1.7C691.6,343.6,691.3,345,690.2,345.9z"/>
		<path class="st11" d="M607.4,285c0.8-3.7,1-7.6,2-11.3c0.7-2.5,1.6-4.7,2.6-7.1l3.7-8.7c0.3-1,0.9-1.9,1.8-2.6
			c0.8-0.5,1.9-0.8,2.9-0.8c3.6-0.2,7.4,1,10,3.7c2.5,2.7,3.3,7,1.3,10.1c-2.4,3.7-7.5,4.4-10.7,7.5c-1.9,2-3,4.7-3.6,7.5
			c-1.5,7.1-1,14.5-1.5,21.7c-0.2,2.3-0.6,4.8-2.5,6c-1.2,0.6-2.5,0.8-3.8,0.8l-5.6,0.1c-0.9,0-4.3,0.6-4.9-0.1
			c-1.1-1.3,1.4-7.4,1.9-8.7c1-3,2.2-5.9,3.4-9C605.5,291.4,607.4,287.9,607.4,285z"/>
		<path class="st3" d="M721.9,550.8c-1.3,4.9-5.1,8.7-7.1,13.4c-3,6.9-1.6,15.5-5.8,21.8c-1.4,1.9-3,3.6-4.9,5.1
			c-1,0.8-2.2,1.6-3.4,2.3c-1.3,0.7-2.7,0.8-4.1,0.5c-1.8-0.6-2.9-2.5-3-4.4c-0.1-0.6-0.1-1.2,0-1.9c0.2-1.3,0.4-2.5,0.8-3.7
			c1-3.4,2-6.9,3-10.3c0.6-1.9,1-3.8,1.2-5.8c0.1-2.1-1.3-4.9-0.7-6.9c0.3-0.9,1.3-1.7,1.7-2.5c0.7-1.1,1.1-2.3,1.4-3.5
			c0.7-2.4,1.2-4.9,2.6-6.9c0.9-1.2,2-2.2,3.3-3.1c0.9-0.8,1.9-1.4,3.1-1.8c1.1-0.2,2.3-0.2,3.4,0.2c1.4,0.3,2.9,0.7,4.2,1.2h0.1
			c1.7,0.6,3.5,1.5,4.1,3.2C722.3,548.8,722.3,549.8,721.9,550.8z"/>
		<path class="st3" d="M812,446.8c-0.1,1.3-0.2,2.8-1.3,3.6c-0.8,0.6-1.9,0.8-3,0.7h-0.2c-3,0-6.1-0.2-9,0.8c-2.2,0.8-4.1,2-6.4,2.3
			c-3.1,0.3-6.1-1.4-8.8-2.9c-2.6-1.4-5.2-2.7-8-3.8c-1.8-0.8-5.5-1.2-6.3-3.2c-0.3-0.9-0.5-1.9-0.8-2.8c-0.2-0.4-0.3-0.8-0.5-1.3
			c-0.5-0.8-0.8-1.8-0.9-2.8c0-1,0.3-1.9,0.9-2.7c1.4-1.7,3.4-2.7,5.5-2.9c2.1-0.2,4.3-0.1,6.3,0.3l20.8,3c1.6,0.3,3.2,0.4,4.8,0.8
			c1.5,0.3,3,0.8,4.1,1.8C812,439.9,812.2,443.6,812,446.8z"/>
		<path class="st12" d="M793.7,452.2c-2.5,5.3-0.7,11.7-1.2,17.6c-0.4,3.3-1.1,6.6-2.3,9.7c-1,3.1-1.9,6.3-3.2,9.4
			c-1,2.5-2.3,5.1-3.3,7.7c-1.5,4.1-2.5,8.8-5.7,11.8c-1.4,6.9-3.3,14.5-9,18.7c-4.9,3.6-11.8,3.8-17.6,1.6
			c-5.8-2.2-10.5-6.4-14.6-11c-4.1-4.6-7.9-9.6-12.3-13.8c-2.5-2.4-5.2-4.6-8.1-6.6c-2.9-2.1-5.8-4.1-8.9-5.8
			c-1.9-1.3-3.9-2.2-6.1-2.6c-1.8-0.3-3.6,0-5.2,1c-0.3,0.3-0.7,0.5-0.9,0.8c-0.8,1-1.4,2.2-1.7,3.5c-3.6,9.2-13.1,14-20.7,20.3
			l-6.9,5.8c-0.9,0.8-2,1.9-1.5,3c0.3,0.6,0.8,1,1.4,1.3c4.1,2,8.8,2.8,12.1,5.8c1.2,1.1,2.4,2.6,4.1,2.7c0.8-0.1,1.7-0.3,2.5-0.6
			c2.6-0.7,5.3-0.2,7.4,1.5c0.6,0.6,1.3,1,2,1.4c0.6,0.2,1.3,0.2,1.9,0.1c1.8-0.2,3.7-0.3,5.3,0.5s3,2.7,4.8,2.8
			c0.9,0.1,2-0.3,2.9-0.2c0.5,0,0.9,0.3,1.2,0.7c0.2,0.4,0.3,0.9,0.4,1.4c0.3,1.2,1.5,1.9,2.3,2.9c1.2,1.5,1.4,3.6,1.2,5.5
			c-0.4,5.9-3,11.5-7.4,15.6c-1.3,1.3-2.8,2.1-4.6,2.5c-1.8,0.3-3.6-0.4-4.5-2c-0.2-0.7-0.5-1.3-0.8-1.9c-1.4-1.5-4.4,0.1-5.7-1.5
			c-0.8-1-0.3-2.6-0.9-3.6s-2.5-0.8-3.9-0.9c-1.6-0.1-3.1-0.8-4.7-1.3c-2.5-0.7-5.2-0.4-7.8-0.6c-2.2-0.2-4.3-0.5-6.4-1l-10.7-2.2
			c-6.9-1.4-13.7-2.8-20.2-5.3c-2.5-0.9-5-2.1-6.8-4.1c-1.4-1.8-2.4-3.9-2.6-6.2c-1.5-9.1,6.6-16.8,7.6-25.8c0.3-3.3,1.7-6.4,3-9.6
			c2.3-5.5,4.6-11,6.9-16.5c0.3-1,0.8-2,1.4-3c1-1.2,2-2.3,3.3-3.2c3.2-2.9,5.5-6.7,6.6-10.8c0.1-0.5,0.3-0.9,0.6-1.3
			c0.3-0.3,0.6-0.4,1-0.7c1.3-0.8,1.8-2.4,1.3-3.8c1.1-0.1,1.9-0.9,2-2c-0.1-0.4,0-0.9,0.1-1.4c0.2-0.4,0.7-0.7,1-1
			c0.5-0.7,0.3-1.5,0.3-2.3c-0.1-0.5-0.1-1,0-1.5c0.2-1.8,1-3.5,2.3-4.7c2-2,4.9-1.4,7.7-1.9c2.8-0.6,5.5-1.4,8.1-2.6
			c7.4-2.9,15.1-4.7,22.9-5.3c7.9-0.6,15.8,0.7,23.2,3.7c1.1,0.4,2,1,3,1.7c0.7,0.5,1.2,1.1,1.5,1.9c0.3,0.9,0.7,1.8,1.2,2.6
			c0.9,1.3,2.6,1.6,3.6,2.8c1,1.2,1.1,3.1,1.9,4.6c1.2,2,3.9,3,4.7,5.2c0.3,0.7,0.3,1.5,0.5,2.2c0.4,1.9,1.9,3.3,3,4.7
			c4.4,5.3,7.3,11.8,8.2,18.6c0.3-4.3,3.1-8.1,6.8-10.5c1-0.7,2.1-1.4,2.3-2.5c0.3-1.4-1.2-2.7-1.1-4.2c0.1-0.8,0.4-1.4,0.8-1.9
			c1.6-2.4,3.4-4.6,5.3-6.7c1-1.2,2.2-2.5,1.8-4.1c-0.3-1.1-1.5-1.8-2.1-2.8c-0.8-1.2-0.8-2.7,0.1-3.9c0.6-0.8,1.5-1.4,1.9-2.4
			c0.3-1.1-0.4-2.4-0.2-3.5c0.3-0.9,0.9-1.7,1.8-2.3c1.1-1,2.4-1.9,3.8-2.5c2.2-0.8,4.7-0.5,7.1-0.2c4,0.5,8.4,1.4,10.7,4.7
			C794,446.8,794.8,450,793.7,452.2z"/>
		<path class="st0" d="M812,446.8c-0.1,1.3-0.2,2.8-1.3,3.6c-0.8,0.6-1.9,0.8-3,0.7h-0.2c0.3-1.8,2.5-2.8,2.9-4.6
			c0.2-1.1-0.2-2.2-0.9-3c-1.8-2.5-4.7-3.8-7.6-4.8c-8.2-2.8-16.9-3.5-25.5-1.9c-2.3,0.3-4.6,1.1-6.7,2c-0.7,0.4-1.4,0.9-2,1.4
			c-0.5-0.8-0.8-1.8-0.9-2.8c0-1,0.3-1.9,0.9-2.7c1.4-1.7,3.4-2.7,5.5-2.9c2.1-0.2,4.3-0.1,6.3,0.3l20.8,3c1.6,0.3,3.2,0.4,4.8,0.8
			c1.5,0.3,3,0.8,4.1,1.8C812,439.9,812.2,443.6,812,446.8z"/>
		<path class="st0" d="M721.9,550.8c-1.3,4.9-5.1,8.7-7.1,13.4c-3,6.9-1.6,15.5-5.8,21.8c-1.4,1.9-3,3.6-4.9,5.1
			c-1,0.8-2.2,1.6-3.4,2.3c-1.3,0.7-2.7,0.8-4.1,0.5c-1.8-0.6-2.9-2.5-3-4.4c-0.1-0.6-0.1-1.2,0-1.9l0.1,0.2c0.8,1.8,1.9,3.6,3.8,4
			c1.4,0.1,2.9-0.4,3.9-1.4c2.8-2.3,4.4-5.6,5.9-8.8c1.2-2.3,2.2-4.7,2.9-7.3c0.3-1.4,0.5-2.9,0.8-4.3c1.6-7,7.1-12.7,8.3-19.8
			c0.1-0.5,0.1-1,0.1-1.5c-0.2-0.7-0.4-1.3-0.8-1.9c-0.3-0.7-0.5-1.4-0.7-2c1.7,0.6,3.5,1.5,4.1,3.2
			C722.4,548.9,722.3,549.8,721.9,550.8z"/>
		<path class="st0" d="M709.2,538.7c-0.8,2-2.1,3.8-3.8,5.2c-2.4,1.9-5.2,3-8.2,3.6c-1.4,0.3-2.9,0.3-4.2-0.1
			c-1.9-0.7-3.2-2.4-5.2-3c-1.4-0.3-2.9,0-4.2-0.3c-2.5-0.3-4.4-2.3-6.4-3.8c-6.2-4.7-14.3-6.1-20.5-10.7c-0.3-0.2-0.5-0.4-0.7-0.7
			c-0.1-0.3-0.2-0.6-0.2-0.9c0-2.8,0.7-5.6,1.9-8.1c1-1.8,2.1-3.5,3.5-5c5.5-6.8,11.1-13.6,17.7-19.3c2.8-2.4,5.8-4.7,9.3-5.8
			c1.9-0.6,5.8-1.2,8.1-0.2c-0.3,0.3-0.7,0.5-0.9,0.8c-0.8,1-1.4,2.2-1.7,3.5c-3.6,9.2-13.1,14-20.7,20.3l-6.9,5.8
			c-0.9,0.8-2,1.9-1.5,3c0.3,0.6,0.8,1,1.4,1.3c4.1,2,8.8,2.8,12.1,5.8c1.2,1.1,2.4,2.6,4.1,2.7c0.8-0.1,1.7-0.3,2.5-0.6
			c2.6-0.7,5.3-0.2,7.4,1.5c0.6,0.6,1.3,1,2,1.4c0.6,0.2,1.3,0.2,1.9,0.1c1.8-0.2,3.7-0.3,5.3,0.5s3,2.7,4.8,2.8
			C707.2,538.8,708.3,538.6,709.2,538.7z"/>
		<path class="st3" d="M631.4,423.9c-1.6,1-3.3,2.2-4,4c-0.5,1.4-0.3,3.1-0.9,4.6c-0.7,1.4-2.1,2.5-2.5,3.9c-0.3,1.1,0.3,2.3,0,3.4
			c-0.2,0.6-0.3,1.2-0.4,1.8c-0.1,1.3,1,2.3,2,3c4.6,3,10.2,3.6,15.4,1.7c2.3-0.8,4.3-2.2,6.4-3.3c2.1-1.2,4.6-1.8,6.9-1.7
			c1.4,0.2,2.7,0.7,4.1,0.8c1.4,0.3,2.9-0.2,3.9-1.2c0.4-0.6,0.8-1.3,0.8-2c1.2-4.7,0.7-9.6-0.5-14.2c-1.2-4.7-2.8-9.1-4-13.8
			c-0.8-3.5-1.5-6.9-2.9-10.2c-1.4-3.3-3.8-6.3-7.1-7.5c-0.3-0.2-0.6-0.2-0.8-0.1c-0.3,0.1-0.4,0.3-0.6,0.4
			c-2.6,2.8-4.7,6.1-5.8,9.7c-1.4,4.1-1.7,8.4-2.9,12.4c-0.5,1.7-1.2,4-2.5,5.2C634.8,422,632.9,422.8,631.4,423.9z"/>
		<path class="st0" d="M663.3,438.8c-0.2,0.8-0.4,1.4-0.8,2c-1,1-2.5,1.4-3.9,1.2c-1.4-0.2-2.7-0.7-4.1-0.8
			c-2.5-0.1-4.8,0.5-6.9,1.7c-2.2,1.1-4.2,2.5-6.5,3.3c-3.3,1.3-6.9,1.4-10.2,0.6c-1.8-0.4-3.6-1.2-5.1-2.2c-1.1-0.7-2.1-1.7-2-3
			c0.1-0.6,0.3-1.2,0.4-1.8c0.3-1.1-0.3-2.3,0-3.4c0.3-1.5,1.8-2.5,2.5-4c0.7-1.4,0.4-3,0.9-4.6c0.7-1.8,2.4-3,4-4
			c1.6-1,3.6-1.9,4.8-3.1c0.2-0.2,0.3-0.4,0.4-0.6c0.9-1.4,1.6-3,2-4.7c1.3-4.1,1.6-8.4,2.9-12.4c1.2-3.6,3.2-6.9,5.8-9.7
			c0.2-0.2,0.3-0.3,0.5-0.4c0.3-0.1,0.6,0,0.8,0.1c3.3,1.3,5.7,4.3,7.1,7.5c1.4,3.2,2,6.8,2.9,10.2c1.2,4.7,2.9,9.1,4,13.8
			C663.8,429.3,664.5,434.2,663.3,438.8z"/>
		<path class="st0" d="M688.4,335.6c-8.2,2.6-17.1-1.4-20.6-9.3c0.1-0.8,0.2-1.6,0.3-2.4c0.8-3.9,4.5-2.5,7.4-1.4
			c3.5,1.1,6.8,2.5,10,4.3c0.9,0.5,1.8,1.2,2.5,2.1C689.1,330.8,688.7,333.2,688.4,335.6z"/>
		<circle class="st11" cx="683.4" cy="318.6" r="16.9"/>
		<path class="st0" d="M729.3,445.1c0,1.4-1.9,1.9-3.3,1.8c-5.1-0.3-10.1-1.7-15.1-1.3c-6.3,0.6-12.2,4.1-18.5,4.4
			c-2.5,0.1-4.9-0.3-7.4,0.2c-3.1,0.6-5.9,2.5-9.1,2.8c-2.8,0.3-5.5-0.8-8.3-0.7c-1.9,0.1-3.8,0.7-5.5,1.6c0.2-1.8,1-3.5,2.3-4.7
			c2-2,4.9-1.4,7.7-1.9c2.8-0.6,5.5-1.4,8.1-2.6c7.4-2.9,15.1-4.7,22.9-5.3c7.9-0.6,15.8,0.6,23.2,3.6c1.1,0.4,2,1,3,1.7
			C729.2,444.8,729.3,444.9,729.3,445.1z"/>
		<path class="st13" d="M675.5,349.6l-6.9-2.5l-2.9-1.1c-1.2-0.5-2.5-0.8-3.7-1c-3.3-0.3-6.4,1.9-8.2,4.7s-2.5,6.2-3,9.5
			c-0.8,4.5-1.4,9-1.9,13.5c-0.6,4.1-0.8,8.2-0.8,12.3c0.2,10.5,2.4,20.8,4.8,31c1.2,4.5,2.1,9.1,2.7,13.7c0.2,1.9,0.3,3.8,0.5,5.8
			c0.3,2.1,0.6,4.3,0.9,6.4l2,12.2c2.5-1.8,5.4-3.4,8.5-3.5c2.8-0.1,5.5,0.9,8.3,0.7c3.2-0.3,6-2.2,9.1-2.7c2.5-0.4,4.9-0.1,7.4-0.2
			c6.3-0.3,12.2-3.8,18.5-4.4c5.1-0.4,10.1,0.9,15.1,1.3c1.4,0.1,3.3-0.3,3.3-1.8c0-1-1-1.6-1.9-2.1c-4.1-2.5-7.9-5.2-11.4-8.2
			c-3.3-2.6-6.7-5.3-9.1-8.9c-5.5-8.5-3.6-20.2-8.4-29.3c-3.8-7.4,0-17,0-25.3c0-4.1,0-8.3-1-12.4c-0.6-2.3-1.4-4.5-2.3-6.6
			l-3.3-8.4c-0.1-0.3-0.2-0.4-0.4-0.7c-0.3-0.2-0.5-0.3-0.8-0.3c-1.9-0.1-3.9,0.5-5.5,1.8c-1.5,1.3-2.5,3-4.1,4.4
			C679.7,349.1,677.6,350.3,675.5,349.6z"/>
		<path class="st3" d="M686.6,344.7c0.5-2.3,1.1-4.7,2.7-6.5s4.4-2.8,6.3-1.4c2.3,1.4,2.4,4.9,4.3,6.8c1.7,1.6,4.2,1.8,6.5,1.9
			c4.1,0.3,8.2,1.4,12.1,2.9c0.8,0.3,1.4,0.7,2,1.2c1,1.2,0.8,3,1.4,4.6c0.7,1.9,2.7,3.1,3.5,5.1c0.8,2.1,0,4.5-0.7,6.7
			c-1.3,3.9-2.1,8-3.3,11.9c-1.2,3.9-3,7.9-5.9,10.8c-1.3,1.4-3.2,2.5-4.9,1.8l-0.7,4.7c-0.2,1-0.2,2,0,3c0.2,1,0.9,1.9,1.9,2.1
			c0.2,0.8,0.9,1.1,1.5,1.4c1.9,1.4,2.5,4,1.1,5.8c0,0,0,0,0,0.1c-0.5,0.8-1.4,1.3-1.6,2.1c-0.4,1.3,0.5,2.5,1.6,3.2
			c1.1,0.7,2.4,1,3.6,1.6c2.3,1.4,3.6,4,4.4,6.5c0.6,1.9,1.1,4.1,2.5,5.4c0.6,0.5,1.3,0.9,1.8,1.5c0.9,1.1,1.4,2.5,1.5,3.9
			c0.3,1.8-0.2,3.6-1.1,5.1c-1.7,2.5-4.8,3.1-7.6,4.2c-4.5,1.9-8.2,5.2-12.2,8c-1.6,1.3-3.6,2.2-5.5,2.6c-2.7,0.3-5.4-0.8-8.2-0.9
			c-1.7,0-3.3,0.3-4.9,0.7l-5.1,1.1c0.3-3.9-1.9-7.9-3.1-11.6c-2.3-7-2.7-14.6-2.2-22c0.5-7.4,2-14.7,3.6-21.9
			c1-5.1,0.9-10.4,2.5-15.3c1.5-4.7,3.6-9.3,4.4-14.2C690.1,359.4,684.8,352.6,686.6,344.7z"/>
		<path class="st3" d="M725.1,360.4c0.5,0.8,0.8,1.8,1,2.7c0.4,1.5,1.1,2.9,2.1,4.1c0.8,0.8,1.6,1.6,2.3,2.5
			c0.8,1.4,0.5,3.3,0.8,4.9c0.4,1.8,1.7,3.3,1.9,5.1c0,0.5,0.1,1,0.2,1.5c0.6,2,3.6,2.5,4.2,4.6c0.4,1.4-0.3,2.8-0.2,4.1
			c0.1,0.4,0.2,0.8,0.1,1.4c-0.2,0.5-0.5,0.9-0.9,1.3c-2.8,2.7-4.7,6.1-5.6,9.9c-0.8,3.7-1.3,7.6-1.3,11.4l-3.3-4.4
			c-0.3-0.5-0.8-1-1.4-1.4c-0.4-0.3-0.9-0.4-1.4-0.7c-1.3-0.7-1.8-2.2-2.2-3.6c-1.4-3.7-3.4-7.2-5.9-10.2c-1.4-1.6-2.9-3.2-3.2-5.2
			c-0.1-0.9,0-1.9,0.2-2.8c0.8-5.5,1.8-11.3,4.5-16.2c1.3-2.3,2.9-4.4,4.1-6.7C721.8,361.2,722.9,357.2,725.1,360.4z"/>
		<path class="st3" d="M641.6,365.7c0,0.7-0.2,1.4-0.5,2c-0.7,0.8-1.7,1.1-2.7,0.8c-0.9-0.3-1.9-0.7-2.7-1.3c-2.4-1.5-4.7-3-7.1-4.5
			c-1.4-0.8-2.6-1.7-3.8-2.6c-1.9-1.6-3.6-3.3-5-5.2c-4.1-5.1-7.8-10.6-12.4-15.2c-1.3-1.3-2.5-2.5-3.7-3.8c-1.6-1.9-3.1-4-4.5-6.1
			c-1.4-1.9-2.7-4.1-2.5-6.4c0.2-1.4,0.8-2.5,0.9-3.8c0.2-1.3-0.3-2.9-1.6-3.3c-0.2,0-0.3-0.1-0.4-0.1c-0.3,0-0.5-0.1-0.8-0.2
			c-1.2-0.5-1-2.3-0.2-3.3c0.8-1,2.1-1.5,2.9-2.5c0.3-0.6,0.8-1.2,1.2-1.8c0.6-0.5,1.3-0.8,1.9-1c4.9-1.4,10.1-1.6,15.1-0.6
			c0.8,0.2,1.8,0.5,2,1.4c0.1,0.4,0.1,0.8,0,1.2c-0.3,1.7-0.6,3.4-0.7,5.1c0,0.3,0,0.7,0.1,1.1c0.4,3.6,2.7,6.6,5,9.4
			c2.7,3.3,5.4,6.7,8.2,10c1.5,1.9,3.1,3.7,4.9,5.2c1.7,1.4,3.9,2.5,5.2,4.3c1.1,1.4,0.8,3.5,0.8,5.2
			C641.9,355.1,641.9,360.4,641.6,365.7z"/>
		<path class="st11" d="M749,401c0.8-0.8,1.6-1.7,2.3-2.6c0.7-1.2,1.3-2.5,1.7-3.8l4.9-14c0.8-2.2,1.5-4.4,2.5-6.5
			c1-2.3,2.2-4.6,3.3-6.8c2.9-5.8,5.1-12,6.6-18.4c0.3-0.8,0.3-1.8,0.3-2.7c-0.3-1.4-1.4-2.6-2.4-3.6c-1.1-1.2-2.3-2.1-3.6-3
			c-1.4-0.8-3-1.1-4.5-0.8c-2.2,0.7-3.6,2.9-4.1,5.1s-0.3,4.5-0.5,6.8c-0.3,3.2-1.4,6.3-1.7,9.6c-0.2,1.9,0,3.8-0.3,5.7
			c-0.4,2.5-1.3,4.8-2.5,7c-2.7,5.2-6.4,9.7-10.9,13.5c-1.2,0.9-2.4,1.9-3.3,3.1c-0.8,1.2-1.4,2.5-1.6,4c-0.6,2.1-0.3,4.4,0.7,6.4
			c1.4,2.4,4.1,3.4,6.6,3.9C745.9,404.6,746.7,403.5,749,401z"/>
		<path class="st3" d="M683.4,294.1c1.5-2.8,4.5-4.4,7.7-4.1c3.2,0.6,5.8,2.9,6.7,6c0.4,1.3,0.6,2.6,1.3,3.7c1,1.6,3,2.1,4.5,3.3
			c1.8,1.6,2.8,3.9,2.9,6.3c0.1,2.5-0.3,4.8-1.1,7.1c-0.3,0.9-0.6,1.9-0.8,3c-0.2,1-0.2,1.9-0.3,3c-0.3,2.5-1.8,4.9-3.9,6.4
			c-0.3,0.3-0.7,0.3-1,0.4c-0.7-0.1-1.1-0.8-1.3-1.5c-1.4-3.9-1-8.6-3.5-11.8c-1.1-1.3-2.5-2.3-4-3c-0.6-0.4-1.4-0.7-2-0.8
			c-1.1,0.1-2.1,0.4-3,1.1c-1.8,1.2-3.8,2.1-5.8,2.6c-2.1,0.5-4.3,0-6.1-1.3c-1.2-0.9-2-2.5-3.3-3.1s-2.6-0.7-3.9-1.3
			c-3-1.3-4.3-4.7-3-7.6c0.2-0.4,0.4-0.8,0.8-1.3c0.8-1,2.1-1.6,2.9-2.7c1-1.4,0.8-3.5,1.4-5.2c0.6-2.2,2.2-4.1,4.3-4.9
			c2.1-0.7,4.4-0.3,6,1.3c0.8,0.8,1.5,1.8,2.4,2.5c1.7,1.6,4.1,2.2,6.3,1.7"/>
		<path class="st0" d="M697.3,418.7c-1,0.9-1.4,2.3-0.9,3.6c0.2,0.4,8.9-1.3,9.8-1.4c2.3-0.3,6.3-0.2,7.9-2.3
			c2.8-3.7-5.8-2.9-7.4-2.8C703.8,416.1,699.6,416.4,697.3,418.7z"/>
		<path class="st3" d="M618,309.5c-0.3,1.7-0.6,3.4-0.7,5.1c-2.5,0.5-5.2-0.3-7.6-1.2l-7-2.4c-0.8-0.6-2-0.3-2.7,0.5
			c-1.1,1.2-2.7,3.4-4.2,4.7c-0.3,0-0.5-0.1-0.8-0.2c-1.2-0.5-1-2.3-0.2-3.3c0.8-1,2.1-1.5,2.9-2.5c0.3-0.6,0.8-1.2,1.2-1.8
			c0.6-0.5,1.3-0.8,1.9-1c4.9-1.4,10.1-1.6,15.1-0.6c0.8,0.2,1.8,0.5,2,1.4C618,308.7,618,309.1,618,309.5z"/>
		<path class="st0" d="M618,309.5c-0.3,1.7-0.6,3.4-0.7,5.1c-2.5,0.5-5.2-0.3-7.6-1.2l-7-2.4c-0.8-0.6-2-0.3-2.7,0.5
			c-1.1,1.2-2.7,3.4-4.2,4.7c-0.3,0-0.5-0.1-0.8-0.2c-1.2-0.5-1-2.3-0.2-3.3c0.8-1,2.1-1.5,2.9-2.5c0.3-0.6,0.8-1.2,1.2-1.8
			c0.6-0.5,1.3-0.8,1.9-1c4.9-1.4,10.1-1.6,15.1-0.6c0.8,0.2,1.8,0.5,2,1.4C618,308.7,618,309.1,618,309.5z"/>
		<path class="st0" d="M681.9,470.1c1.2,0.4,2.5,1,3,2.2l-9.8-2.5l-5.1-1.3c-0.9-0.3-4.1-0.5-4.7-1.2c-0.8-1,2.1-0.3,2.7-0.3
			c1.6,0.3,3.3,0.5,4.9,0.8C676,468.4,679,469.4,681.9,470.1z"/>
		<path class="st0" d="M685.7,478.9c-0.8-0.6-3.3-0.5-4.3-0.8c-1.5-0.3-3-0.8-4.5-1.3c-3-1-6.1-2.1-9.1-2.9
			c-0.6-0.1-2.5-0.2-2.5-0.8c0.1-0.7,1.9-1,2.5-1c2.8-0.2,6.2,1.1,8.8,2C679.8,475.2,682.9,476.8,685.7,478.9z"/>
		<path class="st0" d="M679.6,462.4c-3.1-0.8-5.9-2.8-9.1-3.1c-0.8,0-1.7-0.3-2.4-0.7c-0.3-0.3-0.7-0.8-0.8-1.4
			c2.1-0.1,4.7,0.8,6.6,1.7c1.1,0.4,2.1,1,3,1.6C677.7,460.9,678.8,462.2,679.6,462.4z"/>
		<path class="st3" d="M738.7,386.6c-1.1,7.3,3.3,14.2,10.4,16.3c-0.4,2-2.5,3.1-4,4.6c-2,2-3.1,5-5.6,6.5c-2.7,1.7-6.2,1-9.3,0.3
			c-0.3,0-0.5-0.2-0.8-0.4c-0.1-0.1-0.1-0.3-0.2-0.3c-1-3.7-1.7-7.8-0.7-11.5c0.8-3.2,2.9-5.9,4.5-8.7
			C734.7,390.6,735.1,387.6,738.7,386.6z"/>
		<path class="st3" d="M663.1,338.1c-3.3,0.3-6.4,1.2-9.3,2.9c-1.9,1.1-3.8,2.5-6,2.3c-1.3-0.2-2.5-0.8-3.8-0.5
			c-0.7,0.3-1.4,0.7-1.9,1.2c-0.6,0.5-1.4,0.6-2.1,0.3L639,356c-0.3,4.5-0.7,9,0.4,13.4c0.6,2.2,1.8,4.2,1.9,6.5
			c0.1,2.3-0.1,4.6,0.1,6.9c0.2,2.1,0.6,4.1,0.8,6.3c0.3,4-0.8,8-1.7,11.8c-1.4,5.7-2.3,11.5-5.1,16.7c-0.8,1.4-1.7,2.9-1.7,4.5
			c0,0.2,0,0.4,0.1,0.6c-0.8,0.4-1.6,0.9-2.4,1.4c-1.6,1-3.3,2.2-4,4c-0.5,1.4-0.3,3.1-0.9,4.6c-0.7,1.4-2.1,2.5-2.5,4
			c-0.3,1.1,0.2,2.3,0,3.4c-0.2,0.6-0.3,1.2-0.4,1.8c-0.1,1.3,1,2.3,2,3c1.5,1,3.3,1.8,5.1,2.2l5.1-20.1l0,0
			c4.6-8.5,8.5-17.4,11.4-26.7c0.8-3,1.9-5.9,3.3-8.8c0.9-1.6,1.8-3.3,2.5-5c0.8-2.1,0.8-4.4,1.2-6.7c0.4-2.6,1.1-5.2,1.9-7.7
			c0.9-2.7,1.9-5.4,2.1-8.3c0.3-4.1-1.2-8.4,0.3-12.2c0.7-1.4,1.5-2.7,2.5-3.9c2.2-2.7,4.1-5.5,6.3-8.1
			C666.6,338.1,664.7,338.1,663.1,338.1z"/>
		<g class="st9">
			<path d="M686.9,291.3l-1,0.1l-0.1,0.1C686.2,291.4,686.5,291.4,686.9,291.3z"/>
			<path d="M706.3,308.9c-0.2,1.7-0.5,3.3-1.1,4.9c-0.3,0.9-0.6,1.9-0.8,3c-0.2,1-0.2,1.9-0.3,3c-0.3,2.5-1.8,4.9-3.9,6.4
				c-0.3,0.3-0.7,0.3-1,0.4c-0.7-0.1-1.1-0.8-1.3-1.5c-1.4-3.9-1-8.6-3.5-11.8c-1.1-1.3-2.5-2.3-4-3c-0.6-0.4-1.4-0.7-2-0.8
				c-1.1,0.1-2.1,0.4-3,1.1c-1.8,1.2-3.8,2.1-5.8,2.6c-2.1,0.5-4.3,0-6.1-1.3c-1.2-0.9-2-2.5-3.3-3.1c-1.3-0.7-2.6-0.7-3.9-1.3
				c-1.6-0.7-2.8-2.1-3.3-3.8c0-0.1-0.1-0.3-0.1-0.3c-0.2,0.9-0.2,1.9,0.1,2.9c0.5,1.7,1.7,3,3.3,3.8c1.3,0.5,2.7,0.5,3.9,1.3
				c1.2,0.8,2.1,2.2,3.3,3.1c1.7,1.4,4,1.8,6.1,1.3c2.1-0.5,4.1-1.4,5.8-2.6c0.8-0.7,1.9-1,3-1.1c0.8,0.1,1.4,0.3,2,0.8
				c1.5,0.8,2.9,1.8,4,3c2.5,3.1,2.1,7.9,3.5,11.8c0.3,0.7,0.7,1.4,1.3,1.5c0.4,0,0.8-0.2,1.1-0.4c2.1-1.5,3.6-3.8,3.9-6.4
				c0.2-1,0.2-1.9,0.3-3c0.3-1,0.5-2,0.8-3c0.8-2.3,1.2-4.7,1.1-7.1C706.3,309.1,706.3,309,706.3,308.9z"/>
		</g>
	</g>
</g>
</svg>
