<?xml version="1.0" encoding="utf-8"?>
<!-- Generator: Adobe Illustrator 19.0.0, SVG Export Plug-In . SVG Version: 6.00 Build 0)  -->
<svg version="1.1" xmlns="http://www.w3.org/2000/svg" xmlns:xlink="http://www.w3.org/1999/xlink" x="0px" y="0px"
	 viewBox="0 0 1000 1000" style="enable-background:new 0 0 1000 1000;" xml:space="preserve">
<style type="text/css">
	.st0{opacity:0.1;fill:#6C63FF;enable-background:new    ;}
	.st1{fill:none;stroke:#535461;stroke-width:2;stroke-miterlimit:10;}
	.st2{fill:#6C63FF;}
	.st3{opacity:0.25;enable-background:new    ;}
	.st4{fill:#FFD2C6;}
	.st5{opacity:0.1;enable-background:new    ;}
	.st6{fill:url(#SVGID_1_);}
	.st7{fill:#985C7E;}
	.st8{opacity:0.1;}
	.st9{fill:#FF718D;}
	.st10{opacity:3.000000e-02;enable-background:new    ;}
	.st11{fill:#CEDDF9;}
	.st12{fill:#D38884;}
	.st13{fill:#4C4981;}
	.st14{fill:#36123A;}
	.st15{opacity:0.2;}
</style>
<g id="_x23_background">
	<g>
		<g>
			<g>
				<path class="st0" d="M954.5,324.5c-9.4-21.7-22-41.9-37.5-59.8l-520.4-5.1L825,199.4c-27.7-11-57.2-16.9-87-17.2
					c-84.2-67.2-202.5-71.3-291-9.8c-34.5-17.7-72.6-26.9-111.4-26.8c-115.6,0-212,80.1-233.6,186.3L954.5,324.5z"/>
				<path class="st0" d="M972.7,413.6c0-28.8-5.5-57.3-16.2-84.1L54.6,424.3C45.4,441,38.3,459,33.5,477.6l279.3,41.6L27.2,549.5
					c8.6,120.2,111.6,215.1,237.5,215.1c63.3,0,120.9-24.1,163.6-63.2c42.8,40,101,64.5,165,64.5c95,0,177.1-54.1,215.3-132.4
					c76.6-24.3,136.1-85.4,156.6-161.8L611.9,417h360.8C972.7,415.9,972.7,414.7,972.7,413.6z"/>
			</g>
		</g>
	</g>
</g>
<g id="_x23_accessory_x28_have_x5B_leaf_x2C_plant_x5D__x29_">
	<g>
		<g>
			<g>
				<path class="st1" d="M706.5,612.8c0,0,28.6-50.6,71.5-65.2c18.1-6,33.7-17.7,44.6-33.4c5.1-7.5,9.5-15.4,13.1-23.6"/>
				<path class="st2" d="M862.8,481.3c-4.9,4.8-27.7,9.6-27.7,9.6s5.6-22.7,10.5-27.4c5-4.7,12.8-4.4,17.5,0.5
					C867.7,469,867.6,476.6,862.8,481.3L862.8,481.3z"/>
				<path class="st2" d="M849.9,522.3c-6.7,1.3-28.5-7-28.5-7s17-16,23.7-17.3c6.7-1.5,13.3,2.8,14.7,9.5c1.5,6.7-2.8,13.3-9.5,14.7
					C850.2,522.3,850.1,522.3,849.9,522.3L849.9,522.3z"/>
				<path class="st2" d="M803,566.7c-6.4-2.3-21.1-20.4-21.1-20.4s22.8-5.2,29.2-3c6.4,2.3,9.7,9.5,7.4,15.8
					C816.1,565.4,809.2,568.8,803,566.7L803,566.7z"/>
				<path class="st2" d="M759.8,592.3c-6.8-1.1-24.2-16.5-24.2-16.5s21.5-8.9,28.3-7.8c6.8,0.8,11.6,7,10.8,13.7
					c-0.8,6.8-7,11.6-13.7,10.8C760.6,592.4,760.1,592.4,759.8,592.3z"/>
				<path class="st2" d="M802.4,497.7c0,6.9,12.3,26.7,12.3,26.7s12.3-19.8,12.3-26.6c0.2-6.9-5.2-12.5-12-12.7
					c-6.9-0.2-12.5,5.2-12.7,12C802.4,497.2,802.4,497.5,802.4,497.7L802.4,497.7z"/>
				<path class="st2" d="M752.3,528.3c2,6.5,19.7,21.7,19.7,21.7s5.9-22.6,3.8-29.1c-2.1-6.5-9-10.1-15.6-8
					C754,515,750.4,521.7,752.3,528.3z"/>
				<path class="st2" d="M707.8,564.6c0.9,6.8,15.8,24.8,15.8,24.8s9.6-21.3,8.7-28.1c-0.8-6.8-6.9-11.6-13.6-10.9
					c-6.8,0.8-11.6,6.9-10.9,13.6C707.7,564.2,707.8,564.4,707.8,564.6L707.8,564.6z"/>
				<path class="st3" d="M862.8,481.3c-4.9,4.8-27.7,9.6-27.7,9.6s5.6-22.7,10.5-27.4c5-4.7,12.8-4.4,17.5,0.5
					C867.7,469,867.6,476.6,862.8,481.3L862.8,481.3z"/>
				<path class="st3" d="M849.9,522.3c-6.7,1.3-28.5-7-28.5-7s17-16,23.7-17.3c6.7-1.5,13.3,2.8,14.7,9.5c1.5,6.7-2.8,13.3-9.5,14.7
					C850.2,522.3,850.1,522.3,849.9,522.3L849.9,522.3z"/>
				<path class="st3" d="M803,566.7c-6.4-2.3-21.1-20.4-21.1-20.4s22.8-5.2,29.2-3c6.4,2.3,9.7,9.5,7.4,15.8
					C816.1,565.4,809.2,568.8,803,566.7L803,566.7z"/>
				<path class="st3" d="M759.8,592.3c-6.8-1.1-24.2-16.5-24.2-16.5s21.5-8.9,28.3-7.8c6.8,0.8,11.6,7,10.8,13.7
					c-0.8,6.8-7,11.6-13.7,10.8C760.6,592.4,760.1,592.4,759.8,592.3z"/>
				<path class="st3" d="M802.4,497.7c0,6.9,12.3,26.7,12.3,26.7s12.3-19.8,12.3-26.6c0.2-6.9-5.2-12.5-12-12.7
					c-6.9-0.2-12.5,5.2-12.7,12C802.4,497.2,802.4,497.5,802.4,497.7L802.4,497.7z"/>
				<path class="st3" d="M752.3,528.3c2,6.5,19.7,21.7,19.7,21.7s5.9-22.6,3.8-29.1c-2.1-6.5-9-10.1-15.6-8
					C754,515,750.4,521.7,752.3,528.3z"/>
				<path class="st3" d="M707.8,564.6c0.9,6.8,15.8,24.8,15.8,24.8s9.6-21.3,8.7-28.1c-0.8-6.8-6.9-11.6-13.6-10.9
					c-6.8,0.8-11.6,6.9-10.9,13.6C707.7,564.2,707.8,564.4,707.8,564.6L707.8,564.6z"/>
				<path class="st1" d="M708.2,611.8c0,0,5.6-57.8,39-88.5c14.1-12.8,23.6-29.8,27.2-48.6c1.7-8.9,2.4-17.9,2.4-26.9"/>
				<path class="st2" d="M797.8,428.3c-2.5,6.3-21.5,20.1-21.5,20.1s-4.1-23-1.5-29.3c2.4-6.3,9.6-9.6,16-7.1
					c6.3,2.4,9.6,9.6,7.1,16C797.9,428,797.9,428.2,797.8,428.3L797.8,428.3z"/>
				<path class="st2" d="M802.6,471c-5.6,3.9-28.8,5.2-28.8,5.2s9.1-21.5,14.7-25.5c5.6-3.9,13.3-2.5,17.2,3.1
					C809.4,459.4,808.1,467.1,802.6,471L802.6,471z"/>
				<path class="st2" d="M777.6,530.6c-6.8,0.6-27.5-10.1-27.5-10.1s18.7-14,25.5-14.5c6.8-0.4,12.7,4.8,13,11.6
					C789,524.2,784.1,529.9,777.6,530.6z"/>
				<path class="st2" d="M748.6,571.4c-6.6,1.7-28.8-5.3-28.8-5.3s16.1-16.9,22.7-18.7c6.6-1.8,13.4,2,15.3,8.5
					c1.8,6.6-2,13.4-8.5,15.3C748.9,571.3,748.8,571.3,748.6,571.4z"/>
				<path class="st2" d="M749.1,467.7c2.8,6.3,22.1,19.4,22.1,19.4s3.3-23.1,0.5-29.4c-3-6.2-10.4-8.7-16.5-5.6
					C749.5,454.9,746.8,461.7,749.1,467.7L749.1,467.7z"/>
				<path class="st2" d="M715.8,515.9c4.5,5.1,26.8,11.8,26.8,11.8s-3.7-23-8.3-28.1s-12.3-5.6-17.5-1.1
					C711.8,503,711.2,510.8,715.8,515.9L715.8,515.9z"/>
				<path class="st2" d="M689.8,567.2c3.6,5.8,24.5,16.2,24.5,16.2s0.2-23.4-3.4-29.2c-3.5-5.9-11-7.8-16.9-4.3s-7.8,11-4.3,16.9
					C689.6,567,689.7,567.1,689.8,567.2z"/>
				<path class="st2" d="M155.6,230.4c0,0,76.3-4.6,67.3,48.8c0,0,1.7,9.5-6.8,13.7c0,0-0.2-4-7.8-2.6c-2.8,0.4-5.6,0.6-8.3,0.4
					c-3.7-0.3-7.3-1.7-10.2-4.2l0,0c0,0-21.5-8.9-29.8-43.9c0,0-6.2-7.6-5.9-9.6l12.9,5.5c0,0-4.4,9.3-1,17c0,0,0.4-16.7,2.9-16.2
					c0.5,0.1,6.7,3.2,6.7,3.2s-7.6,16.2-1.8,28c0,0-2.2-19.9,4.3-26.8l9,5.3c0,0-8.9,16.7-2.9,30.3c0,0-1.6-20.9,4.8-29l8.2,6.4
					c0,0-8.3,16.5-3.2,27.8c0,0,0.7-24.3,5-26.2c0,0,7.2,6.3,8.3,8.9c0,0-5.6,12-2.2,18.2c0,0,2.2-16.2,3.9-16.3
					c0,0,7.1,10.8,7.9,18.1c0,0-0.3-10.9-6.2-19.1c0,0,7,1.2,10.9,5.6c0,0-1.1-7.6-12.7-8.3c0,0-5.9-8.2-7.5-8.6
					c0,0,11.6-1,18.6,2.2c0,0-6.2-7.1-20.7-3.9l-8.1-6.6c0,0,15.2-2.1,21.6,0.2c0,0-7.4-6.3-23.8-1.7l-8.9-5.3
					c0,0,12.9-2.8,20.7-1.8c0,0-8.2-4.4-23.3,0.3l-6.3-2.9c0,0,9.5-1.8,12.2-2.2c2.8-0.3,3-1,3-1c-6-1-12.2-0.3-17.8,2
					C168.7,236.3,155.4,231.3,155.6,230.4z"/>
				<path class="st2" d="M138.1,353.7c0,0,40.9-2.4,36.1,26.2c0,0,1,5-3.6,7.4c0,0-0.1-2.2-4.2-1.4c-1.5,0.3-3,0.3-4.4,0.2
					c-2-0.2-3.9-1-5.5-2.3l0,0c0,0-11.5-4.8-16-23.5c0,0-3.3-4.1-3.2-5.1l6.9,3c0,0-2.3,5-0.5,9.1c0,0,0.3-8.9,1.6-8.7
					c0.3,0,3.6,1.7,3.6,1.7s-4.1,8.7-1,14.9c0,0-1.1-10.7,2.3-14.3l4.9,2.9c0,0-4.8,8.9-1.6,16.2c0,0-0.9-11.2,2.5-15.6l4.4,3.5
					c0,0-4.4,8.9-1.7,14.9c0,0,0.3-13,2.7-14.1c0,0,3.8,3.4,4.4,4.8c0,0-3,6.4-1.1,9.8c0,0,1.1-8.7,2.1-8.8c0,0,3.8,5.7,4.3,9.7
					c0,0-0.2-5.9-3.3-10.3c0,0,3.7,0.6,5.9,3c0,0-0.6-4.1-6.9-4.4c0,0-3.1-4.3-4-4.6c0,0,6.2-0.5,10,1.1c0,0-3.3-3.8-11.1-2.1
					l-4.3-3.6c0,0,8.2-1.1,11.6,0.1c0,0-4-3.4-12.8-1l-4.8-2.9c0,0,7-1.5,11.1-1c0,0-4.3-2.3-12.5,0.2l-3.4-1.6c0,0,5.1-1,6.6-1.1
					s1.6-0.6,1.6-0.6c-3.2-0.5-6.5-0.2-9.6,1C145.2,356.9,138,354.1,138.1,353.7z"/>
			</g>
		</g>
	</g>
</g>
<g id="_x23_group_x28_have_x5B_woman_x28_talk_x29__x2C_man_x28_listen_x29__x5D__x29_">
	<g>
		<g>
			<g>
				<path class="st4" d="M771.4,798.5c2-13.5-1.5-27.3-9.6-38.2c-9-12.1-15.6-37.2-19.1-52.6c-1.7-7.7-2.6-13-2.6-13l73.4-38.9v15.6
					c0,0,0.4,1.6,1,4.2c2.2,8.9,7,29.5,8,40.1c1.4,13.6,11.3,44.8,11.3,44.8l8.6,38.2L771.4,798.5z"/>
				<path class="st5" d="M814.4,675.4c-21.5,16.8-62.8,29.6-71.8,32.2c-1.7-7.7-2.6-13-2.6-13l73.4-39v15.6
					C813.4,671.3,813.8,672.9,814.4,675.4z"/>
				<path class="st5" d="M703.3,626.7c0,0-10.4,25.8-5.9,31.3s30.3,40.3,30.3,40.3l12.2,7.2L725.9,686l-7.8-19.9L703.3,626.7z"/>
				<g>
					
						<linearGradient id="SVGID_1_" gradientUnits="userSpaceOnUse" x1="575.6357" y1="686.4167" x2="575.6357" y2="105.572" gradientTransform="matrix(1 0 0 1 -55.79 112.11)">
						<stop  offset="0" style="stop-color:#808080;stop-opacity:0.25"/>
						<stop  offset="0.54" style="stop-color:#808080;stop-opacity:0.12"/>
						<stop  offset="1" style="stop-color:#808080;stop-opacity:0.1"/>
					</linearGradient>
					<path class="st6" d="M842.4,798.5l-8.6-38.7c0,0-10-31.7-11.3-45.4c-1-10.7-5.9-31.6-8-40.6l-0.7-3c5.7-4.5,10-9.4,11.9-14.3
						c0,0-1.8-29.4-24.9-45.4c0,0-5.5-32.1-10.9-43.2c-3.5-7.4-6.3-15-8.2-22.9c0,0-13.1-33.5-17.2-39.5s-25.4-20.7-37.2-22.1
						s-41.3-5-44.8-12.4c-3.6-7.4-63.9-10.1-63.9-10.1l0,0c-0.7-0.5-23.7-18.3-33.5-16.9c0,0-0.2,0.9-0.5,2.4
						c-6.2-5.1-12.4-16.2-14.7-39.5c-0.1-1-0.2-2.2-0.3-3.3l0.7-1c1.4,2.1,3.3,3.9,5.6,4.4c0.1,0,0.2,0,0.3,0h0.1
						c4.1,1,8.1-1.9,10.9-5c9.6-10.7,13.6-26.1,11.5-40.4c-0.5-3.4-1.3-6.8-0.9-10.2c0.7-5.1,4.1-9.4,6.2-14.1
						c5.8-12.9,1.6-28.2-4.7-41c-4.9-9.9-10.8-19.3-17.8-27.8c-3-3.7-6.3-7.4-8.9-11.6c-3.2-5.5-5-11.6-8.1-17.2
						c-8.5-15.6-27.5-24.7-44.7-21.4c-8.2,1.6-15.6,5.5-23.4,8.6c-10.9,4.3-22.8,7.9-34.7,6.7c-12.9-1.3-25.9-1.5-38.7-0.5
						c-3.7,0.3-8.3,1.5-10.1,4.4c0-0.1-0.1-0.2-0.1-0.3c-0.5,0.8-0.8,1.7-0.9,2.5c-0.2,2.3,1.2,4.3,1.9,6.5c0-0.1,0.1-0.3,0.1-0.4
						c0.2,0.3,0.3,0.8,0.4,1.1c1.9,7-4.6,13.2-10.3,17.7c-7.6,6.1-15.1,12.7-19.5,21.4c-2,3.9-3.2,8.2-3.6,12.6
						c-0.1-0.4-0.1-0.8-0.2-1.2c-0.6,5.8,0.4,11.7,3.6,16.5s8.8,8.3,10.6,14c0.2,0.4,0.3,0.9,0.3,1.3c0-0.2,0.1-0.4,0.1-0.7
						c1.5,5.4-0.8,11.2-2.5,16.6c-0.9,2.5-1.6,5.1-2.2,7.7c-4.1-3.7-8.5-7-13.3-9.8c-0.7-0.4-1.4-0.8-2.1-1.2
						c1.5-2.8,2.4-5.8,2.9-8.9c0.1-0.8,0.1-1.6,0.1-2.4c-0.2-11.8-11.6-21.5-23.2-24.4c-12.4-3.1-25.5-1.1-38.1-2.2
						c-10.3-0.8-20.5-3.6-30.8-3c-14.4,1.1-27.5,8.7-35.6,20.7c-8.3,12.2-10.4,27.8-18.3,40.2c-7,11.2-18.6,19.8-22.3,32.6
						c-2.3,7.8-1.4,16.2-0.4,24.3c4.6,36.5,11.1,73.1,9.5,109.8c-0.4,8.5-1.2,17.2-4.5,25s-9.3,14.9-17.4,17.5h0.1h0.1
						c4,1.7,8.4,2.2,12.7,1.4v-0.1c5.6-0.9,10.6-3.6,14.2-7.9c-1.5,8.2-4.3,16.1-8.3,23.4l0,0v0.1c5.2,1.7,10.3,0.2,15.6-1.7l-0.6,2
						c-10.9,38-12.2,91-12,119l0,0c0,0,0,0.3,0,0.7c0.1,11.3,0.4,18.2,0.4,18.2l0.5,0.1c1.6,24.4,5.3,64.5,12.8,72.3h163.1
						c0,0-6.6-27.2,3-42.4c1.3-2.2,2.3-4.5,3.1-7l0.6,4.2c0,0,2.2,0.2,5.3,0.4c-0.1,1.5-0.1,3-0.2,4.6c-0.8,16.9-2,40.1-2.9,40.1
						h338.8c0,0-3.6-22.7,0-37.4s-3.6-57-3.6-57l2-0.6c0.2,0.9,0.4,1.8,0.6,2.9c3.5,15.6,10.1,41.1,19.1,53.3
						c13.6,18.4,9.6,38.7,9.6,38.7L842.4,798.5z M472.7,439.4c4.3,16.2,9.3,37.3,11.8,56.9c0.2,1.3,0.3,2.6,0.5,3.9
						c-0.4-2.3-2.3-2.9-5.2-2.3c-0.2-1.6-0.4-3.5-0.9-5.5c-0.9-10.9-8-36.7-17.2-61.3c3.2,1.7,6.4,3,9.8,4.3L472.7,439.4z
						 M409.2,452.1c0.6-1.1,1.1-2.3,1.7-3.5c0.2,3.7,0.4,6.7,0.7,8.7c0.1,0.9,0.3,1.8,0.5,2.8c0.1,1.5,0.3,2.6,0.3,3.6
						c2,13.6,18.6,54,18.6,54l3,10l-31,20.3c0,0-11.3,8.2-17.8,15.3c-6.9-9.3-14.6-18.9-15-30.2c0.4-12.2,9.8-22.9,9.3-35.1l0,0
						c0-0.2,0-0.4,0-0.6c0-0.3,0-0.8,0-1.1c-0.2-3.5-1-6.9-2.6-10c0.7-0.4,1.4-0.9,2.1-1.2C391.9,476.9,402.3,465.6,409.2,452.1
						L409.2,452.1z"/>
					<path class="st4" d="M635,516.6L555.2,580c0,0-119.5-16.3-83.3-23.5c15.2-3,16.4-28,12.6-56c-2.6-19.4-7.6-40.1-11.8-56.1
						c-4.3-16.2-8.1-27.4-8.1-27.4s110.5-131.4,105.1-41.7c-0.9,12.2-0.8,24.6,0.3,36.8c2.3,23.5,8.8,34.4,15.1,39.3
						c7,5.5,13.6,3.6,13.6,3.6L635,516.6z"/>
					<path class="st5" d="M570,412.1c-21.6,31.2-61.3,44.3-97.3,32.2c-4.3-16.2-8.1-27.4-8.1-27.4s110.5-131.4,105.1-41.7
						C568.8,387.5,568.9,399.8,570,412.1z"/>
					<path class="st4" d="M585.1,360c0,47-38.1,85.1-85.1,85.1S414.8,407,414.8,360s38.1-85.1,85.1-85.1l0,0
						c46.8-0.2,85,37.7,85.1,84.6C585.1,359.6,585.1,359.8,585.1,360z"/>
					<path class="st5" d="M585.1,360c0.1,17.6-5.4,34.9-15.6,49.3c-0.2-0.2-0.3-0.4-0.3-0.6c-4.4-7.8-3.6-17.5-4.1-26.5
						c-0.4-7.7-1.9-15.3-4.3-22.6c-0.2-1-0.7-1.8-1.5-2.4c-1-0.7-2.4-0.4-3.6-0.3c-6.3,0.3-11.4-5.2-15-10.3
						c-9.4-13.3-16.9-28.1-27.5-40.4c-1.8-2.1-3.7-4.1-6.3-5.2c-6.1-2.8-13.3,0.6-18.5,5s-9.8,9.7-16.2,11.9
						c-8.2,2.7-17.5-0.7-25.5,2.7c-5.9,2.6-9.7,8.6-11.3,14.9s-1,12.9-0.3,19.3c1,11,2.4,22,4.2,32.9c0.9,5.6,1.6,12.1-2.5,15.9
						c-2.3,2.2-5.4,2.8-8.5,2.4c-25.2-39.7-13.5-92.4,26.2-117.5c39.7-25.2,92.4-13.5,117.5,26.2C580.5,328.1,585.1,343.9,585.1,360
						z"/>
					<path class="st7" d="M423.1,240.9c-4.6,0.3-10.5,2-10.9,6.6c-0.2,2.5,1.5,4.7,2.2,7.1c1.9,7-4.6,13-10.3,17.5
						c-7.6,6-15.1,12.5-19.5,21.1c-4.4,8.6-5.3,19.6,0.3,27.5c3.4,4.8,8.8,8.3,10.6,13.8s-0.5,11.4-2.4,16.9
						c-2.8,8.3-4.6,17.4-1.7,25.5c4.1,11.5,15.8,17.9,26.7,23.4c6.2,3.1,14.3,5.9,19.3,1.2c4.1-3.8,3.5-10.3,2.5-15.9
						c-1.7-10.9-3.1-21.9-4.2-32.9c-0.6-6.4-1.1-13,0.3-19.3c1.5-6.3,5.4-12.3,11.3-14.9c7.9-3.4,17.3,0,25.5-2.7
						c6.4-2.1,11-7.6,16.2-11.8c5.2-4.3,12.3-7.7,18.5-5c2.5,1.1,4.4,3.2,6.3,5.2c10.7,12.3,18.1,27,27.5,40.4
						c3.6,5.2,8.7,10.7,15,10.4c1.2-0.1,2.6-0.3,3.6,0.3c0.8,0.6,1.3,1.5,1.5,2.4c2.4,7.3,3.9,14.9,4.3,22.6
						c0.4,9-0.3,18.6,4.1,26.5c1.4,2.5,3.6,4.9,6.3,5.5c4.1,1,8.1-1.9,10.9-5c9.6-10.5,13.6-25.7,11.5-39.9c-0.5-3.3-1.3-6.7-0.9-10
						c0.7-5,4.1-9.3,6.2-13.9c5.8-12.8,1.6-27.9-4.7-40.4c-4.9-9.8-10.8-19-17.8-27.5c-3-3.7-6.3-7.3-8.9-11.4
						c-3.2-5.4-5-11.5-8.1-17c-8.5-15.5-27.5-24.3-44.7-21c-8.2,1.6-15.6,5.4-23.4,8.4c-10.9,4.3-22.8,7.8-34.7,6.6
						C449,240,436,239.9,423.1,240.9z"/>
					<g class="st8">
						<path d="M395.6,335.6c0.5-2.5,0.4-5.1-0.3-7.6c-1.8-5.6-7.3-9-10.6-13.8c-2-3-3.3-6.3-3.7-9.9c-0.6,5.7,0.4,11.6,3.6,16.2
							s8.8,8.3,10.6,13.8C395.4,334.8,395.5,335.2,395.6,335.6z"/>
						<path d="M414.1,248.2c-0.3-1.1-0.8-2.3-1.3-3.3c-0.5,0.8-0.8,1.7-0.9,2.5c-0.2,2.3,1.2,4.3,1.9,6.4
							C414.6,252.1,414.6,250.1,414.1,248.2z"/>
						<path d="M437.2,395.1c-5,4.7-13.1,1.8-19.3-1.2c-10.9-5.5-22.7-11.9-26.7-23.4c-0.7-2-1.1-4-1.3-6.1c-0.4,4.2,0,8.4,1.3,12.4
							c4.1,11.5,15.8,17.9,26.7,23.4c6.2,3.1,14.3,5.9,19.3,1.2c3.3-3,3.5-7.9,3-12.6C439.9,391.2,438.9,393.4,437.2,395.1z"/>
						<path d="M603.7,337.2c-2.1,4.7-5.5,8.9-6.2,13.9c-0.2,1.8-0.2,3.6,0.2,5.5c0.9-4.7,4-8.7,6-13c2.3-5.2,3.1-10.9,2.6-16.6
							C606,330.5,605.2,334,603.7,337.2z"/>
						<path d="M587,401c-2.9,3.1-6.9,6-10.9,5c-2.8-0.7-5-3-6.3-5.5c-4.4-7.8-3.6-17.5-4.1-26.5c-0.4-7.7-1.9-15.3-4.3-22.6
							c-0.3-1-0.8-1.8-1.5-2.4c-1-0.7-2.4-0.4-3.6-0.3c-6.3,0.3-11.4-5.2-15-10.4c-9.4-13.3-16.9-28.1-27.5-40.4
							c-1.8-2.1-3.7-4.1-6.3-5.2c-6.1-2.9-13.3,0.6-18.5,5s-9.7,9.7-16.2,11.8c-8.2,2.7-17.5-0.7-25.5,2.7
							c-5.9,2.6-9.8,8.6-11.3,14.9c-0.9,4.2-1.2,8.4-0.9,12.7c0.1-2.2,0.3-4.3,0.9-6.3c1.5-6.3,5.4-12.3,11.3-14.9
							c7.9-3.4,17.3,0,25.5-2.7c6.4-2.1,11-7.5,16.2-11.8s12.3-7.7,18.5-5c2.5,1.1,4.4,3.2,6.3,5.2c10.7,12.3,18.1,27,27.5,40.4
							c3.6,5.2,8.7,10.7,15,10.4c1.3-0.1,2.6-0.3,3.6,0.3c0.8,0.6,1.3,1.5,1.5,2.4c2.4,7.3,3.9,14.9,4.3,22.6
							c0.4,9-0.3,18.6,4.1,26.5c1.4,2.5,3.6,4.9,6.3,5.5c4.1,1,8.1-1.9,10.9-5c8.7-9.4,12.6-22.6,11.9-35.4
							C598.2,382.6,594.2,393.2,587,401z"/>
					</g>
					<path class="st4" d="M450.6,754.4v44h-45.8c0.9,0,2.1-22.8,2.9-39.5c0.4-9.6,0.8-17.2,0.8-17.2L450.6,754.4z"/>
					<path class="st5" d="M450.6,754.4v44h-1.2l-5.6-20.5c0,0-3.2-22.7-5.9-19.5c-2,2.3-20.9,1.2-30.2,0.4
						c0.4-9.6,0.8-17.2,0.8-17.2L450.6,754.4z"/>
					<path class="st5" d="M635,516.6L555.2,580c0,0-119.5-16.3-83.3-23.5c15.2-3,16.4-28,12.6-56c0.8,0.4,1.3,1.2,1.4,2.1l4.1,21.7
						l24.9,4.6l15.8,18.6l4.5-19.5c0,0,10.9-11.8,12.7-14.5c1.5-2.2,8.9-4,15.6-7.5c1.7-0.9,3.3-1.8,4.9-3
						c5.9-4.4,13.9-38.9,16.7-51.6c7,5.5,13.6,3.6,13.6,3.6L635,516.6z"/>
					<path class="st9" d="M740.1,705.5c0,0,7.2,41.7,3.6,56.2c-3.6,14.5,0,36.8,0,36.8H450.6l-6.8-25c0,0-3.2-22.7-5.9-19.5
						c-2.7,3.2-35.4,0-35.4,0l-12.7-84.3c0,0-7.7-88.8-9-95.1s22.2-23.1,22.2-23.1l32.1-20.9c0,0,47.4-38.9,49.8-26.2l4.1,21.7
						l24.9,4.5l15.8,18.6l4.6-19.5c0,0,10.9-11.7,12.7-14.5c1.5-2.2,8.9-4,15.6-7.5c1.7-0.9,3.3-1.8,4.9-3
						c7.2-5.4,17.6-56.1,17.6-56.1c9.8-1.3,32.8,16.2,33.5,16.8l0,0c0,0,60.2,2.7,63.9,10c3.6,7.2,33.1,10.9,44.9,12.2
						c11.8,1.3,33.1,15.8,37.2,21.7c4.1,5.9,17.2,38.9,17.2,38.9c1.9,7.8,4.7,15.4,8.2,22.7c5.4,10.9,10.9,42.6,10.9,42.6
						c23.1,15.8,24.9,44.8,24.9,44.8C815.8,684.2,740.1,705.5,740.1,705.5z"/>
					<polygon class="st5" points="586,660.2 581.5,672.9 588.7,743.1 640.9,762.1 688.9,726.8 688.9,662 664.4,648.5 					"/>
					<polygon class="st9" points="586,658.4 581.5,671.1 588.7,741.3 640.9,760.3 688.9,725 688.9,660.2 664.4,646.7 					"/>
					<polygon class="st10" points="586,658.4 581.5,671.1 588.7,741.3 640.9,760.3 688.9,725 688.9,660.2 664.4,646.7 					"/>
					<path class="st5" d="M578.3,620.3l3.2,52.6c0,0,19.5,13.6,45.8,11.7s61.6-22.7,61.6-22.7l-5.5-49.9L578.3,620.3z"/>
					<path class="st9" d="M578.3,618.5l3.2,52.6c0,0,19.5,13.6,45.8,11.8s61.6-22.7,61.6-22.7l-5.5-49.9L578.3,618.5z"/>
					<path class="st10" d="M578.3,618.5l3.2,52.6c0,0,19.5,13.6,45.8,11.8s61.6-22.7,61.6-22.7l-5.5-49.9L578.3,618.5z"/>
					<circle class="st11" cx="625" cy="666.1" r="5.2"/>
					<circle class="st11" cx="519.9" cy="580" r="5.2"/>
					<circle class="st11" cx="540.3" cy="660.9" r="5.2"/>
					<circle class="st11" cx="549.8" cy="751.5" r="5.2"/>
					<path class="st5" d="M619.6,467.3l-3,66.6c-32.5,4.1-53-24.2-53-24.2c1.7-0.9,3.3-1.8,4.9-3c7.2-5.5,17.6-56.2,17.6-56.2
						C595.9,449.1,618.8,466.7,619.6,467.3L619.6,467.3z"/>
					<path class="st9" d="M618.6,465.4l-3,66.6c-32.5,4.1-53-24.2-53-24.2c1.7-0.9,3.3-1.8,4.9-3c7.2-5.5,17.6-56.2,17.6-56.2
						C594.9,447.3,617.9,464.8,618.6,465.4L618.6,465.4z"/>
					<path class="st12" d="M418.1,419.7c0,45-36.5,81.5-81.5,81.4c-45,0-81.5-36.5-81.4-81.5c0-45,36.5-81.5,81.5-81.4
						c35.6,0,67.1,23.1,77.7,57.1C416.9,403.1,418.1,411.4,418.1,419.7z"/>
					<path class="st12" d="M401.8,633.5l-5.6,14.1l-23.5,58.7l-8.3,20.9l-68.2,14.7l-74.2-14.2l-2.5-0.4c0,0-4-83,11.6-136.1
						c5.4-18.4,13.1-33.2,24.2-39.7c42.9-25.4,29.6-102.8,29.6-102.8s34.1,2.3,64.5,6c2.3,7.3,7.8,13.9,13.4,19.5
						c6.3,6.4,13.1,13.5,15.9,21.7c-10.9,23-20.3,53-10.3,65.2c9,11.1,18.9,33.3,25.5,50.2c1,2.6,2,5,2.9,7.3
						C399.7,627.4,401.8,633.5,401.8,633.5z"/>
					<path class="st5" d="M396.2,647.5l-23.5,58.7l-8.3,20.9l-68.3,14.7l-74.2-14.2c-0.9-12.2-1.1-21-1.1-21h5.9
						c0,0,6.6-59.8,16.3-103.3c9.7-43.5,51.3-52,51.3-52l0.8,6.5c-34.8,2.3-41.4,38.9-47.3,46.7s-11.8,63.2-11.8,63.2l-3.3,41.4
						c-0.6,14.5,32.1,9.6,44.7,10.3s34.8-5.1,49.5-15.6c9.5-6.7,55.7-85.3,55.7-85.3L396.2,647.5z"/>
					<path class="st13" d="M292.5,553.2c0,0-41.7,8.4-51.3,52c-9.6,43.5-16.3,103.3-16.3,103.3h-5.9c0,0,2.9,78.8,13.7,90.2h163.1
						c0,0-6.6-26.8,3-41.8c9.6-14.9,12.7-70.6,12.7-70.6l-30.7-66c0,0-46.1,78.6-55.7,85.3c-14.8,10.4-36.8,16.2-49.5,15.6
						s-45.3,4.3-44.7-10.3l3.3-41.4c0,0,5.9-55.4,11.8-63.2c5.9-7.7,12.5-44.4,47.3-46.7L292.5,553.2z"/>
					<path class="st5" d="M418.1,419.7c0,12.9-3,25.7-8.9,37.2c-0.9-13.8-0.4-43.4,5.2-61.6C416.9,403.1,418.1,411.4,418.1,419.7z"
						/>
					<path class="st5" d="M311.3,680.1c11.1,5.5,57.8,29.7,57.8,29.7s71.2,44.1,112.3,46l42.1,4.5c0,0,34-9.9,27.2-36.7
						c0,0-14.8-35.5-9.6-46s-53-132.1-53-132.1s-13-28.1-8.6-38.1s-32.8-123.8-51-120.9c-18.2,2.9-18.2,68.4-16.2,81.8
						c2,13.4,18.5,53.3,18.5,53.3l27.4,87l4.5,58.6c0,0-75.1-44.7-89.7-62.7s-66.1-44-78.8-29C281.5,590.5,300.1,674.7,311.3,680.1z
						"/>
					<path class="st12" d="M281.2,666.1c0,0,18.1,2.3,29.2,7.7s57.8,29.6,57.8,29.6s71.2,44.1,112.3,46l42.1,4.5
						c0,0,34-10,27.2-36.7c0,0-14.8-35.5-9.6-46s-53-132.1-53-132.1s-13-28.1-8.6-38.1s-32.8-123.9-51-120.9
						c-18.2,3-18.2,68.3-16.2,81.7c2,13.4,18.6,53.3,18.6,53.3l27.4,87l4.5,58.6c0,0-75.2-44.7-89.7-62.7
						c-14.4-18.1-66.1-44-78.8-29S225,636.7,281.2,666.1z"/>
					<path class="st5" d="M490.5,692.4c0,0-29.6-28.1-28.6-31.4l31.7,30.1L490.5,692.4z"/>
					<path class="st5" d="M312,592l4.6,2.3c-0.3,0.3-0.5,0.6-0.8,0.9C314.5,594.1,313.3,593.1,312,592z"/>
					<path class="st5" d="M379,489.2c-38.5,23.5-88.6,11.2-112.1-27.2c-23.5-38.5-11.2-88.6,27.2-112.1
						c25.6-15.6,57.7-15.9,83.6-0.8c-5.6,9.7-15.5,17.5-13.8,30c0.6,4.7,2.9,8.9,4.2,13.5c2.3,8,1.5,16.5-2.3,23.9
						c-4.6,9.1-13.5,16.3-14.9,26.4c-1.7,11.1,6.4,21.1,14.2,29.2C370.2,477.4,375.7,483,379,489.2z"/>
					<path class="st5" d="M400.8,607.2c-1.7,2.5-4.3,3.6-7.3,4c-2.7,0.3-5.5-0.1-8.1-0.9l0,0l-0.9-0.3c-5.6-2-11-5.2-16.9-4.6
						c3.6,0.4,7.5,1,10.3,3.4s3.9,7.1,1.2,9.6s-6.6,1.5-9.9,0.3l-28.4-9.4c-9.6-3.2-19.6-6.5-27.8-12.5c-8,8.1-22.2,5.6-32.8,0.4
						c-2.5-1.2-5-2.6-7.6-3.9c-8.4-4.4-17-8.6-26.2-7.5c-5.4,0.7-10.6,3.2-15.7,5.1c5.4-18.4,13.1-33.2,24.2-39.7
						c42.9-25.4,29.6-102.8,29.6-102.8s34.1,2.3,64.5,6c2.3,7.3,7.8,13.9,13.4,19.5c6.3,6.4,13.1,13.5,15.9,21.7
						c0.7,2.1,1,4.3,1.2,6.4c0.5,12.1-8.9,22.7-9.3,34.8c-0.3,12.7,9.1,23.2,16.6,33.4c5,7,9.4,14.5,12.9,22.3
						C401.8,597.4,403.5,603.1,400.8,607.2z"/>
					<path class="st14" d="M378.5,339.2c1.4-12.7-10.7-23.4-23-26.4c-12.3-3-25.5-1.1-38.1-2.2c-10.3-0.8-20.5-3.6-30.8-2.9
						c-14.3,1-27.5,8.5-35.6,20.3c-8.3,12.1-10.4,27.4-18.3,39.7c-7,11-18.6,19.5-22.3,32.1c-2.3,7.7-1.4,16-0.4,24
						c4.6,36,11.1,72,9.5,108.2c-0.4,8.4-1.2,16.9-4.5,24.7c-3.3,7.7-9.3,14.7-17.4,17.3c9.4,3.7,20.2,1.2,26.9-6.4
						c-1.5,8.1-4.3,15.9-8.3,23c10.2,3.1,20.1-5.2,30.6-6.6c12-1.6,22.9,6,33.7,11.4s25.6,7.9,33.5-1.2l-4.6-2.3
						c8.8,8,20.3,11.9,31.6,15.6l28.4,9.4c3.3,1,7.4,2,9.9-0.3s1.6-7.2-1.2-9.6s-6.6-2.9-10.3-3.4c5.9-0.6,11.4,2.7,16.9,4.6
						s12.9,2.1,16.2-2.9c2.8-4.2,1-9.8-1-14.4c-3.6-7.9-7.9-15.4-12.9-22.3c-7.5-10.3-16.9-20.8-16.6-33.5
						c0.3-12.1,9.8-22.7,9.3-34.8c-0.4-11.2-9.2-20.1-17-28.1c-7.8-8.1-15.8-18.2-14.2-29.3c1.5-10.1,10.3-17.3,14.9-26.4
						c3.7-7.4,4.5-15.9,2.3-23.9c-1.3-4.5-3.6-8.9-4.3-13.5C359,362.7,376.8,354.6,378.5,339.2z"/>
					<g class="st15">
						<path d="M234.9,582.4c-5.9,0.8-11.6,3.7-17.4,5.6c-0.4,1-1,1.8-1.5,2.8c10.2,3.1,20.1-5.2,30.6-6.6c0.6-0.1,1.2-0.2,1.7-0.2
							C244.1,582.5,239.4,581.9,234.9,582.4z"/>
						<path d="M210,575.6c1-3.1,1.8-6.4,2.4-9.6c-3.6,4.1-8.4,6.9-13.7,7.7c-0.4,0.2-0.9,0.3-1.4,0.5
							C201.4,575.8,205.8,576.3,210,575.6z"/>
						<path d="M372.8,606.5c-5.6-2-11-5.2-16.9-4.6c3.6,0.5,7.5,1,10.3,3.4s3.9,7.1,1.2,9.6c-0.4,0.4-1,0.8-1.7,1l3.5,1.1
							c3.3,1.1,7.4,2,9.9-0.3s1.7-6.4-0.6-8.9C376.7,607.6,374.7,607.1,372.8,606.5z"/>
						<path d="M301.3,593.3c-3.6,3.6-8.3,5.1-13.5,5.2c7.3,2.3,15.2,2.8,21.3-0.4C306.4,596.7,303.8,595.1,301.3,593.3z"/>
						<path d="M399.8,591.1c-3.6-7.9-7.9-15.4-12.9-22.3c-7.5-10.3-16.9-20.8-16.6-33.5c0.3-12.1,9.8-22.7,9.3-34.8
							c-0.4-11.2-9.2-20.1-17-28.1s-15.8-18.1-14.2-29.2c1.5-10.1,10.3-17.3,14.9-26.4c3.7-7.4,4.5-15.9,2.3-23.9
							c-1.3-4.5-3.6-8.9-4.3-13.5c-2.2-16.6,15.6-24.7,17.3-40.1c1.4-12.7-10.7-23.4-23-26.4c-3.6-0.9-7.3-1.4-11-1.7
							c12.2,3.3,23.7,13.8,22.3,26.2c-1.7,15.4-19.5,23.5-17.3,40.1c0.6,4.7,3,8.9,4.3,13.5c2.3,8,1.4,16.5-2.3,23.9
							c-4.6,9.1-13.5,16.3-14.9,26.4c-1.7,11.1,6.4,21.1,14.2,29.2c7.8,8.1,16.6,16.9,17,28.1c0.5,12.1-8.9,22.7-9.3,34.8
							c-0.3,12.7,9.1,23.2,16.6,33.5c5,7,9.4,14.5,12.9,22.3c2.1,4.6,3.8,10.3,1,14.4c-1.5,2.2-3.8,3.6-6.4,3.9
							c0.7,0.3,1.3,0.5,2,0.8c5.6,2,12.9,2.1,16.2-2.8C403.5,601.2,401.8,595.7,399.8,591.1z"/>
					</g>
					<path class="st5" d="M395,765.7c0,0-37-6.1-43.7-14.2C344.6,743.4,395,765.7,395,765.7z"/>
				</g>
			</g>
		</g>
	</g>
</g>
</svg>
