<?xml version="1.0" encoding="utf-8"?>
<!-- Generator: Adobe Illustrator 19.0.0, SVG Export Plug-In . SVG Version: 6.00 Build 0)  -->
<svg version="1.1" id="图层_1" xmlns="http://www.w3.org/2000/svg" xmlns:xlink="http://www.w3.org/1999/xlink" x="0px" y="0px"
	 viewBox="0 0 1000 1000" style="enable-background:new 0 0 1000 1000;" xml:space="preserve">
<style type="text/css">
	.st0{opacity:0.1;fill:#6C63FF;enable-background:new    ;}
	.st1{opacity:0.1;}
	.st2{fill:none;stroke:#535461;stroke-width:2;stroke-miterlimit:10;}
	.st3{fill:#6C63FF;}
	.st4{opacity:0.25;enable-background:new    ;}
	.st5{fill:#DEA3A2;}
	.st6{opacity:0.1;enable-background:new    ;}
	.st7{fill:none;}
	.st8{fill:#FFD037;}
	.st9{fill:#A8A8A8;}
	.st10{opacity:0.2;enable-background:new    ;}
	.st11{fill:url(#SVGID_1_);}
	.st12{fill:#535184;}
	.st13{fill:#FFB9B9;}
	.st14{opacity:5.000000e-02;enable-background:new    ;}
	.st15{fill:#787C9C;}
	.st16{fill:#4C4C78;}
	.st17{opacity:0.15;enable-background:new    ;}
	.st18{fill:#504F60;}
	.st19{fill:#FFEDBA;}
	.st20{fill:#FF849D;}
</style>
<g id="_x23_background">
	<path class="st0" d="M32,538.3C47.5,602,80.3,657,132.1,683.6c107.6,55.4,350.5,26.8,531.7-6c93.7-17,176.1-63.7,236-129.7
		L32,538.3z"/>
	<path class="st0" d="M982.2,238.9h-99.4c-4.6,0.4-8.6-3-8.9-7.5c-0.4-4.6,3-8.6,7.5-8.9c0.5,0,0.9,0,1.4,0H900
		c-4.6,0.3-8.5-3.1-8.8-7.7c-0.3-4.6,3.1-8.5,7.7-8.8c0.4,0,0.8,0,1.1,0h-12.3c-4.6,0.4-8.6-3-8.9-7.5c-0.4-4.6,3-8.6,7.5-8.9
		c0.5,0,0.9,0,1.4,0h51.9c-11.5-5.1-24.9-8.8-40.5-10.7c-141.5-17.5-192-5.9-209.8,6c-22,14.7-46.5,25.4-72.7,30.6
		c-87.3,17.3-250.6,38.1-398.6-6.7c-73.6-22.3-128.2,15.4-161,78.3h942.5c-1.2-18.3-4.9-35.2-11.6-49.9
		C986.3,238.3,984.3,238.9,982.2,238.9z"/>
	<path class="st0" d="M627.9,439.5l-1.3-0.1l-13.6-0.8l-129.7-7.3l-14-0.8L262.9,419l-57.9-3.3l-9.2-0.5l-8.1-0.4l-164.2-9.2
		c-3.8,37-2.5,74.3,3.9,111l138.1,4.8l10.9,0.4l1.9,0.1l65.5,2.3l3.5,0.1l7.6,0.3l66.1,2.3l9.1,0.3l31.6,1.1h0.6l4.6,0.2l15.8,0.6
		l0,0l13.9,0.5l26.4,1h0.6l2.4,0.1l2.5,0.1h0.5l42.1,1.5l11.8,0.4h0.5l5.7,0.2l0,0h1.1h0.4l5,0.2l15.3,0.5l0,0l5.7,0.2l7.4,0.3h0.3
		l10.1,0.4l29.2,1l8,0.3h0.9l38.9,1.4l22.6,0.8l28.1,1l4.5,0.2l7.3,0.3l26.5,1l199.8,7c24.2-26.7,44.6-56.6,60.6-88.9L627.9,439.5z
		 M252.2,501.3c-2.1,0-4.1-0.7-5.7-2.1l0,0c-0.7-0.6-1.3-1.4-1.8-2.2c-1.5-2.7-1.4-5.9,0.4-8.5l0,0c0.3-0.4,0.6-0.8,1-1.1
		c1.6-1.7,3.9-2.6,6.2-2.6h17.2c-4.6,0.4-8.6-3-8.9-7.5c-0.4-4.6,3-8.6,7.5-8.9c0.5,0,0.9,0,1.4,0h-12.3c-0.3,0-0.5,0-0.8,0
		c-4.6-0.2-8-4.1-7.8-8.7c0.2-4.5,4.1-8,8.6-7.8h99.4c4.6-0.3,8.5,3.1,8.8,7.7s-3.1,8.5-7.7,8.8c-0.4,0-0.8,0-1.1,0h12.3
		c4.6-0.4,8.6,3,8.9,7.5c0.4,4.6-3,8.6-7.5,8.9c-0.5,0-0.9,0-1.4,0h-17.2c4.6-0.3,8.5,3.1,8.8,7.7c0.3,4.6-3.1,8.5-7.7,8.8
		c-0.4,0-0.8,0-1.1,0L252.2,501.3z"/>
	<path class="st0" d="M999.6,287.4l-685.7,16l-75.4,1.8l-191.9,4.5c-11.6,28.6-19.3,61-22.8,94.6h959.2
		c6.3-19.7,10.9-39.9,13.8-60.3C999.6,324.3,1000.7,305.2,999.6,287.4z M217.2,360.4H200c4.7-0.1,8.5,3.6,8.6,8.3c0,0.2,0,0.3,0,0.5
		c-0.2,2.6-1.6,5-3.8,6.4c-1.4,0.9-3.1,1.4-4.8,1.4h-99.4c-4.6,0.2-8.4-3.4-8.6-8c-0.2-4.6,3.4-8.4,8-8.6c0.2,0,0.4,0,0.6,0h17.2
		c-4.6,0.3-8.5-3.1-8.8-7.7c-0.3-4.6,3.1-8.5,7.7-8.8c0.4,0,0.8,0,1.1,0h-12.3c-4.6,0.4-8.6-3-8.9-7.5c-0.4-4.6,3-8.6,7.5-8.9
		c0.5,0,0.9,0,1.4,0h99.4c4.6-0.4,8.6,3,8.9,7.5c0.4,4.6-3,8.6-7.5,8.9c-0.5,0-0.9,0-1.4,0h12.3c1.4,0,2.8,0.3,4.1,1
		c2.7,1.4,4.5,4.2,4.5,7.3C225.7,356.8,221.8,360.5,217.2,360.4z"/>
</g>
<g id="_x23_wild_x28_have_x5B_tree_x2C_plant_x5D__x29_">
	<g class="st1">
		<path class="st2" d="M541.7,678.7c0,0,25.2-59.6,72.1-81.7c19.7-9.3,36-24.2,46-42.9c4.7-8.9,8.6-18.2,11.5-27.9"/>
		<path class="st3" d="M700.9,512.1c-4.8,5.9-30.2,14.5-30.2,14.5s3-25.7,7.9-31.6c5-5.9,13.8-6.9,20-2.2c5.9,4.4,7.1,12.7,2.7,18.6
			C701.2,511.7,701,511.9,700.9,512.1z"/>
		<path class="st3" d="M692.2,558.9c-7.5,2.4-33.6-3.6-33.6-3.6s17.1-20,24.5-22.4c7.4-2.5,15.3,1.3,18,8.6
			c2.4,7.1-1.4,14.8-8.5,17.2C692.5,558.9,692.3,558.9,692.2,558.9z"/>
		<path class="st3" d="M645.1,614.3c-7.7-1.5-27.2-19.4-27.2-19.4s25.2-9,33-7.4c7.5,1.3,12.4,8.4,11.1,15.9c0,0.1,0,0.2-0.1,0.3
			C660.3,611.2,652.7,615.9,645.1,614.3z"/>
		<path class="st3" d="M599.6,648.5c-7.9-0.3-30.2-14.7-30.2-14.7s23.3-12.9,31.2-12.6c7.7,0.1,13.8,6.4,13.7,14.1c0,0,0,0,0,0
			C614,642.9,607.4,648.8,599.6,648.5z"/>
		<path class="st3" d="M634.2,538.6c1,7.5,18,27.5,18,27.5s11.2-23.5,10.2-31s-8.1-12.8-15.9-11.8c-7.6,0.8-13.1,7.5-12.3,15.1
			C634.2,538.5,634.2,538.5,634.2,538.6z"/>
		<path class="st3" d="M581.6,579.2c3.3,6.9,25.8,21.1,25.8,21.1s3.4-25.6,0.1-32.5c-3.5-6.9-11.8-9.9-18.9-6.7
			c-6.9,2.9-10.1,10.8-7.2,17.6C581.4,578.9,581.5,579.1,581.6,579.2z"/>
		<path class="st3" d="M536,625.5c2,7.3,21.7,24.9,21.7,24.9s7.8-24.7,5.8-32c-2.2-7.4-10-11.7-17.5-9.7
			c-7.3,1.7-11.9,9.1-10.2,16.4C535.9,625.3,536,625.4,536,625.5z"/>
		<path class="st4" d="M700.9,512.1c-4.8,5.9-30.2,14.5-30.2,14.5s3-25.7,7.9-31.6c5-5.9,13.8-6.9,20-2.2c5.9,4.4,7.1,12.7,2.7,18.6
			C701.2,511.7,701,511.9,700.9,512.1z"/>
		<path class="st4" d="M692.2,558.9c-7.5,2.4-33.6-3.6-33.6-3.6s17.1-20,24.5-22.4c7.4-2.5,15.3,1.3,18,8.6
			c2.4,7.1-1.4,14.8-8.5,17.2C692.5,558.9,692.3,558.9,692.2,558.9z"/>
		<path class="st4" d="M645.1,614.3c-7.7-1.5-27.2-19.4-27.2-19.4s25.2-9,33-7.4c7.5,1.3,12.4,8.4,11.1,15.9c0,0.1,0,0.2-0.1,0.3
			C660.3,611.2,652.7,615.9,645.1,614.3z"/>
		<path class="st4" d="M599.6,648.5c-7.9-0.3-30.2-14.7-30.2-14.7s23.3-12.9,31.2-12.6c7.7,0.1,13.8,6.4,13.7,14.1c0,0,0,0,0,0
			C614,642.9,607.4,648.8,599.6,648.5z"/>
		<path class="st4" d="M634.2,538.6c1,7.5,18,27.5,18,27.5s11.2-23.5,10.2-31s-8.1-12.8-15.9-11.8c-7.6,0.8-13.1,7.5-12.3,15.1
			C634.2,538.5,634.2,538.5,634.2,538.6z"/>
		<path class="st4" d="M581.6,579.2c3.3,6.9,25.8,21.1,25.8,21.1s3.4-25.6,0.1-32.5c-3.5-6.9-11.8-9.9-18.9-6.7
			c-6.9,2.9-10.1,10.8-7.2,17.6C581.4,578.9,581.5,579.1,581.6,579.2z"/>
		<path class="st4" d="M536,625.5c2,7.3,21.7,24.9,21.7,24.9s7.8-24.7,5.8-32c-2.2-7.4-10-11.7-17.5-9.7
			c-7.3,1.7-11.9,9.1-10.2,16.4C535.9,625.3,536,625.4,536,625.5z"/>
	</g>
	<g class="st1">
		<path class="st2" d="M560.5,588.4c0,0,3.2-64.2,39.9-100.1c15.4-15,25.6-34.3,28.6-55.2c1.4-9.9,1.8-19.9,1.3-29.9"/>
		<path class="st3" d="M653.2,380.5c-2.6,7.1-23.5,23.4-23.5,23.4s-6-25.2-3.4-32.3c2.8-7.3,10.8-11,18.2-8.4
			c7.1,2.3,11.1,9.9,8.9,17C653.3,380.3,653.3,380.4,653.2,380.5z"/>
		<path class="st3" d="M661.2,427.5c-6.2,4.6-33,7.3-33,7.3s9.2-24.2,15.4-28.9c6.2-4.6,15-3.6,20,2.4c4.7,5.7,3.8,14.1-1.9,18.8
			C661.6,427.2,661.4,427.4,661.2,427.5z"/>
		<path class="st3" d="M635.8,494.8c-7.8,1-32.3-9.7-32.3-9.7s20.7-16.5,28.5-17.5c7.8-1,15,4.3,16,11.7c0.9,7.6-4.5,14.5-12,15.4
			C636,494.8,635.9,494.8,635.8,494.8z"/>
		<path class="st3" d="M604.7,541.6c-7.5,2.3-33.5-4.3-33.5-4.3s17.5-19.6,25-21.9c7.4-2.3,15.3,1.7,17.8,9c2.2,7.2-1.7,14.8-8.9,17
			C605,541.5,604.9,541.5,604.7,541.6z"/>
		<path class="st3" d="M599.5,426.8c3.5,6.8,26.5,20.2,26.5,20.2s2.5-25.7-1.1-32.5c-3.7-6.8-12.1-9.5-19.1-6.1
			c-6.7,3.1-9.7,11.1-6.6,17.9C599.3,426.5,599.4,426.7,599.5,426.8z"/>
		<path class="st3" d="M563.8,482c5.5,5.4,31.6,11.6,31.6,11.6s-5.6-25.3-11.1-30.7c-5.6-5.4-14.4-5.6-20.1-0.3
			c-5.4,5-5.8,13.4-0.8,18.8C563.5,481.6,563.7,481.8,563.8,482z"/>
		<path class="st3" d="M536.8,540.1c4.4,6.2,29.1,16.6,29.1,16.6s-1.1-25.8-5.6-32.1c-4.6-6.3-13.3-7.8-19.8-3.6
			c-6.2,4-8.1,12.2-4.1,18.4C536.6,539.7,536.7,539.9,536.8,540.1z"/>
	</g>
	<path class="st5" d="M527.6,227.9l34.6,6.7c0,0-60.3-5.7-78.4-4.7c-18,1-58.7,23.7-58.7,23.7s-19.2,6.1-41.9,27.5
		c-5.5,5.2-10.7,10.7-15.5,16.6c-18.1,22-36.4,54.2-47.6,100.8c-1.2,4.8-2.2,9.7-3.2,14.7c-2,10.2-3.7,21.1-5,32.7
		c-0.6,5.3-1.1,10.8-1.6,16.5c-0.4,5.4-0.7,10.9-1,16.6c-0.2,5.4-0.4,10.9-0.4,16.5c-0.1,7.5,0,15.3,0.2,23.3
		c0.1,5.3,0.4,10.8,0.7,16.3c0,0.2,0,0.4,0,0.7c2,37.6,6.7,69.5,13.2,96.6c0.7,2.8,1.4,5.6,2.1,8.3c3.2,12.5,7.2,24.7,11.9,36.7
		c0.8,2.1,1.7,4.2,2.5,6.2c2,4.7,4,9.2,6.1,13.4c1.7,3.5,3.5,6.9,5.3,10.1c0.3,0.7,0.7,1.3,1.1,1.9c0.9,1.6,1.8,3.1,2.6,4.5
		c31.2,52,69.3,64.7,84.6,67.8c2.1,0.4,3.8,0.7,4.9,0.8h0.1c1.1,0.1,1.7,0.2,1.7,0.2c3.6,13.7-3.3,19.2-11.5,21.2
		c-1.3,0.3-2.7,0.6-4.1,0.7l0,0c-5.4,0.5-10.9,0.3-16.2-0.6c0,0-37.1,1.6-76.1,2.6c-2.9,0.1-5.9,0.1-8.8,0.2l0,0l-3.3,0.1
		c-20.2,0.4-39.8,0.5-54.1,0.1l0,0c-6.8-0.2-12.4-0.5-16.3-1c-29.5-3.8-20.9-22.8-11.9-37.5c7.8-12.7,3.9-35.2-8.8-72.4
		c-2.1-6-4.3-12.4-6.9-19.2c-14-37.8-13.1-94.3-9.9-142.2c0.4-6.3,0.9-12.5,1.4-18.4c0.6-7.3,1.2-14.3,1.8-20.8
		c2.6-29.1,11.2-60.5,20.4-85.8c1.3-3.6,2.6-7.2,4-10.5c3.8-9.8,8.1-19.4,13.1-28.7c1.1-1.9,2.1-3.6,3-5l0.8-1.3
		c1.6-2.6,3.3-5.5,5-8.7c2.5-4.7,5.1-10,7.7-15.5c6.6-14,12.9-29.3,17.1-39.8c3.1-7.6,5-12.6,5-12.6c-0.4-2-1.1-4-2.1-5.8
		c-16-29.2-108.5-46-108.5-46l-46.4,3.3L47.9,245l100.7-15.2l15.6-2.4c0,0-4.5-0.5-11.2-1.6l0,0c-13.3-2.2-35.2-6.7-47.2-14.5
		c-9.6-6.3-60.3-9-105.8-10.1v-11.6l8.5,6.1l97.8,1.5l-47.5-60.8l62.7,64.1c9.9,1.9,28.8,6.4,50.6,11.8c15,3.7,31.4,7.7,47.1,11.6
		c38.5,9.6,72.7,18.4,72.7,18.4c-3.3-48.9-27.7-93.9-66.7-123.4l-53.6-40.6h13.9c39.7,23.7,99.4,71,99.4,71s-1-26.2-9.4-71h18.3
		c0.2,2.3,0.5,4.6,0.8,6.9c7.2,48.8,10.7,106.4,10.7,106.4c6.2,41.8,22.8,6.2,22.8,6.2c-1.4-47.5,17.7-91.8,33-119.4h20.2
		c-9.3,19.1-6.2,33-6.2,33c31-23.1,55.7-30.9,72.5-33c6.2-0.8,12.5-0.8,18.8,0c2.4,0.3,4.7,0.8,7,1.6
		C410.7,82.7,366,130.1,366,130.1c-5,1.2-17.5,40-22.8,89.3c-0.8,7.2-1.4,14.7-1.8,22.3c-1.4,25.4,1.8,35.8,5.9,39.3
		c3,2.6,6.5,1.5,9.1,0c1.3-0.8,2.5-1.7,3.5-2.7c9.8-16.3,46.8-34.9,80.5-49.1c7.1-3,14.1-5.8,20.7-8.4c22.7-9,39.9-28.2,46.2-51.8
		c11-40.4,31.7-38.8,31.7-38.8c-24.2,18.5-22.8,74.6-22.8,74.6l80.2-17c-38.1,10.2-100.6,34-100.6,34L527.6,227.9L527.6,227.9z"/>
	<path class="st5" d="M617.2,183.3l-20.9,4.4C604.8,185.5,612.1,183.8,617.2,183.3z"/>
	<path class="st6" d="M299.4,471.9c0,0-5.9,92.8,4.6,111.1L299.4,471.9z"/>
	<path class="st6" d="M277.7,583c0,0,7.5,86.9,12.8,103.9S277.7,583,277.7,583z"/>
	<path class="st6" d="M270.4,369.3c-5.3,1.9-28.2,48.4-23.6,62.1S270.4,369.3,270.4,369.3z"/>
	<path class="st6" d="M328.4,321.1c-2.5,1.1-13.1,27.9-11,35.8C319.5,364.8,328.4,321.1,328.4,321.1z"/>
	<path class="st6" d="M229.3,477c2.6,27,4.1,44.6,2.4,66.2c-1.4,16.8-1.2,33.6,0.7,50.3L229.3,477z"/>
	<path class="st6" d="M515.8,163.2c-3.2,3.7-4.3,8.7-4.5,13.7c-0.2,4.9,0.5,9.8,0.2,14.7c-0.3,5.1-2.8,11.2-7.9,11.8L515.8,163.2z"
		/>
	<path class="st7" d="M260.5,137.3c3.8,2,7.4,4.5,10.7,7.3c3.1,3,5.6,6.8,6.2,11.1c0.2,1.8,0.1,3.7,0.5,5.5c0.7,2.5,1.9,4.7,3.6,6.7
		c2.8,3.5,5.8,6.9,9,10"/>
	<path class="st6" d="M291.4,261.3c-2.7-2.2-5.6-4.2-8.6-6c-2.8-1.7-5.7-3-8.8-3.9c-4.7-1.3-9.7-1.1-14.5-1.6
		c-4.8-0.5-10-1.9-13.3-5.5L291.4,261.3z"/>
	<path class="st6" d="M98.4,201.3c5.8,0.2,11.8,0.4,16.9,3c2.6,1.3,4.9,3.3,7.5,4.7c3.3,1.9,7.1,2.8,10.9,2.8L98.4,201.3z"/>
	<path class="st6" d="M178.5,225.1c-1.2-1-3.1-0.2-4.2,1c-1,1.2-1.6,2.7-2.7,3.9c-2.1,2.3-5.5,2.5-8.6,2.6L178.5,225.1z"/>
	<path class="st6" d="M211.5,102.4l5.6,2.9c5.7,3,11.4,6,16.4,10L211.5,102.4z"/>
	<path class="st6" d="M274.9,156.7c3.7-0.9,6.8,3,7.4,6.7c0.7,3.7-0.1,7.6,1,11.2c0.9,3.2,3.2,5.8,5.5,8.2L274.9,156.7z"/>
	<path class="st6" d="M336.7,163.5c3.3,9.9-3.7,20.7-1.7,31c0.6,3.1,2.1,6,2.8,9.1c1.9,8.2-1.4,16.8-6.7,23.3L336.7,163.5z"/>
	<path class="st3" d="M243,833.1c0,0-38.6-2.3-34,24.7c0,0-0.9,4.8,3.4,6.9c0,0,0.1-2,4-1.3c1.4,0.2,2.8,0.3,4.2,0.2
		c1.9-0.1,3.7-0.9,5.1-2.1l0,0c0,0,10.8-4.5,15.1-22.2c0,0,3.1-3.9,3-4.8l-6.5,2.8c0,0,2.2,4.7,0.5,8.6c0,0-0.2-8.4-1.5-8.2
		c-0.3,0-3.4,1.6-3.4,1.6s3.9,8.2,1,14.1c0,0,1.1-10.1-2.1-13.6l-4.6,2.7c0,0,4.5,8.4,1.4,15.3c0,0,0.8-10.6-2.4-14.7l-4.2,3.2
		c0,0,4.2,8.3,1.6,14c0,0-0.3-12.3-2.5-13.2c0,0-3.6,3.2-4.2,4.5c0,0,2.9,6.1,1.1,9.2c0,0-1.1-8.2-2-8.2c0,0-3.6,5.4-4,9.2
		c0,0,0.2-5.5,3.1-9.7c-2.1,0.4-4,1.4-5.5,2.9c0,0,0.6-3.9,6.4-4.2c0,0,3-4.1,3.8-4.4c0,0-5.8-0.5-9.4,1.1c0,0,3.1-3.6,10.5-1.9
		l4.1-3.3c0,0-7.7-1.1-10.9,0.1c0,0,3.8-3.2,12.1-0.9l4.5-2.7c0,0-6.6-1.4-10.5-0.9c0,0,4.1-2.2,11.8,0.2l3.2-1.4c0,0-4.8-1-6.2-1.1
		c-1.4-0.1-1.5-0.5-1.5-0.5c3-0.5,6.2-0.2,9,1C236.4,836.1,243.1,833.6,243,833.1z"/>
	<path class="st3" d="M188.6,775.1c0,0-26.3-1.6-23.2,16.8c-0.3,1.9,0.6,3.8,2.3,4.7c0,0,0-1.4,2.7-0.9c0.9,0.2,1.9,0.2,2.9,0.1
		c1.3-0.1,2.5-0.6,3.5-1.4l0,0c0,0,7.4-3.1,10.2-15.1c0,0,2.1-2.6,2-3.3l-4.4,1.9c0,0,1.5,3.2,0.3,5.8c0,0-0.1-5.7-1-5.6
		c-0.2,0-2.3,1.1-2.3,1.1s2.6,5.6,0.6,9.6c0,0,0.7-6.9-1.4-9.2l-3.1,1.8c0,0,3,5.8,1,10.4c0,0,0.5-7.2-1.6-10l-2.8,2.2
		c0,0,2.9,5.7,1.1,9.6c0,0-0.2-8.4-1.7-9c0,0-2.5,2.2-2.9,3.1c0,0,1.9,4.1,0.7,6.3c0,0-0.7-5.6-1.4-5.6c0,0-2.5,3.7-2.7,6.2
		c0.1-2.3,0.9-4.6,2.1-6.6c-1.4,0.3-2.7,0.9-3.8,1.9c0,0,0.4-2.6,4.4-2.9c0,0,2-2.8,2.6-3c0,0-4-0.3-6.4,0.7c0,0,2.1-2.5,7.1-1.3
		l2.8-2.3c0,0-5.2-0.7-7.5,0.1c0,0,2.6-2.2,8.2-0.6l3-1.8c-2.3-0.5-4.7-0.7-7.1-0.6c0,0,2.8-1.5,8,0.1l2.2-1c0,0-3.3-0.6-4.2-0.7
		c-1-0.1-1-0.4-1-0.4c2.1-0.3,4.2-0.1,6.1,0.7C184.2,777.1,188.7,775.4,188.6,775.1z"/>
	<path class="st3" d="M797.5,751.8c0,0,7.3,9.6-3.4,24s-19.5,26.6-15.9,35.6c0,0,16.1-26.8,29.3-27.2
		C820.5,783.9,811.9,767.9,797.5,751.8z"/>
	<path class="st6" d="M797.5,751.8c0.6,0.9,1.1,1.9,1.5,3c12.8,15,19.6,29.1,7.3,29.5c-11.5,0.3-25.2,20.8-28.5,26
		c0.1,0.4,0.2,0.8,0.4,1.2c0,0,16.1-26.8,29.3-27.2C820.5,783.9,811.9,767.9,797.5,751.8z"/>
	<path class="st8" d="M811.1,763.9c0,3.4-0.4,6.1-0.8,6.1c-0.5,0-0.8-2.7-0.8-6.1s0.5-1.8,1-1.8S811.1,760.6,811.1,763.9z"/>
	<path class="st8" d="M815.7,767.9c-2.9,1.6-5.5,2.6-5.8,2.2c-0.2-0.4,2-2,4.9-3.7c3-1.6,1.8-0.4,2,0
		C817.2,766.9,818.7,766.3,815.7,767.9z"/>
	<path class="st3" d="M758.9,751.8c0,0-7.3,9.6,3.4,24s19.5,26.6,15.9,35.6c0,0-16.1-26.8-29.2-27.2
		C735.8,783.9,744.4,767.9,758.9,751.8z"/>
	<path class="st6" d="M758.9,751.8c-0.7,0.9-1.2,1.9-1.6,2.9c-12.8,15-19.6,29.1-7.3,29.5c11.5,0.3,25.2,20.8,28.5,26
		c-0.1,0.4-0.2,0.8-0.4,1.2c0,0-16.1-26.8-29.2-27.2C735.8,783.8,744.4,767.9,758.9,751.8z"/>
	<path class="st8" d="M745.3,763.9c0,3.4,0.4,6.1,0.9,6.1s0.8-2.7,0.8-6.1s-0.5-1.8-1-1.8S745.3,760.6,745.3,763.9z"/>
	<path class="st8" d="M740.6,767.9c2.9,1.6,5.5,2.6,5.8,2.2c0.2-0.4-2-2-4.9-3.7c-2.9-1.6-1.8-0.4-2,0
		C739.2,766.9,737.6,766.3,740.6,767.9z"/>
	<path class="st9" d="M747.6,810.1c0,0,20.4-0.6,26.6-5c6.2-4.4,31.5-9.6,33-2.6s30.7,35,7.7,35.2s-53.6-3.6-59.8-7.4
		C748.9,826.6,747.6,810.1,747.6,810.1z"/>
	<path class="st10" d="M815.2,835.2c-23.1,0.2-53.6-3.6-59.8-7.3c-4.7-2.9-6.6-13.1-7.2-17.8h-0.7c0,0,1.3,16.5,7.4,20.2
		c6.2,3.8,36.7,7.5,59.8,7.3c6.7-0.1,9-2.4,8.8-5.9C822.7,833.9,820.2,835.2,815.2,835.2z"/>
</g>
<g id="_x23_woman_x28_sit_x2C_take_x5B_pictures_x5D__x29_">
	<path class="st6" d="M376.8,756.2c0,0-17.6-10.5-41.8-5.2s-61.2,2.5-64.6,1.9L376.8,756.2z"/>
	
		<linearGradient id="SVGID_1_" gradientUnits="userSpaceOnUse" x1="575.0291" y1="111.6853" x2="575.0291" y2="543.3843" gradientTransform="matrix(1 0 0 -1 -84.38 967.3)">
		<stop  offset="0" style="stop-color:#808080;stop-opacity:0.25"/>
		<stop  offset="0.54" style="stop-color:#808080;stop-opacity:0.12"/>
		<stop  offset="1" style="stop-color:#808080;stop-opacity:0.1"/>
	</linearGradient>
	<path class="st11" d="M470.3,665c-2.5,1.4-4.8,3-6.9,4.9c-0.4,0.3-0.9,0.7-1.3,1.1c0.2,0.5,0.4,1,0.6,1.4l0.5-1l0.2-0.4l0.2-0.4
		c0.5-0.9,0.9-1.3,0.9-1.3l6.7-4.8C471,664.7,470.7,664.9,470.3,665z M470.3,665c-2.5,1.4-4.8,3-6.9,4.9c-0.4,0.3-0.9,0.7-1.3,1.1
		c0.2,0.5,0.4,1,0.6,1.4l0.5-1l0.2-0.4l0.2-0.4c0.5-0.9,0.9-1.3,0.9-1.3l6.7-4.8C471,664.7,470.7,664.9,470.3,665z M688.7,833.5
		c1.9-6.2-22.3-14.2-30.6-16.7v-0.2l-0.3,0.1c-1.4-0.4-2.3-0.7-2.3-0.7s-3.7-2.7-8.3-6l-0.3-0.9l-0.7,0.2c-2.2-1.6-4.6-3.2-6.8-4.8
		c0.2-0.1,0.4-0.2,0.6-0.2l-0.2-1.2c-0.4,0.1-0.8,0.2-1.1,0.5l-0.1-0.5c-0.3,0-0.5,0.1-0.8,0.3c-2.2-1.5-4.1-2.8-5.5-3.6
		s-3.7-2.6-6.5-4.7l0,0c-2.8-2.2-6-4.8-9.3-7.5l0.4-1l0.5-1.4l-1.4,0.7l-0.1,0.1l0.3-0.7l-1.4,0.7l-0.3,0.1
		c-1.1-0.9-2.2-1.8-3.2-2.7l0,0l0,0c0.1,0,0.2-0.1,0.2-0.1c0.4-0.2,0.8-0.4,1.2-0.7l1.6-0.9l1.9-1.1l0.4-0.2c3.2-1.7,5-2.8,5-2.8
		c11.5-6.5,21.2-15.7,28.3-26.9c9.5-15.2-1-29-7.8-37.1c-0.1-0.1-0.1-0.2-0.2-0.3c0.5-0.1,0.9-0.3,1.3-0.5l0,0c3-1.2,5-4,5.1-7.2
		c0.1-1,0-2-0.4-3c-1.1-3.5-4-13.4-0.5-17.2c0.9-0.9,2-1.4,3.3-1.5c6.5-0.4,16.1-1.2,21.6-3.2c1.1-0.4,2.2-1,3.2-1.7
		c0.8-0.6,1.2-1.4,1.3-2.4c0-3.5-1.2-8.7-4.6-11c-0.2-0.1-0.4-0.3-0.6-0.4c0,0-0.1,0-0.1-0.1c-1.7-1.1-4.4-1.7-8.7-1.6
		c-7.8,0.1-15.5-0.8-23-2.8l-0.4,0.4l-1-0.9l-0.8-0.8l-16.2-15.6l-3.6,3.6l-1.7-1.7l-3.5-3.4l-0.2-0.2l-6.3-6.1
		c-1.5-12.4-4-24.4-8.3-32.5c-1.6-3.3-3.9-6.1-6.9-8.3l-7.6-7.4l-0.6-0.6c0.1-0.1,0.2-0.2,0.3-0.3l0,0c0.2-0.2,0.3-0.4,0.5-0.6
		c0.5-0.5,0.8-1.1,1.1-1.8c1.4-3.1,0.8-6.8-1.7-9.2l-0.2-0.2c-3.1-2.9-7.9-3.1-11.1-0.4c-0.2,0.1-0.4,0.3-0.6,0.5l0,0l-0.3,0.3
		l-2.2-2.2c-3.4-3.3-8.8-3.3-12.2,0.1L544.9,585c-0.9-3-2-5.9-3.3-8.7c-3.1-6.6-14-12-24.6-16l0,0c-5.1-1.9-10.2-3.5-14.4-4.6l0,0
		c-2.5-0.7-4.6-1.2-6.2-1.6l0,0l-0.5-0.1l0,0l-2.1-0.5l0.6-0.7l0.5-0.5l0.8-0.9l0.6-0.6c0.7,0.5,1.4,0.9,2.1,1.3l0,0
		c22.4,13.1,51.2,7,66.3-14.1c0.3-0.4,0.6-0.8,0.9-1.3c0.2-0.3,0.4-0.6,0.6-0.8c0.1-0.1,0.2-0.3,0.3-0.4c0.2-0.3,0.4-0.6,0.6-1
		l1-0.1c3.5-0.5,7.1-1.4,9.1-4.2c0.2-0.3,0.4-0.6,0.6-1l0,0c0.1-0.3,0.3-0.5,0.4-0.8l0,0c0.1-0.3,0.3-0.7,0.3-1.1l0,0
		c0.4-1.4,0.6-2.9,0.7-4.4c0-0.4,0.1-0.8,0.2-1.3l0,0l0.2-1l0.1,0.1c1,0.9,2,1.9,2.9,2.9c0.1,0.1,0.1,0.2,0.2,0.2c0-0.2,0-0.4,0-0.6
		l0,0v-0.5c0-4.2,8.5-5.2,11.3-7.8c0.8-0.6,1-1.6,0.7-2.5c0.5,0-0.2-2.6-0.4-4.5c-0.2-1-0.2-1.7,0-1.8l0.4-0.2
		c1.5-0.8,0.8-2,0.6-3.3c-0.1-0.5,0-1,0.2-1.5c0.2-0.3,0.4-0.7,0.7-0.9c1.8-1.6-2.7-2.5-0.5-3.4c-1-2.9-1.9-5.8-2.9-8.7
		c-0.5-1.6-1.1-3.1-1.9-4.6c-0.5-0.8-1-1.5-1.6-2.2c-1.9-6.4-5.8-12-11.1-16c-3.3-2.4-7.1-4.2-10.4-6.6c-8.2-6.1-12.5-15.8-19-23.7
		c-3.2-3.9-7.2-7.1-11.8-9.2c-4.6-2-9.5-2.7-14-0.8c-0.3,0.1-0.6,0.2-0.9,0.4c-6.6,3.2-9.8,10.9-15.8,15.1c-8.4,6-19.8,4.2-30.2,3.1
		c-10.7-1.1-21.4-1-32.1,0.3c-1.6,0-3.2,0.5-4.5,1.4c-1.4,1.2-1.8,3.2-1.9,4.9c0,0.6,0,1.1,0,1.7c0,0.2,0,0.4,0,0.5
		c-0.1,7.3,3,14.4,3.3,21.6c0,0.7,0,1.4-0.1,2.1c-1,8.9-7.5,16.5-15.3,21.2c-6.7,4.1-15.6,8.3-15.2,16v0.3c0,0.3,0,0.6,0,0.8
		c0.1,1.2,0.4,2.5,0.8,3.6c-7.6,0-13.6-0.3-13.6-0.3c-7.8-1.1-15.7,0.1-22.8,3.2c-6.9,3.1-12.8,8.1-17,14.4c-2.2,3.2-4,6.7-5.4,10.3
		c0,0-8,38.6-16.4,48.9c-8.4,10.2-9.2,24.9-9.2,24.9c-1.1,4.3-2.5,8.5-4,12.6c-1.4,3.7-3.1,7.1-4.8,8.6c-4.4,3.9-2,9.9-2,9.9
		s-5.2,5.1-4.8,8.3c0.4,3.2-2.8,10.3-2.8,10.3s-3.2,7.5-1.6,11c1,2.1-1.4,7.6-3.5,11.6l-1.7-0.2c-2.1,4.5-3.9,9.1-5.3,13.9
		c-0.7,2.4-1.1,4.9-1.1,7.4c0.4,7.1-4.8,19.3-4.8,19.3c-2.1,6.8-3.2,13.9-3.4,21c0,0.2,0,0.4,0,0.5c-0.2,13.6,3.3,30.8,19.2,42.7
		c5.9,4.4,12.6,7.6,19.7,9.6c2.2,0.7,4.6,1.3,7,1.8l5.6,1.2c8,4.2,16.4,7.5,25.1,10.1c4.2,1.2,8.6,2,13,2.4l0,0
		c7.4,0.6,14.8-0.1,22-1.9c1,0.1,1.9,0.3,2.8,0.4l0.8,0.1l0,0h0.1c14.2,1.9,24,2.6,28.7,3l-0.1,0.2l0,0c-1,4.8-1.6,8.3-1.6,8.3
		l0.9,1c-0.1,0.3-0.1,0.5-0.1,0.5l12.8,15.9c0.7-0.1,1.3-0.3,1.9-0.6c2.6-1.2,4.9-3,6.7-5.2c0.7,0.2,1.4,0.3,2.1,0.3h0.3
		c1.1,0,2.2-0.2,3.3-0.6c0,0,2.3-1.7,5.4-3.7l0.3,0.6l0,0l2.1-1.3l0,0l1.8-1.2l4.5-2.9l0.1-0.1l0.2-0.4c0.4-0.2,0.7-0.4,1.1-0.5
		c0.6-0.3,1.2-0.5,1.7-0.8c0.9-0.4,1.9-0.7,3-0.8c2.1-0.1,5.7-1.8,9-3.7l0.5,0.5c0.5-0.4,0.8-0.9,1.2-1.5l0.7-0.4l0,0
		c0.6-0.3,1.1-0.7,1.6-1c2.9-1.8,5-3.3,5-3.3s36.4-3.7,50.1-6.8l-0.1,0.6c0,0.3,0,0.6-0.1,0.8c-1.3-0.1-2.4-0.1-3.4-0.1l0,0
		c-1,0-2.1,0-3.1,0.1c-0.9,0-1.8,0.4-2.5,0.9c-2.8,2.3,1.7,8.2,1.7,8.2l0.2,0.1c4.4,1.4,87.5,28,95.7,29.1c3.5,0.5,13,0,23.4-1.3
		h0.1c13-1.6,27.4-4.3,33.3-7.7c0.8-0.4,1.5-1,2.1-1.7c0.1-0.1,0.1-0.2,0.2-0.3l0,0C696.6,840.2,692.4,836.1,688.7,833.5z
		 M569.2,659.3l-2.3,2.4l-2.5-5.6l0,0l-1.2-2.7l5,4.8L569.2,659.3z M450.6,745.5c-0.8,0-1.7,0-2.6,0c0.7-3.9,1.2-6.4,1.2-6.4
		s3.7-17.6,6.1-33c1.3-8.2,2.2-15.8,1.9-19.5c-0.2-3.3,0.1-6.6,1.1-9.7c0.3-1.2,0.8-2.4,1.3-3.5c0.2-0.6,0.5-1.1,0.7-1.6l1.7-1.4
		c0.1,0.2,0.2,0.4,0.3,0.6c0.2,0.5,0.4,1,0.6,1.4l0.1,0.3l0,0c4.1,8.7,12.5,20.8,20.5,31.3c9.5,12.5,18.3,22.8,18.3,22.8
		s1.7,1.9,4.4,4.9c-9.9,3.6-19.3,7.1-19.3,7.1l-29.9,7.7C455,745.9,452.8,745.6,450.6,745.5z M573.4,675.9l-0.4-0.9l0,0l-2.2-4.7
		l-1.3-2.8l1.4,1.4l0.8,0.7c0.1,0.2,0.2,0.5,0.3,0.7c0.5,0.7,0.8,1.4,1,2.2C573.3,673.7,573.4,674.8,573.4,675.9z M470.3,665
		c-2.5,1.4-4.8,3-6.9,4.9c-0.4,0.3-0.9,0.7-1.3,1.1c0.2,0.5,0.4,1,0.6,1.4l0.5-1l0.2-0.4l0.2-0.4c0.5-0.9,0.9-1.3,0.9-1.3l6.7-4.8
		C471,664.7,470.7,664.9,470.3,665z M470.3,665c-2.5,1.4-4.8,3-6.9,4.9c-0.4,0.3-0.9,0.7-1.3,1.1c0.2,0.5,0.4,1,0.6,1.4l0.5-1
		l0.2-0.4l0.2-0.4c0.5-0.9,0.9-1.3,0.9-1.3l6.7-4.8C471,664.7,470.7,664.9,470.3,665z"/>
	<path class="st12" d="M681.4,831.4c0,0,14.5,6.7,8.6,13.7c-5.9,7.1-49.5,11.8-57.6,10.6c-8.2-1.2-93.7-29-93.7-29s-6.3-8.2,0.8-9
		s36.8,3.1,36.8,3.1l40.8,2.4L681.4,831.4z"/>
	<polygon class="st13" points="539.4,683.9 558.5,726 584.1,701 565.3,670.7 	"/>
	<polygon class="st14" points="584.1,701 564.7,719.9 558.5,726 554.8,717.8 544.1,694.3 539.4,683.9 546.1,680.5 565.3,670.7 
		572.4,682.2 577.4,690.2 	"/>
	<path class="st13" d="M515.2,536.5c-6.7,5.4-13,11.3-18.8,17.6c-0.4,0.4-0.7,0.8-1.1,1.2l0,0c-3.3,3.7-6.2,7.7-8.9,12
		c-2,3.2-3.7,6.5-5,10c-3.9,10.2-2.3,16.1-2.3,16.1c-11.2-9.5-21.8-19.6-31.9-30.1c-16.3-17.4-29.8-36.4-13.9-39.3
		c19.6-3.6,35.9-15.7,44.9-23.8c2.7-2.4,5.2-4.9,7.7-7.6C485.7,492.6,557.5,502.4,515.2,536.5z"/>
	<path class="st13" d="M445.6,751l42.9-11.2c0,0,38.8-14.7,41.2-15s81.2-20.6,81.2-20.6l-37.4,82.9L485,817.5l-52.6-5L445.6,751z"/>
	<path class="st6" d="M445.6,751l42.9-11.2c0,0,38.8-14.7,41.2-15s81.2-20.6,81.2-20.6l-37.4,82.9L485,817.5l-52.6-5L445.6,751z"/>
	<path class="st15" d="M452.6,542c-1.2-6.5-3.4-20.8-1-25.1c0,0-3.5-0.4-16.5,1.9c-13,2.3-33.7,1.2-33.7,1.2s-31-5.9-44.3,27.8
		c0,0-7.8,38.4-16.1,48.6s-9,24.7-9,24.7s-4.3,17.3-8.6,21.2s-1.9,9.8-1.9,9.8s-5.1,5.1-4.7,8.2s-2.7,10.2-2.7,10.2s-3.1,7.5-1.6,11
		c1.5,3.5-5.9,16.1-5.9,16.1l132.9,27.8l35.3-111l0.8-46.3c0,0-19.4-1.8-22.1-20.6C453.2,545.8,452.9,543.9,452.6,542z"/>
	<path class="st7" d="M342.6,654.5l-4.7,8.6c0,0,28.2,8.2,38.4,5.5c10.2-2.7,43.2-25.1,43.2-25.1L342.6,654.5z"/>
	<path class="st6" d="M342.6,654.5l-4.7,8.6c0,0,28.2,8.2,38.4,5.5c10.2-2.7,43.2-25.1,43.2-25.1L342.6,654.5z"/>
	<path class="st16" d="M364.2,700.4c0,0-27.1-5.5-31.4-5.5s-25.5-1.9-25.5-1.9s-6.7,14.1-6.3,21.2s-4.7,19.2-4.7,19.2
		s-20.8,61.6,41.6,75.3c62.3,13.7,99.2,15.3,99.2,15.3s20.4-57.6,24.3-65.5s2.7-13.3-15.7-11.8S364.2,700.4,364.2,700.4z"/>
	<path class="st7" d="M597.1,824.3"/>
	<path class="st15" d="M578.8,690.1l-1.4,0.1c-1.6,0.1-4.5,0.3-7.9,0.6c-5.3,0.5-12,1.2-17.7,2c-3,0.4-5.7,0.9-7.8,1.4
		c-2.5,0.6-4.1,1.3-4.1,2c0,1.8-15.5-29.8-30.8-61.4c-0.5-1-1-2.1-1.5-3.1s-1-2-1.5-3c-0.8-1.8-1.7-3.5-2.5-5.2
		c-3.8-7.8-7.4-15.3-10.7-22.1l-1.8-3.7l-9.8-20.4l-2-4.2c0,0,2.5-3,5.7-6.7c3.2-3.7,7.2-8.1,10.1-11.1h0.1l0,0
		c2.5,0.6,40.5,9.3,46.7,22.7c1.8,4.4,3.4,8.8,4.7,13.4c0.5,1.6,1,3.2,1.5,4.9c1.9,6.9,4.1,14.8,6.1,22.5c0.4,1.5,0.8,3,1.1,4.5
		c4.2,16.6,7.5,31.2,7.5,31.2l10.1,22.7L578.8,690.1z"/>
	<path class="st13" d="M606.4,688.4c0,0-8.7,29.9-12.6,41.4c-0.4,1.5-1,3-1.8,4.5c-1.1,1.1-8.4,6.2-15.9,7.3
		c-1.2,0.2-2.3,0.2-3.5,0.2c-1.7-0.1-3.4-0.5-5-1.3c-9.4-4.7-15.9-17.1-15.9-17.1l3-5.6l4.7-8.6l10-18.3l1-1.9
		c0.8-2.2,1.4-4.4,1.9-6.7c0.3-1.6,0.6-3.3,0.6-5c0.2-2-0.3-4-1.3-5.6c-3.5-4.7-3.8-86.8,17.4-75S606.4,688.4,606.4,688.4z"/>
	<path class="st13" d="M609.7,705.2l1.1-1c0,0,21.2-0.6,25.6,5.9c4.4,6.5,22.7,22.9,11.2,41.5c-6.8,11.1-16.3,20.3-27.6,26.8
		c0,0-60.6,34.1-71.8,37.4C537,818.9,497,823,497,823s-12.6,9.1-17.6,9.4c-5,0.3-19.7,11.2-19.7,11.2s-16.2,5.3-4.1-16.5
		c12.1-21.8,13.6-26.2,13.6-26.2s11.5,6.5,17.9,0c6.5-6.5,45.9-31.2,45.9-31.2s25.2-20.2,30.2-22.8c5-2.6,36.8-20.6,36.8-20.6l0,0
		C599.8,718.2,603.4,710.3,609.7,705.2z"/>
	<path class="st14" d="M647.6,751.6c-6.8,11.1-16.3,20.3-27.6,26.8c0,0-3.4,1.9-8.7,4.8c-17.1,9.5-53.9,29.7-62.8,32.4l-0.2,0.1
		C537,818.9,497,823,497,823s-12.6,9.1-17.6,9.4c-5,0.3-19.7,11.2-19.7,11.2s-16.2,5.3-4.1-16.5c12.1-21.8,13.6-26.2,13.6-26.2
		s11.5,6.5,17.9,0c6.5-6.5,45.9-31.2,45.9-31.2s1.8-1.5,4.6-3.7c7.5-6,22-17.3,25.7-19.2c1.4-0.8,5-2.7,9.4-5.2
		c0.9-0.5,1.8-1,2.7-1.5c6.2-3.5,13.4-7.6,18.4-10.4l6.2-3.5c0-0.2,0-0.4,0-0.6c0-8,3.6-15.5,9.8-20.5l1.1-1c0,0,21.2-0.6,25.6,5.9
		C640.9,716.5,659.1,733.1,647.6,751.6z"/>
	<path class="st12" d="M433.1,833.8l12.6,15.8c0,0,11.6-0.8,20.5-30.9c8.9-30.1-2.6-33.1-2.6-33.1s-16.7,9.6-21.7,17.1
		C436.8,810.2,433.1,833.8,433.1,833.8z"/>
	<path class="st12" d="M432.3,832.3l12.4,15c0,0,10.6-0.7,19.1-29.4c8.5-28.6-2.5-31.5-2.5-31.5s-15.9,9.1-20.7,16.2
		C435.9,809.8,432.3,832.3,432.3,832.3z"/>
	<path class="st17" d="M432.3,832.3l12.4,15c0,0,10.6-0.7,19.1-29.4c8.5-28.6-2.5-31.5-2.5-31.5s-15.9,9.1-20.7,16.2
		C435.9,809.8,432.3,832.3,432.3,832.3z"/>
	<path class="st12" d="M465.3,840.5l-0.6-1l0,0c2.1-1.5,7.2-22.9,9.9-36.1l1.2,0.2c-1,5-5.6,26.9-8.9,34.4l5.7-3.8
		c0.9-1.7,10.5-20.5,5.2-29.7l-0.4-0.7l6.5-1l0.2,0.3c0.5,0.8,11.5,19.3,4.6,26l-0.8-0.8c5.8-5.6-3.1-21.7-4.6-24.2l-4.1,0.6
		c4.8,10.4-5.2,29.4-5.7,30.2l-0.1,0.1L465.3,840.5L465.3,840.5z"/>
	<path class="st6" d="M421.4,556.6c1.2,1.8,2.3,16.8,6.8,17.1S421.4,556.6,421.4,556.6z"/>
	<path class="st6" d="M395.6,526.9c0,0,12.6,1.5,13.5,12.9C410,551.3,395.6,526.9,395.6,526.9z"/>
	<path class="st7" d="M328.2,667.5c0,0,5,15.3,16.2,18.2L328.2,667.5z"/>
	<path class="st7" d="M345.9,670.7c0,0-1.2,11.8,7.1,14.7C361.1,688.3,345.9,670.7,345.9,670.7z"/>
	<path class="st6" d="M339.7,738.9c0,0-24.7,12.1-24.1,16.2C316.2,759.2,339.7,738.9,339.7,738.9z"/>
	<path class="st6" d="M310,737.5c0,0,12.4-13.2,21.2-12.1L310,737.5z"/>
	<path class="st6" d="M548.5,638.3c0,0-3.5,24.7,1.8,26.5C555.5,666.6,548.5,638.3,548.5,638.3z"/>
	<path class="st13" d="M340.7,761.6c0,0-9.8,42.4-0.8,46.3c8.8,5.1,18.3,9.1,28,12c29.6,8.7,61.4-5,74.2-33.1
		c1.3-2.8,2.3-5.7,2.9-8.7c2.3-14.9,6.7-38,6.7-38s8.6-41.6,7.8-52.2c-0.4-6.5,1.4-13,5.1-18.4l55.3-40l-15.3-42
		c0,0-39.6-56.1-75.3-4.3s-64.7,112.1-64.7,112.1S341.4,730.2,340.7,761.6z"/>
	<path class="st6" d="M519.9,628.3l-10.8,7.8l-5.5-11.4c-9.6-19.9-18.4-38.2-22.2-46.2c-3.9,10.2-2.3,16.1-2.3,16.1
		c-11.2-9.5-21.8-19.6-31.9-30.1c14-8,27.5-3.7,37.9,3.2c0.5,0.3,0.9,0.6,1.4,1c6.9,5,13.1,11,18.2,17.8L519.9,628.3z"/>
	<path class="st13" d="M340.7,761.6c0,0-9.8,42.4-0.8,46.3c8.8,5.1,18.3,9.1,28,12c29.6,8.7,61.4-5,74.2-33.1
		c1.3-2.8,2.3-5.7,2.9-8.7c2.3-14.9,6.7-38,6.7-38s8.6-41.6,7.8-52.2c-0.4-6.5,1.4-13,5.1-18.4l55.3-40l-15.3-42
		c0,0-39.6-56.1-75.3-4.3s-64.7,112.1-64.7,112.1S341.4,730.2,340.7,761.6z"/>
	<path class="st6" d="M548.4,815.6c0.5-7.1,0.5-22.7,0.5-22.7s-0.4-11.4-9.8-24.7c-0.5-0.7-1-1.4-1.6-2.1c7.5-6,22-17.3,25.7-19.2
		c1.4-0.8,5-2.7,9.4-5.2c-1.7-0.1-3.4-0.5-5-1.3c-9.4-4.7-15.9-17.1-15.9-17.1l3-5.6l-10.7-23.5c-2.5,0.6-4.1,1.3-4.1,2
		c0,2-19.5-37.8-36.3-72.8c3.9-3.1,6.4-5.1,6.4-5.1l12.2,11l23.9,51.1l4.4,9.3c0,0,0.5,1.1,1.4,3c1.5,3.4,4.2,9.2,7.7,16.3
		c1.6,3.3,3.4,7,5.3,10.7c3.3,6.6,6.9,13.6,10.6,20.3c0.3,0.5,0.5,1,0.8,1.4c8.2,14.7,16.7,27.7,22.6,31c0,0,5.7,4.9,12.5,10.7
		C594.2,792.7,557.3,812.9,548.4,815.6z"/>
	<path class="st13" d="M507.7,618.5l12.2,11l28.2,60.4c0,0,33,74.1,48.2,82.7c0,0,27.8,23.9,34.1,27.8s22.7,16.1,22.7,16.1
		s49,14.1,27.1,21.2s-51.8,1.6-51.8,1.6s-33-7.1-42.4-12.5c0,0-5.5,0.4-9.4,0.4s-31.8-4.7-31-8.6c0.7-3.9,0.8-25.5,0.8-25.5
		s-0.4-11.4-9.8-24.7S503,727.9,503,727.9s-41.6-49.5-40.4-62.7S507.7,618.5,507.7,618.5z"/>
	<path class="st13" d="M507.7,618.5l12.2,11l28.2,60.4c0,0,33,74.1,48.2,82.7c0,0,27.8,23.9,34.1,27.8s22.7,16.1,22.7,16.1
		s49,14.1,27.1,21.2s-51.8,1.6-51.8,1.6s-33-7.1-42.4-12.5c0,0-5.5,0.4-9.4,0.4s-31.8-4.7-31-8.6c0.7-3.9,0.8-25.5,0.8-25.5
		s-0.4-11.4-9.8-24.7S503,727.9,503,727.9s-41.6-49.5-40.4-62.7S507.7,618.5,507.7,618.5z"/>
	<path class="st6" d="M625.5,841.4l-1.1-0.5c6.6-12.1,18-20.7,31.4-23.8l0.3,1.1C643,821.2,631.9,829.7,625.5,841.4z"/>
	<path class="st6" d="M604.3,834.4l-1-0.5c7.1-14.2,40.1-23.8,41.5-24.2l0.3,1.1C644.8,810.9,611.2,820.6,604.3,834.4z"/>
	<path class="st6" d="M621.6,837.5l-1.1-0.4c1.2-3.3,11.6-32.5,17.3-33.3l0.2,1.2C634.2,805.5,626.1,824.7,621.6,837.5z"/>
	<path class="st12" d="M624.3,841.4l-1.1-0.5c6.6-12.1,18-20.7,31.4-23.8l0.3,1.1C641.8,821.3,630.7,829.7,624.3,841.4z"/>
	<path class="st12" d="M603.1,834.4l-1.1-0.5c7.1-14.2,40.1-23.8,41.5-24.2l0.3,1.1C643.6,810.9,610,820.6,603.1,834.4z"/>
	<path class="st12" d="M620.4,837.5l-1.1-0.3c1.2-3.3,11.6-32.5,17.3-33.3l0.2,1.2C633,805.5,624.9,824.7,620.4,837.5z"/>
	<path class="st6" d="M600.1,832.3c-0.7-4.7,11-36.8,13.6-44c-18.2,8.4-66.2,18.1-66.7,18.2l-0.2-1.2c0.5-0.1,50.7-10.3,67.7-18.8
		l1.3-0.7l-0.5,1.4c-4.1,11.1-14.7,40.7-14.1,44.8L600.1,832.3z"/>
	<path class="st12" d="M598.9,832.3c-0.7-4.7,11-36.8,13.6-44c-18.2,8.4-66.2,18.1-66.7,18.2l-0.2-1.2c0.5-0.1,50.7-10.3,67.7-18.8
		l1.3-0.7l-0.5,1.4c-4.1,11.1-14.7,40.7-14.1,44.8L598.9,832.3z"/>
	<path class="st6" d="M555.4,623.4c-19.2,3.9-44.5,4.7-44.5,4.7l-3.2,3.7l-2.7,3.1c0,0-24.1,29.7-32.7,31.8
		c-8.5,2.1-33.8,30.9-33.8,30.9s-20.6,13.8-38.8,24.4c-18.2,10.6-31.2-15.3-31.2-15.3l-6.5-59.4l40-7.7l2.4,17.4
		c0,0,26.2-10.9,30-11.8c3.8-0.9,48.8-39.7,52.4-40.6c2.2-0.8,4.3-1.9,6.3-3.1c4.5-2.7,9.3-6,9.3-6s24.7-2.4,45.9,1
		c1.9,6.9,4.1,14.8,6.1,22.5C554.6,620.4,555,621.9,555.4,623.4z"/>
	<path class="st6" d="M554.2,618.9c-19,3.7-43.4,4.5-43.4,4.5l-4.7,5.4l-1.2,1.4c0,0-24.1,29.7-32.7,31.8
		c-8.5,2.1-33.8,30.9-33.8,30.9s-20.6,13.8-38.8,24.4c-18.2,10.6-31.2-15.3-31.2-15.3l-6.5-59.4l40-7.7l2.4,17.3
		c0,0,26.2-10.9,30-11.8c3.8-0.9,48.8-39.7,52.4-40.6c1.6-0.5,3.1-1.2,4.5-2.1l1.1-0.6c7.7-4.5,16.4-7,25.3-7.2
		c9.7-0.3,19.5,0.3,29.2,1.5C549.1,599.4,551.8,609.3,554.2,618.9z"/>
	<polygon class="st6" points="599.2,825.3 609.5,830.7 604.5,837.9 595.8,833.8 	"/>
	<polygon class="st12" points="599.2,824.1 609.5,829.5 604.5,836.7 595.8,832.6 	"/>
	<polygon class="st6" points="620,832.9 631,836.1 626.9,843.6 616.4,839.4 	"/>
	<polygon class="st12" points="620,831.7 631,835 626.9,842.5 616.4,838.2 	"/>
	<path class="st6" d="M400.7,661.2c0,0-20,12.2-18.4,20.8L400.7,661.2z"/>
	
		<rect x="555.6" y="627.3" transform="matrix(-0.7018 0.7124 -0.7124 -0.7018 1432.4388 680.1536)" class="st6" width="36.5" height="25.3"/>
	
		<rect x="557.3" y="628.9" transform="matrix(-0.7018 0.7124 -0.7124 -0.7018 1436.4607 681.7681)" class="st18" width="36.5" height="25.3"/>
	
		<rect x="564.1" y="645.2" transform="matrix(-0.7018 0.7124 -0.7124 -0.7018 1452.8314 688.353)" class="st6" width="36.5" height="6.2"/>
	
		<rect x="568.3" y="643.7" transform="matrix(-0.7018 0.7124 -0.7124 -0.7018 1476.0352 698.2375)" class="st18" width="47.1" height="28.8"/>
	
		<rect x="576.6" y="663.4" transform="matrix(-0.7018 0.7124 -0.7124 -0.7018 1495.9373 706.2267)" class="st6" width="47.1" height="5.6"/>
	
		<rect x="580.4" y="662.1" transform="matrix(-0.7018 0.7124 -0.7124 -0.7018 1518.9413 716.6101)" class="st18" width="58.2" height="28.2"/>
	<path class="st6" d="M608.1,740.2c-1.6,1.1-4.5-0.3-5.8-1.1l0,0c-6.1-8.1-6.4-34.3-6.4-34.3l0.6-0.6l-1.7-1.6l40.9-41.5l1.7,1.6
		l0.4-0.4c7.8,2.5,15.8,3.9,24,4.2c4.5,0.1,6-0.7,7.8,0.6c1.7,2.8,2.6,6,2.8,9.3c0,5.4-16.1,6.6-25.5,7.3
		c-7.9,0.5-4.1,14.3-2.7,18.5c0.3,1,0.4,2,0.4,3c-0.8,8.8-10.8,9.4-19.2,7.2c-9-2.3-13,9.5-13,9.5S618.8,732.7,608.1,740.2z"/>
	<path class="st18" d="M609.8,741.9c-2.3,1.6-5.8-0.5-7.5-2.7l0,0c-6.1-8.1-6.4-34.3-6.4-34.3l41.8-42.5c7.8,2.5,15.8,3.9,24,4.2
		c4.5,0.1,6-0.7,7.8,0.6c3.2,2.2,4.4,7.5,4.5,11c0,5.4-16.1,6.7-25.5,7.3c-7.9,0.5-4.1,14.3-2.7,18.5c0.3,1,0.5,2,0.4,3
		c-0.8,8.8-10.7,9.4-19.2,7.2c-9-2.3-13,9.5-13,9.5S620.5,734.4,609.8,741.9z"/>
	<path class="st6" d="M609.8,741.9c-2.3,1.6-5.8-0.5-7.5-2.7l0,0c-6.1-8.1-6.4-34.3-6.4-34.3l41.8-42.5c7.8,2.5,15.8,3.9,24,4.2
		c4.5,0.1,6-0.7,7.8,0.6c3.2,2.2,4.4,7.5,4.5,11c0,5.4-16.1,6.7-25.5,7.3c-7.9,0.5-4.1,14.3-2.7,18.5c0.3,1,0.5,2,0.4,3
		c-0.8,8.8-10.7,9.4-19.2,7.2c-9-2.3-13,9.5-13,9.5S620.5,734.4,609.8,741.9z"/>
	<path class="st18" d="M607.1,739.3c-2.2,1.6-4.1,1-5.5-1l0,0c-5.3-7.4-5.8-33.4-5.8-33.4l41.8-42.5c7.3,2,14.9,2.9,22.5,2.8
		c4.3-0.1,6.9,0.5,8.6,1.6c2.9,1.9,2.6,5.4,2.5,8.7c-0.2,5.1-15.6,7.1-24.5,8.2c-7.4,0.9-4.7,13.4-3.5,17.5c0.3,1,0.4,2,0.2,3.1
		c-1.3,8.3-10.7,9.4-18.5,7.8c-8.4-1.8-12.8,9.7-12.8,9.7S617.7,731.6,607.1,739.3z"/>
	<path class="st18" d="M582.3,589L582.3,589c-3.1,3.2-8.2,3.2-11.4,0.1l-0.2-0.2c-3.2-3.1-3.2-8.2-0.1-11.4l0,0
		c0.2-0.2,0.4-0.3,0.5-0.5c3.2-2.7,7.9-2.5,10.9,0.4l0.2,0.2c3,2.9,3.2,7.7,0.6,10.9C582.6,588.6,582.5,588.8,582.3,589z"/>
	<path class="st6" d="M582.3,589L582.3,589c-3.1,3.2-8.2,3.2-11.4,0.1l-0.2-0.2c-3.2-3.1-3.2-8.2-0.1-11.4l0,0
		c0.2-0.2,0.4-0.3,0.5-0.5l11.6,11.5C582.6,588.6,582.5,588.8,582.3,589z"/>
	
		<rect x="550" y="632" transform="matrix(-0.7018 0.7124 -0.7124 -0.7018 1418.8402 674.6975)" class="st6" width="36.5" height="4.7"/>
	<path class="st18" d="M568.5,576l23.5,23.1c3.5,3.5,3.6,9.2,0.1,12.7L550.5,654l0,0l-36.3-35.7l0,0l41.6-42.2
		C559.3,572.5,564.9,572.5,568.5,576z"/>
	<path class="st6" d="M515.2,536.5c-6.7,5.4-13,11.3-18.8,17.6c-17.1-12.2-24.4-33.9-18.2-54c2.7-2.4,5.2-4.9,7.7-7.6
		C485.8,492.6,557.5,502.4,515.2,536.5z"/>
	<path class="st13" d="M573.2,512.2c0,0.4,0,0.7,0,1.1c-0.1,2.8-0.4,5.7-1,8.5c-0.2,1-0.4,1.8-0.6,2.7c0,0,0,0.1,0,0.1
		c-6.8,26-33.4,41.6-59.3,34.8c-26-6.8-41.6-33.4-34.8-59.3c0.8-2.9,1.8-5.8,3.1-8.6c0.6-1.3,1.3-2.6,2-3.9c1-1.7,2.2-3.4,3.4-5
		c1.6-2.1,3.3-4,5.2-5.8l0,0c19.5-18.4,50.3-17.5,68.7,2C568.5,487.8,573.2,499.8,573.2,512.2L573.2,512.2z"/>
	<path class="st13" d="M510.8,625.7l-4.8,5.5l-1,1.3c0,0-2.5,3-6.1,7.2c-7.8,8.9-20.8,23.2-26.6,24.6c-8.5,2.1-33.8,30.9-33.8,30.9
		s-20.6,13.8-38.8,24.4c-18.2,10.6-31.2-15.3-31.2-15.3l-6.5-59.4l40-7.7l2.4,17.3c0,0,26.2-10.9,30-11.8
		c3.2-0.7,35.6-28.3,47.9-37.6c1.4-1.2,2.9-2.2,4.5-3c1.9-0.7,3.7-1.6,5.4-2.6l0.1-0.1c7.6-4.5,16.3-7,25.1-7.2
		c18.1-0.3,47.4,1.1,57.2,13.1C589.4,623.4,510.8,625.7,510.8,625.7z"/>
	<path class="st6" d="M384.9,547.2c-2.7,0.4-5.4,0.6-8.1,0.5c-7,0-21.5,4.8-25.6,42.5c-5.4,50.2-13.3,75.2-13.3,75.2
		s29.4-10.2,46.3-7.4c16.9,2.7,42.7-8.6,42.7-8.6s-1.2-40.8-3.9-49C420.4,592.6,411.7,543.2,384.9,547.2z"/>
	<path class="st15" d="M384.9,544.9c-2.7,0.4-5.4,0.6-8.1,0.5c-7,0-21.5,4.8-25.6,42.5c-5.5,50.2-13.3,75.3-13.3,75.3
		s29.4-10.2,46.3-7.5c16.9,2.7,42.7-8.7,42.7-8.7s-1.2-40.8-3.9-49C420.4,590.2,411.7,540.9,384.9,544.9z"/>
	<path class="st6" d="M408.5,606.9c0,0-13.8,9.1-7.9,10.9C406.4,619.5,410.9,616.9,408.5,606.9z"/>
	<path class="st6" d="M407,623.1c0,0-37.6,11.8-24.4,16.8C395.9,644.8,407,623.1,407,623.1z"/>
	<path class="st6" d="M548.8,538.2l16.7-1.6c4.1-0.4,8.8-1.1,11.2-4.4c2.4-3.4,1.5-8,3-11.8c1-2.6,3.1-4.7,4.8-7
		c10.1-13.3,7-34.6-6.5-44.5c-3.2-2.4-6.9-4.2-10.2-6.6c-8-6.1-12.2-15.7-18.5-23.5s-17.1-14-26.1-9.6c-6.5,3.2-9.6,10.8-15.4,15.1
		c-8.2,6-19.4,4.1-29.5,3.1c-10.4-1.1-21-1-31.4,0.3c-1.6,0-3.1,0.6-4.4,1.5c-1.3,1.2-1.7,3.1-1.8,4.9c-0.5,8.7,4,17.1,3.1,25.8
		c-0.9,8.9-7.4,16.4-15,21c-6.5,4-15.3,8.3-14.9,16c0.1,2.7,1.5,5.1,2.7,7.6c10.7,22.2,10.8,48,0.3,70.2c-1.5,3.1-3.6,6.4-7,7
		c9.2,2.5,19-1.8,23.4-10.2c3.7-7.4,3-17.4,9.5-22.4c4.5-3.5,10.9-3.2,16.1-5.6c7.1-3.2,11-10.9,14.4-17.9l9.2-19.5
		c2.8-5.9,6.4-13,12.5-16c6.6-3.2,14.8-0.1,21.8,0.4c11.5,0.8,23.5,1.5,20,16.8C544.4,523.2,547.8,532.6,548.8,538.2z"/>
	<path class="st19" d="M584.4,512.2c-1.7,2.2-3.7,4.3-4.8,7c-0.5,1.4-0.8,2.9-1,4.3c-0.3,2.7-0.5,5.4-2.1,7.5
		c-2.4,3.4-7,4.1-11.2,4.4l-16.7,1.6c-1-5.6-4.4-15-12-11.1c3.5-15.3-8.5-16-20-16.8c-7-0.5-15.2-3.5-21.8-0.3
		c-6.2,3-9.7,10.1-12.5,16c-3.1,6.5-6.2,12.9-9.2,19.5c-3.3,7.1-7.2,14.7-14.4,17.9c-5.2,2.4-11.6,2.1-16.1,5.6
		c-6.5,5.1-5.8,15-9.5,22.4c-4.5,8.5-14.2,12.7-23.4,10.2c3.4-0.6,5.5-4,7-7c10.6-22.2,10.5-48.1-0.3-70.2c-1.2-2.4-2.6-4.8-2.7-7.6
		c-0.4-7.7,8.3-11.9,14.9-16c7.6-4.7,14-12.2,15-21c0.9-8.6-3.5-17.1-3.1-25.8c0.1-1.8,0.5-3.7,1.8-4.9c1.3-1,2.8-1.5,4.4-1.5
		c10.4-1.3,20.9-1.4,31.4-0.3c10.1,1,21.3,2.9,29.5-3.1c5.8-4.3,8.9-11.9,15.4-15.1c9-4.4,19.8,1.8,26.1,9.6s10.6,17.5,18.5,23.5
		c3.2,2.4,6.9,4.2,10.2,6.6c5.7,4.4,9.8,10.6,11.4,17.6l0,0C591.6,494.5,590.2,504.6,584.4,512.2z"/>
	<g class="st1">
		<path d="M444.9,470.7c0.7-7.3-2.3-14.5-3-21.8c-0.8,1.3-1.3,2.8-1.3,4.3c-0.4,7.5,2.9,14.9,3.2,22.4
			C444.3,474,444.7,472.4,444.9,470.7z"/>
		<path d="M424.3,566.4c3.4-17.3,1.1-35.2-6.6-51.1c-0.9-1.6-1.6-3.3-2.2-5.1c-1.1,1.7-1.7,3.7-1.6,5.8c0.1,2.7,1.5,5.1,2.7,7.6
			C423,536.8,425.7,551.6,424.3,566.4z"/>
		<path d="M585.6,504.3c-1.7,2.2-3.7,4.3-4.7,7c-1.5,3.8-0.6,8.5-3,11.8c-2.4,3.3-7,4.1-11.2,4.4l-16.7,1.6c-1-5.6-4.4-15-11.9-11.1
			c3.5-15.3-8.5-16-20-16.8c-7-0.5-15.2-3.6-21.8-0.4c-6.2,3-9.7,10.1-12.5,16c-3.1,6.5-6.1,12.9-9.2,19.5
			c-3.4,7.1-7.3,14.7-14.4,17.9c-5.2,2.4-11.6,2.1-16.1,5.6c-6.5,5.1-5.8,15-9.5,22.4c-3.2,6.5-10.2,10.7-17.4,10.9
			c-0.1,0.2-0.1,0.3-0.2,0.5c-1.5,3.1-3.6,6.4-7,7c9.2,2.5,19-1.8,23.4-10.2c3.7-7.4,3-17.4,9.5-22.4c4.5-3.5,10.9-3.2,16.1-5.6
			c7.2-3.2,11.1-10.9,14.4-17.9l9.2-19.5c2.8-5.9,6.4-13,12.5-16c6.6-3.2,14.8-0.1,21.8,0.4c11.5,0.8,23.5,1.5,20,16.8
			c7.5-3.9,11,5.5,12,11.1l16.7-1.6c4.1-0.4,8.8-1.1,11.2-4.4s1.5-8,3-11.8c1-2.6,3.1-4.7,4.8-7c3.8-5.2,5.9-11.5,5.9-17.9
			C589.4,498.1,587.8,501.4,585.6,504.3z"/>
	</g>
	<path class="st6" d="M584.4,512.2c-1.7,2.2-3.7,4.3-4.8,7c-0.5,1.4-0.8,2.9-1,4.3c-1.2-1-2.4-2-3.8-2.9c-5.6-3.8-12-6.3-18.3-8.7
		l-28-10.9l-19.9-7.7c-2.5-1-5-1.9-7.6-2.5l-0.8-0.2l0,0c-4.5-0.9-9.1-0.7-13.6,0.4c-1.1,0.3-2.3,0.6-3.4,0.8c0-0.4,0-0.9-0.1-1.3
		c0-0.7-0.1-1.4-0.1-2.2c3.3,0.5,6.7,0.5,9.8-0.9c2.5-1.1,4.5-3.1,6.6-4.8c5-4.4,10.8-7.9,17.1-10.2c9.6-3.5,20-3.9,30.3-3.7
		c5.2,0,10.3,0.6,15.3,1.8c6.2,1.6,11.8,4.7,17.5,7.8c3.6,1.9,7.3,4,9.7,7.2l0,0C591.6,494.5,590.2,504.6,584.4,512.2z"/>
	<path class="st20" d="M595,499c-2.1,1,2.2,1.9,0.5,3.4c-2.5,2.2,1.1,4.7-1.9,5.9c-0.7,0.3,1.1,6.2,0.4,6.3
		c1.6,4.8-11.8,4.8-11.8,10.2c0,0.4,0,0.7,0,1.1c-2.1-2.5-4.6-4.6-7.3-6.4c-5.6-3.8-12-6.3-18.3-8.7l-28.1-10.9
		c-6.6-2.6-13.3-5.2-19.9-7.7c-2.5-1-5-1.9-7.6-2.5l-0.8-0.2l0,0c-4.5-0.9-9.1-0.7-13.6,0.4c-1.1,0.3-2.3,0.6-3.4,0.8
		c0-0.4,0-0.9-0.1-1.3c0-0.7-0.1-1.4-0.1-2.2c3.3,0.5,6.7,0.5,9.8-0.9c2.5-1.1,4.5-3.1,6.6-4.8c5-4.4,10.8-7.9,17.1-10.2
		c9.6-3.5,20-3.9,30.3-3.7c5.1,0,10.3,0.6,15.3,1.8c6.2,1.6,11.8,4.7,17.5,7.8c4.1,2.2,8.5,4.7,10.8,8.8c0.8,1.5,1.4,3,1.8,4.6
		C593.1,493.2,594.1,496.1,595,499z"/>
	<path class="st6" d="M588.7,514.1c-8.7-21.7-51.5-21.2-52-21.2v-1.2c1.8,0,44-0.5,53.1,21.9L588.7,514.1z"/>
	<path class="st6" d="M591.9,504c-5.7-15.1-38-16.5-38.3-16.5v-1.2c1.4,0,33.4,1.4,39.4,17.3L591.9,504z"/>
</g>
</svg>
