<?xml version="1.0" encoding="utf-8"?>
<!-- Generator: Adobe Illustrator 19.0.0, SVG Export Plug-In . SVG Version: 6.00 Build 0)  -->
<svg version="1.1" id="图层_1" xmlns="http://www.w3.org/2000/svg" xmlns:xlink="http://www.w3.org/1999/xlink" x="0px" y="0px"
	 viewBox="0 0 1000 1000" style="enable-background:new 0 0 1000 1000;" xml:space="preserve">
<style type="text/css">
	.st0{opacity:0.1;fill:#6C63FF;enable-background:new    ;}
	.st1{fill:#FFFFFF;}
	.st2{opacity:0.7;fill:none;stroke:#3F3D56;stroke-linecap:round;stroke-miterlimit:10;enable-background:new    ;}
	.st3{fill:#3F3D56;}
	.st4{opacity:0.1;enable-background:new    ;}
	.st5{fill:#6C63FF;}
	.st6{fill:#434175;}
	.st7{fill:url(#SVGID_1_);}
	.st8{opacity:0.3;fill:#6C63FF;enable-background:new    ;}
	.st9{fill:url(#SVGID_2_);}
	.st10{opacity:0.3;}
	.st11{fill:#3ACC6C;}
	.st12{opacity:0.3;fill:#407D3B;enable-background:new    ;}
	.st13{opacity:0.1;}
	.st14{fill:url(#SVGID_3_);}
	.st15{fill:#4C4981;}
	.st16{fill:#AE6E79;}
	.st17{fill:#444053;}
	.st18{fill:#65617D;}
</style>
<path id="_x23_background" class="st0" d="M995,580.6c0.1,28.8-7.8,57-22.7,81.7c0,30.1-14,57.4-36.8,77.3
	c-5.7,5-11.8,9.4-18.3,13.3c-0.3,0.2-0.5,0.3-0.8,0.5c-0.5,0.3-1,0.6-1.5,0.9l-0.5,0.3l0,0c-21.6,12-45.9,18.3-70.5,18.1h-655
	c-5.2,0-10.4-0.2-15.5-0.6c-18.2-1.4-36.1-5.6-53.1-12.3c-3.3-1.3-6.6-2.7-9.8-4.2c-1.5-0.7-3-1.4-4.5-2.2c-0.9-0.5-1.9-1-2.8-1.4
	c-10.7-5.6-20.8-12.5-30-20.3c-29.6-25.4-47.9-60.5-47.9-99.3C8.7,606.5-0.1,576.7,0,546.2C0,460,68.9,390.1,153.9,390.1
	c2.6,0,5.2,0.1,7.8,0.2c0.4,0,0.7,0,1.1,0.1c14.3-24.4,33.5-46.9,56.5-66.6c62.9-53.8,154.7-87.8,257-87.8
	c85.9,0,164.5,24,224.7,63.6c22.8-12.9,48.5-19.6,74.7-19.6c85,0,153.9,69.9,153.9,156.1c0,5.5-0.3,10.9-0.9,16.3
	C970.5,481.8,995.1,529.6,995,580.6z"/>
<g id="_x23_chart_x28_have_x5B_list_x5D__x29_">
	<path class="st1" d="M833.2,339.7v416.8c0,8.8-7.1,16-16,16c0,0,0,0,0,0H177.8c-1.5,0-3-0.2-4.4-0.6c-6.9-2-11.6-8.3-11.6-15.4
		v-186c0-0.9,0-1.9,0-2.8V390.3c0.4,0,0.7,0,1.1,0.1c14.3-24.4,33.5-46.9,56.5-66.6h597.8C826.1,323.7,833.2,330.9,833.2,339.7z"/>
	<line class="st2" x1="226.1" y1="445.5" x2="793.2" y2="445.5"/>
	<line class="st2" x1="226.1" y1="550.3" x2="793.2" y2="550.3"/>
	<line class="st2" x1="226.1" y1="655.1" x2="793.2" y2="655.1"/>
	<line class="st2" x1="226.1" y1="762.5" x2="793.2" y2="762.5"/>
	<ellipse class="st0" cx="837.6" cy="813" rx="128.4" ry="9.1"/>
	<path class="st3" d="M463.3,377.9h88.6c8.6,0,15.6,7,15.6,15.6l0,0c0,8.6-7,15.6-15.6,15.6h-88.6c-8.6,0-15.6-7-15.6-15.6l0,0
		C447.6,384.9,454.6,377.9,463.3,377.9z"/>
	<path class="st4" d="M465.9,383.1h83.4c5.7,0,10.4,4.7,10.4,10.4v0c0,5.7-4.7,10.4-10.4,10.4h-83.4c-5.7,0-10.4-4.7-10.4-10.4v0
		C455.4,387.8,460.1,383.1,465.9,383.1z"/>
	<path class="st5" d="M528.7,384.2h19.1c5.1,0,9.3,4.1,9.3,9.3v0c0,5.1-4.1,9.3-9.3,9.3h-19.1c-5.1,0-9.3-4.1-9.3-9.3v0
		C519.4,388.4,523.6,384.2,528.7,384.2z"/>
	<circle class="st1" cx="538" cy="393.5" r="5.8"/>
	<path class="st3" d="M463.3,584h88.6c8.6,0,15.6,7,15.6,15.6v0c0,8.6-7,15.6-15.6,15.6h-88.6c-8.6,0-15.6-7-15.6-15.6v0
		C447.6,591,454.6,584,463.3,584z"/>
	<path class="st4" d="M465.9,589.3h83.4c5.7,0,10.4,4.7,10.4,10.4l0,0c0,5.7-4.7,10.4-10.4,10.4h-83.4c-5.7,0-10.4-4.7-10.4-10.4
		l0,0C455.4,593.9,460.1,589.3,465.9,589.3z"/>
	<path class="st5" d="M528.7,590.4h19.1c5.1,0,9.3,4.1,9.3,9.3v0c0,5.1-4.1,9.3-9.3,9.3h-19.1c-5.1,0-9.3-4.1-9.3-9.3v0
		C519.4,594.6,523.6,590.4,528.7,590.4z"/>
	<circle class="st1" cx="538" cy="599.7" r="5.8"/>
	<path class="st3" d="M463.3,687.1h88.6c8.6,0,15.6,7,15.6,15.6v0c0,8.6-7,15.6-15.6,15.6h-88.6c-8.6,0-15.6-7-15.6-15.6v0
		C447.6,694.1,454.6,687.1,463.3,687.1z"/>
	<path class="st4" d="M465.9,692.3h83.4c5.7,0,10.4,4.7,10.4,10.4v0c0,5.7-4.7,10.4-10.4,10.4h-83.4c-5.7,0-10.4-4.7-10.4-10.4v0
		C455.4,697,460.1,692.3,465.9,692.3z"/>
	<path class="st5" d="M528.7,693.5h19.1c5.1,0,9.3,4.1,9.3,9.3v0c0,5.1-4.1,9.3-9.3,9.3h-19.1c-5.1,0-9.3-4.1-9.3-9.3v0
		C519.4,697.6,523.6,693.5,528.7,693.5z"/>
	<circle class="st1" cx="538" cy="702.8" r="5.8"/>
	<path class="st3" d="M463.3,480.9h88.6c8.6,0,15.6,7,15.6,15.6v0c0,8.6-7,15.6-15.6,15.6h-88.6c-8.6,0-15.6-7-15.6-15.6v0
		C447.6,487.9,454.6,480.9,463.3,480.9z"/>
	<path class="st4" d="M465.9,486.2h83.4c5.7,0,10.4,4.7,10.4,10.4l0,0c0,5.7-4.7,10.4-10.4,10.4h-83.4c-5.7,0-10.4-4.7-10.4-10.4
		l0,0C455.4,490.8,460.1,486.2,465.9,486.2z"/>
	<path class="st5" d="M486.4,505.9h-19.1c-5.1,0-9.3-4.1-9.3-9.3v0c0-5.1,4.1-9.3,9.3-9.3h19.1c5.1,0,9.3,4.1,9.3,9.3v0
		C495.7,501.7,491.6,505.9,486.4,505.9z"/>
	<circle class="st1" cx="477.2" cy="496.6" r="5.8"/>
	<path class="st6" d="M330.1,393.3c0,14.4-7.6,27.7-19.9,35.1l-0.6,0.3l-1.1,0.6l0,0l-1,0.5l-0.2,0.1c-0.4,0.2-0.8,0.4-1.3,0.6
		c-1.4,0.6-2.8,1.2-4.3,1.7c-0.9,0.3-1.9,0.6-2.9,0.8c-2,0.5-4,0.8-6,1c-1.2,0.1-2.5,0.2-3.7,0.2c-1.5,0-3-0.1-4.5-0.2h-0.3
		c-0.5-0.1-1-0.1-1.5-0.2c-1.6-0.3-3.2-0.6-4.8-1.1l-0.8-0.2l-0.7-0.2l-0.2-0.1c-1.4-0.5-2.8-1-4.2-1.6l0,0
		c-2.3-1.1-4.6-2.4-6.7-3.9l-0.1-0.1l-0.1-0.1l-0.7-0.5l-0.6-0.4c-1.1-0.9-2.2-1.8-3.2-2.8c-0.9-0.9-1.8-1.9-2.7-2.8
		c-14.7-17.1-12.8-42.9,4.3-57.6c17.1-14.7,42.9-12.8,57.6,4.3C326.6,374.1,330.1,383.6,330.1,393.3z"/>
	
		<linearGradient id="SVGID_1_" gradientUnits="userSpaceOnUse" x1="311.2224" y1="454.7189" x2="311.2224" y2="512.9557" gradientTransform="matrix(1 0 0 -1 -28 888.96)">
		<stop  offset="0" style="stop-color:#808080;stop-opacity:0.25"/>
		<stop  offset="0.54" style="stop-color:#808080;stop-opacity:0.12"/>
		<stop  offset="1" style="stop-color:#808080;stop-opacity:0.1"/>
	</linearGradient>
	<path class="st7" d="M308.5,429.2L308.5,429.2l-1,0.3c-0.6,0-1.2-0.2-1.6-0.5l-0.3-0.3c-0.2-0.2-0.5-0.4-0.8-0.4h-0.1
		c-0.1,0-0.2,0-0.4,0c0,0,0,0-0.1,0c-0.1-0.1-0.2-0.2-0.2-0.3c-0.2-0.8-0.4-1.6-0.5-2.4c-0.1-0.9-0.1-1.7,0-2.6c0-0.7,0-1.4,0-2.1
		c0.1-0.8,0.2-1.6,0.2-2.3c0-0.8,0-1.7-0.2-2.5c-0.1-0.5-0.3-0.9-0.5-1.3l0,0c-0.1-1.2-0.3-2.3-0.5-3.5c-0.1-0.9-0.3-1.7-0.4-2.6
		c0-0.1,0.1-0.3,0.1-0.4c0.2-1.4-0.4-2.9-1.5-3.8c-0.3-0.3-0.7-0.5-1.1-0.7c-0.3-0.1-0.7-0.3-1-0.4l-5.5-1.7c-0.5-0.8-1-1.5-1.5-2.3
		c-0.4-0.7-0.8-1.5-1.1-2.2c3.7-2.8,4.7-7.9,2.3-11.9c-0.1-0.1-0.2-0.3-0.3-0.4l0,0c0-0.7,0-1.4-0.2-2c0,0,0,0,0-0.1
		c-0.1-0.5-0.4-1.1-0.7-1.5l-0.2-0.2c-0.1-0.1-0.2-0.2-0.3-0.3c-0.4-0.4-0.8-0.7-1.2-1c-1.8-1.4-4.2-3-6.4-3.6
		c-1.1-0.3-2.2-0.3-3.3,0l0,0l-0.2-0.1l-0.3-0.1l0.3,0.1c-1.2-0.3-2.4-0.3-3.5,0.1c-1.4,0.4-1.9,1.6-2.5,2.9c-1,2.1-2.5,3.8-4.3,5.1
		c-1.2,0.8-2.6,1.5-3.2,2.9c-0.6,1.4-0.2,2.7-0.1,4.1c0.3,3.7-1.2,7.4-4.1,9.8c-1.6,1.3-3.8,2.4-4.1,4.5c-0.2,1.5,0.6,2.9,1.2,4.3
		c1.3,2.9,1.7,6.4,0.2,9.2c-0.1,0.3-0.3,0.5-0.5,0.8c0.8,1,1.7,2,2.6,2.9c1,1,2,1.9,3.1,2.8l0.6,0.4l0.7,0.5l0.1,0.1l0.1,0.1
		c2.1,1.5,4.3,2.8,6.6,3.9c0-0.1,0-0.1,0.1-0.1c0,0.1,0,0.1,0,0.2c1.3,0.6,2.7,1.2,4.1,1.7l0.2,0.1l0.7,0.2l0.8,0.2
		c1.6,0.5,3.2,0.8,4.8,1.1c0.5,0.1,1,0.1,1.5,0.2h0.3c1.5,0.2,3,0.2,4.4,0.2c1.2,0,2.5-0.1,3.7-0.2c2-0.2,4-0.5,5.9-1
		c0.2-0.1,0.5-0.1,0.7-0.2c0.7-0.2,1.4-0.4,2.1-0.6c1.4-0.5,2.8-1,4.2-1.7c0.4-0.2,0.9-0.4,1.3-0.6l0.2-0.1L308.5,429.2L308.5,429.2
		C308.5,429.3,308.5,429.3,308.5,429.2z M273.7,428c0-0.1,0-0.1,0-0.2c0-0.2,0-0.5,0-0.7c0-0.1,0.1-0.3,0.2-0.4c0,0.1,0,0.3,0,0.4
		C273.8,427.5,273.8,427.8,273.7,428z"/>
	<path class="st8" d="M308.5,429.3L308.5,429.3l-1.1,0.3c-0.6,0-1.2-0.2-1.6-0.5c-0.1-0.1-0.2-0.2-0.3-0.3c-0.2-0.2-0.5-0.4-0.8-0.4
		h-0.1c-0.1,0-0.2,0-0.4,0c0,0,0,0-0.1,0c-0.1-0.1-0.2-0.2-0.2-0.3c-0.2-0.8-0.4-1.5-0.5-2.3c-0.1-0.9-0.1-1.7,0-2.6
		c0-0.7,0-1.4,0-2l0,0c0.1-0.8,0.2-1.5,0.2-2.3c0-0.8,0-1.7-0.2-2.5c-0.1-0.4-0.3-0.9-0.5-1.3l0,0c-0.1-1.2-0.3-2.3-0.5-3.5
		c-0.1-0.9-0.3-1.7-0.4-2.6c0-0.1,0.1-0.3,0.1-0.4c0.2-1.4-0.4-2.9-1.5-3.8c-0.3-0.3-0.7-0.5-1.1-0.7c-0.3-0.1-0.7-0.3-1-0.4
		l-5.5-1.7c-0.5-0.7-1-1.5-1.5-2.3c-0.4-0.7-0.8-1.4-1.2-2.2c3.7-2.7,4.7-7.8,2.3-11.7c-0.1-0.1-0.2-0.3-0.3-0.4l0,0
		c0-0.7,0-1.4-0.2-2c0,0,0,0,0-0.1c0-0.2-0.1-0.4-0.2-0.6c-0.1-0.3-0.3-0.6-0.6-0.8l-0.2-0.2c-0.1-0.1-0.2-0.2-0.3-0.3
		c-0.4-0.3-0.8-0.7-1.2-0.9c-1.8-1.3-4.3-3-6.5-3.5c-1.1-0.3-2.3-0.3-3.4,0l0,0l-0.2-0.1l-0.3-0.1l0.3,0.1c-1.2-0.3-2.4-0.3-3.6,0.1
		c-1.5,0.4-2,1.6-2.6,2.9c-1,2-2.5,3.8-4.3,5.1c-1.2,0.8-2.6,1.5-3.2,2.9c-0.6,1.3-0.2,2.7-0.1,4c0.3,3.7-1.3,7.3-4.2,9.7
		c-1.7,1.3-3.9,2.4-4.2,4.4c-0.3,1.5,0.6,2.9,1.2,4.2c1.3,2.9,1.7,6.4,0.2,9.1c-0.1,0.3-0.3,0.5-0.5,0.7c0.8,1,1.7,1.9,2.7,2.8
		c1,1,2.1,1.9,3.2,2.8l0.6,0.4l0.7,0.5l0.1,0.1l0.1,0.1c2.1,1.5,4.3,2.8,6.7,3.9c0,0,0-0.1,0.1-0.1c0.1-0.2,0.1-0.3,0.2-0.5
		c0.4-0.5,0.6-1.1,0.8-1.7c0-0.1,0-0.1,0-0.2c0-0.2,0-0.5,0-0.7c0-0.1,0.1-0.3,0.2-0.4c0.1-0.2,0.2-0.3,0.3-0.5
		c0.1-0.1,0.1-0.2,0.2-0.3l0,0c0.1,0.1,0.2,0.3,0.3,0.4c0.3,0.5,0.6,1,0.9,1.4c0.2,0.3,0.4,0.7,0.5,1.1c0,0.2,0,0.5,0,0.7
		c0.1,0.3,0.6,0.6,0.4,0.9c-0.2,0.3-0.2,0.7,0,1c0.1,0.2,0.2,0.3,0.4,0.5l0.2,0.1l0.7,0.2l0.8,0.2c1.6,0.4,3.2,0.8,4.8,1.1
		c0.5,0.1,1,0.1,1.5,0.2h0.3c1.5,0.2,3,0.2,4.5,0.2c1.3,0,2.5-0.1,3.7-0.2c2-0.2,4-0.5,6-1c0.2-0.1,0.5-0.1,0.7-0.2
		c0.7-0.2,1.4-0.4,2.1-0.6c1.4-0.5,2.9-1,4.3-1.7c0.4-0.2,0.9-0.4,1.3-0.6l0.2-0.1L308.5,429.3L308.5,429.3L308.5,429.3z"/>
	<path class="st6" d="M329.2,496.8c0,6.9-1.7,13.6-5,19.6c-0.7,1.3-1.5,2.5-2.3,3.7c-0.8,1.2-1.7,2.4-2.7,3.5
		c-0.1,0.1-0.1,0.1-0.2,0.2c-0.4,0.4-0.8,0.9-1.2,1.3l-0.4,0.5c-0.5,0.5-0.9,0.9-1.4,1.3c-0.1,0.1-0.1,0.1-0.2,0.2
		c-0.2,0.2-0.4,0.4-0.7,0.6c-1.2,1.1-2.5,2.1-3.8,3c-0.7,0.5-1.4,0.9-2.1,1.3l-0.6,0.3l-1.1,0.6l0,0l-0.7,0.4l-0.3,0.1l-0.2,0.1
		c-0.3,0.1-0.6,0.3-0.9,0.4c-0.1,0.1-0.3,0.1-0.4,0.2l-0.9,0.4c-0.8,0.3-1.5,0.6-2.3,0.9l0,0l-1.1,0.4h-0.1c-0.1,0-0.2,0.1-0.3,0.1
		l-0.2,0.1l-0.6,0.2l-0.2,0.1l-0.3,0.1l-0.4,0.1c-0.1,0-0.2,0.1-0.3,0.1l-0.6,0.2l0,0c-0.5,0.1-0.9,0.2-1.4,0.3
		c-1.5,0.3-3.1,0.6-4.7,0.7c-1.2,0.1-2.4,0.2-3.6,0.2h-0.3c-1.1,0-2.3-0.1-3.4-0.1l-1-0.1h-0.3h-0.2l-1.4-0.2l-1.1-0.2l-0.3-0.1
		c-0.5-0.1-1-0.2-1.5-0.3c0,0-0.1,0-0.1,0c-0.6-0.1-1.2-0.3-1.8-0.5l-0.8-0.2l-0.7-0.2l-0.2-0.1l0,0c-1.4-0.5-2.8-1-4.1-1.6l0,0
		c-0.9-0.4-1.8-0.9-2.7-1.4l-0.4-0.2l-0.6-0.3l-0.3-0.2c-0.9-0.5-1.7-1.1-2.6-1.7l-0.1-0.1l-0.1-0.1l-0.7-0.5l-0.6-0.4
		c-1.1-0.9-2.2-1.8-3.2-2.8c-0.9-0.9-1.8-1.9-2.7-2.8c-14.7-17.1-12.8-42.9,4.4-57.6s42.9-12.8,57.6,4.4
		C325.7,477.6,329.2,487.1,329.2,496.8z"/>
	
		<linearGradient id="SVGID_2_" gradientUnits="userSpaceOnUse" x1="313.6804" y1="351.2704" x2="313.6804" y2="404.3295" gradientTransform="matrix(1 0 0 -1 -28 888.96)">
		<stop  offset="0" style="stop-color:#808080;stop-opacity:0.25"/>
		<stop  offset="0.54" style="stop-color:#808080;stop-opacity:0.12"/>
		<stop  offset="1" style="stop-color:#808080;stop-opacity:0.1"/>
	</linearGradient>
	<path class="st9" d="M305.3,533.2c-0.1-0.1-0.1-0.2-0.2-0.3c-0.1-0.1-0.1-0.1-0.2-0.2c-0.6-0.4-0.9-1.2-0.8-1.9c0-0.1,0-0.2,0-0.2
		c-0.2-0.9-0.6-1.8-1-2.6c-0.2-0.5-0.5-1.2-0.7-1.8c-0.3-0.9-0.6-1.7-0.6-1.7s0-0.1,0-0.2c-0.1-0.5-0.4-2.1-0.6-3.5
		c0-0.1,0-0.2,0-0.3c-0.3-1.9-3.4-6.8-3.4-6.8l0,0c0-0.1-0.1-0.1-0.1-0.2c-0.7-0.3-3-1.7-3-1.7c-1.7-2.2-3.4-2.7-4.5-2.8h-0.1h-0.3
		c-0.1,0-0.2,0-0.3,0c-0.2,0-0.3,0.1-0.5,0.1l-0.2,0.1c-0.1,0-0.2,0.1-0.2,0.1l-0.1,0.4c-0.1-1.1,0-2.1,0.2-3.1l0.1-0.3
		c0.2,0,0.3,0,0.5,0c4.7-0.1,8.5-3.9,8.4-8.7c0-0.8-0.1-1.5-0.3-2.2c0,0,0-0.1,0-0.1l0.3-0.1c1-0.4,2.3,0.3,3.2-0.4
		c0.3-0.3,0.5-0.7,0.6-1.1c0.2-0.6,0.4-1.2,0.5-1.8c0-0.2,0-0.4,0-0.6v-0.1c0,0,0,0,0,0c0-0.4-0.2-0.8-0.4-1.1
		c-0.5-0.7-1.5-0.8-2.2-1.3c-0.6-0.5-1-1-1.4-1.7c-0.3-0.6-0.8-1.2-1.3-1.7c-0.6-0.5-1.3-0.6-2-0.3c-0.2,0.1-0.4,0.3-0.7,0.3
		c-0.3,0-0.5-0.1-0.7-0.2c-2.4-1.1-5.2-0.9-7.8-0.6c-1.1,0.1-2.1,0.3-3.1,0.7c-1,0.4-1.7,1.3-2.1,2.3c-0.2,0.8-0.1,1.7-0.3,2.5
		c-0.2,0.5-0.5,1-0.7,1.6c-0.1,0.3-0.2,0.6-0.2,0.9c0,0,0,0,0-0.1s0,0.1,0,0.2v0.4c0.1,1.1,0.3,2.1,0.6,3.2c0.3,1.7,0.2,3.5,0.9,5.1
		c0.1,0.2,0.2,0.4,0.3,0.6c-0.3,0.5-0.5,1.1-0.8,1.6l0,0c-0.1,0-0.3-0.1-0.4-0.1h-0.1h-0.2c-0.1,0-0.2,0-0.3,0l0,0
		c-0.1,0-0.1,0.1-0.2,0.1l-0.1,0.1l-0.1,0c0,0-0.1,0.1-0.1,0.1c0,0,0,0,0,0.1c0,0.1-0.1,0.2-0.1,0.3l0,0c0,0,0,0.1,0,0.1
		c0,0.2,0,0.4-0.1,0.6s0,0.2,0,0.3c0,0.1,0,0.2,0,0.3v0.1c0,0.1,0,0.2-0.1,0.3l-0.1,0.4l-0.1,0.1c-0.1,0.1-0.1,0.2-0.2,0.3l0,0
		l-0.3,0.3c-0.1,0.1-0.2,0.2-0.2,0.3l0,0l0,0l-0.1,0.1c-0.1,0-0.1,0-0.2,0.1c-0.1-0.1-0.3-0.1-1.1,0.8c-1,1.1-2.2,2-3.5,2.7
		c0,0-5.1,3.6-5.4,5.3c-0.3,1.7-1.9,8.9-1.1,11.4c0.1,0.3,0.3,0.8,0.6,1.4v0.1c0,0,0.3,1,0.7,2.4c0.1,0.1,0.2,0.1,0.3,0.2l0.6,0.3
		l0.4,0.2c0.9,0.5,1.8,1,2.7,1.4l0,0c1.3,0.6,2.7,1.2,4.1,1.6l0,0l0.2,0.1l0.7,0.2l0.8,0.2c0.6,0.2,1.2,0.3,1.8,0.5c0,0,0.1,0,0.1,0
		c0.5,0.1,1,0.2,1.5,0.3l0.3,0.1l1.1,0.2l1.4,0.2h0.2h0.3l1,0.1c1.1,0.1,2.2,0.1,3.4,0.1h0.3c1.2,0,2.4-0.1,3.6-0.2
		c1.6-0.1,3.1-0.4,4.7-0.7c0.5-0.1,0.9-0.2,1.4-0.3l0,0l0.6-0.2c0.1,0,0.2,0,0.3-0.1l0.4-0.1l0.3-0.1l0.2-0.1l0.6-0.2l0.2-0.1
		c0.1,0,0.2,0,0.3-0.1h0.1l1.1-0.4l0,0c0.8-0.3,1.6-0.6,2.3-0.9l0.9-0.4c0.1-0.1,0.3-0.1,0.4-0.2
		C305.5,533.6,305.4,533.4,305.3,533.2z M288.4,510.2L288.4,510.2L288.4,510.2L288.4,510.2L288.4,510.2L288.4,510.2z"/>
	<path class="st8" d="M305.3,533.3c-0.1-0.1-0.1-0.2-0.2-0.2c-0.1-0.1-0.1-0.1-0.2-0.2c-0.6-0.4-0.9-1.2-0.8-1.9c0-0.1,0-0.2,0-0.2
		c-0.2-0.9-0.6-1.7-1-2.5c-0.2-0.5-0.5-1.1-0.7-1.8c-0.3-0.9-0.6-1.6-0.6-1.6l0-0.2c-0.1-0.5-0.4-2.1-0.6-3.5c0-0.1,0-0.2,0-0.3
		c-0.3-1.8-3.4-6.7-3.4-6.7l0,0c0-0.1-0.1-0.1-0.1-0.2c-0.7-0.3-3-1.7-3-1.7c-1.7-2.2-3.4-2.7-4.5-2.7h-0.1h-0.3c-0.1,0-0.2,0-0.3,0
		c-0.2,0-0.3,0.1-0.5,0.1l-0.2,0.1c-0.1,0-0.2,0.1-0.2,0.1l-0.1,0.4c-0.1-1,0-2.1,0.2-3.1c0-0.1,0.1-0.2,0.1-0.3c0.2,0,0.3,0,0.5,0
		c4.6,0,8.4-3.8,8.4-8.4v0c0-0.8-0.1-1.6-0.3-2.3V496l0.1,0c1-0.4,2.3,0.3,3.2-0.4c0.3-0.3,0.5-0.7,0.6-1.1c0.2-0.6,0.4-1.1,0.5-1.7
		c0-0.2,0-0.4,0-0.5V492c0,0,0,0,0,0c0-0.4-0.2-0.8-0.4-1.1c-0.5-0.7-1.5-0.8-2.2-1.3c-0.6-0.4-1-1-1.4-1.6
		c-0.3-0.6-0.8-1.2-1.3-1.7c-0.6-0.5-1.3-0.6-2-0.3c-0.2,0.1-0.4,0.2-0.7,0.3c-0.3,0-0.5-0.1-0.7-0.2c-2.4-1.1-5.2-0.9-7.8-0.6
		c-1.1,0.1-2.1,0.3-3.1,0.7c-1,0.4-1.7,1.2-2.1,2.3c-0.2,0.8-0.1,1.7-0.3,2.5c-0.2,0.5-0.5,1-0.7,1.5c-0.1,0.3-0.2,0.6-0.2,0.9
		c0,0,0,0,0-0.1s0,0.1,0,0.2v0.4c0.1,1.1,0.3,2.1,0.6,3.1c0.3,1.7,0.2,3.5,0.9,5.1c0.1,0.2,0.2,0.4,0.3,0.5
		c-0.3,0.5-0.5,1.1-0.8,1.6l0,0c-0.1,0-0.3-0.1-0.4-0.1h-0.1H279c-0.1,0-0.2,0-0.3,0l0,0c-0.1,0-0.1,0.1-0.2,0.1l-0.1,0.1l-0.1,0
		c0,0-0.1,0.1-0.1,0.1c0,0,0,0,0,0.1c0,0.1-0.1,0.2-0.1,0.3l0,0c0,0,0,0.1,0,0.1c0,0.2,0,0.4-0.1,0.5c-0.1,0.2,0,0.2,0,0.3
		c0,0.1,0,0.2,0,0.3s0,0,0,0.1c0,0,0,0.2-0.1,0.3l-0.1,0.4l-0.1,0.1c0,0.1-0.1,0.2-0.2,0.3l0,0c-0.1,0-0.1,0.1-0.2,0.1
		c-0.1,0.1-0.2,0.2-0.2,0.3l0,0l0,0l-0.1,0.1c-0.1,0-0.1,0-0.2,0.1c-0.1-0.1-0.3-0.1-1.1,0.8c-1,1.1-2.2,2-3.5,2.7
		c0,0-5.1,3.6-5.4,5.2c-0.3,1.6-1.9,8.8-1.1,11.2c0.1,0.3,0.3,0.8,0.6,1.4v0.1c0,0,0.3,1,0.7,2.4l0.3,0.2l0.6,0.3l0.4,0.2
		c0.9,0.5,1.8,1,2.7,1.4l0,0c1.4,0.6,2.7,1.2,4.1,1.6l0,0l0.2,0.1l0.7,0.2l0.8,0.2c0.6,0.2,1.2,0.3,1.8,0.5c0,0,0.1,0,0.1,0
		c0.5,0.1,1,0.2,1.5,0.3l0.3,0.1l1.1,0.2l1.4,0.2h0.2h0.3l1,0.1c1.1,0.1,2.2,0.1,3.4,0.1h0.3c1.2,0,2.4-0.1,3.6-0.2
		c1.6-0.1,3.1-0.4,4.7-0.7c0.5-0.1,0.9-0.2,1.4-0.3l0,0l0.6-0.2c0.1,0,0.2,0,0.3-0.1l0.4-0.1l0.3-0.1l0.2-0.1l0.6-0.2l0.2-0.1
		c0.1,0,0.2,0,0.3-0.1h0.1l1.1-0.4l0,0c0.8-0.3,1.6-0.6,2.3-0.9l0.9-0.4c0.1-0.1,0.3-0.1,0.4-0.2
		C305.6,533.5,305.4,533.4,305.3,533.3z M288.4,510.5L288.4,510.5L288.4,510.5L288.4,510.5L288.4,510.5L288.4,510.5z"/>
	<path class="st6" d="M330.1,599.5c0,6.9-1.7,13.6-5,19.6c-0.7,1.3-1.5,2.5-2.3,3.7c-0.8,1.2-1.7,2.4-2.7,3.5
		c-0.1,0.1-0.1,0.1-0.2,0.2c-0.4,0.4-0.8,0.9-1.2,1.3l-0.4,0.5c-0.5,0.5-0.9,0.9-1.4,1.3c-0.1,0.1-0.1,0.1-0.2,0.2
		c-0.2,0.2-0.4,0.4-0.7,0.6c-1.2,1.1-2.5,2.1-3.8,3c-0.7,0.5-1.4,0.9-2.1,1.3l-0.6,0.3l-1.1,0.6l0,0l-0.5,0.3H308l-0.1,0.1l-0.3,0.1
		l-0.2,0.1l-0.9,0.4l-0.4,0.2l-0.9,0.4l-1.2,0.5l0,0l-0.7,0.2l-0.4,0.2l0,0l-1.1,0.4h-0.1l-0.3,0.1l-0.2,0.1l-0.6,0.2l-0.2,0.1h-0.1
		h-0.1h-0.1l-0.4,0.1c-0.1,0-0.2,0.1-0.3,0.1l-0.6,0.2l0,0c-0.5,0.1-0.9,0.2-1.4,0.3c-0.7,0.2-1.5,0.3-2.3,0.4
		c-0.8,0.1-1.6,0.2-2.4,0.3c-1.2,0.1-2.4,0.2-3.6,0.2h-0.3c-1.1,0-2.3-0.1-3.4-0.1l-1-0.1h-0.3h-0.2c-0.4,0-0.9-0.1-1.3-0.2h-0.1
		l-1.1-0.2l-0.3-0.1c-0.5-0.1-1-0.2-1.5-0.3c0,0-0.1,0-0.1,0c-0.6-0.1-1.2-0.3-1.8-0.5l-0.8-0.2l-0.7-0.2l-0.2-0.1l0,0l-0.6-0.2
		l-0.4-0.2l0,0c-0.3-0.1-0.6-0.2-0.9-0.4l0,0l-0.3-0.1l0,0l-0.4-0.2c-0.5-0.2-0.9-0.4-1.3-0.6l0,0c-0.9-0.4-1.8-0.9-2.7-1.4
		l-0.4-0.2l-0.6-0.3l-0.3-0.2c-0.4-0.3-0.9-0.5-1.3-0.9l0,0c-0.4-0.3-0.9-0.6-1.3-0.9l-0.1-0.1l-0.1-0.1l-0.7-0.5l-0.6-0.4
		c-1.1-0.9-2.2-1.8-3.2-2.8c-0.9-0.9-1.8-1.9-2.7-2.8c-14.8-17.1-12.9-42.9,4.1-57.7s42.9-12.9,57.7,4.1
		C326.6,580,330.1,589.6,330.1,599.5z"/>
	<g class="st10">
		<polygon class="st5" points="300.3,638.8 300.3,638.8 300.3,638.8 		"/>
		<path class="st5" d="M306.8,633.7c-0.1,0-0.2-0.1-0.3-0.2l0,0c0.2-0.2,0.5-0.4,0.8-0.4c0.3-0.1,0.4-0.5,0.4-0.9l0,0
			c0-0.4-0.1-0.8-0.3-1.1c-0.1-0.1-0.1-0.2-0.2-0.3l0,0c0.1-0.3,0.3-0.6,0.5-0.9c0.1-0.1,0.1-0.2,0-0.3c0.2-0.6-0.9-0.5-0.9-0.5
			v-5.7c0,0-0.1-0.5-0.2-1.3c-0.1-0.9-0.3-2.2-0.5-3.8c-0.3-3.3-1.6-3.6-1.6-3.6c-0.7-0.2-1.4-0.5-2-0.8c-0.7-0.3-1.4-0.6-2.1-0.8
			c-0.9,0-1.9-0.1-2.7-0.4c-0.6-0.2-1.2-0.3-1.9-0.4l-0.2-0.1c-1.5-0.7-2.7-2-3.4-3.5l0,0c0.3-0.3,0.5-0.7,0.7-1l0,0v0.7l0,0
			c0.9-1.6,3.5-1.9,3.7-3.7v-0.1c0-0.2,0-0.3,0-0.5l0,0l0,0c0-0.1,0-0.2,0-0.2l0,0c0-0.1,0-0.1,0-0.2c0-0.4-0.2-0.9-0.2-1.3v-0.1
			c0-0.1,0-0.3,0.1-0.4c0,0,0-0.1,0-0.1c0-0.1,0.1-0.3,0.1-0.4l0,0c0.4-1,1-1.9,1.4-2.9c0.1-0.2,0.1-0.5,0.2-0.7c0,0,0-0.1,0-0.1
			c0-0.2,0.1-0.5,0.1-0.7v-0.1c0-0.1,0-0.2,0-0.3s0,0.1,0,0.1v-0.1l0,0l0,0c0,0,0,0,0-0.1c0,0,0-0.1,0-0.1c0-0.1,0-0.2,0-0.2
			c0-1.5-0.7-2.8-1.7-3.8c-0.9-0.8-2.1-1.3-2.7-2.3c-0.3-0.5-0.4-1-0.7-1.5c-0.7-0.8-1.7-1.3-2.7-1.3c-1,0-2.1-0.2-3.1-0.4
			c-0.7-0.2-1.3-0.6-2-0.9c-1.6-0.4-3.2,0.2-4.2,1.5c-0.3,0.6-0.7,1.1-1.1,1.6c-1,0.9-2.8,0.5-3.7,1.5c-0.4,0.5-0.6,1.2-0.5,1.9
			c0,0,0,0.1,0,0.1l0,0c0,0.1,0,0.2,0,0.3c0,0,0,0.1,0,0.1c0,0.1,0,0.2,0,0.3c0,0,0,0.1,0,0.1v0.2c0,0.2,0.1,0.5,0.1,0.7
			c0.1,0.4,0.1,0.8,0.1,1.1c0,0.1,0,0.1,0,0.2c-0.1,1.8-0.5,3.5-1.3,5c-0.9,1.7-2.1,3.2-2.3,5.1c0,0.3,0,0.5,0,0.8v-0.1
			c0,0.1,0,0.1,0,0.2v0.3v0.4c0,0.1,0,0.2,0,0.3l0.1,0.4c0,0.1,0,0.2,0,0.2l0.1,0.5v0.1c0.2,0.9,0.6,1.8,0.8,2.7
			c0.1,0.3,0.1,0.6,0.2,0.9c0,0,0,0.1,0,0.1c0,0.3,0,0.5,0.1,0.8l0,0c0,0,0,0,0,0.1l0,0l0,0l0,0v0.1c-0.4,0.2-0.9,0.3-1.3,0.4
			c-0.8,0.1-3.1,2.1-2.9,2.7c0,0.1,0,0.1,0,0.2l0,0c0,0,0,0.1,0,0.1l0,0c-0.3,1.3-0.6,2.5-1.1,3.8l0,0l-1.8,12.7l0,0l0,0
			c0.4,0.3,0.9,0.6,1.3,0.9l0.3,0.2l0.6,0.3l0.4,0.2c0.9,0.5,1.8,1,2.7,1.4l0,0c0.4,0.2,0.9,0.4,1.3,0.6l0.4,0.2l0,0l0.3,0.1l0,0
			c0.1,0.1,0.3,0.3,0.5,0.3h0.4c0.1,0,0.2,0,0.3,0h0.1l0.4,0.2l0.6,0.2l0,0l0.2,0.1l0.7,0.2l0.8,0.2c0.6,0.2,1.2,0.3,1.8,0.5
			c0,0,0.1,0,0.1,0c0.5,0.1,1,0.2,1.5,0.3l0.3,0.1l1.1,0.2h0.1c0.4,0.1,0.9,0.1,1.3,0.2h0.2h0.3l1,0.1c1.1,0.1,2.2,0.1,3.4,0.1h0.3
			c1.2,0,2.4-0.1,3.6-0.2c0.8-0.1,1.6-0.2,2.4-0.3s1.5-0.3,2.3-0.4c0.5-0.1,0.9-0.2,1.4-0.3l0,0l0.6-0.2c0.1,0,0.2,0,0.3-0.1
			l0.4-0.1h0.1l0,0c0-0.6-0.1-1.1-0.1-1.5c0.1,0.2,0.3,0.3,0.3,0.4c0,0.1,0.1,0.1,0.1,0.2l0,0c-0.1,0.3-0.3,0.6-0.3,0.9l0,0l0,0h0.1
			l0.2-0.1l0.6-0.2l0.2-0.1l0.3-0.1h0.1l1.1-0.4l0,0l0.4-0.2l0.7-0.2l0,0l1.2-0.5l0.9-0.4l0.4-0.2l0.9-0.4l0.2-0.1l0.3-0.1l0.1-0.1
			h0.1c0-0.2,0-0.4,0-0.6l0,0v-0.1l0,0v-0.2C308,634.5,307.6,634,306.8,633.7z M273.9,613.4"/>
		<path class="st5" d="M268.2,637.4l-0.2-0.1C268.1,637.4,268.2,637.4,268.2,637.4z"/>
	</g>
	<path class="st6" d="M330.1,703c0,6.9-1.7,13.6-5,19.6c-0.7,1.3-1.5,2.5-2.3,3.7c-0.8,1.2-1.7,2.4-2.7,3.5c0,0.1-0.1,0.1-0.2,0.2
		l0,0c-0.4,0.4-0.8,0.9-1.2,1.3l-0.1,0.1l-0.3,0.3c-0.5,0.5-0.9,0.9-1.4,1.3c-0.1,0.1-0.1,0.1-0.2,0.2c-0.2,0.2-0.4,0.4-0.7,0.6
		c-0.9,0.8-1.9,1.6-2.8,2.3l-0.2,0.1l-0.4,0.3c-0.2,0.1-0.3,0.2-0.5,0.3c-0.7,0.5-1.4,0.9-2.1,1.3l-0.3,0.2l-0.2,0.1l-1.1,0.6l0,0
		l-0.5,0.3H308l-0.1,0.1l-0.3,0.1l-0.2,0.1l-0.9,0.4l-0.4,0.2l-0.9,0.4l-1.2,0.5l0,0l-0.7,0.2l-0.4,0.2l0,0l-0.2,0.1l-0.9,0.3h-0.1
		l-0.3,0.1l-0.2,0.1L301,742l-0.4,0.1l-0.2,0.1h-0.1h-0.1h-0.1l-0.4,0.1c-0.1,0-0.2,0.1-0.3,0.1l-0.6,0.2l0,0
		c-0.5,0.1-0.9,0.2-1.4,0.3c-0.7,0.2-1.5,0.3-2.3,0.4c-0.5,0.1-0.9,0.1-1.4,0.2h-0.2l-0.9,0.1c-1.2,0.1-2.4,0.2-3.6,0.2h-1
		c-0.9,0-1.8-0.1-2.7-0.1h-0.3l-0.7-0.1h-0.3h-0.2l-0.9-0.1l-0.4-0.1h-0.1l-1.1-0.2l-0.3-0.1l-0.7-0.1l-0.3-0.1l-0.5-0.1
		c0,0-0.1,0-0.1,0c-0.6-0.1-1.2-0.3-1.8-0.5l-0.3-0.1h-0.1l-0.4-0.1l-0.3-0.1l-0.4-0.1l-0.2-0.1l0,0l-0.6-0.2l-0.4-0.2l0,0l-0.4-0.2
		l-0.5-0.2l0,0l-0.3-0.1l0,0l-0.4-0.2c-0.5-0.2-0.9-0.4-1.3-0.6l0,0c-0.7-0.3-1.4-0.6-2-1c-0.2-0.1-0.5-0.2-0.7-0.4l-0.2-0.1l0,0
		l-0.2-0.1l-0.6-0.3l-0.3-0.2c-0.4-0.3-0.9-0.5-1.3-0.9l0,0c-0.4-0.3-0.9-0.6-1.3-0.9l-0.1-0.1l-0.1-0.1l-0.4-0.3l-0.4-0.3l-0.1-0.1
		c-0.2-0.1-0.3-0.3-0.5-0.4c-1.1-0.9-2.2-1.8-3.2-2.8c-0.9-0.9-1.8-1.9-2.7-2.8c-14.8-17.1-13-42.9,4.1-57.7
		c17.1-14.8,42.9-13,57.7,4.1C326.6,683.5,330.1,693.1,330.1,703z"/>
	<path class="st8" d="M315.5,721.2c-0.3-0.7-1.1-0.9-1.8-0.6l-11.9,6.1c0-0.2-0.1-0.3-0.1-0.5l0,0c0-0.4-0.2-0.7-0.5-0.9
		c-0.1-0.1-0.2-0.1-0.3-0.3l0,0c0-0.1,0-0.2,0-0.3l0,0c0-0.2,0-0.4-0.1-0.6c0-0.4-0.3-0.9-0.7-1.1h0c0-0.1,0-0.2,0-0.3
		c0-0.2-0.1-0.4-0.2-0.5l0,0c0-0.6-0.5-1.1-1.3-1.9c-0.3-0.3-0.5-0.7-0.7-1.2c0,0,0,0,0-0.1c-0.1-0.6-0.3-1.2-0.5-1.8
		c-0.1-0.4-0.2-0.7-0.3-1.1c-0.6-1.7-1.3-1.4-1.6-1.7c-0.3-0.3-2.2-0.7-3.1-1.2c-0.8-0.4-3.5,0-4.3,0.2c0-0.1,0-0.1,0-0.2
		c4-1.2,6.4-5.3,5.6-9.4l-0.1-0.2c0.4,0,0.8-0.1,1.2-0.2c0.3-0.3,0.5-0.6,0.6-1c0.2-0.8,0.3-1.6,0.2-2.3c0-0.1-0.1-0.2-0.1-0.2
		c0-0.1,0-0.1-0.1-0.2l0,0l0,0l0,0c0-0.1,0-0.1,0-0.2c-0.1-0.2-0.2-0.5-0.3-0.7c0,0,0,0,0,0.1c-0.6-0.9-1.3-1.8-2-2.7
		c-0.7-1-1.1-2.4-2.1-3.1c-1.1-0.6-2.4-0.6-3.6-0.2c-0.5,0.2-1.1,0.3-1.7,0.4c-1,0-1.9,0-2.9-0.2c-1.4-0.1-2.7,0.3-3.8,1
		c-0.2,0.2-0.5,0.4-0.6,0.6c-0.2,0.4-0.3,0.7-0.3,1.1c-0.1,0.7-0.4,1.4-0.7,2.1c-0.3,0.5-0.7,0.9-0.9,1.5c-0.3,0.5-0.4,1.1-0.3,1.7
		c0.1,0.3,0.3,0.6,0.3,0.9c0,0.7-0.2,1.4-0.6,2c-0.3,0.6-0.4,1.2-0.4,1.9c0,0.5,0.2,1,0.5,1.4l0,0l0,0c0,0.1,0.1,0.2,0.2,0.4l0,0.1
		c0.1,0.1,0.1,0.2,0.2,0.2l0.1,0.1l0.2,0.2c0.5,0.3,1.1,0.5,1.7,0.5l0,0c0,0.1,0.1,0.2,0.1,0.3v0.2c0,0,0,0.1,0,0.1
		c-0.1,0-1.8,0.2-2.3,1c-0.6,0.5-1.3,0.8-2.1,0.9c0,0-1.7,0.6-1.7,0.7c0,0.1-0.5,0.3-1.6,0.6c-1.1,0.3-2.8,1.3-2.8,1.6
		s-2.8,3-2.8,3.3c-0.5,1-0.8,2.1-0.7,3.2c0.1,1.9,0.2,4.2-0.2,4.6c-0.4,0.4,0,1.9,0,1.9c0.2,0.3,0.2,0.8,0,1.1
		c-0.4,0.6,0.1,3.3,0.1,3.3v2.8c0.1,0.4,0.1,0.8,0.2,1.2l0.1,0.1l0.4,0.3l0.4,0.3l0.1,0.1l0.1,0.1c0.4,0.3,0.9,0.6,1.3,0.9l0,0
		c0.4,0.3,0.9,0.6,1.3,0.9l0.3,0.2l0.6,0.3l0.2,0.1l0,0l0.2,0.1c0.2,0.1,0.5,0.3,0.7,0.4c0.7,0.4,1.3,0.7,2,1l0,0
		c0.4,0.2,0.9,0.4,1.3,0.6l0.4,0.2l0,0l0.3,0.1l0,0l0.5,0.2l0.4,0.2l0,0l0.4,0.2l0.6,0.2l0,0l0.2,0.1l0.4,0.1l0.3,0.1l0.4,0.1h0.1
		l0.3,0.1c0.6,0.2,1.2,0.3,1.8,0.5c0,0,0.1,0,0.1,0l0.5,0.1l0.3,0.1l0.7,0.1l0.3,0.1l1.1,0.2h0.1l0.4,0.1l0.9,0.1h0.2h0.3l0.7,0.1
		h0.3c0.9,0.1,1.7,0.1,2.7,0.1h1c1.2,0,2.4-0.1,3.6-0.2l0.9-0.1h0.2c0.5-0.1,0.9-0.1,1.4-0.2c0.8-0.1,1.5-0.3,2.3-0.4
		c0.5-0.1,0.9-0.2,1.4-0.3l0,0l0.6-0.2c0.1,0,0.2,0,0.3-0.1l0.4-0.1h0.1h0.1h0.1l0.2-0.1l0.4-0.1l0.2-0.1l0.2-0.1l0.3-0.1h0.1
		l0.9-0.3l0.2-0.1l0,0l0.4-0.2l0.7-0.2l0,0l1.2-0.5l0.9-0.4l0.4-0.2l0.9-0.4l0.2-0.1l0.3-0.1l0.1-0.1h0.1l0.5-0.3l0,0l1.1-0.6
		l0.2-0.1l0.3-0.2c0.7-0.4,1.4-0.9,2.1-1.3c0.2-0.1,0.3-0.2,0.5-0.3h0.2l0.2-0.3l0.2-0.1c1-0.7,1.9-1.5,2.8-2.3
		c0.2-0.2,0.5-0.4,0.7-0.6c0.1-0.1,0.1-0.1,0.2-0.2c0.5-0.4,0.9-0.9,1.4-1.3l0.3-0.3l0.1-0.1c0.4-0.4,0.8-0.9,1.2-1.3l0,0
		L315.5,721.2z M295.7,734.9l-0.2,0.1c0-0.1,0-0.1,0.1-0.2c0,0-1.3,0.1-2.7,0.2c0-0.2,0-0.5,0.1-0.7c0.3-1,0.5-1.9,0.7-2.9l0,0
		l2.3,3.5L295.7,734.9z M296.2,741.6c0-0.1,0-0.2,0-0.3c0.1-0.1,0.1-0.1,0.1-0.1c0-0.4-0.1-0.8-0.1-1.2l0,0h0.2l2.4-0.4
		c0,0,0.3,0,0.9-0.1l0.2,0.4c-1.1,0.3-2.2,0.8-3.1,1.4C296.7,741.4,296.5,741.5,296.2,741.6L296.2,741.6z"/>
	<path class="st11" d="M747,381l-3.5-3.5c-0.7-0.7-1.9-0.7-2.6,0c0,0,0,0,0,0L719.3,399l-9.1-9.2c-0.7-0.7-1.8-0.7-2.6,0
		c0,0,0,0,0,0l-3.5,3.5c-0.7,0.7-0.7,1.9,0,2.6c0,0,0,0,0,0l13.9,14c0.7,0.7,1.9,0.7,2.6,0c0,0,0,0,0,0l26.4-26.2
		C747.7,383,747.8,381.8,747,381C747.1,381.1,747,381.1,747,381z"/>
	<path class="st11" d="M747,482.9l-3.5-3.5c-0.7-0.7-1.9-0.7-2.6,0c0,0,0,0,0,0l-21.6,21.5l-9.1-9.2c-0.7-0.7-1.8-0.7-2.6,0
		c0,0,0,0,0,0l-3.5,3.5c-0.7,0.7-0.7,1.9,0,2.6c0,0,0,0,0,0l13.9,14c0.7,0.7,1.9,0.7,2.6,0c0,0,0,0,0,0l26.4-26.3
		C747.7,484.8,747.7,483.7,747,482.9C747,482.9,747,482.9,747,482.9z"/>
	<path class="st11" d="M747,688.5l-3.5-3.5c-0.7-0.7-1.9-0.7-2.6,0c0,0,0,0,0,0l-21.6,21.4l-9.1-9.2c-0.7-0.7-1.9-0.7-2.6,0
		c0,0,0,0,0,0l-3.5,3.5c-0.7,0.7-0.7,1.9,0,2.6c0,0,0,0,0,0l13.9,14c0.7,0.7,1.9,0.7,2.6,0l26.4-26.2
		C747.7,690.5,747.8,689.3,747,688.5C747.1,688.6,747,688.6,747,688.5z"/>
	<path class="st5" d="M837.3,812.7c-0.2-1.2-5.7-29.9,10.7-67.8c6.4-14.8,5.9-27.6-1.6-38c-3.4-4.7-7.9-8.6-13-11.2l1.9-4.3
		c5.9,3,11.1,7.4,15,12.8c5.8,8.1,10.9,22.1,2.1,42.6c-15.8,36.7-10.4,64.8-10.4,65.1L837.3,812.7z"/>
	<path class="st5" d="M861.7,742c6.6-0.6,12.1-1.2,12.2,0.9s-5,6-11.6,6.6s-12.1-0.6-12.2-2.7C849.9,744.6,855.1,742.5,861.7,742z"
		/>
	<path class="st4" d="M861.7,742c6.6-0.6,12.1-1.2,12.2,0.9s-5,6-11.6,6.6s-12.1-0.6-12.2-2.7C849.9,744.6,855.1,742.5,861.7,742z"
		/>
	<path class="st5" d="M861.7,742c6.4-0.5,11.7-1.4,11.9,0.3c0.1,1.7-4.9,5.4-11.4,6c-6.4,0.5-11.7-0.4-11.9-2.2
		C850.2,744.4,855.3,742.5,861.7,742z"/>
	<path class="st12" d="M850.4,746.2c5,0.1,10-0.2,15-0.9c0.9-0.1,1.9-0.3,2.8-0.4c1.7-0.3,3.5-2.4,5.2-2.6"/>
	<path class="st5" d="M850.1,780.2c6.6-0.6,12.1-1.2,12.2,0.9c0.2,2-5,6-11.6,6.6c-6.6,0.6-12.1-0.6-12.2-2.7
		C838.3,782.9,843.5,780.8,850.1,780.2z"/>
	<path class="st4" d="M850.1,780.2c6.6-0.6,12.1-1.2,12.2,0.9c0.2,2-5,6-11.6,6.6c-6.6,0.6-12.1-0.6-12.2-2.7
		C838.3,782.9,843.5,780.8,850.1,780.2z"/>
	<path class="st5" d="M850.1,780.3c6.4-0.5,11.7-1.4,11.9,0.3c0.1,1.7-4.9,5.4-11.3,6c-6.4,0.5-11.7-0.4-11.9-2.2
		C838.7,782.7,843.7,780.8,850.1,780.3z"/>
	<path class="st12" d="M838.9,784.5c5,0.1,10-0.2,15-0.9c0.9-0.1,1.9-0.3,2.8-0.4c1.7-0.3,3.5-2.4,5.2-2.6"/>
	<path class="st5" d="M840.2,738.6c-6.2-2.4-11.3-4.5-12-2.6c-0.7,1.9,3.1,7.2,9.3,9.6s11.8,2.8,12.5,0.9
		C850.8,744.5,846.4,741,840.2,738.6z"/>
	<path class="st4" d="M840.2,738.6c-6.2-2.4-11.3-4.5-12-2.6c-0.7,1.9,3.1,7.2,9.3,9.6s11.8,2.8,12.5,0.9
		C850.8,744.5,846.4,741,840.2,738.6z"/>
	<path class="st5" d="M840.2,738.6c-6-2.3-10.9-4.7-11.5-3s3.2,6.6,9.2,8.9c6,2.3,11.4,2.9,12,1.3
		C850.5,744.2,846.2,740.9,840.2,738.6z"/>
	<path class="st12" d="M849.8,745.8c-4.8-1.3-9.5-3-14.1-5.1c-0.9-0.4-1.7-0.8-2.6-1.2c-1.6-0.7-2.7-3.2-4.3-4"/>
	<path class="st5" d="M830,777c-6.2-2.4-11.3-4.5-12-2.6c-0.7,1.9,3.1,7.2,9.3,9.6c6.2,2.4,11.8,2.8,12.5,0.9
		C840.5,782.9,836.1,779.4,830,777z"/>
	<path class="st4" d="M830,777c-6.2-2.4-11.3-4.5-12-2.6c-0.7,1.9,3.1,7.2,9.3,9.6c6.2,2.4,11.8,2.8,12.5,0.9
		C840.5,782.9,836.1,779.4,830,777z"/>
	<path class="st5" d="M829.9,777c-6-2.3-10.9-4.6-11.5-3c-0.6,1.6,3.2,6.6,9.2,8.9c6,2.3,11.4,2.9,12,1.3S835.9,779.3,829.9,777z"/>
	<path class="st12" d="M839.5,784.2c-4.8-1.3-9.6-3-14.1-5.1c-0.9-0.4-1.7-0.8-2.6-1.2c-1.6-0.7-2.7-3.2-4.3-4"/>
	<path class="st5" d="M827.6,784.9c-6.3,2.1-11.6,3.6-10.9,5.6c0.6,2,7,3.5,13.3,1.5c6.3-2.1,10.8-5.3,10.2-7.3
		S833.9,782.9,827.6,784.9z"/>
	<path class="st4" d="M827.6,784.9c-6.3,2.1-11.6,3.6-10.9,5.6c0.6,2,7,3.5,13.3,1.5c6.3-2.1,10.8-5.3,10.2-7.3
		S833.9,782.9,827.6,784.9z"/>
	<path class="st5" d="M827.6,785c-6.1,2-11.3,3.3-10.8,5c0.5,1.7,6.7,3.1,12.8,1c6.1-2,10.6-5,10.1-6.7
		C839.1,782.7,833.7,783,827.6,785z"/>
	<path class="st12" d="M839.6,784.4c-4.6,2.1-9.3,3.7-14.1,5l-2.7,0.7c-1.7,0.4-4.1-0.8-5.8-0.4"/>
	
		<ellipse transform="matrix(-0.9717 -0.2362 0.2362 -0.9717 1526.7035 1575.8344)" class="st5" cx="857.7" cy="696.5" rx="18.6" ry="9.3"/>
	
		<ellipse transform="matrix(-0.9717 -0.2362 0.2362 -0.9717 1526.7035 1575.8344)" class="st4" cx="857.7" cy="696.5" rx="18.6" ry="9.3"/>
	
		<ellipse transform="matrix(-0.9717 -0.2362 0.2362 -0.9717 1526.6683 1575.9238)" class="st5" cx="857.7" cy="696.5" rx="18.1" ry="8.5"/>
	<path class="st12" d="M840.2,692.4c7.1,3.2,14.6,5.4,22.3,6.5c1.5,0.2,2.9,0.4,4.3,0.6l8.2,1"/>
	
		<ellipse transform="matrix(-0.9753 -0.2209 0.2209 -0.9753 1509.7532 1513.8302)" class="st5" cx="839.5" cy="672.5" rx="9.3" ry="18.6"/>
	
		<ellipse transform="matrix(-0.9753 -0.2209 0.2209 -0.9753 1509.7532 1513.8302)" class="st4" cx="839.5" cy="672.5" rx="9.3" ry="18.6"/>
	
		<ellipse transform="matrix(-0.9753 -0.2209 0.2209 -0.9753 1509.8416 1513.8638)" class="st5" cx="839.6" cy="672.5" rx="8.5" ry="18.1"/>
	<path class="st12" d="M835.8,690.1c3.1-7.2,5.2-14.7,6.2-22.4c0.2-1.5,0.3-2.9,0.5-4.3l0.9-8.2"/>
	
		<ellipse transform="matrix(-0.9753 -0.2209 0.2209 -0.9753 1482.5577 1591.4446)" class="st5" cx="830.3" cy="712.8" rx="9.3" ry="18.6"/>
	
		<ellipse transform="matrix(-0.9753 -0.2209 0.2209 -0.9753 1482.5577 1591.4446)" class="st4" cx="830.3" cy="712.8" rx="9.3" ry="18.6"/>
	
		<ellipse transform="matrix(-0.9753 -0.2209 0.2209 -0.9753 1482.6425 1591.4774)" class="st5" cx="830.3" cy="712.8" rx="8.5" ry="18.1"/>
	<path class="st12" d="M826.5,730.4c3.1-7.2,5.1-14.7,6.1-22.4c0.2-1.5,0.3-2.9,0.5-4.3l0.9-8.2"/>
	
		<ellipse transform="matrix(-0.9717 -0.2362 0.2362 -0.9717 1440.0535 1546.0686)" class="st5" cx="812.6" cy="686.8" rx="18.6" ry="9.3"/>
	
		<ellipse transform="matrix(-0.9717 -0.2362 0.2362 -0.9717 1440.0535 1546.0686)" class="st4" cx="812.6" cy="686.8" rx="18.6" ry="9.3"/>
	
		<ellipse transform="matrix(-0.9717 -0.2362 0.2362 -0.9717 1440.0162 1546.1752)" class="st5" cx="812.6" cy="686.8" rx="18.1" ry="8.5"/>
	<path class="st12" d="M795.1,682.7c7.1,3.2,14.6,5.4,22.3,6.5c1.5,0.2,2.9,0.4,4.3,0.6l8.2,1"/>
	
		<ellipse transform="matrix(-0.6043 -0.7967 0.7967 -0.6043 793.8329 1804.6647)" class="st5" cx="845" cy="705.2" rx="15.9" ry="7.9"/>
	
		<ellipse transform="matrix(-0.6043 -0.7967 0.7967 -0.6043 793.8329 1804.6647)" class="st4" cx="845" cy="705.2" rx="15.9" ry="7.9"/>
	
		<ellipse transform="matrix(-0.6043 -0.7967 0.7967 -0.6043 793.7524 1804.6736)" class="st5" cx="845" cy="705.2" rx="15.5" ry="7.3"/>
	<path class="st12" d="M835.6,693.1c3,6,6.8,11.5,11.3,16.4c0.9,0.9,1.7,1.8,2.6,2.7l4.9,5"/>
	<ellipse transform="matrix(-0.6 -0.8 0.8 -0.6 771.5712 1754.3069)" class="st5" cx="824.4" cy="684.3" rx="15.9" ry="7.9"/>
	<ellipse transform="matrix(-0.6 -0.8 0.8 -0.6 771.5712 1754.3069)" class="st4" cx="824.4" cy="684.3" rx="15.9" ry="7.9"/>
	
		<ellipse transform="matrix(-0.6043 -0.7967 0.7967 -0.6043 780.9244 1745.5361)" class="st5" cx="823.9" cy="678.9" rx="15.5" ry="7.3"/>
	<path class="st12" d="M814.5,666.7c3,6,6.8,11.5,11.3,16.4c0.9,0.9,1.7,1.8,2.6,2.7l4.9,5"/>
	
		<ellipse transform="matrix(-0.6045 -0.7966 0.7966 -0.6045 811.1216 1769.8912)" class="st5" cx="844.9" cy="683.6" rx="6.8" ry="13.6"/>
	
		<ellipse transform="matrix(-0.6045 -0.7966 0.7966 -0.6045 811.1216 1769.8912)" class="st4" cx="844.9" cy="683.6" rx="6.8" ry="13.6"/>
	
		<ellipse transform="matrix(-0.6045 -0.7966 0.7966 -0.6045 811.106 1769.8247)" class="st5" cx="844.9" cy="683.5" rx="6.2" ry="13.2"/>
	<path class="st12" d="M855.3,675.4c-5.1,2.5-9.8,5.8-14,9.6c-0.8,0.7-1.6,1.5-2.3,2.2l-4.3,4.2"/>
	
		<ellipse transform="matrix(-0.4985 -0.8669 0.8669 -0.4985 627.9303 1761.7212)" class="st5" cx="823.6" cy="699.2" rx="6.8" ry="13.6"/>
	
		<ellipse transform="matrix(-0.4985 -0.8669 0.8669 -0.4985 627.9303 1761.7212)" class="st4" cx="823.6" cy="699.2" rx="6.8" ry="13.6"/>
	
		<ellipse transform="matrix(-0.4985 -0.8669 0.8669 -0.4985 627.934 1761.663)" class="st5" cx="823.5" cy="699.2" rx="6.2" ry="13.2"/>
	<path class="st12" d="M812.1,705.5c4.3-3.7,9.1-6.8,14.3-9.1c1-0.4,2-0.9,2.9-1.3l5.5-2.3"/>
	
		<ellipse transform="matrix(-0.6118 -0.791 0.791 -0.6118 794.8073 1765.2399)" class="st5" cx="830.6" cy="687.6" rx="5.8" ry="2.9"/>
	
		<ellipse transform="matrix(-0.6118 -0.791 0.791 -0.6118 794.8073 1765.2399)" class="st4" cx="830.6" cy="687.6" rx="5.8" ry="2.9"/>
	
		<ellipse transform="matrix(-0.6118 -0.791 0.791 -0.6118 794.8419 1765.2393)" class="st5" cx="830.6" cy="687.6" rx="5.7" ry="2.7"/>
	<path class="st12" d="M827.2,683.1c1.8,1.6,3.4,3.5,4.7,5.6c0.2,0.4,0.5,0.8,0.7,1.2l1.3,2.2"/>
	
		<ellipse transform="matrix(-0.6118 -0.791 0.791 -0.6118 799.1354 1786.1095)" class="st5" cx="837.8" cy="697" rx="5.8" ry="2.9"/>
	
		<ellipse transform="matrix(-0.6118 -0.791 0.791 -0.6118 799.1354 1786.1095)" class="st4" cx="837.8" cy="697" rx="5.8" ry="2.9"/>
	
		<ellipse transform="matrix(-0.6118 -0.791 0.791 -0.6118 799.1516 1786.0967)" class="st5" cx="837.8" cy="697" rx="5.7" ry="2.7"/>
	<path class="st12" d="M834.5,692.4c1.8,1.6,3.4,3.5,4.7,5.6c0.2,0.4,0.5,0.8,0.7,1.2l1.3,2.2"/>
	<circle class="st5" cx="834.3" cy="692.3" r="1.2"/>
	<circle class="st12" cx="834.3" cy="692.3" r="1.2"/>
	<g class="st13">
		<path class="st5" d="M105.4,752.9c-0.6-6.7-0.5-13.5,0.2-20.2c0-0.3,0.1-0.6,0.1-0.9c0.1-0.6,0.1-1.1,0.2-1.7c0-0.2,0-0.4,0.1-0.5
			c0.1-0.7,0.2-1.4,0.3-2.1c0,0,0,0,0-0.1c1.7-11.4,4.8-22.5,9.3-33.1l0.3-0.8c0.1-0.3,0.2-0.5,0.3-0.8s0.1-0.3,0.2-0.5
			s0.1-0.3,0.2-0.4c0.3-0.7,0.6-1.4,0.9-2.1v-0.1c4.1-11,4.2-20,2.3-27.1c-0.1-0.2-0.1-0.5-0.2-0.7c-1.1-4.1-3-7.9-5.4-11.3
			l-0.4-0.5c-0.3-0.4-0.6-0.7-0.9-1.1c-2.5-3.1-5.5-5.9-8.8-8.2l-0.5-0.4c-0.3-0.2-0.5-0.4-0.8-0.5c-0.3-0.2-0.5-0.3-0.7-0.4
			c-0.4-0.2-0.7-0.5-1.1-0.6l-0.5-0.3c-0.7-0.4-1.1-0.6-1.2-0.6l-0.1,0.2l-0.2,0.4v0.1v0l-0.1,0.2v0.1v0.1l-0.1,0.3v0.1l-0.1,0.2
			v0.1l-0.2,0.5l-0.4,1l-0.1,0.1l-0.1,0.2l-0.1,0.2l-0.2,0.5l0.3,0.2l0.2,0.1c0,0,0,0,0.1,0h0.1l0.1,0.1l0.2,0.1l0.6,0.3l0.4,0.2
			c0.7,0.4,1.6,1,2.5,1.6l0.9,0.7l0.4,0.3c0.4,0.3,0.9,0.7,1.3,1l0,0l0.4,0.3c0.2,0.2,0.5,0.4,0.7,0.7l0.1,0.1
			c0.7,0.7,1.4,1.4,2.1,2.2c0.9,1,1.8,2.1,2.6,3.2c0.3,0.4,0.5,0.8,0.8,1.2c0.9,1.3,1.7,2.7,2.3,4.2l0,0c0.9,1.9,1.5,3.9,2,5.9
			c0,0.1,0.1,0.3,0.1,0.4c1.6,7.3,0.5,15.4-3.1,24.4c0,0,0,0.1,0,0.1c-0.2,0.5-0.4,0.9-0.6,1.4v0.1c-0.1,0.1-0.1,0.2-0.1,0.3
			l-0.6,1.4c-0.1,0.3-0.3,0.6-0.4,0.9c-4.4,10.6-7.4,21.7-9.1,33.1c0,0,0,0.1,0,0.1c-0.1,0.7-0.2,1.3-0.3,1.9v0.2c0,0,0,0.1,0,0.1
			v0.2c-0.1,0.5-0.1,1-0.2,1.5l0,0l-0.1,0.5c0,0.1,0,0.3,0,0.4c-0.1,0.6-0.1,1.2-0.2,1.7c0,0.4-0.1,0.8-0.1,1.2
			c-0.5,5.3-0.5,10.5-0.2,15.8L105.4,752.9z"/>
		<path class="st5" d="M125.6,687.9c6.5-0.6,11.9-1.2,12.1,0.9c0.2,2-5,5.9-11.5,6.5c-6.5,0.6-11.9-0.6-12.1-2.7
			S119.1,688.5,125.6,687.9z"/>
		<path class="st0" d="M125.6,687.9c6.5-0.6,11.9-1.2,12.1,0.9c0.2,2-5,5.9-11.5,6.5c-6.5,0.6-11.9-0.6-12.1-2.7
			S119.1,688.5,125.6,687.9z"/>
		<path class="st5" d="M125.6,688c6.3-0.5,11.6-1.4,11.8,0.3c0.1,1.7-4.9,5.4-11.2,5.9c-6.3,0.5-11.6-0.4-11.8-2.1
			C114.2,690.3,119.2,688.5,125.6,688z"/>
		<path class="st8" d="M114.5,692.1c4.9,0.1,9.9-0.2,14.8-0.9l2.8-0.4c1.7-0.3,3.4-2.3,5.1-2.6L114.5,692.1z"/>
		<path class="st5" d="M114.1,725.8c6.5-0.6,11.9-1.2,12.1,0.9c0.2,2-5,5.9-11.5,6.5s-11.9-0.6-12.1-2.7
			C102.4,728.5,107.6,726.4,114.1,725.8z"/>
		<path class="st0" d="M114.1,725.8c6.5-0.6,11.9-1.2,12.1,0.9c0.2,2-5,5.9-11.5,6.5s-11.9-0.6-12.1-2.7
			C102.4,728.5,107.6,726.4,114.1,725.8z"/>
		<path class="st5" d="M114.2,725.8c6.3-0.5,11.6-1.4,11.8,0.3c0.1,1.7-4.9,5.4-11.2,5.9c-6.3,0.5-11.6-0.4-11.8-2.2
			C102.8,728.2,107.8,726.4,114.2,725.8z"/>
		<path class="st8" d="M103,730c4.9,0.1,9.9-0.2,14.8-0.9c0.9-0.1,1.9-0.3,2.8-0.4c1.7-0.3,3.5-2.3,5.1-2.6L103,730z"/>
		<path class="st5" d="M104.4,684.6c-6.1-2.4-11.1-4.5-11.9-2.6s3.1,7.1,9.2,9.5s11.6,2.8,12.4,0.9
			C114.8,690.4,110.5,687,104.4,684.6z"/>
		<path class="st0" d="M104.4,684.6c-6.1-2.4-11.1-4.5-11.9-2.6s3.1,7.1,9.2,9.5s11.6,2.8,12.4,0.9
			C114.8,690.4,110.5,687,104.4,684.6z"/>
		<path class="st5" d="M104.4,684.6c-5.9-2.3-10.8-4.6-11.4-3c-0.6,1.6,3.2,6.5,9.1,8.8c5.9,2.3,11.3,2.9,11.9,1.3
			C114.6,690.1,110.3,686.9,104.4,684.6z"/>
		<path class="st8" d="M113.8,691.8c-4.8-1.3-9.4-3-13.9-5l-2.6-1.2c-1.6-0.7-2.6-3.2-4.2-3.9L113.8,691.8z"/>
		<path class="st5" d="M94.2,722.6c-6.1-2.4-11.1-4.5-11.9-2.6s3.1,7.1,9.2,9.5c6.1,2.4,11.6,2.8,12.4,0.9
			C104.6,728.4,100.3,724.9,94.2,722.6z"/>
		<path class="st0" d="M94.2,722.6c-6.1-2.4-11.1-4.5-11.9-2.6s3.1,7.1,9.2,9.5c6.1,2.4,11.6,2.8,12.4,0.9
			C104.6,728.4,100.3,724.9,94.2,722.6z"/>
		<path class="st5" d="M94.2,722.6c-5.9-2.3-10.8-4.6-11.4-3c-0.6,1.6,3.2,6.5,9.1,8.8c5.9,2.3,11.3,2.9,11.9,1.3
			C104.4,728.1,100.1,724.9,94.2,722.6z"/>
		<path class="st8" d="M103.7,729.7c-4.8-1.3-9.4-3-13.9-5l-2.5-1.2c-1.6-0.7-2.6-3.2-4.2-3.9L103.7,729.7z"/>
		<path class="st5" d="M91.9,730.5c-6.2,2-11.4,3.6-10.8,5.5c0.6,1.9,6.9,3.5,13.1,1.5c6.2-2,10.7-5.3,10.1-7.2
			C103.7,728.3,98.1,728.4,91.9,730.5z"/>
		<path class="st0" d="M91.9,730.5c-6.2,2-11.4,3.6-10.8,5.5c0.6,1.9,6.9,3.5,13.1,1.5c6.2-2,10.7-5.3,10.1-7.2
			C103.7,728.3,98.1,728.4,91.9,730.5z"/>
		<path class="st5" d="M91.9,730.5c-6.1,2-11.2,3.3-10.7,4.9s6.6,3,12.6,1c6.1-2,10.5-4.9,10-6.6C103.3,728.2,97.9,728.5,91.9,730.5
			z"/>
		<path class="st8" d="M103.8,729.9c-4.5,2-9.2,3.7-14,5c-0.9,0.2-1.8,0.5-2.7,0.7c-1.7,0.4-4.1-0.8-5.8-0.4L103.8,729.9z"/>
		
			<ellipse transform="matrix(-0.9717 -0.2362 0.2362 -0.9717 87.9655 1296.4083)" class="st5" cx="121.6" cy="642.9" rx="18.4" ry="9.2"/>
		
			<ellipse transform="matrix(-0.9717 -0.2362 0.2362 -0.9717 87.9655 1296.4083)" class="st0" cx="121.6" cy="642.9" rx="18.4" ry="9.2"/>
		
			<ellipse transform="matrix(-0.9717 -0.2362 0.2362 -0.9717 87.9243 1296.514)" class="st5" cx="121.6" cy="643" rx="17.9" ry="8.4"/>
		<path class="st8" d="M104.3,638.9c7,3.2,14.5,5.3,22.1,6.4c1.4,0.2,2.9,0.4,4.3,0.5l8.1,0.9L104.3,638.9z"/>
		
			<ellipse transform="matrix(-0.9753 -0.2209 0.2209 -0.9753 67.9045 1246.061)" class="st5" cx="103.6" cy="619.2" rx="9.2" ry="18.4"/>
		
			<ellipse transform="matrix(-0.9753 -0.2209 0.2209 -0.9753 67.9045 1246.061)" class="st0" cx="103.6" cy="619.2" rx="9.2" ry="18.4"/>
		
			<ellipse transform="matrix(-0.9753 -0.2209 0.2209 -0.9753 67.993 1246.0947)" class="st5" cx="103.7" cy="619.2" rx="8.4" ry="17.9"/>
		<path class="st8" d="M99.9,636.6c3.1-7.1,5.1-14.5,6.1-22.2c0.2-1.4,0.3-2.9,0.5-4.3l0.8-8.1L99.9,636.6z"/>
		
			<ellipse transform="matrix(-0.9753 -0.2209 0.2209 -0.9753 41.0108 1322.8264)" class="st5" cx="94.5" cy="659.1" rx="9.2" ry="18.4"/>
		
			<ellipse transform="matrix(-0.9753 -0.2209 0.2209 -0.9753 41.0108 1322.8264)" class="st0" cx="94.5" cy="659.1" rx="9.2" ry="18.4"/>
		
			<ellipse transform="matrix(-0.9753 -0.2209 0.2209 -0.9753 41.1099 1322.8821)" class="st5" cx="94.5" cy="659.1" rx="8.4" ry="17.9"/>
		<path class="st8" d="M90.8,676.5c3.1-7.1,5.1-14.5,6.1-22.2c0.2-1.4,0.3-2.9,0.5-4.3l0.8-8.1L90.8,676.5z"/>
		
			<ellipse transform="matrix(-0.9717 -0.2362 0.2362 -0.9717 2.2251 1266.9844)" class="st5" cx="77" cy="633.4" rx="18.4" ry="9.2"/>
		
			<ellipse transform="matrix(-0.9717 -0.2362 0.2362 -0.9717 2.2251 1266.9844)" class="st0" cx="77" cy="633.4" rx="18.4" ry="9.2"/>
		
			<ellipse transform="matrix(-0.9717 -0.2362 0.2362 -0.9717 2.185 1267.0861)" class="st5" cx="77" cy="633.4" rx="17.9" ry="8.4"/>
		<path class="st8" d="M59.7,629.4c7,3.2,14.5,5.3,22.1,6.4c1.4,0.2,2.9,0.4,4.3,0.5l8.1,0.9L59.7,629.4z"/>
		
			<ellipse transform="matrix(-0.6043 -0.7967 0.7967 -0.6043 -344.0983 1132.2313)" class="st5" cx="109.1" cy="651.6" rx="15.7" ry="7.8"/>
		
			<ellipse transform="matrix(-0.6043 -0.7967 0.7967 -0.6043 -344.0983 1132.2313)" class="st0" cx="109.1" cy="651.6" rx="15.7" ry="7.8"/>
		
			<ellipse transform="matrix(-0.6043 -0.7967 0.7967 -0.6043 -344.1787 1132.2402)" class="st5" cx="109.1" cy="651.6" rx="15.3" ry="7.2"/>
		<path class="st8" d="M99.8,639.6c2.9,5.9,6.7,11.3,11.2,16.2c0.9,0.9,1.7,1.8,2.6,2.7l4.8,5L99.8,639.6z"/>
		
			<ellipse transform="matrix(-0.6043 -0.7967 0.7967 -0.6043 -356.7969 1073.7109)" class="st5" cx="88.2" cy="625.5" rx="15.7" ry="7.8"/>
		
			<ellipse transform="matrix(-0.6043 -0.7967 0.7967 -0.6043 -356.7969 1073.7109)" class="st0" cx="88.2" cy="625.5" rx="15.7" ry="7.8"/>
		
			<ellipse transform="matrix(-0.6043 -0.7967 0.7967 -0.6043 -356.8745 1073.7351)" class="st5" cx="88.2" cy="625.5" rx="15.3" ry="7.2"/>
		<path class="st8" d="M78.9,613.5c2.9,5.9,6.7,11.3,11.2,16.2c0.9,0.9,1.7,1.8,2.6,2.7l4.8,5L78.9,613.5z"/>
		
			<ellipse transform="matrix(-0.6045 -0.7966 0.7966 -0.6045 -327.1085 1097.8701)" class="st5" cx="109" cy="630.1" rx="6.7" ry="13.4"/>
		
			<ellipse transform="matrix(-0.6045 -0.7966 0.7966 -0.6045 -327.1085 1097.8701)" class="st0" cx="109" cy="630.1" rx="6.7" ry="13.4"/>
		
			<ellipse transform="matrix(-0.6045 -0.7966 0.7966 -0.6045 -327.1284 1097.7981)" class="st5" cx="109" cy="630.1" rx="6.1" ry="13.1"/>
		<path class="st8" d="M119.2,622.1c-5,2.5-9.7,5.7-13.8,9.6c-0.8,0.7-1.5,1.5-2.3,2.2l-4.3,4.1L119.2,622.1z"/>
		
			<ellipse transform="matrix(-0.4985 -0.8669 0.8669 -0.4985 -428.0618 1043.604)" class="st5" cx="87.8" cy="645.6" rx="6.7" ry="13.4"/>
		
			<ellipse transform="matrix(-0.4985 -0.8669 0.8669 -0.4985 -428.0618 1043.604)" class="st0" cx="87.8" cy="645.6" rx="6.7" ry="13.4"/>
		
			<ellipse transform="matrix(-0.4985 -0.8669 0.8669 -0.4985 -428.0507 1043.5327)" class="st5" cx="87.8" cy="645.6" rx="6.1" ry="13.1"/>
		<path class="st8" d="M76.5,651.9c4.3-3.7,9-6.7,14.2-9c1-0.4,1.9-0.9,2.9-1.3l5.5-2.3L76.5,651.9z"/>
		
			<ellipse transform="matrix(-0.6118 -0.791 0.791 -0.6118 -348.8143 1097.1321)" class="st5" cx="94.8" cy="634.2" rx="5.8" ry="2.9"/>
		
			<ellipse transform="matrix(-0.6118 -0.791 0.791 -0.6118 -348.8143 1097.1321)" class="st0" cx="94.8" cy="634.2" rx="5.8" ry="2.9"/>
		
			<ellipse transform="matrix(-0.6118 -0.791 0.791 -0.6118 -348.795 1097.1345)" class="st5" cx="94.8" cy="634.2" rx="5.6" ry="2.6"/>
		<path class="st8" d="M91.4,629.7c1.8,1.6,3.4,3.5,4.7,5.5c0.2,0.4,0.5,0.8,0.7,1.2l1.3,2.2L91.4,629.7z"/>
		
			<ellipse transform="matrix(-0.6118 -0.791 0.791 -0.6118 -344.5363 1117.7684)" class="st5" cx="102" cy="643.4" rx="5.8" ry="2.9"/>
		
			<ellipse transform="matrix(-0.6118 -0.791 0.791 -0.6118 -344.5363 1117.7684)" class="st0" cx="102" cy="643.4" rx="5.8" ry="2.9"/>
		
			<ellipse transform="matrix(-0.6118 -0.791 0.791 -0.6118 -344.5201 1117.7557)" class="st5" cx="102" cy="643.4" rx="5.6" ry="2.6"/>
		<path class="st8" d="M98.6,639c1.8,1.6,3.4,3.5,4.7,5.5c0.2,0.4,0.5,0.8,0.7,1.2l1.3,2.2L98.6,639z"/>
		<circle class="st5" cx="98.4" cy="638.8" r="1.2"/>
		<circle class="st8" cx="98.4" cy="638.8" r="1.2"/>
	</g>
</g>
<g id="_x23_woman_x28_stand_x2C_present_x29_">
	<ellipse class="st0" cx="209.6" cy="808.6" rx="128.4" ry="9.1"/>
	
		<linearGradient id="SVGID_3_" gradientUnits="userSpaceOnUse" x1="229.5007" y1="76.9921" x2="229.5007" y2="369.6758" gradientTransform="matrix(-1 0 0 -1 444 888.96)">
		<stop  offset="0" style="stop-color:#808080;stop-opacity:0.25"/>
		<stop  offset="0.54" style="stop-color:#808080;stop-opacity:0.12"/>
		<stop  offset="1" style="stop-color:#808080;stop-opacity:0.1"/>
	</linearGradient>
	<path class="st14" d="M142.4,625.7c1.6,2.4,3.1,7.7,3,8.6c-0.1,0.9,4.3,5.8,5.6,7.3c1,1.4,1.9,2.9,2.7,4.5l4.1,7.7
		c2.6-0.9,5-2,7.4-3.3l1.5,0.2c1.1-0.1,2.3-0.3,3.4-0.5c0,0.2-0.1,0.4-0.1,0.6c-0.7,5.7-1.2,10.4-1.2,10.4s1.4,5.1,3.3,3.5l0.1-0.1
		c0.1,0.2,0.1,0.5,0.2,0.9c0.8,3.9,1.1,7.9,1,11.9c-0.4,5.9,0.9,14.8,0.9,14.8s2.7-0.2,6.7-0.5c0.1,0.3,0.2,0.6,0.3,0.9l0,0
		c0.4,1,0.8,2.1,1.3,3.2l0.1,0.2c0.1,0.1,0.1,0.3,0.2,0.4l0.1,0.3l0.2,0.4l0.2,0.4l0.1,0.3l0.2,0.6c0,0.1,0.1,0.1,0.1,0.2
		c0.1,0.2,0.1,0.3,0.2,0.5l0.1,0.2l0.2,0.5l0.1,0.1c0.3,0.6,0.5,1.2,0.8,1.7v0.1l0.2,0.4v0.1l0.2,0.4l0,0c0.1,0.1,0.1,0.2,0.2,0.3
		c1.7,2.7,3,7.5,3,7.5l1.6,9.9c0,0,0.3,2.4,0.5,4.5c0.1,0.8,0.1,1.5,0.1,2.1c0,0.2,0,0.5,0,1c0,0.1,0,0.1,0,0.2l0,0
		c0.1,1.8,0.5,5.2,1,9.2c0.1,0.8,0.2,1.6,0.3,2.5l0,0c-0.3,5-0.2,10,0.3,15c0,0-1.2,18.6-0.9,20.4c0.2,1-0.7,3.3-1.4,5.2l-0.2-0.2
		c0,0-4.1,4.3-4.1,9.4c0.1,5,0.5,11.8,0.5,11.8s0.4,2.7-0.5,3.5c-0.9,0.7,0,4.6,0,4.6s7.3,6.7,13.4-0.6c0,0,1.2-4.1,0.7-6.8
		c0-0.2-0.1-0.5-0.1-0.9c-0.1-2.9-0.3-5.8-0.7-8.6l-0.7-5.2c0.8-0.1,1.9-4.2,1.4-5.2c-0.5-1,0.5-5.2,0.5-5.2l1.8-5.6l0,0
		c0.1,0.2,0.2,0.4,0.2,0.6v0.1c0,0.1,0.1,0.2,0.1,0.2v0.1l0.3,0.9l0,0l0.1,0.3v0.1c0.1,0.3,0.2,0.6,0.3,1l0,0l0.1,0.3v0.1
		c0.1,0.3,0.2,0.6,0.2,0.9v0.1l0.1,0.3c0,0,0,0.1,0,0.1c0,0,0,0.2,0,0.2c0,0,0,0.1,0,0.1c0,0.1,0,0.3,0,0.4c0,0,0,0.1,0,0.1v0.3
		c0,0.1,0,0.1,0,0.2v0.2c0,0,0,0.1,0,0.1c-0.3,2-0.1,4,0.6,6v0.1c0,0.1,0.1,0.2,0.1,0.2c0,0.1,0,0.1,0.1,0.1c0,0.1,0.1,0.2,0.1,0.3
		l0,0c0.1,0.2,0.2,0.4,0.3,0.5l0,0l-0.2,20c0,0,2.9,4.4,9.5,3.5c6.6-0.9,5.7-8.1,4.7-9.3c-0.9-1.1-1.4-6.2-1.4-6.2
		s-1.2-8.3-1.9-11.3c-0.2-1.1-0.8-2.1-1.8-2.6c-0.3-0.9-0.7-1.8-0.7-1.9c-0.7-1.3-1.2-2.6-1.7-4c-0.1-0.5-0.2-1-0.1-1.4
		c0-0.3,0-0.6,0-0.9l0,0c0-0.1,0-0.2,0-0.3V770c0-0.1,0-0.2,0-0.3l0,0c-0.2-5-1.4-18.8-2-26l0,0c1-5.3,1.7-9.4,1.5-10
		c-0.4-1.4,0.6-11.4,0.6-11.4s1.2-10.2,2.9-13.4c1.1-2.1,3.3-10.1,4.7-15.3c0.1-0.3,0.2-0.6,0.2-0.9c1.5,0,2.9-0.4,4.2-1
		c0,0-1-8.9,1.5-13.5c1.7-3.1,2.9-17.1,2.9-26.3c0-0.5,0-0.9,0-1.3c2.1,1.7,3.5,4.1,4,3.9c5.1-2.6,9.9-5.6,14.6-9
		c5.7-4.6-10.2-30.4-11.9-32.4c-1.8-2-5.5-24.9-5.5-24.9c0.6,0.7,1.3,1.3,2.2,1.5c1.2,0.2,3.3,1.8,5.7,3.8c2.4,2,13.4,0,13.4,0
		c8,0.4,9.5-6.4,9.5-6.4s4-9.2,4.1-12.5c0.2-3.3,6.1-16.5,6.1-16.5c-1.3-2.1-3.1-3.7-5.3-4.8c0.4-1.4,1.1-2.6,1.9-3
		c2.5-1.1,30.1-11.3,20.3-14.8s-24.8,7.8-24.8,7.8s-0.8,0.3-2,2.8c-0.7,1.3-1.5,3.6-2.2,5.4c-0.1,0.2-0.1,0.4-0.2,0.6l-0.4,0
		c0,0-3.6,7.7-3.6,9.6c0,1.8-4.3,10.6-4.3,10.6s-2.2,2.2-1.4,4c0.8,1.8-1.7,1.4-1.7,1.4l-3.4-2.7c0,0-2.9-1.9-4.3-2.2
		c-1.4-0.3-3.8-2.8-3.8-2.8s-2.8-1.8-2.6-2.1c0.2-0.3-1.5-1.7-2.6-2.2c-1-0.5-1.5-1.5-2.5-3.3c-1-1.8-2.6-0.5-3.3-0.8
		c-0.8-0.3-10.4,0.9-11.4,1.1c-1,0.2-4.4,0.3-6.2-0.9c-1.2-0.7-2.6-0.9-3.9-0.4c-0.4-0.8-0.7-1.6-0.9-2.4c0-0.1-0.1-0.3-0.1-0.4
		C207,556,211,550,211,543.3c0-4-1.5-7.9-4.1-10.9c-0.2-0.3-0.5-0.5-0.7-0.8l0,0c0.9-0.5,2.3-1.4,2.3-2.5c0-0.4-0.2-0.8-0.5-1.1
		c-0.3-0.4-0.9-0.6-1.2-1c-0.4-0.4-0.5-1-0.5-1.5c0-0.7,0.2-1.5,0.2-2.2c0-0.3,0-0.6-0.1-0.9c-0.4-1.2-1.5-2.1-2.9-2.2
		c0,0,0,0,0,0.1c-0.5-0.1-1-0.1-1.5-0.1c-1.8,0.2-3.5,1-5.2,1.2c-2.8,0.3-5.5-0.9-8.2-1.6s-6-0.7-7.8,1.3s-1.7,5.5-4.1,7
		c-1.1,0.7-2.4,0.8-3.6,1.3c-1.3,0.6-2.3,1.6-3,2.9c-1.8,2.8-2.6,6.2-2.3,9.6c0.2,1.8,0.7,3.6,0.9,5.4c0.2,1.9,0.1,3.8-0.4,5.6
		c-0.5,1.9-1.5,3.9-3.5,4.5c-0.4,0.1-0.9,0.2-1.3,0.4c-1.1,0.7-0.9,2.3-0.7,3.5l1.1,5.1c-1.1,0.8-2.8,0.5-3.8,1.3
		c-0.4,0.4-0.7,0.9-0.9,1.4c-1,2.7-0.3,5.7,1.7,7.8c0,0.1-0.1,0.2-0.1,0.3c0,0.1-0.1,0.4-0.2,0.7c-0.9,4.4-0.6,5-1.2,5.7l0,0
		c-1.1,2-2.4,3.9-3.8,5.7c-0.9,1-1.3,2.3-1.4,3.7c0,0-4.7,6.8-6.1,7.6c-1.4,0.8-3.7,6-3.7,6s-3.6,2.4-3.6,5.1
		c-0.1,2.2-0.3,4.5-0.7,6.7C140.2,618.5,140.8,623.3,142.4,625.7z M155.7,621.5c0.7-1.1,0-3.1,0-3.1s4.6-6,5.2-9.4
		c0.6-3.4,4.8-5.7,4.8-5.7l0,0c0,0,2.2-0.9,2.3,0s0.5,2.7,0.5,2.7s-0.4,4.4,1.2,6.2c1.6,1.8,1.9,9.2,1.9,9.2s2.6,7.3,1.4,9.6
		c-0.4,0.8-1.1,4.8-1.8,9.6c-0.6-0.1-1.2-0.2-1.7-0.2c-0.5-0.5-3.6-3.3-5.3-3.9c-1.8-0.6-3.5-5.7-3.6-6.8s-1.6-5-3.3-5.7
		S155,622.6,155.7,621.5z"/>
	<path class="st15" d="M269.6,558.6c-2.6-4.3-7.6-6.6-12.5-5.9v8.9h5.4l4.3-1.1L269.6,558.6z"/>
	<path class="st4" d="M269.6,558.6c-2.6-4.3-7.6-6.6-12.5-5.9v8.9h5.4l4.3-1.1L269.6,558.6z"/>
	<path class="st16" d="M256.7,555.1l6.6,4.7c0,0,0.1-0.9,0.2-2.2c0.3-2.4,1.1-6,2.7-6.7c2.4-1.1,29.6-11.3,20-14.7
		s-24.4,7.8-24.4,7.8s-0.8,0.3-2,2.8c-0.6,1.3-1.5,3.6-2.1,5.4C257.2,553.7,256.7,555.1,256.7,555.1z"/>
	<polygon class="st15" points="203.6,562.2 202.8,561.9 200.7,564.3 202.4,568 205.4,566.8 204.7,563.9 	"/>
	<path class="st17" d="M213.6,779.2c0,0,1.9-0.2,2.7,2.7c0.8,3,1.9,11.2,1.9,11.2s0.5,5,1.4,6.2c0.9,1.1,1.8,8.3-4.7,9.2
		c-6.5,0.9-9.3-3.5-9.3-3.5l0.2-20L213.6,779.2z"/>
	<path class="st17" d="M191,780.1c0,0-4.1,4.3-4,9.3c0.1,5,0.5,11.8,0.5,11.8s0.4,2.7-0.5,3.5c-0.8,0.7,0,4.6,0,4.6
		s7.2,6.7,13.2-0.6c0,0,1.2-4.1,0.7-6.8c-0.5-2.7-1.8-14.6-1.8-14.6L191,780.1z"/>
	<path class="st16" d="M180.9,688.7c0,0,4.1,11.5,5.9,14.2c1.8,2.7,3,7.5,3,7.5l1.6,9.9c0.3,2.2,0.5,4.4,0.5,6.7
		c-0.1,2.2,4,34.5,4,34.5l6.4,8.2c0,0,2.8,5.7,2.4,8.1c-0.5,2.4,0.3,6.2,1.2,7.3c0,0,0.2,7.5,0.4,9.2c0.2,1.7-0.9,6.4,0,7.3
		c0.9,0.8,12.1,0.5,12.4-0.9c0.3-1.3-1.4-8-1.4-8l-1-6.4c0,0-2-3.5-1.5-4.7s-0.9-3.8-0.9-4c0-0.2-2.1-4-1.7-5.4
		c0.4-1.5-2.4-32.2-2.4-32.2l-7.8-55.2L180.9,688.7z"/>
	<path class="st4" d="M180.9,688.7c0,0,0.6,1.7,1.5,4c1.4,3.6,3.3,8.6,4.4,10.2c1.7,2.7,3,7.5,3,7.5l1.6,9.9
		c0.3,2.2,0.5,4.4,0.5,6.6c0,0.9,0.6,6.5,1.3,12.9c1.2,9.8,2.6,21.6,2.6,21.6l6.4,8.2c0,0,0.3,0.7,0.7,1.6c0.8,1.9,1.9,4.9,1.6,6.5
		c-0.5,2.4,0.3,6.2,1.2,7.3c0,0,0.2,7.5,0.4,9.2c0.2,1.7-0.9,6.4,0,7.3s12.1,0.5,12.4-0.9c0.3-1.3-1.4-8-1.4-8l-1-6.4
		c0,0-2-3.5-1.5-4.7c0.5-1.2-0.9-3.8-0.9-4c0-0.2-2.1-4-1.7-5.4c0.3-1.1-1.2-19.2-2-27.8c-0.2-2.7-0.4-4.5-0.4-4.5l-6.8-47.5
		l-0.5-3.8l-0.6-3.9L180.9,688.7z"/>
	<path class="st16" d="M187.8,803.6c-0.1,0.9,10.8,2.1,12.3,1.1c1.5-0.9,0-12.3,0-12.3l-0.7-5.2c0.8-0.1,1.9-4.2,1.4-5.2
		c-0.5-1,0.5-5.2,0.5-5.2l1.8-5.6l1.1-3.5c1.7-3.9,4.3-15.2,6-23.6c1-5.3,1.7-9.4,1.5-10c-0.4-1.4,0.6-11.4,0.6-11.4
		s1.2-10.2,2.9-13.4c1.1-2.1,3.3-10.1,4.6-15.2c0.7-2.6,1.2-4.5,1.2-4.5s-11.6-1-18.5-1.3c-3.2-0.2-5.5-0.2-5.2,0.1
		c0.3,0.3,0.3,1.7,0.3,3.7c0,5.2-0.8,14.5-1.5,16.9c-1.1,3.5-2.1,13.8-1.7,14.7c0.5,1,0.3,7.6,0.3,7.6c-0.8,2.7-1.2,5.5-1.3,8.3
		c-0.2,5-0.2,10,0.3,14.9c0,0-1.1,18.6-0.9,20.3c0.3,1.7-2.4,7.3-2.4,8.3s-0.8,8.3-0.8,8.3S187.9,802.8,187.8,803.6z"/>
	<path class="st16" d="M181.7,580.5l1.3,1.4l0.9,0.9l5,5.4l12.9,1.5l6.9-1.8l1.7-0.5c0,0,0-3.5-0.3-7.6c-0.4-5.3-1.5-11.7-4-13.5
		c-1.3-1-2.3-2.2-2.9-3.7c-0.5-1-0.9-2-1.2-3.1c-0.1-0.1-0.1-0.3-0.1-0.4c-0.6-1.8-1-3.7-1.2-5.7c0,0-1.7-0.9-3.9-2
		c-6-2.8-16.3-6.6-12.7,2c0.5,1.3,1,2.6,1.3,3.9c0.1,0.2,0.1,0.4,0.1,0.6c1.2,4.8,0.4,7.7-0.5,9.3l0,0c-0.2,0.3-0.3,0.5-0.5,0.8
		c-0.2,0.3-0.5,0.6-0.9,0.9l-1.5,9.4l-0.1,0.8L181.7,580.5z"/>
	<path class="st4" d="M183.9,553.9C184.6,555.5,183.6,552.6,183.9,553.9c2.7,1.9,9.1,7.5,12.7,7.5c2.4,0,3.2-0.4,5.2-1.4
		c-0.6-2-1.1-4-1.3-6.1C200.5,553.9,179,542,183.9,553.9z"/>
	<path class="st16" d="M178.4,543.9c0,8.5,6.4,15.6,14.9,16.5c0.6,0.1,1.2,0.1,1.7,0.1c9.2,0,16.7-7.4,16.7-16.6
		c0-9.2-7.4-16.7-16.6-16.7C185.9,527.2,178.5,534.6,178.4,543.9C178.4,543.8,178.4,543.8,178.4,543.9L178.4,543.9z"/>
	<path class="st4" d="M176.1,617.7l2.4,6.2c0,0,1.9,0.1,4.9,0.2c10.2,0.3,32.6,0.7,33.6-1.9c0.2-0.7,0.3-1.4,0.3-2.1
		c0.1-4-1.7-10.1-1.7-10.1s-1.1-12.2-1.1-12.8c0-0.6,0.9-9.2,0.9-9.2l-1.8-6.9l-5.1-3.6c0,0-2.3,3.5-3.7,3.8c-1.2,0.4-2.3,1.1-3.2,2
		c0,0-4.5,2.7-6,1.2c-1.5-1.5-12.8-8.2-12.8-8.2l-6,6.6L176.1,617.7z"/>
	<path class="st1" d="M176.1,618.6l2.4,6.2c0,0,1.9,0.1,4.9,0.2h0.3c1.3,0,2.8,0.1,4.3,0.1c8.1,0.2,19.2,0.2,25-0.6
		c2.2-0.3,3.6-0.8,3.9-1.4c0.1-0.4,0.2-0.7,0.3-1.1c0-0.3,0.1-0.6,0.1-0.9c0.1-4-1.7-10.1-1.7-10.1s-1.1-12.2-1.1-12.8
		s0.9-9.1,0.9-9.1l-1.8-6.9l-3.5-2.5l-1.6-1.1c-0.5,0.8-1.1,1.6-1.7,2.3c-0.5,0.7-1.2,1.2-1.9,1.5c-1.2,0.4-2.3,1.1-3.2,2
		c0,0-4.5,2.8-6,1.2c-1.1-1.2-8-5.4-11.2-7.3l-1.6-1l-0.8,0.9l-5.2,5.7L176.1,618.6z"/>
	<path class="st4" d="M256.7,555.1l6.6,4.7c0,0,0.1-0.9,0.2-2.2c-2.5-1.2-4.5-3.1-5.9-5.4C257.2,553.7,256.7,555.1,256.7,555.1z"/>
	<path class="st3" d="M233.4,570.9l1.5-0.4c0,0,2.4,2.5,3.7,2.8c1.4,0.3,4.3,2.2,4.3,2.2l3.4,2.7c0,0,2.5,0.4,1.7-1.4s1.4-4,1.4-4
		s4.3-8.8,4.3-10.6s3.5-9.6,3.5-9.6s4.4,8.6,12.5,5.9c0,0-5.9,13.2-6,16.5s-4.1,12.5-4.1,12.5s-1.4,6.8-9.3,6.4c0,0-10.8,2-13.2,0
		c-2.4-2-4.5-3.6-5.7-3.8c-0.9-0.3-1.6-0.8-2.1-1.5v-9.1L233.4,570.9z"/>
	<path class="st4" d="M246.9,579.5c0,0-1.9,7.1-0.7,7.9L246.9,579.5z"/>
	<path class="st4" d="M183.4,625c10.2,0.3,32.6,0.7,33.6-1.9c0.2-0.7,0.3-1.4,0.3-2.1l-33.2,1.7L183.4,625z"/>
	<path class="st4" d="M180.9,688.7c0,0,0.6,1.7,1.5,4c4.2-0.3,9.8-0.5,15.1-0.6c1.9,0,3.7,0,5.4,0.1c3,0,6,0.3,8.9,1
		c2.6,0.8,5.2,1.1,7.9,1c0.7-2.6,1.2-4.5,1.2-4.5s-11.6-1-18.5-1.3l-0.6-3.9L180.9,688.7z"/>
	<path class="st18" d="M171.9,660.8l1.3,2.7c0,0,0.2,0.8,0.4,2.1c0.8,3.9,1.1,7.9,1,11.9c-0.4,5.9,0.9,14.8,0.9,14.8
		s28.1-2.4,36.4,0s12.3,0,12.3,0s-1-8.9,1.4-13.4c1.7-3.1,2.8-17.1,2.9-26.2c0-4.2-0.2-7.4-0.7-8.1c-1.7-2.1-8.9-22.7-8.9-22.7
		l-1.6,0.1l-4.3,0.2l-24.9,1.3l-3.9,0.2l-0.4,1.3L171.9,660.8z"/>
	<path class="st15" d="M159.6,651.6l-0.2,2.4c0,0,12.3-4,11.7-8.9c-0.6-4.9,0-4.3,0-4.3l-9.9,0.9L159.6,651.6z"/>
	<path class="st4" d="M159.6,651.6l-0.2,2.4c0,0,12.3-4,11.7-8.9c-0.6-4.9,0-4.3,0-4.3l-9.9,0.9L159.6,651.6z"/>
	<path class="st4" d="M238.7,581.5c-1.3,1.1-2.7,1.8-4.3,2.3c0.5-0.1,0.9-0.3,1.3-0.6c0.9-0.6,1.7-1.3,2.6-2
		c0.7-0.7,1.5-1.2,2.4-1.6C240.1,580.2,239.4,580.9,238.7,581.5z"/>
	<path class="st4" d="M238.5,584.7c-0.4,0.4-0.7,1-0.9,1.5c-0.2,0.6-0.3,1.3-0.3,2c-0.1,0.9,0,1.9,0.3,2.8l2-4.8
		c0.3-0.8,0.7-1.6,1.1-2.4c0.2-0.3,1.3-1.7,1.2-2C241.6,581,238.9,584.2,238.5,584.7z"/>
	<path class="st4" d="M183.5,611c-1.3-0.2-2.6-0.7-3.6-1.7c2,0.3,4,1.1,6,1.5c1.9,0.4,3.8,0.2,5.5-0.5
		C189.1,611.5,186,611.5,183.5,611z"/>
	<path class="st4" d="M189.2,597.1c0.4,0.1,0.7,0,1-0.3c1.5-0.9,3-1.8,4.5-2.7c1.6-0.9,3-1.9,4.4-3.1
		C196.1,593.8,193.3,596.1,189.2,597.1z"/>
	<path class="st4" d="M185,613.3c-0.8,0-1.6,0-2.4-0.2c-0.8-0.2-1.5-0.6-2-1.3c0.3-0.1,0.6,0,0.8,0.1c2.4,1,5.1,1.3,7.7,0.9
		C187.8,613.2,186.4,613.4,185,613.3z"/>
	<path class="st4" d="M199.5,648.7c1.6,0.5,3.2,0.8,4.9,1c1.3,0.1,2.6,0,3.9-0.1l6.3-0.4l3.1-0.2c0.4,0,1.9,0,1.1-0.7
		c-0.4-0.4-2.5-0.1-3-0.1c-1,0-2.1-0.1-3.1-0.1c-2.1,0-4.1,0-6.2,0.1C204.1,648.3,201.8,648.5,199.5,648.7z"/>
	<path class="st4" d="M206.7,651.8c1.1,0,2.4,0.6,3.5,0.7c1.2,0.1,2.5,0.2,3.7,0.1c2.4-0.1,4.8-0.6,7.1-1.5
		C216.2,651.5,211.5,651.7,206.7,651.8z"/>
	<path class="st4" d="M220,655.1c-0.5,0.1-0.9,0.2-1.4,0.4c-2.6,0.8-5.4,0.1-8.1-0.6c0.8,0.9,1.9,1.6,3.1,1.7c2,0.5,4,0.6,6,0.2
		c0.6-0.1,2.2-0.3,2.5-1C222.7,654.9,220.7,655,220,655.1z"/>
	<path class="st4" d="M205.3,660c-0.8,0.2-1.6,0.4-2.3,0.6c-3,0.7-6-0.3-9-1c-3.6-0.8-7.3-1.2-10.9-1c0.8,0.2,1.6,0.4,2.3,0.8
		c0.9,0.3,1.7,0.5,2.5,0.7c1.7,0.4,3.4,0.7,5.1,1c3.5,0.5,7,0.7,10.4,0.5c1.6-0.1,4.3,0.1,5.7-0.7C208,660.2,206.6,659.9,205.3,660z
		"/>
	<path class="st4" d="M204.2,565.8c0,0-0.2,7,1,10.2c0.4,1,0.9,2.8,1.5,4.9c0.7,2.3,1.4,4.9,2,6.9l0.9,3.4c0,0,2.6,21,3.2,31
		c0,0.2,0,0.4,0,0.5c0,0.6,0.1,1.1,0.2,1.7c1.5,9.9,10.1,25.3,12.9,26.5c0.9,0.4,1.7,1,2.4,1.7c0-4.2-0.2-7.4-0.7-8.1
		c-1.7-2.1-8.9-22.7-8.9-22.7l-1.6,0.1c0-0.3,0.1-0.6,0.1-0.9c0.1-4-1.7-10.1-1.7-10.1s-1.1-12.2-1.1-12.8c0-0.5,0.9-9.1,0.9-9.1
		l-1.8-6.9l-3.5-2.5c-0.4-5.3-1.5-11.7-4-13.5c-1.3-1-2.3-2.2-2.9-3.7c-0.5,0.1,0.4-0.4,0.4-0.4L204.2,565.8z"/>
	<path class="st3" d="M202.8,561.9c1.3-0.4,2.7-0.3,3.9,0.4c1.7,1.2,5.2,1.1,6.1,0.9s10.4-1.5,11.2-1.1c0.8,0.3,2.3-1.1,3.3,0.8
		c1,1.8,1.5,2.8,2.4,3.3s2.7,1.9,2.5,2.2c-0.2,0.3,2.5,2.1,2.5,2.1l-5.6,18.1c0,0,3.6,22.9,5.3,24.9s17.3,27.7,11.8,32.3
		c-4.4,3.5-9.1,6.6-14,9.4c-0.6,0.3-2.8-3.8-5.9-5.1c-3.1-1.3-12.5-18.5-13.1-28.3c-0.6-9.8-3.3-31.5-3.3-31.5s-3.3-11.9-4.4-15.1
		c-1.1-3.2-1-10.2-1-10.2L202.8,561.9z"/>
	<path class="st4" d="M171.9,660.8l1.3,2.7c0,0,0.2,0.8,0.4,2.1c0.2,0,0.5-0.1,0.7-0.3c1.9-1.5,13.1-13,13.7-23.3
		c0.4-7.5,0.2-14.1,0.1-17c0-0.9-0.1-1.5-0.1-1.6l0,0c0,0-8.7-10.5-7.7-14.3c1-3.7,3.2-23.8,3.2-23.8l0.3-2.6l0.6-4.4l1.4-10.7
		l-1.4,0.3c-0.2,0.3-0.5,0.6-0.9,0.9l-1.5,9.4l-5.2,5.7l-0.9,34.6l2.4,6.2c0,0,1.9,0.1,4.9,0.2h0.3L171.9,660.8z"/>
	<path class="st3" d="M167.1,603.6c0,0,2.1-0.9,2.3,0s0.5,2.7,0.5,2.7s-0.4,4.5,1.2,6.2s1.9,9.1,1.9,9.1s2.6,7.3,1.3,9.6
		c-0.4,0.8-1.1,5-1.8,10c-0.4,3.1-0.9,6.6-1.3,9.7c-0.7,5.7-1.2,10.4-1.2,10.4s1.4,5,3.3,3.5s13.1-13,13.7-23.3
		c0.4-7.2,0.2-13.4,0.1-16.5c-0.1-1.3-0.1-2-0.1-2s-8.7-10.5-7.7-14.3c1-3.7,3.3-23.7,3.3-23.7l0.4-3.1l0.4-3.3l0.1-0.7l1.4-10.6
		l0,0c-0.2,0.1-8.8,2-9.9,3.1c-1.1,1.1-8.1,2.7-8.1,2.7c-2.2,0.6-3.8,2.3-4.3,4.5c-0.1,0.2-0.1,0.4-0.2,0.7c-0.9,4.4-0.6,5-1.2,5.7
		C160.5,584.7,167.1,603.6,167.1,603.6z"/>
	<path class="st4" d="M171.3,651c3.1-0.6,7.8-2.1,7.7-5.2c-0.1-3-3.7-4.1-6.4-4.4C172.1,644.4,171.7,647.8,171.3,651z"/>
	<path class="st16" d="M161.6,649.4c0.1,0.3,0.6,0.5,1.3,0.7c1.7,0.4,3.4,0.7,5.1,0.8c0,0,10.6-0.9,10.4-5.7
		c-0.1-3.5-4.9-4.3-7.6-4.6c-1.1-0.1-1.8-0.1-1.8-0.1S161.2,648.4,161.6,649.4z"/>
	<path class="st4" d="M161.6,649.4c0.1,0.3,0.6,0.5,1.3,0.7c2.8-3.7,6.6-8.5,8.5-8.9c0,0-0.2-0.2-0.6-0.5c-1.1-0.1-1.8-0.1-1.8-0.1
		S161.2,648.4,161.6,649.4z"/>
	<path class="st3" d="M164.3,583.5l-3.1,0.5c-1.1,2-2.4,3.9-3.7,5.7c-0.8,1-1.3,2.3-1.4,3.7c0,0-4.6,6.8-6,7.6c-1.5,0.8-3.7,6-3.7,6
		s-3.6,2.4-3.6,5c-0.1,2.2-0.3,4.5-0.7,6.6c-0.1,0.4,0.5,5.1,2.1,7.5c1.5,2.4,3.1,7.6,3,8.6s4.3,5.8,5.5,7.3c1,1.4,1.9,2.9,2.7,4.5
		l4.1,7.6c0,0,8.5-12.6,11.7-13.3c0,0-3.5-3.4-5.3-4s-3.5-5.7-3.5-6.8c0-1.1-1.6-5-3.2-5.7s-2.4-1.4-1.7-2.4s0-3.1,0-3.1
		s4.5-6,5.1-9.4c0.6-3.4,4.7-5.7,4.7-5.7l2.4-5.8L164.3,583.5z"/>
	<path class="st4" d="M152.9,612c-1.7-1.5-3.9-2.3-6.2-2.3c1.5,0.1,2.9,0.7,4,1.6c0.4,0.4,0.8,0.9,1.1,1.4c0.4,0.5,3.3,4.3,3.8,3.7
		C156.4,615.5,153.5,612.5,152.9,612z"/>
	<path class="st4" d="M159.9,608.4c-1-0.1-1.8-0.7-2.2-1.5c-0.4-0.9-0.6-1.8-0.7-2.7c-0.2-1.6-0.5-3.1-0.9-4.6
		c-0.1-0.3-0.2-0.6-0.2-1c0-0.3,0.1-0.6,0.3-0.9c0.2-0.5,0.4-1,0.7-1.4c0.6,0.6,0.7,2.1,1,2.9c0.3,1,0.6,2.1,0.8,3.1
		C158.7,602.8,159.8,608.4,159.9,608.4z"/>
	<path class="st4" d="M162.6,577.5c0.3,0.4,0.7,0.8,1.1,1.1c1.2,1,2.9,1.8,3.1,3.4c0,0.5,0,1,0.2,1.5c0.4,0.7,1.4,0.6,2.2,0.5
		c0.7-0.1,1.3-0.3,1.8-0.7c0.8-0.7,0.9-1.9,1.5-2.8c0.8-0.9,1.9-1.4,3.1-1.4c1.2,0,2.3,0.2,3.5,0.3c0.7,0,1.5,0,2.2-0.2
		c0.2,0,0.5-0.1,0.7-0.1c0.5-0.1,1-0.3,1.5-0.5c0.3-0.1,0.5-0.2,0.7-0.3c0.8-0.4,1.5-0.9,2.2-1.5c1.2-1,2-2.5,2-4.1
		c-0.2-0.9-0.4-1.9-0.7-2.8c-0.5-2.7,1.3-5.2,3.3-7.2c0.8-0.8,1.6-1.5,2.4-2.3c1.2-1.1,2.2-2.5,2.8-4c0.5-1.6,0.7-3.3,0.5-5
		c-0.2-1.7-0.2-3.4-0.1-5.1c0.6-6.1,5.8-10.7,10.9-13.3l0.2-0.1c-6-6.9-16.5-7.7-23.5-1.7c-6.9,6-7.7,16.5-1.7,23.5
		c0.8,1,1.8,1.8,2.8,2.6c0.1,0.2,0.1,0.4,0.1,0.6c1.2,4.8,0.4,7.7-0.5,9.3l0,0c-0.2,0.1-8.8,2-9.9,3.1c-1.1,1.1-8.1,2.7-8.1,2.7
		C164.7,573.7,163.1,575.4,162.6,577.5z"/>
	<path class="st17" d="M208.8,528.5c-0.3-0.4-0.9-0.6-1.2-1c-1.1-1.2,0-3.1-0.4-4.6c-0.4-1.7-2.5-2.5-4.3-2.3
		c-1.8,0.2-3.4,1-5.2,1.2c-2.7,0.3-5.4-0.9-8-1.6c-2.7-0.7-5.9-0.7-7.7,1.3s-1.7,5.5-4,7c-1.1,0.7-2.4,0.7-3.5,1.3
		c-1.2,0.6-2.3,1.6-3,2.9c-1.8,2.8-2.6,6.2-2.3,9.6c0.2,1.8,0.7,3.6,0.9,5.4c0.2,1.9,0.1,3.8-0.4,5.6c-0.5,1.9-1.5,3.9-3.4,4.5
		c-0.4,0.1-0.9,0.2-1.3,0.4c-1.1,0.7-0.9,2.3-0.7,3.5l1.1,5.1c-1.1,0.8-2.7,0.5-3.8,1.3c-0.4,0.4-0.7,0.8-0.9,1.4
		c-1,2.9-0.2,6.2,2.2,8.3c1.2,1,2.9,1.8,3.1,3.4c0,0.5,0,1,0.2,1.5c0.4,0.7,1.4,0.6,2.2,0.5c0.7-0.1,1.3-0.3,1.8-0.7
		c0.9-0.7,0.9-1.9,1.5-2.8c0.8-0.9,1.9-1.4,3.1-1.4c1.2,0,2.3,0.2,3.5,0.3c2.7,0.1,5.4-0.8,7.4-2.7c1.2-1,2-2.5,2-4.1
		c-0.2-0.9-0.4-1.9-0.7-2.8c-0.5-2.7,1.3-5.2,3.3-7.2c1.9-2,4.2-3.7,5.2-6.3c1.2-3.2,0-6.7,0.3-10.1c0.6-6.1,5.8-10.7,11-13.3
		C208.2,531.6,210.2,530.1,208.8,528.5z"/>
	<path class="st4" d="M168,581c0.9-0.7,0.9-1.9,1.5-2.8c0.8-0.9,1.9-1.4,3.1-1.4c1.2,0,2.3,0.2,3.5,0.3c2.7,0.1,5.4-0.8,7.4-2.7
		c1.2-1,2-2.5,2-4.1c-0.2-0.9-0.4-1.9-0.7-2.8c-0.5-2.7,1.3-5.2,3.3-7.2s4.2-3.7,5.2-6.3c1.2-3.2,0-6.7,0.4-10.1
		c0.6-6.1,5.8-10.7,10.9-13.3c1.2-0.6,3.2-2.1,1.8-3.6c-0.3-0.4-0.9-0.6-1.2-1c-1.1-1.2,0-3.1-0.4-4.6c-0.1-0.3-0.2-0.6-0.4-0.9
		c1.3,0.1,2.4,1,2.8,2.2c0.4,1.5-0.7,3.5,0.4,4.6c0.3,0.4,0.9,0.6,1.2,1c1.3,1.5-0.6,3-1.8,3.6c-5.2,2.5-10.4,7.2-11,13.3
		c-0.3,3.4,0.8,7-0.3,10.1c-1,2.6-3.2,4.3-5.2,6.3c-1.9,1.9-3.7,4.5-3.3,7.2c0.3,0.9,0.5,1.8,0.7,2.8c0,1.6-0.8,3.1-2,4.1
		c-2,1.8-4.7,2.8-7.4,2.7c-1.2-0.1-2.3-0.3-3.5-0.3c-1.2,0-2.3,0.5-3.1,1.4c-0.6,0.9-0.7,2.1-1.5,2.8c-0.5,0.4-1.2,0.6-1.8,0.7
		c-0.8,0.1-1.7,0.2-2.2-0.5c-0.1-0.3-0.2-0.6-0.2-0.9C166.9,581.6,167.5,581.4,168,581z"/>
</g>
</svg>
