<?xml version="1.0" encoding="utf-8"?>
<!-- Generator: Adobe Illustrator 19.0.0, SVG Export Plug-In . SVG Version: 6.00 Build 0)  -->
<svg version="1.1" id="图层_1" xmlns="http://www.w3.org/2000/svg" xmlns:xlink="http://www.w3.org/1999/xlink" x="0px" y="0px"
	 viewBox="-917 917.7 1000 1000" style="enable-background:new -917 917.7 1000 1000;" xml:space="preserve">
<style type="text/css">
	.st0{fill:#F2F2F2;}
	.st1{opacity:0.1;enable-background:new    ;}
	.st2{fill:#3F3D56;}
	.st3{opacity:0.1;fill:#FFFFFF;enable-background:new    ;}
	.st4{fill:#605D82;}
	.st5{fill:#FBBEBE;}
	.st6{fill:#6C63FF;}
	.st7{fill:#2F2E41;}
	.st8{fill:#FFE09C;}
	.st9{fill:#E7C4C3;}
	.st10{fill:#FF7F8E;}
	.st11{fill:#94CC79;}
	.st12{opacity:0.2;fill:#FFFFFF;enable-background:new    ;}
	.st13{fill:#E8E8F0;}
	.st14{fill:#A0616A;}
	.st15{fill:#DADAE5;}
	.st16{fill:none;}
	.st17{opacity:3.000000e-02;enable-background:new    ;}
	.st18{fill:#EFF0F4;}
	.st19{fill:#CCCAD6;}
	.st20{opacity:0.1;}
	.st21{fill:#FFFFFF;}
</style>
<g id="_x23_background">
	<g>
		<path class="st0" d="M-4.2,1533.3c-1.1,2.3-2.2,4.7-3.3,6.9c-1.7,3.6-3.4,7-5,10.4c-0.7,1.5-1.5,3-2.2,4.5
			c-8.1,16.5-15.6,31-22,43c-11.8,22.1-34.8,36-59.8,36.3l-142.2,1.6h-1.5l-12.2,0.1l-10.4,0.1l-32,0.4h-1.3l-16.3,0.2h-0.5
			l-100.3,1.1l-89.5,0.9l-10.4,0.1l-64.7,0.7h-0.1l-42,0.5h-0.5l-132.6,1.4l-39.7,0.5c-3.4,0-6.7-0.1-10.1-0.5l0,0
			c-1.1-0.1-2.2-0.3-3.4-0.5c-18.5-2.8-35.4-12-48.1-25.8c-17.1-18.8-29.5-40.7-37.9-64.5c-1.2-3.5-2.3-6.9-3.4-10.4
			c-28.6-97.6,6.6-223.4,70-307.7c2.6-3.6,5.3-6.9,8.1-10.3l0.1-0.1c19.5-23.9,41.3-43.9,64.6-58.1c41.2-25.2,87-32.3,131.9-11.2
			c38.1,17.9,73.6,26.3,108,28.7c3.5,0.2,6.9,0.4,10.4,0.5c78.9,2.4,153-26,239.9-44.3c3.5-0.7,6.9-1.5,10.4-2.2
			c62-12.4,130.8-18.8,212.5-5.2c8.5,1.4,16.9,3.4,25.1,6c3.6,1.1,7.1,2.4,10.4,3.7c39,15.8,60.3,45.2,69.4,82
			c0.8,3.4,1.6,6.8,2.2,10.4C83.4,1320.8,36.3,1446.3-4.2,1533.3z"/>
		<path class="st1" d="M-439.7,1540.2c-0.4,3.5-0.9,7-1.8,10.4h87.8v-10.4H-439.7z M-513,1599.2l10.4-0.1v-25.8
			c-3.6-0.2-7-0.3-10.4-0.5V1599.2z M-731.3,1540.2v10.4h186.1v-10.4H-731.3z M65.1,1222H-4.3v-82c-3.4-1.4-6.8-2.6-10.4-3.7v85.8
			h-237.6v-86.6c-3.5,0.7-6.9,1.4-10.4,2.2v84.5h-239.9v-40.1c-3.5-0.1-6.9-0.3-10.4-0.5v40.7h-239.9v-58.1
			c-23.2,14.2-45.1,34.2-64.6,58.1h-0.1v0.1c-2.7,3.4-5.4,6.8-8.1,10.3h8.1v307.9h-77.8c1,3.6,2.2,7,3.4,10.4h74.4v87.7
			c3.7,1.1,7.6,2.1,11.4,2.6c1.1,0.2,2.2,0.3,3.4,0.5l0,0c3.4,0.4,6.7,0.6,10.1,0.5l39.7-0.6v-91h239.9v88.3l10.4-0.1v-88.2h239.9
			v85.6l10.4-0.1v-85.5h237.6v4.5c0.7-1.5,1.4-3,2.2-4.5c1.7-3.4,3.3-6.8,5-10.4c1.1-2.2,2.2-4.6,3.3-6.9v-300.9h71.6
			C66.7,1228.8,66,1225.4,65.1,1222z M-752.9,1540.2v-307.8H-513v307.8H-752.9z M-502.6,1540.2v-307.8h239.9v307.8H-502.6z
			 M-14.7,1540.2h-237.6v-307.8h237.6L-14.7,1540.2L-14.7,1540.2z"/>
	</g>
</g>
<g id="_x23_home_x28_have_x5B_sofa_x5D__x29_">
	<polygon class="st2" points="-617.3,1477.1 -218.1,1474.8 -213.7,1519.1 -615.8,1517.9 	"/>
	<path class="st2" d="M-123.1,1431.7c-13-24-31.4-44.6-53.7-60.2c-1.6-1.1-3.5-1.8-5.3-2.1c2.6-17.3,2.1-36.5-7.7-50.9
		c-23.2-34.2-141.4,1.1-141.4,1.1c-82.9-28.7-154.7,7.7-154.7,7.7s-91.7-14.3-133.7-3.3c-19.8,5.2-24.6,25.4-24.2,45.3h-0.1
		c-3.6,0-6.9,1.6-9.2,4.4c-11.2,14-44.9,56.9-44,65.2c1.1,9.9,37.6,139.2,35.9,201.6l509.3-5.6c0,0,8.4-125.6,29.5-194.4
		C-121.3,1437.6-121.6,1434.4-123.1,1431.7z"/>
	<polygon class="st1" points="-654.4,1439.5 -633.4,1397.5 -615.8,1479.2 -615.6,1517.2 	"/>
	<polygon class="st1" points="-172.8,1439.5 -193.8,1397.5 -218.2,1475 -213.5,1519.1 	"/>
	<polygon class="st1" points="-617.3,1477.1 -218.1,1474.8 -213.7,1519.1 -615.8,1517.9 	"/>
	<path class="st3" d="M-607.7,1514.7h386.3c5.4,0,9.8,4.4,9.8,9.8v27.8c0,5.4-4.4,9.8-9.8,9.8h-386.3c-5.4,0-9.8-4.4-9.8-9.8v-27.8
		C-617.5,1519.1-613.1,1514.7-607.7,1514.7z"/>
</g>
<g id="_x23_woman_x28_sit_x2C_hold_x5B_pizza_x5D__x29__2_">
	<circle class="st2" cx="-500.8" cy="1122.2" r="15.3"/>
	<ellipse class="st2" cx="-467.7" cy="1156.2" rx="42.8" ry="55.5"/>
	<path class="st1" d="M-467.7,1194.9c-21.5,0-39.3-20.4-42.4-47.2c-0.3,2.8-0.5,5.6-0.5,8.3c0,30.7,19.2,55.5,42.8,55.5
		c23.6,0,42.8-24.8,42.8-55.5c0-2.8-0.2-5.6-0.5-8.3C-428.4,1174.6-446.2,1194.9-467.7,1194.9z"/>
	<path class="st2" d="M-376.4,1318.7c-0.9,3.7-4.9,6.8-9.3,8.9c-9.3,4.5-20.6,5.8-31.7,6.2c-2.8,0.2-5.6,0.1-8.4-0.2
		c-5.8-0.7-11.2-3.2-14.5-6.7c-0.5-0.4-0.8-0.9-0.9-1.5c0.1-0.7,0.4-1.4,0.9-1.9c5.9-6.5,15.7-10.4,25.6-13.2
		c7.5-2.2,20.5-7.8,28.8-7C-378,1304.1-375.2,1313.9-376.4,1318.7z"/>
	<path class="st1" d="M-376.4,1318.7c-0.9,3.7-4.9,6.8-9.3,8.9c-9.3,4.5-20.6,5.8-31.7,6.2c-2.8,0.2-5.6,0.1-8.4-0.2
		c-5.8-0.7-11.2-3.2-14.5-6.7c-0.5-0.4-0.8-0.9-0.9-1.5c0.1-0.7,0.4-1.4,0.9-1.9c5.9-6.5,15.7-10.4,25.6-13.2
		c7.5-2.2,20.5-7.8,28.8-7C-378,1304.1-375.2,1313.9-376.4,1318.7z"/>
	<path class="st4" d="M-493.8,1290.4c-2.8,5.5-3.3,11.9-1.4,17.8c2,5.8,5.6,11,10.5,14.8c12,9.6,28.4,11,43.7,10.8
		c13.4-0.1,26.8-1,40.1-2.7c4.4-0.6,8.9-1.2,13-3c5-2.2,9.4-6.1,11.2-11.2s0.6-11.4-3.7-14.9c-3.7-3-8.8-3.5-13.6-3.7l-27.4-1.7
		c2.7-2.7,6.3-4.3,9.6-6.3c4.4-2.6,7.2-7,10.4-11.1c4.7-6,10.3-11.2,15.9-16.4c0.9,5.1,4.1,9.3,7.9,12.8c3.8,3.6,8.2,6.4,12.1,9.7
		c9.6,8.2,16.4,19.1,26.5,26.6c6.9-1.8,13.4-5.1,19-9.5l-3.9-7c-0.3-0.7-0.8-1.4-1.5-1.9c-1.1-0.7-2.5-0.4-3.8-0.5
		c-3.5-0.5-5-4.5-6.3-7.7c-3.7-8.8-10.8-15.6-16.9-23c-4.4-5.4-8.3-11.2-11.7-17.4c-2.1-3.7-3.9-7.5-6.7-10.7
		c-2.8-3.2-6.7-5.6-10.8-5.6c-3.7,0-7.1,1.9-10.3,3.7c-9.7,5.8-19,12.1-27.9,19c-4.7,3.7-9.3,7.5-14.8,9.7c-2.3,0.9-4.7,1.6-6.9,2.7
		c-3.8,2-6.8,5.3-10,8.3C-462.8,1283-478.3,1290-493.8,1290.4z"/>
	<path class="st5" d="M-436.7,1214.4c-0.1,3.3-0.8,6.5-2.1,9.5c-1.2,3-3.7,5.4-6.8,6.6c-2.2,0.6-4.4,0.7-6.7,0.2
		c-2-0.2-3.7-0.8-5.4-1.9c-2.5-1.8-3.8-4.9-4.3-8c-0.5-3.1-0.3-6.2-0.6-9.3c-0.3-2.5-0.7-5-1.4-7.4c-0.2-0.8-0.4-1.6-0.7-2.4
		c-0.3-0.8-0.4-1.6-0.6-2.4c-0.2-0.8-0.3-1.5-0.5-2.2c-0.2-0.7-0.2-1.3-0.3-2c-0.1-2-0.4-3.8-0.9-5.7c-0.6-1.2-1.2-2.3-2-3.4
		c-0.4-0.5-0.7-0.9-0.9-1.5c-0.8-1.3-1.3-2.9-1.1-4.4c0-0.3,0.1-0.5,0.2-0.7c0-0.1,0.1-0.2,0.1-0.3c0.7-0.2,1.2-0.7,1.4-1.3
		c0.1-0.7,0.1-1.4-0.2-2.1c-0.3-0.9-0.7-1.9-1.1-2.7c-0.3-0.6-1.4-1.6-1.4-2.2c0-1.3,2.5-2.3,3.6-2.9c3.2-1.6,6.7-2.2,10.2-2.1
		c2.2,0.2,4.7,0.8,5.9,2.7c1.1,1.7,0.9,3.9,1.4,5.9c0,0.3,0.2,0.6,0.4,0.7c0.3,0.2,0.6,0.4,0.8,0.4c0.6,0.1,1.1,0.1,1.7,0.1l0,0
		c0.2,0,0.3,0,0.5-0.1c0.8-0.2,1.7-0.5,2.4-1c0.5-0.1,0.9-0.2,1.4-0.3h0.1c1.9,5.9,2.1,12.2,3.7,18.2c0.7,3,1.9,5.9,2,9
		c0,0.1,0,0.3,0,0.4c0,1-0.1,2,0,3c0,0.5,0.1,0.8,0.2,1.3c0.2,0.7,0.4,1.4,0.7,2.1l0,0c0.1,0.2,0.1,0.5,0.2,0.7
		c0,0.2,0.1,0.3,0.1,0.5l0,0C-436.5,1211-436.5,1212.7-436.7,1214.4z"/>
	<circle class="st5" cx="-462.8" cy="1153.9" r="21.9"/>
	<path class="st5" d="M-323.2,1273.6c-0.7-6-2.8-11.7-6.2-16.7l1.7,10.2c-1.5,0.4-3-0.1-3.9-1.2s-1.6-2.4-2.1-3.8
		c-2.5-6.2-5.7-12.1-9.7-17.4c-14-1.1-27.8-6.9-40.1-13.7c-12.3-6.7-23.8-14.9-36-21.9c-2.1-1.3-4.3-2.4-6.6-3.4
		c-3.7-1.5-8.1-2.3-11.6-4.1l-0.7-0.4c-0.8-0.5-1.6-0.9-2.3-1.5c-0.4-0.3-0.7-0.7-1.1-1c-1.8-2.1-3.2-4.5-4.2-7
		c-2-4.3-2.6-9.5-4.5-13.7c0.8-0.8,1.9-1.5,3-2.1l0,0l0.5-0.2c0.7-0.4,1.6-0.7,2.3-0.8c0.5-0.1,0.9-0.2,1.4-0.3h0.1
		c2.2-0.4,4.4-0.2,6.5,0.6c3.1,1,5.6,3.1,8.2,5.1c4,3.1,8.3,6,12,9.6c2.2,2.1,4,4.2,6.4,6.1c1.9,1.5,3.9,2.8,6,3.9l37,22
		c4.2,2.4,8.3,5,12.5,7.6c6.2,4,12.2,8.3,18.2,12.7l10.6,7.7c1.1,0.7,2.2,1.7,3,2.8c0.7,1.2,1.2,2.6,1.3,4
		C-321,1262.2-321.5,1268.1-323.2,1273.6z"/>
	<path class="st6" d="M-431.2,1231c-1.5,6.7-8.2,10.7-11.7,16.5c-4.4,7.2-2.6,15.7-0.9,24l-9,7.8c-1.7,1.4-3.3,2.8-5.1,4.1
		c-2.6,1.8-5.3,3.3-8.2,4.7l-8,4.1c-2.4,1.4-5.1,2.5-7.8,3.3c-5.2,1.3-10.8,0.4-15.9-1.1c-0.7-0.2-1.2-0.4-1.8-0.7
		c-0.3-0.2-0.6-0.5-0.8-0.7c-0.5-0.9-0.7-2-0.6-3c0.6-8.7,2.6-17.2,4.8-25.7c1.1-5.1,2.6-10,4.5-14.9c1.9-4.1,4-8.2,6.4-12
		c2.8-4.8,5.6-9.6,9.4-13.6c1.6-1.8,3.4-3.5,4.3-5.6c1.3-3,0.8-6.5,1.1-9.7c0.2-2.4,0.8-4.9,2-7.1l0,0c0.6-1.2,1.2-2.3,2.1-3.4
		c0.4,0.8,0.7,1.7,1.1,2.5l0.7,1.7c0.3,0.7,0.7,1.4,0.9,2.2c0.8,2,1.8,4,2.6,6.1c0.9,2.5,2.2,4.9,3.9,7c1.8,2.1,4.4,3.5,7.1,3.2
		c2.5-0.5,4.8-2,6.1-4.2c1.2-2.2,2.2-4.6,2.7-7.1c0.7-3,0.8-6.2,0.3-9.3c-0.9-5.9-3.5-12-5.2-17.5c-0.7-1.9-1.2-3.7-1.3-5.7
		c0-0.2,0-0.5,0.1-0.7v-0.2c0.7-0.4,1.6-0.7,2.3-0.8c0.5-0.1,0.9-0.2,1.4-0.3c1.6,8.7,3.2,17.4,4.9,26.2c0,0.2,0.1,0.4,0.1,0.7
		c0.2,1.2,0.5,2.5,0.7,3.7c0.2,1.2,0.5,2.2,0.7,3.4l0,0c0.1,0.4,0.2,0.7,0.3,1.1l0,0c0.3,1,0.7,2.1,0.9,3.1
		C-433.7,1218.6-429.8,1224.7-431.2,1231z"/>
	<path class="st7" d="M-342,1324.4c-0.1,1.3,0.2,2.6,0.7,3.7c1.4,2.5,4.7,3.1,7.5,3.3c16.7,1.4,33.5,0.8,50.1-1.5
		c0.9-0.1,1.8-0.4,2.5-0.8c2.3-1.7,0.9-5.6-1.7-6.9c-2.6-1.3-5.6-0.9-8.4-1.5c-2.8-0.7-5.4-1.9-7.9-3.5c-5.7-3.3-11.3-6.7-16.9-10.3
		c-3.3-2.2-7.2-4.4-11-3.1C-337.2,1307.2-342.1,1313.5-342,1324.4z"/>
	<path class="st5" d="M-465,1198.9L-465,1198.9l-0.1,0.5l-0.2,0.7c-0.5,2.3-1,4.7-1.7,7c-1.8,6.5-4.2,12.8-6.6,19.1l-19,50.5
		c-1.6,4.2-3.2,8.4-5.1,12.7c-0.7,1.4-1.2,2.8-1.9,4.2c-2.2,5.1-4.4,10.2-5.2,15.6c-0.5,3.6-0.9,7.2-0.2,10.7s2.8,6.9,6.2,8.2
		c1.6,0.7,3.9,1.5,3.6,3.2c-0.2,0.9-1.3,1.4-2.2,1.5c-2.5,0.4-5.2-0.4-7-2.1c-1.8-1.6-3.2-4-5.5-4.3c-1.7-0.2-3.2,0.8-4.7,1.5
		c-6.1,2.8-13.3,0.8-19.7-1.1c0.5-2.6,3.1-4.3,5.7-4.9s5.2-0.2,8-0.2c0.8,0,1.7-0.2,2.4-0.7c0.7-0.6,1.1-1.3,1.3-2.2
		c1.7-5.1,3-10.3,3.7-15.6c0.8-5.5,1.2-11.2,2.4-16.6c0.9-4.2,2.4-8.3,3.7-12.6c2.4-8.6,4.4-17.3,6-26.2c0.7-3.7,1.3-7.3,1.7-11.1
		c0.2-3.1,0.1-6.2,0.4-9.3c0.5-4,1.3-8,2.5-11.8c1.1-4.2,2.2-8.4,3.5-12.7c1.7-6.3,3.5-12.7,7.8-17.5c3-3.5,7.3-5.5,11.9-5.7
		c0.8,0,1.7,0.1,2.5,0.3l0.4,0.1c0.9,0.2,1.8,0.6,2.6,1c1.3-0.8,2-0.6,2.9,0.7c0.7,1.4,1.1,2.9,1,4.5
		C-464,1190.8-464.2,1194.8-465,1198.9z"/>
	<path class="st6" d="M-463.6,1203.9L-463.6,1203.9l-0.4,0.4l-3,3l-1.5-6.2l-5-21.2c0.8,0,1.7,0.1,2.5,0.3c0-0.3,0.1-0.5,0.2-0.7
		l0.2,0.8l1.7,5.8l3.3,11.1l0.6,1.8l0,0L-463.6,1203.9z"/>
	<path class="st2" d="M-471.9,1121.5h25.2c6.2,0,11.2,5.1,11.2,11.2v7.3c0,6.2-5.1,11.2-11.2,11.2h-25.2c-6.2,0-11.2-5.1-11.2-11.2
		v-7.3C-483.2,1126.6-478.1,1121.5-471.9,1121.5z"/>
	<circle class="st2" cx="-432.7" cy="1122.2" r="15.3"/>
	<path class="st1" d="M-433.1,1107.1h-0.6c8.4,0.4,15,7.5,14.6,15.9c-0.4,7.9-6.7,14.2-14.6,14.6h0.6c8.4,0,15.3-6.8,15.3-15.3
		C-417.8,1113.8-424.7,1107-433.1,1107.1L-433.1,1107.1z"/>
	<path class="st1" d="M-500.8,1107.1h0.6c-8.4,0.4-15,7.5-14.6,15.9c0.4,7.9,6.7,14.2,14.6,14.6h-0.6c-8.4,0-15.3-6.8-15.3-15.3
		C-516.1,1113.9-509.2,1107-500.8,1107.1C-500.8,1107-500.8,1107-500.8,1107.1L-500.8,1107.1z"/>
	<path class="st1" d="M-435.1,1148.4h-38.7c-2.4,0-4.5-2-4.5-4.5v3c0,2.4,2,4.5,4.5,4.5h38.8c2.4,0,4.5-2,4.5-4.5v-3
		C-430.6,1146.3-432.6,1148.4-435.1,1148.4L-435.1,1148.4z"/>
	<path class="st8" d="M-303.8,1304.7c0,0,2.4,0.5,2.8-1.5c0.2-0.9-0.5-6.9-1.2-12.9c-0.4-3-0.7-5.9-1.1-8.2
		c-0.4-2.9-0.7-4.9-0.7-4.9l-0.5-1.5l-2.6-8.7l-2.4-8.2l-1.8-3.3l-13,6.4l-8.1,14l2.5,1.6l0.5,0.3l4.6,4.9l12.9,13.6l5.8,6.1
		l0.7,0.7L-303.8,1304.7z"/>
	<path class="st9" d="M-314,1249.7c0,0-14.2,6.7-17.7,14c0,0-3.2,6.1-3.6,9.4c0,0-0.9,3,5,3.7c0,0,2.7-10.9,10.8-15.7l8.1-4.7
		L-314,1249.7z"/>
	
		<ellipse transform="matrix(-0.2589 0.9659 -0.9659 -0.2589 826.6469 1896.5739)" class="st10" cx="-314.3" cy="1265.4" rx="4.9" ry="4.1"/>
	
		<ellipse transform="matrix(-0.2575 0.9663 -0.9663 -0.2575 842.1024 1917.6812)" class="st10" cx="-315.7" cy="1282.4" rx="4.9" ry="4.1"/>
	<path class="st10" d="M-324.7,1282.4c1.5-0.7,2.6-2,3-3.6c0.7-2.6-0.6-5.2-2.7-5.7c-2.2-0.6-4.5,1-5.2,3.7
		c-0.1,0.2-0.1,0.4-0.1,0.6l0.5,0.3L-324.7,1282.4z"/>
	<path class="st10" d="M-307.3,1276.1c1,0.3,2.2,0.1,3-0.6l-2.6-8.7c-1.6,0.6-2.7,1.9-3.2,3.6
		C-310.8,1273-309.6,1275.5-307.3,1276.1z"/>
	<path class="st10" d="M-305.8,1291.2c1.3,0.3,2.7-0.1,3.7-1c-0.4-3-0.7-5.9-1.1-8.2h-0.1c-2.2-0.6-4.5,1-5.2,3.7
		C-309.4,1288.2-308.1,1290.6-305.8,1291.2z"/>
	<path class="st10" d="M-306,1302c0.3-0.5,0.5-0.9,0.7-1.4c0.7-2.6-0.6-5.2-2.7-5.7c-1.3-0.3-2.8,0.1-3.7,1L-306,1302z"/>
	<path class="st11" d="M-312.5,1262.8l1.5,0.4c-0.6,1.1-0.9,2.2-1,3.6c0,0.1,0,0.2,0,0.3c0.2,1.5-1.5-0.4-1.5-0.4
		S-313.2,1263.3-312.5,1262.8z"/>
	<path class="st11" d="M-319.3,1272.4l1.5,0.4c-0.6,1.1-0.9,2.2-1,3.5c0,0.1,0,0.2,0,0.3c0.2,1.5-1.5-0.4-1.5-0.4
		S-320,1273.1-319.3,1272.4z"/>
	<path class="st11" d="M-314.6,1275.7l1.5,0.4c-0.6,1.1-0.9,2.2-1,3.6c0,0.1,0,0.2,0,0.3c0.2,1.5-1.5-0.4-1.5-0.4
		S-315.3,1276.3-314.6,1275.7z"/>
	<path class="st11" d="M-308.6,1283.8l1.5,0.4c-0.6,1.1-0.9,2.2-1,3.6c0,0.1,0,0.2,0,0.3c0.2,1.5-1.5-0.4-1.5-0.4
		S-309.3,1284.3-308.6,1283.8z"/>
	<path class="st11" d="M-304.9,1297l1.5,0.4c-0.6,1.1-0.9,2.2-1,3.5c0,0.1,0,0.2,0,0.3c0.2,1.5-1.5-0.4-1.5-0.4
		S-305.6,1297.5-304.9,1297z"/>
	<path class="st11" d="M-313,1287.7l1.5,0.4c-0.6,1.1-0.9,2.3-1,3.6c0,0.1,0,0.2,0,0.3c0.2,1.5-1.5-0.4-1.5-0.4
		S-313.7,1288.3-313,1287.7z"/>
	<path class="st9" d="M-309.4,1251c0,0-2.2-4.9-4.7-1.2c0.2,2.9,1.2,5.8,2.8,8.2c0,0,7.8,21.1,7.1,24.4c0,0,3.1,20.4,2.3,21.6
		c0,0,0.8,1.4,1.4-3.9c0.6-5.4-2.1-21.4-2.1-21.4l-3.8-16.6l-2.6-5.6L-309.4,1251z"/>
	<path class="st12" d="M-309.4,1251c0,0-2.2-4.9-4.7-1.2c0.2,2.9,1.2,5.8,2.8,8.2c0,0,7.8,21.1,7.1,24.4c0,0,3.1,20.4,2.3,21.6
		c0,0,0.8,1.4,1.4-3.9c0.6-5.4-2.1-21.4-2.1-21.4l-3.8-16.6l-2.6-5.6L-309.4,1251z"/>
	<path class="st5" d="M-335.2,1259c0,0,3.8,11.1,7.4,8.2l-2.8-14.5L-335.2,1259z"/>
</g>
<g id="_x23_woman_x28_sit_x2C_hold_x5B_pizza_x5D__x29__1_">
	<g>
		<path class="st8" d="M-294.7,1355.8c0,0-1.3-1.9-2.9-0.8c-0.7,0.5-4.3,5-7.9,9.6c-1.7,2.2-3.5,4.5-4.8,6.3
			c-1.7,2.2-2.8,3.7-2.8,3.7l-0.7,1.3l-4.1,7.7l-3.8,7.2l-0.9,3.4l13,4.4l14.8-4l-0.7-2.7l-0.1-0.5l0.1-6.3l0.4-17.8l0.2-8v-0.9
			L-294.7,1355.8z"/>
		<path class="st9" d="M-324.5,1399.7c0,0,14.1,5.1,21.3,2.3c0,0,6.3-2,8.7-3.9c0,0,2.6-1.4-0.9-5.8c0,0-9.1,5.6-17.7,3.4l-8.6-2.2
			L-324.5,1399.7z"/>
		
			<ellipse transform="matrix(-0.8628 0.5056 -0.5056 -0.8628 124.059 2746.0984)" class="st10" cx="-310.6" cy="1389.9" rx="4.6" ry="3.9"/>
		
			<ellipse transform="matrix(-0.8628 0.5056 -0.5056 -0.8628 135.8819 2720.563)" class="st10" cx="-301.3" cy="1378.7" rx="4.6" ry="3.9"/>
		<path class="st10" d="M-295.4,1384.9c-1.4-0.6-3.1-0.5-4.4,0.4c-2.2,1.3-3.1,3.8-2,5.7c1.1,1.9,3.7,2.3,5.9,1
			c0.2-0.1,0.3-0.2,0.5-0.3l-0.1-0.5L-295.4,1384.9z"/>
		<path class="st10" d="M-311.3,1377.5c-0.6-0.8-1.4-1.5-2.4-1.7l-4.1,7.7c1.5,0.7,3.2,0.6,4.5-0.3
			C-311.1,1381.9-310.2,1379.4-311.3,1377.5z"/>
		<path class="st10" d="M-302.2,1366.3c-0.7-1.1-1.9-1.8-3.2-1.8c-1.7,2.2-3.5,4.5-4.8,6.3l0.1,0.1c1.1,1.9,3.7,2.3,5.9,1
			C-302,1370.7-301.1,1368.1-302.2,1366.3z"/>
		<path class="st10" d="M-294.9,1359c-0.5,0.1-0.9,0.3-1.4,0.6c-2.2,1.3-3.1,3.8-2,5.7c0.7,1.1,1.9,1.8,3.2,1.8L-294.9,1359z"/>
		<path class="st11" d="M-316.7,1389.8l-0.7-1.3c1.1-0.4,2.2-0.9,3-1.7c0.1-0.1,0.1-0.1,0.2-0.2c0.9-1.2,0.7,1.3,0.7,1.3
			S-315.8,1389.9-316.7,1389.8z"/>
		<path class="st11" d="M-305.7,1387.9l-0.7-1.3c1.1-0.4,2.2-0.9,3-1.7c0-0.1,0.1-0.1,0.2-0.2c0.9-1.1,0.7,1.3,0.7,1.3
			S-304.8,1388-305.7,1387.9z"/>
		<path class="st11" d="M-306.7,1382.7l-0.7-1.3c1.1-0.4,2.2-0.9,3-1.7c0-0.1,0.1-0.1,0.2-0.2c0.9-1.2,0.7,1.3,0.7,1.3
			S-305.8,1382.7-306.7,1382.7z"/>
		<path class="st11" d="M-305.3,1373.1l-0.7-1.3c1.1-0.4,2.2-0.9,3-1.7c0-0.1,0.1-0.1,0.2-0.2c0.9-1.2,0.7,1.3,0.7,1.3
			S-304.5,1373.3-305.3,1373.1z"/>
		<path class="st11" d="M-299,1361.7l-0.7-1.3c1.1-0.4,2.2-0.9,3-1.7c0.1-0.1,0.1-0.1,0.2-0.2c0.9-1.1,0.7,1.3,0.7,1.3
			S-298.1,1361.8-299,1361.7z"/>
		<path class="st11" d="M-299.7,1373.4l-0.7-1.3c1.1-0.4,2.2-0.9,3-1.7c0-0.1,0.1-0.1,0.2-0.2c0.9-1.2,0.7,1.3,0.7,1.3
			S-298.9,1373.5-299.7,1373.4z"/>
		<path class="st9" d="M-326.7,1395.8c0,0-1.8,4.7,2.3,3.9c1.8-2.2,3.1-4.7,3.7-7.4c0,0,8.9-19.5,11.5-21.2c0,0,11.5-15.8,12.8-16
			c0,0,0.4-1.5-3.7,1.7c-4,3.3-12.9,15.7-12.9,15.7l-8.4,13.8l-2,5.5L-326.7,1395.8z"/>
		<path class="st12" d="M-326.7,1395.8c0,0-1.8,4.7,2.3,3.9c1.8-2.2,3.1-4.7,3.7-7.4c0,0,8.9-19.5,11.5-21.2c0,0,11.5-15.8,12.8-16
			c0,0,0.4-1.5-3.7,1.7c-4,3.3-12.9,15.7-12.9,15.7l-8.4,13.8l-2,5.5L-326.7,1395.8z"/>
		<path class="st7" d="M-450.7,1498.6c-3.2-1-5.2-4.2-6.5-7.4c-1.3-3.2-2.3-6.6-4.9-8.8c-0.9,0.2-1.8,0.7-2.2,1.7
			c-0.4,0.8-0.8,1.8-1.3,2.5c-1,1.5-2.8,2.2-4.2,3.5c-1.4,1.2-2.2,3.2-3.6,4.5c-1.8,1.6-4.3,2.1-6.7,2.5c-3.7,0.8-7.1,2.2-10.4,3.8
			c-1.2,0.7-2.5,1.3-3.8,1.7c-1.5,0.3-3,0.4-4.5,0.2l-10.3-0.7c-0.9-0.1-1.9-0.1-2.7,0.1c-2.2,0.7-3.5,2.9-3.3,5.2
			c0.3,2.2,1.4,4.2,3.3,5.5c1.8,1.3,3.7,2.2,5.9,3c9,3.4,18.3,6.1,27.7,7.9v2.1c6.6,3.2,13.8,4.9,21.1,4.9c0.6,0,1.1-0.1,1.6-0.3
			c0.7-0.5,1.1-1.2,1.3-2.1c2.4-7.2,3.9-14.8,4.3-22.5c0.2-2,0-3.9-0.5-5.8c-0.6-1.9,1.4-1.1-0.5-1.8"/>
		<path class="st7" d="M-252.7,1459.7c-30.7,1.9-60.9-7.1-91.6-8.1c-3.8-0.3-7.6,0-11.4,0.7c-3.9,0.8-7.6,2.6-11.2,4.4
			c-16.5,7.7-33.5,14-50.4,20.3l-19.5,7.3c-3.9,1.4-8,2.9-12.1,2.6c-1.9-0.1-4.1-0.4-5.2,1.1c-3.2,4.7-1.7,11.6,0.5,16.9
			c0.7,1.7,1.9,3.6,3.7,3.7c1.3,0.1,2.5-0.7,3.7-0.9c3.6-0.9,7.1,1.4,10.8,1.9c4.5,0.5,8.7-2.1,12.9-3.7c7-2.6,14.8-2.5,22.2-3.7
			c12.5-2.1,24-7.9,34.8-14.4c4.1-2.5,8.2-5.2,13-6.1c5.4-1,11,0.4,16.3,1.9c12.7,3.6,25.2,7.9,37.4,12.7c6.5,2.6,12.8,5.3,19.6,7.1
			c14.5,3.8,29.9,2.9,43.9-2.5c4.9-2,10.2-5.3,10.5-10.7c0.2-3-2.2-5.6-3.7-8.2c-1-1.7-2-3.3-3.1-4.9
			C-236.9,1469.3-243.4,1459.2-252.7,1459.7z"/>
		<path class="st1" d="M-252.7,1459.7c-30.7,1.9-60.9-7.1-91.6-8.1c-3.8-0.3-7.6,0-11.4,0.7c-3.9,0.8-7.6,2.6-11.2,4.4
			c-16.5,7.7-33.5,14-50.4,20.3l-19.5,7.3c-3.9,1.4-8,2.9-12.1,2.6c-1.9-0.1-4.1-0.4-5.2,1.1c-3.2,4.7-1.7,11.6,0.5,16.9
			c0.7,1.7,1.9,3.6,3.7,3.7c1.3,0.1,2.5-0.7,3.7-0.9c3.6-0.9,7.1,1.4,10.8,1.9c4.5,0.5,8.7-2.1,12.9-3.7c7-2.6,14.8-2.5,22.2-3.7
			c12.5-2.1,24-7.9,34.8-14.4c4.1-2.5,8.2-5.2,13-6.1c5.4-1,11,0.4,16.3,1.9c12.7,3.6,25.2,7.9,37.4,12.7c6.5,2.6,12.8,5.3,19.6,7.1
			c14.5,3.8,29.9,2.9,43.9-2.5c4.9-2,10.2-5.3,10.5-10.7c0.2-3-2.2-5.6-3.7-8.2c-1-1.7-2-3.3-3.1-4.9
			C-236.9,1469.3-243.4,1459.2-252.7,1459.7z"/>
		<path class="st7" d="M-400.6,1489.2c-2.9-0.5-5.4-2.2-7-4.6c-0.7-1.2-1.4-2.8-2.7-2.7c-1.3,0.1-1.9,1.6-2.2,2.8
			c-0.9,4.7-2.2,9.2-3.9,13.6c-1.7,4.4-4.7,8.2-8.4,11.2c-1.8,1.2-3.7,2.2-5.5,3.5c-1.6,1.1-2.9,2.6-4.7,3.5
			c-1.1,0.6-2.3,0.9-3.6,1.3c-1.8,0.7-3.5,1.5-5.1,2.5c-1.4,0.8-2.6,2-3.5,3.3c-0.9,1.4-1,3.2-0.3,4.7c0.7,1.2,2,2.1,3.4,2.3
			c1.4,0.3,2.8,0.3,4.2,0.1c5.6-0.4,11.2-0.9,16.8-1.4c2.3-0.2,4.7-0.5,7-0.9c1.2-0.3,2.4-0.7,3.7-1c2.1-0.6,4.2-0.8,6.4-0.9
			c0.7-0.1,1.2,0,1.9,0.2c1.3,0.5,2.2,1.7,3.6,2c0.8,0.1,1.7,0,2.5-0.4c4-1.1,8.2-1,12.4-1.3c1.9-0.1,3.9-0.5,4.8-2.1
			c1-2.1-0.7-4.3-1.4-6.6c-0.4-1.4-0.6-2.8-0.6-4.3c-0.3-3.6-1.4-7-3.1-10.1c-1.4-2.6-3.4-5.5-2.3-8.2c0.4-0.9,1-1.9,0.9-2.8
			C-387.7,1488.1-398.1,1489.7-400.6,1489.2z"/>
		<path class="st5" d="M-298.6,1410.6c-5.4-2.4-9.7-6.7-12.2-12.1c-0.6-1.1-0.9-2.3-1.4-3.6c-1.6-3.9-4.1-7.4-7.3-10.1
			c-0.7-0.7-1.7-1.2-2.7-1.1c-1,0.3-1.8,1.1-2,2.2c-0.3,1-0.4,2.2-0.2,3.3c0.3,2.5,0.7,5.2,1.3,7.7l1.5,6.7c0.2,1,0.5,2.1,0.9,3
			c0.7,1.1,1.5,2.2,2.5,3c1.3,1.2,2.7,2.4,4.1,3.7c2,1.9,4.5,3,7.2,3.2c6.1,1.1,12.3,2.7,17.4,6.7c-0.1,0,0-4.5-0.1-5.1
			c-0.2-1.4-0.5-2.7-1.3-3.7C-292.9,1412.3-296.2,1411.7-298.6,1410.6z"/>
		<path class="st1" d="M-298.6,1410.6c-5.4-2.4-9.7-6.7-12.2-12.1c-0.6-1.1-0.9-2.3-1.4-3.6c-1.6-3.9-4.1-7.4-7.3-10.1
			c-0.7-0.7-1.7-1.2-2.7-1.1c-1,0.3-1.8,1.1-2,2.2c-0.3,1-0.4,2.2-0.2,3.3c0.3,2.5,0.7,5.2,1.3,7.7l1.5,6.7c0.2,1,0.5,2.1,0.9,3
			c0.7,1.1,1.5,2.2,2.5,3c1.3,1.2,2.7,2.4,4.1,3.7c2,1.9,4.5,3,7.2,3.2c6.1,1.1,12.3,2.7,17.4,6.7c-0.1,0,0-4.5-0.1-5.1
			c-0.2-1.4-0.5-2.7-1.3-3.7C-292.9,1412.3-296.2,1411.7-298.6,1410.6z"/>
		<ellipse class="st7" cx="-236.3" cy="1351.4" rx="7.5" ry="7.5"/>
		<path class="st7" d="M-240.9,1346.8c-2.1-0.2-4.3-0.4-5.9,0.8c-0.8,0.7-1.6,1.7-2.1,2.7c-1.7,2.9-3,5.9-3.8,9.1
			c-0.7,2.7-0.7,5.6-1.6,8.2c-1.5,5-5.4,9.2-5.9,14.4c-0.2,2.3,0.2,5.1-1.5,6.7c-0.4,0.4-0.8,0.7-1.3,0.9c-1.2,0.7-2.2,1.8-2.9,3
			c-0.5,1.1-1.2,2.1-2.1,2.9c-1.5,1.1-4,1-4.8,2.7c-0.7,1.8,1.2,3.7,0.7,5.6c-0.4,1.5-2.1,2.2-3.3,3.3c-1.5,1.3-2.2,3.4-2.8,5.2
			c-5.1,0.9-10.2-0.4-14.2-3.6c2.1,5.2,2.2,10.8,2.2,16.3c0,1.8,0,3.8-1.3,5.1c5.9,0.1,11.7,1.7,17.5,3c2.5,0.6,5.2,1,7.6,0
			c1.3-0.7,2.5-1.7,3.5-2.8c3.2-3.2,6.5-6.7,7.2-11.2c0.5-2.4,0-5.1,0.1-7.5c0.3-3.1,0.9-6.2,1.9-9.2c1.7-6.2,2.8-12.5,3.4-18.8
			c0.4-3.9,3.7-7,5.5-10.6c3.4-6.7,6.8-13.5,7-21C-237.5,1350-238.3,1347-240.9,1346.8z"/>
		<path class="st1" d="M-240.9,1346.8c-2.1-0.2-4.3-0.4-5.9,0.8c-0.8,0.7-1.6,1.7-2.1,2.7c-1.7,2.9-3,5.9-3.8,9.1
			c-0.7,2.7-0.7,5.6-1.6,8.2c-1.5,5-5.4,9.2-5.9,14.4c-0.2,2.3,0.2,5.1-1.5,6.7c-0.4,0.4-0.8,0.7-1.3,0.9c-1.2,0.7-2.2,1.8-2.9,3
			c-0.5,1.1-1.2,2.1-2.1,2.9c-1.5,1.1-4,1-4.8,2.7c-0.7,1.8,1.2,3.7,0.7,5.6c-0.4,1.5-2.1,2.2-3.3,3.3c-1.5,1.3-2.2,3.4-2.8,5.2
			c-5.1,0.9-10.2-0.4-14.2-3.6c2.1,5.2,2.2,10.8,2.2,16.3c0,1.8,0,3.8-1.3,5.1c5.9,0.1,11.7,1.7,17.5,3c2.5,0.6,5.2,1,7.6,0
			c1.3-0.7,2.5-1.7,3.5-2.8c3.2-3.2,6.5-6.7,7.2-11.2c0.5-2.4,0-5.1,0.1-7.5c0.3-3.1,0.9-6.2,1.9-9.2c1.7-6.2,2.8-12.5,3.4-18.8
			c0.4-3.9,3.7-7,5.5-10.6c3.4-6.7,6.8-13.5,7-21C-237.5,1350-238.3,1347-240.9,1346.8z"/>
		<path class="st7" d="M-247.8,1466.2c-6.4-3-11.1-8.7-16.2-13.5c-9.8-9.3-21.8-15.7-32.2-24.5c-6.8-5.7-13-12.5-20.5-17.2
			c-6.7-4.2-14.2-6.8-21.9-7.7c-0.9-0.2-1.8-0.1-2.7,0.1c-1,0.5-1.9,1.1-2.5,2c-3.4,3.7-6.3,7.9-8.9,12.2
			c-13.1,22.3-31.8,41.1-47.2,61.7c-1,1-1.1,2.6-0.2,3.7l3.1,6.2c1.8,3.5,4.6,7.5,8.3,6.7c1.7-0.3,3.1-1.6,4.4-2.8l14.1-13.5
			l14.8-14.2c8.6-8.2,17.4-16.8,23.2-27.4c4.4,7.7,12.3,12.7,17.6,19.7c2.1,2.6,3.7,5.6,5.5,8.4c2.9,4.5,6.3,8.7,9.6,13l17,21.7
			c2.3,2.9,4.7,6,7.9,8c4,2.5,8.9,3.2,13.6,3.7c6.4,0.6,12.7,0.8,19.1,0.7c4.9-0.1,9.9-0.4,14.2-2.5c4.4-2.2,8-6.6,7.8-11.5
			c-0.3-2.5-1.1-5-2.4-7.2C-228.5,1480.8-236.4,1471.6-247.8,1466.2z"/>
		<ellipse class="st13" cx="-231.7" cy="1356.5" rx="5.7" ry="5.7"/>
		<path class="st5" d="M-232.9,1352.2c1.3,2.5,1.5,5.5,0.7,8.2c-0.8,2.7-2.2,5.2-3.7,7.6c-1.3,2.4-2.9,4.8-4.8,6.8
			c8.8,0.5,17.4-3,25.2-7.2c6.3-3.4,12.6-7.6,15.9-13.9c-2.1,0.5-4.1,0.1-5.8-1c-1.7-1.2-3.2-2.6-4.5-4.2l-4.4-5
			c-1-1.1-2-2.2-2.7-3.6c-0.9-1.8-1.4-3.7-1.1-5.8c-1.8,1.9-3.7,3.5-5.9,4.9c-3.2,2.1-6.7,3.6-9.8,5.6c-1.1,0.7-3.7,1.9-3,3.4
			C-236.4,1349.6-233.7,1350.6-232.9,1352.2z"/>
		<path class="st1" d="M-232.9,1352.2c1.3,2.5,1.5,5.5,0.7,8.2c-0.8,2.7-2.2,5.2-3.7,7.6c-1.3,2.4-2.9,4.8-4.8,6.8
			c8.8,0.5,17.4-3,25.2-7.2c6.3-3.4,12.6-7.6,15.9-13.9c-2.1,0.5-4.1,0.1-5.8-1c-1.7-1.2-3.2-2.6-4.5-4.2l-4.4-5
			c-1-1.1-2-2.2-2.7-3.6c-0.9-1.8-1.4-3.7-1.1-5.8c-1.8,1.9-3.7,3.5-5.9,4.9c-3.2,2.1-6.7,3.6-9.8,5.6c-1.1,0.7-3.7,1.9-3,3.4
			C-236.4,1349.6-233.7,1350.6-232.9,1352.2z"/>
		<path class="st6" d="M-232.8,1353c-1.7,2.8-2.1,6.1,0,8.6c0.3,0.3,1.2,2.2,1.6,2.3c0.4,0,0.7-0.2,1-0.5c2.2-2,3.7-4.5,5.6-6.7
			c1.9-2.2,4.3-4.2,7.1-4.7c3.5-0.6,6.8,1.3,9.8,3.1c1.3,0.7,2.4,1.6,3.4,2.7c0.7,1.1,1,2.4,1.1,3.7c1,7.9,1,15.8,1,23.8
			c0,5.7,0,11.5-1.1,17.2c-0.6,2.9-1.4,5.8-1.8,8.7c-0.3,2.6-0.4,5.2-0.4,7.9v11c-0.1,2,0.1,4,0.4,6c0.6,2.4,1.7,4.6,2.4,6.9
			c0.7,2.7,1.3,5.4,1.6,8.2l1.5,11.3c0.5,3.6,0.8,7.5-1.3,10.3c-0.9,1.3-2.2,2.3-3.3,3.7c-3.7,4.8-2.5,11.7-4,17.6
			c-1.2,4.3-3.7,8.2-7.2,11.1c-2.6,2.2-6.1,4-9.5,3.4c-4.6-0.8-7.4-5.6-8.6-10.2c-1.2-4.6-1.7-9.5-4.4-13.3
			c-2.2-3.1-5.6-5.1-8.8-7.3c-3.2-2.2-6.2-5.2-6.8-8.9c-0.3-1.7-0.1-3.4-0.3-5c-0.5-4.3-3.3-8-7.3-9.7c-2.3-0.9-5.2-1.2-6.6-3.4
			c3.5-2,5.7-5.5,6.9-9.3c1.2-3.7,1.4-7.8,1.7-11.7l0.7-13.1c0.4-5.9,0.5-11.7,3.1-17c1.1-2.3,2.6-4.6,3.8-6.9c1.6-3.3,3-6.7,4-10.1
			c1.9-5.4,3.7-10.8,5.4-16.3c0.7-2.6,1.7-5.2,3-7.6C-237.5,1356.5-235.4,1353.6-232.8,1353z"/>
		<path class="st7" d="M-262,1438.6l3.5,0.1l0.7-5.2c0.1-1,0.4-2.1,0.7-3.1c0.6-1,1.2-2.1,2-2.9c3.5-4.9,3.2-11.2,4-17.2
			c1.1-7.9,4.4-15.2,7.7-22.4l6.7-15.1c1.3-2.5,2-5.4,1.9-8.3c0.1-2.3,0.7-10.8,0.8-13.1c0-0.8-1.9-0.4-2.3-1.1
			c-0.8-1.7-2,2.9-3.6,3.8c-1.6,1-2.4,2.8-3.1,4.6c-1.5,3.7-2.3,7.8-3.7,11.6s-3.3,7.6-6.3,10.3c-1.4,1.2-3,2.2-4.3,3.5
			c-4.2,4.1-4.6,10.8-4.8,16.7C-262.1,1404.2-262.8,1438.6-262,1438.6z"/>
		<path class="st7" d="M-211.9,1346.8c-3.4,1.3-5.2,5-6.2,8.5c-0.9,3.6-1.3,7.3-3.2,10.4c-4.2,7.4-15.1,9.6-18.1,17.5
			c-0.9,2.6-0.9,5.5-1.2,8.2c-0.6,5.7-2.4,11.2-3,17c-0.3,4.4-0.2,8.9,0.3,13.3l3.7,45.2c0.6,6.6,0.6,13.5-1.1,19.9
			c3.8,0.7,7.8-0.3,11.3-1.9c3.5-1.6,6.8-3.8,10.2-5.7c5.9-3.3,12.4-5.5,17.5-9.8c0.9-0.7,1.7-1.6,2.3-2.6c1-1.8,1.1-3.9,1.6-5.9
			c0.5-1.6,1-3.2,1.7-4.7c1.9-4.6,3.6-9.2,5-14c0.9-3.1,1.7-6.4,2.2-9.6c0.4-2.5,0.7-5.2,0.8-7.8c0.3-4,1.1-8.1,2.4-11.9
			c3.3-9.2,5.2-18.8,5.5-28.6c0.1-1.4,0-2.8-0.3-4.2c-0.6-1.7-1.3-3.3-2.2-4.8c-1.6-3-2.5-6.2-4-9.3c-3.4-6.7-9.3-12-15.5-16.3
			C-204.9,1347.8-208.4,1345.4-211.9,1346.8z"/>
		<path class="st5" d="M-291,1420.4c-2.7-1.4-5.2-3.3-7.2-5.5c-0.9-1.1-1.7-2.3-2.7-3.5c-2.4-2.6-5.6-4.4-9.1-5.2
			c-3.5-0.7-6.9-1.1-10.5-1c-2.3-0.2-4.7,0.1-7,0.8c-2.3,0.7-4,2.6-4.6,5c-0.6,2.8,1.3,5.5,3.6,7.3c2.1,1.7,4.5,2.8,7,3.4
			c2.1,0.4,4.2,0.7,6.4,0.7c12.6,1.3,23.7,8.2,34.7,14.3c9.7,5.4,19.5,10.6,29.5,15.3c0.4-3,0.6-6,0.5-9.1c-0.1-2.2-0.2-5.7-2.3-7
			c-2.5-1.6-6.6-1.9-9.4-2.8c-6.5-2.2-12.7-4.7-18.9-7.6C-284.4,1424.1-287.8,1422.3-291,1420.4z"/>
		
			<ellipse transform="matrix(-0.2543 0.9671 -0.9671 -0.2543 988.3852 1893.0946)" class="st5" cx="-235.6" cy="1327.6" rx="22.5" ry="22.3"/>
		<path class="st7" d="M-205.4,1372.3c-2,2.3-3,5.3-4.3,8.1c-2.7,5.7-7.1,10.6-9.3,16.5c-2.2,6.3-2.2,13.7-6.7,18.7
			c-0.7,0.8-1.7,1.7-2,2.8c0,0.7-0.1,1.4-0.2,2.1c-0.7,1.8-3.6,1.9-4.1,3.7c-0.2,0.6-0.1,1.1-0.3,1.7c-0.5,1.1-2,1.3-3,2.1
			c-2.2,1.5-1.7,4.9-3.3,7c-1.4,1.6-3.6,2.3-5.6,2c-2-0.3-4-1.1-5.8-2.2c-0.7-0.4-1.3-0.6-2.1-0.7c-0.8,0-1.7,0.3-2.4,0.8
			c-4.1,2.6-6.1,7.8-6,12.7c0,4.9,1.7,9.7,3.5,14.2c0.3,0.7,0.7,1.5,1.1,2.2c1.4,1.4,3.7,1.2,5.5,0.4c1.8-0.8,3.5-2.1,5.4-2.4
			c3.5-0.7,6.8,1.8,10.3,1.6c2.5-0.2,4.9-1.7,6.9-3.1c3.4-2.3,6.8-4.7,9.4-8c1.5-2,2.6-4.3,4-6.5c1.7-2.6,3.6-5.2,5.6-7.5l12.8-15.7
			c1.3-1.5,2.4-3.1,3.5-4.8c1.2-2.2,2.1-4.7,2.7-7.2c1.2-4.2,2.4-8.4,2.6-12.8c0.1-3.6-0.3-7.2-0.9-10.8c-0.5-3.6-1.4-6.9-2.8-10.2
			C-193.4,1370.9-200.2,1366.1-205.4,1372.3z"/>
		<path class="st2" d="M-166.5,1362.2c2.1-7.8,0.3-16.1-4.8-22.4c3.5-14.6-4-29.2-17.2-34.6c0.5-13.7-8.2-26.2-21.6-29.8
			c-13.9-3.7-28.1,3.7-34.1,16.7c-8.4-4.4-17.3-3.9-20.3,1.2c-3.1,5.3,1.6,13.9,10.3,18.9c2.7,1.6,5.8,2.7,8.9,3.3
			c2.7,7.7,8.6,14,16.1,17.2c-0.5,11.2,5.4,21.8,15.4,27.3c0.6,3.8,2,7.5,4.1,10.7c-0.3,0.7-0.5,1.3-0.7,2.1
			c-2.7,10.4,3.2,21.1,13.3,23.7s20.5-3.7,23.2-14.2c0.7-2.8,0.8-5.7,0.4-8.5C-170,1370.7-167.6,1366.6-166.5,1362.2z"/>
		<path class="st1" d="M-258.7,1296.1c2.9-5.2,11.9-5.6,20.3-1.2c6-13,20.2-20.3,34.1-16.7c0.7,0.2,1.2,0.4,1.9,0.6
			c-2.3-1.5-5-2.5-7.7-3.3c-13.9-3.7-28.1,3.7-34.1,16.7c-8.4-4.4-17.3-3.9-20.3,1.2c-3.1,5.3,1.6,13.9,10.3,18.9
			c1.7,0.9,3.4,1.7,5.2,2.3C-257.3,1309.5-261.7,1301.3-258.7,1296.1z"/>
		<path class="st1" d="M-204.4,1375.5c0.2-0.7,0.4-1.4,0.7-2.1c-2.2-3.2-3.7-6.8-4.1-10.7c-9.9-5.4-15.8-16-15.4-27.3
			c-7.6-3.2-13.4-9.4-16.1-17.2c-1.9-0.3-3.7-0.8-5.3-1.6c2.9,7.2,8.5,12.9,15.7,15.9c-0.5,11.2,5.4,21.8,15.4,27.3
			c0.6,3.8,2,7.5,4.1,10.7c-0.3,0.7-0.5,1.3-0.7,2.1c-2.7,10.4,3.2,21,13.2,23.7C-203.5,1391.7-206.4,1383.3-204.4,1375.5z"/>
		
			<ellipse transform="matrix(-0.7963 0.6049 -0.6049 -0.7963 394.6765 2530.563)" class="st5" cx="-228.7" cy="1331.7" rx="3.5" ry="4.6"/>
	</g>
</g>
<g id="_x23_woman_x28_sit_x2C_hold_x5B_pizza_x5D__x29_">
	<g>
		<path class="st14" d="M-598.7,1304.6c0,0,33.9,57.3,41.9,64.9c0,0,33.9,35.2,16.7,32.8c-1.3-0.2-26.2-21.2-27.6-24.7
			s-48.5-64.5-48.5-64.5l6.7-6.2L-598.7,1304.6z"/>
		<path class="st1" d="M-598.7,1304.6c0,0,33.9,57.3,41.9,64.9c0,0,33.9,35.2,16.7,32.8c-1.3-0.2-26.2-21.2-27.6-24.7
			s-48.5-64.5-48.5-64.5l6.7-6.2L-598.7,1304.6z"/>
		<path class="st7" d="M-567.5,1491.6c0,0-10.9,13.6-6.4,19s27.2,15.8,34.4,15.4c7.7-0.5,33.6,0.9,34.4-10.9c0,0,1.8-5.4-21.7-6.4
			c-23.5-0.9-16.3-25.4-16.3-25.4L-567.5,1491.6z"/>
		<path class="st4" d="M-697.2,1376.5c0,0-10.9,37.1,21.7,43.5l35.3-1.8c0,0,49.9-9.9,63.5-2.7c0,0,5.4,0.9,3.7,8.2
			c-1.8,7.2,2.7,56.2,2.7,56.2v16.3c0,0,30.8,0,34.4-3.7c0,0-2.7-14.5,0-26.2c2.7-11.7-4.5-48.9-4.5-48.9l-0.7-22.3
			c-0.1-5.6-3.3-10.8-8.2-13.4c-1.7-0.9-3.7-1.4-5.5-1.4c0,0-61.6-9.9-83.3-8.2C-660,1373.8-697.2,1376.5-697.2,1376.5z"/>
		<path class="st6" d="M-636.4,1257.7c0,0,16.3,19,18.1,25.4c1.8,6.4,21.7,22.6,21.7,22.6s-14.5,10.9-11.8,16.3
			c2.7,5.4-19-18.1-19-18.1l-25.4-37.1L-636.4,1257.7z"/>
		<path class="st1" d="M-636.4,1257.7c0,0,16.3,19,18.1,25.4c1.8,6.4,21.7,22.6,21.7,22.6s-14.5,10.9-11.8,16.3
			c2.7,5.4-19-18.1-19-18.1l-25.4-37.1L-636.4,1257.7z"/>
		<path class="st14" d="M-625.6,1236c0,0-8.2,26.2-8.2,36.3c0,10-34.4-2.7-33.6-8.2c0.8-5.4,20-25.4,20.8-33.6
			C-645.6,1222.4-625.6,1236-625.6,1236z"/>
		<path class="st1" d="M-652.7,1254.1c0,0-31.7-8.2-36.3,38.1c-4.6,46.2,3.7,51.7-9.9,79.8s92.4,3.7,92.4,3.7s-5.4-6.4-22.7-3.7
			l-8.2-24.5c0,0-2.7-10.9,12.7-10.9c15.4,0,8.2-31.7,8.2-31.7s-8.2-27.2-12.7-29.9C-633.7,1272.3-641.9,1255.9-652.7,1254.1z"/>
		<path class="st6" d="M-652.7,1252.4c0,0-31.7-8.2-36.3,38.1c-4.6,46.2,3.7,51.7-9.9,79.8c-13.6,28.1,92.4,3.7,92.4,3.7
			s-5.4-6.4-22.7-3.7l-8.2-24.5c0,0-2.7-10.9,12.7-10.9c15.5,0,8.2-31.7,8.2-31.7s-8.2-27.2-12.7-29.9
			C-633.6,1270.5-641.9,1254.1-652.7,1252.4z"/>
		<circle class="st14" cx="-633.7" cy="1222.4" r="29.9"/>
		<polygon class="st15" points="-639.5,1375.5 -564.4,1420.4 -494.4,1355.3 -577.8,1326.2 -637.8,1367.1 		"/>
		<polygon class="st16" points="-557.1,1244 -580.2,1314.7 -496.7,1341.6 -461.5,1241.9 		"/>
		<polygon class="st15" points="-550.9,1249.7 -574.2,1319.3 -496.7,1341.6 -463.6,1247.6 		"/>
		<polygon class="st17" points="-557,1244.7 -550.8,1250.5 -463.5,1248.2 -461.4,1242.5 		"/>
		<polygon class="st17" points="-580.1,1315.4 -557,1244.7 -550.8,1250.5 -573.5,1318.3 		"/>
		<polygon class="st18" points="-557.1,1244 -550.9,1249.7 -463.6,1247.6 -461.5,1241.9 		"/>
		<polygon class="st18" points="-580.2,1314.7 -557.1,1244 -550.9,1249.7 -573.6,1317.6 		"/>
		<polygon class="st17" points="-557.1,1244 -547.5,1253 -460.2,1250.9 -461.5,1241.9 		"/>
		<polygon class="st17" points="-580.2,1314.7 -557.1,1244 -547.5,1253 -570.3,1320.9 		"/>
		<polygon class="st17" points="-580,1315.6 -577.9,1329.1 -494,1358.2 -496.5,1342.6 		"/>
		<polygon class="st17" points="-642.1,1359.9 -580,1315.6 -577.4,1329.1 -638.2,1374.4 		"/>
		<polygon class="st18" points="-580.2,1314.7 -578.4,1326.2 -494.5,1355.4 -496.7,1341.6 		"/>
		<polygon class="st18" points="-642.2,1358.9 -580.2,1314.7 -577.8,1326.2 -638.7,1371.6 		"/>
		<polygon class="st17" points="-580.2,1314.7 -578.4,1326.2 -494.5,1355.4 -496.7,1341.6 		"/>
		<polygon class="st17" points="-642.2,1358.9 -580.2,1314.7 -577.8,1326.2 -638.7,1371.6 		"/>
		<polygon class="st19" points="-642.2,1358.9 -639.4,1375.5 -564.4,1420.3 -566.3,1403.2 		"/>
		<path class="st8" d="M-608,1356.2c0,0-1.3,2.4,0.7,3.7c0.9,0.6,7.7,1.9,14.5,3.2c3.4,0.7,6.7,1.2,9.4,1.7c3.3,0.6,5.5,0.9,5.5,0.9
			h1.7l10.4,0.2l9.8,0.2l4.1-0.8l-2.3-16.3l-12.4-13.6l-2.6,2.2l-0.5,0.4l-6.8,3.3l-19.2,9.4l-8.6,4.2l-1,0.5L-608,1356.2z"/>
		<path class="st9" d="M-544.8,1364.1c0,0-2.3-17.8-9.1-24.1c0,0-5.5-5.6-8.9-7.1c0,0-2.9-2.1-5.7,4.1c0,0,11,6.7,13.3,17.1
			l2.3,10.4L-544.8,1364.1z"/>
		
			<ellipse transform="matrix(-0.5383 0.8427 -0.8427 -0.5383 276.1288 2558.2109)" class="st10" cx="-562.7" cy="1354.7" rx="4.7" ry="5.5"/>
		
			<ellipse transform="matrix(-0.5383 0.8427 -0.8427 -0.5383 246.5101 2566.6191)" class="st10" cx="-579.8" cy="1350.8" rx="4.7" ry="5.5"/>
		<path class="st10" d="M-576.4,1341.1c0.2,1.9,1.2,3.6,2.8,4.5c2.5,1.7,5.8,1.2,7.1-0.9c1.3-2.2,0.5-5.2-2.2-6.9
			c-0.2-0.1-0.4-0.2-0.6-0.3l-0.5,0.4L-576.4,1341.1z"/>
		<path class="st10" d="M-575.7,1362.2c-0.7,1-0.8,2.3-0.5,3.5l10.4,0.2c-0.1-2-1.1-3.7-2.8-4.7
			C-571.1,1359.6-574.4,1360.1-575.7,1362.2z"/>
		<path class="st10" d="M-592.8,1358.6c-0.8,1.3-0.8,3-0.1,4.4c3.4,0.7,6.7,1.2,9.4,1.7l0.1-0.1c1.4-2.2,0.5-5.2-2.2-6.9
			C-588.2,1355.9-591.3,1356.4-592.8,1358.6z"/>
		<path class="st10" d="M-604.4,1354.7c0.4,0.5,0.8,0.8,1.4,1.1c2.5,1.7,5.8,1.2,7.1-0.9c0.8-1.3,0.8-3,0.1-4.4L-604.4,1354.7z"/>
		<path class="st11" d="M-559.6,1361.3l-0.9,1.5c-0.9-1-2.2-1.8-3.5-2.3l-0.3-0.1c-1.8-0.3,0.9-1.5,0.9-1.5
			S-559.9,1360.3-559.6,1361.3z"/>
		<path class="st11" d="M-567.7,1350.5l-0.9,1.5c-0.9-1-2.2-1.8-3.5-2.3l-0.3-0.1c-1.8-0.3,0.9-1.5,0.9-1.5
			S-568.1,1349.6-567.7,1350.5z"/>
		<path class="st11" d="M-572.8,1354.5l-0.9,1.5c-0.9-1-2.2-1.8-3.5-2.3l-0.3-0.1c-1.8-0.3,0.9-1.5,0.9-1.5
			S-573.2,1353.5-572.8,1354.5z"/>
		<path class="st11" d="M-583.7,1358.3l-0.9,1.5c-0.9-1-2.2-1.8-3.5-2.3l-0.3-0.1c-1.8-0.3,0.9-1.5,0.9-1.5
			S-584,1357.3-583.7,1358.3z"/>
		<path class="st11" d="M-599.3,1357.6l-0.9,1.5c-0.9-1-2.2-1.8-3.5-2.3l-0.3-0.1c-1.8-0.3,0.9-1.5,0.9-1.5
			S-599.8,1356.7-599.3,1357.6z"/>
		<path class="st11" d="M-586.5,1352l-0.9,1.5c-0.9-1-2.2-1.8-3.5-2.3l-0.3-0.1c-1.8-0.3,0.9-1.5,0.9-1.5S-586.8,1351.1-586.5,1352z
			"/>
		<path class="st9" d="M-547.8,1368.7c0,0,6-0.7,2.9-4.6c-3.3-0.8-6.7-0.7-9.9,0.2c0,0-25.7,1.1-29-0.7c0,0-23.2-3.7-24.2-5
			c0,0-1.9,0.4,3.8,2.9s23.9,5.2,23.9,5.2l19.3,1.5l6.9-0.8L-547.8,1368.7z"/>
		<path class="st12" d="M-547.8,1368.7c0,0,6-0.7,2.9-4.6c-3.3-0.8-6.7-0.7-9.9,0.2c0,0-25.7,1.1-29-0.7c0,0-23.2-3.7-24.2-5
			c0,0-1.9,0.4,3.8,2.9s23.9,5.2,23.9,5.2l19.3,1.5l6.9-0.8L-547.8,1368.7z"/>
		<path class="st10" d="M-566,1359.5c-0.6,1.8-0.3,3.7,0.8,5.2c1.8,2.4,4.9,3.3,7,1.8c2.2-1.5,2.3-4.7,0.7-7.2
			c-0.1-0.2-0.3-0.4-0.4-0.5l-0.6,0.2L-566,1359.5z"/>
		<polygon class="st19" points="-566.3,1403.2 -496.7,1341.6 -494.5,1355.2 -564.4,1420.3 		"/>
		<polygon class="st19" points="-487.6,1345.2 -496.7,1341.6 -461.5,1241.9 -454.9,1246.5 		"/>
		<g class="st20">
			<path class="st21" d="M-544.1,1490.6c0.1-2.4,0.4-4.8,1-7.1l-0.5,0.2C-544,1485.9-544.2,1488.2-544.1,1490.6z"/>
			<path class="st21" d="M-539.5,1524.2c-7.3,0.5-29.9-9.9-34.4-15.4c-0.6-0.7-0.9-1.6-1-2.5c-0.3,1.5,0.1,3.1,1,4.4
				c4.5,5.4,27.2,15.8,34.4,15.4c7.7-0.5,33.6,0.9,34.4-10.9c0.1-0.3,0-0.7-0.1-0.9C-507.3,1525.1-532,1523.7-539.5,1524.2z"/>
		</g>
		<path class="st8" d="M-513,1304.2c0,0,1.6-1.9,0.2-3.2c-0.7-0.7-6.2-3.2-11.7-5.6c-2.7-1.2-5.4-2.3-7.7-3.3l-4.6-2l-1.5-0.4
			l-8.9-2.2l-8.3-2.2l-3.7-0.1l-1.2,14.4l7.9,14.2l2.6-1.3l0.5-0.2l6.5-1.5l18.4-4.1l8.2-1.9l0.9-0.2L-513,1304.2z"/>
		<path class="st9" d="M-565.4,1284.8c0,0-1.6,15.7,2.9,22.4c0,0,3.6,5.9,6.2,7.9c0,0,2.1,2.3,5.7-2.3c0,0-8-7.9-8-17.2l0.1-9.4
			L-565.4,1284.8z"/>
		
			<ellipse transform="matrix(-0.717 0.697 -0.697 -0.717 -44.382 2610.843)" class="st10" cx="-552.1" cy="1296.4" rx="4.1" ry="4.9"/>
		
			<ellipse transform="matrix(-0.717 0.697 -0.697 -0.717 -15.9184 2612.8225)" class="st10" cx="-538.3" cy="1303.2" rx="4.1" ry="4.9"/>
		<path class="st10" d="M-543,1310.8c0.3-1.6-0.3-3.3-1.5-4.4c-1.9-1.9-4.7-2.2-6.4-0.6c-1.7,1.6-1.4,4.4,0.5,6.4
			c0.1,0.1,0.3,0.3,0.4,0.4l0.5-0.2L-543,1310.8z"/>
		<path class="st10" d="M-539.3,1292.7c0.7-0.7,1.1-1.8,1.1-2.9l-8.9-2.2c-0.3,1.7,0.2,3.4,1.4,4.5
			C-543.8,1294-541,1294.3-539.3,1292.7z"/>
		<path class="st10" d="M-525.6,1299.1c0.9-1,1.3-2.4,1-3.7c-2.7-1.2-5.4-2.3-7.7-3.3l-0.1,0.1c-1.6,1.6-1.4,4.4,0.5,6.4
			S-527.2,1300.7-525.6,1299.1z"/>
		<path class="st10" d="M-516.4,1304.9c-0.3-0.5-0.6-0.9-0.9-1.3c-1.9-1.9-4.7-2.2-6.3-0.6c-0.9,1-1.3,2.4-1,3.7L-516.4,1304.9z"/>
		<path class="st11" d="M-553.4,1290.1l1.1-1c0.7,1,1.5,2,2.5,2.7l0.2,0.1c1.4,0.7-1.1,1-1.1,1S-553.3,1291.1-553.4,1290.1z"/>
		<path class="st11" d="M-548.6,1301.1l1.1-1.1c0.7,1,1.5,2,2.5,2.7l0.2,0.1c1.4,0.7-1.1,1.1-1.1,1.1S-548.5,1301.9-548.6,1301.1z"
			/>
		<path class="st11" d="M-543.4,1298.7l1.1-1.1c0.7,1,1.5,2,2.5,2.7l0.2,0.1c1.4,0.7-1.1,1.1-1.1,1.1S-543.4,1299.6-543.4,1298.7z"
			/>
		<path class="st11" d="M-533.4,1297.6l1.1-1.1c0.7,1,1.5,2,2.4,2.7l0.2,0.1c1.4,0.7-1.1,1-1.1,1S-533.3,1298.6-533.4,1297.6z"/>
		<path class="st11" d="M-520.1,1301.3l1.1-1.1c0.7,1,1.5,2,2.4,2.7l0.2,0.1c1.4,0.7-1.1,1.1-1.1,1.1S-520,1302.1-520.1,1301.3z"/>
		<path class="st11" d="M-532.3,1303.4l1.1-1c0.7,1,1.5,2,2.5,2.7c0.1,0,0.1,0.1,0.2,0.1c1.4,0.7-1.1,1.1-1.1,1.1
			S-532.1,1304.4-532.3,1303.4z"/>
		<path class="st9" d="M-562,1281.4c0,0-5.2-0.7-3.5,3.4c2.6,1.3,5.5,2,8.5,1.9c0,0,22.1,4.2,24.6,6.4c0,0,19.1,7.9,19.7,9.1
			c0,0,1.7,0-2.7-3.3c-4.4-3.3-19.4-9.3-19.4-9.3l-16.2-5.2l-6.1-0.7L-562,1281.4z"/>
		<path class="st12" d="M-562,1281.4c0,0-5.2-0.7-3.5,3.4c2.6,1.3,5.5,2,8.5,1.9c0,0,22.1,4.2,24.6,6.4c0,0,19.1,7.9,19.7,9.1
			c0,0,1.7,0-2.7-3.3c-4.4-3.3-19.4-9.3-19.4-9.3l-16.2-5.2l-6.1-0.7L-562,1281.4z"/>
		<path class="st14" d="M-588.9,1303.3c2.7-1.4,5.2-3.3,7.2-5.5c0.9-1.1,1.7-2.3,2.7-3.5c2.4-2.6,5.6-4.4,9.1-5.2
			c3.5-0.7,6.9-1.1,10.5-1c2.3-0.2,4.7,0.1,7,0.8c2.3,0.7,4,2.6,4.6,5c0.5,2.8-1.3,5.5-3.6,7.3c-2.1,1.7-4.5,2.8-7,3.4
			c-2.1,0.4-4.2,0.7-6.4,0.7c-12.6,1.3-23.7,8.2-34.7,14.3c-9.7,5.4-15.1,5.2-25.1,9.9c-0.4-3-5-0.7-4.9-3.7c0.1-2.2,0.2-5.7,2.3-7
			c2.4-1.5,6.6-1.9,9.4-2.8c6.5-2.2,12.7-4.7,18.8-7.6C-595.6,1306.9-592.2,1305.1-588.9,1303.3z"/>
		<path class="st1" d="M-671.8,1294.9l48.1,43.5c0,0,9.1-18.1,11.8-18.1c2.7,0-32.6-53.4-32.6-53.4s-9.1-10.9-14.5-5.4
			C-664.5,1266.9-680.9,1263.1-671.8,1294.9z"/>
		<path class="st6" d="M-672.7,1293l48,43.5c0,0,9.1-18.1,11.8-18.1c2.7,0-32.6-53.4-32.6-53.4s-9.1-10.9-14.5-5.4
			C-665.5,1265-681.7,1261.4-672.7,1293z"/>
		<path class="st2" d="M-593.6,1216.5c1-1.1,1.9-2.5,2.5-3.9c4.1-9.4-2.4-21.2-13.7-24.4c-5.6-1.7-11.9-1.3-17.5-3.1
			c-4.5-1.4-8.3-4-12.5-6.1c-7.8-3.8-16.4-5.7-25.1-5.3c-8.4,0.3-17.7,3.3-21.2,9.8c-5.1,9.6,4.2,21.6-1.4,30.8
			c-4.1,6.8-14.2,8.8-22.6,11.8c-8.6,3-16.6,7.9-23.1,14.3c-6.6,6.6-11.2,15.6-8,23.7c1.9,4.8,6.3,8.5,9.7,12.7
			c11.8,13.9,12.8,34,2.5,49c-1.6,2.3-3.5,4.6-4.1,7.2c-1.6,6.3,4.9,12.6,12.3,13.8s15.2-1.6,20.9-5.6c5.3-3.7,9.7-8.7,12.5-14.5
			c6.8-14.5,2.1-30.9,1.4-46.6c-0.1-1.9,0-3.8,1.3-5.2c2-2.2,5.7-2.1,8.9-2.3c8.3-0.7,15.9-5.3,19.5-11.8
			c6.7-12.4-1.1-29.5,10.7-38.9C-625.8,1209.9-604.6,1228.4-593.6,1216.5z"/>
		<path class="st1" d="M-604.8,1188.1L-604.8,1188.1c4.3,5.1,5.9,11.9,3.4,17.9c-0.7,1.4-1.5,2.8-2.5,3.9c-11,12-32.2-6.5-47.1,5.2
			c-11.7,9.3-3.9,26.5-10.7,38.9c-3.5,6.4-11.2,11.1-19.5,11.8c-3.2,0.3-6.9,0.2-8.9,2.3c-1.3,1.4-1.4,3.4-1.3,5.2
			c0.7,15.7,5.5,32.1-1.4,46.6c-2.8,5.8-7.1,10.9-12.5,14.5c-5.8,4-13.5,6.8-20.9,5.6l-0.5-0.1c2.5,3.6,6.5,6,10.8,6.7
			c7.4,1.2,15.1-1.6,20.9-5.7c5.3-3.7,9.7-8.7,12.5-14.5c6.8-14.5,2.1-30.9,1.4-46.6c-0.1-1.9,0-3.8,1.3-5.2c2-2.2,5.7-2.1,8.9-2.3
			c8.3-0.7,15.9-5.3,19.5-11.8c6.7-12.4-1.1-29.5,10.7-38.9c14.8-11.7,36.1,6.7,47.1-5.2c1-1.1,1.9-2.5,2.5-3.9
			C-586.9,1203.1-593.5,1191.4-604.8,1188.1z"/>
	</g>
</g>
</svg>
