<?xml version="1.0" encoding="utf-8"?>
<!-- Generator: Adobe Illustrator 19.0.0, SVG Export Plug-In . SVG Version: 6.00 Build 0)  -->
<svg version="1.1" xmlns="http://www.w3.org/2000/svg" xmlns:xlink="http://www.w3.org/1999/xlink" x="0px" y="0px"
	 viewBox="0 0 1000 1000" style="enable-background:new 0 0 1000 1000;" xml:space="preserve">
<style type="text/css">
	.st0{opacity:0.2;}
	.st1{fill:#3F3D56;}
	.st2{fill:#6C63FF;}
	.st3{opacity:0.1;enable-background:new    ;}
	.st4{opacity:0.4;}
	.st5{fill:url(#SVGID_1_);}
	.st6{opacity:0.9;}
	.st7{fill:#E5E7EB;}
	.st8{fill:#FFFFFF;}
	.st9{fill:#ECECF3;}
	.st10{fill:#D6D8E0;}
	.st11{fill:url(#SVGID_2_);}
	.st12{opacity:0.5;}
	.st13{fill:#A0616A;}
	.st14{fill:#F86D70;}
	.st15{opacity:0.1;}
	.st16{fill:url(#SVGID_3_);}
	.st17{fill:#2D293D;}
</style>
<g id="_x23_wild_x28_have_x5B_tree_x5D__x29_">
	<g>
		<g>
			<g>
				<g class="st0">
					<path class="st1" d="M716.7,894.8c-0.8,1.4-1.6,2.8-2.6,4c-8.8-6.1-17.7-12.3-26.8-18.2l0.6-1.1c2.1-4,5.3-7.5,9.1-9.9
						c5-3.1,10.6-3.8,15.3-1.3c4.6,2.5,7.3,7.5,7.5,13.4C719.9,886.3,718.8,890.8,716.7,894.8z"/>
					
						<ellipse transform="matrix(-0.8837 -0.4681 0.4681 -0.8837 941.3161 1962.3759)" class="st1" cx="714.5" cy="864.2" rx="16.3" ry="21.3"/>
					
						<ellipse transform="matrix(-0.8837 -0.4681 0.4681 -0.8837 975.0728 1924.7603)" class="st1" cx="726.7" cy="841.2" rx="16.3" ry="21.3"/>
					
						<ellipse transform="matrix(-0.8837 -0.4681 0.4681 -0.8837 1008.9917 1886.9637)" class="st1" cx="738.9" cy="818.1" rx="16.3" ry="21.3"/>
					
						<ellipse transform="matrix(-0.8837 -0.4681 0.4681 -0.8837 1042.717 1849.3317)" class="st1" cx="751.1" cy="795.1" rx="16.3" ry="21.3"/>
					<path class="st2" d="M780.7,608.5c-0.6-3.5-1.1-7.1-1.3-10.8l41.2,13.9l-41.1-21.3c1.3-21.6,11.2-41.6,27.7-55.4l39.8,57.6
						l-30.9-64.1c36.6-22.9,84.8-11.8,107.8,24.8c22.9,36.6,11.8,84.8-24.8,107.8c-3.1,2-6.4,3.8-9.8,5.3c1,5.5,1.4,11.2,1.3,16.8
						l-62.6-0.5l61.8,10.1c-4.3,26.1-21.3,48.2-45.5,58.9c7.6,42.5-20.4,83.2-62.9,90.8c-42.5,7.6-83.2-20.4-90.8-62.9
						c-6.4-35.5,12.3-70.8,45.2-85.3C729.2,658.5,747.9,623.2,780.7,608.5L780.7,608.5z"/>
					<path class="st3" d="M881.4,716.6c-8.1,15.5-21.3,27.8-37.3,34.8c7.6,42.5-20.4,83.2-62.9,90.8s-83.2-20.4-90.8-62.9
						c-6.4-35.5,12.3-70.8,45.2-85.3C732.4,677.3,885.6,708.9,881.4,716.6z"/>
				</g>
				<g class="st0">
					<path class="st1" d="M355.7,795.5c0.8,3,1.8,6,3,8.8c19.3-7.4,38.8-14.5,58.6-21.3c-0.1-0.8-0.4-1.6-0.5-2.5
						c-2-8.5-6.3-16.4-12.3-22.8c-7.9-8.1-18.2-12-27.9-9.6s-17,10.6-20.3,21.4C353.7,777.9,353.6,786.9,355.7,795.5z"/>
					
						<ellipse transform="matrix(-0.2372 -0.9715 0.9715 -0.2372 -254.8141 1278.0787)" class="st1" cx="374.4" cy="739.1" rx="41.1" ry="31.4"/>
					
						<ellipse transform="matrix(-0.2372 -0.9715 0.9715 -0.2372 -222.1627 1206.2205)" class="st1" cx="362.5" cy="690.3" rx="41.1" ry="31.4"/>
					
						<ellipse transform="matrix(-0.2372 -0.9715 0.9715 -0.2372 -189.612 1134.1066)" class="st1" cx="350.5" cy="641.5" rx="41.1" ry="31.4"/>
					
						<ellipse transform="matrix(-0.2372 -0.9715 0.9715 -0.2372 -156.9677 1062.2509)" class="st1" cx="338.6" cy="592.8" rx="41.1" ry="31.4"/>
					<path class="st2" d="M371.2,230.9c2.9-6.3,5.3-12.8,7.3-19.5l-83.3,6.4l87-20.5c7.9-40.7-1.4-82.8-25.4-116.5l-101.6,88.8
						l88.1-105c-57.8-60-153-62-213-4.5s-61.9,152.7-4.4,212.7c4.9,5.1,10.1,9.8,15.7,14.2c-4.5,9.9-7.9,20.2-10.1,30.7l117.3,28.7
						l-120-10.1c-4.4,50.6,17,100.1,57,131.6c-34.5,75.7-1,164.9,74.5,199.2s164.9,1,199.2-74.5c28.8-63.1,10.5-137.8-44.1-180.7
						C444.2,348.4,425.9,273.6,371.2,230.9z"/>
					<path class="st3" d="M132.3,384.9c7.9,32.8,26.7,61.9,53.4,82.7c-34.5,75.7-1,164.9,74.5,199.2s164.9,1,199.2-74.5
						c28.8-63.1,10.5-137.8-44.1-180.7C428.9,381.9,128.3,368.5,132.3,384.9z"/>
				</g>
				<ellipse class="st2" cx="193.2" cy="960.6" rx="71.7" ry="12.2"/>
				<path class="st2" d="M222.8,940.8c3.1-2.9,6-6.3,6.9-10.3c0.9-4-0.9-9-4.8-10.5c-4.4-1.6-9,1.4-12.7,4.4
					c-3.6,3-7.6,6.5-12.3,5.9c4.9-4.4,7.1-11,5.8-17.5c-0.3-1.3-0.8-2.5-1.6-3.5c-2.4-2.6-6.9-1.5-9.8,0.6
					c-9.3,6.5-11.9,19-11.9,30.4c-1-4.1-0.1-8.4-0.1-12.5s-1.1-8.9-4.8-11.2c-2.3-1.1-4.6-1.8-7.1-1.6c-4.1-0.1-8.8,0.3-11.7,3.3
					c-3.5,3.8-2.6,10.1,0.5,14.3c3.1,4.1,7.8,6.8,12,9.6c3.3,2.3,6.6,4.8,8.6,8.3c0.3,0.5,0.5,1,0.6,1.5h26.1
					C212.5,948.9,217.9,945.3,222.8,940.8z"/>
				<g class="st4">
					<ellipse class="st2" cx="860.6" cy="893.9" rx="40.8" ry="6.9"/>
					<path class="st2" d="M877.5,882.7c1.9-1.5,3.3-3.5,3.9-5.9c0.5-2.4-0.5-5.1-2.8-6c-2.5-1-5.1,0.8-7.3,2.5
						c-2.1,1.8-4.4,3.8-7,3.4c2.8-2.5,4-6.4,3.3-10c-0.1-0.8-0.4-1.5-0.9-2c-1.4-1.5-3.9-0.9-5.5,0.3c-5.3,3.8-6.8,10.9-6.8,17.4
						c-0.5-2.4-0.1-4.8-0.1-7.1s-0.6-5-2.8-6.4c-1.3-0.6-2.6-1-4.1-1c-2.4-0.1-5,0.1-6.6,1.9c-2,2.1-1.5,5.8,0.3,8.1
						s4.4,3.9,6.9,5.5c2,1.1,3.6,2.8,4.9,4.6c0.1,0.3,0.3,0.5,0.4,0.9h14.9C871.6,887.3,874.8,885.2,877.5,882.7z"/>
				</g>
				<g class="st4">
					<ellipse class="st2" cx="234.3" cy="816.2" rx="40.8" ry="6.9"/>
					<path class="st2" d="M251.2,805c1.9-1.5,3.3-3.6,3.9-5.9c0.5-2.4-0.5-5.1-2.8-6c-2.5-1-5.1,0.8-7.1,2.5s-4.4,3.8-7,3.4
						c2.8-2.5,4-6.4,3.3-10c-0.1-0.8-0.4-1.5-0.9-2c-1.4-1.5-3.9-0.9-5.6,0.4c-5.3,3.8-6.8,10.9-6.8,17.4c-0.5-2.4-0.1-4.8-0.1-7.1
						s-0.6-5-2.6-6.3c-1.3-0.6-2.6-1-4.1-1c-2.4-0.1-5,0.1-6.6,1.9c-2,2.1-1.5,5.8,0.3,8.1c1.8,2.4,4.4,3.9,6.9,5.5
						c2,1.1,3.6,2.8,4.9,4.6c0.1,0.3,0.3,0.5,0.4,0.9h14.9C245.3,809.6,248.4,807.5,251.2,805z"/>
				</g>
			</g>
		</g>
	</g>
</g>
<g id="_x23_chart_x28_have_x5B_phone_x5D__x29_">
	<g>
		
			<linearGradient id="SVGID_1_" gradientUnits="userSpaceOnUse" x1="811.278" y1="837.4069" x2="811.278" y2="-92.1292" gradientTransform="matrix(1 0 0 1 -260 108.77)">
			<stop  offset="0" style="stop-color:#808080;stop-opacity:0.25"/>
			<stop  offset="0.54" style="stop-color:#808080;stop-opacity:0.12"/>
			<stop  offset="1" style="stop-color:#808080;stop-opacity:0.1"/>
		</linearGradient>
		<path class="st5" d="M785.4,227.4h-2.8V76.8c0-33.2-27.3-60.1-61.1-60.1H379.4c-33.7,0-61.1,26.9-61.1,60.1v62.5H318h-0.6
			c-2,0-3.6,1.5-3.6,3.5v30.1c0,2,1.6,3.5,3.6,3.5h0.6h0.3v30.7h-1.1c-2,0-3.5,1.6-3.6,3.5l0,0v57.5c0,2,1.6,3.5,3.6,3.5h1.1v22.6
			h-1c-2,0-3.6,1.5-3.6,3.5l0,0v58c0,2,1.6,3.5,3.6,3.5l0,0h1V886c0,33.2,27.3,60.1,61.1,60.1h342.2c33.7,0,61.1-26.9,61.1-60.1V340
			h2.8c2,0,3.6-1.5,3.6-3.5V230.9C789.1,229,787.5,227.4,785.4,227.4z"/>
		<g class="st6">
			<path class="st7" d="M772.3,231.1h7.8c1.6,0,2.9,1.3,2.9,2.9v105.5c0,1.6-1.3,2.9-2.9,2.9h-7.8c-1.6,0-2.9-1.3-2.9-2.9V234
				C769.4,232.4,770.7,231.1,772.3,231.1z"/>
			<path class="st7" d="M323.5,143.9h1.9c1.6,0,2.9,1.3,2.9,2.9v30.9c0,1.6-1.3,2.9-2.9,2.9h-1.9c-1.6,0-2.9-1.3-2.9-2.9v-30.9
				C320.7,145.2,322,143.9,323.5,143.9z"/>
			<path class="st7" d="M323.2,211h2.8c1.6,0,2.9,1.3,2.9,2.9v58c0,1.6-1.3,2.9-2.9,2.9h-2.8c-1.6,0-2.9-1.3-2.9-2.9v-58
				C320.4,212.2,321.7,211,323.2,211z"/>
			<path class="st7" d="M323.4,297h2.4c1.6,0,2.9,1.3,2.9,2.9v58.5c0,1.6-1.3,2.9-2.9,2.9h-2.4c-1.6,0-2.9-1.3-2.9-2.9v-58.5
				C320.5,298.3,321.9,297,323.4,297z"/>
			<path class="st8" d="M373.9,22.9h353.9c26.9,0,48.9,21.9,48.9,48.9v820.3c0,26.9-21.9,48.9-48.9,48.9H373.9
				c-26.9,0-48.9-21.9-48.9-48.9V71.6C325,44.7,346.8,22.9,373.9,22.9z"/>
			<path class="st7" d="M512.1,50.2h53.4c2.6,0,4.9,2.1,4.9,4.9v3.1c0,2.6-2.1,4.9-4.9,4.9h-53.4c-2.6,0-4.9-2.1-4.9-4.9v-3.1
				C507.3,52.5,509.4,50.2,512.1,50.2z"/>
			<circle class="st7" cx="587.1" cy="56.6" r="7.3"/>
		</g>
		<path class="st9" d="M712.9,46.7h-51.7V53c0,16.3-13.3,29.6-29.6,29.6H466.8c-16.3,0-29.6-13.3-29.6-29.6v-6.3h-48.5
			c-19.8,0-35.8,16-35.8,35.8l0,0V881c0,19.8,16,35.8,35.8,35.8l0,0h324.1c19.8,0,35.8-16,35.8-35.8l0,0V82.7
			C748.7,62.9,732.7,46.7,712.9,46.7L712.9,46.7z"/>
		<rect x="383.3" y="113.1" class="st10" width="64" height="64"/>
		<rect x="494.5" y="117.6" class="st10" width="134.1" height="12.2"/>
		<rect x="494.5" y="138.9" class="st10" width="221" height="12.2"/>
		<rect x="494.5" y="160.3" class="st10" width="221" height="12.2"/>
		<rect x="383.8" y="230.4" class="st10" width="64" height="64"/>
		<rect x="495" y="235" class="st10" width="134.1" height="12.2"/>
		<rect x="495" y="256.3" class="st10" width="221" height="12.2"/>
		<rect x="495" y="277.6" class="st10" width="221" height="12.2"/>
		<rect x="384.3" y="347.8" class="st10" width="64" height="64"/>
		<rect x="495.5" y="352.3" class="st10" width="134.1" height="12.2"/>
		<rect x="495.5" y="373.6" class="st10" width="221" height="12.2"/>
		<rect x="495.5" y="395" class="st10" width="221" height="12.2"/>
		<rect x="384.6" y="465.1" class="st10" width="64" height="64"/>
		<rect x="496" y="469.7" class="st10" width="134.1" height="12.2"/>
		<rect x="496" y="491" class="st10" width="221" height="12.2"/>
		<rect x="496" y="512.3" class="st10" width="221" height="12.2"/>
		<rect x="385.3" y="582.5" class="st10" width="64" height="64"/>
		<rect x="496.4" y="587" class="st10" width="134.1" height="12.2"/>
		<rect x="496.4" y="608.4" class="st10" width="221" height="12.2"/>
		<rect x="496.4" y="629.7" class="st10" width="221" height="12.2"/>
		<rect x="385.6" y="699.7" class="st10" width="64" height="64"/>
		<rect x="496.9" y="704.4" class="st10" width="134.1" height="12.2"/>
		<rect x="496.9" y="725.7" class="st10" width="221" height="12.2"/>
		<rect x="496.9" y="747" class="st10" width="221" height="12.2"/>
		<rect x="386.1" y="817.1" class="st10" width="64" height="64"/>
		<rect x="497.4" y="821.8" class="st10" width="134.1" height="12.2"/>
		<rect x="497.4" y="843.1" class="st10" width="221" height="12.2"/>
		<rect x="497.4" y="864.4" class="st10" width="221" height="12.2"/>
		
			<linearGradient id="SVGID_2_" gradientUnits="userSpaceOnUse" x1="550.8395" y1="266.9088" x2="550.8395" y2="131.3437" gradientTransform="matrix(1 0 0 1 0 174.72)">
			<stop  offset="0" style="stop-color:#808080;stop-opacity:0.25"/>
			<stop  offset="0.54" style="stop-color:#808080;stop-opacity:0.12"/>
			<stop  offset="1" style="stop-color:#808080;stop-opacity:0.1"/>
		</linearGradient>
		<rect x="278" y="306.1" class="st11" width="545.6" height="135.6"/>
		<rect x="281" y="309.1" class="st8" width="541" height="129.6"/>
		<rect x="385.5" y="341.9" class="st2" width="64" height="64"/>
		<g class="st12">
			<rect x="496.8" y="346.4" class="st2" width="134.1" height="12.2"/>
			<rect x="496.8" y="367.8" class="st2" width="221" height="12.2"/>
			<rect x="496.8" y="389.1" class="st2" width="221" height="12.2"/>
		</g>
		<rect x="385.3" y="342.6" class="st2" width="64" height="64"/>
		<path class="st13" d="M425.9,397.2c-0.9,1.8-2.5,3.1-4.4,3.9c-1.1,0.4-2.3,0.6-3.5,0.6c-1.3,0.1-2.5-0.1-3.8-0.5
			c-1.6-0.6-3-1.8-4-3.1c-1-1.4-1.8-3-2.3-4.6c-0.4-0.8-0.5-1.8-0.5-2.6c1-0.1,1.9-0.6,2.5-1.4c0.4-0.8,0.4-1.8,0-2.5
			c-0.1-0.3-0.1-0.5-0.3-0.8c-0.3-0.5-0.9-1.6-0.4-2c0.5-0.5,1.5-0.5,1.9-0.6c1.3-0.8,2.5-1.4,3.9-1.8c1.3-0.1,2.5-0.1,3.8,0.3
			c0.1,0,0.4,0.1,0.5,0.1c0.1,0.1,0.3,0.3,0.4,0.5c0.4,0.9,0.5,1.8,0.9,2.6c0.3,0.9,0.8,1.8,1.4,2.5c0.6,0.5,1.3,0.9,1.9,1.1
			l1.6,0.8c0.3,0.1,0.5,0.3,0.8,0.5c0.3,0.3,0.4,0.6,0.4,1C427.1,393.3,426.7,395.4,425.9,397.2z"/>
		<path class="st3" d="M420.6,385.5c-2.8,2.9-7,3.5-10.5,1.5c-0.1-0.3-0.1-0.5-0.3-0.8c-0.3-0.5-0.9-1.6-0.4-2
			c0.5-0.5,1.5-0.5,1.9-0.6c1.3-0.8,2.5-1.4,3.9-1.8c1.3-0.1,2.5-0.1,3.8,0.3c0.1,0,0.4,0.1,0.5,0.1c0.1,0.1,0.3,0.3,0.4,0.5
			C420.2,383.6,420.3,384.6,420.6,385.5z"/>
		<circle class="st13" cx="414.3" cy="379.1" r="8.6"/>
		<path class="st14" d="M440.8,406.7h-41c-1.3-2.8-2.4-5.6-3.6-8.4l0,0c0.1-0.6,0.4-1.3,0.8-1.9c0.4-0.6,1-0.9,1.6-1
			c0.4,0,0.8,0.1,1-0.1c0.3-0.3,0.1-0.5,0.4-0.6c0.1-0.1,0.6-0.1,1-0.1c0.8,0,1.5-0.4,1.9-1c0.1-0.3,0.3-0.5,0.5-0.6
			c0.4-0.1,0.6-0.3,1-0.3c1-0.3,1.6-1.3,2.4-1.9c0.4-0.4,1-0.6,1.5-0.4c0.1,0.1,0.3,0.1,0.3,0.3c0.3,0.4,0.4,0.6,0.4,1
			c0.5,2.1,1.6,3.9,3.3,5.3c3.3,2.5,7.9,1.9,10.4-1.5c0.4-0.4,0.6-0.9,0.8-1.4c0.6-1.5,1-3.1,1-4.8c0-0.1,0-0.1,0-0.3
			c1-0.3,2.1,0,3,0.6c0.9,0.6,1.8,1.3,2.6,1.6c1.1,0.5,2.5,0.5,3.3,1.3c0.4,0.4,0.5,0.8,1,1c0.3,0.1,0.5,0.1,0.8,0.1
			c1.4,0.4,2.6,1.4,3.1,2.8c0.9,2,1.5,4.1,1.8,6.4L440.8,406.7z"/>
		<path class="st1" d="M408.3,365c-0.6,0.5-1.1,1.1-1.5,1.8c-0.8,1.3-1.8,2.3-3,3c-0.5,0.1-1,0.5-1.4,0.9c-0.3,0.3-0.4,0.6-0.4,1
			c-0.3,1.3-0.4,2.5-0.4,3.8c0,0.6,0,1.3,0.3,1.9c0.3,0.5,0.8,1,0.9,1.5c0,0.5,0,0.9-0.1,1.4s0.1,1,0.5,1.3c0.3,0.1,0.5,0.1,0.8,0.1
			c1.3,0.3,1.6,1.8,1.9,3c0.4,0,0.6-0.5,0.8-0.9l1.3-5.9c0.1-0.6,0.4-1.4,1-1.6c0.4-0.1,0.9-0.1,1.4,0c1.8,0.1,3.1-1.3,4.9-1.5
			c0.5-0.1,1.1-0.1,1.6-0.1c1.4,0,2.9,0.6,3.1,1.9c0,0.3,0.1,0.5,0.3,0.5c0.3,0,0.4,0,0.6,0c0.9-0.1,1.4,0.9,1.6,1.6l0.9,2.9
			c0.1,0.4,0.4,1,0.9,1c0.5,0,0.8-0.4,0.9-0.8c0-0.4,0-0.9-0.1-1.3c-0.4-1.9,0.3-3.8,0.6-5.6c0.4-1.9,0.5-4-0.9-5.4
			c-0.5-0.5-1.1-0.9-1.5-1.5c-0.4-0.6-0.6-1.1-1-1.6c-1.8-1.5-3.9-2.4-6-2.6C413.1,363.2,410.6,363.7,408.3,365z"/>
		<g class="st15">
			<path d="M423.9,380.9c-0.5,0-0.6-0.6-0.9-1l-0.9-2.9c-0.3-0.8-0.8-1.8-1.6-1.6c-0.3,0-0.4,0-0.6,0c-0.3-0.1-0.3-0.4-0.3-0.5
				c-0.3-1.3-1.9-1.8-3.1-1.9c-0.5,0-1.1,0-1.6,0.1c-1.6,0.4-3.1,1.8-4.9,1.5c-0.5-0.1-0.9-0.1-1.4,0c-0.6,0.3-0.9,1-1,1.6
				c-0.4,1.9-0.9,3.9-1.3,5.8c-0.1,0.4-0.3,0.9-0.8,0.9c-0.3-1.3-0.6-2.8-1.9-3c-0.3,0-0.5-0.1-0.8-0.1c-0.1-0.1-0.3-0.3-0.4-0.4
				c0,0.1-0.1,0.4-0.1,0.5c-0.1,0.5,0.1,1,0.5,1.3c0.3,0.1,0.5,0.1,0.8,0.1c1.3,0.3,1.6,1.8,1.9,3c0.4,0,0.6-0.5,0.8-0.9
				c0.4-1.9,0.9-3.9,1.3-5.9c0.1-0.6,0.4-1.4,1-1.6c0.4-0.1,0.9-0.1,1.4,0c1.8,0.1,3.1-1.3,4.9-1.5c0.5-0.1,1.1-0.1,1.6-0.1
				c1.4,0,2.9,0.6,3.1,1.9c0,0.3,0.1,0.5,0.3,0.5c0.3,0,0.4,0,0.6,0c0.9-0.1,1.4,0.9,1.6,1.6l0.9,2.9c0.1,0.4,0.4,1,0.9,1
				c0.5,0,0.8-0.4,0.9-0.8c0-0.4,0-0.6-0.1-1C424.5,380.7,424.2,380.9,423.9,380.9z"/>
			<path d="M402.8,377.2c-0.1-0.6-0.6-1-0.9-1.5c-0.1-0.4-0.3-0.8-0.3-1.1c0,0.3,0,0.4,0,0.6c0,0.6,0,1.3,0.3,1.9
				c0.3,0.4,0.5,0.8,0.8,1.3C402.8,378,402.8,377.6,402.8,377.2z"/>
			<path d="M425.2,373.2c-0.5,1.6-0.8,3.3-0.8,5c0.1-1.3,0.4-2.5,0.8-3.6c0.3-0.9,0.3-1.9,0.3-2.8
				C425.4,372.3,425.4,372.7,425.2,373.2z"/>
		</g>
		<path class="st14" d="M403.1,406.7h-9.8c0.4-2.6,1.3-5.1,2.3-7.6c0.1-0.3,0.3-0.5,0.4-0.6l0.1-0.1c0.3-0.3,0.6-0.3,1-0.5
			c0.3-0.3,0.4-0.5,0.6-0.5c1.1,0,2.1,0.1,3.1,0.5c0.3,0,0.6,0.1,0.9,0.3c0.6,0.4,1.1,0.9,1.4,1.6
			C404.1,401.8,403.4,404.3,403.1,406.7z"/>
	</g>
</g>
<g id="_x23_man_x28_stand_x2C_put_x5F_up_x29_">
	<g>
		
			<linearGradient id="SVGID_3_" gradientUnits="userSpaceOnUse" x1="540.6033" y1="588.4481" x2="736.6877" y2="588.4481" gradientTransform="matrix(1 0 0 1 -260 108.77)">
			<stop  offset="0" style="stop-color:#808080;stop-opacity:0.25"/>
			<stop  offset="0.54" style="stop-color:#808080;stop-opacity:0.12"/>
			<stop  offset="1" style="stop-color:#808080;stop-opacity:0.1"/>
		</linearGradient>
		<path class="st16" d="M472.5,424.5c-3.4-3.4-9-4.5-13.2-2c-3.1,1.9-4.9,5.5-6.5,8.9c-2.4,5-5.8,9.6-6.9,15.2
			c-2.9,14.9-14.8,26.6-19.5,41c-1.8,5.1-2.5,10.6-5.3,15.4c-1.3,2-2.8,4-4.3,5.9c-6.1,7.8-11.7,16-16.3,24.8
			c-2.8,0.5-5.1,2.8-7.4,4.6c-3,2.3-6.4,3.9-10,4.8c-1.5,0.1-2.9,0.6-4.1,1.5c-1.8,1.4-2,4-3.4,5.8c-1,1.1-2.3,2-3.8,2.5
			c0-0.5,0-0.9-0.1-1.4c0-2.4-0.1-4.6-0.1-7c8.4-9.8,8.3-24.3-0.1-34.1c0.1-3.6,0.6-7.3,1.4-10.8c0.5-1.8,0.4-3.8-1-4.9
			c-0.6-0.5-1.6-0.8-2.4-1.3c-1-0.9-1.9-2-2.5-3.1c-3.9-5.4-11-7.3-17-4.4c-4.5,2.4-7.3,7.1-11.3,10.4c-2,1.6-4.4,2.9-6.5,4.5
			c-4.1,3.6-7,8.4-8.4,13.7c-1.4,5.3-2.1,10.6-2.3,16c-0.3,1.6-0.1,3.3,0.1,4.9c0.4,1.4,1,2.6,1.9,3.8c3.8,6.3,9.1,11.3,15.5,14.9
			c0,0.4,0,0.6,0,1c0,0.5-0.1,1-0.3,1.5l-0.8-0.3c-2.6-0.6-5.6-0.5-8-1.9c-4.1-2.3-5.4-7.9-9.3-10.5c-0.4-0.3-0.6-0.4-1-0.6
			c-0.3-7.1-1.6-14.2-4-20.9c-1.1-3.3-2.5-6.5-2.4-9.9c0.1-3.1,1.6-6.1,3-9c4.8-9.9,8-20.4,11.3-30.8c2.1-6.5,4.1-13.2,6.3-19.8
			c2-1.5,3.9-3.3,5.5-5.3c3.4-3.9,5.5-8.6,6.4-13.7c0.8-5.1-0.5-10.3-3.5-14.5c-1.4-2-3.5-3.3-5.9-3.6c-2.1,0-4.1,1-5.5,2.5
			c-2.1,2.4-3.6,5.1-4.8,8.1c-2,4.9-4.1,9.9-3.9,15.2c0.1,4.4,1.8,9.3-0.8,12.8c-8.3,11.7-14.7,24.9-21.2,37.7
			c-1.6,3-3.1,6.1-4.3,9.4c-1.6,5.3-2.4,10.8-2.3,16.3c0,10.3,1.4,20.7,2.8,30.8c0.6,4.6,1.5,9.5,3.6,13.5c-1.4,5-2.1,10-2.3,15.3
			c0,1.3,0.1,2.4,0.5,3.5c0.8,1.3,1.6,2.5,2.8,3.5c3,3.4,4.4,7.9,3.8,12.3c-0.4,4.1,0,8.4,1.1,12.4c2.5,11.2,5,22.3,7,33.5
			c0.5,2.1,0.6,4.3,0.5,6.4c-0.4,3-2,5.9-1.8,9c0.4,1.4,0.6,2.9,0.8,4.3c-0.1,1.1-0.4,2.1-0.8,3.3c-2.9,8.3-10.5,27.3-10.4,36.1
			l2-0.5c-2,11.4-6.8,22.3-9.3,33.7c-1.8,8.3-2.5,16.8-2.4,25.2c0.1,3.8,0.1,7.6-0.3,11.4c-0.4,3.4-1.3,6.6-1.8,10
			c-0.5,4.5-0.8,9-0.6,13.5c-0.1,7.1,0.3,14.3,1.3,21.3c1.9,12-1.4,23.9-2.4,36.1c-0.5,8.5-1.4,16.9-2.9,25.3c-0.6,3.5-1.5,7-2,10.6
			c-1.4,10.6,0.6,21.6-1.5,31.9c-1,4.9-2.9,10.4-0.1,14.5c0.9,1.3,2.1,2.4,3,3.6c1,1.3,1.4,2.9,0.9,4.4c-0.5,1.1-1.8,1.9-2.1,3.1
			c-0.5,1.9,1.5,3.5,3.3,4.4l0.5,0.3c-0.3,1.4,0.1,2.8,1,3.8c1.1,1,2.4,1.8,3.9,2l23.7,7.1c5.3,1.6,11,3.1,16.3,1.9
			c0.1,0.8,0.5,1.5,1,2c1.1,1,2.4,1.8,3.9,2l23.4,7.1c6,1.9,12.7,3.6,18.4,1.1c1.6-0.6,3.1-1.8,4.3-3.1c1.9-2.8,2.4-6.1,1.5-9.4
			c-0.3-1.6-1.1-3-2.3-4.1c-1.6-1.1-3.5-1.8-5.5-1.8c-1.6,0-3.3-0.5-4.8-1.3c-0.5-0.3-0.9-0.6-1.1-1.1c1.4-1.4,2.6-2.8,3.9-4.1
			c-1-0.4-1.4-1.9-1.5-2.9c-1.5-15.9,4.5-31.6,6.8-47.4c1.1-8,1.4-16,0.6-24.1c-0.3-3-0.6-6-0.8-9c-0.6-15.8,6.9-30.9,6.6-46.7
			c-0.1-7.4,3.8-14.7,5.6-21.8c1.6-6.4,1.8-13,1.8-19.5l0.3-51.7c0-7,0-14.2-2.3-20.8c-1.1-3.6-1.4-7.5-0.9-11.4
			c6.4-2.8,12.4-7,19.3-6.3c1.9-4.8-0.4-20.9-2-25.8c-6.6-19.2-8-39.8-3.8-59.6c1.5-7.1-0.6-14.7,1.1-21.8c0.4-1.6,1-3.3,1.9-4.6
			c1-1.5,2.6-2.3,4.3-2.3c0-4.4-0.1-8.8-0.4-13.2c2.8-2.3,5.1-5,7-8c3.8-6.3,5.9-13.3,8.5-20.2c4.6-12,10.9-23.3,16.2-35.1
			c5.3-11.8,5.8-24.7,10-36.8c2.4-6.8,7.1-12.3,13.5-15.5c2.5-1.3,5.1-2.1,7-4.3c1.4-1.8,2.3-3.8,2.4-6
			C477.2,433,475.7,428,472.5,424.5z M325.9,942c0.5-0.6,1-1.1,1.5-1.8c-1.6-0.3-3.5-1.4-3.5-3c0.1-1.6,0.5-3.1,1-4.8
			c0.8-2.8,0.9-5.5,0.4-8.4c-0.4-1.9-1-3.8-1.4-5.8c-0.4-2.1-0.6-4.3-0.8-6.5c-0.6-7.8-2.3-15.5-4.5-23.1
			c-2.3-7.3,0.9-14.7,1.6-22.2c0.4-3.6,0.3-7.3,1.5-10.6c0.8-2,2-3.8,2.6-5.8c1.8-4.6,0.8-9.8-0.4-14.7c7.4-13.4,9.9-29.4,12.7-44.6
			c1.6-8.5,3.1-17,4.8-25.4c0.6-3.8,1.5-7.8,3.8-10.8c2.4,11.3,3.4,22.8,2.9,34.2c-0.3,3.4-0.3,6.6,0.1,10c0.6,3.6,2.1,7.1,3,10.6
			c2,7.9,0.8,16.2,1.3,24.3c0.1,3.3,0.6,6.5,0.8,9.9c0.6,14.5-4.3,28.7-9,42.3c-3,8.4-3.6,17.9-5,26.8c-1.4,8.4-2.6,16.9-3.3,25.4
			c-0.3,2.6-0.4,5.3-0.6,7.9c-0.8-0.1-1.6-0.3-2.5-0.4c-1.6,0-3.3-0.5-4.8-1.3C326.8,944.2,326.1,943.2,325.9,942L325.9,942z"/>
		<path class="st1" d="M377.2,959.2c2,0,3.9,0.6,5.5,1.8c1.1,1.1,2,2.5,2.3,4.1c0.9,3.1,0.4,6.6-1.5,9.3c-1.1,1.4-2.6,2.5-4.3,3.1
			c-5.8,2.5-12.4,0.6-18.4-1.1l-23.7-7.1c-1.5-0.3-2.8-1-3.9-2c-1.4-1.8-1.4-4.3-0.1-6c1.3-1.8,3-3.1,5-4c7.4-3.6,15.7-4.4,23.8-4.5
			c3,0,6-0.8,8,1.6c1.1,1.3,0.9,2.6,2.5,3.6C373.9,958.8,375.5,959.2,377.2,959.2z"/>
		<path class="st1" d="M332.5,946.2c2,0,3.9,0.6,5.5,1.8c1.1,1.1,2,2.5,2.3,4.1c0.9,3.1,0.4,6.6-1.5,9.3c-1.1,1.4-2.6,2.5-4.3,3.1
			c-5.8,2.5-12.4,0.6-18.4-1.1l-23.7-7.1c-1.5-0.3-2.8-1-3.9-2c-1.4-1.8-1.4-4.3-0.1-6c1.3-1.8,3-3.1,5-4c7.4-3.6,15.7-4.4,23.8-4.5
			c3,0,6-0.8,8,1.6c1.1,1.3,0.9,2.6,2.5,3.6C329.1,945.8,330.9,946.2,332.5,946.2z"/>
		<path class="st1" d="M353.1,689.6c-13.9-1.4-27.9-1.8-42-1.1c-0.9,0-1.9,0.1-2.8,0.4c-3.1,1.3-3.5,5.3-3.9,8.6
			c-1.1,13.4-7,25.8-10,39c-1.8,8.3-2.5,16.7-2.4,25.1c0.1,3.8,0.1,7.5-0.3,11.3c-0.4,3.4-1.3,6.6-1.8,10c-0.5,4.5-0.8,9-0.6,13.5
			c-0.1,7,0.3,14.2,1.3,21.2c1.9,11.9-1.4,23.8-2.4,35.8c-0.5,8.4-1.4,16.8-2.9,25.2c-0.6,3.5-1.5,7-2,10.5
			c-1.4,10.5,0.6,21.4-1.5,31.8c-1,4.9-2.9,10.3-0.1,14.5c0.9,1.3,2.1,2.4,3,3.6c1,1.3,1.4,2.9,0.9,4.4c-0.5,1.1-1.8,1.9-2.1,3.1
			c-0.5,1.9,1.5,3.5,3.3,4.3c13.7,6.1,31.1,1.8,40.3-10c-1.6-0.3-3.5-1.4-3.5-3c0.1-1.6,0.5-3.1,1-4.6c0.8-2.8,0.9-5.5,0.4-8.3
			c-0.4-1.9-1-3.8-1.4-5.6c-0.4-2.1-0.6-4.3-0.8-6.4c-0.6-7.8-2.3-15.4-4.5-22.8c-2.3-7.3,0.9-14.5,1.6-22.1
			c0.4-3.5,0.3-7.3,1.5-10.5c0.8-2,2-3.8,2.6-5.8c1.8-4.6,0.8-9.8-0.4-14.5c7.4-13.4,9.9-29.3,12.7-44.4c1.6-8.4,3.1-16.9,4.8-25.3
			c0.6-3.8,1.5-7.6,3.8-10.6c2.4,11.2,3.4,22.7,2.9,34.1c-0.3,3.3-0.3,6.6,0.1,9.9c0.6,3.6,2.1,7,3,10.6c2,7.9,0.8,16,1.3,24.2
			c0.1,3.3,0.6,6.5,0.8,9.8c0.6,14.4-4.3,28.4-9,42.1c-3,8.4-3.6,17.8-5,26.6c-1.4,8.4-2.6,16.8-3.3,25.2
			c-0.6,7.8-0.9,16.2-5.8,22.3c4.4,2.9,9,5.8,14.2,6.8c6,1,12.2-0.3,17.4-3.4c5.3-3.1,9.9-7.1,13.8-11.8c-1-0.4-1.4-1.9-1.5-2.9
			c-1.5-15.9,4.5-31.3,6.8-47.1c1.1-7.9,1.4-15.9,0.6-23.9c-0.3-3-0.6-6-0.8-9c-0.6-15.7,6.9-30.8,6.6-46.5
			c-0.1-7.4,3.8-14.7,5.6-21.7c1.6-6.3,1.8-12.9,1.8-19.4l0.3-51.4c0-6.9,0-14-2.3-20.7c-2.8-7.9,0.4-16.9,0.9-25.3
			C380.4,689.2,366.6,690.7,353.1,689.6z"/>
		<path class="st13" d="M397.7,542c5.3-10.8,11.7-20.9,19.2-30.3c1.5-1.9,3-3.8,4.3-5.8c2.8-4.6,3.5-10.1,5.3-15.3
			c4.8-14.3,16.7-25.8,19.5-40.7c1-5.4,4.5-10,6.9-15c1.6-3.4,3.4-6.9,6.5-8.8c4.1-2.5,9.8-1.4,13.2,2c3.4,3.5,4.8,8.4,4,13.2
			c-0.3,2.1-1,4.3-2.4,5.9c-1.9,2-4.5,3-7,4.3c-6.3,3.3-11.2,8.8-13.5,15.4c-4.1,12.2-4.8,24.9-10,36.6
			c-5.3,11.7-11.5,22.9-16.2,34.8c-2.6,6.8-4.6,13.8-8.5,20c-3.9,6.3-9.8,11.5-17,12.4c0-4.5-0.8-9-2.1-13.3
			C398.3,552.4,395.4,546.5,397.7,542z"/>
		<path class="st13" d="M320.1,551.3c0.4-8.9-1-17.7-4-26.1c-1.1-3.1-2.5-6.4-2.4-9.8c0.1-3.1,1.6-6,3-8.9c4.8-9.8,8-20.3,11.3-30.7
			l6.3-19.5c2-1.5,3.9-3.3,5.5-5.3c3.4-3.9,5.5-8.5,6.4-13.7c0.8-5.1-0.5-10.3-3.5-14.4c-1.4-2-3.5-3.3-5.9-3.5
			c-2.1,0-4.1,1-5.5,2.5c-2.1,2.4-3.6,5.1-4.8,8c-2,4.8-4.1,9.8-3.9,15c0.1,4.4,1.8,9.1-0.8,12.7c-8.3,11.5-14.7,24.8-21.2,37.5
			c-1.6,3-3.1,6.1-4.3,9.4c-1.6,5.3-2.4,10.8-2.3,16.2c0,10.3,1.4,20.5,2.8,30.7c0.9,6.4,2,13.3,6.9,17.5
			C308.7,562.7,313.7,556.3,320.1,551.3z"/>
		<circle class="st13" cx="352.1" cy="530.2" r="26.1"/>
		<path class="st13" d="M339.4,557.5c-0.6,4.8-3.1,8.9-5.6,12.9c-1.5,2.5-3.4,5.1-6.3,5.4c7.5,4,15.4,7.1,23.6,9.5
			c2.8,0.9,5.6,1.4,8.6,1.4c2.5-0.1,4.9-0.8,7.1-1.9c10-4.4,17.5-13.2,20.2-23.8c-3.3,0.1-6.5-0.1-9.6-0.8c-1.8-0.4-3.8-0.9-4.8-2.4
			c-0.8-1.3-1-2.8-1-4.1c-0.1-4.4-0.1-8.6,0-13c-6.4-0.4-12.8,0.4-18.9,2.3c-2.5,0.9-5,1.8-7.5,2.5c-1.6,0.4-5.9,0-7.1,0.9
			C336.5,548,339.9,554.4,339.4,557.5z"/>
		<path class="st2" d="M350.8,573.4c-0.6-7-5.6-12.9-12.4-14.5c-2.6-0.6-5.6-0.5-8-1.9c-4.1-2.3-5.4-7.9-9.3-10.4
			c-3.9-2.5-9.5-1.1-13,2.1c-3.4,3.3-5.1,7.9-6.5,12.4c-2.1,6.1-3.3,12.5-3.4,19c0,1.1,0.1,2.4,0.5,3.5c0.8,1.3,1.6,2.5,2.8,3.5
			c3,3.4,4.4,7.8,3.8,12.3c-0.4,4.1,0,8.3,1.1,12.3c2.5,11,5,22.1,7,33.2c0.5,2,0.6,4.1,0.5,6.3c-0.4,3-2,5.9-1.8,8.9
			c0.4,1.4,0.6,2.9,0.8,4.3c-0.1,1.1-0.4,2.1-0.8,3.1c-2.9,8.3-10.5,27.2-10.4,36c13.3-3.4,33.1-4.1,46.7-4.3
			c3.8,0,7.6,0.1,11.4,0.5c9,1,18.3,3.6,27.1,1.1c8.1-2.3,15.4-8.8,23.8-7.9c1.9-4.8-0.4-20.8-2-25.6c-6.6-19-8-39.6-3.8-59.3
			c1.5-7.1-0.6-14.7,1.1-21.7c0.3-1.6,1-3.3,1.9-4.6c1-1.5,2.6-2.3,4.3-2.3c0.1-11.3-0.9-22.7-3.1-33.7c-0.9-3.9-2.6-8.6-6.5-9.3
			c-3.6-0.6-6.6,2.4-9.5,4.6c-3,2.3-6.4,3.9-10,4.8c-1.5,0.1-2.9,0.6-4.1,1.5c-1.8,1.4-2,4-3.4,5.8c-2.5,3.1-8.1,2.9-9.9,6.4
			c-0.4,1.1-0.8,2.1-1,3.3c-0.9,2.1-2.3,4-4.1,5.3C358,570.6,354.6,572.4,350.8,573.4z"/>
		<path class="st17" d="M373.1,502.5c0.5-1.8,0.4-3.8-1-4.9c-0.6-0.5-1.6-0.8-2.4-1.3c-1-0.9-1.9-2-2.5-3.1c-3.9-5.4-11-7.3-17-4.3
			c-4.5,2.4-7.3,7.1-11.3,10.3c-2,1.6-4.4,2.9-6.5,4.5c-4.1,3.5-7,8.3-8.4,13.5c-1.3,5.3-2.1,10.6-2.3,16c-0.3,1.6-0.1,3.3,0.1,4.9
			c0.4,1.4,1,2.6,1.9,3.8c4.1,6.3,9.5,11.9,16.4,15.2s15.2,3.8,21.9,0.4c0.6-0.3,1.3-0.8,1.6-1.4c0.4-0.9,0.5-1.9,0.3-2.9
			c-0.4-3.9,0.4-7.6,2.3-11c1.3-2.5,3.1-4.6,4.1-7.3c0.9-2.9,1.4-5.9,1.1-9C371.7,518.1,371.2,510.2,373.1,502.5z"/>
	</g>
</g>
</svg>
