<?xml version="1.0" encoding="utf-8"?>
<!-- Generator: Adobe Illustrator 19.0.0, SVG Export Plug-In . SVG Version: 6.00 Build 0)  -->
<svg version="1.1" id="图层_1" xmlns="http://www.w3.org/2000/svg" xmlns:xlink="http://www.w3.org/1999/xlink" x="0px" y="0px"
	 viewBox="-917 917.7 1000 1000" style="enable-background:new -917 917.7 1000 1000;" xml:space="preserve">
<style type="text/css">
	.st0{opacity:0.1;enable-background:new    ;}
	.st1{fill:#6C63FF;}
	.st2{opacity:0.7;}
	.st3{fill:#444053;}
	.st4{fill:#FFFFFF;}
	.st5{opacity:0.3;fill:#6C63FF;enable-background:new    ;}
	.st6{opacity:0.3;enable-background:new    ;}
	.st7{fill:#3ACC6C;}
	.st8{fill:url(#SVGID_1_);}
	.st9{fill:#A5636D;}
	.st10{opacity:5.000000e-02;enable-background:new    ;}
	.st11{fill:#BEBED0;}
	.st12{fill:#5C5C8E;}
	.st13{opacity:0.1;}
	.st14{fill:#F7CDDD;}
	.st15{fill:#4C3E42;}
	.st16{opacity:0.1;fill:#FFFFFF;enable-background:new    ;}
	.st17{fill:#EFC8C4;}
	.st18{fill:#727A9C;}
</style>
<g id="_x23_background">
	<g class="st0">
		<g>
			<path class="st1" d="M-601.3,1116.9c33.2-29.9,85.2-35.9,132.5-33.5c148.8,7.4,283.1,80,399.3,162.1
				c42,29.7,83.5,61.7,110.8,102.6c55.6,83.3,39.1,198.6-38.2,267.2c-26.3,23.3-58.2,41.3-90.9,57.1c-58.2,28.2-120.9,50.8-187,57.3
				c-47.1,4.6-94.7,0.8-141.6-5.6c-130.8-18-259.3-57.6-366.9-125.4c-47.1-29.7-91.6-66.6-111.1-114.8c-19.5-48.1-7-109,41.2-137.4
				c20-11.8,43.7-17.1,67.1-22.1c34.3-7.4,69.3-14.5,100.2-29.5c32.1-15.4,69.9-45.2,63.6-79.4
				C-629,1178.9-634.5,1146.7-601.3,1116.9z"/>
		</g>
	</g>
</g>
<g>
	<g id="_x23_accessory_x28_have_x5B_leaf_x5D__x29__1_" class="st2">
		<path class="st1" d="M-650.6,1408c0,0,10.2-3.4,17.8,3c0,0-4.1,4.4-14.8,0.9L-650.6,1408z"/>
		<path class="st1" d="M-651.7,1408.1c0,0-5.3,9.4-0.6,18c0,0,5.1-3,3.9-14.3L-651.7,1408.1z"/>
		<path class="st1" d="M-659.9,1395.5c0,0,3-8.4,21.6-0.3c0,0-1.4,5.6-8.9,6.3C-654.7,1402.2-657.3,1399.2-659.9,1395.5z"/>
		<path class="st1" d="M-661.1,1395.1c0,0-8.9,0.4-6.5,20.6c0,0,5.8,0.3,8.6-6.7C-656.1,1402-658.3,1398.7-661.1,1395.1z"/>
		<path class="st1" d="M-668.8,1379.9c0,0,2.7-14.4,22.1-7.6c0,0-2,13.1-19.5,11.9L-668.8,1379.9z"/>
		<path class="st1" d="M-677.6,1360.5c0,0,7-15.2,25.5-5.2c0,0-3.6,13.9-23.3,9.8L-677.6,1360.5z"/>
		<path class="st1" d="M-682.7,1341.5c0,0,8.8-14.4,27.1-4.4c0,0-8.5,12.8-26.6,7.6L-682.7,1341.5z"/>
		<path class="st1" d="M-687.4,1323c0,0,8.8-15,26.4-5c0,0-10.5,13.6-25.9,8.1L-687.4,1323z"/>
		<path class="st1" d="M-689.1,1306.2c0,0,8.7-18.9,25.2-9.7c0,0-10,16.6-24.7,12.9L-689.1,1306.2z"/>
		<path class="st1" d="M-689.6,1286.2c0,0,9.5-18.8,25.7-8.2c0,0-12.1,16.9-25.2,11.2L-689.6,1286.2z"/>
		<path class="st1" d="M-688.4,1268.2c0,0,11.8-18.2,25.5-13.9c0,0-12.3,19.2-25.5,18.2V1268.2z"/>
		<path class="st1" d="M-686,1250.9c0,0,13.5-22.1,24.3-17.2c0,0-9.8,17-24.9,21L-686,1250.9z"/>
		<path class="st1" d="M-681.8,1230.6c0,0,12-18.2,23.3-16c0,0-9.8,18.4-24.4,21.2L-681.8,1230.6z"/>
		<path class="st1" d="M-678.1,1211.6c0,0,13.6-17.8,21.1-16.2c0,0-8.9,18.7-21.2,19.7L-678.1,1211.6z"/>
		<path class="st1" d="M-674.4,1194c0,0,10.9-20.3,18.8-20.1c0,0-5.8,17.5-18.4,22L-674.4,1194z"/>
		<path class="st1" d="M-671,1170.5c0,0,10.1-15.8,16.7-16.9c0,0-6.7,20-16.4,21.5L-671,1170.5z"/>
		<path class="st1" d="M-669.2,1155l7.2-30.8c0,0,4.8,26-7.8,36.4L-669.2,1155z"/>
		<path class="st1" d="M-669.7,1122.4c0,0-1.9-24.4-3.6-26.2c0,0,11.8,18.7,5.2,36.9L-669.7,1122.4z"/>
		<path class="st1" d="M-669.3,1379.8c0,0-13.5-5.6-18.4,14.3c0,0,12.1,5.5,20.6-9.8L-669.3,1379.8z"/>
		<path class="st1" d="M-678.1,1359.8c0,0-16.2-4.4-20.4,16.2c0,0,12.9,6.1,22.5-11.5L-678.1,1359.8z"/>
		<path class="st1" d="M-683.2,1342.8c0,0-12.9-10.9-27.1,4.4c0,0,12,9.4,27.6-1.2L-683.2,1342.8z"/>
		<path class="st1" d="M-687.8,1323.1c0,0-13.1-11.4-26.6,3.6c0,0,14.2,9.6,27.1-0.5L-687.8,1323.1z"/>
		<path class="st1" d="M-689,1306.7c0,0-10.7-17.8-26.1-6.9c0,0,11.8,15.4,26,10.1L-689,1306.7z"/>
		<path class="st1" d="M-688.7,1286c0,0-10.7-18.1-26.2-6.3c0,0,13.2,16.1,26,9.5L-688.7,1286z"/>
		<path class="st1" d="M-686.8,1268.1c0,0-6.4-20.7-20.7-20.3c0,0,6.6,21.9,19.5,24.4L-686.8,1268.1z"/>
		<path class="st1" d="M-685.7,1250.9c0,0-5.3-25.3-17.1-24.4c0,0,3.6,19.3,16.3,28.2L-685.7,1250.9z"/>
		<path class="st1" d="M-680.7,1229.7c0,0-6.9-20.6-18.4-21.5c0,0,4.7,20.4,18.1,26.9L-680.7,1229.7z"/>
		<path class="st1" d="M-676.9,1211.5c0,0-3.7-22.1-11-24.3c0,0-0.9,20.7,9.5,27.4L-676.9,1211.5z"/>
		<path class="st1" d="M-673.9,1193.6c0,0-4.7-22.7-12.2-24.7c0,0,0.5,18.4,11.3,26.4L-673.9,1193.6z"/>
		<path class="st1" d="M-669.8,1172.2c0,0-3-18.5-8.7-22.1c0,0-1.7,21.1,6.8,26.2L-669.8,1172.2z"/>
		<path class="st1" d="M-670,1154.1l-9.9-30c0,0-2.5,26.3,11,35.6L-670,1154.1z"/>
		<path class="st1" d="M-674.1,1123.4c0,0-15.8-18.7-16-21.1c0,0,4.8,21.5,22.3,29.8L-674.1,1123.4z"/>
		<path class="st1" d="M-673.6,1117.1c0,0-16.6-27.5-22.2-29c0,0,18.2,5.8,23.1,28.1L-673.6,1117.1z"/>
		<path class="st3" d="M-670.9,1175.3l-0.8-0.1c4.7-34,3.8-55.1-2.5-59.4l0.5-0.7C-667,1119.6-666,1140.5-670.9,1175.3z"/>
		<path class="st3" d="M-685.9,1255.6l-1.3-0.3c0.6-3.1,1.2-6.3,1.9-9.5c6.2-27.6,11.1-53,13.8-72.4l0.9-0.7
			c-2.7,19.5-7.3,45.8-13.4,73.4C-684.6,1249.3-685.3,1252.5-685.9,1255.6z"/>
		<path class="st3" d="M-631.9,1429.9c-0.2-0.2-19.2-15.6-35.5-44.8c-9.6-17.1-16.2-35.5-20-54.7c-4.7-23.9-4-51.7,0.7-77.6l1.1,0.9
			c-10.6,58,4.8,103.8,19.6,130.4c16.1,28.8,34.9,44.2,35.1,44.4L-631.9,1429.9z"/>
	</g>
	<g id="_x23_accessory_x28_have_x5B_leaf_x5D__x29_">
		<path class="st1" d="M-686,1461.6c0,0,8.8-6.3,17.8-2.4c0,0-2.5,5.4-13.9,5.3L-686,1461.6z"/>
		<path class="st1" d="M-687.1,1462c0,0-2.4,10.6,4.8,17.3c0,0,4-4.5-0.5-14.8L-687.1,1462z"/>
		<path class="st1" d="M-698.7,1452.4c0,0,0.3-8.9,20.5-6.7c0,0,0.3,5.8-6.6,8.7C-691.7,1457.4-695,1455.2-698.7,1452.4z"/>
		<path class="st1" d="M-699.9,1452.4c0,0-8.4,3-0.1,21.6c0,0,5.5-1.4,6.3-9C-693,1457.5-696.1,1455-699.9,1452.4z"/>
		<path class="st1" d="M-711.7,1440.3c0,0-1.7-14.5,18.8-13.9c0,0,1.9,13.1-15.1,17.2L-711.7,1440.3z"/>
		<path class="st1" d="M-725.9,1424.3c0,0,2.2-16.7,22.8-12.5c0,0,0.6,14.3-19.3,16.3L-725.9,1424.3z"/>
		<path class="st1" d="M-736.4,1407.7c0,0,4.1-16.3,24.5-12.3c0,0-4.2,14.7-23.1,15.1L-736.4,1407.7z"/>
		<path class="st1" d="M-746.5,1391.4c0,0,4-16.9,23.7-12.6c0,0-5.9,16.2-22.3,15.4L-746.5,1391.4z"/>
		<path class="st1" d="M-753.1,1375.9c0,0,2.7-20.6,21.1-16.7c0,0-4.6,18.8-19.7,19.7L-753.1,1375.9z"/>
		<path class="st1" d="M-759.5,1356.9c0,0,3.5-20.7,22.1-15.5c0,0-6.5,19.8-20.7,18.3L-759.5,1356.9z"/>
		<path class="st1" d="M-763.7,1339.3c0,0,5.9-20.9,20.2-20.8c0,0-6,22-18.9,25L-763.7,1339.3z"/>
		<path class="st1" d="M-766.6,1322.1c0,0,6.3-25.1,18.1-23.6c0,0-4.3,19.1-17.5,27.5L-766.6,1322.1z"/>
		<path class="st1" d="M-768.6,1301.5c0,0,6.1-20.9,17.5-22.2c0,0-3.9,20.5-17,27.6L-768.6,1301.5z"/>
		<path class="st1" d="M-770.7,1282.3c0,0,7.8-21.1,15.3-21.8c0,0-3,20.5-14.5,25.1L-770.7,1282.3z"/>
		<path class="st1" d="M-772.4,1264.3c0,0,4.4-22.7,11.9-24.9c0,0-0.3,18.4-11.1,26.5L-772.4,1264.3z"/>
		<path class="st1" d="M-776.2,1241c0,0,4.8-18.1,10.9-21.1c0,0-0.4,21.1-9.3,25.4L-776.2,1241z"/>
		<path class="st1" d="M-779.1,1225.6l-2.4-31.5c0,0,12.3,23.4,3.4,37L-779.1,1225.6z"/>
		<path class="st1" d="M-789.2,1194.6c0,0-9.1-22.8-11.2-23.9c0,0,16.7,14.4,15.9,33.7L-789.2,1194.6z"/>
		<path class="st1" d="M-712.3,1440.2c0,0-14.5-1.4-13.4,19.1c0,0,13.2,1.6,16.8-15.5L-712.3,1440.2z"/>
		<path class="st1" d="M-726.6,1423.8c0,0-16.7,0.6-14.6,21.5c0,0,14.2,1.9,18.1-17.7L-726.6,1423.8z"/>
		<path class="st1" d="M-736.6,1409c0,0-15.5-6.6-24.5,12.3c0,0,14.3,5.4,26-9.3L-736.6,1409z"/>
		<path class="st1" d="M-746.8,1391.6c0,0-15.9-7-24.4,11.3c0,0,16.4,5,25.7-8.5L-746.8,1391.6z"/>
		<path class="st1" d="M-752.9,1376.3c0,0-15.6-13.8-27,1.2c0,0,15.7,11.2,27.7,1.9L-752.9,1376.3z"/>
		<path class="st1" d="M-758.6,1356.4c0,0-15.6-14-27,1.7c0,0,17.4,11.4,27.6,1.4L-758.6,1356.4z"/>
		<path class="st1" d="M-762.2,1338.7c0,0-12.3-17.8-25.9-13.3c0,0,12.8,18.9,25.9,17.6V1338.7z"/>
		<path class="st1" d="M-766.3,1322c0,0-12.6-22.6-23.5-18.2c0,0,9.1,17.4,23.9,22L-766.3,1322z"/>
		<path class="st1" d="M-767.9,1300.3c0,0-12.8-17.7-23.9-15.1c0,0,10.6,18,25.3,20.2L-767.9,1300.3z"/>
		<path class="st1" d="M-769.6,1281.8c0,0-10.1-20-17.7-19.9c0,0,5.2,20,17.2,23.3L-769.6,1281.8z"/>
		<path class="st1" d="M-772.1,1263.9c0,0-11.2-20.2-18.9-20c0,0,6,17.4,18.7,21.8L-772.1,1263.9z"/>
		<path class="st1" d="M-774.5,1242.1c0,0-8.4-16.7-14.9-18.4c0,0,4.7,20.6,14.2,23L-774.5,1242.1z"/>
		<path class="st1" d="M-780,1225.1l-18.4-25.7c0,0,5.4,25.9,21.1,30.7L-780,1225.1z"/>
		<path class="st1" d="M-793.1,1196.8c0,0-20.6-13.1-21.5-15.4c0,0,11,19.1,30.2,21.8L-793.1,1196.8z"/>
		<path class="st1" d="M-794.5,1190.7c0,0-24-21.3-29.9-21.1c0,0,19.1,0.2,30.4,19.9L-794.5,1190.7z"/>
		<path class="st3" d="M-774.5,1245.5l-0.8,0.2c-5.7-33.9-12.8-53.7-20-56l0.3-0.8C-787.5,1191.2-780.3,1210.8-774.5,1245.5z"/>
		<path class="st3" d="M-765.1,1326.6l-1.3,0.2c-0.4-3.1-0.8-6.4-1-9.6c-2.3-28.1-5.2-53.9-8.4-73.2l0.7-0.9
			c3.2,19.4,6.7,45.9,9,74.1C-765.7,1320.2-765.4,1323.4-765.1,1326.6z"/>
		<path class="st3" d="M-661.6,1477c-0.3-0.1-23-9.2-47.2-32.2c-14.1-13.4-26.1-29.1-35.4-46.3c-11.6-21.5-19.2-48.2-22.4-74.3
			l1.4,0.6c7.2,58.5,35.4,97.6,57.5,118.7c23.9,22.8,46.5,31.9,46.7,32L-661.6,1477z"/>
	</g>
	<g id="_x23_chart_x28_have_x5B_list_x2C_paper_x5D__x29_">
		<path class="st0" d="M-299.1,1675.8l-84.9,32.8l-124,48c-4.7-8.7-11.6-20.6-20.1-34.7c-29.3-48.6-78-124.4-121.2-190.9
			c-48.7-74.9-90.7-138.3-90.7-138.3l30.4-8.8l248-72L-299.1,1675.8z"/>
		<path class="st4" d="M-297.4,1669.9l-84.9,32.8l-124,48c-4.7-8.7-11.6-20.6-20.1-34.7c-29.3-48.6-78-124.4-121.2-190.9
			c-48.7-74.9-90.7-138.3-90.7-138.3l30.4-8.8l248-72L-297.4,1669.9z"/>
		<path class="st0" d="M-297.4,1669.9l-84.9,32.8c-47.4,9.9-95.7,14.3-144.1,13.3c-29.3-48.6-78-124.4-121.2-190.9l-60.3-147.1
			l248-72L-297.4,1669.9z"/>
		<path class="st1" d="M-234.3,1649.5c0,0-131.8,78-328.6,60.4l-156.9-382.6l75.2-12.9l259.9-44.6l147.4,372.2L-234.3,1649.5z"/>
		<path class="st0" d="M-237.3,1642.1c-31,1.5-66.9,1.4-103.1-3c-39.1-4.6-78.4-14-112.1-31.5c-28.2-14.5-52.3-30.3-73.3-49.2
			c-54.6-49.1-88.4-119.4-118.7-243.9l259.9-44.7L-237.3,1642.1z"/>
		<path class="st4" d="M-140.6,1620.7c0,0-97.2,19-196.1,7.4c-39.1-4.7-78.4-14-112.1-31.5c-28.2-14.5-52.3-30.3-73.3-49.2
			c-67.7-60.9-103.4-154.1-140.2-342.5c0,0,161.5,39,321.1-46.4C-341.1,1158.4-287.3,1494.5-140.6,1620.7z"/>
		<path class="st0" d="M-336.6,1628c-39.1-4.7-78.4-14-112.1-31.5c-28.2-14.5-52.3-30.3-73.3-49.2c57.6-4.7,65.9-36.2,65.9-36.2
			C-413.5,1579-336.6,1628-336.6,1628z"/>
		<path class="st5" d="M-578.7,1274c0,0,86.8,9.9,168-35.7l5.6,17.8c0,0-77.7,38.7-173.6,38.7V1274L-578.7,1274z"/>
		<path class="st6" d="M-578.7,1362.2c0,0,86.3-6.9,182.3-53.4l3.2,7.4c0,0-35.4,44.5-185.6,56.1v-10.1H-578.7z"/>
		<path class="st6" d="M-568.5,1396.6c0,0,86.3-6.9,182.3-53.4l3.2,7.4c0,0-35.4,44.5-185.6,56.2L-568.5,1396.6L-568.5,1396.6z"/>
		<path class="st6" d="M-559.1,1433.7c0,0,86.3-6.9,182.3-53.4l3.2,7.4c0,0-35.4,44.5-185.6,56.2L-559.1,1433.7L-559.1,1433.7z"/>
		<path class="st6" d="M-548,1465.5c0,0,86.3-6.9,182.3-53.4l3.2,7.4c0,0-35.4,44.5-185.6,56.2L-548,1465.5L-548,1465.5z"/>
		<path class="st0" d="M-537.8,1500c0,0,86.3-6.9,182.3-53.4l3.2,7.4c0,0-35.4,44.5-185.6,56.2V1500H-537.8z"/>
		
			<rect x="-378.7" y="1289" transform="matrix(0.9466 -0.3223 0.3223 0.9466 -439.0937 -48.4957)" class="st5" width="25.5" height="25.5"/>
		
			<rect x="-365" y="1325" transform="matrix(0.9466 -0.3223 0.3223 0.9466 -449.9622 -42.1443)" class="st5" width="25.5" height="25.5"/>
		
			<rect x="-342.9" y="1394" transform="matrix(0.9466 -0.3223 0.3223 0.9466 -471.031 -31.3256)" class="st5" width="25.5" height="25.5"/>
		
			<rect x="-330.3" y="1431" transform="matrix(0.9466 -0.3223 0.3223 0.9466 -482.2908 -25.2992)" class="st5" width="25.5" height="25.5"/>
		
			<rect x="-353.7" y="1362.2" transform="matrix(0.9466 -0.3223 0.3223 0.9466 -461.3659 -36.5208)" class="st5" width="25.5" height="25.5"/>
		<path class="st7" d="M-365.8,1303.7l-11.4-5.6c-0.7-0.3-0.9-1.2-0.7-1.9l0,0l1.2-2.5c0.3-0.7,1.2-0.9,1.9-0.7l0,0l7.7,3.7l8-16.5
			c0.3-0.7,1.2-0.9,1.9-0.7l2.5,1.2c0.7,0.3,0.9,1.2,0.7,1.9l0,0l-9.8,20.2C-364.3,1303.7-365.1,1304.1-365.8,1303.7L-365.8,1303.7z
			"/>
		<path class="st7" d="M-340.8,1374.9l-11.4-5.6c-0.7-0.3-0.9-1.2-0.7-1.9l0,0l1.2-2.5c0.3-0.7,1.2-0.9,1.9-0.7l7.7,3.7l8-16.5
			c0.3-0.7,1.2-0.9,1.9-0.7l2.5,1.2c0.7,0.3,1,1.2,0.7,1.9l0,0l-9.8,20.2C-339.4,1375-340.2,1375.2-340.8,1374.9L-340.8,1374.9z"/>
		<path class="st7" d="M-352.1,1339.9l-11.4-5.6c-0.7-0.3-0.9-1.2-0.7-1.9l1.2-2.5c0.3-0.7,1.2-0.9,1.9-0.7l0,0l7.7,3.7l8-16.5
			c0.3-0.7,1.2-0.9,1.9-0.7l0,0l2.5,1.2c0.7,0.3,0.9,1.2,0.7,1.9l-9.8,20.3C-350.6,1339.9-351.4,1340.1-352.1,1339.9L-352.1,1339.9
			L-352.1,1339.9z"/>
		<path class="st7" d="M-330,1407l-11.4-5.6c-0.7-0.3-0.9-1.2-0.7-1.9l0,0l1.2-2.5c0.3-0.7,1.2-0.9,1.9-0.7l0,0l7.7,3.7l8-16.5
			c0.3-0.7,1.2-0.9,1.9-0.7l2.5,1.2c0.7,0.3,0.9,1.2,0.7,1.9l0,0l-9.8,20.2C-328.6,1407.1-329.3,1407.3-330,1407z"/>
	</g>
	<g id="_x23_woman_x28_bend_x2C_write_x29_">
		
			<linearGradient id="SVGID_1_" gradientUnits="userSpaceOnUse" x1="-155.3413" y1="1306.5938" x2="-155.3413" y2="1715.2206" gradientTransform="matrix(1 0 0 -1 -22.3 2986.9102)">
			<stop  offset="0" style="stop-color:#808080;stop-opacity:0.25"/>
			<stop  offset="0.54" style="stop-color:#808080;stop-opacity:0.12"/>
			<stop  offset="1" style="stop-color:#808080;stop-opacity:0.1"/>
		</linearGradient>
		<path class="st8" d="M-80.7,1463.2l-0.9-0.8c2.4-0.5,4.6-0.7,4.6-0.7s-8-29-21.5-38.7c-6.7-4.7-12.3-12.8-16.2-19.5
			c-7.2-12.3-15.2-24.2-24.1-35.4l-2.5-3l-1-1.4c1.4-2.2,3.2-4.3,3-6.9c0,0,0,0,0-0.1c0-0.2,0-0.3,0-0.4c0-0.3-0.1-0.6-0.2-0.9
			l-0.1,0.2c-1.1-3.3-5.5-4.7-8.8-6.6c-7.6-4.3-10.8-13.6-12.5-22.4c-1.3-6.8-2.3-14.4-7.6-18.7c-3.4-2.8-8-3.7-11.4-6.5
			c-3.2-2.6-5.1-6.6-7-10.3c-3.4-6.1-7.9-11.8-13.7-15.5c-5.8-3.7-13.4-5.1-19.9-2.6c-2.5,0.9-4.7,2.5-7.2,3.5
			c-6.1,2.5-13.1,2.2-19.1,4.9c-7.4,3.3-12.3,10.6-16.7,17.5c-2.3,3.6-5.8,8.8-7.9,14c0-0.2,0-0.3,0-0.5c-1,2.3-1.5,4.8-1.6,7.4
			c0,1.1,0.1,2.1,0.3,3.2c0.9,3.4,3.6,5.2,6.9,6.6c0.2,1.1,0.4,2.1,0.8,3.2c3,9.7,10.5,17.5,20.2,20.6c0.3,0.1,0.6,0.2,0.8,0.3
			c0.3,0.7,0.6,1.3,1,1.9c2.7,3.4,8.1,2.5,11.7,0c0.2-0.1,0.3-0.2,0.4-0.3c0,0.5,0.1,0.9,0.2,1.4c0.1,0.4,0.2,0.8,0.3,1.2
			c3.2,17.1,11.2,26.3,11.2,26.3s0.8,1.1,1.9,3c-0.7,9.4,3.6,18,8.6,24.7c-4.3,2.5-13.5,7.4-19.3,6.9c0,0-21,2.7-23.4,1.4
			c-0.3-0.2-0.7,0.1-0.9,0.7c-5.8-3.6-24.3-13.7-25.9-0.7c-1.4,11.8,15.4,13.4,23.4,13.4c-0.3,3.5-0.6,6.3-0.6,6.3l34.5-2.4
			l17.9-2.6c-1.9,2.6-4.2,5-6.4,6.1c0,0-16.2,13.1-19,13.3c-0.4,0-0.5,0.4-0.4,1c-6.9,0-28.1,1-22.2,12.9
			c5.3,10.7,20.5,3.3,27.2-0.8c1.6,3.1,3,5.6,3,5.6l27.8-19.9l6-5.1c2-0.1,4.1-0.5,6-1.2c0,0.1,0.1,0.2,0.1,0.3
			c0.3,0.6,0.3,1.3,0.5,1.9c1.7,9.7-4,32.4-4,32.4s-12.5,31.9-6.5,36.2c6,4.3,1.5,22.7,1.5,22.7c1,1.8,2.3,3.5,3.6,5l0,0
			c0.7,0.8,1.4,1.4,2.1,2c-0.3,0.8-0.5,1.5-0.7,2.4c-0.9,3.9-0.6,8,1,11.7c4.1,10,1.6,24.5,1.6,24.5l-8.1,54.7
			c-3.9-0.6-8.9-1.1-10.8,0c-2.9,1.6-1.9,9.7,4.7,13.3c-2,1.5-4.4,2.6-6.9,3.1c-5.9,1.4-10.1,2.2-12.9,2.7c-0.2,0-14.2-3.1-17.8-1
			s-1.9,13.4,8.4,16.2c10.1,2.7,47.4,6.7,58.2,5.1l0.7-0.1c9.1-1.8,1.1-13.9,0.1-15.3c-0.1-0.5-0.2-1-0.2-1.5
			c-0.2-1.3-0.3-2.7-0.3-4.2c10.2,0.9,20.3,1.4,25,0.7c0.3,0,0.4-0.1,0.6-0.1c8.1-1.6,1-12.3,0.1-13.5c0-0.3-0.1-0.7-0.2-1v-0.3
			c0-0.3-0.1-0.5-0.1-0.8c0-0.3,0-0.4-0.1-0.7c-0.1-0.3,0-0.4-0.1-0.6c0-0.4-0.1-0.8-0.1-1.3c0-0.2,0-0.3,0-0.6c0-0.3,0-0.7-0.1-1
			c0-0.2,0-0.3,0-0.6c0-0.5,0-1-0.1-1.5c0-0.2,0-0.3,0-0.4c0-0.4,0-0.8,0-1.3c0-0.2,0-0.4,0-0.6c0-0.4,0-0.9,0-1.4
			c0-0.2,0-0.3,0-0.4c0-0.6,0.1-1.2,0.1-1.7l0.1-0.6c0-0.4,0.1-0.8,0.1-1.3c0-0.2,0-0.4,0.1-0.7c0.1-0.6,0.2-1.2,0.3-1.8
			c0-0.2,0.1-0.3,0.1-0.5c0.1-0.4,0.2-0.9,0.3-1.4c0-0.3,0.1-0.4,0.2-0.7c0.1-0.5,0.3-1,0.3-1.4c0-0.2,0.1-0.3,0.1-0.4
			c0.2-0.6,0.3-1.2,0.5-1.8c0.1-0.2,0.2-0.4,0.2-0.6c0.2-0.4,0.3-0.8,0.4-1.3l0.2-0.5c0.3-0.6,0.5-1.1,0.8-1.7
			c0.1-0.2,0.2-0.3,0.3-0.4c0.2-0.4,0.4-0.8,0.7-1.3l0.3-0.5c0.3-0.5,0.7-1.1,1-1.6c9.3-13.3,11.8-38.8,11.5-44.4
			c-0.3-5.6,1.1-17.1,2.8-18.8c1.1-1.1,7.6-10.1,11.5-17c0.7-1.3,1.3-2.5,1.8-3.5c2.8-0.9,4.6-1.7,4.6-1.7l0,0l0,0
			c-0.9-3.6-1.4-7.2-1.4-10.9c0.1-7.2,2-16.7,10.2-24.4c12.1-11.3,13.7-22.7,13.9-27c0-0.3,0-0.6,0-0.8
			C-80.6,1463.5-80.7,1463.2-80.7,1463.2z"/>
		<path class="st9" d="M-112.8,1534c-3.3,5.8-6.9,11.5-11,16.8c-1.6,1.7-2.9,13.1-2.6,18.6c0.3,5.5-2.1,30.8-11,43.9
			c-8.9,13.1-4.3,35.8-4.3,35.8l-14.2,5H-173l-11.8-3.5l-3.1-8.5c0,0,4.1-0.7,14.4-3c5.8-1.2,10.1-6.1,10.6-12.1l7.2-50.2
			c0,0,2.1-12.7-1.4-21.5c-2-5-1.6-10.7,1.2-15.3l0.3-0.3c0,0,11.1-8.8,22.4-14.3c10-4.8,20.2-7.1,23.1,1.4
			C-109.8,1527.9-111,1530.7-112.8,1534z"/>
		<path class="st10" d="M-112.8,1534c-3.3,5.8-6.9,11.5-11,16.8c-1.6,1.7-2.9,13.1-2.6,18.6c0.3,5.5-2.1,30.8-11,43.9
			c-6.3,9.2-5.8,23.3-5.1,30.7c0.3,3.1,0.8,5.1,0.8,5.1l-14.2,5h-17l-11.8-3.5l-3.1-8.5c0,0,1-0.2,3.4-0.6s5.9-1.3,11.1-2.5
			c5.8-1.2,10.1-6.2,10.6-12.1l7.2-50.2c0,0,2.1-12.7-1.4-21.5c-2-5-1.6-10.7,1.2-15.3l0.3-0.3c0,0,11.1-8.8,22.4-14.3
			c10-4.8,20.2-7.1,23.1,1.4C-109.8,1527.9-111,1530.7-112.8,1534z"/>
		<path class="st0" d="M-141.7,1649.2l-14.2,5H-173l-11.8-3.6l-3.1-8.5c0,0,1-0.2,3.4-0.6c-0.3,3.2,1.8,6.2,4.9,6.9l6.7,0.3
			c0.9,0,1.9,0.1,2.8,0.1c9.4,0,18.7-1.5,27.6-4.6C-142.2,1647.2-141.7,1649.2-141.7,1649.2z"/>
		<path class="st11" d="M-172.9,1650l-6.7-0.3c0,0-6.3-1.4-4.7-8.4c0,0-12-2.7-15.1-0.9c-3,1.8-1.6,11.8,7.1,14.2
			c8.5,2.4,40.2,5.8,49.2,4.4l0.6-0.1c8.3-1.7,0-13.5,0-13.5l0,0C-152.2,1648.8-162.5,1650.3-172.9,1650z"/>
		<path class="st9" d="M-131.8,1536c-0.4,0.9-0.9,1.9-1.5,2.8c-4.2,7.6-10.9,17.2-12.1,18.4c-1.8,1.9-3.2,14.8-3,21.1
			c0.3,6.3-2.4,34.8-12.4,49.6c-5.2,7.6-6.3,17.9-6.2,26.3c0,2.8,0.2,5.7,0.5,8.5c0.3,3.5,0.8,5.6,0.8,5.6l-16,5.6H-201l-13.3-4
			l-3.5-9.6c0,0,1.2-0.2,3.8-0.7s6.7-1.4,12.4-2.7c6.6-1.4,11.4-6.9,11.9-13.6l8.1-56.8c0,0,2.4-14.4-1.5-24.3
			c-1.5-3.6-1.8-7.7-0.9-11.6c0.5-2.2,1.4-4.2,2.5-6.1c0,0,3.1-2.5,7.8-5.7c2-1.4,4.5-3,7-4.6c11.3-7,26.1-14.1,33.2-9
			c1.6,1.2,2.7,2.9,3.3,4.7C-129.6,1531-130.4,1533.2-131.8,1536z"/>
		<path class="st0" d="M-165.7,1668.2l-16,5.6h-19.2l-13.3-4l-3.5-9.6c0,0,1.2-0.2,3.8-0.7c-0.3,2.4,0.5,4.7,2.3,6.3
			c1.4,1.1,3,1.8,4.7,1.8l6.1,0.2c1,0,2.1,0.1,3.2,0.1c10.6,0,21.1-1.8,31.1-5.2C-166.1,1666.1-165.7,1668.2-165.7,1668.2z"/>
		<path class="st11" d="M-200.8,1669.2l-6.1-0.2c-1.8,0-3.5-0.7-4.8-1.8c-1.5-1.4-2.9-3.7-2-7.7c0,0-13.5-3-17-1s-1.8,13.3,8,16
			c9.6,2.7,45.3,6.6,55.6,5l0.7-0.1c9.3-1.9,0-15.3,0-15.3l0,0C-177.4,1667.8-189.1,1669.5-200.8,1669.2z"/>
		<path class="st0" d="M-112.8,1534c-5.8,2-14.3,4.7-18.9,4.8c-0.5,0-0.9,0-1.4-0.1l0,0c-3.3-0.4-13.4,0.3-22.6,1.1
			c-3.7,0.3-7.3,0.7-10.2,1c-4.4,0.4-7.4,0.8-7.4,0.8v-2.9c2-1.4,4.5-3,7-4.6c11.3-7,26.1-14.1,33.2-9c10-4.8,20.2-7.1,23.1,1.4
			C-109.8,1527.9-111,1530.7-112.8,1534z"/>
		<path class="st12" d="M-85,1467.4c-0.2,4.3-1.8,15.4-13.3,26.6c-14.7,14.4-8.5,34.9-8.5,34.9s-17.5,6.9-25,7c-0.5,0-0.9,0-1.4-0.1
			c-4.6-0.7-22.5,1-32.9,2.1c-4.4,0.4-7.4,0.8-7.4,0.8v-60.9l81.1-19.7l7.4,7.3C-85,1466.1-85,1466.7-85,1467.4z"/>
		<g class="st13">
			<path d="M-172.2,1538.1l-1.4,0.2v0.7c0,0,3-0.3,7.4-0.8c7.4-0.8,18.8-1.8,26.3-2.1C-145,1535.5-162.2,1537.1-172.2,1538.1z"/>
			<path d="M-85.1,1465.5l-7.4-7.4l-4.9,1.3l6.2,6.1c0,0.6,0,1.2,0,1.9c-0.2,4.3-1.8,15.4-13.3,26.6c-14.7,14.3-8.5,34.9-8.5,34.9
				s-14.5,5.7-22.8,6.9c0.8,0,1.6,0,2.4,0.2c0.5,0.1,0.9,0.1,1.4,0.1c7.5-0.2,25-7,25-7s-6.3-20.6,8.5-34.9
				c11.5-11.2,13.1-22.4,13.3-26.6C-85,1466.8-85,1466.2-85.1,1465.5z"/>
		</g>
		<path class="st9" d="M-247.1,1424.3c0,0-24.5-17-26.3-1.7c-1.8,15.3,26.3,13.1,26.3,13.1V1424.3z"/>
		<path class="st14" d="M-204.8,1413.1c0,0-13.3,8.8-20.6,8.2c0,0-20,2.7-22.4,1.4c-2.4-1.4-3.7,19.5-3.7,19.5l33-2.4l21.1-3.2
			c0,0,10.6-6.4,10.6-12C-186.9,1418.9-204.8,1413.1-204.8,1413.1z"/>
		<path class="st10" d="M-204.8,1413.1c0,0-13.3,8.8-20.6,8.2c0,0-20,2.7-22.4,1.4c-2.4-1.4-3.7,19.5-3.7,19.5l33-2.4l21.1-3.2
			c0,0,10.6-6.4,10.6-12C-186.9,1418.9-204.8,1413.1-204.8,1413.1z"/>
		<path class="st9" d="M-224.3,1457.3c0,0-29.9-1.3-23.2,12.7s29.3-3,29.3-3L-224.3,1457.3z"/>
		<path class="st12" d="M-194.3,1427.7c0,0-24.2-18.1-20.8-40.1s20.8,16.8,20.8,16.8V1427.7z"/>
		<path class="st9" d="M-201,1327.8c0,8-3.1,15.6-8.6,21.2c-1.4,1.4-2.8,2.6-4.4,3.8c-3,2.1-6.4,3.7-10.1,4.7
			c-1.4,0.3-2.9,0.6-4.3,0.8c-1,0.1-2.1,0.2-3.2,0.2c-3.5,0-6.9-0.6-10.1-1.7c-15.9-5.6-24.4-23-18.8-38.9
			c5.6-15.9,23-24.4,38.9-18.8C-209.2,1303.3-201,1314.9-201,1327.8L-201,1327.8z"/>
		<path class="st0" d="M-85,1467.4c-2.7,0.5-6.1,1.4-6.1,2.9c0,2.4-38.2,15.3-38.2,15.3s1.4,3.3-2.4,9c-3.8,5.8-34.8,38.7-34.8,38.7
			l0.1,1l0.4,3.8l1.9,18.2c0,0-11.9-4.3-15.7-3.8c-1.3,0.2-2.5-0.7-3.8-1.8c0.5-2.2,1.4-4.2,2.5-6.1c0,0,3.1-2.5,7.8-5.7V1478
			l81.1-19.7l7.4,7.3C-85,1466.1-85,1466.8-85,1467.4z"/>
		<path class="st14" d="M-81.6,1464c0,0-9.6,0.9-9.6,3.4s-38.2,15.3-38.2,15.3s1.4,3.3-2.4,9c-3.8,5.8-34.8,38.7-34.8,38.7l2.4,22.9
			c0,0-11.9-4.3-15.7-3.8c-1.7,0.2-3.6-1.4-5.2-3.2c-1.3-1.5-2.5-3.2-3.5-4.9c0,0,4.3-18.2-1.4-22.4c-5.7-4.2,6.2-35.8,6.2-35.8
			s5.4-22.4,3.8-32.1c-0.1-0.7-0.3-1.3-0.4-1.9c0-0.1,0-0.2-0.1-0.2c-3.4-9.2-40.1-86.3-40.1-86.3c0-2.2,0.2-4.4,0.4-6.5
			c0.1-0.6,0.2-1.3,0.3-1.9c0.2-1.1,0.4-2.3,0.8-3.4c0.2-0.7,0.4-1.4,0.7-2.1c1.1-2.9,2.9-5.2,5.5-5.2c0,0,2.9-3.2,9.6-4.1
			c4.9-0.7,11.9,0,21.5,4.1c22.4,9.6,27.7,10.1,27.7,10.1l11.2,14.8l2.3,3c8.5,11.1,16.2,22.8,23,34.9c3.7,6.8,9,14.6,15.5,19.4
			C-89.2,1435.3-81.6,1464-81.6,1464z"/>
		<path class="st0" d="M-165.2,1408.8c0,0,31.9,7.9,44.2,27.7L-165.2,1408.8z"/>
		<path class="st0" d="M-155.4,1443.7c0,0,6,40.5,4.4,43.6C-152.6,1490.3-155.4,1443.7-155.4,1443.7z"/>
		<path class="st0" d="M-157.6,1464.4c-2.3,3-11.8,26.5-11.8,26.5l2.7,39.4l2.4,22.9c0,0-11.9-4.3-15.7-3.8
			c-1.7,0.2-3.6-1.4-5.2-3.2c2.5-13.4,7.8-41.5,8.7-42c1.3-0.7,7.7-23.3,8-29.6c0.3-6.3,9.3-20.4,9.3-20.4
			S-155.3,1461.5-157.6,1464.4z"/>
		<path class="st0" d="M-166.6,1425.8c-0.6,1.8-1.5,12.2-1.5,12.2c-0.7,9.1-7.6,12.2-11.8,13.1c-0.1-0.7-0.3-1.3-0.4-1.9
			c-3-8.1-40.2-86.4-40.2-86.4c0-4,0.5-8,1.5-11.8c8.1-2.4,21,1.3,21,1.3c3.7-0.5,15.8,23.6,15.8,23.6s8,18.4,9,21
			c0.9,2.5,0,6.6,0.3,8s4.1,2.7,4.7,4.7s0.2,5.9,0.5,6.6C-167.4,1416.8-166,1424-166.6,1425.8z"/>
		<path class="st14" d="M-169.5,1424.3c-0.6,1.8-1.5,12.2-1.5,12.2c-0.5,7.6-5.4,11-9.6,12.4c-1.9,0.7-3.8,1-5.8,1.2l-5.8,5
			l-26.4,19.6c0,0-9.9-18.4-7.2-18.4s18.2-13.1,18.2-13.1c4.7-2.5,9.5-11,11.7-15.3c-0.2-0.5-0.3-1-0.3-1.6
			c-0.9-8.1-21-39.2-21-39.2s-7.8-9.1-10.7-26c-0.1-0.4-0.2-0.8-0.3-1.2c-0.1-0.5-0.2-1.1-0.2-1.6c-0.3-6.5,4.4-8.9,10-9.4l0,0
			c3-0.3,5.9-0.2,8.8,0.3c2.9,0.3,5.8,0.9,8.6,1.7c2.4-0.3,8.3,9.6,12.2,16.7l0,0c2.1,3.8,3.6,6.9,3.6,6.9s8,18.4,9,21
			c1,2.6,0,6.7,0.3,8c0.3,1.3,4.1,2.7,4.7,4.7s0.2,5.9,0.5,6.6C-170.4,1415.3-168.9,1422.6-169.5,1424.3z"/>
		<path class="st0" d="M-138.6,1383c-5.1,5.2-13.3,5.2-19.9,2.5c-6.6-2.6-12.2-7.4-18.3-11.2c-4-2.5-8.1-4.4-12-6.9l0,0
			c-0.6-0.3-1.1-0.8-1.7-1.1c-4.5-3.2-8.4-7.3-13-10.1c-3.1-2.1-6.8-3.2-10.5-3.4c-1.7,0-3.5,0.3-5,1c-0.3,0.1-0.6,0.3-0.8,0.4
			c-1.5,0.8-3,1.9-4.2,3.2c-1.4,1.2-2.5,2.5-4,3.6c-0.1-0.4-0.2-0.8-0.3-1.2c-0.1-0.5-0.2-1.1-0.2-1.6c-1,0.1-2.1,0.2-3.2,0.2
			c-3.5,0-6.9-0.6-10.1-1.7c0-0.1,0-0.3-0.1-0.4c-1.1-6-3.2-12.4-8-15.8c-2.8-1.9-7.3-2.8-11.2-4.2c-4.7-16.2,4.7-33.2,21-37.8
			c16.2-4.7,33.2,4.7,37.8,21c1.9,6.7,1.5,13.8-1.2,20.2c4.9-0.7,11.9,0,21.5,4.1c22.4,9.6,27.7,10.1,27.7,10.1l11.2,14.8
			c-1.2,1.9-2.6,3.7-2.7,5.8C-145.9,1378.3-142,1381.1-138.6,1383z"/>
		<path class="st15" d="M-249.7,1337.7c4.8,3.4,6.9,9.7,8,15.7c0.3,1.9,0.7,3.9,1.9,5.3c2.5,3.3,7.8,2.4,11.1,0s6-6,9.7-7.7
			c5-2.3,10.8-0.6,15.5,2.3s8.5,7,13,10.1c4.4,3,9.2,5.2,13.7,8c6.1,3.7,11.7,8.5,18.3,11.2c6.6,2.6,14.8,2.6,19.9-2.5
			c-3.4-1.9-7.3-4.7-7-8.7c0.3-4.1,4.9-7,4.7-11.2c-0.3-4.1-5.2-5.8-8.6-7.8c-7.3-4.2-10.4-13.5-11.9-22.1
			c-1.2-6.7-2.2-14.2-7.2-18.5c-3.2-2.8-7.6-3.7-10.9-6.4c-3.1-2.6-4.8-6.6-6.8-10.2c-3.2-6.1-7.5-11.7-13.1-15.3
			s-12.8-5.1-18.9-2.6c-2.4,0.9-4.5,2.4-6.9,3.4c-5.8,2.5-12.5,2.2-18.3,4.8c-7.1,3.3-11.7,10.5-15.9,17.3
			c-3.6,5.8-10.7,16.2-8.6,23.8C-266.1,1334.4-255.1,1334-249.7,1337.7z"/>
		<g class="st13">
			<path d="M-141,1359.9c0-0.3-0.1-0.6-0.2-0.9c-1.3,2-2.9,4-3,6.3c0,0.5,0,1.1,0.2,1.6C-142.7,1364.6-140.8,1362.5-141,1359.9z"/>
			<path d="M-157,1376.6c-6.6-2.6-12.2-7.4-18.3-11.2c-4.6-2.8-9.4-5-13.8-8c-4.5-3.2-8.4-7.3-13-10.1c-4.7-2.9-10.5-4.6-15.5-2.3
				c-3.7,1.7-6.3,5.2-9.7,7.7s-8.5,3.4-11.1,0c-1.2-1.5-1.5-3.5-1.9-5.3c-1.1-6-3.2-12.3-8-15.7c-5.2-3.7-16.4-3.3-18.4-11
				c-0.3-1.4-0.4-2.8-0.3-4.2c-1.3,3.5-1.9,6.9-1.2,10c2,7.8,13.2,7.4,18.4,11c4.8,3.4,6.9,9.7,8,15.7c0.3,1.9,0.7,3.9,1.9,5.3
				c2.5,3.3,7.8,2.4,11.1,0c3.3-2.4,6-6,9.7-7.7c5-2.2,10.8-0.6,15.5,2.3c4.7,2.9,8.5,7,13,10.1c4.4,3,9.2,5.2,13.7,8
				c6.1,3.7,11.7,8.5,18.3,11.2c6.6,2.7,14.8,2.6,19.9-2.5c-1.3-0.7-2.5-1.5-3.7-2.5C-146.9,1378.9-152.4,1378.4-157,1376.6z"/>
		</g>
		<path class="st12" d="M-306.7,1434.4l67.7-25.3c3.3-1.3,7,0.4,8.3,3.7l0,0l0,0c1.3,3.3-0.4,7-3.8,8.3l0,0l-67.7,25.3l-14.5-1.4
			L-306.7,1434.4z"/>
		<path class="st16" d="M-232.8,1410.9L-232.8,1410.9c1.3,3.3-0.4,7-3.8,8.3l-67.7,25.3l-10.9-1.1l-1.5,1.7l14.5,1.4l67.7-25.3
			c3.3-1.3,5-5,3.8-8.3l0,0l0,0c-0.5-1.4-1.4-2.5-2.6-3.2C-233.2,1410.1-233,1410.5-232.8,1410.9z"/>
		<polygon class="st17" points="-306.7,1434.4 -302.2,1446.4 -314.1,1445.2 -316.7,1445 -313.2,1441.3 		"/>
		<path class="st18" d="M-313.2,1441.3c0.3,0.2,0.5,0.4,0.7,0.8c0.3,0.3,0.3,0.8,0,1.2c-0.2,0.2-0.4,0.3-0.7,0.4
			c-0.6,0.3-0.9,0.9-0.9,1.6l-2.6-0.3L-313.2,1441.3z"/>
	</g>
</g>
</svg>
