<?xml version="1.0" encoding="utf-8"?>
<!-- Generator: Adobe Illustrator 19.0.0, SVG Export Plug-In . SVG Version: 6.00 Build 0)  -->
<svg version="1.1" xmlns="http://www.w3.org/2000/svg" xmlns:xlink="http://www.w3.org/1999/xlink" x="0px" y="0px"
	 viewBox="0 0 1000 1000" style="enable-background:new 0 0 1000 1000;" xml:space="preserve">
<style type="text/css">
	.st0{fill:#3F3D56;}
	.st1{opacity:0.1;enable-background:new    ;}
	.st2{opacity:0.4;fill:#585EC7;enable-background:new    ;}
	.st3{fill:#585EC7;}
	.st4{fill:#F2F2F2;}
	.st5{opacity:3.000000e-02;enable-background:new    ;}
	.st6{fill:none;stroke:#3F3D56;stroke-width:4;stroke-miterlimit:10;}
	.st7{fill:#6C63FF;}
	.st8{fill:#656380;}
	.st9{opacity:0.2;enable-background:new    ;}
	.st10{opacity:0.6;fill:#FE7D1E;enable-background:new    ;}
	.st11{fill:url(#SVGID_1_);}
	.st12{fill:#ECB4B6;}
	.st13{opacity:0.25;fill:#FFFFFF;enable-background:new    ;}
	.st14{fill:#FF748E;}
	.st15{fill:#5E5A6B;}
	.st16{fill:#464353;}
	.st17{opacity:0.1;}
	.st18{fill:#9F9EFF;}
</style>
<g id="_x23_wild_x28_have_x5B_fish_x2C_plant_x2C_water_x2C_fish_x5F_tank_x2C_cloud_x5D__x29_">
	<g>
		<path class="st0" d="M1000,847c0,5.5-45.9,10.5-121.7,14.3c-13.8,0.7-28.6,1.3-44.3,2c-13.6,0.5-27.8,1-42.6,1.5
			c-14.4,0.4-29.3,0.9-44.8,1.2c-48.9,1.2-103,2.1-160.5,2.5c-13.9,0.1-28.1,0.2-42.4,0.2c-14.9,0.1-30,0.1-45.2,0.1
			C221.5,868.9-3,859.1-3,847s224.5-22,501.5-22c119.2,0,228.7,1.8,314.8,4.9l9.4,0.3h0.1C931.2,834.2,1000,840.2,1000,847z"/>
		<path class="st1" d="M1000,847c0,5.5-45.9,10.5-121.7,14.3c-13.8,0.7-28.6,1.3-44.3,2c-13.6,0.5-27.8,1-42.6,1.5
			c-14.4,0.4-29.3,0.9-44.8,1.2c-48.9,1.2-103,2.1-160.5,2.5c-13.9,0.1-28.1,0.2-42.4,0.2c-14.9,0.1-30,0.1-45.2,0.1
			C221.5,868.9-3,859.1-3,847s224.5-22,501.5-22c119.2,0,228.7,1.8,314.8,4.9l9.4,0.3h0.1C931.2,834.2,1000,840.2,1000,847z"/>
		<path class="st0" d="M1000,838.7c0,5.5-45.9,10.5-121.7,14.3c-13.8,0.7-28.6,1.4-44.3,2c-13.6,0.5-27.8,1-42.6,1.5
			c-14.4,0.4-29.3,0.9-44.8,1.2c-48.9,1.2-103,2.1-160.5,2.5c-13.9,0.1-28.1,0.2-42.4,0.2c-14.9,0.1-30,0.1-45.2,0.1
			c-277,0-501.5-9.8-501.5-21.9s224.5-22,501.5-22c119.2,0,228.7,1.8,314.8,4.9l9.4,0.3h0.1C931.2,826,1000,832,1000,838.7z"/>
		<path class="st0" d="M1000,838.7c0,5.5-45.9,10.5-121.7,14.3c-13.8,0.7-28.6,1.3-44.3,2c-13.6,0.5-27.8,1-42.6,1.5
			c-14.4,0.4-29.3,0.9-44.8,1.2c-48.9,1.2-103,2.1-160.5,2.5c-13.9,0.1-28.1,0.2-42.4,0.2c-14.9,0.1-30,0.1-45.2,0.1
			c-277,0-501.5-9.8-501.5-22c0-10.5,167.1-19.2,390.8-21.4c12.8-0.1,25.7-0.2,38.7-0.3c23.5-0.1,47.5-0.2,72-0.2
			c24.5,0,48.5,0.1,72,0.2c13.1,0.1,26,0.2,38.7,0.3c76,0.7,145.5,2.2,204.2,4.3l9.4,0.3h0.1C931.2,826,1000,832,1000,838.7z"/>
		<ellipse class="st1" cx="498.5" cy="838.3" rx="117" ry="12.9"/>
		<ellipse class="st0" cx="498.5" cy="597.2" rx="232.9" ry="243.4"/>
		<path class="st1" d="M692.1,597.2c0,111.7-86.7,202.2-193.6,202.2c-6.1,0-12.2-0.3-18.2-0.9c-96.2-9.4-172-92.4-175.3-194.5
			c-0.1-2.3-0.1-4.5-0.1-6.8c0-5.1,0.2-10.2,0.5-15.2c7.4-104.6,91-187,193-187c88,0,162.4,61.4,185.8,145.5c0.4,1.5,0.8,3,1.2,4.5
			c1.4,5.7,2.6,11.4,3.6,17.3C691.1,573.8,692.1,585.5,692.1,597.2z"/>
		<path class="st2" d="M692.1,597.2c0,111.7-86.7,202.2-193.6,202.2c-104.7,0-190-86.9-193.5-195.4c22.1,0.7,44.6-0.1,65.4-7.6
			c22.6-8.1,42-23.7,62.8-36c55.9-33,122.7-41.8,186.5-35.3c21.7,2.2,44.2,6.8,64.6,15.3C689.5,558.8,692.1,577.9,692.1,597.2
			L692.1,597.2z"/>
		<path class="st2" d="M692.1,597.2c0,111.7-86.7,202.2-193.6,202.2c-6.1,0-12.2-0.3-18.2-0.9c-64-33-105.4-100.1-107.7-174.6
			c22.1,0.7,44.6-0.1,65.4-7.6c22.6-8.1,42-23.7,62.8-36c55.4-32.7,121.4-41.7,184.8-35.5c1.4,5.7,2.6,11.4,3.6,17.3
			C691.1,573.8,692.1,585.5,692.1,597.2z"/>
		<path class="st3" d="M692.1,597.2c0,111.7-86.7,202.2-193.6,202.2s-193.6-90.5-193.6-202.2c0-5.1,0.2-10.2,0.5-15.2
			c15.3,1.9,30.2,6.3,44.2,12.9c22.7,10.7,42.9,27,66.5,35.2c17.2,6,35.5,7.4,53.7,8c22.6,0.8,45.7,0.2,67.2-7.6
			c22.6-8.1,41.9-23.7,62.8-36c27.7-16.3,58.1-26.7,89.4-32.3C691.1,573.8,692.1,585.5,692.1,597.2z"/>
		<path class="st4" d="M942.6,206.1l-17.5,11.6l10.6-20.1c-3-2.5-6.7-3.9-10.5-3.9h-0.3c-1.2,0-2.4-0.1-3.6-0.3l-5.9,3.9l2.5-4.8
			c-4.2-1.5-7.8-4.4-10.4-8.2l-10.6,7l6.7-12.7c-6.2-7.8-14.5-12.5-23.7-12.5c-11,0-20.8,6.8-27.2,17.5c-3.8,6.5-10.7,10.4-18,10.1
			h-0.6c-12.2,0-22,14.4-22,32.2s9.9,32.2,22,32.2c2.7,0,5.3-0.7,7.7-2c7.9-4.3,18.3-4.4,26.7-0.6c7.2,3.4,15.4,3.4,22.7,0.1
			c8.2-3.8,18.5-3.7,26.4,0.5c2.3,1.3,4.9,2,7.6,2c12.2,0,22-14.4,22-32.2C947.3,219,945.7,212.2,942.6,206.1z"/>
		<path class="st5" d="M909.6,253.2c-6.4-1.3-12.9-0.5-18.9,2.1c-7.2,3.4-15.4,3.4-22.7,0c-8.3-3.9-18.7-3.8-26.7,0.5
			c-2.4,1.3-5,2-7.7,2c-10.9,0-19.8-11.4-21.7-26.4c2.2-1.6,4-3.7,5.4-6.1c6.3-10.7,16.2-17.5,27.2-17.5c11,0,20.7,6.8,27,17.3
			c3.8,6.5,10.7,10.4,18,10.3h0.3C898.6,235.5,906,242.7,909.6,253.2z"/>
		<path class="st4" d="M181.8,193.1l-8.7,5.8l5.3-10c-1.5-1.3-3.4-2-5.3-2H173c-0.6,0-1.2,0-1.8-0.1l-3,2l1.3-2.4
			c-2.1-0.8-3.9-2.2-5.2-4.1l-5.3,3.5l3.3-6.3c-2.9-3.8-7.2-6.1-11.8-6.2c-5.5,0-10.4,3.4-13.6,8.7c-1.9,3.2-5.3,5.1-9,5h-0.3
			c-6.1,0-11,7.2-11,16.1c0,8.9,4.9,16,11,16c1.3,0,2.6-0.3,3.8-1c4.2-2.1,9-2.2,13.3-0.3c3.6,1.7,7.7,1.7,11.3,0
			c4.2-1.9,9-1.8,13.2,0.3c1.2,0.6,2.5,1,3.8,1c6.1,0,11-7.2,11-16C184.1,199.5,183.3,196.1,181.8,193.1z"/>
		<path class="st5" d="M165.4,216.6c-3.2-0.6-6.4-0.3-9.4,1.1c-3.6,1.7-7.7,1.7-11.3,0c-4.3-2-9.1-1.9-13.3,0.3
			c-1.2,0.7-2.5,1-3.8,1c-5.4,0-9.9-5.7-10.8-13.1c1.1-0.8,2-1.8,2.7-3c3.2-5.3,8.1-8.7,13.6-8.7c5.5,0,10.3,3.4,13.5,8.6
			c1.9,3.2,5.3,5.2,9,5.1h0.1C159.8,207.7,163.5,211.3,165.4,216.6z"/>
		<path class="st4" d="M272,303.5l14,9.3l-8.5-16.1c2.4-2,5.4-3.1,8.5-3.2h0.2c1,0,1.9-0.1,2.9-0.2l4.7,3.1l-2.1-3.9
			c3.4-1.2,6.3-3.5,8.3-6.6l8.5,5.6l-5.3-10.1c5-6.2,11.7-10,19-10c8.8,0,16.7,5.5,21.8,14c3,5.2,8.5,8.3,14.4,8.1h0.5
			c9.7,0,17.6,11.5,17.6,25.8s-7.9,25.8-17.6,25.8c-2.1,0-4.3-0.6-6.2-1.6c-6.7-3.4-14.5-3.6-21.4-0.4c-5.8,2.7-12.4,2.7-18.2,0
			c-6.8-3.1-14.5-2.9-21.2,0.4c-1.9,1-4,1.6-6.1,1.6c-9.8,0-17.6-11.5-17.6-25.8C268.2,313.8,269.5,308.4,272,303.5z"/>
		<path class="st5" d="M298.4,341.2c5.1-1,10.4-0.4,15.1,1.7c5.8,2.7,12.4,2.7,18.2,0c6.8-3.1,14.6-3,21.4,0.4c1.9,1,4,1.6,6.1,1.6
			c8.7,0,15.9-9.1,17.4-21.1c-1.7-1.3-3.2-3-4.4-4.9c-5.1-8.5-12.9-14-21.8-14s-16.6,5.4-21.7,13.9c-3.1,5.2-8.5,8.3-14.4,8.2h-0.2
			C307.3,327,301.3,332.8,298.4,341.2z"/>
		<path class="st6" d="M906.1,825.5c4.7-9-0.6-20-6.7-28S886,781.2,886.1,771c0.2-14.7,15.1-23.3,27-31.1c8.8-5.8,17-12.6,24.3-20.4
			c2.9-3.1,5.7-6.5,7.5-10.4c2.5-5.7,2.4-12.3,2.2-18.5c-0.5-20.9-1.5-41.8-3-62.7"/>
		<path class="st7" d="M966.8,626.6c-0.3-7.8-4.5-14.9-10.9-18.7L951,618l0.1-12.3c-11.6-3.6-23.8,3.4-27.2,15.5s3.2,24.8,14.8,28.4
			c11.6,3.6,23.8-3.4,27.2-15.5C966.6,631.7,966.9,629.1,966.8,626.6z"/>
		<path class="st7" d="M927.7,781.5c-5.5,11.2-18.7,15.6-29.5,9.9c-10.7-5.8-15-19.6-9.4-30.8c5.5-11.2,18.7-15.6,29.5-9.9
			c4.9,2.6,8.6,7,10.5,12.4l-13.7,11.6l15.1-3.6C930.2,774.6,929.3,778.2,927.7,781.5z"/>
		<path class="st7" d="M916.9,737c-12.1,0.6-22.3-9.1-22.9-21.7c-0.5-10.7,6.1-20.3,16-23.1l-0.1,9.4l5-10.3h0.1
			c12.1-0.9,22.5,8.7,23.3,21.3c0.8,12.6-8.3,23.5-20.4,24.4C917.5,737,917.2,737,916.9,737L916.9,737z"/>
		<path class="st7" d="M970.1,700.1c-12.1,0.6-22.3-9.2-22.9-21.8c-0.6-12.6,8.8-23.3,20.8-23.9c4.1-0.2,8.2,0.8,11.8,2.9l-3.8,11.1
			l8-8c4.3,4.1,6.8,9.8,7.1,15.8c0.1,2.1-0.1,4.3-0.5,6.4C988.2,692.4,979.9,699.6,970.1,700.1z"/>
		<path class="st1" d="M963.9,632.7c-5.1,0.6-10,2.2-15,2.5c-5.1,0.3-10.6-0.9-13.8-5.1c-1.7-2.2-2.6-5-4.1-7.5
			c-1.4-2.3-3.3-4.1-5.5-5.4c-5.5,11.3-1.2,25,9.6,30.8c10.8,5.7,24,1.3,29.5-10c0.9-1.8,1.5-3.7,1.9-5.6
			C965.5,632.5,964.7,632.6,963.9,632.7z"/>
		<path class="st1" d="M970.1,700.1c-12.1,0.6-22.3-9.2-22.9-21.9c-0.2-3.7,0.5-7.4,2.1-10.7c1.7,1.2,3.2,2.8,4.4,4.6
			c1.6,2.5,2.5,5.3,4.3,7.6c3.4,4.2,9.2,5.6,14.5,5.3c5.3-0.2,10.4-1.8,15.7-2.3c0.7-0.1,1.5-0.1,2.2-0.1
			C988.1,692.4,979.9,699.6,970.1,700.1z"/>
		<path class="st1" d="M916.9,737c-12.1,0.6-22.4-9.1-22.9-21.7c-0.2-3.6,0.5-7.2,1.9-10.5c1.8,1.2,3.4,2.8,4.6,4.7
			c1.7,2.5,2.8,5.4,4.8,7.7c3.7,4.3,9.9,5.8,15.5,5.7c5.4-0.1,10.6-1.5,16-1.9C934.1,730.1,926.1,736.6,916.9,737z"/>
		<path class="st1" d="M927.7,781.5c-5.6,11.2-18.8,15.6-29.5,9.8c-9.9-5.3-14.4-17.6-10.4-28.5c1.8,1.2,3.4,2.7,4.8,4.5
			c2.1,2.7,3.5,5.7,5.9,8.1c4.5,4.6,11.7,6.5,18.2,6.7C920.4,782.1,924.1,781.9,927.7,781.5z"/>
		<path class="st8" d="M873.1,815.2c0,0,17.3-0.6,22.5-4.4s26.6-8.5,27.9-2.3s26,30.9,6.5,31.1c-19.5,0.2-45.3-3.2-50.5-6.5
			S873.1,815.2,873.1,815.2z"/>
		<path class="st9" d="M930.2,837.4c-19.5,0.2-45.3-3.2-50.5-6.5c-4-2.5-5.5-11.6-6.1-15.7h-0.6c0,0,1.1,14.6,6.3,17.9
			s31,6.7,50.5,6.5c5.6,0,7.6-2.1,7.5-5.2C936.6,836.2,934.4,837.3,930.2,837.4z"/>
		<path class="st6" d="M806.7,821.5c-3-5.9,0.4-13.1,4.4-18.3c4-5.2,8.8-10.7,8.7-17.3c-0.1-9.6-9.9-15.2-17.7-20.3
			c-5.8-3.8-11.1-8.2-15.9-13.3c-2-2-3.6-4.3-4.9-6.8c-1.6-3.8-1.6-8-1.5-12.1c0.3-13.7,1-27.3,1.9-41"/>
		<path class="st7" d="M767,691.5c0.2-5.1,2.9-9.7,7.1-12.2l3.2,6.6l-0.1-8c7.6-2.3,15.5,2.2,17.8,10.1c2.2,7.9-2.1,16.2-9.6,18.6
			c-7.6,2.3-15.5-2.2-17.8-10.1C767.1,694.8,766.9,693.1,767,691.5z"/>
		<path class="st7" d="M792.5,792.6c3.6,7.3,12.2,10.2,19.3,6.4c4.6-2.5,7.5-7.3,7.7-12.6c0.1-2.1-0.2-4.1-1-6.1
			c-2.8-7.7-11.1-11.6-18.5-8.6c-3.9,1.5-6.9,4.8-8.3,8.8l8.9,7.6l-9.8-2.4C790.9,788.2,791.4,790.5,792.5,792.6z"/>
		<path class="st7" d="M799.6,763.6c7.9,0.4,14.6-6,15-14.2c0.1-2.3-0.3-4.7-1.2-6.8c-1.7-4-5.1-7.1-9.2-8.3l0.1,6.2l-3.3-6.7l0,0
			c-7.9-0.4-14.6,6-14.9,14.2c-0.1,1.7,0.1,3.5,0.6,5.1C788.4,759.1,793.6,763.3,799.6,763.6z"/>
		<path class="st7" d="M764.9,739.5c7.9,0.4,14.6-6,15-14.2c0.3-8.3-5.8-15.3-13.8-15.6c-2.6-0.1-5.2,0.5-7.5,1.9l2.5,7.2l-5.2-5.2
			c-5.8,5.6-6.2,15-0.9,21.1C757.5,737.5,761.1,739.3,764.9,739.5L764.9,739.5z"/>
		<path class="st1" d="M768.9,695.5c3.3,0.4,6.5,1.5,9.8,1.7s6.9-0.6,9-3.3c1.1-1.5,1.7-3.3,2.7-4.9c0.9-1.5,2.1-2.7,3.6-3.5
			c3.5,7.4,0.7,16.4-6.4,20.1c-2.2,1.1-4.6,1.7-7,1.6c-6.5-0.3-11.9-5.2-13.3-11.8C767.9,695.4,768.4,695.5,768.9,695.5z"/>
		<path class="st1" d="M764.9,739.5c7.9,0.4,14.6-6,15-14.2c0.1-2.4-0.4-4.9-1.4-7.1c-1.1,0.8-2.1,1.8-2.9,3c-1,1.6-1.6,3.5-2.9,4.9
			c-2.2,2.7-6,3.6-9.5,3.5c-3.4-0.2-6.8-1.2-10.2-1.5c-0.5,0-1-0.1-1.4-0.1C753,734.4,758.5,739.2,764.9,739.5z"/>
		<path class="st1" d="M799.6,763.6c7.9,0.4,14.6-6,15-14.2c0.1-2.3-0.3-4.7-1.2-6.8c-1.2,0.8-2.2,1.8-3,3c-1.1,1.6-1.8,3.5-3.1,5
			c-2.4,2.8-6.5,3.8-10.1,3.7c-3.7-0.1-6.9-1-10.5-1.3C788.3,759,793.5,763.3,799.6,763.6z"/>
		<path class="st1" d="M792.5,792.6c3.6,7.3,12.2,10.2,19.3,6.4c4.6-2.5,7.5-7.3,7.7-12.6c0.1-2.1-0.2-4.1-1-6.1
			c-1.2,0.8-2.2,1.8-3.1,2.9c-1.4,1.7-2.3,3.7-3.8,5.3c-2.9,3-7.7,4.2-11.8,4.3C797.3,793,794.9,792.9,792.5,792.6z"/>
		<path class="st8" d="M828.2,814.7c0,0-11.3-0.4-14.7-2.9c-3.4-2.5-17.4-5.5-18.2-1.5s-17,20.2-4.2,20.3c12.7,0.1,29.6-2.1,33-4.2
			C827.5,824.2,828.2,814.7,828.2,814.7z"/>
		<path class="st9" d="M790.9,829.2c12.7,0.1,29.7-2.1,33-4.2c2.6-1.7,3.6-7.6,4-10.3h0.4c0,0-0.7,9.5-4.1,11.7
			c-3.4,2.2-20.3,4.3-33,4.2c-3.7,0-4.9-1.4-4.9-3.4C786.7,828.4,788.1,829.1,790.9,829.2z"/>
		<path class="st10" d="M468.8,702.2c21.8-4.2,21.9-37.4,21.9-37.4c-1,4.7-3.2,5.2-14.5,9s-18.2,16-18.2,16
			c-33.9-40.4-63,3.6-63,3.6c4.9,7.6,12,13.4,20.3,16.4c-1.3,3.4-2.8,8.2-1.1,9.9c1.9,2,7.1-4.2,10-7.8c0.8,0.1,1.7,0.2,2.5,0.2
			c1.6,3.4,5.6,12.3,5.6,17.6c0,0,9.2-0.7,8.1-18.3c5.9-1,11.6-2.8,17-5.3c0,0-1,27.5,6.7,28.9s15.2,11.2,15.2,11.2
			C490.6,723.1,468.8,702.2,468.8,702.2z"/>
		<path class="st10" d="M604.3,650.2c21.7,4.5,33.6-26.2,33.6-26.2c-2.5,4-4.8,3.6-16.7,2.7c-11.9-0.9-22.6,7.8-22.6,7.8
			c-17.1-50.6-59.8-21-59.8-21c1.8,9,6.4,17.1,13,23.1c-2.5,2.7-5.5,6.5-4.5,8.8c1.1,2.7,8.1-1.1,12-3.4c0.7,0.4,1.5,0.8,2.3,1.2
			c0.3,3.8,0.9,13.6-1,18.5c0,0,8.9,2.9,14-13.9c5.8,1.3,11.7,1.9,17.6,1.7c0,0-10.7,25.1-4,29.5s10.1,16.2,10.1,16.2
			C617.1,678,604.3,650.2,604.3,650.2z"/>
	</g>
</g>
<g>
	<g id="_x23_woman_x28_walk_x2C_play_x5B_phone_x5D__x29_">
		<g id="_x33_">
			
				<linearGradient id="SVGID_1_" gradientUnits="userSpaceOnUse" x1="232.9693" y1="56.2227" x2="232.9693" y2="563.3807" gradientTransform="matrix(1 0 0 -1 -76 903.45)">
				<stop  offset="0" style="stop-color:#808080;stop-opacity:0.25"/>
				<stop  offset="0.54" style="stop-color:#808080;stop-opacity:0.12"/>
				<stop  offset="1" style="stop-color:#808080;stop-opacity:0.1"/>
			</linearGradient>
			<path class="st11" d="M267.9,440.5L267.9,440.5l-0.2-0.2l-0.4-0.3l0.1,0.1c-0.8-0.5-1.9-0.3-2.4,0.5l-0.3,0.4l0,0l-13,19.6
				l-2.3,3.4c-6.9-2.1-18,6.9-23.6,12.1l-1,0.9c-0.4-1-0.7-1.7-0.7-1.7c-0.3,3.2-11.1,8-13.6,9.7c-1.1,0.7-2.4,1.2-3.8,1.3
				c0.4-12.2-8.6-25-8.6-25l-22-29.3c-0.8-5.3,0-10.7,2.2-15.5c0.2-0.4,0.4-0.8,0.6-1.1h1h0.1c1.8,0,3.6-0.2,5.3-0.5
				c13.3-2.5,23.2-14.1,24.1-28.2c2.2-0.6,4.1-2.7,3.8-5.2c0.1-0.5,0.1-1,0-1.4l0,0c-0.1-0.3-0.1-0.6-0.3-0.9l0,0
				c-0.6-1.7-2-3-2.9-4.5c-1.4-2.2-2.1-4.8-2.1-7.4c0.1-2.3,0.4-4.6,1-6.8c0.4-1.3,0.7-2.7,0.6-4.1V356c0-0.4,0-0.7,0-1.1
				c0-0.3-0.1-0.5-0.2-0.8l0,0c-0.5-1.6-1.6-2.9-2.9-3.8c-3.5-2.4-7.9-2.4-11.8-3.9c-5.7-2.2-10.8-7.5-16.7-6.2
				c-3.2,0.7-5.7,3.3-8.5,5.1c-3.1,2-6.6,3.1-10.3,3.3c-3.1,0.1-6.2-0.5-9.2,0c-0.5,0.1-1.1,0.3-1.6,0.5c-2.6-0.9-5.3-1.4-8-1.3
				c-2.7-0.1-5.3,0.7-7.5,2.2c-4.1,3-5.2,8.7-5.1,13.9v0.1c0,0.3,0,0.7,0,1c0,2.5,0.2,5,0.3,7.5c0,2.3-0.3,4.6-0.9,6.8
				c-1.9,6.1-7.2,10.8-8.3,17.1c-0.2,1.1-0.2,2.2-0.2,3.3c-0.1,3.6,1,7.2,2,10.6c2.1,7.2,3.8,14.8,3.8,22.2c0,4.6-0.9,9.2-2.6,13.5
				c-0.5,1.2-1.1,2.4-1.8,3.6c-0.2,0.4-0.5,0.7-0.8,1l-0.1,0.1c-0.2,0.3-0.5,0.5-0.7,0.8l-0.2,0.2c-0.2,0.2-0.5,0.4-0.8,0.6
				l-0.2,0.2c-0.3,0.2-0.7,0.5-1.1,0.6l1.9-0.1c-0.6,0.5-1.2,0.9-1.9,1.2l9.9-0.6c0,0.1,0,0.2,0,0.3c0,0.3-0.1,0.5-0.1,0.8
				c-0.1,0.2-0.1,0.5-0.2,0.7c0,0,0,0.1,0,0.1c-0.2,0.5-0.5,0.9-0.8,1.3l-0.1,0.1c-0.2,0.2-0.3,0.4-0.5,0.5l0,0
				c-0.2,0.2-0.3,0.3-0.5,0.4l-0.1,0.1c-0.2,0.1-0.4,0.3-0.6,0.4l0,0c-0.2,0.1-0.4,0.2-0.6,0.2l-0.2,0c-0.2,0.1-0.5,0.1-0.7,0.2
				l1-0.1c0.6-0.1,1.2-0.2,1.9-0.3h0.2c-0.8,0.9-1.8,1.4-3,1.5c2.1-0.2,4.2-0.6,6.2-1.3c1.3,9,4.1,36.5,2.6,41.6
				c-1.8,5.5,2.5,45.1,2.5,45.1s0.6,3,1.6,7.6c-2.6,6.5-5.7,13.7-7.2,16.6c-3,5.8-1.5,35.4,8.9,48.6c0,0,4.3,6.4,3.2,8.7
				s0.2,6.4,0.2,6.4l1.7,38.3c0,3.9-0.3,7.9-0.7,11.8c-4.5,5.8-11.4,14.2-14.6,15.6c-5,2.1-42.4,49.6-42.4,49.6s0.3,0.6,0.9,1.5
				l-1.1,1.3l-7.2,8.7l-0.6,0.7c-1.3-0.3-10.3-2-17.4-2.5h-0.7v-0.1c-2.5-0.3-5-0.2-7.5,0.2H50l0,0c-0.5,0.1-0.9,0.3-1.2,0.7
				c-2.4,3.1-3.7,51.9-3.7,51.9s2.6,24.4,10.6,25.8c0.4,0.1,0.9,0.2,1.3,0.2H57c0.1,0,0.3,0,0.4,0c5.7-0.4,8.4-3.9,9.6-6.3
				c0.4-0.7,0.6-1.5,0.8-2.2c0,0-1-4.4,1.6-10.4c2.5-6,7.2-16.5,7.2-16.5s8.5-9.4,7-14l0.8-1.2c3.2-4.8,9.7-14.2,14.9-20.5l1-1.2
				c1.9,0.8,3.9,1.5,6,1.8c0,0,8-3.3,11-10.7c1.3-3.1,6.3-8.7,11.6-14c-0.1,0.9-0.2,1.4-0.2,1.4l-0.2,46.7c1.7,1.2,3.6,2.3,5.5,3.2
				c0,0.4,0,0.8,0,1.2c0,6.7-0.3,13.3-1.1,19.9c0,0.3-0.1,0.7-0.2,1c-0.7-0.5-1.2-0.7-1.6-0.3c-1.6,1.7-2.7,12.9-2.8,18
				c0,0.1,0,0.2,0,0.3l0,0c-0.1,2.1-0.7,4.7-0.7,6.9c0,3.3,1,6,6,6.3c6.3,0.3,33.4,0.7,47.9,0.9c7.8,0.2,15.4-2.6,21.4-7.9
				c2.7-2.4,4.7-5,4.8-7.5c0.1-1.9-0.9-3.8-3.6-5.3c0,0.1,0,0.1-0.1,0.2c-0.4-0.2-0.8-0.4-1.2-0.6l-13.9-2.3L165.3,811
				c0,0-0.1-7.7-3-6.4c-0.8,0.2-1.7,0.5-2.4,1c-0.1-0.3-0.3-0.6-0.4-0.9c-1.9-4-2.9-8.4-2.9-12.9c0-0.4,0-0.8,0.1-1.2
				c0.7-0.7,1.4-1.4,2-2.1c0,0-0.2-17.4,1.7-20.7c1.9-3.3,7.7-36.6,7.7-36.6s0.2-6.2,3.9-9.9c3.7-3.7,2.4-14.3,2.4-14.3
				s5.2-2.9,6.9-12.4c1.7-9.5,7.1-30.2,7.1-30.2s11.2-30.6,10.5-50c-0.7-19.4,1.1-29.4,1.1-29.4l2.3-45v-0.7c1,0.7,1.6,1.3,1.6,1.3
				s0-0.2,0-0.5l0.5,0.5c0,0,1.2-20.4,0.8-28.5c6.5-2.3,16.5-6.1,17.1-8.1c0.8-2.9,12-12,12-12c-0.2-0.1-0.5-0.1-0.7-0.3
				c0.4-0.2,0.7-0.4,1.1-0.6c7.4-4.1,21-16.1,18.7-23.5l14.9-22.5C269.3,443.7,269.1,441.8,267.9,440.5z M146.3,418.6
				c-0.4,0-0.7,0-1.1,0.1c-0.6-4-1.6-8-2.7-11.8c-1.7-6.1-3.6-12.2-3.9-18.5c0-0.3,0-0.5,0-0.8c0-1.7,0.2-3.3,0.6-4.9
				c0.4,0.7,0.8,1.4,1.2,2c2.4,3.8,5.2,7.3,6.7,11.6c0.5,2,1.2,4,2.1,5.9c1,1.8,2.9,3.3,4.9,3c0.7-0.1,1.3-0.4,1.8-0.9
				C153.2,409.3,150,414.1,146.3,418.6z"/>
			<path class="st12" d="M232,496c-1.1,0.7-2.3,1.2-3.5,1.4c-4.6,0.1-8.4-12.9-8.4-12.9s1.3-1.4,3.4-3.3
				c6.2-5.7,19.1-16.3,25.2-10.4C255.4,477.5,239.9,491.5,232,496z"/>
			<path class="st12" d="M162.1,806.3l-17,19.1c0,0-15.7,0.2-12.6-8.9c0.6-2,1-4,1.3-6c0.8-6.4,1.2-12.9,1.1-19.4
				c0-4.2-0.1-7.2-0.1-7.2s24.7-11.3,22.2,0.5c-0.3,1.5-0.5,3-0.5,4.5c0,4.4,1,8.7,2.8,12.6C160.1,803.2,161,804.8,162.1,806.3z"/>
			<path class="st1" d="M162.1,806.3l-17,19.1c0,0-15.7,0.2-12.6-8.9c0.6-2,1-4,1.3-6c2.2,1.8,5.5,7.2,5.5,7.2s10.8,3.3,13.8-6.6
				c1.7-5.5,4.3-8.3,6.3-9.6C160.1,803.2,161,804.8,162.1,806.3z"/>
			<path class="st7" d="M201.4,835.2c-5.8,5.1-13.1,7.9-20.7,7.7c-14-0.2-40.2-0.6-46.2-0.9c-8.1-0.4-5.4-7.6-5.2-12.6
				c0-0.2,0-0.3,0-0.5c0.1-5,1.1-15.8,2.7-17.5s7.2,7.5,7.2,7.5s10.8,3.3,13.8-6.6s9-10.8,9-10.8c2.8-1.2,2.9,6.2,2.9,6.2l23,12.3
				l13.5,2.2c0.4,0.2,0.8,0.4,1.2,0.6C208.6,826.4,205.9,831.2,201.4,835.2z"/>
			<ellipse class="st13" cx="159.1" cy="815.1" rx="1" ry="1"/>
			<ellipse class="st13" cx="168.4" cy="819.9" rx="1" ry="1"/>
			<ellipse class="st13" cx="173.2" cy="822.2" rx="1" ry="1"/>
			<ellipse class="st13" cx="183.1" cy="826.2" rx="1" ry="1"/>
			<ellipse class="st13" cx="178" cy="824.5" rx="1" ry="1"/>
			<path class="st7" d="M201.4,835.2c-5.8,5.1-13.1,7.9-20.7,7.7c-14-0.2-40.2-0.6-46.2-0.9c-8.1-0.4-5.4-7.6-5.2-12.6l51,3.3
				c0,0,20.9-3.3,22.1-9.8C208.6,826.4,205.9,831.2,201.4,835.2z"/>
			<path class="st13" d="M201.4,835c-5.8,5.1-13.1,7.9-20.7,7.7c-14-0.2-40.2-0.6-46.2-0.9c-8.1-0.4-5.4-7.6-5.2-12.6l51,3.3
				c0,0,20.9-3.3,22.1-9.8C208.6,826.2,205.9,830.9,201.4,835z"/>
			<path class="st12" d="M106.4,758.2c-1.9,1.6-3.6,3.4-5.1,5.4c-5.1,6.2-11.3,15.3-14.4,20l-1.9,2.9l-6.8-1.1c0,0-7.3-11.7-7.2-12
				s5.7-12.8,5.7-12.8l2.2-2.7l6.9-8.5l3.1-3.8C89,745.6,112.6,753.6,106.4,758.2z"/>
			<path class="st1" d="M86.9,783.6l-1.9,2.9l-6.8-1.1c0,0-7.3-11.7-7.2-12s5.7-12.8,5.7-12.8l2.2-2.7l0.7,0.1h1.7
				c-6.1,6.6,0.4,21.1,0.4,21.1S84.7,779.5,86.9,783.6z"/>
			<path class="st7" d="M79.3,798.5c0,0-4.5,10.2-7,16s-1.5,10.1-1.5,10.1c-0.2,0.8-0.4,1.5-0.8,2.2c-1.1,2.3-3.7,5.7-9.2,6.1
				c-0.1,0-0.3,0-0.4,0c-8.2-0.2-10.8-25.2-10.8-25.2s1.3-47.5,3.6-50.6c0.3-0.3,0.7-0.6,1.2-0.7c2.4-0.4,4.8-0.5,7.3-0.2
				c7.4,0.6,17,2.5,17,2.5h1.7c-6.1,6.6,0.4,21.1,0.4,21.1s2.9,0.3,5.1,4.5C88.2,788.6,79.3,798.5,79.3,798.5z"/>
			<ellipse class="st13" cx="69.4" cy="784.3" rx="1" ry="1"/>
			<ellipse class="st13" cx="68.9" cy="792.5" rx="1" ry="1"/>
			<path class="st7" d="M69.4,826.5c-1.8,3.7-5.3,6-9.2,6.1h-0.4c-8.2-0.2-10.9-25.2-10.9-25.2s1.3-47.5,3.6-50.5
				c0.3-0.3,0.7-0.6,1.2-0.7c2.4-0.4,4.8-0.5,7.2-0.2c-0.1,8.5-0.5,35.5,0,38.2C61.5,796.9,66.1,819.4,69.4,826.5z"/>
			<path class="st13" d="M70,826.7c-1.8,3.7-5.3,6-9.2,6.1c-0.1,0-0.3,0-0.4,0c-8.2-0.2-10.9-25.2-10.9-25.2s1.3-47.5,3.6-50.6
				c0.3-0.3,0.7-0.6,1.2-0.7c2.4-0.4,4.8-0.5,7.3-0.2c-0.1,8.5-0.5,35.5,0,38.2C62,797.1,66.7,819.5,70,826.7z"/>
			<path class="st7" d="M59.7,832.7c-8.2-0.2-10.9-25.2-10.9-25.2s1.3-47.5,3.6-50.5c0.3-0.3,0.7-0.6,1.2-0.7
				c1.7,2.7,3.2,8.6,1.9,21.7c-2.6,24.8,0.5,26.3,0.5,26.3S59.9,825.3,59.7,832.7z"/>
			<path class="st1" d="M59.6,832.7c-8.2-0.2-10.9-25.2-10.9-25.2s1.3-47.5,3.6-50.5c0.3-0.3,0.7-0.6,1.2-0.7
				c1.7,2.7,3.2,8.6,1.9,21.7c-2.6,24.8,0.5,26.3,0.5,26.3S59.8,825.3,59.6,832.7z"/>
			<path class="st1" d="M232,496c-1.1,0.7-2.3,1.2-3.5,1.4c-4.6,0.1-8.4-12.9-8.4-12.9s1.3-1.4,3.4-3.3
				C224.9,484.8,229.1,494.2,232,496z"/>
			<path class="st14" d="M202.5,491.3c0,0,3.8,0.3,6.2-1.4s12.9-6.4,13.1-9.5c0,0,6.2,15.8,9.8,16.4c0,0-10.8,8.9-11.6,11.8
				c-0.8,2.8-21.9,9.8-21.9,9.8L202.5,491.3z"/>
			<path class="st7" d="M202.5,491.3c0,0,3.8,0.3,6.2-1.4s12.9-6.4,13.1-9.5c0,0,6.2,15.8,9.8,16.4c0,0-10.8,8.9-11.6,11.8
				c-0.8,2.8-21.9,9.8-21.9,9.8L202.5,491.3z"/>
			<path class="st1" d="M106.4,758.2c-1.9,1.6-3.6,3.4-5.1,5.4c-8.2-3.6-13.4-10.9-15.4-14.1l3.1-3.8
				C89,745.7,112.6,753.6,106.4,758.2z"/>
			<path class="st15" d="M145.1,678c0,0-13.2,18.5-18.1,20.6s-40.9,48.3-40.9,48.3s7.8,14.9,22,17.3c0,0,7.8-3.2,10.7-10.4
				s25.7-27.4,25.7-27.4L145.1,678z"/>
			<path class="st1" d="M145.1,678c0,0-13.2,18.5-18.1,20.6s-40.9,48.3-40.9,48.3s7.8,14.9,22,17.3c0,0,7.8-3.2,10.7-10.4
				s25.7-27.4,25.7-27.4L145.1,678z"/>
			<path class="st1" d="M105,739.9c4,0.4,8,0.4,12,0C124.2,739.2,118.8,743.7,105,739.9z"/>
			<path class="st1" d="M101.7,744.7c0,0,9.5,5.7,13.1,2.8C118.5,744.7,111.3,750.3,101.7,744.7z"/>
			<path class="st1" d="M157,784.5c-0.3,1.5-0.5,3-0.5,4.5c-7.3,6.9-16.1,4.8-21.6,2.3c0-4.2-0.1-7.2-0.1-7.2S159.5,772.7,157,784.5
				z"/>
			<path class="st15" d="M200.9,538.4l-0.3,5.2l-2.2,43.8c0,0-1.8,9.8-1.1,28.7c0.7,18.9-10.1,48.7-10.1,48.7s-5.2,20.2-6.9,29.4
				s-6.7,12.1-6.7,12.1s1.3,10.4-2.3,14s-3.8,9.6-3.8,9.6s-5.6,32.4-7.4,35.7c-1.8,3.2-1.6,20.2-1.6,20.2
				c-11.7,14.5-28.9,1.3-28.9,1.3l0.2-45.5c0,0,4.9-41.9,8.5-47.7s3.6-21.9,3.6-21.9l-1.6-37.3c0,0-1.3-4-0.2-6.2s-3.1-8.5-3.1-8.5
				c-10.1-12.8-11.6-41.7-8.6-47.4c2.9-5.7,11.7-28.3,11.7-28.3l12.1-7.4l21.8,0.7L200.9,538.4z"/>
			<path class="st1" d="M149.5,760.7c0,0,2.9,10.3,5.2,11.5S149.5,760.7,149.5,760.7z"/>
			<path class="st1" d="M153.4,726.3c0,0,7.4,6.1,10.5,6.1S153.4,726.3,153.4,726.3z"/>
			<path class="st12" d="M198,471v12.5l-7.9-3.5l-7.8-3.5l-17.1-17.5c0,0-13.5-9.2-20.7-17.5c-4.1-4.8-6.2-9.3-2.6-11.6
				c1.8-1.2,3.3-2.7,4.7-4.3c3.6-4.5,6.8-9.3,9.4-14.5l0.3-0.6c3.5-6.7,5.8-12.5,5.8-12.5s9.9,3.3,16.3,8c0.5,0.4,1,0.8,1.5,1.2
				c3.6,3,5.3,6.6,2,10.1c-0.8,0.9-1.6,1.9-2.3,2.9l0,0c-0.5,0.8-1,1.6-1.4,2.4c-0.2,0.4-0.4,0.7-0.6,1.1c-2.2,4.7-2.9,10-2.2,15.1
				L198,471z"/>
			<path class="st1" d="M182,416.9c-0.8,0.9-1.6,1.9-2.3,2.9l0,0c-0.5,0.8-1,1.6-1.4,2.4c-0.2,0.4-0.4,0.7-0.6,1.1
				c-8.5-0.5-16.3-4.9-21.3-12c-0.1-0.2-0.2-0.3-0.3-0.5l0.3-0.6c3.5-6.7,5.8-12.5,5.8-12.5s9.9,3.3,16.3,8c0.5,0.4,1,0.8,1.5,1.2
				C183.5,409.9,185.3,413.5,182,416.9z"/>
			<path class="st12" d="M207.7,392.5c0,16.4-12.7,29.7-28.4,29.7c0,0,0,0,0,0h-0.1h-1c-15.7-0.6-28-14.4-27.4-30.8
				c0.6-16.4,13.8-29.2,29.5-28.6C195.6,363.4,207.7,376.5,207.7,392.5L207.7,392.5z"/>
			<path class="st1" d="M183,466c0,0,14.4,8.5,10.7,1.3L175,438.5l0,0l21.2,28.5c0,0,13.5,19.4,6.1,32.8c0,0-1.1,11.1,0.2,13.8
				c1.3,2.6-0.4,30.8-0.4,30.8s-5.1-4.9-7.8-4c-2.7,0.9-21.8,2.6-21.8,2.6L183,466z"/>
			<path class="st1" d="M200.9,538.4l-0.3,5.2c-1.7-1.3-4.1-2.8-5.7-2.2c-2.7,0.9-21.8,2.6-21.8,2.6l0.9-6.5L200.9,538.4z"/>
			<path class="st16" d="M183.5,466c0,0,14.4,8.5,10.7,1.3l-18.7-28.8l0,0l21.2,28.5c0,0,13.5,19.4,6.1,32.8c0,0-1.1,11.1,0.2,13.8
				c1.3,2.6-0.4,30.8-0.4,30.8s-5.1-4.9-7.8-4c-2.7,0.9-21.8,2.6-21.8,2.6L183.5,466z"/>
			<path class="st1" d="M191.2,480.5c-0.8,9.1-4.4,19.8-4.4,19.8s-2.5,26.8-5.7,34.7c-3.2,7.9-1.8,18.9-3.6,39
				c-0.7,7.3-2.9,12.3-5.9,15.6c-5,5.5-12.1,6.7-17.7,6.4l-1.3-0.1c-9-0.9-17.7-46.4-17.7-46.4s-4.2-38.7-2.5-44
				c1.6-5.3-1.6-35.5-2.7-42.1c-0.7-4.2,1.4-11,3-15.5c1-2.6,1.7-4.3,1.7-4.3s3.1-10.2,8.1-15.5c1.4-1.5,3.3-2.4,5.4-2.4
				c2.4,0.1,4.7,0.8,6.7,2.2l0.2,0.2c0,0,32.9,35.1,35.9,43.2C191.4,473.7,191.5,476.9,191.2,480.5z"/>
			<path class="st7" d="M190.1,479.9c-0.8,9.1-4.4,19.9-4.4,19.9s-2.5,26.8-5.7,34.7s-1.8,18.9-3.6,39c-0.6,7.3-2.9,12.2-5.9,15.6
				c-5,5.5-12.1,6.7-17.7,6.3c-0.5,0-0.9-0.1-1.3-0.1c-9-0.9-17.7-46.4-17.7-46.4s-4.2-38.7-2.5-44c1.6-5.3-1.6-35.5-2.7-42.1
				c-0.7-4.2,1.4-11,3-15.5c1-2.6,1.7-4.3,1.7-4.3s3.1-10.2,8.1-15.5c1.4-1.5,3.3-2.4,5.3-2.4c2.4,0.1,4.7,0.9,6.7,2.2l0.2,0.2
				c0,0,32.9,35.1,35.9,43.2C190.3,473.1,190.4,476.4,190.1,479.9z"/>
			<path class="st1" d="M153.3,617.9c0,0-7.4,6.9-10,6.7S153.3,617.9,153.3,617.9z"/>
			<path class="st1" d="M155.3,624.6c0,0-7.8,3.8-10.2,4.4C142.7,629.6,152.3,623.6,155.3,624.6z"/>
			<path class="st1" d="M185.7,520.5c0,0,11.6,0.1,13.4,4C200.8,528.3,189.5,518.9,185.7,520.5z"/>
			<path class="st1" d="M184,527.1c0,0,8.9,2,11.6,4.2S184,527.1,184,527.1z"/>
			<path class="st1" d="M169,504.1c0,0-1.1,38.4-5.1,43.3C159.9,552.2,169,504.1,169,504.1z"/>
			<path class="st1" d="M159,612.5c0,0-7.4,33.8,7.5,35.9c14.9,2.1,10.4-38.5,10.4-38.5L159,612.5z"/>
			<path class="st12" d="M158.4,611.9c0,0-7.4,33.8,7.5,35.9s10.3-38.5,10.3-38.5L158.4,611.9z"/>
			<path class="st1" d="M171.2,469.9c-0.8-20.3-28-24.5-34.3-5.3l-0.1,0.4c-4.1,13-2.3,46-2.3,46s0.5,22.1,2.5,29.5
				c2,7.3,7.6,28.5,7.6,31.9s5.2,16.4,7.4,17.4s3.3,8.3,3.8,9.6s2.2,18.5,2.2,18.5s20.4-1.3,20.8-4.7c0.4-3.4-4.5-20-4.5-20
				s-3.6-6.8-4.1-12.3c-0.5-5.5-3.3-7.9-2.8-11.7c0.5-3.8-1.6-5.7-1.6-8.1c0-2.5-1.6-9-1.6-9s-3.4-2.8-2.9-6.2
				c0.6-3.4-4.9-10.2-3.4-12.6c1.4-2.5,1.8-8.5,1.8-8.5s1.8-27.2,3-34.5c1.2-7.3,8.6-19.2,8.6-19.2S171.3,470.5,171.2,469.9z"/>
			<path class="st1" d="M170.4,589.1c-5,5.5-12.1,6.7-17.7,6.3c-0.6-2.6-1.6-5.7-3-6.3c-2.2-0.9-7.4-14-7.4-17.4
				c0-3.3-5.6-24.5-7.6-31.9c-2-7.3-2.5-29.4-2.5-29.4s-1.8-33,2.3-46c0-0.1,0.1-0.3,0.1-0.4c6.4-19.2,33.6-15,34.3,5.3
				c0,0.6,0,0.9,0,0.9s-7.4,11.9-8.6,19.2s-3.1,34.5-3.1,34.5s-0.4,6-1.8,8.5c-1.4,2.5,4,9.2,3.4,12.6s2.9,6.2,2.9,6.2
				s1.6,6.6,1.6,9c0,2.5,2.2,4.3,1.6,8.1c-0.5,3.8,2.3,6.2,2.8,11.7C168.3,583.3,169.2,586.3,170.4,589.1z"/>
			<path class="st7" d="M170.2,469.4c-0.8-20.3-28-24.5-34.3-5.3c0,0.1-0.1,0.3-0.1,0.4c-4.2,13-2.3,46-2.3,46s0.5,22.1,2.5,29.5
				c2,7.4,7.6,28.4,7.6,31.8c0,3.4,5.2,16.4,7.4,17.4c2.2,0.9,3.3,8.3,3.8,9.6s2.2,18.5,2.2,18.5s20.4-1.3,20.8-4.7
				c0.4-3.4-4.5-20-4.5-20s-3.6-6.8-4.1-12.3c-0.5-5.5-3.3-7.9-2.8-11.7s-1.6-5.7-1.6-8.1c0-2.5-1.6-9.1-1.6-9.1s-3.4-2.8-2.9-6.2
				s-4.9-10.2-3.4-12.6c1.4-2.5,1.8-8.5,1.8-8.5s1.8-27.2,3.1-34.5c1.3-7.4,8.6-19.2,8.6-19.2S170.2,470,170.2,469.4z"/>
			<path class="st1" d="M136.6,521.6c0.5-0.6,10.8-12.5,14.1-8.2C154,517.6,136.6,521.6,136.6,521.6z"/>
			<path class="st1" d="M137.6,530.8c0.4-0.4,10.3-0.8,12.7-6.6S137.6,530.8,137.6,530.8z"/>
			<g class="st17">
				<path d="M126.3,426.5c0.2,0.3,0.4,0.6,0.5,1c0.4-1.3,0.2-2.7-0.5-3.9c-0.5-0.6-1.2-0.9-1.6-1.5c0,0-0.1-0.1-0.1-0.2
					c-0.5,0.9-0.4,2.1,0.1,3C125.1,425.6,125.8,425.9,126.3,426.5z"/>
				<path d="M140.1,389.8c0-1.1,0-2.1,0-3.2c-0.2-3.9-0.9-7.8-1-11.7c-0.2,4.7,0.8,9.7,1,14.5C140.1,389.6,140.1,389.7,140.1,389.8z
					"/>
			</g>
			<path class="st16" d="M235.9,487.9l0.6,0.4c-1-0.7-1.3-2.2-0.6-3.2L261,447c0.7-1.1,2.1-1.3,3.1-0.6l-0.6-0.4
				c1.6,1.2,2.1,3.5,1,5.2c0,0,0,0,0,0L240.9,487C239.8,488.7,237.6,489.1,235.9,487.9C236,488,235.9,487.9,235.9,487.9z"/>
			<path class="st18" d="M263.7,446.1l0.6,0.4l0,0l-27.6,41.9l0,0l-0.6-0.4c-0.8-0.5-0.9-1.6-0.4-2.4l25.7-39
				C261.9,445.8,262.9,445.6,263.7,446.1z"/>
			<path class="st16" d="M258.4,451.5l0.1,0.1c0.1,0.1,0.1,0.2,0,0.2l-2.1,3.1c-0.1,0.1-0.2,0.1-0.2,0l-0.1-0.1
				c-0.1-0.1-0.1-0.2,0-0.2l2.1-3.1C258.3,451.4,258.4,451.4,258.4,451.5z"/>
			<path class="st1" d="M211.3,388.9c-0.4-2-2-3.5-3.1-5.2c-2.7-4.3-2.3-10-1-15c0.5-1.4,0.7-2.8,0.6-4.2c-0.4-1.8-1.5-3.4-3-4.4
				c-3.3-2.3-7.7-2.3-11.4-3.8c-5.5-2.1-10.4-7.3-16.1-6.1c-3.1,0.7-5.5,3.2-8.2,5c-3,2-6.4,3.1-9.9,3.2c-3,0.1-6-0.5-8.9,0
				c-0.5,0.1-1,0.2-1.5,0.4c-2.5-0.9-5.1-1.3-7.7-1.3c-2.6-0.1-5.1,0.7-7.3,2.1c-3.9,2.9-5,8.5-4.9,13.5c0.1,5,0.9,10.2-0.6,15
				c-1.8,6-7,10.5-8,16.7c-0.7,4.2,0.6,8.4,1.8,12.5c3.4,11.7,5.6,24.6,1.1,35.9c-1.1,2.9-2.9,5.7-5.5,7l9.6-0.6
				c0.4,3-1.5,5.7-4.4,6.2c2.4-0.2,4.8-0.7,7-1.7c2.3-1,3.9-3.1,4.4-5.6c0.2-1.3-0.1-2.8,0.3-4.1c0.6-2.2,2.9-3.5,4.6-4.9
				c4.7-3.8,6.9-10.2,7-16.3c0.2-6.2-1.4-12.2-3.1-18.2c-1.7-5.9-3.5-11.9-3.7-18c-0.1-2.3,0.1-4.5,0.6-6.7c0.3,0.7,0.7,1.3,1.1,2
				c2.3,3.7,5,7.2,6.4,11.3c0.5,2,1.2,3.9,2,5.7c1,1.8,2.8,3.2,4.7,2.9c1.9-0.3,3.4-2.5,4-4.5s0.9-4.3,2.1-6.1
				c2.3-3.3,6.8-3.6,10.7-3.5c8.2,0.3,19.6,1.6,26-5c1.2-1.2,1.8-3.2,3.7-2.7c1.7,0.4,2.7,3.3,4.5,4
				C208.2,395.3,212,392.3,211.3,388.9z"/>
			<path class="st16" d="M211.3,387.8c-0.4-2-2-3.5-3.1-5.2c-2.7-4.3-2.3-10-1-15c0.5-1.4,0.7-2.8,0.6-4.2c-0.4-1.8-1.5-3.4-3-4.4
				c-3.3-2.3-7.7-2.3-11.4-3.8c-5.5-2.1-10.4-7.3-16.1-6.1c-3.1,0.7-5.5,3.2-8.2,5c-3,2-6.4,3.1-9.9,3.2c-3,0.1-6-0.5-8.9,0
				c-0.5,0.1-1,0.2-1.5,0.4c-2.5-0.9-5.1-1.3-7.7-1.3c-2.6-0.1-5.1,0.7-7.3,2.1c-3.9,2.9-5,8.5-4.9,13.5c0.1,5,0.9,10.2-0.6,15
				c-1.8,6-7,10.5-8,16.7c-0.7,4.2,0.6,8.4,1.8,12.5c3.4,11.7,5.6,24.6,1.1,35.9c-1.1,2.9-2.9,5.7-5.5,7l9.6-0.6
				c0.4,3-1.5,5.7-4.4,6.2c2.4-0.2,4.8-0.7,7-1.7c2.3-1,3.9-3.1,4.4-5.6c0.2-1.3-0.1-2.8,0.3-4.1c0.6-2.2,2.9-3.5,4.6-4.9
				c4.7-3.8,6.9-10.2,7-16.3c0.2-6.2-1.4-12.2-3.1-18.2c-1.7-5.9-3.5-11.9-3.7-18c-0.1-2.3,0.1-4.5,0.6-6.7c0.3,0.7,0.7,1.3,1.1,2
				c2.3,3.7,5,7.2,6.4,11.3c0.5,2,1.2,3.9,2,5.7c1,1.8,2.8,3.2,4.7,2.9c1.9-0.3,3.4-2.5,4-4.5s0.9-4.3,2.1-6.1
				c2.3-3.3,6.8-3.6,10.7-3.5c8.2,0.3,19.6,1.6,26-5c1.2-1.2,1.8-3.2,3.7-2.7c1.7,0.4,2.7,3.3,4.5,4
				C208.2,394.2,212,391.2,211.3,387.8z"/>
			<g class="st17">
				<path d="M128.8,370.1c0,0.6,0,1.3,0,2c0,2.1,0.2,4.2,0.2,6.3C129.1,375.6,128.9,372.8,128.8,370.1z"/>
				<path d="M125.5,436.2c0.2-7.8-1.4-15.8-3.6-23.3c-0.9-2.7-1.5-5.5-1.9-8.3c-0.4,3.9,0.8,7.8,1.9,11.6
					C123.9,422.6,125.1,429.3,125.5,436.2z"/>
				<path d="M206.2,373c0.2-1.9,0.5-3.7,1-5.5c0.5-1.4,0.7-2.8,0.6-4.2c0-0.3-0.1-0.5-0.2-0.8c-0.1,0.6-0.3,1.1-0.4,1.7
					C206.4,367.1,206.1,370.1,206.2,373z"/>
				<path d="M127,455.1l-5.7,0.3c-0.9,1.5-2.2,2.7-3.8,3.5l9-0.6C127,457.5,127.2,456.3,127,455.1z"/>
				<path d="M211,386.9c-1,2.3-3.5,3.5-5.9,2.9c-1.8-0.6-2.8-3.6-4.5-4c-1.9-0.5-2.5,1.5-3.7,2.7c-6.4,6.6-17.8,5.3-26,5
					c-3.9-0.1-8.5,0.2-10.7,3.5c-1.2,1.8-1.5,4-2.1,6.1s-1.9,4.2-4,4.5c-2.1,0.3-3.8-1.1-4.7-2.9c-0.8-1.8-1.5-3.7-2-5.7
					c-1.4-4.1-4.1-7.6-6.4-11.3c-0.4-0.6-0.8-1.3-1.1-2c-0.5,2.2-0.7,4.5-0.6,6.7c0,0.2,0,0.3,0,0.5c0.1-1.3,0.3-2.6,0.6-3.9
					c0.3,0.7,0.7,1.3,1.1,2c2.3,3.7,5,7.2,6.4,11.3c0.5,2,1.2,3.9,2,5.7c1,1.8,2.8,3.2,4.7,2.9s3.4-2.5,4-4.5
					c0.6-2.1,0.9-4.3,2.1-6.1c2.3-3.3,6.8-3.6,10.7-3.5c8.2,0.3,19.6,1.6,26-5c1.2-1.2,1.8-3.2,3.7-2.7c1.7,0.4,2.7,3.3,4.5,4
					c3,1.1,6.8-1.9,6.1-5.3C211.2,387.5,211.1,387.2,211,386.9z"/>
				<path d="M139,445.1c-1.8,1.4-4,2.7-4.6,4.9c-0.4,1.3-0.1,2.7-0.3,4.1c-0.5,2.5-2.2,4.6-4.4,5.6c-0.9,0.4-1.8,0.8-2.7,1
					c-0.5,2.1-2.2,3.7-4.3,4c2.4-0.2,4.8-0.7,7-1.7c2.3-1,3.9-3.1,4.4-5.6c0.2-1.3-0.1-2.8,0.3-4.1c0.6-2.2,2.9-3.5,4.6-4.9
					c4.7-3.8,6.9-10.2,7-16.3c0-0.9,0-1.8,0-2.7C145.7,435.3,143.5,441.5,139,445.1z"/>
			</g>
		</g>
	</g>
</g>
</svg>
