<?xml version="1.0" encoding="utf-8"?>
<!-- Generator: Adobe Illustrator 19.0.0, SVG Export Plug-In . SVG Version: 6.00 Build 0)  -->
<svg version="1.1" xmlns="http://www.w3.org/2000/svg" xmlns:xlink="http://www.w3.org/1999/xlink" x="0px" y="0px"
	 viewBox="0 0 1000 1000" style="enable-background:new 0 0 1000 1000;" xml:space="preserve">
<style type="text/css">
	.st0{opacity:0.1;}
	.st1{fill:#6C63FF;}
	.st2{opacity:0.1;enable-background:new    ;}
	.st3{fill:#F2F2F2;}
	.st4{fill:#3F3D56;}
	.st5{fill:url(#SVGID_1_);}
	.st6{fill:#2F2E41;}
	.st7{fill:#FBBEBE;}
	.st8{fill:none;stroke:#3F3D56;stroke-width:2;stroke-miterlimit:10;}
</style>
<g id="_x23_wild_x28_have_x5B_plant_x5D__x29_">
	<g>
		<g>
			<g>
				<g class="st0">
					<ellipse class="st1" cx="503" cy="853" rx="494.5" ry="33"/>
				</g>
				<path class="st1" d="M136.1,825.9l19.1-11.2c-2.6-4.4-5.9-8.4-9.8-11.7l-36.1,11.2l28.3-16.6c-22.3-12.2-50.2-4-62.4,18.2
					c-3.7,6.8-5.7,14.4-5.7,22.1c0,25.4,20.6,26.3,46,26.3s46-0.9,46-26.3c0-6.4-1.3-12.8-3.9-18.7L136.1,825.9z"/>
				<path class="st2" d="M140.9,850.6c-2-2-4.3-3.8-6.8-5.3c-3.5-2.3-7.1-4.7-11.2-5.4c-3.6-0.7-7.3-0.1-11-0.3
					c-6.4-0.4-12.4-3.1-16.8-7.7c-2.6-2.7-4.7-6-7.8-8.1c-3.4-2.2-7.7-2.7-11.7-2.2c-1.2,0.2-2.3,0.4-3.5,0.7
					c-1.8,5-2.7,10.3-2.7,15.6c0,25.4,20.6,26.3,46,26.3c12.3,0,23.5-0.2,31.8-3.3l-1.3-2.5C144.6,855.5,142.9,853,140.9,850.6z"/>
				<path class="st1" d="M606.2,789.2l-25.4-14.9c3.4-5.9,7.8-11.1,13-15.5l47.9,14.9l-37.5-22.1c29.5-16.2,66.6-5.4,82.8,24.2
					c4.9,9,7.5,19.1,7.5,29.3c0,33.7-27.3,34.8-61,34.8s-61-1.2-61-34.8c0-8.5,1.7-17,5.2-24.8L606.2,789.2z"/>
				<path class="st2" d="M599.8,822c2.7-2.7,5.7-5.1,9-7.1c4.6-3.1,9.4-6.2,14.8-7.2c4.8-0.9,9.7-0.1,14.5-0.4
					c8.4-0.5,16.4-4.2,22.3-10.2c3.5-3.6,6.2-8,10.4-10.7c4.5-3,10.2-3.6,15.5-2.8c1.5,0.2,3.1,0.5,4.6,0.9
					c2.4,6.6,3.6,13.6,3.6,20.7c0,33.7-27.3,34.8-61,34.8c-16.3,0-31.2-0.3-42.2-4.4l1.8-3.4C594.9,828.5,597.2,825.1,599.8,822z"/>
			</g>
		</g>
	</g>
</g>
<g>
	<g id="_x23_man_x28_walk_x2C_hold_x5B_paper_x5D__x29_">
		<path class="st2" d="M937.3,607.1c-40.4,22.6-80.6,57.1-120.7,98.3c-32.5-58.3-72.7-108.5-121.8-149.6l120.7-98.3
			C864.6,499.7,905.9,550.3,937.3,607.1z"/>
		<path class="st3" d="M939.3,599.1c-40.4,22.6-80.6,57.1-120.7,98.3c-32.5-58.3-72.7-108.5-121.8-149.6l120.7-98.3
			C866.6,491.7,907.9,542.3,939.3,599.1z"/>
		
			<rect x="732.1" y="485.4" transform="matrix(-0.7755 0.6314 -0.6314 -0.7755 1659.9615 398.2681)" class="st4" width="54.2" height="17.8"/>
		
			<rect x="752.6" y="539.3" transform="matrix(-0.7755 0.6314 -0.6314 -0.7755 1766.1185 463.4918)" class="st1" width="96" height="13"/>
		
			<linearGradient id="SVGID_1_" gradientUnits="userSpaceOnUse" x1="957.135" y1="260.7038" x2="957.135" y2="589.1702" gradientTransform="matrix(0.9992 -4.030618e-02 -4.030618e-02 -0.9992 -81.2557 1160.8903)">
			<stop  offset="0" style="stop-color:#808080;stop-opacity:0.25"/>
			<stop  offset="0.54" style="stop-color:#808080;stop-opacity:0.12"/>
			<stop  offset="1" style="stop-color:#808080;stop-opacity:0.1"/>
		</linearGradient>
		<path class="st5" d="M947.2,840.3c-0.6-0.9-1.3-1.7-2.2-2.4c-4.4-4.1-6.4-10.2-7.5-16.1c-1.1-5.9-1.4-12-3.1-17.8
			c-0.9-3-2.1-5.9-3.5-8.7c-1-2.1-2.3-6.3-4.1-7.8c-0.4-0.3-0.8-0.5-1.3-0.6c-0.9-1.8-2.1-3.5-3.6-4.8c-2.9-2.6-6.3-4.7-8.3-8
			c-0.5-1.2-1.2-2.3-1.9-3.3c-1.3-1.4-3.3-2-4.5-3.5c-1.5-1.9-1.2-4.7-1-7.2s0-5.4-2.1-6.7c-1.3-0.8-2.9-0.7-4.3-1.4
			c-2-1-2.8-3.5-2.8-5.8s0.7-4.4,0.9-6.7c0.6-7.2-4.2-14.3-2.3-21.2c0.7-2.6,2.3-4.9,3.4-7.4c0.4-0.8,0.7-1.7,1-2.5
			c3.1,1.2,6.4,2,9.7,2.3c-5.5-12.3-4.1-26.7-6.7-40l0.3-0.5c2.6-3.4,4.1-7.6,4.2-11.8c0-5-2.3-9.6-3.3-14.4
			c-0.9-4.1-0.8-8.4-2-12.5c-0.8-2.5-1.9-4.9-3.2-7.2c-1.2-2.3-2.6-4.6-3.9-6.8c-1.3-4.2-2.6-8.5-3.8-12.7c-1.8-6-3.7-12-7.2-17.1
			c-1.3-1.9-1.7-5.7-3.6-6.8c-1.6-0.8-3.4-1.1-5.2-0.9c-2.8-1.6-5.2-3.8-5.6-6.9c0-0.7,0-1.3,0.2-2h0.3c4.4-0.4,6.6-4.3,8.9-7.7
			c3.7-5.5,2.3-13,0-19.2c-0.6-2-1.6-3.8-3-5.3c-3.2-3-8.3-2.3-12.4-3.8c-1.3-0.6-2.7-1.1-4.1-1.5c-2.8-0.6-5.6,0.2-8.2,1.5
			s-4.9,2.9-7.5,3.9s-5.9,1.8-6.5,4.5c-0.2,0.9-0.1,1.9,0.2,2.7c0.6,1.7,1.7,3.3,3.1,4.5c-4.3,8.9-0.6,19.5,8.3,23.8
			c0.8,0.4,1.7,0.7,2.6,1c0.8,1.2,1.5,2.5,2.1,3.7c1.2,2.2,2.1,4.9,1.7,7.3c-0.7,0.8-1.4,1.6-2,2.4c-2.9,4-4.5,8.7-6,13.4
			c-2,6-3.6,12.1-4.8,18.3c-2.4,5.2-5.4,10.1-7.2,15.6c-3.2,0-6.3-0.4-9.4-1.2l-8.4-1.9c-2.9-0.7-6-1.4-8.3-3.3
			c-1.2-1-2.2-2.3-3.4-3.3s-3.7-2.2-5.1-1.3c-0.2,0.2-0.5,0.3-0.7,0.5c-1.2-2.5-4.3,3.9-5.7,1.5c-2.1-3.4-9.3,0.5-13.2-0.1
			c-2.4-0.4-4.8,0.2-6.8,1.6c-2.3,1.6-3.7,5-2,7.3c0.4,0.5,0.9,1,1.4,1.4c1.2,1.3,2.2,2.8,3.1,4.3c3.1,4.4,10.2,0.5,15.5,1.5
			c-0.1,0.3,3.8-8.1,3.7-7.7c-0.7,2.1-2.2,4.6-1.8,6.8l37.5,12.8c2.4,1,5,1.5,7.6,1.7c1,0,2-0.1,3-0.4v1.9v0.1
			c0.1,13.2-2,26.3-2.4,39.5c-0.1,2.4,0,5,1.5,6.9c1.7,2.1,4.7,2.5,7.3,2c0.6-0.1,1.2-0.2,1.9-0.4c0.9,3.3,1.5,6.7,1.9,10.1
			l2.5,17.8c0.3,1.8,0.5,3.7,0.4,5.5c-0.3,4.2-2.5,7.9-4.1,11.8s-2.5,8.5-0.5,12.1c0.7,1.1,1.6,2.1,2.2,3.2c0.7,1.8,1.1,3.7,1,5.7
			c0.2,5.4,0.3,10.8,0.4,16.2c-0.4-0.1-0.9,0-1.3,0.3c-2.1,1.6-1.8,9.3-2,11.7c-0.2,4,0,8.1-0.2,12.1c-0.3,5.5-1.2,10.9-2.7,16.1
			c-0.4,1.7-1.1,3.3-2.3,4.6c-1.2,1-2.6,1.7-4.1,2.1c-5,1.6-10.2,2.3-15.4,2.1c-2.1-0.1-4.3-0.3-6.3,0.5s-3.5,3-2.8,5
			c0.6,1.7,2.5,2.5,4.1,3.1c3.8,1.3,7.5,3,11,5c1.4,0.9,2.8,1.7,4.2,2.4c1.4,0.5,2.9,0.9,4.4,1.1l17.7,3c3.6,0.6,8,1,10.3-2
			c1.2-1.6,1.4-3.8,1.4-5.9c-0.1-4-0.9-8.1-0.4-12.1c0.4-2.4,1-4.7,1.9-6.9l5.3-15.5c1.8-5.3,3.6-10.6,4.3-16.1
			c0.2-2,0.2-4.3-1.3-5.5c-0.4-0.3-0.8-0.5-1.3-0.7c-0.1-4.8-0.7-9.6-0.4-14.5c0.1-1.2,0.2-2.4,0.3-3.6c0.9,0.9,1.8,1.9,2.5,2.9
			c1.7,2.7,2.3,6.2,5,8c2.2,1.5,5.5,1.4,7.1,3.6c0.5,0.8,0.9,1.8,1.1,2.7c0.9,2.4,2.3,4.5,4,6.4c0.6,2.2,1.4,4.3,2.5,6.3l4.4,9.3
			c1.5,3.3,3.2,6.6,5,9.8c1.4,2,2.5,4.2,3.3,6.5c1.4,4.9-0.9,10.4-4.5,14s-8.4,5.7-13.2,7.7c-0.5,0.2-1,0.4-1.3,0.8
			c-0.4,0.5-0.6,1.1-0.6,1.7c0,2.3,1.9,4.3,4.1,5c2.2,0.6,4.6,0.7,6.8,0.2c12.8-1.6,25.5-4.7,36.8-10.9c1.7-0.8,3.2-2,4.4-3.4
			C947.6,844.1,947.9,842.1,947.2,840.3z"/>
		<path class="st6" d="M893.1,616.1c2.1,3.3,4.1,6.6,6,10.1c1.3,2.3,2.4,4.7,3.2,7.2c1.2,4,1.1,8.3,2,12.4c1,4.8,3.3,9.4,3.3,14.3
			c-0.2,4.3-1.6,8.4-4.2,11.8c-2.6,3.4-5.5,6.4-8.8,9.1c-7.6-19.6-11.8-40.3-12.5-61.2c-0.1-2.9-0.1-5.9,0.9-8.6
			c0.7-1.7,3.8-6.3,5.8-4.5c0.7,0.7,0.9,3.7,1.4,4.7C891.1,612.9,892,614.5,893.1,616.1z"/>
		<path class="st2" d="M893.1,616.1c2.1,3.3,4.1,6.6,6,10.1c1.3,2.3,2.4,4.7,3.2,7.2c1.2,4,1.1,8.3,2,12.4c1,4.8,3.3,9.4,3.3,14.3
			c-0.2,4.3-1.6,8.4-4.2,11.8c-2.6,3.4-5.5,6.4-8.8,9.1c-7.6-19.6-11.8-40.3-12.5-61.2c-0.1-2.9-0.1-5.9,0.9-8.6
			c0.7-1.7,3.8-6.3,5.8-4.5c0.7,0.7,0.9,3.7,1.4,4.7C891.1,612.9,892,614.5,893.1,616.1z"/>
		<path class="st7" d="M785.8,627c-3.9-0.6-8.2-0.3-11.3,2.2c-1.8,1.6-3,3.8-3.2,6.2c-0.3,2.8,1.3,6.1,4.1,6.3c0.7,0,1.3,0,2-0.1
			c1.8,0,3.5,0.1,5.2,0.4c6.9,0.7,13.7-2.1,18.2-7.4c2.4-2.9-0.8-4.3-3.6-4.9C793.4,628.9,789.7,627.7,785.8,627z"/>
		<path class="st4" d="M852.7,717.3l2.5,17.6c0.3,1.8,0.4,3.7,0.4,5.5c-0.3,4.2-2.5,7.9-4.1,11.7s-2.6,8.4-0.5,12
			c0.7,1.1,1.6,2.1,2.2,3.2c0.7,1.8,1.1,3.7,1,5.6l0.7,25c7.7,0.5,15.5,0.5,23.2-0.1c0.3,0,0.6-0.1,0.8-0.3c0.2-0.3,0.3-0.6,0.3-0.9
			c0.3-5.8-0.7-11.7-0.3-17.6c0.1-2.1,0.4-4.3,0.5-6.4c0.1-8.7-4.2-17.2-2.9-25.9c0.4-2.2,0.9-4.3,1.6-6.4
			c4.1-14.9,3.2-30.8,2.3-46.2c0-0.3-0.1-0.5-0.2-0.7c-0.1-0.1-0.3-0.2-0.5-0.3c-8.9-2.7-18.5-0.8-25.8,4.9
			c-1.1,0.9-3.8,1.7-4.6,2.8c-1,1.5,0.3,2.9,0.9,4.5C851.4,709.2,852.2,713.3,852.7,717.3z"/>
		<path class="st2" d="M852.7,717.3l2.5,17.6c0.3,1.8,0.4,3.7,0.4,5.5c-0.3,4.2-2.5,7.9-4.1,11.7s-2.6,8.4-0.5,12
			c0.7,1.1,1.6,2.1,2.2,3.2c0.7,1.8,1.1,3.7,1,5.6l0.7,25c7.7,0.5,15.5,0.5,23.2-0.1c0.3,0,0.6-0.1,0.8-0.3c0.2-0.3,0.3-0.6,0.3-0.9
			c0.3-5.8-0.7-11.7-0.3-17.6c0.1-2.1,0.4-4.3,0.5-6.4c0.1-8.7-4.2-17.2-2.9-25.9c0.4-2.2,0.9-4.3,1.6-6.4
			c4.1-14.9,3.2-30.8,2.3-46.2c0-0.3-0.1-0.5-0.2-0.7c-0.1-0.1-0.3-0.2-0.5-0.3c-8.9-2.7-18.5-0.8-25.8,4.9
			c-1.1,0.9-3.8,1.7-4.6,2.8c-1,1.5,0.3,2.9,0.9,4.5C851.4,709.2,852.2,713.3,852.7,717.3z"/>
		<path class="st4" d="M899,712c-1.2,2.4-2.7,4.7-3.4,7.3c-1.8,6.9,2.9,14,2.3,21.1c-0.2,2.2-0.9,4.4-0.9,6.6s0.8,4.7,2.8,5.7
			c1.3,0.7,3,0.6,4.2,1.4c2.1,1.3,2.3,4.2,2.1,6.7s-0.6,5.2,1,7.1c1.2,1.5,3.2,2.1,4.5,3.5c0.8,1,1.4,2.1,1.9,3.3
			c1.9,3.3,5.4,5.4,8.3,7.9c2.9,2.6,5.3,6.5,4,10.1c-0.9,2.7-3.6,4.3-6.1,5.6c-4.6,2.3-9.5,4-14.6,5.1c-0.5,0.2-1.1,0.2-1.7,0.1
			c-0.6-0.2-1.1-0.5-1.5-1c-3-2.9-6-5.9-7.4-9.8c-0.2-0.9-0.6-1.8-1.1-2.7c-1.6-2.2-4.8-2.1-7.1-3.6c-2.6-1.8-3.2-5.3-4.9-7.9
			s-4.2-4.2-6-6.6c-3.1-3.9-3.8-9.1-6-13.5c-1-1.8-2-3.7-2.9-5.6c-0.7-2.3-1.2-4.8-1.4-7.2c-1.4-11.7-5-23.4-2.7-35
			c0.5-2.5,1.3-5,1.6-7.6c0.5-4.5-0.3-9.2,0.3-13.7c0-1.1,0.6-2.2,1.5-2.9c0.5-0.2,1.1-0.4,1.7-0.4c5.9-0.3,11.9-0.2,17.8,0.4
			c3,0.3,6.4,0.9,8.2,3.3c1.5,2.1,1.5,4.9,1.9,7.5c0.6,3.1,2.2,4.8,3.9,7.3C901.1,707,900.3,709.5,899,712z"/>
		<path class="st6" d="M876,793.3c1.6,0,3.3-0.1,4.5,0.9c1.5,1.2,1.5,3.5,1.3,5.5c-0.7,5.5-2.5,10.8-4.3,16l-5.3,15.6
			c-0.8,2.2-1.5,4.5-1.9,6.9c-0.5,4,0.3,8,0.4,12c0,2-0.1,4.2-1.4,5.8c-2.3,2.9-6.7,2.6-10.3,2l-17.7-3c-1.5-0.2-3-0.6-4.4-1.1
			c-1.5-0.7-2.9-1.5-4.2-2.4c-3.5-2-7.2-3.7-11-5c-1.7-0.6-3.5-1.4-4.1-3.1c-0.7-2,0.9-4.2,2.8-5c2-0.8,4.2-0.6,6.3-0.5
			c5.2,0.2,10.4-0.5,15.4-2.1c1.5-0.4,2.9-1.1,4.1-2.1c1.1-1.3,1.9-2.9,2.3-4.6c1.5-5.2,2.4-10.6,2.7-16c0.2-4,0.1-8,0.2-12
			c0.1-2.4-0.1-10,2-11.6c1.6-1.2,8.1,2.1,10.3,2.6C867.7,793.1,871.8,793.5,876,793.3z"/>
		<path class="st6" d="M934.3,804.4c1.7,5.7,2,11.8,3.1,17.7s3.1,11.9,7.5,16c0.9,0.7,1.6,1.5,2.2,2.4c0.8,1.7,0.5,3.8-0.8,5.2
			c-1.2,1.4-2.7,2.6-4.4,3.4c-11.3,6.2-24,9.3-36.8,10.8c-2.3,0.4-4.6,0.4-6.8-0.2c-2.2-0.7-4.1-2.7-4.1-5c0-0.6,0.2-1.2,0.6-1.7
			c0.4-0.4,0.8-0.6,1.3-0.8c4.7-1.9,9.5-4,13.2-7.6s5.9-9,4.5-13.9c-0.8-2.3-2-4.4-3.3-6.4c-1.8-3.1-3.5-6.4-5-9.7l-4.4-9.2
			c-1.3-2.7-2.6-5.5-2.8-8.5c5.5,0.3,11-0.6,16.2-2.6c2.4-1,4.7-2.3,6.7-4c1.7-1.4,3.2-4.1,5.5-2.2c1.8,1.5,3,5.6,4.1,7.8
			C932.2,798.6,933.4,801.5,934.3,804.4z"/>
		<path class="st7" d="M869.8,575.2c0.4,3.8,4.2,6.4,7.7,7.9l-22.5,7.2c1.5-2.8,0.3-6.2-1.2-9c-1.2-2.2-2.5-4.4-4-6.4
			c-0.2-0.3-0.5-0.7-0.3-1.1c0.1-0.2,0.4-0.4,0.6-0.5c4.6-2.1,9.4-4.2,14.4-4.9c1.5-0.2,4.2-0.8,5.3,0.7S869.6,573.5,869.8,575.2z"
			/>
		<path class="st2" d="M869.8,575.2c0.4,3.8,4.2,6.4,7.7,7.9l-22.5,7.2c1.5-2.8,0.3-6.2-1.2-9c-1.2-2.2-2.5-4.4-4-6.4
			c-0.2-0.3-0.5-0.7-0.3-1.1c0.1-0.2,0.4-0.4,0.6-0.5c4.6-2.1,9.4-4.2,14.4-4.9c1.5-0.2,4.2-0.8,5.3,0.7S869.6,573.5,869.8,575.2z"
			/>
		<circle class="st7" cx="856.8" cy="560.7" r="17.6"/>
		<path class="st6" d="M841.5,705.7c1.7,2,4.7,2.4,7.3,2c6.2-1,11.2-5.5,17.2-7.2c7.4-2,15.2,0.6,22.2,3.7c7,3.1,13.9,6.9,21.5,7.5
			c-6.9-15.4-3-33.8-9.5-49.3c-1.6-3.8-3.9-7.4-4.2-11.5c-0.5-5.1,2.1-10,2.5-15.1c0.4-4.5-1-9-2.3-13.3c-1.6-5.3-3.2-10.6-4.8-15.8
			c-1.8-5.9-3.7-11.9-7.1-17c-1.3-1.9-1.7-5.7-3.6-6.8c-4.3-2.5-10.8,0.7-15.4,0.8s-8.9,3.5-11.6,7.2c-2.9,4-4.5,8.6-6,13.3
			c-2.4,6.9-4.2,14-5.3,21.2c-0.2,1.1-0.3,2.2-0.4,3.2c-1,10.3,0.5,20.6,0.5,30.9v0.1c0.1,13.1-2,26.1-2.4,39.2
			C840,701.3,840,703.9,841.5,705.7z"/>
		<path class="st2" d="M842.4,659.6c3.5-0.9,6.6-3.1,9.2-5.5c2.3-2.1,4.4-4.4,6.1-7c2.2-3.5,4-7.2,5.3-11.2
			c3.7-10.4,6.1-21.3,7-32.3c0.3-3,0.3-6.2-1.5-8.6c-2.1-2.7-5.7-3.5-8.8-2.1c-2.4,1.2-3.9,3.5-5.3,5.7c-2.8,4.4-5.6,8.9-7.5,13.8
			c-0.8,2.2-1.4,4.4-2.2,6.6c-0.8,2.2-1.7,4.3-2.7,6.3c-0.2,1.1-0.3,2.2-0.4,3.2C840.9,639,842.3,649.3,842.4,659.6z"/>
		<path class="st6" d="M868.6,593.2c1.8,2.4,1.7,5.6,1.5,8.6c-0.9,11-3.3,21.9-7,32.3c-1.3,3.9-3.1,7.7-5.3,11.2
			c-1.8,2.6-3.8,4.9-6.1,6.9c-3.4,3.1-7.5,5.9-12.2,5.9c-2.6-0.1-5.1-0.7-7.6-1.7l-37.5-12.8c-0.4-2.1,1.1-4.6,1.8-6.7l2-5.9
			c0.6-1.6,1.2-3.4,2.7-4.3c1.5-0.9,3.8,0.3,5.1,1.3s2.2,2.3,3.4,3.3c2.3,1.9,5.4,2.6,8.3,3.3l8.4,1.9c3.1,0.8,6.2,1.2,9.4,1.2
			c2.3-7.2,6.8-13.5,9.3-20.6c0.8-2.2,1.4-4.4,2.2-6.6c1.8-4.9,4.6-9.4,7.5-13.8c1.4-2.2,2.9-4.6,5.3-5.7
			C862.9,589.7,866.5,590.6,868.6,593.2z"/>
		<path class="st6" d="M862.4,564.7c-0.1-1.2-0.5-2.3-1.1-3.3s-1.8-1.6-3-1.3c-1.8,0.5-2.3,3.3-4.2,3.4c-1.2,0.1-2.1-1.2-2.5-2.4
			c-0.4-1.2-0.6-2.5-1.5-3.4c-0.6-0.5-1.4-0.8-2.2-1c-4.3-1.4-8.7-3.9-10.1-8.1c-0.3-0.9-0.4-1.8-0.2-2.7c0.7-2.7,4-3.5,6.5-4.5
			s5-2.6,7.5-3.9s5.4-2.2,8.2-1.5c1.4,0.4,2.8,1,4.1,1.5c4.1,1.4,9.2,0.8,12.4,3.8c1.4,1.5,2.4,3.3,3,5.2c2.2,6.2,3.7,13.6,0,19.1
			c-2.3,3.4-4.5,7.2-8.9,7.6C865.2,573.7,863.2,569,862.4,564.7z"/>
	</g>
	<g id="_x23_chart_x28_have_x5B_paper_x2C_arrow_x5D__x29_">
		<path class="st3" d="M499,308.5c45.6-8,98.6-6.6,155.7,0c-11.6-65.7-12.1-130.1,0-192.9H499C487.5,179.4,487.5,244.7,499,308.5z"
			/>
		<rect x="545.5" y="104.6" class="st4" width="54.2" height="17.8"/>
		<path class="st2" d="M377.8,689.5c45.6-8,98.6-6.6,155.7,0c-11.6-65.7-12.1-130.1,0-192.9H377.8
			C366.3,560.3,366.3,625.7,377.8,689.5z"/>
		<path class="st3" d="M370.8,680.5c45.6-8,98.6-6.6,155.7,0c-11.6-65.7-12.1-130.1,0-192.9H370.8
			C359.3,551.3,359.3,616.7,370.8,680.5z"/>
		<rect x="417.3" y="476.5" class="st4" width="54.2" height="17.8"/>
		<path class="st8" d="M237,365.5c0,0,60.4-170.8,194.9-172.3"/>
		<path class="st4" d="M444,193.5c-5.7,2-12.8,5.4-17.3,9.1l3.7-9.4l-3.2-9.6C431.4,187.5,438.4,191.3,444,193.5z"/>
		<path class="st8" d="M242,430.5c0,0-5.5,137.4,73.1,156.1"/>
		<path class="st4" d="M327,588.5c-6,1.2-13.5,3.6-18.4,6.6l4.9-8.8l-1.9-9.9C315.4,580.9,321.7,585.5,327,588.5z"/>
		<path class="st8" d="M258,385.5c0,0,424.6-70.8,497.5,16.8"/>
		<path class="st4" d="M762,412.5c-4.9-3.6-11.8-7.5-17.4-9l9.8-2.4l6-8.1C759.7,398.8,760.6,406.6,762,412.5z"/>
		<path class="st3" d="M262.4,487.4c-45.6-8-98.6-6.6-155.7,0c11.6-65.7,12.1-130.1,0-192.9h155.7
			C273.9,358.2,273.9,423.6,262.4,487.4z"/>
		<rect x="161.8" y="283.5" class="st4" width="54.2" height="17.8"/>
		<rect x="396.5" y="538" class="st1" width="96" height="13"/>
		<rect x="396.5" y="565" class="st1" width="96" height="13"/>
		<rect x="524.5" y="148" class="st1" width="96" height="13"/>
		<rect x="524.5" y="175" class="st1" width="96" height="13"/>
		<rect x="140.5" y="330" class="st1" width="96" height="13"/>
	</g>
</g>
</svg>
