<?xml version="1.0" encoding="utf-8"?>
<!-- Generator: Adobe Illustrator 19.0.0, SVG Export Plug-In . SVG Version: 6.00 Build 0)  -->
<svg version="1.1" id="图层_1" xmlns="http://www.w3.org/2000/svg" xmlns:xlink="http://www.w3.org/1999/xlink" x="0px" y="0px"
	 viewBox="-917 917.7 1000 1000" style="enable-background:new -917 917.7 1000 1000;" xml:space="preserve">
<style type="text/css">
	.st0{fill:#F2F2F2;}
	.st1{fill:#2F2E41;}
	.st2{fill:#FFB9B9;}
	.st3{opacity:0.1;enable-background:new    ;}
	.st4{fill:#575A89;}
	.st5{opacity:0.2;enable-background:new    ;}
	.st6{fill:#6C63FF;}
	.st7{opacity:0.2;fill:none;stroke:#000000;stroke-width:2;stroke-miterlimit:10;enable-background:new    ;}
	.st8{fill:#9F616A;}
	.st9{fill:#D0CDE1;}
	.st10{fill:none;stroke:#3F3D56;stroke-width:2;stroke-miterlimit:10;}
	.st11{fill:#3F3D56;}
	.st12{fill:#57B894;}
</style>
<circle id="_x23_background" class="st0" cx="-439.5" cy="1378.2" r="389.9"/>
<g>
	<g id="_x23_woman_x28_sit_x2C_play_x5B_computer_x5D__x29_">
		<path class="st1" d="M-123.9,1434.6c0,0,2,6.8-9.5,12.9c-11.5,6.1-14.9,29.2-1.4,36c13.6,6.8,17.7,15.6,10.9,21.7
			s-19,22.4-2.7,26.5s18.3,12.2,13.6,15.6c-4.7,3.4,10.9-6.1,10.9-6.1s2.7,16.3,17,12.2s54.3-81.5,34-92.4
			C-71.6,1450.2-123.9,1434.6-123.9,1434.6z"/>
		<path class="st2" d="M-99.3,1500.2c0,0,7,24.7-5.3,26.4c-7.7,1.2-14.9,4.2-21.1,8.8l22.9,29.9h42.3l26.4-26.4
			c0,0-35.2-26.4-28.2-42.3C-55.2,1480.8-99.3,1500.2-99.3,1500.2z"/>
		<path class="st3" d="M-99.3,1500.2c0,0,7,24.7-5.3,26.4c-7.7,1.2-14.9,4.2-21.1,8.8l22.9,29.9h42.3l26.4-26.4
			c0,0-35.2-26.4-28.2-42.3C-55.2,1480.8-99.3,1500.2-99.3,1500.2z"/>
		<polygon class="st2" points="-88.7,1806.7 -48.2,1820.8 -20,1822.6 -21.8,1797.9 -79.9,1780.7 		"/>
		<path class="st4" d="M-36.7,1801.5c0,0,0,24.7,3.5,24.7s51.1-5.3,65.2,0c14.1,5.3,35.2-14.1,24.7-24.7
			c-10.5-10.6-27.8-26.4-38.6-22.9s-54.8,12.3-54.8,12.3L-36.7,1801.5L-36.7,1801.5z"/>
		<path class="st4" d="M-166.2,1778.6c0,0-21.1,42.3-7,45.8s29.9-1.8,31.7-3.5c1.8-1.8,26.4-8.8,29.9-5.3s3.5-14.1,3.5-14.1
			L-166.2,1778.6z"/>
		<path class="st1" d="M-148.6,1720.4c0,0-33.5,45.8-8.8,58.1c24.7,12.3,142.7,12.3,151.5,0c8.8-12.3,12.3-51.1,0-54.6
			C-18.3,1720.4-148.6,1720.4-148.6,1720.4z"/>
		<path class="st5" d="M-148.6,1720.4c0,0-33.5,45.8-8.8,58.1c24.7,12.3,142.7,12.3,151.5,0c8.8-12.3,12.3-51.1,0-54.6
			C-18.3,1720.4-148.6,1720.4-148.6,1720.4z"/>
		<circle class="st2" cx="-85.2" cy="1472" r="40.5"/>
		<path class="st6" d="M-148.6,1535.4l35.2-7c0,0,8.8,28.2,37,22.9c28.2-5.3,35.2-22.9,35.2-22.9s21.1,8.8,22.9,8.8
			s24.7,8.8,24.7,14.1c0,5.3-26.4,58.1-26.4,58.1l3.5,95.1l-130.4-3.5l8.9-93.3L-148.6,1535.4z"/>
		<path class="st2" d="M-168,1581.3c0,0-10.6,93.4-3.5,100.4s35.2,26.4,35.2,26.4V1687l-14.1-26.4l14.1-61.7L-168,1581.3z"/>
		<path class="st2" d="M14.3,1578.6c0,0-6.2,96-6.2,99.5S-7.8,1694-13,1694c-5.3,0-8.8-8.8-8.8-8.8l12.3-14.1l-8.8-72.2L14.3,1578.6
			z"/>
		<path class="st1" d="M-2.4,1713.4c0,0,79.3-44,81,0c1.8,44-40.5,61.7-40.5,61.7s-109.2,32.8-113.6,20.8s-13.2-31.3-6.2-33.1
			c7-1.8,15.9-5.3,19.4-1.8s47.6-26.4,47.6-26.4L-2.4,1713.4z"/>
		<path class="st7" d="M34.6,1708.1c0,0-15.9,7-21.1,12.3c-5.3,5.3-28.2,14.1-28.2,14.1"/>
		<path class="st6" d="M-138,1539l-10.6-3.5c0,0-38.8,40.5-26.4,51.1c12.3,10.6,19.4,14.1,22.9,17.6s21.1,5.3,21.1,5.3L-138,1539z"
			/>
		<path class="st6" d="M-9.4,1547.8l15.9,3.5c0,0,12.3,26.4,15.9,29.9c3.5,3.5-5.3,1.8-10.6,8.8s-10.6,19.4-21.1,19.4
			s-24.7-17.6-24.7-17.6L-9.4,1547.8z"/>
		<path class="st1" d="M-145.1,1729.2c0,0-66.9-47.6-89.8-12.3c-22.9,35.2,98.7,82.8,116.3,89.8s33.5,14.1,33.5,14.1
			s15.9-38.8,15.9-45.8s-12.3-7-15.9-7s-19.4-3.5-22.9-8.8C-111.6,1753.9-145.1,1729.2-145.1,1729.2z"/>
		<path class="st7" d="M-182.1,1716.9c0,0,17.6,14.1,33.5,17.6s21.1,12.3,21.1,12.3"/>
		<path class="st4" d="M-157.2,1650.7l1.4,74.6c0.1,5.1,4.3,9.2,9.4,9.2l138.8-1.6c4.9-0.1,8.9-3.9,9.2-8.8l4.2-73
			c0.3-5.1-3.6-9.6-8.8-9.9c-0.2,0-0.4,0-0.5,0h-144.4c-5.2,0-9.3,4.2-9.3,9.3C-157.2,1650.5-157.2,1650.6-157.2,1650.7z"/>
		<path class="st1" d="M-83,1421.1c0,0,2.3,7.5-10.5,14.3c-12.8,6.8-16.6,32.4-1.5,39.9s19.6,17.3,12,24.1
			c-7.6,6.8-21.1,24.8-3,29.3s20.3,13.5,15.1,17.3c-5.3,3.8,12-6.8,12-6.8s3,18.1,18.8,13.5c15.8-4.5,31.6-86.6,14-107.7
			C-42.6,1425.4-83,1421.1-83,1421.1z"/>
		<path class="st1" d="M-87.8,1413.4c0-11,33-3.1,47.1,12.3c9.8,10.7,24.7,26.7,12.2,38c-12.5,11.3,21.4,26.1,30.4,30.6
			s27,18.2,10.8,27.5c-16.2,9.2-15.9,18.5-9.8,20.7c6.1,2.2-13.4-3.3-13.4-3.3s2,18.2-14.5,18.1c-16.4-0.1-63.6-90.4-52.3-115.5
			C-66.8,1418.4-87.8,1413.4-87.8,1413.4z"/>
		<path class="st1" d="M-80.7,1411c-44.1-2.7-48.5,30.5-48.5,30.5c0.3,19.2,30.8,9.9,39.3,12.7c10.2-7.4,29.9-21.3,44-31.2
			C-56.1,1415.8-68.2,1411.6-80.7,1411z"/>
	</g>
	<g id="_x23_man_x28_stand_x2C_hold_x5B_phone_x5D__x29_">
		<path class="st1" d="M-759.8,1806.2l6.7-5c0,0,4.4,24.7-0.5,28.4c-4.9,3.7-23.4,9.9-23.4,17.2c0,7.3-41.9,17.2-43.1,6.2
			c-1.2-11.1,3.7-17.2,3.7-17.2s19.7-19.7,22.2-23.4c2.5-3.7,8.6-11.1,8.6-11.1L-759.8,1806.2z"/>
		<path class="st1" d="M-858.4,1499.5c0,0,0.2,1.1,0.5,3.1c0.3,1.8,0.7,4.2,1.2,7.3c5.2,31.6,20.3,124.5,19.2,127.6
			c-1.2,3.7-9.9,17.2,0,20.9c0.9,0.4,2,1.5,3.1,3.3c2.1,3.9,3.9,8,5.2,12.3c5.9,17,12.2,44.3,15.8,63.2c1.6,8.3,2.7,15,3,18.5
			c0.1,0.8,0.1,1.6,0,2.4c-1.2,4.9,7.4,22.2,11.1,27.1c3.7,4.9,9.9,9.9,8.6,14.8c-1.2,4.9,30.8,18.5,34.5,9.9s3.7-13.6,4.9-16
			c1.2-2.5,2.5-19.7-3.7-22.2c-6.2-2.5-2.5-45.6-8.6-54.2c-2.1-2.9-5.2-12.6-8.5-24.3c-1.3-4.6-2.6-9.5-3.9-14.4
			c-5.2-20-9.8-40.2-9.8-40.2l1.2-144.1l-67.8-8.6l-1.7,3.8l-3.5,7.6L-858.4,1499.5z"/>
		<path class="st1" d="M-862.1,1736c0,0-9.9-9.9-14.8,0c-4.9,9.9-9.9,48-18.5,56.7c-8.6,8.6-19.7,51.7-7.4,54.2s25.9-3.7,27.1-11.1
			s27.1-45.6,27.1-49.3c0-3.7-17.2-17.2-17.2-17.2L-862.1,1736z"/>
		<path class="st1" d="M-710.5,1431.8c0,0-16,144.1-19.7,157.7s-23.4,65.3-29.6,73.9s-45.6,78.8-50.5,82.5
			c-4.9,3.7-14.8,13.6-14.8,13.6s-18.5,18.4-20.9,22.1c-2.4,3.7-23.4-7.4-24.6-14.8c-1.2-7.4,1.2-19.7,2.5-24.6
			c1.2-4.9-2.5-12.3,1.2-16c3.7-3.7,22.2-22.2,22.2-30.8s32-59.1,44.3-70.2c12.3-11.1,9.9-29.6,9.9-29.6v-75.1l-67.8-20.9
			c0,0,3.7-59.1,12.3-59.1S-724.1,1420.7-710.5,1431.8z"/>
		<circle class="st8" cx="-810.3" cy="1185.4" r="40.7"/>
		<path class="st8" d="M-796.8,1217.4c0,0,4.9,18.5,11.1,23.4s-16,25.9-16,25.9l-41.9,2.5l-7.4-23.5c0,0,13.6-27.1,9.9-44.3
			C-844.8,1184.2-796.8,1217.4-796.8,1217.4z"/>
		<path class="st6" d="M-779.5,1238.4c0,0-11.1,1.2-13.6,4.9c-2.5,3.7-19.7,14.8-33.3,12.3c-13.6-2.5-22.2-6.2-24.6-4.9
			c-2.5,1.2-7.4,27.1-7.4,27.1l13.6,39.4l-2.5,108.4l-3.7,29.6c0,0-7.4-9.9,22.2-3.7c29.6,6.2,67.8-4.9,80.1-6.2
			c12.3-1.2,33.3-4.9,34.5-12.3c1.2-7.4-3.7-34.5-3.7-34.5l-19.7-82.5l-12.4-44.4L-779.5,1238.4z"/>
		<path class="st9" d="M-791.2,1232.8c0,0,10.4-5.5,14.1-0.6c3.7,4.9,50.5,12.3,50.5,16c0,3.7,9.9,103.5,7.4,112.1
			s4.9,18.5,4.9,18.5l8.6,37c0,0,23.4,70.2,13.6,72.7c-9.9,2.5-18.5,0-22.2,0s-2.5-46.8-12.3-59.1c-9.9-12.3-23.4-43.1-25.9-49.3
			c-2.5-6.2-33.3-91.2-32-101C-783.2,1269.1-791.2,1232.8-791.2,1232.8z"/>
		<path class="st9" d="M-842.3,1238.4c0,0-9.9,0-11.1,2.5c-1.2,2.5-13.6,18.5-18.5,22.2c-4.9,3.7-22.2,19.6-22.2,23.3
			c0,3.7,35.7,30.8,35.7,30.8s14.8,72.7,7.4,97.3s-18.5,83.8-13.6,87.5c4.9,3.7,16,4.9,16,0s7.4-57.9,13.6-69s24.6-81.3,17.2-101
			C-825.2,1312.3-842.3,1238.4-842.3,1238.4z"/>
		<path class="st8" d="M-679.7,1360.3c0,0,1.2,38.2-12.3,57.9c-13.6,19.7-22.2,41.9-22.2,41.9s-22.2-6.2-25.9-13.6
			c-3.7-7.4-27.1-1.2-27.1-3.7s28.3-14.8,30.8-17.2c2.5-2.5,11.1-2.5,16-7.4c4.9-4.9,6.2-16,6.2-16l4.9-32L-679.7,1360.3z"/>
		<path class="st1" d="M-782.3,1160.3c3.1-0.3,6.4-0.6,9.1-2.1c6.2-3.3,7.8-12.9,3.1-18.1c-1.3-1.3-2.8-2.5-4.3-3.5l-9.4-6.4
			c-4.1-2.8-8.4-5.7-13.2-7c-4.4-1.2-9-1.1-13.5-0.8c-8.8,0.5-17.6,1.7-25.9,4.7c-8.3,3-16,8.1-21,15.3c-7.9,11.5-8,26.9-3.7,40.2
			c4.3,13.3,12.7,24.8,20.8,36.1l4.2-20.7c0.4-1.8,0.9-3.9,2.4-5c3.8-2.7,8.5,2.9,13.1,2.8c3,0,5.5-2.5,6.7-5.3
			c1.2-2.8,1.2-5.9,1.5-8.9c0.6-6.3,2.8-15.2,8.8-18.7C-797.9,1159.9-788.6,1160.9-782.3,1160.3z"/>
		<path class="st3" d="M-784.6,1500.5c0,0-4.2,120.3-6.6,124c-2.4,3.7,0-124.4,0-124.4L-784.6,1500.5z"/>
		<path class="st9" d="M-736.4,1248.2h9.9c0,0,41.9,56.7,37,60.4c-4.9,3.7,0,13.6,0,13.6l9.9,18.5c0,0,12.3,11.1,8.6,13.6
			s-8.6,12.3-8.6,12.3s-24.6-3.7-32,11.1l-16-20.2L-736.4,1248.2z"/>
		
			<rect x="-755.1" y="1270.8" transform="matrix(0.9243 -0.3817 0.3817 0.9243 -553.8625 -182.4516)" class="st1" width="36.6" height="68.2"/>
		
			<ellipse transform="matrix(-0.9243 0.3817 -0.3817 -0.9243 -927.7327 2778.335)" class="st6" cx="-739.4" cy="1297.2" rx="7.3" ry="6.7"/>
		<path class="st8" d="M-761,1346.8c0,0-88.7,73.9-103.5,50.5s16-43.1,16-43.1s27.1,1.2,57.9-18.5l30.8-13.6
			c0,0,28.1-40.1,37.7-24.9C-712.5,1312.4-738.5,1339.1-761,1346.8z"/>
		<path class="st9" d="M-880.5,1281.5l-13.6,4.9v37l-4.9,7.3c0,0,1.2,14.8,4.9,18.5c3.7,3.7,11.1,2.5,8.6,11.1
			c-1.5,5.6-1.9,11.5-1.2,17.2c0,0,22.2,28.3,23.4,24.6c1.2-3.7,18.5-49.3,20.9-49.3c2.4,0-24.6-71.3-24.6-71.3H-880.5z"/>
		<path class="st1" d="M-718.5,1468.1c0,0,12.7-12.3,6.4-12.9c-6.3-0.6-28.5-12.9-32.2-6.8C-748,1454.5-718.5,1468.1-718.5,1468.1z"
			/>
	</g>
</g>
<g id="_x23_chart_x28_have_x5B_money_x2C_arrow_x5D__x29_">
	<path class="st10" d="M-93.3,1622.8c0,0-39.6-185.4-287.2-320"/>
	<polygon class="st11" points="-370.3,1298.8 -369.8,1300.9 -379.8,1303.3 -376.6,1313.1 -378.6,1313.8 -382.5,1301.8 	"/>
	<ellipse class="st12" cx="-476.3" cy="1223.7" rx="17.8" ry="9.4"/>
	<path class="st10" d="M-408.4,1255.1c-40.1-15.1-80.1-15.1-120.2,0V1206c39.2-11.8,81-11.8,120.2,0L-408.4,1255.1L-408.4,1255.1z"
		/>
	<path class="st10" d="M-425.1,1244.9c-28.9-10.9-57.8-10.9-86.8,0v-35.5c28.3-8.5,58.5-8.5,86.8,0L-425.1,1244.9L-425.1,1244.9z"/>
	<ellipse class="st10" cx="-470" cy="1219.5" rx="17.8" ry="9.4"/>
	
		<ellipse transform="matrix(-0.9798 0.2 -0.2 -0.9798 -664.322 2632.5737)" class="st12" cx="-465.1" cy="1282.7" rx="17.8" ry="9.4"/>
	<path class="st10" d="M-392.3,1299.9c-42.3-6.8-81.5,1.2-117.8,24l-9.8-48.1c36-19.4,77-27.8,117.8-24L-392.3,1299.9z"/>
	<path class="st10" d="M-410.7,1293.3c-30.5-4.9-58.9,0.9-85,17.3l-7.1-34.7c26-14,55.6-20.1,85-17.3L-410.7,1293.3z"/>
	
		<ellipse transform="matrix(-0.9798 0.2 -0.2 -0.9798 -654.7797 2620.9053)" class="st10" cx="-459.8" cy="1277.4" rx="17.8" ry="9.4"/>
	
		<ellipse transform="matrix(-6.941783e-02 0.9976 -0.9976 -6.941783e-02 836.6179 1901.9738)" class="st12" cx="-468.8" cy="1341.2" rx="9.4" ry="17.8"/>
	<path class="st10" d="M-403.2,1377.3c-38.9-17.9-78.9-20.7-119.9-8.3l3.4-49c39.9-9.1,81.6-6.2,119.9,8.3L-403.2,1377.3z"/>
	<path class="st10" d="M-419.2,1366c-28.1-12.9-56.9-14.9-86.6-6l2.5-35.4c28.8-6.6,58.9-4.5,86.6,6L-419.2,1366z"/>
	
		<ellipse transform="matrix(-6.941783e-02 0.9976 -0.9976 -6.941783e-02 840.0049 1891.4774)" class="st10" cx="-462.2" cy="1337.5" rx="9.4" ry="17.8"/>
	<path class="st10" d="M-546.4,1256.2c0,0-76.8-10.5-131.7,21.6"/>
	<polygon class="st11" points="-676.3,1267 -674.3,1267.7 -677.4,1277.5 -667.4,1279.9 -667.8,1281.9 -680.1,1279 	"/>
</g>
</svg>
