<?xml version="1.0" encoding="utf-8"?>
<!-- Generator: Adobe Illustrator 19.0.0, SVG Export Plug-In . SVG Version: 6.00 Build 0)  -->
<svg version="1.1" xmlns="http://www.w3.org/2000/svg" xmlns:xlink="http://www.w3.org/1999/xlink" x="0px" y="0px"
	 viewBox="0 0 1000 1000" style="enable-background:new 0 0 1000 1000;" xml:space="preserve">
<style type="text/css">
	.st0{opacity:0.1;fill:#6C63FF;enable-background:new    ;}
	.st1{fill:#65617D;}
	.st2{opacity:0.1;enable-background:new    ;}
	.st3{fill:#333F4F;}
	.st4{opacity:0.1;fill:#333F4F;enable-background:new    ;}
	.st5{fill:#3F3D56;}
	.st6{fill:#FBBEBE;}
	.st7{fill:#6C63FF;}
	.st8{fill:#512E4E;}
	.st9{opacity:0.1;}
	.st10{fill:#E1DEE5;}
	.st11{fill:#D9D6DF;}
	.st12{opacity:0.1;fill:#FFFFFF;enable-background:new    ;}
	.st13{fill:#2D394A;stroke:#40868E;stroke-miterlimit:10;}
	.st14{opacity:0.8;}
	.st15{fill:#FFFFFF;}
	.st16{fill:#D3DAE1;}
</style>
<g id="_x23_background">
	<path class="st0" d="M285.3,103c29.7-26.5,76.5-32,118.9-29.8c133.5,6.6,253.9,71.1,358.1,143.9c37.7,26.4,74.8,54.8,99.4,91.1
		c49.9,73.9,35,176.4-34.3,237.3c-23.6,20.8-52.1,36.6-81.5,50.7c-52.2,25-108.5,45.2-167.8,50.9c-42.2,4.1-85,0.8-126.9-4.9
		c-117.3-15.9-232.4-51.1-328.9-111.3C80,504.6,40.1,471.7,22.6,429s-6.2-96.8,37-122.2c17.9-10.5,39.3-15.2,60.2-19.6
		c30.7-6.5,62.1-12.9,89.9-26.3c28.7-13.7,62.7-40.2,57-70.5C260.6,157.9,255.7,129.4,285.3,103z"/>
</g>
<g id="_x23_man_x28_sit_x5F_on_x5B_chair_x5D__x2C_have_x5B_desk_x5D__x29_">
	<g>
		<g>
			<g>
				<path class="st1" d="M407.6,357.2v119.7c0,29.6,23.9,53.5,53.5,53.5c0,0,0,0,0.1,0h71.5c26.6,0,48.2-21.5,48.2-48v-0.1V357.2
					c0-47.8-38.8-86.6-86.6-86.6C446.3,270.5,407.6,309.3,407.6,357.2z"/>
				<path class="st2" d="M407.6,357.2v119.7c0,29.6,23.9,53.5,53.5,53.5c0,0,0,0,0.1,0h71.5c26.6,0,48.2-21.5,48.2-48v-0.1V357.2
					c0-47.8-38.8-86.6-86.6-86.6C446.3,270.5,407.6,309.3,407.6,357.2z"/>
				<path class="st1" d="M410.1,358.4v116.2c0,28.7,23.2,52,51.9,52c0,0,0,0,0.1,0h69.3c25.8,0,46.7-20.9,46.7-46.6c0,0,0,0,0-0.1
					V358.4c0-46.4-37.7-84-84-84C447.8,274.4,410.1,312,410.1,358.4L410.1,358.4z"/>
				<path class="st2" d="M431,375.6v96.6c0,8.8,2.3,17.3,7,24.7c7,11.2,18.8,18.5,32.1,18.5h52.1c12.6,0,23.7-7.4,29.9-18.5
					c3.5-6.2,5.2-13.2,5.2-20.4v-101c0-38.6-28.3-69.8-63.1-69.8c-17.4,0-33.2,7.8-44.7,20.5C437.4,339.8,430.8,357.4,431,375.6z"/>
				<circle class="st3" cx="605.7" cy="707.3" r="9.6"/>
				<circle class="st3" cx="588.6" cy="744.8" r="9.6"/>
				<circle class="st3" cx="417.9" cy="751.5" r="9.6"/>
				<circle class="st3" cx="379.9" cy="702.8" r="9.6"/>
				<rect x="487.7" y="538.6" class="st3" width="12" height="74.8"/>
				<rect x="487.7" y="601.3" class="st4" width="12" height="12.1"/>
				<rect x="485.4" y="604.1" class="st3" width="16.6" height="83"/>
				<path class="st3" d="M381.9,686.6l108.6-4.5v17.4h-126C367,692,374,686.9,381.9,686.6z"/>
				<path class="st3" d="M599.3,686.6l-108.6-4.5v17.4h126C614.1,692,607.2,686.9,599.3,686.6z"/>
				<path class="st3" d="M502,683.8l86.7,42.8c7.5,3.7,12.2,11.3,12.2,19.6v1.3l-101.3-44.2l-14.3-1l-84.2,53.7l0,0
					c-1.1-8.1,2.4-16.1,9.1-20.9l75.1-53.2L502,683.8z"/>
				<path class="st4" d="M487.7,538.6v8c2,0.1,4.2,0.1,6.4,0.1c1.8,0,3.8,0,5.6-0.1v-8.1h-12V538.6z"/>
				<ellipse class="st3" cx="494.1" cy="530.9" rx="44.2" ry="12.9"/>
				<path class="st3" d="M450.3,530.9c0.1,1.4,0.8,2.9,1.8,3.8c0.4,0.4,0.9,0.8,1.4,1.1c6.6,4.7,22.4,8,40.9,8
					c18.5,0,34.4-3.4,40.9-8.1c0.3-0.2,0.6-0.5,0.9-0.7c1.3-0.9,2.1-2.4,2.2-4.1c0-7.1-19.7-12.9-44.2-12.9S450.3,523.8,450.3,530.9
					z"/>
				<path class="st4" d="M450.3,530.9c0.1,1.4,0.8,2.9,1.8,3.8c0.4,0.4,0.9,0.8,1.4,1.1c6.6,4.7,22.4,8,40.9,8
					c18.5,0,34.4-3.4,40.9-8.1c0.3-0.2,0.6-0.5,0.9-0.7c1.3-0.9,2.1-2.4,2.2-4.1c0-7.1-19.7-12.9-44.2-12.9S450.3,523.8,450.3,530.9
					z"/>
				<path class="st4" d="M450,530.9c0.1,1.4,0.8,2.9,1.8,3.8c5.6-1.4,9.5-2.5,9.5-2.5s38.9,2.1,74.6,3c1.3-0.9,2.1-2.4,2.2-4.1
					c0-7.1-19.7-12.9-44.2-12.9C469.6,518.1,450,523.8,450,530.9z"/>
				<path class="st4" d="M419.5,504.3c9.7,13.9,25.7,22.3,42.7,22.3h69.3c16.3,0,31.4-8.4,39.8-22.3H419.5z"/>
				<path class="st4" d="M450.3,530.9c0.1,1.4,0.8,2.9,1.8,3.8c0.4,0.4,0.9,0.8,1.4,1.1c27.3,1.6,54.6,1.6,81.8-0.1
					c0.3-0.2,0.6-0.5,0.9-0.7c1.3-0.9,2.1-2.4,2.2-4.1c0-7.1-19.7-12.9-44.2-12.9S450.3,523.8,450.3,530.9z"/>
				<path class="st3" d="M410.6,529.8c55.7,7,112.1,7,167.8,0c6.5,0,11.8-5.2,11.8-11.7c0,0,0,0,0-0.1l0,0c0-6.5-5.3-11.7-11.7-11.7
					l0,0H410.6c-6.5,0-11.7,5.3-11.7,11.7l0,0C398.9,524.5,404.2,529.8,410.6,529.8z"/>
				<path class="st1" d="M565.2,657.7c0,0,11.6,11.8,19.4,13c7.8,1.2,14.4,26.6,3.4,28.5c-11,1.9-32.2-5.9-35.3-9.4
					c-3.2-3.5-14.4-23.4-14.4-23.4L565.2,657.7z"/>
				<path class="st5" d="M501.4,531.1c0,0,28.2,53.9,28.8,61.3c0.6,7.3,24.5,38.5,24.5,38.5l-29.9,37.8c0,0-4-9.6-10.7-13
					c-6.7-3.5-5.4-11-5.4-11s-7,0-12.1-8.4s-11.3-16.9-11.3-20.6c0-3.7-37.3-42-37.3-42l2.9-40.9l7.6-13L501.4,531.1z"/>
				<path class="st2" d="M574.8,534.3l0.2,0.2c3.5,3.1,41.8,37.1,41.8,37.9c0,0.8,13.8,23.7-3.4,43.5
					c-17.2,19.7-56.7,52.2-56.7,52.2s-17.2,12.4-19.4,15c-2.2,2.5-36.4,0-16.1-23.1c20.4-23.1,39.5-49.1,39.5-49.1
					s-33.9-8.1-36.1-13.8s44.6-76.2,44.6-76.2L574.8,534.3z"/>
				<path class="st5" d="M575.9,534.3l0.2,0.2c3.5,3.1,41.8,37.1,41.8,37.9c0,0.8,13.8,23.7-3.4,43.5
					c-17.2,19.7-56.7,52.2-56.7,52.2s-17.2,12.4-19.4,15c-2.2,2.5-36.4,0-16.1-23.1c20.4-23.1,39.5-49.1,39.5-49.1
					s-33.9-8.1-36.1-13.8s-46.8-74.8-46.8-74.8l91.4-1.4L575.9,534.3z"/>
				<path class="st6" d="M478.3,382.5l3.4,30.7c0,0,34.7,13.8,35.5,13.5c0.8-0.3,23.1-20.4,19.4-33.6c-1.8-6.6-2.6-15.9-3.1-23.4
					c-0.4-7.5-0.3-13.2-0.3-13.2s-50.5-18.1-46-5.6c1.6,4.5,0.9,9.9-0.7,15C484.6,371.7,481.9,377.3,478.3,382.5z"/>
				<path class="st2" d="M486.7,365.8c0.3,0.4,0.6,0.7,0.9,1c12.2,12.9,32.4,14.3,46.1,3c-0.4-7.4-0.3-13.2-0.3-13.2
					s-50.5-18.1-46-5.6C489,355.3,488.3,360.7,486.7,365.8z"/>
				<path class="st6" d="M478.3,342.4c0,18.7,15.2,33.9,33.9,33.8c18.7,0,33.9-15.2,33.8-33.9c0-18.7-15.2-33.8-33.8-33.8
					c-18.6-0.1-33.8,14.9-33.9,33.4C478.3,342.2,478.3,342.3,478.3,342.4z"/>
				<path class="st2" d="M520.1,414.4c0,0,13.2-29.4,17.8-29.4S549.5,537,549.5,537l-69.1,1.1l-2.9-79.8l14.1-70.7
					C491.5,387.6,504.3,415.5,520.1,414.4z"/>
				<path class="st2" d="M520.1,416.6c0,0,13.2-29.4,17.8-29.4s11.6,152.1,11.6,152.1l-78.5,1.2l6.5-79.9l14.1-70.7
					C491.6,389.7,504.3,417.7,520.1,416.6z"/>
				<path class="st1" d="M520.1,415.5c0,0,13.2-29.4,17.8-29.4s11.6,152.1,11.6,152.1l-78.5,1.2l6.5-79.9l14.1-70.7
					C491.6,388.7,504.3,416.6,520.1,415.5z"/>
				<path class="st2" d="M533,376.9c0,0,2.3-3.5,5.8-2.3c3.4,1.1,5.9-1.9,9.4,1.1c3.5,3.1,16.9,7.3,19.4,5.9
					c2.5-1.4,11.6,4.8,13.5,8.4c1.9,3.7,8.4,13.5,8.4,13.5s5.6,6.7,4.8,10.5s1.9,7.9,5.4,9.6c3.5,1.6,10.2,18.6,10.2,18.6
					s-1.8,22.7,5.8,26.6c7.6,3.9,1.9,21.2,1.9,21.2l-36-8.6l-10.2-23.1c0,0,4,67.7,8.8,73.9c4.8,6.2,5.4,10.2,5.4,10.2
					s-18.6,4-22.6,7.3c-4,3.4-14.4-0.8-14.4-0.8l-10.2-90c0,0-3.7-16.9-3.7-25.7S533,376.9,533,376.9z"/>
				<path class="st7" d="M534.1,376.9c0,0,2.3-3.5,5.8-2.3c3.5,1.1,5.9-1.9,9.4,1.1c3.5,3.1,16.9,7.3,19.4,5.9
					c2.5-1.4,11.6,4.8,13.5,8.4c1.9,3.7,8.4,13.5,8.4,13.5s5.6,6.7,4.8,10.5s1.9,7.9,5.4,9.6c3.5,1.6,10.2,18.6,10.2,18.6
					s-1.8,22.6,5.8,26.6c1.9,1,3,3.2,3.6,5.9c2.2,11.1-6.9,21.2-18.1,20.9l-19.3-8l-10.2-29.2c0,0,4,67.8,8.8,73.9
					c4.8,6.1,5.4,10.2,5.4,10.2s-18.6,4-22.6,7.3c-4,3.4-14.4-0.8-14.4-0.8l-10.2-90c0,0-3.7-16.9-3.7-25.7S534.1,376.9,534.1,376.9
					z"/>
				<path class="st2" d="M596.3,425.9c0,0-3.4,9.3-12.7,8.4C574.2,433.5,596.3,425.9,596.3,425.9z"/>
				<path class="st2" d="M587.2,411.8c0,0-6.2,1.1-8.4,6.5C576.5,423.7,587.2,411.8,587.2,411.8z"/>
				<path class="st2" d="M569.8,402.2c0,1.1-4,20.9,0,29.1c4,8.2,3.4,17.8,3.4,17.8L569.8,402.2z"/>
				<path class="st2" d="M486.5,370.1c0,0-2.2-2.5-4.5-2.3c-2.2,0.2-3.7,1.7-6.5,2.9s-9.6,1.4-9.6,2.2c0,0.8-5.9,4.3-9.9,5.1
					c-4,0.8-16.4,9.3-19.4,25.7c-3.1,16.4-8.4,21.2-8.4,21.2l29.9,14.7c0,0-23.1,98.2-26,105.3c-2.9,7-3.1,48.9-3.1,48.9
					s18.3,8.1,23.1,10.7c4.8,2.5,2.9-24.2,12.7-39.8s21.2-38.1,21.2-38.1l17.2-48.3c0,0,11-64.3,1.7-76.2
					C495.7,389.9,485.6,374.4,486.5,370.1z"/>
				<path class="st7" d="M485.3,370.1c0,0-2.2-2.5-4.5-2.3c-2.2,0.2-3.7,1.7-6.5,2.9c-2.9,1.1-9.6,1.4-9.6,2.2
					c0,0.8-5.9,4.3-9.9,5.1c-4,0.8-16.4,9.3-19.4,25.7c-3.1,16.4-8.4,21.2-8.4,21.2l29.8,14.7c0,0-23.1,98.2-26,105.3
					c-2.9,7-3.1,48.9-3.1,48.9s18.3,8.1,23.1,10.7c4.8,2.5,2.9-24.3,12.7-39.9s21.2-38.1,21.2-38.1L502,478c0,0,11-64.3,1.7-76.2
					C494.5,389.8,484.5,374.4,485.3,370.1z"/>
				<path class="st2" d="M424.2,493.7c0.8,0.1,1.9,0.3,3.2,0.4c9.1,0.8,26.8,1,26.8,1s13.2-26.3,24.5-25.4c0,0-10.5-11.8-14.7-10.4
					c-0.7,0.2-1.1-0.3-1.3-1.3c-1.1-5.1,2.7-22.4,2.7-22.4l5.4-23.4l-31,7.6c-2.9,0.6-11.6,5.1-11.6,5.1s-0.3,12.1-2.5,15
					s-4.8,16.4-4.5,19.7c0.3,3.4-3.1,19.2,0.3,23.4C424.8,487.2,417.1,492.6,424.2,493.7z"/>
				<path class="st1" d="M540.1,678.5c0,0,1.7,9.4-0.3,15.3s-1.7,18.9-0.3,23.4c1.4,4.5,6.2,10.7-6.7,13.5
					c-13,2.9-21.7,0.3-22.3-1.9c-0.6-2.2-3.4-11.3-1.1-16.4s3.1-18.3-1.1-26s-1.4-19.4,2.5-20.9c4-1.4,10.7-4.5,10.7-4.5
					s-7.3,13.2-0.6,16.1S540.1,678.5,540.1,678.5z"/>
				<path class="st2" d="M478.3,342.4c0,8.7,3.3,17,9.3,23.2c0-0.1,0.1-0.1,0.1-0.2c1-2.1,1.9-4.4,1.8-6.7c-0.1-2.9-1.7-5.4-2.2-8.2
					c-0.7-3.6,0.5-7.1,1.6-10.6c0.8-2.5,2.4-5.6,5.1-5.2c0.5,0.1,1,0.2,1.5,0.2c1.4-0.2,1.7-2,1.8-3.5c0.9-6.8,6-12.2,12.7-13.4
					c0.7-0.2,1.5-0.1,2.2,0.1c1,0.4,1.5,1.5,2.4,2.1c2.9,2,6.5-1.8,10-1.5c3,0.2,4.8,3.3,6,6c1.2,2.7,2.7,5.8,5.6,6.4
					c0.5,0.1,0.9,0.1,1.3-0.1c0.9-0.6,0.3-2-0.2-3.1c-1.2-2.6-0.4-4.8,1-6.7c-11.7-14.7-33-17-47.5-5.3
					C483,322.4,478.3,332.2,478.3,342.4L478.3,342.4z"/>
				<path class="st8" d="M537.6,326.9c0.5,1,1.1,2.4,0.2,3.1c-0.4,0.2-0.9,0.3-1.3,0.1c-2.9-0.6-4.4-3.7-5.6-6.4
					c-1.2-2.7-3.1-5.7-6-6c-3.5-0.3-7.1,3.5-10,1.5c-0.9-0.6-1.4-1.6-2.3-2.1c-0.7-0.3-1.5-0.3-2.2-0.1c-6.7,1.2-11.9,6.6-12.7,13.3
					c-0.1,1.4-0.4,3.3-1.8,3.5c-0.5,0-1-0.1-1.5-0.2c-2.6-0.3-4.3,2.7-5.1,5.2c-1.1,3.5-2.3,7-1.6,10.6c0.5,2.9,2.1,5.4,2.2,8.2
					c0.1,2.3-0.9,4.6-1.8,6.7c-0.9,2.1-2.5,4.7-4.9,4.4c-1.9-0.2-3-2.2-3.9-4s-2.5-3.6-4.4-3c-0.8,0.2-1.7,0.9-2.4,0.5
					c-0.4-0.3-0.6-0.7-0.7-1.2c-0.9-4,0.4-8.3-1.5-11.9c-1.5-2.7-4.5-4.2-6.9-6.2c-8.6-6.8-9.9-19.2-3.1-27.8
					c0.1-0.2,0.3-0.3,0.4-0.5c2.6-3.1,6.3-5.7,6.6-9.8c0.2-3.1-1.9-5.9-1.9-9s1.8-5.6,4.1-7.6c6.4-5.8,15.2-8.1,23.6-6.2
					c2.2,0.5,4.4,1.3,6.6,1.1c2.5-0.3,4.8-2,7.1-3.3c8-3.8,17.6-1.2,22.6,6.1c2.6,4.2,3.8,9.6,7.7,12.5c2.6,1.9,6.4,2.6,7.8,5.5
					c0.8,1.7,0.6,3.9,0.3,5.7c-0.4,3.2-1.9,6.1-4.3,8.2C538.1,320.6,535.9,323.3,537.6,326.9z"/>
				<g class="st9">
					<path d="M465.6,299.4c-0.3-0.8-0.5-1.5-0.6-2.3C465.2,297.9,465.4,298.6,465.6,299.4z"/>
					<path d="M537.1,324.5c-0.1-0.5-0.3-1-0.5-1.5c-1.6-3.7,0.5-6.3,2.9-8.8c2.3-2.1,3.9-5.1,4.3-8.2c0.1-0.8,0.2-1.7,0.2-2.6
						c0.2,0.3,0.4,0.5,0.5,0.8c0.8,1.7,0.6,3.9,0.3,5.7c-0.4,3.2-1.9,6.1-4.3,8.2C538.6,320,536.9,322,537.1,324.5z"/>
					<path d="M473.3,357.9c1.8-0.5,3.5,1.3,4.4,3s1.9,3.8,3.9,4c2.3,0.3,3.9-2.2,4.9-4.4c1-2.1,1.9-4.4,1.8-6.7c0-0.3,0-0.6-0.1-0.8
						c0.6,1.5,1.1,3.2,1.2,4.8c0.1,2.3-0.9,4.6-1.8,6.7c-0.9,2.1-2.5,4.7-4.9,4.4c-1.9-0.2-3-2.2-3.9-4s-2.5-3.6-4.4-3
						c-0.8,0.2-1.7,0.9-2.4,0.5c-0.4-0.3-0.6-0.7-0.7-1.2c-0.2-0.9-0.3-1.8-0.3-2.6C471.7,358.7,472.5,358.1,473.3,357.9z"/>
					<path d="M461.7,339c2.4,1.9,5.4,3.5,6.9,6.2c0.6,1.2,0.9,2.4,1,3.9c-1.5-2.6-4.4-4.1-6.8-6c-3.8-3.1-6.3-7.3-7.1-12
						C457,334.1,459.1,336.9,461.7,339z"/>
					<path d="M487.2,349c-0.4-1.1-0.8-2.3-1-3.5c-0.7-3.6,0.5-7.1,1.6-10.6c0.8-2.5,2.4-5.5,5.1-5.2c0.5,0.1,1,0.2,1.5,0.2
						c1.4-0.2,1.7-2,1.8-3.5c0.9-6.7,6-12.2,12.7-13.3c0.7-0.2,1.5-0.1,2.2,0.1c1,0.4,1.5,1.5,2.3,2.1c2.9,2,6.5-1.8,10-1.5
						c3,0.2,4.8,3.3,6,6c1.2,2.7,2.7,5.8,5.6,6.4c0.4,0.1,0.9,0.1,1.3-0.1c0.3-0.2,0.4-0.5,0.4-0.8c0.1,0.6,0.3,1.2,0.5,1.7
						c0.5,1,1.1,2.4,0.2,3.1c-0.4,0.2-0.9,0.3-1.3,0.1c-2.9-0.6-4.4-3.7-5.6-6.4c-1.2-2.7-3.1-5.7-6-6c-3.5-0.3-7.1,3.5-10,1.5
						c-0.9-0.6-1.4-1.6-2.3-2.1c-0.7-0.3-1.5-0.3-2.2-0.1c-6.7,1.2-11.9,6.6-12.7,13.3c-0.1,1.4-0.4,3.3-1.8,3.5
						c-0.5,0-1-0.1-1.5-0.2c-2.6-0.3-4.3,2.7-5.1,5.2C487.9,342.2,486.8,345.6,487.2,349z"/>
				</g>
				<path class="st2" d="M427.3,494c9.1,0.8,26.8,1,26.8,1s13.2-26.3,24.5-25.4c0,0-10.5-11.8-14.7-10.4c-0.7,0.2-1.1-0.3-1.3-1.3
					c-11.1,3.4-32.2,11.6-34.2,26.2C427.8,488,427.4,491.2,427.3,494z"/>
				<path class="st7" d="M426.1,494c9.1,0.8,26.8,1,26.8,1s13.2-26.3,24.5-25.4c0,0-10.4-11.8-14.7-10.4c-0.7,0.2-1.1-0.3-1.3-1.3
					c-11.1,3.4-32.2,11.6-34.2,26.2C426.7,488,426.3,491.2,426.1,494z"/>
				<path class="st2" d="M505.4,569.6c0,0-25.4-6.2-29.3-2.9C472.2,570.1,505.4,569.6,505.4,569.6z"/>
				<path class="st2" d="M578.2,593.8c0,0-10.7,6.2-11.8,11.3S578.2,593.8,578.2,593.8z"/>
				<path class="st2" d="M535.3,708.3c0,0-14.7-2.2-18.4,0.2S535.3,708.3,535.3,708.3z"/>
				<path class="st10" d="M388.7,905.2c0,0,56.9-3.1,70.7-11.2c13.8-8.1,33.5-8.1,33.6-8.1l226.5-49.4l94.2-22.4l16.8-2.2
					l-55.5-63.5l-1.7-0.7l-81.7-35.4c0,0-36.6,2-43.9,26c-0.5,1.7-0.8,3.4-1,5.2c-0.7,7.4,1.3,14.9,5.8,20.9c2.9,4,6.4,9.6,7.5,14.5
					c0.6,2.7,0.5,5.4-1,7.3c-3.1,3.1-6.4,5.7-10.1,8c-20,13.2-70.3,35-158.4,1.6c0,0-37.7-37.2-66.2-21.4
					C395.9,790.1,388.7,905.2,388.7,905.2z"/>
				<path class="st2" d="M659.9,778.8c0.6,2.7,0.5,5.4-1,7.3c-3.1,3.1-6.4,5.7-10.1,8L820.3,807l-46.9-59.3l-81.7-35.4
					c0,0-36.6,2-43.9,26c-0.5,1.7-0.8,3.4-1,5.2c-0.7,7.4,1.3,14.9,5.8,20.9C655.2,768.3,658.8,773.9,659.9,778.8z"/>
				<polygon class="st1" points="827.5,545.4 687,548.4 687,716.6 820.4,807 852.4,777.5 845.8,679.8 852.4,588.6 				"/>
				<path class="st11" d="M907.4,517.9l-164-50.5c-3-0.9-6.1-1.2-9.2-1L342.4,495c-33.5,2.3-65.8,13.6-93.3,32.9
					c-25.3,17.9-50.5,45.3-62.1,86.9c-8.3,30.6-7.7,63.1,1.7,93.5l34.6,112c0,0-26-243.3,233.1-255.5L907.4,517.9z"/>
				<path class="st12" d="M652.4,764.4c2.9,4,6.4,9.6,7.5,14.5c4.5-5.1,5.4-11-1-15.6c-8-5.8-10.7-16-11.3-24.9
					c-0.5,1.7-0.8,3.4-1,5.2C645.9,750.8,647.9,758.3,652.4,764.4z"/>
				<path class="st1" d="M241.1,791.7l19.3,65.7l43.8,42.8l55,11.2l85.5-15.3V592.2c0,0-14.8-9.7-16.3-9.7c-1.5,0-42.8,6.6-42.8,6.6
					L292.3,656l-3.9,2.7l-41.7,62.1L241.1,791.7z"/>
				<polygon class="st1" points="444.7,579.5 444.7,896.1 436.5,897.6 436.5,579.5 				"/>
				<polygon class="st2" points="827.5,545.4 687,548.4 687,716.6 820.4,807 852.4,777.5 845.8,679.8 852.4,588.6 				"/>
				<polygon class="st2" points="444.7,579.5 444.7,896.1 436.5,897.6 436.5,579.5 				"/>
				<path class="st2" d="M290.5,677.2c61.1-50.2,129-57.5,154.2-58.5v-26.6c0,0-14.8-9.7-16.3-9.7c-1.5,0-42.8,6.6-42.8,6.6
					l-93.3,67L290.5,677.2z"/>
				<path class="st1" d="M969.5,650.2c0,0-6.3,16.7-13,36c-6,17.2-12.3,36.6-15,48.5c-1,4.5-3.6,9.2-7.2,13.7
					c-16.5,20.9-54.5,41.2-61,48.4c-7.9,8.8-52.9,15.1-52.9,15.1V541.8l30-9.7h38.2l49.4,22.4l25.4,37.7L969.5,650.2z"/>
				<path class="st6" d="M445.6,492.2c1.9,2.4,62,3,65,2.2l5.6-1.2c0,0,28.9,15.6,48.9-9.9c0.8-1.1,1.7-2.2,2.5-3.5
					c19.9-30.3-46.4-8.1-46.4-8.1s-25.4,0.1-31.9,0.1h-0.7c-6.7-0.3-20.2-4.4-20.2-4.4S443.7,489.8,445.6,492.2z"/>
				<path class="st2" d="M533.2,483.1c0,0,25.3,0.1,31.9,0.2h0.2c0.8-1.1,1.7-2.2,2.5-3.5c19.9-30.3-46.4-8.1-46.4-8.1
					s-25.4,0.1-31.9,0.1h-0.7c-0.6,0.8-1.2,1.7-1.9,2.6C466.6,504.6,533.2,483.1,533.2,483.1z"/>
				<path class="st6" d="M585.9,485.8c0,0-14.4-4.6-20.9-4.6c-6.5,0-31.9-0.2-31.9-0.2s-66.6,21.4-46.3-8.7s51.5-12.8,51.5-12.8
					l5.6-1.2c3.2-0.7,63.1,0.5,65,3S585.9,485.8,585.9,485.8z"/>
				<path class="st7" d="M615.6,468.8c0,0-0.4,19.5-13.9,20.7c-28.5,2.3-21.3-8.7-21.3-8.7l2.4-21.9l13.4-12.1c0,0,5.9,2.7,6.6,2.2
					C603.6,448.6,615.6,468.8,615.6,468.8z"/>
				<path class="st7" d="M423,493.7c0.8,0.1,1.9,0.3,3.2,0.4c9.1,0.8,26.8,1,26.8,1s13.2-26.3,24.5-25.4c0,0-10.4-11.8-14.7-10.4
					c-0.7,0.2-1.1-0.3-1.3-1.3c-1.1-5.1,2.7-22.4,2.7-22.4l5.4-23.4l-31,7.6c-2.9,0.6-11.6,5.1-11.6,5.1s-0.3,12.1-2.5,15
					c-2.2,2.9-4.8,16.4-4.5,19.7c0.3,3.4-3.1,19.2,0.3,23.4C423.6,487.2,415.9,492.6,423,493.7z"/>
				<path class="st2" d="M454.9,432.1c0,0-26,2.9-27.1,9.3S454.9,432.1,454.9,432.1z"/>
				<path class="st2" d="M439.3,457.5c-1.7,0.6-11.6,3.1-13.5,9.1C423.9,472.6,439.3,457.5,439.3,457.5z"/>
				<path class="st2" d="M427.3,495.1c9.1,0.8,26.8,1,26.8,1s13.2-26.3,24.5-25.4c0,0-10.5-11.8-14.7-10.4c-0.7,0.2-1.1-0.3-1.3-1.3
					c-11.1,3.4-32.2,11.6-34.2,26.2C427.8,489,427.4,492.2,427.3,495.1z"/>
				<path class="st3" d="M624.4,395v112.9c0,1.9-1,2.2-2.7,3.2c-5.7,3.2-19.9,8.9-36.7-0.1c-1.7-0.9-2.9-1.2-2.9-3.2V395.7
					C582,395.7,603.5,404.4,624.4,395z"/>
				<ellipse class="st13" cx="603.2" cy="394.9" rx="21.2" ry="4.5"/>
				<g class="st14">
					<circle cx="622.5" cy="442" r="0.5"/>
					<circle cx="620" cy="442.6" r="0.5"/>
					<circle cx="617.1" cy="443.5" r="0.5"/>
					<circle cx="611.7" cy="444.7" r="0.5"/>
					<circle cx="606.1" cy="445.3" r="0.5"/>
					<circle cx="600.3" cy="445.6" r="0.5"/>
					<circle cx="591.9" cy="444.5" r="0.5"/>
					<circle cx="594.7" cy="445.2" r="0.5"/>
					<circle cx="586.7" cy="443.5" r="0.5"/>
					<circle cx="589.2" cy="444" r="0.5"/>
					<circle cx="584" cy="442.6" r="0.5"/>
					<circle cx="614.3" cy="444.2" r="0.5"/>
					<circle cx="608.8" cy="445.2" r="0.5"/>
					<circle cx="602.8" cy="445.6" r="0.5"/>
					<circle cx="597.4" cy="445.6" r="0.5"/>
				</g>
				<g class="st14">
					<circle cx="622.5" cy="444.3" r="0.5"/>
					<circle cx="620" cy="444.9" r="0.5"/>
					<circle cx="617.1" cy="445.8" r="0.5"/>
					<circle cx="611.7" cy="447" r="0.5"/>
					<circle cx="606.1" cy="447.8" r="0.5"/>
					<circle cx="600.3" cy="448" r="0.5"/>
					<circle cx="591.9" cy="446.8" r="0.5"/>
					<circle cx="594.7" cy="447.5" r="0.5"/>
					<circle cx="586.7" cy="445.8" r="0.5"/>
					<circle cx="589.2" cy="446.3" r="0.5"/>
					<circle cx="584" cy="444.9" r="0.5"/>
					<circle cx="614.3" cy="446.5" r="0.5"/>
					<circle cx="608.8" cy="447.5" r="0.5"/>
					<circle cx="602.8" cy="448" r="0.5"/>
					<circle cx="597.4" cy="448" r="0.5"/>
				</g>
				<g class="st14">
					<circle cx="622.5" cy="446.5" r="0.5"/>
					<circle cx="620" cy="447.3" r="0.5"/>
					<circle cx="617.1" cy="448.2" r="0.5"/>
					<circle cx="611.7" cy="449.4" r="0.5"/>
					<circle cx="606.1" cy="450" r="0.5"/>
					<circle cx="600.3" cy="450.3" r="0.5"/>
					<circle cx="591.9" cy="449.2" r="0.5"/>
					<circle cx="594.7" cy="449.8" r="0.5"/>
					<circle cx="586.7" cy="448.2" r="0.5"/>
					<circle cx="589.2" cy="448.7" r="0.5"/>
					<circle cx="584" cy="447.3" r="0.5"/>
					<circle cx="614.3" cy="448.9" r="0.5"/>
					<circle cx="608.8" cy="449.8" r="0.5"/>
					<circle cx="602.8" cy="450.3" r="0.5"/>
					<circle cx="597.4" cy="450.3" r="0.5"/>
				</g>
				<g class="st14">
					<circle cx="622.5" cy="448.9" r="0.5"/>
					<circle cx="620" cy="449.6" r="0.5"/>
					<circle cx="617.1" cy="450.5" r="0.5"/>
					<circle cx="611.7" cy="451.7" r="0.5"/>
					<circle cx="606.1" cy="452.3" r="0.5"/>
					<circle cx="600.3" cy="452.6" r="0.5"/>
					<circle cx="591.9" cy="451.5" r="0.5"/>
					<circle cx="594.7" cy="452.1" r="0.5"/>
					<circle cx="586.7" cy="450.5" r="0.5"/>
					<circle cx="589.2" cy="451" r="0.5"/>
					<circle cx="584" cy="449.6" r="0.5"/>
					<circle cx="614.3" cy="451.2" r="0.5"/>
					<circle cx="608.8" cy="452.1" r="0.5"/>
					<circle cx="602.8" cy="452.6" r="0.5"/>
					<circle cx="597.4" cy="452.6" r="0.5"/>
				</g>
				<g class="st14">
					<circle cx="622.5" cy="451.2" r="0.5"/>
					<circle cx="620" cy="451.9" r="0.5"/>
					<circle cx="617.1" cy="452.8" r="0.5"/>
					<circle cx="611.7" cy="454.1" r="0.5"/>
					<circle cx="606.1" cy="454.7" r="0.5"/>
					<circle cx="600.3" cy="455" r="0.5"/>
					<circle cx="591.9" cy="453.9" r="0.5"/>
					<circle cx="594.7" cy="454.5" r="0.5"/>
					<circle cx="586.7" cy="452.8" r="0.5"/>
					<circle cx="589.2" cy="453.4" r="0.5"/>
					<circle cx="584" cy="451.9" r="0.5"/>
					<circle cx="614.3" cy="453.6" r="0.5"/>
					<circle cx="608.8" cy="454.5" r="0.5"/>
					<circle cx="602.8" cy="455" r="0.5"/>
					<circle cx="597.4" cy="455" r="0.5"/>
				</g>
				<g class="st14">
					<circle cx="622.5" cy="453.6" r="0.5"/>
					<circle cx="620" cy="454.3" r="0.5"/>
					<circle cx="617.1" cy="455.2" r="0.5"/>
					<circle cx="611.7" cy="456.4" r="0.5"/>
					<circle cx="606.1" cy="457" r="0.5"/>
					<circle cx="600.3" cy="457.3" r="0.5"/>
					<circle cx="591.9" cy="456.2" r="0.5"/>
					<circle cx="594.7" cy="456.8" r="0.5"/>
					<circle cx="586.7" cy="455.2" r="0.5"/>
					<circle cx="589.2" cy="455.7" r="0.5"/>
					<circle cx="584" cy="454.3" r="0.5"/>
					<circle cx="614.3" cy="455.9" r="0.5"/>
					<circle cx="608.8" cy="456.8" r="0.5"/>
					<circle cx="602.8" cy="457.3" r="0.5"/>
					<circle cx="597.4" cy="457.3" r="0.5"/>
				</g>
				<g class="st14">
					<circle cx="622.5" cy="455.9" r="0.5"/>
					<circle cx="620" cy="456.6" r="0.5"/>
					<circle cx="617.1" cy="457.5" r="0.5"/>
					<circle cx="611.7" cy="458.8" r="0.5"/>
					<circle cx="606.1" cy="459.4" r="0.5"/>
					<circle cx="600.3" cy="459.7" r="0.5"/>
					<circle cx="591.9" cy="458.6" r="0.5"/>
					<circle cx="594.7" cy="459.2" r="0.5"/>
					<circle cx="586.7" cy="457.5" r="0.5"/>
					<circle cx="589.2" cy="458" r="0.5"/>
					<circle cx="584" cy="456.6" r="0.5"/>
					<circle cx="614.3" cy="458.2" r="0.5"/>
					<circle cx="608.8" cy="459.2" r="0.5"/>
					<circle cx="602.8" cy="459.7" r="0.5"/>
					<circle cx="597.4" cy="459.7" r="0.5"/>
				</g>
				<g class="st14">
					<circle cx="622.5" cy="458.2" r="0.5"/>
					<circle cx="620" cy="459" r="0.5"/>
					<circle cx="617.1" cy="459.9" r="0.5"/>
					<circle cx="611.7" cy="461.1" r="0.5"/>
					<circle cx="606.1" cy="461.7" r="0.5"/>
					<circle cx="600.3" cy="462" r="0.5"/>
					<circle cx="591.9" cy="460.9" r="0.5"/>
					<circle cx="594.7" cy="461.5" r="0.5"/>
					<circle cx="586.7" cy="459.9" r="0.5"/>
					<circle cx="589.2" cy="460.4" r="0.5"/>
					<circle cx="584" cy="459" r="0.5"/>
					<circle cx="614.3" cy="460.6" r="0.5"/>
					<circle cx="608.8" cy="461.5" r="0.5"/>
					<circle cx="602.8" cy="462" r="0.5"/>
					<circle cx="597.4" cy="462" r="0.5"/>
				</g>
				<g class="st14">
					<circle cx="622.5" cy="460.6" r="0.5"/>
					<circle cx="620" cy="461.3" r="0.5"/>
					<circle cx="617.1" cy="462.2" r="0.5"/>
					<circle cx="611.7" cy="463.4" r="0.5"/>
					<circle cx="606.1" cy="464" r="0.5"/>
					<circle cx="600.3" cy="464.4" r="0.5"/>
					<circle cx="591.9" cy="463.1" r="0.5"/>
					<circle cx="594.7" cy="463.8" r="0.5"/>
					<circle cx="586.7" cy="462.2" r="0.5"/>
					<circle cx="589.2" cy="462.7" r="0.5"/>
					<circle cx="584" cy="461.3" r="0.5"/>
					<circle cx="614.3" cy="462.9" r="0.5"/>
					<circle cx="608.8" cy="463.8" r="0.5"/>
					<circle cx="602.8" cy="464.4" r="0.5"/>
					<circle cx="597.4" cy="464.4" r="0.5"/>
				</g>
				<g class="st14">
					<circle cx="622.5" cy="462.9" r="0.5"/>
					<circle cx="620" cy="463.6" r="0.5"/>
					<circle cx="617.1" cy="464.6" r="0.5"/>
					<circle cx="611.7" cy="465.7" r="0.5"/>
					<circle cx="606.1" cy="466.4" r="0.5"/>
					<circle cx="600.3" cy="466.7" r="0.5"/>
					<circle cx="591.9" cy="465.6" r="0.5"/>
					<circle cx="594.7" cy="466.2" r="0.5"/>
					<circle cx="586.7" cy="464.6" r="0.5"/>
					<circle cx="589.2" cy="465.1" r="0.5"/>
					<circle cx="584" cy="463.6" r="0.5"/>
					<circle cx="614.3" cy="465.3" r="0.5"/>
					<circle cx="608.8" cy="466.2" r="0.5"/>
					<circle cx="602.8" cy="466.7" r="0.5"/>
					<circle cx="597.4" cy="466.7" r="0.5"/>
				</g>
				<g class="st14">
					<circle cx="622.5" cy="465.3" r="0.5"/>
					<circle cx="620" cy="466" r="0.5"/>
					<circle cx="617.1" cy="466.9" r="0.5"/>
					<circle cx="611.7" cy="468" r="0.5"/>
					<circle cx="606.1" cy="468.7" r="0.5"/>
					<circle cx="600.3" cy="469" r="0.5"/>
					<circle cx="591.9" cy="467.8" r="0.5"/>
					<circle cx="594.7" cy="468.5" r="0.5"/>
					<circle cx="586.7" cy="466.9" r="0.5"/>
					<circle cx="589.2" cy="467.4" r="0.5"/>
					<circle cx="584" cy="466" r="0.5"/>
					<circle cx="614.3" cy="467.6" r="0.5"/>
					<circle cx="608.8" cy="468.5" r="0.5"/>
					<circle cx="602.8" cy="469" r="0.5"/>
					<circle cx="597.4" cy="469" r="0.5"/>
				</g>
				<g class="st14">
					<circle cx="622.5" cy="467.6" r="0.5"/>
					<circle cx="620" cy="468.3" r="0.5"/>
					<circle cx="617.1" cy="469.2" r="0.5"/>
					<circle cx="611.7" cy="470.4" r="0.5"/>
					<circle cx="606.1" cy="471.1" r="0.5"/>
					<circle cx="600.3" cy="471.4" r="0.5"/>
					<circle cx="591.9" cy="470.2" r="0.5"/>
					<circle cx="594.7" cy="470.9" r="0.5"/>
					<circle cx="586.7" cy="469.2" r="0.5"/>
					<circle cx="589.2" cy="469.7" r="0.5"/>
					<circle cx="584" cy="468.3" r="0.5"/>
					<circle cx="614.3" cy="470" r="0.5"/>
					<circle cx="608.8" cy="470.9" r="0.5"/>
					<circle cx="602.8" cy="471.4" r="0.5"/>
					<circle cx="597.4" cy="471.4" r="0.5"/>
				</g>
				<g class="st14">
					<circle cx="622.5" cy="470" r="0.5"/>
					<circle cx="620" cy="470.7" r="0.5"/>
					<circle cx="617.1" cy="471.6" r="0.5"/>
					<circle cx="611.7" cy="472.7" r="0.5"/>
					<circle cx="606.1" cy="473.4" r="0.5"/>
					<circle cx="600.3" cy="473.7" r="0.5"/>
					<circle cx="591.9" cy="472.5" r="0.5"/>
					<circle cx="594.7" cy="473.2" r="0.5"/>
					<circle cx="586.7" cy="471.6" r="0.5"/>
					<circle cx="589.2" cy="472.1" r="0.5"/>
					<circle cx="584" cy="470.7" r="0.5"/>
					<circle cx="614.3" cy="472.3" r="0.5"/>
					<circle cx="608.8" cy="473.2" r="0.5"/>
					<circle cx="602.8" cy="473.7" r="0.5"/>
					<circle cx="597.4" cy="473.7" r="0.5"/>
				</g>
				<g class="st14">
					<circle cx="622.5" cy="472.3" r="0.5"/>
					<circle cx="620" cy="473" r="0.5"/>
					<circle cx="617.1" cy="473.9" r="0.5"/>
					<circle cx="611.7" cy="475" r="0.5"/>
					<circle cx="606.1" cy="475.8" r="0.5"/>
					<circle cx="600.3" cy="476.1" r="0.5"/>
					<circle cx="591.9" cy="474.8" r="0.5"/>
					<circle cx="594.7" cy="475.6" r="0.5"/>
					<circle cx="586.7" cy="473.9" r="0.5"/>
					<circle cx="589.2" cy="474.4" r="0.5"/>
					<circle cx="584" cy="473" r="0.5"/>
					<circle cx="614.3" cy="474.6" r="0.5"/>
					<circle cx="608.8" cy="475.6" r="0.5"/>
					<circle cx="602.8" cy="476.1" r="0.5"/>
					<circle cx="597.4" cy="476.1" r="0.5"/>
				</g>
				<g class="st14">
					<circle cx="622.5" cy="474.6" r="0.5"/>
					<circle cx="620" cy="475.3" r="0.5"/>
					<circle cx="617.1" cy="476.3" r="0.5"/>
					<circle cx="611.7" cy="477.4" r="0.5"/>
					<circle cx="606.1" cy="478.1" r="0.5"/>
					<circle cx="600.3" cy="478.4" r="0.5"/>
					<circle cx="591.9" cy="477.2" r="0.5"/>
					<circle cx="594.7" cy="477.9" r="0.5"/>
					<circle cx="586.7" cy="476.3" r="0.5"/>
					<circle cx="589.2" cy="476.8" r="0.5"/>
					<circle cx="584" cy="475.3" r="0.5"/>
					<circle cx="614.3" cy="476.9" r="0.5"/>
					<circle cx="608.8" cy="477.9" r="0.5"/>
					<circle cx="602.8" cy="478.4" r="0.5"/>
					<circle cx="597.4" cy="478.4" r="0.5"/>
				</g>
				<g class="st14">
					<circle cx="622.5" cy="477" r="0.5"/>
					<circle cx="620" cy="477.7" r="0.5"/>
					<circle cx="617.1" cy="478.6" r="0.5"/>
					<circle cx="611.7" cy="479.7" r="0.5"/>
					<circle cx="606.1" cy="480.4" r="0.5"/>
					<circle cx="600.3" cy="480.7" r="0.5"/>
					<circle cx="591.9" cy="479.5" r="0.5"/>
					<circle cx="594.7" cy="480.2" r="0.5"/>
					<circle cx="586.7" cy="478.6" r="0.5"/>
					<circle cx="589.2" cy="479" r="0.5"/>
					<circle cx="584" cy="477.7" r="0.5"/>
					<circle cx="614.3" cy="479.3" r="0.5"/>
					<circle cx="608.8" cy="480.2" r="0.5"/>
					<circle cx="602.8" cy="480.7" r="0.5"/>
					<circle cx="597.4" cy="480.7" r="0.5"/>
				</g>
				<g class="st14">
					<circle cx="622.5" cy="479.3" r="0.5"/>
					<circle cx="620" cy="479.9" r="0.5"/>
					<circle cx="617.1" cy="480.9" r="0.5"/>
					<circle cx="611.7" cy="482.1" r="0.5"/>
					<circle cx="606.1" cy="482.8" r="0.5"/>
					<circle cx="600.3" cy="483" r="0.5"/>
					<circle cx="591.9" cy="481.9" r="0.5"/>
					<circle cx="594.7" cy="482.6" r="0.5"/>
					<circle cx="586.7" cy="480.9" r="0.5"/>
					<circle cx="589.2" cy="481.5" r="0.5"/>
					<circle cx="584" cy="479.9" r="0.5"/>
					<circle cx="614.3" cy="481.6" r="0.5"/>
					<circle cx="608.8" cy="482.6" r="0.5"/>
					<circle cx="602.8" cy="483" r="0.5"/>
					<circle cx="597.4" cy="483" r="0.5"/>
				</g>
				<g class="st14">
					<circle cx="622.5" cy="481.7" r="0.5"/>
					<circle cx="620" cy="482.3" r="0.5"/>
					<circle cx="617.1" cy="483.3" r="0.5"/>
					<circle cx="611.7" cy="484.4" r="0.5"/>
					<circle cx="606.1" cy="485.1" r="0.5"/>
					<circle cx="600.3" cy="485.3" r="0.5"/>
					<circle cx="591.9" cy="484.2" r="0.5"/>
					<circle cx="594.7" cy="484.9" r="0.5"/>
					<circle cx="586.7" cy="483.3" r="0.5"/>
					<circle cx="589.2" cy="483.7" r="0.5"/>
					<circle cx="584" cy="482.3" r="0.5"/>
					<circle cx="614.3" cy="483.9" r="0.5"/>
					<circle cx="608.8" cy="484.9" r="0.5"/>
					<circle cx="602.8" cy="485.3" r="0.5"/>
					<circle cx="597.4" cy="485.3" r="0.5"/>
				</g>
				<g class="st14">
					<circle cx="622.5" cy="484" r="0.5"/>
					<circle cx="620" cy="484.6" r="0.5"/>
					<circle cx="617.1" cy="485.6" r="0.5"/>
					<circle cx="611.7" cy="486.7" r="0.5"/>
					<circle cx="606.1" cy="487.5" r="0.5"/>
					<circle cx="600.3" cy="487.7" r="0.5"/>
					<circle cx="591.9" cy="486.5" r="0.5"/>
					<circle cx="594.7" cy="487.3" r="0.5"/>
					<circle cx="586.7" cy="485.6" r="0.5"/>
					<circle cx="589.2" cy="486" r="0.5"/>
					<circle cx="584" cy="484.6" r="0.5"/>
					<circle cx="614.3" cy="486.2" r="0.5"/>
					<circle cx="608.8" cy="487.3" r="0.5"/>
					<circle cx="602.8" cy="487.7" r="0.5"/>
					<circle cx="597.4" cy="487.7" r="0.5"/>
				</g>
				<g class="st14">
					<circle cx="622.5" cy="486.3" r="0.5"/>
					<circle cx="620" cy="487" r="0.5"/>
					<circle cx="617.1" cy="488" r="0.5"/>
					<circle cx="611.7" cy="489.1" r="0.5"/>
					<circle cx="606.1" cy="489.8" r="0.5"/>
					<circle cx="600.3" cy="490" r="0.5"/>
					<circle cx="591.9" cy="488.9" r="0.5"/>
					<circle cx="594.7" cy="489.6" r="0.5"/>
					<circle cx="586.7" cy="488" r="0.5"/>
					<circle cx="589.2" cy="488.4" r="0.5"/>
					<circle cx="584" cy="487" r="0.5"/>
					<circle cx="614.3" cy="488.6" r="0.5"/>
					<circle cx="608.8" cy="489.6" r="0.5"/>
					<circle cx="602.8" cy="490" r="0.5"/>
					<circle cx="597.4" cy="490" r="0.5"/>
				</g>
				<g class="st14">
					<circle cx="622.5" cy="488.7" r="0.5"/>
					<circle cx="620" cy="489.3" r="0.5"/>
					<circle cx="617.1" cy="490.3" r="0.5"/>
					<circle cx="611.7" cy="491.4" r="0.5"/>
					<circle cx="606.1" cy="492.1" r="0.5"/>
					<circle cx="600.3" cy="492.3" r="0.5"/>
					<circle cx="591.9" cy="491.2" r="0.5"/>
					<circle cx="594.7" cy="491.9" r="0.5"/>
					<circle cx="586.7" cy="490.3" r="0.5"/>
					<circle cx="589.2" cy="490.7" r="0.5"/>
					<circle cx="584" cy="489.3" r="0.5"/>
					<circle cx="614.3" cy="490.9" r="0.5"/>
					<circle cx="608.8" cy="491.9" r="0.5"/>
					<circle cx="602.8" cy="492.3" r="0.5"/>
					<circle cx="597.4" cy="492.3" r="0.5"/>
				</g>
				<g class="st14">
					<circle cx="622.5" cy="491" r="0.5"/>
					<circle cx="620" cy="491.6" r="0.5"/>
					<circle cx="617.1" cy="492.7" r="0.5"/>
					<circle cx="611.7" cy="493.8" r="0.5"/>
					<circle cx="606.1" cy="494.5" r="0.5"/>
					<circle cx="600.3" cy="494.7" r="0.5"/>
					<circle cx="591.9" cy="493.6" r="0.5"/>
					<circle cx="594.7" cy="494.3" r="0.5"/>
					<circle cx="586.7" cy="492.7" r="0.5"/>
					<circle cx="589.2" cy="493.1" r="0.5"/>
					<circle cx="584" cy="491.6" r="0.5"/>
					<circle cx="614.3" cy="493.3" r="0.5"/>
					<circle cx="608.8" cy="494.3" r="0.5"/>
					<circle cx="602.8" cy="494.7" r="0.5"/>
					<circle cx="597.4" cy="494.7" r="0.5"/>
				</g>
				<g class="st14">
					<circle cx="622.5" cy="493.4" r="0.5"/>
					<circle cx="620" cy="494" r="0.5"/>
					<circle cx="617.1" cy="495" r="0.5"/>
					<circle cx="611.7" cy="496.1" r="0.5"/>
					<circle cx="606.1" cy="496.8" r="0.5"/>
					<circle cx="600.3" cy="497" r="0.5"/>
					<circle cx="591.9" cy="495.9" r="0.5"/>
					<circle cx="594.7" cy="496.6" r="0.5"/>
					<circle cx="586.7" cy="495" r="0.5"/>
					<circle cx="589.2" cy="495.4" r="0.5"/>
					<circle cx="584" cy="494" r="0.5"/>
					<circle cx="614.3" cy="495.6" r="0.5"/>
					<circle cx="608.8" cy="496.6" r="0.5"/>
					<circle cx="602.8" cy="497" r="0.5"/>
					<circle cx="597.4" cy="497" r="0.5"/>
				</g>
				<g class="st14">
					<circle cx="622.5" cy="495.7" r="0.5"/>
					<circle cx="620" cy="496.3" r="0.5"/>
					<circle cx="617.1" cy="497.2" r="0.5"/>
					<circle cx="611.7" cy="498.5" r="0.5"/>
					<circle cx="606.1" cy="499.2" r="0.5"/>
					<circle cx="600.3" cy="499.4" r="0.5"/>
					<circle cx="591.9" cy="498.3" r="0.5"/>
					<circle cx="594.7" cy="498.9" r="0.5"/>
					<circle cx="586.7" cy="497.2" r="0.5"/>
					<circle cx="589.2" cy="497.7" r="0.5"/>
					<circle cx="584" cy="496.3" r="0.5"/>
					<circle cx="614.3" cy="497.9" r="0.5"/>
					<circle cx="608.8" cy="498.9" r="0.5"/>
					<circle cx="602.8" cy="499.4" r="0.5"/>
					<circle cx="597.4" cy="499.4" r="0.5"/>
				</g>
				<polygon class="st2" points="728.4,483.4 756.3,484.8 710.4,499.3 687,497.9 				"/>
				<polygon class="st15" points="728.4,482.2 756.2,483.6 710.4,498 686.9,496.7 				"/>
				<path class="st16" d="M725.2,485.3c1.1-0.5,2.2,0.4,3.5,0.6c0.7,0.1,1.3,0,2,0.1c1.3,0.2,2.7,1,4.1,0.6L725.2,485.3z"/>
				<path class="st16" d="M723.7,486.2c1.1-0.5,2.2,0.4,3.5,0.6c0.7,0.1,1.3,0,2,0.1c1.3,0.2,2.7,1,4.1,0.6L723.7,486.2z"/>
				<path class="st16" d="M720.5,488c1.1-0.5,2.2,0.4,3.5,0.6c0.7,0.1,1.3,0,2,0.1c1.3,0.2,2.7,1,4.1,0.6L720.5,488z"/>
				<path class="st7" d="M790.8,478c0,0-3.5,16.2,12,18.1l0.9-1.8C803.8,494.3,791.8,483,790.8,478z"/>
				<path class="st7" d="M808.6,494.2l-3.6,0.8l-0.3,0.1c0,0-9.6-7.8-9.5-25.2c1.3,2.5,2.9,5,4.6,7.2
					C803.7,482.1,807.9,488.9,808.6,494.2z"/>
				<path class="st7" d="M809.9,495.8c-0.6,0.4-1.3,0.5-1.9,0.2c-9.3-2.1-6.1-32.3-6.1-32.3c0.5,0.2,1,4.1,3.2,9.1
					C808.8,481.6,812.8,493.7,809.9,495.8z"/>
				<path class="st7" d="M830.4,478c0,0,0.6,16.2-14.9,18.1l-0.9-1.8C814.6,494.3,829.4,483,830.4,478z"/>
				<path class="st7" d="M826,469.9c0.1,17.4-12.3,25.2-12.3,25.2l-0.4-0.1l-3.6-0.8c0.7-5.3,5.1-12.1,8.9-17.1
					C820.7,474.3,823.2,471.9,826,469.9z"/>
				<path class="st7" d="M813.2,494.3c-0.5,0.7-1.2,1.2-2,1.5l0,0c-0.2,0.1-0.5,0.2-0.8,0.2c-2.2,0.5-3.1-1.1-3-3.9
					c0.2-5,3.4-13.5,6.1-20c1.3-3.2,3.4-6,5.8-8.3C819.3,463.8,819.2,487.4,813.2,494.3z"/>
				<path class="st7" d="M810.6,453.3c0,0-10.3,36.6-1.4,42.1C818,500.9,812.9,456.5,810.6,453.3z"/>
				<path class="st2" d="M790.8,478c0,0-3.5,16.2,12,18.1l0.9-1.8C803.8,494.3,791.8,483,790.8,478z"/>
				<path class="st2" d="M808.6,494.2l-3.6,0.8l-0.3,0.1c0,0-9.6-7.8-9.5-25.2c1.3,2.5,2.9,5,4.6,7.2
					C803.7,482.1,807.9,488.9,808.6,494.2z"/>
				<path class="st2" d="M809.9,495.8c-0.6,0.4-1.3,0.5-1.9,0.2c-9.3-2.1-6.1-32.3-6.1-32.3c0.5,0.2,1,4.1,3.2,9.1
					C808.8,481.6,812.8,493.7,809.9,495.8z"/>
				<path class="st2" d="M830.4,478c0,0,0.6,16.2-14.9,18.1l-0.9-1.8C814.6,494.3,829.4,483,830.4,478z"/>
				<path class="st2" d="M826,469.9c0.1,17.4-12.3,25.2-12.3,25.2l-0.4-0.1l-3.6-0.8c0.7-5.3,5.1-12.1,8.9-17.1
					C820.7,474.3,823.2,471.9,826,469.9z"/>
				<path class="st2" d="M813.2,494.3c-0.5,0.7-1.2,1.2-2,1.5l0,0c-0.2,0.1-0.5,0.2-0.8,0.2c-2.2,0.5-3.1-1.1-3-3.9
					c0.2-5,3.4-13.5,6.1-20c1.3-3.2,3.4-6,5.8-8.3C819.3,463.8,819.2,487.4,813.2,494.3z"/>
				<path class="st2" d="M810.6,453.3c0,0-10.3,36.6-1.4,42.1C818,500.9,812.9,456.5,810.6,453.3z"/>
				<path class="st7" d="M790.8,478c0,0-2,16.2,13.4,18.1l0.9-1.8C805.2,494.3,791.8,483,790.8,478z"/>
				<path class="st7" d="M810.1,494.2l-3.6,0.8l-0.3,0.1c0,0-11-7.8-10.9-25.2c0,0,2.9,3.1,6,7.2
					C805.1,482.1,809.4,488.9,810.1,494.2z"/>
				<path class="st2" d="M810.1,494.2l-3.6,0.8c-3.4-3.1-4.8-10.8-5.3-17.9C805.1,482.1,809.4,488.9,810.1,494.2z"/>
				<path class="st7" d="M811.3,495.8c-0.6,0.4-1.3,0.5-1.9,0.2c-9.3-2.1-7.5-32.3-7.5-32.3c0.5,0.2,2.5,4.1,4.6,9.1
					C810.2,481.6,814.3,493.7,811.3,495.8z"/>
				<path class="st7" d="M830.4,478c0,0,2,16.2-13.4,18.1l-0.9-1.8C816,494.3,829.4,483,830.4,478z"/>
				<path class="st7" d="M826,469.9c0.1,17.4-10.9,25.2-10.9,25.2l-0.3-0.1l-3.6-0.8c0.7-5.3,5.1-12.1,8.9-17.1
					C823.1,472.8,826,469.9,826,469.9z"/>
				<path class="st2" d="M819.9,477.1c-0.5,6.6-1.6,13.8-4.6,17.2c-0.2,0.2-0.4,0.5-0.7,0.7l-3.6-0.8
					C811.8,488.9,816.2,482.1,819.9,477.1z"/>
				<path class="st7" d="M814.7,494.3c-0.5,0.7-1.2,1.2-2,1.5l0,0c-0.2,0.1-0.5,0.2-0.7,0.2c-2.2,0.5-3.1-1.1-3-3.9
					c0.2-5,3.4-13.5,6.1-20c2-4.7,3.9-8.1,4.4-8.3C819.3,463.8,820.7,487.4,814.7,494.3z"/>
				<path class="st2" d="M811.3,495.8c-0.5,0-1-0.2-1.4-0.5c-4.4-2.7-4.5-12.8-3.4-22.5C810.2,481.6,814.3,493.7,811.3,495.8z"/>
				<path class="st2" d="M814.7,494.3c-0.5,1.1-1.2,1.6-2,1.5l0,0c-0.4-0.1-0.8-0.2-1.2-0.5c-1.1-0.8-2-1.9-2.4-3.2
					c0.2-5,3.4-13.5,6.1-20C816,481.1,816.3,490.6,814.7,494.3z"/>
				<path class="st7" d="M810.6,453.3c0,0-8.9,36.6,0,42.1C819.4,500.9,812.9,456.5,810.6,453.3z"/>
				<polygon class="st1" points="824.5,497.2 823.9,500.4 821.7,512.3 800.2,512.3 797.9,500.4 797.2,497.2 				"/>
				<polygon class="st2" points="824.5,497.2 823.9,500.4 797.9,500.4 797.2,497.2 				"/>
				<rect x="792.2" y="493.6" class="st1" width="37" height="6.1"/>
				<path class="st11" d="M891.6,545.4c0,0,73.1,45.8,57.1,119.5c-1.3,6-2.4,12-3.2,18.1c-3,23.9-20.5,92.4-125.1,124v7.1l44.4-12.4
					l30.1-16.6l23-20.7l28.1-34.3l13-28l4.8-36.9l2.7-42.1l-6.7-36L944,563.6l-19.3-15.1L891.6,545.4z"/>
				<path class="st10" d="M218.3,742c-6.9,36.6-1.5,74.8,16.5,107.5c52.5,95.3,164.2,67.3,197.1,56.5c7.8-2.5,15.8-4.8,23.8-6.6
					l362.8-82.3c124.9-21.7,150.7-122.9,150.7-122.9c24.7-78,7.7-123.5-14.6-149.2c-17.9-20.5-44.3-31.5-71.5-29.8l-43.1,2.2
					l-382.6,41.7C278.7,561.1,230.9,674.9,218.3,742z M253.7,746.5c12.1-57.7,59.3-141.3,211.5-146.5c7-0.2,13.9-0.8,20.9-1.8
					l342.1-45.7l39.6-2c29.7-1.5,58.5,12.3,75,37.2c15.8,23.7,24.2,61.1,4.8,119.2c0,0-23.8,88.3-139.4,107.2l-335.1,71.8
					c-7.6,1.6-15.2,3.7-22.6,5.9c-30.4,9.4-131.4,33.2-180.6-46.7C252.1,815.7,246.7,780.3,253.7,746.5L253.7,746.5z"/>
			</g>
		</g>
	</g>
</g>
</svg>
